<?xml version="1.0" encoding="UTF-8"?>
<svg width="17px" height="17px" viewBox="0 0 17 17" version="1.1" xmlns="http://www.w3.org/2000/svg" xmlns:xlink="http://www.w3.org/1999/xlink">
     <g id="Artboard" transform="translate(-77.000000, -154.000000)" fill="#000000">
            <path d="M92.7683072,168.368307 L89.6583072,165.258307 C91.8756753,162.306065 91.4330093,158.14186 88.644546,155.721751 C85.8560828,153.301642 81.671024,153.449443 79.0602336,156.060234 C76.4494432,158.671024 76.3016423,162.856083 78.721751,165.644546 C81.1418597,168.433009 85.3060654,168.875675 88.2583072,166.658307 L91.3693072,169.768307 C91.5474831,169.965944 91.8033109,170.075585 92.0693072,170.068307 C92.3345237,170.068307 92.5888776,169.96295 92.776414,169.775414 C92.9639504,169.587878 93.0694484,169.333524 93.0694484,169.068307 C93.0739412,168.802617 92.9643327,168.547714 92.7683072,168.368307 Z M79.0453071,161.057307 C79.0458599,158.292538 81.2872054,156.051492 84.0519743,156.051308 C86.8167433,156.051124 89.0583866,158.291873 89.0593071,161.056642 C89.060227,163.82141 86.8200756,166.063651 84.0553072,166.065308 C82.7266752,166.066103 81.4522027,165.538796 80.5125303,164.599499 C79.572858,163.660201 79.0450416,162.385939 79.0453071,161.057307 L79.0453071,161.057307 Z" id="if_search_126577"></path>
        </g>
</svg>