<svg xmlns="http://www.w3.org/2000/svg" width="30.255" height="43.619" viewBox="0 0 30.255 43.619">
  <path id="Rooftop_Barbecue_Deck" data-name="Rooftop Barbecue Deck" d="M5502.377,3348.749a3.273,3.273,0,0,1,3.214-3.268l2.09-9.149a12.482,12.482,0,0,1-7.176-7.5,1.081,1.081,0,0,1,.112-.971,2.47,2.47,0,1,1-1.192-4.657,1.133,1.133,0,0,1-.193-.54,12.48,12.48,0,0,1,21.449-9.8,1.076,1.076,0,0,1,.295.956,1.091,1.091,0,0,1-.635.786l-19.569,8.94-.026.012a2.468,2.468,0,0,1,.451,3.88,1.187,1.187,0,0,1,.341-.049h21.514a1.067,1.067,0,0,1,1.034,1.443,12.483,12.483,0,0,1-7.011,7.436.67.67,0,0,1,.027.089l3.373,14.032a.751.751,0,0,1-1.46.352l-3.361-13.982a12.48,12.48,0,0,1-6.542.048l-.71,3.107h4.666a.751.751,0,1,1,0,1.5h-4.913a.71.71,0,0,1-.095-.006l-1,4.395a3.269,3.269,0,1,1-4.681,2.948Zm1.5,0a1.768,1.768,0,1,0,1.769-1.767A1.77,1.77,0,0,0,5503.878,3348.749Zm8.417-13.035a10.984,10.984,0,0,0,10.164-6.827h-20.328A10.986,10.986,0,0,0,5512.295,3335.715Zm-13.793-10.045a.969.969,0,1,0,.968-.968A.971.971,0,0,0,5498.5,3325.669Zm8.594-14.173a10.986,10.986,0,0,0-6.409,10.433l18.49-8.446a11.044,11.044,0,0,0-7.53-2.982A10.877,10.877,0,0,0,5507.1,3311.5Zm2.527,20.292v-1.5h5.345v1.5Zm13.654-6.12v-1.5h1.5v1.5Zm-4.385,0v-1.5h1.5v1.5Zm4.385-2.441v-.9a1.671,1.671,0,0,1,1.646-1.652,1.088,1.088,0,0,0,.232-.752v-1.5h1.5v1.5c0,1.263-.741,2.252-1.689,2.252a.178.178,0,0,0-.189.152v.9Zm-4.385,0v-.9a1.671,1.671,0,0,1,1.646-1.652,1.09,1.09,0,0,0,.23-.752v-1.5h1.5v1.5c0,1.263-.743,2.252-1.69,2.252a.177.177,0,0,0-.187.152v.9Zm-4.385,0v-.9a1.671,1.671,0,0,1,1.646-1.652,1.089,1.089,0,0,0,.231-.752v-1.5h1.5v1.5c0,1.263-.741,2.252-1.689,2.252a.177.177,0,0,0-.187.152v.9Z" transform="translate(-5496.701 -3308.7)" fill="#333" stroke="#333" stroke-width="0.6"/>
</svg>
