<svg xmlns="http://www.w3.org/2000/svg" width="45.556" height="40.865" viewBox="0 0 45.556 40.865">
  <g id="Group_1270" data-name="Group 1270" transform="translate(0.503 0.507)">
    <g id="Group_1272" data-name="Group 1272" transform="translate(0 0)">
      <path id="Path_1470" data-name="Path 1470" d="M30.281,33.887a3.569,3.569,0,1,0-2.524-1.045,3.56,3.56,0,0,0,2.524,1.045m9.706-21.543.681,1.232a2.339,2.339,0,0,1-.861,3.183L29.164,22.9l1.625,2.816a4.616,4.616,0,0,1,2.764,1.328,4.694,4.694,0,0,1,.36.405H38.8V25a3.689,3.689,0,0,1,3.684-3.685h2.07v18.54h-2.07A3.692,3.692,0,0,1,38.8,36.174V33.726H33.41a4.628,4.628,0,0,1-7.682-4.233l-1.994-3.456-11.1,6.406a2.338,2.338,0,0,1-3.193-.856l-.381-.668L6.256,32.542a.916.916,0,0,1-1.249-.334L.122,23.785a.909.909,0,0,1-.09-.693.922.922,0,0,1,.425-.556l1.358-.782-1.174-.8a1.2,1.2,0,0,1-.383-.415,1.109,1.109,0,0,1-.136-.552,1.144,1.144,0,0,1,.155-.559,1.116,1.116,0,0,1,.411-.408l32.4-18.7a2.34,2.34,0,0,1,3.2.851l4.6,7.96a2.342,2.342,0,0,1-.855,3.2Zm-10.4,13.4a4.64,4.64,0,0,0-3.406,2.43l-1.536-2.661,3.606-2.082Zm4.953,2.766a4.634,4.634,0,0,1-.273,4.16H38.8v-4.16Zm5.2-14.426.006.012a1.288,1.288,0,0,1-.473,1.751L12.112,31.53a1.291,1.291,0,0,1-1.756-.472L7.124,25.392l3.549,2.432a2.147,2.147,0,0,0,1.192.377,2.408,2.408,0,0,0,1.228-.329l25.981-15ZM8.541,30l-1.9-3.33L5.108,24.011l-2.332-1.6-1.672.964,4.745,8.18Zm31.315,3.2v2.977A2.634,2.634,0,0,0,42.483,38.8H43.5V22.375H42.483A2.629,2.629,0,0,0,39.856,25ZM33.616,1.225a1.291,1.291,0,0,1,.977-.126,1.276,1.276,0,0,1,.779.594l4.6,7.958a1.294,1.294,0,0,1,.127.977,1.278,1.278,0,0,1-.6.779L12.565,26.96a1.348,1.348,0,0,1-.688.187,1.1,1.1,0,0,1-.61-.2L1.23,20.074l-.047-.047L1.174,20l.01-.039.028-.026Z" transform="translate(0 0)" fill="#333" stroke="#333" stroke-width="1" fill-rule="evenodd"/>
    </g>
  </g>
</svg>
