<svg xmlns="http://www.w3.org/2000/svg" width="42.038" height="42.116" viewBox="0 0 42.038 42.116">
  <path id="Path_1435" data-name="Path 1435" d="M41.794,37.045H35.541V24.422h2.532a2.785,2.785,0,0,0,2.786-2.786v-.779a2.785,2.785,0,0,0-2.786-2.786H32.931V7.611h.682A2.785,2.785,0,0,0,36.4,4.825V4.046A2.785,2.785,0,0,0,33.613,1.26H9.866A2.785,2.785,0,0,0,7.081,4.046v.779A2.785,2.785,0,0,0,9.866,7.611h.468V18.032H5.405A2.785,2.785,0,0,0,2.62,20.818V21.6a2.785,2.785,0,0,0,2.786,2.786H7.7V37.006h-6a.965.965,0,0,0-.974.974V42.4a.965.965,0,0,0,.974.974h40.09a.965.965,0,0,0,.974-.974V37.98A.957.957,0,0,0,41.794,37.045ZM9.009,4.825V4.046a.831.831,0,0,1,.838-.838H33.632a.831.831,0,0,1,.838.838v.779a.831.831,0,0,1-.838.838H9.866A.848.848,0,0,1,9.009,4.825Zm3.253,2.786H31V18.032H12.262ZM4.568,21.617v-.779A.831.831,0,0,1,5.405,20H38.093a.831.831,0,0,1,.838.838v.779a.831.831,0,0,1-.838.838H5.405A.831.831,0,0,1,4.568,21.617Zm5.1,2.805H33.613V37.045H9.671ZM40.82,41.467H2.678V38.993H40.8v2.474ZM17.541,10.727v4.656a.974.974,0,0,1-1.948,0V10.727a.965.965,0,0,1,.974-.974A.977.977,0,0,1,17.541,10.727Zm5.182,0v4.656a.974.974,0,0,1-1.948,0V10.727a.965.965,0,0,1,.974-.974A.977.977,0,0,1,22.723,10.727Zm5.182,0v4.656a.974.974,0,0,1-1.948,0V10.727a.965.965,0,0,1,.974-.974A.977.977,0,0,1,27.9,10.727ZM15.4,27.948V32.6a.974.974,0,0,1-1.948,0V27.948a.974.974,0,0,1,1.948,0Zm7.325,0V32.6a.974.974,0,0,1-1.948,0V27.948a.974.974,0,0,1,1.948,0Zm7.344,0V32.6a.974.974,0,0,1-1.948,0V27.948a.974.974,0,0,1,1.948,0Z" transform="translate(-0.73 -1.26)" fill="#333"/>
</svg>
