<svg xmlns="http://www.w3.org/2000/svg" width="72.455" height="61.24" viewBox="0 0 72.455 61.24">
  <g id="Group_1331" data-name="Group 1331" transform="translate(-1143.91 -1271.495)">
    <path id="Path_1518" data-name="Path 1518" d="M110.109,85.675V72.316h9.4V85.675" transform="translate(1060.466 1213.915)" fill="none" stroke="#2e2d2c" stroke-linecap="round" stroke-linejoin="round" stroke-width="2.2"/>
    <path id="Path_1519" data-name="Path 1519" d="M149.87,59.567V38.122h9.4V59.567" transform="translate(1030.108 1242.559)" fill="none" stroke="#2e2d2c" stroke-linecap="round" stroke-linejoin="round" stroke-width="2.2"/>
    <g id="Group_1329" data-name="Group 1329" transform="translate(1145.466 1272.595)">
      <g id="Group_1330" data-name="Group 1330" transform="translate(0 0)">
        <path id="Path_1520" data-name="Path 1520" d="M189.631,33.46V3.929h9.4V33.46" transform="translate(-145.716 -3.929)" fill="none" stroke="#2e2d2c" stroke-linecap="round" stroke-linejoin="round" stroke-width="2.2"/>
        <path id="Path_1521" data-name="Path 1521" d="M114.655,111.422s7-5.513,11.36-8.867c4.585-3.527,8.147-2.033,11.017.909l-21.859,21.093H86.838" transform="translate(-67.232 -77.665)" fill="none" stroke="#fff" stroke-linecap="round" stroke-linejoin="round" stroke-width="2.2"/>
        <path id="Path_1522" data-name="Path 1522" d="M42.149,130.738c5.37-6.9,9.629-9.537,14.932-9.537,4.437,0,6.8.536,10.586,3.141h8.122c1.3,0,5.612.594,5.612,7.1H64.3" transform="translate(-33.111 -93.469)" fill="none" stroke="#fff" stroke-linecap="round" stroke-linejoin="round" stroke-width="2.2"/>
        <path id="Path_1523" data-name="Path 1523" d="M114.655,111.422s7-5.513,11.36-8.867c4.585-3.527,8.147-2.033,11.017.909l-21.859,21.093H86.838" transform="translate(-67.232 -77.665)" fill="none" stroke="#2e2d2c" stroke-linecap="round" stroke-linejoin="round" stroke-width="2.2"/>
        <path id="Path_1524" data-name="Path 1524" d="M42.149,130.738c5.37-6.9,9.629-9.537,14.932-9.537,4.437,0,6.8.536,10.586,3.141h8.122c1.3,0,5.612.594,5.612,7.1H64.3" transform="translate(-33.111 -93.469)" fill="none" stroke="#2e2d2c" stroke-linecap="round" stroke-linejoin="round" stroke-width="2.2"/>
        <path id="Path_1525" data-name="Path 1525" d="M3.929,151.6l6.409-6.568,18.2,18.648-6.409,6.568" transform="translate(-3.929 -111.663)" fill="#fff" stroke="#707070" stroke-width="2.2"/>
        <path id="Path_1526" data-name="Path 1526" d="M3.929,151.6l6.409-6.568,18.2,18.648-6.409,6.568" transform="translate(-3.929 -111.663)" fill="none" stroke="#2e2d2c" stroke-linecap="round" stroke-linejoin="round" stroke-width="2.2"/>
        <path id="Path_1527" data-name="Path 1527" d="M28.251,179.986a1.745,1.745,0,0,0,0,2.425,1.645,1.645,0,0,0,2.366,0,1.745,1.745,0,0,0,0-2.425,1.645,1.645,0,0,0-2.366,0" transform="translate(-22.125 -137.969)" fill="#333"/>
      </g>
    </g>
  </g>
</svg>
