<svg xmlns="http://www.w3.org/2000/svg" xmlns:xlink="http://www.w3.org/1999/xlink" width="49.474" height="62.453" viewBox="0 0 49.474 62.453">
  <defs>
    <clipPath id="clip-path">
      <rect id="Rectangle_670" data-name="Rectangle 670" width="49.474" height="62.454" transform="translate(0 0)" fill="#2e2d2c"/>
    </clipPath>
  </defs>
  <g id="Group_1344" data-name="Group 1344" transform="translate(0 0.004)">
    <g id="Group_1343" data-name="Group 1343" transform="translate(0 -0.004)" clip-path="url(#clip-path)">
      <path id="Path_1528" data-name="Path 1528" d="M928.972,616.962a1.137,1.137,0,0,0-1.437.709,1.9,1.9,0,0,1-2.406,1.186,4.171,4.171,0,0,0-5.279,2.6,1.133,1.133,0,1,0,2.146.728A1.9,1.9,0,0,1,924.4,621a4.168,4.168,0,0,0,5.279-2.6,1.133,1.133,0,0,0-.708-1.437" transform="translate(-887.203 -595.046)" fill="#2e2d2c"/>
      <path id="Path_1529" data-name="Path 1529" d="M1002.28,400.954a1.13,1.13,0,0,0-1.437.709,1.9,1.9,0,0,1-2.406,1.187,4.16,4.16,0,0,0-5.279,2.6,1.132,1.132,0,0,0,.708,1.438h0a1.132,1.132,0,0,0,1.436-.709A1.895,1.895,0,0,1,997.71,405a4.163,4.163,0,0,0,5.279-2.605,1.135,1.135,0,0,0-.708-1.437" transform="translate(-957.913 -386.689)" fill="#2e2d2c"/>
      <path id="Path_1530" data-name="Path 1530" d="M1073.435,202.991a1.127,1.127,0,0,0-.573.653,1.389,1.389,0,0,1-1.766.869,3.666,3.666,0,0,0-4.639,2.288,1.137,1.137,0,0,0,.708,1.439h0a1.134,1.134,0,0,0,1.437-.71,1.394,1.394,0,0,1,1.765-.871,3.655,3.655,0,0,0,4.64-2.287,1.134,1.134,0,0,0-1.572-1.382" transform="translate(-1028.616 -195.687)" fill="#2e2d2c"/>
      <path id="Path_1531" data-name="Path 1531" d="M46.443.679A4.533,4.533,0,0,0,41.721.627c-3.292,1.7-5.638,6.681-7.524,10.685l-.277.586a6.355,6.355,0,0,0-3.46-4.322,5.248,5.248,0,0,0-4.072-4.053c-.021-.107-.048-.212-.08-.32A3.821,3.821,0,0,0,23.141.5,3.748,3.748,0,0,0,20.8.975a4.059,4.059,0,0,0-5.9,2.62,4.974,4.974,0,0,0-3.639,4.711,5.532,5.532,0,0,0-3.749,7.33,4.37,4.37,0,0,0-.956,2.727,4.294,4.294,0,0,0,.288,1.554,5.838,5.838,0,0,0-4.27-1.983A1.133,1.133,0,0,0,2.609,20.2c.023,0,.044,0,.066,0h.041a3.814,3.814,0,0,1,2.618,1.418c-1.723.5-3.807,1.317-4.787,3.167A5.618,5.618,0,0,0,.275,28.84,1.947,1.947,0,0,0,0,29.927L1.872,56.48a6.288,6.288,0,0,0,6.283,5.97H38.972A6.277,6.277,0,0,0,45.253,56.5l1.916-27.477v-.008a.094.094,0,0,0,0-.012,1.459,1.459,0,0,0-.637-1.3h0a1.449,1.449,0,0,0-.6-.234A77.3,77.3,0,0,0,49.472,6.853,7.426,7.426,0,0,0,46.443.679M9.856,15.295a3.266,3.266,0,0,1,2.7-4.9l1.375-.058-.321-1.339a2.67,2.67,0,0,1,2.4-3.3l1.047-.08V4.487A1.8,1.8,0,0,1,18.863,2.74a1.777,1.777,0,0,1,1.2.472l.794.717.761-.752a1.526,1.526,0,0,1,1.253-.425,1.548,1.548,0,0,1,1.261,1.093,1.4,1.4,0,0,1,.051.57l-.133,1.265h1.275A2.988,2.988,0,0,1,28.3,8.454l.051.745.7.247a4.151,4.151,0,0,1,2.783,4.01,3.937,3.937,0,0,1-.693,2.128,11.739,11.739,0,0,0-2.168-1.373l-.068-.036c-.151-.08-.293-.155-.438-.236a.2.2,0,0,1-.107-.163.593.593,0,0,1,.145-.459,2.394,2.394,0,0,0,.524-2.058l-.133-.6A2.376,2.376,0,0,0,26.072,8.84l-3.526.771L19.4,10.3a2.379,2.379,0,0,0-1.813,2.828l.132.6A2.367,2.367,0,0,0,19.1,15.4a.628.628,0,0,1,.344.334c.022.064.016.092-.049.2v0c-.087.117-.178.233-.274.356l-.068.086c-.121.154-.246.315-.374.482-.025.032-.049.065-.072.1l-.054.074c-.11.15-.194.268-.273.383-.041.059-.08.12-.12.182l-.025.039c-.081.125-.161.255-.247.4-.045.077-.089.154-.132.234-.08.148-.15.3-.232.482l-.027.058c-.023.049-.047.1-.068.154a6.015,6.015,0,0,0-.252.757c-.006.024-.01.048-.015.073s-.006.038-.011.057a5.988,5.988,0,0,0-.124.7c-.007.065-.01.132-.014.2,0,.034,0,.068-.006.1s-.006.079-.01.118c-.005.057-.01.115-.013.175-.175-.231-.363-.461-.574-.7-.061-.069-.122-.136-.184-.2-.163-.176-.327-.342-.487-.493l-.06-.058c-.033-.032-.066-.064-.1-.095a7.679,7.679,0,0,0-.622-.5c-.034-.024-.068-.046-.1-.068l-.074-.048c-.171-.115-.326-.209-.473-.288-.072-.039-.15-.081-.232-.121a4.884,4.884,0,0,0-.5-.209l-.071-.028c-.032-.013-.063-.026-.1-.036a4.572,4.572,0,0,0-.547-.138.25.25,0,0,0-.041,0H12.8c-.016,0-.032-.007-.049-.012a.536.536,0,0,0-.063-.015,1.857,1.857,0,0,0-.233-.015c-.047,0-.095,0-.143-.005s-.072-.007-.107-.011a1.272,1.272,0,0,0-.157-.013.362.362,0,0,0-.044,0,.309.309,0,0,1-.037,0,4.544,4.544,0,0,0-.5.043l-.081.01c-.055.006-.111.013-.167.023a5.188,5.188,0,0,0-.638.161l-.038.011-.058.018a6.921,6.921,0,0,0-1.522.746,2.052,2.052,0,0,1-.135-.734A2.1,2.1,0,0,1,9.6,16.737l.742-.611Zm15.5,8.692a6.433,6.433,0,0,1-5.327,1.3l-.661-3.027c-.448-2.045.526-3.288,1.468-4.49l.079-.1c.1-.13.2-.257.3-.382l.007-.009v0a2.747,2.747,0,0,0,.224-.353,2.374,2.374,0,0,0,.219-1.627l4.514-.987a2.409,2.409,0,0,0,.111.381,2.511,2.511,0,0,0,1.1,1.231c.136.075.276.15.42.226l.1.054c.148.078.3.159.445.24l.061.033.154.084c.11.062.219.13.324.2l.059.037c.125.077.226.143.32.209.125.086.247.185.352.271s.208.183.294.266.2.2.3.318a3.781,3.781,0,0,1,.452.642c-.414.915-.846,1.935-1.32,3.119-.03.074-.06.147-.091.219s-.07.167-.1.251a11.307,11.307,0,0,0-3.8,1.9m2.751.944c-.087.248-.179.509-.269.775-.028.083-.058.166-.087.249-.043.122-.087.245-.127.369-.337,1.02-.633,1.974-.9,2.913l-.691-.414a5.708,5.708,0,0,0-2.936-.816h-.04c-.084,0-.167,0-.248.011l-.1.007h0l-.087,0c-.055,0-.111.006-.165.012a5.674,5.674,0,0,0-1.722.449l-.191-.872c.3.024.6.049.882.049a8.558,8.558,0,0,0,5.248-1.837,13.587,13.587,0,0,1,1.439-.9M20.189,12.445l6.071-1.328a.439.439,0,0,1,.079-.008.429.429,0,0,1,.413.33.409.409,0,0,1-.059.316.416.416,0,0,1-.26.182l-6.065,1.327a.419.419,0,1,1-.178-.819M2.551,25.842c.46-.866,1.581-1.528,3.528-2.085a5.958,5.958,0,0,0,2.47-1.417c.281-.269.571-.525.887-.782a4.858,4.858,0,0,1,2.32-1.192l.014,0,.032,0a2.2,2.2,0,0,1,.626.018c.034.006.067.016.1.026l.058.016a2.237,2.237,0,0,1,.3.09,1.262,1.262,0,0,1,.116.054l.08.039.059.028a2.488,2.488,0,0,1,.224.117c.048.028.1.064.143.1l.078.056.069.048c.064.044.131.09.2.143s.122.1.181.16l.067.062.076.068c.057.05.116.1.173.16s.146.157.218.238l.06.067.079.086c.049.053.1.108.149.167.083.1.169.214.252.324l.061.081.073.094c.041.052.084.106.126.165.112.156.227.332.338.5l.022.034c.023.035.046.069.069.1s.06.087.09.135c.175.276.352.572.526.879a8.308,8.308,0,0,1,.727,5.312c-.047-.005-.093-.012-.14-.02a3.383,3.383,0,0,1-1.176-.421l-.783-.47A5.707,5.707,0,0,0,12.11,28h-.037a5.7,5.7,0,0,0-2.974.813l-.381.228a4.228,4.228,0,0,1-2.134.6,4.218,4.218,0,0,1-2.135-.6L2.988,28.17l-.017-.011a1.907,1.907,0,0,0-.607-.234,3.094,3.094,0,0,1,.187-2.084M43,56.362h0a4.024,4.024,0,0,1-4.02,3.82H8.158a4.035,4.035,0,0,1-4.022-3.842L2.313,30.453l.9.539a6.487,6.487,0,0,0,3.338.925h.074a6.483,6.483,0,0,0,3.338-.925l.381-.228a3.328,3.328,0,0,1,3.467,0l.783.47a5.672,5.672,0,0,0,3.241.793l.1,0c.065,0,.133,0,.2-.01l.023-.006.013,0a5.632,5.632,0,0,0,2.172-.709.557.557,0,0,1,.072-.019.411.411,0,0,0,.126-.043l.783-.47a3.328,3.328,0,0,1,3.467,0l.783.47a5.736,5.736,0,0,0,2.7.8h.02l.038,0h0a5.592,5.592,0,0,0,.965-.045,4.4,4.4,0,0,0,.444-.088l.147-.034c.07-.016.141-.033.211-.053a5.583,5.583,0,0,0,1.418-.582l.783-.47a3.331,3.331,0,0,1,3.467,0l.783.47a5.711,5.711,0,0,0,2.935.811.435.435,0,0,1,.046,0l.029,0a5.709,5.709,0,0,0,2.872-.776l2.154-.958a.344.344,0,0,0,.08-.054.484.484,0,0,1,.042-.033l.115-.051ZM47.207,6.794a75.168,75.168,0,0,1-3.523,20.294c-.073.236-.233.7-.449,1.313l-1.858.825a1.1,1.1,0,0,0-.122.064,3.337,3.337,0,0,1-3.468,0l-.783-.47a5.71,5.71,0,0,0-2.936-.815h-.037a5.722,5.722,0,0,0-2.974.813l-.781.47a3.352,3.352,0,0,1-1.339.433c.011-.037.023-.075.035-.112s.026-.08.038-.121c.284-.965.6-1.955.961-3.029.125-.369.257-.74.384-1.1l.012-.034c.27-.76.559-1.531.883-2.355l.127-.327c.091-.236.186-.48.282-.716a73.655,73.655,0,0,1,3.175-6.769h0c.438-.817.911-1.821,1.412-2.884,1.648-3.5,3.9-8.291,6.513-9.637a2.359,2.359,0,0,1,2.48-.043,5.264,5.264,0,0,1,1.968,4.2" transform="translate(-0.001 0.004)" fill="#2e2d2c"/>
    </g>
  </g>
</svg>
