<svg id="Layer_2" xmlns="http://www.w3.org/2000/svg" width="57" height="57" viewBox="0 0 57 57">
  <rect id="Rectangle_563" data-name="Rectangle 563" width="57" height="57" fill="#fff" opacity="0"/>
  <path id="Path_1313" data-name="Path 1313" d="M14.152,12.586A5.718,5.718,0,1,0,8.434,6.868,5.732,5.732,0,0,0,14.152,12.586Zm0-8.721a3.021,3.021,0,1,1-3.021,3.021A3.016,3.016,0,0,1,14.152,3.865Zm6.455,47.847a3.963,3.963,0,0,1-6.455,1.8,3.937,3.937,0,0,1-2.643,1.025,4.006,4.006,0,0,1-3.992-3.992v-14.4a4.7,4.7,0,0,1-1.816.4A4.62,4.62,0,0,1,1.08,31.916c0-.018.018-.036.018-.054s-.018-.036-.018-.054V22.242a7.137,7.137,0,0,1,7.12-7.12H20.086a6.97,6.97,0,0,1,3.183.755,1.351,1.351,0,1,1-1.223,2.409,4.387,4.387,0,0,0-1.978-.468H8.218A4.42,4.42,0,0,0,3.8,22.242v9.566c0,.018-.018.036-.018.054s.018.036.018.054a1.916,1.916,0,0,0,3.74.593V24.4a1.349,1.349,0,0,1,2.7,0V50.544a1.295,1.295,0,1,0,2.589,0V38.029a1.349,1.349,0,0,1,2.7,0V50.544a1.289,1.289,0,0,0,1.295,1.295,1.273,1.273,0,0,0,1.241-.917,1.337,1.337,0,1,1,2.553.791ZM19.439,23.051A1.358,1.358,0,0,1,20.787,24.4v1.546a1.349,1.349,0,0,1-2.7,0V24.4A1.358,1.358,0,0,1,19.439,23.051ZM43.1,12.586a5.718,5.718,0,1,0-5.718-5.718A5.732,5.732,0,0,0,43.1,12.586Zm0-8.721a3.021,3.021,0,1,1-3.021,3.021A3.027,3.027,0,0,1,43.1,3.865ZM48.316,15.1H37.887a6.408,6.408,0,0,0-5.952,4.5,1.348,1.348,0,1,0,2.535.917,3.767,3.767,0,0,1,3.416-2.7H48.316c2.05,0,3.722,1.978,3.722,4.423v9.476a1.926,1.926,0,0,1-1.924,1.924,1.81,1.81,0,0,1-.7-.144l-.737-2.571V24.417a1.349,1.349,0,1,0-2.7,0v6.707a1.369,1.369,0,0,0,.054.378l3.039,10.663H35.37a1.349,1.349,0,1,0,0,2.7h1.115v5.7a4.006,4.006,0,0,0,3.992,3.992,3.937,3.937,0,0,0,2.643-1.025,3.937,3.937,0,0,0,2.643,1.025,4.006,4.006,0,0,0,3.992-3.992v-5.7h1.115a1.349,1.349,0,0,0,1.295-1.726l-1.942-6.815a4.608,4.608,0,0,0,4.5-4.441c0-.036.018-.054.018-.09V22.224C54.735,18.286,51.858,15.1,48.316,15.1ZM40.458,51.838a1.289,1.289,0,0,1-1.295-1.295v-5.7h2.589v5.7A1.289,1.289,0,0,1,40.458,51.838Zm6.581-1.277a1.295,1.295,0,0,1-2.589,0v-5.7H47.04v5.7ZM38.876,27.187a1.358,1.358,0,0,1-1.349-1.349V24.4a1.349,1.349,0,0,1,2.7,0v1.438A1.335,1.335,0,0,1,38.876,27.187Zm-11.85.4A4.082,4.082,0,1,0,22.945,23.5,4.09,4.09,0,0,0,27.027,27.582Zm0-5.646A1.564,1.564,0,1,1,25.462,23.5,1.565,1.565,0,0,1,27.027,21.936ZM39.074,32.275a3.4,3.4,0,0,0-3.38-3.416H18.4a3.416,3.416,0,1,0,0,6.833h2.841V50.939a3.53,3.53,0,0,0,3.524,3.524,3.472,3.472,0,0,0,2.266-.827,3.472,3.472,0,0,0,2.266.827,3.53,3.53,0,0,0,3.524-3.524V35.692h2.841A3.426,3.426,0,0,0,39.074,32.275Zm-7.48.881a1.251,1.251,0,0,0-1.259,1.259V50.921a1.007,1.007,0,1,1-2.014,0V39.665a1.259,1.259,0,1,0-2.517,0V50.921a1.007,1.007,0,1,1-2.014,0V34.415a1.251,1.251,0,0,0-1.259-1.259h-4.1a.9.9,0,0,1-.9-.9.89.89,0,0,1,.9-.9h17.3a.872.872,0,0,1,.863.9.883.883,0,0,1-.863.9Z" transform="translate(0.862 0.379)" fill="#333"/>
</svg>
