<svg xmlns="http://www.w3.org/2000/svg" xmlns:xlink="http://www.w3.org/1999/xlink" width="50.331" height="63.466" viewBox="0 0 50.331 63.466">
  <defs>
    <clipPath id="clip-path">
      <rect id="Rectangle_657" data-name="Rectangle 657" width="50.331" height="63.466" fill="none" stroke="#333" stroke-width="1"/>
    </clipPath>
  </defs>
  <g id="Group_1323" data-name="Group 1323" transform="translate(0 0)">
    <g id="Group_1323-2" data-name="Group 1323" transform="translate(0 0)" clip-path="url(#clip-path)">
      <path id="Path_1489" data-name="Path 1489" d="M41.457,11.078a3.619,3.619,0,1,0,3.6-3.634A3.623,3.623,0,0,0,41.457,11.078Z" transform="translate(-6.488 -1.165)" fill="none" stroke="#333" stroke-linecap="round" stroke-linejoin="round" stroke-width="2.5"/>
      <line id="Line_171" data-name="Line 171" y1="1.883" x2="0.79" transform="translate(34.984 16.833)" fill="none" stroke="#333" stroke-linecap="round" stroke-linejoin="round" stroke-width="2.5"/>
      <line id="Line_172" data-name="Line 172" y1="1.883" x2="0.79" transform="translate(41.435 1.054)" fill="none" stroke="#333" stroke-linecap="round" stroke-linejoin="round" stroke-width="2.5"/>
      <line id="Line_173" data-name="Line 173" y1="0.773" x2="1.889" transform="translate(29.8 12.796)" fill="none" stroke="#333" stroke-linecap="round" stroke-linejoin="round" stroke-width="2.5"/>
      <line id="Line_174" data-name="Line 174" y1="0.773" x2="1.889" transform="translate(45.519 6.199)" fill="none" stroke="#333" stroke-linecap="round" stroke-linejoin="round" stroke-width="2.5"/>
      <line id="Line_175" data-name="Line 175" x2="1.883" y2="0.79" transform="translate(29.773 6.264)" fill="none" stroke="#333" stroke-linecap="round" stroke-linejoin="round" stroke-width="2.5"/>
      <line id="Line_176" data-name="Line 176" x2="1.882" y2="0.79" transform="translate(45.553 12.715)" fill="none" stroke="#333" stroke-linecap="round" stroke-linejoin="round" stroke-width="2.5"/>
      <line id="Line_177" data-name="Line 177" x1="0.773" y1="1.889" transform="translate(41.516 16.8)" fill="none" stroke="#333" stroke-linecap="round" stroke-linejoin="round" stroke-width="2.5"/>
      <line id="Line_178" data-name="Line 178" x1="0.773" y1="1.889" transform="translate(34.919 1.082)" fill="none" stroke="#333" stroke-linecap="round" stroke-linejoin="round" stroke-width="2.5"/>
      <path id="Path_1490" data-name="Path 1490" d="M29.734,52.6a9.132,9.132,0,0,0,9.2-1.507A9.124,9.124,0,1,0,48.11,35.6a9.614,9.614,0,0,0-9.171-8.058,8.827,8.827,0,0,0-5.488,1.931" transform="translate(-4.653 -4.311)" fill="none" stroke="#333" stroke-width="2.5"/>
      <line id="Line_179" data-name="Line 179" y2="22.933" transform="translate(34.269 34.542)" fill="none" stroke="#333" stroke-linecap="round" stroke-width="2.5"/>
      <line id="Line_180" data-name="Line 180" x2="4.277" y2="2.777" transform="translate(29.534 40.508)" fill="none" stroke="#333" stroke-linecap="round" stroke-width="2.5"/>
      <line id="Line_181" data-name="Line 181" x1="4.741" y2="1.914" transform="translate(34.26 38.024)" fill="none" stroke="#333" stroke-linecap="round" stroke-width="2.5"/>
      <path id="Path_1491" data-name="Path 1491" d="M26.419,34.408c1.948,11.183-5.716,15.65-12.476,15.5S-.146,44.6,1.479,34.545C2.708,26.94,7.285,13.031,14.01,13.031S25.009,26.3,26.419,34.408Z" transform="translate(-0.196 -2.04)" fill="none" stroke="#333" stroke-linecap="round" stroke-linejoin="round" stroke-width="2.5"/>
      <line id="Line_182" data-name="Line 182" x1="7.467" y1="6.152" transform="translate(6.113 34.463)" fill="none" stroke="#333" stroke-linecap="round" stroke-linejoin="round" stroke-width="2.5"/>
      <line id="Line_183" data-name="Line 183" x1="4.501" y1="3.721" transform="translate(8.952 28.145)" fill="none" stroke="#333" stroke-linecap="round" stroke-linejoin="round" stroke-width="2.5"/>
      <line id="Line_184" data-name="Line 184" y1="6.152" x2="7.467" transform="translate(13.984 34.463)" fill="none" stroke="#333" stroke-linecap="round" stroke-linejoin="round" stroke-width="2.5"/>
      <line id="Line_185" data-name="Line 185" y1="3.721" x2="4.501" transform="translate(14.112 28.145)" fill="none" stroke="#333" stroke-linecap="round" stroke-linejoin="round" stroke-width="2.5"/>
      <line id="Line_186" data-name="Line 186" x2="0.001" y2="34.12" transform="translate(13.793 23.771)" fill="none" stroke="#333" stroke-linecap="round" stroke-linejoin="round" stroke-width="2.5"/>
      <path id="Path_1492" data-name="Path 1492" d="M4.408,73.2c4.338-3.415,12.26-5.7,21.315-5.7,9.027,0,16.928,2.272,21.275,5.67" transform="translate(-0.69 -10.564)" fill="none" stroke="#333" stroke-width="2.5"/>
    </g>
  </g>
</svg>
