<svg id="Layer_2" xmlns="http://www.w3.org/2000/svg" width="39.567" height="39.712" viewBox="0 0 39.567 39.712">
  <path id="Path_1329" data-name="Path 1329" d="M40.972,40.052h-2.9V23.187h1.552a1.025,1.025,0,0,0,1.035-1.035V18.117a1.025,1.025,0,0,0-1.035-1.035H38.034A15.672,15.672,0,0,0,13.863,4.935c-.021-.021-.041,0-.083,0a.045.045,0,0,1-.041.041A15.7,15.7,0,0,0,6.7,17.082H4.82a1.025,1.025,0,0,0-1.035,1.035v4.035A1.025,1.025,0,0,0,4.82,23.187H6.662V40.052H3.475a1.035,1.035,0,1,0,0,2.069h37.5a1.035,1.035,0,1,0,0-2.069Zm-4.987-22.97H24.272l6.312-9.85A13.654,13.654,0,0,1,35.985,17.082ZM22.368,4.459a13.589,13.589,0,0,1,6.457,1.635L22.286,16.3,15.808,6.156A13.513,13.513,0,0,1,22.368,4.459Zm-8.3,2.835,6.27,9.788H8.752A13.625,13.625,0,0,1,14.07,7.294ZM5.855,19.151H38.613v1.966H5.855ZM8.71,23.187H21.375a.612.612,0,0,0-.041.207V40.052H8.71ZM23.4,40.052V23.394a.735.735,0,0,0-.041-.207H36.026V40.052H23.4Zm4.263-10.326v3.766a1.035,1.035,0,1,1-2.069,0V29.726a1.025,1.025,0,0,1,1.035-1.035A1.038,1.038,0,0,1,27.666,29.726Zm-8.547,0v3.766a1.035,1.035,0,1,1-2.069,0V29.726a1.025,1.025,0,0,1,1.035-1.035A1.038,1.038,0,0,1,19.119,29.726Z" transform="translate(-2.44 -2.41)" fill="#333"/>
</svg>
