<svg xmlns="http://www.w3.org/2000/svg" width="46.59" height="40" viewBox="0 0 46.59 40">
  <path id="Path_1337" data-name="Path 1337" d="M46.476,29.118a13.421,13.421,0,0,0-9.551,2.042,12.457,12.457,0,0,0-4.58,6.539c.474-3.2,2.249-8.169,8.149-12.955a1.034,1.034,0,0,0-.743-1.836c-.144.021-13.822,1.568-14.936,17.329H23.97v-.021c-.021-.062-3.032-6.209,4.291-13.574a1.06,1.06,0,0,0,.227-1.114,1.029,1.029,0,0,0-.949-.64,12.118,12.118,0,0,0-6.292,2.125,25.116,25.116,0,0,0-7.55-11.7,1.057,1.057,0,0,0-1.238-.1,1.012,1.012,0,0,0-.474,1.135c.021.062,1.485,5.8,2.187,10.913a12.026,12.026,0,0,0-6.622-2.372,1.029,1.029,0,0,0-.949.64.978.978,0,0,0,.227,1.114c7.261,7.3,4.394,13.326,4.291,13.574v.021h-.784a13.823,13.823,0,0,1-2.187-8.561,1.031,1.031,0,0,0-1.547-.97,9.525,9.525,0,0,0-4.188,9.531H1.731a1.031,1.031,0,0,0,0,2.063H40.2a1.031,1.031,0,0,0,0-2.063H38.781a4.133,4.133,0,0,1,.041-2.517c.536-1.692,2.331-4.208,7.86-6.684a1.013,1.013,0,0,0,.6-1.052A.961.961,0,0,0,46.476,29.118ZM36.058,26.085c-5.508,5.941-5.982,11.717-5.9,14.152h-3.28C27.539,31.428,32.448,27.674,36.058,26.085Zm-14.3,14.172H18.73c-.516-4.5.227-7.942,2.228-10.253a8.976,8.976,0,0,1,3.8-2.5C20.256,33.326,21.123,38.277,21.762,40.258Zm-2.29-11.676-.062.062a10.815,10.815,0,0,0-1.9,3.156,10.955,10.955,0,0,0-1.031-2.022,78.564,78.564,0,0,0-1.65-10.232A20.716,20.716,0,0,1,19.473,28.582Zm-9.18-1.073a8.785,8.785,0,0,1,3.8,2.5c2,2.29,2.744,5.756,2.228,10.253H13.284C13.923,38.277,14.79,33.326,10.293,27.509ZM6.084,33.863a16.092,16.092,0,0,0,1.857,6.4h-3.4A7.329,7.329,0,0,1,6.084,33.863Zm30.779,3.259a6.219,6.219,0,0,0-.186,3.136H33.872c.681-3.342,2.084-5.859,4.25-7.385a9.992,9.992,0,0,1,3.9-1.63C39.277,33,37.544,34.977,36.863,37.122Zm-12.419-26.8h1.733a3.737,3.737,0,0,0,.516,1.217L25.455,12.78a1.021,1.021,0,0,0,0,1.465,1.036,1.036,0,0,0,.722.309,1,1,0,0,0,.722-.309l1.238-1.238a4.243,4.243,0,0,0,1.217.516v1.733a1.031,1.031,0,0,0,2.063,0V13.522a4.243,4.243,0,0,0,1.217-.516l1.238,1.238a1.036,1.036,0,0,0,.722.309,1,1,0,0,0,.722-.309,1.021,1.021,0,0,0,0-1.465l-1.238-1.238a4.243,4.243,0,0,0,.516-1.217h1.733a1.031,1.031,0,0,0,0-2.063H34.594a4.243,4.243,0,0,0-.516-1.217l1.238-1.238a1.036,1.036,0,0,0-1.465-1.465L32.613,5.58A4.243,4.243,0,0,0,31.4,5.064V3.331a1.031,1.031,0,0,0-2.063,0V5.064a4.377,4.377,0,0,0-1.2.516L26.9,4.342a1.036,1.036,0,0,0-1.465,1.465l1.238,1.238a4.243,4.243,0,0,0-.516,1.217H24.424a1.021,1.021,0,0,0-1.031,1.031A1.039,1.039,0,0,0,24.444,10.325ZM30.406,7a2.29,2.29,0,1,1-2.29,2.29A2.3,2.3,0,0,1,30.406,7Z" transform="translate(-0.7 -2.3)" fill="#333"/>
</svg>
