<svg xmlns="http://www.w3.org/2000/svg" width="45.384" height="40.946" viewBox="0 0 45.384 40.946">
  <g id="Layer_2" transform="translate(-2.108 -3.07)">
    <path id="Path_1434" data-name="Path 1434" d="M2.182,34.96a1.158,1.158,0,0,1,.688-1.467,38.5,38.5,0,0,1,24.37.779c11.876,4.356,18.066-.986,18.318-1.215a1.144,1.144,0,1,1,1.536,1.7c-.206.183-3.989,3.508-11.05,3.531a27.637,27.637,0,0,1-9.583-1.834,37.008,37.008,0,0,0-22.811-.779A1.18,1.18,0,0,1,2.182,34.96Zm43.376,3.875c-.252.229-6.442,5.571-18.318,1.215A38.53,38.53,0,0,0,2.87,39.27a1.146,1.146,0,0,0,.779,2.155,36.709,36.709,0,0,1,22.811.757,27.659,27.659,0,0,0,9.606,1.834c7.061,0,10.821-3.324,11.05-3.508a1.152,1.152,0,0,0,.092-1.6A1.186,1.186,0,0,0,45.558,38.835Zm-14.6-13.549a1.152,1.152,0,0,0,1.559,1.7l3.9-3.6v9.125a1.146,1.146,0,0,0,2.293,0V23.382l3.9,3.6a1.166,1.166,0,0,0,1.628-.069,1.137,1.137,0,0,0-.069-1.628L38.7,20.242V14.785l3.9,3.6a1.166,1.166,0,0,0,1.628-.069,1.137,1.137,0,0,0-.069-1.628L38.7,11.644V6.83l2.614,2.43a1.166,1.166,0,0,0,1.628-.069,1.137,1.137,0,0,0-.069-1.628L38.382,3.391h0l-.069-.023a.37.37,0,0,0-.16-.092.929.929,0,0,0-.206-.115.95.95,0,0,0-.367-.069c-.023,0-.046-.023-.069-.023s-.046.023-.069.023a1.038,1.038,0,0,0-.367.069c-.069.023-.138.092-.206.115a.575.575,0,0,0-.16.092l-.023.023h0L32.192,7.564a1.152,1.152,0,0,0,1.559,1.7l2.614-2.43v4.837l-5.456,5.044a1.152,1.152,0,0,0,1.559,1.7l3.9-3.6v5.433ZM6.217,26.753a1.136,1.136,0,0,0,.848-.39l3.21-3.6,1.9,2.132L9.472,27.532a1.151,1.151,0,0,0,1.6,1.651l3.416-3.347c.023,0,.023-.023.046-.023.023-.023.023-.046.046-.069l3.141-3.072,8.528,8.735a1.163,1.163,0,0,0,.825.344,1.187,1.187,0,0,0,.8-.321A1.155,1.155,0,0,0,27.9,29.8l-9.331-9.56a1.168,1.168,0,0,0-.8-.344,1.557,1.557,0,0,0-.825.321l-3.118,3.049-2.682-3a1.2,1.2,0,0,0-1.719,0L5.369,24.827a1.158,1.158,0,0,0,.848,1.926Zm.734-15.934A5.158,5.158,0,1,1,12.132,16,5.166,5.166,0,0,1,6.951,10.819Zm2.293,0a2.866,2.866,0,1,0,2.889-2.866A2.867,2.867,0,0,0,9.243,10.819Z" transform="translate(0)" fill="#333"/>
  </g>
</svg>
