<svg xmlns="http://www.w3.org/2000/svg" xmlns:xlink="http://www.w3.org/1999/xlink" width="50.369" height="34.425" viewBox="0 0 50.369 34.425">
  <defs>
    <clipPath id="clip-path">
      <rect id="Rectangle_574" data-name="Rectangle 574" width="50.369" height="34.425" fill="#333" stroke="#333" stroke-linejoin="round" stroke-width="0.3"/>
    </clipPath>
  </defs>
  <g id="Group_1133" data-name="Group 1133" transform="translate(0 0)">
    <g id="Group_1131" data-name="Group 1131" transform="translate(0 0)" clip-path="url(#clip-path)">
      <path id="Path_1360" data-name="Path 1360" d="M24.1,25.209c-1.954,0-3.544-1.878-3.544-4.186A3.308,3.308,0,0,1,24.1,17.507a3.308,3.308,0,0,1,3.543,3.516c0,2.308-1.589,4.186-3.543,4.186m0-6.421a2.066,2.066,0,0,0-2.264,2.236c0,1.6,1.015,2.905,2.264,2.905s2.263-1.3,2.263-2.905A2.066,2.066,0,0,0,24.1,18.787" transform="translate(-13.255 -11.291)" fill="#333" stroke="#333" stroke-linejoin="round" stroke-width="0.3"/>
      <rect id="Rectangle_570" data-name="Rectangle 570" width="4.02" height="1.28" transform="translate(10.458 18.081)" fill="#333" stroke="#333" stroke-linejoin="round" stroke-width="0.3"/>
      <path id="Path_1361" data-name="Path 1361" d="M11.641,51.409c-1.954,0-3.543-1.878-3.543-4.186a3.307,3.307,0,0,1,3.543-3.516,3.307,3.307,0,0,1,3.543,3.516c0,2.308-1.589,4.186-3.543,4.186m0-6.421a2.066,2.066,0,0,0-2.263,2.236c0,1.6,1.016,2.905,2.263,2.905s2.263-1.3,2.263-2.905a2.066,2.066,0,0,0-2.263-2.236" transform="translate(-5.223 -28.187)" fill="#333" stroke="#333" stroke-linejoin="round" stroke-width="0.3"/>
      <path id="Path_1362" data-name="Path 1362" d="M9.452,72.767H1.579A1.581,1.581,0,0,1,0,71.188V68.062a3.447,3.447,0,0,1,3.443-3.443H4.717l1.7,1.911,1.7-1.911H8.6c1.743,0,1.863,2.078,1.95,3.594a10.222,10.222,0,0,0,.124,1.3,1.854,1.854,0,0,1-1.219,3.251M3.443,65.9A2.165,2.165,0,0,0,1.28,68.062v3.127a.3.3,0,0,0,.3.3H9.452a.574.574,0,1,0,0-1.148v-.506l-.022,0a10.412,10.412,0,0,1-.162-1.551c-.055-.949-.128-2.229-.584-2.374L6.419,68.456,4.143,65.9Z" transform="translate(0 -41.674)" fill="#333" stroke="#333" stroke-linejoin="round" stroke-width="0.3"/>
      <rect id="Rectangle_571" data-name="Rectangle 571" width="6.539" height="1.28" transform="translate(3.516 27.384)" fill="#333" stroke="#333" stroke-linejoin="round" stroke-width="0.3"/>
      <path id="Path_1363" data-name="Path 1363" d="M24.758,46.568H21.207v-1.28h3.551a.575.575,0,1,0,0-1.149v-.506l-.022,0a10.3,10.3,0,0,1-.162-1.552c-.055-.949-.129-2.229-.584-2.372l-2.265,2.543L19.448,39.7h-.7a2.153,2.153,0,0,0-1.175.352l-.7-1.072a3.42,3.42,0,0,1,1.873-.56h1.273l1.7,1.911,1.7-1.911H23.9c1.742,0,1.862,2.076,1.949,3.593a10.219,10.219,0,0,0,.125,1.3,1.854,1.854,0,0,1-1.219,3.251" transform="translate(-10.883 -24.777)" fill="#333" stroke="#333" stroke-linejoin="round" stroke-width="0.3"/>
      <path id="Path_1364" data-name="Path 1364" d="M104.878,25.209c-1.954,0-3.543-1.878-3.543-4.186a3.544,3.544,0,0,1,7.087,0c0,2.308-1.59,4.186-3.544,4.186m0-6.421a2.066,2.066,0,0,0-2.262,2.236c0,1.6,1.015,2.905,2.262,2.905s2.262-1.3,2.262-2.905a2.066,2.066,0,0,0-2.262-2.236" transform="translate(-65.353 -11.291)" fill="#333" stroke="#333" stroke-linejoin="round" stroke-width="0.3"/>
      <rect id="Rectangle_572" data-name="Rectangle 572" width="4.021" height="1.28" transform="translate(35.889 18.081)" fill="#333" stroke="#333" stroke-linejoin="round" stroke-width="0.3"/>
      <path id="Path_1365" data-name="Path 1365" d="M117.332,51.409c-1.954,0-3.544-1.878-3.544-4.186a3.544,3.544,0,0,1,7.088,0c0,2.308-1.59,4.186-3.544,4.186m0-6.421a2.066,2.066,0,0,0-2.262,2.236c0,1.6,1.015,2.905,2.262,2.905s2.262-1.3,2.262-2.905a2.066,2.066,0,0,0-2.262-2.236" transform="translate(-73.384 -28.187)" fill="#333" stroke="#333" stroke-linejoin="round" stroke-width="0.3"/>
      <path id="Path_1366" data-name="Path 1366" d="M119.73,72.767h-7.873a1.853,1.853,0,0,1-1.219-3.251,10.208,10.208,0,0,0,.125-1.3c.088-1.516.206-3.592,1.949-3.592h.475l1.7,1.911,1.7-1.911h1.274a3.447,3.447,0,0,1,3.444,3.443v3.127a1.582,1.582,0,0,1-1.581,1.579m-7.873-2.428a.574.574,0,0,0,0,1.148h7.873a.3.3,0,0,0,.3-.3V68.062a2.164,2.164,0,0,0-2.162-2.162h-.7l-2.278,2.557-2.265-2.543c-.455.144-.528,1.424-.583,2.372a10.336,10.336,0,0,1-.163,1.552l-.022,0Z" transform="translate(-70.942 -41.674)" fill="#333" stroke="#333" stroke-linejoin="round" stroke-width="0.3"/>
      <rect id="Rectangle_573" data-name="Rectangle 573" width="6.539" height="1.28" transform="translate(40.312 27.384)" fill="#333" stroke="#333" stroke-linejoin="round" stroke-width="0.3"/>
      <path id="Path_1367" data-name="Path 1367" d="M102.954,46.568H99.4a1.855,1.855,0,0,1-1.218-3.253,10.244,10.244,0,0,0,.125-1.3c.087-1.517.207-3.593,1.949-3.593h.475l1.7,1.911,1.7-1.911h1.274a3.424,3.424,0,0,1,1.874.56l-.7,1.072a2.153,2.153,0,0,0-1.174-.352h-.7l-2.277,2.557-2.265-2.543c-.455.144-.528,1.423-.583,2.372a10.24,10.24,0,0,1-.163,1.552l-.023,0v.506a.575.575,0,0,0,0,1.149h3.551Z" transform="translate(-62.911 -24.777)" fill="#333" stroke="#333" stroke-linejoin="round" stroke-width="0.3"/>
      <path id="Path_1368" data-name="Path 1368" d="M63.831,8.5c-2.154,0-3.905-2.076-3.905-4.627a3.905,3.905,0,0,1,7.81,0c0,2.551-1.752,4.627-3.905,4.627m0-7.22a2.4,2.4,0,0,0-2.625,2.593c0,1.845,1.178,3.347,2.625,3.347s2.625-1.5,2.625-3.347A2.4,2.4,0,0,0,63.831,1.28" transform="translate(-38.647 0)" fill="#333" stroke="#333" stroke-linejoin="round" stroke-width="0.3"/>
      <path id="Path_1369" data-name="Path 1369" d="M65.712,30.259H52.941V28.205c0-2.848,1.545-4.689,3.936-4.689h.5L59.326,25.7l1.95-2.189h.5c2.391,0,3.936,1.841,3.936,4.689Zm-11.49-1.28h10.21v-.773c0-.792-.188-3.356-2.582-3.408l-2.523,2.832L56.8,24.8c-2.394.053-2.581,2.616-2.581,3.408Z" transform="translate(-34.143 -15.166)" fill="#333" stroke="#333" stroke-linejoin="round" stroke-width="0.3"/>
      <path id="Path_1370" data-name="Path 1370" d="M58.238,61.222,51.549,46.154h-12.5L32.363,61.222,31.192,60.7l7.026-15.83H52.383L59.407,60.7Z" transform="translate(-20.116 -28.94)" fill="#333" stroke="#333" stroke-linejoin="round" stroke-width="0.3"/>
      <path id="Path_1371" data-name="Path 1371" d="M59.365,91.424H31.039V88.382H59.365Zm-27.046-1.28H58.083v-.481H32.319Z" transform="translate(-20.018 -56.999)" fill="#333" stroke="#333" stroke-linejoin="round" stroke-width="0.3"/>
    </g>
  </g>
</svg>
