<svg xmlns="http://www.w3.org/2000/svg" width="44.02" height="32.593" viewBox="0 0 44.02 32.593">
  <g id="Layer_2" transform="translate(-0.1 -44.67)">
    <path id="Path_1332" data-name="Path 1332" d="M46.12,7.182V20.989a1.112,1.112,0,1,1-2.223,0V7.182c0-.111-.2-.289-.511-.289H4.857c-.311,0-.534.178-.534.289V20.989a1.112,1.112,0,1,1-2.223,0V7.182A2.635,2.635,0,0,1,4.835,4.67H43.363A2.641,2.641,0,0,1,46.12,7.182ZM36.871,29.037H28.823a2.733,2.733,0,0,0-2.735,2.735v4.38a1.112,1.112,0,0,0,2.223,0v-4.38a.517.517,0,0,1,.511-.511h8.048a.517.517,0,0,1,.511.511v4.38a1.112,1.112,0,0,0,2.223,0v-4.38A2.719,2.719,0,0,0,36.871,29.037Zm-17.475,0H11.349a2.733,2.733,0,0,0-2.735,2.735v4.38a1.112,1.112,0,0,0,2.223,0v-4.38a.5.5,0,0,1,.511-.511H19.4a.517.517,0,0,1,.511.511v4.38a1.112,1.112,0,0,0,2.223,0v-4.38A2.719,2.719,0,0,0,19.4,29.037Zm20.676-3.913H32.025a1.112,1.112,0,0,0,0,2.223h8.048a.517.517,0,0,1,.511.511v2.69a1.112,1.112,0,1,0,2.223,0v-2.69A2.733,2.733,0,0,0,40.073,25.124ZM17.107,26.235A1.1,1.1,0,0,0,16,25.124H7.947a2.733,2.733,0,0,0-2.735,2.735v2.69a1.112,1.112,0,1,0,2.223,0v-2.69a.5.5,0,0,1,.511-.511h8.07A1.1,1.1,0,0,0,17.107,26.235Zm2.223,0a1.1,1.1,0,0,0,1.112,1.112h7.092a1.112,1.112,0,1,0,0-2.223H20.442A1.115,1.115,0,0,0,19.33,26.235Zm1.134-4.98H13.35a1.112,1.112,0,1,0,0,2.223h7.092a1.112,1.112,0,0,0,.022-2.223ZM34.67,23.479a1.112,1.112,0,0,0,0-2.223H27.578a1.112,1.112,0,0,0,0,2.223Z" transform="translate(-2 40)" fill="#333"/>
  </g>
</svg>
