<svg xmlns="http://www.w3.org/2000/svg" width="45.499" height="29.24" viewBox="0 0 45.499 29.24">
  <path id="Path_1437" data-name="Path 1437" d="M43.35,5.04H4.489A3.326,3.326,0,0,0,1.17,8.359v22.6A3.326,3.326,0,0,0,4.489,34.28H43.35a3.326,3.326,0,0,0,3.319-3.319V8.359A3.326,3.326,0,0,0,43.35,5.04ZM22.869,22.6a3.119,3.119,0,0,1,0-5.882Zm2.1-5.9a3.109,3.109,0,0,1,0,5.882ZM3.271,30.961v-3.3h7.016a1.4,1.4,0,0,0,1.386-1.386V24.2a4.539,4.539,0,0,0,0-9.075v-2.08a1.4,1.4,0,0,0-1.386-1.407H3.271V8.359A1.219,1.219,0,0,1,4.489,7.141h18.38v7.373a5.245,5.245,0,0,0,0,10.272V32.18H4.489A1.219,1.219,0,0,1,3.271,30.961Zm8.4-13.759a2.462,2.462,0,0,1,0,4.915Zm-2.1-.924v9.285h-6.3V13.736h6.3ZM43.35,32.18H24.97V24.786a5.227,5.227,0,0,0,0-10.251V7.141H43.35a1.219,1.219,0,0,1,1.218,1.218v3.277H37.552a1.4,1.4,0,0,0-1.386,1.407v2.08a4.539,4.539,0,0,0,0,9.075v2.08a1.4,1.4,0,0,0,1.386,1.386h7.016v3.3A1.219,1.219,0,0,1,43.35,32.18Zm1.218-6.617h-6.3V13.736h6.3Zm-8.4-3.445a2.462,2.462,0,0,1,0-4.915Z" transform="translate(-1.17 -5.04)" fill="#333"/>
</svg>
