<svg xmlns="http://www.w3.org/2000/svg" width="50" height="27.431" viewBox="0 0 50 27.431">
  <path id="Path_1338" data-name="Path 1338" d="M49.879,15.9l-21.8,7.349v7.745H29.7a1.1,1.1,0,0,1,0,2.2H24.268a1.1,1.1,0,0,1,0-2.2H25.9V23.975L4.8,31.082a1,1,0,0,1-.352.066,1.1,1.1,0,0,1-.352-2.134L49.2,13.81a1.073,1.073,0,0,1,1.386.682A1.091,1.091,0,0,1,49.879,15.9Zm-8.295-.858a1,1,0,0,0,.352-.066l6.843-2.31a1.09,1.09,0,0,0,.682-1.386L47.877,6.5a1.092,1.092,0,1,0-2.068.7l1.254,3.718-5.831,1.958a1.09,1.09,0,0,0-.682,1.386A1.1,1.1,0,0,0,41.584,15.042ZM3.7,27.869l6.843-2.31a1.092,1.092,0,1,0-.7-2.068L4.025,25.427,2.771,21.709a1.092,1.092,0,0,0-2.068.7l1.606,4.775a1.082,1.082,0,0,0,1.034.748A1.094,1.094,0,0,0,3.7,27.869Z" transform="translate(-0.643 -5.763)" fill="#333"/>
</svg>
