<?xml version="1.0" encoding="UTF-8"?>
<svg width="125px" height="24px" viewBox="0 0 125 24" version="1.1" xmlns="http://www.w3.org/2000/svg" xmlns:xlink="http://www.w3.org/1999/xlink">
    <title>Group</title>
    <defs>
        <linearGradient x1="0%" y1="35.7304525%" x2="100%" y2="35.7304525%" id="linearGradient-1">
            <stop stop-color="#1C84A6" offset="0%"></stop>
            <stop stop-color="#386BB2" offset="25.2712057%"></stop>
            <stop stop-color="#7356A3" offset="49.4423174%"></stop>
            <stop stop-color="#903B94" offset="71.6984241%"></stop>
            <stop stop-color="#C54961" offset="100%"></stop>
        </linearGradient>
    </defs>
    <g id="Symbols" stroke="none" stroke-width="1" fill="none" fill-rule="evenodd">
        <g id="Header/White" transform="translate(-56.000000, -58.000000)" fill-rule="nonzero">
            <g id="Group" transform="translate(56.000000, 58.000000)">
                <path d="M5.84221007,21.0218978 C6.58317328,21.0218978 7.27188911,20.9643823 7.90835746,20.8493515 C8.5448259,20.7343205 9.11479761,20.5905319 9.61827258,20.4179855 C10.1217476,20.2454392 10.5539762,20.0680999 10.9149582,19.8859676 C11.2759403,19.7038353 11.5609262,19.5456679 11.7699159,19.4114651 C11.9789055,19.2580906 12.1213984,19.0999232 12.1973947,18.9369626 C12.2733908,18.7740022 12.311389,18.5583193 12.311389,18.2899139 L12.311389,18.2899139 L12.311389,10.812905 C12.311389,8.87655145 11.7841651,7.4626299 10.7297175,6.57114044 C9.67526978,5.67965089 8.23609121,5.23390616 6.41218178,5.23390616 C5.53822511,5.23390616 4.69751685,5.32497232 3.89005691,5.50710455 C3.08259696,5.68923679 2.4698774,5.88574791 2.05189813,6.09663793 C1.67191702,6.26918426 1.41067999,6.48486727 1.26818706,6.74368677 C1.12569413,7.00250628 1.05444766,7.25653288 1.05444766,7.50576648 C1.05444766,7.94671831 1.24443823,8.30139696 1.62441937,8.56980236 C2.00440055,8.83820785 2.50787553,8.86696555 3.13484444,8.65607553 C3.53382464,8.50270099 4.0040513,8.35891244 4.54552441,8.22470969 C5.08699752,8.09050695 5.6522195,8.02340558 6.24119028,8.02340558 C7.36213463,8.02340558 8.16959448,8.24388149 8.66357001,8.68483331 C9.15754546,9.12578514 9.40453323,9.83514236 9.40453323,10.812905 L9.40453323,10.812905 L9.40453323,11.76191 C8.73956628,11.6085355 8.13634616,11.4887116 7.59487305,11.4024385 C7.05339994,11.3161652 6.45017982,11.2730286 5.78521288,11.2730286 C4.77826283,11.2730286 3.91380578,11.4024385 3.19184155,11.661258 C2.4698774,11.9200775 1.87140709,12.2699631 1.39643069,12.7109149 C0.921454266,13.1518668 0.569971708,13.6599199 0.341983025,14.2350745 C0.113994342,14.8102289 0,15.4141412 0,16.0468112 C0,16.7561685 0.123493874,17.4128032 0.370481615,18.0167154 C0.617469355,18.6206276 0.983201203,19.1478526 1.46767716,19.5983904 C1.95215308,20.0489281 2.56012292,20.3988138 3.2915866,20.6480474 C4.02305036,20.897281 4.87325816,21.0218978 5.84221007,21.0218978 Z M6.09869728,18.3474293 C5.07274826,18.3474293 4.29378692,18.1413322 3.76181326,17.7291382 C3.22983968,17.3169441 2.96385293,16.7178248 2.96385293,15.9317803 C2.96385293,15.2415949 3.24408902,14.709577 3.8045612,14.3357265 C4.36503337,13.9618761 5.0822478,13.7749508 5.95620438,13.7749508 C6.60217235,13.7749508 7.18164359,13.8180874 7.6946181,13.9043606 C8.20759261,13.9906338 8.77756432,14.1104576 9.40453323,14.2638321 L9.40453323,14.2638321 L9.40453323,17.4559398 C9.25254079,17.5709707 8.91055778,17.74831 8.37858412,17.9879577 C7.84661054,18.2276054 7.08664826,18.3474293 6.09869728,18.3474293 Z M20.0915028,21.0218978 C20.7754689,21.0218978 21.4309363,20.9547964 22.0579052,20.8205937 C22.6848741,20.686391 23.250096,20.5234306 23.7535711,20.3317124 C24.257046,20.1399942 24.6940244,19.943483 25.064506,19.742179 C25.4349876,19.5408749 25.7152237,19.3731215 25.9052142,19.2389188 C26.1332029,19.0855443 26.2804457,18.9225838 26.3469423,18.7500374 C26.413439,18.5774911 26.4466874,18.3570152 26.4466874,18.0886098 L26.4466874,18.0886098 L26.4466874,1.75422131 C26.4466874,1.3132695 26.3041945,0.944212012 26.0192086,0.647048838 C25.7342227,0.349885664 25.3732407,0.201304082 24.9362623,0.201304082 C24.5182831,0.201304082 24.1620508,0.349885664 23.8675654,0.647048838 C23.57308,0.944212012 23.4258373,1.3132695 23.4258373,1.75422131 L23.4258373,1.75422131 L23.4258373,6.06788023 C22.9508609,5.85699022 22.3808892,5.66527209 21.7159222,5.49272566 C21.0509552,5.32017933 20.3764887,5.23390616 19.6925227,5.23390616 C17.8496141,5.23390616 16.4104355,5.74675226 15.3749869,6.77244447 C14.3395383,7.79813676 13.7458177,9.21205831 13.5938253,11.0142091 C13.5748262,11.2826146 13.560577,11.5941566 13.5510774,11.9488352 C13.5415779,12.3035138 13.5368282,12.6725714 13.5368282,13.0560077 C13.5368282,13.4394441 13.5415779,13.8132944 13.5510774,14.177559 C13.560577,14.5418235 13.5748262,14.8485726 13.5938253,15.0978062 C13.6698215,15.9797099 13.8693116,16.7849262 14.1922956,17.5134552 C14.5152795,18.2419843 14.9570077,18.8650684 15.5174799,19.3827074 C16.077952,19.9003465 16.7381693,20.3029547 17.4981315,20.5905319 C18.2580938,20.8781092 19.1225509,21.0218978 20.0915028,21.0218978 Z M20.1485,18.0886098 C17.9636085,18.0886098 16.7856669,16.9670584 16.6146754,14.7239558 C16.5956764,14.493894 16.581427,14.2302815 16.5719275,13.9331183 C16.5624279,13.6359552 16.5576782,13.3292061 16.5576782,13.012871 C16.5576782,12.6965361 16.5624279,12.389787 16.5719275,12.0926239 C16.581427,11.7954607 16.5956764,11.55102 16.6146754,11.3593019 C16.6716725,10.3048519 16.966158,9.5092214 17.4981315,8.9724106 C18.0301051,8.43559971 18.8375651,8.16719422 19.9205113,8.16719422 C20.6614745,8.16719422 21.3549401,8.26784628 22.000908,8.46915031 C22.646876,8.67045442 23.1218524,8.86696555 23.4258373,9.05868377 L23.4258373,9.05868377 L23.4258373,17.0533316 C23.2738449,17.1683625 23.0791045,17.2833934 22.8416164,17.3984243 C22.6041281,17.5134552 22.3333916,17.6236931 22.0294066,17.7291382 C21.7254217,17.8345832 21.4119373,17.9208563 21.0889533,17.9879577 C20.7659693,18.0550591 20.4524849,18.0886098 20.1485,18.0886098 Z M33.5428352,21.0218978 C34.2837985,21.0218978 34.9725142,20.9643823 35.6089826,20.8493515 C36.2454511,20.7343205 36.8154228,20.5905319 37.3188978,20.4179855 C37.8223728,20.2454392 38.2546013,20.0680999 38.6155834,19.8859676 C38.9765655,19.7038353 39.2615514,19.5456679 39.470541,19.4114651 C39.6795306,19.2580906 39.8220236,19.0999232 39.8980197,18.9369626 C39.974016,18.7740022 40.0120141,18.5583193 40.0120141,18.2899139 L40.0120141,18.2899139 L40.0120141,10.812905 C40.0120141,8.87655145 39.4847903,7.4626299 38.4303426,6.57114044 C37.3758949,5.67965089 35.9367164,5.23390616 34.1128069,5.23390616 C33.2388503,5.23390616 32.398142,5.32497232 31.5906821,5.50710455 C30.7832221,5.68923679 30.1705026,5.88574791 29.7525233,6.09663793 C29.3725422,6.26918426 29.1113051,6.48486727 28.9688122,6.74368677 C28.8263192,7.00250628 28.7550728,7.25653288 28.7550728,7.50576648 C28.7550728,7.94671831 28.9450634,8.30139696 29.3250445,8.56980236 C29.7050256,8.83820785 30.2085007,8.86696555 30.8354696,8.65607553 C31.2344497,8.50270099 31.7046764,8.35891244 32.2461496,8.22470969 C32.7876227,8.09050695 33.3528446,8.02340558 33.9418154,8.02340558 C35.0627598,8.02340558 35.8702196,8.24388149 36.3641952,8.68483331 C36.8581706,9.12578514 37.1051584,9.83514236 37.1051584,10.812905 L37.1051584,10.812905 L37.1051584,11.76191 C36.4401914,11.6085355 35.8369713,11.4887116 35.2954982,11.4024385 C34.7540251,11.3161652 34.150805,11.2730286 33.485838,11.2730286 C32.478888,11.2730286 31.6144309,11.4024385 30.8924667,11.661258 C30.1705026,11.9200775 29.5720323,12.2699631 29.0970559,12.7109149 C28.6220794,13.1518668 28.2705969,13.6599199 28.0426082,14.2350745 C27.8146195,14.8102289 27.7006252,15.4141412 27.7006252,16.0468112 C27.7006252,16.7561685 27.824119,17.4128032 28.0711068,18.0167154 C28.3180945,18.6206276 28.6838263,19.1478526 29.1683023,19.5983904 C29.6527782,20.0489281 30.2607481,20.3988138 30.9922118,20.6480474 C31.7236754,20.897281 32.5738832,21.0218978 33.5428352,21.0218978 Z M33.7993225,18.3474293 C32.7733733,18.3474293 31.994412,18.1413322 31.4624384,17.7291382 C30.9304648,17.3169441 30.664478,16.7178248 30.664478,15.9317803 C30.664478,15.2415949 30.9447141,14.709577 31.5051864,14.3357265 C32.0656585,13.9618761 32.7828729,13.7749508 33.6568295,13.7749508 C34.3027974,13.7749508 34.8822687,13.8180874 35.3952433,13.9043606 C35.9082178,13.9906338 36.4781895,14.1104576 37.1051584,14.2638321 L37.1051584,14.2638321 L37.1051584,17.4559398 C36.953166,17.5709707 36.6111829,17.74831 36.0792093,17.9879577 C35.5472357,18.2276054 34.7872734,18.3474293 33.7993225,18.3474293 Z M52.9503719,20.8493515 C53.3873502,20.8493515 53.7483323,20.7007698 54.0333182,20.4036067 C54.318304,20.1064436 54.460797,19.737386 54.460797,19.2964343 L54.460797,19.2964343 L54.460797,11.3017864 C54.460797,9.34626096 53.9383229,7.84606625 52.8933748,6.80120225 C51.8484266,5.75633816 50.2905039,5.23390616 48.2196067,5.23390616 C47.4786435,5.23390616 46.7899277,5.28662864 46.1534593,5.39207369 C45.5169909,5.49751866 44.9517689,5.6317214 44.4577935,5.79468184 C43.963818,5.95764228 43.5363392,6.13018861 43.1753571,6.31232085 C42.814375,6.49445317 42.5293892,6.6622066 42.3203996,6.81558114 C42.1114099,6.96895568 41.9594175,7.12712312 41.8644222,7.29008356 C41.7694269,7.453044 41.7219293,7.6878988 41.7219293,7.99464788 L41.7219293,7.99464788 L41.7219293,19.2964343 C41.7219293,19.737386 41.8739217,20.1064436 42.1779066,20.4036067 C42.4818915,20.7007698 42.8333741,20.8493515 43.2323543,20.8493515 C43.6693326,20.8493515 44.0303147,20.7007698 44.3153005,20.4036067 C44.6002864,20.1064436 44.7427793,19.737386 44.7427793,19.2964343 L44.7427793,19.2964343 L44.7427793,8.9724106 C45.0657632,8.76152058 45.53599,8.57459536 46.1534593,8.41163492 C46.7709286,8.24867448 47.4311459,8.16719422 48.1341109,8.16719422 C48.5710893,8.16719422 48.9890686,8.2295026 49.3880488,8.35411945 C49.787029,8.47873629 50.1385115,8.67524742 50.4424964,8.94365282 C50.7464813,9.21205831 50.9887193,9.55235807 51.1692103,9.96455212 C51.3497014,10.3767462 51.4399469,10.8704205 51.4399469,11.445575 L51.4399469,11.445575 L51.4399469,19.2964343 C51.4399469,19.737386 51.5919393,20.1064436 51.8959243,20.4036067 C52.1999092,20.7007698 52.5513917,20.8493515 52.9503719,20.8493515 Z M57.8806273,3.45092715 C58.3556036,3.45092715 58.7545839,3.27838082 59.0775679,2.93328806 C59.4005518,2.58819539 59.5620438,2.17600126 59.5620438,1.69670584 C59.5620438,1.21741041 59.4005518,0.814802242 59.0775679,0.48888134 C58.7545839,0.162960447 58.3556036,0 57.8806273,0 C57.3866517,0 56.978172,0.162960447 56.6551881,0.48888134 C56.3322041,0.814802242 56.1707121,1.21741041 56.1707121,1.69670584 C56.1707121,2.17600126 56.3322041,2.58819539 56.6551881,2.93328806 C56.978172,3.27838082 57.3866517,3.45092715 57.8806273,3.45092715 Z M57.8806273,20.8493515 C58.3176055,20.8493515 58.6785877,20.7007698 58.9635735,20.4036067 C59.2485594,20.1064436 59.3910523,19.737386 59.3910523,19.2964343 L59.3910523,19.2964343 L59.3910523,6.98812747 C59.3910523,6.54717565 59.2438096,6.17811819 58.9493242,5.88095501 C58.6548388,5.58379182 58.2986065,5.43521028 57.8806273,5.43521028 C57.4436489,5.43521028 57.0826669,5.58379182 56.797681,5.88095501 C56.5126952,6.17811819 56.3702022,6.54717565 56.3702022,6.98812747 L56.3702022,6.98812747 L56.3702022,19.2964343 C56.3702022,19.737386 56.5221947,20.1064436 56.8261796,20.4036067 C57.1301645,20.7007698 57.4816471,20.8493515 57.8806273,20.8493515 Z" id="adani" fill="url(#linearGradient-1)"></path>
                <path d="M82.9616945,20.6519824 C83.2226858,20.6637298 83.4599506,20.5756241 83.673489,20.3876652 C83.8514375,20.2232012 83.9463434,20.0058737 83.9582067,19.7356828 C83.97007,19.465492 83.8929589,19.2364171 83.7268735,19.0484581 L80.8441061,15.5594714 C81.235593,15.4772393 81.6003876,15.3480176 81.93849,15.1718062 C82.2765924,14.9955947 82.5672418,14.7665198 82.8104382,14.4845815 C83.0536346,14.2026432 83.2464123,13.8619677 83.3887712,13.4625551 C83.5311301,13.0631424 83.6023095,12.5991189 83.6023095,12.0704846 C83.6023095,11.4361233 83.4925745,10.8751836 83.2731046,10.3876652 C83.0536346,9.90014681 82.7540878,9.49486047 82.3744641,9.17180617 C81.9948405,8.84875187 81.5559005,8.60205583 81.0576445,8.43171806 C80.5593883,8.26138029 80.0255425,8.17621145 79.4561069,8.17621145 L75.8259554,8.17621145 C75.3751522,8.17621145 75.0311182,8.31130693 74.7938534,8.5814978 C74.5565886,8.85168866 74.4379562,9.17474305 74.4379562,9.55066079 L74.4379562,19.6651982 C74.4379562,19.9353891 74.5298963,20.1674009 74.7137766,20.3612335 C74.8976567,20.5550661 75.1200926,20.6519824 75.3810838,20.6519824 C75.6420751,20.6519824 75.8674767,20.5550661 76.0572886,20.3612335 C76.2471004,20.1674009 76.3420063,19.9353891 76.3420063,19.6651982 L76.3420063,15.9647577 L78.1926718,15.9647577 C78.4417999,15.9647577 78.6345776,16.0146843 78.7710048,16.1145374 C78.9074321,16.2143906 79.0468252,16.3524229 79.189184,16.5286344 L82.3032846,20.3348018 C82.4812333,20.534508 82.7007033,20.6402349 82.9616945,20.6519824 Z M76.3420063,14.1674009 L76.3420063,10.0088106 L79.3315429,10.0088106 C80.1382433,10.0088106 80.7314053,10.1908957 81.111029,10.5550661 C81.4906527,10.9192364 81.6804645,11.4302497 81.6804645,12.0881057 C81.6804645,12.722467 81.4995501,13.2276065 81.1377213,13.6035242 C80.7758925,13.979442 80.1441749,14.1674009 79.2425686,14.1674009 L76.3420063,14.1674009 Z M89.7593316,20.7400881 C90.0203225,20.7400881 90.2902116,20.7254038 90.5689971,20.6960352 C90.8477834,20.6666666 91.1147061,20.6255507 91.3697661,20.5726872 C91.6248261,20.5198238 91.8620907,20.4552129 92.0815607,20.3788546 C92.3010307,20.3024964 92.4878771,20.2173274 92.6420989,20.123348 C92.8437743,20.0058737 92.9742698,19.8795889 93.0335861,19.7444934 C93.0929016,19.6093979 93.1225598,19.4713656 93.1225598,19.3303965 C93.1225598,19.2011748 93.0929016,19.0778268 93.0335861,18.9603524 C92.9742698,18.8428781 92.8882607,18.7459618 92.7755607,18.6696035 C92.6628598,18.5932453 92.5264325,18.5462555 92.3662789,18.5286344 C92.2061243,18.5110132 92.0311416,18.5374449 91.8413298,18.6079295 C91.4972961,18.7371512 91.1502961,18.8399413 90.8003307,18.9162996 C90.4503652,18.9926578 90.1152289,19.030837 89.7949207,19.030837 C89.0949898,19.030837 88.5285202,18.8428781 88.0955119,18.4669604 C87.6625036,18.0910426 87.4459994,17.5506608 87.4459994,16.845815 L87.4459994,16.6343612 L92.4819452,16.6343612 C92.8734316,16.6343612 93.1611152,16.5286344 93.3449961,16.3171806 C93.5288761,16.1057269 93.6208161,15.835536 93.6208161,15.5066079 L93.6208161,15.0132159 C93.6208161,14.4258444 93.5259098,13.8883994 93.336098,13.4008811 C93.1462861,12.9133627 92.8793634,12.496329 92.5353298,12.1497797 C92.1912952,11.8032305 91.7760825,11.5359765 91.2896898,11.3480176 C90.8032961,11.1600587 90.2635189,11.0660793 89.6703571,11.0660793 C89.1127843,11.0660793 88.593768,11.1512481 88.1133067,11.3215859 C87.6328454,11.4919237 87.2146663,11.7386197 86.8587691,12.061674 C86.5028718,12.3847283 86.2181541,12.7753304 86.0046157,13.2334802 C85.7910773,13.69163 85.6605817,14.2026432 85.6131288,14.7665198 C85.6012655,14.907489 85.5923681,15.0690162 85.5864365,15.2511013 C85.5805049,15.4331865 85.5775391,15.6211454 85.5775391,15.814978 C85.5775391,16.0088106 85.5805049,16.2055801 85.5864365,16.4052863 C85.5923681,16.6049926 85.6012655,16.7870779 85.6131288,16.9515419 C85.6487185,17.503671 85.7703167,18.0117475 85.9779234,18.4757709 C86.1855302,18.9397944 86.4672821,19.339207 86.8231793,19.6740088 C87.1790765,20.0088106 87.6031873,20.2701909 88.0955119,20.4581498 C88.5878363,20.6461087 89.1424425,20.7400881 89.7593316,20.7400881 Z M87.4459994,15.154185 C87.422273,14.4140969 87.5972558,13.8237885 87.9709478,13.3832599 C88.3446399,12.9427313 88.9111096,12.722467 89.6703571,12.722467 C90.3584252,12.722467 90.8952371,12.9251101 91.2807916,13.3303965 C91.6663471,13.7356828 91.8353989,14.2731278 91.7879452,14.9427313 C91.7642189,15.0837004 91.6930398,15.154185 91.5744071,15.154185 L87.4459994,15.154185 Z M98.7635307,20.7400881 C99.226197,20.7400881 99.6562398,20.7048458 100.053658,20.6343612 C100.451077,20.5638767 100.806974,20.4757709 101.12135,20.3700441 C101.435726,20.2643172 101.705614,20.1556534 101.931016,20.0440529 C102.156418,19.9324523 102.334366,19.835536 102.464862,19.753304 C102.595358,19.6593246 102.684332,19.5624083 102.731785,19.4625551 C102.779238,19.3627019 102.802964,19.2305433 102.802964,19.0660793 L102.802964,14.4845815 C102.802964,13.2980911 102.47376,12.4317181 101.81535,11.8854626 C101.15694,11.339207 100.258299,11.0660793 99.1194279,11.0660793 C98.5737189,11.0660793 98.0487707,11.1218796 97.5445825,11.2334802 C97.0403952,11.3450807 96.6578061,11.465492 96.3968143,11.5947137 C96.1595498,11.7004405 95.9964298,11.8325991 95.9074561,11.9911894 C95.8184816,12.1497797 95.7739943,12.3054332 95.7739943,12.4581498 C95.7739943,12.7283406 95.892627,12.9456682 96.1298916,13.1101322 C96.3671561,13.2745962 96.6815325,13.2922173 97.0730189,13.1629956 C97.322147,13.0690162 97.6157625,12.9809105 97.9538643,12.8986784 C98.291967,12.8164464 98.6448989,12.7753304 99.0126588,12.7753304 C99.7125898,12.7753304 100.216778,12.9104259 100.525222,13.1806167 C100.833666,13.4508076 100.987889,13.8854626 100.987889,14.4845815 L100.987889,15.0660793 C100.572675,14.9720999 100.196017,14.8986784 99.8579152,14.845815 C99.5198125,14.7929515 99.1431543,14.7665198 98.7279416,14.7665198 C98.0991898,14.7665198 97.5594116,14.845815 97.1086089,15.0044053 C96.6578061,15.1629956 96.2841134,15.3773862 95.9875325,15.6475771 C95.6909516,15.917768 95.4714816,16.2290749 95.3291225,16.5814978 C95.1867643,16.9339207 95.1155843,17.3039648 95.1155843,17.69163 C95.1155843,18.1262849 95.1926952,18.5286344 95.346918,18.8986784 C95.5011398,19.2687225 95.729507,19.5917768 96.0320198,19.8678414 C96.3345325,20.1439061 96.7141561,20.3582966 97.1708907,20.5110132 C97.6276252,20.6637298 98.1585052,20.7400881 98.7635307,20.7400881 Z M98.9236843,19.1013216 C98.2830698,19.1013216 97.796677,18.9750367 97.4645061,18.722467 C97.1323352,18.4698972 96.9662498,18.10279 96.9662498,17.6211454 C96.9662498,17.1982379 97.1412325,16.8722467 97.4911979,16.6431718 C97.8411643,16.4140969 98.2890016,16.2995595 98.8347107,16.2995595 C99.2380607,16.2995595 99.5998898,16.3259912 99.920197,16.3788546 C100.240504,16.4317181 100.596402,16.5051395 100.987889,16.5991189 L100.987889,18.5550661 C100.892982,18.6255507 100.679444,18.7342144 100.347273,18.8810573 C100.015102,19.0279001 99.5405734,19.1013216 98.9236843,19.1013216 Z M106.095013,20.6343612 C106.367868,20.6343612 106.59327,20.5433186 106.771218,20.3612335 C106.949167,20.1791483 107.038142,19.9530102 107.038142,19.6828194 L107.038142,8.95154185 C107.038142,8.68135098 106.946201,8.45521289 106.762321,8.27312775 C106.578441,8.09104261 106.356005,8 106.095013,8 C105.822159,8 105.596757,8.09104261 105.418809,8.27312775 C105.240861,8.45521289 105.151886,8.68135098 105.151886,8.95154185 L105.151886,19.6828194 C105.151886,19.9530102 105.246792,20.1791483 105.436603,20.3612335 C105.626415,20.5433186 105.845885,20.6343612 106.095013,20.6343612 Z M112.3766,20.7400881 C112.720633,20.7400881 113.070599,20.7136564 113.426496,20.660793 C113.782393,20.6079295 114.09677,20.5227607 114.369624,20.4052863 C114.606889,20.3113069 114.772974,20.1879589 114.86788,20.0352423 C114.962786,19.8825257 115.010239,19.7180617 115.010239,19.5418502 C115.010239,19.4126285 114.983546,19.2863436 114.930162,19.1629956 C114.876777,19.0396476 114.802632,18.9397944 114.707726,18.8634361 C114.612821,18.7870779 114.491222,18.7312775 114.342932,18.6960352 C114.194641,18.660793 114.031522,18.6666666 113.853572,18.7136564 C113.651898,18.7723935 113.447257,18.8311307 113.23965,18.8898678 C113.032043,18.948605 112.809608,18.9779736 112.572342,18.9779736 C112.133403,18.9779736 111.813095,18.8575624 111.611421,18.6167401 C111.409745,18.3759177 111.308908,18.0323054 111.308908,17.5859031 L111.308908,13.1982379 L113.764599,13.1982379 C114.001863,13.1982379 114.20947,13.1189427 114.387419,12.9603524 C114.565367,12.8017621 114.654342,12.6049926 114.654342,12.3700441 C114.654342,12.1350955 114.565367,11.938326 114.387419,11.7797357 C114.20947,11.6211454 114.001863,11.5418502 113.764599,11.5418502 L111.308908,11.5418502 L111.308908,10.2026432 C111.308908,9.93245231 111.216968,9.70631421 111.033087,9.52422907 C110.849207,9.34214394 110.626772,9.25110132 110.36578,9.25110132 C110.092925,9.25110132 109.867524,9.34214394 109.689575,9.52422907 C109.511627,9.70631421 109.422652,9.93245231 109.422652,10.2026432 L109.422652,17.5682819 C109.422652,18.0146843 109.481969,18.4317181 109.600602,18.8193833 C109.719233,19.2070485 109.900148,19.5418502 110.143344,19.8237885 C110.386541,20.1057269 110.692019,20.3289281 111.05978,20.4933921 C111.42754,20.6578561 111.86648,20.7400881 112.3766,20.7400881 Z M117.786237,24 C118.047229,24 118.314152,23.9118943 118.587006,23.7356828 C118.954766,23.5007342 119.361082,23.1013216 119.805953,22.5374449 C120.250825,21.9735683 120.65121,21.2687225 121.007107,20.4229075 L124.352541,12.5462555 C124.423721,12.3817915 124.450412,12.2173274 124.432618,12.0528634 C124.414822,11.8883994 124.361438,11.7415565 124.272464,11.6123348 C124.18349,11.4831131 124.070789,11.380323 123.934361,11.3039648 C123.797934,11.2276065 123.640746,11.1894273 123.462798,11.1894273 C123.225532,11.1894273 123.026823,11.256975 122.86667,11.3920705 C122.706516,11.527166 122.584918,11.7063142 122.501875,11.9295154 L120.295312,17.5859031 C120.271586,17.6211454 120.241928,17.6387665 120.206338,17.6387665 C120.170749,17.6387665 120.147022,17.6211454 120.135159,17.5859031 L117.732852,11.8942731 C117.661673,11.6945668 117.546006,11.527166 117.385852,11.3920705 C117.225699,11.256975 117.021058,11.1894273 116.77193,11.1894273 C116.617708,11.1894273 116.472383,11.2276065 116.335956,11.3039648 C116.199529,11.380323 116.086828,11.4801762 115.997853,11.6035242 C115.90888,11.7268722 115.855494,11.8707783 115.8377,12.0352423 C115.819905,12.1997063 115.846597,12.3700441 115.917777,12.5462555 L119.156442,19.9295154 C118.919177,20.5638767 118.628527,21.0778268 118.284493,21.4713656 C117.940459,21.8649045 117.608289,22.1615272 117.287981,22.3612335 C117.157485,22.4552129 117.059613,22.5726872 116.994366,22.7136564 C116.929118,22.8546256 116.896494,22.989721 116.896494,23.1189427 C116.896494,23.3891336 116.985469,23.6035242 117.163417,23.7621145 C117.341365,23.9207048 117.548972,24 117.786237,24 Z" id="Realty" fill="#555555"></path>
                <rect id="Rectangle-Copy" fill="#555555" x="66.5620438" y="0" width="1" height="21.0218978" rx="0.5"></rect>
            </g>
        </g>
    </g>
</svg>