<svg id="Group_1322" data-name="Group 1322" xmlns="http://www.w3.org/2000/svg" xmlns:xlink="http://www.w3.org/1999/xlink" width="38.798" height="57.257" viewBox="0 0 38.798 57.257">
  <defs>
    <clipPath id="clip-path">
      <rect id="Rectangle_656" data-name="Rectangle 656" width="38.798" height="57.257" fill="none"/>
    </clipPath>
  </defs>
  <rect id="Rectangle_631" data-name="Rectangle 631" width="2.962" height="4.655" transform="translate(8.8 6.95)" fill="#33322f"/>
  <rect id="Rectangle_632" data-name="Rectangle 632" width="2.962" height="4.655" transform="translate(14.878 6.95)" fill="#33322f"/>
  <rect id="Rectangle_633" data-name="Rectangle 633" width="2.962" height="4.655" transform="translate(20.957 6.95)" fill="#33322f"/>
  <rect id="Rectangle_634" data-name="Rectangle 634" width="2.962" height="4.655" transform="translate(27.036 6.95)" fill="#33322f"/>
  <rect id="Rectangle_635" data-name="Rectangle 635" width="2.962" height="4.655" transform="translate(8.8 14.52)" fill="#33322f"/>
  <rect id="Rectangle_636" data-name="Rectangle 636" width="2.962" height="4.655" transform="translate(14.878 14.52)" fill="#33322f"/>
  <rect id="Rectangle_637" data-name="Rectangle 637" width="2.962" height="4.655" transform="translate(20.957 14.52)" fill="#33322f"/>
  <rect id="Rectangle_638" data-name="Rectangle 638" width="2.962" height="4.655" transform="translate(27.036 14.52)" fill="#33322f"/>
  <rect id="Rectangle_639" data-name="Rectangle 639" width="2.962" height="4.654" transform="translate(8.8 22.09)" fill="#33322f"/>
  <rect id="Rectangle_640" data-name="Rectangle 640" width="2.962" height="4.654" transform="translate(14.878 22.09)" fill="#33322f"/>
  <rect id="Rectangle_641" data-name="Rectangle 641" width="2.962" height="4.654" transform="translate(20.957 22.09)" fill="#33322f"/>
  <rect id="Rectangle_642" data-name="Rectangle 642" width="2.962" height="4.654" transform="translate(27.036 22.09)" fill="#33322f"/>
  <rect id="Rectangle_643" data-name="Rectangle 643" width="2.962" height="4.655" transform="translate(8.8 29.659)" fill="#33322f"/>
  <rect id="Rectangle_644" data-name="Rectangle 644" width="2.962" height="4.655" transform="translate(14.878 29.659)" fill="#33322f"/>
  <rect id="Rectangle_645" data-name="Rectangle 645" width="2.962" height="4.655" transform="translate(20.957 29.659)" fill="#33322f"/>
  <rect id="Rectangle_646" data-name="Rectangle 646" width="2.962" height="4.655" transform="translate(27.036 29.659)" fill="#33322f"/>
  <rect id="Rectangle_647" data-name="Rectangle 647" width="2.962" height="4.655" transform="translate(8.8 37.229)" fill="#33322f"/>
  <rect id="Rectangle_648" data-name="Rectangle 648" width="2.962" height="4.655" transform="translate(14.878 37.229)" fill="#33322f"/>
  <rect id="Rectangle_649" data-name="Rectangle 649" width="2.962" height="4.655" transform="translate(20.957 37.229)" fill="#33322f"/>
  <rect id="Rectangle_650" data-name="Rectangle 650" width="2.962" height="4.655" transform="translate(27.036 37.229)" fill="#33322f"/>
  <rect id="Rectangle_651" data-name="Rectangle 651" width="2.962" height="4.655" transform="translate(8.8 44.799)" fill="#33322f"/>
  <rect id="Rectangle_652" data-name="Rectangle 652" width="2.962" height="4.655" transform="translate(27.036 44.799)" fill="#33322f"/>
  <path id="Path_1487" data-name="Path 1487" d="M16.082,2.962H44.09V54.3H16.082Zm-2.962,54.3H47.052V0H13.12Z" transform="translate(-10.687)" fill="#33322f"/>
  <rect id="Rectangle_653" data-name="Rectangle 653" width="35.836" height="2.962" transform="translate(1.481 0)" fill="#33322f"/>
  <g id="Group_1321" data-name="Group 1321">
    <g id="Group_1320" data-name="Group 1320" clip-path="url(#clip-path)">
      <path id="Path_1488" data-name="Path 1488" d="M37.317,295.73H1.481a1.481,1.481,0,0,1,0-2.962H37.317a1.481,1.481,0,0,1,0,2.962" transform="translate(0 -238.473)" fill="#33322f"/>
      <rect id="Rectangle_654" data-name="Rectangle 654" width="2.962" height="9.446" transform="translate(15.29 46.166)" fill="#33322f"/>
      <rect id="Rectangle_655" data-name="Rectangle 655" width="2.962" height="9.446" transform="translate(20.546 46.166)" fill="#33322f"/>
    </g>
  </g>
</svg>
