<svg xmlns="http://www.w3.org/2000/svg" width="121.483" height="39.983" viewBox="0 0 121.483 39.983">
  <g id="Shantigram_Color_logo" data-name="Shantigram Color logo" transform="translate(0 0.5)">
    <g id="Group_1399" data-name="Group 1399" transform="translate(0 0)">
      <path id="Path_1539" data-name="Path 1539" d="M7.568,8.134s30.358-8.464,92.077,0c0,0-52.743-13.943-92.077,0" transform="translate(-1.876 -0.48)" fill="#88bd2f" fill-rule="evenodd"/>
      <path id="Path_1540" data-name="Path 1540" d="M1.748,20.15a1.789,1.789,0,0,0,.256,1,1.908,1.908,0,0,0,.661.64,3.991,3.991,0,0,0,.959.426c.363.106.725.213,1.13.3.532.128,1.045.278,1.556.426a5.09,5.09,0,0,1,1.364.661,3.123,3.123,0,0,1,.981,1.066A3.456,3.456,0,0,1,9.039,26.4a4.148,4.148,0,0,1-.4,1.834,3.518,3.518,0,0,1-1.109,1.258,5.212,5.212,0,0,1-1.685.725,8.456,8.456,0,0,1-2.131.256A9.252,9.252,0,0,1,2.622,30.4a7.741,7.741,0,0,1-1.066-.192,5.168,5.168,0,0,1-.917-.256A3.143,3.143,0,0,1,0,29.68V28.166c.256.107.511.213.831.32a6.725,6.725,0,0,0,.938.256,5.418,5.418,0,0,0,1,.171,7.161,7.161,0,0,0,2.3-.064,3.082,3.082,0,0,0,1.13-.405,2.1,2.1,0,0,0,.789-.767,2.5,2.5,0,0,0,.278-1.258,2,2,0,0,0-.235-1,2.245,2.245,0,0,0-.682-.66,3.939,3.939,0,0,0-.96-.426c-.363-.107-.746-.214-1.151-.3C3.709,23.9,3.2,23.775,2.686,23.6a4.735,4.735,0,0,1-1.364-.639A2.83,2.83,0,0,1,.363,21.92,3.4,3.4,0,0,1,0,20.278a3.835,3.835,0,0,1,.384-1.791,3.436,3.436,0,0,1,1.023-1.236,4.164,4.164,0,0,1,1.514-.725,6.056,6.056,0,0,1,1.791-.256,10.167,10.167,0,0,1,2.046.214,9.074,9.074,0,0,1,1.727.554v1.534A12.1,12.1,0,0,0,6.737,18a7.947,7.947,0,0,0-1.94-.235,5,5,0,0,0-1.343.171,2.88,2.88,0,0,0-.96.469,2.209,2.209,0,0,0-.554.767,2.44,2.44,0,0,0-.192.981" transform="translate(0 -4.033)" fill="#2b2a29" fill-rule="evenodd"/>
      <path id="Path_1541" data-name="Path 1541" d="M20.144,21.554h.043a4.217,4.217,0,0,1,.6-.639,2.907,2.907,0,0,1,.725-.49,3.751,3.751,0,0,1,.853-.341,3.654,3.654,0,0,1,.981-.107,4.8,4.8,0,0,1,1.109.128,2.948,2.948,0,0,1,1.023.533,2.615,2.615,0,0,1,.768,1.045,4.6,4.6,0,0,1,.3,1.748v6.5H24.962V23.686a2.925,2.925,0,0,0-.448-1.77,1.76,1.76,0,0,0-1.471-.6,2.843,2.843,0,0,0-1.578.469,4.265,4.265,0,0,0-1.321,1.236v6.907H18.566v-14.8h1.578Z" transform="translate(-4.602 -3.752)" fill="#2b2a29" fill-rule="evenodd"/>
      <path id="Path_1542" data-name="Path 1542" d="M41.451,27.263a8.67,8.67,0,0,0-1.045-.234,8.343,8.343,0,0,0-1.321-.128,2.616,2.616,0,0,0-1.578.426,1.553,1.553,0,0,0-.575,1.321,1.859,1.859,0,0,0,.149.789,1.3,1.3,0,0,0,.384.554,1.474,1.474,0,0,0,.6.32,2.085,2.085,0,0,0,.725.128,3.216,3.216,0,0,0,.938-.149,5.482,5.482,0,0,0,.789-.363,3.335,3.335,0,0,0,.575-.405,3.111,3.111,0,0,0,.363-.32Zm.064,3.177h-.043a2.511,2.511,0,0,1-.469.49,3.871,3.871,0,0,1-.7.426,4.779,4.779,0,0,1-.831.32,4.94,4.94,0,0,1-.981.107,3.609,3.609,0,0,1-1.3-.214,2.821,2.821,0,0,1-1-.618,2.415,2.415,0,0,1-.661-.981,3.244,3.244,0,0,1-.235-1.321,3.142,3.142,0,0,1,.256-1.3,2.5,2.5,0,0,1,.725-.96,3.227,3.227,0,0,1,1.13-.618,4.509,4.509,0,0,1,1.45-.213,7.213,7.213,0,0,1,1.407.128,11.029,11.029,0,0,1,1.151.3h.043v-.661a3.284,3.284,0,0,0-.064-.7,1.742,1.742,0,0,0-1.024-1.365,3.288,3.288,0,0,0-1.577-.32,5.567,5.567,0,0,0-1.364.15,6.93,6.93,0,0,0-1.3.384V22.125c.149-.064.362-.149.575-.235a5.577,5.577,0,0,1,.7-.17q.352-.064.768-.128c.277-.022.554-.022.831-.022a4.9,4.9,0,0,1,2.388.511,3.061,3.061,0,0,1,1.364,1.386,3.42,3.42,0,0,1,.214.7,5.683,5.683,0,0,1,.064.875v6.481H41.707Z" transform="translate(-8.748 -5.347)" fill="#2b2a29" fill-rule="evenodd"/>
      <path id="Path_1543" data-name="Path 1543" d="M53.974,23.17H54a5.72,5.72,0,0,1,.6-.639,3.674,3.674,0,0,1,.725-.512,3.749,3.749,0,0,1,.853-.341,4.908,4.908,0,0,1,2.3.064,2.508,2.508,0,0,1,1,.6,2.959,2.959,0,0,1,.682,1.066,4.529,4.529,0,0,1,.256,1.62v6.5h-1.6V25.28a2.758,2.758,0,0,0-.469-1.812,1.83,1.83,0,0,0-1.428-.554,2.945,2.945,0,0,0-1.578.469,4.049,4.049,0,0,0-1.321,1.237v6.907H52.439V21.806h1.215Z" transform="translate(-12.999 -5.347)" fill="#2b2a29" fill-rule="evenodd"/>
      <path id="Path_1544" data-name="Path 1544" d="M74.56,30.755a4.307,4.307,0,0,1-.618.149,6.73,6.73,0,0,1-1,.086A4.252,4.252,0,0,1,71.6,30.8a2.73,2.73,0,0,1-.938-.554,2.474,2.474,0,0,1-.554-.832,3.8,3.8,0,0,1-.171-1.13V22.376H68.058V21.012h1.876V18.368h1.578v2.644h2.9v1.364h-2.9v5.671a1.978,1.978,0,0,0,.106.618.91.91,0,0,0,.3.49,1.36,1.36,0,0,0,.533.341,2.824,2.824,0,0,0,.789.106c.213,0,.426-.021.66-.042.235-.043.448-.086.661-.128Z" transform="translate(-16.871 -4.553)" fill="#2b2a29" fill-rule="evenodd"/>
      <path id="Path_1545" data-name="Path 1545" d="M82.451,20.562h1.6v9.722h-1.6Zm-.022-4.008h1.578v1.77H82.429Z" transform="translate(-20.433 -4.104)" fill="#2b2a29" fill-rule="evenodd"/>
      <path id="Path_1546" data-name="Path 1546" d="M92.483,26.73a5.2,5.2,0,0,0,.277,1.876,2.839,2.839,0,0,0,.7,1.13,2.389,2.389,0,0,0,.917.554,3.867,3.867,0,0,0,.959.15,3.272,3.272,0,0,0,1.364-.3,4.01,4.01,0,0,0,1.151-.81v-5.1c-.107-.107-.235-.256-.384-.4a2.61,2.61,0,0,0-.533-.426,2.521,2.521,0,0,0-.725-.341,2.24,2.24,0,0,0-.853-.149,2.888,2.888,0,0,0-1.258.277,2.656,2.656,0,0,0-.9.789,4.1,4.1,0,0,0-.554,1.194,6.948,6.948,0,0,0-.171,1.557m2.665-5.159a3.5,3.5,0,0,1,1.109.149,3.4,3.4,0,0,1,.789.384,3.13,3.13,0,0,1,.554.448,1.936,1.936,0,0,1,.256.363H97.9l.341-1.109h1.194V32.1a5.122,5.122,0,0,1-.362,1.962,3.907,3.907,0,0,1-1.045,1.364,4.4,4.4,0,0,1-1.6.831,7.82,7.82,0,0,1-2.068.278,8.075,8.075,0,0,1-1.705-.171,4.523,4.523,0,0,1-1.194-.405V34.619c.235.085.448.17.661.234.235.064.448.128.682.171s.469.064.7.107c.256,0,.512.021.811.021a3.891,3.891,0,0,0,2.622-.789,3.1,3.1,0,0,0,.917-2.43v-1.3h-.043a3.229,3.229,0,0,1-1.215.853,4.008,4.008,0,0,1-1.578.3,4.432,4.432,0,0,1-.874-.107,3.213,3.213,0,0,1-.938-.3,4.008,4.008,0,0,1-.9-.575,3.572,3.572,0,0,1-.767-.917,4.856,4.856,0,0,1-.512-1.3,5.992,5.992,0,0,1-.213-1.727,7.03,7.03,0,0,1,.363-2.345,5.268,5.268,0,0,1,.981-1.663,3.861,3.861,0,0,1,1.385-.96,4.123,4.123,0,0,1,1.6-.32" transform="translate(-22.513 -5.347)" fill="#2b2a29" fill-rule="evenodd"/>
      <path id="Path_1547" data-name="Path 1547" d="M114.46,23.106h-.128a4.749,4.749,0,0,0-1.109.107,5.142,5.142,0,0,0-1.024.3,3.836,3.836,0,0,0-.852.532,2.335,2.335,0,0,0-.64.725v6.758h-1.577V21.806h1.215l.32,1.556h.022a3.605,3.605,0,0,1,.575-.7,3.873,3.873,0,0,1,1.706-.96,4.611,4.611,0,0,1,1.087-.128h.214l.192.021Z" transform="translate(-27.052 -5.347)" fill="#2b2a29" fill-rule="evenodd"/>
      <path id="Path_1548" data-name="Path 1548" d="M126.631,27.263a9.281,9.281,0,0,0-2.344-.362,2.616,2.616,0,0,0-1.578.426,1.553,1.553,0,0,0-.575,1.321,1.859,1.859,0,0,0,.149.789,1.3,1.3,0,0,0,.384.554,1.469,1.469,0,0,0,.6.32,1.994,1.994,0,0,0,.724.128,3.341,3.341,0,0,0,.939-.149,5.482,5.482,0,0,0,.789-.363,4.531,4.531,0,0,0,.575-.405,2.653,2.653,0,0,0,.341-.32Zm.086,3.177h-.044a2.088,2.088,0,0,1-.49.49,3.059,3.059,0,0,1-.681.426,4.406,4.406,0,0,1-.853.32,4.607,4.607,0,0,1-.98.107,3.493,3.493,0,0,1-1.279-.214,2.756,2.756,0,0,1-1.684-1.6,3.641,3.641,0,0,1-.235-1.321,2.844,2.844,0,0,1,.277-1.3,2.5,2.5,0,0,1,.724-.96,3.237,3.237,0,0,1,1.13-.618,4.5,4.5,0,0,1,1.449-.213,7.227,7.227,0,0,1,1.408.128,10.963,10.963,0,0,1,1.15.3h.022v-.661a3.432,3.432,0,0,0-.043-.7,2.063,2.063,0,0,0-.17-.554,2.1,2.1,0,0,0-.854-.811,3.284,3.284,0,0,0-1.577-.32,5.866,5.866,0,0,0-1.385.15,7.228,7.228,0,0,0-1.279.384V22.125c.148-.064.341-.149.575-.235a5.622,5.622,0,0,1,.7-.17q.352-.064.768-.128c.277-.022.554-.022.81-.022a4.984,4.984,0,0,1,2.408.511,3.021,3.021,0,0,1,1.344,1.386,2.48,2.48,0,0,1,.212.7,3.806,3.806,0,0,1,.086.875v6.481h-1.343Z" transform="translate(-29.863 -5.347)" fill="#2b2a29" fill-rule="evenodd"/>
      <path id="Path_1549" data-name="Path 1549" d="M145.577,31.528h-1.6V25.281a4.015,4.015,0,0,0-.128-1.087,2,2,0,0,0-.405-.725,1.782,1.782,0,0,0-.618-.426,2.378,2.378,0,0,0-.81-.128,2.679,2.679,0,0,0-1.556.469,4.542,4.542,0,0,0-1.236,1.236v6.907h-1.578V21.806h1.215l.32,1.364h.022a4.085,4.085,0,0,1,.575-.639,4.22,4.22,0,0,1,.7-.511,3.568,3.568,0,0,1,.832-.341,3.814,3.814,0,0,1,1-.106,3.075,3.075,0,0,1,1.812.511,3.236,3.236,0,0,1,1.088,1.428h.043a4.91,4.91,0,0,1,1.471-1.428,3.6,3.6,0,0,1,1.94-.511,4.991,4.991,0,0,1,1.088.128,2.853,2.853,0,0,1,1.045.532,2.924,2.924,0,0,1,.81,1.045,4.206,4.206,0,0,1,.32,1.748v6.5h-1.578V25.281a3.948,3.948,0,0,0-.149-1.087,2,2,0,0,0-.405-.725,1.782,1.782,0,0,0-.618-.426,2.378,2.378,0,0,0-.81-.128,2.679,2.679,0,0,0-1.556.469,4.261,4.261,0,0,0-1.236,1.236Z" transform="translate(-34.121 -5.348)" fill="#2b2a29" fill-rule="evenodd"/>
      <path id="Path_1550" data-name="Path 1550" d="M37.394,50.886h-.533V46.857H35.347v-.512h3.56v.512H37.394Z" transform="translate(-8.762 -11.489)" fill="#2b2a29" fill-rule="evenodd"/>
      <path id="Path_1551" data-name="Path 1551" d="M43.611,48.307h2.366V46.345h.554v4.541h-.554V48.818H43.611v2.068h-.554V46.345h.554Z" transform="translate(-10.673 -11.489)" fill="#2b2a29" fill-rule="evenodd"/>
      <path id="Path_1552" data-name="Path 1552" d="M51.782,50.375h2.324v.511H51.249v-4.54h2.729v.511h-2.2v1.449h1.962v.512H51.782Z" transform="translate(-12.704 -11.489)" fill="#2b2a29" fill-rule="evenodd"/>
      <path id="Path_1553" data-name="Path 1553" d="M64.757,49.032H63.712v-.49h1.6v2.174a1.5,1.5,0,0,0-.213.086c-.086.021-.193.042-.32.064-.106.021-.234.042-.363.064-.149,0-.277.021-.4.021a3.024,3.024,0,0,1-1.024-.171,1.985,1.985,0,0,1-.746-.448,1.776,1.776,0,0,1-.469-.7,3.02,3.02,0,0,1,.021-1.94,2.055,2.055,0,0,1,.49-.767,2.141,2.141,0,0,1,.789-.49,2.54,2.54,0,0,1,1-.171h.3c.107.021.192.021.3.043l.234.042.193.064v.49a2.228,2.228,0,0,0-.469-.106,2.066,2.066,0,0,0-.511-.043,2.166,2.166,0,0,0-.746.107,1.808,1.808,0,0,0-.618.363,1.677,1.677,0,0,0-.426.575,2.169,2.169,0,0,0-.15.853,2.4,2.4,0,0,0,.128.81,1.309,1.309,0,0,0,.384.554,1.535,1.535,0,0,0,.576.341,2.9,2.9,0,0,0,.767.107c.128,0,.256-.021.384-.021.129-.022.235-.043.341-.064Z" transform="translate(-15.276 -11.468)" fill="#2b2a29" fill-rule="evenodd"/>
      <path id="Path_1554" data-name="Path 1554" d="M73.483,48.605a2.381,2.381,0,0,0-.128-.81,1.834,1.834,0,0,0-.32-.575,1.7,1.7,0,0,0-.511-.363,1.445,1.445,0,0,0-.618-.107,1.35,1.35,0,0,0-.6.107,1.7,1.7,0,0,0-.511.363,1.833,1.833,0,0,0-.32.575,2.63,2.63,0,0,0,0,1.62,1.944,1.944,0,0,0,.341.575,1.344,1.344,0,0,0,.49.341,1.461,1.461,0,0,0,.618.128,1.366,1.366,0,0,0,.6-.128,1.639,1.639,0,0,0,.511-.341,2.473,2.473,0,0,0,.32-.575,2.381,2.381,0,0,0,.128-.81m.533,0a2.635,2.635,0,0,1-.149.938,2.3,2.3,0,0,1-.405.746,2.245,2.245,0,0,1-1.535.661,1.978,1.978,0,0,1-.9-.192,1.628,1.628,0,0,1-.661-.469,2.345,2.345,0,0,1-.426-.746,3.225,3.225,0,0,1-.128-.938,2.843,2.843,0,0,1,.149-.96,2.005,2.005,0,0,1,.405-.724,1.831,1.831,0,0,1,.661-.49,2,2,0,0,1,.874-.171,1.977,1.977,0,0,1,.9.171,1.674,1.674,0,0,1,.661.49,2.413,2.413,0,0,1,.426.724,3.49,3.49,0,0,1,.128.96" transform="translate(-17.307 -11.468)" fill="#2b2a29" fill-rule="evenodd"/>
      <path id="Path_1555" data-name="Path 1555" d="M82.213,48.605a2.4,2.4,0,0,0-.107-.81,1.525,1.525,0,0,0-.341-.575,1.394,1.394,0,0,0-.49-.363,1.843,1.843,0,0,0-1.236,0,1.919,1.919,0,0,0-.49.363,1.834,1.834,0,0,0-.32.575,2.63,2.63,0,0,0,0,1.62,2.472,2.472,0,0,0,.32.575,1.639,1.639,0,0,0,.511.341,1.461,1.461,0,0,0,.618.128,1.434,1.434,0,0,0,.6-.128,1.344,1.344,0,0,0,.49-.341,1.944,1.944,0,0,0,.341-.575,2.4,2.4,0,0,0,.107-.81m.554,0a2.635,2.635,0,0,1-.149.938,2.345,2.345,0,0,1-.426.746,1.633,1.633,0,0,1-.661.469,1.86,1.86,0,0,1-.853.192,1.978,1.978,0,0,1-.9-.192,1.628,1.628,0,0,1-.661-.469,2.344,2.344,0,0,1-.426-.746,3.208,3.208,0,0,1-.149-.938,3.487,3.487,0,0,1,.149-.96,2.413,2.413,0,0,1,.426-.724,1.831,1.831,0,0,1,.661-.49,2,2,0,0,1,.874-.171,2.035,2.035,0,0,1,.9.171,1.837,1.837,0,0,1,.661.49,2.005,2.005,0,0,1,.405.724,2.843,2.843,0,0,1,.149.96" transform="translate(-19.471 -11.468)" fill="#2b2a29" fill-rule="evenodd"/>
      <path id="Path_1556" data-name="Path 1556" d="M90.644,48.605a1.8,1.8,0,0,0-.277-1.066,1.482,1.482,0,0,0-.832-.576,2.813,2.813,0,0,0-.448-.085,4.888,4.888,0,0,0-.576-.021h-.426V50.4h.426a4.453,4.453,0,0,0,.576-.043,1.51,1.51,0,0,0,.448-.085,1.418,1.418,0,0,0,.832-.6,1.845,1.845,0,0,0,.277-1.066m.554,0a2.864,2.864,0,0,1-.085.746,3.324,3.324,0,0,1-.3.618,2.243,2.243,0,0,1-.512.49,2.2,2.2,0,0,1-.682.3,3.332,3.332,0,0,1-.49.107c-.17,0-.362.021-.575.021H87.532V46.345h1.044a4.534,4.534,0,0,1,.554.043,2.923,2.923,0,0,1,.49.085,1.774,1.774,0,0,1,.7.32,1.714,1.714,0,0,1,.49.469,2.624,2.624,0,0,1,.3.6,2.763,2.763,0,0,1,.085.746" transform="translate(-21.698 -11.489)" fill="#2b2a29" fill-rule="evenodd"/>
      <path id="Path_1557" data-name="Path 1557" d="M100.161,46.345V50.4h2.217v.49H99.607V46.345Z" transform="translate(-24.691 -11.489)" fill="#2b2a29" fill-rule="evenodd"/>
      <rect id="Rectangle_708" data-name="Rectangle 708" width="0.554" height="4.541" transform="translate(80.053 34.857)" fill="#2b2a29"/>
      <path id="Path_1558" data-name="Path 1558" d="M111.273,50.886h-.554V46.345h2.708v.512h-2.153v1.449h1.9v.511h-1.9Z" transform="translate(-27.446 -11.489)" fill="#2b2a29" fill-rule="evenodd"/>
      <path id="Path_1559" data-name="Path 1559" d="M117.934,50.375h2.324v.511h-2.878v-4.54h2.75v.511h-2.2v1.449H119.9v.512h-1.962Z" transform="translate(-29.097 -11.489)" fill="#2b2a29" fill-rule="evenodd"/>
      <path id="Path_1560" data-name="Path 1560" d="M67.976,6.544A144.719,144.719,0,0,1,41.221,4.22c3.6-.15,7.568-.256,11.853-.256,9.487,0,20.615.469,33.449,1.684-5.777.533-12.066.9-18.547.9m23.9-1.45c-2.58-.469-5.5-.938-8.677-1.385C93.58,3.2,105.413,2.174,118.694.34a211.383,211.383,0,0,1-26.82,4.754M34.334,2.685C31.712,2,29.154,1.235,26.617.34A91.529,91.529,0,0,0,37.532,2.323c-1.066.107-2.132.235-3.2.363" transform="translate(-6.598 -0.084)" fill="#55bfc8"/>
      <path id="Path_1561" data-name="Path 1561" d="M89.067,6.3C76.233,5.086,65.1,4.618,55.618,4.618c-4.286,0-8.251.106-11.854.256-2.323-.426-4.626-.938-6.886-1.535,1.066-.128,2.131-.256,3.2-.363A224.655,224.655,0,0,0,69.944,4.767q7.259,0,15.8-.4c3.177.448,6.1.916,8.677,1.385-1.727.192-3.518.384-5.351.554" transform="translate(-9.142 -0.738)" fill="#20b1a3"/>
      <path id="Union_2" data-name="Union 2" d="M-11792,3072.638a2.6,2.6,0,0,1,2.516-2.675,2.593,2.593,0,0,1,2.484,2.675,2.585,2.585,0,0,1-2.484,2.646A2.589,2.589,0,0,1-11792,3072.638Zm.089,0a2.491,2.491,0,0,0,2.427,2.551,2.467,2.467,0,0,0,2.4-2.551,2.493,2.493,0,0,0-2.4-2.581A2.518,2.518,0,0,0-11791.912,3072.638Zm3.519,1.672-.414-.7c-.117-.219-.237-.376-.295-.47-.089-.095-.147-.189-.236-.219l-.178-.1h-.711v1.483h-.415v-3.341h1.393a3.191,3.191,0,0,1,.65.065.718.718,0,0,1,.325.346.9.9,0,0,1,.147.5.944.944,0,0,1-.236.6.933.933,0,0,1-.65.284.831.831,0,0,1,.236.189,2.709,2.709,0,0,1,.355.441l.531.915Zm-1.834-1.891h.889a.851.851,0,0,0,.444-.062.308.308,0,0,0,.234-.189.52.52,0,0,0,.089-.284.618.618,0,0,0-.147-.408.808.808,0,0,0-.5-.157h-1.006Z" transform="translate(11907.983 -3069.962)" fill="#2b2a29" stroke="rgba(0,0,0,0)" stroke-miterlimit="10" stroke-width="1"/>
    </g>
  </g>
</svg>
