<svg xmlns="http://www.w3.org/2000/svg" width="45.23" height="33.871" viewBox="0 0 45.23 33.871">
  <g id="Layer_2" transform="translate(-1.13 -4.23)">
    <path id="Path_1440" data-name="Path 1440" d="M45.32,36.02H42.3c0-.083.042-.146.042-.229V10.513a2.322,2.322,0,0,0-2.309-2.33H37.809V6.56A2.322,2.322,0,0,0,35.5,4.23H11.969A2.322,2.322,0,0,0,9.66,6.56V8.183H7.455a2.322,2.322,0,0,0-2.309,2.33V35.791c0,.083.042.146.042.229H2.17a1.04,1.04,0,1,0,0,2.081H45.32a1.03,1.03,0,0,0,1.04-1.04A1.043,1.043,0,0,0,45.32,36.02ZM11.761,6.56a.25.25,0,0,1,.229-.25H35.521a.236.236,0,0,1,.229.25V8.183H11.761Zm7.115,29.46v-3.5h9.737v3.5Zm11.817,0V31.485a1.03,1.03,0,0,0-1.04-1.04H17.836a1.03,1.03,0,0,0-1.04,1.04V36.02H7.455a.231.231,0,0,1-.229-.229V10.513a.25.25,0,0,1,.229-.25H40.035a.235.235,0,0,1,.229.25V35.791a.23.23,0,0,1-.229.229Zm-14.626-21.8a1.03,1.03,0,0,1-1.04,1.04H12.843v2.185a1.04,1.04,0,1,1-2.081,0V14.216a1.03,1.03,0,0,1,1.04-1.04h3.225A1.043,1.043,0,0,1,16.068,14.216Zm10.319,0a1.03,1.03,0,0,1-1.04,1.04H23.163v2.185a1.04,1.04,0,1,1-2.081,0V14.216a1.03,1.03,0,0,1,1.04-1.04h3.225A1.043,1.043,0,0,1,26.387,14.216Zm10.34,0a1.03,1.03,0,0,1-1.04,1.04H33.5v2.185a1.04,1.04,0,1,1-2.081,0V14.216a1.03,1.03,0,0,1,1.04-1.04h3.225A1.057,1.057,0,0,1,36.727,14.216ZM16.068,21.748a1.03,1.03,0,0,1-1.04,1.04H12.843v2.185a1.04,1.04,0,0,1-2.081,0V21.748a1.03,1.03,0,0,1,1.04-1.04h3.225A1.043,1.043,0,0,1,16.068,21.748Zm10.319,0a1.03,1.03,0,0,1-1.04,1.04H23.163v2.185a1.04,1.04,0,0,1-2.081,0V21.748a1.03,1.03,0,0,1,1.04-1.04h3.225A1.043,1.043,0,0,1,26.387,21.748Zm10.34,0a1.03,1.03,0,0,1-1.04,1.04H33.5v2.185a1.04,1.04,0,0,1-2.081,0V21.748a1.03,1.03,0,0,1,1.04-1.04h3.225A1.057,1.057,0,0,1,36.727,21.748Z" transform="translate(0 0)" fill="#333"/>
  </g>
</svg>
