<svg xmlns="http://www.w3.org/2000/svg" width="50.785" height="57.884" viewBox="0 0 50.785 57.884">
  <g id="Group_1325" data-name="Group 1325" transform="translate(-4.7 1.327)">
    <g id="Group_1326" data-name="Group 1326" transform="translate(5 -1)">
      <path id="Path_1493" data-name="Path 1493" d="M42.07,45.829a14.414,14.414,0,0,1-2.217-.176l-.245-.055a.842.842,0,0,1-.163-.056c-.211-.1-5.184-2.431-6.24-7.048-.647-2.829.32-5.831,2.874-8.924a.819.819,0,0,1,.065-.069C49.071,16.927,49.206,12.67,49.2,12.633A.865.865,0,0,1,50.745,12a27.109,27.109,0,0,1,4.708,10.973c1.026,6.059-.376,14.666-5.04,19.394a11.4,11.4,0,0,1-8.343,3.461M40.1,43.935l.087.02a9.889,9.889,0,0,0,9-2.8c4.21-4.268,5.5-12.4,4.565-17.89A25.334,25.334,0,0,0,50.4,14.6c-1.044,2.516-4.116,7.445-13.017,16.108-2.172,2.644-3.01,5.134-2.493,7.4.807,3.529,4.637,5.545,5.206,5.827" transform="translate(-14.831 -1.571)" fill="#333" stroke="#2d2d2d" stroke-width="0.6"/>
      <path id="Path_1494" data-name="Path 1494" d="M44.542,51.217c-.62,0-1-.036-1.069-.043A5.878,5.878,0,0,1,38.5,47.846c-1.347-2.982-.28-7.4,2.928-12.119A35,35,0,0,0,47.3,22.576a.866.866,0,1,1,1.7.318A36.694,36.694,0,0,1,42.859,36.7c-2.82,4.149-3.861,8.05-2.784,10.434a4.176,4.176,0,0,0,3.6,2.321,16.955,16.955,0,0,0,11.956-4.179c4.49-4.077,6.748-10.793,6.713-19.961-.034-8.715-2.387-15.147-7-19.115C48.881.637,40.059,1.859,39.972,1.87c-.556.046-12.19,1.152-12.241,16.452a.865.865,0,0,1-.865.863h0A.866.866,0,0,1,26,18.317C26.056,1.381,39.643.162,39.78.151,40.107.1,49.384-1.2,56.456,4.874c5.017,4.309,7.579,11.185,7.614,20.433.037,9.694-2.419,16.85-7.3,21.269a18.454,18.454,0,0,1-12.226,4.641" transform="translate(-13.886 0)" fill="#333" stroke="#2d2d2d" stroke-width="0.6"/>
      <path id="Path_1495" data-name="Path 1495" d="M37.093,60.648H12.865A.865.865,0,0,1,12,59.783V26.037a.865.865,0,0,1,.865-.865H36.228V26.9h-22.5V58.918h22.5V49.885l1.731,1.244v8.654a.865.865,0,0,1-.865.865" transform="translate(-12 -3.391)" fill="#333" stroke="#2d2d2d" stroke-width="0.6"/>
      <path id="Path_1496" data-name="Path 1496" d="M34.171,26.229H16.865A.865.865,0,0,1,16,25.364V21.037a.865.865,0,0,1,.865-.865H34.171a.865.865,0,0,1,.865.865v4.326a.865.865,0,0,1-.865.865M17.731,24.5H33.306V21.9H17.731Z" transform="translate(-12.539 -2.718)" fill="#333" stroke="#2d2d2d" stroke-width="0.6"/>
      <rect id="Rectangle_658" data-name="Rectangle 658" width="6" height="1" transform="translate(3.998 27.76)" fill="#333" stroke="#2d2d2d" stroke-width="0.6"/>
      <path id="Path_1497" data-name="Path 1497" d="M33.054,32.172H30v-1h3.423Z" transform="translate(-14.425 -3.412)" fill="#333" stroke="#2d2d2d" stroke-width="0.6"/>
      <rect id="Rectangle_659" data-name="Rectangle 659" width="6" height="1" transform="translate(3.998 34.76)" fill="#333" stroke="#2d2d2d" stroke-width="0.6"/>
      <rect id="Rectangle_660" data-name="Rectangle 660" width="3" height="1" transform="translate(15.998 34.76)" fill="#333" stroke="#2d2d2d" stroke-width="0.6"/>
      <rect id="Rectangle_661" data-name="Rectangle 661" width="6" height="1" transform="translate(3.998 41.76)" fill="#333" stroke="#2d2d2d" stroke-width="0.6"/>
      <rect id="Rectangle_662" data-name="Rectangle 662" width="6" height="1" transform="translate(15.998 41.76)" fill="#333" stroke="#2d2d2d" stroke-width="0.6"/>
      <rect id="Rectangle_663" data-name="Rectangle 663" width="6" height="1" transform="translate(3.998 48.76)" fill="#333" stroke="#2d2d2d" stroke-width="0.6"/>
      <rect id="Rectangle_664" data-name="Rectangle 664" width="6" height="1" transform="translate(15.998 48.76)" fill="#333" stroke="#2d2d2d" stroke-width="0.6"/>
    </g>
  </g>
</svg>
