<svg xmlns="http://www.w3.org/2000/svg" width="44.264" height="40" viewBox="0 0 44.264 40">
  <g id="Layer_2" transform="translate(-2.6 -3.51)">
    <path id="Path_1331" data-name="Path 1331" d="M4.626,36a1.92,1.92,0,0,1,2.686,0,4.251,4.251,0,0,0,6.031,0l.353-.353a1.966,1.966,0,0,1,2.686,0l.306.306a4.251,4.251,0,0,0,6.031,0l.424-.424a1.9,1.9,0,0,1,2.686,0l.612.612a4.265,4.265,0,0,0,6.031,0l.424-.424a1.966,1.966,0,0,1,2.686,0l.424.424a4.291,4.291,0,0,0,6.148-.118,1.92,1.92,0,0,1,2.686,0,1.183,1.183,0,1,0,1.673-1.673,4.332,4.332,0,0,0-6.148.118,1.942,1.942,0,0,1-2.686,0l-.424-.424a4.132,4.132,0,0,0-2.285-1.131c0-.024.024-.047.024-.071V8.528a5.018,5.018,0,1,0-10.035,0v.848a1.178,1.178,0,0,0,2.356,0V8.528a2.662,2.662,0,1,1,5.324,0V15.1H16.852V8.528a5.018,5.018,0,1,0-10.035,0v.848a1.178,1.178,0,0,0,2.356,0V8.528a2.662,2.662,0,1,1,5.324,0v24.24a4.1,4.1,0,0,0-2.45,1.2l-.353.353a1.9,1.9,0,0,1-2.686,0,4.251,4.251,0,0,0-6.031,0,1.166,1.166,0,0,0,0,1.673A1.139,1.139,0,0,0,4.626,36Zm26.62-1.979-.424.424a1.966,1.966,0,0,1-2.686,0l-.612-.612a4.273,4.273,0,0,0-6.031,0l-.424.424a1.966,1.966,0,0,1-2.686,0l-.306-.306a4.536,4.536,0,0,0-1.272-.872,1.182,1.182,0,0,0,.047-.283V26.148H32.635v6.643a1.182,1.182,0,0,0,.047.283A4.9,4.9,0,0,0,31.245,34.016Zm1.39-16.537v6.36H16.852v-6.36ZM46.51,40.471a1.183,1.183,0,0,1-1.673,1.673,1.92,1.92,0,0,0-2.686,0A4.291,4.291,0,0,1,36,42.261l-.424-.424a1.92,1.92,0,0,0-2.686,0l-.424.424a4.265,4.265,0,0,1-6.031,0l-.612-.612a1.92,1.92,0,0,0-2.686,0l-.424.424a4.251,4.251,0,0,1-6.031,0l-.306-.306a1.92,1.92,0,0,0-2.686,0l-.353.353a4.385,4.385,0,0,1-6.031,0,1.966,1.966,0,0,0-2.686,0,1.183,1.183,0,0,1-1.673-1.673,4.385,4.385,0,0,1,6.031,0,1.9,1.9,0,0,0,2.686,0l.353-.353a4.251,4.251,0,0,1,6.031,0l.306.306a1.966,1.966,0,0,0,2.686,0l.424-.424a4.385,4.385,0,0,1,6.031,0l.612.612a1.966,1.966,0,0,0,2.686,0l.424-.424a4.385,4.385,0,0,1,6.031,0l.424.424a1.942,1.942,0,0,0,2.686,0A4.291,4.291,0,0,1,46.51,40.471Z" transform="translate(0 0)" fill="#333"/>
  </g>
</svg>
