<svg xmlns="http://www.w3.org/2000/svg" width="54.436" height="54.716" viewBox="0 0 54.436 54.716">
  <g id="Group_1291" data-name="Group 1291" transform="translate(0.017 -8.518)">
    <path id="Path_1472" data-name="Path 1472" d="M54.469,62.084v-30.6h5.667V29.216L34.068,9.948,8,29.216v2.267h5.667v30.6Z" transform="translate(-6.867)" fill="none" stroke="#323232" stroke-width="2.3"/>
    <path id="Path_1473" data-name="Path 1473" d="M135.429,249.963a11.342,11.342,0,0,0,18.171-2.976,9.076,9.076,0,0,1,8.13-5.039h8.915" transform="translate(-116.242 -199.131)" fill="none" stroke="#323232" stroke-width="2.3"/>
    <path id="Path_1474" data-name="Path 1474" d="M213.667,145.948v5.667L208,152.748" transform="translate(-178.532 -116.732)" fill="none" stroke="#323232" stroke-width="2.3"/>
    <path id="Path_1475" data-name="Path 1475" d="M136,296.748v-5.667l5.667-1.133" transform="translate(-116.732 -240.331)" fill="none" stroke="#323232" stroke-width="2.3"/>
    <path id="Path_1476" data-name="Path 1476" d="M0,173.3H8.917a9.083,9.083,0,0,0,8.129-5.038,11.342,11.342,0,0,1,18.17-2.975" transform="translate(0 -130.48)" fill="none" stroke="#323232" stroke-width="2.3"/>
  </g>
</svg>
