<svg xmlns="http://www.w3.org/2000/svg" width="51.625" height="27.045" viewBox="0 0 51.625 27.045">
  <g id="Group_1273" data-name="Group 1273" transform="translate(0.8 0.8)">
    <path id="Path_1468" data-name="Path 1468" d="M37.109,17.56c-.533.053-1.019.1-1.44.147-10.267,1.088,1.9,3.358,4.038,5.088,1.924,1.555.695,3.3-13.147,3.225C2.83,25.885-6.557,19.527,6.416,17.791c3.525-.472,6.115-.9,7.932-1.289,1.864-.434,2.66-1.588.459-2.4-3.674-.906,8.139-2.9,21.323-2.03m8.889,1.054c9.348,1.652,5.1,2.827-.632,3.616M9.061,12.556a2.492,2.492,0,0,1-1.826-2.393v-5.3c0-3.407,6.485-3.407,6.485,0v5.3a2.49,2.49,0,0,1-2.482,2.482h-.757m0-1.4v3.517m-8.605.031A1.874,1.874,0,0,1,.5,12.993V10.2c0-2.562,4.879-2.561,4.879,0v2.793a1.875,1.875,0,0,1-1.868,1.868h-.57m0-1.054v2.646m36.4,1.16A3.037,3.037,0,0,1,37.118,14.7V8.239a3.033,3.033,0,0,1,3.024-3.024h1.853a3.033,3.033,0,0,1,3.024,3.024V14.7a3.032,3.032,0,0,1-3.024,3.023h-.922m0-1.7V20.3" transform="translate(-0.5 -0.578)" fill="none" stroke="#333" stroke-width="1.6"/>
    <line id="Line_166" data-name="Line 166" x2="3.125" transform="translate(17.334 2.886)" fill="none" stroke="#333" stroke-width="1.6"/>
    <line id="Line_167" data-name="Line 167" x2="9.434" transform="translate(25.475 3.136)" fill="none" stroke="#333" stroke-width="1.6"/>
    <path id="Path_1469" data-name="Path 1469" d="M30.371,5.125a3.137,3.137,0,1,1,.417-1.565" transform="translate(-2.451 -0.425)" fill="none" stroke="#333" stroke-width="1.6"/>
  </g>
</svg>
