<svg xmlns="http://www.w3.org/2000/svg" width="45.226" height="25.647" viewBox="0 0 45.226 25.647">
  <g id="Layer_2" transform="translate(-1.21 -5.88)">
    <path id="Path_1442" data-name="Path 1442" d="M43.515,20.61l-14.5-8.465a12.852,12.852,0,0,0-8.172-1.613,5.51,5.51,0,1,0-9.659,4.379L1.692,20.987a1.057,1.057,0,0,0-.482.88v2.6a1.048,1.048,0,1,0,2.1,0V22.433l10.079-6.454,3.478-2.032a11.229,11.229,0,0,1,3.227-1.236,10.826,10.826,0,0,1,7.878,1.236l14.5,8.465a3.766,3.766,0,0,1-1.907,7.019H7.1V25.325a1.048,1.048,0,0,0-2.1,0v5.155A1.037,1.037,0,0,0,6.05,31.527H40.56A5.858,5.858,0,0,0,43.515,20.61ZM12.965,13.8a3.423,3.423,0,0,1,2.452-5.825,3.409,3.409,0,0,1,3.373,2.913c-.272.084-.524.189-.775.272-.189.063-.356.126-.545.189a10.962,10.962,0,0,0-1.655.8Zm3.876,4.3a1.046,1.046,0,1,1,.859-1.907l16.763,7.627a1.04,1.04,0,0,1-.44,1.991,1.094,1.094,0,0,1-.44-.084Z" transform="translate(0 0)" fill="#333"/>
  </g>
</svg>
