<svg id="Gymnasium" xmlns="http://www.w3.org/2000/svg" width="42.112" height="35.176" viewBox="0 0 42.112 35.176">
  <path id="Path_1334" data-name="Path 1334" d="M43.509,16.892,36.644,5.125a3.109,3.109,0,0,0-4.26-1.117,2.935,2.935,0,0,0-.848.744,2.991,2.991,0,0,0-1.675-1.2,3.129,3.129,0,0,0-2.357.31,3.055,3.055,0,0,0-1.448,1.9,3.094,3.094,0,0,0,.331,2.378l3.04,5.232-16.44,9.575-3.04-5.232a3.055,3.055,0,0,0-1.9-1.448,3.095,3.095,0,0,0-3.64,4.26,3.1,3.1,0,0,0-1.034.372,3.1,3.1,0,0,0-1.117,4.26L9.119,36.93a3.133,3.133,0,0,0,4.26,1.137h0a2.972,2.972,0,0,0,.848-.744,3.091,3.091,0,0,0,1.675,1.2,3.592,3.592,0,0,0,.806.1A3.127,3.127,0,0,0,19.4,33.931l-3.557-6.08,16.44-9.575,3.536,6.08A3.115,3.115,0,0,0,40.1,25.474a3.055,3.055,0,0,0,1.448-1.9,3.088,3.088,0,0,0-.186-2.068,3.519,3.519,0,0,0,1.055-.352h0A3.139,3.139,0,0,0,43.509,16.892ZM12.8,35.627a1.1,1.1,0,0,1-.5.641,1.074,1.074,0,0,1-1.448-.372L3.991,24.129a.96.96,0,0,1-.1-.786,1.1,1.1,0,0,1,.5-.641,1.22,1.22,0,0,1,.517-.145.611.611,0,0,1,.269.041,1.1,1.1,0,0,1,.641.5l6.866,11.767A.9.9,0,0,1,12.8,35.627Zm4.4.765a.96.96,0,0,1-.786.1,1.1,1.1,0,0,1-.641-.5L6.328,19.807A1.074,1.074,0,0,1,6.7,18.36a.982.982,0,0,1,.517-.145,1.057,1.057,0,0,1,.91.517l9.43,16.213A1.023,1.023,0,0,1,17.205,36.392Zm-2.4-10.34-.786-1.344,16.44-9.575.786,1.344Zm24.712-3a1.1,1.1,0,0,1-.5.641h0a1.074,1.074,0,0,1-1.448-.372l-4.053-6.969h0L31.7,13.231h0L28.144,7.11a1,1,0,0,1-.1-.806,1.1,1.1,0,0,1,.5-.641.982.982,0,0,1,.517-.145,1.083,1.083,0,0,1,.91.517l4.715,8.106,3.433,5.894h0l1.3,2.213A1.008,1.008,0,0,1,39.518,23.054Zm2.316-4.322a1.1,1.1,0,0,1-.5.641A1.074,1.074,0,0,1,39.89,19l-3.433-5.894L33.025,7.214a.96.96,0,0,1-.1-.786,1.1,1.1,0,0,1,.5-.641.982.982,0,0,1,.517-.145,1.083,1.083,0,0,1,.91.517L41.71,17.926A1.108,1.108,0,0,1,41.834,18.732Z" transform="translate(-1.82 -3.45)" fill="#333"/>
</svg>
