<svg xmlns="http://www.w3.org/2000/svg" width="40.025" height="40.304" viewBox="0 0 40.025 40.304">
  <path id="Multipurpoase_Lawn_with_pathway_Sit-Out" data-name="Multipurpoase Lawn with pathway &amp; Sit-Out" d="M40.658,6.7h-.937l-1.694-3.03a.991.991,0,0,0-.877-.518h-.977v-.14a1,1,0,0,0-1.993,0v.14H33.2a1.014,1.014,0,0,0-.877.518L30.652,6.7H29.635a1,1,0,1,0,0,1.993h.857l1.774,5.442a.987.987,0,0,0,.957.678H34.2v11.6a2.64,2.64,0,0,0-1.634,2.432v7.594a2.6,2.6,0,0,0-2.013,2.492v1.854a.987.987,0,0,0,1,1h7.674a.987.987,0,0,0,1-1V38.935a2.582,2.582,0,0,0-2.013-2.492V28.849a2.582,2.582,0,0,0-2.013-2.492V14.817h.977a1.013,1.013,0,0,0,.957-.678L39.9,8.7h.777a.987.987,0,0,0,1-1A1,1,0,0,0,40.658,6.7ZM38.206,39.812H32.526v-.857a.642.642,0,0,1,.638-.638h4.445a.642.642,0,0,1,.638.638v.857Zm-2.013-3.488H34.539V28.849a.642.642,0,0,1,.638-.638h.379a.642.642,0,0,1,.638.638ZM33.8,5.149h2.771L37.429,6.7h-4.5Zm2.631,7.674h-.259v-.638a1,1,0,0,0-1.993,0v.638h-.259L32.565,8.7h5.2ZM11.078,16.77a6.058,6.058,0,0,0,1.455.179,5.684,5.684,0,0,0,1.993-.359A5.9,5.9,0,0,0,17.616,14a1.118,1.118,0,0,0-.02-1.455,1.25,1.25,0,0,0-1.276-.4,3.559,3.559,0,0,1-1.774.02,3.3,3.3,0,0,1-2.073-1.575A3.479,3.479,0,0,1,12.095,8c.08-.279.2-.558.259-.718a1.173,1.173,0,0,0-.02-1.316A1.218,1.218,0,0,0,11,5.468,5.968,5.968,0,0,0,8.427,6.983,6.2,6.2,0,0,0,6.892,9.634a5.971,5.971,0,0,0,.618,4.445A5.845,5.845,0,0,0,11.078,16.77ZM8.826,10.153A3.915,3.915,0,0,1,9.862,8.379a1.29,1.29,0,0,1,.179-.159,5.214,5.214,0,0,0,.718,3.389A5.35,5.35,0,0,0,14.068,14.1c.259.06.518.1.757.14a3.625,3.625,0,0,1-.957.5,3.7,3.7,0,0,1-2.272.12,3.9,3.9,0,0,1-2.771-4.7ZM25.709,33.414H4.181A2.535,2.535,0,0,0,1.65,35.945v1.076a2.505,2.505,0,0,0,2.133,2.452v1.854a1,1,0,1,0,1.993,0V39.553H24.313v1.774a1,1,0,1,0,1.993,0V39.453a2.511,2.511,0,0,0,1.953-2.412V35.965A2.569,2.569,0,0,0,25.709,33.414ZM3.643,35.965a.536.536,0,0,1,.538-.538H25.709a.536.536,0,0,1,.538.538v1.076a.536.536,0,0,1-.538.538H4.181a.536.536,0,0,1-.538-.538Zm1.136-3.03a.987.987,0,0,0,1-1v-.578a3.019,3.019,0,0,0,.957.179H23.357a2.552,2.552,0,0,0,.957-.179v.578a1,1,0,1,0,1.993,0V23.866a1,1,0,1,0-1.993,0v.578a3.019,3.019,0,0,0-.957-.179H6.733a2.552,2.552,0,0,0-.957.179v-.578a1,1,0,1,0-1.993,0v8.073A.987.987,0,0,0,4.779,32.935Zm1.953-6.677H23.357a.957.957,0,0,1,.957.957V28.59a.957.957,0,0,1-.957.957H6.733a.957.957,0,0,1-.957-.957V27.215A.945.945,0,0,1,6.733,26.258Z" transform="translate(-1.65 -2.02)" fill="#333"/>
</svg>
