<svg xmlns="http://www.w3.org/2000/svg" width="44.776" height="44.776" viewBox="0 0 44.776 44.776">
  <g id="Provision_for_Piped_Gas_Connection" data-name="Provision for Piped Gas Connection" transform="translate(-1204 -2616)">
    <path id="Path_1447" data-name="Path 1447" d="M9.659,0A9.659,9.659,0,1,1,0,9.659,9.659,9.659,0,0,1,9.659,0Z" transform="translate(1216.729 2620.45)" fill="none" stroke="#333" stroke-linecap="square" stroke-width="2"/>
    <path id="Path_1448" data-name="Path 1448" d="M13.109,0A13.109,13.109,0,1,1,0,13.109,13.109,13.109,0,0,1,13.109,0Z" transform="translate(1213.279 2617)" fill="none" stroke="#333" stroke-linecap="square" stroke-width="2"/>
    <path id="Path_1449" data-name="Path 1449" d="M2.07,0A2.07,2.07,0,1,1,0,2.07,2.07,2.07,0,0,1,2.07,0Z" transform="translate(1224.318 2628.039)" fill="none" stroke="#333" stroke-linecap="round" stroke-width="2"/>
    <path id="Path_1450" data-name="Path 1450" d="M0,0V4.14" transform="translate(1226.388 2623.899)" fill="none" stroke="#333" stroke-linecap="round" stroke-width="2"/>
    <path id="Path_1451" data-name="Path 1451" d="M0,0V.69" transform="translate(1226.388 2632.868)" fill="none" stroke="#333" stroke-linecap="round" stroke-width="2"/>
    <path id="Path_1452" data-name="Path 1452" d="M0,0V.69" transform="translate(1226.388 2638.388)" fill="none" stroke="#333" stroke-linecap="round" stroke-width="2"/>
    <path id="Path_1453" data-name="Path 1453" d="M0,0H.69" transform="translate(1217.419 2630.109)" fill="none" stroke="#333" stroke-linecap="round" stroke-width="2"/>
    <path id="Path_1454" data-name="Path 1454" d="M0,0H.69" transform="translate(1234.667 2630.109)" fill="none" stroke="#333" stroke-linecap="round" stroke-width="2"/>
    <path id="Path_1455" data-name="Path 1455" d="M0,0,.488.488" transform="translate(1220.046 2623.767)" fill="none" stroke="#333" stroke-linecap="round" stroke-width="2"/>
    <path id="Path_1456" data-name="Path 1456" d="M0,0,.488.488" transform="translate(1232.242 2635.963)" fill="none" stroke="#333" stroke-linecap="round" stroke-width="2"/>
    <path id="Path_1457" data-name="Path 1457" d="M0,.488.488,0" transform="translate(1220.046 2635.963)" fill="none" stroke="#333" stroke-linecap="round" stroke-width="2"/>
    <path id="Path_1458" data-name="Path 1458" d="M0,.488.488,0" transform="translate(1232.242 2623.767)" fill="none" stroke="#333" stroke-linecap="round" stroke-width="2"/>
    <path id="Path_1443" data-name="Path 1443" d="M1,37H3.76a1.379,1.379,0,0,1,1.38,1.38v4.83H16.178a1.379,1.379,0,0,0,1.38-1.38.69.69,0,0,1,.69-.69h1.38V39.07" transform="translate(1204 2604.837)" fill="none" stroke="#333" stroke-linecap="square" stroke-linejoin="round" stroke-width="2"/>
    <path id="Path_1444" data-name="Path 1444" d="M32.737,54H5.14v4.83a1.379,1.379,0,0,1-1.38,1.38H1" transform="translate(1204 2599.566)" fill="none" stroke="#333" stroke-linecap="square" stroke-linejoin="round" stroke-width="2"/>
    <path id="Path_1459" data-name="Path 1459" d="M0,2.07V0" transform="translate(1209.14 2652.186)" fill="none" stroke="#333" stroke-linecap="square" stroke-width="2"/>
    <path id="Path_1460" data-name="Path 1460" d="M0,0V2.07" transform="translate(1210.519 2656.326)" fill="none" stroke="#333" stroke-width="2"/>
    <path id="Path_1461" data-name="Path 1461" d="M0,0V2.07" transform="translate(1210.519 2643.218)" fill="none" stroke="#333" stroke-width="2"/>
    <path id="Path_1445" data-name="Path 1445" d="M54.628,37h-2.76a1.379,1.379,0,0,0-1.38,1.38v4.83H39.45a1.379,1.379,0,0,1-1.38-1.38.69.69,0,0,0-.69-.69H36V39.07" transform="translate(1193.147 2604.837)" fill="none" stroke="#333" stroke-linecap="square" stroke-linejoin="round" stroke-width="2"/>
    <path id="Path_1446" data-name="Path 1446" d="M47,54h6.9v4.83a1.379,1.379,0,0,0,1.38,1.38h2.76" transform="translate(1189.737 2599.566)" fill="none" stroke="#333" stroke-linecap="square" stroke-linejoin="round" stroke-width="2"/>
    <path id="Path_1462" data-name="Path 1462" d="M0,2.07V0" transform="translate(1243.636 2652.186)" fill="none" stroke="#333" stroke-linecap="square" stroke-width="2"/>
    <path id="Path_1463" data-name="Path 1463" d="M0,2.07V0" transform="translate(1242.256 2656.326)" fill="none" stroke="#333" stroke-width="2"/>
    <path id="Path_1464" data-name="Path 1464" d="M0,0V2.07" transform="translate(1242.256 2643.218)" fill="none" stroke="#333" stroke-width="2"/>
    <path id="Path_1465" data-name="Path 1465" d="M0,0H2.07" transform="translate(1227.768 2645.977)" fill="none" stroke="#333" stroke-linecap="square" stroke-width="2"/>
  </g>
</svg>
