<svg id="School_Drop-Off" data-name="School Drop-Off" xmlns="http://www.w3.org/2000/svg" xmlns:xlink="http://www.w3.org/1999/xlink" width="45.483" height="31.523" viewBox="0 0 45.483 31.523">
  <defs>
    <clipPath id="clip-path">
      <rect id="Rectangle_617" data-name="Rectangle 617" width="45.483" height="31.523" fill="#333" stroke="#333" stroke-width="0.3"/>
    </clipPath>
  </defs>
  <g id="Group_1268" data-name="Group 1268" clip-path="url(#clip-path)">
    <path id="Path_1466" data-name="Path 1466" d="M11.665,16.749H1.6a1.6,1.6,0,0,0-1.6,1.6V25.4A1.6,1.6,0,0,0,1.6,27H3.284v2.965H1.316a.727.727,0,0,0,0,1.452H11.946a.727.727,0,0,0,0-1.452H9.978V27h1.687a1.6,1.6,0,0,0,1.6-1.6V18.346a1.6,1.6,0,0,0-1.6-1.6M8.526,29.966H4.736V27H8.526ZM11.81,25.4a.145.145,0,0,1-.145.145H1.6a.145.145,0,0,1-.145-.145V18.346A.145.145,0,0,1,1.6,18.2H11.665a.145.145,0,0,1,.145.145ZM44.184,6.536H39.627v-.8a.711.711,0,0,0-.015-.128,5.805,5.805,0,0,0-5.8-5.6H21.657A5.809,5.809,0,0,0,15.848,5.81v.726H11.292a1.305,1.305,0,0,0-1.3,1.3V13.9a1.3,1.3,0,0,0,1.3,1.3h1.666a1.3,1.3,0,0,0,1.3-1.3V7.988h1.586V23.639a3.036,3.036,0,0,0,2.479,2.98V30.2a1.327,1.327,0,0,0,1.329,1.329h2a1.336,1.336,0,0,0,1.333-1.332V26.671h9.5V30.2a1.327,1.327,0,0,0,1.329,1.329h2a1.336,1.336,0,0,0,1.332-1.332V26.619a3.036,3.036,0,0,0,2.479-2.98V7.988h1.587V13.9a1.3,1.3,0,0,0,1.3,1.3h1.666a1.3,1.3,0,0,0,1.3-1.3V7.836a1.305,1.305,0,0,0-1.3-1.3M12.81,13.753H11.444V7.988H12.81ZM17.3,5.81a4.362,4.362,0,0,1,4.356-4.357H33.814A4.362,4.362,0,0,1,38.17,5.81v.726H17.3Zm4.237,24.262H19.78v-3.4h1.757Zm14.159,0H33.938v-3.4H35.7Zm2.48-6.433a1.583,1.583,0,0,1-1.583,1.579H18.883A1.583,1.583,0,0,1,17.3,23.639v-3.58H38.175Zm0-5.032H17.3V7.988H38.175Zm5.856-4.854H42.666V7.988h1.365ZM20.015,24.463h3.827a1.2,1.2,0,0,0,1.2-1.2V21.853a1.2,1.2,0,0,0-1.2-1.2H20.015a1.2,1.2,0,0,0-1.2,1.2V23.26a1.2,1.2,0,0,0,1.2,1.2m.25-2.36h3.328v.908H20.264Zm11.368,2.36h3.827a1.2,1.2,0,0,0,1.2-1.2V21.853a1.2,1.2,0,0,0-1.2-1.2H31.632a1.2,1.2,0,0,0-1.2,1.2V23.26a1.2,1.2,0,0,0,1.2,1.2m.25-2.36h3.328v.908H31.882ZM4.31,19.422H8.952a.727.727,0,0,1,0,1.452H4.31a.727.727,0,0,1,0-1.452m5.647,3.857H3.305a.726.726,0,0,1,0-1.452H9.957a.726.726,0,0,1,0,1.452" transform="translate(0 -0.001)" fill="#333" stroke="#333" stroke-width="0.3"/>
  </g>
</svg>
