<svg xmlns="http://www.w3.org/2000/svg" width="42.475" height="37.252" viewBox="0 0 42.475 37.252">
  <g id="Senior_Citizen_Sit-Outs" data-name="Senior Citizen Sit-Outs" transform="translate(-0.66 -0.48)">
    <path id="Path_1438" data-name="Path 1438" d="M43.135,16.092A8.92,8.92,0,0,1,34.224,25c-.243,0-.487-.019-.711-.037a.868.868,0,0,1-.262.037H28.983V36.8a.936.936,0,1,1-1.872,0V25H24.733a.936.936,0,0,1,0-1.872h2.377V21.3L24.34,18.507a.94.94,0,1,1,1.329-1.329l1.46,1.46V8.6A.936.936,0,1,1,29,8.6V14.3l1.329-1.329A.94.94,0,1,1,31.66,14.3L29,16.953v6.177H33.27a1.445,1.445,0,0,1,.281-.037c.225.019.468.037.693.037a7.033,7.033,0,0,0,1.2-13.965.955.955,0,0,1-.768-.786,7.015,7.015,0,0,0-13.89,0,.955.955,0,0,1-.768.786,7.014,7.014,0,0,0-5.841,6.926,5.416,5.416,0,0,0,1.76,3.931.938.938,0,1,1-1.1,1.516,7.247,7.247,0,0,1-2.508-5.447,8.863,8.863,0,0,1,6.758-8.63,8.894,8.894,0,0,1,17.372,0A8.878,8.878,0,0,1,43.135,16.092ZM22.6,32.565v.505A2.389,2.389,0,0,1,21.008,35.3v1.479a.936.936,0,0,1-1.872,0V35.448H4.273v1.329a.936.936,0,0,1-1.872,0v-1.46A2.353,2.353,0,0,1,.66,33.052v-.505a2.381,2.381,0,0,1,2.377-2.377H20.222A2.409,2.409,0,0,1,22.6,32.565Zm-20.086.505a.5.5,0,0,0,.505.505H20.2a.5.5,0,0,0,.505-.505v-.505a.5.5,0,0,0-.505-.505H3.037a.5.5,0,0,0-.505.505v.505ZM2.4,29.1V22.513a.936.936,0,0,1,1.872,0v.374a2.835,2.835,0,0,1,.9-.168H18.256a2.4,2.4,0,0,1,.9.168v-.374a.936.936,0,0,1,1.872,0V29.1a.936.936,0,0,1-1.872,0v-.374a2.835,2.835,0,0,1-.9.168H5.171a2.4,2.4,0,0,1-.9-.168V29.1a.927.927,0,0,1-.936.936A.939.939,0,0,1,2.4,29.1Zm1.872-3.613v.636a.9.9,0,0,0,.9.9H18.256a.9.9,0,0,0,.9-.9v-.636a.9.9,0,0,0-.9-.9H5.171A.887.887,0,0,0,4.273,25.489Z" transform="translate(0 0)" fill="#333"/>
  </g>
</svg>
