<svg xmlns="http://www.w3.org/2000/svg" viewBox="0 0 147.79 114.79"><defs><style>.cls-1{fill:#fff;}</style></defs><title>Asset 1</title><g id="Layer_2" data-name="Layer 2"><g id="Layer_1-2" data-name="Layer 1"><path class="cls-1" d="M5.84,114.79V106.2q17.7-6.53,27.84-20.53T43.82,56.54a8.79,8.79,0,0,0-1-4.81,1.55,1.55,0,0,0-1.37-1,5.79,5.79,0,0,0-2.75,1.38q-5.51,4-13.75,4-10,0-17.44-8A26.82,26.82,0,0,1,0,29,28,28,0,0,1,8.59,8.68,28.58,28.58,0,0,1,29.73,0Q44,0,54.56,11.77T65.13,43.48A66.11,66.11,0,0,1,50.87,85.06Q36.61,103.45,5.84,114.79Zm82.66,0V106.2q17.7-6.53,27.84-20.53t10.14-29.13a8.88,8.88,0,0,0-1-4.81,1.56,1.56,0,0,0-1.38-1,5.88,5.88,0,0,0-2.75,1.38q-5.49,4-13.74,4-10,0-17.45-8a26.85,26.85,0,0,1-7.47-19A28,28,0,0,1,91.25,8.68,28.57,28.57,0,0,1,112.39,0q14.27,0,24.83,11.77t10.57,31.71a66.11,66.11,0,0,1-14.26,41.58Q119.25,103.45,88.5,114.79Z"/></g></g></svg>