<?xml version="1.0" encoding="utf-8"?>
<!-- Generator: Adobe Illustrator 26.0.0, SVG Export Plug-In . SVG Version: 6.00 Build 0)  -->
<svg version="1.1" id="Layer_1" xmlns="http://www.w3.org/2000/svg" xmlns:xlink="http://www.w3.org/1999/xlink" x="0px" y="0px"
	 viewBox="0 0 217.82 46.14" style="enable-background:new 0 0 217.82 46.14;" xml:space="preserve">
<style type="text/css">
	.st0{opacity:0;fill:#FFFFFF;}
	.st1{fill:#FFFFFF;}
	.st2{fill:#C7B299;}
	.st3{fill:#FF0000;}
	.st4{fill:#00FF00;}
	.st5{fill:none;stroke:#000000;stroke-linecap:round;stroke-linejoin:round;stroke-miterlimit:10;}
	.st6{fill:none;stroke:#000000;stroke-linejoin:round;stroke-miterlimit:10;}
	.st7{fill:none;stroke:#000000;stroke-linecap:round;stroke-linejoin:round;}
	.st8{fill:none;stroke:#000000;stroke-linejoin:round;}
	.st9{fill:none;stroke:#231F20;stroke-linejoin:round;stroke-miterlimit:10;}
	.st10{fill:none;stroke:#231F20;stroke-linecap:round;stroke-linejoin:round;stroke-miterlimit:10;}
	.st11{fill:none;stroke:#000000;stroke-width:0.75;stroke-linecap:round;stroke-linejoin:round;stroke-miterlimit:10;}
	.st12{fill:none;stroke:#000000;stroke-linecap:round;stroke-miterlimit:10;}
	.st13{fill:none;stroke:#241F20;stroke-linecap:round;stroke-linejoin:round;stroke-miterlimit:10;}
	.st14{fill:none;stroke:#221F20;stroke-linecap:round;stroke-linejoin:round;stroke-miterlimit:10;}
	.st15{fill:#231F20;}
	.st16{fill:#00B921;}
	.st17{fill:#FFFFFF;stroke:#EFEFEF;stroke-width:0.25;stroke-miterlimit:10;}
	.st18{fill:#4BCA59;}
	.st19{fill-rule:evenodd;clip-rule:evenodd;fill:#FFFFFF;}
	.st20{fill:none;stroke:#020202;stroke-miterlimit:10;}
	.st21{fill:none;stroke:#000000;stroke-miterlimit:10;}
	.st22{fill:none;stroke:#000000;stroke-width:0.95;stroke-linecap:round;stroke-linejoin:round;stroke-miterlimit:10;}
	.st23{fill:none;stroke:#000000;stroke-linecap:round;stroke-linejoin:round;stroke-miterlimit:10;stroke-dasharray:2;}
	.st24{fill:none;stroke:#000000;stroke-width:0.93;stroke-linecap:round;stroke-linejoin:round;stroke-miterlimit:10;}
	.st25{fill:#020202;}
	.st26{fill:none;stroke:#020202;stroke-width:0.5;stroke-linecap:round;stroke-linejoin:round;stroke-miterlimit:10;}
	.st27{fill:none;stroke:#020202;stroke-linecap:round;stroke-linejoin:round;stroke-miterlimit:10;}
	.st28{fill:#FF6000;}
	.st29{fill:none;stroke:#000000;stroke-width:0.9;stroke-linecap:round;stroke-linejoin:round;stroke-miterlimit:10;}
	.st30{enable-background:new    ;}
	.st31{fill:#010101;}
	.st32{fill:none;stroke:#000000;stroke-width:1.3;stroke-linecap:round;stroke-linejoin:round;stroke-miterlimit:10;}
	.st33{fill:none;stroke:#000000;stroke-width:1.2;stroke-linecap:round;stroke-linejoin:round;stroke-miterlimit:10;}
	.st34{fill:none;stroke:#000000;stroke-width:1.3;stroke-miterlimit:10;}
	
		.st35{fill-rule:evenodd;clip-rule:evenodd;fill:none;stroke:#000000;stroke-width:1.3;stroke-linecap:round;stroke-linejoin:round;stroke-miterlimit:10;}
	.st36{fill:none;stroke:#000000;stroke-width:1.5;stroke-linecap:round;stroke-linejoin:round;stroke-miterlimit:10;}
	.st37{fill:none;stroke:#000000;stroke-width:1.3;stroke-linejoin:round;stroke-miterlimit:10;}
	.st38{fill:none;stroke:#000000;stroke-width:1.3;stroke-linecap:round;stroke-miterlimit:10;}
	.st39{fill:none;stroke:#000000;stroke-width:1.5;stroke-linejoin:round;stroke-miterlimit:10;}
	.st40{fill:none;stroke:#000000;stroke-width:1.7;stroke-linecap:round;stroke-linejoin:round;stroke-miterlimit:10;}
	
		.st41{fill-rule:evenodd;clip-rule:evenodd;fill:none;stroke:#000000;stroke-width:1.5;stroke-linecap:round;stroke-linejoin:round;stroke-miterlimit:10;}
	
		.st42{fill-rule:evenodd;clip-rule:evenodd;fill:none;stroke:#000000;stroke-linecap:round;stroke-linejoin:round;stroke-miterlimit:10;}
	.st43{fill:none;stroke:#000000;stroke-width:1.8;stroke-linecap:round;stroke-linejoin:round;stroke-miterlimit:10;}
	
		.st44{fill-rule:evenodd;clip-rule:evenodd;fill:none;stroke:#000000;stroke-width:1.8;stroke-linecap:round;stroke-linejoin:round;stroke-miterlimit:10;}
	
		.st45{fill-rule:evenodd;clip-rule:evenodd;fill:none;stroke:#000000;stroke-width:1.7;stroke-linecap:round;stroke-linejoin:round;stroke-miterlimit:10;}
	.st46{fill:#FF8BB3;}
</style>
<rect x="0" class="st0" width="217.82" height="46.14"/>
<g id="Group_Copy" transform="translate(253)">
	<g class="st30">
		<path class="st31" d="M-247.32,11.88c0.59,0,1.11-0.15,1.57-0.46c0.46-0.3,0.8-0.71,1.04-1.22c0.09-0.15,0.18-0.27,0.3-0.37
			c0.11-0.1,0.27-0.14,0.49-0.14c0.19,0,0.38,0.08,0.56,0.22c0.18,0.15,0.27,0.34,0.27,0.58c0,0.07,0,0.14-0.02,0.21
			c-0.01,0.06-0.04,0.14-0.08,0.22c-0.16,0.41-0.38,0.77-0.66,1.08s-0.61,0.59-0.97,0.81c-0.36,0.22-0.75,0.39-1.18,0.52
			c-0.42,0.12-0.86,0.18-1.3,0.18c-0.66,0-1.27-0.11-1.82-0.34c-0.55-0.23-1.03-0.55-1.44-0.95s-0.74-0.88-0.98-1.43
			c-0.25-0.55-0.39-1.14-0.43-1.78c-0.09-0.86-0.09-1.72,0-2.56c0.04-0.63,0.19-1.22,0.43-1.77c0.25-0.55,0.57-1.03,0.98-1.43
			s0.89-0.73,1.43-0.96c0.54-0.23,1.15-0.35,1.81-0.35c0.45,0,0.88,0.06,1.31,0.18c0.43,0.12,0.82,0.3,1.18,0.52
			c0.36,0.22,0.69,0.5,0.97,0.82c0.28,0.32,0.5,0.68,0.66,1.09c0.04,0.08,0.07,0.16,0.08,0.22c0.01,0.06,0.02,0.13,0.02,0.21
			c0,0.24-0.09,0.43-0.27,0.58c-0.18,0.15-0.37,0.22-0.56,0.22c-0.21,0-0.38-0.05-0.5-0.16c-0.12-0.11-0.21-0.22-0.29-0.35
			c-0.23-0.52-0.58-0.94-1.04-1.24c-0.46-0.3-0.98-0.46-1.57-0.46c-0.43,0-0.81,0.08-1.16,0.23c-0.35,0.16-0.65,0.37-0.9,0.64
			c-0.25,0.27-0.45,0.6-0.61,0.97s-0.25,0.77-0.28,1.2c-0.05,0.76-0.05,1.52,0,2.28c0.03,0.44,0.13,0.84,0.28,1.21
			s0.36,0.68,0.61,0.95c0.25,0.26,0.55,0.47,0.9,0.62C-248.13,11.81-247.75,11.88-247.32,11.88z"/>
		<path class="st31" d="M-239.08,5.58c0.23-0.22,0.55-0.42,0.95-0.6c0.4-0.18,0.84-0.26,1.32-0.26c0.97,0,1.74,0.29,2.32,0.86
			c0.58,0.57,0.86,1.41,0.86,2.52v4.43c0,0.25-0.08,0.45-0.24,0.62c-0.16,0.17-0.36,0.26-0.61,0.26c-0.23,0-0.44-0.09-0.6-0.26
			c-0.17-0.17-0.25-0.38-0.25-0.62V8.2c0-0.59-0.15-1.04-0.46-1.37c-0.3-0.33-0.73-0.49-1.27-0.49c-0.42,0-0.81,0.1-1.17,0.3
			c-0.36,0.2-0.65,0.43-0.86,0.7v5.2c0,0.25-0.08,0.45-0.23,0.62c-0.16,0.17-0.36,0.25-0.6,0.25c-0.24,0-0.44-0.08-0.61-0.25
			c-0.17-0.17-0.26-0.37-0.26-0.62V2.78c0-0.25,0.08-0.45,0.24-0.62s0.36-0.25,0.61-0.25c0.24,0,0.44,0.08,0.6,0.25
			s0.25,0.37,0.25,0.62V5.58z"/>
		<path class="st31" d="M-224.65,11.98c0,0.15-0.02,0.27-0.06,0.36c-0.04,0.09-0.12,0.18-0.24,0.26c-0.12,0.08-0.28,0.16-0.48,0.26
			c-0.2,0.1-0.45,0.2-0.73,0.3c-0.28,0.1-0.6,0.18-0.96,0.24c-0.36,0.06-0.74,0.1-1.16,0.1c-0.54,0-1.02-0.07-1.43-0.21
			c-0.41-0.14-0.75-0.33-1.02-0.58s-0.48-0.54-0.62-0.88s-0.21-0.7-0.21-1.1c0-0.35,0.06-0.69,0.19-1.01
			c0.13-0.32,0.33-0.6,0.59-0.85s0.6-0.44,1.01-0.58c0.41-0.14,0.89-0.22,1.46-0.22c0.37,0,0.71,0.02,1.02,0.07
			c0.3,0.05,0.64,0.12,1.02,0.2V7.82c0-0.54-0.14-0.94-0.42-1.18s-0.73-0.37-1.36-0.37c-0.33,0-0.65,0.04-0.95,0.11
			c-0.3,0.08-0.57,0.15-0.79,0.24c-0.35,0.12-0.63,0.1-0.85-0.05s-0.32-0.35-0.32-0.59c0-0.14,0.04-0.28,0.12-0.42
			c0.08-0.14,0.23-0.26,0.44-0.36c0.23-0.12,0.58-0.23,1.03-0.33c0.45-0.1,0.93-0.15,1.42-0.15c1.02,0,1.83,0.25,2.42,0.74
			c0.59,0.5,0.89,1.28,0.89,2.36V11.98z M-228.14,12.01c0.55,0,0.98-0.07,1.28-0.2c0.3-0.13,0.49-0.23,0.58-0.3V9.74
			c-0.35-0.09-0.67-0.15-0.96-0.2s-0.61-0.07-0.98-0.07c-0.49,0-0.89,0.1-1.21,0.31c-0.32,0.21-0.47,0.5-0.47,0.89
			c0,0.44,0.15,0.77,0.45,1C-229.15,11.9-228.71,12.01-228.14,12.01z"/>
		<path class="st31" d="M-222.26,5.72c0-0.26,0.07-0.47,0.22-0.64c0.15-0.17,0.35-0.26,0.61-0.26c0.24,0,0.45,0.08,0.62,0.26
			s0.25,0.38,0.25,0.64v4.35c0,0.55,0.17,0.99,0.5,1.31c0.33,0.32,0.78,0.48,1.36,0.48c0.44,0,0.81-0.06,1.12-0.17
			c0.31-0.11,0.57-0.23,0.78-0.36V5.71c0-0.25,0.08-0.45,0.24-0.62s0.36-0.26,0.61-0.26c0.23,0,0.44,0.08,0.6,0.26
			s0.25,0.38,0.25,0.62v6.19c0,0.15-0.02,0.27-0.07,0.37c-0.05,0.1-0.13,0.19-0.25,0.27c-0.12,0.08-0.28,0.18-0.48,0.3
			c-0.2,0.11-0.44,0.22-0.72,0.31c-0.28,0.1-0.59,0.18-0.94,0.25s-0.74,0.1-1.15,0.1c-1.09,0-1.95-0.29-2.58-0.88
			s-0.95-1.43-0.95-2.53V5.72z"/>
		<path class="st31" d="M-212.76,7.93c0.08-1,0.42-1.79,1-2.36c0.58-0.57,1.39-0.86,2.42-0.86c0.38,0,0.76,0.05,1.14,0.14
			c0.37,0.1,0.69,0.2,0.96,0.32v-2.4c0-0.25,0.08-0.45,0.25-0.62c0.16-0.17,0.37-0.25,0.6-0.25c0.25,0,0.45,0.08,0.61,0.25
			s0.24,0.37,0.24,0.62v9.09c0,0.15-0.02,0.27-0.06,0.37c-0.04,0.1-0.12,0.19-0.25,0.27c-0.11,0.08-0.26,0.17-0.47,0.28
			c-0.21,0.11-0.45,0.22-0.74,0.33c-0.28,0.11-0.6,0.2-0.95,0.27s-0.72,0.11-1.1,0.11c-0.54,0-1.03-0.08-1.46-0.24
			c-0.43-0.16-0.8-0.38-1.11-0.67c-0.32-0.29-0.56-0.63-0.74-1.04c-0.18-0.41-0.29-0.85-0.34-1.34c-0.01-0.14-0.02-0.31-0.02-0.51
			c-0.01-0.2-0.01-0.41-0.01-0.62c0-0.21,0-0.42,0.01-0.62S-212.77,8.08-212.76,7.93z M-211.06,9.99c0.1,1.25,0.76,1.87,1.98,1.87
			c0.17,0,0.35-0.02,0.53-0.06c0.18-0.04,0.36-0.08,0.53-0.14c0.17-0.06,0.32-0.12,0.46-0.18c0.13-0.06,0.24-0.13,0.33-0.19V6.84
			c-0.17-0.11-0.44-0.22-0.8-0.33c-0.36-0.11-0.75-0.17-1.17-0.17c-0.61,0-1.06,0.15-1.36,0.45c-0.3,0.3-0.46,0.74-0.5,1.33
			c-0.01,0.11-0.02,0.24-0.02,0.41c0,0.17-0.01,0.34-0.01,0.51s0,0.35,0.01,0.51C-211.08,9.72-211.08,9.87-211.06,9.99z"/>
		<path class="st31" d="M-201.16,5.58c0.23-0.22,0.55-0.42,0.95-0.6c0.4-0.18,0.84-0.26,1.32-0.26c0.97,0,1.74,0.29,2.32,0.86
			c0.58,0.57,0.86,1.41,0.86,2.52v4.43c0,0.25-0.08,0.45-0.24,0.62c-0.16,0.17-0.36,0.26-0.61,0.26c-0.23,0-0.44-0.09-0.6-0.26
			c-0.17-0.17-0.25-0.38-0.25-0.62V8.2c0-0.59-0.15-1.04-0.46-1.37c-0.3-0.33-0.73-0.49-1.27-0.49c-0.42,0-0.81,0.1-1.17,0.3
			c-0.36,0.2-0.65,0.43-0.86,0.7v5.2c0,0.25-0.08,0.45-0.23,0.62c-0.16,0.17-0.36,0.25-0.6,0.25c-0.24,0-0.44-0.08-0.61-0.25
			c-0.17-0.17-0.26-0.37-0.26-0.62V2.78c0-0.25,0.08-0.45,0.24-0.62s0.36-0.25,0.61-0.25c0.24,0,0.44,0.08,0.6,0.25
			s0.25,0.37,0.25,0.62V5.58z"/>
		<path class="st31" d="M-186.73,11.98c0,0.15-0.02,0.27-0.06,0.36c-0.04,0.09-0.12,0.18-0.24,0.26c-0.12,0.08-0.28,0.16-0.48,0.26
			c-0.2,0.1-0.45,0.2-0.73,0.3c-0.28,0.1-0.6,0.18-0.96,0.24c-0.36,0.06-0.74,0.1-1.16,0.1c-0.54,0-1.02-0.07-1.43-0.21
			c-0.41-0.14-0.75-0.33-1.02-0.58s-0.48-0.54-0.62-0.88s-0.21-0.7-0.21-1.1c0-0.35,0.06-0.69,0.19-1.01
			c0.13-0.32,0.33-0.6,0.59-0.85s0.6-0.44,1.01-0.58c0.41-0.14,0.89-0.22,1.46-0.22c0.37,0,0.71,0.02,1.02,0.07
			c0.3,0.05,0.64,0.12,1.02,0.2V7.82c0-0.54-0.14-0.94-0.42-1.18s-0.73-0.37-1.36-0.37c-0.33,0-0.65,0.04-0.95,0.11
			c-0.3,0.08-0.57,0.15-0.79,0.24c-0.35,0.12-0.63,0.1-0.85-0.05s-0.32-0.35-0.32-0.59c0-0.14,0.04-0.28,0.12-0.42
			c0.08-0.14,0.23-0.26,0.44-0.36c0.23-0.12,0.58-0.23,1.03-0.33c0.45-0.1,0.93-0.15,1.42-0.15c1.02,0,1.83,0.25,2.42,0.74
			c0.59,0.5,0.89,1.28,0.89,2.36V11.98z M-190.22,12.01c0.55,0,0.98-0.07,1.28-0.2c0.3-0.13,0.49-0.23,0.58-0.3V9.74
			c-0.35-0.09-0.67-0.15-0.96-0.2s-0.61-0.07-0.98-0.07c-0.49,0-0.89,0.1-1.21,0.31c-0.32,0.21-0.47,0.5-0.47,0.89
			c0,0.44,0.15,0.77,0.45,1C-191.23,11.9-190.79,12.01-190.22,12.01z"/>
		<path class="st31" d="M-180.18,4.89c0.25,0.08,0.42,0.18,0.51,0.31c0.1,0.13,0.14,0.3,0.14,0.49c0,0.18-0.06,0.36-0.19,0.54
			c-0.13,0.18-0.33,0.26-0.61,0.26c-0.15,0-0.32-0.03-0.51-0.08c-0.19-0.05-0.42-0.08-0.69-0.06c-0.37,0.01-0.65,0.12-0.83,0.31
			c-0.18,0.2-0.27,0.52-0.27,0.97v4.93c0,0.25-0.08,0.45-0.25,0.61c-0.17,0.16-0.37,0.24-0.62,0.24c-0.22,0-0.42-0.08-0.58-0.24
			c-0.17-0.16-0.25-0.36-0.25-0.61v-5.2c0-0.81,0.23-1.45,0.69-1.93s1.12-0.71,2-0.71c0.28,0,0.55,0.02,0.81,0.05
			C-180.57,4.79-180.36,4.84-180.18,4.89z"/>
		<path class="st31" d="M-178.28,6.06c-0.06-0.16-0.09-0.31-0.07-0.46c0.02-0.15,0.06-0.28,0.14-0.39c0.08-0.11,0.18-0.2,0.3-0.27
			s0.25-0.1,0.39-0.1c0.22,0,0.41,0.06,0.55,0.18c0.14,0.12,0.25,0.27,0.31,0.46l2.16,5.17c0.01,0.03,0.03,0.05,0.06,0.05
			c0.03,0,0.06-0.02,0.08-0.05l1.98-5.14c0.07-0.2,0.18-0.37,0.33-0.49c0.14-0.12,0.32-0.18,0.54-0.18c0.16,0,0.3,0.03,0.42,0.1
			s0.22,0.16,0.3,0.28s0.13,0.25,0.14,0.4s-0.01,0.3-0.07,0.45l-3.01,7.15c-0.32,0.77-0.68,1.41-1.08,1.92s-0.77,0.87-1.1,1.09
			c-0.25,0.16-0.49,0.24-0.72,0.24c-0.21,0-0.4-0.07-0.56-0.22c-0.16-0.14-0.24-0.34-0.24-0.58c0-0.12,0.03-0.24,0.09-0.37
			c0.06-0.13,0.15-0.24,0.26-0.32c0.29-0.18,0.59-0.45,0.9-0.81s0.57-0.82,0.78-1.4L-178.28,6.06z"/>
		<path class="st31" d="M-160.14,11.88c0.59,0,1.11-0.15,1.57-0.46c0.46-0.3,0.81-0.71,1.04-1.22c0.08-0.15,0.18-0.27,0.3-0.37
			s0.27-0.14,0.49-0.14c0.19,0,0.38,0.08,0.56,0.22s0.27,0.34,0.27,0.58c0,0.07,0,0.14-0.02,0.21c-0.01,0.06-0.04,0.14-0.08,0.22
			c-0.16,0.41-0.38,0.77-0.66,1.08c-0.28,0.32-0.61,0.59-0.97,0.81c-0.36,0.22-0.75,0.39-1.18,0.52c-0.42,0.12-0.86,0.18-1.3,0.18
			c-0.66,0-1.27-0.11-1.82-0.34s-1.03-0.55-1.44-0.95c-0.41-0.41-0.74-0.88-0.98-1.43c-0.25-0.55-0.39-1.14-0.43-1.78
			c-0.09-0.86-0.09-1.72,0-2.56c0.04-0.63,0.19-1.22,0.43-1.77c0.25-0.55,0.57-1.03,0.98-1.43c0.41-0.41,0.89-0.73,1.43-0.96
			s1.15-0.35,1.81-0.35c0.45,0,0.88,0.06,1.31,0.18c0.43,0.12,0.82,0.3,1.18,0.52s0.69,0.5,0.97,0.82c0.28,0.32,0.5,0.68,0.66,1.09
			c0.04,0.08,0.07,0.16,0.08,0.22c0.01,0.06,0.02,0.13,0.02,0.21c0,0.24-0.09,0.43-0.27,0.58s-0.37,0.22-0.56,0.22
			c-0.21,0-0.38-0.05-0.5-0.16c-0.12-0.11-0.21-0.22-0.29-0.35c-0.23-0.52-0.58-0.94-1.04-1.24c-0.46-0.3-0.98-0.46-1.57-0.46
			c-0.43,0-0.81,0.08-1.16,0.23c-0.35,0.16-0.65,0.37-0.9,0.64c-0.25,0.27-0.45,0.6-0.61,0.97c-0.16,0.37-0.25,0.77-0.28,1.2
			c-0.05,0.76-0.05,1.52,0,2.28c0.03,0.44,0.13,0.84,0.28,1.21c0.15,0.37,0.36,0.68,0.61,0.95c0.25,0.26,0.55,0.47,0.9,0.62
			C-160.95,11.81-160.56,11.88-160.14,11.88z"/>
		<path class="st31" d="M-151.9,5.58c0.23-0.22,0.55-0.42,0.95-0.6c0.4-0.18,0.84-0.26,1.32-0.26c0.97,0,1.74,0.29,2.32,0.86
			c0.58,0.57,0.86,1.41,0.86,2.52v4.43c0,0.25-0.08,0.45-0.24,0.62c-0.16,0.17-0.36,0.26-0.61,0.26c-0.23,0-0.44-0.09-0.6-0.26
			c-0.17-0.17-0.25-0.38-0.25-0.62V8.2c0-0.59-0.15-1.04-0.46-1.37c-0.3-0.33-0.73-0.49-1.27-0.49c-0.42,0-0.81,0.1-1.17,0.3
			c-0.36,0.2-0.65,0.43-0.86,0.7v5.2c0,0.25-0.08,0.45-0.23,0.62c-0.16,0.17-0.36,0.25-0.6,0.25c-0.24,0-0.44-0.08-0.61-0.25
			c-0.17-0.17-0.26-0.37-0.26-0.62V2.78c0-0.25,0.08-0.45,0.24-0.62s0.36-0.25,0.61-0.25c0.24,0,0.44,0.08,0.6,0.25
			s0.25,0.37,0.25,0.62V5.58z"/>
		<path class="st31" d="M-137.47,11.98c0,0.15-0.02,0.27-0.06,0.36c-0.04,0.09-0.12,0.18-0.24,0.26c-0.12,0.08-0.28,0.16-0.48,0.26
			s-0.45,0.2-0.73,0.3c-0.28,0.1-0.6,0.18-0.96,0.24c-0.36,0.06-0.74,0.1-1.16,0.1c-0.54,0-1.02-0.07-1.43-0.21
			c-0.41-0.14-0.75-0.33-1.02-0.58s-0.48-0.54-0.62-0.88s-0.21-0.7-0.21-1.1c0-0.35,0.06-0.69,0.19-1.01
			c0.13-0.32,0.33-0.6,0.59-0.85s0.6-0.44,1.01-0.58c0.41-0.14,0.89-0.22,1.46-0.22c0.37,0,0.71,0.02,1.02,0.07
			c0.3,0.05,0.64,0.12,1.02,0.2V7.82c0-0.54-0.14-0.94-0.42-1.18s-0.73-0.37-1.36-0.37c-0.33,0-0.65,0.04-0.95,0.11
			c-0.3,0.08-0.57,0.15-0.79,0.24c-0.35,0.12-0.63,0.1-0.85-0.05s-0.32-0.35-0.32-0.59c0-0.14,0.04-0.28,0.12-0.42
			c0.08-0.14,0.23-0.26,0.44-0.36c0.23-0.12,0.58-0.23,1.03-0.33s0.92-0.15,1.42-0.15c1.02,0,1.83,0.25,2.42,0.74
			s0.89,1.28,0.89,2.36V11.98z M-140.95,12.01c0.55,0,0.98-0.07,1.28-0.2c0.3-0.13,0.49-0.23,0.58-0.3V9.74
			c-0.35-0.09-0.67-0.15-0.96-0.2s-0.61-0.07-0.98-0.07c-0.49,0-0.89,0.1-1.21,0.31s-0.47,0.5-0.47,0.89c0,0.44,0.15,0.77,0.45,1
			S-141.53,12.01-140.95,12.01z"/>
		<path class="st31" d="M-130.92,4.89c0.25,0.08,0.42,0.18,0.51,0.31c0.1,0.13,0.14,0.3,0.14,0.49c0,0.18-0.06,0.36-0.19,0.54
			c-0.13,0.18-0.33,0.26-0.61,0.26c-0.15,0-0.32-0.03-0.51-0.08c-0.19-0.05-0.42-0.08-0.69-0.06c-0.37,0.01-0.65,0.12-0.83,0.31
			s-0.27,0.52-0.27,0.97v4.93c0,0.25-0.08,0.45-0.25,0.61c-0.17,0.16-0.37,0.24-0.62,0.24c-0.22,0-0.42-0.08-0.58-0.24
			c-0.17-0.16-0.25-0.36-0.25-0.61v-5.2c0-0.81,0.23-1.45,0.69-1.93s1.13-0.71,2-0.71c0.28,0,0.55,0.02,0.81,0.05
			C-131.31,4.79-131.09,4.84-130.92,4.89z"/>
		<path class="st31" d="M-122.36,11.98c0,0.15-0.02,0.27-0.06,0.36c-0.04,0.09-0.12,0.18-0.24,0.26c-0.12,0.08-0.28,0.16-0.48,0.26
			s-0.45,0.2-0.73,0.3c-0.28,0.1-0.6,0.18-0.96,0.24c-0.36,0.06-0.74,0.1-1.16,0.1c-0.54,0-1.02-0.07-1.43-0.21
			c-0.41-0.14-0.75-0.33-1.02-0.58s-0.48-0.54-0.62-0.88s-0.21-0.7-0.21-1.1c0-0.35,0.06-0.69,0.19-1.01
			c0.13-0.32,0.33-0.6,0.59-0.85s0.6-0.44,1.01-0.58c0.41-0.14,0.89-0.22,1.46-0.22c0.37,0,0.71,0.02,1.02,0.07
			c0.3,0.05,0.64,0.12,1.02,0.2V7.82c0-0.54-0.14-0.94-0.42-1.18s-0.73-0.37-1.36-0.37c-0.33,0-0.65,0.04-0.95,0.11
			c-0.3,0.08-0.57,0.15-0.79,0.24c-0.35,0.12-0.63,0.1-0.85-0.05s-0.32-0.35-0.32-0.59c0-0.14,0.04-0.28,0.12-0.42
			c0.08-0.14,0.23-0.26,0.44-0.36c0.23-0.12,0.58-0.23,1.03-0.33s0.92-0.15,1.42-0.15c1.02,0,1.83,0.25,2.42,0.74
			s0.89,1.28,0.89,2.36V11.98z M-125.85,12.01c0.55,0,0.98-0.07,1.28-0.2c0.3-0.13,0.49-0.23,0.58-0.3V9.74
			c-0.35-0.09-0.67-0.15-0.96-0.2s-0.61-0.07-0.98-0.07c-0.49,0-0.89,0.1-1.21,0.31s-0.47,0.5-0.47,0.89c0,0.44,0.15,0.77,0.45,1
			S-126.43,12.01-125.85,12.01z"/>
		<path class="st31" d="M-112.73,12.54c0,0.25-0.08,0.45-0.24,0.62c-0.16,0.17-0.36,0.25-0.61,0.25c-0.22,0-0.42-0.08-0.59-0.25
			c-0.17-0.17-0.26-0.37-0.26-0.62V8.17c0-0.32-0.05-0.59-0.15-0.82s-0.24-0.42-0.41-0.57s-0.37-0.26-0.59-0.33s-0.46-0.1-0.7-0.1
			c-0.39,0-0.77,0.05-1.11,0.14c-0.35,0.09-0.61,0.2-0.79,0.31v5.74c0,0.25-0.08,0.45-0.24,0.62c-0.16,0.17-0.36,0.25-0.61,0.25
			c-0.22,0-0.42-0.08-0.59-0.25c-0.17-0.17-0.26-0.37-0.26-0.62V6.25c0-0.17,0.03-0.3,0.08-0.39c0.05-0.09,0.14-0.18,0.26-0.26
			c0.12-0.08,0.28-0.18,0.48-0.28c0.2-0.1,0.44-0.2,0.72-0.29c0.28-0.09,0.59-0.17,0.95-0.22s0.74-0.09,1.16-0.09
			c1.16,0,2.04,0.29,2.62,0.87s0.88,1.42,0.88,2.5V12.54z"/>
		<path class="st31" d="M-101.67,6.84c0.7,0.13,1.31,0.29,1.81,0.47c0.5,0.19,0.92,0.41,1.24,0.67c0.33,0.26,0.56,0.57,0.71,0.92
			c0.15,0.35,0.22,0.76,0.22,1.23c0,0.48-0.09,0.93-0.28,1.34c-0.19,0.42-0.46,0.77-0.82,1.07c-0.36,0.3-0.8,0.53-1.32,0.7
			c-0.52,0.17-1.11,0.26-1.77,0.26c-0.91,0-1.67-0.11-2.29-0.34c-0.62-0.23-1.15-0.5-1.58-0.82c-0.3-0.21-0.45-0.46-0.45-0.75
			c0-0.26,0.08-0.47,0.26-0.63c0.17-0.17,0.38-0.25,0.62-0.25c0.09,0,0.18,0.02,0.28,0.05c0.1,0.03,0.22,0.1,0.34,0.19
			c0.36,0.26,0.77,0.47,1.22,0.65c0.45,0.18,1.01,0.26,1.68,0.26c0.75,0,1.33-0.15,1.75-0.46c0.42-0.3,0.63-0.73,0.63-1.27
			c0-0.24-0.05-0.44-0.15-0.6c-0.1-0.17-0.26-0.31-0.48-0.44s-0.5-0.24-0.85-0.34s-0.76-0.2-1.24-0.3c-1.3-0.26-2.26-0.63-2.88-1.13
			c-0.62-0.5-0.93-1.21-0.93-2.12c0-0.5,0.1-0.96,0.3-1.36c0.2-0.41,0.47-0.75,0.82-1.03c0.35-0.28,0.76-0.5,1.25-0.66
			c0.48-0.15,1.02-0.23,1.59-0.23c0.71,0,1.37,0.09,1.95,0.26c0.59,0.17,1.05,0.4,1.38,0.67c0.18,0.17,0.27,0.4,0.27,0.67
			c0,0.22-0.07,0.41-0.22,0.57c-0.15,0.16-0.34,0.23-0.56,0.23c-0.12,0-0.23-0.02-0.34-0.06c-0.11-0.04-0.21-0.08-0.3-0.14
			c-0.28-0.15-0.59-0.28-0.94-0.4c-0.35-0.12-0.76-0.18-1.23-0.18c-0.41,0-0.75,0.05-1.03,0.14s-0.51,0.21-0.69,0.36
			c-0.18,0.15-0.3,0.32-0.38,0.52s-0.12,0.4-0.12,0.62c0,0.22,0.04,0.42,0.13,0.58c0.08,0.17,0.23,0.31,0.43,0.44
			s0.47,0.24,0.79,0.34S-102.14,6.75-101.67,6.84z"/>
		<path class="st31" d="M-93.83,2.75c0,0.27-0.09,0.5-0.27,0.69c-0.18,0.19-0.41,0.29-0.67,0.29c-0.28,0-0.51-0.1-0.69-0.29
			c-0.18-0.19-0.27-0.42-0.27-0.69s0.09-0.49,0.27-0.67c0.18-0.18,0.41-0.27,0.69-0.27c0.27,0,0.49,0.09,0.67,0.27
			C-93.92,2.26-93.83,2.48-93.83,2.75z M-94.78,4.83c0.23,0,0.43,0.08,0.6,0.25c0.17,0.17,0.25,0.37,0.25,0.62v6.85
			c0,0.25-0.08,0.45-0.24,0.62c-0.16,0.17-0.36,0.25-0.61,0.25c-0.22,0-0.42-0.08-0.59-0.25c-0.17-0.17-0.26-0.37-0.26-0.62V5.69
			c0-0.25,0.08-0.45,0.24-0.62C-95.23,4.91-95.02,4.83-94.78,4.83z"/>
		<path class="st31" d="M-84.09,12.54c0,0.25-0.08,0.45-0.24,0.62c-0.16,0.17-0.36,0.25-0.61,0.25c-0.22,0-0.42-0.08-0.59-0.25
			c-0.17-0.17-0.26-0.37-0.26-0.62V8.17c0-0.32-0.05-0.59-0.15-0.82c-0.1-0.23-0.24-0.42-0.41-0.57c-0.17-0.15-0.37-0.26-0.59-0.33
			c-0.22-0.07-0.46-0.1-0.71-0.1c-0.39,0-0.77,0.05-1.11,0.14c-0.35,0.09-0.61,0.2-0.79,0.31v5.74c0,0.25-0.08,0.45-0.24,0.62
			c-0.16,0.17-0.36,0.25-0.61,0.25c-0.22,0-0.42-0.08-0.59-0.25c-0.17-0.17-0.26-0.37-0.26-0.62V6.25c0-0.17,0.03-0.3,0.08-0.39
			c0.05-0.09,0.14-0.18,0.26-0.26c0.12-0.08,0.28-0.18,0.48-0.28c0.2-0.1,0.44-0.2,0.72-0.29c0.28-0.09,0.59-0.17,0.95-0.22
			s0.74-0.09,1.16-0.09c1.16,0,2.04,0.29,2.62,0.87c0.59,0.58,0.88,1.42,0.88,2.5V12.54z"/>
		<path class="st31" d="M-74.62,12.79c0,0.62-0.1,1.15-0.3,1.61c-0.2,0.45-0.47,0.83-0.82,1.13c-0.34,0.3-0.75,0.52-1.22,0.67
			s-0.97,0.22-1.49,0.22c-0.52,0-1-0.07-1.43-0.2c-0.43-0.13-0.79-0.29-1.06-0.47c-0.19-0.12-0.36-0.26-0.5-0.42
			s-0.21-0.34-0.21-0.54c0-0.18,0.06-0.35,0.19-0.5c0.13-0.16,0.33-0.23,0.61-0.23c0.19,0,0.37,0.04,0.54,0.12
			c0.17,0.08,0.34,0.17,0.52,0.27c0.18,0.1,0.37,0.19,0.58,0.27s0.46,0.12,0.74,0.12c0.28,0,0.55-0.04,0.81-0.12s0.49-0.2,0.69-0.37
			c0.2-0.17,0.36-0.37,0.48-0.61s0.18-0.52,0.18-0.84v-0.16c-0.28,0.13-0.6,0.24-0.97,0.34c-0.37,0.1-0.78,0.15-1.22,0.15
			c-0.5,0-0.95-0.08-1.35-0.23c-0.4-0.15-0.74-0.37-1.03-0.65s-0.51-0.61-0.68-1.01c-0.17-0.39-0.26-0.83-0.29-1.3
			c-0.01-0.11-0.02-0.25-0.02-0.42c0-0.17-0.01-0.35-0.01-0.54c0-0.19,0-0.38,0.01-0.57s0.01-0.36,0.02-0.52
			c0.04-0.48,0.15-0.92,0.32-1.33s0.41-0.75,0.71-1.04c0.3-0.29,0.67-0.51,1.1-0.68c0.43-0.17,0.92-0.25,1.47-0.25
			c0.38,0,0.75,0.04,1.1,0.1s0.66,0.16,0.95,0.26s0.54,0.22,0.75,0.33c0.21,0.11,0.38,0.21,0.5,0.28c0.15,0.1,0.24,0.19,0.28,0.29
			c0.04,0.1,0.06,0.22,0.06,0.37V12.79z M-78.19,6.35c-0.34,0-0.63,0.05-0.87,0.14c-0.24,0.1-0.44,0.23-0.59,0.39
			C-79.8,7.05-79.92,7.24-80,7.47s-0.13,0.47-0.15,0.74c-0.02,0.2-0.03,0.47-0.03,0.79s0.01,0.61,0.03,0.86
			c0.04,0.57,0.21,1.01,0.49,1.34c0.28,0.33,0.75,0.5,1.42,0.5c0.47,0,0.88-0.07,1.23-0.21c0.35-0.14,0.59-0.26,0.7-0.37V6.84
			c-0.02-0.01-0.08-0.04-0.18-0.1s-0.23-0.12-0.4-0.17c-0.17-0.05-0.36-0.1-0.58-0.15S-77.93,6.35-78.19,6.35z"/>
		<path class="st31" d="M-70.27,5.58c0.23-0.22,0.55-0.42,0.95-0.6c0.4-0.18,0.84-0.26,1.32-0.26c0.97,0,1.74,0.29,2.32,0.86
			c0.58,0.57,0.86,1.41,0.86,2.52v4.43c0,0.25-0.08,0.45-0.24,0.62c-0.16,0.17-0.36,0.26-0.61,0.26c-0.23,0-0.44-0.09-0.6-0.26
			c-0.17-0.17-0.25-0.38-0.25-0.62V8.2c0-0.59-0.15-1.04-0.46-1.37c-0.3-0.33-0.73-0.49-1.27-0.49c-0.42,0-0.81,0.1-1.17,0.3
			c-0.36,0.2-0.65,0.43-0.86,0.7v5.2c0,0.25-0.08,0.45-0.23,0.62c-0.16,0.17-0.36,0.25-0.6,0.25c-0.24,0-0.44-0.08-0.61-0.25
			c-0.17-0.17-0.26-0.37-0.26-0.62V2.78c0-0.25,0.08-0.45,0.24-0.62s0.36-0.25,0.61-0.25c0.24,0,0.44,0.08,0.6,0.25
			s0.25,0.37,0.25,0.62V5.58z"/>
	</g>
	<g class="st30">
		<path class="st31" d="M-251.9,21.05c0-0.12,0.04-0.23,0.13-0.32s0.19-0.14,0.32-0.14c0.13,0,0.24,0.05,0.32,0.14
			s0.13,0.2,0.13,0.32v6.88c0,0.12-0.04,0.23-0.13,0.32s-0.19,0.14-0.32,0.14c-0.12,0-0.23-0.05-0.32-0.14s-0.13-0.2-0.13-0.32
			V21.05z"/>
		<path class="st31" d="M-243.42,27.27h0.02c-0.01-0.22-0.02-0.46-0.03-0.71c-0.01-0.25-0.02-0.56-0.02-0.93v-4.59
			c0-0.12,0.04-0.23,0.13-0.32s0.19-0.14,0.32-0.14c0.13,0,0.24,0.05,0.32,0.14s0.13,0.2,0.13,0.32v6.54c0,0.21-0.07,0.39-0.2,0.54
			s-0.31,0.23-0.52,0.23c-0.32,0-0.56-0.14-0.73-0.41l-3.9-6.33h-0.02c0.01,0.23,0.01,0.48,0.02,0.76c0.01,0.28,0.01,0.59,0.01,0.95
			v4.59c0,0.13-0.04,0.24-0.13,0.33c-0.08,0.09-0.19,0.13-0.33,0.13c-0.12,0-0.23-0.05-0.32-0.14s-0.13-0.2-0.13-0.32V21.4
			c0-0.23,0.07-0.42,0.21-0.57c0.14-0.15,0.33-0.23,0.56-0.23c0.15,0,0.28,0.03,0.41,0.09c0.13,0.06,0.24,0.17,0.34,0.33
			L-243.42,27.27z"/>
		<path class="st31" d="M-238.57,21.5h-2.2c-0.12,0-0.23-0.04-0.33-0.12s-0.14-0.18-0.14-0.31c0-0.13,0.04-0.24,0.14-0.32
			s0.2-0.12,0.33-0.12h5.28c0.12,0,0.23,0.04,0.32,0.12s0.13,0.19,0.13,0.32c0,0.12-0.04,0.23-0.13,0.31s-0.19,0.12-0.32,0.12h-2.18
			v6.42c0,0.12-0.04,0.23-0.13,0.32s-0.19,0.14-0.32,0.14c-0.12,0-0.23-0.05-0.32-0.14c-0.09-0.09-0.13-0.2-0.13-0.32V21.5z"/>
		<path class="st31" d="M-229.16,20.63c0.12,0,0.23,0.04,0.32,0.13c0.09,0.08,0.13,0.19,0.13,0.31c0,0.12-0.04,0.23-0.14,0.31
			s-0.2,0.12-0.31,0.12h-3.66v2.52h3.56c0.12,0,0.23,0.04,0.31,0.12s0.13,0.19,0.13,0.31c0,0.12-0.04,0.22-0.13,0.31
			s-0.19,0.13-0.31,0.13h-3.56v2.58h3.68c0.12,0,0.22,0.04,0.31,0.12c0.09,0.08,0.14,0.18,0.14,0.31c0,0.12-0.04,0.23-0.13,0.31
			c-0.09,0.08-0.2,0.13-0.32,0.13h-3.82c-0.25,0-0.44-0.07-0.57-0.22c-0.13-0.15-0.2-0.32-0.2-0.53v-6.21c0-0.21,0.07-0.39,0.2-0.53
			c0.13-0.14,0.32-0.21,0.57-0.21H-229.16z"/>
		<path class="st31" d="M-221.16,27.91c0,0.12-0.04,0.23-0.14,0.33c-0.09,0.09-0.2,0.14-0.32,0.14c-0.13,0-0.24-0.05-0.33-0.15
			l-2.06-2.55c-0.09-0.11-0.17-0.2-0.26-0.26c-0.08-0.06-0.2-0.09-0.36-0.09h-1.33v2.6c0,0.12-0.04,0.23-0.13,0.32
			s-0.19,0.14-0.32,0.14s-0.23-0.05-0.32-0.14s-0.13-0.2-0.13-0.32v-6.56c0-0.21,0.06-0.38,0.19-0.52c0.13-0.14,0.31-0.21,0.55-0.21
			h2.24c0.34,0,0.65,0.05,0.96,0.15c0.3,0.1,0.56,0.25,0.79,0.45c0.23,0.2,0.41,0.45,0.54,0.74c0.13,0.3,0.2,0.64,0.2,1.02
			c0,0.33-0.04,0.62-0.14,0.87c-0.09,0.25-0.22,0.46-0.38,0.64c-0.16,0.18-0.36,0.32-0.59,0.43c-0.23,0.11-0.48,0.19-0.75,0.23
			l2,2.47C-221.19,27.72-221.16,27.81-221.16,27.91z M-223.97,24.46c0.31,0,0.57-0.04,0.79-0.1c0.22-0.07,0.39-0.17,0.52-0.3
			c0.13-0.13,0.23-0.29,0.29-0.47c0.06-0.18,0.09-0.38,0.09-0.6c0-0.46-0.13-0.82-0.4-1.09c-0.26-0.27-0.67-0.4-1.23-0.4h-2.04v2.96
			H-223.97z"/>
		<path class="st31" d="M-214.03,27.27h0.02c-0.01-0.22-0.02-0.46-0.03-0.71c-0.01-0.25-0.02-0.56-0.02-0.93v-4.59
			c0-0.12,0.04-0.23,0.13-0.32s0.2-0.14,0.32-0.14c0.13,0,0.24,0.05,0.33,0.14c0.08,0.09,0.13,0.2,0.13,0.32v6.54
			c0,0.21-0.07,0.39-0.2,0.54c-0.13,0.15-0.31,0.23-0.52,0.23c-0.32,0-0.56-0.14-0.73-0.41l-3.9-6.33h-0.02
			c0.01,0.23,0.01,0.48,0.02,0.76c0.01,0.28,0.01,0.59,0.01,0.95v4.59c0,0.13-0.04,0.24-0.13,0.33s-0.19,0.13-0.33,0.13
			c-0.12,0-0.23-0.05-0.32-0.14s-0.13-0.2-0.13-0.32V21.4c0-0.23,0.07-0.42,0.21-0.57c0.14-0.15,0.33-0.23,0.56-0.23
			c0.15,0,0.28,0.03,0.41,0.09c0.13,0.06,0.24,0.17,0.34,0.33L-214.03,27.27z"/>
		<path class="st31" d="M-204.89,27.89c0,0.12-0.04,0.22-0.11,0.32c-0.07,0.1-0.18,0.14-0.33,0.14c-0.1,0-0.18-0.03-0.26-0.08
			c-0.08-0.05-0.13-0.12-0.17-0.21l-0.81-2.3h-3.51l-0.81,2.3c-0.04,0.09-0.09,0.16-0.17,0.21c-0.08,0.05-0.16,0.08-0.26,0.08
			c-0.15,0-0.26-0.05-0.33-0.14c-0.07-0.1-0.11-0.2-0.11-0.32c0-0.07,0.01-0.12,0.02-0.15l2.29-6.38c0.1-0.29,0.25-0.5,0.46-0.63
			s0.43-0.2,0.68-0.2c0.25,0,0.47,0.07,0.67,0.2s0.35,0.35,0.45,0.63l2.29,6.38C-204.89,27.76-204.89,27.81-204.89,27.89z
			 M-209.77,24.89h2.89l-1.16-3.29c-0.05-0.15-0.15-0.22-0.29-0.22c-0.14,0-0.23,0.07-0.29,0.22L-209.77,24.89z"/>
		<path class="st31" d="M-202.59,21.5h-2.2c-0.12,0-0.23-0.04-0.33-0.12s-0.14-0.18-0.14-0.31c0-0.13,0.05-0.24,0.14-0.32
			s0.2-0.12,0.33-0.12h5.28c0.12,0,0.23,0.04,0.32,0.12c0.09,0.08,0.13,0.19,0.13,0.32c0,0.12-0.04,0.23-0.13,0.31
			c-0.09,0.08-0.19,0.12-0.32,0.12h-2.18v6.42c0,0.12-0.04,0.23-0.13,0.32s-0.19,0.14-0.32,0.14s-0.23-0.05-0.32-0.14
			c-0.09-0.09-0.13-0.2-0.13-0.32V21.5z"/>
		<path class="st31" d="M-197.75,21.05c0-0.12,0.04-0.23,0.13-0.32s0.19-0.14,0.32-0.14c0.13,0,0.24,0.05,0.32,0.14
			c0.08,0.09,0.13,0.2,0.13,0.32v6.88c0,0.12-0.04,0.23-0.13,0.32c-0.08,0.09-0.19,0.14-0.32,0.14c-0.12,0-0.23-0.05-0.32-0.14
			s-0.13-0.2-0.13-0.32V21.05z"/>
		<path class="st31" d="M-191.74,28.45c-0.44,0-0.85-0.08-1.23-0.24c-0.38-0.16-0.71-0.37-1-0.65c-0.29-0.28-0.52-0.6-0.69-0.97
			c-0.18-0.37-0.28-0.78-0.31-1.21c-0.04-0.6-0.04-1.2,0-1.78c0.03-0.43,0.13-0.84,0.31-1.21c0.18-0.37,0.41-0.7,0.69-0.97
			c0.29-0.27,0.62-0.49,1-0.65c0.38-0.16,0.79-0.24,1.23-0.24c0.44,0,0.85,0.08,1.24,0.24c0.38,0.16,0.72,0.38,1.01,0.65
			c0.29,0.28,0.52,0.6,0.7,0.98c0.18,0.37,0.28,0.77,0.31,1.2c0.04,0.59,0.04,1.18,0,1.78c-0.03,0.43-0.13,0.84-0.31,1.21
			c-0.18,0.37-0.41,0.7-0.7,0.97c-0.29,0.27-0.63,0.49-1.01,0.65C-190.89,28.37-191.3,28.45-191.74,28.45z M-191.74,27.58
			c0.32,0,0.62-0.06,0.9-0.17c0.28-0.11,0.52-0.27,0.72-0.47c0.21-0.2,0.37-0.43,0.5-0.71c0.12-0.28,0.2-0.57,0.23-0.9
			c0.06-0.56,0.06-1.13,0-1.71c-0.03-0.32-0.11-0.62-0.24-0.89c-0.13-0.27-0.3-0.51-0.5-0.7c-0.21-0.2-0.45-0.35-0.72-0.47
			c-0.27-0.11-0.57-0.17-0.89-0.17c-0.31,0-0.61,0.06-0.88,0.17c-0.27,0.11-0.51,0.27-0.71,0.47c-0.2,0.2-0.37,0.43-0.49,0.7
			c-0.13,0.27-0.21,0.57-0.24,0.89c-0.04,0.57-0.04,1.14,0,1.71c0.03,0.32,0.11,0.62,0.24,0.9c0.13,0.28,0.29,0.51,0.49,0.71
			c0.2,0.2,0.44,0.35,0.71,0.47C-192.35,27.52-192.06,27.58-191.74,27.58z"/>
		<path class="st31" d="M-181.25,27.27h0.02c-0.01-0.22-0.02-0.46-0.03-0.71c-0.01-0.25-0.02-0.56-0.02-0.93v-4.59
			c0-0.12,0.04-0.23,0.13-0.32s0.19-0.14,0.32-0.14c0.13,0,0.24,0.05,0.32,0.14s0.13,0.2,0.13,0.32v6.54c0,0.21-0.07,0.39-0.2,0.54
			s-0.31,0.23-0.52,0.23c-0.32,0-0.56-0.14-0.73-0.41l-3.9-6.33h-0.02c0.01,0.23,0.01,0.48,0.02,0.76c0.01,0.28,0.01,0.59,0.01,0.95
			v4.59c0,0.13-0.04,0.24-0.13,0.33c-0.08,0.09-0.19,0.13-0.33,0.13c-0.12,0-0.23-0.05-0.32-0.14s-0.13-0.2-0.13-0.32V21.4
			c0-0.23,0.07-0.42,0.21-0.57c0.14-0.15,0.33-0.23,0.56-0.23c0.15,0,0.28,0.03,0.41,0.09c0.13,0.06,0.24,0.17,0.34,0.33
			L-181.25,27.27z"/>
		<path class="st31" d="M-172.11,27.89c0,0.12-0.04,0.22-0.11,0.32s-0.18,0.14-0.33,0.14c-0.1,0-0.18-0.03-0.26-0.08
			c-0.08-0.05-0.13-0.12-0.17-0.21l-0.81-2.3h-3.51l-0.81,2.3c-0.04,0.09-0.09,0.16-0.17,0.21c-0.08,0.05-0.16,0.08-0.26,0.08
			c-0.15,0-0.26-0.05-0.33-0.14s-0.11-0.2-0.11-0.32c0-0.07,0.01-0.12,0.02-0.15l2.29-6.38c0.1-0.29,0.25-0.5,0.46-0.63
			c0.2-0.14,0.43-0.2,0.68-0.2c0.25,0,0.47,0.07,0.67,0.2c0.2,0.14,0.35,0.35,0.45,0.63l2.29,6.38
			C-172.11,27.76-172.11,27.81-172.11,27.89z M-176.99,24.89h2.89l-1.16-3.29c-0.05-0.15-0.15-0.22-0.29-0.22
			c-0.14,0-0.23,0.07-0.29,0.22L-176.99,24.89z"/>
		<path class="st31" d="M-170.73,21.05c0-0.12,0.04-0.23,0.13-0.32s0.19-0.14,0.32-0.14c0.13,0,0.24,0.05,0.32,0.14
			c0.08,0.09,0.13,0.2,0.13,0.32v6.42h3.6c0.12,0,0.23,0.04,0.32,0.12c0.09,0.08,0.14,0.18,0.14,0.31c0,0.13-0.04,0.24-0.13,0.32
			c-0.09,0.08-0.2,0.12-0.33,0.12h-3.76c-0.24,0-0.42-0.07-0.54-0.21c-0.13-0.14-0.19-0.31-0.19-0.51V21.05z"/>
		<path class="st31" d="M-155.56,27.89c0,0.12-0.04,0.22-0.11,0.32s-0.18,0.14-0.33,0.14c-0.09,0-0.18-0.03-0.26-0.08
			c-0.08-0.05-0.13-0.12-0.17-0.21l-0.81-2.3h-3.51l-0.81,2.3c-0.04,0.09-0.09,0.16-0.17,0.21c-0.08,0.05-0.16,0.08-0.26,0.08
			c-0.15,0-0.26-0.05-0.33-0.14s-0.11-0.2-0.11-0.32c0-0.07,0.01-0.12,0.02-0.15l2.29-6.38c0.1-0.29,0.25-0.5,0.46-0.63
			c0.2-0.14,0.43-0.2,0.68-0.2s0.47,0.07,0.67,0.2c0.2,0.14,0.35,0.35,0.45,0.63l2.29,6.38C-155.57,27.76-155.56,27.81-155.56,27.89
			z M-160.45,24.89h2.89l-1.16-3.29c-0.05-0.15-0.15-0.22-0.29-0.22s-0.23,0.07-0.29,0.22L-160.45,24.89z"/>
		<path class="st31" d="M-154.19,21.05c0-0.12,0.04-0.23,0.13-0.32s0.2-0.14,0.32-0.14c0.13,0,0.24,0.05,0.33,0.14
			c0.08,0.09,0.13,0.2,0.13,0.32v6.88c0,0.12-0.04,0.23-0.13,0.32c-0.08,0.09-0.19,0.14-0.33,0.14c-0.12,0-0.23-0.05-0.32-0.14
			s-0.13-0.2-0.13-0.32V21.05z"/>
		<path class="st31" d="M-145.38,27.91c0,0.12-0.05,0.23-0.14,0.33c-0.09,0.09-0.2,0.14-0.32,0.14c-0.13,0-0.24-0.05-0.33-0.15
			l-2.06-2.55c-0.09-0.11-0.17-0.2-0.26-0.26c-0.08-0.06-0.2-0.09-0.36-0.09h-1.33v2.6c0,0.12-0.04,0.23-0.13,0.32
			s-0.2,0.14-0.32,0.14c-0.12,0-0.23-0.05-0.32-0.14s-0.13-0.2-0.13-0.32v-6.56c0-0.21,0.06-0.38,0.19-0.52
			c0.13-0.14,0.31-0.21,0.55-0.21h2.24c0.34,0,0.66,0.05,0.96,0.15c0.3,0.1,0.56,0.25,0.79,0.45c0.23,0.2,0.41,0.45,0.54,0.74
			c0.13,0.3,0.2,0.64,0.2,1.02c0,0.33-0.05,0.62-0.14,0.87c-0.09,0.25-0.22,0.46-0.38,0.64c-0.17,0.18-0.36,0.32-0.59,0.43
			c-0.23,0.11-0.48,0.19-0.75,0.23l2,2.47C-145.41,27.72-145.38,27.81-145.38,27.91z M-148.19,24.46c0.31,0,0.57-0.04,0.79-0.1
			c0.22-0.07,0.39-0.17,0.52-0.3c0.13-0.13,0.23-0.29,0.29-0.47c0.06-0.18,0.09-0.38,0.09-0.6c0-0.46-0.13-0.82-0.4-1.09
			c-0.26-0.27-0.67-0.4-1.23-0.4h-2.04v2.96H-148.19z"/>
		<path class="st31" d="M-142.71,25.46v2.46c0,0.12-0.04,0.23-0.13,0.32s-0.19,0.14-0.32,0.14s-0.23-0.05-0.32-0.14
			s-0.13-0.2-0.13-0.32v-6.56c0-0.21,0.06-0.38,0.19-0.52c0.13-0.14,0.31-0.21,0.56-0.21h2.22c0.34,0,0.66,0.05,0.96,0.16
			c0.3,0.11,0.57,0.26,0.8,0.47c0.23,0.21,0.41,0.46,0.54,0.76c0.13,0.3,0.2,0.64,0.2,1.02c0,0.39-0.06,0.73-0.19,1.03
			s-0.31,0.55-0.54,0.76s-0.5,0.37-0.82,0.47c-0.32,0.11-0.66,0.16-1.03,0.16H-142.71z M-140.75,24.59c0.6,0,1.03-0.14,1.29-0.43
			c0.26-0.29,0.38-0.66,0.38-1.11c0-0.47-0.13-0.84-0.39-1.13c-0.26-0.28-0.67-0.42-1.23-0.42h-2.02v3.09H-140.75z"/>
		<path class="st31" d="M-133.64,28.45c-0.44,0-0.85-0.08-1.23-0.24c-0.38-0.16-0.71-0.37-1-0.65c-0.29-0.28-0.52-0.6-0.69-0.97
			c-0.18-0.37-0.28-0.78-0.31-1.21c-0.04-0.6-0.04-1.2,0-1.78c0.03-0.43,0.13-0.84,0.31-1.21c0.18-0.37,0.41-0.7,0.69-0.97
			c0.29-0.27,0.62-0.49,1-0.65c0.38-0.16,0.79-0.24,1.23-0.24c0.44,0,0.85,0.08,1.24,0.24c0.38,0.16,0.72,0.38,1.01,0.65
			c0.29,0.28,0.52,0.6,0.7,0.98c0.18,0.37,0.28,0.77,0.31,1.2c0.04,0.59,0.04,1.18,0,1.78c-0.03,0.43-0.13,0.84-0.31,1.21
			c-0.18,0.37-0.41,0.7-0.7,0.97c-0.29,0.27-0.63,0.49-1.01,0.65C-132.79,28.37-133.2,28.45-133.64,28.45z M-133.64,27.58
			c0.32,0,0.62-0.06,0.9-0.17c0.28-0.11,0.52-0.27,0.72-0.47c0.21-0.2,0.37-0.43,0.5-0.71c0.12-0.28,0.2-0.57,0.23-0.9
			c0.06-0.56,0.06-1.13,0-1.71c-0.03-0.32-0.11-0.62-0.24-0.89c-0.13-0.27-0.3-0.51-0.5-0.7c-0.21-0.2-0.45-0.35-0.72-0.47
			c-0.27-0.11-0.57-0.17-0.89-0.17c-0.31,0-0.61,0.06-0.88,0.17c-0.27,0.11-0.51,0.27-0.71,0.47c-0.2,0.2-0.37,0.43-0.49,0.7
			c-0.13,0.27-0.21,0.57-0.24,0.89c-0.04,0.57-0.04,1.14,0,1.71c0.03,0.32,0.11,0.62,0.24,0.9c0.13,0.28,0.29,0.51,0.49,0.71
			c0.2,0.2,0.44,0.35,0.71,0.47C-134.25,27.52-133.95,27.58-133.64,27.58z"/>
		<path class="st31" d="M-122.82,27.91c0,0.12-0.05,0.23-0.14,0.33c-0.09,0.09-0.2,0.14-0.32,0.14c-0.13,0-0.24-0.05-0.33-0.15
			l-2.06-2.55c-0.09-0.11-0.17-0.2-0.26-0.26c-0.08-0.06-0.2-0.09-0.36-0.09h-1.33v2.6c0,0.12-0.04,0.23-0.13,0.32
			s-0.19,0.14-0.32,0.14c-0.12,0-0.23-0.05-0.32-0.14s-0.13-0.2-0.13-0.32v-6.56c0-0.21,0.06-0.38,0.19-0.52
			c0.13-0.14,0.31-0.21,0.55-0.21h2.24c0.34,0,0.66,0.05,0.96,0.15s0.56,0.25,0.79,0.45c0.23,0.2,0.41,0.45,0.54,0.74
			s0.2,0.64,0.2,1.02c0,0.33-0.05,0.62-0.14,0.87c-0.09,0.25-0.22,0.46-0.38,0.64c-0.17,0.18-0.36,0.32-0.59,0.43
			c-0.23,0.11-0.48,0.19-0.75,0.23l2,2.47C-122.85,27.72-122.82,27.81-122.82,27.91z M-125.63,24.46c0.31,0,0.57-0.04,0.79-0.1
			s0.39-0.17,0.52-0.3c0.13-0.13,0.23-0.29,0.29-0.47c0.06-0.18,0.09-0.38,0.09-0.6c0-0.46-0.13-0.82-0.4-1.09
			c-0.26-0.27-0.67-0.4-1.23-0.4h-2.04v2.96H-125.63z"/>
		<path class="st31" d="M-119.41,21.5h-2.2c-0.12,0-0.23-0.04-0.33-0.12s-0.14-0.18-0.14-0.31c0-0.13,0.05-0.24,0.14-0.32
			s0.2-0.12,0.33-0.12h5.28c0.12,0,0.23,0.04,0.32,0.12c0.09,0.08,0.13,0.19,0.13,0.32c0,0.12-0.04,0.23-0.13,0.31
			c-0.09,0.08-0.19,0.12-0.32,0.12h-2.18v6.42c0,0.12-0.04,0.23-0.13,0.32s-0.19,0.14-0.32,0.14s-0.23-0.05-0.32-0.14
			c-0.09-0.09-0.13-0.2-0.13-0.32V21.5z"/>
	</g>
	<g class="st30">
		<path class="st31" d="M-251.9,36.05c0-0.12,0.04-0.23,0.13-0.32s0.19-0.14,0.32-0.14c0.13,0,0.24,0.05,0.32,0.14
			s0.13,0.2,0.13,0.32v6.42h3.6c0.12,0,0.23,0.04,0.32,0.12c0.09,0.08,0.14,0.18,0.14,0.31c0,0.13-0.04,0.24-0.13,0.32
			c-0.09,0.08-0.2,0.12-0.33,0.12h-3.76c-0.23,0-0.42-0.07-0.54-0.21s-0.19-0.31-0.19-0.51V36.05z"/>
		<path class="st31" d="M-239.76,40.21c0,0.48-0.08,0.92-0.24,1.32c-0.16,0.4-0.38,0.74-0.65,1.02c-0.28,0.28-0.61,0.5-0.98,0.66
			c-0.38,0.16-0.79,0.24-1.24,0.24s-0.86-0.08-1.24-0.24c-0.38-0.16-0.71-0.38-0.98-0.66s-0.5-0.62-0.66-1.02
			c-0.16-0.4-0.24-0.84-0.24-1.32v-4.17c0-0.12,0.04-0.23,0.13-0.32s0.19-0.14,0.32-0.14s0.23,0.05,0.32,0.14s0.13,0.2,0.13,0.32
			v4.16c0,0.37,0.05,0.7,0.17,0.99c0.11,0.29,0.26,0.54,0.46,0.75c0.2,0.21,0.43,0.36,0.7,0.47c0.27,0.11,0.56,0.17,0.88,0.17
			c0.32,0,0.61-0.06,0.88-0.17c0.27-0.11,0.51-0.27,0.7-0.47c0.2-0.21,0.35-0.45,0.46-0.75c0.11-0.29,0.16-0.62,0.16-0.99v-4.16
			c0-0.12,0.04-0.23,0.13-0.32s0.19-0.14,0.32-0.14s0.23,0.05,0.32,0.14c0.09,0.09,0.13,0.2,0.13,0.32V40.21z"/>
		<path class="st31" d="M-234.85,42.58c0.45,0,0.85-0.12,1.2-0.36c0.36-0.24,0.62-0.56,0.79-0.95c0.04-0.08,0.09-0.15,0.15-0.2
			s0.15-0.08,0.26-0.08c0.1,0,0.2,0.04,0.29,0.12c0.09,0.08,0.14,0.18,0.14,0.31c0,0.06-0.01,0.12-0.03,0.2
			c-0.11,0.28-0.26,0.53-0.45,0.75c-0.19,0.22-0.41,0.42-0.65,0.58c-0.25,0.16-0.51,0.29-0.8,0.37c-0.29,0.09-0.59,0.13-0.9,0.13
			c-0.44,0-0.85-0.08-1.22-0.24c-0.37-0.16-0.69-0.37-0.97-0.65c-0.28-0.28-0.5-0.6-0.66-0.97s-0.26-0.78-0.29-1.21
			c-0.04-0.6-0.04-1.2,0-1.78c0.03-0.43,0.13-0.84,0.29-1.21s0.38-0.7,0.66-0.97c0.28-0.27,0.6-0.49,0.97-0.65
			c0.37-0.16,0.78-0.24,1.22-0.24c0.31,0,0.61,0.04,0.9,0.13c0.29,0.09,0.56,0.21,0.8,0.37c0.25,0.16,0.46,0.35,0.65,0.58
			c0.19,0.23,0.34,0.48,0.45,0.75c0.02,0.08,0.03,0.15,0.03,0.21c0,0.12-0.05,0.23-0.14,0.3s-0.19,0.12-0.29,0.12
			c-0.11,0-0.2-0.03-0.26-0.08s-0.12-0.12-0.15-0.2c-0.17-0.4-0.43-0.71-0.79-0.95c-0.36-0.23-0.76-0.35-1.2-0.35
			c-0.32,0-0.62,0.06-0.88,0.17c-0.26,0.11-0.49,0.27-0.68,0.47c-0.19,0.2-0.35,0.43-0.46,0.71c-0.11,0.28-0.19,0.57-0.21,0.9
			c-0.04,0.57-0.04,1.13,0,1.69c0.03,0.32,0.1,0.62,0.21,0.9c0.11,0.28,0.27,0.51,0.46,0.71c0.19,0.2,0.42,0.35,0.68,0.47
			C-235.46,42.52-235.17,42.58-234.85,42.58z"/>
		<path class="st31" d="M-224.78,42.92c0,0.12-0.04,0.22-0.13,0.31s-0.19,0.14-0.31,0.14s-0.22-0.04-0.31-0.13l-3.21-3.1
			c-0.12-0.12-0.23-0.2-0.32-0.22c-0.1-0.02-0.22-0.03-0.37-0.03v3.04c0,0.12-0.04,0.23-0.13,0.32s-0.19,0.14-0.32,0.14
			c-0.12,0-0.23-0.05-0.32-0.14s-0.13-0.2-0.13-0.32v-6.88c0-0.12,0.04-0.23,0.13-0.32s0.19-0.14,0.32-0.14
			c0.13,0,0.24,0.05,0.32,0.14s0.13,0.2,0.13,0.33v2.97c0.15,0,0.28-0.01,0.37-0.04c0.09-0.03,0.2-0.1,0.32-0.22l3.14-3.01
			c0.04-0.05,0.09-0.09,0.15-0.11c0.06-0.02,0.12-0.03,0.18-0.03c0.12,0,0.22,0.04,0.3,0.13s0.13,0.19,0.13,0.31
			s-0.04,0.22-0.13,0.31l-3.23,3.07l3.3,3.19C-224.83,42.7-224.78,42.81-224.78,42.92z"/>
		<path class="st31" d="M-218.01,42.27h0.02c-0.01-0.22-0.02-0.46-0.03-0.71s-0.02-0.56-0.02-0.93v-4.59c0-0.12,0.04-0.23,0.13-0.32
			s0.19-0.14,0.32-0.14c0.13,0,0.24,0.05,0.32,0.14s0.13,0.2,0.13,0.32v6.54c0,0.21-0.07,0.39-0.2,0.54
			c-0.14,0.15-0.31,0.23-0.52,0.23c-0.31,0-0.56-0.14-0.73-0.41l-3.91-6.33h-0.02c0.01,0.23,0.01,0.48,0.02,0.76
			c0.01,0.28,0.01,0.59,0.01,0.95v4.59c0,0.13-0.04,0.24-0.13,0.33s-0.19,0.13-0.32,0.13c-0.12,0-0.23-0.05-0.32-0.14
			s-0.13-0.2-0.13-0.32V36.4c0-0.23,0.07-0.42,0.21-0.57c0.14-0.15,0.33-0.23,0.56-0.23c0.15,0,0.29,0.03,0.41,0.09
			s0.24,0.17,0.33,0.33L-218.01,42.27z"/>
		<path class="st31" d="M-212.03,43.45c-0.44,0-0.85-0.08-1.23-0.24c-0.38-0.16-0.71-0.37-1-0.65c-0.29-0.28-0.52-0.6-0.69-0.97
			c-0.18-0.37-0.28-0.78-0.31-1.21c-0.04-0.6-0.04-1.2,0-1.78c0.03-0.43,0.13-0.84,0.31-1.21c0.18-0.37,0.41-0.7,0.69-0.97
			c0.29-0.27,0.62-0.49,1-0.65c0.38-0.16,0.79-0.24,1.23-0.24c0.44,0,0.85,0.08,1.24,0.24c0.38,0.16,0.72,0.38,1.01,0.65
			c0.29,0.28,0.52,0.6,0.7,0.98c0.18,0.37,0.28,0.77,0.31,1.2c0.04,0.59,0.04,1.18,0,1.78c-0.03,0.43-0.13,0.84-0.31,1.21
			c-0.18,0.37-0.41,0.7-0.7,0.97c-0.29,0.27-0.63,0.49-1.01,0.65C-211.17,43.37-211.58,43.45-212.03,43.45z M-212.03,42.58
			c0.32,0,0.62-0.06,0.9-0.17c0.28-0.11,0.52-0.27,0.72-0.47c0.21-0.2,0.37-0.43,0.5-0.71c0.12-0.28,0.2-0.57,0.23-0.9
			c0.06-0.56,0.06-1.13,0-1.71c-0.03-0.32-0.11-0.62-0.24-0.89c-0.13-0.27-0.3-0.51-0.5-0.7c-0.21-0.2-0.45-0.35-0.72-0.47
			c-0.27-0.11-0.57-0.17-0.89-0.17c-0.31,0-0.61,0.06-0.88,0.17c-0.27,0.11-0.51,0.27-0.71,0.47c-0.2,0.2-0.37,0.43-0.49,0.7
			c-0.13,0.27-0.21,0.57-0.24,0.89c-0.04,0.57-0.04,1.14,0,1.71c0.03,0.32,0.11,0.62,0.24,0.9c0.13,0.28,0.29,0.51,0.49,0.71
			c0.2,0.2,0.44,0.35,0.71,0.47C-212.63,42.52-212.34,42.58-212.03,42.58z"/>
		<path class="st31" d="M-207.58,36.03c0-0.11,0.04-0.21,0.11-0.3c0.07-0.09,0.18-0.14,0.33-0.14c0.1,0,0.2,0.03,0.29,0.09
			s0.14,0.14,0.15,0.24l1.39,6.67c0.01,0.01,0.02,0.02,0.03,0.02s0.03-0.01,0.03-0.02l1.64-6.31c0.06-0.23,0.16-0.4,0.31-0.51
			c0.15-0.11,0.31-0.17,0.49-0.17c0.16,0,0.32,0.06,0.47,0.17c0.15,0.11,0.25,0.28,0.31,0.51l1.63,6.31
			c0.01,0.02,0.02,0.03,0.03,0.03s0.03-0.01,0.03-0.03l1.42-6.67c0.03-0.1,0.08-0.18,0.17-0.24c0.08-0.06,0.17-0.09,0.28-0.09
			c0.15,0,0.26,0.05,0.33,0.14c0.07,0.09,0.11,0.2,0.11,0.31c0,0.05,0,0.09-0.01,0.11l-1.54,6.61c-0.05,0.22-0.15,0.39-0.3,0.5
			c-0.15,0.11-0.31,0.17-0.48,0.17c-0.17,0-0.33-0.06-0.48-0.17c-0.15-0.11-0.26-0.28-0.32-0.49l-1.63-6.27
			c-0.01-0.01-0.02-0.02-0.03-0.02c-0.01,0-0.02,0.01-0.03,0.02l-1.65,6.27c-0.06,0.21-0.16,0.38-0.31,0.49
			c-0.15,0.12-0.3,0.18-0.47,0.18c-0.18,0-0.34-0.06-0.5-0.18s-0.26-0.29-0.31-0.52l-1.48-6.6
			C-207.58,36.13-207.58,36.09-207.58,36.03z"/>
	</g>
</g>
</svg>
