<svg xmlns="http://www.w3.org/2000/svg" xmlns:xlink="http://www.w3.org/1999/xlink" width="83.461" height="80.051" viewBox="0 0 83.461 80.051">
  <defs>
    <linearGradient id="linear-gradient" y1="0.12" x2="1.091" y2="0.855" gradientUnits="objectBoundingBox">
      <stop offset="0" stop-color="#287ca7"/>
      <stop offset="0.443" stop-color="#4d68a7"/>
      <stop offset="1" stop-color="#c54961"/>
    </linearGradient>
  </defs>
  <g id="Group_1709" data-name="Group 1709" transform="translate(-994.997 -1571.899)">
    <path id="Union_13" data-name="Union 13" d="M-9584.884-872.655a2.006,2.006,0,0,1,0-2.83l12.6-12.6a50.4,50.4,0,0,1-6.589-.812,43.655,43.655,0,0,1-10.225-3.276,1.552,1.552,0,0,1-.9-1.408v-35.062a1.558,1.558,0,0,1,.635-1.252,1.553,1.553,0,0,1,.917-.3,1.521,1.521,0,0,1,.465.072,37.253,37.253,0,0,0,11.346,1.668c9.062,0,18.274-2.777,27.182-5.466l.029-.007c9.134-2.756,18.577-5.6,28.056-5.6l.523,0,10.895-10.894a2,2,0,0,1,2.827,0,2,2,0,0,1,0,2.83l-8.437,8.437a38.572,38.572,0,0,1,6.482,1.443l.352.111v.051a1.546,1.546,0,0,1,.736,1.321v46.7a1.543,1.543,0,0,1-.715,1.307,1.552,1.552,0,0,1-.838.245,1.549,1.549,0,0,1-.654-.144,40.542,40.542,0,0,0-9.523-3.04,50.9,50.9,0,0,0-9.607-.852,128.82,128.82,0,0,0-19.423,1.988l-.008,0a146.2,146.2,0,0,1-17.941,2l-15.354,15.353a1.99,1.99,0,0,1-1.413.585A2,2,0,0,1-9584.884-872.655Zm-2.012-21.923a44.772,44.772,0,0,0,17.62,3.484l1.6-1.6q-1.1.037-2.2.038c-1.849,0-3.562-.079-5.242-.241a1.538,1.538,0,0,1-1.4-1.543c0-3.167-2.859-6.1-6.951-7.138a1.548,1.548,0,0,1-1.172-1.5v-12.744a1.547,1.547,0,0,1,.575-1.206,1.561,1.561,0,0,1,.978-.347,1.605,1.605,0,0,1,.322.034,5.747,5.747,0,0,0,1.189.128,4.975,4.975,0,0,0,3.162-1.11,5.128,5.128,0,0,0,1.9-4,1.556,1.556,0,0,1,1.528-1.552c8.445-.135,17.141-2.6,25.548-4.98l.043-.012c7.464-2.114,15.147-4.29,22.834-4.925l2.537-2.538c-8.2.468-16.478,2.966-24.509,5.39l-.021,0c-9.132,2.756-18.576,5.6-28.057,5.6a41.047,41.047,0,0,1-10.271-1.242Zm23.474,3.29c4.772-.342,9.538-1.075,14.188-1.79a131.515,131.515,0,0,1,19.936-2.034,48.507,48.507,0,0,1,18.2,3.242v-43.194a36.326,36.326,0,0,0-7.3-1.245l-3.217,3.217a1.569,1.569,0,0,1,.152.671,8.563,8.563,0,0,0,6.893,8.222,1.554,1.554,0,0,1,1.229,1.516v16.323a1.543,1.543,0,0,1-.6,1.227,1.568,1.568,0,0,1-.953.325,1.558,1.558,0,0,1-.381-.046,4.742,4.742,0,0,0-1.184-.154,4.324,4.324,0,0,0-2.664.939,6.69,6.69,0,0,0-2.34,5.309,1.559,1.559,0,0,1-.5,1.148,1.539,1.539,0,0,1-1.045.4c-.048,0-.1,0-.149-.007-1.566-.149-3.225-.224-4.929-.224-6.874,0-13.87,1.206-20.639,2.371-4.213.725-8.511,1.466-12.845,1.933Zm14.847-34.59c-8.156,2.311-16.585,4.7-24.989,5.064a8.166,8.166,0,0,1-2.91,4.9,8,8,0,0,1-5.073,1.8v9.87c4.272,1.456,7.353,4.679,8,8.359,1.18.082,2.407.12,3.656.12,1.834,0,3.677-.086,5.521-.234l6.886-6.886a10.187,10.187,0,0,1-2.67-7.035,14.156,14.156,0,0,1,3.112-8.578,14.85,14.85,0,0,1,7.637-5.249,10.1,10.1,0,0,1,2.693-.378,8.4,8.4,0,0,1,5.143,1.709l.2.149v.007a8.766,8.766,0,0,1,1.582,1.679l9.69-9.691A145.894,145.894,0,0,0-9548.575-925.878Zm-9.418,29.161c2.931-.414,5.846-.916,8.72-1.411l.015,0c6.891-1.187,14.018-2.414,21.148-2.414,1.249,0,2.481.039,3.67.116a9.5,9.5,0,0,1,3.411-6.089,7.416,7.416,0,0,1,4.585-1.593v-13.379a11.89,11.89,0,0,1-5.4-3.613,11.4,11.4,0,0,1-2.53-5.237l-13.722,13.722a12.635,12.635,0,0,1,.257,2.561c0,6.616-4.775,12.7-10.874,13.853a10.762,10.762,0,0,1-2,.19,9.547,9.547,0,0,1-3.383-.6Zm7.293-6.4a7.629,7.629,0,0,0,1.312-.116l.108-.022a9.912,9.912,0,0,0,5.882-3.812,11.541,11.541,0,0,0,2.458-6.7l-10.6,10.6A6.89,6.89,0,0,0-9550.7-903.12Zm2.118-17.632a11.749,11.749,0,0,0-5.986,4.156,11.05,11.05,0,0,0-2.485,6.679,7.009,7.009,0,0,0,1.76,4.841l13.265-13.265a5.728,5.728,0,0,0-1.422-1.6,5.368,5.368,0,0,0-3.28-1.069A6.942,6.942,0,0,0-9548.582-920.752Z" transform="translate(10584.997 2524.02)" fill="url(#linear-gradient)"/>
    <line id="Line_205" data-name="Line 205" y1="74.93" x2="74.93" transform="translate(999.262 1574.02)" fill="none" stroke="#fff" stroke-linecap="round" stroke-width="3"/>
  </g>
</svg>
