<svg xmlns="http://www.w3.org/2000/svg" xmlns:xlink="http://www.w3.org/1999/xlink" width="94.345" height="84.047" viewBox="0 0 94.345 84.047">
  <defs>
    <linearGradient id="linear-gradient" x1="0.294" y1="0.054" x2="0.881" y2="1.05" gradientUnits="objectBoundingBox">
      <stop offset="0" stop-color="#1d83a6"/>
      <stop offset="0.404" stop-color="#6a59a6"/>
      <stop offset="1" stop-color="#c54961"/>
    </linearGradient>
  </defs>
  <path id="Union_11" data-name="Union 11" d="M-9562.556-877.964h-8.687a1.89,1.89,0,0,1-1.887-1.889,1.89,1.89,0,0,1,1.887-1.887h9.591a1.886,1.886,0,0,1,1.671,1.016,35.528,35.528,0,0,0,24.789,9.993,35.8,35.8,0,0,0,35.76-35.76,35.8,35.8,0,0,0-35.76-35.76,36.112,36.112,0,0,0-9.047,1.148,1.133,1.133,0,0,1-.163.043,35.3,35.3,0,0,0-8.35,3.4,35.85,35.85,0,0,0-7.042,5.223,1.892,1.892,0,0,1-1.858,1.552h-9.591a1.89,1.89,0,0,1-1.887-1.889,1.89,1.89,0,0,1,1.887-1.889h8.318a39.725,39.725,0,0,1,7.739-5.954,38.99,38.99,0,0,1,8.516-3.728V-951h22.956v6.674a39.376,39.376,0,0,1,10.771,5.17,39.783,39.783,0,0,1,9.116,8.623,39.421,39.421,0,0,1,6,11.131,39.329,39.329,0,0,1,2.166,12.912,39.58,39.58,0,0,1-39.536,39.536A39.276,39.276,0,0,1-9562.556-877.964Zm35.066-67.31v-1.949h-15.4v1.942a40.005,40.005,0,0,1,7.7-.746A39.657,39.657,0,0,1-9527.489-945.274Zm-7.89,69.082h-.058c-.026,0-.053,0-.082,0-.046,0-.082,0-.113,0a30.007,30.007,0,0,1-11.6-2.493,30.254,30.254,0,0,1-9.5-6.52,30.258,30.258,0,0,1-6.407-9.589,30.008,30.008,0,0,1-2.349-11.694,30,30,0,0,1,2.347-11.692,30.231,30.231,0,0,1,6.4-9.584,30.264,30.264,0,0,1,9.5-6.52,30.041,30.041,0,0,1,11.579-2.5c.036,0,.074,0,.12,0s.061,0,.087,0h.072c.067,0,.132,0,.2,0a30.336,30.336,0,0,1,30.3,30.3,30.336,30.336,0,0,1-30.3,30.3C-9535.254-876.19-9535.316-876.19-9535.379-876.193Zm-.173-9.454h0a1.892,1.892,0,0,1,1.889,1.88l.015,3.757a26.408,26.408,0,0,0,17.093-7.627,26.4,26.4,0,0,0,7.817-16.965h-3.726a1.891,1.891,0,0,1-1.89-1.889,1.891,1.891,0,0,1,1.89-1.887h3.726a26.39,26.39,0,0,0-7.824-16.97,26.391,26.391,0,0,0-17.093-7.622l.017,3.742a1.892,1.892,0,0,1-1.88,1.894h-.01a1.892,1.892,0,0,1-1.887-1.88l-.017-3.709a26.434,26.434,0,0,0-16.624,7.8,26.421,26.421,0,0,0-7.6,16.746h3.726a1.889,1.889,0,0,1,1.89,1.887,1.891,1.891,0,0,1-1.89,1.889h-3.726a26.435,26.435,0,0,0,7.6,16.751,26.44,26.44,0,0,0,16.626,7.791l-.015-3.692a1.891,1.891,0,0,1,1.88-1.894Zm-37.82-1.2a1.891,1.891,0,0,1-1.89-1.887,1.891,1.891,0,0,1,1.89-1.889h9.589a1.891,1.891,0,0,1,1.889,1.889,1.89,1.89,0,0,1-1.889,1.887Zm-9.591-8.879a1.89,1.89,0,0,1-1.887-1.889,1.89,1.89,0,0,1,1.887-1.887h14.917a1.891,1.891,0,0,1,1.89,1.887,1.891,1.891,0,0,1-1.89,1.889Zm42.688-10.64-7.408-2.753,0,0-.6-.224a1.892,1.892,0,0,1-1.112-2.426,1.9,1.9,0,0,1,1.771-1.23,1.867,1.867,0,0,1,.657.118l8.01,2.975a5.055,5.055,0,0,1,3.764-1.673,5.024,5.024,0,0,1,1.933.388l8.787-9.049a1.881,1.881,0,0,1,1.355-.573,1.876,1.876,0,0,1,1.316.534,1.885,1.885,0,0,1,.573,1.326,1.875,1.875,0,0,1-.535,1.343l-8.787,9.047a5.083,5.083,0,0,1,.44,2.067,5.091,5.091,0,0,1-5.083,5.086A5.089,5.089,0,0,1-9540.274-906.364Zm3.875-.626-.017.048a1.225,1.225,0,0,0-.084.45,1.31,1.31,0,0,0,1.309,1.309,1.311,1.311,0,0,0,1.31-1.309,1.31,1.31,0,0,0-1.31-1.307h-.045A1.312,1.312,0,0,0-9536.4-906.99Zm-51.712,2.388a1.891,1.891,0,0,1-1.889-1.889,1.891,1.891,0,0,1,1.889-1.889h15.627a1.893,1.893,0,0,1,1.89,1.889,1.893,1.893,0,0,1-1.89,1.889Zm4.973-9.235a1.891,1.891,0,0,1-1.89-1.889,1.891,1.891,0,0,1,1.89-1.887h14.917a1.89,1.89,0,0,1,1.887,1.887,1.89,1.89,0,0,1-1.887,1.889Zm9.944-8.525a1.891,1.891,0,0,1-1.889-1.889,1.89,1.89,0,0,1,1.889-1.887h9.589a1.891,1.891,0,0,1,1.89,1.887,1.891,1.891,0,0,1-1.89,1.889Z" transform="translate(9590 951)" fill="url(#linear-gradient)"/>
</svg>
