<svg xmlns="http://www.w3.org/2000/svg" xmlns:xlink="http://www.w3.org/1999/xlink" width="83.238" height="84.635" viewBox="0 0 83.238 84.635">
  <defs>
    <linearGradient id="linear-gradient" x1="0.094" y1="0.078" x2="0.857" y2="0.94" gradientUnits="objectBoundingBox">
      <stop offset="0" stop-color="#1c83a6"/>
      <stop offset="0.429" stop-color="#6b59a6"/>
      <stop offset="1" stop-color="#c54961"/>
    </linearGradient>
  </defs>
  <path id="Union_10" data-name="Union 10" d="M-9555.2-869.238l-6.545-6.653H-9571a9.727,9.727,0,0,1-9.638-9.794V-895.1l-6.549-6.655a9.919,9.919,0,0,1,0-13.848l6.549-6.655v-9.421a9.727,9.727,0,0,1,9.638-9.794h9.253l6.547-6.653a9.49,9.49,0,0,1,6.819-2.872,9.5,9.5,0,0,1,6.819,2.872l6.544,6.653h9.255a9.729,9.729,0,0,1,9.641,9.794v9.421l6.545,6.655a9.928,9.928,0,0,1,0,13.845l-6.547,6.658v9.416a9.729,9.729,0,0,1-9.641,9.794h-9.255l-6.547,6.653a9.491,9.491,0,0,1-6.819,2.874A9.49,9.49,0,0,1-9555.2-869.238Zm-22.376-62.443v10.7l-7.439,7.563a6.715,6.715,0,0,0-1.931,4.739,6.716,6.716,0,0,0,1.931,4.742l7.439,7.563v10.692a6.648,6.648,0,0,0,6.578,6.7h10.523l7.442,7.565a6.477,6.477,0,0,0,4.65,1.959,6.474,6.474,0,0,0,4.65-1.959l7.445-7.565h10.525a6.65,6.65,0,0,0,6.581-6.7v-10.692l7.436-7.563a6.8,6.8,0,0,0,0-9.484l-7.436-7.56v-10.7a6.65,6.65,0,0,0-6.581-6.7h-10.525l-7.442-7.563a6.47,6.47,0,0,0-4.65-1.962,6.477,6.477,0,0,0-4.65,1.959l-7.445,7.565H-9571A6.648,6.648,0,0,0-9577.575-931.681Zm15.054,42.279a8.022,8.022,0,0,1-3.107-2.116,8.954,8.954,0,0,1-1.858-3.346,14.223,14.223,0,0,1-.59-4.251v-4.349h7.963v4.708a2.747,2.747,0,0,0,.431,1.82,1.385,1.385,0,0,0,1.088.351c.782,0,.97-.233,1.05-.332a3.878,3.878,0,0,0,.469-2.352v-2.823a4.487,4.487,0,0,0-.561-2.662c-.118-.144-.436-.534-1.717-.534h-3.225v-7.876h3.526a2.053,2.053,0,0,0,1.473-.409,2.878,2.878,0,0,0,.5-2.015v-2.291a3.613,3.613,0,0,0-.469-2.113c-.08-.1-.266-.33-1.045-.33a1.385,1.385,0,0,0-1.088.349,2.747,2.747,0,0,0-.431,1.82v3.683h-7.963v-3.322a14.228,14.228,0,0,1,.59-4.253,8.924,8.924,0,0,1,1.858-3.343,8,8,0,0,1,3.107-2.116,11.313,11.313,0,0,1,4.077-.693,11.309,11.309,0,0,1,4.075.693,8,8,0,0,1,3.107,2.116,8.924,8.924,0,0,1,1.858,3.343,14.226,14.226,0,0,1,.592,4.253v.924a11.427,11.427,0,0,1-1.1,5.353,6.981,6.981,0,0,1-1.5,1.966l-.106.094a7.359,7.359,0,0,1,1.666,2.234,9.742,9.742,0,0,1,.8,2.484,15.074,15.074,0,0,1,.243,2.8v2.823a14.221,14.221,0,0,1-.592,4.251,8.954,8.954,0,0,1-1.858,3.346,8.022,8.022,0,0,1-3.107,2.116,11.31,11.31,0,0,1-4.075.691A11.313,11.313,0,0,1-9562.521-889.4Zm-2.841-9.712a8.378,8.378,0,0,0,1.74,5.748,6.646,6.646,0,0,0,5.178,1.911,6.641,6.641,0,0,0,5.175-1.911,8.373,8.373,0,0,0,1.74-5.748v-2.823a9.343,9.343,0,0,0-.76-4.068,4.506,4.506,0,0,0-2.313-2.219l-2.905-1.288,2.93-1.235a4.328,4.328,0,0,0,2.265-2.046,8.788,8.788,0,0,0,.784-4.075v-.924c0-2.535-.584-4.467-1.74-5.748a6.642,6.642,0,0,0-5.175-1.914,6.647,6.647,0,0,0-5.178,1.914c-1.155,1.281-1.74,3.213-1.74,5.748v.578h2.532v-.939a7.343,7.343,0,0,1,.256-2.024,4.18,4.18,0,0,1,.863-1.622,3.949,3.949,0,0,1,3.115-1.268,3.773,3.773,0,0,1,3.155,1.35,4.51,4.51,0,0,1,.838,1.793,9.844,9.844,0,0,1,.24,2.335v.566l0,0v1.435a5.4,5.4,0,0,1-1.276,3.938,4.507,4.507,0,0,1-3.41,1.232h-.812v2.385h.51a4.594,4.594,0,0,1,3.811,1.531,6.717,6.717,0,0,1,1.182,4.41v2.823a9.513,9.513,0,0,1-.243,2.311,4.437,4.437,0,0,1-.84,1.779,3.779,3.779,0,0,1-3.15,1.338,3.949,3.949,0,0,1-3.115-1.268,4.208,4.208,0,0,1-.863-1.625,7.312,7.312,0,0,1-.256-2.022v-1.964h-2.532Zm22.8,9.71a8.221,8.221,0,0,1-3.156-2.1,8.985,8.985,0,0,1-1.916-3.343,13.769,13.769,0,0,1-.618-4.268V-917.8a13.753,13.753,0,0,1,.618-4.265,8.959,8.959,0,0,1,1.919-3.343,8.251,8.251,0,0,1,3.153-2.106,11.521,11.521,0,0,1,4.092-.691,11.521,11.521,0,0,1,4.094.691,8.251,8.251,0,0,1,3.153,2.106,8.959,8.959,0,0,1,1.919,3.343,13.753,13.753,0,0,1,.618,4.265v18.678a13.769,13.769,0,0,1-.618,4.268,8.972,8.972,0,0,1-1.916,3.343,8.247,8.247,0,0,1-3.153,2.1,11.481,11.481,0,0,1-4.1.691A11.449,11.449,0,0,1-9542.558-889.4Zm-1.17-34.127a6.233,6.233,0,0,0-1.321,2.328,11.009,11.009,0,0,0-.484,3.406v18.678a11.035,11.035,0,0,0,.484,3.408,6.246,6.246,0,0,0,1.318,2.328,6.868,6.868,0,0,0,5.265,1.926,6.869,6.869,0,0,0,5.267-1.926,6.251,6.251,0,0,0,1.321-2.328,11.127,11.127,0,0,0,.481-3.408V-917.8a11.1,11.1,0,0,0-.481-3.406,6.237,6.237,0,0,0-1.324-2.328,6.85,6.85,0,0,0-5.264-1.926A6.848,6.848,0,0,0-9543.728-923.531Zm2.149,28.42a4.21,4.21,0,0,1-.864-1.625,7.241,7.241,0,0,1-.255-2.022v-19.4a7.259,7.259,0,0,1,.255-2.024,4.21,4.21,0,0,1,.864-1.625,3.95,3.95,0,0,1,3.112-1.266,3.956,3.956,0,0,1,3.117,1.268,4.217,4.217,0,0,1,.861,1.622,7.265,7.265,0,0,1,.258,2.024v19.4a7.265,7.265,0,0,1-.258,2.024,4.182,4.182,0,0,1-.864,1.622,3.949,3.949,0,0,1-3.114,1.268A3.959,3.959,0,0,1-9541.578-895.111Zm2.026-24.867a2.744,2.744,0,0,0-.431,1.822v19.4a2.746,2.746,0,0,0,.431,1.82,1.387,1.387,0,0,0,1.086.349,1.385,1.385,0,0,0,1.088-.349,2.741,2.741,0,0,0,.431-1.82v-19.4a2.735,2.735,0,0,0-.431-1.82,1.385,1.385,0,0,0-1.088-.351A1.392,1.392,0,0,0-9539.552-919.978Z" transform="translate(9590 950.999)" fill="url(#linear-gradient)"/>
</svg>
