<svg xmlns="http://www.w3.org/2000/svg" xmlns:xlink="http://www.w3.org/1999/xlink" width="144.153" height="84.391" viewBox="0 0 144.153 84.391">
  <defs>
    <linearGradient id="linear-gradient" x1="0.151" y1="-0.027" x2="0.798" y2="0.949" gradientUnits="objectBoundingBox">
      <stop offset="0" stop-color="#277da7"/>
      <stop offset="0.57" stop-color="#4d68a7"/>
      <stop offset="1" stop-color="#9f4f7d"/>
    </linearGradient>
  </defs>
  <path id="Union_14" data-name="Union 14" d="M-9467.861-866.609v-.072a1.78,1.78,0,0,1-.327-.125,1.842,1.842,0,0,1-1.028-1.661V-873.6h-48.708a34.971,34.971,0,0,1-24.894-10.313,34.976,34.976,0,0,1-10.312-24.893,35.209,35.209,0,0,1,1.877-11.374,1.858,1.858,0,0,1,1.757-1.256,1.836,1.836,0,0,1,.6.1,1.854,1.854,0,0,1,1.155,2.354,31.438,31.438,0,0,0-1.678,10.176,31.53,31.53,0,0,0,31.5,31.495h50.562a1.858,1.858,0,0,1,1.855,1.856v3.273l14.718-11.066-14.718-11.066v3.273a1.858,1.858,0,0,1-1.855,1.853h-33.888a1.855,1.855,0,0,1-1.853-1.853,1.856,1.856,0,0,1,1.853-1.856h32.034v-5.134a1.841,1.841,0,0,1,1.025-1.658,1.848,1.848,0,0,1,.828-.2,1.861,1.861,0,0,1,1.116.373l19.659,14.782a1.87,1.87,0,0,1,.741,1.483,1.867,1.867,0,0,1-.741,1.483l-19.659,14.782a1.857,1.857,0,0,1-1.116.373Zm-69.982-22.277a27.985,27.985,0,0,1-8.25-19.921,27.926,27.926,0,0,1,2.722-12.1,1.862,1.862,0,0,1,1.676-1.057,1.832,1.832,0,0,1,.8.181,1.839,1.839,0,0,1,.95,1.054,1.837,1.837,0,0,1-.074,1.418,24.239,24.239,0,0,0-2.361,10.5,24.488,24.488,0,0,0,24.46,24.46,24.241,24.241,0,0,0,10.5-2.361,1.838,1.838,0,0,1,.8-.18,1.861,1.861,0,0,1,1.673,1.057,1.846,1.846,0,0,1,.074,1.418,1.839,1.839,0,0,1-.95,1.054,27.865,27.865,0,0,1-10.915,2.7l.024.022-1.206,0A27.991,27.991,0,0,1-9537.844-888.886Zm69.66,5.637a1.856,1.856,0,0,1,1.853-1.856,1.856,1.856,0,0,1,1.855,1.856,1.856,1.856,0,0,1-1.855,1.856A1.856,1.856,0,0,1-9468.184-883.25Zm-7.637,0a1.856,1.856,0,0,1,1.853-1.856,1.858,1.858,0,0,1,1.855,1.856,1.858,1.858,0,0,1-1.855,1.856A1.856,1.856,0,0,1-9475.82-883.25Zm-7.637,0a1.858,1.858,0,0,1,1.855-1.856,1.856,1.856,0,0,1,1.853,1.856,1.856,1.856,0,0,1-1.853,1.856A1.858,1.858,0,0,1-9483.457-883.25Zm-7.637,0a1.858,1.858,0,0,1,1.855-1.856,1.858,1.858,0,0,1,1.855,1.856,1.858,1.858,0,0,1-1.855,1.856A1.858,1.858,0,0,1-9491.094-883.25Zm-7.637,0a1.858,1.858,0,0,1,1.855-1.856,1.856,1.856,0,0,1,1.853,1.856,1.856,1.856,0,0,1-1.853,1.856A1.858,1.858,0,0,1-9498.73-883.25Zm-20.855-8.948v-4.2a28.993,28.993,0,0,1-6.83-1.114l-.633-.18v-4.072l1.152.392a22.5,22.5,0,0,0,7.291,1.273,9.738,9.738,0,0,0,4.94-.977,3.013,3.013,0,0,0,1.476-2.775c0-1.232-.47-2.871-4.522-2.871h-2.861c-5.247,0-8.135-2.5-8.135-7.033a6.538,6.538,0,0,1,2.216-5.244,10.605,10.605,0,0,1,5.906-2.12v-4.291h3.83v4.219a29.334,29.334,0,0,1,6.324,1.1l.631.181v4.072l-1.15-.392a22.444,22.444,0,0,0-7.269-1.273,9.8,9.8,0,0,0-4.958.98,3,3,0,0,0-1.48,2.773,2.723,2.723,0,0,0,.944,2.308,5.108,5.108,0,0,0,3.141.785h3.359v.007a9.684,9.684,0,0,1,5.858,1.745,6.115,6.115,0,0,1,2.217,5.061,6.565,6.565,0,0,1-2.08,5.119,10,10,0,0,1-5.537,2.178v4.356Zm25.12-3.451-.015-.031a1.893,1.893,0,0,1-.467-.149,1.839,1.839,0,0,1-.953-1.057,1.837,1.837,0,0,1,.074-1.418,24.224,24.224,0,0,0,2.361-10.5,24.488,24.488,0,0,0-24.46-24.46,24.251,24.251,0,0,0-10.5,2.361,1.826,1.826,0,0,1-.8.181,1.862,1.862,0,0,1-1.675-1.057,1.856,1.856,0,0,1,.876-2.472,27.916,27.916,0,0,1,12.1-2.722,27.984,27.984,0,0,1,19.921,8.25,27.983,27.983,0,0,1,8.25,19.918,27.912,27.912,0,0,1-2.722,12.1,1.86,1.86,0,0,1-1.675,1.059Zm7.517-.626a1.855,1.855,0,0,1-1.158-2.354,31.44,31.44,0,0,0,1.68-10.176,31.531,31.531,0,0,0-31.5-31.5l-.095,0h-50.467a1.858,1.858,0,0,1-1.855-1.856v-3.273l-14.718,11.069,14.718,11.066v-3.273a1.858,1.858,0,0,1,1.855-1.856h33.888a1.856,1.856,0,0,1,1.853,1.856,1.856,1.856,0,0,1-1.853,1.856h-32.032v5.131a1.847,1.847,0,0,1-1.027,1.661,1.836,1.836,0,0,1-.327.125v.07h-.5a1.84,1.84,0,0,1-1.114-.371l-19.658-14.782a1.862,1.862,0,0,1-.741-1.483,1.858,1.858,0,0,1,.741-1.483l19.658-14.782a1.858,1.858,0,0,1,1.114-.373,1.862,1.862,0,0,1,.828.195,1.847,1.847,0,0,1,1.027,1.661v5.134h48.706a34.991,34.991,0,0,1,24.9,10.311,34.988,34.988,0,0,1,10.311,24.9,35.231,35.231,0,0,1-1.877,11.374,1.856,1.856,0,0,1-1.755,1.254A1.807,1.807,0,0,1-9486.949-896.275Zm-53.879-38.087a1.858,1.858,0,0,1,1.856-1.856,1.858,1.858,0,0,1,1.855,1.856,1.856,1.856,0,0,1-1.855,1.853A1.856,1.856,0,0,1-9540.828-934.362Zm-7.634,0a1.856,1.856,0,0,1,1.854-1.856,1.858,1.858,0,0,1,1.855,1.856,1.856,1.856,0,0,1-1.855,1.853A1.854,1.854,0,0,1-9548.462-934.362Zm-7.637,0a1.858,1.858,0,0,1,1.855-1.856,1.858,1.858,0,0,1,1.854,1.856,1.856,1.856,0,0,1-1.854,1.853A1.856,1.856,0,0,1-9556.1-934.362Zm-7.637,0a1.856,1.856,0,0,1,1.855-1.856,1.858,1.858,0,0,1,1.854,1.856,1.856,1.856,0,0,1-1.854,1.853A1.854,1.854,0,0,1-9563.735-934.362Zm-7.637,0a1.858,1.858,0,0,1,1.855-1.856,1.856,1.856,0,0,1,1.854,1.856,1.854,1.854,0,0,1-1.854,1.853A1.856,1.856,0,0,1-9571.372-934.362Z" transform="translate(9590 951)" fill="url(#linear-gradient)"/>
</svg>
