<svg xmlns="http://www.w3.org/2000/svg" xmlns:xlink="http://www.w3.org/1999/xlink" width="79.758" height="84" viewBox="0 0 79.758 84">
  <defs>
    <linearGradient id="linear-gradient" y1="0.074" x2="1.083" y2="0.921" gradientUnits="objectBoundingBox">
      <stop offset="0" stop-color="#1d83a7"/>
      <stop offset="0.53" stop-color="#6759a6"/>
      <stop offset="1" stop-color="#c54961"/>
    </linearGradient>
  </defs>
  <path id="Union_9" data-name="Union 9" d="M-9573.9-867.252a20.679,20.679,0,0,1-9.8-5.538,21.185,21.185,0,0,1-4.759-7.835,30.893,30.893,0,0,1-1.54-10.084v-35.833a30.764,30.764,0,0,1,1.553-10.121,20.933,20.933,0,0,1,4.784-7.832,20.223,20.223,0,0,1,7.836-4.918A31.412,31.412,0,0,1-9565.434-951a31.693,31.693,0,0,1,10.407,1.579,20.15,20.15,0,0,1,7.851,4.9,20.863,20.863,0,0,1,4.765,7.832,31.052,31.052,0,0,1,1.545,10.149v19.154a7.49,7.49,0,0,1-2.169,5.287,7.476,7.476,0,0,1-5.256,2.238l-.155,0h-.1a7.529,7.529,0,0,1-7.518-7.525v-19.157c0-3.286-.752-5.784-2.231-7.424-1.428-1.579-3.83-2.381-7.14-2.381s-5.713.8-7.139,2.381c-1.481,1.64-2.233,4.138-2.233,7.424v35.833c0,3.269.752,5.756,2.233,7.393a15.916,15.916,0,0,0,3.459,1.724,7.613,7.613,0,0,1,3.015,2.283,7.582,7.582,0,0,1,1.531,3.462l.392,2.4h-.358a7.488,7.488,0,0,1-1.709,3.775,7.508,7.508,0,0,1-5.726,2.668A7.574,7.574,0,0,1-9573.9-867.252Zm-.555-78.261a16.1,16.1,0,0,0-6.251,3.906,16.835,16.835,0,0,0-3.835,6.3,26.627,26.627,0,0,0-1.324,8.76v35.833a26.7,26.7,0,0,0,1.316,8.729,16.955,16.955,0,0,0,3.82,6.312,16.594,16.594,0,0,0,7.88,4.418,3.488,3.488,0,0,0,.879.115,3.39,3.39,0,0,0,2.575-1.21,3.328,3.328,0,0,0,.758-2.744l-.021-.14a3.4,3.4,0,0,0-2.05-2.546c-3.434-1.436-4.4-2.188-4.9-2.733-2.21-2.423-3.331-5.857-3.331-10.2v-35.833c0-4.342,1.111-7.771,3.3-10.2,2.243-2.484,5.682-3.744,10.21-3.744s7.965,1.26,10.207,3.744c2.19,2.425,3.3,5.854,3.3,10.2v19.157A3.392,3.392,0,0,0-9548.5-904l.155,0a3.36,3.36,0,0,0,2.364-1.009,3.365,3.365,0,0,0,.975-2.381v-19.154a26.949,26.949,0,0,0-1.315-8.8,16.733,16.733,0,0,0-3.813-6.293,16.013,16.013,0,0,0-6.257-3.881,27.505,27.505,0,0,0-9.042-1.35A27.361,27.361,0,0,0-9574.454-945.512Zm61.064,70.048v-22.991h3.148v22.991Zm-8.4,0v-13.569q0-.7.033-2.333t.032-3.49l-6.558,19.392h-3.083l-6.6-19.392v.7q0,.847.037,2.576c.026,1.151.042,2,.042,2.543v13.569h-2.977v-22.991h4.462l6.6,19.437,6.555-19.437h4.416v22.991Zm-40.079,0v-22.991h16.761v2.817h-13.725v6.98h12.69V-886h-12.69v7.8h13.96v2.738Z" transform="translate(9589.999 951)" fill="url(#linear-gradient)"/>
</svg>
