<svg id="Group_6" data-name="Group 6" xmlns="http://www.w3.org/2000/svg" xmlns:xlink="http://www.w3.org/1999/xlink" width="112.769" height="70.381" viewBox="0 0 112.769 70.381">
  <defs>
    <linearGradient id="linear-gradient" x1="0.294" y1="0.054" x2="0.881" y2="1.05" gradientUnits="objectBoundingBox">
      <stop offset="0" stop-color="#1d83a6"/>
      <stop offset="0.404" stop-color="#6a59a6"/>
      <stop offset="1" stop-color="#c54961"/>
    </linearGradient>
  </defs>
  <path id="Path_24" data-name="Path 24" d="M109.84,66.669c-18.025-7.52-36.137-4.73-53.679-2.028-17.5,2.695-35.6,5.481-53.232-2.321V16.413c18.109,4.954,36.284-.531,53.88-5.836,17.446-5.265,35.478-10.7,53.031-5.6v61.69Zm1.9-64.176c-18.739-5.9-37.569-.216-55.784,5.276C38.173,13.132,19.779,18.683,1.9,13.056A1.473,1.473,0,0,0,.6,13.272,1.457,1.457,0,0,0,0,14.451V63.26a1.465,1.465,0,0,0,.849,1.329c18.709,8.648,37.543,5.748,55.759,2.944,17.787-2.739,36.178-5.573,54.082,2.706a1.446,1.446,0,0,0,.615.135,1.462,1.462,0,0,0,1.465-1.465V3.891A1.458,1.458,0,0,0,111.744,2.5h0Z" transform="translate(0 0.007)" fill="url(#linear-gradient)"/>
  <path id="Path_25" data-name="Path 25" d="M128.032,87.6h0a9.66,9.66,0,0,1-8.121-1.908,10.194,10.194,0,0,1-3.522-8.051c0-6.806,5.521-13.873,12.306-15.755a10.372,10.372,0,0,1,2.761-.388,8.123,8.123,0,0,1,4.987,1.633c2.4,1.827,3.778,5.012,3.778,8.74,0,7.4-5.466,14.455-12.185,15.725h0Zm10.182-26.8a11.533,11.533,0,0,0-10.3-1.735c-8.106,2.244-14.451,10.406-14.451,18.578a13.237,13.237,0,0,0,4.584,10.307,12.178,12.178,0,0,0,7.872,2.783,14.409,14.409,0,0,0,2.658-.253h0c8.172-1.545,14.572-9.717,14.572-18.6,0-4.65-1.8-8.685-4.932-11.072h0Z" transform="translate(-71.918 -37.118)" fill="url(#linear-gradient)"/>
  <path id="Path_26" data-name="Path 26" d="M115.29,37.264V57.127a9.593,9.593,0,0,0-6.653,2.043,12.664,12.664,0,0,0-4.569,8.666c-11.753-.86-23.583,1.175-35.039,3.149-11.35,1.955-23.074,3.976-34.541,3.1-.652-5.221-5.038-9.849-11.222-11.786V47.34A10.5,10.5,0,0,0,30.588,45a10.708,10.708,0,0,0,3.888-6.957c11.8-.417,23.689-3.786,35.2-7.048,11.3-3.2,22.968-6.51,34.384-6.935a15.6,15.6,0,0,0,11.229,13.2h0ZM106.477,21.52a1.465,1.465,0,0,0-1.051-.421c-12.247.2-24.6,3.7-36.544,7.081-11.764,3.332-23.927,6.781-35.793,6.971a1.467,1.467,0,0,0-1.443,1.465,7.762,7.762,0,0,1-9.538,7.619A1.466,1.466,0,0,0,20.34,45.67V63.41a1.465,1.465,0,0,0,1.106,1.421c6,1.519,10.2,5.884,10.2,10.611A1.464,1.464,0,0,0,32.972,76.9c2.409.231,4.818.33,7.231.33,9.86,0,19.724-1.7,29.324-3.354,11.76-2.025,23.92-4.119,35.782-2.995a1.464,1.464,0,0,0,1.6-1.457,10.013,10.013,0,0,1,3.522-7.941,6.709,6.709,0,0,1,5.957-1.219,1.463,1.463,0,0,0,1.823-1.421V36.118a1.462,1.462,0,0,0-1.161-1.432A12.622,12.622,0,0,1,106.909,22.56a1.468,1.468,0,0,0-.436-1.043h0Z" transform="translate(-12.893 -13.371)" fill="url(#linear-gradient)"/>
</svg>
