<svg xmlns="http://www.w3.org/2000/svg" xmlns:xlink="http://www.w3.org/1999/xlink" width="82.772" height="84" viewBox="0 0 82.772 84">
  <defs>
    <linearGradient id="linear-gradient" x1="0.294" y1="0.054" x2="0.881" y2="1.05" gradientUnits="objectBoundingBox">
      <stop offset="0" stop-color="#1d83a6"/>
      <stop offset="0.404" stop-color="#6a59a6"/>
      <stop offset="1" stop-color="#c54961"/>
    </linearGradient>
  </defs>
  <path id="Union_12" data-name="Union 12" d="M-9554.045-868.452l-26.967-15.568a10.9,10.9,0,0,1-5.432-9.411v-8.024a1.812,1.812,0,0,1,1.813-1.812,1.814,1.814,0,0,1,1.814,1.812v8.024a7.262,7.262,0,0,0,3.619,6.269l26.965,15.568a7.261,7.261,0,0,0,3.62.965,7.251,7.251,0,0,0,3.618-.965l26.967-15.568a7.264,7.264,0,0,0,3.619-6.269V-906.4l-.458.456a1.8,1.8,0,0,1-1.282.533,1.8,1.8,0,0,1-1.281-.533,1.781,1.781,0,0,1-.532-1.282,1.79,1.79,0,0,1,.532-1.284l3.552-3.552a1.8,1.8,0,0,1,1.284-.533,1.8,1.8,0,0,1,1.282.533l3.555,3.555a1.8,1.8,0,0,1,.529,1.282,1.816,1.816,0,0,1-.529,1.284,1.817,1.817,0,0,1-1.285.531,1.8,1.8,0,0,1-1.281-.533l-.458-.456v12.966a10.892,10.892,0,0,1-5.434,9.409l-26.965,15.57a10.883,10.883,0,0,1-5.433,1.452A10.867,10.867,0,0,1-9554.045-868.452Zm-11.468-23.647a23.737,23.737,0,0,1-7-16.9,23.733,23.733,0,0,1,7-16.9,23.741,23.741,0,0,1,16.9-7,23.738,23.738,0,0,1,16.9,7,23.738,23.738,0,0,1,7,16.9,23.742,23.742,0,0,1-7,16.9,23.736,23.736,0,0,1-16.9,7A23.739,23.739,0,0,1-9565.513-892.1Zm-3.373-16.9a20.3,20.3,0,0,0,20.273,20.272A20.3,20.3,0,0,0-9528.342-909a20.3,20.3,0,0,0-20.271-20.275A20.3,20.3,0,0,0-9568.886-909Zm18.707,15.179v-2.508a29.5,29.5,0,0,1-6.338-.926,1.822,1.822,0,0,1-1.371-1.762,1.818,1.818,0,0,1,1.812-1.819,1.772,1.772,0,0,1,.5.072,22.822,22.822,0,0,0,6.259.907,10.047,10.047,0,0,0,5.244-1.078,3.232,3.232,0,0,0,1.535-2.95c0-1.337-.5-3.115-4.823-3.115h-2.956c-2.671,0-4.729-.6-6.11-1.771a6.641,6.641,0,0,1-2.142-5.345c0-4.448,2.822-6.958,8.388-7.469v-2.592a1.832,1.832,0,0,1,1.829-1.829,1.832,1.832,0,0,1,1.829,1.829v2.52a29.684,29.684,0,0,1,5.818.912,1.822,1.822,0,0,1,1.368,1.762,1.818,1.818,0,0,1-1.812,1.819,1.752,1.752,0,0,1-.5-.072,22.716,22.716,0,0,0-6.236-.907,10.118,10.118,0,0,0-5.264,1.078,3.231,3.231,0,0,0-1.538,2.95,2.96,2.96,0,0,0,1,2.484,5.4,5.4,0,0,0,3.371.859h2.956c2.81,0,4.972.569,6.427,1.692a6.182,6.182,0,0,1,2.279,5.2,6.61,6.61,0,0,1-2.229,5.3,10.323,10.323,0,0,1-5.639,2.1v2.657a1.828,1.828,0,0,1-1.829,1.827A1.827,1.827,0,0,1-9550.179-893.82Zm-34.455-11.588a1.813,1.813,0,0,1-1.282-.533l-3.552-3.552a1.806,1.806,0,0,1-.532-1.284,1.8,1.8,0,0,1,.532-1.282,1.8,1.8,0,0,1,1.282-.533,1.8,1.8,0,0,1,1.283.533l.457.456v-12.966a10.9,10.9,0,0,1,5.434-9.411l26.967-15.568a10.867,10.867,0,0,1,5.433-1.452,10.873,10.873,0,0,1,5.433,1.452l26.965,15.568a10.9,10.9,0,0,1,5.434,9.411v7.993a1.816,1.816,0,0,1-1.815,1.812,1.816,1.816,0,0,1-1.812-1.812v-7.993a7.262,7.262,0,0,0-3.619-6.269l-26.967-15.568a7.25,7.25,0,0,0-3.618-.965,7.26,7.26,0,0,0-3.62.965l-26.965,15.568a7.26,7.26,0,0,0-3.619,6.269v12.964l.455-.454a1.8,1.8,0,0,1,1.282-.533,1.8,1.8,0,0,1,1.284.533,1.794,1.794,0,0,1,.53,1.282,1.8,1.8,0,0,1-.53,1.284l-3.555,3.552a1.809,1.809,0,0,1-1.281.533Z" transform="translate(9590 951)" fill="url(#linear-gradient)"/>
</svg>
