<svg xmlns="http://www.w3.org/2000/svg" xmlns:xlink="http://www.w3.org/1999/xlink" width="140.011" height="27.695" viewBox="0 0 140.011 27.695">
  <defs>
    <clipPath id="clip-path">
      <path id="Path_1077" data-name="Path 1077" d="M75.507-28a.507.507,0,0,1,.507.507V-4.158a.507.507,0,0,1-.507.507A.507.507,0,0,1,75-4.158V-27.493A.507.507,0,0,1,75.507-28Z" transform="translate(-75 28)" fill="none" clip-rule="evenodd"/>
    </clipPath>
    <clipPath id="clip-path-2">
      <path id="Path_1076" data-name="Path 1076" d="M-62,176.255H304.26V-120H-62Z" transform="translate(62 120)" fill="none"/>
    </clipPath>
    <clipPath id="clip-path-3">
      <path id="Path_1080" data-name="Path 1080" d="M92.513-4.222a1.088,1.088,0,0,0,.794-.3,1.024,1.024,0,0,0,.318-.736,1.063,1.063,0,0,0-.258-.776h0L90.149-9.969a4.7,4.7,0,0,0,1.221-.437,3.27,3.27,0,0,0,.973-.776,3.6,3.6,0,0,0,.645-1.153,4.721,4.721,0,0,0,.238-1.571,4.628,4.628,0,0,0-.367-1.9,3.839,3.839,0,0,0-1-1.372,4.465,4.465,0,0,0-1.47-.835A5.433,5.433,0,0,0,88.6-18.3H84.549a1.443,1.443,0,0,0-1.152.457A1.612,1.612,0,0,0,83-16.75h0V-5.336a1.108,1.108,0,0,0,.308.785.984.984,0,0,0,.745.328,1.015,1.015,0,0,0,.755-.328,1.089,1.089,0,0,0,.318-.785h0V-9.512H87.19a1.069,1.069,0,0,1,.645.169,2.582,2.582,0,0,1,.467.467h0l3.475,4.3A1.006,1.006,0,0,0,92.513-4.222ZM88.362-11.54H85.125v-4.693h3.336a2.764,2.764,0,0,1,1.986.616,2.3,2.3,0,0,1,.636,1.73,2.378,2.378,0,0,1-.606,1.71,2.852,2.852,0,0,1-2.115.636ZM100.1-4.123a8.532,8.532,0,0,0,.9-.05,9.012,9.012,0,0,0,.894-.139,6.272,6.272,0,0,0,.794-.219,3.257,3.257,0,0,0,.626-.288,1,1,0,0,0,.437-.428,1.164,1.164,0,0,0,.1-.467.924.924,0,0,0-.1-.418.858.858,0,0,0-.288-.328.988.988,0,0,0-.457-.159,1.268,1.268,0,0,0-.586.089,8.31,8.31,0,0,1-1.162.348,5.208,5.208,0,0,1-1.122.129,2.77,2.77,0,0,1-1.9-.636,2.3,2.3,0,0,1-.725-1.829h0v-.239h5.62a1.2,1.2,0,0,0,.963-.358,1.353,1.353,0,0,0,.308-.915h0v-.557a5.027,5.027,0,0,0-.318-1.82,4.08,4.08,0,0,0-.894-1.412,3.918,3.918,0,0,0-1.39-.9A4.927,4.927,0,0,0,100-15.04a5.112,5.112,0,0,0-1.738.288,4.082,4.082,0,0,0-1.4.835,4.1,4.1,0,0,0-.953,1.322,5.115,5.115,0,0,0-.437,1.73q-.02.239-.03.547t-.01.636q0,.328.01.666t.03.616a5,5,0,0,0,.407,1.72,4.175,4.175,0,0,0,.943,1.352,4.259,4.259,0,0,0,1.42.885A5.123,5.123,0,0,0,100.1-4.123Zm2.026-6.3H97.517a2.861,2.861,0,0,1,.586-2,2.336,2.336,0,0,1,1.9-.746,2.348,2.348,0,0,1,1.8.686,2.3,2.3,0,0,1,.566,1.82q-.04.239-.238.239Zm8.023,6.3a8.165,8.165,0,0,0,1.44-.119,8.225,8.225,0,0,0,1.192-.3,7.259,7.259,0,0,0,.9-.368q.377-.189.6-.328a.9.9,0,0,0,.3-.328,1.062,1.062,0,0,0,.079-.447h0v-5.17a3.619,3.619,0,0,0-1.1-2.933,4.536,4.536,0,0,0-3.009-.925,8.024,8.024,0,0,0-1.758.189,5.851,5.851,0,0,0-1.281.408,1.119,1.119,0,0,0-.546.447,1.082,1.082,0,0,0-.149.527.858.858,0,0,0,.4.736,1.14,1.14,0,0,0,1.053.06,8.442,8.442,0,0,1,.983-.3,4.93,4.93,0,0,1,1.182-.139,2.522,2.522,0,0,1,1.688.457,1.873,1.873,0,0,1,.516,1.472h0v.656q-.7-.159-1.261-.249a8.116,8.116,0,0,0-1.261-.089,5.409,5.409,0,0,0-1.807.268,3.6,3.6,0,0,0-1.251.726,2.869,2.869,0,0,0-.735,1.054,3.346,3.346,0,0,0-.238,1.253,3.539,3.539,0,0,0,.258,1.362,3.058,3.058,0,0,0,.765,1.094,3.5,3.5,0,0,0,1.271.726A5.551,5.551,0,0,0,110.148-4.123Zm.179-1.849A2.637,2.637,0,0,1,108.7-6.4a1.472,1.472,0,0,1-.556-1.243,1.247,1.247,0,0,1,.586-1.1,2.666,2.666,0,0,1,1.5-.388,7.408,7.408,0,0,1,1.211.089q.536.089,1.192.249h0v2.207a4.531,4.531,0,0,1-.715.368A4.017,4.017,0,0,1,110.327-5.972Zm8,1.73a1,1,0,0,0,.755-.308,1.059,1.059,0,0,0,.3-.766h0v-12.11a1.04,1.04,0,0,0-.308-.766,1.014,1.014,0,0,0-.745-.308,1,1,0,0,0-.755.308,1.059,1.059,0,0,0-.3.766h0v12.11a1.023,1.023,0,0,0,.318.766A1.024,1.024,0,0,0,118.33-4.242Zm7.01.119a7.883,7.883,0,0,0,1.172-.089,4.2,4.2,0,0,0,1.053-.288,1.1,1.1,0,0,0,.556-.418,1.044,1.044,0,0,0,.159-.557,1.077,1.077,0,0,0-.089-.428.865.865,0,0,0-.248-.338,1.008,1.008,0,0,0-.407-.189,1.1,1.1,0,0,0-.546.02l-.685.2a2.7,2.7,0,0,1-.745.1,1.315,1.315,0,0,1-1.072-.408,1.778,1.778,0,0,1-.338-1.163h0v-4.952h2.741a1.006,1.006,0,0,0,.7-.268.86.86,0,0,0,.3-.666.86.86,0,0,0-.3-.666,1.006,1.006,0,0,0-.7-.268h-2.741v-1.511a1.04,1.04,0,0,0-.308-.766,1.014,1.014,0,0,0-.745-.308,1,1,0,0,0-.755.308,1.058,1.058,0,0,0-.3.766h0V-7.7a4.852,4.852,0,0,0,.2,1.412,3.111,3.111,0,0,0,.606,1.133,2.883,2.883,0,0,0,1.023.756A3.546,3.546,0,0,0,125.341-4.123Zm6.037,3.679a1.634,1.634,0,0,0,.894-.3,6,6,0,0,0,1.36-1.352,10.305,10.305,0,0,0,1.341-2.386h0l3.734-8.889a1.1,1.1,0,0,0,.089-.557,1.07,1.07,0,0,0-.179-.5,1.116,1.116,0,0,0-.377-.348,1.049,1.049,0,0,0-.526-.129.989.989,0,0,0-.665.229,1.425,1.425,0,0,0-.407.607h0l-2.463,6.383a.117.117,0,0,1-.1.06.078.078,0,0,1-.079-.06h0l-2.681-6.423a1.3,1.3,0,0,0-.387-.567,1.019,1.019,0,0,0-.685-.229.973.973,0,0,0-.487.129,1.157,1.157,0,0,0-.377.338,1.008,1.008,0,0,0-.179.487,1.2,1.2,0,0,0,.089.577h0l3.614,8.332a5.619,5.619,0,0,1-.973,1.74,5.165,5.165,0,0,1-1.112,1,1,1,0,0,0-.328.4,1.1,1.1,0,0,0-.109.457.929.929,0,0,0,.3.726A1.006,1.006,0,0,0,131.378-.444Z" transform="translate(-83 18.5)" fill="none"/>
    </clipPath>
    <clipPath id="clip-path-5">
      <path id="Path_1084" data-name="Path 1084" d="M6.767-3.65a13.469,13.469,0,0,0,2.393-.2,13.585,13.585,0,0,0,1.981-.5,12,12,0,0,0,1.5-.616q.627-.316.99-.55a1.506,1.506,0,0,0,.5-.55,1.791,1.791,0,0,0,.132-.749h0v-8.661q0-3.364-1.832-4.913a7.5,7.5,0,0,0-5-1.549,13.239,13.239,0,0,0-2.921.316,9.67,9.67,0,0,0-2.129.683,1.863,1.863,0,0,0-.908.749,1.823,1.823,0,0,0-.248.883,1.441,1.441,0,0,0,.66,1.232,1.882,1.882,0,0,0,1.75.1,13.955,13.955,0,0,1,1.634-.5,8.135,8.135,0,0,1,1.964-.233,4.168,4.168,0,0,1,2.806.766,3.152,3.152,0,0,1,.858,2.465h0v1.1q-1.155-.266-2.1-.416a13.387,13.387,0,0,0-2.1-.15,8.927,8.927,0,0,0-3,.45,5.974,5.974,0,0,0-2.08,1.216A4.806,4.806,0,0,0,.4-11.511a5.643,5.643,0,0,0-.4,2.1A5.97,5.97,0,0,0,.429-7.131,5.125,5.125,0,0,0,1.7-5.3,5.8,5.8,0,0,0,3.813-4.083,9.161,9.161,0,0,0,6.767-3.65Zm.3-3.1a4.358,4.358,0,0,1-2.707-.716,2.474,2.474,0,0,1-.924-2.082,2.093,2.093,0,0,1,.974-1.849,4.405,4.405,0,0,1,2.492-.65,12.219,12.219,0,0,1,2.014.15q.891.15,1.981.416h0v3.7A7.509,7.509,0,0,1,9.7-7.165,6.632,6.632,0,0,1,7.064-6.748Zm16.208,3.1a10.857,10.857,0,0,0,2.278-.233,13.433,13.433,0,0,0,1.964-.566,12.571,12.571,0,0,0,1.518-.683,10.338,10.338,0,0,0,.974-.583,1.278,1.278,0,0,0,.512-.566,2.156,2.156,0,0,0,.116-.766h0v-18.92a1.781,1.781,0,0,0-.5-1.282,1.664,1.664,0,0,0-1.254-.516,1.679,1.679,0,0,0-1.238.516,1.749,1.749,0,0,0-.512,1.282h0v5a12.923,12.923,0,0,0-1.981-.666,9.294,9.294,0,0,0-2.344-.3,6.8,6.8,0,0,0-5,1.782,7.545,7.545,0,0,0-2.063,4.913q-.033.466-.05,1.083t-.016,1.282q0,.666.016,1.3t.05,1.066a8.7,8.7,0,0,0,.693,2.8,6.489,6.489,0,0,0,1.535,2.165,6.983,6.983,0,0,0,2.294,1.4A8.445,8.445,0,0,0,23.272-3.65Zm.066-3.4q-3.8,0-4.093-3.9-.033-.4-.05-.916t-.017-1.066q0-.55.017-1.066t.05-.849a4.1,4.1,0,0,1,1.023-2.765,3.794,3.794,0,0,1,2.806-.933,8.058,8.058,0,0,1,2.41.35,7.378,7.378,0,0,1,1.65.683h0v9.26a4.071,4.071,0,0,1-.677.4,8.731,8.731,0,0,1-.941.383,8.753,8.753,0,0,1-1.089.3A5.35,5.35,0,0,1,23.338-7.048Zm15.515,3.4a13.469,13.469,0,0,0,2.393-.2,13.585,13.585,0,0,0,1.981-.5,12,12,0,0,0,1.5-.616q.627-.316.99-.55a1.506,1.506,0,0,0,.5-.55,1.791,1.791,0,0,0,.132-.749h0v-8.661q0-3.364-1.832-4.913a7.5,7.5,0,0,0-5-1.549,13.239,13.239,0,0,0-2.921.316,9.671,9.671,0,0,0-2.129.683,1.863,1.863,0,0,0-.908.749,1.823,1.823,0,0,0-.248.883,1.441,1.441,0,0,0,.66,1.232,1.882,1.882,0,0,0,1.75.1,13.954,13.954,0,0,1,1.634-.5,8.136,8.136,0,0,1,1.964-.233,4.168,4.168,0,0,1,2.806.766,3.152,3.152,0,0,1,.858,2.465h0v1.1q-1.155-.266-2.1-.416a13.387,13.387,0,0,0-2.1-.15,8.927,8.927,0,0,0-3,.45,5.974,5.974,0,0,0-2.08,1.216,4.806,4.806,0,0,0-1.221,1.765,5.643,5.643,0,0,0-.4,2.1,5.97,5.97,0,0,0,.429,2.282A5.125,5.125,0,0,0,33.786-5.3,5.8,5.8,0,0,0,35.9-4.083,9.161,9.161,0,0,0,38.853-3.65Zm.3-3.1a4.358,4.358,0,0,1-2.707-.716,2.474,2.474,0,0,1-.924-2.082,2.093,2.093,0,0,1,.974-1.849,4.405,4.405,0,0,1,2.492-.65,12.219,12.219,0,0,1,2.014.15q.891.15,1.981.416h0v3.7a7.51,7.51,0,0,1-1.188.616A6.632,6.632,0,0,1,39.15-6.748Zm22.183,2.9a1.664,1.664,0,0,0,1.254-.516,1.78,1.78,0,0,0,.5-1.282h0v-9.26a7.055,7.055,0,0,0-1.816-5.213,7.349,7.349,0,0,0-5.414-1.815,14.664,14.664,0,0,0-2.393.183,13.175,13.175,0,0,0-1.964.466,10.9,10.9,0,0,0-1.485.6,7.187,7.187,0,0,0-.99.583,1.889,1.889,0,0,0-.528.55,1.641,1.641,0,0,0-.165.816h0V-5.649a1.721,1.721,0,0,0,.528,1.282,1.7,1.7,0,0,0,1.221.516,1.664,1.664,0,0,0,1.254-.516,1.78,1.78,0,0,0,.5-1.282h0V-17.607a5.745,5.745,0,0,1,1.634-.65,8.962,8.962,0,0,1,2.294-.283,4.843,4.843,0,0,1,1.452.217,3.316,3.316,0,0,1,1.221.683,3.333,3.333,0,0,1,.842,1.183,4.259,4.259,0,0,1,.314,1.715h0v9.094a1.721,1.721,0,0,0,.528,1.282A1.7,1.7,0,0,0,61.333-3.85ZM67.043-24a1.823,1.823,0,0,0,1.386-.6,2.023,2.023,0,0,0,.561-1.432,1.91,1.91,0,0,0-.561-1.4A1.875,1.875,0,0,0,67.043-28a1.915,1.915,0,0,0-1.419.566,1.91,1.91,0,0,0-.561,1.4,2.023,2.023,0,0,0,.561,1.432A1.861,1.861,0,0,0,67.043-24Zm0,20.153A1.664,1.664,0,0,0,68.3-4.366a1.78,1.78,0,0,0,.5-1.282h0V-19.906a1.749,1.749,0,0,0-.512-1.282,1.679,1.679,0,0,0-1.238-.516,1.664,1.664,0,0,0-1.254.516,1.78,1.78,0,0,0-.5,1.282h0V-5.649a1.721,1.721,0,0,0,.528,1.282A1.7,1.7,0,0,0,67.043-3.85Z" transform="translate(0 28)" fill="none"/>
    </clipPath>
    <linearGradient id="linear-gradient" y1="0.306" x2="0" y2="36.878" gradientUnits="objectBoundingBox">
      <stop offset="0"/>
      <stop offset="0" stop-color="#1c84a6"/>
      <stop offset="0.1" stop-color="#277aab"/>
      <stop offset="0.2" stop-color="#3270af"/>
      <stop offset="0.3" stop-color="#4467af"/>
      <stop offset="0.4" stop-color="#5c5ea9"/>
      <stop offset="0.5" stop-color="#7455a3"/>
      <stop offset="0.6" stop-color="#81499c"/>
      <stop offset="0.7" stop-color="#8e3d95"/>
      <stop offset="0.8" stop-color="#a03f85"/>
      <stop offset="0.9" stop-color="#b24473"/>
      <stop offset="1" stop-color="#c54961"/>
      <stop offset="1"/>
    </linearGradient>
    <linearGradient id="linear-gradient-2" y1="0.306" x2="0.493" y2="0.306" gradientUnits="objectBoundingBox">
      <stop offset="0" stop-color="#1c84a6"/>
      <stop offset="0.1" stop-color="#277aab"/>
      <stop offset="0.2" stop-color="#3270af"/>
      <stop offset="0.3" stop-color="#4467af"/>
      <stop offset="0.4" stop-color="#5c5ea9"/>
      <stop offset="0.5" stop-color="#7455a3"/>
      <stop offset="0.6" stop-color="#81499c"/>
      <stop offset="0.7" stop-color="#8e3d95"/>
      <stop offset="0.8" stop-color="#a03f85"/>
      <stop offset="0.9" stop-color="#b24473"/>
      <stop offset="1" stop-color="#c54961"/>
    </linearGradient>
  </defs>
  <g id="Adani_Realty" data-name="Adani Realty" transform="translate(0 0)">
    <g id="Group_787" data-name="Group 787" transform="translate(76.093 0)" clip-path="url(#clip-path)">
      <g id="Group_786" data-name="Group 786" transform="translate(-138.996 -93.341)" clip-path="url(#clip-path-2)">
        <path id="Path_1075" data-name="Path 1075" d="M74-29h3.044V-2.621H74Z" transform="translate(63.982 121.326)" fill="#545454"/>
      </g>
    </g>
    <g id="Group_789" data-name="Group 789" transform="translate(84.209 9.638)" clip-path="url(#clip-path-3)">
      <g id="Group_788" data-name="Group 788" transform="translate(-147.113 -102.979)" clip-path="url(#clip-path-2)">
        <path id="Path_1078" data-name="Path 1078" d="M82-19.5h57.831V.585H82Z" transform="translate(64.098 121.464)" fill="#545454"/>
      </g>
    </g>
    <g id="Group_794" data-name="Group 794" transform="translate(0 0)" clip-path="url(#clip-path-5)">
      <g id="Group_793" data-name="Group 793" transform="translate(-62.903 -93.341)" clip-path="url(#clip-path-2)">
        <g id="Group_791" data-name="Group 791" transform="translate(62.903 93.341)" opacity="0">
          <g id="Group_790" data-name="Group 790">
            <path id="Path_1081" data-name="Path 1081" d="M0,0H140.011V28.408H0Z" fill="url(#linear-gradient)"/>
          </g>
        </g>
        <g id="Group_792" data-name="Group 792" transform="translate(62.903 93.341)">
          <path id="Path_1082" data-name="Path 1082" d="M0,0H140.011V28.408H0Z" fill="url(#linear-gradient-2)"/>
        </g>
      </g>
    </g>
  </g>
</svg>
