<?xml version="1.0" standalone="no"?>
<!DOCTYPE svg PUBLIC "-//W3C//DTD SVG 1.1//EN" "http://www.w3.org/Graphics/SVG/1.1/DTD/svg11.dtd" >
<svg>
<metadata>
Created by FontForge 20090914 at Fri Jan 16 11:56:12 2015
 By www-data
This font is a renamed version of Rubrik, licensed for use only within the Adani Group. Copyright (c) 2010 by Miles Newlyn. All rights reserved.
</metadata>
<defs>
<font id="Adani-Regular" horiz-adv-x="609" >
  <font-face 
    font-family="Adani Regular"
    font-weight="400"
    font-stretch="normal"
    units-per-em="1000"
    panose-1="2 0 5 3 0 0 0 2 0 4"
    ascent="750"
    descent="-250"
    x-height="515"
    cap-height="704.999"
    bbox="-25.1737 -284.001 1054.5 945.002"
    underline-thickness="70"
    underline-position="-30"
    unicode-range="U+0020-U+FB02"
  />
<missing-glyph horiz-adv-x="301" 
 />
    <glyph glyph-name="fi" unicode="fi" horiz-adv-x="665" 
d="M111 555c0 49.333 13.1641 88.833 39.4971 118.5s65.5 44.5 117.5 44.5c17.333 0 34 -1 50 -3s28.667 -4.66699 38 -8c21.333 -6 32 -18.667 32 -38c0 -8.66699 -3.16699 -16.834 -9.5 -24.501s-16.166 -11.5 -29.499 -11.5c-11.333 0 -23.166 1.5 -35.499 4.5
s-26.833 4.5 -43.5 4.5c-27.333 0 -47.166 -8.16699 -59.499 -24.5s-18.5 -39.166 -18.5 -68.499v-40h140c10.667 0 19.834 -3.5 27.501 -10.5s11.5 -15.833 11.5 -26.5s-3.83301 -19.5 -11.5 -26.5s-16.834 -10.5 -27.501 -10.5h-140v-397c0 -12 -3.83301 -22 -11.5 -30
s-17.167 -12 -28.5 -12s-21 4 -29 12s-12 18 -12 30v397h-35c-10.667 0 -19.834 3.5 -27.501 10.5s-11.5 15.833 -11.5 26.5s3.83301 19.5 11.5 26.5s16.834 10.5 27.501 10.5h35v46zM577.997 657c0 -13.333 -4.83301 -25.166 -14.5 -35.499s-21.5 -15.5 -35.5 -15.5
s-25.667 5.16699 -35 15.5s-14 22.166 -14 35.499c0 14 4.66699 25.833 14 35.5s21 14.5 35 14.5s25.833 -4.83301 35.5 -14.5s14.5 -21.5 14.5 -35.5zM527.997 526c11.333 0 21 -4.16699 29 -12.5s12 -18.166 12 -29.499v-446c0 -12 -3.83301 -22 -11.5 -30
s-17.5 -12 -29.5 -12c-10.667 0 -20 4 -28 12s-12 18 -12 30v446c0 11.333 3.83301 21.166 11.5 29.499s17.167 12.5 28.5 12.5z" />
    <glyph glyph-name=".notdef" horiz-adv-x="301" 
 />
    <glyph glyph-name="space" unicode=" " horiz-adv-x="273" 
 />
    <glyph glyph-name="space" unicode="&#xa0;" horiz-adv-x="273" 
 />
    <glyph glyph-name="exclam" unicode="!" horiz-adv-x="215" 
d="M67 659c0 11.333 4 21.167 12 29.5s17.667 12.5 29 12.5s20.833 -4.16699 28.5 -12.5s11.5 -18.166 11.5 -29.499l-5 -396c0 -10 -3.5 -18.5 -10.5 -25.5s-15.5 -10.5 -25.5 -10.5c-9.33301 0 -17.5 3.66699 -24.5 11s-10.5 15.666 -10.5 24.999zM66 84.001
c0 11.333 4.16699 20.833 12.5 28.5s18.166 11.5 29.499 11.5s21 -3.83301 29 -11.5s12 -17.167 12 -28.5v-53c0 -11.333 -4 -20.833 -12 -28.5s-17.667 -11.5 -29 -11.5s-21.166 4 -29.499 12s-12.5 17.333 -12.5 28v53z" />
    <glyph glyph-name="quotedbl" unicode="&#x22;" horiz-adv-x="349" 
d="M145 525c0 -11.333 -3.66699 -20.666 -11 -27.999s-16.666 -11 -27.999 -11s-20.833 3.66699 -28.5 11s-11.5 16.666 -11.5 27.999v136c0 11.333 3.83301 20.833 11.5 28.5s17.167 11.5 28.5 11.5s20.666 -3.83301 27.999 -11.5s11 -17.167 11 -28.5v-136zM283 525
c0 -11.333 -3.83301 -20.666 -11.5 -27.999s-17.167 -11 -28.5 -11s-20.666 3.66699 -27.999 11s-11 16.666 -11 27.999v136c0 11.333 3.66699 20.833 11 28.5s16.666 11.5 27.999 11.5s20.833 -3.83301 28.5 -11.5s11.5 -17.167 11.5 -28.5v-136z" />
    <glyph glyph-name="numbersign" unicode="#" horiz-adv-x="642" 
d="M156 18c-5.33301 -18 -16.335 -27 -33.002 -27c-15.333 0 -26 5.66699 -32 17s-6.66699 23.666 -2 36.999l52 162h-56c-11.333 0 -20.666 3.5 -27.999 10.5s-11 15.833 -11 26.5c0 11.333 3.83301 20.333 11.5 27s17.167 10 28.5 10h81l48 151h-58
c-11.333 0 -20.833 3.5 -28.5 10.5s-11.5 15.833 -11.5 26.5c0 11.333 3.83301 20.333 11.5 27s17.167 10 28.5 10h83l58 176c6 17.333 17 26 33 26c15.333 0 26 -5.66699 32 -17s6.66699 -23.666 2 -36.999l-48 -148h106l58 176c6 17.333 17.333 26 34 26
c14.667 0 25 -5.66699 31 -17s7 -23.666 3 -36.999l-49 -148h56c11.333 0 20.833 -3.33301 28.5 -10s11.5 -15.667 11.5 -27c0 -10.667 -3.83301 -19.5 -11.5 -26.5s-17.167 -10.5 -28.5 -10.5h-82l-48 -151h59c11.333 0 20.833 -3.33301 28.5 -10s11.5 -15.667 11.5 -27
c0 -10.667 -3.83301 -19.5 -11.5 -26.5s-17.167 -10.5 -28.5 -10.5h-84l-61 -189c-6 -18 -17.333 -27 -34 -27c-14.667 0 -25.167 5.66699 -31.5 17s-7.16602 23.666 -2.49902 36.999l52 162h-107zM242.998 281h107l48 151h-107z" />
    <glyph glyph-name="dollar" unicode="$" 
d="M547 203c0 -26.667 -5.16602 -51.1738 -15.499 -73.5068s-24.666 -41.666 -42.999 -57.999s-40 -29.333 -65 -39s-52.5 -15.167 -82.5 -16.5v-66c0 -11.333 -3.5 -20.666 -10.5 -27.999s-15.833 -11 -26.5 -11c-9.33301 0 -17.833 3.83301 -25.5 11.5
s-11.5 16.834 -11.5 27.501v68c-38 3.33301 -72 11.333 -102 24s-56 27 -78 43c-14.667 10.667 -22 23 -22 37c0 11.333 4.16699 21 12.5 29s18.166 12 29.499 12c9.33301 0 19 -4 29 -12c21.333 -16 47.666 -29.667 78.999 -41s64 -17 98 -17
c47.333 0 84.333 9.16699 111 27.5s40 45.833 40 82.5c0 14.667 -2.66699 27.667 -8 39s-14.833 21.333 -28.5 30s-32.167 16.667 -55.5 24s-52.666 15 -87.999 23c-36.667 8 -68.334 17.167 -95.001 27.5s-48.5 22.833 -65.5 37.5s-29.667 31.834 -38 51.501
s-12.5 42.167 -12.5 67.5s4.66699 48.5 14 69.5s22.5 39.333 39.5 55s37.333 28.334 61 38.001s50.167 15.834 79.5 18.501v65c0 11.333 3.83301 20.666 11.5 27.999s16.167 11 25.5 11c10.667 0 19.5 -3.66699 26.5 -11s10.5 -16.666 10.5 -27.999v-65
c30 -4 57.333 -10.667 82 -20s45 -20.666 61 -33.999c10 -8 15 -19 15 -33c0 -10.667 -4 -19.667 -12 -27s-17.667 -11 -29 -11c-5.33301 0 -10.166 1.16699 -14.499 3.5l-13.5 7.5c-21.333 13.333 -43.166 23 -65.499 29s-44.5 9 -66.5 9
c-28 0 -51.167 -3.16699 -69.5 -9.5s-32.833 -14.333 -43.5 -24s-18.167 -20.5 -22.5 -32.5s-6.5 -24 -6.5 -36c0 -18.667 3.33301 -33.834 10 -45.501s16.167 -21.5 28.5 -29.5s27.666 -14.667 45.999 -20s39.166 -10.333 62.499 -15c42 -8.66699 78.333 -18.5 109 -29.5
s56 -24 76 -39s34.833 -32.667 44.5 -53s14.5 -44.166 14.5 -71.499z" />
    <glyph glyph-name="percent" unicode="%" horiz-adv-x="748" 
d="M189 709c20.667 0 39.832 -3.83203 57.499 -11.499s33.167 -18.167 46.5 -31.5s23.833 -29 31.5 -47s12.167 -37.333 13.5 -58c0.666992 -16.667 0.666992 -33.334 0 -50.001c-1.33301 -20 -6 -39 -14 -57s-18.5 -33.833 -31.5 -47.5s-28.333 -24.334 -46 -32.001
s-36.834 -11.5 -57.501 -11.5s-39.834 3.83301 -57.501 11.5s-33.167 18.334 -46.5 32.001s-24.166 29.5 -32.499 47.5s-12.833 37 -13.5 57c-1.33301 17.333 -1.33301 34 0 50c0.666992 20.667 5 40 13 58s18.833 33.667 32.5 47s29.334 23.833 47.001 31.5
s36.834 11.5 57.501 11.5zM188.998 636.001c-21.333 0 -38.833 -7.5 -52.5 -22.5s-21.5 -33.5 -23.5 -55.5c-1.33301 -14.667 -1.33301 -29.334 0 -44.001c1.33301 -22 9 -40.333 23 -55s31.667 -22 53 -22s39 7.33301 53 22s21.667 33.334 23 56.001
c1.33301 12.667 1.33301 27 0 43c-1.33301 22 -9 40.5 -23 55.5s-31.667 22.5 -53 22.5zM544.998 604.001c7.33301 8 16.3311 12.3311 26.998 12.998s19.667 -2.33301 27 -9c8 -7.33301 12.167 -16.166 12.5 -26.499s-2.83398 -19.5 -9.50098 -27.5l-96.5 -111l-99.5 -114.5
l-99.5 -115l-96.5 -111.5c-7.33301 -7.33301 -16.166 -11.5 -26.499 -12.5s-19.5 2.16699 -27.5 9.5c-7.33301 6.66699 -11.166 15.334 -11.499 26.001s2.83398 19.667 9.50098 27zM559.996 335.999c20 0 38.8359 -3.83203 56.5029 -11.499s33.167 -18.334 46.5 -32.001
s24 -29.5 32 -47.5s12.667 -37 14 -57c0.666992 -16.667 0.666992 -33.334 0 -50.001c-1.33301 -20 -6 -39 -14 -57s-18.667 -33.833 -32 -47.5s-28.833 -24.334 -46.5 -32.001s-36.5 -11.5 -56.5 -11.5c-20.667 0 -39.834 3.83301 -57.501 11.5
s-33.334 18.334 -47.001 32.001s-24.5 29.5 -32.5 47.5s-12.667 37 -14 57c-1.33301 17.333 -1.33301 34 0 50c0.666992 20 5.16699 39 13.5 57s19.166 33.833 32.499 47.5s29 24.334 47 32.001s37.333 11.5 58 11.5zM558.999 263c-21.333 0 -38.667 -7.49902 -52 -22.499
s-21 -33.5 -23 -55.5c-1.33301 -14.667 -1.33301 -29.334 0 -44.001c1.33301 -22 8.83301 -40.333 22.5 -55s31.167 -22 52.5 -22s39 7.33301 53 22s21.667 33 23 55c1.33301 13.333 1.33301 28 0 44c-1.33301 22 -9 40.5 -23 55.5s-31.667 22.5 -53 22.5z" />
    <glyph glyph-name="ampersand" unicode="&#x26;" horiz-adv-x="694" 
d="M503 238c1.33301 22.667 6.83398 40 16.501 52s25.5 18 47.5 18h78c11.333 0 21.166 -3.83301 29.499 -11.5s12.5 -17.167 12.5 -28.5s-4 -21 -12 -29s-17.667 -12 -29 -12h-67c-2.66699 -37.333 -11.167 -70.666 -25.5 -99.999s-33.5 -54 -57.5 -74
s-51.667 -35.333 -83 -46s-65.333 -16 -102 -16c-42.667 0 -80.334 5 -113.001 15s-60 23.667 -82 41s-38.667 37.833 -50 61.5s-17 49.5 -17 77.5c0 42 10.5 77.333 31.5 106s54.5 51.667 100.5 69c-27.333 20 -49 42.167 -65 66.5s-24 54.5 -24 90.5
c0 26.667 5.16699 51.334 15.5 74.001s25 42.167 44 58.5s41.833 29.166 68.5 38.499s56 14 88 14c34 0 64.5 -4.66699 91.5 -14s50 -22 69 -38s33.5 -35 43.5 -57s15 -45.667 15 -71c0 -28.667 -4.5 -53.5 -13.5 -74.5s-22.667 -39.5 -41 -55.5
s-41.666 -29.667 -69.999 -41s-61.5 -21.333 -99.5 -30c-33.333 -7.33301 -60.833 -15.166 -82.5 -23.499s-39 -17.833 -52 -28.5s-22.167 -22.834 -27.5 -36.501s-8 -28.834 -8 -45.501c0 -35.333 15 -64 45 -86s73.667 -33 131 -33c30 0 56.833 4.33301 80.5 13
s43.667 20.5 60 35.5s29 32.833 38 53.5s14.167 43 15.5 67zM175.001 515c0 -16.667 3.00195 -31.332 9.00195 -43.999s13.667 -23.834 23 -33.501s19.666 -18 30.999 -25l33 -19.5c34 6.66699 62 13.5 84 20.5s39.667 15.167 53 24.5s22.666 20.5 27.999 33.5
s8 28.5 8 46.5c0 13.333 -2.5 26.333 -7.5 39s-13 24 -24 34s-25 18.167 -42 24.5s-37.5 9.5 -61.5 9.5c-45.333 0 -79 -10.833 -101 -32.5s-33 -47.5 -33 -77.5z" />
    <glyph glyph-name="quotesingle" unicode="'" horiz-adv-x="212" 
d="M145 525c0 -11.333 -3.66699 -20.666 -11 -27.999s-16.666 -11 -27.999 -11s-20.833 3.66699 -28.5 11s-11.5 16.666 -11.5 27.999v136c0 11.333 3.83301 20.833 11.5 28.5s17.167 11.5 28.5 11.5s20.666 -3.83301 27.999 -11.5s11 -17.167 11 -28.5v-136z" />
    <glyph glyph-name="parenleft" unicode="(" horiz-adv-x="351" 
d="M159 309c0 -78.667 14.667 -154.171 44 -226.504s73 -135.5 131 -189.5c6.66699 -6.66699 10.667 -14.667 12 -24s-0.666992 -18 -6 -26c-6 -9.33301 -14.667 -15.166 -26 -17.499s-22 0.833984 -32 9.50098c-34 32 -63.667 66.5 -89 103.5s-46.5 75.667 -63.5 116
s-29.667 82 -38 125s-12.5 86.167 -12.5 129.5s4.16699 86.333 12.5 129s21 84.334 38 125.001s38.167 79.5 63.5 116.5s55 71.167 89 102.5c10 9.33301 20.667 12.833 32 10.5s20 -8.16602 26 -17.499c5.33301 -8 7.33301 -16.667 6 -26s-5.33301 -17.333 -12 -24
c-58 -54 -101.667 -117.167 -131 -189.5s-44 -147.833 -44 -226.5z" />
    <glyph glyph-name="parenright" unicode=")" horiz-adv-x="351" 
d="M192 309c0 78.667 -14.667 154.171 -44 226.504s-73 135.5 -131 189.5c-6.66699 6.66699 -10.667 14.667 -12 24s0.666992 18 6 26c6 9.33301 14.667 15.166 26 17.499s22 -1.16699 32 -10.5c34 -31.333 63.667 -65.5 89 -102.5s46.5 -75.833 63.5 -116.5
s29.667 -82.334 38 -125.001s12.5 -85.667 12.5 -129s-4.16699 -86.5 -12.5 -129.5s-21 -84.667 -38 -125s-38.167 -79 -63.5 -116s-55 -71.5 -89 -103.5c-10 -8.66699 -20.667 -11.834 -32 -9.50098s-20 8.16602 -26 17.499c-5.33301 8 -7.33301 16.667 -6 26
s5.33301 17.333 12 24c58 54 101.667 117.167 131 189.5s44 147.833 44 226.5z" />
    <glyph glyph-name="asterisk" unicode="*" horiz-adv-x="389" 
d="M195 704c9.33301 0 17.4912 -3.33301 24.4912 -10s10.167 -16 9.5 -28l-5 -84l39 25.5l21.5 14.5c5 3.33301 8.33301 5.66602 10 6.99902s2.83398 2 3.50098 2c8.66699 6 17.834 8.16699 27.501 6.5s16.834 -6.5 21.501 -14.5c6 -10.667 6.83301 -20.334 2.5 -29.001
s-10.166 -15 -17.499 -19l-83 -42l83 -41c7.33301 -3.33301 13.166 -9.5 17.499 -18.5s3.5 -18.833 -2.5 -29.5c-4.66699 -8 -11.667 -12.667 -21 -14s-18.666 0.666992 -27.999 6l-75 47l6 -84c1.33301 -12 -1.66699 -21.333 -9 -28s-15.666 -10 -24.999 -10
s-17.666 3.33301 -24.999 10s-10.333 16 -9 28l6 84l-75 -47c-9.33301 -5.33301 -18.666 -7.33301 -27.999 -6s-16.333 6 -21 14c-6 10.667 -6.83301 20.5 -2.5 29.5s10.166 15.167 17.499 18.5l83 41l-83 42c-7.33301 4 -13.166 10.333 -17.499 19s-3.5 18.334 2.5 29.001
c4.66699 8 11.834 12.833 21.501 14.5s18.834 -0.5 27.501 -6.5c0.666992 0 1.66699 -0.666992 3 -2s4.5 -3.66602 9.5 -6.99902l22 -14.5l39.5 -25.5l-5 84c-0.666992 12 2.5 21.333 9.5 28s15.167 10 24.5 10z" />
    <glyph glyph-name="plus" unicode="+" horiz-adv-x="628" 
d="M275 311h-174c-11.333 0 -21 3.66699 -29 11s-12 16.666 -12 27.999s4 20.833 12 28.5s17.667 11.5 29 11.5h174v174c0 11.333 3.83301 21 11.5 29s17.167 12 28.5 12s20.833 -4 28.5 -12s11.5 -17.667 11.5 -29v-174h172c11.333 0 21 -3.83301 29 -11.5
s12 -17.167 12 -28.5s-4 -20.666 -12 -27.999s-17.667 -11 -29 -11h-172v-175c0 -11.333 -3.83301 -21 -11.5 -29s-17.167 -12 -28.5 -12s-20.833 4 -28.5 12s-11.5 17.667 -11.5 29v175z" />
    <glyph glyph-name="comma" unicode="," horiz-adv-x="214" 
d="M148 59c0 -25.333 -1.33398 -47.5 -4.00098 -66.5s-9.66699 -38.5 -21 -58.5c-4.66699 -8 -10.667 -14.667 -18 -20s-15.666 -8 -24.999 -8c-11.333 0 -20.333 3.83301 -27 11.5s-10 16.167 -10 25.5c0 6.66699 1.16699 12.334 3.5 17.001l8 16
c3 6 5.66699 13.167 8 21.5s3.5 20.166 3.5 35.499v52c0 11.333 4 20.833 12 28.5s17.667 11.5 29 11.5s21 -3.83301 29 -11.5s12 -17.167 12 -28.5v-26z" />
    <glyph glyph-name="hyphen" unicode="-" horiz-adv-x="339" 
d="M288 286c0 -11.333 -4.16699 -20.833 -12.5 -28.5s-18.166 -11.5 -29.499 -11.5h-153c-11.333 0 -21.166 3.83301 -29.499 11.5s-12.5 17.167 -12.5 28.5s4.16699 21 12.5 29s18.166 12 29.499 12h153c11.333 0 21.166 -4 29.499 -12s12.5 -17.667 12.5 -29z" />
    <glyph glyph-name="period" unicode="." horiz-adv-x="265" 
d="M107 129c11.333 0 21 -4.16699 29 -12.5s12 -18.166 12 -29.499v-54c0 -11.333 -3.83301 -21.166 -11.5 -29.499s-17.5 -12.5 -29.5 -12.5c-11.333 0 -21 4.16699 -29 12.5s-12 18.166 -12 29.499v54c0 11.333 4 21.166 12 29.499s17.667 12.5 29 12.5z" />
    <glyph glyph-name="slash" unicode="/" horiz-adv-x="349" 
d="M325 730c10.667 -4 17.999 -11.167 21.999 -21.5s4 -20.833 0 -31.5l-271 -684c-4 -10.667 -11.167 -18 -21.5 -22s-20.166 -4.33301 -29.499 -1c-10.667 4 -18.167 11.167 -22.5 21.5s-4.16602 20.833 0.500977 31.5l271 683c4 10.667 11.167 18.167 21.5 22.5
s20.166 4.83301 29.499 1.5z" />
    <glyph glyph-name="zero" unicode="0" horiz-adv-x="696" 
d="M348 -10c-37.333 0 -71.666 6.66602 -102.999 19.999s-58.333 31.833 -81 55.5s-40.834 52 -54.501 85s-21.5 69.167 -23.5 108.5c-0.666992 13.333 -1.16699 28 -1.5 44s-0.5 32.333 -0.5 49s0.166992 32.834 0.5 48.501s0.833008 30.167 1.5 43.5
c2.66699 39.333 10.667 75.333 24 108s31.5 60.667 54.5 84s50 41.5 81 54.5s65.167 19.5 102.5 19.5s71.5 -6.5 102.5 -19.5s58 -31.167 81 -54.5s41.333 -51.333 55 -84s21.5 -68.667 23.5 -108c0.666992 -13.333 1.16699 -28 1.5 -44s0.5 -32.167 0.5 -48.5
s-0.166992 -32.5 -0.5 -48.5s-0.833008 -30.667 -1.5 -44c-2 -39.333 -9.83301 -75.5 -23.5 -108.5s-32 -61.333 -55 -85s-50 -42.167 -81 -55.5s-65.167 -20 -102.5 -20zM348 68.999c52.667 0 94.667 17.667 126 53s49.333 82.333 54 141
c0.666992 12.667 1.16699 26.667 1.5 42s0.5 31 0.5 47s-0.166992 31.667 -0.5 47s-0.833008 29.333 -1.5 42c-3.33301 58.667 -21 105 -53 139s-74.333 51 -127 51s-95 -17 -127 -51s-49.667 -80.333 -53 -139c-0.666992 -12.667 -1.16699 -26.667 -1.5 -42
s-0.5 -31 -0.5 -47s0.166992 -31.667 0.5 -47s0.833008 -29.333 1.5 -42c4.66699 -58.667 22.667 -105.667 54 -141s73.333 -53 126 -53z" />
    <glyph glyph-name="one" unicode="1" horiz-adv-x="460" 
d="M277 705c12 0 21.834 -4.16504 29.501 -12.498s11.5 -18.166 11.5 -29.499v-625c0 -12 -4 -22 -12 -30s-17.667 -12 -29 -12s-21 4.16699 -29 12.5s-12 18.166 -12 29.499v557l-125 -69c-10 -6 -20.5 -7.66699 -31.5 -5s-19.167 9 -24.5 19
c-5.33301 9.33301 -6.33301 19.666 -3 30.999s9.66602 19.666 18.999 24.999l184 103c6.66699 4 14 6 22 6z" />
    <glyph glyph-name="two" unicode="2" horiz-adv-x="588" 
d="M59 58c0 44 12.332 84.1641 36.999 120.497s64 73.5 118 111.5l100.5 72c27 19.333 48.5 37 64.5 53s27.333 31.833 34 47.5s10 33.5 10 53.5c0 13.333 -2.5 26.833 -7.5 40.5s-13.167 26 -24.5 37s-25.833 20 -43.5 27s-39.5 10.5 -65.5 10.5c-34.667 0 -64 -7 -88 -21
s-43.667 -30.667 -59 -50c-2.66699 -3.33301 -5.83398 -6.66602 -9.50098 -9.99902s-8.16699 -5.66602 -13.5 -6.99902c-11.333 -3.33301 -22 -2.66602 -32 2.00098s-16.667 12 -20 22c-4 13.333 -2.33301 25.333 5 36c9.33301 12.667 20.666 25.334 33.999 38.001
s29 24.167 47 34.5s38 18.666 60 24.999s46.333 9.5 73 9.5c36.667 0 69.167 -5.16699 97.5 -15.5s52 -24.333 71 -42s33.333 -38.167 43 -61.5s14.5 -48.333 14.5 -75s-3.83301 -50.167 -11.5 -70.5s-20.167 -40.5 -37.5 -60.5s-39.666 -40.667 -66.999 -62
s-61 -46.333 -101 -75c-47.333 -34 -83.166 -63.833 -107.499 -89.5s-37.166 -52.167 -38.499 -79.5h336c11.333 0 21.166 -3.5 29.499 -10.5s12.5 -16.167 12.5 -27.5c0 -12 -4.16699 -21.833 -12.5 -29.5s-18.166 -11.5 -29.499 -11.5h-360
c-17.333 0 -31.5 5.16699 -42.5 15.5s-16.5 24.5 -16.5 42.5z" />
    <glyph glyph-name="three" unicode="3" horiz-adv-x="591" 
d="M300 441c30 0.666992 57.6641 -3.33008 82.9971 -11.9971s47.333 -21.334 66 -38.001s33.167 -36.667 43.5 -60s15.5 -49 15.5 -77c0 -40 -8.66699 -76 -26 -108s-42.166 -59 -74.499 -81s-71.666 -38.833 -117.999 -50.5s-98.166 -17.5 -155.499 -17.5h-24
c-8 0 -16 0.333008 -24 1c-12 0.666992 -22 4.66699 -30 12s-12 16.666 -12 27.999c0 12 4.33301 21.833 13 29.5s20 10.834 34 9.50098c20.667 -2 40.667 -3 60 -3c42 0 79.833 4 113.5 12s62.5 19.667 86.5 35s42.5 34 55.5 56s19.5 47 19.5 75
c0 38 -12.5 67.667 -37.5 89s-57.5 32 -97.5 32c-19.333 0 -34.166 -1.33301 -44.499 -4s-19.833 -4 -28.5 -4c-10.667 0 -19.834 3.5 -27.501 10.5s-11.5 16.167 -11.5 27.5s4 21 12 29l176 190h-282c-12 0 -22 3.66699 -30 11s-12 16.666 -12 27.999c0 12 4 21.667 12 29
s18 11 30 11h322c17.333 0 31.833 -5.33301 43.5 -16s17.5 -24.334 17.5 -41.001c0 -6 -1 -12.333 -3 -19s-5.66699 -13 -11 -19z" />
    <glyph glyph-name="four" unicode="4" horiz-adv-x="665" 
d="M500 171l0.000976562 -129.997c0 -11.333 -4 -21 -12 -29s-17.667 -12 -29 -12s-20.833 4 -28.5 12s-11.5 17.667 -11.5 29v130h-291c-20.667 0 -37.667 6.16699 -51 18.5s-19.333 28.5 -18 48.5c0 15.333 6 31 18 47l266 354c14.667 19.333 28.5 35.5 41.5 48.5
s29.167 19.5 48.5 19.5c15.333 0 27.5 -3.16699 36.5 -9.5s15.667 -13.833 20 -22.5s7.16602 -17.834 8.49902 -27.501s2 -17.834 2 -24.501v-372h74c11.333 0 20.833 -3.83301 28.5 -11.5s11.5 -17.5 11.5 -29.5c0 -10.667 -4 -19.834 -12 -27.501s-17.333 -11.5 -28 -11.5
h-74zM419.001 251.003v361l-272 -361h272z" />
    <glyph glyph-name="five" unicode="5" horiz-adv-x="606" 
d="M543 270c0 -44.667 -10.1699 -84.1689 -30.5029 -118.502s-49 -63 -86 -86s-81.833 -40.5 -134.5 -52.5s-111 -18 -175 -18c-12 0 -22.167 3.33301 -30.5 10s-12.5 16.667 -12.5 30s4 23.333 12 30s17.667 10 29 10c52.667 0 100.334 3.83301 143.001 11.5
s79 19.334 109 35.001s53.167 35.667 69.5 60s24.5 53.166 24.5 86.499c0 35.333 -12.667 63.833 -38 85.5s-58.333 32.5 -99 32.5c-19.333 0 -37.333 -1.66699 -54 -5s-31.834 -7.16602 -45.501 -11.499s-25.667 -9 -36 -14s-19.166 -9.5 -26.499 -13.5
c-10.667 -4.66699 -20.167 -6.66699 -28.5 -6s-15.5 3.16699 -21.5 7.5s-10.5 9.83301 -13.5 16.5s-4.5 14 -4.5 22v252c0 25.333 7 42.833 21 52.5s30 14.5 48 14.5h297c12 0 22 -3.83301 30 -11.5s12 -17.167 12 -28.5s-4.16699 -20.666 -12.5 -27.999
s-18.166 -11 -29.499 -11h-290v-197c20 10 42.333 19 67 27s55.334 12 92.001 12c32.667 0 62.167 -4.83301 88.5 -14.5s48.833 -23.167 67.5 -40.5s33 -37.833 43 -61.5s15 -49.5 15 -77.5z" />
    <glyph glyph-name="six" unicode="6" horiz-adv-x="668" 
d="M508 623c-9.33301 0 -20.832 1.33594 -34.499 4.00293s-34.167 4 -61.5 4c-66.667 0 -121.5 -19.5 -164.5 -58.5s-68.167 -95.167 -75.5 -168.5c21.333 9.33301 47.166 18.833 77.499 28.5s65.166 14.5 104.499 14.5c36.667 0 69.834 -5 99.501 -15s55 -24.5 76 -43.5
s37.167 -42.167 48.5 -69.5s17 -58 17 -92c0 -32 -5.16699 -62.333 -15.5 -91s-26 -53.834 -47 -75.501s-47.167 -38.834 -78.5 -51.501s-68 -19 -110 -19c-50 0 -92.333 9.33301 -127 28s-62.167 44.667 -82.5 78s-34.5 72.833 -42.5 118.5s-10.333 95.5 -7 149.5
c6.66699 112 38.5 197.667 95.5 257s134.167 89 231.5 89c14.667 0 31.5 -0.833008 50.5 -2.5s36.167 -4.16699 51.5 -7.5c8.66699 -2 16.334 -6.33301 23.001 -13s10 -15.334 10 -26.001c0 -10 -3.33301 -18.833 -10 -26.5s-16.334 -11.5 -29.001 -11.5zM347.001 370.003
c-39.333 0 -73.832 -5.5 -103.499 -16.5s-55.5 -22.5 -77.5 -34.5c-4.66699 -83.333 8.66602 -145.833 39.999 -187.5s77.333 -62.5 138 -62.5c28.667 0 53.5 4.16699 74.5 12.5s38.5 19.5 52.5 33.5s24.5 30.667 31.5 50s10.5 40 10.5 62c0 46 -14 81.333 -42 106
s-69.333 37 -124 37z" />
    <glyph glyph-name="seven" unicode="7" horiz-adv-x="527" 
d="M443 701c17.333 0 31.665 -5 42.998 -15s17 -23.333 17 -40c0 -7.33301 -1.16699 -14 -3.5 -20s-5.5 -12.333 -9.5 -19l-112.5 -189.5c-31 -53.667 -57.333 -102.167 -79 -145.5s-39.667 -84.166 -54 -122.499s-26.5 -78.833 -36.5 -121.5
c-3.33301 -11.333 -8.5 -19.5 -15.5 -24.5s-14.833 -7.5 -23.5 -7.5c-7.33301 0 -13.666 1.33301 -18.999 4c-10.667 5.33301 -17 13 -19 23s-1.33301 20.667 2 32c10.667 40 23.667 79.5 39 118.5s33.833 80.5 55.5 124.5s47.334 92.167 77.001 144.5l104.5 179.5h-333
c-11.333 0 -21.166 3.66699 -29.499 11s-12.5 16.666 -12.5 27.999c0 12 4.16699 21.667 12.5 29s18.166 11 29.499 11h367z" />
    <glyph glyph-name="eight" unicode="8" horiz-adv-x="681" 
d="M341 631c-58.667 0 -100.833 -10.168 -126.5 -30.501s-38.5 -46.833 -38.5 -79.5c0 -37.333 14.667 -66.166 44 -86.499s69.333 -30.5 120 -30.5c52 0 92.167 10.667 120.5 32s42.5 50.333 42.5 87c0 32 -12.5 58 -37.5 78s-66.5 30 -124.5 30zM336.001 323.999
c-58.667 0 -102.5 -11.835 -131.5 -35.502s-43.5 -54.834 -43.5 -93.501c0 -18 3.33301 -34.667 10 -50s17.167 -28.666 31.5 -39.999s32.833 -20.166 55.5 -26.499s49.667 -9.5 81 -9.5c32 0 59.5 3.33301 82.5 10s41.833 15.834 56.5 27.501s25.5 25 32.5 40
s10.5 30.833 10.5 47.5c0 39.333 -16.167 70.833 -48.5 94.5s-77.833 35.5 -136.5 35.5zM341.001 -10.0029c-43.333 0 -81.499 5 -114.499 15s-60.5 23.833 -82.5 41.5s-38.5 38.834 -49.5 63.501s-16.5 52 -16.5 82c0 46.667 11.667 84.667 35 114s53 49.666 89 60.999
c-29.333 11.333 -54.5 29.833 -75.5 55.5s-31.5 58.167 -31.5 97.5c0 60 21 106.667 63 140s102.333 50 181 50c80 0 141 -16.833 183 -50.5s63 -78.834 63 -135.501c0 -41.333 -9.83301 -74.5 -29.5 -99.5s-44.834 -43.833 -75.501 -56.5
c36 -11.333 65.5 -31.666 88.5 -60.999s34.5 -67.333 34.5 -114c0 -30 -5.5 -57.5 -16.5 -82.5s-27.5 -46.333 -49.5 -64s-49.333 -31.5 -82 -41.5s-70.667 -15 -114 -15z" />
    <glyph glyph-name="nine" unicode="9" horiz-adv-x="663" 
d="M156 76c40 2 78.166 4.8291 114.499 8.49609s69.333 12.334 99 26.001s54.834 34.334 75.501 62.001s35.334 66.5 44.001 116.5c-23.333 -11.333 -50.166 -21 -80.499 -29s-62.833 -12 -97.5 -12c-36 0 -68.667 5.16699 -98 15.5s-54.333 25.333 -75 45
s-36.667 43.334 -48 71.001s-17 58.834 -17 93.501c0 33.333 5.33301 64.5 16 93.5s26.5 54.167 47.5 75.5s47 38 78 50s66.833 18 107.5 18c46.667 0 86.167 -7.33301 118.5 -22s58.833 -35.834 79.5 -63.501s35.667 -61.167 45 -100.5s14 -83.666 14 -132.999v-29
c-2.66699 -68.667 -13.334 -126 -32.001 -172s-45.334 -83.167 -80.001 -111.5s-77.667 -48.833 -129 -61.5s-111 -20 -179 -22c-12.667 -0.666992 -23 3 -31 11s-12 17.667 -12 29c0 10 3.5 19.167 10.5 27.5s16.833 12.833 29.5 13.5zM322.999 324.996
c36 0 66.999 4.83398 92.999 14.501s53 21.167 81 34.5v26c0 77.333 -13 135.166 -39 173.499s-71.333 57.5 -136 57.5c-57.333 0 -99.5 -14.667 -126.5 -44s-40.5 -67 -40.5 -113c0 -46.667 13.333 -83.167 40 -109.5s69.334 -39.5 128.001 -39.5z" />
    <glyph glyph-name="colon" unicode=":" horiz-adv-x="277" 
d="M138 129c11.333 0 21 -4.16699 29 -12.5s12 -18.166 12 -29.499v-54c0 -11.333 -3.83301 -21.166 -11.5 -29.499s-17.5 -12.5 -29.5 -12.5c-11.333 0 -21 4.16699 -29 12.5s-12 18.166 -12 29.499v54c0 11.333 4 21.166 12 29.499s17.667 12.5 29 12.5zM138 499
c11.333 0 21 -4.16699 29 -12.5s12 -18.166 12 -29.499v-54c0 -11.333 -3.83301 -21.166 -11.5 -29.499s-17.5 -12.5 -29.5 -12.5c-11.333 0 -21 4.16699 -29 12.5s-12 18.166 -12 29.499v54c0 11.333 4 21.166 12 29.499s17.667 12.5 29 12.5z" />
    <glyph glyph-name="semicolon" unicode=";" horiz-adv-x="277" 
d="M195 63l0.000976562 -22.999c0 -12.667 -1.16699 -26.667 -3.5 -42s-6.16602 -29.833 -11.499 -43.5s-12.333 -25.167 -21 -34.5s-19.334 -14 -32.001 -14c-10.667 0 -19.167 3.66699 -25.5 11s-9.83301 15 -10.5 23c0 3.33301 0.166992 6.16602 0.5 8.49902
s0.833008 4.83301 1.5 7.5c1.33301 4 3.16602 8 5.49902 12s4.5 8.83301 6.5 14.5s3.83301 12.5 5.5 20.5s2.5 18 2.5 30v52c0 11.333 3.83301 20.833 11.5 28.5s17.5 11.5 29.5 11.5c11.333 0 21 -3.83301 29 -11.5s12 -17.167 12 -28.5v-22zM154.001 499.001
c11.333 0 21 -4.16699 29 -12.5s12 -18.166 12 -29.499v-54c0 -11.333 -3.83301 -21.166 -11.5 -29.499s-17.5 -12.5 -29.5 -12.5c-11.333 0 -21 4.16699 -29 12.5s-12 18.166 -12 29.499v54c0 11.333 4 21.166 12 29.499s17.667 12.5 29 12.5z" />
    <glyph glyph-name="less" unicode="&#x3c;" horiz-adv-x="628" 
d="M482 642c7.33301 -8.66699 10.5 -18.667 9.5 -30s-5.83301 -20.333 -14.5 -27l-275 -221c-2 -1.33301 -4 -3.16602 -6 -5.49902s-3 -5.16602 -3 -8.49902s1 -6.16602 3 -8.49902s4 -4.16602 6 -5.49902l275 -221c8.66699 -6.66699 13.5 -15.667 14.5 -27
s-2.16699 -21.333 -9.5 -30c-6.66699 -8.66699 -15.5 -13.334 -26.5 -14.001s-21.167 2.66602 -30.5 9.99902l-272 221c-15.333 13.333 -26.666 25.833 -33.999 37.5s-11 24.167 -11 37.5s3.66699 25.833 11 37.5s18.666 24.167 33.999 37.5l272 221
c9.33301 7.33301 19.333 10.666 30 9.99902s19.667 -5.33398 27 -14.001z" />
    <glyph glyph-name="equal" unicode="=" horiz-adv-x="628" 
d="M108 402c-11.333 0 -21 3.66699 -29 11s-12 16.666 -12 27.999s4 20.833 12 28.5s17.667 11.5 29 11.5h412c11.333 0 21 -3.83301 29 -11.5s12 -17.167 12 -28.5s-4 -20.666 -12 -27.999s-17.667 -11 -29 -11h-412zM108 221c-11.333 0 -21 3.66699 -29 11
s-12 16.666 -12 27.999s4 20.833 12 28.5s17.667 11.5 29 11.5h412c11.333 0 21 -3.83301 29 -11.5s12 -17.167 12 -28.5s-4 -20.666 -12 -27.999s-17.667 -11 -29 -11h-412z" />
    <glyph glyph-name="greater" unicode="&#x3e;" horiz-adv-x="628" 
d="M145 642c7.33301 8.66699 16.333 13.334 27 14.001s20.667 -2.66602 30 -9.99902l273 -221c15.333 -13.333 26.666 -25.833 33.999 -37.5s11 -24.167 11 -37.5s-3.66699 -25.833 -11 -37.5s-18.666 -24.167 -33.999 -37.5l-273 -221
c-9.33301 -7.33301 -19.333 -10.666 -30 -9.99902s-19.667 5.33398 -27 14.001s-10.333 18.667 -9 30s6.33301 20.333 15 27l275 221c2 1.33301 4 3.16602 6 5.49902s3 5.16602 3 8.49902s-1 6.16602 -3 8.49902s-4 4.16602 -6 5.49902l-275 221
c-8.66699 6.66699 -13.667 15.667 -15 27s1.66699 21.333 9 30z" />
    <glyph glyph-name="question" unicode="?" horiz-adv-x="558" 
d="M131 561c-4 -5.33301 -8.83105 -9.66406 -14.498 -12.9971s-12.167 -5 -19.5 -5c-11.333 0 -20.833 4.16699 -28.5 12.5s-11.5 18.166 -11.5 29.499c0 9.33301 3.66699 19 11 29c52 63.333 123.333 95 214 95c31.333 0 59.833 -4.66699 85.5 -14s47.667 -22.5 66 -39.5
s32.5 -37.167 42.5 -60.5s15 -49 15 -77c0 -32.667 -4.33301 -61 -13 -85s-21.834 -45.5 -39.501 -64.5s-39.834 -36.667 -66.501 -53s-57.667 -32.833 -93 -49.5c-9.33301 -4.66699 -19.333 -7 -30 -7c-9.33301 0 -18 3.5 -26 10.5s-12 16.167 -12 27.5
c0 18 9.33301 31.333 28 40c31.333 14 57.833 27.167 79.5 39.5s39.167 25.166 52.5 38.499s23 28.166 29 44.499s9 35.166 9 56.499c0 34 -11 61.5 -33 82.5s-53.333 31.5 -94 31.5c-34 0 -62.667 -5.16699 -86 -15.5s-45 -28.166 -65 -53.499zM211.002 84.002
c0 11.333 4 20.833 12 28.5s17.667 11.5 29 11.5s21 -3.83301 29 -11.5s12 -17.167 12 -28.5v-53c0 -11.333 -4 -20.833 -12 -28.5s-17.667 -11.5 -29 -11.5s-21 4 -29 12s-12 17.333 -12 28v53z" />
    <glyph glyph-name="at" unicode="@" horiz-adv-x="863" 
d="M472 141c13.333 4 24.334 3.16211 33.001 -2.50488s14 -13.167 16 -22.5c2 -10.667 0.333008 -20 -5 -28s-13 -13.667 -23 -17c-9.33301 -3.33301 -19.5 -5.83301 -30.5 -7.5s-21.5 -2.5 -31.5 -2.5c-25.333 0 -48.666 3.83301 -69.999 11.5s-40 18.834 -56 33.501
s-28.833 32.5 -38.5 53.5s-14.834 45.167 -15.501 72.5c-1.33301 24 -1.33301 48.333 0 73c0.666992 24.667 5.83398 48 15.501 70s22.667 41.167 39 57.5s35.5 29.166 57.5 38.499s45.667 14 71 14c24.667 0 48.167 -4.66699 70.5 -14s41.666 -22.166 57.999 -38.499
s29.333 -35.5 39 -57.5s14.5 -45.333 14.5 -70v-118c0 -14.667 5.16699 -27.334 15.5 -38.001s22.5 -16 36.5 -16c14.667 0 27.167 5.33301 37.5 16s15.5 23.334 15.5 38.001v161c0 43.333 -7.66699 82.666 -23 117.999s-36.166 65.5 -62.499 90.5s-57 44.167 -92 57.5
s-71.833 20 -110.5 20s-74.667 -6.83301 -108 -20.5s-62.5 -32.5 -87.5 -56.5s-45.167 -52.5 -60.5 -85.5s-25 -68.833 -29 -107.5c-3.33301 -34 -4.5 -68.833 -3.5 -104.5s2.5 -66.5 4.5 -92.5c4 -42.667 14.333 -79.667 31 -111s37.5 -57.333 62.5 -78
s53.167 -36.167 84.5 -46.5s63.666 -15.5 96.999 -15.5c42.667 0 82 7.33301 118 22c7.33301 3.33301 15.666 4.33301 24.999 3s16.666 -6 21.999 -14c6 -8 7.83301 -17.333 5.5 -28s-8.5 -19 -18.5 -25c-18 -9.33301 -40 -17.166 -66 -23.499s-54.333 -9.5 -85 -9.5
c-42 0 -83.167 6.5 -123.5 19.5s-77 32.833 -110 59.5s-60.333 60.334 -82 101.001s-34.5 88.667 -38.5 144c-1.33301 12.667 -2.16602 28 -2.49902 46s-0.5 36.333 -0.5 55s0.166992 36.834 0.5 54.501s0.833008 33.167 1.5 46.5
c3.33301 48.667 14.833 93.834 34.5 135.501s45.5 77.834 77.5 108.501s69.5 54.667 112.5 72s89.167 26 138.5 26s96 -8.66699 140 -26s82.5 -41.666 115.5 -72.999s59.167 -69 78.5 -113s29 -92.667 29 -146v-162c0 -18 -3.33301 -34.667 -10 -50
s-15.667 -28.666 -27 -39.999s-24.666 -20.333 -39.999 -27s-31.333 -10 -48 -10c-18 0 -34.833 3.5 -50.5 10.5s-29.334 16.167 -41.001 27.5s-20.667 24.666 -27 39.999s-9.5 31.666 -9.5 48.999v113c0 15.333 -2.83301 29.666 -8.5 42.999s-13.334 24.833 -23.001 34.5
s-21.167 17.334 -34.5 23.001s-27.666 8.5 -42.999 8.5c-30.667 0 -56 -10.5 -76 -31.5s-30.667 -46.833 -32 -77.5c-0.666992 -22 -0.666992 -43.667 0 -65c0.666992 -22 5.66699 -40.333 15 -55s21 -26 35 -34s29.5 -12.667 46.5 -14s33.5 1 49.5 7z" />
    <glyph glyph-name="A" unicode="A" horiz-adv-x="675" 
d="M650 41c0 -10.667 -3.33203 -20.333 -9.99902 -29s-16.667 -13 -30 -13c-8.66699 0 -16.5 2.33301 -23.5 7s-12.167 11 -15.5 19l-74 209h-319l-74 -209c-3.33301 -8 -8.5 -14.333 -15.5 -19s-14.833 -7 -23.5 -7c-13.333 0 -23.333 4.33301 -30 13
s-10 18.334 -10 29.001c0 6 0.666992 10.667 2 14l208 580c9.33301 26 23.166 45.167 41.499 57.5s38.833 18.5 61.5 18.5s43 -6.16699 61 -18.5s31.667 -31.5 41 -57.5l208 -580c1.33301 -2.66699 2 -7.33398 2 -14.001zM206.001 312.001h263.002l-105 299
c-4.66699 13.333 -13.334 20 -26.001 20s-21.334 -6.66699 -26.001 -20z" />
    <glyph glyph-name="B" unicode="B" horiz-adv-x="669" 
d="M182 79h210c46.667 0 81 10.5 103 31.5s33 51.5 33 91.5c0 38.667 -11.5 68.5 -34.5 89.5s-53.5 31.5 -91.5 31.5h-220v-244zM387 401c42.667 0 73.833 9.66699 93.5 29s29.5 46.333 29.5 81c0 74 -41 111 -123 111h-205v-221h205zM611.999 200
c0 -36 -5.50098 -66.6631 -16.501 -91.9961s-26 -46 -45 -62s-41.167 -27.667 -66.5 -35s-52.333 -11 -81 -11h-233c-22.667 0 -40 6.66699 -52 20s-18 29.333 -18 48v565c0 19.333 6 35.5 18 48.5s29.333 19.5 52 19.5h222c32.667 0 61.5 -4.83301 86.5 -14.5
s45.833 -22.834 62.5 -39.501s29.334 -35.834 38.001 -57.501s13 -44.5 13 -68.5c0 -46.667 -9.16699 -82 -27.5 -106s-40.5 -40.667 -66.5 -50v-2c36 -8.66699 64 -27.334 84 -56.001s30 -64.334 30 -107.001z" />
    <glyph glyph-name="C" unicode="C" horiz-adv-x="665" 
d="M355 69c40.667 0 77.167 10.8301 109.5 32.4971s56.166 50.5 71.499 86.5c3.33301 7.33301 8 13.5 14 18.5s14 7.5 24 7.5c9.33301 0 18.166 -3.66699 26.499 -11s12.5 -16.666 12.5 -27.999c0 -5.33301 -1 -11.333 -3 -18c-10 -25.333 -23.667 -48.166 -41 -68.499
s-37.166 -37.833 -59.499 -52.5s-46.666 -26 -72.999 -34s-53.5 -12 -81.5 -12c-40 0 -76.833 7.16699 -110.5 21.5s-63 34 -88 59s-45 54.5 -60 88.5s-23.833 70.667 -26.5 110c-4 54.667 -4 108.667 0 162c2.66699 39.333 11.5 76 26.5 110s35 63.5 60 88.5
s54.333 44.667 88 59s70.5 21.5 110.5 21.5c28 0 55.167 -4 81.5 -12s50.666 -19.167 72.999 -33.5s42.166 -31.833 59.499 -52.5s31 -43.334 41 -68.001c2 -7.33301 3 -13.666 3 -18.999c0 -11.333 -4.16699 -20.5 -12.5 -27.5s-17.166 -10.5 -26.499 -10.5
c-10 0 -18 2.5 -24 7.5s-10.667 11.167 -14 18.5c-15.333 36 -39.166 64.667 -71.499 86s-68.833 32 -109.5 32c-29.333 0 -55.833 -5.16699 -79.5 -15.5s-44.334 -24.5 -62.001 -42.5s-31.667 -39.5 -42 -64.5s-16.833 -52.167 -19.5 -81.5
c-3.33301 -51.333 -3.33301 -102.666 0 -153.999c2.66699 -29.333 9.16699 -56.5 19.5 -81.5s24.333 -46.5 42 -64.5s38.334 -32.167 62.001 -42.5s50.167 -15.5 79.5 -15.5z" />
    <glyph glyph-name="D" unicode="D" horiz-adv-x="719" 
d="M568 298c1.33301 16.667 2 34.5 2 53.5s-0.666992 35.833 -2 50.5c-2 32.667 -7.83301 62.667 -17.5 90s-24 50.5 -43 69.5s-42.667 33.833 -71 44.5s-61.833 16 -100.5 16h-154v-543h154c38.667 0 72 5.33301 100 16s51.5 25.5 70.5 44.5s33.5 42 43.5 69
s16 56.833 18 89.5zM169 0c-22 0 -39 6.66602 -51 19.999s-18 29.333 -18 48v565c0 19.333 6 35.5 18 48.5s29 19.5 51 19.5h167c50.667 0 95 -7.33301 133 -22s70 -35.167 96 -61.5s46 -57.666 60 -93.999s22.333 -75.833 25 -118.5c1.33301 -18 2 -36.5 2 -55.5
s-0.666992 -36.833 -2 -53.5c-2.66699 -42.667 -11 -82 -25 -118s-34 -67.167 -60 -93.5s-58 -47 -96 -62s-82.333 -22.5 -133 -22.5h-167z" />
    <glyph glyph-name="E" unicode="E" horiz-adv-x="625" 
d="M515 701c11.333 0 21 -3.83496 29 -11.502s12 -17.167 12 -28.5s-4.16699 -20.666 -12.5 -27.999s-17.833 -11 -28.5 -11h-333v-230h324c11.333 0 20.833 -3.66699 28.5 -11s11.5 -16.666 11.5 -27.999c0 -10.667 -4 -19.834 -12 -27.501s-17.333 -11.5 -28 -11.5h-324
v-235h335c10.667 0 20.167 -3.66699 28.5 -11s12.5 -16.666 12.5 -27.999s-4 -20.833 -12 -28.5s-17.667 -11.5 -29 -11.5h-347c-22.667 0 -40 6.66699 -52 20s-18 29.333 -18 48v565c0 19.333 6 35.5 18 48.5s29.333 19.5 52 19.5h345z" />
    <glyph glyph-name="F" unicode="F" horiz-adv-x="594" 
d="M100 633c0 19.333 6 35.498 18 48.498s29.333 19.5 52 19.5h343c11.333 0 21.166 -3.66699 29.499 -11s12.5 -16.666 12.5 -27.999s-4.16699 -20.833 -12.5 -28.5s-18.166 -11.5 -29.499 -11.5h-331v-245h314c11.333 0 21 -3.83301 29 -11.5s12 -17.167 12 -28.5
s-4.16699 -20.666 -12.5 -27.999s-17.833 -11 -28.5 -11h-314v-260c0 -11.333 -4 -21.166 -12 -29.499s-17.667 -12.5 -29 -12.5s-21 4.16699 -29 12.5s-12 18.166 -12 29.499v595z" />
    <glyph glyph-name="G" unicode="G" horiz-adv-x="701" 
d="M633 240c0 -33.333 -6.50098 -65.167 -19.501 -95.5s-31.333 -57 -55 -80s-52.167 -41.167 -85.5 -54.5s-70.333 -20 -111 -20c-40 0 -77.333 7.16699 -112 21.5s-64.834 34 -90.501 59s-46.334 54.5 -62.001 88.5s-24.834 70.667 -27.501 110
c-4 54.667 -4 108.667 0 162c2.66699 39.333 12 76 28 110s36.833 63.5 62.5 88.5s55.667 44.667 90 59s71.5 21.5 111.5 21.5c57.333 0 108 -13.667 152 -41s77.667 -65 101 -113c2.66699 -5.33301 4 -12 4 -20c0 -11.333 -4 -20.833 -12 -28.5s-17.667 -11.5 -29 -11.5
c-8 0 -15.167 2.16699 -21.5 6.5s-11.166 9.5 -14.499 15.5c-17.333 34.667 -41.166 62.167 -71.499 82.5s-66.166 30.5 -107.499 30.5c-29.333 0 -56.333 -5.16699 -81 -15.5s-46.167 -24.5 -64.5 -42.5s-33.166 -39.5 -44.499 -64.5s-18.333 -52.167 -21 -81.5
c-4 -52.667 -4 -104 0 -154c2.66699 -29.333 9.66699 -56.5 21 -81.5s26.333 -46.5 45 -64.5s40.167 -32.167 64.5 -42.5s51.166 -15.5 80.499 -15.5c28 0 53.667 4 77 12s43.333 19.167 60 33.5s29.5 31.5 38.5 51.5s13.5 41.667 13.5 65v62h-143
c-11.333 0 -21.166 3.83301 -29.499 11.5s-12.5 17.167 -12.5 28.5s4.16699 20.833 12.5 28.5s18.166 11.5 29.499 11.5h155c22.667 0 39.834 -6.5 51.501 -19.5s17.5 -28.833 17.5 -47.5v-66z" />
    <glyph glyph-name="H" unicode="H" horiz-adv-x="755" 
d="M100 663c0 11.333 4 21.167 12 29.5s17.667 12.5 29 12.5c12 0 21.833 -4.16699 29.5 -12.5s11.5 -18.166 11.5 -29.499v-273h390v273c0 11.333 4 21.166 12 29.499s17.667 12.5 29 12.5c12 0 21.833 -4.16699 29.5 -12.5s11.5 -18.166 11.5 -29.499v-625
c0 -11.333 -3.83301 -21.166 -11.5 -29.499s-17.5 -12.5 -29.5 -12.5c-11.333 0 -21 4.16699 -29 12.5s-12 18.166 -12 29.499v273h-390v-273c0 -12 -3.83301 -22 -11.5 -30s-17.5 -12 -29.5 -12c-11.333 0 -21 4.16699 -29 12.5s-12 18.166 -12 29.499v625z" />
    <glyph glyph-name="I" unicode="I" horiz-adv-x="283" 
d="M100 663c0 11.333 4 21.166 12 29.499s17.667 12.5 29 12.5c12 0 21.833 -4.16699 29.5 -12.5s11.5 -18.166 11.5 -29.499v-625c0 -11.333 -3.83301 -21.166 -11.5 -29.499s-17.5 -12.5 -29.5 -12.5c-11.333 0 -21 4.16699 -29 12.5s-12 18.166 -12 29.499v625z" />
    <glyph glyph-name="J" unicode="J" horiz-adv-x="516" 
d="M40 100c-1.33301 3.33301 -2.33398 6.49707 -3.00098 9.49707s-1 6.16699 -1 9.5c0 10.667 3.66699 20 11 28s16.666 12 27.999 12c9.33301 0 17 -2.16699 23 -6.5s11 -10.166 15 -17.499c10.667 -19.333 25 -35.166 43 -47.499s39.333 -18.5 64 -18.5
c16 0 31 2.83301 45 8.5s26.5 14 37.5 25s19.667 25 26 42s9.5 37.167 9.5 60.5v458c0 11.333 4 21.166 12 29.499s17.667 12.5 29 12.5c12 0 21.833 -4.16699 29.5 -12.5s11.5 -18.166 11.5 -29.499v-464c0 -31.333 -5.33301 -59.666 -16 -84.999s-25 -47.333 -43 -66
s-39.167 -33 -63.5 -43s-50.166 -15 -77.499 -15c-40 0 -76.167 10.167 -108.5 30.5s-56.166 46.833 -71.499 79.5z" />
    <glyph glyph-name="K" unicode="K" horiz-adv-x="633" 
d="M605 38c0 -10.667 -3.99902 -20.168 -11.999 -28.501s-17.333 -12.5 -28 -12.5s-20 4 -28 12l-292 282c-10.667 11.333 -20.5 18 -29.5 20s-20.167 3 -33.5 3v-276c0 -11.333 -3.83301 -21.166 -11.5 -29.499s-17.5 -12.5 -29.5 -12.5c-11.333 0 -21 4.16699 -29 12.5
s-12 18.166 -12 29.499v625c0 11.333 4 21.166 12 29.499s17.667 12.5 29 12.5c12 0 21.833 -4.16699 29.5 -12.5s11.5 -18.166 11.5 -29.499v-269c14 0 25.167 1.33301 33.5 4s18.166 9.33398 29.499 20.001l285 273c4 4.66699 8.66699 8 14 10s10.666 3 15.999 3
c10.667 0 19.834 -4 27.501 -12s11.5 -17.333 11.5 -28s-4 -20 -12 -28l-294 -279l300 -290c8 -9.33301 12 -19 12 -29z" />
    <glyph glyph-name="L" unicode="L" horiz-adv-x="556" 
d="M100 663c0 11.333 4.00098 21.165 12.001 29.498s17.667 12.5 29 12.5c12 0 21.833 -4.16699 29.5 -12.5s11.5 -18.166 11.5 -29.499v-584h327c11.333 0 21.166 -3.66699 29.499 -11s12.5 -16.666 12.5 -27.999c0 -12 -4 -21.667 -12 -29s-18 -11 -30 -11h-342
c-21.333 -0 -37.833 6.33301 -49.5 19s-17.5 28 -17.5 46v598z" />
    <glyph glyph-name="M" unicode="M" horiz-adv-x="926" 
d="M861 47c2 -14 -0.5 -26.166 -7.5 -36.499s-18.167 -15.5 -33.5 -15.5c-10.667 0 -19.667 3 -27 9s-11.666 14 -12.999 24l-82 589c-1.33301 6.66699 -4.66602 10 -9.99902 10s-9.33301 -3 -12 -9l-130 -543c-6 -25.333 -16.167 -44.333 -30.5 -57s-31.833 -19 -52.5 -19
c-21.333 0 -39.166 6.33301 -53.499 19s-24.5 31.667 -30.5 57l-130 543c-2.66699 6 -6.33398 9 -11.001 9c-3.33301 0 -5.83301 -1.16699 -7.5 -3.5s-2.83398 -4.5 -3.50098 -6.5l-82 -589c-1.33301 -10 -5.5 -18 -12.5 -24s-15.833 -9 -26.5 -9
c-15.333 0 -26.5 5.16699 -33.5 15.5s-9.5 22.166 -7.5 35.499l86 584c4 28 14.167 48.167 30.5 60.5s35.166 18.5 56.499 18.5s39.666 -6 54.999 -18s25.666 -29.667 30.999 -53l129 -551c0.666992 -2 1.83398 -4.16699 3.50098 -6.5s4.16699 -3.5 7.5 -3.5
s5.83301 1.16699 7.5 3.5s2.83398 4.5 3.50098 6.5l126 551c5.33301 23.333 15.833 41 31.5 53s34.167 18 55.5 18s40 -6.16699 56 -18.5s26 -32.5 30 -60.5l87 -583v0z" />
    <glyph glyph-name="N" unicode="N" horiz-adv-x="769" 
d="M588 97l1.99707 0.00195312c-0.666992 20 -1.5 41.5 -2.5 64.5s-1.5 51.167 -1.5 84.5v417c0 11.333 4 21.166 12 29.499s17.667 12.5 29 12.5c12 0 21.833 -4.16699 29.5 -12.5s11.5 -18.166 11.5 -29.499v-595c0 -19.333 -6.16699 -35.833 -18.5 -49.5
s-28.166 -20.5 -47.499 -20.5c-28.667 0 -50.667 12.333 -66 37l-355 575h-2c0.666992 -20.667 1.33398 -43.667 2.00098 -69s1 -54 1 -86v-417c0 -12 -3.83301 -22 -11.5 -30s-17.5 -12 -29.5 -12c-11.333 0 -21 4.16699 -29 12.5s-12 18.166 -12 29.499v593
c0 20.667 6.33301 38 19 52s29.667 21 51 21c13.333 0 25.833 -2.83301 37.5 -8.5s21.834 -15.834 30.501 -30.501z" />
    <glyph glyph-name="O" unicode="O" horiz-adv-x="729" 
d="M363 -10c-40 0 -77.167 7.16602 -111.5 21.499s-64.5 34 -90.5 59s-47 54.5 -63 88.5s-25.333 70.667 -28 110c-4 54.667 -4 108.667 0 162c2.66699 39.333 12 76 28 110s37 63.5 63 88.5s56.167 44.667 90.5 59s71.5 21.5 111.5 21.5s77.5 -7.16699 112.5 -21.5
s65.667 -34.166 92 -59.499s47.5 -55 63.5 -89s25.333 -70.333 28 -109c4 -53.333 4 -107.333 0 -162c-2.66699 -39.333 -12 -76 -28 -110s-37.167 -63.5 -63.5 -88.5s-57 -44.667 -92 -59s-72.5 -21.5 -112.5 -21.5zM363 68.999c29.333 0 56.502 5.16699 81.502 15.5
s46.833 24.5 65.5 42.5s33.667 39.5 45 64.5s18.333 52.167 21 81.5c5.33301 51.333 5.33301 103 0 155c-2.66699 29.333 -9.83398 56.333 -21.501 81s-26.834 46 -45.501 64s-40.5 32.167 -65.5 42.5s-51.833 15.5 -80.5 15.5s-55.334 -5.16699 -80.001 -15.5
s-46.167 -24.5 -64.5 -42.5s-33.333 -39.333 -45 -64s-18.834 -51.667 -21.501 -81c-4 -52 -4 -103.667 0 -155c2.66699 -29.333 9.83398 -56.5 21.501 -81.5s26.667 -46.5 45 -64.5s39.833 -32.167 64.5 -42.5s51.334 -15.5 80.001 -15.5z" />
    <glyph glyph-name="P" unicode="P" horiz-adv-x="644" 
d="M361 341c54.667 0 93.668 12.999 117.001 38.999s35 59.667 35 101c0 42.667 -11.833 76.834 -35.5 102.501s-60.834 38.5 -111.501 38.5h-184v-281h179zM182.001 261.999l-0.00195312 -223.999c0 -11.333 -4 -21.166 -12 -29.499s-17.667 -12.5 -29 -12.5
s-21 4.16699 -29 12.5s-12 18.166 -12 29.499v596c0 18.667 5.83301 34.5 17.5 47.5s28.5 19.5 50.5 19.5h202c30.667 0 59.834 -4.83301 87.501 -14.5s51.834 -23.834 72.501 -42.501s37 -41.667 49 -69s18 -58.333 18 -93c0 -35.333 -5.83301 -66.5 -17.5 -93.5
s-28 -50 -49 -69s-45.833 -33.333 -74.5 -43s-60 -14.5 -94 -14.5h-180z" />
    <glyph glyph-name="Q" unicode="Q" horiz-adv-x="730" 
d="M363 -10c-40 0 -77.167 7.16699 -111.5 21.5s-64.5 34 -90.5 59s-47 54.5 -63 88.5s-25.333 70.667 -28 110c-4 54.667 -4 108.667 0 162c2.66699 39.333 12 76 28 110s37 63.5 63 88.5s56.167 44.667 90.5 59s71.5 21.5 111.5 21.5s77.5 -7.16699 112.5 -21.5
s65.667 -34.166 92 -59.499s47.5 -55 63.5 -89s25.333 -70.333 28 -109c4 -53.333 4 -107.333 0 -162c-3.33301 -42 -13.666 -80.333 -30.999 -115s-40 -64.667 -68 -90l93 -114c7.33301 -8.66699 10.5 -18.334 9.5 -29.001s-5.5 -19.334 -13.5 -26.001
s-17.333 -9.5 -28 -8.5s-19.334 5.5 -26.001 13.5l-99 120c-19.333 -9.33301 -40.333 -16.666 -63 -21.999s-46 -8 -70 -8zM363 69c28.667 0 55.667 4.99902 81 14.999l-97 119c-6 7.33301 -8.83301 16.333 -8.5 27s4.5 19.667 12.5 27s17.667 10.5 29 9.5
s20.333 -5.83301 27 -14.5l102 -126c18.667 18.667 33.834 40.334 45.501 65.001s18.834 52 21.501 82c5.33301 51.333 5.33301 103 0 155c-2.66699 29.333 -9.83398 56.333 -21.501 81s-26.834 46 -45.501 64s-40.5 32.167 -65.5 42.5s-51.833 15.5 -80.5 15.5
s-55.334 -5.16699 -80.001 -15.5s-46.167 -24.5 -64.5 -42.5s-33.333 -39.333 -45 -64s-18.834 -51.667 -21.501 -81c-4 -52 -4 -103.667 0 -155c2.66699 -29.333 9.83398 -56.5 21.501 -81.5s26.667 -46.5 45 -64.5s39.833 -32.167 64.5 -42.5s51.334 -15.5 80.001 -15.5z
" />
    <glyph glyph-name="R" unicode="R" horiz-adv-x="678" 
d="M619 39c0 -11.333 -4.16797 -21.334 -12.501 -30.001s-18.166 -13 -29.499 -13c-12 0 -22 4.66699 -30 14l-188 232c-8 10 -15.833 17.833 -23.5 23.5s-18.5 8.5 -32.5 8.5h-121v-236c0 -11.333 -4 -21.166 -12 -29.499s-17.667 -12.5 -29 -12.5s-21 4.16699 -29 12.5
s-12 18.166 -12 29.499v596c0 18.667 5.83301 34.5 17.5 47.5s28.5 19.5 50.5 19.5h204c30.667 0 59.667 -4.66699 87 -14s51.333 -23 72 -41s37 -40.5 49 -67.5s18 -57.833 18 -92.5c0 -30 -4.16699 -56.333 -12.5 -79s-20 -42 -35 -58s-33 -29 -54 -39
s-43.833 -17 -68.5 -21l182 -225c6 -7.33301 9 -15.666 9 -24.999zM361.999 351.999c28 0 51.833 3.16699 71.5 9.5s35.5 15.5 47.5 27.5s20.667 26.167 26 42.5s8 34.5 8 54.5c0 42 -12 75.167 -36 99.5s-61.333 36.5 -112 36.5h-185v-270h180z" />
    <glyph glyph-name="S" unicode="S" horiz-adv-x="619" 
d="M331 394c43.333 -8 80.498 -17.5 111.498 -28.5s56.333 -24.167 76 -39.5s34 -33.5 43 -54.5s13.5 -45.833 13.5 -74.5c0 -30 -5.66699 -57.667 -17 -83s-27.833 -47.166 -49.5 -65.499s-48.167 -32.666 -79.5 -42.999s-67 -15.5 -107 -15.5
c-54.667 0 -101.167 7 -139.5 21s-72.5 31.333 -102.5 52c-14 8.66699 -21 20.667 -21 36c0 12 4 22 12 30s18 12 30 12c4 0 8.33301 -0.833008 13 -2.5s10.334 -4.83398 17.001 -9.50098c24.667 -17.333 51.334 -31.5 80.001 -42.5s66 -16.5 112 -16.5
c53.333 0 94.833 11.167 124.5 33.5s44.5 53.5 44.5 93.5c0 16 -3 30 -9 42s-16 22.5 -30 31.5s-32.5 17 -55.5 24s-51.833 13.833 -86.5 20.5c-80.667 15.333 -140.334 38 -179.001 68s-58 72.333 -58 127c0 30.667 5.83301 58.5 17.5 83.5s28.167 46 49.5 63
s46.833 30.167 76.5 39.5s62.167 14 97.5 14c41.333 0 79.666 -5.16699 114.999 -15.5s62.666 -23.833 81.999 -40.5c10.667 -8.66699 16 -20 16 -34c0 -10.667 -3.83301 -19.834 -11.5 -27.501s-16.5 -11.5 -26.5 -11.5c-6.66699 0 -12.5 1 -17.5 3
s-9.83301 4.33301 -14.5 7c-19.333 10.667 -40.666 20 -63.999 28s-49.666 12 -78.999 12s-54 -3.16699 -74 -9.5s-36.333 -15 -49 -26s-21.667 -23.667 -27 -38s-8 -29.5 -8 -45.5s2.83301 -30 8.5 -42s15.334 -22.5 29.001 -31.5s31.5 -17 53.5 -24
s49.667 -13.833 83 -20.5z" />
    <glyph glyph-name="T" unicode="T" horiz-adv-x="600" 
d="M260 622h-200c-11.333 0 -21.166 3.66699 -29.499 11s-12.5 16.666 -12.5 27.999c0 12 4.16699 21.667 12.5 29s18.166 11 29.499 11h480c11.333 0 21 -3.66699 29 -11s12 -17 12 -29c0 -11.333 -4 -20.666 -12 -27.999s-17.667 -11 -29 -11h-198v-584
c0 -11.333 -4 -21.166 -12 -29.499s-17.667 -12.5 -29 -12.5s-21 4.16699 -29 12.5s-12 18.166 -12 29.499v584z" />
    <glyph glyph-name="U" unicode="U" horiz-adv-x="748" 
d="M657 284c0 -44 -7.1709 -84 -21.5039 -120s-34.166 -66.833 -59.499 -92.5s-55.166 -45.667 -89.499 -60s-71.833 -21.5 -112.5 -21.5s-78.167 7.16699 -112.5 21.5s-64.166 34.333 -89.499 60s-45.166 56.5 -59.499 92.5s-21.5 76 -21.5 120v379
c0 11.333 4 21.166 12 29.499s17.667 12.5 29 12.5s21 -4.16699 29 -12.5s12 -18.166 12 -29.499v-378c0 -33.333 5 -63.333 15 -90s24 -49.334 42 -68.001s39.167 -33 63.5 -43s51.166 -15 80.499 -15c28.667 0 55.334 5 80.001 15s46 24.333 64 43s32 41.334 42 68.001
s15 56.667 15 90v378c0 11.333 4 21.166 12 29.499s17.667 12.5 29 12.5s21 -4.16699 29 -12.5s12 -18.166 12 -29.499v-379z" />
    <glyph glyph-name="V" unicode="V" horiz-adv-x="664" 
d="M23 661c0 10.667 3.83203 20.5 11.499 29.5s17.834 13.5 30.501 13.5c8 0 15.5 -2.33301 22.5 -7s12.167 -11.334 15.5 -20.001l217 -597c1.33301 -2 2.83301 -4 4.5 -6s4.16699 -3 7.5 -3s6 1 8 3s3.33301 4 4 6l217 596c3.33301 9.33301 8.5 16.333 15.5 21
s14.833 7 23.5 7c12.667 0 22.5 -4.5 29.5 -13.5s10.5 -18.833 10.5 -29.5c0 -4 -0.666992 -8.66699 -2 -14l-218 -585c-18 -48 -47.333 -72 -88 -72c-41.333 0 -71 24 -89 72l-217 585c-2 4.66699 -3 9.33398 -3 14.001z" />
    <glyph glyph-name="W" unicode="W" horiz-adv-x="926" 
d="M39 664c0 10 3.33203 19.166 9.99902 27.499s16.667 12.5 30 12.5c9.33301 0 18 -2.66699 26 -8s12.667 -12.666 14 -21.999l126 -606c0.666992 -1.33301 1.66699 -2 3 -2s2.33301 0.666992 3 2l149 574c5.33301 20.667 14.833 36 28.5 46s28.5 15 44.5 15
c14.667 0 28.834 -5 42.501 -15s23.167 -25.333 28.5 -46l148 -574c0.666992 -2 1.66699 -3 3 -3s2.33301 1 3 3l129 606c2.66699 9.33301 7.66699 16.666 15 21.999s15.666 8 24.999 8c13.333 0 23.333 -4.33301 30 -13s10 -18 10 -28c0 -4.66699 -0.333008 -8 -1 -10
l-140 -601c-4.66699 -20 -13.834 -35.167 -27.501 -45.5s-28.167 -15.5 -43.5 -15.5s-30 5.16699 -44 15.5s-23.667 25.166 -29 44.499l-148 570c-0.666992 1.33301 -1.5 2 -2.5 2s-1.83301 -0.666992 -2.5 -2l-150 -570c-5.33301 -19.333 -14.666 -34.333 -27.999 -45
s-27.666 -16 -42.999 -16c-16 0 -31 5.33301 -45 16s-23.333 26.334 -28 47.001l-135 600c-0.666992 2.66699 -1 6.33398 -1 11.001z" />
    <glyph glyph-name="X" unicode="X" horiz-adv-x="645" 
d="M569 704c11.333 0 21 -4.16602 29 -12.499s12 -17.833 12 -28.5c0 -10 -3.33301 -19.333 -10 -28l-226 -287l223 -284c6.66699 -8.66699 10 -18.334 10 -29.001c0 -10 -4 -18.833 -12 -26.5s-17.667 -11.5 -29 -11.5c-6 0 -12 1.33301 -18 4s-11 6.66699 -15 12l-210 269
l-213 -270c-8 -10 -19.333 -15 -34 -15c-11.333 0 -21 4 -29 12s-12 17.333 -12 28c0 9.33301 3.33301 18.333 10 27l224 285l-224 287c-6.66699 8.66699 -10 17.667 -10 27c0 10.667 4.33301 20 13 28s18.667 12 30 12c12.667 0 23.334 -5.33301 32.001 -16l212 -272
l213 272c9.33301 11.333 20.666 17 33.999 17z" />
    <glyph glyph-name="Y" unicode="Y" horiz-adv-x="647" 
d="M589 705c11.333 0 21.167 -4 29.5 -12s12.5 -17.667 12.5 -29c0 -10.667 -3.33301 -19.667 -10 -27l-230 -282c-8 -10 -14.5 -18.5 -19.5 -25.5s-7.5 -17.5 -7.5 -31.5v-260c0 -11.333 -3.83301 -21.166 -11.5 -29.499s-17.5 -12.5 -29.5 -12.5
c-11.333 0 -21 4.16699 -29 12.5s-12 18.166 -12 29.499v260c0 14 -2.5 24.667 -7.5 32s-11.5 16 -19.5 26l-229 280c-3.33301 4 -5.83301 8.5 -7.5 13.5s-2.5 9.83301 -2.5 14.5c0 10.667 4.16699 20 12.5 28s18.166 12 29.499 12c13.333 0 24 -5 32 -15l233 -292l234 292
c8.66699 10.667 19.334 16 32.001 16z" />
    <glyph glyph-name="Z" unicode="Z" horiz-adv-x="586" 
d="M125 0c-23.333 0 -41.5 6.16504 -54.5 18.498s-19.5 28.166 -19.5 47.499c0 16 6.66699 32.667 20 50l365 506h-339c-11.333 0 -21 3.5 -29 10.5s-12 16.167 -12 27.5c0 12 4 21.833 12 29.5s17.667 11.5 29 11.5h357c23.333 0 41.333 -6.16699 54 -18.5
s19 -27.833 19 -46.5c0 -9.33301 -2 -18.166 -6 -26.499s-9.66699 -18.166 -17 -29.499l-362 -501h364c11.333 0 21.166 -3.66699 29.499 -11s12.5 -16.666 12.5 -27.999c0 -12 -4.16699 -21.667 -12.5 -29s-18.166 -11 -29.499 -11h-381z" />
    <glyph glyph-name="bracketleft" unicode="[" horiz-adv-x="361" 
d="M352 -135c0 -11.333 -4.16699 -20.833 -12.5 -28.5s-18.166 -11.5 -29.499 -11.5h-157c-21.333 0 -37.5 6.16699 -48.5 18.5s-16.5 27.5 -16.5 45.5v840c0 17.333 5.5 32.333 16.5 45s27.167 19 48.5 19h157c11.333 0 21.166 -3.83301 29.499 -11.5
s12.5 -17.167 12.5 -28.5s-4.16699 -21 -12.5 -29s-18.166 -12 -29.499 -12h-140v-806h140c11.333 0 21.166 -4 29.499 -12s12.5 -17.667 12.5 -29z" />
    <glyph glyph-name="backslash" unicode="\" horiz-adv-x="351" 
d="M13 760c10.667 4.66699 21.168 4.66797 31.501 0.000976562s17.5 -12.334 21.5 -23.001l295 -742c4.66699 -11.333 4.66699 -22.333 0 -33s-12.334 -18 -23.001 -22s-21.167 -3.66699 -31.5 1s-17.5 12.667 -21.5 24l-295 742c-4 10 -3.83301 20.333 0.5 31
s11.833 18 22.5 22z" />
    <glyph glyph-name="bracketright" unicode="]" horiz-adv-x="361" 
d="M9 -136c0 11.333 4.16699 21 12.5 29s18.166 12 29.499 12h140v806h-140c-11.333 0 -21.166 4 -29.499 12s-12.5 17.667 -12.5 29s4.16699 20.833 12.5 28.5s18.166 11.5 29.499 11.5h156c21.333 0 37.5 -6.16699 48.5 -18.5s16.5 -27.5 16.5 -45.5v-840
c0 -18 -5.5 -33.167 -16.5 -45.5s-27.167 -18.5 -48.5 -18.5h-156c-11.333 0 -21.166 3.83301 -29.499 11.5s-12.5 17.167 -12.5 28.5z" />
    <glyph glyph-name="asciicircum" unicode="^" horiz-adv-x="611" 
d="M305 622c-5.33301 0 -9.33203 -3.33301 -11.999 -10l-92 -245c-3.33301 -10.667 -10.333 -18.167 -21 -22.5s-21 -4.5 -31 -0.5c-10.667 4 -18.167 11.333 -22.5 22s-4.5 20.667 -0.5 30l92 238c18.667 47.333 47.667 71 87 71s68.666 -23.667 87.999 -71l92 -238
c4 -9.33301 3.66699 -19.333 -1 -30s-12 -18 -22 -22c-10.667 -4 -21.167 -3.83301 -31.5 0.5s-17.5 11.833 -21.5 22.5l-91 245c-2.66699 6.66699 -7 10 -13 10z" />
    <glyph glyph-name="underscore" unicode="_" horiz-adv-x="472" 
d="M472 -197h-472v75h472v-75z" />
    <glyph glyph-name="grave" unicode="`" horiz-adv-x="360" 
d="M264 818c12.667 -6.66699 19.001 -17 19.001 -31c0 -9.33301 -3.33301 -17.333 -10 -24s-14.667 -10 -24 -10c-5.33301 0 -12 2 -20 6l-133 69c-12 6.66699 -18 16.667 -18 30c0 9.33301 3.16699 17.333 9.5 24s14.166 10 23.499 10c5.33301 0 11.333 -1.33301 18 -4z
" />
    <glyph glyph-name="a" unicode="a" horiz-adv-x="562" 
d="M481 80c0 -7.33301 -1.16406 -13.6699 -3.49707 -19.0029s-6.83301 -10 -13.5 -14c-6.66699 -5.33301 -16.5 -11.166 -29.5 -17.499s-28.333 -12.333 -46 -18s-37.5 -10.5 -59.5 -14.5s-45 -6 -69 -6c-66 0 -115.833 15.833 -149.5 47.5s-50.5 72.5 -50.5 122.5
c0 22 4.16699 42.833 12.5 62.5s20.833 36.834 37.5 51.501s37.5 26.334 62.5 35.001s54.5 13 88.5 13c24 0 46.833 -1.66699 68.5 -5s45.5 -8.66602 71.5 -15.999v41c0 40.667 -10.167 70 -30.5 88s-51.833 27 -94.5 27c-23.333 0 -45.333 -3 -66 -9
s-38.334 -11.667 -53.001 -17c-17.333 -6.66699 -31.333 -6.33398 -42 0.999023s-16 17.333 -16 30c0 7.33301 2 14.333 6 21s10.667 12.334 20 17.001c15.333 7.33301 37.166 14.5 65.499 21.5s59.5 10.5 93.5 10.5c30 0 57 -3.66699 81 -11s44.667 -18.5 62 -33.5
s30.666 -34.333 39.999 -58s14 -51.834 14 -84.501v-266zM269.003 63.9961c20 0 37.8311 1.5 53.498 4.5s28.834 6.5 39.501 10.5s19.334 8.16699 26.001 12.5s11 7.5 13 9.5v131c-25.333 6.66699 -48.5 12 -69.5 16s-44.167 6 -69.5 6c-34 0 -62.667 -7.83301 -86 -23.5
s-35 -38.167 -35 -67.5c0 -32 10.5 -56.5 31.5 -73.5s53.167 -25.5 96.5 -25.5z" />
    <glyph glyph-name="b" unicode="b" horiz-adv-x="601" 
d="M527 335c0.666992 -9.33301 1.16895 -20.3311 1.50195 -32.998s0.5 -25.5 0.5 -38.5s-0.166992 -25.833 -0.5 -38.5s-0.833008 -23.334 -1.5 -32.001c-5.33301 -62 -26.833 -111.167 -64.5 -147.5s-89.834 -54.5 -156.501 -54.5c-22.667 0 -44.5 2.33301 -65.5 7
s-40.333 10.167 -58 16.5s-33 13 -46 20s-22.5 12.5 -28.5 16.5c-7.33301 5.33301 -11.833 10.333 -13.5 15s-2.5 10.667 -2.5 18v585c0 11.333 3.83301 21.166 11.5 29.499s17.167 12.5 28.5 12.5s21 -4.16699 29 -12.5s12 -18.166 12 -29.499v-168
c18 8 39.5 15.333 64.5 22s51.5 10 79.5 10c64 0 113.667 -17.333 149 -52s55.666 -83.334 60.999 -146.001zM445.002 199.002c0.666992 8.66699 1.16797 18.835 1.50098 30.502s0.5 23.667 0.5 36s-0.166992 24.166 -0.5 35.499s-0.833008 20.666 -1.5 27.999
c-2.66699 42 -14.334 73.833 -35.001 95.5s-52.667 32.5 -96 32.5c-30 0 -58 -4 -84 -12s-45 -15.667 -57 -23v-314c5.33301 -4 13 -8.5 23 -13.5s21 -9.5 33 -13.5s24.667 -7.33301 38 -10s26 -4 38 -4c85.333 0 132 44 140 132z" />
    <glyph glyph-name="c" unicode="c" horiz-adv-x="557" 
d="M298 67c26 0 50.8281 6.83691 74.4951 20.5039s41.5 35.167 53.5 64.5c4.66699 10 10.167 17 16.5 21s13.833 6 22.5 6c10.667 0 19.667 -3.83301 27 -11.5s11 -17.5 11 -29.5c0 -11.333 -4.16699 -25.5 -12.5 -42.5s-21 -33.167 -38 -48.5s-38.5 -28.5 -64.5 -39.5
s-56.333 -16.5 -91 -16.5c-32 0 -61.5 5.16699 -88.5 15.5s-50.167 24.666 -69.5 42.999s-34.666 39.833 -45.999 64.5s-18 51 -20 79c-0.666992 10 -1.16699 21.167 -1.5 33.5s-0.5 24.833 -0.5 37.5s0.166992 25.167 0.5 37.5s0.833008 23.5 1.5 33.5
c2 29.333 8.83301 56.166 20.5 80.499s27.334 45.166 47.001 62.499s42.834 30.833 69.501 40.5s55.667 14.5 87 14.5c34.667 0 64.834 -5.5 90.501 -16.5s46.834 -24.333 63.501 -40s29.167 -31.834 37.5 -48.501s12.5 -30.667 12.5 -42c0 -12 -3.66699 -21.833 -11 -29.5
s-16.333 -11.5 -27 -11.5c-8 0 -15.333 2 -22 6s-12.334 11 -17.001 21c-11.333 29.333 -28.666 50.833 -51.999 64.5s-48 20.5 -74 20.5c-42 0 -75.667 -11.5 -101 -34.5s-39.666 -53.833 -42.999 -92.5c-0.666992 -6.66699 -1.16699 -15.667 -1.5 -27
s-0.5 -23.333 -0.5 -36s0.166992 -25.167 0.5 -37.5s0.833008 -22.833 1.5 -31.5c3.33301 -37.333 17.166 -68.5 41.499 -93.5s58.5 -37.5 102.5 -37.5z" />
    <glyph glyph-name="d" unicode="d" horiz-adv-x="601" 
d="M74 334c5.33301 62.667 25.6699 111.503 61.0029 146.503s85 52.5 149 52.5c27.333 0 53.666 -3.33301 78.999 -10s47 -14 65 -22v168c0 11.333 3.83301 21.166 11.5 29.499s17.167 12.5 28.5 12.5c12 0 21.833 -4.16699 29.5 -12.5s11.5 -18.166 11.5 -29.499v-585
c0 -7.33301 -1 -13.333 -3 -18s-6.66699 -9.66699 -14 -15c-6 -4 -15.333 -9.5 -28 -16.5s-27.834 -13.667 -45.501 -20s-37 -11.833 -58 -16.5s-42.833 -7 -65.5 -7c-66.667 0 -118.834 18.167 -156.501 54.5s-59.167 85.5 -64.5 147.5
c-0.666992 8.66699 -1.16699 19.167 -1.5 31.5s-0.5 25.166 -0.5 38.499s0.166992 26.166 0.5 38.499s0.833008 23.166 1.5 32.499zM155.004 199.003c8 -88 55 -131.999 141 -131.999c12 0 24.667 1.33301 38 4s26 6 38 10s23 8.5 33 13.5s17.667 9.5 23 13.5v314
c-12 7.33301 -31 15 -57 23s-54 12 -84 12c-43.333 0 -75.333 -10.833 -96 -32.5s-32.667 -53.167 -36 -94.5c-0.666992 -7.33301 -1.16699 -16.666 -1.5 -27.999s-0.5 -23.333 -0.5 -36s0.166992 -24.834 0.5 -36.501s0.833008 -21.834 1.5 -30.501z" />
    <glyph glyph-name="e" unicode="e" horiz-adv-x="572" 
d="M510 286c0 -17.333 -4.67188 -31.334 -14.0049 -42.001s-24.333 -16 -45 -16h-299v-16c0 -47.333 13.833 -83.666 41.5 -108.999s63.5 -38 107.5 -38c18 0 37.167 2.33301 57.5 7s41.833 11 64.5 19c8.66699 3.33301 16.667 4.66602 24 3.99902s13.5 -2.66699 18.5 -6
s8.83301 -7.66602 11.5 -12.999s4 -11 4 -17c0 -6.66699 -1.5 -13 -4.5 -19s-8.83301 -11.667 -17.5 -17c-8 -4.66699 -18.167 -9 -30.5 -13s-25.666 -7.33301 -39.999 -10s-29.166 -4.83398 -44.499 -6.50098s-30 -2.5 -44 -2.5c-34.667 0 -65.667 5.16699 -93 15.5
s-50.666 25 -69.999 44s-34.333 41.667 -45 68s-17 55.5 -19 87.5c-1.33301 19.333 -1.83301 40.333 -1.5 63s1.16602 41.667 2.49902 57c2.66699 32 10 60.833 22 86.5s27.667 47.5 47 65.5s41.833 31.667 67.5 41s53.834 14 84.501 14
c32.667 0 62.334 -5.33301 89.001 -16s49.334 -25.667 68.001 -45s33 -42.166 43 -68.499s15 -55.5 15 -87.5v-30zM417.995 295.999c7.33301 0 11.667 4 13 12c1.33301 22.667 -0.833984 43.334 -6.50098 62.001s-14.5 34.667 -26.5 48s-26.667 23.666 -44 30.999
s-36.666 11 -57.999 11c-49.333 0 -86 -14.833 -110 -44.5s-35.333 -69.5 -34 -119.5h266z" />
    <glyph glyph-name="f" unicode="f" horiz-adv-x="393" 
d="M111 555c0 49.333 13.1641 88.833 39.4971 118.5s65.5 44.5 117.5 44.5c17.333 0 34 -1 50 -3s28.667 -4.66699 38 -8c21.333 -6 32 -18.667 32 -38c0 -8.66699 -3.16699 -16.834 -9.5 -24.501s-16.166 -11.5 -29.499 -11.5c-11.333 0 -23.166 1.5 -35.499 4.5
s-26.833 4.5 -43.5 4.5c-27.333 0 -47.166 -8.16699 -59.499 -24.5s-18.5 -39.166 -18.5 -68.499v-40h140c10.667 0 19.834 -3.5 27.501 -10.5s11.5 -15.833 11.5 -26.5s-3.83301 -19.5 -11.5 -26.5s-16.834 -10.5 -27.501 -10.5h-140v-397c0 -12 -3.83301 -22 -11.5 -30
s-17.167 -12 -28.5 -12s-21 4 -29 12s-12 18 -12 30v397h-35c-10.667 0 -19.834 3.5 -27.501 10.5s-11.5 15.833 -11.5 26.5s3.83301 19.5 11.5 26.5s16.834 10.5 27.501 10.5h35v46z" />
    <glyph glyph-name="g" unicode="g" horiz-adv-x="600" 
d="M508 46c0 -38 -5.66406 -71.499 -16.9971 -100.499s-27 -53.167 -47 -72.5s-43.667 -34 -71 -44s-57.333 -15 -90 -15c-34.667 0 -65.334 4.33301 -92.001 13s-48.667 18.334 -66 29.001c-13.333 8 -22.5 15.333 -27.5 22s-7.5 13.667 -7.5 21s2.66699 15.5 8 24.5
s15.333 13.5 30 13.5c8.66699 0 16.5 -1.83301 23.5 -5.5l19.5 -10.5c15.333 -8.66699 31.5 -16.167 48.5 -22.5s38.167 -9.5 63.5 -9.5c18.667 0 36.667 3 54 9s32.666 14.833 45.999 26.5s24 26.167 32 43.5s12 37.666 12 60.999v10c-18 -8.66699 -39.667 -16.5 -65 -23.5
s-52.666 -10.5 -81.999 -10.5c-62.667 0 -111.834 18 -147.501 54s-55.5 84.333 -59.5 145c-0.666992 7.33301 -1.16699 16.666 -1.5 27.999s-0.5 23 -0.5 35s0.166992 23.667 0.5 35s0.833008 20.666 1.5 27.999c2 29.333 8.16699 56.5 18.5 81.5s24.666 46.5 42.999 64.5
s40.5 32 66.5 42s56 15 90 15c22.667 0 44.667 -2.16699 66 -6.5s40.833 -9.5 58.5 -15.5s33.167 -12.167 46.5 -18.5s23 -11.833 29 -16.5s10.333 -9.66699 13 -15s4 -13.666 4 -24.999v-390zM294.003 456.001c-47.333 0 -81.666 -11.999 -102.999 -35.999
s-33.666 -55.667 -36.999 -95c-0.666992 -8 -1.16699 -17.333 -1.5 -28s-0.5 -21.334 -0.5 -32.001s0.166992 -21 0.5 -31s0.833008 -18.333 1.5 -25c3.33301 -41.333 15.166 -73.166 35.499 -95.499s53.166 -33.5 98.499 -33.5c17.333 0 33.5 1.5 48.5 4.5
s28.5 6.66699 40.5 11s22.333 8.83301 31 13.5s15 8.66699 19 12v299c-0.666992 0.666992 -4.5 3 -11.5 7s-16.333 8.16699 -28 12.5s-25.5 8.16602 -41.5 11.499s-33.333 5 -52 5z" />
    <glyph glyph-name="h" unicode="h" horiz-adv-x="610" 
d="M173 467c17.333 18 39.833 33.5 67.5 46.5s57.5 19.5 89.5 19.5c28.667 0 55.167 -4.33301 79.5 -13s45 -21.5 62 -38.5s30.333 -38.333 40 -64s14.5 -55.167 14.5 -88.5v-291c0 -12 -4 -22 -12 -30s-17.667 -12 -29 -12s-20.833 4 -28.5 12s-11.5 18 -11.5 30v284
c0 42 -10.667 74.833 -32 98.5s-52 35.5 -92 35.5c-30 0 -58.333 -7.5 -85 -22.5s-47.667 -33.167 -63 -54.5v-341c0 -12 -3.83301 -22 -11.5 -30s-17.5 -12 -29.5 -12c-11.333 0 -20.833 4 -28.5 12s-11.5 18 -11.5 30v631c0 11.333 3.83301 21.166 11.5 29.499
s17.167 12.5 28.5 12.5s21 -4.16699 29 -12.5s12 -18.166 12 -29.499v-202z" />
    <glyph glyph-name="i" unicode="i" horiz-adv-x="273" 
d="M186 657c0 -13.333 -4.83301 -25.166 -14.5 -35.499s-21.5 -15.5 -35.5 -15.5s-25.667 5.16699 -35 15.5s-14 22.166 -14 35.499c0 14 4.66699 25.833 14 35.5s21 14.5 35 14.5s25.833 -4.83301 35.5 -14.5s14.5 -21.5 14.5 -35.5zM136 526
c11.333 0 21 -4.16699 29 -12.5s12 -18.166 12 -29.499v-446c0 -12 -3.83301 -22 -11.5 -30s-17.5 -12 -29.5 -12c-10.667 0 -20 4 -28 12s-12 18 -12 30v446c0 11.333 3.83301 21.166 11.5 29.499s17.167 12.5 28.5 12.5z" />
    <glyph glyph-name="j" unicode="j" horiz-adv-x="266" 
d="M42 -191c-11.333 0 -20.8359 3.83496 -28.5029 11.502s-11.5 17.167 -11.5 28.5c0 9.33301 4 18.666 12 27.999c14.667 16 26.834 31.333 36.501 46s17.334 29.5 23.001 44.5s9.66699 31 12 48s3.5 36.167 3.5 57.5v411c0 11.333 3.83301 21.166 11.5 29.499
s17.167 12.5 28.5 12.5s21 -4.16699 29 -12.5s12 -18.166 12 -29.499v-408c0 -29.333 -2.16699 -55.833 -6.5 -79.5s-10.666 -45.5 -18.999 -65.5s-18.5 -38.833 -30.5 -56.5s-25.667 -34.834 -41 -51.501c-8 -9.33301 -18.333 -14 -31 -14zM178.997 657.002
c0 -13.333 -4.83301 -25.166 -14.5 -35.499s-21.5 -15.5 -35.5 -15.5s-25.667 5.16699 -35 15.5s-14 22.166 -14 35.499c0 14 4.66699 25.833 14 35.5s21 14.5 35 14.5s25.833 -4.83301 35.5 -14.5s14.5 -21.5 14.5 -35.5z" />
    <glyph glyph-name="k" unicode="k" horiz-adv-x="535" 
d="M463 528c11.333 0 20.667 -3.99805 28 -11.998s11 -17.333 11 -28c0 -11.333 -4 -21 -12 -29l-197 -189l200 -203c8 -8.66699 12.333 -18.334 13 -29.001s-3 -20.667 -11 -30c-7.33301 -8.66699 -17 -12.667 -29 -12s-21.667 5 -29 13l-191 196
c-10 10 -18.833 16.5 -26.5 19.5s-17.167 4.5 -28.5 4.5h-18v-191c0 -12 -3.83301 -22 -11.5 -30s-17.5 -12 -29.5 -12c-11.333 0 -20.833 4.16699 -28.5 12.5s-11.5 18.166 -11.5 29.499v631c0 11.333 3.83301 21 11.5 29s17.167 12 28.5 12s21 -4 29 -12
s12 -17.667 12 -29v-361h17c11.333 0 21 1.33301 29 4s17 9 27 19l187 184c8 8.66699 18 13 30 13z" />
    <glyph glyph-name="l" unicode="l" horiz-adv-x="265" 
d="M132 710c11.333 0 21 -4 29 -12s12 -17.667 12 -29v-631c0 -12 -3.83301 -22 -11.5 -30s-17.5 -12 -29.5 -12c-11.333 0 -20.833 4 -28.5 12s-11.5 18 -11.5 30v631c0 11.333 3.83301 21 11.5 29s17.167 12 28.5 12z" />
    <glyph glyph-name="m" unicode="m" horiz-adv-x="874" 
d="M790 38c0 -12 -3.83105 -21.998 -11.498 -29.998s-17.167 -12 -28.5 -12s-21 4 -29 12s-12 18 -12 30v286c0 46 -9.66699 79.5 -29 100.5s-47.666 31.5 -84.999 31.5c-28 0 -51.5 -5.33301 -70.5 -16s-33.5 -23 -43.5 -37v-365c0 -12 -3.83301 -22 -11.5 -30
s-17.167 -12 -28.5 -12s-21 4 -29 12s-12 18 -12 30v295c0 43.333 -10.167 74.666 -30.5 93.999s-48.166 29 -83.499 29c-19.333 0 -36 -1.66699 -50 -5s-25.667 -7 -35 -11s-16.333 -7.66699 -21 -11s-7.33398 -5.33301 -8.00098 -6v-385c0 -12 -3.83301 -22 -11.5 -30
s-17.167 -12 -28.5 -12s-21 4 -29 12s-12 18 -12 30v404c0 9.33301 1.66699 16.666 5 21.999s8.66602 11 15.999 17c19.333 14.667 44.166 27 74.499 37s63.166 15 98.499 15c71.333 0 122.666 -20.333 153.999 -61c8 6.66699 16.833 13.5 26.5 20.5
s20.834 13.5 33.501 19.5s27.167 11 43.5 15s34.5 6 54.5 6c68.667 0 118 -17.5 148 -52.5s45 -85.5 45 -151.5v-291z" />
    <glyph glyph-name="n" unicode="n" 
d="M525 38c0 -12 -3.66992 -22 -11.0029 -30s-17 -12 -29 -12c-11.333 0 -21 4 -29 12s-12 18 -12 30v287c0 22.667 -3.66699 42.334 -11 59.001s-17 30.334 -29 41.001s-26.167 18.5 -42.5 23.5s-33.5 7.5 -51.5 7.5c-28 0 -54.667 -3.5 -80 -10.5
s-44.666 -14.5 -57.999 -22.5v-385c0 -12 -3.83301 -22 -11.5 -30s-17.167 -12 -28.5 -12s-21 4 -29 12s-12 18 -12 30v405c0 9.33301 1.5 16.5 4.5 21.5s7.5 9.83301 13.5 14.5c6.66699 5.33301 16.334 11.166 29.001 17.499s27.5 12.166 44.5 17.499
s36.333 9.83301 58 13.5s45.5 5.5 71.5 5.5c70.667 0 123.834 -17.5 159.501 -52.5s53.5 -85.5 53.5 -151.5v-291z" />
    <glyph glyph-name="o" unicode="o" horiz-adv-x="592" 
d="M296 533c30.667 0 59.334 -4.83301 86.001 -14.5s49.834 -23.167 69.501 -40.5s35.334 -38.166 47.001 -62.499s18.5 -51.166 20.5 -80.499c1.33301 -20.667 2 -44.5 2 -71.5s-0.666992 -50.5 -2 -70.5c-2 -29.333 -8.83301 -56.333 -20.5 -81s-27.334 -46 -47.001 -64
s-42.834 -32 -69.501 -42s-55.334 -15 -86.001 -15s-59.167 5 -85.5 15s-49.5 24 -69.5 42s-35.833 39.333 -47.5 64s-18.5 51.667 -20.5 81c-0.666992 10 -1.16699 21.167 -1.5 33.5s-0.5 24.833 -0.5 37.5s0.166992 25.167 0.5 37.5s0.833008 23.5 1.5 33.5
c2 29.333 8.83301 56.166 20.5 80.499s27.5 45.166 47.5 62.499s43.167 30.833 69.5 40.5s54.833 14.5 85.5 14.5zM296 457c-42 0 -75.498 -12 -100.498 -36s-38.833 -54.667 -41.5 -92c-0.666992 -8.66699 -1.16699 -18.834 -1.5 -30.501s-0.5 -23.5 -0.5 -35.5
s0.166992 -23.667 0.5 -35s0.833008 -21.333 1.5 -30c3.33301 -39.333 17.666 -71 42.999 -95s58.333 -36 99 -36s73.667 12 99 36s39.666 55.667 42.999 95c0.666992 8.66699 1 18.667 1 30v35v35.5c0 11.667 -0.333008 21.834 -1 30.501
c-2.66699 37.333 -16.5 68 -41.5 92s-58.5 36 -100.5 36z" />
    <glyph glyph-name="p" unicode="p" horiz-adv-x="600" 
d="M527 190c-5.33301 -62.667 -26.667 -111.503 -64 -146.503s-89.333 -52.5 -156 -52.5c-25.333 0 -49.833 3.33301 -73.5 10s-44.167 14 -61.5 22v-175c0 -11.333 -3.83301 -21.166 -11.5 -29.499s-17.167 -12.5 -28.5 -12.5s-21 4.16699 -29 12.5s-12 18.166 -12 29.499
v593c0 6.66699 1 12.334 3 17.001s6.33301 9.33398 13 14.001c6 4.66699 15.667 10.334 29 17.001s29 13.334 47 20.001s37.833 12.334 59.5 17.001s44.167 7 67.5 7c65.333 0 116.5 -18.167 153.5 -54.5s58.167 -85.5 63.5 -147.5
c0.666992 -8.66699 1.16699 -19.334 1.5 -32.001s0.5 -25.5 0.5 -38.5s-0.166992 -25.833 -0.5 -38.5s-0.833008 -23.334 -1.5 -32.001zM444.999 324.997c-8 88 -53.3311 131.999 -135.998 131.999c-12.667 0 -25.834 -1.33301 -39.501 -4s-26.834 -6 -39.501 -10
s-24 -8.5 -34 -13.5s-18 -9.5 -24 -13.5v-312c5.33301 -3.33301 12.666 -7.16602 21.999 -11.499s19.833 -8.33301 31.5 -12s24.334 -6.83398 38.001 -9.50098s27.5 -4 41.5 -4c46 0 80 10.833 102 32.5s34.667 53.167 38 94.5c0.666992 7.33301 1.16699 16.666 1.5 27.999
s0.5 23.333 0.5 36s-0.166992 24.834 -0.5 36.501s-0.833008 21.834 -1.5 30.501z" />
    <glyph glyph-name="q" unicode="q" horiz-adv-x="601" 
d="M74 189c-0.666992 9.33301 -1.16992 20.3379 -1.50293 33.0049s-0.5 25.5 -0.5 38.5s0.166992 25.667 0.5 38s0.833008 23.166 1.5 32.499c5.33301 62 26.333 111.167 63 147.5s87.667 54.5 153 54.5c23.333 0 46 -2.33301 68 -7s42 -10.334 60 -17.001
s33.667 -13.334 47 -20.001s23 -12.334 29 -17.001c6.66699 -4.66699 10.834 -9.33398 12.501 -14.001s2.5 -10.334 2.5 -17.001v-593c0 -11.333 -3.83301 -21.166 -11.5 -29.499s-17.5 -12.5 -29.5 -12.5c-11.333 0 -20.833 4.16699 -28.5 12.5s-11.5 18.166 -11.5 29.499
v175c-17.333 -8 -38.333 -15.333 -63 -22s-50 -10 -76 -10c-65.333 0 -116.166 17.333 -152.499 52s-57.166 83.334 -62.499 146.001zM154.997 325.005c-0.666992 -8.66699 -1.16504 -18.835 -1.49805 -30.502s-0.5 -23.667 -0.5 -36s0.166992 -24.166 0.5 -35.499
s0.833008 -20.666 1.5 -27.999c3.33301 -42 15.833 -73.833 37.5 -95.5s54.5 -32.5 98.5 -32.5c29.333 0 56.666 4 81.999 12s43.666 15.667 54.999 23v314c-6 4 -14 8.5 -24 13.5s-21.333 9.5 -34 13.5s-25.667 7.33301 -39 10s-26.333 4 -39 4
c-83.333 0 -129 -44 -137 -132z" />
    <glyph glyph-name="r" unicode="r" horiz-adv-x="378" 
d="M335 522c21.333 -5.33301 32 -17.999 32 -37.999c0 -8 -3.16699 -16.167 -9.5 -24.5s-16.5 -12.5 -30.5 -12.5c-10 0 -21.333 1.33301 -34 4s-27.667 4 -45 4c-28 -0.666992 -48.5 -8.16699 -61.5 -22.5s-19.5 -36.833 -19.5 -67.5v-328c0 -11.333 -4 -21 -12 -29
s-17.667 -12 -29 -12s-21 4 -29 12s-12 17.667 -12 29v337c0 49.333 14 88.166 42 116.499s68.333 42.5 121 42.5c17.333 0 33.833 -1 49.5 -3s28.167 -4.66699 37.5 -8z" />
    <glyph glyph-name="s" unicode="s" horiz-adv-x="487" 
d="M308 292c88.667 -22.667 132.998 -69.6631 132.998 -140.996c0 -24.667 -4.66699 -46.834 -14 -66.501s-22.5 -36.5 -39.5 -50.5s-37.5 -24.667 -61.5 -32s-50.333 -11 -79 -11c-73.333 0 -132.666 18.667 -177.999 56c-8 6.66699 -12.667 15.334 -14 26.001
s0.666992 20 6 28c6.66699 8.66699 15 14 25 16s20.333 -0.666992 31 -8l25.5 -17.5c8.33301 -5.66699 17.833 -10.5 28.5 -14.5s22.667 -7.16699 36 -9.5s29 -3.5 47 -3.5c34 0 60.333 8 79 24s28 35.667 28 59c0 17.333 -6.16699 31.833 -18.5 43.5
s-32.833 21.167 -61.5 28.5c-8.66699 2 -15.5 3.5 -20.5 4.5s-9.66699 2 -14 3l-15 3.5c-5.66699 1.33301 -13.167 3.33301 -22.5 6c-46.667 12 -81.834 29.167 -105.501 51.5s-35.5 52.5 -35.5 90.5c0 24 4.5 45.5 13.5 64.5s21.833 35.167 38.5 48.5
s36.5 23.666 59.5 30.999s48.167 11 75.5 11c28.667 0 55.834 -4.16699 81.501 -12.5s46.167 -18.5 61.5 -30.5c10 -8 14.833 -17.667 14.5 -29s-3.5 -20.333 -9.5 -27c-6.66699 -7.33301 -15 -11.333 -25 -12s-19.667 1.66602 -29 6.99902
c-16 9.33301 -31.833 16.666 -47.5 21.999s-32.167 8 -49.5 8c-35.333 0 -61.666 -6.83301 -78.999 -20.5s-26 -32.834 -26 -57.501c0 -16 5.5 -29.5 16.5 -40.5s31.5 -20.5 61.5 -28.5c16 -4.66699 31.833 -8.66699 47.5 -12s27.5 -6 35.5 -8z" />
    <glyph glyph-name="t" unicode="t" horiz-adv-x="408" 
d="M343 8c-13.333 -5.33301 -29 -9.49902 -47 -12.499s-36.667 -4.5 -56 -4.5c-26.667 0 -49.667 4.16699 -69 12.5s-35.333 19.833 -48 34.5s-22 32.167 -28 52.5s-9 42.166 -9 65.499v435c0 11.333 3.83301 21 11.5 29s17.167 12 28.5 12s21 -4 29 -12s12 -17.667 12 -29
v-82h151c10 0 18.833 -3.5 26.5 -10.5s11.5 -15.833 11.5 -26.5s-3.83301 -19.5 -11.5 -26.5s-16.5 -10.5 -26.5 -10.5h-151v-282c0 -25.333 6 -46.166 18 -62.499s31.667 -24.5 59 -24.5c14.667 0 28.667 2.16699 42 6.5s26 8.16602 38 11.499c16.667 4 29.5 2 38.5 -6
s13.5 -18.333 13.5 -31c0 -18.667 -11 -31.667 -33 -39z" />
    <glyph glyph-name="u" unicode="u" 
d="M84 484c0 11.333 3.83105 21.166 11.498 29.499s17.167 12.5 28.5 12.5s21 -4.16699 29 -12.5s12 -18.166 12 -29.499v-290c0 -39.333 11.833 -70.166 35.5 -92.499s56.5 -33.5 98.5 -33.5c32 0 59.333 3.83301 82 11.5s41.334 16.167 56.001 25.5v379
c0 11.333 3.83301 21.166 11.5 29.499s17.167 12.5 28.5 12.5s21 -4.16699 29 -12.5s12 -18.166 12 -29.499v-400c0 -14.667 -5.66699 -25.667 -17 -33c-7.33301 -5.33301 -17.166 -11.5 -29.499 -18.5s-27 -13.5 -44 -19.5s-36.167 -11.167 -57.5 -15.5s-45 -6.5 -71 -6.5
c-32 0 -61.167 4.5 -87.5 13.5s-49 22.167 -68 39.5s-33.667 38.666 -44 63.999s-15.5 54.333 -15.5 87v289z" />
    <glyph glyph-name="v" unicode="v" horiz-adv-x="513" 
d="M449 526c14.667 0 26.002 -6 34.002 -18s9.33301 -25.333 4 -40l-153 -411c-16 -42 -42 -63 -78 -63c-34.667 0 -59.667 20.667 -75 62l-155 413c-6 15.333 -4.83301 28.833 3.5 40.5s20.166 17.5 35.499 17.5c8.66699 0 16.167 -2.83301 22.5 -8.5
s11.166 -12.5 14.499 -20.5l150 -415c1.33301 -2.66699 3 -4 5 -4s3.66699 1.33301 5 4l147 411c3.33301 9.33301 8.5 17 15.5 23s15.167 9 24.5 9z" />
    <glyph glyph-name="w" unicode="w" horiz-adv-x="812" 
d="M412 433c-0.666992 2.66699 -2.33691 3.99805 -5.00391 3.99805c-3.33301 0 -5 -1.33301 -5 -4l-102 -382c-5.33301 -21.333 -14.333 -37.166 -27 -47.499s-27.667 -15.5 -45 -15.5s-32.833 5 -46.5 15s-23.167 25.667 -28.5 47l-116 420
c-4 15.333 -2.33301 28.833 5 40.5s18 17.5 32 17.5c8.66699 0 16.334 -2.5 23.001 -7.5s11.334 -12.167 14.001 -21.5l113 -422c1.33301 -3.33301 3 -5 5 -5s3.66699 1.66699 5 5l101 392c4.66699 18.667 13.667 33.167 27 43.5s28.333 15.5 45 15.5
c17.333 0 32.333 -5.16699 45 -15.5s21.667 -25.166 27 -44.499l101 -391c1.33301 -3.33301 3 -5 5 -5s3.66699 1.66699 5 5l109 419c2 10 6.66699 17.833 14 23.5s16 8.5 26 8.5c14.667 0 25.5 -6 32.5 -18s8.5 -25.333 4.5 -40l-117 -420c-6 -21.333 -15.5 -37 -28.5 -47
s-28.167 -15 -45.5 -15s-32.666 5 -45.999 15s-22.666 25.667 -27.999 47z" />
    <glyph glyph-name="x" unicode="x" horiz-adv-x="544" 
d="M494 35c0 -10 -3.83203 -18.999 -11.499 -26.999s-17.167 -12 -28.5 -12c-13.333 0 -24 5 -32 15l-150 192l-149 -192c-4 -5.33301 -9 -9.16602 -15 -11.499s-12 -3.5 -18 -3.5c-11.333 0 -20.833 4 -28.5 12s-11.5 17.333 -11.5 28c0 10 3.33301 18.667 10 26l161 204
l-153 193c-6.66699 7.33301 -10 16.333 -10 27c0 9.33301 3.83301 18.166 11.5 26.499s17.167 12.5 28.5 12.5c13.333 0 24 -5 32 -15l141 -181l141 180c4 5.33301 9.16699 9.33301 15.5 12s12.833 4 19.5 4c11.333 0 20.666 -3.83301 27.999 -11.5s11 -16.834 11 -27.501
c0 -10 -3.33301 -19.333 -10 -28l-152 -193l160 -203c6.66699 -7.33301 10 -16.333 10 -27z" />
    <glyph glyph-name="y" unicode="y" horiz-adv-x="512" 
d="M27 467c-6 15.333 -4.99902 28.832 3.00098 40.499s19.667 17.5 35 17.5c10 0 17.833 -2.66699 23.5 -8s10.5 -12.333 14.5 -21l155 -357c2.66699 -5.33301 5.33398 -5.33301 8.00098 0l141 354c3.33301 9.33301 8.33301 17 15 23s15 9 25 9
c15.333 0 27 -6.16699 35 -18.5s9 -25.5 3 -39.5l-188 -456c-19.333 -46 -41.833 -85.833 -67.5 -119.5s-49.5 -57.167 -71.5 -70.5c-13.333 -8 -25.333 -12 -36 -12s-20 3.5 -28 10.5s-12 16.167 -12 27.5c0 6.66699 1.66699 13.334 5 20.001s8 11.667 14 15
c21.333 12 42.666 30.167 63.999 54.5s38.666 56.5 51.999 96.5z" />
    <glyph glyph-name="z" unicode="z" horiz-adv-x="509" 
d="M143 75h274c11.333 0 20.833 -3.5 28.5 -10.5s11.5 -15.833 11.5 -26.5c0 -11.333 -3.83301 -20.5 -11.5 -27.5s-17.167 -10.5 -28.5 -10.5h-290c-22 0 -39.333 6 -52 18s-19 26.667 -19 44c0 9.33301 1.83301 18.5 5.5 27.5s8.5 17.167 14.5 24.5l297 326h-263
c-10.667 0 -20 3.33301 -28 10s-12 15.667 -12 27s4 20.5 12 27.5s17.333 10.5 28 10.5h278c21.333 0 38 -5.5 50 -16.5s18.667 -24.833 20 -41.5c2 -21.333 -6 -42 -24 -62z" />
    <glyph glyph-name="braceleft" unicode="{" horiz-adv-x="380" 
d="M219 711c-8.66699 0 -15.832 -2.83398 -21.499 -8.50098s-8.5 -12.834 -8.5 -21.501v-217c0 -21.333 -2.16699 -40.333 -6.5 -57s-9.83301 -31 -16.5 -43s-14 -22 -22 -30s-15.333 -14.333 -22 -19c6.66699 -5.33301 14 -12 22 -20s15.333 -18 22 -30
s12.167 -26.167 16.5 -42.5s6.5 -35.166 6.5 -56.499v-231c0 -8.66699 2.66699 -15.834 8 -21.501s12.333 -8.5 21 -8.5h111c11.333 0 21.166 -4 29.499 -12s12.5 -17.667 12.5 -29s-4.16699 -20.833 -12.5 -28.5s-18.166 -11.5 -29.499 -11.5h-117
c-14 0 -27.5 2.66699 -40.5 8s-24.167 12.833 -33.5 22.5s-16.833 20.834 -22.5 33.501s-8.5 26 -8.5 40v237c0 24.667 -3.5 45.667 -10.5 63s-21.167 34.333 -42.5 51c-5.33301 4 -10 8.83301 -14 14.5s-6 12.834 -6 21.501c0 8 2 14.833 6 20.5s8.66699 10.5 14 14.5
c21.333 16.667 35.5 33.667 42.5 51s10.5 38.333 10.5 63v228c0 14 2.66699 27 8 39s12.666 22.5 21.999 31.5s20 16.167 32 21.5s25 8 39 8h121c11.333 0 21.166 -3.83301 29.499 -11.5s12.5 -17.167 12.5 -28.5s-4.16699 -21 -12.5 -29s-18.166 -12 -29.499 -12h-110z" />
    <glyph glyph-name="bar" unicode="|" horiz-adv-x="306" 
d="M150 835c11.333 0 21 -4.16602 29 -12.499s12 -18.166 12 -29.499v-891c0 -12 -4 -22 -12 -30s-17.667 -12 -29 -12s-21 4.16699 -29 12.5s-12 18.166 -12 29.499v891c0 11.333 4 21.166 12 29.499s17.667 12.5 29 12.5z" />
    <glyph glyph-name="braceright" unicode="}" horiz-adv-x="380" 
d="M272 -72c0 -14 -2.66602 -27.332 -7.99902 -39.999s-12.833 -23.834 -22.5 -33.501s-20.834 -17.167 -33.501 -22.5s-26 -8 -40 -8h-117c-11.333 0 -21.166 3.83301 -29.499 11.5s-12.5 17.167 -12.5 28.5s4.16699 21 12.5 29s18.166 12 29.499 12h110
c8.66699 0 15.834 2.83301 21.501 8.5s8.5 12.834 8.5 21.501v231c0 21.333 2.16699 40.166 6.5 56.499s9.83301 30.5 16.5 42.5s13.834 22 21.501 30s15.167 14.667 22.5 20c-7.33301 4.66699 -14.833 11 -22.5 19s-14.834 18 -21.501 30s-12.167 26.333 -16.5 43
s-6.5 35.667 -6.5 57v217c0 8.66699 -2.83301 15.834 -8.5 21.501s-12.834 8.5 -21.501 8.5h-110c-11.333 0 -21.166 4 -29.499 12s-12.5 17.667 -12.5 29s4.16699 20.833 12.5 28.5s18.166 11.5 29.499 11.5h121c28 0 51.667 -9.66699 71 -29s29 -43 29 -71v-228
c0 -24.667 3.5 -45.667 10.5 -63s21.167 -34.333 42.5 -51c5.33301 -4 10 -8.83301 14 -14.5s6 -12.5 6 -20.5c0 -8.66699 -2 -15.834 -6 -21.501s-8.66699 -10.5 -14 -14.5c-21.333 -16.667 -35.5 -33.667 -42.5 -51s-10.5 -38.333 -10.5 -63v-237z" />
    <glyph glyph-name="asciitilde" unicode="~" horiz-adv-x="633" 
d="M499 395c10 5.33301 19.001 7.66504 27.001 6.99805s14.667 -3 20 -7s9.5 -9.16699 12.5 -15.5s4.5 -12.166 4.5 -17.499c0 -10.667 -3 -19.5 -9 -26.5s-13.667 -12.167 -23 -15.5c-21.333 -9.33301 -41.833 -16.833 -61.5 -22.5s-38.5 -8.5 -56.5 -8.5
c-19.333 0 -36.833 2.66699 -52.5 8s-31.167 11.333 -46.5 18s-30.833 12.667 -46.5 18s-32.834 8 -51.501 8c-12.667 0 -25.5 -2.16699 -38.5 -6.5s-27.5 -10.5 -43.5 -18.5c-10 -5.33301 -19 -7.66602 -27 -6.99902s-14.833 3 -20.5 7s-10 9 -13 15s-4.5 12 -4.5 18
c0 10.667 3 19.5 9 26.5s13.667 12.167 23 15.5c22.667 9.33301 43.5 16.833 62.5 22.5s37.167 8.5 54.5 8.5c18.667 0 36 -2.66699 52 -8s31.667 -11.333 47 -18s30.833 -12.667 46.5 -18s32.834 -8 51.501 -8c13.333 0 26.666 2.16699 39.999 6.5s28 10.5 44 18.5z" />
    <glyph glyph-name="exclamdown" unicode="&#xa1;" horiz-adv-x="215" 
d="M67 41.04c0 -11.333 4 -21.166 12 -29.499s17.667 -12.499 29 -12.499s20.833 4.16602 28.5 12.499s11.5 18.166 11.5 29.499l-5 395.976c0 10 -3.5 18.5 -10.5 25.499s-15.5 10.499 -25.5 10.499c-9.33301 0 -17.5 -3.66602 -24.5 -10.999s-10.5 -15.666 -10.5 -24.999z
M66 616.005c0 -11.333 4.16699 -20.832 12.5 -28.498s18.166 -11.499 29.499 -11.499s21 3.83301 29 11.499s12 17.165 12 28.498v52.9971c0 11.333 -4 20.832 -12 28.498s-17.667 11.499 -29 11.499s-21.166 -4 -29.499 -11.999s-12.5 -17.332 -12.5 -27.998v-52.9971z" />
    <glyph glyph-name="cent" unicode="&#xa2;" horiz-adv-x="504" 
d="M321 579c31.333 -5.33301 58.667 -17.3369 82 -36.0039s40 -40.667 50 -66c1.33301 -2.66699 2.5 -5.66699 3.5 -9s1.5 -7 1.5 -11c0 -10.667 -4 -19.5 -12 -26.5s-16.667 -10.5 -26 -10.5s-16.833 2.66699 -22.5 8s-9.83398 10.666 -12.501 15.999
c-8.66699 20 -21.667 36.167 -39 48.5s-37 18.5 -59 18.5c-36 0 -63.5 -10.833 -82.5 -32.5s-30.167 -49.167 -33.5 -82.5c-3.33301 -31.333 -3.33301 -62.333 0 -93c3.33301 -33.333 14.5 -60.5 33.5 -81.5s46.5 -31.5 82.5 -31.5c22 0 41.667 5.83301 59 17.5
s30.333 27.834 39 48.501c2.66699 5.33301 6.83398 10.5 12.501 15.5s13.167 7.5 22.5 7.5s17.833 -3.33301 25.5 -10s11.5 -15.334 11.5 -26.001c0 -2.66699 -0.333008 -5.16699 -1 -7.5s-1.66699 -5.16602 -3 -8.49902c-13.333 -29.333 -31 -53.166 -53 -71.499
s-48.333 -30.5 -79 -36.5v-89c0 -11.333 -3.5 -20.666 -10.5 -27.999s-15.5 -11 -25.5 -11s-18.667 3.83301 -26 11.5s-11 16.834 -11 27.501v91c-43.333 8 -79.166 28.333 -107.499 61s-44.166 72 -47.499 118c-2 32.667 -2 66 0 100c1.33301 22.667 6.16602 44 14.499 64
s19.333 37.833 33 53.5s29.667 28.834 48 39.501s38.166 18 59.499 22v91c0 11.333 3.66699 20.666 11 27.999s16 11 26 11s18.5 -3.66699 25.5 -11s10.5 -16.666 10.5 -27.999v-91z" />
    <glyph glyph-name="sterling" unicode="&#xa3;" horiz-adv-x="565" 
d="M53 288c-11.333 0 -21.001 3.83594 -29.001 11.5029s-12 17.5 -12 29.5c0 11.333 4 20.5 12 27.5s17.667 10.5 29 10.5h52l-15.5 71c-5 23.333 -7.5 45.333 -7.5 66c0 28 4.5 54.5 13.5 79.5s22.5 46.833 40.5 65.5s40.5 33.5 67.5 44.5s58.167 16.5 93.5 16.5
c24 0 45.833 -2.5 65.5 -7.5s37.5 -11.167 53.5 -18.5s30 -15.833 42 -25.5s22.667 -18.834 32 -27.501c6.66699 -6.66699 11.167 -12.834 13.5 -18.501s3.5 -11.167 3.5 -16.5c0 -11.333 -3.66699 -20.833 -11 -28.5s-16.666 -11.5 -27.999 -11.5s-23.333 5.33301 -36 16
c-19.333 18 -39.166 32.333 -59.499 43s-46.166 16 -77.499 16c-24.667 0 -45.334 -3.83301 -62.001 -11.5s-30.167 -17.667 -40.5 -30s-17.833 -25.833 -22.5 -40.5s-7 -29 -7 -43c0 -19.333 2.66699 -40.5 8 -63.5s10.666 -48.167 15.999 -75.5h148
c11.333 0 21.166 -3.5 29.499 -10.5s12.5 -16.167 12.5 -27.5s-4.16699 -21 -12.5 -29s-18.166 -12 -29.499 -12h-138c3.33301 -30 0.333008 -63.833 -9 -101.5s-23.333 -73.5 -42 -107.5h341c11.333 0 21.166 -3.83301 29.499 -11.5s12.5 -17.167 12.5 -28.5
s-4.16699 -20.666 -12.5 -27.999s-18.166 -11 -29.499 -11h-370c-19.333 0 -34.333 5.16699 -45 15.5s-16 23.166 -16 38.499c0 8 1.5 15.667 4.5 23s7.16699 16.666 12.5 27.999c15.333 30.667 27 61 35 91s10.333 60.667 7 92h-62z" />
    <glyph glyph-name="currency" unicode="&#xa4;" horiz-adv-x="621" 
d="M311 560c21.333 0 41.8359 -3.50195 61.5029 -10.502s37.167 -16.833 52.5 -29.5l79 79c8 8.66699 17.5 13 28.5 13s20.5 -4 28.5 -12c7.33301 -7.33301 11 -16.5 11 -27.5s-4 -20.5 -12 -28.5l-85 -86c5.33301 -11.333 9.33301 -23.666 12 -36.999
s4.33398 -26.666 5.00098 -39.999c0.666992 -20.667 0.666992 -41.334 0 -62.001c-0.666992 -14 -2.33398 -27.333 -5.00098 -40s-6.66699 -24.667 -12 -36l85 -85c8 -8 12 -17.667 12 -29s-3.66699 -20.666 -11 -27.999c-8 -7.33301 -17.333 -10.833 -28 -10.5
s-20.334 4.5 -29.001 12.5l-78 77c-32 -26.667 -70.333 -40 -115 -40c-45.333 0 -84 13.333 -116 40l-78 -77c-8 -8 -17.333 -12.167 -28 -12.5s-20.334 3.16699 -29.001 10.5c-7.33301 7.33301 -10.833 16.666 -10.5 27.999s4.16602 21 11.499 29l86 85
c-11.333 23.333 -17.333 48.666 -18 75.999c-0.666992 20.667 -0.666992 41.334 0 62.001c1.33301 28.667 7.33301 54.334 18 77.001l-85 86c-8 8 -12.167 17.5 -12.5 28.5s3.16699 20.167 10.5 27.5c8.66699 8 18.5 12 29.5 12s20.167 -4.33301 27.5 -13l79 -79
c15.333 12.667 32.833 22.5 52.5 29.5s40.5 10.5 62.5 10.5zM311.003 486.998c-15.333 0 -29.3379 -2.83105 -42.0049 -8.49805s-23.667 -13.334 -33 -23.001s-17 -21 -23 -34s-9.33301 -26.833 -10 -41.5c-1.33301 -10.667 -1.83301 -20.834 -1.5 -30.501
s0.833008 -19.5 1.5 -29.5c0.666992 -15.333 3.83398 -29.5 9.50098 -42.5s13.334 -24.333 23.001 -34s20.834 -17.334 33.501 -23.001s26.667 -8.5 42 -8.5c14.667 0 28.334 2.83301 41.001 8.5s23.667 13.334 33 23.001s16.833 21 22.5 34s8.83398 27.167 9.50098 42.5
c0.666992 17.333 0.666992 37.333 0 60c-1.33301 30 -11.833 55.333 -31.5 76s-44.5 31 -74.5 31z" />
    <glyph glyph-name="yen" unicode="&#xa5;" horiz-adv-x="647" 
d="M26 636c-7.33301 9.33301 -10.666 19.668 -9.99902 31.001s5.66699 20.666 15 27.999c8.66699 7.33301 18.834 10.5 30.501 9.5s21.167 -6.16699 28.5 -15.5l233 -292l234 292c7.33301 9.33301 16.666 14.5 27.999 15.5s21.666 -2.16699 30.999 -9.5
c8.66699 -7.33301 13.5 -16.5 14.5 -27.5s-2.16699 -21.167 -9.5 -30.5l-230 -282c-8 -10 -14.5 -18.5 -19.5 -25.5s-7.5 -17.5 -7.5 -31.5v-4h120c10.667 0 19.834 -3.5 27.501 -10.5s11.5 -16.167 11.5 -27.5s-3.83301 -20.5 -11.5 -27.5s-16.834 -10.5 -27.501 -10.5
h-120v-180c0 -11.333 -3.83301 -21.166 -11.5 -29.499s-17.5 -12.5 -29.5 -12.5c-11.333 0 -21 4.16699 -29 12.5s-12 18.166 -12 29.499v180h-119c-11.333 0 -20.833 3.5 -28.5 10.5s-11.5 16.167 -11.5 27.5s3.83301 20.5 11.5 27.5s17.167 10.5 28.5 10.5h119v4
c0 14 -2.5 24.667 -7.5 32s-11.5 16 -19.5 26z" />
    <glyph glyph-name="brokenbar" unicode="&#xa6;" horiz-adv-x="306" 
d="M150 311c11.333 0 21 -4.16602 29 -12.499s12 -18.166 12 -29.499v-367c0 -12 -4 -22 -12 -30s-17.667 -12 -29 -12s-21 4.16699 -29 12.5s-12 18.166 -12 29.499v367c0 11.333 4 21.166 12 29.499s17.667 12.5 29 12.5zM150 835.001c11.333 0 21 -4.16602 29 -12.499
s12 -18.166 12 -29.499v-367c0 -12 -4 -22 -12 -30s-17.667 -12 -29 -12s-21 4.16699 -29 12.5s-12 18.166 -12 29.499v367c0 11.333 4 21.166 12 29.499s17.667 12.5 29 12.5z" />
    <glyph glyph-name="section" unicode="&#xa7;" horiz-adv-x="580" 
d="M493 274c0 -16.667 -3.50195 -32.6689 -10.502 -48.002s-15.5 -28.666 -25.5 -39.999c27.333 -27.333 41 -63.666 41 -108.999c0 -26 -5 -50 -15 -72s-24.167 -41 -42.5 -57s-40.166 -28.5 -65.499 -37.5s-53 -13.5 -83 -13.5c-22 0 -43.167 1.83301 -63.5 5.5
s-39.166 8.16699 -56.499 13.5s-32.666 11.5 -45.999 18.5s-24 13.833 -32 20.5c-10 8.66699 -15 20 -15 34c0 10.667 3.83301 19.834 11.5 27.501s16.5 11.5 26.5 11.5c6.66699 0 12.167 -1.16699 16.5 -3.5l12.5 -6.5c22.667 -14 47 -24.333 73 -31s49.667 -10 71 -10
c22.667 0 42 3 58 9s29 13.667 39 23s17.167 19.833 21.5 31.5s6.5 23.5 6.5 35.5c0 18.667 -3.16699 33.834 -9.5 45.501s-15.666 21.334 -27.999 29.001s-27.333 14 -45 19l-60.5 16.5c-33.333 8.66699 -61.166 17.834 -83.499 27.501s-40.333 20.334 -54 32.001
s-23.5 24.5 -29.5 38.5s-9 29.667 -9 47c0 16 3.33301 31.833 10 47.5s15.334 29.167 26.001 40.5c-27.333 28.667 -41 65.334 -41 110.001c0 26 5.16699 49.833 15.5 71.5s24.666 40.5 42.999 56.5s40.166 28.5 65.499 37.5s53 13.5 83 13.5c43.333 0 81 -6 113 -18
s55.667 -25 71 -39c5.33301 -4 9.5 -8.5 12.5 -13.5s4.5 -12.167 4.5 -21.5c0 -10.667 -3.66699 -19.834 -11 -27.501s-16.666 -11.5 -27.999 -11.5c-5.33301 0 -10.5 1.16699 -15.5 3.5s-9.16699 4.83301 -12.5 7.5c-22.667 14 -45.334 24.333 -68.001 31
s-44.334 10 -65.001 10c-22.667 0 -42 -3 -58 -9s-29 -13.833 -39 -23.5s-17.167 -20.334 -21.5 -32.001s-6.5 -23.5 -6.5 -35.5c0 -18.667 3.33301 -33.834 10 -45.501s16.167 -21.334 28.5 -29.001s27.333 -14 45 -19l59.5 -16.5
c33.333 -8.66699 61.166 -17.834 83.499 -27.501s40.333 -20.334 54 -32.001s23.5 -24.5 29.5 -38.5s9 -29.667 9 -47zM302.998 255.998c18 -4.66699 34.668 -9.33496 50.001 -14.002s29.666 -10 42.999 -16l2 2c5.33301 5.33301 9.83301 11.666 13.5 18.999
s5.5 15.333 5.5 24s-2 16.5 -6 23.5s-10.833 13.5 -20.5 19.5s-22.834 11.833 -39.501 17.5s-38 11.5 -64 17.5c-18.667 4 -35.667 8.33301 -51 13s-29.333 10.334 -42 17.001l-2 -2c-5.33301 -5.33301 -9.83301 -11.666 -13.5 -18.999s-5.5 -15.666 -5.5 -24.999
c0 -8 2 -15.5 6 -22.5s10.833 -13.5 20.5 -19.5s22.834 -11.833 39.501 -17.5s38 -11.5 64 -17.5z" />
    <glyph glyph-name="dieresis" unicode="&#xa8;" horiz-adv-x="360" 
d="M101 851c12.667 0 23.334 -4.16699 32.001 -12.5s13 -19.166 13 -32.499c0 -12.667 -4.33301 -23.334 -13 -32.001s-19.334 -13 -32.001 -13c-13.333 0 -24.166 4.33301 -32.499 13s-12.5 19.334 -12.5 32.001c0 13.333 4.16699 24.166 12.5 32.499
s19.166 12.5 32.499 12.5zM259 851c13.333 0 24.166 -4.16699 32.499 -12.5s12.5 -19.166 12.5 -32.499c0 -12.667 -4.16699 -23.334 -12.5 -32.001s-19.166 -13 -32.499 -13c-12.667 0 -23.334 4.33301 -32.001 13s-13 19.334 -13 32.001
c0 13.333 4.33301 24.166 13 32.499s19.334 12.5 32.001 12.5z" />
    <glyph glyph-name="copyright" unicode="&#xa9;" horiz-adv-x="806" 
d="M403 709c42 0 81.167 -7.5 117.5 -22.5s68.333 -35.833 96 -62.5s49.667 -58.5 66 -95.5s25.166 -77.5 26.499 -121.5c0.666992 -16 1 -34.667 1 -56s-0.333008 -40 -1 -56c-1.33301 -44 -10.166 -84.5 -26.499 -121.5s-38.333 -68.833 -66 -95.5
s-59.667 -47.334 -96 -62.001s-75.5 -22 -117.5 -22s-81.333 7.33301 -118 22s-68.667 35.334 -96 62.001s-49.166 58.5 -65.499 95.5s-25.166 77.5 -26.499 121.5c-0.666992 16 -1 34.667 -1 56s0.333008 40 1 56c1.33301 44 10.166 84.5 26.499 121.5
s38.166 68.833 65.499 95.5s59.333 47.5 96 62.5s76 22.5 118 22.5zM403 649c-33.333 0 -64.335 -5.33301 -93.002 -16s-53.834 -26.167 -75.501 -46.5s-39.167 -45.166 -52.5 -74.499s-21 -62.666 -23 -99.999c-0.666992 -8 -1.16699 -17.333 -1.5 -28
s-0.5 -21.667 -0.5 -33s0.166992 -22.333 0.5 -33s0.833008 -20 1.5 -28c2 -37.333 9.66699 -70.5 23 -99.5s30.833 -53.667 52.5 -74s46.834 -35.833 75.501 -46.5s59.667 -16 93 -16c32.667 0 63.334 5.33301 92.001 16s53.834 26.167 75.501 46.5s39.167 45 52.5 74
s21 62.167 23 99.5c0.666992 8 1 17.333 1 28v33v33c0 10.667 -0.333008 20 -1 28c-2.66699 37.333 -10.667 70.666 -24 99.999s-30.666 54.166 -51.999 74.499s-46.333 35.833 -75 46.5s-59.334 16 -92.001 16zM403.998 201c22.667 0 42.501 5.66211 59.501 16.9951
s29.5 26 37.5 44c2.66699 5.33301 5.83398 9.83301 9.50098 13.5s9.16699 5.5 16.5 5.5s14.333 -2.33301 21 -7s10 -12 10 -22c0 -4.66699 -1.66699 -11 -5 -19c-11.333 -27.333 -30 -49.5 -56 -66.5s-57 -25.5 -93 -25.5c-22.667 0 -43.834 4.16699 -63.501 12.5
s-36.834 19.833 -51.501 34.5s-26.667 32 -36 52s-15 41.667 -17 65c-3.33301 30.667 -3.33301 62.334 0 95.001c2 22.667 7.5 43.667 16.5 63s21 36.333 36 51s32.333 26.167 52 34.5s40.834 12.5 63.501 12.5c36 0 67 -8.5 93 -25.5s44.667 -38.833 56 -65.5
c3.33301 -8 5 -14.333 5 -19c0 -10 -3.33301 -17.333 -10 -22s-13.667 -7 -21 -7s-12.833 1.83301 -16.5 5.5s-6.83398 7.83398 -9.50098 12.501c-8 18.667 -20.5 33.5 -37.5 44.5s-36.833 16.5 -59.5 16.5c-30 0 -54.333 -9.66699 -73 -29s-29.667 -44.666 -33 -75.999
c-1.33301 -15.333 -1.83301 -30.166 -1.5 -44.499s0.833008 -29.166 1.5 -44.499c2.66699 -30.667 13.5 -56 32.5 -76s43.5 -30 73.5 -30z" />
    <glyph glyph-name="ordfeminine" unicode="&#xaa;" horiz-adv-x="480" 
d="M437 309c0 -10.667 -3.49902 -19.501 -10.499 -26.501s-16.167 -10.5 -27.5 -10.5c-13.333 0 -24 5.33301 -32 16c-9.33301 11.333 -17 23.666 -23 36.999c-19.333 -17.333 -40.166 -30.666 -62.499 -39.999s-43.166 -14 -62.499 -14c-54 0 -95.5 15.167 -124.5 45.5
s-45.167 69.5 -48.5 117.5c-1.33301 16 -2 34.333 -2 55s0.666992 39.334 2 56.001c3.33301 50.667 20.166 90.667 50.499 120s71.166 44 122.499 44c18.667 0 36.5 -1.66699 53.5 -5s32.5 -7.33301 46.5 -12s26.167 -9.66699 36.5 -15s18.5 -10 24.5 -14
c4.66699 -3.33301 8.16699 -7 10.5 -11s3.5 -10 3.5 -18v-185c0 -15.333 0.833008 -28.5 2.5 -39.5s4 -20.833 7 -29.5s6.66699 -16.667 11 -24s9.16602 -15 14.499 -23c5.33301 -7.33301 8 -15.333 8 -24zM219.001 345.999c18.667 0 37.668 4.66797 57.001 14.001
s35.333 21 48 35c-2.66699 16 -4 28.167 -4 36.5v29.5v147c-8 6 -21.667 11.833 -41 17.5s-39.333 8.5 -60 8.5c-33.333 0 -57.833 -8.83301 -73.5 -26.5s-24.167 -40.834 -25.5 -69.501c-1.33301 -13.333 -2 -29.833 -2 -49.5s0.666992 -36.167 2 -49.5
c1.33301 -28 9.66602 -50.5 24.999 -67.5s40 -25.5 74 -25.5z" />
    <glyph glyph-name="guillemotleft" unicode="&#xab;" horiz-adv-x="562" 
d="M48 351c0 14 3.5 26.8311 10.5 38.498s18.167 23.834 33.5 36.501l121 96c9.33301 7.33301 19.166 10.5 29.499 9.5s19.166 -5.83301 26.499 -14.5s10.333 -18.334 9 -29.001s-6.33301 -19.667 -15 -27l-123 -96c-2 -1.33301 -4 -3.16602 -6 -5.49902
s-3 -5.16602 -3 -8.49902s1 -6.16602 3 -8.49902s4 -4.16602 6 -5.49902l123 -97c8.66699 -6.66699 13.667 -15.5 15 -26.5s-1.66699 -20.833 -9 -29.5s-16.166 -13.334 -26.499 -14.001s-20.166 2.66602 -29.499 9.99902l-121 96c-15.333 13.333 -26.5 25.833 -33.5 37.5
s-10.5 24.167 -10.5 37.5zM253 350.998c0 14 3.5 26.8311 10.5 38.498s18.167 23.834 33.5 36.501l120 96c9.33301 7.33301 19.333 10.5 30 9.5s19.334 -5.83301 26.001 -14.5c7.33301 -8.66699 10.5 -18.334 9.5 -29.001s-5.83301 -19.667 -14.5 -27l-123 -96
c-2 -1.33301 -4 -3.16602 -6 -5.49902s-3 -5.16602 -3 -8.49902s1 -6.16602 3 -8.49902s4 -4.16602 6 -5.49902l123 -97c8.66699 -6.66699 13.5 -15.5 14.5 -26.5s-2.16699 -20.833 -9.5 -29.5c-6.66699 -8.66699 -15.334 -13.334 -26.001 -14.001
s-20.667 2.66602 -30 9.99902l-120 96c-15.333 13.333 -26.5 25.833 -33.5 37.5s-10.5 24.167 -10.5 37.5z" />
    <glyph glyph-name="logicalnot" unicode="&#xac;" horiz-adv-x="628" 
d="M568 136c0 -11.333 -3.83203 -20.999 -11.499 -28.999s-17.167 -12 -28.5 -12s-20.833 4 -28.5 12s-11.5 17.667 -11.5 29v175h-387c-11.333 0 -21 3.66699 -29 11s-12 16.666 -12 27.999s4 20.833 12 28.5s17.667 11.5 29 11.5h401c21.333 0 37.666 -6.5 48.999 -19.5
s17 -28.5 17 -46.5v-188z" />
    <glyph glyph-name="registered" unicode="&#xae;" horiz-adv-x="616" 
d="M315 455c18 0 30.5 4 37.5 12s10.5 18 10.5 30c0 13.333 -3.66699 23.833 -11 31.5s-19 11.5 -35 11.5h-61v-85h59zM486 404c1.33301 12 2 25.5 2 40.5s-0.666992 28.167 -2 39.5c-4.66699 56 -23.5 99.833 -56.5 131.5s-74.167 47.5 -123.5 47.5
c-50 0 -91.333 -15.833 -124 -47.5s-51.334 -75.5 -56.001 -131.5c-1.33301 -11.333 -2 -24.5 -2 -39.5s0.666992 -28.5 2 -40.5c4.66699 -55.333 23.334 -98.833 56.001 -130.5s74 -47.5 124 -47.5c49.333 0 90.5 15.833 123.5 47.5s51.833 75.167 56.5 130.5zM309 403
c-4 6 -9.66895 8.99805 -17.002 8.99805h-36v-79c0 -7.33301 -2.16699 -13.166 -6.5 -17.499s-10.166 -6.5 -17.499 -6.5c-5.33301 0 -10.333 2.16699 -15 6.5s-7 10.166 -7 17.499v218c0 9.33301 2.66699 17 8 23s13.333 9 24 9h79c24.667 0 45.834 -7.16699 63.501 -21.5
s26.5 -35.5 26.5 -63.5c0 -21.333 -5.16699 -38.166 -15.5 -50.499s-23.833 -21.166 -40.5 -26.499l59 -74c4 -4 6 -9.33301 6 -16s-2.33301 -12.167 -7 -16.5s-10.667 -6.5 -18 -6.5c-5.33301 0 -11 3 -17 9zM531.998 407.998c-1.33301 -32.667 -8 -63 -20 -91
s-28.167 -52.167 -48.5 -72.5s-44 -36.333 -71 -48s-55.833 -17.5 -86.5 -17.5c-31.333 0 -60.5 5.83301 -87.5 17.5s-50.667 27.667 -71 48s-36.5 44.5 -48.5 72.5s-18.667 58.333 -20 91c-1.33301 24 -1.33301 48.333 0 73c1.33301 32.667 8 62.834 20 90.501
s28.167 51.667 48.5 72s44 36.333 71 48s56.167 17.5 87.5 17.5c30.667 0 59.5 -5.83301 86.5 -17.5s50.667 -27.667 71 -48s36.5 -44.333 48.5 -72s18.667 -57.834 20 -90.501c1.33301 -24.667 1.33301 -49 0 -73z" />
    <glyph glyph-name="macron" unicode="&#xaf;" horiz-adv-x="360" 
d="M264 836c9.33301 0 17.333 -3.33301 24 -10s10 -14.667 10 -24c0 -10 -3.33301 -18.333 -10 -25s-14.667 -10 -24 -10h-164c-10 0 -18.333 3.33301 -25 10s-10 15 -10 25c0 9.33301 3.33301 17.333 10 24s15 10 25 10h164z" />
    <glyph glyph-name="degree" unicode="&#xb0;" horiz-adv-x="349" 
d="M50 587c0 17.333 3.33301 33.5 10 48.5s15.5 28.167 26.5 39.5s24 20.333 39 27s31.167 10 48.5 10c16.667 0 32.667 -3.33301 48 -10s28.666 -15.667 39.999 -27s20.333 -24.5 27 -39.5s10 -31.167 10 -48.5s-3.33301 -33.5 -10 -48.5s-15.667 -28 -27 -39
s-24.666 -19.833 -39.999 -26.5s-31.333 -10 -48 -10c-17.333 0 -33.5 3.33301 -48.5 10s-28 15.5 -39 26.5s-19.833 24 -26.5 39s-10 31.167 -10 48.5zM105 587c0 -19.333 6.66699 -35.5 20 -48.5s29.666 -19.5 48.999 -19.5s35.666 6.5 48.999 19.5s20 29.167 20 48.5
s-6.66699 35.666 -20 48.999s-29.666 20 -48.999 20s-35.666 -6.66699 -48.999 -20s-20 -29.666 -20 -48.999z" />
    <glyph glyph-name="plusminus" unicode="&#xb1;" horiz-adv-x="628" 
d="M101 0c-11.333 0 -21 3.66699 -29 11s-12 16.666 -12 27.999s4 20.833 12 28.5s17.667 11.5 29 11.5h426c11.333 0 21 -3.83301 29 -11.5s12 -17.167 12 -28.5s-4 -20.666 -12 -27.999s-17.667 -11 -29 -11h-426zM275 320l-174 -0.00195312c-11.333 0 -21 3.66699 -29 11
s-12 16.666 -12 27.999s4 20.833 12 28.5s17.667 11.5 29 11.5h174v174c0 11.333 3.83301 21 11.5 29s17.167 12 28.5 12s20.833 -4 28.5 -12s11.5 -17.667 11.5 -29v-174h172c11.333 0 21 -3.83301 29 -11.5s12 -17.167 12 -28.5s-4 -20.666 -12 -27.999
s-17.667 -11 -29 -11h-172v-176c0 -11.333 -3.83301 -21.166 -11.5 -29.499s-17.167 -12.5 -28.5 -12.5s-20.833 4.33301 -28.5 13s-11.5 18.334 -11.5 29.001v176z" />
    <glyph glyph-name="twosuperior" unicode="&#xb2;" horiz-adv-x="457" 
d="M71 298c0 50.667 33.3379 99.666 100.005 146.999l37.5 25c14.333 9.33301 28 19.333 41 30s24.167 22.334 33.5 35.001s14 26.334 14 41.001c0 14 -6 27.667 -18 41s-31.667 20 -59 20c-18 0 -33.833 -4 -47.5 -12s-24.834 -17.333 -33.501 -28
c-2 -2.66699 -5.83301 -6.5 -11.5 -11.5s-12.5 -7.5 -20.5 -7.5c-10 0 -18.833 3.33301 -26.5 10s-11.5 15.667 -11.5 27c0 8 3 16 9 24c11.333 16.667 29 32.5 53 47.5s53.667 22.5 89 22.5c24.667 0 46.5 -3.5 65.5 -10.5s34.667 -16.333 47 -28
s21.666 -25.5 27.999 -41.5s9.5 -33 9.5 -51c0 -18.667 -2.66699 -35.167 -8 -49.5s-13.833 -28 -25.5 -41s-26.334 -26.333 -44.001 -40s-38.834 -28.834 -63.501 -45.501c-25.333 -16.667 -44.333 -31.334 -57 -44.001s-20.334 -25.667 -23.001 -39h193
c11.333 0 20.666 -3.33301 27.999 -10s11 -15.667 11 -27s-3.66699 -20.166 -11 -26.499s-16.666 -9.5 -27.999 -9.5h-223c-14 0 -25.5 4.83301 -34.5 14.5s-13.5 22.167 -13.5 37.5z" />
    <glyph glyph-name="threesuperior" unicode="&#xb3;" horiz-adv-x="432" 
d="M180 465c-9.33301 0 -17.501 2.83008 -24.501 8.49707s-10.5 13.5 -10.5 23.5c0 4 1 8.5 3 13.5s5 9.16699 9 12.5l89 96h-147c-10.667 0 -19.667 3.66699 -27 11s-11 16.333 -11 27s3.66699 19.5 11 26.5s16.333 10.5 27 10.5h197c13.333 0 25 -4 35 -12s15 -19 15 -33
c0 -4.66699 -1.16699 -10.5 -3.5 -17.5s-8.16602 -15.833 -17.499 -26.5l-68 -72c34 -4.66699 61.5 -18.5 82.5 -41.5s31.5 -51.5 31.5 -85.5c0 -53.333 -21.333 -95.166 -64 -125.499s-101.334 -45.5 -176.001 -45.5h-15c-6 0 -11.667 0.333008 -17 1
c-10.667 0.666992 -19.667 4.33398 -27 11.001s-11 15.334 -11 26.001c0 10 3.5 18.5 10.5 25.5s16.167 10.5 27.5 10.5c6 0 12.167 -0.166992 18.5 -0.5s12.833 -0.5 19.5 -0.5c48.667 0 87.334 8.5 116.001 25.5s43 40.833 43 71.5c0 20 -6.83301 35.667 -20.5 47
s-31.167 17 -52.5 17c-10 0 -18.167 -0.666992 -24.5 -2s-12.5 -2 -18.5 -2z" />
    <glyph glyph-name="acute" unicode="&#xb4;" horiz-adv-x="360" 
d="M232 888c6.66699 2.66699 12.332 4 16.999 4c9.33301 0 17.333 -3.33301 24 -10s10 -14.667 10 -24c0 -13.333 -6.33301 -23.333 -19 -30l-135 -70c-5.33301 -3.33301 -11.333 -5 -18 -5c-9.33301 0 -17.166 3.33301 -23.499 10s-9.5 14.667 -9.5 24c0 14 6 24.333 18 31
z" />
    <glyph glyph-name="mu" unicode="&#xb5;" horiz-adv-x="616" 
d="M96 481c0 11.333 3.83203 21 11.499 29s17.167 12 28.5 12s21 -4 29 -12s12 -17.667 12 -29v-287c0 -38.667 10.667 -69.5 32 -92.5s52.333 -34.5 93 -34.5c30 0 56.833 4 80.5 12s42.834 16.667 57.501 26v376c0 11.333 3.83301 21 11.5 29s17.167 12 28.5 12
s21 -4 29 -12s12 -17.667 12 -29v-399c0 -14 -5 -24.333 -15 -31c-8 -5.33301 -18.167 -11.5 -30.5 -18.5s-26.833 -13.5 -43.5 -19.5s-35.667 -11.167 -57 -15.5s-45 -6.5 -71 -6.5c-50.667 0 -93 12.333 -127 37v-168c0 -11.333 -4 -21.166 -12 -29.499
s-17.667 -12.5 -29 -12.5s-20.833 4.16699 -28.5 12.5s-11.5 18.166 -11.5 29.499v621z" />
    <glyph glyph-name="mu" unicode="&#x3bc;" horiz-adv-x="616" 
d="M96 481c0 11.333 3.83203 21 11.499 29s17.167 12 28.5 12s21 -4 29 -12s12 -17.667 12 -29v-287c0 -38.667 10.667 -69.5 32 -92.5s52.333 -34.5 93 -34.5c30 0 56.833 4 80.5 12s42.834 16.667 57.501 26v376c0 11.333 3.83301 21 11.5 29s17.167 12 28.5 12
s21 -4 29 -12s12 -17.667 12 -29v-399c0 -14 -5 -24.333 -15 -31c-8 -5.33301 -18.167 -11.5 -30.5 -18.5s-26.833 -13.5 -43.5 -19.5s-35.667 -11.167 -57 -15.5s-45 -6.5 -71 -6.5c-50.667 0 -93 12.333 -127 37v-168c0 -11.333 -4 -21.166 -12 -29.499
s-17.667 -12.5 -29 -12.5s-20.833 4.16699 -28.5 12.5s-11.5 18.166 -11.5 29.499v621z" />
    <glyph glyph-name="paragraph" unicode="&#xb6;" horiz-adv-x="709" 
d="M409 -192c-11.333 0 -21.002 4 -29.002 12s-12 18 -12 30v411h-37c-34 0 -65.333 4.83301 -94 14.5s-53.5 24 -74.5 43s-37.333 42 -49 69s-17.5 58.167 -17.5 93.5c0 34.667 6 65.667 18 93s28.333 50.333 49 69s44.834 33 72.501 43s56.834 15 87.501 15h218
c23.333 0 40.333 -6 51 -18s16 -28 16 -48v-785c0 -11.333 -3.83301 -21.166 -11.5 -29.499s-17.167 -12.5 -28.5 -12.5s-21 4.16699 -29 12.5s-12 18.166 -12 29.499v772h-78v-772c0 -12 -3.83301 -22 -11.5 -30s-17.167 -12 -28.5 -12zM179.998 480
c0 -42.667 12.168 -76.667 36.501 -102s63.166 -38 116.499 -38h35v282h-39c-50 0 -87.333 -12.833 -112 -38.5s-37 -60.167 -37 -103.5z" />
    <glyph glyph-name="periodcentered" unicode="&#xb7;" horiz-adv-x="265" 
d="M132 422c11.333 0 21 -4.16699 29 -12.5s12 -18.166 12 -29.499v-54c0 -11.333 -3.83301 -21.166 -11.5 -29.499s-17.5 -12.5 -29.5 -12.5c-11.333 0 -21 4.16699 -29 12.5s-12 18.166 -12 29.499v54c0 11.333 4 21.166 12 29.499s17.667 12.5 29 12.5z" />
    <glyph glyph-name="cedilla" unicode="&#xb8;" horiz-adv-x="360" 
d="M145 6c2.66699 7.33301 6.50098 13.333 11.501 18s11.833 7 20.5 7c9.33301 0 16.5 -2.66699 21.5 -8s7.5 -12 7.5 -20c0 -4 -0.666992 -8 -2 -12l-14 -36c27.333 -3.33301 48.833 -12.833 64.5 -28.5s23.5 -35.834 23.5 -60.501c0 -16.667 -3.5 -31.5 -10.5 -44.5
s-16.333 -24.5 -28 -34.5s-24.834 -18.667 -39.501 -26s-30 -13.666 -46 -18.999c-9.33301 -3.33301 -19.333 -2.83301 -30 1.5s-16 13.833 -16 28.5c0 5.33301 1.5 11 4.5 17s9.5 10.667 19.5 14c16 6 29.167 11.667 39.5 17s18.166 10.5 23.499 15.5s9 9.83301 11 14.5
s3 9.66699 3 15c0 6 -2.5 12.167 -7.5 18.5s-12.833 9.5 -23.5 9.5c-7.33301 0 -13 -0.5 -17 -1.5s-8.66699 -1.5 -14 -1.5c-10.667 0 -19.167 4.33301 -25.5 13s-7.16602 18.667 -2.49902 30z" />
    <glyph glyph-name="onesuperior" unicode="&#xb9;" horiz-adv-x="334" 
d="M158 597l-62.001 -33c-9.33301 -5.33301 -18.833 -7 -28.5 -5s-17.167 7.66699 -22.5 17c-5.33301 8.66699 -6.66602 18.334 -3.99902 29.001s9 18.667 19 24l105 63c5.33301 3.33301 10.333 5.66602 15 6.99902s8.66699 2 12 2c13.333 0 23.666 -4 30.999 -12
s11 -18.333 11 -31v-377c0 -11.333 -3.5 -20.5 -10.5 -27.5s-15.833 -10.5 -26.5 -10.5c-11.333 0 -20.666 3.83301 -27.999 11.5s-11 16.5 -11 26.5v316z" />
    <glyph glyph-name="ordmasculine" unicode="&#xba;" horiz-adv-x="468" 
d="M413 440c-2 -24.667 -7.66699 -47.333 -17 -68s-22 -38.5 -38 -53.5s-34.5 -26.667 -55.5 -35s-43.833 -12.5 -68.5 -12.5s-47.5 4.33301 -68.5 13s-39.333 20.5 -55 35.5s-28.334 32.833 -38.001 53.5s-15.5 43 -17.5 67c-1.33301 16 -2 32.833 -2 50.5
s0.666992 34.167 2 49.5c2 24 7.83301 46.333 17.5 67s22.334 38.5 38.001 53.5s34 26.833 55 35.5s43.833 13 68.5 13s47.5 -4.33301 68.5 -13s39.5 -20.5 55.5 -35.5s28.667 -32.833 38 -53.5s15 -43 17 -67c3.33301 -32 3.33301 -65.333 0 -100zM234 346.001
c28.667 0 52.499 9 71.499 27s30.167 42 33.5 72c2 30.667 2 60.667 0 90c-3.33301 29.333 -14.5 53.166 -33.5 71.499s-42.833 27.5 -71.5 27.5s-52.5 -9.16699 -71.5 -27.5s-29.833 -42.166 -32.5 -71.499c-3.33301 -29.333 -3.33301 -59.333 0 -90
c3.33301 -30 14.333 -54 33 -72s42.334 -27 71.001 -27z" />
    <glyph glyph-name="guillemotright" unicode="&#xbb;" horiz-adv-x="562" 
d="M514 351c0 -13.333 -3.5 -25.8311 -10.5 -37.498s-18.167 -24.167 -33.5 -37.5l-121 -96c-9.33301 -7.33301 -19.166 -10.666 -29.499 -9.99902s-19.166 5.33398 -26.499 14.001s-10.333 18.5 -9 29.5s6.33301 19.833 15 26.5l123 97c2 1.33301 4 3.16602 6 5.49902
s3 5.16602 3 8.49902s-1 6.16602 -3 8.49902s-4 4.16602 -6 5.49902l-123 96c-8.66699 7.33301 -13.667 16.333 -15 27s1.66699 20.334 9 29.001s16.166 13.5 26.499 14.5s20.166 -2.16699 29.499 -9.5l121 -96c15.333 -12.667 26.5 -24.834 33.5 -36.501
s10.5 -24.5 10.5 -38.5zM309 351.002c0 -13.333 -3.5 -25.8311 -10.5 -37.498s-18.167 -24.167 -33.5 -37.5l-120 -96c-9.33301 -7.33301 -19.333 -10.666 -30 -9.99902s-19.334 5.33398 -26.001 14.001c-7.33301 8.66699 -10.5 18.5 -9.5 29.5s5.83301 19.833 14.5 26.5
l123 97c2 1.33301 4 3.16602 6 5.49902s3 5.16602 3 8.49902s-1 6.16602 -3 8.49902s-4 4.16602 -6 5.49902l-123 96c-8.66699 7.33301 -13.5 16.333 -14.5 27s2.16699 20.334 9.5 29.001c6.66699 8.66699 15.334 13.5 26.001 14.5s20.667 -2.16699 30 -9.5l120 -96
c15.333 -12.667 26.5 -24.834 33.5 -36.501s10.5 -24.5 10.5 -38.5z" />
    <glyph glyph-name="onequarter" unicode="&#xbc;" horiz-adv-x="965" 
d="M870 171c9.33301 0 17.667 -3.00195 25 -9.00195s11 -14.333 11 -25s-3.33301 -19.167 -10 -25.5s-15.334 -9.5 -26.001 -9.5h-39v-66c0 -9.33301 -3.16699 -17.666 -9.5 -24.999s-14.833 -11 -25.5 -11s-19.167 3.33301 -25.5 10s-9.5 15.334 -9.5 26.001v65h-203
c-15.333 0 -28.333 4.66699 -39 14s-16 22 -16 38c0 6 1.16699 12.667 3.5 20s8.83301 16.666 19.5 27.999l202 229c7.33301 8.66699 15 15.334 23 20.001s16.667 7 26 7c16.667 0 29.834 -5.33301 39.501 -16s14.5 -23.667 14.5 -39v-231h39zM592.001 170.998h169v190z
M517.001 706.998c4 10 10.832 17 20.499 21s19.167 4.33301 28.5 1s16 -10 20 -20s4 -19.667 0 -29l-272 -689c-4 -9.33301 -10.833 -16 -20.5 -20s-19.167 -4.33301 -28.5 -1s-16.166 9.83301 -20.499 19.5s-4.83301 19.5 -1.5 29.5zM158 596.998l-62.0039 -33.0029
c-9.33301 -5.33301 -18.666 -6.66602 -27.999 -3.99902s-17 8.66699 -23 18c-5.33301 8 -6.16602 17.333 -2.49902 28s9.5 18.334 17.5 23.001l116 65c6.66699 4 13.334 6 20.001 6c11.333 0 20.5 -3.66699 27.5 -11s10.5 -16.666 10.5 -27.999v-380
c0 -11.333 -3.5 -20.5 -10.5 -27.5s-15.833 -10.5 -26.5 -10.5c-11.333 0 -20.666 3.83301 -27.999 11.5s-11 16.5 -11 26.5v316z" />
    <glyph glyph-name="onehalf" unicode="&#xbd;" horiz-adv-x="948" 
d="M510 707c4 10 10.832 17 20.499 21s19.167 4.33301 28.5 1s16 -10 20 -20s4 -19.667 0 -29l-272 -689c-4 -9.33301 -10.833 -16 -20.5 -20s-19.167 -4.33301 -28.5 -1s-16.166 9.83301 -20.499 19.5s-4.83301 19.5 -1.5 29.5zM157.999 597l-62.001 -33
c-9.33301 -5.33301 -18.833 -7 -28.5 -5s-17.167 7.66699 -22.5 17c-5.33301 8.66699 -6.66602 18.334 -3.99902 29.001s9 18.667 19 24l105 63c5.33301 3.33301 10.333 5.66602 15 6.99902s8.66699 2 12 2c13.333 0 23.666 -4 30.999 -12s11 -18.333 11 -31v-377
c0 -11.333 -3.5 -20.5 -10.5 -27.5s-15.833 -10.5 -26.5 -10.5c-11.333 0 -20.666 3.83301 -27.999 11.5s-11 16.5 -11 26.5v316zM560.998 53c0 50.667 33.3379 99.666 100.005 146.999l37.5 25c14.333 9.33301 28 19.333 41 30s24.167 22.334 33.5 35.001
s14 26.334 14 41.001c0 14 -6 27.667 -18 41s-31.667 20 -59 20c-18 0 -33.833 -4 -47.5 -12s-24.834 -17.333 -33.501 -28c-2 -2.66699 -5.83301 -6.5 -11.5 -11.5s-12.5 -7.5 -20.5 -7.5c-10 0 -18.833 3.33301 -26.5 10s-11.5 15.667 -11.5 27c0 8 3 16 9 24
c11.333 16.667 29 32.5 53 47.5s53.667 22.5 89 22.5c24.667 0 46.5 -3.5 65.5 -10.5s34.667 -16.333 47 -28s21.666 -25.5 27.999 -41.5s9.5 -33 9.5 -51c0 -18.667 -2.66699 -35.167 -8 -49.5s-13.833 -28 -25.5 -41s-26.334 -26.333 -44.001 -40
s-38.834 -28.834 -63.501 -45.501c-25.333 -16.667 -44.333 -31.334 -57 -44.001s-20.334 -25.667 -23.001 -39h193c11.333 0 20.666 -3.33301 27.999 -10s11 -15.667 11 -27s-3.66699 -20.166 -11 -26.499s-16.666 -9.5 -27.999 -9.5h-223c-14 0 -25.5 4.83301 -34.5 14.5
s-13.5 22.167 -13.5 37.5z" />
    <glyph glyph-name="threequarters" unicode="&#xbe;" horiz-adv-x="1066" 
d="M983 171c9.33301 0 17.667 -3.00195 25 -9.00195s11 -14.333 11 -25s-3.33301 -19.167 -10 -25.5s-15.334 -9.5 -26.001 -9.5h-39v-66c0 -9.33301 -3.16699 -17.666 -9.5 -24.999s-14.833 -11 -25.5 -11s-19.167 3.33301 -25.5 10s-9.5 15.334 -9.5 26.001v65h-203
c-15.333 0 -28.333 4.66699 -39 14s-16 22 -16 38c0 6 1.16699 12.667 3.5 20s8.83301 16.666 19.5 27.999l202 229c7.33301 8.66699 15 15.334 23 20.001s16.667 7 26 7c16.667 0 29.834 -5.33301 39.501 -16s14.5 -23.667 14.5 -39v-231h39zM705.001 170.998h169v190z
M180.001 464.998c-9.33301 0 -17.501 2.83008 -24.501 8.49707s-10.5 13.5 -10.5 23.5c0 4 1 8.5 3 13.5s5 9.16699 9 12.5l89 96h-147c-10.667 0 -19.667 3.66699 -27 11s-11 16.333 -11 27s3.66699 19.5 11 26.5s16.333 10.5 27 10.5h197c13.333 0 25 -4 35 -12
s15 -19 15 -33c0 -4.66699 -1.16699 -10.5 -3.5 -17.5s-8.16602 -15.833 -17.499 -26.5l-68 -72c34 -4.66699 61.5 -18.5 82.5 -41.5s31.5 -51.5 31.5 -85.5c0 -53.333 -21.333 -95.166 -64 -125.499s-101.334 -45.5 -176.001 -45.5h-15c-6 0 -11.667 0.333008 -17 1
c-10.667 0.666992 -19.667 4.33398 -27 11.001s-11 15.334 -11 26.001c0 10 3.5 18.5 10.5 25.5s16.167 10.5 27.5 10.5c6 0 12.167 -0.166992 18.5 -0.5s12.833 -0.5 19.5 -0.5c48.667 0 87.334 8.5 116.001 25.5s43 40.833 43 71.5c0 20 -6.83301 35.667 -20.5 47
s-31.167 17 -52.5 17c-10 0 -18.167 -0.666992 -24.5 -2s-12.5 -2 -18.5 -2zM626 706.995c4 10 10.832 17 20.499 21s19.167 4.33301 28.5 1s16 -10 20 -20s4 -19.667 0 -29l-272 -689c-4 -9.33301 -10.833 -16 -20.5 -20s-19.167 -4.33301 -28.5 -1
s-16.166 9.83301 -20.499 19.5s-4.83301 19.5 -1.5 29.5z" />
    <glyph glyph-name="questiondown" unicode="&#xbf;" horiz-adv-x="558" 
d="M418.008 139.034c4 5.33301 8.83105 9.66406 14.4971 12.9971c5.66699 3.33301 12.167 5 19.5 5c11.333 0 20.832 -4.16602 28.498 -12.499c7.66699 -8.33301 11.5 -18.166 11.5 -29.499c0 -9.33301 -3.66699 -18.999 -11 -28.998
c-51.9971 -63.3291 -123.326 -94.9941 -213.987 -94.9941c-31.3311 0 -59.8291 4.66602 -85.4941 13.999s-47.6641 22.499 -65.9961 39.498s-32.498 37.1641 -42.4971 60.4961s-14.999 48.9971 -14.999 76.9951c0 32.665 4.33301 60.9971 12.999 84.9961
s21.832 45.498 39.4971 64.4971c17.666 18.999 39.8311 36.665 66.4961 52.998c26.665 16.332 57.6631 32.8311 92.9941 49.4971c9.33301 4.66602 19.333 6.99902 29.999 6.99902c9.33301 0 17.999 -3.5 25.998 -10.499s11.999 -16.165 11.999 -27.498
c0 -17.999 -9.33301 -31.332 -27.998 -39.998c-31.3311 -13.999 -57.8291 -27.165 -79.4941 -39.4971c-21.665 -12.333 -39.1641 -25.166 -52.4971 -38.499s-22.999 -28.165 -28.998 -44.4971c-5.99902 -16.333 -8.99902 -35.165 -8.99902 -56.4971
c0 -33.998 10.999 -61.4961 32.998 -82.4951c21.998 -20.999 53.3291 -31.498 93.9941 -31.498c33.9971 0 62.6621 5.16602 85.9941 15.499s44.9971 28.165 64.9961 53.4971zM338.011 616.003c0 -11.333 -4 -20.832 -11.999 -28.498s-17.665 -11.499 -28.998 -11.499
s-20.999 3.83301 -28.998 11.499c-8 7.66602 -12 17.165 -12 28.498v52.9971c0 11.333 4 20.832 12 28.498c7.99902 7.66602 17.665 11.499 28.998 11.499s20.999 -4 28.998 -11.999s11.999 -17.332 11.999 -27.998v-52.9971z" />
    <glyph glyph-name="Agrave" unicode="&#xc0;" horiz-adv-x="675" 
d="M650 41c0 -10.667 -3.33203 -20.333 -9.99902 -29s-16.667 -13 -30 -13c-8.66699 0 -16.5 2.33301 -23.5 7s-12.167 11 -15.5 19l-74 209h-319l-74 -209c-3.33301 -8 -8.5 -14.333 -15.5 -19s-14.833 -7 -23.5 -7c-13.333 0 -23.333 4.33301 -30 13
s-10 18.334 -10 29.001c0 6 0.666992 10.667 2 14l208 580c9.33301 26 23.166 45.167 41.499 57.5s38.833 18.5 61.5 18.5s43 -6.16699 61 -18.5s31.667 -31.5 41 -57.5l208 -580c1.33301 -2.66699 2 -7.33398 2 -14.001zM206.001 312.001h263.002l-105 299
c-4.66699 13.333 -13.334 20 -26.001 20s-21.334 -6.66699 -26.001 -20zM383.003 818.001c12.667 -6.66699 19.001 -17 19.001 -31c0 -9.33301 -3.33301 -17.333 -10 -24s-14.667 -10 -24 -10c-5.33301 0 -12 2 -20 6l-133 69c-12 6.66699 -18 16.667 -18 30
c0 9.33301 3.16699 17.333 9.5 24s14.166 10 23.499 10c5.33301 0 11.333 -1.33301 18 -4z" />
    <glyph glyph-name="Aacute" unicode="&#xc1;" horiz-adv-x="675" 
d="M650 41c0 -10.667 -3.33203 -20.333 -9.99902 -29s-16.667 -13 -30 -13c-8.66699 0 -16.5 2.33301 -23.5 7s-12.167 11 -15.5 19l-74 209h-319l-74 -209c-3.33301 -8 -8.5 -14.333 -15.5 -19s-14.833 -7 -23.5 -7c-13.333 0 -23.333 4.33301 -30 13
s-10 18.334 -10 29.001c0 6 0.666992 10.667 2 14l208 580c9.33301 26 23.166 45.167 41.499 57.5s38.833 18.5 61.5 18.5s43 -6.16699 61 -18.5s31.667 -31.5 41 -57.5l208 -580c1.33301 -2.66699 2 -7.33398 2 -14.001zM206.001 312.001h263.002l-105 299
c-4.66699 13.333 -13.334 20 -26.001 20s-21.334 -6.66699 -26.001 -20zM424.003 888.001c6.66699 2.66699 12.332 4 16.999 4c9.33301 0 17.333 -3.33301 24 -10s10 -14.667 10 -24c0 -13.333 -6.33301 -23.333 -19 -30l-135 -70c-5.33301 -3.33301 -11.333 -5 -18 -5
c-9.33301 0 -17.166 3.33301 -23.499 10s-9.5 14.667 -9.5 24c0 14 6 24.333 18 31z" />
    <glyph glyph-name="Acircumflex" unicode="&#xc2;" horiz-adv-x="675" 
d="M650 41c0 -10.667 -3.33203 -20.333 -9.99902 -29s-16.667 -13 -30 -13c-8.66699 0 -16.5 2.33301 -23.5 7s-12.167 11 -15.5 19l-74 209h-319l-74 -209c-3.33301 -8 -8.5 -14.333 -15.5 -19s-14.833 -7 -23.5 -7c-13.333 0 -23.333 4.33301 -30 13
s-10 18.334 -10 29.001c0 6 0.666992 10.667 2 14l208 580c9.33301 26 23.166 45.167 41.499 57.5s38.833 18.5 61.5 18.5s43 -6.16699 61 -18.5s31.667 -31.5 41 -57.5l208 -580c1.33301 -2.66699 2 -7.33398 2 -14.001zM206.001 312.001h263.002l-105 299
c-4.66699 13.333 -13.334 20 -26.001 20s-21.334 -6.66699 -26.001 -20zM461.003 814.001c4 -3.33301 7.50098 -7.33301 10.501 -12s4.5 -10 4.5 -16c0 -9.33301 -3.33301 -17.333 -10 -24s-14.667 -10 -24 -10c-8 0 -15.667 2.66699 -23 8l-81 61l-81 -61
c-7.33301 -5.33301 -14.666 -8 -21.999 -8c-10 0 -18.167 3.33301 -24.5 10s-9.5 14.667 -9.5 24c0 6 1.33301 11.333 4 16s6 8.66699 10 12l93 70c5.33301 3.33301 10.333 6.16602 15 8.49902s9.66699 3.5 15 3.5s10.166 -1.16699 14.499 -3.5
s9.16602 -5.16602 14.499 -8.49902z" />
    <glyph glyph-name="Atilde" unicode="&#xc3;" horiz-adv-x="675" 
d="M650 41c0 -10.667 -3.33203 -20.333 -9.99902 -29s-16.667 -13 -30 -13c-8.66699 0 -16.5 2.33301 -23.5 7s-12.167 11 -15.5 19l-74 209h-319l-74 -209c-3.33301 -8 -8.5 -14.333 -15.5 -19s-14.833 -7 -23.5 -7c-13.333 0 -23.333 4.33301 -30 13
s-10 18.334 -10 29.001c0 6 0.666992 10.667 2 14l208 580c9.33301 26 23.166 45.167 41.499 57.5s38.833 18.5 61.5 18.5s43 -6.16699 61 -18.5s31.667 -31.5 41 -57.5l208 -580c1.33301 -2.66699 2 -7.33398 2 -14.001zM206.001 312.001h263.002l-105 299
c-4.66699 13.333 -13.334 20 -26.001 20s-21.334 -6.66699 -26.001 -20zM391.003 822.001c6.66699 0 12.334 1.33398 17.001 4.00098s9.16699 5.83398 13.5 9.50098s8.66602 6.83398 12.999 9.50098s9.5 4 15.5 4c10 0 18 -3.33301 24 -10s9 -14.667 9 -24
c0 -6 -1.33301 -11.167 -4 -15.5s-6 -8.16602 -10 -11.499c-11.333 -10 -23.5 -18.167 -36.5 -24.5s-25.5 -9.5 -37.5 -9.5s-23 1.83301 -33 5.5s-19.667 7.83398 -29 12.501l-26 12.5c-8 3.66699 -16 5.5 -24 5.5c-6.66699 0 -12.334 -1.33301 -17.001 -4
s-9.16699 -5.83398 -13.5 -9.50098s-8.66602 -6.83398 -12.999 -9.50098s-9.5 -4 -15.5 -4c-10 0 -18 3.33301 -24 10s-9 14.667 -9 24c0 6 1.5 11.167 4.5 15.5s6.16699 8.16602 9.5 11.499c11.333 10 23.5 18.167 36.5 24.5s25.833 9.5 38.5 9.5
c12 0 23.167 -1.83301 33.5 -5.5s19.833 -7.83398 28.5 -12.501s17 -8.83398 25 -12.501s16 -5.5 24 -5.5z" />
    <glyph glyph-name="Adieresis" unicode="&#xc4;" horiz-adv-x="675" 
d="M650 41c0 -10.667 -3.33203 -20.333 -9.99902 -29s-16.667 -13 -30 -13c-8.66699 0 -16.5 2.33301 -23.5 7s-12.167 11 -15.5 19l-74 209h-319l-74 -209c-3.33301 -8 -8.5 -14.333 -15.5 -19s-14.833 -7 -23.5 -7c-13.333 0 -23.333 4.33301 -30 13
s-10 18.334 -10 29.001c0 6 0.666992 10.667 2 14l208 580c9.33301 26 23.166 45.167 41.499 57.5s38.833 18.5 61.5 18.5s43 -6.16699 61 -18.5s31.667 -31.5 41 -57.5l208 -580c1.33301 -2.66699 2 -7.33398 2 -14.001zM206.001 312.001h263.002l-105 299
c-4.66699 13.333 -13.334 20 -26.001 20s-21.334 -6.66699 -26.001 -20zM259.003 851.001c12.667 0 23.334 -4.16699 32.001 -12.5s13 -19.166 13 -32.499c0 -12.667 -4.33301 -23.334 -13 -32.001s-19.334 -13 -32.001 -13c-13.333 0 -24.166 4.33301 -32.499 13
s-12.5 19.334 -12.5 32.001c0 13.333 4.16699 24.166 12.5 32.499s19.166 12.5 32.499 12.5zM417.003 851.001c13.333 0 24.166 -4.16699 32.499 -12.5s12.5 -19.166 12.5 -32.499c0 -12.667 -4.16699 -23.334 -12.5 -32.001s-19.166 -13 -32.499 -13
c-12.667 0 -23.334 4.33301 -32.001 13s-13 19.334 -13 32.001c0 13.333 4.33301 24.166 13 32.499s19.334 12.5 32.001 12.5z" />
    <glyph glyph-name="Aring" unicode="&#xc5;" horiz-adv-x="675" 
d="M650 41c0 -10.667 -3.33203 -20.333 -9.99902 -29s-16.667 -13 -30 -13c-8.66699 0 -16.5 2.33301 -23.5 7s-12.167 11 -15.5 19l-74 209h-319l-74 -209c-3.33301 -8 -8.5 -14.333 -15.5 -19s-14.833 -7 -23.5 -7c-13.333 0 -23.333 4.33301 -30 13
s-10 18.334 -10 29.001c0 6 0.666992 10.667 2 14l208 580c9.33301 26 23.166 45.167 41.499 57.5s38.833 18.5 61.5 18.5s43 -6.16699 61 -18.5s31.667 -31.5 41 -57.5l208 -580c1.33301 -2.66699 2 -7.33398 2 -14.001zM206.001 312.001h263.002l-105 299
c-4.66699 13.333 -13.334 20 -26.001 20s-21.334 -6.66699 -26.001 -20zM242.003 849.001c0 12.667 2.5 24.834 7.5 36.501s12 22 21 31s19.167 16 30.5 21s23.666 7.5 36.999 7.5s25.833 -2.5 37.5 -7.5s21.834 -12 30.501 -21s15.5 -19.333 20.5 -31
s7.5 -23.834 7.5 -36.501c0 -26.667 -9.33301 -49.334 -28 -68.001s-41.334 -28 -68.001 -28c-13.333 0 -25.666 2.5 -36.999 7.5s-21.5 11.833 -30.5 20.5s-16 18.834 -21 30.501s-7.5 24.167 -7.5 37.5zM294.003 849.001c0 -12.667 4.33301 -23.334 13 -32.001
s19 -13 31 -13c12.667 0 23.167 4.33301 31.5 13s12.5 19.334 12.5 32.001c0 12 -4.16699 22.333 -12.5 31s-18.833 13 -31.5 13c-12 0 -22.333 -4.33301 -31 -13s-13 -19 -13 -31z" />
    <glyph glyph-name="AE" unicode="&#xc6;" horiz-adv-x="1043" 
d="M59 -4c-12.667 0 -22.666 4.16699 -29.999 12.5s-11 18.166 -11 29.499c0 8 2 15 6 21l394 585c15.333 23.333 32.666 38.666 51.999 45.999s41 11 65 11h397c11.333 0 21.166 -3.83301 29.499 -11.5s12.5 -17.167 12.5 -28.5s-4.16699 -20.666 -12.5 -27.999
s-18.166 -11 -29.499 -11h-332v-230h324c11.333 0 20.833 -3.66699 28.5 -11s11.5 -16.666 11.5 -27.999c0 -10.667 -4 -19.834 -12 -27.501s-17.333 -11.5 -28 -11.5h-324v-235h334c11.333 0 21.166 -3.66699 29.499 -11s12.5 -16.666 12.5 -27.999
s-4.16699 -20.833 -12.5 -28.5s-18.166 -11.5 -29.499 -11.5h-346c-22.667 0 -40 6.66699 -52 20s-18 29.333 -18 48v174h-271l-153 -228c-8 -12 -19.667 -18 -35 -18zM299.001 320h218.998v301c-5.33301 0 -10.666 -1.5 -15.999 -4.5s-10.666 -8.83301 -15.999 -17.5z" />
    <glyph glyph-name="Ccedilla" unicode="&#xc7;" horiz-adv-x="662" 
d="M574 214c9.33301 0 18.167 -3.66797 26.5 -11.001s12.5 -16.666 12.5 -27.999c0 -5.33301 -1 -11.333 -3 -18c-18 -46 -47 -83.5 -87 -112.5s-85 -46.5 -135 -52.5l-14 -37c26.667 -2 48 -11.167 64 -27.5s24 -36.833 24 -61.5c0 -16.667 -3.5 -31.5 -10.5 -44.5
s-16.333 -24.5 -28 -34.5s-24.834 -18.667 -39.501 -26s-29.667 -13.666 -45 -18.999c-10 -3.33301 -20.333 -2.83301 -31 1.5s-16 13.833 -16 28.5c0 5.33301 1.5 11 4.5 17s9.83301 10.667 20.5 14c32 12.667 52.667 23.5 62 32.5s14 18.5 14 28.5
c0 6 -2.5 12.5 -7.5 19.5s-12.833 10.5 -23.5 10.5c-7.33301 0 -12.666 -0.666992 -15.999 -2s-8.33301 -2 -15 -2c-10.667 0 -19.167 4.33301 -25.5 13s-7.16602 18.667 -2.49902 30l21 60c-36 3.33301 -69 12.666 -99 27.999s-56 35.166 -78 59.499s-39.667 52.5 -53 84.5
s-21.333 66.667 -24 104c-4 54.667 -4 108.667 0 162c2.66699 39.333 11.5 76 26.5 110s35 63.5 60 88.5s54.333 44.667 88 59s70.5 21.5 110.5 21.5c28 0 55.167 -4 81.5 -12s50.666 -19.167 72.999 -33.5s42.166 -31.833 59.499 -52.5s31 -43.334 41 -68.001
c2 -7.33301 3 -13.666 3 -18.999c0 -11.333 -4.16699 -20.5 -12.5 -27.5s-17.166 -10.5 -26.499 -10.5c-10 0 -18 2.5 -24 7.5s-10.667 11.167 -14 18.5c-15.333 36 -39.166 64.667 -71.499 86s-68.833 32 -109.5 32c-29.333 0 -55.833 -5.16699 -79.5 -15.5
s-44.334 -24.5 -62.001 -42.5s-31.667 -39.5 -42 -64.5s-16.833 -52.167 -19.5 -81.5c-3.33301 -51.333 -3.33301 -102.666 0 -153.999c2.66699 -29.333 9.16699 -56.5 19.5 -81.5s24.333 -46.5 42 -64.5s38.334 -32.167 62.001 -42.5s50.167 -15.5 79.5 -15.5
c40.667 0 77.167 10.833 109.5 32.5s56.166 50.5 71.499 86.5c3.33301 7.33301 8 13.5 14 18.5s14 7.5 24 7.5z" />
    <glyph glyph-name="Egrave" unicode="&#xc8;" horiz-adv-x="625" 
d="M515 701c11.333 0 21 -3.83496 29 -11.502s12 -17.167 12 -28.5s-4.16699 -20.666 -12.5 -27.999s-17.833 -11 -28.5 -11h-333v-230h324c11.333 0 20.833 -3.66699 28.5 -11s11.5 -16.666 11.5 -27.999c0 -10.667 -4 -19.834 -12 -27.501s-17.333 -11.5 -28 -11.5h-324
v-235h335c10.667 0 20.167 -3.66699 28.5 -11s12.5 -16.666 12.5 -27.999s-4 -20.833 -12 -28.5s-17.667 -11.5 -29 -11.5h-347c-22.667 0 -40 6.66699 -52 20s-18 29.333 -18 48v565c0 19.333 6 35.5 18 48.5s29.333 19.5 52 19.5h345zM391 817.998
c12.667 -6.66699 19.001 -17 19.001 -31c0 -9.33301 -3.33301 -17.333 -10 -24s-14.667 -10 -24 -10c-5.33301 0 -12 2 -20 6l-133 69c-12 6.66699 -18 16.667 -18 30c0 9.33301 3.16699 17.333 9.5 24s14.166 10 23.499 10c5.33301 0 11.333 -1.33301 18 -4z" />
    <glyph glyph-name="Eacute" unicode="&#xc9;" horiz-adv-x="625" 
d="M515 701c11.333 0 21 -3.83496 29 -11.502s12 -17.167 12 -28.5s-4.16699 -20.666 -12.5 -27.999s-17.833 -11 -28.5 -11h-333v-230h324c11.333 0 20.833 -3.66699 28.5 -11s11.5 -16.666 11.5 -27.999c0 -10.667 -4 -19.834 -12 -27.501s-17.333 -11.5 -28 -11.5h-324
v-235h335c10.667 0 20.167 -3.66699 28.5 -11s12.5 -16.666 12.5 -27.999s-4 -20.833 -12 -28.5s-17.667 -11.5 -29 -11.5h-347c-22.667 0 -40 6.66699 -52 20s-18 29.333 -18 48v565c0 19.333 6 35.5 18 48.5s29.333 19.5 52 19.5h345zM370 887.998
c6.66699 2.66699 12.332 4 16.999 4c9.33301 0 17.333 -3.33301 24 -10s10 -14.667 10 -24c0 -13.333 -6.33301 -23.333 -19 -30l-135 -70c-5.33301 -3.33301 -11.333 -5 -18 -5c-9.33301 0 -17.166 3.33301 -23.499 10s-9.5 14.667 -9.5 24c0 14 6 24.333 18 31z" />
    <glyph glyph-name="Ecircumflex" unicode="&#xca;" horiz-adv-x="625" 
d="M515 701c11.333 0 21 -3.83496 29 -11.502s12 -17.167 12 -28.5s-4.16699 -20.666 -12.5 -27.999s-17.833 -11 -28.5 -11h-333v-230h324c11.333 0 20.833 -3.66699 28.5 -11s11.5 -16.666 11.5 -27.999c0 -10.667 -4 -19.834 -12 -27.501s-17.333 -11.5 -28 -11.5h-324
v-235h335c10.667 0 20.167 -3.66699 28.5 -11s12.5 -16.666 12.5 -27.999s-4 -20.833 -12 -28.5s-17.667 -11.5 -29 -11.5h-347c-22.667 0 -40 6.66699 -52 20s-18 29.333 -18 48v565c0 19.333 6 35.5 18 48.5s29.333 19.5 52 19.5h345zM455 813.998
c4 -3.33301 7.50098 -7.33301 10.501 -12s4.5 -10 4.5 -16c0 -9.33301 -3.33301 -17.333 -10 -24s-14.667 -10 -24 -10c-8 0 -15.667 2.66699 -23 8l-81 61l-81 -61c-7.33301 -5.33301 -14.666 -8 -21.999 -8c-10 0 -18.167 3.33301 -24.5 10s-9.5 14.667 -9.5 24
c0 6 1.33301 11.333 4 16s6 8.66699 10 12l93 70c5.33301 3.33301 10.333 6.16602 15 8.49902s9.66699 3.5 15 3.5s10.166 -1.16699 14.499 -3.5s9.16602 -5.16602 14.499 -8.49902z" />
    <glyph glyph-name="Edieresis" unicode="&#xcb;" horiz-adv-x="625" 
d="M515 701c11.333 0 21 -3.83496 29 -11.502s12 -17.167 12 -28.5s-4.16699 -20.666 -12.5 -27.999s-17.833 -11 -28.5 -11h-333v-230h324c11.333 0 20.833 -3.66699 28.5 -11s11.5 -16.666 11.5 -27.999c0 -10.667 -4 -19.834 -12 -27.501s-17.333 -11.5 -28 -11.5h-324
v-235h335c10.667 0 20.167 -3.66699 28.5 -11s12.5 -16.666 12.5 -27.999s-4 -20.833 -12 -28.5s-17.667 -11.5 -29 -11.5h-347c-22.667 0 -40 6.66699 -52 20s-18 29.333 -18 48v565c0 19.333 6 35.5 18 48.5s29.333 19.5 52 19.5h345zM256 850.998
c12.667 0 23.334 -4.16699 32.001 -12.5s13 -19.166 13 -32.499c0 -12.667 -4.33301 -23.334 -13 -32.001s-19.334 -13 -32.001 -13c-13.333 0 -24.166 4.33301 -32.499 13s-12.5 19.334 -12.5 32.001c0 13.333 4.16699 24.166 12.5 32.499s19.166 12.5 32.499 12.5z
M414 850.998c13.333 0 24.166 -4.16699 32.499 -12.5s12.5 -19.166 12.5 -32.499c0 -12.667 -4.16699 -23.334 -12.5 -32.001s-19.166 -13 -32.499 -13c-12.667 0 -23.334 4.33301 -32.001 13s-13 19.334 -13 32.001c0 13.333 4.33301 24.166 13 32.499
s19.334 12.5 32.001 12.5z" />
    <glyph glyph-name="Igrave" unicode="&#xcc;" horiz-adv-x="282" 
d="M100 663c0 11.333 4 21.166 12 29.499s17.667 12.5 29 12.5c12 0 21.833 -4.16699 29.5 -12.5s11.5 -18.166 11.5 -29.499v-625c0 -11.333 -3.83301 -21.166 -11.5 -29.499s-17.5 -12.5 -29.5 -12.5c-11.333 0 -21 4.16699 -29 12.5s-12 18.166 -12 29.499v625zM190 818
c12.667 -6.66699 19.001 -17 19.001 -31c0 -9.33301 -3.33301 -17.333 -10 -24s-14.667 -10 -24 -10c-5.33301 0 -12 2 -20 6l-133 69c-12 6.66699 -18 16.667 -18 30c0 9.33301 3.16699 17.333 9.5 24s14.166 10 23.499 10c5.33301 0 11.333 -1.33301 18 -4z" />
    <glyph glyph-name="Iacute" unicode="&#xcd;" horiz-adv-x="282" 
d="M100 663c0 11.333 4 21.166 12 29.499s17.667 12.5 29 12.5c12 0 21.833 -4.16699 29.5 -12.5s11.5 -18.166 11.5 -29.499v-625c0 -11.333 -3.83301 -21.166 -11.5 -29.499s-17.5 -12.5 -29.5 -12.5c-11.333 0 -21 4.16699 -29 12.5s-12 18.166 -12 29.499v625zM221 888
c6.66699 2.66699 12.332 4 16.999 4c9.33301 0 17.333 -3.33301 24 -10s10 -14.667 10 -24c0 -13.333 -6.33301 -23.333 -19 -30l-135 -70c-5.33301 -3.33301 -11.333 -5 -18 -5c-9.33301 0 -17.166 3.33301 -23.499 10s-9.5 14.667 -9.5 24c0 14 6 24.333 18 31z" />
    <glyph glyph-name="Icircumflex" unicode="&#xce;" horiz-adv-x="282" 
d="M100 663c0 11.333 4 21.166 12 29.499s17.667 12.5 29 12.5c12 0 21.833 -4.16699 29.5 -12.5s11.5 -18.166 11.5 -29.499v-625c0 -11.333 -3.83301 -21.166 -11.5 -29.499s-17.5 -12.5 -29.5 -12.5c-11.333 0 -21 4.16699 -29 12.5s-12 18.166 -12 29.499v625zM264 814
c4 -3.33301 7.50098 -7.33301 10.501 -12s4.5 -10 4.5 -16c0 -9.33301 -3.33301 -17.333 -10 -24s-14.667 -10 -24 -10c-8 0 -15.667 2.66699 -23 8l-81 61l-81 -61c-7.33301 -5.33301 -14.666 -8 -21.999 -8c-10 0 -18.167 3.33301 -24.5 10s-9.5 14.667 -9.5 24
c0 6 1.33301 11.333 4 16s6 8.66699 10 12l93 70c5.33301 3.33301 10.333 6.16602 15 8.49902s9.66699 3.5 15 3.5s10.166 -1.16699 14.499 -3.5s9.16602 -5.16602 14.499 -8.49902z" />
    <glyph glyph-name="Idieresis" unicode="&#xcf;" horiz-adv-x="282" 
d="M100 663c0 11.333 4 21.166 12 29.499s17.667 12.5 29 12.5c12 0 21.833 -4.16699 29.5 -12.5s11.5 -18.166 11.5 -29.499v-625c0 -11.333 -3.83301 -21.166 -11.5 -29.499s-17.5 -12.5 -29.5 -12.5c-11.333 0 -21 4.16699 -29 12.5s-12 18.166 -12 29.499v625zM63 851
c12.667 0 23.334 -4.16699 32.001 -12.5s13 -19.166 13 -32.499c0 -12.667 -4.33301 -23.334 -13 -32.001s-19.334 -13 -32.001 -13c-13.333 0 -24.166 4.33301 -32.499 13s-12.5 19.334 -12.5 32.001c0 13.333 4.16699 24.166 12.5 32.499s19.166 12.5 32.499 12.5z
M221 851c13.333 0 24.166 -4.16699 32.499 -12.5s12.5 -19.166 12.5 -32.499c0 -12.667 -4.16699 -23.334 -12.5 -32.001s-19.166 -13 -32.499 -13c-12.667 0 -23.334 4.33301 -32.001 13s-13 19.334 -13 32.001c0 13.333 4.33301 24.166 13 32.499s19.334 12.5 32.001 12.5
z" />
    <glyph glyph-name="Eth" unicode="&#xd0;" horiz-adv-x="719" 
d="M169 0c-22 0 -39 6.66699 -51 20s-18 29.333 -18 48v241h-64c-11.333 0 -20.666 3.66699 -27.999 11s-11 16.666 -11 27.999c0 10.667 3.66699 19.667 11 27s16.666 11 27.999 11h64v247c0 19.333 6 35.5 18 48.5s29 19.5 51 19.5h167c50.667 0 95 -7.33301 133 -22
s70 -35.167 96 -61.5s46 -57.666 60 -93.999s22.333 -75.833 25 -118.5c1.33301 -18 2 -36.5 2 -55.5s-0.666992 -36.833 -2 -53.5c-2.66699 -42.667 -11 -82 -25 -118s-34 -67.167 -60 -93.5s-58 -47 -96 -62s-82.333 -22.5 -133 -22.5h-167zM568 298
c1.33301 16.667 2 34.499 2 53.499s-0.666992 35.833 -2 50.5c-2 32.667 -7.83301 62.667 -17.5 90s-24 50.5 -43 69.5s-42.667 33.833 -71 44.5s-61.833 16 -100.5 16h-154v-236h158c11.333 0 20.666 -3.66699 27.999 -11s11 -16.333 11 -27
c0 -11.333 -3.66699 -20.666 -11 -27.999s-16.666 -11 -27.999 -11h-158v-230h154c38.667 0 72 5.33301 100 16s51.5 25.5 70.5 44.5s33.5 42 43.5 69s16 56.833 18 89.5z" />
    <glyph glyph-name="Ntilde" unicode="&#xd1;" horiz-adv-x="769" 
d="M588 97l1.99707 0.00195312c-0.666992 20 -1.5 41.5 -2.5 64.5s-1.5 51.167 -1.5 84.5v417c0 11.333 4 21.166 12 29.499s17.667 12.5 29 12.5c12 0 21.833 -4.16699 29.5 -12.5s11.5 -18.166 11.5 -29.499v-595c0 -19.333 -6.16699 -35.833 -18.5 -49.5
s-28.166 -20.5 -47.499 -20.5c-28.667 0 -50.667 12.333 -66 37l-355 575h-2c0.666992 -20.667 1.33398 -43.667 2.00098 -69s1 -54 1 -86v-417c0 -12 -3.83301 -22 -11.5 -30s-17.5 -12 -29.5 -12c-11.333 0 -21 4.16699 -29 12.5s-12 18.166 -12 29.499v593
c0 20.667 6.33301 38 19 52s29.667 21 51 21c13.333 0 25.833 -2.83301 37.5 -8.5s21.834 -15.834 30.501 -30.501zM439.997 824.002c6.66699 0 12.334 1.33398 17.001 4.00098s9.16699 5.83398 13.5 9.50098s8.66602 6.83398 12.999 9.50098s9.5 4 15.5 4
c10 0 18 -3.33301 24 -10s9 -14.667 9 -24c0 -6 -1.33301 -11.167 -4 -15.5s-6 -8.16602 -10 -11.499c-11.333 -10 -23.5 -18.167 -36.5 -24.5s-25.5 -9.5 -37.5 -9.5s-23 1.83301 -33 5.5s-19.667 7.83398 -29 12.501l-26 12.5c-8 3.66699 -16 5.5 -24 5.5
c-6.66699 0 -12.334 -1.33301 -17.001 -4s-9.16699 -5.83398 -13.5 -9.50098s-8.66602 -6.83398 -12.999 -9.50098s-9.5 -4 -15.5 -4c-10 0 -18 3.33301 -24 10s-9 14.667 -9 24c0 6 1.5 11.167 4.5 15.5s6.16699 8.16602 9.5 11.499c11.333 10 23.5 18.167 36.5 24.5
s25.833 9.5 38.5 9.5c12 0 23.167 -1.83301 33.5 -5.5s19.833 -7.83398 28.5 -12.501s17 -8.83398 25 -12.501s16 -5.5 24 -5.5z" />
    <glyph glyph-name="Ograve" unicode="&#xd2;" horiz-adv-x="729" 
d="M363 -10c-40 0 -77.167 7.16602 -111.5 21.499s-64.5 34 -90.5 59s-47 54.5 -63 88.5s-25.333 70.667 -28 110c-4 54.667 -4 108.667 0 162c2.66699 39.333 12 76 28 110s37 63.5 63 88.5s56.167 44.667 90.5 59s71.5 21.5 111.5 21.5s77.5 -7.16699 112.5 -21.5
s65.667 -34.166 92 -59.499s47.5 -55 63.5 -89s25.333 -70.333 28 -109c4 -53.333 4 -107.333 0 -162c-2.66699 -39.333 -12 -76 -28 -110s-37.167 -63.5 -63.5 -88.5s-57 -44.667 -92 -59s-72.5 -21.5 -112.5 -21.5zM363 68.999c29.333 0 56.502 5.16699 81.502 15.5
s46.833 24.5 65.5 42.5s33.667 39.5 45 64.5s18.333 52.167 21 81.5c5.33301 51.333 5.33301 103 0 155c-2.66699 29.333 -9.83398 56.333 -21.501 81s-26.834 46 -45.501 64s-40.5 32.167 -65.5 42.5s-51.833 15.5 -80.5 15.5s-55.334 -5.16699 -80.001 -15.5
s-46.167 -24.5 -64.5 -42.5s-33.333 -39.333 -45 -64s-18.834 -51.667 -21.501 -81c-4 -52 -4 -103.667 0 -155c2.66699 -29.333 9.83398 -56.5 21.501 -81.5s26.667 -46.5 45 -64.5s39.833 -32.167 64.5 -42.5s51.334 -15.5 80.001 -15.5zM422.002 817.999
c12.667 -6.66699 19.001 -17 19.001 -31c0 -9.33301 -3.33301 -17.333 -10 -24s-14.667 -10 -24 -10c-5.33301 0 -12 2 -20 6l-133 69c-12 6.66699 -18 16.667 -18 30c0 9.33301 3.16699 17.333 9.5 24s14.166 10 23.499 10c5.33301 0 11.333 -1.33301 18 -4z" />
    <glyph glyph-name="Oacute" unicode="&#xd3;" horiz-adv-x="729" 
d="M363 -10c-40 0 -77.167 7.16602 -111.5 21.499s-64.5 34 -90.5 59s-47 54.5 -63 88.5s-25.333 70.667 -28 110c-4 54.667 -4 108.667 0 162c2.66699 39.333 12 76 28 110s37 63.5 63 88.5s56.167 44.667 90.5 59s71.5 21.5 111.5 21.5s77.5 -7.16699 112.5 -21.5
s65.667 -34.166 92 -59.499s47.5 -55 63.5 -89s25.333 -70.333 28 -109c4 -53.333 4 -107.333 0 -162c-2.66699 -39.333 -12 -76 -28 -110s-37.167 -63.5 -63.5 -88.5s-57 -44.667 -92 -59s-72.5 -21.5 -112.5 -21.5zM363 68.999c29.333 0 56.502 5.16699 81.502 15.5
s46.833 24.5 65.5 42.5s33.667 39.5 45 64.5s18.333 52.167 21 81.5c5.33301 51.333 5.33301 103 0 155c-2.66699 29.333 -9.83398 56.333 -21.501 81s-26.834 46 -45.501 64s-40.5 32.167 -65.5 42.5s-51.833 15.5 -80.5 15.5s-55.334 -5.16699 -80.001 -15.5
s-46.167 -24.5 -64.5 -42.5s-33.333 -39.333 -45 -64s-18.834 -51.667 -21.501 -81c-4 -52 -4 -103.667 0 -155c2.66699 -29.333 9.83398 -56.5 21.501 -81.5s26.667 -46.5 45 -64.5s39.833 -32.167 64.5 -42.5s51.334 -15.5 80.001 -15.5zM440.002 887.999
c6.66699 2.66699 12.332 4 16.999 4c9.33301 0 17.333 -3.33301 24 -10s10 -14.667 10 -24c0 -13.333 -6.33301 -23.333 -19 -30l-135 -70c-5.33301 -3.33301 -11.333 -5 -18 -5c-9.33301 0 -17.166 3.33301 -23.499 10s-9.5 14.667 -9.5 24c0 14 6 24.333 18 31z" />
    <glyph glyph-name="Ocircumflex" unicode="&#xd4;" horiz-adv-x="729" 
d="M363 -10c-40 0 -77.167 7.16602 -111.5 21.499s-64.5 34 -90.5 59s-47 54.5 -63 88.5s-25.333 70.667 -28 110c-4 54.667 -4 108.667 0 162c2.66699 39.333 12 76 28 110s37 63.5 63 88.5s56.167 44.667 90.5 59s71.5 21.5 111.5 21.5s77.5 -7.16699 112.5 -21.5
s65.667 -34.166 92 -59.499s47.5 -55 63.5 -89s25.333 -70.333 28 -109c4 -53.333 4 -107.333 0 -162c-2.66699 -39.333 -12 -76 -28 -110s-37.167 -63.5 -63.5 -88.5s-57 -44.667 -92 -59s-72.5 -21.5 -112.5 -21.5zM363 68.999c29.333 0 56.502 5.16699 81.502 15.5
s46.833 24.5 65.5 42.5s33.667 39.5 45 64.5s18.333 52.167 21 81.5c5.33301 51.333 5.33301 103 0 155c-2.66699 29.333 -9.83398 56.333 -21.501 81s-26.834 46 -45.501 64s-40.5 32.167 -65.5 42.5s-51.833 15.5 -80.5 15.5s-55.334 -5.16699 -80.001 -15.5
s-46.167 -24.5 -64.5 -42.5s-33.333 -39.333 -45 -64s-18.834 -51.667 -21.501 -81c-4 -52 -4 -103.667 0 -155c2.66699 -29.333 9.83398 -56.5 21.501 -81.5s26.667 -46.5 45 -64.5s39.833 -32.167 64.5 -42.5s51.334 -15.5 80.001 -15.5zM488.002 813.999
c4 -3.33301 7.50098 -7.33301 10.501 -12s4.5 -10 4.5 -16c0 -9.33301 -3.33301 -17.333 -10 -24s-14.667 -10 -24 -10c-8 0 -15.667 2.66699 -23 8l-81 61l-81 -61c-7.33301 -5.33301 -14.666 -8 -21.999 -8c-10 0 -18.167 3.33301 -24.5 10s-9.5 14.667 -9.5 24
c0 6 1.33301 11.333 4 16s6 8.66699 10 12l93 70c5.33301 3.33301 10.333 6.16602 15 8.49902s9.66699 3.5 15 3.5s10.166 -1.16699 14.499 -3.5s9.16602 -5.16602 14.499 -8.49902z" />
    <glyph glyph-name="Otilde" unicode="&#xd5;" horiz-adv-x="729" 
d="M363 -10c-40 0 -77.167 7.16602 -111.5 21.499s-64.5 34 -90.5 59s-47 54.5 -63 88.5s-25.333 70.667 -28 110c-4 54.667 -4 108.667 0 162c2.66699 39.333 12 76 28 110s37 63.5 63 88.5s56.167 44.667 90.5 59s71.5 21.5 111.5 21.5s77.5 -7.16699 112.5 -21.5
s65.667 -34.166 92 -59.499s47.5 -55 63.5 -89s25.333 -70.333 28 -109c4 -53.333 4 -107.333 0 -162c-2.66699 -39.333 -12 -76 -28 -110s-37.167 -63.5 -63.5 -88.5s-57 -44.667 -92 -59s-72.5 -21.5 -112.5 -21.5zM363 68.999c29.333 0 56.502 5.16699 81.502 15.5
s46.833 24.5 65.5 42.5s33.667 39.5 45 64.5s18.333 52.167 21 81.5c5.33301 51.333 5.33301 103 0 155c-2.66699 29.333 -9.83398 56.333 -21.501 81s-26.834 46 -45.501 64s-40.5 32.167 -65.5 42.5s-51.833 15.5 -80.5 15.5s-55.334 -5.16699 -80.001 -15.5
s-46.167 -24.5 -64.5 -42.5s-33.333 -39.333 -45 -64s-18.834 -51.667 -21.501 -81c-4 -52 -4 -103.667 0 -155c2.66699 -29.333 9.83398 -56.5 21.501 -81.5s26.667 -46.5 45 -64.5s39.833 -32.167 64.5 -42.5s51.334 -15.5 80.001 -15.5zM417.002 819.999
c6.66699 0 12.334 1.33398 17.001 4.00098s9.16699 5.83398 13.5 9.50098s8.66602 6.83398 12.999 9.50098s9.5 4 15.5 4c10 0 18 -3.33301 24 -10s9 -14.667 9 -24c0 -6 -1.33301 -11.167 -4 -15.5s-6 -8.16602 -10 -11.499c-11.333 -10 -23.5 -18.167 -36.5 -24.5
s-25.5 -9.5 -37.5 -9.5s-23 1.83301 -33 5.5s-19.667 7.83398 -29 12.501l-26 12.5c-8 3.66699 -16 5.5 -24 5.5c-6.66699 0 -12.334 -1.33301 -17.001 -4s-9.16699 -5.83398 -13.5 -9.50098s-8.66602 -6.83398 -12.999 -9.50098s-9.5 -4 -15.5 -4c-10 0 -18 3.33301 -24 10
s-9 14.667 -9 24c0 6 1.5 11.167 4.5 15.5s6.16699 8.16602 9.5 11.499c11.333 10 23.5 18.167 36.5 24.5s25.833 9.5 38.5 9.5c12 0 23.167 -1.83301 33.5 -5.5s19.833 -7.83398 28.5 -12.501s17 -8.83398 25 -12.501s16 -5.5 24 -5.5z" />
    <glyph glyph-name="Odieresis" unicode="&#xd6;" horiz-adv-x="729" 
d="M363 -10c-40 0 -77.167 7.16602 -111.5 21.499s-64.5 34 -90.5 59s-47 54.5 -63 88.5s-25.333 70.667 -28 110c-4 54.667 -4 108.667 0 162c2.66699 39.333 12 76 28 110s37 63.5 63 88.5s56.167 44.667 90.5 59s71.5 21.5 111.5 21.5s77.5 -7.16699 112.5 -21.5
s65.667 -34.166 92 -59.499s47.5 -55 63.5 -89s25.333 -70.333 28 -109c4 -53.333 4 -107.333 0 -162c-2.66699 -39.333 -12 -76 -28 -110s-37.167 -63.5 -63.5 -88.5s-57 -44.667 -92 -59s-72.5 -21.5 -112.5 -21.5zM363 68.999c29.333 0 56.502 5.16699 81.502 15.5
s46.833 24.5 65.5 42.5s33.667 39.5 45 64.5s18.333 52.167 21 81.5c5.33301 51.333 5.33301 103 0 155c-2.66699 29.333 -9.83398 56.333 -21.501 81s-26.834 46 -45.501 64s-40.5 32.167 -65.5 42.5s-51.833 15.5 -80.5 15.5s-55.334 -5.16699 -80.001 -15.5
s-46.167 -24.5 -64.5 -42.5s-33.333 -39.333 -45 -64s-18.834 -51.667 -21.501 -81c-4 -52 -4 -103.667 0 -155c2.66699 -29.333 9.83398 -56.5 21.501 -81.5s26.667 -46.5 45 -64.5s39.833 -32.167 64.5 -42.5s51.334 -15.5 80.001 -15.5zM286.002 850.999
c12.667 0 23.334 -4.16699 32.001 -12.5s13 -19.166 13 -32.499c0 -12.667 -4.33301 -23.334 -13 -32.001s-19.334 -13 -32.001 -13c-13.333 0 -24.166 4.33301 -32.499 13s-12.5 19.334 -12.5 32.001c0 13.333 4.16699 24.166 12.5 32.499s19.166 12.5 32.499 12.5z
M444.002 850.999c13.333 0 24.166 -4.16699 32.499 -12.5s12.5 -19.166 12.5 -32.499c0 -12.667 -4.16699 -23.334 -12.5 -32.001s-19.166 -13 -32.499 -13c-12.667 0 -23.334 4.33301 -32.001 13s-13 19.334 -13 32.001c0 13.333 4.33301 24.166 13 32.499
s19.334 12.5 32.001 12.5z" />
    <glyph glyph-name="multiply" unicode="&#xd7;" horiz-adv-x="628" 
d="M530 194c8 -7.33301 12.167 -16.6641 12.5 -27.9971s-3.16699 -21 -10.5 -29c-8 -8.66699 -17.667 -12.834 -29 -12.501s-21.333 4.5 -30 12.5l-159 158l-161 -161c-8.66699 -8 -18.334 -12.167 -29.001 -12.5s-20.334 3.5 -29.001 11.5
c-7.33301 7.33301 -11 16.666 -11 27.999s4 21 12 29l161 161l-161 161c-8 8 -12 17.667 -12 29s3.66699 20.666 11 27.999c8.66699 8 18.334 11.833 29.001 11.5s20.334 -4.5 29.001 -12.5l161 -161l159 159c8.66699 8 18.667 12.167 30 12.5s21 -3.83398 29 -12.501
c7.33301 -8 10.833 -17.667 10.5 -29s-4.5 -20.666 -12.5 -27.999l-159 -158z" />
    <glyph glyph-name="Oslash" unicode="&#xd8;" horiz-adv-x="730" 
d="M364 -10c-55.333 0 -105.665 13.3311 -150.998 39.998l-13 -22c-5.33301 -9.33301 -12.833 -15 -22.5 -17s-18.834 -0.333008 -27.501 5s-14 13 -16 23s-0.333008 19.333 5 28l17 28c-24.667 25.333 -44.334 54.333 -59.001 87s-23.334 68.334 -26.001 107.001
c-4 54.667 -4 108.667 0 162c2.66699 39.333 12 76 28 110s37 63.5 63 88.5s56.167 44.667 90.5 59s71.5 21.5 111.5 21.5c28 0 54.5 -3.5 79.5 -10.5s48.167 -16.833 69.5 -29.5l14 22c5.33301 9.33301 12.833 15 22.5 17s18.834 0.333008 27.501 -5
s13.834 -12.833 15.501 -22.5s-0.166016 -19.167 -5.49902 -28.5l-16 -27c25.333 -25.333 45.666 -54.666 60.999 -87.999s24.666 -69 27.999 -107c4 -53.333 4 -107.333 0 -162c-2.66699 -39.333 -12 -76 -28 -110s-37.167 -63.5 -63.5 -88.5s-57 -44.667 -92 -59
s-72.5 -21.5 -112.5 -21.5zM364.001 68.998c29.333 0 56.501 5.16602 81.501 15.499s46.833 24.5 65.5 42.5s33.667 39.5 45 64.5s18.333 52.167 21 81.5c5.33301 51.333 5.33301 103 0 155c-2 24.667 -7.33301 47.5 -16 68.5s-20 40.167 -34 57.5l-272 -455
c15.333 -9.33301 32.166 -16.666 50.499 -21.999s37.833 -8 58.5 -8zM153.002 272.997c2 -24 7.00195 -46.5 15.002 -67.5s18.667 -40.167 32 -57.5l273 454c-16 9.33301 -33.167 16.5 -51.5 21.5s-37.5 7.5 -57.5 7.5c-28.667 0 -55.334 -5.16699 -80.001 -15.5
s-46.167 -24.5 -64.5 -42.5s-33.333 -39.333 -45 -64s-18.834 -51.667 -21.501 -81c-4 -52 -4 -103.667 0 -155z" />
    <glyph glyph-name="Ugrave" unicode="&#xd9;" horiz-adv-x="748" 
d="M657 284c0 -44 -7.1709 -84 -21.5039 -120s-34.166 -66.833 -59.499 -92.5s-55.166 -45.667 -89.499 -60s-71.833 -21.5 -112.5 -21.5s-78.167 7.16699 -112.5 21.5s-64.166 34.333 -89.499 60s-45.166 56.5 -59.499 92.5s-21.5 76 -21.5 120v379
c0 11.333 4 21.166 12 29.499s17.667 12.5 29 12.5s21 -4.16699 29 -12.5s12 -18.166 12 -29.499v-378c0 -33.333 5 -63.333 15 -90s24 -49.334 42 -68.001s39.167 -33 63.5 -43s51.166 -15 80.499 -15c28.667 0 55.334 5 80.001 15s46 24.333 64 43s32 41.334 42 68.001
s15 56.667 15 90v378c0 11.333 4 21.166 12 29.499s17.667 12.5 29 12.5s21 -4.16699 29 -12.5s12 -18.166 12 -29.499v-379zM450.996 818c12.667 -6.66699 19.001 -17 19.001 -31c0 -9.33301 -3.33301 -17.333 -10 -24s-14.667 -10 -24 -10c-5.33301 0 -12 2 -20 6l-133 69
c-12 6.66699 -18 16.667 -18 30c0 9.33301 3.16699 17.333 9.5 24s14.166 10 23.499 10c5.33301 0 11.333 -1.33301 18 -4z" />
    <glyph glyph-name="Uacute" unicode="&#xda;" horiz-adv-x="748" 
d="M657 284c0 -44 -7.1709 -84 -21.5039 -120s-34.166 -66.833 -59.499 -92.5s-55.166 -45.667 -89.499 -60s-71.833 -21.5 -112.5 -21.5s-78.167 7.16699 -112.5 21.5s-64.166 34.333 -89.499 60s-45.166 56.5 -59.499 92.5s-21.5 76 -21.5 120v379
c0 11.333 4 21.166 12 29.499s17.667 12.5 29 12.5s21 -4.16699 29 -12.5s12 -18.166 12 -29.499v-378c0 -33.333 5 -63.333 15 -90s24 -49.334 42 -68.001s39.167 -33 63.5 -43s51.166 -15 80.499 -15c28.667 0 55.334 5 80.001 15s46 24.333 64 43s32 41.334 42 68.001
s15 56.667 15 90v378c0 11.333 4 21.166 12 29.499s17.667 12.5 29 12.5s21 -4.16699 29 -12.5s12 -18.166 12 -29.499v-379zM429.996 888c6.66699 2.66699 12.332 4 16.999 4c9.33301 0 17.333 -3.33301 24 -10s10 -14.667 10 -24c0 -13.333 -6.33301 -23.333 -19 -30
l-135 -70c-5.33301 -3.33301 -11.333 -5 -18 -5c-9.33301 0 -17.166 3.33301 -23.499 10s-9.5 14.667 -9.5 24c0 14 6 24.333 18 31z" />
    <glyph glyph-name="Ucircumflex" unicode="&#xdb;" horiz-adv-x="748" 
d="M657 284c0 -44 -7.1709 -84 -21.5039 -120s-34.166 -66.833 -59.499 -92.5s-55.166 -45.667 -89.499 -60s-71.833 -21.5 -112.5 -21.5s-78.167 7.16699 -112.5 21.5s-64.166 34.333 -89.499 60s-45.166 56.5 -59.499 92.5s-21.5 76 -21.5 120v379
c0 11.333 4 21.166 12 29.499s17.667 12.5 29 12.5s21 -4.16699 29 -12.5s12 -18.166 12 -29.499v-378c0 -33.333 5 -63.333 15 -90s24 -49.334 42 -68.001s39.167 -33 63.5 -43s51.166 -15 80.499 -15c28.667 0 55.334 5 80.001 15s46 24.333 64 43s32 41.334 42 68.001
s15 56.667 15 90v378c0 11.333 4 21.166 12 29.499s17.667 12.5 29 12.5s21 -4.16699 29 -12.5s12 -18.166 12 -29.499v-379zM496.996 814c4 -3.33301 7.50098 -7.33301 10.501 -12s4.5 -10 4.5 -16c0 -9.33301 -3.33301 -17.333 -10 -24s-14.667 -10 -24 -10
c-8 0 -15.667 2.66699 -23 8l-81 61l-81 -61c-7.33301 -5.33301 -14.666 -8 -21.999 -8c-10 0 -18.167 3.33301 -24.5 10s-9.5 14.667 -9.5 24c0 6 1.33301 11.333 4 16s6 8.66699 10 12l93 70c5.33301 3.33301 10.333 6.16602 15 8.49902s9.66699 3.5 15 3.5
s10.166 -1.16699 14.499 -3.5s9.16602 -5.16602 14.499 -8.49902z" />
    <glyph glyph-name="Udieresis" unicode="&#xdc;" horiz-adv-x="748" 
d="M657 284c0 -44 -7.1709 -84 -21.5039 -120s-34.166 -66.833 -59.499 -92.5s-55.166 -45.667 -89.499 -60s-71.833 -21.5 -112.5 -21.5s-78.167 7.16699 -112.5 21.5s-64.166 34.333 -89.499 60s-45.166 56.5 -59.499 92.5s-21.5 76 -21.5 120v379
c0 11.333 4 21.166 12 29.499s17.667 12.5 29 12.5s21 -4.16699 29 -12.5s12 -18.166 12 -29.499v-378c0 -33.333 5 -63.333 15 -90s24 -49.334 42 -68.001s39.167 -33 63.5 -43s51.166 -15 80.499 -15c28.667 0 55.334 5 80.001 15s46 24.333 64 43s32 41.334 42 68.001
s15 56.667 15 90v378c0 11.333 4 21.166 12 29.499s17.667 12.5 29 12.5s21 -4.16699 29 -12.5s12 -18.166 12 -29.499v-379zM294.996 851c12.667 0 23.334 -4.16699 32.001 -12.5s13 -19.166 13 -32.499c0 -12.667 -4.33301 -23.334 -13 -32.001s-19.334 -13 -32.001 -13
c-13.333 0 -24.166 4.33301 -32.499 13s-12.5 19.334 -12.5 32.001c0 13.333 4.16699 24.166 12.5 32.499s19.166 12.5 32.499 12.5zM452.996 851c13.333 0 24.166 -4.16699 32.499 -12.5s12.5 -19.166 12.5 -32.499c0 -12.667 -4.16699 -23.334 -12.5 -32.001
s-19.166 -13 -32.499 -13c-12.667 0 -23.334 4.33301 -32.001 13s-13 19.334 -13 32.001c0 13.333 4.33301 24.166 13 32.499s19.334 12.5 32.001 12.5z" />
    <glyph glyph-name="Yacute" unicode="&#xdd;" horiz-adv-x="647" 
d="M589 705c11.333 0 21.167 -4 29.5 -12s12.5 -17.667 12.5 -29c0 -10.667 -3.33301 -19.667 -10 -27l-230 -282c-8 -10 -14.5 -18.5 -19.5 -25.5s-7.5 -17.5 -7.5 -31.5v-260c0 -11.333 -3.83301 -21.166 -11.5 -29.499s-17.5 -12.5 -29.5 -12.5
c-11.333 0 -21 4.16699 -29 12.5s-12 18.166 -12 29.499v260c0 14 -2.5 24.667 -7.5 32s-11.5 16 -19.5 26l-229 280c-3.33301 4 -5.83301 8.5 -7.5 13.5s-2.5 9.83301 -2.5 14.5c0 10.667 4.16699 20 12.5 28s18.166 12 29.499 12c13.333 0 24 -5 32 -15l233 -292l234 292
c8.66699 10.667 19.334 16 32.001 16zM374.001 888c6.66699 2.66699 12.332 4 16.999 4c9.33301 0 17.333 -3.33301 24 -10s10 -14.667 10 -24c0 -13.333 -6.33301 -23.333 -19 -30l-135 -70c-5.33301 -3.33301 -11.333 -5 -18 -5c-9.33301 0 -17.166 3.33301 -23.499 10
s-9.5 14.667 -9.5 24c0 14 6 24.333 18 31z" />
    <glyph glyph-name="Thorn" unicode="&#xde;" horiz-adv-x="644" 
d="M182 131l-0.00195312 -92.999c0 -11.333 -3.83301 -21.166 -11.5 -29.499s-17.5 -12.5 -29.5 -12.5c-11.333 0 -21 4.16699 -29 12.5s-12 18.166 -12 29.499v629c0 11.333 4 21.166 12 29.499s17.667 12.5 29 12.5s21 -4.16699 29 -12.5s12 -18.166 12 -29.499v-97h188
c30.667 0 59.834 -4.83301 87.501 -14.5s51.834 -23.834 72.501 -42.501s37 -41.667 49 -69s18 -58.333 18 -93c0 -35.333 -5.83301 -66.5 -17.5 -93.5s-28 -50 -49 -69s-45.833 -33.333 -74.5 -43s-60 -14.5 -94 -14.5h-180zM360.998 210.001
c54.667 0 93.667 13.168 117 39.501s35 60.166 35 101.499c0 42 -12 76 -36 102s-61 39 -111 39h-184v-282h179z" />
    <glyph glyph-name="germandbls" unicode="&#xdf;" horiz-adv-x="663" 
d="M495 563c0 -23.333 -4.33203 -42.666 -12.999 -57.999s-18.167 -29.166 -28.5 -41.499l-28.5 -35.5c-8.66699 -11.333 -13 -24.333 -13 -39c0 -17.333 6.16699 -30.833 18.5 -40.5s33.166 -19.834 62.499 -30.501c47.333 -17.333 81.5 -38.833 102.5 -64.5
s31.5 -57.167 31.5 -94.5c0 -24 -4.83301 -46.333 -14.5 -67s-23.167 -38.5 -40.5 -53.5s-38.166 -26.667 -62.499 -35s-51.166 -12.5 -80.499 -12.5c-28 0 -54.833 4.5 -80.5 13.5s-50.834 23.167 -75.501 42.5c-8.66699 7.33301 -13.667 16.5 -15 27.5
s0.666992 20.5 6 28.5c6 8.66699 14.333 13.834 25 15.501s21.334 -1.16602 32.001 -8.49902l23 -17c7.33301 -5.33301 15.166 -10 23.499 -14s17.666 -7.16699 27.999 -9.5s22.5 -3.5 36.5 -3.5c34 0 61.5 8 82.5 24s31.5 40.333 31.5 73c0 24 -7.5 42.333 -22.5 55
s-38.833 24.667 -71.5 36c-43.333 14.667 -74.5 31.667 -93.5 51s-28.5 46.333 -28.5 81c0 21.333 4.5 39.166 13.5 53.499s18.667 27.333 29 39s20 23.167 29 34.5s13.5 25 13.5 41c0 24 -8.83301 43.333 -26.5 58s-44.167 22 -79.5 22
c-43.333 0 -76.833 -10.833 -100.5 -32.5s-35.5 -55.834 -35.5 -102.501v-461c0 -12 -3.83301 -22 -11.5 -30s-17.5 -12 -29.5 -12c-11.333 0 -20.833 4 -28.5 12s-11.5 18 -11.5 30v466c0 65.333 18.667 115.666 56 150.999s91 53 161 53c27.333 0 52.5 -3.5 75.5 -10.5
s42.667 -16.833 59 -29.5s29 -28 38 -46s13.5 -37.667 13.5 -59z" />
    <glyph glyph-name="agrave" unicode="&#xe0;" horiz-adv-x="562" 
d="M481 80c0 -7.33301 -1.16406 -13.6699 -3.49707 -19.0029s-6.83301 -10 -13.5 -14c-6.66699 -5.33301 -16.5 -11.166 -29.5 -17.499s-28.333 -12.333 -46 -18s-37.5 -10.5 -59.5 -14.5s-45 -6 -69 -6c-66 0 -115.833 15.833 -149.5 47.5s-50.5 72.5 -50.5 122.5
c0 22 4.16699 42.833 12.5 62.5s20.833 36.834 37.5 51.501s37.5 26.334 62.5 35.001s54.5 13 88.5 13c24 0 46.833 -1.66699 68.5 -5s45.5 -8.66602 71.5 -15.999v41c0 40.667 -10.167 70 -30.5 88s-51.833 27 -94.5 27c-23.333 0 -45.333 -3 -66 -9
s-38.334 -11.667 -53.001 -17c-17.333 -6.66699 -31.333 -6.33398 -42 0.999023s-16 17.333 -16 30c0 7.33301 2 14.333 6 21s10.667 12.334 20 17.001c15.333 7.33301 37.166 14.5 65.499 21.5s59.5 10.5 93.5 10.5c30 0 57 -3.66699 81 -11s44.667 -18.5 62 -33.5
s30.666 -34.333 39.999 -58s14 -51.834 14 -84.501v-266zM269.003 63.9961c20 0 37.8311 1.5 53.498 4.5s28.834 6.5 39.501 10.5s19.334 8.16699 26.001 12.5s11 7.5 13 9.5v131c-25.333 6.66699 -48.5 12 -69.5 16s-44.167 6 -69.5 6c-34 0 -62.667 -7.83301 -86 -23.5
s-35 -38.167 -35 -67.5c0 -32 10.5 -56.5 31.5 -73.5s53.167 -25.5 96.5 -25.5zM363.001 653.996c12.667 -6.66699 19.001 -17 19.001 -31c0 -9.33301 -3.33301 -17.333 -10 -24s-14.667 -10 -24 -10c-5.33301 0 -12 2 -20 6l-133 69c-12 6.66699 -18 16.667 -18 30
c0 9.33301 3.16699 17.333 9.5 24s14.166 10 23.499 10c5.33301 0 11.333 -1.33301 18 -4z" />
    <glyph glyph-name="aacute" unicode="&#xe1;" horiz-adv-x="562" 
d="M481 80c0 -7.33301 -1.16406 -13.6699 -3.49707 -19.0029s-6.83301 -10 -13.5 -14c-6.66699 -5.33301 -16.5 -11.166 -29.5 -17.499s-28.333 -12.333 -46 -18s-37.5 -10.5 -59.5 -14.5s-45 -6 -69 -6c-66 0 -115.833 15.833 -149.5 47.5s-50.5 72.5 -50.5 122.5
c0 22 4.16699 42.833 12.5 62.5s20.833 36.834 37.5 51.501s37.5 26.334 62.5 35.001s54.5 13 88.5 13c24 0 46.833 -1.66699 68.5 -5s45.5 -8.66602 71.5 -15.999v41c0 40.667 -10.167 70 -30.5 88s-51.833 27 -94.5 27c-23.333 0 -45.333 -3 -66 -9
s-38.334 -11.667 -53.001 -17c-17.333 -6.66699 -31.333 -6.33398 -42 0.999023s-16 17.333 -16 30c0 7.33301 2 14.333 6 21s10.667 12.334 20 17.001c15.333 7.33301 37.166 14.5 65.499 21.5s59.5 10.5 93.5 10.5c30 0 57 -3.66699 81 -11s44.667 -18.5 62 -33.5
s30.666 -34.333 39.999 -58s14 -51.834 14 -84.501v-266zM269.003 63.9961c20 0 37.8311 1.5 53.498 4.5s28.834 6.5 39.501 10.5s19.334 8.16699 26.001 12.5s11 7.5 13 9.5v131c-25.333 6.66699 -48.5 12 -69.5 16s-44.167 6 -69.5 6c-34 0 -62.667 -7.83301 -86 -23.5
s-35 -38.167 -35 -67.5c0 -32 10.5 -56.5 31.5 -73.5s53.167 -25.5 96.5 -25.5zM339.001 723.996c6.66699 2.66699 12.332 4 16.999 4c9.33301 0 17.333 -3.33301 24 -10s10 -14.667 10 -24c0 -13.333 -6.33301 -23.333 -19 -30l-135 -70
c-5.33301 -3.33301 -11.333 -5 -18 -5c-9.33301 0 -17.166 3.33301 -23.499 10s-9.5 14.667 -9.5 24c0 14 6 24.333 18 31z" />
    <glyph glyph-name="acircumflex" unicode="&#xe2;" horiz-adv-x="562" 
d="M481 80c0 -7.33301 -1.16406 -13.6699 -3.49707 -19.0029s-6.83301 -10 -13.5 -14c-6.66699 -5.33301 -16.5 -11.166 -29.5 -17.499s-28.333 -12.333 -46 -18s-37.5 -10.5 -59.5 -14.5s-45 -6 -69 -6c-66 0 -115.833 15.833 -149.5 47.5s-50.5 72.5 -50.5 122.5
c0 22 4.16699 42.833 12.5 62.5s20.833 36.834 37.5 51.501s37.5 26.334 62.5 35.001s54.5 13 88.5 13c24 0 46.833 -1.66699 68.5 -5s45.5 -8.66602 71.5 -15.999v41c0 40.667 -10.167 70 -30.5 88s-51.833 27 -94.5 27c-23.333 0 -45.333 -3 -66 -9
s-38.334 -11.667 -53.001 -17c-17.333 -6.66699 -31.333 -6.33398 -42 0.999023s-16 17.333 -16 30c0 7.33301 2 14.333 6 21s10.667 12.334 20 17.001c15.333 7.33301 37.166 14.5 65.499 21.5s59.5 10.5 93.5 10.5c30 0 57 -3.66699 81 -11s44.667 -18.5 62 -33.5
s30.666 -34.333 39.999 -58s14 -51.834 14 -84.501v-266zM269.003 63.9961c20 0 37.8311 1.5 53.498 4.5s28.834 6.5 39.501 10.5s19.334 8.16699 26.001 12.5s11 7.5 13 9.5v131c-25.333 6.66699 -48.5 12 -69.5 16s-44.167 6 -69.5 6c-34 0 -62.667 -7.83301 -86 -23.5
s-35 -38.167 -35 -67.5c0 -32 10.5 -56.5 31.5 -73.5s53.167 -25.5 96.5 -25.5zM407.001 637.996c4 -3.33301 7.50098 -7.33301 10.501 -12s4.5 -10 4.5 -16c0 -9.33301 -3.33301 -17.333 -10 -24s-14.667 -10 -24 -10c-8 0 -15.667 2.66699 -23 8l-81 61l-81 -61
c-7.33301 -5.33301 -14.666 -8 -21.999 -8c-10 0 -18.167 3.33301 -24.5 10s-9.5 14.667 -9.5 24c0 6 1.33301 11.333 4 16s6 8.66699 10 12l93 70c5.33301 3.33301 10.333 6.16602 15 8.49902s9.66699 3.5 15 3.5s10.166 -1.16699 14.499 -3.5
s9.16602 -5.16602 14.499 -8.49902z" />
    <glyph glyph-name="atilde" unicode="&#xe3;" horiz-adv-x="562" 
d="M481 80c0 -7.33301 -1.16406 -13.6699 -3.49707 -19.0029s-6.83301 -10 -13.5 -14c-6.66699 -5.33301 -16.5 -11.166 -29.5 -17.499s-28.333 -12.333 -46 -18s-37.5 -10.5 -59.5 -14.5s-45 -6 -69 -6c-66 0 -115.833 15.833 -149.5 47.5s-50.5 72.5 -50.5 122.5
c0 22 4.16699 42.833 12.5 62.5s20.833 36.834 37.5 51.501s37.5 26.334 62.5 35.001s54.5 13 88.5 13c24 0 46.833 -1.66699 68.5 -5s45.5 -8.66602 71.5 -15.999v41c0 40.667 -10.167 70 -30.5 88s-51.833 27 -94.5 27c-23.333 0 -45.333 -3 -66 -9
s-38.334 -11.667 -53.001 -17c-17.333 -6.66699 -31.333 -6.33398 -42 0.999023s-16 17.333 -16 30c0 7.33301 2 14.333 6 21s10.667 12.334 20 17.001c15.333 7.33301 37.166 14.5 65.499 21.5s59.5 10.5 93.5 10.5c30 0 57 -3.66699 81 -11s44.667 -18.5 62 -33.5
s30.666 -34.333 39.999 -58s14 -51.834 14 -84.501v-266zM269.003 63.9961c20 0 37.8311 1.5 53.498 4.5s28.834 6.5 39.501 10.5s19.334 8.16699 26.001 12.5s11 7.5 13 9.5v131c-25.333 6.66699 -48.5 12 -69.5 16s-44.167 6 -69.5 6c-34 0 -62.667 -7.83301 -86 -23.5
s-35 -38.167 -35 -67.5c0 -32 10.5 -56.5 31.5 -73.5s53.167 -25.5 96.5 -25.5zM337.001 660.996c6.66699 0 12.334 1.33398 17.001 4.00098s9.16699 5.83398 13.5 9.50098s8.66602 6.83398 12.999 9.50098s9.5 4 15.5 4c10 0 18 -3.33301 24 -10s9 -14.667 9 -24
c0 -6 -1.33301 -11.167 -4 -15.5s-6 -8.16602 -10 -11.499c-11.333 -10 -23.5 -18.167 -36.5 -24.5s-25.5 -9.5 -37.5 -9.5s-23 1.83301 -33 5.5s-19.667 7.83398 -29 12.501l-26 12.5c-8 3.66699 -16 5.5 -24 5.5c-6.66699 0 -12.334 -1.33301 -17.001 -4
s-9.16699 -5.83398 -13.5 -9.50098s-8.66602 -6.83398 -12.999 -9.50098s-9.5 -4 -15.5 -4c-10 0 -18 3.33301 -24 10s-9 14.667 -9 24c0 6 1.5 11.167 4.5 15.5s6.16699 8.16602 9.5 11.499c11.333 10 23.5 18.167 36.5 24.5s25.833 9.5 38.5 9.5
c12 0 23.167 -1.83301 33.5 -5.5s19.833 -7.83398 28.5 -12.501s17 -8.83398 25 -12.501s16 -5.5 24 -5.5z" />
    <glyph glyph-name="adieresis" unicode="&#xe4;" horiz-adv-x="562" 
d="M481 80c0 -7.33301 -1.16406 -13.6699 -3.49707 -19.0029s-6.83301 -10 -13.5 -14c-6.66699 -5.33301 -16.5 -11.166 -29.5 -17.499s-28.333 -12.333 -46 -18s-37.5 -10.5 -59.5 -14.5s-45 -6 -69 -6c-66 0 -115.833 15.833 -149.5 47.5s-50.5 72.5 -50.5 122.5
c0 22 4.16699 42.833 12.5 62.5s20.833 36.834 37.5 51.501s37.5 26.334 62.5 35.001s54.5 13 88.5 13c24 0 46.833 -1.66699 68.5 -5s45.5 -8.66602 71.5 -15.999v41c0 40.667 -10.167 70 -30.5 88s-51.833 27 -94.5 27c-23.333 0 -45.333 -3 -66 -9
s-38.334 -11.667 -53.001 -17c-17.333 -6.66699 -31.333 -6.33398 -42 0.999023s-16 17.333 -16 30c0 7.33301 2 14.333 6 21s10.667 12.334 20 17.001c15.333 7.33301 37.166 14.5 65.499 21.5s59.5 10.5 93.5 10.5c30 0 57 -3.66699 81 -11s44.667 -18.5 62 -33.5
s30.666 -34.333 39.999 -58s14 -51.834 14 -84.501v-266zM269.003 63.9961c20 0 37.8311 1.5 53.498 4.5s28.834 6.5 39.501 10.5s19.334 8.16699 26.001 12.5s11 7.5 13 9.5v131c-25.333 6.66699 -48.5 12 -69.5 16s-44.167 6 -69.5 6c-34 0 -62.667 -7.83301 -86 -23.5
s-35 -38.167 -35 -67.5c0 -32 10.5 -56.5 31.5 -73.5s53.167 -25.5 96.5 -25.5zM205.001 689.996c12.667 0 23.334 -4.16699 32.001 -12.5s13 -19.166 13 -32.499c0 -12.667 -4.33301 -23.334 -13 -32.001s-19.334 -13 -32.001 -13c-13.333 0 -24.166 4.33301 -32.499 13
s-12.5 19.334 -12.5 32.001c0 13.333 4.16699 24.166 12.5 32.499s19.166 12.5 32.499 12.5zM363.001 689.996c13.333 0 24.166 -4.16699 32.499 -12.5s12.5 -19.166 12.5 -32.499c0 -12.667 -4.16699 -23.334 -12.5 -32.001s-19.166 -13 -32.499 -13
c-12.667 0 -23.334 4.33301 -32.001 13s-13 19.334 -13 32.001c0 13.333 4.33301 24.166 13 32.499s19.334 12.5 32.001 12.5z" />
    <glyph glyph-name="aring" unicode="&#xe5;" horiz-adv-x="562" 
d="M481 80c0 -7.33301 -1.16406 -13.6699 -3.49707 -19.0029s-6.83301 -10 -13.5 -14c-6.66699 -5.33301 -16.5 -11.166 -29.5 -17.499s-28.333 -12.333 -46 -18s-37.5 -10.5 -59.5 -14.5s-45 -6 -69 -6c-66 0 -115.833 15.833 -149.5 47.5s-50.5 72.5 -50.5 122.5
c0 22 4.16699 42.833 12.5 62.5s20.833 36.834 37.5 51.501s37.5 26.334 62.5 35.001s54.5 13 88.5 13c24 0 46.833 -1.66699 68.5 -5s45.5 -8.66602 71.5 -15.999v41c0 40.667 -10.167 70 -30.5 88s-51.833 27 -94.5 27c-23.333 0 -45.333 -3 -66 -9
s-38.334 -11.667 -53.001 -17c-17.333 -6.66699 -31.333 -6.33398 -42 0.999023s-16 17.333 -16 30c0 7.33301 2 14.333 6 21s10.667 12.334 20 17.001c15.333 7.33301 37.166 14.5 65.499 21.5s59.5 10.5 93.5 10.5c30 0 57 -3.66699 81 -11s44.667 -18.5 62 -33.5
s30.666 -34.333 39.999 -58s14 -51.834 14 -84.501v-266zM269.003 63.9961c20 0 37.8311 1.5 53.498 4.5s28.834 6.5 39.501 10.5s19.334 8.16699 26.001 12.5s11 7.5 13 9.5v131c-25.333 6.66699 -48.5 12 -69.5 16s-44.167 6 -69.5 6c-34 0 -62.667 -7.83301 -86 -23.5
s-35 -38.167 -35 -67.5c0 -32 10.5 -56.5 31.5 -73.5s53.167 -25.5 96.5 -25.5zM188.001 663.996c0 12.667 2.5 24.834 7.5 36.501s12 22 21 31s19.167 16 30.5 21s23.666 7.5 36.999 7.5s25.833 -2.5 37.5 -7.5s21.834 -12 30.501 -21s15.5 -19.333 20.5 -31
s7.5 -23.834 7.5 -36.501c0 -26.667 -9.33301 -49.334 -28 -68.001s-41.334 -28 -68.001 -28c-13.333 0 -25.666 2.5 -36.999 7.5s-21.5 11.833 -30.5 20.5s-16 18.834 -21 30.501s-7.5 24.167 -7.5 37.5zM240.001 663.996c0 -12.667 4.33301 -23.334 13 -32.001
s19 -13 31 -13c12.667 0 23.167 4.33301 31.5 13s12.5 19.334 12.5 32.001c0 12 -4.16699 22.333 -12.5 31s-18.833 13 -31.5 13c-12 0 -22.333 -4.33301 -31 -13s-13 -19 -13 -31z" />
    <glyph glyph-name="ae" unicode="&#xe6;" horiz-adv-x="901" 
d="M838 286c0 -17.333 -4.6709 -31.3369 -14.0039 -42.0039s-24.333 -16 -45 -16h-299v-16c0 -47.333 13.5 -83.666 40.5 -108.999s62.833 -38 107.5 -38c17.333 0 36.666 2.33301 57.999 7s43 11 65 19c8.66699 3.33301 16.667 4.66602 24 3.99902s13.5 -2.66699 18.5 -6
s8.83301 -7.66602 11.5 -12.999s4 -11 4 -17c0 -6.66699 -1.5 -13 -4.5 -19s-8.83301 -11.667 -17.5 -17c-8 -4.66699 -18 -9 -30 -13s-25.167 -7.33301 -39.5 -10s-29.166 -4.83398 -44.499 -6.50098s-30.333 -2.5 -45 -2.5c-36 0 -67.5 5.5 -94.5 16.5
s-50.167 26.167 -69.5 45.5c-8 -6 -18.833 -12.667 -32.5 -20s-29.334 -14 -47.001 -20s-37.167 -11.167 -58.5 -15.5s-43.333 -6.5 -66 -6.5c-66 0 -115.833 15.833 -149.5 47.5s-50.5 72.834 -50.5 123.501c0 22 4.16699 42.667 12.5 62s20.833 36.333 37.5 51
s37.5 26.334 62.5 35.001s54.5 13 88.5 13c24 0 46.667 -1.66699 68 -5s45 -8.66602 71 -15.999v41c0 40.667 -10 70 -30 88s-51.333 27 -94 27c-21.333 0 -42.666 -3 -63.999 -9s-39.666 -11.667 -54.999 -17c-17.333 -6.66699 -31.333 -6.33398 -42 0.999023
s-16 17.333 -16 30c0 7.33301 2 14.333 6 21s10.667 12.334 20 17.001c16.667 8 39.834 15.333 69.501 22s59.5 10 89.5 10c38.667 0 72.167 -6.5 100.5 -19.5s50.5 -32.167 66.5 -57.5c19.333 24.667 43.833 43.667 73.5 57s62.5 20 98.5 20
c32.667 0 62.334 -5.33301 89.001 -16s49.334 -25.667 68.001 -45s33 -42.166 43 -68.499s15 -55.5 15 -87.5v-30zM268.996 63.9961c31.333 0 59.667 5.50098 85 16.501s47.666 23.167 66.999 36.5c-7.33301 16.667 -12.833 34.667 -16.5 54s-5.16699 39.666 -4.5 60.999
c-26 6.66699 -49.167 12 -69.5 16s-43.166 6 -68.499 6c-34 0 -62.667 -7.83301 -86 -23.5s-35 -38.167 -35 -67.5c0 -32 10.5 -56.5 31.5 -73.5s53.167 -25.5 96.5 -25.5zM745.997 295.997c7.33301 0 11.666 4 12.999 12c1.33301 22.667 -1 43.334 -7 62.001
s-15 34.667 -27 48s-26.667 23.666 -44 30.999s-36.666 11 -57.999 11c-48.667 0 -85 -14.833 -109 -44.5s-35.333 -69.5 -34 -119.5h266z" />
    <glyph glyph-name="ccedilla" unicode="&#xe7;" horiz-adv-x="557" 
d="M259 -6c-27.333 4 -52.1719 11.8389 -74.5049 23.5059s-41.5 26.167 -57.5 43.5s-28.667 37.333 -38 60s-14.666 46.667 -15.999 72c-0.666992 10 -1.16699 21.167 -1.5 33.5s-0.5 24.833 -0.5 37.5s0.166992 25.167 0.5 37.5s0.833008 23.5 1.5 33.5
c2 29.333 8.83301 56.166 20.5 80.499s27.334 45.166 47.001 62.499s42.834 30.833 69.501 40.5s55.667 14.5 87 14.5c34.667 0 64.834 -5.5 90.501 -16.5s46.834 -24.333 63.501 -40s29.167 -31.834 37.5 -48.501s12.5 -30.667 12.5 -42c0 -12 -3.66699 -21.833 -11 -29.5
s-16.333 -11.5 -27 -11.5c-8 0 -15.333 2 -22 6s-12.334 11 -17.001 21c-11.333 29.333 -28.666 50.833 -51.999 64.5s-48 20.5 -74 20.5c-42 0 -75.667 -11.5 -101 -34.5s-39.666 -53.833 -42.999 -92.5c-0.666992 -6.66699 -1.16699 -15.667 -1.5 -27
s-0.5 -23.333 -0.5 -36s0.166992 -25.167 0.5 -37.5s0.833008 -22.833 1.5 -31.5c3.33301 -37.333 17.166 -68.5 41.499 -93.5s58.5 -37.5 102.5 -37.5c26 0 50.833 6.83301 74.5 20.5s41.5 35.167 53.5 64.5c4.66699 10 10.167 17 16.5 21s13.833 6 22.5 6
c10.667 0 19.667 -3.83301 27 -11.5s11 -17.5 11 -29.5c0 -10.667 -3.66699 -23.834 -11 -39.501s-18.5 -30.834 -33.5 -45.501s-33.833 -27.834 -56.5 -39.501s-49.334 -18.834 -80.001 -21.501l-14 -37c26.667 -2 48 -11.167 64 -27.5s24 -36.833 24 -61.5
c0 -16.667 -3.5 -31.5 -10.5 -44.5s-16.333 -24.5 -28 -34.5s-24.834 -18.667 -39.501 -26s-29.667 -13.666 -45 -18.999c-10 -3.33301 -20.333 -2.83301 -31 1.5s-16 13.833 -16 28.5c0 5.33301 1.5 11 4.5 17s9.83301 10.667 20.5 14c32 12.667 52.667 23.5 62 32.5
s14 18.5 14 28.5c0 6 -2.5 12.5 -7.5 19.5s-12.833 10.5 -23.5 10.5c-7.33301 0 -12.666 -0.666992 -15.999 -2s-8.33301 -2 -15 -2c-10.667 0 -19.167 4.33301 -25.5 13s-7.16602 18.667 -2.49902 30z" />
    <glyph glyph-name="egrave" unicode="&#xe8;" horiz-adv-x="572" 
d="M510 286c0 -17.333 -4.67188 -31.334 -14.0049 -42.001s-24.333 -16 -45 -16h-299v-16c0 -47.333 13.833 -83.666 41.5 -108.999s63.5 -38 107.5 -38c18 0 37.167 2.33301 57.5 7s41.833 11 64.5 19c8.66699 3.33301 16.667 4.66602 24 3.99902s13.5 -2.66699 18.5 -6
s8.83301 -7.66602 11.5 -12.999s4 -11 4 -17c0 -6.66699 -1.5 -13 -4.5 -19s-8.83301 -11.667 -17.5 -17c-8 -4.66699 -18.167 -9 -30.5 -13s-25.666 -7.33301 -39.999 -10s-29.166 -4.83398 -44.499 -6.50098s-30 -2.5 -44 -2.5c-34.667 0 -65.667 5.16699 -93 15.5
s-50.666 25 -69.999 44s-34.333 41.667 -45 68s-17 55.5 -19 87.5c-1.33301 19.333 -1.83301 40.333 -1.5 63s1.16602 41.667 2.49902 57c2.66699 32 10 60.833 22 86.5s27.667 47.5 47 65.5s41.833 31.667 67.5 41s53.834 14 84.501 14
c32.667 0 62.334 -5.33301 89.001 -16s49.334 -25.667 68.001 -45s33 -42.166 43 -68.499s15 -55.5 15 -87.5v-30zM417.995 295.999c7.33301 0 11.667 4 13 12c1.33301 22.667 -0.833984 43.334 -6.50098 62.001s-14.5 34.667 -26.5 48s-26.667 23.666 -44 30.999
s-36.666 11 -57.999 11c-49.333 0 -86 -14.833 -110 -44.5s-35.333 -69.5 -34 -119.5h266zM361.996 653.999c12.667 -6.66699 19.001 -17 19.001 -31c0 -9.33301 -3.33301 -17.333 -10 -24s-14.667 -10 -24 -10c-5.33301 0 -12 2 -20 6l-133 69
c-12 6.66699 -18 16.667 -18 30c0 9.33301 3.16699 17.333 9.5 24s14.166 10 23.499 10c5.33301 0 11.333 -1.33301 18 -4z" />
    <glyph glyph-name="eacute" unicode="&#xe9;" horiz-adv-x="572" 
d="M510 286c0 -17.333 -4.67188 -31.334 -14.0049 -42.001s-24.333 -16 -45 -16h-299v-16c0 -47.333 13.833 -83.666 41.5 -108.999s63.5 -38 107.5 -38c18 0 37.167 2.33301 57.5 7s41.833 11 64.5 19c8.66699 3.33301 16.667 4.66602 24 3.99902s13.5 -2.66699 18.5 -6
s8.83301 -7.66602 11.5 -12.999s4 -11 4 -17c0 -6.66699 -1.5 -13 -4.5 -19s-8.83301 -11.667 -17.5 -17c-8 -4.66699 -18.167 -9 -30.5 -13s-25.666 -7.33301 -39.999 -10s-29.166 -4.83398 -44.499 -6.50098s-30 -2.5 -44 -2.5c-34.667 0 -65.667 5.16699 -93 15.5
s-50.666 25 -69.999 44s-34.333 41.667 -45 68s-17 55.5 -19 87.5c-1.33301 19.333 -1.83301 40.333 -1.5 63s1.16602 41.667 2.49902 57c2.66699 32 10 60.833 22 86.5s27.667 47.5 47 65.5s41.833 31.667 67.5 41s53.834 14 84.501 14
c32.667 0 62.334 -5.33301 89.001 -16s49.334 -25.667 68.001 -45s33 -42.166 43 -68.499s15 -55.5 15 -87.5v-30zM417.995 295.999c7.33301 0 11.667 4 13 12c1.33301 22.667 -0.833984 43.334 -6.50098 62.001s-14.5 34.667 -26.5 48s-26.667 23.666 -44 30.999
s-36.666 11 -57.999 11c-49.333 0 -86 -14.833 -110 -44.5s-35.333 -69.5 -34 -119.5h266zM359.996 723.999c6.66699 2.66699 12.332 4 16.999 4c9.33301 0 17.333 -3.33301 24 -10s10 -14.667 10 -24c0 -13.333 -6.33301 -23.333 -19 -30l-135 -70
c-5.33301 -3.33301 -11.333 -5 -18 -5c-9.33301 0 -17.166 3.33301 -23.499 10s-9.5 14.667 -9.5 24c0 14 6 24.333 18 31z" />
    <glyph glyph-name="ecircumflex" unicode="&#xea;" horiz-adv-x="572" 
d="M510 286c0 -17.333 -4.67188 -31.334 -14.0049 -42.001s-24.333 -16 -45 -16h-299v-16c0 -47.333 13.833 -83.666 41.5 -108.999s63.5 -38 107.5 -38c18 0 37.167 2.33301 57.5 7s41.833 11 64.5 19c8.66699 3.33301 16.667 4.66602 24 3.99902s13.5 -2.66699 18.5 -6
s8.83301 -7.66602 11.5 -12.999s4 -11 4 -17c0 -6.66699 -1.5 -13 -4.5 -19s-8.83301 -11.667 -17.5 -17c-8 -4.66699 -18.167 -9 -30.5 -13s-25.666 -7.33301 -39.999 -10s-29.166 -4.83398 -44.499 -6.50098s-30 -2.5 -44 -2.5c-34.667 0 -65.667 5.16699 -93 15.5
s-50.666 25 -69.999 44s-34.333 41.667 -45 68s-17 55.5 -19 87.5c-1.33301 19.333 -1.83301 40.333 -1.5 63s1.16602 41.667 2.49902 57c2.66699 32 10 60.833 22 86.5s27.667 47.5 47 65.5s41.833 31.667 67.5 41s53.834 14 84.501 14
c32.667 0 62.334 -5.33301 89.001 -16s49.334 -25.667 68.001 -45s33 -42.166 43 -68.499s15 -55.5 15 -87.5v-30zM417.995 295.999c7.33301 0 11.667 4 13 12c1.33301 22.667 -0.833984 43.334 -6.50098 62.001s-14.5 34.667 -26.5 48s-26.667 23.666 -44 30.999
s-36.666 11 -57.999 11c-49.333 0 -86 -14.833 -110 -44.5s-35.333 -69.5 -34 -119.5h266zM410.996 650.999c4 -3.33301 7.50098 -7.33301 10.501 -12s4.5 -10 4.5 -16c0 -9.33301 -3.33301 -17.333 -10 -24s-14.667 -10 -24 -10c-8 0 -15.667 2.66699 -23 8l-81 61l-81 -61
c-7.33301 -5.33301 -14.666 -8 -21.999 -8c-10 0 -18.167 3.33301 -24.5 10s-9.5 14.667 -9.5 24c0 6 1.33301 11.333 4 16s6 8.66699 10 12l93 70c5.33301 3.33301 10.333 6.16602 15 8.49902s9.66699 3.5 15 3.5s10.166 -1.16699 14.499 -3.5
s9.16602 -5.16602 14.499 -8.49902z" />
    <glyph glyph-name="edieresis" unicode="&#xeb;" horiz-adv-x="572" 
d="M510 286c0 -17.333 -4.67188 -31.334 -14.0049 -42.001s-24.333 -16 -45 -16h-299v-16c0 -47.333 13.833 -83.666 41.5 -108.999s63.5 -38 107.5 -38c18 0 37.167 2.33301 57.5 7s41.833 11 64.5 19c8.66699 3.33301 16.667 4.66602 24 3.99902s13.5 -2.66699 18.5 -6
s8.83301 -7.66602 11.5 -12.999s4 -11 4 -17c0 -6.66699 -1.5 -13 -4.5 -19s-8.83301 -11.667 -17.5 -17c-8 -4.66699 -18.167 -9 -30.5 -13s-25.666 -7.33301 -39.999 -10s-29.166 -4.83398 -44.499 -6.50098s-30 -2.5 -44 -2.5c-34.667 0 -65.667 5.16699 -93 15.5
s-50.666 25 -69.999 44s-34.333 41.667 -45 68s-17 55.5 -19 87.5c-1.33301 19.333 -1.83301 40.333 -1.5 63s1.16602 41.667 2.49902 57c2.66699 32 10 60.833 22 86.5s27.667 47.5 47 65.5s41.833 31.667 67.5 41s53.834 14 84.501 14
c32.667 0 62.334 -5.33301 89.001 -16s49.334 -25.667 68.001 -45s33 -42.166 43 -68.499s15 -55.5 15 -87.5v-30zM417.995 295.999c7.33301 0 11.667 4 13 12c1.33301 22.667 -0.833984 43.334 -6.50098 62.001s-14.5 34.667 -26.5 48s-26.667 23.666 -44 30.999
s-36.666 11 -57.999 11c-49.333 0 -86 -14.833 -110 -44.5s-35.333 -69.5 -34 -119.5h266zM213.996 689.999c12.667 0 23.334 -4.16699 32.001 -12.5s13 -19.166 13 -32.499c0 -12.667 -4.33301 -23.334 -13 -32.001s-19.334 -13 -32.001 -13
c-13.333 0 -24.166 4.33301 -32.499 13s-12.5 19.334 -12.5 32.001c0 13.333 4.16699 24.166 12.5 32.499s19.166 12.5 32.499 12.5zM371.996 689.999c13.333 0 24.166 -4.16699 32.499 -12.5s12.5 -19.166 12.5 -32.499c0 -12.667 -4.16699 -23.334 -12.5 -32.001
s-19.166 -13 -32.499 -13c-12.667 0 -23.334 4.33301 -32.001 13s-13 19.334 -13 32.001c0 13.333 4.33301 24.166 13 32.499s19.334 12.5 32.001 12.5z" />
    <glyph glyph-name="igrave" unicode="&#xec;" horiz-adv-x="273" 
d="M194 654c12.667 -6.66699 19.001 -17 19.001 -31c0 -9.33301 -3.33301 -17.333 -10 -24s-14.667 -10 -24 -10c-5.33301 0 -12 2 -20 6l-133 69c-12 6.66699 -18 16.667 -18 30c0 9.33301 3.16699 17.333 9.5 24s14.166 10 23.499 10c5.33301 0 11.333 -1.33301 18 -4z
M136.001 526c11.333 0 21 -4.16699 29 -12.5s12 -18.166 12 -29.499v-447c0 -11.333 -3.83301 -21 -11.5 -29s-17.5 -12 -29.5 -12c-11.333 0 -20.833 4 -28.5 12s-11.5 17.667 -11.5 29v447c0 11.333 3.83301 21.166 11.5 29.499s17.167 12.5 28.5 12.5z" />
    <glyph glyph-name="iacute" unicode="&#xed;" horiz-adv-x="273" 
d="M219 724c6.66699 2.66699 12.332 4 16.999 4c9.33301 0 17.333 -3.33301 24 -10s10 -14.667 10 -24c0 -13.333 -6.33301 -23.333 -19 -30l-135 -70c-5.33301 -3.33301 -11.333 -5 -18 -5c-9.33301 0 -17.166 3.33301 -23.499 10s-9.5 14.667 -9.5 24c0 14 6 24.333 18 31
zM135.998 526c11.333 0 21 -4.16699 29 -12.5s12 -18.166 12 -29.499v-447c0 -11.333 -3.83301 -21 -11.5 -29s-17.5 -12 -29.5 -12c-11.333 0 -20.833 4 -28.5 12s-11.5 17.667 -11.5 29v447c0 11.333 3.83301 21.166 11.5 29.499s17.167 12.5 28.5 12.5z" />
    <glyph glyph-name="icircumflex" unicode="&#xee;" horiz-adv-x="273" 
d="M136 526c11.333 0 21 -4.16699 29 -12.5s12 -18.166 12 -29.499v-447c0 -11.333 -3.83301 -21 -11.5 -29s-17.5 -12 -29.5 -12c-11.333 0 -20.833 4 -28.5 12s-11.5 17.667 -11.5 29v447c0 11.333 3.83301 21.166 11.5 29.499s17.167 12.5 28.5 12.5zM265 651
c4 -3.33301 7.50098 -7.33301 10.501 -12s4.5 -10 4.5 -16c0 -9.33301 -3.33301 -17.333 -10 -24s-14.667 -10 -24 -10c-8 0 -15.667 2.66699 -23 8l-81 61l-81 -61c-7.33301 -5.33301 -14.666 -8 -21.999 -8c-10 0 -18.167 3.33301 -24.5 10s-9.5 14.667 -9.5 24
c0 6 1.33301 11.333 4 16s6 8.66699 10 12l93 70c5.33301 3.33301 10.333 6.16602 15 8.49902s9.66699 3.5 15 3.5s10.166 -1.16699 14.499 -3.5s9.16602 -5.16602 14.499 -8.49902z" />
    <glyph glyph-name="idieresis" unicode="&#xef;" horiz-adv-x="273" 
d="M63 690c12.667 0 23.334 -4.16699 32.001 -12.5s13 -19.166 13 -32.499c0 -12.667 -4.33301 -23.334 -13 -32.001s-19.334 -13 -32.001 -13c-13.333 0 -24.166 4.33301 -32.499 13s-12.5 19.334 -12.5 32.001c0 13.333 4.16699 24.166 12.5 32.499
s19.166 12.5 32.499 12.5zM221 690c13.333 0 24.166 -4.16699 32.499 -12.5s12.5 -19.166 12.5 -32.499c0 -12.667 -4.16699 -23.334 -12.5 -32.001s-19.166 -13 -32.499 -13c-12.667 0 -23.334 4.33301 -32.001 13s-13 19.334 -13 32.001
c0 13.333 4.33301 24.166 13 32.499s19.334 12.5 32.001 12.5zM136 526c11.333 0 21 -4.16699 29 -12.5s12 -18.166 12 -29.499v-447c0 -11.333 -3.83301 -21 -11.5 -29s-17.5 -12 -29.5 -12c-11.333 0 -20.833 4 -28.5 12s-11.5 17.667 -11.5 29v447
c0 11.333 3.83301 21.166 11.5 29.499s17.167 12.5 28.5 12.5z" />
    <glyph glyph-name="eth" unicode="&#xf0;" horiz-adv-x="596" 
d="M323 633l-22.9961 12.998c-12.667 6.66699 -19.834 15.667 -21.501 27s0.166016 21.333 5.49902 30c5.33301 8 13 13.333 23 16s19.667 1.33398 29 -3.99902c13.333 -7.33301 25.666 -14.666 36.999 -21.999s21.666 -15.333 30.999 -24l57 26
c8.66699 4 17.834 4.5 27.501 1.5s16.5 -9.5 20.5 -19.5c4 -9.33301 4.16699 -18.5 0.5 -27.5s-9.83398 -15.5 -18.501 -19.5l-35 -16c19.333 -28 33 -59 41 -93s12 -72.333 12 -115l-1 -203c0 -32 -5.66699 -61 -17 -87s-26.833 -48.167 -46.5 -66.5
s-42.667 -32.666 -69 -42.999s-54.833 -15.5 -85.5 -15.5c-30 0 -57.833 5 -83.5 15s-48 23.667 -67 41s-34.333 38.166 -46 62.499s-18.5 50.5 -20.5 78.5c-2 39.333 -2 79 0 119c2 28.667 8.66699 54.834 20 78.501s26.5 44 45.5 61s41.333 30.167 67 39.5
s53.5 14 83.5 14c28.667 0 54.667 -4.66699 78 -14s44 -22.666 62 -39.999c0 26 -3 50.167 -9 72.5s-17.667 43.5 -35 63.5l-71 -32c-9.33301 -4.66699 -19 -5.33398 -29 -2.00098s-16.667 9.33301 -20 18c-4 9.33301 -4.16699 18.666 -0.5 27.999s10.167 16.333 19.5 21z
M290.004 421.998c-40 0 -71.666 -11.333 -94.999 -34s-36.333 -51.667 -39 -87c-1.33301 -17.333 -2 -35.5 -2 -54.5s0.666992 -36.833 2 -53.5c3.33301 -36.667 17 -66.5 41 -89.5s55 -34.5 93 -34.5c38.667 0 70 11.5 94 34.5s37.667 52.833 41 89.5
c1.33301 16.667 2 34.5 2 53.5s-0.666992 37.167 -2 54.5c-2.66699 35.333 -15.834 64.333 -39.501 87s-55.5 34 -95.5 34z" />
    <glyph glyph-name="ntilde" unicode="&#xf1;" 
d="M525 38c0 -12 -3.66992 -22 -11.0029 -30s-17 -12 -29 -12c-11.333 0 -21 4 -29 12s-12 18 -12 30v287c0 22.667 -3.66699 42.334 -11 59.001s-17 30.334 -29 41.001s-26.167 18.5 -42.5 23.5s-33.5 7.5 -51.5 7.5c-28 0 -54.667 -3.5 -80 -10.5
s-44.666 -14.5 -57.999 -22.5v-385c0 -12 -3.83301 -22 -11.5 -30s-17.167 -12 -28.5 -12s-21 4 -29 12s-12 18 -12 30v405c0 9.33301 1.5 16.5 4.5 21.5s7.5 9.83301 13.5 14.5c6.66699 5.33301 16.334 11.166 29.001 17.499s27.5 12.166 44.5 17.499
s36.333 9.83301 58 13.5s45.5 5.5 71.5 5.5c70.667 0 123.834 -17.5 159.501 -52.5s53.5 -85.5 53.5 -151.5v-291zM355.997 661c6.66699 0 12.334 1.33398 17.001 4.00098s9.16699 5.83398 13.5 9.50098s8.66602 6.83398 12.999 9.50098s9.5 4 15.5 4
c10 0 18 -3.33301 24 -10s9 -14.667 9 -24c0 -6 -1.33301 -11.167 -4 -15.5s-6 -8.16602 -10 -11.499c-11.333 -10 -23.5 -18.167 -36.5 -24.5s-25.5 -9.5 -37.5 -9.5s-23 1.83301 -33 5.5s-19.667 7.83398 -29 12.501l-26 12.5c-8 3.66699 -16 5.5 -24 5.5
c-6.66699 0 -12.334 -1.33301 -17.001 -4s-9.16699 -5.83398 -13.5 -9.50098s-8.66602 -6.83398 -12.999 -9.50098s-9.5 -4 -15.5 -4c-10 0 -18 3.33301 -24 10s-9 14.667 -9 24c0 6 1.5 11.167 4.5 15.5s6.16699 8.16602 9.5 11.499c11.333 10 23.5 18.167 36.5 24.5
s25.833 9.5 38.5 9.5c12 0 23.167 -1.83301 33.5 -5.5s19.833 -7.83398 28.5 -12.501s17 -8.83398 25 -12.501s16 -5.5 24 -5.5z" />
    <glyph glyph-name="ograve" unicode="&#xf2;" horiz-adv-x="592" 
d="M296 533c30.667 0 59.334 -4.83301 86.001 -14.5s49.834 -23.167 69.501 -40.5s35.334 -38.166 47.001 -62.499s18.5 -51.166 20.5 -80.499c1.33301 -20.667 2 -44.5 2 -71.5s-0.666992 -50.5 -2 -70.5c-2 -29.333 -8.83301 -56.333 -20.5 -81s-27.334 -46 -47.001 -64
s-42.834 -32 -69.501 -42s-55.334 -15 -86.001 -15s-59.167 5 -85.5 15s-49.5 24 -69.5 42s-35.833 39.333 -47.5 64s-18.5 51.667 -20.5 81c-0.666992 10 -1.16699 21.167 -1.5 33.5s-0.5 24.833 -0.5 37.5s0.166992 25.167 0.5 37.5s0.833008 23.5 1.5 33.5
c2 29.333 8.83301 56.166 20.5 80.499s27.5 45.166 47.5 62.499s43.167 30.833 69.5 40.5s54.833 14.5 85.5 14.5zM296 457c-42 0 -75.498 -12 -100.498 -36s-38.833 -54.667 -41.5 -92c-0.666992 -8.66699 -1.16699 -18.834 -1.5 -30.501s-0.5 -23.5 -0.5 -35.5
s0.166992 -23.667 0.5 -35s0.833008 -21.333 1.5 -30c3.33301 -39.333 17.666 -71 42.999 -95s58.333 -36 99 -36s73.667 12 99 36s39.666 55.667 42.999 95c0.666992 8.66699 1 18.667 1 30v35v35.5c0 11.667 -0.333008 21.834 -1 30.501
c-2.66699 37.333 -16.5 68 -41.5 92s-58.5 36 -100.5 36zM375.002 654c12.667 -6.66699 19.001 -17 19.001 -31c0 -9.33301 -3.33301 -17.333 -10 -24s-14.667 -10 -24 -10c-5.33301 0 -12 2 -20 6l-133 69c-12 6.66699 -18 16.667 -18 30c0 9.33301 3.16699 17.333 9.5 24
s14.166 10 23.499 10c5.33301 0 11.333 -1.33301 18 -4z" />
    <glyph glyph-name="oacute" unicode="&#xf3;" horiz-adv-x="592" 
d="M296 533c30.667 0 59.334 -4.83301 86.001 -14.5s49.834 -23.167 69.501 -40.5s35.334 -38.166 47.001 -62.499s18.5 -51.166 20.5 -80.499c1.33301 -20.667 2 -44.5 2 -71.5s-0.666992 -50.5 -2 -70.5c-2 -29.333 -8.83301 -56.333 -20.5 -81s-27.334 -46 -47.001 -64
s-42.834 -32 -69.501 -42s-55.334 -15 -86.001 -15s-59.167 5 -85.5 15s-49.5 24 -69.5 42s-35.833 39.333 -47.5 64s-18.5 51.667 -20.5 81c-0.666992 10 -1.16699 21.167 -1.5 33.5s-0.5 24.833 -0.5 37.5s0.166992 25.167 0.5 37.5s0.833008 23.5 1.5 33.5
c2 29.333 8.83301 56.166 20.5 80.499s27.5 45.166 47.5 62.499s43.167 30.833 69.5 40.5s54.833 14.5 85.5 14.5zM296 457c-42 0 -75.498 -12 -100.498 -36s-38.833 -54.667 -41.5 -92c-0.666992 -8.66699 -1.16699 -18.834 -1.5 -30.501s-0.5 -23.5 -0.5 -35.5
s0.166992 -23.667 0.5 -35s0.833008 -21.333 1.5 -30c3.33301 -39.333 17.666 -71 42.999 -95s58.333 -36 99 -36s73.667 12 99 36s39.666 55.667 42.999 95c0.666992 8.66699 1 18.667 1 30v35v35.5c0 11.667 -0.333008 21.834 -1 30.501
c-2.66699 37.333 -16.5 68 -41.5 92s-58.5 36 -100.5 36zM350.002 724c6.66699 2.66699 12.332 4 16.999 4c9.33301 0 17.333 -3.33301 24 -10s10 -14.667 10 -24c0 -13.333 -6.33301 -23.333 -19 -30l-135 -70c-5.33301 -3.33301 -11.333 -5 -18 -5
c-9.33301 0 -17.166 3.33301 -23.499 10s-9.5 14.667 -9.5 24c0 14 6 24.333 18 31z" />
    <glyph glyph-name="ocircumflex" unicode="&#xf4;" horiz-adv-x="592" 
d="M296 533c30.667 0 59.334 -4.83301 86.001 -14.5s49.834 -23.167 69.501 -40.5s35.334 -38.166 47.001 -62.499s18.5 -51.166 20.5 -80.499c1.33301 -20.667 2 -44.5 2 -71.5s-0.666992 -50.5 -2 -70.5c-2 -29.333 -8.83301 -56.333 -20.5 -81s-27.334 -46 -47.001 -64
s-42.834 -32 -69.501 -42s-55.334 -15 -86.001 -15s-59.167 5 -85.5 15s-49.5 24 -69.5 42s-35.833 39.333 -47.5 64s-18.5 51.667 -20.5 81c-0.666992 10 -1.16699 21.167 -1.5 33.5s-0.5 24.833 -0.5 37.5s0.166992 25.167 0.5 37.5s0.833008 23.5 1.5 33.5
c2 29.333 8.83301 56.166 20.5 80.499s27.5 45.166 47.5 62.499s43.167 30.833 69.5 40.5s54.833 14.5 85.5 14.5zM296 457c-42 0 -75.498 -12 -100.498 -36s-38.833 -54.667 -41.5 -92c-0.666992 -8.66699 -1.16699 -18.834 -1.5 -30.501s-0.5 -23.5 -0.5 -35.5
s0.166992 -23.667 0.5 -35s0.833008 -21.333 1.5 -30c3.33301 -39.333 17.666 -71 42.999 -95s58.333 -36 99 -36s73.667 12 99 36s39.666 55.667 42.999 95c0.666992 8.66699 1 18.667 1 30v35v35.5c0 11.667 -0.333008 21.834 -1 30.501
c-2.66699 37.333 -16.5 68 -41.5 92s-58.5 36 -100.5 36zM419.002 650c4 -3.33301 7.50098 -7.33301 10.501 -12s4.5 -10 4.5 -16c0 -9.33301 -3.33301 -17.333 -10 -24s-14.667 -10 -24 -10c-8 0 -15.667 2.66699 -23 8l-81 61l-81 -61
c-7.33301 -5.33301 -14.666 -8 -21.999 -8c-10 0 -18.167 3.33301 -24.5 10s-9.5 14.667 -9.5 24c0 6 1.33301 11.333 4 16s6 8.66699 10 12l93 70c5.33301 3.33301 10.333 6.16602 15 8.49902s9.66699 3.5 15 3.5s10.166 -1.16699 14.499 -3.5
s9.16602 -5.16602 14.499 -8.49902z" />
    <glyph glyph-name="otilde" unicode="&#xf5;" horiz-adv-x="592" 
d="M296 533c30.667 0 59.334 -4.83301 86.001 -14.5s49.834 -23.167 69.501 -40.5s35.334 -38.166 47.001 -62.499s18.5 -51.166 20.5 -80.499c1.33301 -20.667 2 -44.5 2 -71.5s-0.666992 -50.5 -2 -70.5c-2 -29.333 -8.83301 -56.333 -20.5 -81s-27.334 -46 -47.001 -64
s-42.834 -32 -69.501 -42s-55.334 -15 -86.001 -15s-59.167 5 -85.5 15s-49.5 24 -69.5 42s-35.833 39.333 -47.5 64s-18.5 51.667 -20.5 81c-0.666992 10 -1.16699 21.167 -1.5 33.5s-0.5 24.833 -0.5 37.5s0.166992 25.167 0.5 37.5s0.833008 23.5 1.5 33.5
c2 29.333 8.83301 56.166 20.5 80.499s27.5 45.166 47.5 62.499s43.167 30.833 69.5 40.5s54.833 14.5 85.5 14.5zM296 457c-42 0 -75.498 -12 -100.498 -36s-38.833 -54.667 -41.5 -92c-0.666992 -8.66699 -1.16699 -18.834 -1.5 -30.501s-0.5 -23.5 -0.5 -35.5
s0.166992 -23.667 0.5 -35s0.833008 -21.333 1.5 -30c3.33301 -39.333 17.666 -71 42.999 -95s58.333 -36 99 -36s73.667 12 99 36s39.666 55.667 42.999 95c0.666992 8.66699 1 18.667 1 30v35v35.5c0 11.667 -0.333008 21.834 -1 30.501
c-2.66699 37.333 -16.5 68 -41.5 92s-58.5 36 -100.5 36zM349.002 661c6.66699 0 12.334 1.33398 17.001 4.00098s9.16699 5.83398 13.5 9.50098s8.66602 6.83398 12.999 9.50098s9.5 4 15.5 4c10 0 18 -3.33301 24 -10s9 -14.667 9 -24c0 -6 -1.33301 -11.167 -4 -15.5
s-6 -8.16602 -10 -11.499c-11.333 -10 -23.5 -18.167 -36.5 -24.5s-25.5 -9.5 -37.5 -9.5s-23 1.83301 -33 5.5s-19.667 7.83398 -29 12.501l-26 12.5c-8 3.66699 -16 5.5 -24 5.5c-6.66699 0 -12.334 -1.33301 -17.001 -4s-9.16699 -5.83398 -13.5 -9.50098
s-8.66602 -6.83398 -12.999 -9.50098s-9.5 -4 -15.5 -4c-10 0 -18 3.33301 -24 10s-9 14.667 -9 24c0 6 1.5 11.167 4.5 15.5s6.16699 8.16602 9.5 11.499c11.333 10 23.5 18.167 36.5 24.5s25.833 9.5 38.5 9.5c12 0 23.167 -1.83301 33.5 -5.5
s19.833 -7.83398 28.5 -12.501s17 -8.83398 25 -12.501s16 -5.5 24 -5.5z" />
    <glyph glyph-name="odieresis" unicode="&#xf6;" horiz-adv-x="592" 
d="M296 533c30.667 0 59.334 -4.83301 86.001 -14.5s49.834 -23.167 69.501 -40.5s35.334 -38.166 47.001 -62.499s18.5 -51.166 20.5 -80.499c1.33301 -20.667 2 -44.5 2 -71.5s-0.666992 -50.5 -2 -70.5c-2 -29.333 -8.83301 -56.333 -20.5 -81s-27.334 -46 -47.001 -64
s-42.834 -32 -69.501 -42s-55.334 -15 -86.001 -15s-59.167 5 -85.5 15s-49.5 24 -69.5 42s-35.833 39.333 -47.5 64s-18.5 51.667 -20.5 81c-0.666992 10 -1.16699 21.167 -1.5 33.5s-0.5 24.833 -0.5 37.5s0.166992 25.167 0.5 37.5s0.833008 23.5 1.5 33.5
c2 29.333 8.83301 56.166 20.5 80.499s27.5 45.166 47.5 62.499s43.167 30.833 69.5 40.5s54.833 14.5 85.5 14.5zM296 457c-42 0 -75.498 -12 -100.498 -36s-38.833 -54.667 -41.5 -92c-0.666992 -8.66699 -1.16699 -18.834 -1.5 -30.501s-0.5 -23.5 -0.5 -35.5
s0.166992 -23.667 0.5 -35s0.833008 -21.333 1.5 -30c3.33301 -39.333 17.666 -71 42.999 -95s58.333 -36 99 -36s73.667 12 99 36s39.666 55.667 42.999 95c0.666992 8.66699 1 18.667 1 30v35v35.5c0 11.667 -0.333008 21.834 -1 30.501
c-2.66699 37.333 -16.5 68 -41.5 92s-58.5 36 -100.5 36zM217.002 690c12.667 0 23.334 -4.16699 32.001 -12.5s13 -19.166 13 -32.499c0 -12.667 -4.33301 -23.334 -13 -32.001s-19.334 -13 -32.001 -13c-13.333 0 -24.166 4.33301 -32.499 13s-12.5 19.334 -12.5 32.001
c0 13.333 4.16699 24.166 12.5 32.499s19.166 12.5 32.499 12.5zM375.002 690c13.333 0 24.166 -4.16699 32.499 -12.5s12.5 -19.166 12.5 -32.499c0 -12.667 -4.16699 -23.334 -12.5 -32.001s-19.166 -13 -32.499 -13c-12.667 0 -23.334 4.33301 -32.001 13
s-13 19.334 -13 32.001c0 13.333 4.33301 24.166 13 32.499s19.334 12.5 32.001 12.5z" />
    <glyph glyph-name="divide" unicode="&#xf7;" horiz-adv-x="628" 
d="M101 311c-11.333 0 -21 3.66699 -29 11s-12 16.666 -12 27.999s4 20.833 12 28.5s17.667 11.5 29 11.5h426c11.333 0 21 -3.83301 29 -11.5s12 -17.167 12 -28.5s-4 -20.666 -12 -27.999s-17.667 -11 -29 -11h-426zM261 537c0 14 5.16699 26.167 15.5 36.5
s22.833 15.5 37.5 15.5c14 0 26.333 -5.16699 37 -15.5s16 -22.5 16 -36.5c0 -14.667 -5.33301 -27.167 -16 -37.5s-23 -15.5 -37 -15.5c-14.667 0 -27.167 5.16699 -37.5 15.5s-15.5 22.833 -15.5 37.5zM261 164c0 14.667 5.16699 27.167 15.5 37.5s22.833 15.5 37.5 15.5
c14 0 26.333 -5.16699 37 -15.5s16 -22.833 16 -37.5c0 -14 -5.33301 -26.167 -16 -36.5s-23 -15.5 -37 -15.5c-14.667 0 -27.167 5.16699 -37.5 15.5s-15.5 22.5 -15.5 36.5z" />
    <glyph glyph-name="oslash" unicode="&#xf8;" horiz-adv-x="593" 
d="M296 533c28 0 54.1709 -3.99902 78.5039 -11.999s46.166 -19.333 65.499 -34l23 26c7.33301 8.66699 16.166 13.334 26.499 14.001s19.166 -2.33301 26.499 -9c8 -6.66699 12.333 -15.334 13 -26.001s-2.33301 -20 -9 -28l-30 -34c8 -14 14.5 -29 19.5 -45
s8.16699 -32.667 9.5 -50c1.33301 -20.667 2 -44.5 2 -71.5s-0.666992 -50.5 -2 -70.5c-2 -29.333 -8.83301 -56.333 -20.5 -81s-27.334 -46 -47.001 -64s-42.834 -32 -69.501 -42s-55.334 -15 -86.001 -15c-28 0 -54.167 4 -78.5 12s-46.166 19.667 -65.499 35l-23 -27
c-6.66699 -8 -15.334 -12.5 -26.001 -13.5s-20 2.16699 -28 9.5c-7.33301 6.66699 -11.166 15.334 -11.499 26.001s2.83398 19.667 9.50098 27l30 34c-18 28.667 -28 61.667 -30 99c-0.666992 10 -1.16699 21.167 -1.5 33.5s-0.5 24.833 -0.5 37.5s0.166992 25.167 0.5 37.5
s0.833008 23.5 1.5 33.5c2 29.333 8.83301 56.166 20.5 80.499s27.5 45.166 47.5 62.499s43.167 30.833 69.5 40.5s54.833 14.5 85.5 14.5zM296.004 457.001c-42 0 -75.499 -11.999 -100.499 -35.999s-38.833 -54.667 -41.5 -92
c-0.666992 -8.66699 -1.16699 -18.834 -1.5 -30.501s-0.5 -23.5 -0.5 -35.5s0.166992 -23.667 0.5 -35s0.833008 -21.333 1.5 -30c1.33301 -14 3.66602 -26 6.99902 -36l228 265c-25.333 20 -56.333 30 -93 30zM438.005 329.002
c-1.33301 10.667 -3.33203 21.666 -5.99902 32.999l-229 -265c25.333 -20 56.333 -30 93 -30c40.667 0 73.667 12 99 36s39.666 55.667 42.999 95c0.666992 8.66699 1 18.667 1 30v35v35.5c0 11.667 -0.333008 21.834 -1 30.501z" />
    <glyph glyph-name="ugrave" unicode="&#xf9;" 
d="M84 484c0 11.333 3.83105 21.166 11.498 29.499s17.167 12.5 28.5 12.5s21 -4.16699 29 -12.5s12 -18.166 12 -29.499v-290c0 -39.333 11.833 -70.166 35.5 -92.499s56.5 -33.5 98.5 -33.5c32 0 59.333 3.83301 82 11.5s41.334 16.167 56.001 25.5v379
c0 11.333 3.83301 21.166 11.5 29.499s17.167 12.5 28.5 12.5s21 -4.16699 29 -12.5s12 -18.166 12 -29.499v-400c0 -14.667 -5.66699 -25.667 -17 -33c-7.33301 -5.33301 -17.166 -11.5 -29.499 -18.5s-27 -13.5 -44 -19.5s-36.167 -11.167 -57.5 -15.5s-45 -6.5 -71 -6.5
c-32 0 -61.167 4.5 -87.5 13.5s-49 22.167 -68 39.5s-33.667 38.666 -44 63.999s-15.5 54.333 -15.5 87v289zM384.998 654c12.667 -6.66699 19.001 -17 19.001 -31c0 -9.33301 -3.33301 -17.333 -10 -24s-14.667 -10 -24 -10c-5.33301 0 -12 2 -20 6l-133 69
c-12 6.66699 -18 16.667 -18 30c0 9.33301 3.16699 17.333 9.5 24s14.166 10 23.499 10c5.33301 0 11.333 -1.33301 18 -4z" />
    <glyph glyph-name="uacute" unicode="&#xfa;" 
d="M84 484c0 11.333 3.83105 21.166 11.498 29.499s17.167 12.5 28.5 12.5s21 -4.16699 29 -12.5s12 -18.166 12 -29.499v-290c0 -39.333 11.833 -70.166 35.5 -92.499s56.5 -33.5 98.5 -33.5c32 0 59.333 3.83301 82 11.5s41.334 16.167 56.001 25.5v379
c0 11.333 3.83301 21.166 11.5 29.499s17.167 12.5 28.5 12.5s21 -4.16699 29 -12.5s12 -18.166 12 -29.499v-400c0 -14.667 -5.66699 -25.667 -17 -33c-7.33301 -5.33301 -17.166 -11.5 -29.499 -18.5s-27 -13.5 -44 -19.5s-36.167 -11.167 -57.5 -15.5s-45 -6.5 -71 -6.5
c-32 0 -61.167 4.5 -87.5 13.5s-49 22.167 -68 39.5s-33.667 38.666 -44 63.999s-15.5 54.333 -15.5 87v289zM361.998 724c6.66699 2.66699 12.332 4 16.999 4c9.33301 0 17.333 -3.33301 24 -10s10 -14.667 10 -24c0 -13.333 -6.33301 -23.333 -19 -30l-135 -70
c-5.33301 -3.33301 -11.333 -5 -18 -5c-9.33301 0 -17.166 3.33301 -23.499 10s-9.5 14.667 -9.5 24c0 14 6 24.333 18 31z" />
    <glyph glyph-name="ucircumflex" unicode="&#xfb;" 
d="M84 484c0 11.333 3.83105 21.166 11.498 29.499s17.167 12.5 28.5 12.5s21 -4.16699 29 -12.5s12 -18.166 12 -29.499v-290c0 -39.333 11.833 -70.166 35.5 -92.499s56.5 -33.5 98.5 -33.5c32 0 59.333 3.83301 82 11.5s41.334 16.167 56.001 25.5v379
c0 11.333 3.83301 21.166 11.5 29.499s17.167 12.5 28.5 12.5s21 -4.16699 29 -12.5s12 -18.166 12 -29.499v-400c0 -14.667 -5.66699 -25.667 -17 -33c-7.33301 -5.33301 -17.166 -11.5 -29.499 -18.5s-27 -13.5 -44 -19.5s-36.167 -11.167 -57.5 -15.5s-45 -6.5 -71 -6.5
c-32 0 -61.167 4.5 -87.5 13.5s-49 22.167 -68 39.5s-33.667 38.666 -44 63.999s-15.5 54.333 -15.5 87v289zM427.998 651c4 -3.33301 7.50098 -7.33301 10.501 -12s4.5 -10 4.5 -16c0 -9.33301 -3.33301 -17.333 -10 -24s-14.667 -10 -24 -10c-8 0 -15.667 2.66699 -23 8
l-81 61l-81 -61c-7.33301 -5.33301 -14.666 -8 -21.999 -8c-10 0 -18.167 3.33301 -24.5 10s-9.5 14.667 -9.5 24c0 6 1.33301 11.333 4 16s6 8.66699 10 12l93 70c5.33301 3.33301 10.333 6.16602 15 8.49902s9.66699 3.5 15 3.5s10.166 -1.16699 14.499 -3.5
s9.16602 -5.16602 14.499 -8.49902z" />
    <glyph glyph-name="udieresis" unicode="&#xfc;" 
d="M84 484c0 11.333 3.83105 21.166 11.498 29.499s17.167 12.5 28.5 12.5s21 -4.16699 29 -12.5s12 -18.166 12 -29.499v-290c0 -39.333 11.833 -70.166 35.5 -92.499s56.5 -33.5 98.5 -33.5c32 0 59.333 3.83301 82 11.5s41.334 16.167 56.001 25.5v379
c0 11.333 3.83301 21.166 11.5 29.499s17.167 12.5 28.5 12.5s21 -4.16699 29 -12.5s12 -18.166 12 -29.499v-400c0 -14.667 -5.66699 -25.667 -17 -33c-7.33301 -5.33301 -17.166 -11.5 -29.499 -18.5s-27 -13.5 -44 -19.5s-36.167 -11.167 -57.5 -15.5s-45 -6.5 -71 -6.5
c-32 0 -61.167 4.5 -87.5 13.5s-49 22.167 -68 39.5s-33.667 38.666 -44 63.999s-15.5 54.333 -15.5 87v289zM226.998 690c12.667 0 23.334 -4.16699 32.001 -12.5s13 -19.166 13 -32.499c0 -12.667 -4.33301 -23.334 -13 -32.001s-19.334 -13 -32.001 -13
c-13.333 0 -24.166 4.33301 -32.499 13s-12.5 19.334 -12.5 32.001c0 13.333 4.16699 24.166 12.5 32.499s19.166 12.5 32.499 12.5zM384.998 690c13.333 0 24.166 -4.16699 32.499 -12.5s12.5 -19.166 12.5 -32.499c0 -12.667 -4.16699 -23.334 -12.5 -32.001
s-19.166 -13 -32.499 -13c-12.667 0 -23.334 4.33301 -32.001 13s-13 19.334 -13 32.001c0 13.333 4.33301 24.166 13 32.499s19.334 12.5 32.001 12.5z" />
    <glyph glyph-name="yacute" unicode="&#xfd;" horiz-adv-x="512" 
d="M27 467c-6 15.333 -4.99902 28.832 3.00098 40.499s19.667 17.5 35 17.5c10 0 17.833 -2.66699 23.5 -8s10.5 -12.333 14.5 -21l155 -357c2.66699 -5.33301 5.33398 -5.33301 8.00098 0l141 354c3.33301 9.33301 8.33301 17 15 23s15 9 25 9
c15.333 0 27 -6.16699 35 -18.5s9 -25.5 3 -39.5l-188 -456c-19.333 -46 -41.833 -85.833 -67.5 -119.5s-49.5 -57.167 -71.5 -70.5c-13.333 -8 -25.333 -12 -36 -12s-20 3.5 -28 10.5s-12 16.167 -12 27.5c0 6.66699 1.66699 13.334 5 20.001s8 11.667 14 15
c21.333 12 42.666 30.167 63.999 54.5s38.666 56.5 51.999 96.5zM358.001 724.999c6.66699 2.66699 12.332 4 16.999 4c9.33301 0 17.333 -3.33301 24 -10s10 -14.667 10 -24c0 -13.333 -6.33301 -23.333 -19 -30l-135 -70c-5.33301 -3.33301 -11.333 -5 -18 -5
c-9.33301 0 -17.166 3.33301 -23.499 10s-9.5 14.667 -9.5 24c0 14 6 24.333 18 31z" />
    <glyph glyph-name="thorn" unicode="&#xfe;" horiz-adv-x="601" 
d="M527 190c-5.33301 -62.667 -26.5 -111.502 -63.5 -146.502s-88.833 -52.5 -155.5 -52.5c-25.333 0 -49.833 3.33301 -73.5 10s-44.167 14 -61.5 22v-175c0 -11.333 -3.83301 -21.166 -11.5 -29.499s-17.5 -12.5 -29.5 -12.5c-11.333 0 -20.833 4.16699 -28.5 12.5
s-11.5 18.166 -11.5 29.499v821c0 11.333 3.83301 21 11.5 29s17.167 12 28.5 12s21 -4 29 -12s12 -17.667 12 -29v-167c17.333 7.33301 38.333 14.333 63 21s50.667 10 78 10c64.667 0 115 -17.5 151 -52.5s56.667 -83.833 62 -146.5
c0.666992 -9.33301 1.16699 -20.166 1.5 -32.499s0.5 -25.166 0.5 -38.499s-0.166992 -26.5 -0.5 -39.5s-0.833008 -24.167 -1.5 -33.5zM445 324.998c-7.33301 88 -52.666 131.999 -135.999 131.999c-12.667 0 -25.667 -1.33301 -39 -4s-26.333 -6 -39 -10
s-24 -8.5 -34 -13.5s-18 -9.5 -24 -13.5v-312c5.33301 -3.33301 12.666 -7.16602 21.999 -11.499s19.833 -8.33301 31.5 -12s24.167 -6.83398 37.5 -9.50098s27 -4 41 -4c46 0 80.167 10.833 102.5 32.5s34.833 53.167 37.5 94.5
c0.666992 7.33301 1.16699 16.666 1.5 27.999s0.5 23.333 0.5 36s-0.166992 24.834 -0.5 36.501s-0.833008 21.834 -1.5 30.501z" />
    <glyph glyph-name="ydieresis" unicode="&#xff;" horiz-adv-x="512" 
d="M27 467c-6 15.333 -4.99902 28.832 3.00098 40.499s19.667 17.5 35 17.5c10 0 17.833 -2.66699 23.5 -8s10.5 -12.333 14.5 -21l155 -357c2.66699 -5.33301 5.33398 -5.33301 8.00098 0l141 354c3.33301 9.33301 8.33301 17 15 23s15 9 25 9
c15.333 0 27 -6.16699 35 -18.5s9 -25.5 3 -39.5l-188 -456c-19.333 -46 -41.833 -85.833 -67.5 -119.5s-49.5 -57.167 -71.5 -70.5c-13.333 -8 -25.333 -12 -36 -12s-20 3.5 -28 10.5s-12 16.167 -12 27.5c0 6.66699 1.66699 13.334 5 20.001s8 11.667 14 15
c21.333 12 42.666 30.167 63.999 54.5s38.666 56.5 51.999 96.5zM183.001 689.999c12.667 0 23.334 -4.16699 32.001 -12.5s13 -19.166 13 -32.499c0 -12.667 -4.33301 -23.334 -13 -32.001s-19.334 -13 -32.001 -13c-13.333 0 -24.166 4.33301 -32.499 13
s-12.5 19.334 -12.5 32.001c0 13.333 4.16699 24.166 12.5 32.499s19.166 12.5 32.499 12.5zM341.001 689.999c13.333 0 24.166 -4.16699 32.499 -12.5s12.5 -19.166 12.5 -32.499c0 -12.667 -4.16699 -23.334 -12.5 -32.001s-19.166 -13 -32.499 -13
c-12.667 0 -23.334 4.33301 -32.001 13s-13 19.334 -13 32.001c0 13.333 4.33301 24.166 13 32.499s19.334 12.5 32.001 12.5z" />
    <glyph glyph-name="Amacron" unicode="&#x100;" horiz-adv-x="675" 
d="M650 41c0 -10.667 -3.33203 -20.333 -9.99902 -29s-16.667 -13 -30 -13c-8.66699 0 -16.5 2.33301 -23.5 7s-12.167 11 -15.5 19l-74 209h-319l-74 -209c-3.33301 -8 -8.5 -14.333 -15.5 -19s-14.833 -7 -23.5 -7c-13.333 0 -23.333 4.33301 -30 13
s-10 18.334 -10 29.001c0 6 0.666992 10.667 2 14l208 580c9.33301 26 23.166 45.167 41.499 57.5s38.833 18.5 61.5 18.5s43 -6.16699 61 -18.5s31.667 -31.5 41 -57.5l208 -580c1.33301 -2.66699 2 -7.33398 2 -14.001zM206.001 312.001h263.002l-105 299
c-4.66699 13.333 -13.334 20 -26.001 20s-21.334 -6.66699 -26.001 -20zM420.003 840.001c9.33301 0 17.333 -3.33301 24 -10s10 -14.667 10 -24c0 -10 -3.33301 -18.333 -10 -25s-14.667 -10 -24 -10h-164c-10 0 -18.333 3.33301 -25 10s-10 15 -10 25
c0 9.33301 3.33301 17.333 10 24s15 10 25 10h164z" />
    <glyph glyph-name="amacron" unicode="&#x101;" horiz-adv-x="562" 
d="M481 80c0 -7.33301 -1.16406 -13.6699 -3.49707 -19.0029s-6.83301 -10 -13.5 -14c-6.66699 -5.33301 -16.5 -11.166 -29.5 -17.499s-28.333 -12.333 -46 -18s-37.5 -10.5 -59.5 -14.5s-45 -6 -69 -6c-66 0 -115.833 15.833 -149.5 47.5s-50.5 72.5 -50.5 122.5
c0 22 4.16699 42.833 12.5 62.5s20.833 36.834 37.5 51.501s37.5 26.334 62.5 35.001s54.5 13 88.5 13c24 0 46.833 -1.66699 68.5 -5s45.5 -8.66602 71.5 -15.999v41c0 40.667 -10.167 70 -30.5 88s-51.833 27 -94.5 27c-23.333 0 -45.333 -3 -66 -9
s-38.334 -11.667 -53.001 -17c-17.333 -6.66699 -31.333 -6.33398 -42 0.999023s-16 17.333 -16 30c0 7.33301 2 14.333 6 21s10.667 12.334 20 17.001c15.333 7.33301 37.166 14.5 65.499 21.5s59.5 10.5 93.5 10.5c30 0 57 -3.66699 81 -11s44.667 -18.5 62 -33.5
s30.666 -34.333 39.999 -58s14 -51.834 14 -84.501v-266zM269.003 63.9961c20 0 37.8311 1.5 53.498 4.5s28.834 6.5 39.501 10.5s19.334 8.16699 26.001 12.5s11 7.5 13 9.5v131c-25.333 6.66699 -48.5 12 -69.5 16s-44.167 6 -69.5 6c-34 0 -62.667 -7.83301 -86 -23.5
s-35 -38.167 -35 -67.5c0 -32 10.5 -56.5 31.5 -73.5s53.167 -25.5 96.5 -25.5zM366.001 677.996c9.33301 0 17.333 -3.33301 24 -10s10 -14.667 10 -24c0 -10 -3.33301 -18.333 -10 -25s-14.667 -10 -24 -10h-164c-10 0 -18.333 3.33301 -25 10s-10 15 -10 25
c0 9.33301 3.33301 17.333 10 24s15 10 25 10h164z" />
    <glyph glyph-name="Abreve" unicode="&#x102;" horiz-adv-x="675" 
d="M650 41c0 -10.667 -3.33203 -20.333 -9.99902 -29s-16.667 -13 -30 -13c-8.66699 0 -16.5 2.33301 -23.5 7s-12.167 11 -15.5 19l-74 209h-319l-74 -209c-3.33301 -8 -8.5 -14.333 -15.5 -19s-14.833 -7 -23.5 -7c-13.333 0 -23.333 4.33301 -30 13
s-10 18.334 -10 29.001c0 6 0.666992 10.667 2 14l208 580c9.33301 26 23.166 45.167 41.499 57.5s38.833 18.5 61.5 18.5s43 -6.16699 61 -18.5s31.667 -31.5 41 -57.5l208 -580c1.33301 -2.66699 2 -7.33398 2 -14.001zM206.001 312.001h263.002l-105 299
c-4.66699 13.333 -13.334 20 -26.001 20s-21.334 -6.66699 -26.001 -20zM338.003 819.001c13.333 0 25.334 4.16699 36.001 12.5s17.667 19.166 21 32.499c2 7.33301 6.16699 13.166 12.5 17.499s13.166 6.5 20.499 6.5c9.33301 0 17.333 -3.33301 24 -10s10 -14.667 10 -24
c0 -4 -1 -9 -3 -15c-8 -24 -22.667 -44.333 -44 -61s-47 -25 -77 -25s-55.667 8.33301 -77 25s-36 37 -44 61c-2 6 -3 11 -3 15c0 9.33301 3.33301 17.333 10 24s14.667 10 24 10c7.33301 0 14 -2.16699 20 -6.5s10.333 -10.166 13 -17.499
c3.33301 -13.333 10.333 -24.166 21 -32.499s22.667 -12.5 36 -12.5z" />
    <glyph glyph-name="abreve" unicode="&#x103;" horiz-adv-x="562" 
d="M481 80c0 -7.33301 -1.16406 -13.6699 -3.49707 -19.0029s-6.83301 -10 -13.5 -14c-6.66699 -5.33301 -16.5 -11.166 -29.5 -17.499s-28.333 -12.333 -46 -18s-37.5 -10.5 -59.5 -14.5s-45 -6 -69 -6c-66 0 -115.833 15.833 -149.5 47.5s-50.5 72.5 -50.5 122.5
c0 22 4.16699 42.833 12.5 62.5s20.833 36.834 37.5 51.501s37.5 26.334 62.5 35.001s54.5 13 88.5 13c24 0 46.833 -1.66699 68.5 -5s45.5 -8.66602 71.5 -15.999v41c0 40.667 -10.167 70 -30.5 88s-51.833 27 -94.5 27c-23.333 0 -45.333 -3 -66 -9
s-38.334 -11.667 -53.001 -17c-17.333 -6.66699 -31.333 -6.33398 -42 0.999023s-16 17.333 -16 30c0 7.33301 2 14.333 6 21s10.667 12.334 20 17.001c15.333 7.33301 37.166 14.5 65.499 21.5s59.5 10.5 93.5 10.5c30 0 57 -3.66699 81 -11s44.667 -18.5 62 -33.5
s30.666 -34.333 39.999 -58s14 -51.834 14 -84.501v-266zM269.003 63.9961c20 0 37.8311 1.5 53.498 4.5s28.834 6.5 39.501 10.5s19.334 8.16699 26.001 12.5s11 7.5 13 9.5v131c-25.333 6.66699 -48.5 12 -69.5 16s-44.167 6 -69.5 6c-34 0 -62.667 -7.83301 -86 -23.5
s-35 -38.167 -35 -67.5c0 -32 10.5 -56.5 31.5 -73.5s53.167 -25.5 96.5 -25.5zM283.001 654.996c13.333 0 25.334 4.16699 36.001 12.5s17.667 19.166 21 32.499c2 7.33301 6.16699 13.166 12.5 17.499s13.166 6.5 20.499 6.5c9.33301 0 17.333 -3.33301 24 -10
s10 -14.667 10 -24c0 -4 -1 -9 -3 -15c-8 -24 -22.667 -44.333 -44 -61s-47 -25 -77 -25s-55.667 8.33301 -77 25s-36 37 -44 61c-2 6 -3 11 -3 15c0 9.33301 3.33301 17.333 10 24s14.667 10 24 10c7.33301 0 14 -2.16699 20 -6.5s10.333 -10.166 13 -17.499
c3.33301 -13.333 10.333 -24.166 21 -32.499s22.667 -12.5 36 -12.5z" />
    <glyph glyph-name="Aogonek" unicode="&#x104;" horiz-adv-x="701" 
d="M646 -122c7.33301 0 14.334 -2.83301 21.001 -8.5s10 -12.834 10 -21.501c0 -11.333 -4.66699 -20.666 -14 -27.999s-21 -13.5 -35 -18.5s-29.667 -7.5 -47 -7.5c-15.333 0 -29.666 2.66699 -42.999 8s-25 12.666 -35 21.999s-18 20.833 -24 34.5s-9 28.834 -9 45.501
c0 25.333 7.16699 48.833 21.5 70.5s39.5 42.5 75.5 62.5l-70 197h-319l-74 -209c-3.33301 -8 -8.5 -14.333 -15.5 -19s-14.833 -7 -23.5 -7c-13.333 0 -23.333 4.33301 -30 13s-10 18.334 -10 29.001c0 6 0.666992 10.667 2 14l208 580
c9.33301 26 23.166 45.167 41.499 57.5s38.833 18.5 61.5 18.5s43 -6.16699 61 -18.5s31.667 -31.5 41 -57.5l206 -575c5.33301 -12.667 5.66602 -24 0.999023 -34s-12.667 -18 -24 -24c-31.333 -16 -53.5 -31.833 -66.5 -47.5s-19.5 -31.5 -19.5 -47.5
c0 -16.667 5 -28.834 15 -36.501s21.667 -11.5 35 -11.5c15.333 0 28 4 38 12c6.66699 4.66699 13.667 7 21 7zM206.001 312h263.002l-105 299c-4.66699 13.333 -13.334 20 -26.001 20s-21.334 -6.66699 -26.001 -20z" />
    <glyph glyph-name="aogonek" unicode="&#x105;" horiz-adv-x="562" 
d="M454 34c-29.333 -13.333 -53.8291 -30.1689 -73.4961 -50.502s-29.5 -44.833 -29.5 -73.5c0 -17.333 5.16699 -30.333 15.5 -39s22.166 -13 35.499 -13s26.666 4.66699 39.999 14c7.33301 5.33301 15 7.5 23 6.5s14.667 -5.16699 20 -12.5s7.16602 -15.5 5.49902 -24.5
s-6.16699 -16.167 -13.5 -21.5c-9.33301 -7.33301 -20.833 -13.5 -34.5 -18.5s-29.5 -7.5 -47.5 -7.5c-15.333 0 -29.666 2.66699 -42.999 8s-25 12.666 -35 21.999s-18 20.833 -24 34.5s-9 28.834 -9 45.501c0 18.667 2.66699 35 8 49s12.333 27.667 21 41
c-17.333 -2 -35 -3 -53 -3c-66 0 -115.833 15.833 -149.5 47.5s-50.5 72.5 -50.5 122.5c0 22 4.16699 42.833 12.5 62.5s20.833 36.834 37.5 51.501s37.5 26.334 62.5 35.001s54.5 13 88.5 13c24 0 46.667 -1.66699 68 -5s45 -8.66602 71 -15.999v41c0 40.667 -10 70 -30 88
s-51.333 27 -94 27c-23.333 0 -45.333 -3 -66 -9s-38.334 -11.667 -53.001 -17c-17.333 -6.66699 -31.333 -6.33398 -42 0.999023s-16 17.333 -16 30c0 7.33301 2 14.333 6 21s10.667 12.334 20 17.001c8 4 18 7.83301 30 11.5s25 7 39 10s28.833 5.5 44.5 7.5
s30.834 3 45.501 3c30 0 57 -3.66699 81 -11s44.667 -18.5 62 -33.5s30.666 -34.333 39.999 -58s14 -51.834 14 -84.501v-276c0 -7.33301 -1.83301 -14 -5.5 -20s-10.834 -11.333 -21.501 -16zM141.004 162.997c0 -32 10.5 -56.5 31.5 -73.5s53.167 -25.5 96.5 -25.5
c40 0 70.833 4.16699 92.5 12.5s34.5 13.833 38.5 16.5v139c-25.333 6.66699 -48.333 12 -69 16s-43.667 6 -69 6c-34 0 -62.667 -7.83301 -86 -23.5s-35 -38.167 -35 -67.5z" />
    <glyph glyph-name="Cacute" unicode="&#x106;" horiz-adv-x="662" 
d="M355 69c40.667 0 77.167 10.8301 109.5 32.4971s56.166 50.5 71.499 86.5c3.33301 7.33301 8 13.5 14 18.5s14 7.5 24 7.5c9.33301 0 18.166 -3.66699 26.499 -11s12.5 -16.666 12.5 -27.999c0 -5.33301 -1 -11.333 -3 -18c-10 -25.333 -23.667 -48.166 -41 -68.499
s-37.166 -37.833 -59.499 -52.5s-46.666 -26 -72.999 -34s-53.5 -12 -81.5 -12c-40 0 -76.833 7.16699 -110.5 21.5s-63 34 -88 59s-45 54.5 -60 88.5s-23.833 70.667 -26.5 110c-4 54.667 -4 108.667 0 162c2.66699 39.333 11.5 76 26.5 110s35 63.5 60 88.5
s54.333 44.667 88 59s70.5 21.5 110.5 21.5c28 0 55.167 -4 81.5 -12s50.666 -19.167 72.999 -33.5s42.166 -31.833 59.499 -52.5s31 -43.334 41 -68.001c2 -7.33301 3 -13.666 3 -18.999c0 -11.333 -4.16699 -20.5 -12.5 -27.5s-17.166 -10.5 -26.499 -10.5
c-10 0 -18 2.5 -24 7.5s-10.667 11.167 -14 18.5c-15.333 36 -39.166 64.667 -71.499 86s-68.833 32 -109.5 32c-29.333 0 -55.833 -5.16699 -79.5 -15.5s-44.334 -24.5 -62.001 -42.5s-31.667 -39.5 -42 -64.5s-16.833 -52.167 -19.5 -81.5
c-3.33301 -51.333 -3.33301 -102.666 0 -153.999c2.66699 -29.333 9.16699 -56.5 19.5 -81.5s24.333 -46.5 42 -64.5s38.334 -32.167 62.001 -42.5s50.167 -15.5 79.5 -15.5zM432 887.997c6.66699 2.66699 12.332 4 16.999 4c9.33301 0 17.333 -3.33301 24 -10
s10 -14.667 10 -24c0 -13.333 -6.33301 -23.333 -19 -30l-135 -70c-5.33301 -3.33301 -11.333 -5 -18 -5c-9.33301 0 -17.166 3.33301 -23.499 10s-9.5 14.667 -9.5 24c0 14 6 24.333 18 31z" />
    <glyph glyph-name="cacute" unicode="&#x107;" horiz-adv-x="557" 
d="M298 67c26 0 50.8281 6.83691 74.4951 20.5039s41.5 35.167 53.5 64.5c4.66699 10 10.167 17 16.5 21s13.833 6 22.5 6c10.667 0 19.667 -3.83301 27 -11.5s11 -17.5 11 -29.5c0 -11.333 -4.16699 -25.5 -12.5 -42.5s-21 -33.167 -38 -48.5s-38.5 -28.5 -64.5 -39.5
s-56.333 -16.5 -91 -16.5c-32 0 -61.5 5.16699 -88.5 15.5s-50.167 24.666 -69.5 42.999s-34.666 39.833 -45.999 64.5s-18 51 -20 79c-0.666992 10 -1.16699 21.167 -1.5 33.5s-0.5 24.833 -0.5 37.5s0.166992 25.167 0.5 37.5s0.833008 23.5 1.5 33.5
c2 29.333 8.83301 56.166 20.5 80.499s27.334 45.166 47.001 62.499s42.834 30.833 69.501 40.5s55.667 14.5 87 14.5c34.667 0 64.834 -5.5 90.501 -16.5s46.834 -24.333 63.501 -40s29.167 -31.834 37.5 -48.501s12.5 -30.667 12.5 -42c0 -12 -3.66699 -21.833 -11 -29.5
s-16.333 -11.5 -27 -11.5c-8 0 -15.333 2 -22 6s-12.334 11 -17.001 21c-11.333 29.333 -28.666 50.833 -51.999 64.5s-48 20.5 -74 20.5c-42 0 -75.667 -11.5 -101 -34.5s-39.666 -53.833 -42.999 -92.5c-0.666992 -6.66699 -1.16699 -15.667 -1.5 -27
s-0.5 -23.333 -0.5 -36s0.166992 -25.167 0.5 -37.5s0.833008 -22.833 1.5 -31.5c3.33301 -37.333 17.166 -68.5 41.499 -93.5s58.5 -37.5 102.5 -37.5zM364.995 724.004c6.66699 2.66699 12.332 4 16.999 4c9.33301 0 17.333 -3.33301 24 -10s10 -14.667 10 -24
c0 -13.333 -6.33301 -23.333 -19 -30l-135 -70c-5.33301 -3.33301 -11.333 -5 -18 -5c-9.33301 0 -17.166 3.33301 -23.499 10s-9.5 14.667 -9.5 24c0 14 6 24.333 18 31z" />
    <glyph glyph-name="Cdotaccent" unicode="&#x10a;" horiz-adv-x="662" 
d="M355 69c40.667 0 77.167 10.8301 109.5 32.4971s56.166 50.5 71.499 86.5c3.33301 7.33301 8 13.5 14 18.5s14 7.5 24 7.5c9.33301 0 18.166 -3.66699 26.499 -11s12.5 -16.666 12.5 -27.999c0 -5.33301 -1 -11.333 -3 -18c-10 -25.333 -23.667 -48.166 -41 -68.499
s-37.166 -37.833 -59.499 -52.5s-46.666 -26 -72.999 -34s-53.5 -12 -81.5 -12c-40 0 -76.833 7.16699 -110.5 21.5s-63 34 -88 59s-45 54.5 -60 88.5s-23.833 70.667 -26.5 110c-4 54.667 -4 108.667 0 162c2.66699 39.333 11.5 76 26.5 110s35 63.5 60 88.5
s54.333 44.667 88 59s70.5 21.5 110.5 21.5c28 0 55.167 -4 81.5 -12s50.666 -19.167 72.999 -33.5s42.166 -31.833 59.499 -52.5s31 -43.334 41 -68.001c2 -7.33301 3 -13.666 3 -18.999c0 -11.333 -4.16699 -20.5 -12.5 -27.5s-17.166 -10.5 -26.499 -10.5
c-10 0 -18 2.5 -24 7.5s-10.667 11.167 -14 18.5c-15.333 36 -39.166 64.667 -71.499 86s-68.833 32 -109.5 32c-29.333 0 -55.833 -5.16699 -79.5 -15.5s-44.334 -24.5 -62.001 -42.5s-31.667 -39.5 -42 -64.5s-16.833 -52.167 -19.5 -81.5
c-3.33301 -51.333 -3.33301 -102.666 0 -153.999c2.66699 -29.333 9.16699 -56.5 19.5 -81.5s24.333 -46.5 42 -64.5s38.334 -32.167 62.001 -42.5s50.167 -15.5 79.5 -15.5zM353 850.997c12.667 0 23.334 -4.16699 32.001 -12.5s13 -19.166 13 -32.499
c0 -12.667 -4.33301 -23.334 -13 -32.001s-19.334 -13 -32.001 -13s-23.334 4.33301 -32.001 13s-13 19.334 -13 32.001c0 13.333 4.33301 24.166 13 32.499s19.334 12.5 32.001 12.5z" />
    <glyph glyph-name="cdotaccent" unicode="&#x10b;" horiz-adv-x="557" 
d="M298 67c26 0 50.8281 6.83691 74.4951 20.5039s41.5 35.167 53.5 64.5c4.66699 10 10.167 17 16.5 21s13.833 6 22.5 6c10.667 0 19.667 -3.83301 27 -11.5s11 -17.5 11 -29.5c0 -11.333 -4.16699 -25.5 -12.5 -42.5s-21 -33.167 -38 -48.5s-38.5 -28.5 -64.5 -39.5
s-56.333 -16.5 -91 -16.5c-32 0 -61.5 5.16699 -88.5 15.5s-50.167 24.666 -69.5 42.999s-34.666 39.833 -45.999 64.5s-18 51 -20 79c-0.666992 10 -1.16699 21.167 -1.5 33.5s-0.5 24.833 -0.5 37.5s0.166992 25.167 0.5 37.5s0.833008 23.5 1.5 33.5
c2 29.333 8.83301 56.166 20.5 80.499s27.334 45.166 47.001 62.499s42.834 30.833 69.501 40.5s55.667 14.5 87 14.5c34.667 0 64.834 -5.5 90.501 -16.5s46.834 -24.333 63.501 -40s29.167 -31.834 37.5 -48.501s12.5 -30.667 12.5 -42c0 -12 -3.66699 -21.833 -11 -29.5
s-16.333 -11.5 -27 -11.5c-8 0 -15.333 2 -22 6s-12.334 11 -17.001 21c-11.333 29.333 -28.666 50.833 -51.999 64.5s-48 20.5 -74 20.5c-42 0 -75.667 -11.5 -101 -34.5s-39.666 -53.833 -42.999 -92.5c-0.666992 -6.66699 -1.16699 -15.667 -1.5 -27
s-0.5 -23.333 -0.5 -36s0.166992 -25.167 0.5 -37.5s0.833008 -22.833 1.5 -31.5c3.33301 -37.333 17.166 -68.5 41.499 -93.5s58.5 -37.5 102.5 -37.5zM293.995 690.004c12.667 0 23.334 -4.16699 32.001 -12.5s13 -19.166 13 -32.499
c0 -12.667 -4.33301 -23.334 -13 -32.001s-19.334 -13 -32.001 -13s-23.334 4.33301 -32.001 13s-13 19.334 -13 32.001c0 13.333 4.33301 24.166 13 32.499s19.334 12.5 32.001 12.5z" />
    <glyph glyph-name="Ccaron" unicode="&#x10c;" horiz-adv-x="662" 
d="M355 69c40.667 0 77.167 10.8301 109.5 32.4971s56.166 50.5 71.499 86.5c3.33301 7.33301 8 13.5 14 18.5s14 7.5 24 7.5c9.33301 0 18.166 -3.66699 26.499 -11s12.5 -16.666 12.5 -27.999c0 -5.33301 -1 -11.333 -3 -18c-10 -25.333 -23.667 -48.166 -41 -68.499
s-37.166 -37.833 -59.499 -52.5s-46.666 -26 -72.999 -34s-53.5 -12 -81.5 -12c-40 0 -76.833 7.16699 -110.5 21.5s-63 34 -88 59s-45 54.5 -60 88.5s-23.833 70.667 -26.5 110c-4 54.667 -4 108.667 0 162c2.66699 39.333 11.5 76 26.5 110s35 63.5 60 88.5
s54.333 44.667 88 59s70.5 21.5 110.5 21.5c28 0 55.167 -4 81.5 -12s50.666 -19.167 72.999 -33.5s42.166 -31.833 59.499 -52.5s31 -43.334 41 -68.001c2 -7.33301 3 -13.666 3 -18.999c0 -11.333 -4.16699 -20.5 -12.5 -27.5s-17.166 -10.5 -26.499 -10.5
c-10 0 -18 2.5 -24 7.5s-10.667 11.167 -14 18.5c-15.333 36 -39.166 64.667 -71.499 86s-68.833 32 -109.5 32c-29.333 0 -55.833 -5.16699 -79.5 -15.5s-44.334 -24.5 -62.001 -42.5s-31.667 -39.5 -42 -64.5s-16.833 -52.167 -19.5 -81.5
c-3.33301 -51.333 -3.33301 -102.666 0 -153.999c2.66699 -29.333 9.16699 -56.5 19.5 -81.5s24.333 -46.5 42 -64.5s38.334 -32.167 62.001 -42.5s50.167 -15.5 79.5 -15.5zM376 763.997c-5.33301 -3.33301 -10.167 -6.16602 -14.5 -8.49902s-9.16602 -3.5 -14.499 -3.5
s-10.333 1.16699 -15 3.5s-9.66699 5.16602 -15 8.49902l-93 70c-9.33301 6.66699 -14 16 -14 28c0 9.33301 3.16699 17.333 9.5 24s14.5 10 24.5 10c7.33301 0 14.666 -2.66699 21.999 -8l81 -61l81 61c7.33301 5.33301 15 8 23 8c9.33301 0 17.333 -3.33301 24 -10
s10 -14.667 10 -24c0 -6 -1.5 -11.333 -4.5 -16s-6.5 -8.66699 -10.5 -12z" />
    <glyph glyph-name="ccaron" unicode="&#x10d;" horiz-adv-x="557" 
d="M298 67c26 0 50.8281 6.83691 74.4951 20.5039s41.5 35.167 53.5 64.5c4.66699 10 10.167 17 16.5 21s13.833 6 22.5 6c10.667 0 19.667 -3.83301 27 -11.5s11 -17.5 11 -29.5c0 -11.333 -4.16699 -25.5 -12.5 -42.5s-21 -33.167 -38 -48.5s-38.5 -28.5 -64.5 -39.5
s-56.333 -16.5 -91 -16.5c-32 0 -61.5 5.16699 -88.5 15.5s-50.167 24.666 -69.5 42.999s-34.666 39.833 -45.999 64.5s-18 51 -20 79c-0.666992 10 -1.16699 21.167 -1.5 33.5s-0.5 24.833 -0.5 37.5s0.166992 25.167 0.5 37.5s0.833008 23.5 1.5 33.5
c2 29.333 8.83301 56.166 20.5 80.499s27.334 45.166 47.001 62.499s42.834 30.833 69.501 40.5s55.667 14.5 87 14.5c34.667 0 64.834 -5.5 90.501 -16.5s46.834 -24.333 63.501 -40s29.167 -31.834 37.5 -48.501s12.5 -30.667 12.5 -42c0 -12 -3.66699 -21.833 -11 -29.5
s-16.333 -11.5 -27 -11.5c-8 0 -15.333 2 -22 6s-12.334 11 -17.001 21c-11.333 29.333 -28.666 50.833 -51.999 64.5s-48 20.5 -74 20.5c-42 0 -75.667 -11.5 -101 -34.5s-39.666 -53.833 -42.999 -92.5c-0.666992 -6.66699 -1.16699 -15.667 -1.5 -27
s-0.5 -23.333 -0.5 -36s0.166992 -25.167 0.5 -37.5s0.833008 -22.833 1.5 -31.5c3.33301 -37.333 17.166 -68.5 41.499 -93.5s58.5 -37.5 102.5 -37.5zM319.995 601.004c-5.33301 -3.33301 -10.167 -6.16602 -14.5 -8.49902s-9.16602 -3.5 -14.499 -3.5
s-10.333 1.16699 -15 3.5s-9.66699 5.16602 -15 8.49902l-93 70c-9.33301 6.66699 -14 16 -14 28c0 9.33301 3.16699 17.333 9.5 24s14.5 10 24.5 10c7.33301 0 14.666 -2.66699 21.999 -8l81 -61l81 61c7.33301 5.33301 15 8 23 8c9.33301 0 17.333 -3.33301 24 -10
s10 -14.667 10 -24c0 -6 -1.5 -11.333 -4.5 -16s-6.5 -8.66699 -10.5 -12z" />
    <glyph glyph-name="Dcaron" unicode="&#x10e;" horiz-adv-x="719" 
d="M568 298c1.33301 16.667 2 34.5 2 53.5s-0.666992 35.833 -2 50.5c-2 32.667 -7.83301 62.667 -17.5 90s-24 50.5 -43 69.5s-42.667 33.833 -71 44.5s-61.833 16 -100.5 16h-154v-543h154c38.667 0 72 5.33301 100 16s51.5 25.5 70.5 44.5s33.5 42 43.5 69
s16 56.833 18 89.5zM169 0c-22 0 -39 6.66602 -51 19.999s-18 29.333 -18 48v565c0 19.333 6 35.5 18 48.5s29 19.5 51 19.5h167c50.667 0 95 -7.33301 133 -22s70 -35.167 96 -61.5s46 -57.666 60 -93.999s22.333 -75.833 25 -118.5c1.33301 -18 2 -36.5 2 -55.5
s-0.666992 -36.833 -2 -53.5c-2.66699 -42.667 -11 -82 -25 -118s-34 -67.167 -60 -93.5s-58 -47 -96 -62s-82.333 -22.5 -133 -22.5h-167zM377 763.999c-5.33301 -3.33301 -10.167 -6.16602 -14.5 -8.49902s-9.16602 -3.5 -14.499 -3.5s-10.333 1.16699 -15 3.5
s-9.66699 5.16602 -15 8.49902l-93 70c-9.33301 6.66699 -14 16 -14 28c0 9.33301 3.16699 17.333 9.5 24s14.5 10 24.5 10c7.33301 0 14.666 -2.66699 21.999 -8l81 -61l81 61c7.33301 5.33301 15 8 23 8c9.33301 0 17.333 -3.33301 24 -10s10 -14.667 10 -24
c0 -6 -1.5 -11.333 -4.5 -16s-6.5 -8.66699 -10.5 -12z" />
    <glyph glyph-name="dcaron" unicode="&#x10f;" horiz-adv-x="631" 
d="M74 334c5.33301 62.667 25.6699 111.503 61.0029 146.503s85 52.5 149 52.5c27.333 0 53.666 -3.33301 78.999 -10s47 -14 65 -22v168c0 11.333 3.83301 21.166 11.5 29.499s17.167 12.5 28.5 12.5c12 0 21.833 -4.16699 29.5 -12.5s11.5 -18.166 11.5 -29.499v-585
c0 -7.33301 -1 -13.333 -3 -18s-6.66699 -9.66699 -14 -15c-6 -4 -15.333 -9.5 -28 -16.5s-27.834 -13.667 -45.501 -20s-37 -11.833 -58 -16.5s-42.833 -7 -65.5 -7c-66.667 0 -118.834 18.167 -156.501 54.5s-59.167 85.5 -64.5 147.5
c-0.666992 8.66699 -1.16699 19.167 -1.5 31.5s-0.5 25.166 -0.5 38.499s0.166992 26.166 0.5 38.499s0.833008 23.166 1.5 32.499zM155.004 199.003c8 -88 55 -131.999 141 -131.999c12 0 24.667 1.33301 38 4s26 6 38 10s23 8.5 33 13.5s17.667 9.5 23 13.5v314
c-12 7.33301 -31 15 -57 23s-54 12 -84 12c-43.333 0 -75.333 -10.833 -96 -32.5s-32.667 -53.167 -36 -94.5c-0.666992 -7.33301 -1.16699 -16.666 -1.5 -27.999s-0.5 -23.333 -0.5 -36s0.166992 -24.834 0.5 -36.501s0.833008 -21.834 1.5 -30.501zM642.004 575.004
c-4.66699 -7.33301 -10.168 -13.3359 -16.501 -18.0029s-13.5 -7 -21.5 -7c-11.333 0 -20.5 3.5 -27.5 10.5s-10.5 15.167 -10.5 24.5c0 6 1.33301 11.667 4 17s5.83398 11.333 9.50098 18s6.83398 14.334 9.50098 23.001s4 19 4 31v22c0 11.333 3.66699 20.833 11 28.5
s16.333 11.5 27 11.5c11.333 0 20.666 -3.83301 27.999 -11.5s11 -17.167 11 -28.5v-20c0 -13.333 -2.16699 -29.166 -6.5 -47.499s-11.5 -36.166 -21.5 -53.499z" />
    <glyph glyph-name="Dcroat" unicode="&#x110;" horiz-adv-x="718" 
d="M169 0c-22.667 0 -39.834 6.66602 -51.501 19.999s-17.5 29.333 -17.5 48v241h-65c-11.333 0 -20.5 3.66699 -27.5 11s-10.5 16.666 -10.5 27.999c0 10.667 3.5 19.667 10.5 27s16.167 11 27.5 11h65v247c0 19.333 5.83301 35.5 17.5 48.5s28.834 19.5 51.501 19.5h166
c50.667 0 95.167 -7.33301 133.5 -22s70.5 -35.167 96.5 -61.5s46 -57.666 60 -93.999s22 -75.833 24 -118.5c2 -36.667 2 -73 0 -109c-2 -42.667 -10 -82.167 -24 -118.5s-34 -67.666 -60 -93.999s-58.167 -46.833 -96.5 -61.5s-82.833 -22 -133.5 -22h-166zM335 78.999
c38.667 0 72.167 5.33203 100.5 15.999s52 25.5 71 44.5s33.5 42 43.5 69s16 56.833 18 89.5c2 34.667 2 69.667 0 105c-2 32.667 -8 62.5 -18 89.5s-24.5 50 -43.5 69s-42.667 33.833 -71 44.5s-61.833 16 -100.5 16h-153v-236h157c11.333 0 20.666 -3.66699 27.999 -11
s11 -16.333 11 -27c0 -11.333 -3.66699 -20.666 -11 -27.999s-16.666 -11 -27.999 -11h-157v-230h153z" />
    </font>
</defs>
</svg>
