<?xml version="1.0" standalone="no"?>
<!DOCTYPE svg PUBLIC "-//W3C//DTD SVG 1.1//EN" "http://www.w3.org/Graphics/SVG/1.1/DTD/svg11.dtd" >
<svg>
<metadata>
Created by FontForge 20090914 at Tue Jan  6 12:17:48 2015
 By www-data
This font is a renamed version of Rubrik, licensed for use only within the Adani Group. Copyright (c) 2010 by Miles Newlyn. All rights reserved.
</metadata>
<defs>
<font id="Adani-Light" horiz-adv-x="340" >
  <font-face 
    font-family="Adani Light"
    font-weight="300"
    font-stretch="normal"
    units-per-em="1000"
    panose-1="2 0 5 3 0 0 0 2 0 4"
    ascent="750"
    descent="-250"
    x-height="509.001"
    cap-height="703.001"
    bbox="-18.6315 -284.001 1007 931.001"
    underline-thickness="70"
    underline-position="-30"
    unicode-range="U+0020-U+FB02"
  />
<missing-glyph horiz-adv-x="301" 
 />
    <glyph glyph-name="fi" unicode="fi" horiz-adv-x="641" 
d="M113 561c0 22 2.99902 42.3311 8.99902 60.998s15.167 34.834 27.5 48.501s27.833 24.334 46.5 32.001s40.667 11.5 66 11.5c13.333 0 28.333 -1 45 -3s30.667 -5 42 -9c12.667 -4.66699 19 -13.667 19 -27c0 -6.66699 -2.33301 -12.667 -7 -18s-11.667 -8 -21 -8
s-19.333 1.5 -30 4.5s-28 4.5 -52 4.5c-31.333 0 -53.666 -9.16699 -66.999 -27.5s-20 -43.833 -20 -76.5v-47h151c7.33301 0 14 -2.66699 20 -8s9 -12.333 9 -21c0 -7.33301 -3 -13.666 -9 -18.999s-12.667 -8 -20 -8h-151v-425c0 -8.66699 -2.66699 -15.834 -8 -21.501
s-12.333 -8.5 -21 -8.5c-7.33301 0 -14 2.83301 -20 8.5s-9 12.834 -9 21.501v425h-39c-8.66699 0 -15.834 2.66699 -21.501 8s-8.5 11.666 -8.5 18.999c0 8.66699 2.83301 15.667 8.5 21s12.834 8 21.501 8h39v54zM547.999 652.998c0 -11.333 -4 -21 -12 -29
s-17.667 -12 -29 -12s-20.666 4 -27.999 12s-11 17.667 -11 29s3.66699 20.833 11 28.5s16.666 11.5 27.999 11.5s21 -3.83301 29 -11.5s12 -17.167 12 -28.5zM506.999 519.998c8 0 15.001 -2.83301 21.001 -8.5s9 -12.834 9 -21.501v-464
c0 -8.66699 -2.83301 -15.834 -8.5 -21.501s-12.834 -8.5 -21.501 -8.5c-8 0 -14.667 2.83301 -20 8.5s-8 12.834 -8 21.501v464c0 8.66699 2.66699 15.834 8 21.501s12 8.5 20 8.5z" />
    <glyph glyph-name=".notdef" horiz-adv-x="301" 
 />
    <glyph glyph-name="space" unicode=" " horiz-adv-x="267" 
 />
    <glyph glyph-name="space" unicode="&#xa0;" horiz-adv-x="267" 
 />
    <glyph glyph-name="exclam" unicode="!" horiz-adv-x="205" 
d="M73 669c0 8.66699 2.99902 15.834 8.99902 21.501s12.667 8.5 20 8.5c8.66699 0 15.667 -2.83301 21 -8.5s8.33301 -12.834 9 -21.501l-3 -416c0 -8 -2.5 -14.667 -7.5 -20s-11.167 -8 -18.5 -8s-13.666 2.83301 -18.999 8.5s-8 12.167 -8 19.5zM69.999 78
c0 9.33301 3.33301 17 10 23s14 9 22 9c9.33301 0 17.166 -3 23.499 -9s9.5 -13.667 9.5 -23v-55c0 -9.33301 -3.16699 -17 -9.5 -23s-14.166 -9 -23.499 -9c-8 0 -15.333 3.16699 -22 9.5s-10 13.833 -10 22.5v55z" />
    <glyph glyph-name="quotedbl" unicode="&#x22;" horiz-adv-x="331" 
d="M133 538c0 -9.33301 -2.66699 -17 -8 -23s-12.333 -9 -21 -9c-8 0 -14.833 3 -20.5 9s-8.5 13.667 -8.5 23v130c0 9.33301 2.83301 16.833 8.5 22.5s12.5 8.5 20.5 8.5c8.66699 0 15.667 -2.83301 21 -8.5s8 -13.167 8 -22.5v-130zM256 538
c0 -9.33301 -2.66699 -17 -8 -23s-12.333 -9 -21 -9c-8 0 -14.833 3 -20.5 9s-8.5 13.667 -8.5 23v130c0 9.33301 2.83301 16.833 8.5 22.5s12.5 8.5 20.5 8.5c8.66699 0 15.667 -2.83301 21 -8.5s8 -13.167 8 -22.5v-130z" />
    <glyph glyph-name="numbersign" unicode="#" horiz-adv-x="614" 
d="M137 10c-2.66699 -7.33301 -6.50098 -12.333 -11.501 -15s-10.5 -4 -16.5 -4c-12 0 -20 4.5 -24 13.5s-4.33301 18.5 -1 28.5l60 185h-61c-9.33301 0 -16.833 2.83301 -22.5 8.5s-8.5 12.834 -8.5 21.501c0 8 2.83301 14.667 8.5 20s12.834 8 21.501 8h82l52 161h-65
c-8.66699 0 -15.834 2.83301 -21.501 8.5s-8.5 12.834 -8.5 21.501c0 8 2.83301 14.667 8.5 20s12.834 8 21.501 8h84l64 193c6 13.333 15 20 27 20c12.667 0 21 -4.5 25 -13.5s4.33301 -18.5 1 -28.5l-56 -171h112l64 193c2 7.33301 5.5 12.5 10.5 15.5s10.5 4.5 16.5 4.5
c12.667 0 21 -4.5 25 -13.5s4 -18.5 0 -28.5l-55 -171h63c8.66699 0 15.834 -2.66699 21.501 -8s8.5 -12 8.5 -20c0 -8.66699 -3 -15.834 -9 -21.501s-13 -8.5 -21 -8.5h-84l-51 -161h66c8.66699 0 15.834 -2.66699 21.501 -8s8.5 -12 8.5 -20
c0 -8.66699 -3 -15.834 -9 -21.501s-13 -8.5 -21 -8.5h-87l-67 -208c-2 -7.33301 -5.5 -12.333 -10.5 -15s-10.5 -4 -16.5 -4c-12.667 0 -20.834 4.5 -24.501 13.5s-3.83398 18.5 -0.500977 28.5l60 185h-113zM223.999 276h113l52 161h-113z" />
    <glyph glyph-name="dollar" unicode="$" horiz-adv-x="609" 
d="M540 191c0 -25.333 -5.32812 -48.4971 -15.9951 -69.4971s-25.5 -39.333 -44.5 -55s-41.167 -27.834 -66.5 -36.501s-52.666 -13.334 -81.999 -14.001v-77c0 -8 -2.66699 -14.667 -8 -20s-11.666 -8 -18.999 -8s-13.666 2.83301 -18.999 8.5s-8 12.167 -8 19.5v79
c-39.333 3.33301 -74.333 11 -105 23s-57.667 26.667 -81 44c-11.333 8 -17 17 -17 27c0 8.66699 2.66699 15.834 8 21.501s12 8.5 20 8.5c3.33301 0 7 -0.666992 11 -2s8.33301 -3.66602 13 -6.99902c22.667 -17.333 49.834 -31.666 81.501 -42.999s63.834 -17 96.501 -17
c56.667 0 100.5 10 131.5 30s46.5 49.333 46.5 88c0 18.667 -2.66699 34.667 -8 48s-15.333 25.166 -30 35.499s-34.834 19.833 -60.501 28.5s-58.834 17.334 -99.501 26.001c-72.667 15.333 -124.834 36.666 -156.501 63.999s-47.5 64.666 -47.5 111.999
c0 26 4.66699 49.5 14 70.5s22.666 39.167 39.999 54.5s38.166 27.5 62.499 36.5s51.166 14.167 80.499 15.5v77c0 8 2.66699 14.833 8 20.5s11.666 8.5 18.999 8.5s13.666 -2.83301 18.999 -8.5s8 -12.5 8 -20.5v-79c30 -3.33301 57.333 -9.5 82 -18.5
s45.334 -20.167 62.001 -33.5c8 -6.66699 12 -14.667 12 -24c0 -7.33301 -2.5 -14 -7.5 -20s-11.833 -9 -20.5 -9c-5.33301 0 -9.83301 1.16699 -13.5 3.5s-6.83398 4.16602 -9.50098 5.49902c-24.667 15.333 -48.334 26.166 -71.001 32.499s-43.667 9.5 -63 9.5
c-33.333 0 -60.5 -3.66699 -81.5 -11s-37.667 -16.666 -50 -27.999s-20.833 -24.166 -25.5 -38.499s-7 -28.833 -7 -43.5c0 -20 3.66699 -36.667 11 -50s18.5 -24.333 33.5 -33s33.667 -16.167 56 -22.5s48.166 -12.5 77.499 -18.5c36 -7.33301 67.833 -16 95.5 -26
s51 -22.333 70 -37s33.5 -32.334 43.5 -53.001s15 -45.334 15 -74.001z" />
    <glyph glyph-name="percent" unicode="%" horiz-adv-x="708" 
d="M188 709c20 0 38.502 -3.66602 55.502 -10.999s31.833 -17.333 44.5 -30s22.667 -27.667 30 -45s11.666 -35.666 12.999 -54.999c1.33301 -18.667 1.33301 -37.334 0 -56.001c-1.33301 -20 -5.83301 -38.5 -13.5 -55.5s-17.834 -31.833 -30.501 -44.5
s-27.334 -22.667 -44.001 -30s-35 -11 -55 -11s-38.5 3.66699 -55.5 11s-31.833 17.333 -44.5 30s-23 27.5 -31 44.5s-12.333 35.5 -13 55.5c-0.666992 8.66699 -1 18.167 -1 28.5s0.333008 19.5 1 27.5c0.666992 19.333 4.83398 37.666 12.501 54.999s18 32.333 31 45
s28 22.667 45 30s35.5 11 55.5 11zM187.002 655.001c-24.667 0 -44.999 -8.5 -60.999 -25.5s-25 -38.167 -27 -63.5c-1.33301 -18 -1.33301 -35.667 0 -53c1.33301 -25.333 10.166 -46.166 26.499 -62.499s36.833 -24.5 61.5 -24.5c25.333 0 46.333 8.16699 63 24.5
s25.667 37.5 27 63.5c1.33301 15.333 1.33301 32.666 0 51.999c-1.33301 25.333 -10.333 46.5 -27 63.5s-37.667 25.5 -63 25.5zM539.003 603.001c5.33301 6.66699 11.8311 10.332 19.498 10.999s14.5 -1.33301 20.5 -6c6 -5.33301 9.16699 -12 9.5 -20
s-2.16699 -14.667 -7.5 -20l-99.5 -113l-103.5 -119l-103 -119l-99 -114c-5.33301 -6.66699 -11.833 -10.167 -19.5 -10.5s-14.5 1.83398 -20.5 6.50098c-5.33301 5.33301 -8.16602 11.833 -8.49902 19.5s1.83398 14.167 6.50098 19.5zM521.001 327.999
c20 0 38.502 -3.66602 55.502 -10.999s31.833 -17.333 44.5 -30s22.667 -27.667 30 -45s11.666 -35.666 12.999 -54.999c1.33301 -18.667 1.33301 -37.334 0 -56.001c-1.33301 -20 -5.83301 -38.5 -13.5 -55.5s-17.834 -31.833 -30.501 -44.5s-27.334 -22.667 -44.001 -30
s-35 -11 -55 -11s-38.5 3.66699 -55.5 11s-31.833 17.333 -44.5 30s-23 27.5 -31 44.5s-12.333 35.5 -13 55.5c-0.666992 8.66699 -1 18.167 -1 28.5s0.333008 19.5 1 27.5c0.666992 19.333 4.83398 37.666 12.501 54.999s18 32.333 31 45s28 22.667 45 30s35.5 11 55.5 11z
M520.003 274c-24.667 0 -44.999 -8.5 -60.999 -25.5s-25 -38.167 -27 -63.5c-1.33301 -18 -1.33301 -35.667 0 -53c1.33301 -25.333 10.166 -46.166 26.499 -62.499s36.833 -24.5 61.5 -24.5c25.333 0 46.333 8.16699 63 24.5s25.667 37.5 27 63.5
c1.33301 15.333 1.33301 32.666 0 51.999c-1.33301 25.333 -10.333 46.5 -27 63.5s-37.667 25.5 -63 25.5z" />
    <glyph glyph-name="ampersand" unicode="&#x26;" horiz-adv-x="686" 
d="M515 232c0 41.333 18.667 62.001 56 62.001h80c8.66699 0 16.167 -2.66699 22.5 -8s9.5 -12.333 9.5 -21c0 -8 -3 -14.833 -9 -20.5s-13.333 -8.5 -22 -8.5h-77c-1.33301 -39.333 -8.83301 -74.166 -22.5 -104.499s-32.167 -55.833 -55.5 -76.5s-51 -36.5 -83 -47.5
s-66.333 -16.5 -103 -16.5c-42 0 -79.167 4.83301 -111.5 14.5s-59.333 23 -81 40s-38 37.333 -49 61s-16.5 49.167 -16.5 76.5c0 42 11.667 76.667 35 104s58 49.333 104 66c-30 20.667 -53.5 43.667 -70.5 69s-25.5 57 -25.5 95c0 26.667 5.16699 51.334 15.5 74.001
s24.833 42.167 43.5 58.5s41 29 67 38s54.667 13.5 86 13.5c32.667 0 62.167 -4.5 88.5 -13.5s48.833 -21.5 67.5 -37.5s32.834 -35 42.501 -57s14.5 -46 14.5 -72c0 -28.667 -4.5 -53.334 -13.5 -74.001s-22.333 -38.5 -40 -53.5s-39.667 -27.5 -66 -37.5
s-56.833 -19 -91.5 -27c-38 -8.66699 -69.667 -17.667 -95 -27s-45.833 -19.833 -61.5 -31.5s-26.667 -24.667 -33 -39s-9.5 -30.5 -9.5 -48.5c0 -40.667 17.167 -73.167 51.5 -97.5s83.833 -36.5 148.5 -36.5c32 0 60.5 4.66699 85.5 14s46 22.166 63 38.499
s30.167 35.666 39.5 57.999s14.666 46.5 15.999 72.5zM154 517.001c0 -19.333 3.50195 -36.166 10.502 -50.499s16 -27 27 -38s23.167 -20.667 36.5 -29s26 -15.833 38 -22.5c38 7.33301 69.5 15.166 94.5 23.499s45.167 18 60.5 29s26.166 23.833 32.499 38.5
s9.5 32 9.5 52c0 15.333 -3 30.333 -9 45s-15.167 27.834 -27.5 39.501s-28.333 21 -48 28s-42.834 10.5 -69.501 10.5c-26 0 -48.667 -3.33301 -68 -10s-35.5 -15.834 -48.5 -27.501s-22.667 -25.167 -29 -40.5s-9.5 -31.333 -9.5 -48z" />
    <glyph glyph-name="quotesingle" unicode="'" horiz-adv-x="208" 
d="M133 538c0 -9.33301 -2.66699 -17 -8 -23s-12.333 -9 -21 -9c-8 0 -14.833 3 -20.5 9s-8.5 13.667 -8.5 23v130c0 9.33301 2.83301 16.833 8.5 22.5s12.5 8.5 20.5 8.5c8.66699 0 15.667 -2.83301 21 -8.5s8 -13.167 8 -22.5v-130z" />
    <glyph glyph-name="parenleft" unicode="(" horiz-adv-x="347" 
d="M147 309c0 -39.333 3.83301 -78.8359 11.5 -118.503s19.167 -78.167 34.5 -115.5s34.5 -73.166 57.5 -107.499s50.167 -65.833 81.5 -94.5c5.33301 -4.66699 8.5 -10.5 9.5 -17.5s-0.5 -13.5 -4.5 -19.5s-10 -9.66699 -18 -11s-15.667 1 -23 7
c-34 31.333 -63.833 65.5 -89.5 102.5s-47 75.833 -64 116.5s-29.833 82.834 -38.5 126.501s-13 87.5 -13 131.5c0 88.667 17.167 174.5 51.5 257.5s85.5 156.167 153.5 219.5c7.33301 6 15 8.33301 23 7s14 -5 18 -11s5.5 -12.5 4.5 -19.5s-4.16699 -12.833 -9.5 -17.5
c-31.333 -28.667 -58.5 -60.167 -81.5 -94.5s-42.167 -70.166 -57.5 -107.499s-26.833 -75.833 -34.5 -115.5s-11.5 -79.167 -11.5 -118.5z" />
    <glyph glyph-name="parenright" unicode=")" horiz-adv-x="347" 
d="M200 309c0 39.333 -3.83301 78.8359 -11.5 118.503s-19.167 78.167 -34.5 115.5s-34.5 73.166 -57.5 107.499s-50.167 65.833 -81.5 94.5c-5.33301 4.66699 -8.5 10.667 -9.5 18s0.5 14 4.5 20s10 9.5 18 10.5s15.667 -1.5 23 -7.5
c68 -63.333 119.167 -136.5 153.5 -219.5s51.5 -168.833 51.5 -257.5c0 -44 -4.33301 -87.833 -13 -131.5s-21.5 -85.834 -38.5 -126.501s-38.333 -79.5 -64 -116.5s-55.5 -71.167 -89.5 -102.5c-7.33301 -6 -15 -8.5 -23 -7.5s-14 4.5 -18 10.5s-5.5 12.667 -4.5 20
s4.16699 13.333 9.5 18c31.333 28.667 58.5 60.167 81.5 94.5s42.167 70.166 57.5 107.499s26.833 75.833 34.5 115.5s11.5 79.167 11.5 118.5z" />
    <glyph glyph-name="asterisk" unicode="*" horiz-adv-x="377" 
d="M189 369c-8 0 -14.5 2.66504 -19.5 7.99805s-7.5 12.333 -7.5 21l1 90l-80 -48c-6.66699 -4 -14 -5.5 -22 -4.5s-14 5.5 -18 13.5c-3.33301 7.33301 -4 14.5 -2 21.5s6.33301 12.167 13 15.5l89 47l-88 46c-5.33301 3.33301 -9.66602 8.33301 -12.999 15s-3 14 1 22
c3.33301 7.33301 8.66602 11.833 15.999 13.5s14.666 0.5 21.999 -3.5l82 -49l-1 90c0 8.66699 2.5 15.667 7.5 21s11.5 8 19.5 8s14.5 -2.66699 19.5 -8s7.5 -12.333 7.5 -21l-1 -90l80 49c6.66699 4 14 5.33301 22 4s14 -6 18 -14c3.33301 -7.33301 3.5 -14.333 0.5 -21
s-7.16699 -11.667 -12.5 -15l-88 -47l86 -46c8.66699 -4.66699 14.334 -10.5 17.001 -17.5s1.66699 -14.5 -3 -22.5c-4 -7.33301 -9.83301 -11.666 -17.5 -12.999s-15.167 0.333984 -22.5 5.00098l-80 49l1 -90c0 -8.66699 -2.5 -15.667 -7.5 -21s-11.5 -8 -19.5 -8z" />
    <glyph glyph-name="plus" unicode="+" horiz-adv-x="628" 
d="M286 321h-192c-8.66699 0 -16 2.83301 -22 8.5s-9 12.5 -9 20.5c0 8.66699 3 15.667 9 21s13.333 8 22 8h192v195c0 8.66699 2.83301 16 8.5 22s12.5 9 20.5 9c8.66699 0 15.667 -3 21 -9s8 -13.333 8 -22v-195h193c8.66699 0 16 -2.66699 22 -8s9 -12.333 9 -21
c0 -8 -3.16699 -14.833 -9.5 -20.5s-13.5 -8.5 -21.5 -8.5h-193v-195c0 -8.66699 -2.66699 -16 -8 -22s-12.333 -9 -21 -9s-15.667 3 -21 9s-8 13.333 -8 22v195z" />
    <glyph glyph-name="comma" unicode="," horiz-adv-x="206" 
d="M136 59c0 -26 -1.33105 -47.999 -3.99805 -65.999s-9.66699 -37 -21 -57c-8 -15.333 -19 -23 -33 -23c-9.33301 0 -16.5 3.16699 -21.5 9.5s-7.5 13.166 -7.5 20.499c0 6.66699 1.16699 12 3.5 16s4.66602 8.5 6.99902 13.5s4.66602 11.833 6.99902 20.5
s3.5 20.667 3.5 36v48c0 9.33301 3.16699 17 9.5 23s14.166 9 23.499 9c8.66699 0 16.334 -3 23.001 -9s10 -13.667 10 -23v-18z" />
    <glyph glyph-name="hyphen" unicode="-" horiz-adv-x="345" 
d="M286 287c0 -8.66699 -2.83301 -15.667 -8.5 -21s-12.834 -8 -21.501 -8h-167c-8.66699 0 -15.834 2.83301 -21.501 8.5s-8.5 12.5 -8.5 20.5c0 8.66699 2.83301 15.5 8.5 20.5s12.834 7.5 21.501 7.5h167c8.66699 0 15.834 -2.5 21.501 -7.5s8.5 -11.833 8.5 -20.5z" />
    <glyph glyph-name="period" unicode="." horiz-adv-x="259" 
d="M103 113c9.33301 0 17.167 -3.33301 23.5 -10s9.5 -14.667 9.5 -24v-54c0 -9.33301 -3 -17.333 -9 -24s-14 -10 -24 -10c-9.33301 0 -17.166 3.33301 -23.499 10s-9.5 14.667 -9.5 24v54c0 9.33301 3.16699 17.333 9.5 24s14.166 10 23.499 10z" />
    <glyph glyph-name="slash" unicode="/" horiz-adv-x="333" 
d="M317 730c7.33301 -3.33301 12.501 -8.5 15.501 -15.5s2.83301 -14.167 -0.5 -21.5l-279 -707c-3.33301 -7.33301 -8.5 -12.5 -15.5 -15.5s-13.833 -3.16699 -20.5 -0.5c-7.33301 3.33301 -12.5 8.5 -15.5 15.5s-3.16699 14.167 -0.5 21.5l279 707
c3.33301 7.33301 8.66602 12.5 15.999 15.5s14.333 3.16699 21 0.5z" />
    <glyph glyph-name="zero" unicode="0" horiz-adv-x="688" 
d="M598 260c-2 -38.667 -9.5 -74.167 -22.5 -106.5s-30.667 -60 -53 -83s-48.666 -41 -78.999 -54s-63.5 -19.5 -99.5 -19.5s-69.167 6.33301 -99.5 19s-56.666 30.667 -78.999 54s-40 51 -53 83s-20.5 67.667 -22.5 107c-0.666992 13.333 -1.16699 28 -1.5 44
s-0.5 32.167 -0.5 48.5s0.166992 32.666 0.5 48.999s0.833008 31.166 1.5 44.499c2 38.667 9.5 74.167 22.5 106.5s30.667 60 53 83s48.666 40.833 78.999 53.5s63.5 19 99.5 19s69.167 -6.33301 99.5 -19s56.666 -30.5 78.999 -53.5s40 -50.667 53 -83
s20.5 -67.833 22.5 -106.5c0.666992 -13.333 1.16699 -28.166 1.5 -44.499s0.5 -32.666 0.5 -48.999s-0.166992 -32.5 -0.5 -48.5s-0.833008 -30.667 -1.5 -44zM539 258c2 28 2.83105 59.5 2.49805 94.5s-1.16602 66.5 -2.49902 94.5c-4 62.667 -23 112.167 -57 148.5
s-80 54.5 -138 54.5s-104 -18.167 -138 -54.5s-53 -85.833 -57 -148.5c-1.33301 -28 -2.16602 -59.5 -2.49902 -94.5s0.5 -66.5 2.5 -94.5c4 -62.667 23 -112.167 57 -148.5s80 -54.5 138 -54.5s104 18.167 138 54.5s53 85.833 57 148.5z" />
    <glyph glyph-name="one" unicode="1" horiz-adv-x="438" 
d="M254 703c11.333 0 20.502 -3.5 27.502 -10.5s10.5 -16.5 10.5 -28.5v-638c0 -8.66699 -2.66699 -15.834 -8 -21.501s-12.333 -8.5 -21 -8.5c-8 0 -15 2.83301 -21 8.5s-9 12.834 -9 21.501v604l-133 -73c-8 -4 -16.167 -5.33301 -24.5 -4s-14.5 6.33301 -18.5 15
c-4 8 -4.66699 15.833 -2 23.5s7.66699 13.5 15 17.5l146 81c5.33301 2.66699 10.666 5.5 15.999 8.5s12.666 4.5 21.999 4.5z" />
    <glyph glyph-name="two" unicode="2" horiz-adv-x="580" 
d="M62 48c0 21.333 3.00586 41.667 9.00586 61s15.333 38.333 28 57s28.667 37.167 48 55.5s42.333 37.166 69 56.499l105 76c28 20.667 50.5 39.667 67.5 57s29 34.5 36 51.5s10.5 36.833 10.5 59.5c0 15.333 -2.83301 30.666 -8.5 45.999s-14.834 29.333 -27.501 42
s-29 22.834 -49 30.501s-44 11.5 -72 11.5c-38 0 -70 -7.66699 -96 -23s-47 -33.666 -63 -54.999c-2 -3.33301 -5.5 -6.5 -10.5 -9.5s-10.5 -4.5 -16.5 -4.5c-10.667 0 -19.334 4.83301 -26.001 14.5s-6.33398 19.834 0.999023 30.501c8.66699 12.667 19.5 25.167 32.5 37.5
s28.167 23.5 45.5 33.5s36.833 18 58.5 24s45.5 9 71.5 9c36 0 67.5 -5 94.5 -15s49.667 -23.5 68 -40.5s32.166 -36.833 41.499 -59.5s14 -46.667 14 -72c0 -29.333 -4.33301 -55 -13 -77s-22.334 -43 -41.001 -63s-42.167 -40.833 -70.5 -62.5l-102.5 -75.5
c-28.667 -20.667 -52.334 -39 -71.001 -55s-33.5 -31.167 -44.5 -45.5s-18.833 -28.333 -23.5 -42s-7 -28.167 -7 -43.5h358c8.66699 0 15.834 -3 21.501 -9s8.5 -13 8.5 -21s-2.83301 -14.667 -8.5 -20s-12.834 -8 -21.501 -8h-368c-14 0 -25.5 4.16699 -34.5 12.5
s-13.5 20.166 -13.5 35.499z" />
    <glyph glyph-name="three" unicode="3" horiz-adv-x="585" 
d="M281 442c3.33301 0 6.33594 0.166992 9.00293 0.5s5.66699 0.5 9 0.5c28.667 0 55.167 -4.83301 79.5 -14.5s45.333 -23 63 -40s31.5 -37.333 41.5 -61s15 -49.5 15 -77.5c0 -39.333 -8.5 -74.666 -25.5 -105.999s-41.333 -57.833 -73 -79.5
s-70.334 -38.334 -116.001 -50.001s-97.5 -17.5 -155.5 -17.5h-24c-8 0 -16 0.333008 -24 1c-9.33301 0.666992 -17 3.66699 -23 9s-9 12.333 -9 21c0 8 2.66699 15 8 21s12.333 8.66699 21 8c10 -1.33301 20 -2 30 -2h29c46 0 87.667 4.16699 125 12.5
s69.166 20.833 95.499 37.5s46.666 37.167 60.999 61.5s21.5 52.166 21.5 83.499c0 21.333 -3.83301 40.5 -11.5 57.5s-18.5 31.333 -32.5 43s-30.333 20.667 -49 27s-39 9.5 -61 9.5c-21.333 0 -36 -1 -44 -3s-15.667 -3 -23 -3c-8.66699 0 -16 2.83301 -22 8.5
s-9 12.5 -9 20.5c0 3.33301 0.666992 6.83301 2 10.5s3.33301 6.83398 6 9.50098l188 211h-306c-8 0 -15 2.83301 -21 8.5s-9 12.5 -9 20.5s3 14.833 9 20.5s13 8.5 21 8.5h328c14 0 26 -4.33301 36 -13s15 -19.667 15 -33c0 -8.66699 -3.33301 -18.667 -10 -30z" />
    <glyph glyph-name="four" unicode="4" horiz-adv-x="661" 
d="M493 178l0.000976562 -147c0 -8 -2.66699 -15.167 -8 -21.5s-12 -9.5 -20 -9.5c-8.66699 0 -15.834 3 -21.501 9s-8.5 13.333 -8.5 22v147h-315c-14.667 0 -28.167 4.33301 -40.5 13s-18.5 21.667 -18.5 39c0 14 6 29 18 45l304 398c6 7.33301 13 14.5 21 21.5
s19 10.5 33 10.5c15.333 0 27 -3 35 -9s13.5 -13 16.5 -21s4.5 -16 4.5 -24v-18v-398h85c8 0 14.667 -2.66699 20 -8s8 -12 8 -20c0 -7.33301 -2.83301 -14 -8.5 -20s-12.167 -9 -19.5 -9h-85zM435.001 235v413l-314 -413h314z" />
    <glyph glyph-name="five" unicode="5" horiz-adv-x="600" 
d="M533 266c0 -88 -36.665 -155.169 -109.998 -201.502s-178 -69.5 -314 -69.5c-9.33301 0 -16.833 2.66699 -22.5 8s-8.5 12 -8.5 20c0 12 3.83301 20 11.5 24s16.167 6 25.5 6c54.667 0 104.334 4.33301 149.001 13s82.5 21.834 113.5 39.501s55 40 72 67
s25.5 58.833 25.5 95.5c0 18.667 -3.83301 36.167 -11.5 52.5s-18.334 30.333 -32.001 42s-29.834 20.834 -48.501 27.501s-39 10 -61 10s-41.833 -1.83301 -59.5 -5.5s-33.5 -8 -47.5 -13s-26 -10.167 -36 -15.5l-25 -13c-8.66699 -5.33301 -16.5 -7.83301 -23.5 -7.5
s-12.833 2 -17.5 5s-8.33398 7.16699 -11.001 12.5s-4 11 -4 17v263c0 21.333 6 36 18 44s25.667 12 41 12h303c8 0 15 -2.66699 21 -8s9 -12.333 9 -21c0 -8 -3 -14.833 -9 -20.5s-13 -8.5 -21 -8.5h-306v-228c20 11.333 42.833 21.333 68.5 30s57.834 13 96.501 13
c31.333 0 60.166 -4.66699 86.499 -14s49 -22.5 68 -39.5s33.667 -37 44 -60s15.5 -48.5 15.5 -76.5z" />
    <glyph glyph-name="six" unicode="6" horiz-adv-x="662" 
d="M506 647c-8.66699 0 -20.6611 1.33398 -35.9941 4.00098s-35.333 4 -60 4c-37.333 0 -71.333 -6 -102 -18s-57.334 -29.333 -80.001 -52s-40.834 -50.334 -54.501 -83.001s-21.834 -69.334 -24.501 -110.001c22 10.667 49.5 21.167 82.5 31.5s70.5 15.5 112.5 15.5
c36 0 68.667 -4.66699 98 -14s54.5 -23.166 75.5 -41.499s37.333 -41 49 -68s17.5 -57.833 17.5 -92.5c0 -31.333 -5 -61.166 -15 -89.499s-25 -53.166 -45 -74.499s-45.167 -38.333 -75.5 -51s-65.833 -19 -106.5 -19c-49.333 0 -90.833 9.16699 -124.5 27.5
s-60.5 44.166 -80.5 77.499s-33.833 72.833 -41.5 118.5s-9.83398 96.167 -6.50098 151.5c3.33301 56 13.166 105.833 29.499 149.5s38.333 80.167 66 109.5s60.5 51.666 98.5 66.999s80.333 23 127 23c15.333 0 31.5 -0.5 48.5 -1.5s33.5 -3.16699 49.5 -6.5
c9.33301 -1.33301 16.166 -5 20.499 -11s6.5 -12.333 6.5 -19c0 -7.33301 -2.5 -13.833 -7.5 -19.5s-12.167 -8.5 -21.5 -8.5zM344.006 381.001c-43.333 0 -81.333 -5.66895 -114 -17.002s-60.667 -23.666 -84 -36.999c-2.66699 -47.333 0 -88.333 8 -123
s20.667 -63.667 38 -87s39 -40.666 65 -51.999s55.333 -17 88 -17c30.667 0 57.5 4.5 80.5 13.5s41.833 21.333 56.5 37s25.667 34.167 33 55.5s11 44.333 11 69c0 50.667 -15.167 89.667 -45.5 117s-75.833 41 -136.5 41z" />
    <glyph glyph-name="seven" unicode="7" horiz-adv-x="519" 
d="M161 -4c-9.33301 0 -16.334 2.83301 -21.001 8.5s-7 12.167 -7 19.5c0 3.33301 0.166992 6.16602 0.5 8.49902s0.833008 5.16602 1.5 8.49902c11.333 42.667 24.666 84.167 39.999 124.5s34.5 83.5 57.5 129.5s50.333 96.833 82 152.5l114.5 193.5h-361
c-8.66699 0 -15.834 2.83301 -21.501 8.5s-8.5 12.167 -8.5 19.5c0 8.66699 2.83301 15.834 8.5 21.501s12.834 8.5 21.501 8.5h373c14.667 0 26.5 -4 35.5 -12s13.5 -18.667 13.5 -32c0 -10.667 -3.33301 -22 -10 -34l-119.5 -202
c-32.333 -56 -59.666 -106.167 -81.999 -150.5s-40.5 -85.833 -54.5 -124.5s-26 -80 -36 -124c-2 -9.33301 -5.66699 -15.666 -11 -18.999s-10.666 -5 -15.999 -5z" />
    <glyph glyph-name="eight" unicode="8" horiz-adv-x="675" 
d="M335 652c-32 0 -59.166 -3.16797 -81.499 -9.50098s-40.5 -15.166 -54.5 -26.499s-24.333 -24.5 -31 -39.5s-10 -31.5 -10 -49.5c0 -42 16 -74.5 48 -97.5s75 -34.5 129 -34.5c57.333 0 101.333 11.833 132 35.5s46 55.5 46 95.5c0 18 -3.16699 34.833 -9.5 50.5
s-16.5 29 -30.5 40s-32.333 19.667 -55 26s-50.334 9.5 -83.001 9.5zM335.001 336.999c-65.333 0 -114 -13.666 -146 -40.999s-48 -62.333 -48 -105c0 -20 3.66699 -38.667 11 -56s19 -32.333 35 -45s36.167 -22.667 60.5 -30s53.5 -11 87.5 -11
c35.333 0 65.5 3.83301 90.5 11.5s45.5 18 61.5 31s27.833 28 35.5 45s11.5 34.833 11.5 53.5c0 45.333 -17.833 81.166 -53.5 107.499s-84.167 39.5 -145.5 39.5zM335.001 -9c-41.333 0 -77.833 4.83496 -109.5 14.502s-58 23.167 -79 40.5s-36.833 38.166 -47.5 62.499
s-16 51.5 -16 81.5c0 48 12.333 87.167 37 117.5s55.334 50.166 92.001 59.499c-14 4 -27.667 10 -41 18s-25.333 18.5 -36 31.5s-19.334 28.5 -26.001 46.5s-10 39.333 -10 64c0 55.333 20.167 99.5 60.5 132.5s98.833 49.5 175.5 49.5c78.667 0 138 -16.5 178 -49.5
s60 -77.167 60 -132.5c0 -42 -10.167 -76 -30.5 -102s-46.5 -45.333 -78.5 -58c38.667 -12 69.667 -32.5 93 -61.5s35 -67.167 35 -114.5c0 -60 -21.5 -108.333 -64.5 -145s-107.167 -55 -192.5 -55z" />
    <glyph glyph-name="nine" unicode="9" horiz-adv-x="655" 
d="M150 53c44 0 86.335 2.33008 127.002 6.99707s77 15.334 109 32.001s58.5 41.334 79.5 74.001s34.5 77.334 40.5 134.001c-24 -12 -52.333 -22.5 -85 -31.5s-68 -13.5 -106 -13.5c-36 0 -68.5 4.83301 -97.5 14.5s-53.833 24 -74.5 43s-36.667 42.333 -48 70
s-17 59.5 -17 95.5c0 33.333 5.16699 64.333 15.5 93s25.666 53.334 45.999 74.001s45.333 36.834 75 48.501s64.167 17.5 103.5 17.5c46 0 85 -7.5 117 -22.5s57.667 -36.833 77 -65.5s33.333 -63.834 42 -105.501s13 -88.834 13 -141.501
c0 -71.333 -8.16699 -131.333 -24.5 -180s-41.5 -87.834 -75.5 -117.501s-77.167 -51 -129.5 -64s-114.5 -19.5 -186.5 -19.5c-8 0 -15 2.33301 -21 7s-9.33301 11.334 -10 20.001c-0.666992 7.33301 1.66602 14.333 6.99902 21s13 10 23 10zM319.002 312.997
c19.333 0 37.335 1.33301 54.002 4s32.5 6.33398 47.5 11.001s29.667 10.167 44 16.5l44.5 20.5c0 49.333 -2.83301 92.166 -8.5 128.499s-15.834 66.333 -30.501 90s-34.167 41.167 -58.5 52.5s-55.5 17 -93.5 17c-62.667 0 -108.667 -16.167 -138 -48.5
s-44 -74.833 -44 -127.5c0 -50.667 14.167 -90.667 42.5 -120s75.166 -44 140.499 -44z" />
    <glyph glyph-name="colon" unicode=":" horiz-adv-x="283" 
d="M142 497c9.33301 0 17.167 -3.33301 23.5 -10s9.5 -14.667 9.5 -24v-54c0 -9.33301 -3 -17.333 -9 -24s-14 -10 -24 -10c-9.33301 0 -17.166 3.33301 -23.499 10s-9.5 14.667 -9.5 24v54c0 9.33301 3.16699 17.333 9.5 24s14.166 10 23.499 10zM142.001 113
c9.33301 0 17.167 -3.33301 23.5 -10s9.5 -14.667 9.5 -24v-54c0 -9.33301 -3 -17.333 -9 -24s-14 -10 -24 -10c-9.33301 0 -17.166 3.33301 -23.499 10s-9.5 14.667 -9.5 24v54c0 9.33301 3.16699 17.333 9.5 24s14.166 10 23.499 10z" />
    <glyph glyph-name="semicolon" unicode=";" horiz-adv-x="283" 
d="M191 36c0 -12 -0.998047 -25.1689 -2.99805 -39.502s-5.33301 -27.666 -10 -39.999s-10.667 -22.666 -18 -30.999s-16.333 -12.5 -27 -12.5c-9.33301 0 -16.833 3.5 -22.5 10.5s-8.16699 14.167 -7.5 21.5c0 4.66699 0.666992 9 2 13c2 4 4.16699 7.5 6.5 10.5
s4.5 7 6.5 12s3.66699 11.333 5 19s2 17.5 2 29.5v48c0 9.33301 3.16699 17 9.5 23s14.166 9 23.499 9s17.166 -3 23.499 -9s9.5 -13.667 9.5 -23v-41zM158.002 496.998c9.33301 0 17.167 -3.33301 23.5 -10s9.5 -14.667 9.5 -24v-54c0 -9.33301 -3 -17.333 -9 -24
s-14 -10 -24 -10c-9.33301 0 -17.166 3.33301 -23.499 10s-9.5 14.667 -9.5 24v54c0 9.33301 3.16699 17.333 9.5 24s14.166 10 23.499 10z" />
    <glyph glyph-name="less" unicode="&#x3c;" horiz-adv-x="628" 
d="M476 643c5.33301 -6.66699 7.33301 -14.1738 6 -22.5068s-5.33301 -15.166 -12 -20.499l-292 -236c-2 -1.33301 -4 -3.16602 -6 -5.49902s-3 -5.16602 -3 -8.49902s1 -6.16602 3 -8.49902s4 -4.16602 6 -5.49902l293 -237c6.66699 -5.33301 10.5 -12 11.5 -20
s-1.16699 -15.333 -6.5 -22s-12 -10.167 -20 -10.5s-15.667 2.16699 -23 7.5l-280 227c-14.667 12 -25.5 23.333 -32.5 34s-10.5 22.334 -10.5 35.001s3.5 24.334 10.5 35.001s17.833 22 32.5 34l280 227c7.33301 5.33301 15 7.83301 23 7.5s14.667 -3.83301 20 -10.5z" />
    <glyph glyph-name="equal" unicode="=" horiz-adv-x="628" 
d="M97 407c-8.66699 0 -15.835 2.66699 -21.502 8s-8.5 12 -8.5 20c0 8.66699 2.83301 15.834 8.5 21.501s12.834 8.5 21.501 8.5h434c8.66699 0 15.834 -2.83301 21.501 -8.5s8.5 -12.834 8.5 -21.501c0 -8 -3 -14.667 -9 -20s-13 -8 -21 -8h-434zM96.999 236
c-8.66699 0 -15.835 2.83301 -21.502 8.5s-8.5 12.5 -8.5 20.5c0 8.66699 2.83301 15.667 8.5 21s12.834 8 21.501 8h434c8.66699 0 15.834 -2.66699 21.501 -8s8.5 -12.333 8.5 -21c0 -8 -3 -14.833 -9 -20.5s-13 -8.5 -21 -8.5h-434z" />
    <glyph glyph-name="greater" unicode="&#x3e;" horiz-adv-x="628" 
d="M150 643c5.33301 6.66699 12 10.1738 20 10.5068s15.667 -2.16699 23 -7.5l280 -227c14.667 -12 25.5 -23.333 32.5 -34s10.5 -22.334 10.5 -35.001s-3.5 -24.334 -10.5 -35.001s-17.833 -22 -32.5 -34l-280 -227c-7.33301 -5.33301 -15 -7.83301 -23 -7.5
s-14.667 3.83301 -20 10.5s-7.5 14 -6.5 22s4.83301 14.667 11.5 20l293 237c2 1.33301 4 3.16602 6 5.49902s3 5.16602 3 8.49902s-1 6.16602 -3 8.49902s-4 4.16602 -6 5.49902l-292 236c-6.66699 5.33301 -10.667 12.166 -12 20.499s0.666992 15.833 6 22.5z" />
    <glyph glyph-name="question" unicode="?" horiz-adv-x="560" 
d="M117 575c-4 -5.33301 -8.00488 -8.66895 -12.0049 -10.002s-8 -2 -12 -2c-8 0 -15 3 -21 9s-9 13 -9 21c0 6 3 13 9 21c50 63.333 120.667 95 212 95c30.667 0 58.5 -4.66699 83.5 -14s46.333 -22.333 64 -39s31.334 -36.667 41.001 -60s14.5 -48.666 14.5 -75.999
c0 -33.333 -4.33301 -61.666 -13 -84.999s-21.667 -44.166 -39 -62.499s-39.333 -35.333 -66 -51s-58 -32.167 -94 -49.5c-8.66699 -3.33301 -16 -5 -22 -5c-7.33301 0 -14.166 2.66699 -20.499 8s-9.5 12.666 -9.5 21.999c0 13.333 7.33301 23.333 22 30
c34.667 15.333 63.834 29.666 87.501 42.999s42.667 27.333 57 42s24.5 30.834 30.5 48.501s9 38.167 9 61.5c0 38.667 -12.667 70 -38 94s-61 36 -107 36c-39.333 0 -71.666 -6 -96.999 -18s-48.666 -31.667 -69.999 -59zM220.995 77.9971c0 9.33301 3.5 17 10.5 23
s14.5 9 22.5 9c8.66699 0 16.334 -3 23.001 -9s10 -13.667 10 -23v-55c0 -9.33301 -3.33301 -17 -10 -23s-14.334 -9 -23.001 -9c-8 0 -15.5 3.16699 -22.5 9.5s-10.5 13.833 -10.5 22.5v55z" />
    <glyph glyph-name="at" unicode="@" horiz-adv-x="852" 
d="M476 130c12 5.33301 22.1719 5.66895 30.5049 1.00195s13.166 -10.667 14.499 -18c2 -9.33301 0.666992 -17.666 -4 -24.999s-12.334 -12.666 -23.001 -15.999c-9.33301 -3.33301 -19.333 -5.83301 -30 -7.5s-21.667 -2.5 -33 -2.5
c-24.667 0 -47.834 3.83301 -69.501 11.5s-40.5 18.667 -56.5 33s-28.833 32 -38.5 53s-15.167 45.167 -16.5 72.5c-1.33301 22.667 -1.33301 45.667 0 69c0.666992 24.667 5.5 47.834 14.5 69.501s21.333 40.667 37 57s34.167 29.333 55.5 39s45 14.5 71 14.5
c28.667 0 54 -4.5 76 -13.5s40.5 -21.333 55.5 -37s26.5 -33.667 34.5 -54s12 -41.5 12 -63.5v-137c0 -17.333 5.66699 -31.333 17 -42s25 -16 41 -16c15.333 0 28.833 5.33301 40.5 16s17.5 24.667 17.5 42v176c0 44.667 -7.83301 84.834 -23.5 120.501
s-36.834 66 -63.501 91s-58 44.167 -94 57.5s-74 20 -114 20s-77 -6.66699 -111 -20s-63.833 -32.333 -89.5 -57s-46.5 -54.334 -62.5 -89.001s-25.667 -73 -29 -115c-3.33301 -34 -4.5 -68.667 -3.5 -104s2.5 -65.333 4.5 -90c4 -46.667 14.833 -86.834 32.5 -120.501
s39.667 -61.5 66 -83.5s55.666 -38.167 87.999 -48.5s64.833 -15.5 97.5 -15.5c20.667 0 40.834 2.16699 60.501 6.5s38.834 10.166 57.501 17.499c6.66699 2.66699 13.334 3.33398 20.001 2.00098s12.334 -5 17.001 -11c4 -6 5.16699 -13.333 3.5 -22s-6.5 -15 -14.5 -19
c-18 -9.33301 -39.667 -16.833 -65 -22.5s-51.333 -8.5 -78 -8.5c-40 0 -79.5 6.33301 -118.5 19s-74.333 32.167 -106 58.5s-58.334 59.666 -80.001 99.999s-34.834 87.833 -39.501 142.5c-1.33301 13.333 -2.33301 29 -3 47s-1 36.5 -1 55.5s0.166992 37.667 0.5 56
s1.16602 34.166 2.49902 47.499c3.33301 47.333 14.333 91.166 33 131.499s43.5 75.333 74.5 105s67.167 53 108.5 70s86.333 25.5 135 25.5s94.334 -8.33301 137.001 -25s80 -40 112 -70s57.333 -66 76 -108s28 -88.333 28 -139v-177c0 -16 -3 -31 -9 -45
s-14.333 -26.167 -25 -36.5s-23 -18.666 -37 -24.999s-29.333 -9.5 -46 -9.5c-15.333 0 -30 3 -44 9s-26.333 14.167 -37 24.5s-19.167 22.5 -25.5 36.5s-9.5 29.333 -9.5 46v128c0 15.333 -2.83301 30 -8.5 44s-13.667 26.167 -24 36.5s-22.833 18.666 -37.5 24.999
s-31 9.5 -49 9.5c-16 0 -31.333 -2.83301 -46 -8.5s-27.5 -14 -38.5 -25s-19.667 -24.333 -26 -40s-9.5 -33.167 -9.5 -52.5c-1.33301 -19.333 -1.33301 -39.333 0 -60c1.33301 -25.333 7.5 -46.5 18.5 -63.5s24.667 -30 41 -39s34.166 -13.833 53.499 -14.5
s37.666 2.66602 54.999 9.99902z" />
    <glyph glyph-name="A" unicode="A" horiz-adv-x="669" 
d="M642 31c0 -7.33301 -2.50293 -14.333 -7.50293 -21s-12.167 -10 -21.5 -10c-13.333 -0 -22.666 6.33301 -27.999 19l-84 229h-335l-82 -229c-5.33301 -12.667 -14.666 -19 -27.999 -19c-11.333 -0 -19.5 4.33301 -24.5 13s-5.83301 18 -2.5 28l218 598
c8 22 18.833 39.167 32.5 51.5s31.834 18.5 54.501 18.5s41 -6 55 -18s25 -29 33 -51l218 -599c1.33301 -4 2 -7.33301 2 -10zM187.997 306h291l-115 322c-5.33301 16.667 -15.333 25 -30 25c-13.333 0 -23.333 -8.66699 -30 -26z" />
    <glyph glyph-name="B" unicode="B" horiz-adv-x="669" 
d="M168 59h223.999c52.667 0 91.334 11.5 116.001 34.5s37 57.167 37 102.5c0 44 -13 77.833 -39 101.5s-59.333 35.5 -100 35.5h-238v-274zM388.999 391c48 0 82.833 11 104.5 33s32.5 53 32.5 93c0 82.667 -45.667 124 -137 124h-221v-250h221zM605.999 198
c0 -36.667 -5.50098 -67.668 -16.501 -93.001s-25.833 -45.666 -44.5 -60.999s-40.5 -26.5 -65.5 -33.5s-51.167 -10.5 -78.5 -10.5h-235c-18.667 0 -32.667 5.5 -42 16.5s-14 24.167 -14 39.5v587c0 15.333 4.66699 28.5 14 39.5s23.333 16.5 42 16.5h222
c32 0 60.333 -4.83301 85 -14.5s45.334 -22.667 62.001 -39s29.334 -35.333 38.001 -57s13 -44.167 13 -67.5c0 -24 -2.5 -45 -7.5 -63s-12 -33.167 -21 -45.5s-19.333 -22.5 -31 -30.5s-23.834 -14.333 -36.501 -19v-1c36.667 -8 65.167 -26.667 85.5 -56
s30.5 -65.333 30.5 -108z" />
    <glyph glyph-name="C" unicode="C" horiz-adv-x="663" 
d="M355 49c44.667 0 84.8359 11.998 120.503 35.998s61.167 55.667 76.5 95c2 5.33301 5.33301 10 10 14s10.667 6 18 6s13.833 -2.66699 19.5 -8s8.5 -12 8.5 -20c0 -3.33301 -0.666992 -7 -2 -11c-9.33301 -25.333 -22.333 -48.333 -39 -69s-36 -38.5 -58 -53.5
s-46.167 -26.667 -72.5 -35s-53.5 -12.5 -81.5 -12.5c-39.333 0 -75.333 7 -108 21s-61.167 33.5 -85.5 58.5s-43.833 54.5 -58.5 88.5s-23.334 70.667 -26.001 110c-4 53.333 -4 107.333 0 162c2.66699 38.667 11.167 74.834 25.5 108.501s33.666 63 57.999 88
s53 44.667 86 59s69.167 21.5 108.5 21.5c28 0 55.167 -4.16699 81.5 -12.5s50.5 -20 72.5 -35s41.333 -33 58 -54s29.667 -43.833 39 -68.5c1.33301 -4 2 -7.66699 2 -11c0 -8 -2.83301 -14.667 -8.5 -20s-12.167 -8 -19.5 -8s-13.333 2 -18 6s-8 8.66699 -10 14
c-15.333 40 -40.833 72 -76.5 96s-75.834 36 -120.501 36c-31.333 0 -59.833 -5.5 -85.5 -16.5s-48 -26.167 -67 -45.5s-34.333 -42.333 -46 -69s-18.834 -55.667 -21.501 -87c-4 -55.333 -4 -110.666 0 -165.999c2.66699 -31.333 9.83398 -60.333 21.501 -87
s27 -49.667 46 -69s41.333 -34.5 67 -45.5s54.167 -16.5 85.5 -16.5z" />
    <glyph glyph-name="D" unicode="D" horiz-adv-x="719" 
d="M586 294c1.33301 17.333 1.99805 36.502 1.99805 57.502s-0.666992 39.167 -2 54.5c-2 35.333 -8.5 67.5 -19.5 96.5s-26.667 53.667 -47 74s-45.666 36.166 -75.999 47.499s-66.166 17 -107.499 17h-168v-582h168c41.333 0 77.333 5.66699 108 17
s56.167 27.166 76.5 47.499s35.833 45 46.5 74s17 61.167 19 96.5zM164.998 0.00195312c-18 0 -31.666 5.5 -40.999 16.5s-14 24.167 -14 39.5v587c0 15.333 4.66699 28.5 14 39.5s23 16.5 41 16.5h173c49.333 0 92.666 -7.5 129.999 -22.5s68.666 -35.667 93.999 -62
s44.833 -57.5 58.5 -93.5s21.5 -75.333 23.5 -118c1.33301 -18 2 -36.5 2 -55.5s-0.666992 -36.833 -2 -53.5c-2 -42 -10 -81 -24 -117s-33.667 -67 -59 -93s-56.666 -46.5 -93.999 -61.5s-80.333 -22.5 -129 -22.5h-173z" />
    <glyph glyph-name="E" unicode="E" horiz-adv-x="623" 
d="M517 699c8.66699 0 16 -2.66602 22 -7.99902s9 -12.333 9 -21c0 -8 -3 -14.833 -9 -20.5s-13.333 -8.5 -22 -8.5h-349v-259h342c9.33301 0 17 -2.66699 23 -8s9 -12.333 9 -21s-3.16699 -16 -9.5 -22s-13.833 -9 -22.5 -9h-342v-263h351c8.66699 0 16 -2.83301 22 -8.5
s9 -12.5 9 -20.5c0 -8.66699 -2.83301 -15.834 -8.5 -21.501s-13.167 -8.5 -22.5 -8.5h-353c-18.667 0 -32.667 5.5 -42 16.5s-14 24.167 -14 39.5v587c0 15.333 4.66699 28.5 14 39.5s23.333 16.5 42 16.5h351z" />
    <glyph glyph-name="F" unicode="F" horiz-adv-x="590" 
d="M110 643c0 15.333 4.6709 28.501 14.0039 39.501s23.333 16.5 42 16.5h352c9.33301 0 16.666 -2.66699 21.999 -8s8 -12.333 8 -21c0 -8 -2.83301 -14.833 -8.5 -20.5s-12.834 -8.5 -21.501 -8.5h-350v-272h332c9.33301 0 16.666 -2.66699 21.999 -8s8 -12.333 8 -21
c0 -8 -2.83301 -14.833 -8.5 -20.5s-12.834 -8.5 -21.501 -8.5h-332v-285c0 -8.66699 -2.83301 -15.834 -8.5 -21.501s-12.5 -8.5 -20.5 -8.5s-14.833 3 -20.5 9s-8.5 13 -8.5 21v617z" />
    <glyph glyph-name="G" unicode="G" horiz-adv-x="701" 
d="M627 236c0 -31.333 -5.99512 -61.833 -17.9951 -91.5s-29.333 -55.834 -52 -78.501s-50.334 -40.834 -83.001 -54.501s-69.334 -20.5 -110.001 -20.5c-39.333 0 -76 7 -110 21s-63.667 33.5 -89 58.5s-45.833 54.5 -61.5 88.5s-24.834 70.667 -27.501 110
c-4 53.333 -4 107.333 0 162c2.66699 38.667 11.667 74.834 27 108.501s35.833 63 61.5 88s55.5 44.667 89.5 59s70.667 21.5 110 21.5c28 0 54.833 -3.66699 80.5 -11s49.334 -18 71.001 -32s41 -31 58 -51s30.5 -42.333 40.5 -67c4 -10.667 2.83301 -20.167 -3.5 -28.5
s-14.5 -12.5 -24.5 -12.5c-6 0 -11.5 1.83301 -16.5 5.5s-8.83301 8.16699 -11.5 13.5c-18.667 39.333 -44.834 70 -78.501 92s-72.5 33 -116.5 33c-30.667 0 -59.334 -5.5 -86.001 -16.5s-50 -26.167 -70 -45.5s-36.333 -42.333 -49 -69s-20.334 -55.334 -23.001 -86.001
c-4.66699 -56 -4.66699 -111.333 0 -166c2.66699 -31.333 10.334 -60.166 23.001 -86.499s29 -49.333 49 -69s43.167 -35 69.5 -46s55.166 -16.5 86.499 -16.5c30 0 57.5 4.33301 82.5 13s46.5 20.834 64.5 36.501s32.167 34.5 42.5 56.5s15.5 46.667 15.5 74v77h-165
c-8.66699 0 -15.834 2.66699 -21.501 8s-8.5 12.333 -8.5 21s2.83301 15.667 8.5 21s12.834 8 21.501 8h169c18 0 31.667 -5 41 -15s14 -22.667 14 -38v-75z" />
    <glyph glyph-name="H" unicode="H" horiz-adv-x="757" 
d="M110 673c0 8.66699 2.83301 15.835 8.5 21.502s12.5 8.5 20.5 8.5s14.833 -2.83301 20.5 -8.5s8.5 -12.834 8.5 -21.501v-294h422v294c0 8.66699 3 15.834 9 21.501s12.667 8.5 20 8.5c8.66699 0 15.667 -2.83301 21 -8.5s8 -12.834 8 -21.501v-647
c0 -8.66699 -2.66699 -15.834 -8 -21.501s-12.333 -8.5 -21 -8.5c-7.33301 0 -14 3 -20 9s-9 13 -9 21v295h-422v-295c0 -8.66699 -2.83301 -15.834 -8.5 -21.501s-12.5 -8.5 -20.5 -8.5c-8.66699 0 -15.667 2.83301 -21 8.5s-8 12.834 -8 21.501v647z" />
    <glyph glyph-name="I" unicode="I" horiz-adv-x="277" 
d="M110 673c0 8.66699 2.83301 15.834 8.5 21.501s12.5 8.5 20.5 8.5s14.833 -2.83301 20.5 -8.5s8.5 -12.834 8.5 -21.501v-647c0 -8.66699 -2.83301 -15.834 -8.5 -21.501s-12.5 -8.5 -20.5 -8.5c-8.66699 0 -15.667 2.83301 -21 8.5s-8 12.834 -8 21.501v647z" />
    <glyph glyph-name="J" unicode="J" horiz-adv-x="502" 
d="M42 96c-1.33301 2.66699 -1.99902 6.33203 -1.99902 10.999c0 8.66699 2.83301 15.834 8.5 21.501s12.5 8.5 20.5 8.5c6 0 11.5 -1.66699 16.5 -5s8.83301 -7.66602 11.5 -12.999c10.667 -20 25.5 -36.5 44.5 -49.5s41.833 -19.5 68.5 -19.5c17.333 0 33.833 3 49.5 9
s29.5 15 41.5 27s21.5 27.167 28.5 45.5s10.5 40.166 10.5 65.499v476c0 8.66699 2.83301 15.834 8.5 21.501s12.5 8.5 20.5 8.5s14.833 -2.83301 20.5 -8.5s8.5 -12.834 8.5 -21.501v-486c0 -29.333 -5 -56 -15 -80s-23.5 -44.5 -40.5 -61.5s-36.833 -30.333 -59.5 -40
s-47 -14.5 -73 -14.5c-36 0 -69.333 9.5 -100 28.5s-53.334 44.5 -68.001 76.5z" />
    <glyph glyph-name="K" unicode="K" horiz-adv-x="625" 
d="M168 26c0 -8.66699 -2.83301 -15.833 -8.5 -21.5s-12.5 -8.5 -20.5 -8.5s-14.833 3 -20.5 9s-8.5 13 -8.5 21v647c0 8.66699 2.83301 15.834 8.5 21.501s12.5 8.5 20.5 8.5s14.833 -2.83301 20.5 -8.5s8.5 -12.834 8.5 -21.501v-290h7c12 0 21.833 1.83301 29.5 5.5
s17.167 10.167 28.5 19.5l306 287c6.66699 5.33301 13.667 8 21 8c8 0 14.667 -3.16699 20 -9.5s8 -13.166 8 -20.499c0 -8 -3 -15 -9 -21l-320 -295l328 -310c6 -5.33301 9.16699 -11.833 9.5 -19.5s-2.16699 -14.834 -7.5 -21.501c-4.66699 -6.66699 -11.667 -10 -21 -10
c-6.66699 0 -13.667 3 -21 9l-314 296c-10.667 10 -20 16.5 -28 19.5s-18 4.5 -30 4.5h-7v-299z" />
    <glyph glyph-name="L" unicode="L" horiz-adv-x="552" 
d="M110 673c0 8.66699 2.83398 15.834 8.50098 21.501s12.5 8.5 20.5 8.5s14.833 -2.83301 20.5 -8.5s8.5 -12.834 8.5 -21.501v-614h349c7.33301 0 14.166 -3 20.499 -9s9.5 -13 9.5 -21c0 -8.66699 -3 -15.667 -9 -21s-13 -8 -21 -8h-348c-19.333 -0 -34 5.83301 -44 17.5
s-15 25.5 -15 41.5v614z" />
    <glyph glyph-name="M" unicode="M" horiz-adv-x="916" 
d="M698 643c-0.666992 3.33301 -1.83008 6.16699 -3.49707 8.5s-4.5 3.5 -8.5 3.5c-6 0 -10 -3.66699 -12 -11l-146 -579c-12 -43.333 -35.667 -65 -71 -65c-36 0 -59.667 21.667 -71 65l-144 579c-2 7.33301 -6.33301 11 -13 11c-4 0 -6.83301 -1.16699 -8.5 -3.5
s-2.83398 -5.16602 -3.50098 -8.49902l-92 -621c-3.33301 -18 -12.666 -27 -27.999 -27c-11.333 0 -19.5 3.66699 -24.5 11s-6.83301 15 -5.5 23l93 619c3.33301 20.667 11.333 36 24 46s28 15 46 15c17.333 0 32.166 -4.83301 44.499 -14.5s20.5 -22.5 24.5 -38.5l148 -593
c0.666992 -2.66699 2 -5.16699 4 -7.5s4.66699 -3.5 8 -3.5c4 0 6.83301 1.16699 8.5 3.5s2.83398 4.83301 3.50098 7.5l146 593c4 16 12.167 28.833 24.5 38.5s27.166 14.5 44.499 14.5s32.333 -5 45 -15s20.667 -25.333 24 -46l95 -619
c1.33301 -7.33301 -0.333984 -14.833 -5.00098 -22.5s-12.334 -11.5 -23.001 -11.5c-7.33301 0 -13.833 2.16699 -19.5 6.5s-9.16699 10.166 -10.5 17.499z" />
    <glyph glyph-name="N" unicode="N" horiz-adv-x="769" 
d="M603 62l1.99902 0.00195312l-2 60.5c-0.666992 20.333 -1 47.5 -1 81.5v469c0 8.66699 2.83301 15.834 8.5 21.501s12.5 8.5 20.5 8.5s14.833 -2.83301 20.5 -8.5s8.5 -12.834 8.5 -21.501v-621c0 -14.667 -4.66699 -27.334 -14 -38.001s-20.666 -16 -33.999 -16
c-23.333 0 -41.333 9.66699 -54 29l-389 617h-3c0.666992 -19.333 1.16699 -40 1.5 -62s0.5 -50.333 0.5 -85v-471c0 -8 -2.83301 -15 -8.5 -21s-12.5 -9 -20.5 -9s-14.833 3 -20.5 9s-8.5 13 -8.5 21v621c0 17.333 4.83301 31.166 14.5 41.499s22.834 15.5 39.501 15.5
c10 0 19.667 -2.33301 29 -7s17.666 -12.667 24.999 -24z" />
    <glyph glyph-name="O" unicode="O" horiz-adv-x="727" 
d="M362 -9c-39.333 0 -75.833 6.99902 -109.5 20.999s-63.167 33.5 -88.5 58.5s-45.666 54.5 -60.999 88.5s-24.333 70.667 -27 110c-4 53.333 -4 107.333 0 162c2.66699 38.667 11.667 74.834 27 108.501s35.666 63 60.999 88s54.833 44.667 88.5 59
s70.167 21.5 109.5 21.5s76 -7.16699 110 -21.5s63.833 -33.833 89.5 -58.5s46.334 -54 62.001 -88s24.834 -70.333 27.501 -109c4 -54.667 4 -108.667 0 -162c-2.66699 -39.333 -11.834 -76 -27.501 -110s-36.334 -63.5 -62.001 -88.5s-55.5 -44.5 -89.5 -58.5
s-70.667 -21 -110 -21zM362 48.999c31.333 0 60.499 5.5 87.499 16.5s50.5 26.167 70.5 45.5s36.167 42.333 48.5 69s20.166 55.667 23.499 87c4.66699 54.667 4.66699 109.667 0 165c-3.33301 31.333 -11.166 60.333 -23.499 87s-28.666 49.667 -48.999 69
s-43.833 34.5 -70.5 45.5s-55.667 16.5 -87 16.5s-60.166 -5.5 -86.499 -16.5s-49.333 -26.167 -69 -45.5s-35.834 -42.333 -48.501 -69s-20.334 -55.667 -23.001 -87c-5.33301 -55.333 -5.33301 -110.333 0 -165c2.66699 -31.333 10.334 -60.333 23.001 -87
s28.834 -49.667 48.501 -69s42.667 -34.5 69 -45.5s55.166 -16.5 86.499 -16.5z" />
    <glyph glyph-name="P" unicode="P" horiz-adv-x="642" 
d="M363 332c30 0 55.5 3.83203 76.5 11.499s38.167 18.334 51.5 32.001s23 30 29 49s9 39.833 9 62.5c0 46 -13.167 83.167 -39.5 111.5s-66.833 42.5 -121.5 42.5h-200v-309h195zM168 273.999v-247.999c0 -8 -3 -15 -9 -21s-12.667 -9 -20 -9c-8 0 -14.833 3 -20.5 9
s-8.5 13 -8.5 21v616c0 15.333 4.83301 28.666 14.5 39.999s24.167 17 43.5 17h202c30 0 58.167 -4.83301 84.5 -14.5s49.5 -23.5 69.5 -41.5s35.833 -40 47.5 -66s17.5 -55.667 17.5 -89c0 -34 -5.66699 -64.333 -17 -91s-27 -49 -47 -67s-44 -31.833 -72 -41.5
s-58.333 -14.5 -91 -14.5h-194z" />
    <glyph glyph-name="Q" unicode="Q" horiz-adv-x="728" 
d="M649 -63c4 -4.66699 6.16406 -9.66797 6.49707 -15.001s-0.5 -10.5 -2.5 -15.5s-5.16699 -9.16699 -9.5 -12.5s-9.5 -5 -15.5 -5c-9.33301 0 -17 3.33301 -23 10l-104 127c-41.333 -23.333 -87.666 -35 -138.999 -35c-39.333 0 -75.833 7 -109.5 21
s-63.167 33.5 -88.5 58.5s-45.666 54.5 -60.999 88.5s-24.333 70.667 -27 110c-4 53.333 -4 107.333 0 162c2.66699 38.667 11.667 74.834 27 108.501s35.666 63 60.999 88s54.833 44.667 88.5 59s70.167 21.5 109.5 21.5s76 -7.16699 110 -21.5s63.833 -33.833 89.5 -58.5
s46.334 -54 62.001 -88s24.834 -70.333 27.501 -109c4 -54.667 4 -108.667 0 -162c-3.33301 -43.333 -13.833 -82.833 -31.5 -118.5s-41.167 -66.167 -70.5 -91.5zM348.997 221.999c0 7.33301 2.66504 14 7.99805 20s12 9 20 9c9.33301 0 17 -3.33301 23 -10l112 -137
c46 40 72.667 94.333 80 163c4.66699 54.667 4.66699 109.667 0 165c-3.33301 31.333 -11.166 60.333 -23.499 87s-28.666 49.667 -48.999 69s-43.833 34.5 -70.5 45.5s-55.667 16.5 -87 16.5s-60.166 -5.5 -86.499 -16.5s-49.333 -26.167 -69 -45.5
s-35.834 -42.333 -48.501 -69s-20.334 -55.667 -23.001 -87c-5.33301 -55.333 -5.33301 -110.333 0 -165c2.66699 -31.333 10.334 -60.333 23.001 -87s28.834 -49.667 48.501 -69s42.667 -34.5 69 -45.5s55.166 -16.5 86.499 -16.5c37.333 0 71.333 7.66699 102 23l-107 131
c-5.33301 6.66699 -8 13 -8 19z" />
    <glyph glyph-name="R" unicode="R" horiz-adv-x="678" 
d="M612 24c0 -8 -2.83398 -14.667 -8.50098 -20s-12.5 -8 -20.5 -8c-9.33301 0 -17 3.66699 -23 11l-197 247c-8 10 -15.833 17.833 -23.5 23.5s-18.5 8.5 -32.5 8.5h-139v-260c0 -8 -3 -15 -9 -21s-12.667 -9 -20 -9c-8 0 -14.833 3 -20.5 9s-8.5 13 -8.5 21v616
c0 15.333 4.83301 28.666 14.5 39.999s24.167 17 43.5 17h202c31.333 0 60.333 -4.5 87 -13.5s49.834 -22.333 69.501 -40s35 -39.5 46 -65.5s16.5 -56 16.5 -90c0 -60 -16.667 -106 -50 -138s-78 -51.667 -134 -59l201 -250c4 -5.33301 6 -11.666 6 -18.999zM353.999 344
c32 0 59.333 3.5 82 10.5s41 17 55 30s24.167 28.667 30.5 47s9.5 38.5 9.5 60.5c0 45.333 -13.333 81.5 -40 108.5s-67.667 40.5 -123 40.5h-200v-297h186z" />
    <glyph glyph-name="S" unicode="S" horiz-adv-x="612" 
d="M322 384c42.667 -8 79.5 -17.3311 110.5 -27.998s56.333 -23.334 76 -38.001s34.167 -32.167 43.5 -52.5s14 -44.5 14 -72.5c0 -62 -21.5 -111.167 -64.5 -147.5s-103.5 -54.5 -181.5 -54.5c-52.667 0 -97.834 6.5 -135.501 19.5s-72.5 30.5 -104.5 52.5
c-10 6.66699 -15 15.334 -15 26.001c0 9.33301 2.83301 16.666 8.5 21.999s12.834 8 21.501 8c3.33301 0 6.66602 -0.5 9.99902 -1.5s7.33301 -3.16699 12 -6.5c12.667 -9.33301 25.667 -17.833 39 -25.5s27.833 -14.167 43.5 -19.5s33.167 -9.66602 52.5 -12.999
s41.666 -5 66.999 -5c59.333 0 105.5 12.833 138.5 38.5s49.5 61.167 49.5 106.5c0 17.333 -3.16699 32.666 -9.5 45.999s-17 25.166 -32 35.499s-35.167 19.5 -60.5 27.5s-57 15.667 -95 23c-80.667 14.667 -139.167 36.667 -175.5 66s-54.5 70.666 -54.5 123.999
c0 60 20.333 107.167 61 141.5s98 51.5 172 51.5c39.333 0 75.833 -5.16699 109.5 -15.5s60.834 -24.166 81.501 -41.499c7.33301 -6 11 -14 11 -24c0 -8 -2.66699 -14.833 -8 -20.5s-11.666 -8.5 -18.999 -8.5c-5.33301 0 -10 1 -14 3s-7.33301 4 -10 6
c-21.333 12.667 -44.333 23 -69 31s-52 12 -82 12c-32 0 -59.167 -3.66699 -81.5 -11s-40.5 -17 -54.5 -29s-24 -26.167 -30 -42.5s-9 -33.5 -9 -51.5s2.83301 -33.833 8.5 -47.5s15.5 -25.5 29.5 -35.5s32.833 -19 56.5 -27s53.5 -15.333 89.5 -22z" />
    <glyph glyph-name="T" unicode="T" horiz-adv-x="592" 
d="M268 641h-216.001c-8.66699 0 -16 2.83301 -22 8.5s-9 12.5 -9 20.5s3 14.833 9 20.5s13.333 8.5 22 8.5h488c8.66699 0 15.834 -2.83301 21.501 -8.5s8.5 -12.5 8.5 -20.5s-3 -14.833 -9 -20.5s-13 -8.5 -21 -8.5h-214v-615c0 -8.66699 -2.66699 -15.834 -8 -21.501
s-12.333 -8.5 -21 -8.5s-15.667 2.83301 -21 8.5s-8 12.834 -8 21.501v615z" />
    <glyph glyph-name="U" unicode="U" horiz-adv-x="748" 
d="M649 276c0 -42 -6.99707 -80.5 -20.9971 -115.5s-33.167 -65 -57.5 -90s-53.333 -44.5 -87 -58.5s-70.167 -21 -109.5 -21s-75.833 7 -109.5 21s-62.834 33.5 -87.501 58.5s-43.834 55 -57.501 90s-20.5 73.5 -20.5 115.5v397c0 8.66699 2.83301 15.834 8.5 21.501
s12.5 8.5 20.5 8.5c8.66699 0 15.667 -2.83301 21 -8.5s8 -12.834 8 -21.501v-392c0 -36 5.5 -68.333 16.5 -97s26.167 -53 45.5 -73s42.166 -35.333 68.499 -46s55.166 -16 86.499 -16c30.667 0 59.334 5.33301 86.001 16s49.667 26 69 46s34.5 44.333 45.5 73
s16.5 61 16.5 97v392c0 8.66699 2.83301 15.834 8.5 21.501s12.5 8.5 20.5 8.5c8.66699 0 15.667 -2.83301 21 -8.5s8 -12.834 8 -21.501v-397z" />
    <glyph glyph-name="V" unicode="V" horiz-adv-x="656" 
d="M26 673c0 7.33301 2.50488 14.167 7.50488 20.5s12.167 9.5 21.5 9.5c13.333 0 22.666 -6 27.999 -18l231 -625c1.33301 -2.66699 3.16602 -5.16699 5.49902 -7.5s5.16602 -3.5 8.49902 -3.5s6 1.16699 8 3.5s3.66699 4.83301 5 7.5l231 623
c2.66699 7.33301 6.66699 12.5 12 15.5s10.666 4.5 15.999 4.5c11.333 0 19.666 -4.33301 24.999 -13s6 -18 2 -28l-227 -612c-14.667 -39.333 -38.667 -59 -72 -59s-57.333 19.667 -72 59l-228 613c-1.33301 4 -2 7.33301 -2 10z" />
    <glyph glyph-name="W" unicode="W" horiz-adv-x="916" 
d="M42 667c-2.66699 10 -1.16602 18.833 4.50098 26.5s13.834 11.5 24.501 11.5c7.33301 0 13.5 -2.16699 18.5 -6.5s8.16699 -9.83301 9.5 -16.5l140 -630c0.666992 -3.33301 2.16699 -5 4.5 -5s4.16602 1.66699 5.49902 5l159 601c4 15.333 11 27.5 21 36.5
s23.333 13.5 40 13.5c17.333 0 30.833 -4.66699 40.5 -14s16.5 -21.333 20.5 -36l156 -602c1.33301 -3.33301 3.16602 -5 5.49902 -5s3.83301 1.66699 4.5 5l143 629c1.33301 7.33301 4.66602 13.333 9.99902 18s11.666 7 18.999 7c11.333 0 19.5 -3.83301 24.5 -11.5
s6.16699 -16.5 3.5 -26.5l-144 -628c-3.33301 -14.667 -10.166 -26.334 -20.499 -35.001s-23.5 -13 -39.5 -13c-32 0 -52 16 -60 48l-159 602c-1.33301 3.33301 -3 5 -5 5s-3.66699 -1.66699 -5 -5l-161 -602c-8 -32 -28 -48 -60 -48c-16 0 -29.167 4.33301 -39.5 13
s-17.166 20.334 -20.499 35.001l-140 628v0z" />
    <glyph glyph-name="X" unicode="X" horiz-adv-x="637" 
d="M573 703c8 0 14.667 -2.66699 20 -8s8 -12 8 -20c0 -6.66699 -2 -13 -6 -19l-241 -308l238 -303c4.66699 -7.33301 7 -13.666 7 -18.999c0 -7.33301 -3 -14 -9 -20s-13 -9 -21 -9c-9.33301 0 -17 4 -23 12l-227 293l-228 -293c-6 -8 -13.667 -12 -23 -12
c-8 0 -15 3 -21 9s-9 12.667 -9 20c0 5.33301 2.33301 11.666 7 18.999l237 304l-239 306c-4 6 -6 12.333 -6 19c0 7.33301 2.66699 14 8 20s12 9 20 9c10 0 18 -4 24 -12l229 -296l231 297c6 7.33301 14 11 24 11z" />
    <glyph glyph-name="Y" unicode="Y" horiz-adv-x="641" 
d="M594 704c7.33301 0 14 -2.83203 20 -8.49902s9 -12.167 9 -19.5s-2.66699 -14.333 -8 -21l-238 -294c-8 -10 -14.5 -18.5 -19.5 -25.5s-7.5 -17.5 -7.5 -31.5v-278c0 -8.66699 -2.83301 -15.834 -8.5 -21.501s-12.5 -8.5 -20.5 -8.5s-14.833 3 -20.5 9s-8.5 13 -8.5 21
v278c0 14 -2.83301 24.667 -8.5 32l-20.5 26l-237 293c-5.33301 6.66699 -8 13.667 -8 21s3 13.833 9 19.5s12.667 8.5 20 8.5c9.33301 0 17 -3.66699 23 -11l251 -312l250 312c6 7.33301 13.667 11 23 11z" />
    <glyph glyph-name="Z" unicode="Z" horiz-adv-x="582" 
d="M121 0c-20 0 -35.333 5.33496 -46 16.002s-16 24 -16 40c0 13.333 4.66699 26.666 14 39.999l387 545h-367c-8.66699 0 -16 2.83301 -22 8.5s-9 12.5 -9 20.5s3 14.833 9 20.5s13.333 8.5 22 8.5h361c20 0 35.5 -5.33301 46.5 -16s16.5 -24.334 16.5 -41.001
c0 -7.33301 -1.66699 -14.5 -5 -21.5s-8 -15.167 -14 -24.5l-383 -537h395c8.66699 0 15.834 -3 21.501 -9s8.5 -13 8.5 -21s-2.83301 -14.833 -8.5 -20.5s-12.834 -8.5 -21.501 -8.5h-389z" />
    <glyph glyph-name="bracketleft" unicode="[" horiz-adv-x="349" 
d="M338 -146c0 -8.66699 -2.83301 -15.668 -8.5 -21.001s-12.834 -8 -21.501 -8h-145c-20 0 -35.167 6 -45.5 18s-15.5 26 -15.5 42v848c0 16.667 5.16699 30.834 15.5 42.501s25.5 17.5 45.5 17.5h145c8.66699 0 15.834 -2.66699 21.501 -8s8.5 -12.333 8.5 -21
c0 -7.33301 -3 -14 -9 -20s-13 -9 -21 -9h-148v-852h148c8 0 15 -3 21 -9s9 -12.667 9 -20z" />
    <glyph glyph-name="backslash" unicode="\" horiz-adv-x="331" 
d="M3 760c7.33301 2.66699 14.8311 2.33398 22.498 -0.999023s13.167 -9.33301 16.5 -18l302 -762c3.33301 -8 3.5 -15.833 0.5 -23.5s-8.83301 -13.167 -17.5 -16.5c-7.33301 -2.66699 -14.666 -2.33398 -21.999 0.999023s-12.666 9 -15.999 17l-302 761
c-3.33301 8.66699 -3.5 17 -0.5 25s8.5 13.667 16.5 17z" />
    <glyph glyph-name="bracketright" unicode="]" horiz-adv-x="349" 
d="M11 -148c0 8 3.16797 14.832 9.50098 20.499s13.166 8.5 20.499 8.5h148v853h-148c-7.33301 0 -14.166 2.83301 -20.499 8.5s-9.5 12.167 -9.5 19.5c0 8.66699 2.83301 15.834 8.5 21.501s12.834 8.5 21.501 8.5h146c19.333 0 34.166 -6 44.499 -18s15.5 -26 15.5 -42
v-848c0 -16 -5 -30 -15 -42s-25 -18 -45 -18h-146c-8.66699 0 -15.834 2.66699 -21.501 8s-8.5 12 -8.5 20z" />
    <glyph glyph-name="asciicircum" unicode="^" horiz-adv-x="645" 
d="M323 652c-6.66699 0 -11.332 -3.33301 -13.999 -10l-104 -269c-3.33301 -7.33301 -8.83301 -12.833 -16.5 -16.5s-15.5 -3.83398 -23.5 -0.500977c-7.33301 3.33301 -12.833 9 -16.5 17s-3.83398 15.667 -0.500977 23l94 242c9.33301 22 20.333 39 33 51s28.667 18 48 18
c18.667 0 34.5 -6 47.5 -18s23.833 -29 32.5 -51l94 -242c3.33301 -7.33301 3.33301 -15 0 -23s-9 -13.667 -17 -17c-7.33301 -3.33301 -14.833 -3.16602 -22.5 0.500977s-13.167 9.16699 -16.5 16.5l-105 269c-2.66699 6.66699 -7 10 -13 10z" />
    <glyph glyph-name="underscore" unicode="_" horiz-adv-x="472" 
d="M472 -195h-472v61h472v-61z" />
    <glyph glyph-name="grave" unicode="`" 
d="M251 802c9.33301 -4.66699 14 -12.332 14 -22.999c0 -7.33301 -2.5 -13.5 -7.5 -18.5s-11.167 -7.5 -18.5 -7.5c-3.33301 0 -6 0.333008 -8 1s-4 1.66699 -6 3l-135 69c-3.33301 2 -6.5 5.16699 -9.5 9.5s-4.5 9.16602 -4.5 14.499c0 7.33301 2.5 13.5 7.5 18.5
s11.167 7.5 18.5 7.5c6 0 11 -1.33301 15 -4z" />
    <glyph glyph-name="a" unicode="a" horiz-adv-x="562" 
d="M473 73c0 -5.33301 -0.834961 -10.1709 -2.50195 -14.5039s-5.16699 -8.5 -10.5 -12.5c-6.66699 -5.33301 -16.334 -11.166 -29.001 -17.499s-27.5 -12.166 -44.5 -17.499s-36.167 -10 -57.5 -14s-44.333 -6 -69 -6c-62.667 0 -110.334 14.833 -143.001 44.5
s-49 69.834 -49 120.501c0 22.667 4.16699 43.834 12.5 63.501s20.666 36.834 36.999 51.501s36.833 26.167 61.5 34.5s53.334 12.5 86.001 12.5c25.333 0 49.166 -1.83301 71.499 -5.5s48.5 -9.5 78.5 -17.5v43c0 46.667 -11.167 80.167 -33.5 100.5
s-56.5 30.5 -102.5 30.5c-25.333 0 -49.166 -3.16699 -71.499 -9.5s-41.166 -12.833 -56.499 -19.5c-13.333 -5.33301 -24 -5.16602 -32 0.500977s-12 13.167 -12 22.5c0 5.33301 1.33301 10.666 4 15.999s7.33398 9.66602 14.001 12.999
c16.667 8.66699 38.834 16.667 66.501 24s56.834 11 87.501 11c63.333 0 111.5 -14 144.5 -42s49.5 -74 49.5 -138v-274zM268.998 47.9951c26 0 52.833 4.16699 80.5 12.5s49.5 18.5 65.5 30.5v147c-29.333 8 -55 14.167 -77 18.5s-45 6.5 -69 6.5
c-49.333 0 -85.5 -10.5 -108.5 -31.5s-34.5 -46.5 -34.5 -76.5c0 -34 11.5 -60.333 34.5 -79s59.167 -28 108.5 -28z" />
    <glyph glyph-name="b" unicode="b" horiz-adv-x="601" 
d="M521 331c0.666992 -8.66699 1.16699 -19.332 1.5 -31.999s0.5 -25.5 0.5 -38.5s-0.166992 -25.667 -0.5 -38s-0.833008 -22.833 -1.5 -31.5c-5.33301 -62.667 -26 -111.834 -62 -147.501s-87 -53.5 -153 -53.5c-21.333 0 -42.333 2.33301 -63 7
s-39.5 10.334 -56.5 17.001s-31.833 13.5 -44.5 20.5s-22 12.5 -28 16.5s-9.83301 8.16699 -11.5 12.5s-2.5 9.16602 -2.5 14.499v599c0 8.66699 2.83301 15.834 8.5 21.501s12.834 8.5 21.501 8.5c7.33301 0 13.833 -2.83301 19.5 -8.5s8.5 -12.834 8.5 -21.501v-184
c19.333 8 42.5 15.667 69.5 23s55.5 11 85.5 11c62.667 0 111.667 -16.833 147 -50.5s55.666 -82.167 60.999 -145.5zM463 189.002c0.666992 9.33301 1.16602 20.5 1.49902 33.5s0.5 26.167 0.5 39.5s-0.166992 26.166 -0.5 38.499s-0.833008 22.5 -1.5 30.5
c-3.33301 46 -16.833 80.833 -40.5 104.5s-59.167 35.5 -106.5 35.5c-34 0 -65.5 -4.5 -94.5 -13.5s-50.167 -17.5 -63.5 -25.5v-341c6 -4.66699 14.5 -9.66699 25.5 -15s23.333 -10.166 37 -14.499s27.834 -8 42.501 -11s28.667 -4.5 42 -4.5c95.333 0 148 47.667 158 143z
" />
    <glyph glyph-name="c" unicode="c" horiz-adv-x="556" 
d="M298 46c28 0 55.3359 7.66797 82.0029 23.001s46 39 58 71c3.33301 10 7.83301 17 13.5 21s12.167 6 19.5 6s13.5 -2.66699 18.5 -8s7.5 -12.666 7.5 -21.999c0 -10 -4 -23.333 -12 -40s-20.167 -33 -36.5 -49s-36.833 -29.667 -61.5 -41s-54 -17 -88 -17
c-32 0 -61.167 5.16699 -87.5 15.5s-49 24.5 -68 42.5s-34 39.333 -45 64s-17.5 51 -19.5 79c-0.666992 10 -1.16699 21 -1.5 33s-0.5 24.167 -0.5 36.5s0.166992 24.666 0.5 36.999s0.833008 23.5 1.5 33.5c1.33301 29.333 7.66602 56 18.999 80s26.666 44.667 45.999 62
s42.166 30.666 68.499 39.999s55.166 14 86.499 14c34 0 63.333 -5.66699 88 -17s45 -24.666 61 -39.999s27.833 -31.333 35.5 -48s11.5 -30 11.5 -40s-2.66699 -17.667 -8 -23s-12 -8 -20 -8c-7.33301 0 -13.5 2 -18.5 6s-9.16699 11 -12.5 21
c-11.333 31.333 -30.166 54.666 -56.499 69.999s-53.5 23 -81.5 23c-23.333 0 -44.5 -3.5 -63.5 -10.5s-35.5 -16.667 -49.5 -29s-25.167 -27 -33.5 -44s-12.833 -35.833 -13.5 -56.5c-0.666992 -9.33301 -1.16699 -20.166 -1.5 -32.499s-0.5 -25 -0.5 -38
s0.166992 -25.833 0.5 -38.5s0.833008 -23.334 1.5 -32.001c3.33301 -42 19 -76.5 47 -103.5s65.667 -40.5 113 -40.5z" />
    <glyph glyph-name="d" unicode="d" horiz-adv-x="601" 
d="M80 331c5.33301 63.333 25.667 111.834 61 145.501s84.333 50.5 147 50.5c30 0 58.5 -3.66699 85.5 -11s50.167 -15 69.5 -23v184c0 8.66699 2.83301 15.834 8.5 21.501s12.5 8.5 20.5 8.5s14.833 -2.83301 20.5 -8.5s8.5 -12.834 8.5 -21.501v-599
c0 -5.33301 -0.666992 -10.166 -2 -14.499s-5 -8.5 -11 -12.5c-5.33301 -4 -14.333 -9.5 -27 -16.5s-27.667 -13.833 -45 -20.5s-36.333 -12.334 -57 -17.001s-42 -7 -64 -7c-66 0 -117 17.833 -153 53.5s-56.667 84.834 -62 147.501
c-0.666992 8.66699 -1.16699 19.167 -1.5 31.5s-0.5 25.166 -0.5 38.499s0.166992 26.166 0.5 38.499s0.833008 22.833 1.5 31.5zM139.001 189.001c5.33301 -48 20.6689 -83.832 46.002 -107.499s62.333 -35.5 111 -35.5c13.333 0 27.333 1.5 42 4.5
s28.834 6.66699 42.501 11s26 9.16602 37 14.499s19.5 10.333 25.5 15v341c-13.333 8 -34.5 16.5 -63.5 25.5s-60.5 13.5 -94.5 13.5c-47.333 0 -82.333 -11.667 -105 -35s-36.334 -58 -41.001 -104c-0.666992 -8 -1.33398 -18.167 -2.00098 -30.5s-1 -25.333 -1 -39
s0.166992 -27 0.5 -40s1.16602 -24.167 2.49902 -33.5z" />
    <glyph glyph-name="e" unicode="e" horiz-adv-x="574" 
d="M506 285c0 -16 -4.66797 -28.8311 -14.001 -38.498s-24 -14.5 -44 -14.5h-311v-20c0 -53.333 15 -94.333 45 -123s69.667 -43 119 -43c36 0 78.667 9 128 27c14 5.33301 25 4.83301 33 -1.5s12 -13.833 12 -22.5c0 -4.66699 -1.16699 -9.33398 -3.5 -14.001
s-6.83301 -9 -13.5 -13c-15.333 -9.33301 -36.666 -17 -63.999 -23s-57.666 -9 -90.999 -9c-35.333 0 -66.333 5.33301 -93 16s-49.334 25.5 -68.001 44.5s-33 41.833 -43 68.5s-16 56.334 -18 89.001c-1.33301 18 -1.83301 38 -1.5 60s1.16602 40.667 2.49902 56
c2 32 8.83301 60.5 20.5 85.5s27 46.167 46 63.5s41.167 30.666 66.5 39.999s53 14 83 14c32.667 0 61.834 -5.16699 87.501 -15.5s47.5 -24.833 65.5 -43.5s31.833 -40.834 41.5 -66.501s14.5 -53.5 14.5 -83.5v-33zM432.999 288.002
c9.33301 0 14.334 4.66504 15.001 13.998c2 26 -0.333008 49.333 -7 70s-16.667 38.334 -30 53.001s-29.833 26 -49.5 34s-41.5 12 -65.5 12c-54 0 -94.333 -16.167 -121 -48.5s-39.334 -77.166 -38.001 -134.499h296z" />
    <glyph glyph-name="f" unicode="f" horiz-adv-x="373" 
d="M113 561c0 22 2.99902 42.3311 8.99902 60.998s15.167 34.834 27.5 48.501s27.833 24.334 46.5 32.001s40.667 11.5 66 11.5c13.333 0 28.333 -1 45 -3s30.667 -5 42 -9c12.667 -4.66699 19 -13.667 19 -27c0 -6.66699 -2.33301 -12.667 -7 -18s-11.667 -8 -21 -8
s-19.333 1.5 -30 4.5s-28 4.5 -52 4.5c-31.333 0 -53.666 -9.16699 -66.999 -27.5s-20 -43.833 -20 -76.5v-47h151c7.33301 0 14 -2.66699 20 -8s9 -12.333 9 -21c0 -7.33301 -3 -13.666 -9 -18.999s-12.667 -8 -20 -8h-151v-425c0 -8.66699 -2.66699 -15.834 -8 -21.501
s-12.333 -8.5 -21 -8.5c-7.33301 0 -14 2.83301 -20 8.5s-9 12.834 -9 21.501v425h-39c-8.66699 0 -15.834 2.66699 -21.501 8s-8.5 11.666 -8.5 18.999c0 8.66699 2.83301 15.667 8.5 21s12.834 8 21.501 8h39v54z" />
    <glyph glyph-name="g" unicode="g" horiz-adv-x="600" 
d="M499 39c0 -34.667 -4.99707 -65.834 -14.9971 -93.501s-24.167 -51 -42.5 -70s-40.166 -33.667 -65.499 -44s-53.333 -15.5 -84 -15.5c-40.667 0 -74.834 4.5 -102.501 13.5s-50.834 19.167 -69.501 30.5c-6.66699 4 -12.167 8.66699 -16.5 14s-6.5 12 -6.5 20
c0 7.33301 2.66699 13.833 8 19.5s12.333 8.5 21 8.5c5.33301 0 10.666 -1.33301 15.999 -4s11 -5.66699 17 -9c39.333 -24 83.666 -36 132.999 -36c20 0 39 3.33301 57 10s33.833 16.834 47.5 30.501s24.5 30.5 32.5 50.5s12 43.667 12 71v6
c-20.667 -10 -43 -19.167 -67 -27.5s-52.667 -12.5 -86 -12.5c-64.667 0 -114.334 17.833 -149.001 53.5s-54.667 84.834 -60 147.501c-0.666992 8.66699 -1.16699 18.5 -1.5 29.5s-0.5 22.167 -0.5 33.5s0.166992 22.5 0.5 33.5s0.833008 20.833 1.5 29.5
c5.33301 65.333 26.333 114.833 63 148.5s87 50.5 151 50.5c22.667 0 44.334 -1.83301 65.001 -5.5s39.5 -8.33398 56.5 -14.001s31.667 -11.5 44 -17.5s21.5 -11 27.5 -15c4 -3.33301 7.16699 -6.83301 9.5 -10.5s3.5 -10.167 3.5 -19.5v-406zM293.003 471
c-27.333 0 -50.3359 -3.66504 -69.0029 -10.998s-34.167 -17.333 -46.5 -30s-21.5 -27.667 -27.5 -45s-10 -36.333 -12 -57c-0.666992 -8.66699 -1.16699 -18.834 -1.5 -30.501s-0.5 -23.5 -0.5 -35.5s0.166992 -23.333 0.5 -34s0.833008 -19.334 1.5 -26.001
c3.33301 -47.333 17.333 -83 42 -107s62.334 -36 113.001 -36c38.667 0 70.334 5.5 95.001 16.5s42.334 20.833 53.001 29.5v328l-11.5 6c-7.66699 4 -18 8.33301 -31 13s-28.5 9 -46.5 13s-37.667 6 -59 6z" />
    <glyph glyph-name="h" unicode="h" horiz-adv-x="612" 
d="M158 451c19.333 21.333 44.1641 39.332 74.4971 53.999s62.5 22 96.5 22c28 0 53.667 -4.16699 77 -12.5s43.5 -20.666 60.5 -36.999s30.167 -37 39.5 -62s14 -53.833 14 -86.5v-303c0 -8 -2.5 -15 -7.5 -21s-11.833 -9 -20.5 -9c-8 0 -15 3 -21 9s-9 13 -9 21v298
c0 46 -11.333 82 -34 108s-56.667 39 -102 39c-17.333 0 -34.166 -2.5 -50.499 -7.5s-31.666 -11.667 -45.999 -20s-27.666 -18 -39.999 -29s-22.833 -22.5 -31.5 -34.5v-354c0 -8 -2.83301 -15 -8.5 -21s-12.5 -9 -20.5 -9s-14.833 3 -20.5 9s-8.5 13 -8.5 21v651
c0 8.66699 2.66699 15.834 8 21.501s12.333 8.5 21 8.5c7.33301 0 14 -2.83301 20 -8.5s9 -12.834 9 -21.501v-226z" />
    <glyph glyph-name="i" unicode="i" horiz-adv-x="267" 
d="M174 653c0 -11.333 -4 -21 -12 -29s-17.667 -12 -29 -12s-20.666 4 -27.999 12s-11 17.667 -11 29s3.66699 20.833 11 28.5s16.666 11.5 27.999 11.5s21 -3.83301 29 -11.5s12 -17.167 12 -28.5zM133 520c8 0 15.001 -2.83301 21.001 -8.5s9 -12.834 9 -21.501v-464
c0 -8.66699 -2.83301 -15.834 -8.5 -21.501s-12.834 -8.5 -21.501 -8.5c-8 0 -14.667 2.83301 -20 8.5s-8 12.834 -8 21.501v464c0 8.66699 2.66699 15.834 8 21.501s12 8.5 20 8.5z" />
    <glyph glyph-name="j" unicode="j" horiz-adv-x="258" 
d="M40 -191c-8.66699 0 -15.832 2.66699 -21.499 8s-8.5 12.333 -8.5 21c0 8 2.66699 15 8 21c14.667 15.333 27 30.333 37 45s18 29.834 24 45.501s10.333 32.334 13 50.001s4 37.5 4 59.5v431c0 8.66699 2.66699 15.834 8 21.501s12.333 8.5 21 8.5
c8 0 14.833 -2.83301 20.5 -8.5s8.5 -12.834 8.5 -21.501v-436c0 -26.667 -2 -50.667 -6 -72s-9.66699 -41.333 -17 -60s-16.833 -36.334 -28.5 -53.001s-24.834 -33.334 -39.501 -50.001c-6 -6.66699 -13.667 -10 -23 -10zM165.002 653c0 -11.333 -3.83301 -21 -11.5 -29
s-17.167 -12 -28.5 -12c-12 0 -21.667 4 -29 12s-11 17.667 -11 29s3.66699 20.833 11 28.5s17 11.5 29 11.5c11.333 0 20.833 -3.83301 28.5 -11.5s11.5 -17.167 11.5 -28.5z" />
    <glyph glyph-name="k" unicode="k" horiz-adv-x="522" 
d="M493 24c0 -8 -3 -14.665 -9 -19.998s-12.667 -8 -20 -8s-14.333 2.66699 -21 8l-206 209c-10 10 -19.333 16.5 -28 19.5s-19 4.5 -31 4.5h-20v-211c0 -8.66699 -2.83301 -15.834 -8.5 -21.501s-12.5 -8.5 -20.5 -8.5s-14.833 3.16699 -20.5 9.5s-8.5 13.166 -8.5 20.499
v651c0 8.66699 2.83301 16 8.5 22s12.5 9 20.5 9c8.66699 0 15.667 -3 21 -9s8 -13.333 8 -22v-381h21c11.333 0 21.333 1.66699 30 5s18 10 28 20l199 194c6.66699 5.33301 13.667 8 21 8s13.833 -2.83301 19.5 -8.5s8.5 -12.167 8.5 -19.5c0 -8 -3.66699 -15.667 -11 -23
l-212 -203l221 -223c6.66699 -6.66699 10 -14 10 -22z" />
    <glyph glyph-name="l" unicode="l" horiz-adv-x="258" 
d="M129 708c8 0 14.833 -3 20.5 -9s8.5 -13.333 8.5 -22v-651c0 -8 -2.83301 -15 -8.5 -21s-12.5 -9 -20.5 -9s-14.833 3 -20.5 9s-8.5 13 -8.5 21v651c0 8.66699 2.66699 16 8 22s12.333 9 21 9z" />
    <glyph glyph-name="m" unicode="m" horiz-adv-x="881" 
d="M789 26c0 -8.66699 -2.66602 -15.834 -7.99902 -21.501s-12.333 -8.5 -21 -8.5c-8 0 -14.833 2.83301 -20.5 8.5s-8.5 12.834 -8.5 21.501v313c0 88 -42.667 132 -128 132c-30.667 0 -57.5 -5.5 -80.5 -16.5s-42.167 -22.833 -57.5 -35.5
c2.66699 -10.667 4.83398 -22 6.50098 -34s2.5 -25.667 2.5 -41v-318c0 -8.66699 -2.66699 -15.834 -8 -21.501s-12.333 -8.5 -21 -8.5c-8 0 -14.833 2.83301 -20.5 8.5s-8.5 12.834 -8.5 21.501v313c0 46 -10.167 79.5 -30.5 100.5s-51.5 31.5 -93.5 31.5
c-24 0 -44.5 -2 -61.5 -6s-30.833 -8.16699 -41.5 -12.5s-18.334 -8.5 -23.001 -12.5l-7 -6v-408c0 -8.66699 -2.83301 -15.834 -8.5 -21.501s-12.834 -8.5 -21.501 -8.5c-8 0 -14.667 2.83301 -20 8.5s-8 12.834 -8 21.501v418c0 7.33301 1.33301 13.333 4 18
s7.66699 9.66699 15 15c19.333 14.667 44 26.667 74 36s61.667 14 95 14c38.667 0 69.5 -5.66699 92.5 -17s42.167 -25.333 57.5 -42l27.5 18c10.333 6.66699 22.333 13 36 19s29 11.167 46 15.5s35.5 6.5 55.5 6.5c32.667 0 60.667 -4.33301 84 -13s42.5 -21 57.5 -37
s26 -35.167 33 -57.5s10.5 -47.5 10.5 -75.5v-318z" />
    <glyph glyph-name="n" unicode="n" horiz-adv-x="613" 
d="M521 26c0 -8.66699 -2.50098 -15.832 -7.50098 -21.499s-12.167 -8.5 -21.5 -8.5c-8 0 -14.833 2.83301 -20.5 8.5s-8.5 12.834 -8.5 21.501v298c0 25.333 -4 47.333 -12 66s-18.667 34 -32 46s-29.166 20.833 -47.499 26.5s-37.833 8.5 -58.5 8.5
c-34 0 -64.667 -4.16699 -92 -12.5s-48.333 -17.166 -63 -26.499v-406c0 -8.66699 -2.66699 -15.834 -8 -21.501s-12.333 -8.5 -21 -8.5c-8 0 -14.833 2.83301 -20.5 8.5s-8.5 12.834 -8.5 21.501v417c0 8 1 14.167 3 18.5s5.66699 8.16602 11 11.499
c6.66699 5.33301 16.167 11.166 28.5 17.499s27 12.166 44 17.499s36.167 9.83301 57.5 13.5s45 5.5 71 5.5c68.667 0 120.167 -17.5 154.5 -52.5s51.5 -84.5 51.5 -148.5v-300z" />
    <glyph glyph-name="o" unicode="o" horiz-adv-x="592" 
d="M296 527c30 0 57.833 -4.83301 83.5 -14.5s48 -23.167 67 -40.5s34.333 -38 46 -62s18.167 -50.667 19.5 -80c1.33301 -20 2 -43.167 2 -69.5s-0.666992 -49.5 -2 -69.5c-1.33301 -28.667 -7.83301 -55.334 -19.5 -80.001s-27 -46 -46 -64s-41.333 -32 -67 -42
s-53.5 -15 -83.5 -15s-58 5 -84 15s-48.5 24 -67.5 42s-34.333 39.333 -46 64s-18.167 51.334 -19.5 80.001c-1.33301 20 -2 43.167 -2 69.5s0.666992 49.5 2 69.5c1.33301 29.333 7.83301 56 19.5 80s27 44.667 46 62s41.5 30.833 67.5 40.5s54 14.5 84 14.5zM296 471
c-23.333 0 -44.332 -3.5 -62.999 -10.5s-34.834 -16.833 -48.501 -29.5s-24.5 -27.5 -32.5 -44.5s-12.667 -35.833 -14 -56.5c-0.666992 -9.33301 -1.16699 -20.166 -1.5 -32.499s-0.5 -25 -0.5 -38s0.166992 -25.667 0.5 -38s0.833008 -22.833 1.5 -31.5
c4 -43.333 20.167 -78.166 48.5 -104.499s64.833 -39.5 109.5 -39.5s81 13.167 109 39.5s44 61.166 48 104.499c0.666992 8.66699 1.16699 19.167 1.5 31.5s0.5 25 0.5 38s-0.166992 25.667 -0.5 38s-0.833008 23.166 -1.5 32.499c-1.33301 20.667 -6 39.5 -14 56.5
s-18.667 31.833 -32 44.5s-29.5 22.5 -48.5 29.5s-39.833 10.5 -62.5 10.5z" />
    <glyph glyph-name="p" unicode="p" horiz-adv-x="602" 
d="M521 186c-4.66699 -62.667 -25 -110.998 -61 -144.998s-88.333 -51 -157 -51c-28 0 -54.5 3.83301 -79.5 11.5s-46.5 15.5 -64.5 23.5v-185c0 -8.66699 -2.83301 -15.834 -8.5 -21.501s-12.5 -8.5 -20.5 -8.5c-8.66699 0 -15.667 2.83301 -21 8.5s-8 12.834 -8 21.501
v599c0 5.33301 0.666992 10.333 2 15s5.33301 9.33398 12 14.001c6 4 15.5 9.33301 28.5 16s28.333 13.167 46 19.5s37 11.833 58 16.5s42.5 7 64.5 7c64.667 0 114.5 -17.167 149.5 -51.5s54.833 -82.833 59.5 -145.5c0.666992 -8.66699 1.16699 -19.334 1.5 -32.001
s0.5 -25.834 0.5 -39.501s-0.166992 -26.834 -0.5 -39.501s-0.833008 -23.667 -1.5 -33zM461 329.002c-4 48 -18.168 83.6689 -42.501 107.002s-60.166 35 -107.499 35c-14 0 -28.5 -1.5 -43.5 -4.5s-29.5 -6.66699 -43.5 -11s-26.833 -9.16602 -38.5 -14.499
s-20.5 -10.333 -26.5 -15v-339c6 -4 14 -8.33301 24 -13s21.5 -9.16699 34.5 -13.5s27 -7.83301 42 -10.5s30.167 -4 45.5 -4c51.333 0 89.333 11.833 114 35.5s38.667 58.5 42 104.5c0.666992 8 1.16699 18.167 1.5 30.5s0.5 25.166 0.5 38.499
s-0.166992 26.666 -0.5 39.999s-0.833008 24.666 -1.5 33.999z" />
    <glyph glyph-name="q" unicode="q" horiz-adv-x="601" 
d="M81 187c-0.666992 8.66699 -1.16895 19.335 -1.50195 32.002s-0.5 25.667 -0.5 39s0.166992 26.166 0.5 38.499s0.833008 22.833 1.5 31.5c5.33301 62.667 25.333 111.5 60 146.5s84.334 52.5 149.001 52.5c22 0 43.5 -2.33301 64.5 -7s40.333 -10 58 -16
s32.834 -12.333 45.501 -19s22 -12 28 -16c6.66699 -4.66699 10.834 -9.33398 12.501 -14.001s2.5 -9.66699 2.5 -15v-600c0 -8.66699 -2.83301 -15.834 -8.5 -21.501s-12.5 -8.5 -20.5 -8.5s-14.833 2.83301 -20.5 8.5s-8.5 12.834 -8.5 21.501v185
c-18.667 -8 -41 -15.833 -67 -23.5s-53.667 -11.5 -83 -11.5c-64.667 0 -114.834 17 -150.501 51s-56.167 82.667 -61.5 146zM138.998 327.001c-1.33301 -9.33301 -1.99902 -20.502 -1.99902 -33.502v-39.5c0 -13.333 0.166992 -26.166 0.5 -38.499
s0.833008 -22.5 1.5 -30.5c3.33301 -46 17.166 -80.667 41.499 -104s61.166 -35 110.499 -35c16 0 31.667 1.33301 47 4s29.833 5.83398 43.5 9.50098s25.834 7.83398 36.501 12.501s19 9 25 13v341c-6 4.66699 -14.833 9.66699 -26.5 15s-24.5 10.166 -38.5 14.499
s-28.667 8 -44 11s-30 4.5 -44 4.5c-92.667 0 -143 -48 -151 -144z" />
    <glyph glyph-name="r" unicode="r" horiz-adv-x="368" 
d="M335 517c16 -4.66699 24 -14.333 24 -29c0 -6 -2.33301 -11.833 -7 -17.5s-12.667 -8.5 -24 -8.5c-10.667 0 -21.334 1.5 -32.001 4.5s-25 4.5 -43 4.5c-34 0 -59.167 -7.83301 -75.5 -23.5s-24.5 -41.167 -24.5 -76.5v-344c0 -8.66699 -2.66699 -16 -8 -22
s-12.333 -9 -21 -9c-8 0 -14.833 3 -20.5 9s-8.5 13.333 -8.5 22v347c0 48 13.5 85.5 40.5 112.5s65.833 40.5 116.5 40.5c17.333 0 33.333 -1 48 -3s26.334 -4.33301 35.001 -7z" />
    <glyph glyph-name="s" unicode="s" horiz-adv-x="481" 
d="M294 284c46 -12.667 79.9971 -30.168 101.997 -52.501s33 -50.833 33 -85.5c0 -23.333 -4.16699 -44.666 -12.5 -63.999s-20.333 -35.833 -36 -49.5s-34.5 -24.167 -56.5 -31.5s-46.333 -11 -73 -11c-38 0 -71.333 4.33301 -100 13s-55.334 23.334 -80.001 44.001
c-6 5.33301 -9.83301 12.166 -11.5 20.499s-0.166992 15.833 4.5 22.5s11.167 10.5 19.5 11.5s16.166 -1.16699 23.499 -6.5l27 -19c8.66699 -6 18.334 -11.167 29.001 -15.5s23 -7.83301 37 -10.5s31 -4 51 -4c38.667 0 68.334 9.16699 89.001 27.5s31 41.5 31 69.5
c0 20.667 -6.66699 37.5 -20 50.5s-36 23.5 -68 31.5l-79 19c-87.333 21.333 -131 66.333 -131 135c0 46 16.167 82.167 48.5 108.5s75.5 39.5 129.5 39.5c28.667 0 55 -4.16699 79 -12.5s43 -17.833 57 -28.5c8 -6 12.333 -13.333 13 -22s-1.66602 -16 -6.99902 -22
c-5.33301 -5.33301 -11.833 -8.33301 -19.5 -9s-15.167 1.33301 -22.5 6c-17.333 10.667 -33.666 18.667 -48.999 24s-32.333 8 -51 8c-39.333 0 -69.166 -7.5 -89.499 -22.5s-30.5 -37.5 -30.5 -67.5c0 -18 6 -33.5 18 -46.5s34.667 -23.833 68 -32.5
c18 -4.66699 34.333 -8.5 49 -11.5s24 -5.16699 28 -6.5z" />
    <glyph glyph-name="t" unicode="t" horiz-adv-x="399" 
d="M332 8c-12 -4.66699 -26.1641 -8.83594 -42.4971 -12.5029s-34.5 -5.5 -54.5 -5.5c-24.667 0 -45.834 4 -63.501 12s-32.334 18.833 -44.001 32.5s-20.167 29.834 -25.5 48.501s-8 39 -8 61v449c0 8.66699 2.83301 16 8.5 22s12.167 9 19.5 9
c9.33301 0 16.666 -3 21.999 -9s8 -13.333 8 -22v-86h161c8 0 15 -2.66699 21 -8s9 -12.333 9 -21c0 -7.33301 -3 -13.666 -9 -18.999s-13 -8 -21 -8h-161v-312c0 -26 6.33301 -48 19 -66s33.334 -27 62.001 -27c18.667 0 35.167 2.5 49.5 7.5s27.166 9.16699 38.499 12.5
s20.833 2.33301 28.5 -3s11.5 -12.666 11.5 -21.999c0 -14.667 -9.66699 -25.667 -29 -33z" />
    <glyph glyph-name="u" unicode="u" horiz-adv-x="614" 
d="M92 490c0 8.66699 2.83203 15.834 8.49902 21.501s12.834 8.5 21.501 8.5c7.33301 0 13.833 -2.83301 19.5 -8.5s8.5 -12.834 8.5 -21.501v-304c0 -43.333 13.167 -77.5 39.5 -102.5s63.5 -37.5 111.5 -37.5c36 0 66.5 4.5 91.5 13.5s45.833 18.833 62.5 29.5v401
c0 8.66699 2.66699 15.834 8 21.501s12.333 8.5 21 8.5c8 0 14.833 -2.83301 20.5 -8.5s8.5 -12.834 8.5 -21.501v-413c0 -12.667 -4.33301 -21.667 -13 -27c-7.33301 -5.33301 -17 -11.5 -29 -18.5s-26.333 -13.5 -43 -19.5s-35.5 -11.167 -56.5 -15.5
s-44.5 -6.5 -70.5 -6.5c-30 0 -57.833 4.33301 -83.5 13s-47.667 21.5 -66 38.5s-32.833 37.833 -43.5 62.5s-16 53 -16 85v301z" />
    <glyph glyph-name="v" unicode="v" horiz-adv-x="503" 
d="M450 520c10.667 0 18.3301 -4.33301 22.9971 -13s5.33398 -17.667 2.00098 -27l-164 -440c-11.333 -30.667 -30.666 -46 -57.999 -46c-13.333 0 -25 4 -35 12s-17.667 19 -23 33l-167 441c-4 11.333 -3 20.833 3 28.5s13.333 11.5 22 11.5
c7.33301 0 13.166 -1.83301 17.499 -5.5s7.5 -8.16699 9.5 -13.5l168 -448c0.666992 -3.33301 2.33398 -5 5.00098 -5s4.33398 1.66699 5.00098 5l163 445c2.66699 6.66699 6.16699 12 10.5 16s10.5 6 18.5 6z" />
    <glyph glyph-name="w" unicode="w" horiz-adv-x="814" 
d="M412 465c-0.666992 2.66699 -2.33398 3.99902 -5.00098 3.99902s-4.33398 -1.33301 -5.00098 -4l-116 -430c-4.66699 -16.667 -12 -29 -22 -37s-22 -12 -36 -12c-30.667 0 -50.334 16 -59.001 48l-128 448c-3.33301 10.667 -2.16602 20 3.50098 28s13.167 12 22.5 12
c14.667 0 24.334 -7.66699 29.001 -23l128 -454c1.33301 -3.33301 3 -5 5 -5s3.66699 1.66699 5 5l111 424c4.66699 18.667 12.834 32.167 24.501 40.5s24.167 12.5 37.5 12.5c14 0 26.5 -4.16699 37.5 -12.5s19.167 -22.166 24.5 -41.499l112 -423
c1.33301 -3.33301 3 -5 5 -5s3.66699 1.66699 5 5l126 455c4 14.667 13.333 22 28 22c10.667 0 18.667 -4.33301 24 -13s6.33301 -17.667 3 -27l-128 -448c-4.66699 -16 -12.334 -28 -23.001 -36s-22.667 -12 -36 -12s-25.666 4 -36.999 12s-19 20 -23 36z" />
    <glyph glyph-name="x" unicode="x" horiz-adv-x="538" 
d="M484 24c0 -7.33301 -2.5 -14.001 -7.5 -20.001s-11.833 -9 -20.5 -9c-11.333 0 -20 4.33301 -26 13l-160 210l-161 -211c-6.66699 -8 -15 -12 -25 -12c-8 0 -14.833 3 -20.5 9s-8.5 12.667 -8.5 20c0 8 2.33301 14.667 7 20l171 220l-160 208
c-4.66699 5.33301 -7 12 -7 20c0 7.33301 2.66699 13.833 8 19.5s12 8.5 20 8.5c10 0 18.333 -4.33301 25 -13l150 -197l148 196c7.33301 9.33301 16 14 26 14c8 0 14.833 -3 20.5 -9s8.5 -12.667 8.5 -20c0 -8.66699 -2.33301 -15.667 -7 -21l-159 -207l171 -220
c4.66699 -5.33301 7 -11.666 7 -18.999z" />
    <glyph glyph-name="y" unicode="y" horiz-adv-x="502" 
d="M29 477c-4.66699 10.667 -4.3291 20.502 1.00391 29.502s13.333 13.5 24 13.5c8 0 14.333 -1.83301 19 -5.5s8 -8.16699 10 -13.5l171 -388c1.33301 -2.66699 2.66602 -4 3.99902 -4s2.66602 1.33301 3.99902 4l155 384c6.66699 15.333 16.667 23 30 23
c11.333 0 19.5 -4.66699 24.5 -14s5.16699 -19.333 0.5 -30l-189 -463c-9.33301 -22.667 -19.5 -44 -30.5 -64s-22.833 -38.333 -35.5 -55s-25.334 -31.334 -38.001 -44.001s-25 -22.334 -37 -29.001c-10 -5.33301 -20 -8 -30 -8c-7.33301 0 -13.833 2.5 -19.5 7.5
s-8.5 11.833 -8.5 20.5c0 12 6.33301 21.333 19 28c22.667 11.333 44.667 29.833 66 55.5s40.666 61.167 57.999 106.5z" />
    <glyph glyph-name="z" unicode="z" horiz-adv-x="511" 
d="M119 56l306 0.000976562c8.66699 0 15.5 -2.83301 20.5 -8.5s7.5 -12.167 7.5 -19.5c0 -8 -2.5 -14.667 -7.5 -20s-11.833 -8 -20.5 -8h-306c-17.333 0 -31 4.83301 -41 14.5s-15 21.5 -15 35.5c0 9.33301 1.5 17.333 4.5 24s7.16699 13 12.5 19l322 360h-294
c-8 0 -14.833 2.5 -20.5 7.5s-8.5 11.5 -8.5 19.5s2.66699 14.833 8 20.5s12.333 8.5 21 8.5h288c19.333 0 34.333 -5.16699 45 -15.5s16 -23.833 16 -40.5c0 -8.66699 -2.16699 -16.834 -6.5 -24.501s-10.5 -16.167 -18.5 -25.5z" />
    <glyph glyph-name="braceleft" unicode="{" horiz-adv-x="356" 
d="M197 734c-8.66699 0 -15.833 -2.83203 -21.5 -8.49902s-8.5 -12.834 -8.5 -21.501v-240c0 -21.333 -2.16699 -40.333 -6.5 -57s-9.83301 -31 -16.5 -43s-14 -22 -22 -30s-15.333 -14.333 -22 -19c6.66699 -5.33301 14 -12 22 -20s15.333 -18 22 -30
s12.167 -26.167 16.5 -42.5s6.5 -35.166 6.5 -56.499v-253c0 -8.66699 3 -15.834 9 -21.501s13.333 -8.5 22 -8.5h117c8 0 15 -3 21 -9s9 -12.667 9 -20c0 -8.66699 -2.83301 -15.834 -8.5 -21.501s-12.834 -8.5 -21.501 -8.5h-116c-25.333 0 -46.666 8.83301 -63.999 26.5
s-26 39.167 -26 64.5v250c0 24.667 -3.66699 45.667 -11 63s-21.333 34.333 -42 51c-5.33301 4 -10.166 8.83301 -14.499 14.5s-6.5 12.834 -6.5 21.501c0 8 2.16699 14.833 6.5 20.5s9.16602 10.5 14.499 14.5c20.667 16.667 34.667 33.667 42 51s11 38.333 11 63v237
c0 25.333 8.66699 46.833 26 64.5s38.666 26.5 63.999 26.5h116c8.66699 0 15.834 -2.66699 21.501 -8s8.5 -12.333 8.5 -21c0 -7.33301 -3 -14 -9 -20s-13 -9 -21 -9h-118z" />
    <glyph glyph-name="bar" unicode="|" horiz-adv-x="306" 
d="M150 835c8.66699 0 15.667 -2.83105 21 -8.49805s8 -12.834 8 -21.501v-915c0 -8.66699 -2.66699 -15.834 -8 -21.501s-12.333 -8.5 -21 -8.5c-8 0 -14.833 3.16699 -20.5 9.5s-8.5 13.166 -8.5 20.499v915c0 8.66699 2.83301 15.834 8.5 21.501s12.5 8.5 20.5 8.5z" />
    <glyph glyph-name="braceright" unicode="}" horiz-adv-x="356" 
d="M42 734c-8 0 -14.999 2.99902 -20.999 8.99902s-9 12.667 -9 20c0 8.66699 2.83301 15.667 8.5 21s12.834 8 21.501 8h116c25.333 0 46.666 -8.83301 63.999 -26.5s26 -39.167 26 -64.5v-237c0 -24.667 3.66699 -45.667 11 -63s21.333 -34.333 42 -51
c5.33301 -4 10.166 -8.83301 14.499 -14.5s6.5 -12.5 6.5 -20.5c0 -8.66699 -2.16699 -15.834 -6.5 -21.501s-9.16602 -10.5 -14.499 -14.5c-20.667 -16.667 -34.667 -33.667 -42 -51s-11 -38.333 -11 -63v-250c0 -25.333 -8.66699 -46.833 -26 -64.5
s-38.666 -26.5 -63.999 -26.5h-116c-8.66699 0 -15.834 2.83301 -21.501 8.5s-8.5 12.834 -8.5 21.501c0 7.33301 3 14 9 20s13 9 21 9h117c8.66699 0 16 2.83301 22 8.5s9 12.834 9 21.501v253c0 21.333 2.16699 40.166 6.5 56.499s9.83301 30.5 16.5 42.5
s13.834 22 21.501 30s15.167 14.667 22.5 20c-7.33301 4.66699 -14.833 11 -22.5 19s-14.834 18 -21.501 30s-12.167 26.333 -16.5 43s-6.5 35.667 -6.5 57v240c0 8.66699 -2.83301 15.834 -8.5 21.501s-12.834 8.5 -21.501 8.5h-118z" />
    <glyph glyph-name="asciitilde" unicode="~" horiz-adv-x="623" 
d="M497 379c6.66699 4 12.834 5.66699 18.501 5s10.5 -2.5 14.5 -5.5s7.16699 -6.5 9.5 -10.5s3.5 -8 3.5 -12c0 -7.33301 -2.16699 -13.5 -6.5 -18.5s-9.83301 -8.83301 -16.5 -11.5c-43.333 -19.333 -80.333 -29 -111 -29c-19.333 0 -36.833 2.66699 -52.5 8
s-31.167 11.333 -46.5 18s-30.833 12.667 -46.5 18s-32.834 8 -51.501 8c-13.333 0 -26.833 -2.16699 -40.5 -6.5s-28.167 -10.5 -43.5 -18.5c-7.33301 -4 -14 -6 -20 -6s-11 1.33301 -15 4s-7.16699 6.16699 -9.5 10.5s-3.5 8.5 -3.5 12.5c0 7.33301 2.16699 13.5 6.5 18.5
s9.83301 8.83301 16.5 11.5c21.333 9.33301 41.166 16.5 59.499 21.5s35.5 7.5 51.5 7.5c18.667 0 36 -2.66699 52 -8s31.667 -11.333 47 -18s30.833 -12.667 46.5 -18s32.834 -8 51.501 -8c25.333 0 54 9 86 27z" />
    <glyph glyph-name="exclamdown" unicode="&#xa1;" horiz-adv-x="205" 
d="M73 31.041c0 -8.66602 2.99902 -15.8301 8.99902 -21.4971c6 -5.66602 12.667 -8.49902 20 -8.49902c8.66699 0 15.667 2.83301 21 8.49902c5.33301 5.66699 8.33301 12.833 9 21.499l-3 415.975c0 7.99902 -2.5 14.665 -7.5 19.998s-11.167 7.99902 -18.5 7.99902
s-13.666 -2.83301 -18.999 -8.49902c-5.33301 -5.66699 -8 -12.167 -8 -19.5zM69.999 622.007c0 -9.33301 3.33301 -16.9971 10 -22.9971c6.66699 -5.99902 14 -8.99902 22 -8.99902c9.33301 0 17.166 3 23.499 8.99902c6.33301 6 9.5 13.666 9.5 22.999v54.9961
c0 9.33301 -3.16699 16.999 -9.5 22.998s-14.166 8.99902 -23.499 8.99902c-8 0 -15.333 -3.16602 -22 -9.49902s-10 -13.833 -10 -22.5v-54.9961z" />
    <glyph glyph-name="cent" unicode="&#xa2;" horiz-adv-x="514" 
d="M323 582c31.333 -4 58.8301 -14.832 82.4971 -32.499s41.834 -40.5 54.501 -68.5c1.33301 -3.33301 2.33301 -6.5 3 -9.5s1 -5.5 1 -7.5c0 -9.33301 -2.83301 -16.666 -8.5 -21.999s-12.167 -8 -19.5 -8s-13.333 1.83301 -18 5.5s-7.66699 7.83398 -9 12.501
c-9.33301 23.333 -24 42 -44 56s-42.667 21 -68 21c-40.667 0 -72 -11.833 -94 -35.5s-34.667 -54.167 -38 -91.5c-3.33301 -35.333 -3.33301 -70.333 0 -105c3.33301 -37.333 16 -67.5 38 -90.5s53.333 -34.5 94 -34.5c25.333 0 47.833 6.83301 67.5 20.5
s34.167 31.167 43.5 52.5c2 6 5.33301 11.167 10 15.5s10.334 6.5 17.001 6.5c8.66699 0 15.5 -2.83301 20.5 -8.5s7.5 -12.167 7.5 -19.5c0 -6 -1.33301 -11.667 -4 -17c-29.333 -60 -74.666 -95 -135.999 -105v-97c0 -8 -2.66699 -14.833 -8 -20.5s-12 -8.5 -20 -8.5
c-7.33301 0 -13.666 3 -18.999 9s-8 12.667 -8 20v97c-22 3.33301 -42.5 10.166 -61.5 20.499s-35.667 23.333 -50 39s-25.833 33.667 -34.5 54s-13.667 42.166 -15 65.499c-1.33301 17.333 -2 35.333 -2 54s0.666992 36.667 2 54c1.33301 22.667 6.33301 44.167 15 64.5
s20.167 38.333 34.5 54s31 28.667 50 39s39.5 17.166 61.5 20.499v98c0 8 2.66699 14.833 8 20.5s11.666 8.5 18.999 8.5c8 0 14.667 -2.83301 20 -8.5s8 -12.5 8 -20.5v-98z" />
    <glyph glyph-name="sterling" unicode="&#xa3;" horiz-adv-x="554" 
d="M42 297c-7.33301 0 -14.1689 3.00391 -20.502 9.00391s-9.5 13 -9.5 21s3 14.667 9 20s13 8 21 8h61l-18 80.5c-6 26.333 -9 51.166 -9 74.499c0 26.667 4.5 52.167 13.5 76.5s22.333 45.5 40 63.5s39.5 32.333 65.5 43s56 16 90 16c24 0 45.667 -2.33301 65 -7
s36.833 -10.834 52.5 -18.501s29.334 -16.167 41.001 -25.5s21.834 -18.333 30.501 -27c9.33301 -9.33301 14 -18.666 14 -27.999c0 -8 -2.66699 -14.5 -8 -19.5s-12 -7.5 -20 -7.5c-9.33301 0 -18.666 4.66699 -27.999 14c-21.333 20 -42.833 35.333 -64.5 46
s-49.167 16 -82.5 16c-28 0 -51.667 -4.33301 -71 -13s-34.833 -19.834 -46.5 -33.501s-20.167 -28.834 -25.5 -45.501s-8 -32.667 -8 -48c0 -22 3.33301 -46.167 10 -72.5s13 -54.5 19 -84.5h162c8.66699 0 15.834 -2.66699 21.501 -8s8.5 -12 8.5 -20
c0 -8.66699 -3 -15.834 -9 -21.501s-13 -8.5 -21 -8.5h-156c4.66699 -34 1.5 -72.5 -9.5 -115.5s-27.167 -84.167 -48.5 -123.5h371c8 0 14.833 -2.83301 20.5 -8.5s8.5 -12.834 8.5 -21.501c0 -8 -2.83301 -14.667 -8.5 -20s-12.834 -8 -21.501 -8h-382
c-16.667 0 -29.334 4.16699 -38.001 12.5s-13 18.833 -13 31.5c0 7.33301 1.33301 14.5 4 21.5s6.66699 15.5 12 25.5c18 34.667 31.5 68.834 40.5 102.501s11.167 68.167 6.5 103.5h-69z" />
    <glyph glyph-name="currency" unicode="&#xa4;" horiz-adv-x="623" 
d="M311 559c47.333 0 88.002 -15 122.002 -45l85 87c6 6.66699 13.167 10 21.5 10s16.166 -3 23.499 -9c5.33301 -5.33301 8 -12.5 8 -21.5s-3 -16.5 -9 -22.5l-91 -92c12.667 -24.667 19.667 -53 21 -85c0.666992 -10.667 0.833984 -21 0.500977 -31s-0.5 -20.333 -0.5 -31
c0 -15.333 -1.83301 -30 -5.5 -44s-8.83398 -27.333 -15.501 -40l91 -91c6 -6 9 -13.333 9 -22s-2.66699 -16 -8 -22c-7.33301 -6 -15 -8.83301 -23 -8.5s-15.333 3.5 -22 9.5l-84 85c-33.333 -30 -74.333 -45 -123 -45s-89.334 15 -122.001 45l-84 -85
c-7.33301 -6 -15 -9.16699 -23 -9.5s-15.333 2.5 -22 8.5c-6 6 -9 13.333 -9 22s3.33301 16 10 22l90 91c-6.66699 12.667 -11.5 26 -14.5 40s-4.83301 28.667 -5.5 44c-0.666992 20.667 -0.666992 41.334 0 62.001c0.666992 15.333 2.5 30.166 5.5 44.499
s7.83301 27.833 14.5 40.5l-91 92c-6 6 -9 13.5 -9 22.5s3 16.167 9 21.5c6.66699 6 14.167 9 22.5 9s15.833 -3.33301 22.5 -10l85 -87c34 30 74.333 45 121 45zM311.002 501c-16.667 0 -31.998 -3.00098 -45.998 -9.00098s-26.333 -14.333 -37 -25
s-19.334 -23.334 -26.001 -38.001s-10.334 -30.334 -11.001 -47.001c-1.33301 -10.667 -1.83301 -21.167 -1.5 -31.5s0.833008 -21.166 1.5 -32.499c0.666992 -16.667 4.16699 -32.167 10.5 -46.5s14.833 -26.833 25.5 -37.5s23.167 -19 37.5 -25s29.833 -9 46.5 -9
s32.167 3 46.5 9s26.833 14.333 37.5 25s19.167 23.167 25.5 37.5s9.83301 29.833 10.5 46.5c0.666992 18.667 0.666992 40 0 64c-0.666992 16.667 -4.16699 32.334 -10.5 47.001s-14.833 27.334 -25.5 38.001s-23.167 19 -37.5 25s-29.833 9 -46.5 9z" />
    <glyph glyph-name="yen" unicode="&#xa5;" horiz-adv-x="641" 
d="M594 704c7.33301 0 14 -2.83203 20 -8.49902s9 -12.167 9 -19.5s-2.66699 -14.333 -8 -21l-238 -294c-8 -10 -14.5 -18.5 -19.5 -25.5s-7.5 -17.5 -7.5 -31.5v-14h138c7.33301 0 14 -2.66699 20 -8s9 -12 9 -20c0 -7.33301 -3 -13.5 -9 -18.5s-12.667 -7.5 -20 -7.5h-138
v-210c0 -8.66699 -2.83301 -15.834 -8.5 -21.501s-12.5 -8.5 -20.5 -8.5s-14.833 3 -20.5 9s-8.5 13 -8.5 21v210h-139c-8 0 -14.667 2.5 -20 7.5s-8 11.167 -8 18.5c0 8 2.66699 14.667 8 20s12 8 20 8h139v14c0 14 -2.83301 24.667 -8.5 32l-20.5 26l-237 293
c-5.33301 6.66699 -8 13.667 -8 21s3 13.833 9 19.5s12.667 8.5 20 8.5c9.33301 0 17 -3.66699 23 -11l251 -312l250 312c6 7.33301 13.667 11 23 11z" />
    <glyph glyph-name="brokenbar" unicode="&#xa6;" horiz-adv-x="306" 
d="M150 311c8.66699 0 15.667 -2.83105 21 -8.49805s8 -12.834 8 -21.501v-391c0 -8.66699 -2.66699 -15.834 -8 -21.501s-12.333 -8.5 -21 -8.5c-8 0 -14.833 3.16699 -20.5 9.5s-8.5 13.166 -8.5 20.499v391c0 8.66699 2.83301 15.834 8.5 21.501s12.5 8.5 20.5 8.5z
M150 835.002c8.66699 0 15.667 -2.83203 21 -8.49902s8 -12.834 8 -21.501v-391c0 -8 -2.66699 -15 -8 -21s-12.333 -9 -21 -9c-8 0 -14.833 3.16699 -20.5 9.5s-8.5 13.166 -8.5 20.499v391c0 8.66699 2.83301 15.834 8.5 21.501s12.5 8.5 20.5 8.5z" />
    <glyph glyph-name="section" unicode="&#xa7;" horiz-adv-x="584" 
d="M489 270c0 -16.667 -3.49902 -32.6719 -10.499 -48.0049s-15.5 -28.666 -25.5 -39.999c27.333 -27.333 41 -64.333 41 -111c0 -25.333 -5 -48.666 -15 -69.999s-23.833 -39.666 -41.5 -54.999s-38.667 -27.333 -63 -36s-51.166 -13 -80.499 -13
c-21.333 0 -42.166 1.66699 -62.499 5s-39 7.83301 -56 13.5s-32.167 11.834 -45.5 18.501s-24 13.334 -32 20.001c-7.33301 6 -11 14 -11 24c0 8 2.5 14.667 7.5 20s11.833 8 20.5 8c5.33301 0 10 -1.16699 14 -3.5l11 -6.5c23.333 -15.333 49 -26 77 -32s53 -9 75 -9
c26 0 48 3.5 66 10.5s32.833 16 44.5 27s20.167 23.333 25.5 37s8 27.167 8 40.5c0 21.333 -3.66699 38.833 -11 52.5s-17.833 24.834 -31.5 33.501s-30.334 16 -50.001 22s-41.834 12 -66.501 18c-32 8.66699 -59 17.667 -81 27s-39.667 19.5 -53 30.5
s-22.833 23.167 -28.5 36.5s-8.5 28.333 -8.5 45c0 16 3.33301 31.833 10 47.5s15.334 29.167 26.001 40.5c-14.667 14 -25.167 30 -31.5 48s-9.5 38.667 -9.5 62c0 25.333 4.83301 48.666 14.5 69.999s23.334 39.666 41.001 54.999s38.667 27.333 63 36
s51.166 13 80.499 13c43.333 0 80.666 -6.16699 111.999 -18.5s55.333 -25.166 72 -38.499c7.33301 -5.33301 11 -12.666 11 -21.999c0 -8.66699 -2.5 -15.834 -7.5 -21.501s-11.833 -8.5 -20.5 -8.5c-5.33301 0 -10 1 -14 3s-7.66699 4 -11 6c-48 28 -94.333 42 -139 42
c-26 0 -48 -3.5 -66 -10.5s-32.833 -16 -44.5 -27s-20.167 -23.167 -25.5 -36.5s-8 -26.666 -8 -39.999c0 -21.333 3.5 -39 10.5 -53s17.333 -25.5 31 -34.5s30.167 -16.5 49.5 -22.5s41.666 -12 66.999 -18c32.667 -7.33301 60 -15.5 82 -24.5s39.667 -19 53 -30
s22.833 -23.333 28.5 -37s8.5 -28.834 8.5 -45.501zM303.001 249.995c19.333 -4.66699 37.834 -9.99805 55.501 -15.998s33.5 -12 47.5 -18l2 2c6 5.33301 10.667 12.666 14 21.999s5 17.666 5 24.999c0 10.667 -2 20 -6 28s-11.167 15.333 -21.5 22s-24.333 13 -42 19
s-39.834 12.333 -66.501 19l-56 16c-18 5.33301 -33.667 11.333 -47 18l-2 -2c-6 -5.33301 -10.667 -12.333 -14 -21s-5 -17 -5 -25c0 -10 2 -19.167 6 -27.5s11 -16 21 -23s23.833 -13.667 41.5 -20s40.167 -12.5 67.5 -18.5z" />
    <glyph glyph-name="dieresis" unicode="&#xa8;" 
d="M95 837c10.667 0 19.5 -3.66699 26.5 -11s10.5 -16 10.5 -26c0 -10.667 -3.5 -19.5 -10.5 -26.5s-15.833 -10.5 -26.5 -10.5c-10 0 -18.667 3.5 -26 10.5s-11 15.833 -11 26.5c0 10 3.66699 18.667 11 26s16 11 26 11zM245 837c10 0 18.667 -3.66699 26 -11
s11 -16 11 -26c0 -10.667 -3.66699 -19.5 -11 -26.5s-16 -10.5 -26 -10.5c-10.667 0 -19.5 3.5 -26.5 10.5s-10.5 15.833 -10.5 26.5c0 10 3.5 18.667 10.5 26s15.833 11 26.5 11z" />
    <glyph glyph-name="copyright" unicode="&#xa9;" horiz-adv-x="814" 
d="M407 707c42 0 81 -7.83398 117 -23.501s67.333 -37.167 94 -64.5s48 -59.5 64 -96.5s25 -77.167 27 -120.5c0.666992 -34 0.666992 -68 0 -102c-2 -43.333 -11 -83.666 -27 -120.999s-37.333 -69.833 -64 -97.5s-58 -49.334 -94 -65.001s-75 -23.5 -117 -23.5
c-41.333 0 -80.166 7.83301 -116.499 23.5s-68 37.334 -95 65.001s-48.5 60.167 -64.5 97.5s-24.667 77.666 -26 120.999c-1.33301 34 -1.33301 68 0 102c1.33301 46 10 87.667 26 125s37.5 69.333 64.5 96s58.667 47.334 95 62.001s75.166 22 116.499 22zM407 658.999
c-34.667 0 -67.0039 -5.83203 -97.0039 -17.499s-56.5 -28.5 -79.5 -50.5s-41.333 -49.167 -55 -81.5s-21.167 -69.166 -22.5 -110.499c-0.666992 -13.333 -1 -29 -1 -47s0.333008 -33 1 -45c2 -42 9.83301 -79.333 23.5 -112s31.834 -60.334 54.501 -83.001
s49 -39.834 79 -51.501s62.333 -17.5 97 -17.5s66.834 5.83301 96.501 17.5s55.834 28.5 78.501 50.5s40.834 48.667 54.501 80s21.834 66.666 24.501 105.999c1.33301 17.333 2 35.5 2 54.5s-0.666992 36.833 -2 53.5c-3.33301 40 -11.833 75.667 -25.5 107
s-31.667 57.833 -54 79.5s-48.333 38.334 -78 50.001s-61.834 17.5 -96.501 17.5zM407.996 191c24.667 0 46.333 6.16602 65 18.499s32.667 28.5 42 48.5c1.33301 4 3.83301 7.66699 7.5 11s8.5 5 14.5 5c5.33301 0 10.666 -2 15.999 -6s8 -10 8 -18
c0 -5.33301 -1.33301 -11 -4 -17c-11.333 -28 -30 -50.333 -56 -67s-57 -25 -93 -25c-24 0 -45.833 4.33301 -65.5 13s-36.667 20.5 -51 35.5s-26 32.5 -35 52.5s-14.5 41.667 -16.5 65c-2.66699 29.333 -2.66699 59.666 0 90.999c2 22.667 7.33301 43.834 16 63.501
s20.334 36.834 35.001 51.501s31.834 26.334 51.501 35.001s41.5 13 65.5 13c36 0 67 -8 93 -24s44.667 -38 56 -66c2.66699 -5.33301 4 -11.333 4 -18c0 -8 -2.5 -14 -7.5 -18s-10.5 -6 -16.5 -6c-5.33301 0 -10 1.66699 -14 5s-6.66699 6.66602 -8 9.99902
c-9.33301 20.667 -23.333 37.167 -42 49.5s-40.334 18.5 -65.001 18.5c-34 0 -61.333 -10.833 -82 -32.5s-32.667 -49.5 -36 -83.5c-1.33301 -16.667 -2 -31.667 -2 -45s0.666992 -28 2 -44c2.66699 -34 14.5 -61.833 35.5 -83.5s48.5 -32.5 82.5 -32.5z" />
    <glyph glyph-name="ordfeminine" unicode="&#xaa;" horiz-adv-x="480" 
d="M427 323c6.66699 -9.33301 8.50293 -18.499 5.50293 -27.499s-7.5 -15.167 -13.5 -18.5c-7.33301 -4.66699 -15.166 -6.16699 -23.499 -4.5s-15.166 6.16699 -20.499 13.5c-5.33301 6.66699 -10 13.667 -14 21s-7.66699 14.666 -11 21.999
c-20.667 -17.333 -42.334 -31.333 -65.001 -42s-44.667 -16 -66 -16c-54 0 -95.5 15 -124.5 45s-45.167 68.667 -48.5 116c-0.666992 8 -1.16699 16.833 -1.5 26.5s-0.5 19.5 -0.5 29.5s0.166992 19.5 0.5 28.5s0.833008 16.833 1.5 23.5
c3.33301 53.333 20.166 94.5 50.499 123.5s71.166 43.5 122.499 43.5c18.667 0 36.667 -1.66699 54 -5s33.166 -7.33301 47.499 -12s26.666 -9.66699 36.999 -15s18.5 -10 24.5 -14c3.33301 -3.33301 5.83301 -6.5 7.5 -9.5s2.5 -7.5 2.5 -13.5v-191
c0 -16.667 0.666992 -31 2 -43s3.5 -22.667 6.5 -32s6.66699 -17.833 11 -25.5s9.5 -15.5 15.5 -23.5zM219.003 332.001c21.333 0 42.832 5.50098 64.499 16.501s39.167 24.5 52.5 40.5c-2.66699 18 -4.16699 37.5 -4.5 58.5s-0.5 44.833 -0.5 71.5v97
c-9.33301 7.33301 -24.5 14.166 -45.5 20.499s-43.167 9.5 -66.5 9.5c-38 0 -65.667 -9.66699 -83 -29s-27.333 -45 -30 -77c-0.666992 -6.66699 -1.16699 -14.5 -1.5 -23.5s-0.5 -18 -0.5 -27s0.166992 -18 0.5 -27s0.833008 -16.833 1.5 -23.5
c2.66699 -32.667 12.334 -58.667 29.001 -78s44.667 -29 84 -29z" />
    <glyph glyph-name="guillemotleft" unicode="&#xab;" horiz-adv-x="538" 
d="M51 349c0 12 3.5 23.3291 10.5 33.9961s17.833 22.334 32.5 35.001l119 98c7.33301 6 15.166 8.66699 23.499 8s15.166 -4.66699 20.499 -12c6 -6.66699 8.5 -14.167 7.5 -22.5s-4.83301 -15.166 -11.5 -20.499l-133 -106c-2 -1.33301 -4 -3.16602 -6 -5.49902
s-3 -5.16602 -3 -8.49902s1 -6.16602 3 -8.49902s4 -4.16602 6 -5.49902l133 -107c6.66699 -5.33301 10.5 -12.333 11.5 -21s-1.5 -16.334 -7.5 -23.001c-5.33301 -6.66699 -12.166 -10.334 -20.499 -11.001s-16.166 1.66602 -23.499 6.99902l-119 100
c-14.667 12 -25.5 23.333 -32.5 34s-10.5 22.334 -10.5 35.001zM232 348.996c0 12 3.5 23.3291 10.5 33.9961s17.833 22.334 32.5 35.001l120 98c6.66699 6 14.334 8.66699 23.001 8s15.667 -4.66699 21 -12c5.33301 -6.66699 7.5 -14.167 6.5 -22.5
s-4.83301 -15.166 -11.5 -20.499l-133 -106c-2 -1.33301 -4 -3.16602 -6 -5.49902s-3 -5.16602 -3 -8.49902s1 -6.16602 3 -8.49902s4 -4.16602 6 -5.49902l133 -107c6.66699 -5.33301 10.5 -12.333 11.5 -21s-1.16699 -16.334 -6.5 -23.001s-12.333 -10.334 -21 -11.001
s-16.334 1.66602 -23.001 6.99902l-120 100c-14.667 12 -25.5 23.333 -32.5 34s-10.5 22.334 -10.5 35.001z" />
    <glyph glyph-name="logicalnot" unicode="&#xac;" horiz-adv-x="628" 
d="M567 125c0 -8.66699 -2.66602 -15.833 -7.99902 -21.5s-12.333 -8.5 -21 -8.5c-8 0 -14.833 3 -20.5 9s-8.5 13 -8.5 21v197h-419c-8.66699 0 -15.834 2.83301 -21.501 8.5s-8.5 12.5 -8.5 20.5c0 8.66699 2.83301 15.667 8.5 21s12.834 8 21.501 8h417
c19.333 0 34.166 -5.66699 44.499 -17s15.5 -25.333 15.5 -42v-196z" />
    <glyph glyph-name="registered" unicode="&#xae;" horiz-adv-x="614" 
d="M315 458c20 0 34 4.66699 42 14s12 21 12 35s-4.16699 25.5 -12.5 34.5s-21.5 13.5 -39.5 13.5h-69v-97h67zM483 407c0.666992 6 1 12.833 1 20.5v23.5v24c0 8 -0.333008 15 -1 21c-4.66699 56.667 -23.334 99.667 -56.001 129s-73.667 44 -123 44
c-48.667 0 -89.5 -14.667 -122.5 -44s-51.833 -72.333 -56.5 -129c-0.666992 -6 -1.16699 -13 -1.5 -21s-0.5 -16 -0.5 -24s0.166992 -15.833 0.5 -23.5s0.833008 -14.5 1.5 -20.5c4.66699 -56.667 23.5 -100 56.5 -130s73.833 -45 122.5 -45c49.333 0 90.333 15 123 45
s51.334 73.333 56.001 130zM308 414c-2.66699 3.33301 -4.99805 5.50098 -6.99805 6.50098s-5.66699 1.5 -11 1.5h-42v-87c0 -5.33301 -1.83301 -9.66602 -5.5 -12.999s-8.5 -5 -14.5 -5c-4.66699 0 -8.83398 1.66699 -12.501 5s-5.5 7.66602 -5.5 12.999v226
c0 8 2.66699 15 8 21s12.666 9 21.999 9h79c12 0 23.333 -1.83301 34 -5.5s20.167 -9.16699 28.5 -16.5s15 -16.5 20 -27.5s7.5 -23.5 7.5 -37.5c0 -22.667 -5.66699 -40 -17 -52s-26.333 -20.667 -45 -26l64 -76c2 -2 3.83301 -4.33301 5.5 -7s2.5 -5.66699 2.5 -9
c0 -4.66699 -1.83301 -8.83398 -5.5 -12.501s-8.16699 -5.5 -13.5 -5.5c-2.66699 0 -5.5 0.666992 -8.5 2s-6.16699 4 -9.5 8zM521.002 408.001c-1.33301 -31.333 -7.66602 -60.166 -18.999 -86.499s-26.666 -49 -45.999 -68s-42 -33.667 -68 -44s-54 -15.5 -84 -15.5
s-57.833 5.16699 -83.5 15.5s-48.167 25 -67.5 44s-34.833 41.667 -46.5 68s-18.167 55.166 -19.5 86.499c-0.666992 12 -1 26.333 -1 43s0.333008 31 1 43c1.33301 31.333 7.83301 60.166 19.5 86.499s27.167 49 46.5 68s41.833 33.667 67.5 44s53.5 15.5 83.5 15.5
s58 -5.16699 84 -15.5s48.667 -25 68 -44s34.666 -41.667 45.999 -68s17.666 -55.166 18.999 -86.499c1.33301 -12 2 -26.333 2 -43s-0.666992 -31 -2 -43z" />
    <glyph glyph-name="macron" unicode="&#xaf;" 
d="M256 822c7.33301 0 13.5 -2.5 18.5 -7.5s7.5 -11.167 7.5 -18.5s-2.5 -13.333 -7.5 -18s-11.167 -7 -18.5 -7h-168c-7.33301 0 -13.333 2.33301 -18 7s-7 10.667 -7 18s2.33301 13.5 7 18.5s10.667 7.5 18 7.5h168z" />
    <glyph glyph-name="degree" unicode="&#xb0;" horiz-adv-x="353" 
d="M50 581c0 17.333 3.33301 33.666 10 48.999s15.834 28.833 27.501 40.5s25 20.834 40 27.501s31.167 10 48.5 10s33.666 -3.33301 48.999 -10s28.833 -15.834 40.5 -27.501s20.834 -25.167 27.501 -40.5s10 -31.666 10 -48.999s-3.33301 -33.5 -10 -48.5
s-15.834 -28.333 -27.501 -40s-25.167 -20.834 -40.5 -27.501s-31.666 -10 -48.999 -10s-33.5 3.33301 -48.5 10s-28.333 15.834 -40 27.501s-20.834 25 -27.501 40s-10 31.167 -10 48.5zM100 581c0 -21.333 7.33301 -39.5 22 -54.5s32.667 -22.5 54 -22.5
c22 0 40.5 7.5 55.5 22.5s22.5 33.167 22.5 54.5s-7.5 39.666 -22.5 54.999s-33.5 23 -55.5 23c-21.333 0 -39.333 -7.66699 -54 -23s-22 -33.666 -22 -54.999z" />
    <glyph glyph-name="plusminus" unicode="&#xb1;" horiz-adv-x="628" 
d="M91 0c-8.66699 0 -16 2.83301 -22 8.5s-9 12.5 -9 20.5c0 8.66699 3 15.667 9 21s13.333 8 22 8h446c8.66699 0 16 -2.66699 22 -8s9 -12.333 9 -21c0 -8 -3.16699 -14.833 -9.5 -20.5s-13.5 -8.5 -21.5 -8.5h-446zM286 312h-195c-8.66699 0 -16 2.83301 -22 8.5
s-9 12.5 -9 20.5c0 9.33301 3 16.5 9 21.5s13.333 7.5 22 7.5h195v195c0 9.33301 2.83301 16.833 8.5 22.5s12.5 8.5 20.5 8.5c8.66699 0 15.667 -2.83301 21 -8.5s8 -13.167 8 -22.5v-195h193c8.66699 0 16 -2.5 22 -7.5s9 -12.167 9 -21.5
c0 -8 -3.16699 -14.833 -9.5 -20.5s-13.5 -8.5 -21.5 -8.5h-193v-194c0 -9.33301 -2.66699 -16.833 -8 -22.5s-12.333 -8.5 -21 -8.5c-8 0 -14.833 3 -20.5 9s-8.5 13.333 -8.5 22v194z" />
    <glyph glyph-name="twosuperior" unicode="&#xb2;" horiz-adv-x="463" 
d="M79 291c0 27.333 8.83203 53.167 26.499 77.5s43.167 48.5 76.5 72.5c10.667 8 23.667 16.667 39 26s30 19.666 44 30.999s26 23.833 36 37.5s15 28.834 15 45.501c0 8.66699 -1.83301 17.5 -5.5 26.5s-9.16699 17 -16.5 24s-16.666 12.667 -27.999 17
s-24.666 6.5 -39.999 6.5c-22 0 -40.5 -4.66699 -55.5 -14s-27.5 -20.666 -37.5 -33.999c-3.33301 -4 -6.83301 -7.66699 -10.5 -11s-8.83398 -5 -15.501 -5c-8.66699 0 -15.5 2.66699 -20.5 8s-7.5 11.666 -7.5 18.999s2.33301 14.333 7 21
c11.333 16.667 28.5 32.5 51.5 47.5s52.5 22.5 88.5 22.5c23.333 0 44 -3.33301 62 -10s33 -15.834 45 -27.501s21.167 -25.334 27.5 -41.001s9.5 -32.167 9.5 -49.5c0 -19.333 -3 -36.166 -9 -50.499s-15.167 -28 -27.5 -41s-28.166 -26.167 -47.499 -39.5l-69 -47
c-30 -20.667 -50.833 -39.167 -62.5 -55.5s-18.834 -32.166 -21.501 -47.499h217c8 0 14.833 -2.5 20.5 -7.5s8.5 -11.5 8.5 -19.5c0 -8.66699 -2.83301 -15.5 -8.5 -20.5s-12.5 -7.5 -20.5 -7.5h-230c-11.333 0 -21 4.16699 -29 12.5s-12 19.5 -12 33.5z" />
    <glyph glyph-name="threesuperior" unicode="&#xb3;" horiz-adv-x="436" 
d="M185 476c-8 0 -15.167 2.33105 -21.5 6.99805s-9.5 11.667 -9.5 21c0 8.66699 3.33301 16.334 10 23.001l112 112h-179c-8.66699 0 -15.667 2.83301 -21 8.5s-8 12.167 -8 19.5c0 8.66699 2.66699 15.334 8 20.001s12.333 7 21 7h205c11.333 0 21.5 -3.5 30.5 -10.5
s13.5 -16.5 13.5 -28.5c0 -4.66699 -1 -10 -3 -16s-7.33301 -13.667 -16 -23l-86 -84c18 -1.33301 35 -5.33301 51 -12s29.833 -15.667 41.5 -27s20.834 -24.5 27.501 -39.5s10 -31.5 10 -49.5c0 -52.667 -21.5 -94 -64.5 -124s-101.5 -45 -175.5 -45h-17
c-6 0 -11.667 0.333008 -17 1c-8 0.666992 -14.833 3.16699 -20.5 7.5s-8.5 10.833 -8.5 19.5c0 7.33301 2.66699 13.333 8 18s12.333 7 21 7h38c26.667 0 51.167 2.66699 73.5 8s41.666 13 57.999 23s29 22 38 36s13.5 30 13.5 48c0 22.667 -8.5 41.167 -25.5 55.5
s-36.167 21.5 -57.5 21.5c-14 0 -24.333 -0.666992 -31 -2s-13 -2 -19 -2z" />
    <glyph glyph-name="acute" unicode="&#xb4;" 
d="M225 872c5.33301 2.66699 10 4.00098 14 4.00098c7.33301 0 13.5 -2.5 18.5 -7.5s7.5 -11.167 7.5 -18.5c0 -11.333 -4.66699 -19.333 -14 -24l-136 -70c-1.33301 -0.666992 -3 -1.33398 -5 -2.00098s-4.66699 -1 -8 -1c-7.33301 0 -13.5 2.5 -18.5 7.5
s-7.5 11.167 -7.5 18.5c0 5.33301 1.5 10 4.5 14s6.16699 7 9.5 9z" />
    <glyph glyph-name="mu" unicode="&#xb5;" horiz-adv-x="620" 
d="M104 489c0 8.66699 2.83203 15.999 8.49902 21.999s12.5 9 20.5 9s14.833 -3 20.5 -9s8.5 -13.333 8.5 -22v-303c0 -42.667 11.833 -76.834 35.5 -102.501s58.5 -38.5 104.5 -38.5c34 0 64.167 4.33301 90.5 13s47.833 18.334 64.5 29.001v402c0 8.66699 2.66699 16 8 22
s12.333 9 21 9c7.33301 0 14 -3 20 -9s9 -13.333 9 -22v-413c0 -14 -5 -23.667 -15 -29c-7.33301 -5.33301 -17 -11.166 -29 -17.499s-26.333 -12.333 -43 -18s-35.667 -10.5 -57 -14.5s-45 -6 -71 -6c-28 0 -53.667 3.5 -77 10.5s-43.666 19.5 -60.999 37.5v-185
c0 -8.66699 -2.83301 -15.834 -8.5 -21.501s-12.5 -8.5 -20.5 -8.5c-8.66699 0 -15.667 2.83301 -21 8.5s-8 12.834 -8 21.501v635z" />
    <glyph glyph-name="mu" unicode="&#x3bc;" horiz-adv-x="620" 
d="M104 489c0 8.66699 2.83203 15.999 8.49902 21.999s12.5 9 20.5 9s14.833 -3 20.5 -9s8.5 -13.333 8.5 -22v-303c0 -42.667 11.833 -76.834 35.5 -102.501s58.5 -38.5 104.5 -38.5c34 0 64.167 4.33301 90.5 13s47.833 18.334 64.5 29.001v402c0 8.66699 2.66699 16 8 22
s12.333 9 21 9c7.33301 0 14 -3 20 -9s9 -13.333 9 -22v-413c0 -14 -5 -23.667 -15 -29c-7.33301 -5.33301 -17 -11.166 -29 -17.499s-26.333 -12.333 -43 -18s-35.667 -10.5 -57 -14.5s-45 -6 -71 -6c-28 0 -53.667 3.5 -77 10.5s-43.666 19.5 -60.999 37.5v-185
c0 -8.66699 -2.83301 -15.834 -8.5 -21.501s-12.5 -8.5 -20.5 -8.5c-8.66699 0 -15.667 2.83301 -21 8.5s-8 12.834 -8 21.501v635z" />
    <glyph glyph-name="paragraph" unicode="&#xb6;" horiz-adv-x="687" 
d="M405 -192c-8 0 -14.833 2.83496 -20.5 8.50195s-8.5 12.834 -8.5 21.501v437h-35c-33.333 0 -63.833 4.66699 -91.5 14s-51.5 23.166 -71.5 41.499s-35.667 40.666 -47 66.999s-17 56.5 -17 90.5c0 32 5.66699 61 17 87s27 48.167 47 66.5s43.833 32.5 71.5 42.5
s57.834 15 90.501 15h181c21.333 0 36.166 -4.5 44.499 -13.5s12.5 -21.5 12.5 -37.5v-810c0 -7.33301 -2.83301 -14.166 -8.5 -20.499s-12.5 -9.5 -20.5 -9.5s-14.833 3.16699 -20.5 9.5s-8.5 13.166 -8.5 20.499v803h-86v-803c0 -8.66699 -2.66699 -15.834 -8 -21.501
s-12.333 -8.5 -21 -8.5zM172 487.002c0 -22 3.16699 -42.5 9.5 -61.5s16.166 -35.167 29.499 -48.5s30.666 -23.833 51.999 -31.5s46.666 -11.5 75.999 -11.5h37v307h-37c-29.333 0 -54.666 -3.83301 -75.999 -11.5s-38.666 -18.5 -51.999 -32.5
s-23.166 -30.333 -29.499 -49s-9.5 -39 -9.5 -61z" />
    <glyph glyph-name="periodcentered" unicode="&#xb7;" horiz-adv-x="259" 
d="M130 414c9.33301 0 17.167 -3.33301 23.5 -10s9.5 -14.667 9.5 -24v-54c0 -9.33301 -3 -17.333 -9 -24s-14 -10 -24 -10c-9.33301 0 -17.166 3.33301 -23.499 10s-9.5 14.667 -9.5 24v54c0 9.33301 3.16699 17.333 9.5 24s14.166 10 23.499 10z" />
    <glyph glyph-name="cedilla" unicode="&#xb8;" 
d="M145 4c1.33301 6 4.5 10.999 9.5 14.999s11.167 6 18.5 6c8.66699 0 15 -2.33301 19 -7s6 -10.667 6 -18c0 -3.33301 -0.666992 -6.33301 -2 -9l-14 -40c23.333 -1.33301 42.833 -9.66602 58.5 -24.999s23.5 -34.666 23.5 -57.999c0 -16 -3.5 -30.167 -10.5 -42.5
s-16.333 -23.166 -28 -32.499s-24.667 -17.333 -39 -24s-28.5 -12.334 -42.5 -17.001c-8.66699 -3.33301 -17.167 -2.83301 -25.5 1.5s-12.5 12.5 -12.5 24.5c0 4 1.33301 8.5 4 13.5s8.66699 9.16699 18 12.5c16 6 29.167 11.667 39.5 17s18.166 10.666 23.499 15.999
s9 10.333 11 15s3 9.66699 3 15c0 6.66699 -2.5 13.5 -7.5 20.5s-12.833 10.5 -23.5 10.5c-7.33301 0 -12.666 -0.666992 -15.999 -2s-7.66602 -2 -12.999 -2c-9.33301 0 -16.833 4 -22.5 12s-6.83398 17 -3.50098 27z" />
    <glyph glyph-name="onesuperior" unicode="&#xb9;" horiz-adv-x="326" 
d="M158 621l-65.999 -36.998c-7.33301 -4 -14.833 -5.16699 -22.5 -3.5s-13.5 6.16699 -17.5 13.5s-4.83301 15.166 -2.5 23.499s7.16602 14.166 14.499 17.499l108 61c6.66699 2.66699 12 4 16 4c8 0 14.667 -2.83301 20 -8.5s8 -12.5 8 -20.5v-400
c0 -8 -2.66699 -14.667 -8 -20s-12.333 -8 -21 -8c-8 0 -14.833 2.83301 -20.5 8.5s-8.5 12.167 -8.5 19.5v350z" />
    <glyph glyph-name="ordmasculine" unicode="&#xba;" horiz-adv-x="476" 
d="M415 441c-2 -24 -8 -46.332 -18 -66.999s-22.833 -38.5 -38.5 -53.5s-33.667 -26.833 -54 -35.5s-42.5 -13 -66.5 -13s-46.333 4.33301 -67 13s-38.834 20.667 -54.501 36s-28.334 33.166 -38.001 53.499s-15.5 42.5 -17.5 66.5c-1.33301 15.333 -2 32 -2 50
s0.666992 34.667 2 50c2 24 7.83301 46.167 17.5 66.5s22.334 38 38.001 53s33.834 26.667 54.501 35s43 12.5 67 12.5s46.167 -4.16699 66.5 -12.5s38.333 -20 54 -35s28.5 -32.667 38.5 -53s16 -42.5 18 -66.5c1.33301 -15.333 2 -32 2 -50s-0.666992 -34.667 -2 -50z
M238 332.001c32.667 0 60.166 10.5 82.499 31.5s34.833 48.5 37.5 82.5c1.33301 14.667 2 29.5 2 44.5s-0.666992 30.167 -2 45.5c-3.33301 32 -16 58.667 -38 80s-49.333 32 -82 32c-16 0 -31 -2.83301 -45 -8.5s-26.333 -13.5 -37 -23.5s-19.334 -21.833 -26.001 -35.5
s-11 -28.5 -13 -44.5c-2 -30.667 -2 -60.667 0 -90c2.66699 -34 15.334 -61.5 38.001 -82.5s50.334 -31.5 83.001 -31.5z" />
    <glyph glyph-name="guillemotright" unicode="&#xbb;" horiz-adv-x="538" 
d="M487 349c0 -12.667 -3.5 -24.3301 -10.5 -34.9971s-17.833 -22 -32.5 -34l-119 -100c-7.33301 -5.33301 -15.166 -7.66602 -23.499 -6.99902s-15.166 4.33398 -20.499 11.001c-6 6.66699 -8.5 14.334 -7.5 23.001s4.83301 15.667 11.5 21l133 107
c2 1.33301 4 3.16602 6 5.49902s3 5.16602 3 8.49902s-1 6.16602 -3 8.49902s-4 4.16602 -6 5.49902l-133 106c-6.66699 5.33301 -10.5 12.166 -11.5 20.499s1.5 15.833 7.5 22.5c5.33301 7.33301 12.166 11.333 20.499 12s16.166 -2 23.499 -8l119 -98
c14.667 -12.667 25.5 -24.334 32.5 -35.001s10.5 -22 10.5 -34zM306 349.004c0 -12.667 -3.5 -24.3301 -10.5 -34.9971s-17.833 -22 -32.5 -34l-120 -100c-6.66699 -5.33301 -14.334 -7.66602 -23.001 -6.99902s-15.667 4.33398 -21 11.001s-7.5 14.334 -6.5 23.001
s4.83301 15.667 11.5 21l133 107c2 1.33301 4 3.16602 6 5.49902s3 5.16602 3 8.49902s-1 6.16602 -3 8.49902s-4 4.16602 -6 5.49902l-133 106c-6.66699 5.33301 -10.5 12.166 -11.5 20.499s1.16699 15.833 6.5 22.5c5.33301 7.33301 12.333 11.333 21 12
s16.334 -2 23.001 -8l120 -98c14.667 -12.667 25.5 -24.334 32.5 -35.001s10.5 -22 10.5 -34z" />
    <glyph glyph-name="onequarter" unicode="&#xbc;" horiz-adv-x="947" 
d="M500 712c3.33301 7.33301 8.66797 12.667 16.001 16s14.333 3.66602 21 0.999023c8 -3.33301 13.667 -8.66602 17 -15.999s3.33301 -15 0 -23l-279 -704c-3.33301 -7.33301 -8.5 -12.5 -15.5 -15.5s-14.167 -3.16699 -21.5 -0.5c-8 3.33301 -13.833 8.5 -17.5 15.5
s-3.83398 14.167 -0.500977 21.5zM160.002 625.001l-67.998 -37c-7.33301 -4 -14.833 -5.5 -22.5 -4.5s-13.5 5.16699 -17.5 12.5s-4.83301 14.833 -2.5 22.5s7.16602 13.167 14.499 16.5l108 61c6.66699 2.66699 12 4 16 4c8 0 14.333 -2.83301 19 -8.5s7 -12.5 7 -20.5
v-400c0 -8 -2.33301 -14.667 -7 -20s-11.334 -8 -20.001 -8c-8 0 -14.5 2.83301 -19.5 8.5s-7.5 12.167 -7.5 19.5v354zM845.004 161.001c8 0 15.002 -2.49805 21.002 -7.49805s9 -11.833 9 -20.5s-2.83301 -15.334 -8.5 -20.001s-12.834 -7 -21.501 -7h-43v-76
c0 -7.33301 -2.16699 -14.166 -6.5 -20.499s-10.833 -9.5 -19.5 -9.5c-9.33301 0 -16.333 2.83301 -21 8.5s-7 12.834 -7 21.501v76h-205c-15.333 0 -27.5 4.16699 -36.5 12.5s-13.5 19.166 -13.5 32.499c0 5.33301 1 11.166 3 17.499s7.33301 14.166 16 23.499l204 241
c7.33301 8 14.166 14.167 20.499 18.5s13.833 6.5 22.5 6.5c14.667 0 25.5 -4.5 32.5 -13.5s10.5 -20.167 10.5 -33.5v-250h43zM554.006 161.003h194v228z" />
    <glyph glyph-name="onehalf" unicode="&#xbd;" horiz-adv-x="926" 
d="M160 625l-67.998 -37c-7.33301 -4 -14.833 -5.5 -22.5 -4.5s-13.5 5.16699 -17.5 12.5s-4.83301 14.833 -2.5 22.5s7.16602 13.167 14.499 16.5l108 61c6.66699 2.66699 12 4 16 4c8 0 14.333 -2.83301 19 -8.5s7 -12.5 7 -20.5v-400c0 -8 -2.33301 -14.667 -7 -20
s-11.334 -8 -20.001 -8c-8 0 -14.5 2.83301 -19.5 8.5s-7.5 12.167 -7.5 19.5v354zM502.002 712c3.33301 7.33301 8.49805 12.668 15.498 16.001s14.167 3.66602 21.5 0.999023c8 -2.66699 13.667 -7.83398 17 -15.501s3.33301 -15.5 0 -23.5l-279 -704
c-3.33301 -7.33301 -8.66602 -12.666 -15.999 -15.999s-14.666 -3.33301 -21.999 0c-8 3.33301 -13.5 8.5 -16.5 15.5s-2.83301 14.833 0.5 23.5zM543 45.002c0 27.333 8.83203 53.167 26.499 77.5s43.167 48.5 76.5 72.5c10.667 8 23.667 16.667 39 26s30 19.666 44 30.999
s26 23.833 36 37.5s15 28.834 15 45.501c0 8.66699 -1.83301 17.5 -5.5 26.5s-9.16699 17 -16.5 24s-16.666 12.667 -27.999 17s-24.666 6.5 -39.999 6.5c-22 0 -40.5 -4.66699 -55.5 -14s-27.5 -20.666 -37.5 -33.999c-3.33301 -4 -6.83301 -7.66699 -10.5 -11
s-8.83398 -5 -15.501 -5c-8.66699 0 -15.5 2.66699 -20.5 8s-7.5 11.666 -7.5 18.999s2.33301 14.333 7 21c11.333 16.667 28.5 32.5 51.5 47.5s52.5 22.5 88.5 22.5c23.333 0 44 -3.33301 62 -10s33 -15.834 45 -27.501s21.167 -25.334 27.5 -41.001s9.5 -32.167 9.5 -49.5
c0 -19.333 -3 -36.166 -9 -50.499s-15.167 -28 -27.5 -41s-28.166 -26.167 -47.499 -39.5l-69 -47c-30 -20.667 -50.833 -39.167 -62.5 -55.5s-18.834 -32.166 -21.501 -47.499h217c8 0 14.833 -2.5 20.5 -7.5s8.5 -11.5 8.5 -19.5c0 -8.66699 -2.83301 -15.5 -8.5 -20.5
s-12.5 -7.5 -20.5 -7.5h-230c-11.333 0 -21 4.16699 -29 12.5s-12 19.5 -12 33.5z" />
    <glyph glyph-name="threequarters" unicode="&#xbe;" horiz-adv-x="1062" 
d="M977 161c8 0 15.002 -2.49805 21.002 -7.49805s9 -11.833 9 -20.5s-2.83301 -15.334 -8.5 -20.001s-12.834 -7 -21.501 -7h-43v-76c0 -7.33301 -2.16699 -14.166 -6.5 -20.499s-10.833 -9.5 -19.5 -9.5c-9.33301 0 -16.333 2.83301 -21 8.5s-7 12.834 -7 21.501v76h-205
c-15.333 0 -27.5 4.16699 -36.5 12.5s-13.5 19.166 -13.5 32.499c0 5.33301 1 11.166 3 17.499s7.33301 14.166 16 23.499l204 241c7.33301 8 14.166 14.167 20.499 18.5s13.833 6.5 22.5 6.5c14.667 0 25.5 -4.5 32.5 -13.5s10.5 -20.167 10.5 -33.5v-250h43z
M185.002 476.002c-8 0 -15.167 2.33105 -21.5 6.99805s-9.5 11.667 -9.5 21c0 8.66699 3.33301 16.334 10 23.001l112 112h-179c-8.66699 0 -15.667 2.83301 -21 8.5s-8 12.167 -8 19.5c0 8.66699 2.66699 15.334 8 20.001s12.333 7 21 7h205c11.333 0 21.5 -3.5 30.5 -10.5
s13.5 -16.5 13.5 -28.5c0 -4.66699 -1 -10 -3 -16s-7.33301 -13.667 -16 -23l-86 -84c18 -1.33301 35 -5.33301 51 -12s29.833 -15.667 41.5 -27s20.834 -24.5 27.501 -39.5s10 -31.5 10 -49.5c0 -52.667 -21.5 -94 -64.5 -124s-101.5 -45 -175.5 -45h-17
c-6 0 -11.667 0.333008 -17 1c-8 0.666992 -14.833 3.16699 -20.5 7.5s-8.5 10.833 -8.5 19.5c0 7.33301 2.66699 13.333 8 18s12.333 7 21 7h38c26.667 0 51.167 2.66699 73.5 8s41.666 13 57.999 23s29 22 38 36s13.5 30 13.5 48c0 22.667 -8.5 41.167 -25.5 55.5
s-36.167 21.5 -57.5 21.5c-14 0 -24.333 -0.666992 -31 -2s-13 -2 -19 -2zM633.002 712c3.33301 7.33301 8.66797 12.6699 16.001 16.0029s14.666 3.66602 21.999 0.999023c7.33301 -3.33301 12.666 -8.66602 15.999 -15.999s3.33301 -15 0 -23l-279 -704
c-3.33301 -7.33301 -8.33301 -12.833 -15 -16.5s-14.667 -3.83398 -24 -0.500977c-7.33301 3.33301 -12.666 8.66602 -15.999 15.999s-3.33301 14.666 0 21.999zM685.004 161.004h195v228z" />
    <glyph glyph-name="questiondown" unicode="&#xbf;" horiz-adv-x="560" 
d="M432.007 125.035c4 5.33301 8.00195 8.66992 12.002 10.0029c3.99902 1.33301 7.99902 2 11.999 2c7.99902 0 14.998 -3 20.9971 -8.99902c6 -6 9 -13 9 -20.999c0 -5.99902 -3 -12.999 -9 -20.999c-49.9971 -63.3291 -120.659 -94.9941 -211.986 -94.9941
c-30.665 0 -58.4971 4.66602 -83.4961 13.999s-46.3311 22.332 -63.9961 38.9971s-31.3311 36.6641 -40.9971 59.9961c-9.66699 23.332 -14.5 48.6641 -14.5 75.9951c0 33.3311 4.33301 61.6631 13 84.9951c8.66602 23.332 21.665 44.1641 38.9971 62.4961
c17.333 18.333 39.332 35.332 65.9971 50.9971c26.665 15.666 57.9961 32.165 93.9932 49.4971c8.66602 3.33301 15.999 5 21.999 5c7.33301 0 14.166 -2.66699 20.499 -8s9.49902 -12.666 9.49902 -21.999c0 -13.333 -7.33301 -23.333 -21.999 -30
c-34.6641 -15.332 -63.8291 -29.6641 -87.4941 -42.9971s-42.6641 -27.332 -56.9971 -41.9971c-14.332 -14.666 -24.498 -30.832 -30.498 -48.4971c-5.99902 -17.666 -8.99902 -38.165 -8.99902 -61.4961c0 -38.665 12.666 -69.9971 37.9971 -93.9961
c25.332 -23.998 60.9971 -35.9971 106.994 -35.9971c39.3311 0 71.6621 6 96.9941 17.999c25.3311 11.999 48.6631 31.6641 69.9951 58.9961zM328.016 622.009c0 -9.33301 -3.5 -16.9971 -10.5 -22.9971c-6.99902 -5.99902 -14.498 -8.99902 -22.4971 -8.99902
c-8.66602 0 -16.332 3 -22.999 8.99902c-6.66602 6 -9.99902 13.666 -9.99902 22.999v54.9961c0 9.33301 3.33301 16.999 9.99902 22.998c6.66699 5.99902 14.333 8.99902 22.999 8.99902c7.99902 0 15.498 -3.16602 22.4971 -9.49902c7 -6.33301 10.5 -13.833 10.5 -22.5
v-54.9961z" />
    <glyph glyph-name="Agrave" unicode="&#xc0;" horiz-adv-x="669" 
d="M642 31c0 -7.33301 -2.50293 -14.333 -7.50293 -21s-12.167 -10 -21.5 -10c-13.333 -0 -22.666 6.33301 -27.999 19l-84 229h-335l-82 -229c-5.33301 -12.667 -14.666 -19 -27.999 -19c-11.333 -0 -19.5 4.33301 -24.5 13s-5.83301 18 -2.5 28l218 598
c8 22 18.833 39.167 32.5 51.5s31.834 18.5 54.501 18.5s41 -6 55 -18s25 -29 33 -51l218 -599c1.33301 -4 2 -7.33301 2 -10zM187.997 306h291l-115 322c-5.33301 16.667 -15.333 25 -30 25c-13.333 0 -23.333 -8.66699 -30 -26zM381.997 802
c9.33301 -4.66699 14 -12.332 14 -22.999c0 -7.33301 -2.5 -13.5 -7.5 -18.5s-11.167 -7.5 -18.5 -7.5c-3.33301 0 -6 0.333008 -8 1s-4 1.66699 -6 3l-135 69c-3.33301 2 -6.5 5.16699 -9.5 9.5s-4.5 9.16602 -4.5 14.499c0 7.33301 2.5 13.5 7.5 18.5s11.167 7.5 18.5 7.5
c6 0 11 -1.33301 15 -4z" />
    <glyph glyph-name="Aacute" unicode="&#xc1;" horiz-adv-x="669" 
d="M642 31c0 -7.33301 -2.50293 -14.333 -7.50293 -21s-12.167 -10 -21.5 -10c-13.333 -0 -22.666 6.33301 -27.999 19l-84 229h-335l-82 -229c-5.33301 -12.667 -14.666 -19 -27.999 -19c-11.333 -0 -19.5 4.33301 -24.5 13s-5.83301 18 -2.5 28l218 598
c8 22 18.833 39.167 32.5 51.5s31.834 18.5 54.501 18.5s41 -6 55 -18s25 -29 33 -51l218 -599c1.33301 -4 2 -7.33301 2 -10zM187.997 306h291l-115 322c-5.33301 16.667 -15.333 25 -30 25c-13.333 0 -23.333 -8.66699 -30 -26zM418.997 872
c5.33301 2.66699 10 4.00098 14 4.00098c7.33301 0 13.5 -2.5 18.5 -7.5s7.5 -11.167 7.5 -18.5c0 -11.333 -4.66699 -19.333 -14 -24l-136 -70c-1.33301 -0.666992 -3 -1.33398 -5 -2.00098s-4.66699 -1 -8 -1c-7.33301 0 -13.5 2.5 -18.5 7.5s-7.5 11.167 -7.5 18.5
c0 5.33301 1.5 10 4.5 14s6.16699 7 9.5 9z" />
    <glyph glyph-name="Acircumflex" unicode="&#xc2;" horiz-adv-x="669" 
d="M642 31c0 -7.33301 -2.50293 -14.333 -7.50293 -21s-12.167 -10 -21.5 -10c-13.333 -0 -22.666 6.33301 -27.999 19l-84 229h-335l-82 -229c-5.33301 -12.667 -14.666 -19 -27.999 -19c-11.333 -0 -19.5 4.33301 -24.5 13s-5.83301 18 -2.5 28l218 598
c8 22 18.833 39.167 32.5 51.5s31.834 18.5 54.501 18.5s41 -6 55 -18s25 -29 33 -51l218 -599c1.33301 -4 2 -7.33301 2 -10zM187.997 306h291l-115 322c-5.33301 16.667 -15.333 25 -30 25c-13.333 0 -23.333 -8.66699 -30 -26zM446.997 800
c7.33301 -4.66699 11.002 -12 11.002 -22c0 -7.33301 -2.16699 -13.5 -6.5 -18.5s-10.833 -7.5 -19.5 -7.5c-6.66699 0 -12.334 2 -17.001 6l-81 60l-81 -60c-4.66699 -4 -10.667 -6 -18 -6c-8 0 -14.333 2.5 -19 7.5s-7 11.167 -7 18.5c0 5.33301 1.16699 9.83301 3.5 13.5
s5.16602 6.5 8.49902 8.5l87 64c7.33301 6.66699 16 10 26 10c8 0 16.333 -3.33301 25 -10z" />
    <glyph glyph-name="Atilde" unicode="&#xc3;" horiz-adv-x="669" 
d="M642 31c0 -7.33301 -2.50293 -14.333 -7.50293 -21s-12.167 -10 -21.5 -10c-13.333 -0 -22.666 6.33301 -27.999 19l-84 229h-335l-82 -229c-5.33301 -12.667 -14.666 -19 -27.999 -19c-11.333 -0 -19.5 4.33301 -24.5 13s-5.83301 18 -2.5 28l218 598
c8 22 18.833 39.167 32.5 51.5s31.834 18.5 54.501 18.5s41 -6 55 -18s25 -29 33 -51l218 -599c1.33301 -4 2 -7.33301 2 -10zM187.997 306h291l-115 322c-5.33301 16.667 -15.333 25 -30 25c-13.333 0 -23.333 -8.66699 -30 -26zM386.997 808
c6 0 11.167 1.33398 15.5 4.00098s8.5 5.5 12.5 8.5s8 5.83301 12 8.5s8.66699 4 14 4c8.66699 0 15.5 -2.5 20.5 -7.5s7.5 -11.167 7.5 -18.5c0 -5.33301 -1.16699 -9.83301 -3.5 -13.5s-5.16602 -6.83398 -8.49902 -9.50098c-10.667 -9.33301 -22 -16.666 -34 -21.999
s-24 -8 -36 -8c-11.333 0 -21.833 1.83301 -31.5 5.5s-18.834 7.83398 -27.501 12.501s-16.834 8.83398 -24.501 12.501s-15.167 5.5 -22.5 5.5c-6 0 -11.333 -1.33301 -16 -4s-9 -5.5 -13 -8.5s-8 -5.83301 -12 -8.5s-8.66699 -4 -14 -4c-8 0 -14.5 2.5 -19.5 7.5
s-7.5 11.167 -7.5 18.5c0 9.33301 4 17 12 23c10.667 9.33301 22 16.666 34 21.999s23.667 8 35 8c12 0 22.667 -1.83301 32 -5.5s18.333 -7.83398 27 -12.501s16.834 -8.83398 24.501 -12.501s15.5 -5.5 23.5 -5.5z" />
    <glyph glyph-name="Adieresis" unicode="&#xc4;" horiz-adv-x="669" 
d="M642 31c0 -7.33301 -2.50293 -14.333 -7.50293 -21s-12.167 -10 -21.5 -10c-13.333 -0 -22.666 6.33301 -27.999 19l-84 229h-335l-82 -229c-5.33301 -12.667 -14.666 -19 -27.999 -19c-11.333 -0 -19.5 4.33301 -24.5 13s-5.83301 18 -2.5 28l218 598
c8 22 18.833 39.167 32.5 51.5s31.834 18.5 54.501 18.5s41 -6 55 -18s25 -29 33 -51l218 -599c1.33301 -4 2 -7.33301 2 -10zM187.997 306h291l-115 322c-5.33301 16.667 -15.333 25 -30 25c-13.333 0 -23.333 -8.66699 -30 -26zM258.997 837
c10.667 0 19.5 -3.66699 26.5 -11s10.5 -16 10.5 -26c0 -10.667 -3.5 -19.5 -10.5 -26.5s-15.833 -10.5 -26.5 -10.5c-10 0 -18.667 3.5 -26 10.5s-11 15.833 -11 26.5c0 10 3.66699 18.667 11 26s16 11 26 11zM408.997 837c10 0 18.667 -3.66699 26 -11s11 -16 11 -26
c0 -10.667 -3.66699 -19.5 -11 -26.5s-16 -10.5 -26 -10.5c-10.667 0 -19.5 3.5 -26.5 10.5s-10.5 15.833 -10.5 26.5c0 10 3.5 18.667 10.5 26s15.833 11 26.5 11z" />
    <glyph glyph-name="Aring" unicode="&#xc5;" horiz-adv-x="669" 
d="M642 31c0 -7.33301 -2.50293 -14.333 -7.50293 -21s-12.167 -10 -21.5 -10c-13.333 -0 -22.666 6.33301 -27.999 19l-84 229h-335l-82 -229c-5.33301 -12.667 -14.666 -19 -27.999 -19c-11.333 -0 -19.5 4.33301 -24.5 13s-5.83301 18 -2.5 28l218 598
c8 22 18.833 39.167 32.5 51.5s31.834 18.5 54.501 18.5s41 -6 55 -18s25 -29 33 -51l218 -599c1.33301 -4 2 -7.33301 2 -10zM187.997 306h291l-115 322c-5.33301 16.667 -15.333 25 -30 25c-13.333 0 -23.333 -8.66699 -30 -26zM243.997 841
c0 24.667 8.66699 45.834 26 63.501s38.666 26.5 63.999 26.5c24.667 0 45.834 -8.83301 63.501 -26.5s26.5 -38.834 26.5 -63.501s-8.83301 -45.834 -26.5 -63.501s-38.834 -26.5 -63.501 -26.5c-25.333 0 -46.666 8.83301 -63.999 26.5s-26 38.834 -26 63.501z
M287.997 841c0 -12.667 4.33301 -23.334 13 -32.001s19.667 -13 33 -13c12.667 0 23.5 4.33301 32.5 13s13.5 19.334 13.5 32.001c0 13.333 -4.5 24.333 -13.5 33s-19.833 13 -32.5 13c-13.333 0 -24.333 -4.33301 -33 -13s-13 -19.667 -13 -33z" />
    <glyph glyph-name="AE" unicode="&#xc6;" horiz-adv-x="1031" 
d="M518 254l-278.999 0.000976562l-163 -244c-6 -9.33301 -14.667 -14 -26 -14c-5.33301 0 -10.666 1.66699 -15.999 5c-7.33301 4 -12 10.333 -14 19s-1 16.334 3 23.001l409 607c13.333 20 28.666 33.167 45.999 39.5s35.666 9.5 54.999 9.5h393
c8.66699 0 15.834 -2.83301 21.501 -8.5s8.5 -12.834 8.5 -21.501c0 -8 -3 -15 -9 -21s-13 -9 -21 -9h-350v-257h342c9.33301 0 17 -2.66699 23 -8s9 -12.333 9 -21s-3.16699 -16 -9.5 -22s-13.833 -9 -22.5 -9h-342v-262h352c8 0 15 -3 21 -9s9 -13 9 -21
c0 -8.66699 -2.83301 -15.834 -8.5 -21.501s-12.834 -8.5 -21.501 -8.5h-354c-18.667 0 -32.667 5.5 -42 16.5s-14 24.167 -14 39.5v198zM279.001 314.001h238.999v325c-6.66699 0 -12.667 -1.16699 -18 -3.5s-10.666 -7.83301 -15.999 -16.5z" />
    <glyph glyph-name="Ccedilla" unicode="&#xc7;" horiz-adv-x="660" 
d="M580 200c7.33301 0 13.8281 -2.67188 19.4951 -8.00488s8.5 -12 8.5 -20c0 -3.33301 -0.666992 -7 -2 -11c-17.333 -45.333 -45.5 -83 -84.5 -113s-83.5 -48 -133.5 -54l-14 -43c23.333 -1.33301 42.833 -9.66602 58.5 -24.999s23.5 -34.666 23.5 -57.999
c0 -16 -3.66699 -30.167 -11 -42.5s-16.666 -23.166 -27.999 -32.499s-24.166 -17.333 -38.499 -24s-28.833 -12.334 -43.5 -17.001c-8 -3.33301 -16.167 -2.83301 -24.5 1.5s-12.5 12.5 -12.5 24.5c0 4 1.33301 8.5 4 13.5s8.33398 9.16699 17.001 12.5
c16.667 6 30 11.667 40 17s17.833 10.666 23.5 15.999s9.5 10.333 11.5 15s3 9.66699 3 15c0 6.66699 -2.5 13.5 -7.5 20.5s-12.833 10.5 -23.5 10.5c-7.33301 0 -12.666 -0.666992 -15.999 -2s-7.66602 -2 -12.999 -2c-9.33301 0 -16.833 4 -22.5 12
s-6.83398 17 -3.50098 27l21 60c-36.667 2.66699 -70.167 11.334 -100.5 26.001s-56.5 34.334 -78.5 59.001s-39.667 53.167 -53 85.5s-21.333 67.5 -24 105.5c-4 53.333 -4 107.333 0 162c2.66699 38.667 11.334 74.834 26.001 108.501s34.167 63 58.5 88s53 44.667 86 59
s69.167 21.5 108.5 21.5c28 0 55.167 -4.16699 81.5 -12.5s50.5 -20 72.5 -35s41.333 -33 58 -54s29.667 -43.833 39 -68.5c1.33301 -4 2 -7.66699 2 -11c0 -8 -2.83301 -14.667 -8.5 -20s-12.167 -8 -19.5 -8s-13.333 2 -18 6s-8 8.66699 -10 14
c-15.333 40 -40.833 72 -76.5 96s-75.834 36 -120.501 36c-31.333 0 -59.833 -5.5 -85.5 -16.5s-48 -26.167 -67 -45.5s-34.333 -42.333 -46 -69s-18.834 -55.667 -21.501 -87c-4 -55.333 -4 -110.666 0 -165.999c2.66699 -31.333 9.83398 -60.333 21.501 -87
s27 -49.667 46 -69s41.333 -34.5 67 -45.5s54.167 -16.5 85.5 -16.5c44.667 0 84.834 12 120.501 36s61.167 55.667 76.5 95c2 5.33301 5.33301 10 10 14s10.667 6 18 6z" />
    <glyph glyph-name="Egrave" unicode="&#xc8;" horiz-adv-x="623" 
d="M517 699c8.66699 0 16 -2.66602 22 -7.99902s9 -12.333 9 -21c0 -8 -3 -14.833 -9 -20.5s-13.333 -8.5 -22 -8.5h-349v-259h342c9.33301 0 17 -2.66699 23 -8s9 -12.333 9 -21s-3.16699 -16 -9.5 -22s-13.833 -9 -22.5 -9h-342v-263h351c8.66699 0 16 -2.83301 22 -8.5
s9 -12.5 9 -20.5c0 -8.66699 -2.83301 -15.834 -8.5 -21.501s-13.167 -8.5 -22.5 -8.5h-353c-18.667 0 -32.667 5.5 -42 16.5s-14 24.167 -14 39.5v587c0 15.333 4.66699 28.5 14 39.5s23.333 16.5 42 16.5h351zM396 802.001c9.33301 -4.66699 14 -12.332 14 -22.999
c0 -7.33301 -2.5 -13.5 -7.5 -18.5s-11.167 -7.5 -18.5 -7.5c-3.33301 0 -6 0.333008 -8 1s-4 1.66699 -6 3l-135 69c-3.33301 2 -6.5 5.16699 -9.5 9.5s-4.5 9.16602 -4.5 14.499c0 7.33301 2.5 13.5 7.5 18.5s11.167 7.5 18.5 7.5c6 0 11 -1.33301 15 -4z" />
    <glyph glyph-name="Eacute" unicode="&#xc9;" horiz-adv-x="623" 
d="M517 699c8.66699 0 16 -2.66602 22 -7.99902s9 -12.333 9 -21c0 -8 -3 -14.833 -9 -20.5s-13.333 -8.5 -22 -8.5h-349v-259h342c9.33301 0 17 -2.66699 23 -8s9 -12.333 9 -21s-3.16699 -16 -9.5 -22s-13.833 -9 -22.5 -9h-342v-263h351c8.66699 0 16 -2.83301 22 -8.5
s9 -12.5 9 -20.5c0 -8.66699 -2.83301 -15.834 -8.5 -21.501s-13.167 -8.5 -22.5 -8.5h-353c-18.667 0 -32.667 5.5 -42 16.5s-14 24.167 -14 39.5v587c0 15.333 4.66699 28.5 14 39.5s23.333 16.5 42 16.5h351zM359 872.001c5.33301 2.66699 10 4.00098 14 4.00098
c7.33301 0 13.5 -2.5 18.5 -7.5s7.5 -11.167 7.5 -18.5c0 -11.333 -4.66699 -19.333 -14 -24l-136 -70c-1.33301 -0.666992 -3 -1.33398 -5 -2.00098s-4.66699 -1 -8 -1c-7.33301 0 -13.5 2.5 -18.5 7.5s-7.5 11.167 -7.5 18.5c0 5.33301 1.5 10 4.5 14s6.16699 7 9.5 9z
" />
    <glyph glyph-name="Ecircumflex" unicode="&#xca;" horiz-adv-x="623" 
d="M517 699c8.66699 0 16 -2.66602 22 -7.99902s9 -12.333 9 -21c0 -8 -3 -14.833 -9 -20.5s-13.333 -8.5 -22 -8.5h-349v-259h342c9.33301 0 17 -2.66699 23 -8s9 -12.333 9 -21s-3.16699 -16 -9.5 -22s-13.833 -9 -22.5 -9h-342v-263h351c8.66699 0 16 -2.83301 22 -8.5
s9 -12.5 9 -20.5c0 -8.66699 -2.83301 -15.834 -8.5 -21.501s-13.167 -8.5 -22.5 -8.5h-353c-18.667 0 -32.667 5.5 -42 16.5s-14 24.167 -14 39.5v587c0 15.333 4.66699 28.5 14 39.5s23.333 16.5 42 16.5h351zM445 800.001c7.33301 -4.66699 11.002 -12 11.002 -22
c0 -7.33301 -2.16699 -13.5 -6.5 -18.5s-10.833 -7.5 -19.5 -7.5c-6.66699 0 -12.334 2 -17.001 6l-81 60l-81 -60c-4.66699 -4 -10.667 -6 -18 -6c-8 0 -14.333 2.5 -19 7.5s-7 11.167 -7 18.5c0 5.33301 1.16699 9.83301 3.5 13.5s5.16602 6.5 8.49902 8.5l87 64
c7.33301 6.66699 16 10 26 10c8 0 16.333 -3.33301 25 -10z" />
    <glyph glyph-name="Edieresis" unicode="&#xcb;" horiz-adv-x="623" 
d="M517 699c8.66699 0 16 -2.66602 22 -7.99902s9 -12.333 9 -21c0 -8 -3 -14.833 -9 -20.5s-13.333 -8.5 -22 -8.5h-349v-259h342c9.33301 0 17 -2.66699 23 -8s9 -12.333 9 -21s-3.16699 -16 -9.5 -22s-13.833 -9 -22.5 -9h-342v-263h351c8.66699 0 16 -2.83301 22 -8.5
s9 -12.5 9 -20.5c0 -8.66699 -2.83301 -15.834 -8.5 -21.501s-13.167 -8.5 -22.5 -8.5h-353c-18.667 0 -32.667 5.5 -42 16.5s-14 24.167 -14 39.5v587c0 15.333 4.66699 28.5 14 39.5s23.333 16.5 42 16.5h351zM262 837.001c10.667 0 19.5 -3.66699 26.5 -11
s10.5 -16 10.5 -26c0 -10.667 -3.5 -19.5 -10.5 -26.5s-15.833 -10.5 -26.5 -10.5c-10 0 -18.667 3.5 -26 10.5s-11 15.833 -11 26.5c0 10 3.66699 18.667 11 26s16 11 26 11zM412 837.001c10 0 18.667 -3.66699 26 -11s11 -16 11 -26c0 -10.667 -3.66699 -19.5 -11 -26.5
s-16 -10.5 -26 -10.5c-10.667 0 -19.5 3.5 -26.5 10.5s-10.5 15.833 -10.5 26.5c0 10 3.5 18.667 10.5 26s15.833 11 26.5 11z" />
    <glyph glyph-name="Igrave" unicode="&#xcc;" horiz-adv-x="278" 
d="M110 673c0 8.66699 2.83301 15.834 8.5 21.501s12.5 8.5 20.5 8.5s14.833 -2.83301 20.5 -8.5s8.5 -12.834 8.5 -21.501v-647c0 -8.66699 -2.83301 -15.834 -8.5 -21.501s-12.5 -8.5 -20.5 -8.5c-8.66699 0 -15.667 2.83301 -21 8.5s-8 12.834 -8 21.501v647zM191 802
c9.33301 -4.66699 14 -12.332 14 -22.999c0 -7.33301 -2.5 -13.5 -7.5 -18.5s-11.167 -7.5 -18.5 -7.5c-3.33301 0 -6 0.333008 -8 1s-4 1.66699 -6 3l-135 69c-3.33301 2 -6.5 5.16699 -9.5 9.5s-4.5 9.16602 -4.5 14.499c0 7.33301 2.5 13.5 7.5 18.5s11.167 7.5 18.5 7.5
c6 0 11 -1.33301 15 -4z" />
    <glyph glyph-name="Iacute" unicode="&#xcd;" horiz-adv-x="278" 
d="M110 673c0 8.66699 2.83301 15.834 8.5 21.501s12.5 8.5 20.5 8.5s14.833 -2.83301 20.5 -8.5s8.5 -12.834 8.5 -21.501v-647c0 -8.66699 -2.83301 -15.834 -8.5 -21.501s-12.5 -8.5 -20.5 -8.5c-8.66699 0 -15.667 2.83301 -21 8.5s-8 12.834 -8 21.501v647zM220 872
c5.33301 2.66699 10 4.00098 14 4.00098c7.33301 0 13.5 -2.5 18.5 -7.5s7.5 -11.167 7.5 -18.5c0 -11.333 -4.66699 -19.333 -14 -24l-136 -70c-1.33301 -0.666992 -3 -1.33398 -5 -2.00098s-4.66699 -1 -8 -1c-7.33301 0 -13.5 2.5 -18.5 7.5s-7.5 11.167 -7.5 18.5
c0 5.33301 1.5 10 4.5 14s6.16699 7 9.5 9z" />
    <glyph glyph-name="Icircumflex" unicode="&#xce;" horiz-adv-x="278" 
d="M110 673c0 8.66699 2.83301 15.834 8.5 21.501s12.5 8.5 20.5 8.5s14.833 -2.83301 20.5 -8.5s8.5 -12.834 8.5 -21.501v-647c0 -8.66699 -2.83301 -15.834 -8.5 -21.501s-12.5 -8.5 -20.5 -8.5c-8.66699 0 -15.667 2.83301 -21 8.5s-8 12.834 -8 21.501v647zM254 800
c7.33301 -4.66699 11.002 -12 11.002 -22c0 -7.33301 -2.16699 -13.5 -6.5 -18.5s-10.833 -7.5 -19.5 -7.5c-6.66699 0 -12.334 2 -17.001 6l-81 60l-81 -60c-4.66699 -4 -10.667 -6 -18 -6c-8 0 -14.333 2.5 -19 7.5s-7 11.167 -7 18.5c0 5.33301 1.16699 9.83301 3.5 13.5
s5.16602 6.5 8.49902 8.5l87 64c7.33301 6.66699 16 10 26 10c8 0 16.333 -3.33301 25 -10z" />
    <glyph glyph-name="Idieresis" unicode="&#xcf;" horiz-adv-x="278" 
d="M110 673c0 8.66699 2.83301 15.834 8.5 21.501s12.5 8.5 20.5 8.5s14.833 -2.83301 20.5 -8.5s8.5 -12.834 8.5 -21.501v-647c0 -8.66699 -2.83301 -15.834 -8.5 -21.501s-12.5 -8.5 -20.5 -8.5c-8.66699 0 -15.667 2.83301 -21 8.5s-8 12.834 -8 21.501v647zM65 837
c10.667 0 19.5 -3.66699 26.5 -11s10.5 -16 10.5 -26c0 -10.667 -3.5 -19.5 -10.5 -26.5s-15.833 -10.5 -26.5 -10.5c-10 0 -18.667 3.5 -26 10.5s-11 15.833 -11 26.5c0 10 3.66699 18.667 11 26s16 11 26 11zM215 837c10 0 18.667 -3.66699 26 -11s11 -16 11 -26
c0 -10.667 -3.66699 -19.5 -11 -26.5s-16 -10.5 -26 -10.5c-10.667 0 -19.5 3.5 -26.5 10.5s-10.5 15.833 -10.5 26.5c0 10 3.5 18.667 10.5 26s15.833 11 26.5 11z" />
    <glyph glyph-name="Eth" unicode="&#xd0;" horiz-adv-x="719" 
d="M165 0c-18 0 -31.666 5.5 -40.999 16.5s-14 24.167 -14 39.5v261h-78c-8.66699 0 -15.667 2.83301 -21 8.5s-8 12.5 -8 20.5c0 8.66699 2.66699 15.667 8 21s12.333 8 21 8h78v268c0 15.333 4.66699 28.5 14 39.5s23 16.5 41 16.5h173
c49.333 0 92.666 -7.5 129.999 -22.5s68.666 -35.667 93.999 -62s44.833 -57.5 58.5 -93.5s21.5 -75.333 23.5 -118c1.33301 -18 2 -36.5 2 -55.5s-0.666992 -36.833 -2 -53.5c-2 -42 -10 -81 -24 -117s-33.667 -67 -59 -93s-56.666 -46.5 -93.999 -61.5
s-80.333 -22.5 -129 -22.5h-173zM586.001 294c1.33301 17.333 1.99805 36.502 1.99805 57.502s-0.666992 39.167 -2 54.5c-2 35.333 -8.5 67.5 -19.5 96.5s-26.667 53.667 -47 74s-45.666 36.166 -75.999 47.499s-66.166 17 -107.499 17h-168v-266h176
c9.33301 0 16.666 -2.66699 21.999 -8s8 -12.333 8 -21c0 -8 -2.66699 -14.833 -8 -20.5s-12.666 -8.5 -21.999 -8.5h-176v-258h168c41.333 0 77.333 5.66699 108 17s56.167 27.166 76.5 47.499s35.833 45 46.5 74s17 61.167 19 96.5z" />
    <glyph glyph-name="Ntilde" unicode="&#xd1;" horiz-adv-x="769" 
d="M603 62l1.99902 0.00195312l-2 60.5c-0.666992 20.333 -1 47.5 -1 81.5v469c0 8.66699 2.83301 15.834 8.5 21.501s12.5 8.5 20.5 8.5s14.833 -2.83301 20.5 -8.5s8.5 -12.834 8.5 -21.501v-621c0 -14.667 -4.66699 -27.334 -14 -38.001s-20.666 -16 -33.999 -16
c-23.333 0 -41.333 9.66699 -54 29l-389 617h-3c0.666992 -19.333 1.16699 -40 1.5 -62s0.5 -50.333 0.5 -85v-471c0 -8 -2.83301 -15 -8.5 -21s-12.5 -9 -20.5 -9s-14.833 3 -20.5 9s-8.5 13 -8.5 21v621c0 17.333 4.83301 31.166 14.5 41.499s22.834 15.5 39.501 15.5
c10 0 19.667 -2.33301 29 -7s17.666 -12.667 24.999 -24zM435.999 810.002c6 0 11.167 1.33398 15.5 4.00098s8.5 5.5 12.5 8.5s8 5.83301 12 8.5s8.66699 4 14 4c8.66699 0 15.5 -2.5 20.5 -7.5s7.5 -11.167 7.5 -18.5c0 -5.33301 -1.16699 -9.83301 -3.5 -13.5
s-5.16602 -6.83398 -8.49902 -9.50098c-10.667 -9.33301 -22 -16.666 -34 -21.999s-24 -8 -36 -8c-11.333 0 -21.833 1.83301 -31.5 5.5s-18.834 7.83398 -27.501 12.501s-16.834 8.83398 -24.501 12.501s-15.167 5.5 -22.5 5.5c-6 0 -11.333 -1.33301 -16 -4
s-9 -5.5 -13 -8.5s-8 -5.83301 -12 -8.5s-8.66699 -4 -14 -4c-8 0 -14.5 2.5 -19.5 7.5s-7.5 11.167 -7.5 18.5c0 9.33301 4 17 12 23c10.667 9.33301 22 16.666 34 21.999s23.667 8 35 8c12 0 22.667 -1.83301 32 -5.5s18.333 -7.83398 27 -12.501
s16.834 -8.83398 24.501 -12.501s15.5 -5.5 23.5 -5.5z" />
    <glyph glyph-name="Ograve" unicode="&#xd2;" horiz-adv-x="727" 
d="M362 -9c-39.333 0 -75.833 6.99902 -109.5 20.999s-63.167 33.5 -88.5 58.5s-45.666 54.5 -60.999 88.5s-24.333 70.667 -27 110c-4 53.333 -4 107.333 0 162c2.66699 38.667 11.667 74.834 27 108.501s35.666 63 60.999 88s54.833 44.667 88.5 59
s70.167 21.5 109.5 21.5s76 -7.16699 110 -21.5s63.833 -33.833 89.5 -58.5s46.334 -54 62.001 -88s24.834 -70.333 27.501 -109c4 -54.667 4 -108.667 0 -162c-2.66699 -39.333 -11.834 -76 -27.501 -110s-36.334 -63.5 -62.001 -88.5s-55.5 -44.5 -89.5 -58.5
s-70.667 -21 -110 -21zM362 48.999c31.333 0 60.499 5.5 87.499 16.5s50.5 26.167 70.5 45.5s36.167 42.333 48.5 69s20.166 55.667 23.499 87c4.66699 54.667 4.66699 109.667 0 165c-3.33301 31.333 -11.166 60.333 -23.499 87s-28.666 49.667 -48.999 69
s-43.833 34.5 -70.5 45.5s-55.667 16.5 -87 16.5s-60.166 -5.5 -86.499 -16.5s-49.333 -26.167 -69 -45.5s-35.834 -42.333 -48.501 -69s-20.334 -55.667 -23.001 -87c-5.33301 -55.333 -5.33301 -110.333 0 -165c2.66699 -31.333 10.334 -60.333 23.001 -87
s28.834 -49.667 48.501 -69s42.667 -34.5 69 -45.5s55.166 -16.5 86.499 -16.5zM420.999 801.999c9.33301 -4.66699 14 -12.332 14 -22.999c0 -7.33301 -2.5 -13.5 -7.5 -18.5s-11.167 -7.5 -18.5 -7.5c-3.33301 0 -6 0.333008 -8 1s-4 1.66699 -6 3l-135 69
c-3.33301 2 -6.5 5.16699 -9.5 9.5s-4.5 9.16602 -4.5 14.499c0 7.33301 2.5 13.5 7.5 18.5s11.167 7.5 18.5 7.5c6 0 11 -1.33301 15 -4z" />
    <glyph glyph-name="Oacute" unicode="&#xd3;" horiz-adv-x="727" 
d="M362 -9c-39.333 0 -75.833 6.99902 -109.5 20.999s-63.167 33.5 -88.5 58.5s-45.666 54.5 -60.999 88.5s-24.333 70.667 -27 110c-4 53.333 -4 107.333 0 162c2.66699 38.667 11.667 74.834 27 108.501s35.666 63 60.999 88s54.833 44.667 88.5 59
s70.167 21.5 109.5 21.5s76 -7.16699 110 -21.5s63.833 -33.833 89.5 -58.5s46.334 -54 62.001 -88s24.834 -70.333 27.501 -109c4 -54.667 4 -108.667 0 -162c-2.66699 -39.333 -11.834 -76 -27.501 -110s-36.334 -63.5 -62.001 -88.5s-55.5 -44.5 -89.5 -58.5
s-70.667 -21 -110 -21zM362 48.999c31.333 0 60.499 5.5 87.499 16.5s50.5 26.167 70.5 45.5s36.167 42.333 48.5 69s20.166 55.667 23.499 87c4.66699 54.667 4.66699 109.667 0 165c-3.33301 31.333 -11.166 60.333 -23.499 87s-28.666 49.667 -48.999 69
s-43.833 34.5 -70.5 45.5s-55.667 16.5 -87 16.5s-60.166 -5.5 -86.499 -16.5s-49.333 -26.167 -69 -45.5s-35.834 -42.333 -48.501 -69s-20.334 -55.667 -23.001 -87c-5.33301 -55.333 -5.33301 -110.333 0 -165c2.66699 -31.333 10.334 -60.333 23.001 -87
s28.834 -49.667 48.501 -69s42.667 -34.5 69 -45.5s55.166 -16.5 86.499 -16.5zM438.999 871.999c5.33301 2.66699 10 4.00098 14 4.00098c7.33301 0 13.5 -2.5 18.5 -7.5s7.5 -11.167 7.5 -18.5c0 -11.333 -4.66699 -19.333 -14 -24l-136 -70
c-1.33301 -0.666992 -3 -1.33398 -5 -2.00098s-4.66699 -1 -8 -1c-7.33301 0 -13.5 2.5 -18.5 7.5s-7.5 11.167 -7.5 18.5c0 5.33301 1.5 10 4.5 14s6.16699 7 9.5 9z" />
    <glyph glyph-name="Ocircumflex" unicode="&#xd4;" horiz-adv-x="727" 
d="M362 -9c-39.333 0 -75.833 6.99902 -109.5 20.999s-63.167 33.5 -88.5 58.5s-45.666 54.5 -60.999 88.5s-24.333 70.667 -27 110c-4 53.333 -4 107.333 0 162c2.66699 38.667 11.667 74.834 27 108.501s35.666 63 60.999 88s54.833 44.667 88.5 59
s70.167 21.5 109.5 21.5s76 -7.16699 110 -21.5s63.833 -33.833 89.5 -58.5s46.334 -54 62.001 -88s24.834 -70.333 27.501 -109c4 -54.667 4 -108.667 0 -162c-2.66699 -39.333 -11.834 -76 -27.501 -110s-36.334 -63.5 -62.001 -88.5s-55.5 -44.5 -89.5 -58.5
s-70.667 -21 -110 -21zM362 48.999c31.333 0 60.499 5.5 87.499 16.5s50.5 26.167 70.5 45.5s36.167 42.333 48.5 69s20.166 55.667 23.499 87c4.66699 54.667 4.66699 109.667 0 165c-3.33301 31.333 -11.166 60.333 -23.499 87s-28.666 49.667 -48.999 69
s-43.833 34.5 -70.5 45.5s-55.667 16.5 -87 16.5s-60.166 -5.5 -86.499 -16.5s-49.333 -26.167 -69 -45.5s-35.834 -42.333 -48.501 -69s-20.334 -55.667 -23.001 -87c-5.33301 -55.333 -5.33301 -110.333 0 -165c2.66699 -31.333 10.334 -60.333 23.001 -87
s28.834 -49.667 48.501 -69s42.667 -34.5 69 -45.5s55.166 -16.5 86.499 -16.5zM475.999 799.999c7.33301 -4.66699 11.002 -12 11.002 -22c0 -7.33301 -2.16699 -13.5 -6.5 -18.5s-10.833 -7.5 -19.5 -7.5c-6.66699 0 -12.334 2 -17.001 6l-81 60l-81 -60
c-4.66699 -4 -10.667 -6 -18 -6c-8 0 -14.333 2.5 -19 7.5s-7 11.167 -7 18.5c0 5.33301 1.16699 9.83301 3.5 13.5s5.16602 6.5 8.49902 8.5l87 64c7.33301 6.66699 16 10 26 10c8 0 16.333 -3.33301 25 -10z" />
    <glyph glyph-name="Otilde" unicode="&#xd5;" horiz-adv-x="727" 
d="M362 -9c-39.333 0 -75.833 6.99902 -109.5 20.999s-63.167 33.5 -88.5 58.5s-45.666 54.5 -60.999 88.5s-24.333 70.667 -27 110c-4 53.333 -4 107.333 0 162c2.66699 38.667 11.667 74.834 27 108.501s35.666 63 60.999 88s54.833 44.667 88.5 59
s70.167 21.5 109.5 21.5s76 -7.16699 110 -21.5s63.833 -33.833 89.5 -58.5s46.334 -54 62.001 -88s24.834 -70.333 27.501 -109c4 -54.667 4 -108.667 0 -162c-2.66699 -39.333 -11.834 -76 -27.501 -110s-36.334 -63.5 -62.001 -88.5s-55.5 -44.5 -89.5 -58.5
s-70.667 -21 -110 -21zM362 48.999c31.333 0 60.499 5.5 87.499 16.5s50.5 26.167 70.5 45.5s36.167 42.333 48.5 69s20.166 55.667 23.499 87c4.66699 54.667 4.66699 109.667 0 165c-3.33301 31.333 -11.166 60.333 -23.499 87s-28.666 49.667 -48.999 69
s-43.833 34.5 -70.5 45.5s-55.667 16.5 -87 16.5s-60.166 -5.5 -86.499 -16.5s-49.333 -26.167 -69 -45.5s-35.834 -42.333 -48.501 -69s-20.334 -55.667 -23.001 -87c-5.33301 -55.333 -5.33301 -110.333 0 -165c2.66699 -31.333 10.334 -60.333 23.001 -87
s28.834 -49.667 48.501 -69s42.667 -34.5 69 -45.5s55.166 -16.5 86.499 -16.5zM416.999 805.999c6 0 11.167 1.33398 15.5 4.00098s8.5 5.5 12.5 8.5s8 5.83301 12 8.5s8.66699 4 14 4c8.66699 0 15.5 -2.5 20.5 -7.5s7.5 -11.167 7.5 -18.5
c0 -5.33301 -1.16699 -9.83301 -3.5 -13.5s-5.16602 -6.83398 -8.49902 -9.50098c-10.667 -9.33301 -22 -16.666 -34 -21.999s-24 -8 -36 -8c-11.333 0 -21.833 1.83301 -31.5 5.5s-18.834 7.83398 -27.501 12.501s-16.834 8.83398 -24.501 12.501s-15.167 5.5 -22.5 5.5
c-6 0 -11.333 -1.33301 -16 -4s-9 -5.5 -13 -8.5s-8 -5.83301 -12 -8.5s-8.66699 -4 -14 -4c-8 0 -14.5 2.5 -19.5 7.5s-7.5 11.167 -7.5 18.5c0 9.33301 4 17 12 23c10.667 9.33301 22 16.666 34 21.999s23.667 8 35 8c12 0 22.667 -1.83301 32 -5.5
s18.333 -7.83398 27 -12.501s16.834 -8.83398 24.501 -12.501s15.5 -5.5 23.5 -5.5z" />
    <glyph glyph-name="Odieresis" unicode="&#xd6;" horiz-adv-x="727" 
d="M362 -9c-39.333 0 -75.833 6.99902 -109.5 20.999s-63.167 33.5 -88.5 58.5s-45.666 54.5 -60.999 88.5s-24.333 70.667 -27 110c-4 53.333 -4 107.333 0 162c2.66699 38.667 11.667 74.834 27 108.501s35.666 63 60.999 88s54.833 44.667 88.5 59
s70.167 21.5 109.5 21.5s76 -7.16699 110 -21.5s63.833 -33.833 89.5 -58.5s46.334 -54 62.001 -88s24.834 -70.333 27.501 -109c4 -54.667 4 -108.667 0 -162c-2.66699 -39.333 -11.834 -76 -27.501 -110s-36.334 -63.5 -62.001 -88.5s-55.5 -44.5 -89.5 -58.5
s-70.667 -21 -110 -21zM362 48.999c31.333 0 60.499 5.5 87.499 16.5s50.5 26.167 70.5 45.5s36.167 42.333 48.5 69s20.166 55.667 23.499 87c4.66699 54.667 4.66699 109.667 0 165c-3.33301 31.333 -11.166 60.333 -23.499 87s-28.666 49.667 -48.999 69
s-43.833 34.5 -70.5 45.5s-55.667 16.5 -87 16.5s-60.166 -5.5 -86.499 -16.5s-49.333 -26.167 -69 -45.5s-35.834 -42.333 -48.501 -69s-20.334 -55.667 -23.001 -87c-5.33301 -55.333 -5.33301 -110.333 0 -165c2.66699 -31.333 10.334 -60.333 23.001 -87
s28.834 -49.667 48.501 -69s42.667 -34.5 69 -45.5s55.166 -16.5 86.499 -16.5zM287.999 836.999c10.667 0 19.5 -3.66699 26.5 -11s10.5 -16 10.5 -26c0 -10.667 -3.5 -19.5 -10.5 -26.5s-15.833 -10.5 -26.5 -10.5c-10 0 -18.667 3.5 -26 10.5s-11 15.833 -11 26.5
c0 10 3.66699 18.667 11 26s16 11 26 11zM437.999 836.999c10 0 18.667 -3.66699 26 -11s11 -16 11 -26c0 -10.667 -3.66699 -19.5 -11 -26.5s-16 -10.5 -26 -10.5c-10.667 0 -19.5 3.5 -26.5 10.5s-10.5 15.833 -10.5 26.5c0 10 3.5 18.667 10.5 26s15.833 11 26.5 11z" />
    <glyph glyph-name="multiply" unicode="&#xd7;" horiz-adv-x="628" 
d="M532 177c6 -5.33301 9.16699 -12.165 9.5 -20.498s-2.16699 -15.5 -7.5 -21.5c-6 -6.66699 -13.333 -9.66699 -22 -9s-16.334 4 -23.001 10l-175 175l-177 -178c-6.66699 -6 -14 -9.33301 -22 -10s-15.333 2 -22 8c-5.33301 5.33301 -8 12.166 -8 20.499s3 15.5 9 21.5
l179 179l-179 177c-6 6 -9 13.167 -9 21.5s2.66699 15.166 8 20.499c6.66699 6 14 8.66699 22 8s15.333 -4 22 -10l177 -178l175 175c6.66699 6 14.334 9.5 23.001 10.5s16 -1.83301 22 -8.5c5.33301 -6 7.83301 -13 7.5 -21s-3.5 -14.667 -9.5 -20l-177 -175z" />
    <glyph glyph-name="Oslash" unicode="&#xd8;" horiz-adv-x="726" 
d="M548 708c8 0 14.3369 -2.66699 19.0039 -8s7 -11.666 7 -18.999c0 -5.33301 -1 -10 -3 -14l-18 -32c28 -25.333 50.333 -55.5 67 -90.5s26.667 -72.833 30 -113.5c4 -54.667 4 -108.667 0 -162c-2.66699 -39.333 -11.834 -76 -27.501 -110s-36.334 -63.5 -62.001 -88.5
s-55.5 -44.5 -89.5 -58.5s-70.667 -21 -110 -21c-27.333 0 -53 3.33301 -77 10s-46.333 16 -67 28l-13 -23c-5.33301 -10 -13.333 -15 -24 -15c-8 0 -14.333 2.66699 -19 8s-7 11.666 -7 18.999c0 4.66699 1 9 3 13l16 30c-28 25.333 -50.5 55.666 -67.5 90.999
s-27.167 74.333 -30.5 117c-4 53.333 -4 107.333 0 162c2.66699 38.667 11.667 74.834 27 108.501s35.666 63 60.999 88s54.833 44.667 88.5 59s70.167 21.5 109.5 21.5c28 0 54.333 -3.5 79 -10.5s47.667 -17.167 69 -30.5l14 25c5.33301 10.667 13.666 16 24.999 16z
M134.004 267c3.33301 -31.333 10.6689 -60 22.002 -86s26.666 -48.667 45.999 -68l279 503c-35.333 22.667 -75.333 34 -120 34c-31.333 0 -60.166 -5.5 -86.499 -16.5s-49.333 -26.167 -69 -45.5s-35.834 -42.333 -48.501 -69s-20.334 -55.667 -23.001 -87
c-5.33301 -55.333 -5.33301 -110.333 0 -165zM361.007 49c31.333 0 60.5 5.50098 87.5 16.501s50.5 26.167 70.5 45.5s36.167 42.333 48.5 69s20.166 55.667 23.499 87c4.66699 54.667 4.66699 109.667 0 165c-3.33301 30 -10.666 57.667 -21.999 83
s-26.333 47.666 -45 66.999l-279 -502c34 -20.667 72.667 -31 116 -31z" />
    <glyph glyph-name="Ugrave" unicode="&#xd9;" horiz-adv-x="748" 
d="M649 276c0 -42 -6.99707 -80.5 -20.9971 -115.5s-33.167 -65 -57.5 -90s-53.333 -44.5 -87 -58.5s-70.167 -21 -109.5 -21s-75.833 7 -109.5 21s-62.834 33.5 -87.501 58.5s-43.834 55 -57.501 90s-20.5 73.5 -20.5 115.5v397c0 8.66699 2.83301 15.834 8.5 21.501
s12.5 8.5 20.5 8.5c8.66699 0 15.667 -2.83301 21 -8.5s8 -12.834 8 -21.501v-392c0 -36 5.5 -68.333 16.5 -97s26.167 -53 45.5 -73s42.166 -35.333 68.499 -46s55.166 -16 86.499 -16c30.667 0 59.334 5.33301 86.001 16s49.667 26 69 46s34.5 44.333 45.5 73
s16.5 61 16.5 97v392c0 8.66699 2.83301 15.834 8.5 21.501s12.5 8.5 20.5 8.5c8.66699 0 15.667 -2.83301 21 -8.5s8 -12.834 8 -21.501v-397zM460.003 802c9.33301 -4.66699 14 -12.332 14 -22.999c0 -7.33301 -2.5 -13.5 -7.5 -18.5s-11.167 -7.5 -18.5 -7.5
c-3.33301 0 -6 0.333008 -8 1s-4 1.66699 -6 3l-135 69c-3.33301 2 -6.5 5.16699 -9.5 9.5s-4.5 9.16602 -4.5 14.499c0 7.33301 2.5 13.5 7.5 18.5s11.167 7.5 18.5 7.5c6 0 11 -1.33301 15 -4z" />
    <glyph glyph-name="Uacute" unicode="&#xda;" horiz-adv-x="748" 
d="M649 276c0 -42 -6.99707 -80.5 -20.9971 -115.5s-33.167 -65 -57.5 -90s-53.333 -44.5 -87 -58.5s-70.167 -21 -109.5 -21s-75.833 7 -109.5 21s-62.834 33.5 -87.501 58.5s-43.834 55 -57.501 90s-20.5 73.5 -20.5 115.5v397c0 8.66699 2.83301 15.834 8.5 21.501
s12.5 8.5 20.5 8.5c8.66699 0 15.667 -2.83301 21 -8.5s8 -12.834 8 -21.501v-392c0 -36 5.5 -68.333 16.5 -97s26.167 -53 45.5 -73s42.166 -35.333 68.499 -46s55.166 -16 86.499 -16c30.667 0 59.334 5.33301 86.001 16s49.667 26 69 46s34.5 44.333 45.5 73
s16.5 61 16.5 97v392c0 8.66699 2.83301 15.834 8.5 21.501s12.5 8.5 20.5 8.5c8.66699 0 15.667 -2.83301 21 -8.5s8 -12.834 8 -21.501v-397zM423.003 872c5.33301 2.66699 10 4.00098 14 4.00098c7.33301 0 13.5 -2.5 18.5 -7.5s7.5 -11.167 7.5 -18.5
c0 -11.333 -4.66699 -19.333 -14 -24l-136 -70c-1.33301 -0.666992 -3 -1.33398 -5 -2.00098s-4.66699 -1 -8 -1c-7.33301 0 -13.5 2.5 -18.5 7.5s-7.5 11.167 -7.5 18.5c0 5.33301 1.5 10 4.5 14s6.16699 7 9.5 9z" />
    <glyph glyph-name="Ucircumflex" unicode="&#xdb;" horiz-adv-x="748" 
d="M649 276c0 -42 -6.99707 -80.5 -20.9971 -115.5s-33.167 -65 -57.5 -90s-53.333 -44.5 -87 -58.5s-70.167 -21 -109.5 -21s-75.833 7 -109.5 21s-62.834 33.5 -87.501 58.5s-43.834 55 -57.501 90s-20.5 73.5 -20.5 115.5v397c0 8.66699 2.83301 15.834 8.5 21.501
s12.5 8.5 20.5 8.5c8.66699 0 15.667 -2.83301 21 -8.5s8 -12.834 8 -21.501v-392c0 -36 5.5 -68.333 16.5 -97s26.167 -53 45.5 -73s42.166 -35.333 68.499 -46s55.166 -16 86.499 -16c30.667 0 59.334 5.33301 86.001 16s49.667 26 69 46s34.5 44.333 45.5 73
s16.5 61 16.5 97v392c0 8.66699 2.83301 15.834 8.5 21.501s12.5 8.5 20.5 8.5c8.66699 0 15.667 -2.83301 21 -8.5s8 -12.834 8 -21.501v-397zM487.003 800c7.33301 -4.66699 11.002 -12 11.002 -22c0 -7.33301 -2.16699 -13.5 -6.5 -18.5s-10.833 -7.5 -19.5 -7.5
c-6.66699 0 -12.334 2 -17.001 6l-81 60l-81 -60c-4.66699 -4 -10.667 -6 -18 -6c-8 0 -14.333 2.5 -19 7.5s-7 11.167 -7 18.5c0 5.33301 1.16699 9.83301 3.5 13.5s5.16602 6.5 8.49902 8.5l87 64c7.33301 6.66699 16 10 26 10c8 0 16.333 -3.33301 25 -10z" />
    <glyph glyph-name="Udieresis" unicode="&#xdc;" horiz-adv-x="748" 
d="M649 276c0 -42 -6.99707 -80.5 -20.9971 -115.5s-33.167 -65 -57.5 -90s-53.333 -44.5 -87 -58.5s-70.167 -21 -109.5 -21s-75.833 7 -109.5 21s-62.834 33.5 -87.501 58.5s-43.834 55 -57.501 90s-20.5 73.5 -20.5 115.5v397c0 8.66699 2.83301 15.834 8.5 21.501
s12.5 8.5 20.5 8.5c8.66699 0 15.667 -2.83301 21 -8.5s8 -12.834 8 -21.501v-392c0 -36 5.5 -68.333 16.5 -97s26.167 -53 45.5 -73s42.166 -35.333 68.499 -46s55.166 -16 86.499 -16c30.667 0 59.334 5.33301 86.001 16s49.667 26 69 46s34.5 44.333 45.5 73
s16.5 61 16.5 97v392c0 8.66699 2.83301 15.834 8.5 21.501s12.5 8.5 20.5 8.5c8.66699 0 15.667 -2.83301 21 -8.5s8 -12.834 8 -21.501v-397zM299.003 837c10.667 0 19.5 -3.66699 26.5 -11s10.5 -16 10.5 -26c0 -10.667 -3.5 -19.5 -10.5 -26.5
s-15.833 -10.5 -26.5 -10.5c-10 0 -18.667 3.5 -26 10.5s-11 15.833 -11 26.5c0 10 3.66699 18.667 11 26s16 11 26 11zM449.003 837c10 0 18.667 -3.66699 26 -11s11 -16 11 -26c0 -10.667 -3.66699 -19.5 -11 -26.5s-16 -10.5 -26 -10.5c-10.667 0 -19.5 3.5 -26.5 10.5
s-10.5 15.833 -10.5 26.5c0 10 3.5 18.667 10.5 26s15.833 11 26.5 11z" />
    <glyph glyph-name="Yacute" unicode="&#xdd;" horiz-adv-x="641" 
d="M594 704c7.33301 0 14 -2.83203 20 -8.49902s9 -12.167 9 -19.5s-2.66699 -14.333 -8 -21l-238 -294c-8 -10 -14.5 -18.5 -19.5 -25.5s-7.5 -17.5 -7.5 -31.5v-278c0 -8.66699 -2.83301 -15.834 -8.5 -21.501s-12.5 -8.5 -20.5 -8.5s-14.833 3 -20.5 9s-8.5 13 -8.5 21
v278c0 14 -2.83301 24.667 -8.5 32l-20.5 26l-237 293c-5.33301 6.66699 -8 13.667 -8 21s3 13.833 9 19.5s12.667 8.5 20 8.5c9.33301 0 17 -3.66699 23 -11l251 -312l250 312c6 7.33301 13.667 11 23 11zM375 872.001c5.33301 2.66699 10 4.00098 14 4.00098
c7.33301 0 13.5 -2.5 18.5 -7.5s7.5 -11.167 7.5 -18.5c0 -11.333 -4.66699 -19.333 -14 -24l-136 -70c-1.33301 -0.666992 -3 -1.33398 -5 -2.00098s-4.66699 -1 -8 -1c-7.33301 0 -13.5 2.5 -18.5 7.5s-7.5 11.167 -7.5 18.5c0 5.33301 1.5 10 4.5 14s6.16699 7 9.5 9z
" />
    <glyph glyph-name="Thorn" unicode="&#xde;" horiz-adv-x="642" 
d="M168 138v-112.002c0 -8.66699 -2.83301 -15.834 -8.5 -21.501s-12.5 -8.5 -20.5 -8.5s-14.833 2.83301 -20.5 8.5s-8.5 12.834 -8.5 21.501v653c0 8.66699 2.66699 15.834 8 21.501s12.333 8.5 21 8.5c7.33301 0 14 -2.83301 20 -8.5s9 -12.834 9 -21.501v-117h202
c30 0 58.167 -4.83301 84.5 -14.5s49.5 -23.5 69.5 -41.5s35.833 -40 47.5 -66s17.5 -55.667 17.5 -89c0 -34 -5.66699 -64.167 -17 -90.5s-27 -48.666 -47 -66.999s-44 -32.166 -72 -41.499s-58.333 -14 -91 -14h-194zM363 195.998c30 0 55.5 3.66504 76.5 10.998
s38.167 17.833 51.5 31.5s23 29.834 29 48.501s9 39.334 9 62.001c0 45.333 -13.167 82.5 -39.5 111.5s-66.833 43.5 -121.5 43.5h-200v-308h195z" />
    <glyph glyph-name="germandbls" unicode="&#xdf;" horiz-adv-x="649" 
d="M481 559c0 -22.667 -4.50098 -41.5049 -13.501 -56.5049s-19 -28.667 -30 -41s-21 -24.166 -30 -35.499s-13.5 -25 -13.5 -41c0 -17.333 5.16699 -31.333 15.5 -42s30.166 -20.334 59.499 -29.001c49.333 -16 86 -36.667 110 -62s36 -57.666 36 -96.999
c0 -25.333 -5 -48.166 -15 -68.499s-23.5 -37.666 -40.5 -51.999s-37.333 -25.333 -61 -33s-48.834 -11.5 -75.501 -11.5c-30 0 -57.667 4.83301 -83 14.5s-50.333 23.834 -75 42.501c-5.33301 5.33301 -8.66602 12.166 -9.99902 20.499s0.333984 15.5 5.00098 21.5
c5.33301 6.66699 12 10.834 20 12.501s15.667 -0.166016 23 -5.49902l26 -19c8 -6 16.5 -11.333 25.5 -16s19.333 -8.33398 31 -11.001s25.834 -4 42.501 -4c38 0 68.833 8.83301 92.5 26.5s35.5 44.5 35.5 80.5c0 26.667 -8 46.834 -24 60.501s-40.667 26.5 -74 38.5
c-22 8 -40.833 16.167 -56.5 24.5s-28.5 17.666 -38.5 27.999s-17.333 22.333 -22 36s-7 29.5 -7 47.5c0 22 4.66699 40.167 14 54.5s19.5 27.333 30.5 39s21.167 23.334 30.5 35.001s14 25.834 14 42.501c0 28 -10.167 49.833 -30.5 65.5s-49.5 23.5 -87.5 23.5
c-46 0 -82 -11.5 -108 -34.5s-39 -59.833 -39 -110.5v-477c0 -8 -2.83301 -15 -8.5 -21s-12.5 -9 -20.5 -9s-14.833 3 -20.5 9s-8.5 13 -8.5 21v478c0 64.667 17.667 113.834 53 147.501s85.333 50.5 150 50.5c26 0 49.833 -3.5 71.5 -10.5s40.5 -16.833 56.5 -29.5
s28.333 -27.834 37 -45.501s13 -36.834 13 -57.501z" />
    <glyph glyph-name="agrave" unicode="&#xe0;" horiz-adv-x="564" 
d="M473 73c0 -5.33301 -0.834961 -10.1709 -2.50195 -14.5039s-5.16699 -8.5 -10.5 -12.5c-6.66699 -5.33301 -16.334 -11.166 -29.001 -17.499s-27.5 -12.166 -44.5 -17.499s-36.167 -10 -57.5 -14s-44.333 -6 -69 -6c-62.667 0 -110.334 14.833 -143.001 44.5
s-49 69.834 -49 120.501c0 22.667 4.16699 43.834 12.5 63.501s20.666 36.834 36.999 51.501s36.833 26.167 61.5 34.5s53.334 12.5 86.001 12.5c25.333 0 49.166 -1.83301 71.499 -5.5s48.5 -9.5 78.5 -17.5v43c0 46.667 -11.167 80.167 -33.5 100.5
s-56.5 30.5 -102.5 30.5c-25.333 0 -49.166 -3.16699 -71.499 -9.5s-41.166 -12.833 -56.499 -19.5c-13.333 -5.33301 -24 -5.16602 -32 0.500977s-12 13.167 -12 22.5c0 5.33301 1.33301 10.666 4 15.999s7.33398 9.66602 14.001 12.999
c16.667 8.66699 38.834 16.667 66.501 24s56.834 11 87.501 11c63.333 0 111.5 -14 144.5 -42s49.5 -74 49.5 -138v-274zM268.998 47.9951c26 0 52.833 4.16699 80.5 12.5s49.5 18.5 65.5 30.5v147c-29.333 8 -55 14.167 -77 18.5s-45 6.5 -69 6.5
c-49.333 0 -85.5 -10.5 -108.5 -31.5s-34.5 -46.5 -34.5 -76.5c0 -34 11.5 -60.333 34.5 -79s59.167 -28 108.5 -28zM367.998 637.995c9.33301 -4.66699 14 -12.332 14 -22.999c0 -7.33301 -2.5 -13.5 -7.5 -18.5s-11.167 -7.5 -18.5 -7.5c-3.33301 0 -6 0.333008 -8 1
s-4 1.66699 -6 3l-135 69c-3.33301 2 -6.5 5.16699 -9.5 9.5s-4.5 9.16602 -4.5 14.499c0 7.33301 2.5 13.5 7.5 18.5s11.167 7.5 18.5 7.5c6 0 11 -1.33301 15 -4z" />
    <glyph glyph-name="aacute" unicode="&#xe1;" horiz-adv-x="564" 
d="M473 73c0 -5.33301 -0.834961 -10.1709 -2.50195 -14.5039s-5.16699 -8.5 -10.5 -12.5c-6.66699 -5.33301 -16.334 -11.166 -29.001 -17.499s-27.5 -12.166 -44.5 -17.499s-36.167 -10 -57.5 -14s-44.333 -6 -69 -6c-62.667 0 -110.334 14.833 -143.001 44.5
s-49 69.834 -49 120.501c0 22.667 4.16699 43.834 12.5 63.501s20.666 36.834 36.999 51.501s36.833 26.167 61.5 34.5s53.334 12.5 86.001 12.5c25.333 0 49.166 -1.83301 71.499 -5.5s48.5 -9.5 78.5 -17.5v43c0 46.667 -11.167 80.167 -33.5 100.5
s-56.5 30.5 -102.5 30.5c-25.333 0 -49.166 -3.16699 -71.499 -9.5s-41.166 -12.833 -56.499 -19.5c-13.333 -5.33301 -24 -5.16602 -32 0.500977s-12 13.167 -12 22.5c0 5.33301 1.33301 10.666 4 15.999s7.33398 9.66602 14.001 12.999
c16.667 8.66699 38.834 16.667 66.501 24s56.834 11 87.501 11c63.333 0 111.5 -14 144.5 -42s49.5 -74 49.5 -138v-274zM268.998 47.9951c26 0 52.833 4.16699 80.5 12.5s49.5 18.5 65.5 30.5v147c-29.333 8 -55 14.167 -77 18.5s-45 6.5 -69 6.5
c-49.333 0 -85.5 -10.5 -108.5 -31.5s-34.5 -46.5 -34.5 -76.5c0 -34 11.5 -60.333 34.5 -79s59.167 -28 108.5 -28zM333.998 707.995c5.33301 2.66699 10 4.00098 14 4.00098c7.33301 0 13.5 -2.5 18.5 -7.5s7.5 -11.167 7.5 -18.5c0 -11.333 -4.66699 -19.333 -14 -24
l-136 -70c-1.33301 -0.666992 -3 -1.33398 -5 -2.00098s-4.66699 -1 -8 -1c-7.33301 0 -13.5 2.5 -18.5 7.5s-7.5 11.167 -7.5 18.5c0 5.33301 1.5 10 4.5 14s6.16699 7 9.5 9z" />
    <glyph glyph-name="acircumflex" unicode="&#xe2;" horiz-adv-x="564" 
d="M473 73c0 -5.33301 -0.834961 -10.1709 -2.50195 -14.5039s-5.16699 -8.5 -10.5 -12.5c-6.66699 -5.33301 -16.334 -11.166 -29.001 -17.499s-27.5 -12.166 -44.5 -17.499s-36.167 -10 -57.5 -14s-44.333 -6 -69 -6c-62.667 0 -110.334 14.833 -143.001 44.5
s-49 69.834 -49 120.501c0 22.667 4.16699 43.834 12.5 63.501s20.666 36.834 36.999 51.501s36.833 26.167 61.5 34.5s53.334 12.5 86.001 12.5c25.333 0 49.166 -1.83301 71.499 -5.5s48.5 -9.5 78.5 -17.5v43c0 46.667 -11.167 80.167 -33.5 100.5
s-56.5 30.5 -102.5 30.5c-25.333 0 -49.166 -3.16699 -71.499 -9.5s-41.166 -12.833 -56.499 -19.5c-13.333 -5.33301 -24 -5.16602 -32 0.500977s-12 13.167 -12 22.5c0 5.33301 1.33301 10.666 4 15.999s7.33398 9.66602 14.001 12.999
c16.667 8.66699 38.834 16.667 66.501 24s56.834 11 87.501 11c63.333 0 111.5 -14 144.5 -42s49.5 -74 49.5 -138v-274zM268.998 47.9951c26 0 52.833 4.16699 80.5 12.5s49.5 18.5 65.5 30.5v147c-29.333 8 -55 14.167 -77 18.5s-45 6.5 -69 6.5
c-49.333 0 -85.5 -10.5 -108.5 -31.5s-34.5 -46.5 -34.5 -76.5c0 -34 11.5 -60.333 34.5 -79s59.167 -28 108.5 -28zM396.998 623.995c7.33301 -4.66699 11.002 -12 11.002 -22c0 -7.33301 -2.16699 -13.5 -6.5 -18.5s-10.833 -7.5 -19.5 -7.5
c-6.66699 0 -12.334 2 -17.001 6l-81 60l-81 -60c-4.66699 -4 -10.667 -6 -18 -6c-8 0 -14.333 2.5 -19 7.5s-7 11.167 -7 18.5c0 5.33301 1.16699 9.83301 3.5 13.5s5.16602 6.5 8.49902 8.5l87 64c7.33301 6.66699 16 10 26 10c8 0 16.333 -3.33301 25 -10z" />
    <glyph glyph-name="atilde" unicode="&#xe3;" horiz-adv-x="564" 
d="M473 73c0 -5.33301 -0.834961 -10.1709 -2.50195 -14.5039s-5.16699 -8.5 -10.5 -12.5c-6.66699 -5.33301 -16.334 -11.166 -29.001 -17.499s-27.5 -12.166 -44.5 -17.499s-36.167 -10 -57.5 -14s-44.333 -6 -69 -6c-62.667 0 -110.334 14.833 -143.001 44.5
s-49 69.834 -49 120.501c0 22.667 4.16699 43.834 12.5 63.501s20.666 36.834 36.999 51.501s36.833 26.167 61.5 34.5s53.334 12.5 86.001 12.5c25.333 0 49.166 -1.83301 71.499 -5.5s48.5 -9.5 78.5 -17.5v43c0 46.667 -11.167 80.167 -33.5 100.5
s-56.5 30.5 -102.5 30.5c-25.333 0 -49.166 -3.16699 -71.499 -9.5s-41.166 -12.833 -56.499 -19.5c-13.333 -5.33301 -24 -5.16602 -32 0.500977s-12 13.167 -12 22.5c0 5.33301 1.33301 10.666 4 15.999s7.33398 9.66602 14.001 12.999
c16.667 8.66699 38.834 16.667 66.501 24s56.834 11 87.501 11c63.333 0 111.5 -14 144.5 -42s49.5 -74 49.5 -138v-274zM268.998 47.9951c26 0 52.833 4.16699 80.5 12.5s49.5 18.5 65.5 30.5v147c-29.333 8 -55 14.167 -77 18.5s-45 6.5 -69 6.5
c-49.333 0 -85.5 -10.5 -108.5 -31.5s-34.5 -46.5 -34.5 -76.5c0 -34 11.5 -60.333 34.5 -79s59.167 -28 108.5 -28zM336.998 646.995c6 0 11.167 1.33398 15.5 4.00098s8.5 5.5 12.5 8.5s8 5.83301 12 8.5s8.66699 4 14 4c8.66699 0 15.5 -2.5 20.5 -7.5
s7.5 -11.167 7.5 -18.5c0 -5.33301 -1.16699 -9.83301 -3.5 -13.5s-5.16602 -6.83398 -8.49902 -9.50098c-10.667 -9.33301 -22 -16.666 -34 -21.999s-24 -8 -36 -8c-11.333 0 -21.833 1.83301 -31.5 5.5s-18.834 7.83398 -27.501 12.501s-16.834 8.83398 -24.501 12.501
s-15.167 5.5 -22.5 5.5c-6 0 -11.333 -1.33301 -16 -4s-9 -5.5 -13 -8.5s-8 -5.83301 -12 -8.5s-8.66699 -4 -14 -4c-8 0 -14.5 2.5 -19.5 7.5s-7.5 11.167 -7.5 18.5c0 9.33301 4 17 12 23c10.667 9.33301 22 16.666 34 21.999s23.667 8 35 8c12 0 22.667 -1.83301 32 -5.5
s18.333 -7.83398 27 -12.501s16.834 -8.83398 24.501 -12.501s15.5 -5.5 23.5 -5.5z" />
    <glyph glyph-name="adieresis" unicode="&#xe4;" horiz-adv-x="564" 
d="M473 73c0 -5.33301 -0.834961 -10.1709 -2.50195 -14.5039s-5.16699 -8.5 -10.5 -12.5c-6.66699 -5.33301 -16.334 -11.166 -29.001 -17.499s-27.5 -12.166 -44.5 -17.499s-36.167 -10 -57.5 -14s-44.333 -6 -69 -6c-62.667 0 -110.334 14.833 -143.001 44.5
s-49 69.834 -49 120.501c0 22.667 4.16699 43.834 12.5 63.501s20.666 36.834 36.999 51.501s36.833 26.167 61.5 34.5s53.334 12.5 86.001 12.5c25.333 0 49.166 -1.83301 71.499 -5.5s48.5 -9.5 78.5 -17.5v43c0 46.667 -11.167 80.167 -33.5 100.5
s-56.5 30.5 -102.5 30.5c-25.333 0 -49.166 -3.16699 -71.499 -9.5s-41.166 -12.833 -56.499 -19.5c-13.333 -5.33301 -24 -5.16602 -32 0.500977s-12 13.167 -12 22.5c0 5.33301 1.33301 10.666 4 15.999s7.33398 9.66602 14.001 12.999
c16.667 8.66699 38.834 16.667 66.501 24s56.834 11 87.501 11c63.333 0 111.5 -14 144.5 -42s49.5 -74 49.5 -138v-274zM268.998 47.9951c26 0 52.833 4.16699 80.5 12.5s49.5 18.5 65.5 30.5v147c-29.333 8 -55 14.167 -77 18.5s-45 6.5 -69 6.5
c-49.333 0 -85.5 -10.5 -108.5 -31.5s-34.5 -46.5 -34.5 -76.5c0 -34 11.5 -60.333 34.5 -79s59.167 -28 108.5 -28zM208.998 675.995c10.667 0 19.5 -3.66699 26.5 -11s10.5 -16 10.5 -26c0 -10.667 -3.5 -19.5 -10.5 -26.5s-15.833 -10.5 -26.5 -10.5
c-10 0 -18.667 3.5 -26 10.5s-11 15.833 -11 26.5c0 10 3.66699 18.667 11 26s16 11 26 11zM358.998 675.995c10 0 18.667 -3.66699 26 -11s11 -16 11 -26c0 -10.667 -3.66699 -19.5 -11 -26.5s-16 -10.5 -26 -10.5c-10.667 0 -19.5 3.5 -26.5 10.5s-10.5 15.833 -10.5 26.5
c0 10 3.5 18.667 10.5 26s15.833 11 26.5 11z" />
    <glyph glyph-name="aring" unicode="&#xe5;" horiz-adv-x="564" 
d="M473 73c0 -5.33301 -0.834961 -10.1709 -2.50195 -14.5039s-5.16699 -8.5 -10.5 -12.5c-6.66699 -5.33301 -16.334 -11.166 -29.001 -17.499s-27.5 -12.166 -44.5 -17.499s-36.167 -10 -57.5 -14s-44.333 -6 -69 -6c-62.667 0 -110.334 14.833 -143.001 44.5
s-49 69.834 -49 120.501c0 22.667 4.16699 43.834 12.5 63.501s20.666 36.834 36.999 51.501s36.833 26.167 61.5 34.5s53.334 12.5 86.001 12.5c25.333 0 49.166 -1.83301 71.499 -5.5s48.5 -9.5 78.5 -17.5v43c0 46.667 -11.167 80.167 -33.5 100.5
s-56.5 30.5 -102.5 30.5c-25.333 0 -49.166 -3.16699 -71.499 -9.5s-41.166 -12.833 -56.499 -19.5c-13.333 -5.33301 -24 -5.16602 -32 0.500977s-12 13.167 -12 22.5c0 5.33301 1.33301 10.666 4 15.999s7.33398 9.66602 14.001 12.999
c16.667 8.66699 38.834 16.667 66.501 24s56.834 11 87.501 11c63.333 0 111.5 -14 144.5 -42s49.5 -74 49.5 -138v-274zM268.998 47.9951c26 0 52.833 4.16699 80.5 12.5s49.5 18.5 65.5 30.5v147c-29.333 8 -55 14.167 -77 18.5s-45 6.5 -69 6.5
c-49.333 0 -85.5 -10.5 -108.5 -31.5s-34.5 -46.5 -34.5 -76.5c0 -34 11.5 -60.333 34.5 -79s59.167 -28 108.5 -28zM193.998 655.995c0 24.667 8.66699 45.834 26 63.501s38.666 26.5 63.999 26.5c24.667 0 45.834 -8.83301 63.501 -26.5s26.5 -38.834 26.5 -63.501
s-8.83301 -45.834 -26.5 -63.501s-38.834 -26.5 -63.501 -26.5c-25.333 0 -46.666 8.83301 -63.999 26.5s-26 38.834 -26 63.501zM237.998 655.995c0 -12.667 4.33301 -23.334 13 -32.001s19.667 -13 33 -13c12.667 0 23.5 4.33301 32.5 13s13.5 19.334 13.5 32.001
c0 13.333 -4.5 24.333 -13.5 33s-19.833 13 -32.5 13c-13.333 0 -24.333 -4.33301 -33 -13s-13 -19.667 -13 -33z" />
    <glyph glyph-name="ae" unicode="&#xe6;" horiz-adv-x="909" 
d="M841 285c0 -16 -4.67285 -28.8311 -14.0059 -38.498s-24 -14.5 -44 -14.5h-311v-20c0 -53.333 15 -94.333 45 -123s69.667 -43 119 -43c35.333 0 78 9 128 27c14 5.33301 25 4.83301 33 -1.5s12 -13.833 12 -22.5c0 -5.33301 -1.16699 -10.166 -3.5 -14.499
s-6.83301 -8.5 -13.5 -12.5c-15.333 -9.33301 -36.666 -17 -63.999 -23s-57.666 -9 -90.999 -9c-37.333 0 -70 5.83301 -98 17.5s-51 28.167 -69 49.5c-8 -6.66699 -19 -13.834 -33 -21.501s-30 -14.834 -48 -21.501s-38 -12.334 -60 -17.001s-45 -7 -69 -7
c-62.667 0 -110.334 15 -143.001 45s-49 70.333 -49 121c0 22.667 4.16699 43.834 12.5 63.501s20.666 36.834 36.999 51.501s36.833 26.167 61.5 34.5s53.334 12.5 86.001 12.5c25.333 0 49.166 -1.83301 71.499 -5.5s48.5 -9.5 78.5 -17.5v43
c0 46.667 -11.167 80.167 -33.5 100.5s-56.5 30.5 -102.5 30.5c-25.333 0 -49.166 -3.16699 -71.499 -9.5s-41.166 -12.833 -56.499 -19.5c-13.333 -5.33301 -24 -5.16602 -32 0.500977s-12 13.167 -12 22.5c0 5.33301 1.33301 10.666 4 15.999
s7.33398 9.66602 14.001 12.999c16.667 8.66699 38.834 16.667 66.501 24s56.834 11 87.501 11c48.667 0 86.834 -7.66699 114.501 -23s48.167 -36 61.5 -62c42.667 56.667 102 85 178 85c32 0 60.833 -5.16699 86.5 -15.5s47.5 -24.833 65.5 -43.5
s31.833 -40.834 41.5 -66.501s14.5 -53.5 14.5 -83.5v-33zM268.994 47.002c34 0 65.167 5.66602 93.5 16.999s53.5 25.333 75.5 42c-8 18.667 -14 39.334 -18 62.001s-5.66699 46 -5 70c-29.333 8 -55 14.167 -77 18.5s-45 6.5 -69 6.5c-49.333 0 -85.5 -10.5 -108.5 -31.5
s-34.5 -46.5 -34.5 -76.5c0 -34 11.5 -60.5 34.5 -79.5s59.167 -28.5 108.5 -28.5zM767.994 288.001c9.33301 0 14.333 4.66699 15 14c2 26 -0.333008 49.333 -7 70s-16.667 38.334 -30 53.001s-29.833 26 -49.5 34s-41.5 12 -65.5 12c-54 0 -94.5 -16.333 -121.5 -49
s-39.5 -77.334 -37.5 -134.001h296z" />
    <glyph glyph-name="ccedilla" unicode="&#xe7;" horiz-adv-x="556" 
d="M263 -7c-27.333 3.33301 -52.002 10.6699 -74.002 22.0029s-40.833 25.833 -56.5 43.5s-28.167 37.834 -37.5 60.501s-14.666 46.667 -15.999 72c-0.666992 10 -1.16699 21 -1.5 33s-0.5 24.167 -0.5 36.5s0.166992 24.666 0.5 36.999s0.833008 23.5 1.5 33.5
c1.33301 29.333 7.66602 56 18.999 80s26.666 44.667 45.999 62s42.166 30.666 68.499 39.999s55.166 14 86.499 14c34 0 63.333 -5.66699 88 -17s45 -24.666 61 -39.999s27.833 -31.333 35.5 -48s11.5 -30 11.5 -40c0 -20.667 -9.33301 -31 -28 -31
c-7.33301 0 -13.5 2 -18.5 6s-9.16699 11 -12.5 21c-11.333 31.333 -30.166 54.666 -56.499 69.999s-53.5 23 -81.5 23c-23.333 0 -44.5 -3.5 -63.5 -10.5s-35.5 -16.667 -49.5 -29s-25.167 -27 -33.5 -44s-12.833 -35.833 -13.5 -56.5
c0 -6.66699 -0.166992 -16.167 -0.5 -28.5s-0.666016 -25.333 -0.999023 -39s-0.333008 -27.167 0 -40.5s0.833008 -24.333 1.5 -33c2 -21.333 7 -40.666 15 -57.999s18.833 -32.5 32.5 -45.5s30 -23 49 -30s40.167 -10.5 63.5 -10.5c28 0 55.167 7.66699 81.5 23
s45.833 39 58.5 71c3.33301 10 7.83301 17 13.5 21s12.167 6 19.5 6c6.66699 0 12.667 -2.5 18 -7.5s8 -12.5 8 -22.5s-3.66699 -22.667 -11 -38s-18.333 -30.666 -33 -45.999s-33.167 -29 -55.5 -41s-48.833 -19 -79.5 -21l-15 -41c23.333 -1.33301 43 -9.5 59 -24.5
s24 -34.167 24 -57.5c0 -15.333 -3.66699 -29 -11 -41s-16.666 -22.833 -27.999 -32.5s-24 -17.834 -38 -24.501s-28 -12.334 -42 -17.001c-9.33301 -3.33301 -18.166 -3 -26.499 1s-12.5 12 -12.5 24c0 4 1.33301 8.66699 4 14s8.33398 9.33301 17.001 12
c16.667 5.33301 30 10.666 40 15.999s17.833 10.666 23.5 15.999s9.5 10.5 11.5 15.5s3 10.167 3 15.5c0 8 -2.5 15.167 -7.5 21.5s-12.5 9.5 -22.5 9.5c-7.33301 0 -12.833 -0.666992 -16.5 -2s-8.5 -2 -14.5 -2c-10 0 -17.5 4 -22.5 12s-5.83301 17 -2.5 27z" />
    <glyph glyph-name="egrave" unicode="&#xe8;" horiz-adv-x="574" 
d="M506 285c0 -16 -4.66797 -28.8311 -14.001 -38.498s-24 -14.5 -44 -14.5h-311v-20c0 -53.333 15 -94.333 45 -123s69.667 -43 119 -43c36 0 78.667 9 128 27c14 5.33301 25 4.83301 33 -1.5s12 -13.833 12 -22.5c0 -4.66699 -1.16699 -9.33398 -3.5 -14.001
s-6.83301 -9 -13.5 -13c-15.333 -9.33301 -36.666 -17 -63.999 -23s-57.666 -9 -90.999 -9c-35.333 0 -66.333 5.33301 -93 16s-49.334 25.5 -68.001 44.5s-33 41.833 -43 68.5s-16 56.334 -18 89.001c-1.33301 18 -1.83301 38 -1.5 60s1.16602 40.667 2.49902 56
c2 32 8.83301 60.5 20.5 85.5s27 46.167 46 63.5s41.167 30.666 66.5 39.999s53 14 83 14c32.667 0 61.834 -5.16699 87.501 -15.5s47.5 -24.833 65.5 -43.5s31.833 -40.834 41.5 -66.501s14.5 -53.5 14.5 -83.5v-33zM432.999 288.002
c9.33301 0 14.334 4.66504 15.001 13.998c2 26 -0.333008 49.333 -7 70s-16.667 38.334 -30 53.001s-29.833 26 -49.5 34s-41.5 12 -65.5 12c-54 0 -94.333 -16.167 -121 -48.5s-39.334 -77.166 -38.001 -134.499h296zM365 638c9.33301 -4.66699 14 -12.332 14 -22.999
c0 -7.33301 -2.5 -13.5 -7.5 -18.5s-11.167 -7.5 -18.5 -7.5c-3.33301 0 -6 0.333008 -8 1s-4 1.66699 -6 3l-135 69c-3.33301 2 -6.5 5.16699 -9.5 9.5s-4.5 9.16602 -4.5 14.499c0 7.33301 2.5 13.5 7.5 18.5s11.167 7.5 18.5 7.5c6 0 11 -1.33301 15 -4z" />
    <glyph glyph-name="eacute" unicode="&#xe9;" horiz-adv-x="574" 
d="M506 285c0 -16 -4.66797 -28.8311 -14.001 -38.498s-24 -14.5 -44 -14.5h-311v-20c0 -53.333 15 -94.333 45 -123s69.667 -43 119 -43c36 0 78.667 9 128 27c14 5.33301 25 4.83301 33 -1.5s12 -13.833 12 -22.5c0 -4.66699 -1.16699 -9.33398 -3.5 -14.001
s-6.83301 -9 -13.5 -13c-15.333 -9.33301 -36.666 -17 -63.999 -23s-57.666 -9 -90.999 -9c-35.333 0 -66.333 5.33301 -93 16s-49.334 25.5 -68.001 44.5s-33 41.833 -43 68.5s-16 56.334 -18 89.001c-1.33301 18 -1.83301 38 -1.5 60s1.16602 40.667 2.49902 56
c2 32 8.83301 60.5 20.5 85.5s27 46.167 46 63.5s41.167 30.666 66.5 39.999s53 14 83 14c32.667 0 61.834 -5.16699 87.501 -15.5s47.5 -24.833 65.5 -43.5s31.833 -40.834 41.5 -66.501s14.5 -53.5 14.5 -83.5v-33zM432.999 288.002
c9.33301 0 14.334 4.66504 15.001 13.998c2 26 -0.333008 49.333 -7 70s-16.667 38.334 -30 53.001s-29.833 26 -49.5 34s-41.5 12 -65.5 12c-54 0 -94.333 -16.167 -121 -48.5s-39.334 -77.166 -38.001 -134.499h296zM359 708c5.33301 2.66699 10 4.00098 14 4.00098
c7.33301 0 13.5 -2.5 18.5 -7.5s7.5 -11.167 7.5 -18.5c0 -11.333 -4.66699 -19.333 -14 -24l-136 -70c-1.33301 -0.666992 -3 -1.33398 -5 -2.00098s-4.66699 -1 -8 -1c-7.33301 0 -13.5 2.5 -18.5 7.5s-7.5 11.167 -7.5 18.5c0 5.33301 1.5 10 4.5 14s6.16699 7 9.5 9z
" />
    <glyph glyph-name="ecircumflex" unicode="&#xea;" horiz-adv-x="574" 
d="M506 285c0 -16 -4.66797 -28.8311 -14.001 -38.498s-24 -14.5 -44 -14.5h-311v-20c0 -53.333 15 -94.333 45 -123s69.667 -43 119 -43c36 0 78.667 9 128 27c14 5.33301 25 4.83301 33 -1.5s12 -13.833 12 -22.5c0 -4.66699 -1.16699 -9.33398 -3.5 -14.001
s-6.83301 -9 -13.5 -13c-15.333 -9.33301 -36.666 -17 -63.999 -23s-57.666 -9 -90.999 -9c-35.333 0 -66.333 5.33301 -93 16s-49.334 25.5 -68.001 44.5s-33 41.833 -43 68.5s-16 56.334 -18 89.001c-1.33301 18 -1.83301 38 -1.5 60s1.16602 40.667 2.49902 56
c2 32 8.83301 60.5 20.5 85.5s27 46.167 46 63.5s41.167 30.666 66.5 39.999s53 14 83 14c32.667 0 61.834 -5.16699 87.501 -15.5s47.5 -24.833 65.5 -43.5s31.833 -40.834 41.5 -66.501s14.5 -53.5 14.5 -83.5v-33zM432.999 288.002
c9.33301 0 14.334 4.66504 15.001 13.998c2 26 -0.333008 49.333 -7 70s-16.667 38.334 -30 53.001s-29.833 26 -49.5 34s-41.5 12 -65.5 12c-54 0 -94.333 -16.167 -121 -48.5s-39.334 -77.166 -38.001 -134.499h296zM399 637c7.33301 -4.66699 11.002 -12 11.002 -22
c0 -7.33301 -2.16699 -13.5 -6.5 -18.5s-10.833 -7.5 -19.5 -7.5c-6.66699 0 -12.334 2 -17.001 6l-81 60l-81 -60c-4.66699 -4 -10.667 -6 -18 -6c-8 0 -14.333 2.5 -19 7.5s-7 11.167 -7 18.5c0 5.33301 1.16699 9.83301 3.5 13.5s5.16602 6.5 8.49902 8.5l87 64
c7.33301 6.66699 16 10 26 10c8 0 16.333 -3.33301 25 -10z" />
    <glyph glyph-name="edieresis" unicode="&#xeb;" horiz-adv-x="574" 
d="M506 285c0 -16 -4.66797 -28.8311 -14.001 -38.498s-24 -14.5 -44 -14.5h-311v-20c0 -53.333 15 -94.333 45 -123s69.667 -43 119 -43c36 0 78.667 9 128 27c14 5.33301 25 4.83301 33 -1.5s12 -13.833 12 -22.5c0 -4.66699 -1.16699 -9.33398 -3.5 -14.001
s-6.83301 -9 -13.5 -13c-15.333 -9.33301 -36.666 -17 -63.999 -23s-57.666 -9 -90.999 -9c-35.333 0 -66.333 5.33301 -93 16s-49.334 25.5 -68.001 44.5s-33 41.833 -43 68.5s-16 56.334 -18 89.001c-1.33301 18 -1.83301 38 -1.5 60s1.16602 40.667 2.49902 56
c2 32 8.83301 60.5 20.5 85.5s27 46.167 46 63.5s41.167 30.666 66.5 39.999s53 14 83 14c32.667 0 61.834 -5.16699 87.501 -15.5s47.5 -24.833 65.5 -43.5s31.833 -40.834 41.5 -66.501s14.5 -53.5 14.5 -83.5v-33zM432.999 288.002
c9.33301 0 14.334 4.66504 15.001 13.998c2 26 -0.333008 49.333 -7 70s-16.667 38.334 -30 53.001s-29.833 26 -49.5 34s-41.5 12 -65.5 12c-54 0 -94.333 -16.167 -121 -48.5s-39.334 -77.166 -38.001 -134.499h296zM218 676c10.667 0 19.5 -3.66699 26.5 -11
s10.5 -16 10.5 -26c0 -10.667 -3.5 -19.5 -10.5 -26.5s-15.833 -10.5 -26.5 -10.5c-10 0 -18.667 3.5 -26 10.5s-11 15.833 -11 26.5c0 10 3.66699 18.667 11 26s16 11 26 11zM368 676c10 0 18.667 -3.66699 26 -11s11 -16 11 -26c0 -10.667 -3.66699 -19.5 -11 -26.5
s-16 -10.5 -26 -10.5c-10.667 0 -19.5 3.5 -26.5 10.5s-10.5 15.833 -10.5 26.5c0 10 3.5 18.667 10.5 26s15.833 11 26.5 11z" />
    <glyph glyph-name="igrave" unicode="&#xec;" horiz-adv-x="267" 
d="M191 638c9.33301 -4.66699 14 -12.332 14 -22.999c0 -7.33301 -2.5 -13.5 -7.5 -18.5s-11.167 -7.5 -18.5 -7.5c-3.33301 0 -6 0.333008 -8 1s-4 1.66699 -6 3l-135 69c-3.33301 2 -6.5 5.16699 -9.5 9.5s-4.5 9.16602 -4.5 14.499c0 7.33301 2.5 13.5 7.5 18.5
s11.167 7.5 18.5 7.5c6 0 11 -1.33301 15 -4zM135 520.002c7.33301 0 14 -2.83301 20 -8.5s9 -12.834 9 -21.501v-464c0 -8 -2.83301 -15 -8.5 -21s-12.5 -9 -20.5 -9s-14.833 3 -20.5 9s-8.5 13 -8.5 21v464c0 8.66699 2.66699 15.834 8 21.501s12.333 8.5 21 8.5z" />
    <glyph glyph-name="iacute" unicode="&#xed;" horiz-adv-x="267" 
d="M218 708c5.33301 2.66699 10 4.00098 14 4.00098c7.33301 0 13.5 -2.5 18.5 -7.5s7.5 -11.167 7.5 -18.5c0 -11.333 -4.66699 -19.333 -14 -24l-136 -70c-1.33301 -0.666992 -3 -1.33398 -5 -2.00098s-4.66699 -1 -8 -1c-7.33301 0 -13.5 2.5 -18.5 7.5
s-7.5 11.167 -7.5 18.5c0 5.33301 1.5 10 4.5 14s6.16699 7 9.5 9zM135 520.001c7.33301 0 14 -2.83301 20 -8.5s9 -12.834 9 -21.501v-464c0 -8 -2.83301 -15 -8.5 -21s-12.5 -9 -20.5 -9s-14.833 3 -20.5 9s-8.5 13 -8.5 21v464c0 8.66699 2.66699 15.834 8 21.501
s12.333 8.5 21 8.5z" />
    <glyph glyph-name="icircumflex" unicode="&#xee;" horiz-adv-x="267" 
d="M135 520c7.33301 0 14 -2.83301 20 -8.5s9 -12.834 9 -21.501v-464c0 -8 -2.83301 -15 -8.5 -21s-12.5 -9 -20.5 -9s-14.833 3 -20.5 9s-8.5 13 -8.5 21v464c0 8.66699 2.66699 15.834 8 21.501s12.333 8.5 21 8.5zM253 637c7.33301 -4.66699 11.002 -12 11.002 -22
c0 -7.33301 -2.16699 -13.5 -6.5 -18.5s-10.833 -7.5 -19.5 -7.5c-6.66699 0 -12.334 2 -17.001 6l-81 60l-81 -60c-4.66699 -4 -10.667 -6 -18 -6c-8 0 -14.333 2.5 -19 7.5s-7 11.167 -7 18.5c0 5.33301 1.16699 9.83301 3.5 13.5s5.16602 6.5 8.49902 8.5l87 64
c7.33301 6.66699 16 10 26 10c8 0 16.333 -3.33301 25 -10z" />
    <glyph glyph-name="idieresis" unicode="&#xef;" horiz-adv-x="267" 
d="M65 676c10.667 0 19.5 -3.66699 26.5 -11s10.5 -16 10.5 -26c0 -10.667 -3.5 -19.5 -10.5 -26.5s-15.833 -10.5 -26.5 -10.5c-10 0 -18.667 3.5 -26 10.5s-11 15.833 -11 26.5c0 10 3.66699 18.667 11 26s16 11 26 11zM215 676c10 0 18.667 -3.66699 26 -11
s11 -16 11 -26c0 -10.667 -3.66699 -19.5 -11 -26.5s-16 -10.5 -26 -10.5c-10.667 0 -19.5 3.5 -26.5 10.5s-10.5 15.833 -10.5 26.5c0 10 3.5 18.667 10.5 26s15.833 11 26.5 11zM135 520c7.33301 0 14 -2.83301 20 -8.5s9 -12.834 9 -21.501v-464
c0 -8 -2.83301 -15 -8.5 -21s-12.5 -9 -20.5 -9s-14.833 3 -20.5 9s-8.5 13 -8.5 21v464c0 8.66699 2.66699 15.834 8 21.501s12.333 8.5 21 8.5z" />
    <glyph glyph-name="eth" unicode="&#xf0;" horiz-adv-x="592" 
d="M338 624c-12 8 -24.9971 15.9971 -38.9971 23.9971c-10 5.33301 -16 12 -18 20s-1 15.333 3 22c3.33301 6 9.16602 10.333 17.499 13s17.166 1 26.499 -5c13.333 -7.33301 25.5 -15 36.5 -23l31.5 -24l63 30c7.33301 3.33301 14.833 4 22.5 2s13.167 -7 16.5 -15
c3.33301 -7.33301 3.33301 -14.666 0 -21.999s-8.66602 -12.666 -15.999 -15.999l-44 -21c21.333 -26 36.666 -55.833 45.999 -89.5s14 -73.5 14 -119.5v-203c0 -31.333 -5.5 -59.666 -16.5 -84.999s-26 -47 -45 -65s-41.333 -32 -67 -42s-52.834 -15 -81.501 -15
c-29.333 0 -56.166 4.83301 -80.499 14.5s-45.833 23.167 -64.5 40.5s-33.5 37.833 -44.5 61.5s-17.5 49.5 -19.5 77.5c-2 40 -2 80.333 0 121c2 28 8.66699 53.667 20 77s26.166 43.333 44.499 60s39.833 29.5 64.5 38.5s51.667 13.5 81 13.5c32 0 60.167 -5.5 84.5 -16.5
s45.166 -25.5 62.499 -43.5c0 30 -3.83301 57.167 -11.5 81.5s-21.167 47.166 -40.5 68.499l-72 -34c-8 -3.33301 -15.667 -3.66602 -23 -0.999023s-12.666 7.66699 -15.999 15s-3.5 14.333 -0.5 21s8.5 12 16.5 16zM288.003 437.997c-44 0 -79.333 -12.667 -106 -38
s-41.334 -57.666 -44.001 -96.999c-1.33301 -18 -2 -37.833 -2 -59.5s0.666992 -41.167 2 -58.5c1.33301 -20 6 -38.5 14 -55.5s18.5 -31.667 31.5 -44s28.333 -22 46 -29s37.167 -10.5 58.5 -10.5c42.667 0 77.334 13 104.001 39s41.667 59.333 45 100
c1.33301 17.333 2 36.833 2 58.5s-0.666992 41.5 -2 59.5c-2.66699 39.333 -17.167 71.666 -43.5 96.999s-61.5 38 -105.5 38z" />
    <glyph glyph-name="ntilde" unicode="&#xf1;" horiz-adv-x="615" 
d="M522 26c0 -8.66699 -2.50098 -15.832 -7.50098 -21.499s-12.167 -8.5 -21.5 -8.5c-8 0 -14.833 2.83301 -20.5 8.5s-8.5 12.834 -8.5 21.501v298c0 25.333 -4 47.333 -12 66s-18.667 34 -32 46s-29.166 20.833 -47.499 26.5s-37.833 8.5 -58.5 8.5
c-34 0 -64.667 -4.16699 -92 -12.5s-48.333 -17.166 -63 -26.499v-406c0 -8.66699 -2.66699 -15.834 -8 -21.501s-12.333 -8.5 -21 -8.5c-8 0 -14.833 2.83301 -20.5 8.5s-8.5 12.834 -8.5 21.501v417c0 8 1 14.167 3 18.5s5.66699 8.16602 11 11.499
c6.66699 5.33301 16.167 11.166 28.5 17.499s27 12.166 44 17.499s36.167 9.83301 57.5 13.5s45 5.5 71 5.5c68.667 0 120.167 -17.5 154.5 -52.5s51.5 -84.5 51.5 -148.5v-300zM359.999 647.002c6 0 11.167 1.33398 15.5 4.00098s8.5 5.5 12.5 8.5s8 5.83301 12 8.5
s8.66699 4 14 4c8.66699 0 15.5 -2.5 20.5 -7.5s7.5 -11.167 7.5 -18.5c0 -5.33301 -1.16699 -9.83301 -3.5 -13.5s-5.16602 -6.83398 -8.49902 -9.50098c-10.667 -9.33301 -22 -16.666 -34 -21.999s-24 -8 -36 -8c-11.333 0 -21.833 1.83301 -31.5 5.5
s-18.834 7.83398 -27.501 12.501s-16.834 8.83398 -24.501 12.501s-15.167 5.5 -22.5 5.5c-6 0 -11.333 -1.33301 -16 -4s-9 -5.5 -13 -8.5s-8 -5.83301 -12 -8.5s-8.66699 -4 -14 -4c-8 0 -14.5 2.5 -19.5 7.5s-7.5 11.167 -7.5 18.5c0 9.33301 4 17 12 23
c10.667 9.33301 22 16.666 34 21.999s23.667 8 35 8c12 0 22.667 -1.83301 32 -5.5s18.333 -7.83398 27 -12.501s16.834 -8.83398 24.501 -12.501s15.5 -5.5 23.5 -5.5z" />
    <glyph glyph-name="ograve" unicode="&#xf2;" horiz-adv-x="592" 
d="M296 527c30 0 57.833 -4.83301 83.5 -14.5s48 -23.167 67 -40.5s34.333 -38 46 -62s18.167 -50.667 19.5 -80c1.33301 -20 2 -43.167 2 -69.5s-0.666992 -49.5 -2 -69.5c-1.33301 -28.667 -7.83301 -55.334 -19.5 -80.001s-27 -46 -46 -64s-41.333 -32 -67 -42
s-53.5 -15 -83.5 -15s-58 5 -84 15s-48.5 24 -67.5 42s-34.333 39.333 -46 64s-18.167 51.334 -19.5 80.001c-1.33301 20 -2 43.167 -2 69.5s0.666992 49.5 2 69.5c1.33301 29.333 7.83301 56 19.5 80s27 44.667 46 62s41.5 30.833 67.5 40.5s54 14.5 84 14.5zM296 471
c-23.333 0 -44.332 -3.5 -62.999 -10.5s-34.834 -16.833 -48.501 -29.5s-24.5 -27.5 -32.5 -44.5s-12.667 -35.833 -14 -56.5c-0.666992 -9.33301 -1.16699 -20.166 -1.5 -32.499s-0.5 -25 -0.5 -38s0.166992 -25.667 0.5 -38s0.833008 -22.833 1.5 -31.5
c4 -43.333 20.167 -78.166 48.5 -104.499s64.833 -39.5 109.5 -39.5s81 13.167 109 39.5s44 61.166 48 104.499c0.666992 8.66699 1.16699 19.167 1.5 31.5s0.5 25 0.5 38s-0.166992 25.667 -0.5 38s-0.833008 23.166 -1.5 32.499c-1.33301 20.667 -6 39.5 -14 56.5
s-18.667 31.833 -32 44.5s-29.5 22.5 -48.5 29.5s-39.833 10.5 -62.5 10.5zM380.001 638c9.33301 -4.66699 14 -12.332 14 -22.999c0 -7.33301 -2.5 -13.5 -7.5 -18.5s-11.167 -7.5 -18.5 -7.5c-3.33301 0 -6 0.333008 -8 1s-4 1.66699 -6 3l-135 69
c-3.33301 2 -6.5 5.16699 -9.5 9.5s-4.5 9.16602 -4.5 14.499c0 7.33301 2.5 13.5 7.5 18.5s11.167 7.5 18.5 7.5c6 0 11 -1.33301 15 -4z" />
    <glyph glyph-name="oacute" unicode="&#xf3;" horiz-adv-x="592" 
d="M296 527c30 0 57.833 -4.83301 83.5 -14.5s48 -23.167 67 -40.5s34.333 -38 46 -62s18.167 -50.667 19.5 -80c1.33301 -20 2 -43.167 2 -69.5s-0.666992 -49.5 -2 -69.5c-1.33301 -28.667 -7.83301 -55.334 -19.5 -80.001s-27 -46 -46 -64s-41.333 -32 -67 -42
s-53.5 -15 -83.5 -15s-58 5 -84 15s-48.5 24 -67.5 42s-34.333 39.333 -46 64s-18.167 51.334 -19.5 80.001c-1.33301 20 -2 43.167 -2 69.5s0.666992 49.5 2 69.5c1.33301 29.333 7.83301 56 19.5 80s27 44.667 46 62s41.5 30.833 67.5 40.5s54 14.5 84 14.5zM296 471
c-23.333 0 -44.332 -3.5 -62.999 -10.5s-34.834 -16.833 -48.501 -29.5s-24.5 -27.5 -32.5 -44.5s-12.667 -35.833 -14 -56.5c-0.666992 -9.33301 -1.16699 -20.166 -1.5 -32.499s-0.5 -25 -0.5 -38s0.166992 -25.667 0.5 -38s0.833008 -22.833 1.5 -31.5
c4 -43.333 20.167 -78.166 48.5 -104.499s64.833 -39.5 109.5 -39.5s81 13.167 109 39.5s44 61.166 48 104.499c0.666992 8.66699 1.16699 19.167 1.5 31.5s0.5 25 0.5 38s-0.166992 25.667 -0.5 38s-0.833008 23.166 -1.5 32.499c-1.33301 20.667 -6 39.5 -14 56.5
s-18.667 31.833 -32 44.5s-29.5 22.5 -48.5 29.5s-39.833 10.5 -62.5 10.5zM347.001 708c5.33301 2.66699 10 4.00098 14 4.00098c7.33301 0 13.5 -2.5 18.5 -7.5s7.5 -11.167 7.5 -18.5c0 -11.333 -4.66699 -19.333 -14 -24l-136 -70
c-1.33301 -0.666992 -3 -1.33398 -5 -2.00098s-4.66699 -1 -8 -1c-7.33301 0 -13.5 2.5 -18.5 7.5s-7.5 11.167 -7.5 18.5c0 5.33301 1.5 10 4.5 14s6.16699 7 9.5 9z" />
    <glyph glyph-name="ocircumflex" unicode="&#xf4;" horiz-adv-x="592" 
d="M296 527c30 0 57.833 -4.83301 83.5 -14.5s48 -23.167 67 -40.5s34.333 -38 46 -62s18.167 -50.667 19.5 -80c1.33301 -20 2 -43.167 2 -69.5s-0.666992 -49.5 -2 -69.5c-1.33301 -28.667 -7.83301 -55.334 -19.5 -80.001s-27 -46 -46 -64s-41.333 -32 -67 -42
s-53.5 -15 -83.5 -15s-58 5 -84 15s-48.5 24 -67.5 42s-34.333 39.333 -46 64s-18.167 51.334 -19.5 80.001c-1.33301 20 -2 43.167 -2 69.5s0.666992 49.5 2 69.5c1.33301 29.333 7.83301 56 19.5 80s27 44.667 46 62s41.5 30.833 67.5 40.5s54 14.5 84 14.5zM296 471
c-23.333 0 -44.332 -3.5 -62.999 -10.5s-34.834 -16.833 -48.501 -29.5s-24.5 -27.5 -32.5 -44.5s-12.667 -35.833 -14 -56.5c-0.666992 -9.33301 -1.16699 -20.166 -1.5 -32.499s-0.5 -25 -0.5 -38s0.166992 -25.667 0.5 -38s0.833008 -22.833 1.5 -31.5
c4 -43.333 20.167 -78.166 48.5 -104.499s64.833 -39.5 109.5 -39.5s81 13.167 109 39.5s44 61.166 48 104.499c0.666992 8.66699 1.16699 19.167 1.5 31.5s0.5 25 0.5 38s-0.166992 25.667 -0.5 38s-0.833008 23.166 -1.5 32.499c-1.33301 20.667 -6 39.5 -14 56.5
s-18.667 31.833 -32 44.5s-29.5 22.5 -48.5 29.5s-39.833 10.5 -62.5 10.5zM409.001 636c7.33301 -4.66699 11.002 -12 11.002 -22c0 -7.33301 -2.16699 -13.5 -6.5 -18.5s-10.833 -7.5 -19.5 -7.5c-6.66699 0 -12.334 2 -17.001 6l-81 60l-81 -60
c-4.66699 -4 -10.667 -6 -18 -6c-8 0 -14.333 2.5 -19 7.5s-7 11.167 -7 18.5c0 5.33301 1.16699 9.83301 3.5 13.5s5.16602 6.5 8.49902 8.5l87 64c7.33301 6.66699 16 10 26 10c8 0 16.333 -3.33301 25 -10z" />
    <glyph glyph-name="otilde" unicode="&#xf5;" horiz-adv-x="592" 
d="M296 527c30 0 57.833 -4.83301 83.5 -14.5s48 -23.167 67 -40.5s34.333 -38 46 -62s18.167 -50.667 19.5 -80c1.33301 -20 2 -43.167 2 -69.5s-0.666992 -49.5 -2 -69.5c-1.33301 -28.667 -7.83301 -55.334 -19.5 -80.001s-27 -46 -46 -64s-41.333 -32 -67 -42
s-53.5 -15 -83.5 -15s-58 5 -84 15s-48.5 24 -67.5 42s-34.333 39.333 -46 64s-18.167 51.334 -19.5 80.001c-1.33301 20 -2 43.167 -2 69.5s0.666992 49.5 2 69.5c1.33301 29.333 7.83301 56 19.5 80s27 44.667 46 62s41.5 30.833 67.5 40.5s54 14.5 84 14.5zM296 471
c-23.333 0 -44.332 -3.5 -62.999 -10.5s-34.834 -16.833 -48.501 -29.5s-24.5 -27.5 -32.5 -44.5s-12.667 -35.833 -14 -56.5c-0.666992 -9.33301 -1.16699 -20.166 -1.5 -32.499s-0.5 -25 -0.5 -38s0.166992 -25.667 0.5 -38s0.833008 -22.833 1.5 -31.5
c4 -43.333 20.167 -78.166 48.5 -104.499s64.833 -39.5 109.5 -39.5s81 13.167 109 39.5s44 61.166 48 104.499c0.666992 8.66699 1.16699 19.167 1.5 31.5s0.5 25 0.5 38s-0.166992 25.667 -0.5 38s-0.833008 23.166 -1.5 32.499c-1.33301 20.667 -6 39.5 -14 56.5
s-18.667 31.833 -32 44.5s-29.5 22.5 -48.5 29.5s-39.833 10.5 -62.5 10.5zM349.001 647c6 0 11.167 1.33398 15.5 4.00098s8.5 5.5 12.5 8.5s8 5.83301 12 8.5s8.66699 4 14 4c8.66699 0 15.5 -2.5 20.5 -7.5s7.5 -11.167 7.5 -18.5
c0 -5.33301 -1.16699 -9.83301 -3.5 -13.5s-5.16602 -6.83398 -8.49902 -9.50098c-10.667 -9.33301 -22 -16.666 -34 -21.999s-24 -8 -36 -8c-11.333 0 -21.833 1.83301 -31.5 5.5s-18.834 7.83398 -27.501 12.501s-16.834 8.83398 -24.501 12.501s-15.167 5.5 -22.5 5.5
c-6 0 -11.333 -1.33301 -16 -4s-9 -5.5 -13 -8.5s-8 -5.83301 -12 -8.5s-8.66699 -4 -14 -4c-8 0 -14.5 2.5 -19.5 7.5s-7.5 11.167 -7.5 18.5c0 9.33301 4 17 12 23c10.667 9.33301 22 16.666 34 21.999s23.667 8 35 8c12 0 22.667 -1.83301 32 -5.5
s18.333 -7.83398 27 -12.501s16.834 -8.83398 24.501 -12.501s15.5 -5.5 23.5 -5.5z" />
    <glyph glyph-name="odieresis" unicode="&#xf6;" horiz-adv-x="592" 
d="M296 527c30 0 57.833 -4.83301 83.5 -14.5s48 -23.167 67 -40.5s34.333 -38 46 -62s18.167 -50.667 19.5 -80c1.33301 -20 2 -43.167 2 -69.5s-0.666992 -49.5 -2 -69.5c-1.33301 -28.667 -7.83301 -55.334 -19.5 -80.001s-27 -46 -46 -64s-41.333 -32 -67 -42
s-53.5 -15 -83.5 -15s-58 5 -84 15s-48.5 24 -67.5 42s-34.333 39.333 -46 64s-18.167 51.334 -19.5 80.001c-1.33301 20 -2 43.167 -2 69.5s0.666992 49.5 2 69.5c1.33301 29.333 7.83301 56 19.5 80s27 44.667 46 62s41.5 30.833 67.5 40.5s54 14.5 84 14.5zM296 471
c-23.333 0 -44.332 -3.5 -62.999 -10.5s-34.834 -16.833 -48.501 -29.5s-24.5 -27.5 -32.5 -44.5s-12.667 -35.833 -14 -56.5c-0.666992 -9.33301 -1.16699 -20.166 -1.5 -32.499s-0.5 -25 -0.5 -38s0.166992 -25.667 0.5 -38s0.833008 -22.833 1.5 -31.5
c4 -43.333 20.167 -78.166 48.5 -104.499s64.833 -39.5 109.5 -39.5s81 13.167 109 39.5s44 61.166 48 104.499c0.666992 8.66699 1.16699 19.167 1.5 31.5s0.5 25 0.5 38s-0.166992 25.667 -0.5 38s-0.833008 23.166 -1.5 32.499c-1.33301 20.667 -6 39.5 -14 56.5
s-18.667 31.833 -32 44.5s-29.5 22.5 -48.5 29.5s-39.833 10.5 -62.5 10.5zM221.001 676c10.667 0 19.5 -3.66699 26.5 -11s10.5 -16 10.5 -26c0 -10.667 -3.5 -19.5 -10.5 -26.5s-15.833 -10.5 -26.5 -10.5c-10 0 -18.667 3.5 -26 10.5s-11 15.833 -11 26.5
c0 10 3.66699 18.667 11 26s16 11 26 11zM371.001 676c10 0 18.667 -3.66699 26 -11s11 -16 11 -26c0 -10.667 -3.66699 -19.5 -11 -26.5s-16 -10.5 -26 -10.5c-10.667 0 -19.5 3.5 -26.5 10.5s-10.5 15.833 -10.5 26.5c0 10 3.5 18.667 10.5 26s15.833 11 26.5 11z" />
    <glyph glyph-name="divide" unicode="&#xf7;" horiz-adv-x="628" 
d="M91 321c-8.66699 0 -16 2.83301 -22 8.5s-9 12.5 -9 20.5c0 8.66699 3 15.667 9 21s13.333 8 22 8h446c8.66699 0 16 -2.66699 22 -8s9 -12.333 9 -21c0 -8 -3.16699 -14.833 -9.5 -20.5s-13.5 -8.5 -21.5 -8.5h-446zM271 527c0 12 4.33301 22.167 13 30.5
s18.667 12.5 30 12.5c12 0 22.167 -4.16699 30.5 -12.5s12.5 -18.5 12.5 -30.5c0 -11.333 -4.16699 -21.333 -12.5 -30s-18.5 -13 -30.5 -13c-11.333 0 -21.333 4.33301 -30 13s-13 18.667 -13 30zM271 174c0 11.333 4.33301 21.333 13 30s18.667 13 30 13
c12 0 22.167 -4.33301 30.5 -13s12.5 -18.667 12.5 -30c0 -12 -4.16699 -22.333 -12.5 -31s-18.5 -13 -30.5 -13c-11.333 0 -21.333 4.33301 -30 13s-13 19 -13 31z" />
    <glyph glyph-name="oslash" unicode="&#xf8;" horiz-adv-x="591" 
d="M295 527c29.333 0 56.335 -4.49902 81.002 -13.499s46.667 -21.833 66 -38.5l30 35c5.33301 6 12 9.83301 20 11.5s15.667 -0.833008 23 -7.5c6.66699 -6 9.66699 -13.167 9 -21.5s-3.33398 -15.166 -8.00098 -20.499l-36 -41c18.667 -30 29 -63.667 31 -101
c1.33301 -20 2 -43.167 2 -69.5s-0.666992 -49.5 -2 -69.5c-1.33301 -28.667 -7.83301 -55.334 -19.5 -80.001s-27 -46 -46 -64s-41.333 -32 -67 -42s-53.5 -15 -83.5 -15s-57.5 4.66699 -82.5 14s-47.167 22.666 -66.5 39.999l-28 -33
c-5.33301 -5.33301 -11.833 -8.66602 -19.5 -9.99902s-14.834 0.666992 -21.501 6s-10.167 12.166 -10.5 20.499s2.5 15.833 8.5 22.5l34 39c-18.667 31.333 -29 65.333 -31 102c-1.33301 20 -2 43.167 -2 69.5s0.666992 49.5 2 69.5c1.33301 29.333 7.83301 56 19.5 80
s27 44.667 46 62s41.5 30.833 67.5 40.5s54 14.5 84 14.5zM452.002 330.001c-0.666992 9.33301 -2.16797 18.502 -4.50098 27.502s-5.16602 17.5 -8.49902 25.5l-255 -296c13.333 -13.333 29.333 -23.5 48 -30.5s39.667 -10.5 63 -10.5c44.667 0 81 13.167 109 39.5
s44 61.166 48 104.499c0.666992 8.66699 1.16699 19.167 1.5 31.5s0.5 25 0.5 38s-0.166992 25.667 -0.5 38s-0.833008 23.166 -1.5 32.499zM295.001 471.003c-23.333 0 -44.332 -3.5 -62.999 -10.5s-34.834 -16.833 -48.501 -29.5s-24.5 -27.5 -32.5 -44.5
s-12.667 -35.833 -14 -56.5c-0.666992 -9.33301 -1.16699 -20.166 -1.5 -32.499s-0.5 -25 -0.5 -38s0.166992 -25.667 0.5 -38s0.833008 -22.833 1.5 -31.5c2 -20.667 6.33301 -38.334 13 -53.001l255 295c-28 26 -64.667 39 -110 39z" />
    <glyph glyph-name="ugrave" unicode="&#xf9;" horiz-adv-x="615" 
d="M92 490c0 8.66699 2.83203 15.834 8.49902 21.501s12.834 8.5 21.501 8.5c7.33301 0 13.833 -2.83301 19.5 -8.5s8.5 -12.834 8.5 -21.501v-304c0 -43.333 13.167 -77.5 39.5 -102.5s63.5 -37.5 111.5 -37.5c36 0 66.5 4.5 91.5 13.5s45.833 18.833 62.5 29.5v401
c0 8.66699 2.66699 15.834 8 21.501s12.333 8.5 21 8.5c8 0 14.833 -2.83301 20.5 -8.5s8.5 -12.834 8.5 -21.501v-413c0 -12.667 -4.33301 -21.667 -13 -27c-7.33301 -5.33301 -17 -11.5 -29 -18.5s-26.333 -13.5 -43 -19.5s-35.5 -11.167 -56.5 -15.5
s-44.5 -6.5 -70.5 -6.5c-30 0 -57.833 4.33301 -83.5 13s-47.667 21.5 -66 38.5s-32.833 37.833 -43.5 62.5s-16 53 -16 85v301zM391.999 638c9.33301 -4.66699 14 -12.332 14 -22.999c0 -7.33301 -2.5 -13.5 -7.5 -18.5s-11.167 -7.5 -18.5 -7.5
c-3.33301 0 -6 0.333008 -8 1s-4 1.66699 -6 3l-135 69c-3.33301 2 -6.5 5.16699 -9.5 9.5s-4.5 9.16602 -4.5 14.499c0 7.33301 2.5 13.5 7.5 18.5s11.167 7.5 18.5 7.5c6 0 11 -1.33301 15 -4z" />
    <glyph glyph-name="uacute" unicode="&#xfa;" horiz-adv-x="615" 
d="M92 490c0 8.66699 2.83203 15.834 8.49902 21.501s12.834 8.5 21.501 8.5c7.33301 0 13.833 -2.83301 19.5 -8.5s8.5 -12.834 8.5 -21.501v-304c0 -43.333 13.167 -77.5 39.5 -102.5s63.5 -37.5 111.5 -37.5c36 0 66.5 4.5 91.5 13.5s45.833 18.833 62.5 29.5v401
c0 8.66699 2.66699 15.834 8 21.501s12.333 8.5 21 8.5c8 0 14.833 -2.83301 20.5 -8.5s8.5 -12.834 8.5 -21.501v-413c0 -12.667 -4.33301 -21.667 -13 -27c-7.33301 -5.33301 -17 -11.5 -29 -18.5s-26.333 -13.5 -43 -19.5s-35.5 -11.167 -56.5 -15.5
s-44.5 -6.5 -70.5 -6.5c-30 0 -57.833 4.33301 -83.5 13s-47.667 21.5 -66 38.5s-32.833 37.833 -43.5 62.5s-16 53 -16 85v301zM356.999 708c5.33301 2.66699 10 4.00098 14 4.00098c7.33301 0 13.5 -2.5 18.5 -7.5s7.5 -11.167 7.5 -18.5
c0 -11.333 -4.66699 -19.333 -14 -24l-136 -70c-1.33301 -0.666992 -3 -1.33398 -5 -2.00098s-4.66699 -1 -8 -1c-7.33301 0 -13.5 2.5 -18.5 7.5s-7.5 11.167 -7.5 18.5c0 5.33301 1.5 10 4.5 14s6.16699 7 9.5 9z" />
    <glyph glyph-name="ucircumflex" unicode="&#xfb;" horiz-adv-x="615" 
d="M92 490c0 8.66699 2.83203 15.834 8.49902 21.501s12.834 8.5 21.501 8.5c7.33301 0 13.833 -2.83301 19.5 -8.5s8.5 -12.834 8.5 -21.501v-304c0 -43.333 13.167 -77.5 39.5 -102.5s63.5 -37.5 111.5 -37.5c36 0 66.5 4.5 91.5 13.5s45.833 18.833 62.5 29.5v401
c0 8.66699 2.66699 15.834 8 21.501s12.333 8.5 21 8.5c8 0 14.833 -2.83301 20.5 -8.5s8.5 -12.834 8.5 -21.501v-413c0 -12.667 -4.33301 -21.667 -13 -27c-7.33301 -5.33301 -17 -11.5 -29 -18.5s-26.333 -13.5 -43 -19.5s-35.5 -11.167 -56.5 -15.5
s-44.5 -6.5 -70.5 -6.5c-30 0 -57.833 4.33301 -83.5 13s-47.667 21.5 -66 38.5s-32.833 37.833 -43.5 62.5s-16 53 -16 85v301zM421.999 637c7.33301 -4.66699 11.002 -12 11.002 -22c0 -7.33301 -2.16699 -13.5 -6.5 -18.5s-10.833 -7.5 -19.5 -7.5
c-6.66699 0 -12.334 2 -17.001 6l-81 60l-81 -60c-4.66699 -4 -10.667 -6 -18 -6c-8 0 -14.333 2.5 -19 7.5s-7 11.167 -7 18.5c0 5.33301 1.16699 9.83301 3.5 13.5s5.16602 6.5 8.49902 8.5l87 64c7.33301 6.66699 16 10 26 10c8 0 16.333 -3.33301 25 -10z" />
    <glyph glyph-name="udieresis" unicode="&#xfc;" horiz-adv-x="615" 
d="M92 490c0 8.66699 2.83203 15.834 8.49902 21.501s12.834 8.5 21.501 8.5c7.33301 0 13.833 -2.83301 19.5 -8.5s8.5 -12.834 8.5 -21.501v-304c0 -43.333 13.167 -77.5 39.5 -102.5s63.5 -37.5 111.5 -37.5c36 0 66.5 4.5 91.5 13.5s45.833 18.833 62.5 29.5v401
c0 8.66699 2.66699 15.834 8 21.501s12.333 8.5 21 8.5c8 0 14.833 -2.83301 20.5 -8.5s8.5 -12.834 8.5 -21.501v-413c0 -12.667 -4.33301 -21.667 -13 -27c-7.33301 -5.33301 -17 -11.5 -29 -18.5s-26.333 -13.5 -43 -19.5s-35.5 -11.167 -56.5 -15.5
s-44.5 -6.5 -70.5 -6.5c-30 0 -57.833 4.33301 -83.5 13s-47.667 21.5 -66 38.5s-32.833 37.833 -43.5 62.5s-16 53 -16 85v301zM232.999 676c10.667 0 19.5 -3.66699 26.5 -11s10.5 -16 10.5 -26c0 -10.667 -3.5 -19.5 -10.5 -26.5s-15.833 -10.5 -26.5 -10.5
c-10 0 -18.667 3.5 -26 10.5s-11 15.833 -11 26.5c0 10 3.66699 18.667 11 26s16 11 26 11zM382.999 676c10 0 18.667 -3.66699 26 -11s11 -16 11 -26c0 -10.667 -3.66699 -19.5 -11 -26.5s-16 -10.5 -26 -10.5c-10.667 0 -19.5 3.5 -26.5 10.5s-10.5 15.833 -10.5 26.5
c0 10 3.5 18.667 10.5 26s15.833 11 26.5 11z" />
    <glyph glyph-name="yacute" unicode="&#xfd;" horiz-adv-x="502" 
d="M29 477c-4.66699 10.667 -4.3291 20.502 1.00391 29.502s13.333 13.5 24 13.5c8 0 14.333 -1.83301 19 -5.5s8 -8.16699 10 -13.5l171 -388c1.33301 -2.66699 2.66602 -4 3.99902 -4s2.66602 1.33301 3.99902 4l155 384c6.66699 15.333 16.667 23 30 23
c11.333 0 19.5 -4.66699 24.5 -14s5.16699 -19.333 0.5 -30l-189 -463c-9.33301 -22.667 -19.5 -44 -30.5 -64s-22.833 -38.333 -35.5 -55s-25.334 -31.334 -38.001 -44.001s-25 -22.334 -37 -29.001c-10 -5.33301 -20 -8 -30 -8c-7.33301 0 -13.833 2.5 -19.5 7.5
s-8.5 11.833 -8.5 20.5c0 12 6.33301 21.333 19 28c22.667 11.333 44.667 29.833 66 55.5s40.666 61.167 57.999 106.5zM351.005 709.002c5.33301 2.66699 10 4.00098 14 4.00098c7.33301 0 13.5 -2.5 18.5 -7.5s7.5 -11.167 7.5 -18.5c0 -11.333 -4.66699 -19.333 -14 -24
l-136 -70c-1.33301 -0.666992 -3 -1.33398 -5 -2.00098s-4.66699 -1 -8 -1c-7.33301 0 -13.5 2.5 -18.5 7.5s-7.5 11.167 -7.5 18.5c0 5.33301 1.5 10 4.5 14s6.16699 7 9.5 9z" />
    <glyph glyph-name="thorn" unicode="&#xfe;" horiz-adv-x="601" 
d="M520 186c-5.33301 -62.667 -26.332 -111.001 -62.999 -145.001s-88.334 -51 -155.001 -51c-28 0 -54.5 3.83301 -79.5 11.5s-46.5 15.5 -64.5 23.5v-185c0 -8.66699 -2.83301 -15.834 -8.5 -21.501s-12.5 -8.5 -20.5 -8.5s-14.833 2.83301 -20.5 8.5
s-8.5 12.834 -8.5 21.501v837c0 8.66699 2.66699 16 8 22s12.333 9 21 9c8 0 14.833 -3 20.5 -9s8.5 -13.333 8.5 -22v-186c19.333 8.66699 43 16.834 71 24.501s57 11.5 87 11.5c62.667 0 111 -16.833 145 -50.5s53.667 -81.834 59 -144.501
c0.666992 -9.33301 1.16699 -20.166 1.5 -32.499s0.5 -25.333 0.5 -39s-0.166992 -27 -0.5 -40s-0.833008 -24.5 -1.5 -34.5zM462.001 328.999c-8.66699 94.667 -59 142.002 -151 142.002c-14 0 -28.667 -1.5 -44 -4.5s-30 -6.66699 -44 -11s-26.833 -9.16602 -38.5 -14.499
s-20.5 -10.333 -26.5 -15v-339c6 -4 14.167 -8.33301 24.5 -13s22 -9.16699 35 -13.5s27 -7.83301 42 -10.5s30.167 -4 45.5 -4c51.333 0 89.5 11.833 114.5 35.5s39.167 58.5 42.5 104.5c0.666992 8 1.16699 18.167 1.5 30.5s0.5 25.166 0.5 38.499
s-0.166992 26.666 -0.5 39.999s-0.833008 24.666 -1.5 33.999z" />
    <glyph glyph-name="ydieresis" unicode="&#xff;" horiz-adv-x="502" 
d="M29 477c-4.66699 10.667 -4.3291 20.502 1.00391 29.502s13.333 13.5 24 13.5c8 0 14.333 -1.83301 19 -5.5s8 -8.16699 10 -13.5l171 -388c1.33301 -2.66699 2.66602 -4 3.99902 -4s2.66602 1.33301 3.99902 4l155 384c6.66699 15.333 16.667 23 30 23
c11.333 0 19.5 -4.66699 24.5 -14s5.16699 -19.333 0.5 -30l-189 -463c-9.33301 -22.667 -19.5 -44 -30.5 -64s-22.833 -38.333 -35.5 -55s-25.334 -31.334 -38.001 -44.001s-25 -22.334 -37 -29.001c-10 -5.33301 -20 -8 -30 -8c-7.33301 0 -13.833 2.5 -19.5 7.5
s-8.5 11.833 -8.5 20.5c0 12 6.33301 21.333 19 28c22.667 11.333 44.667 29.833 66 55.5s40.666 61.167 57.999 106.5zM183.005 676.002c10.667 0 19.5 -3.66699 26.5 -11s10.5 -16 10.5 -26c0 -10.667 -3.5 -19.5 -10.5 -26.5s-15.833 -10.5 -26.5 -10.5
c-10 0 -18.667 3.5 -26 10.5s-11 15.833 -11 26.5c0 10 3.66699 18.667 11 26s16 11 26 11zM333.005 676.002c10 0 18.667 -3.66699 26 -11s11 -16 11 -26c0 -10.667 -3.66699 -19.5 -11 -26.5s-16 -10.5 -26 -10.5c-10.667 0 -19.5 3.5 -26.5 10.5s-10.5 15.833 -10.5 26.5
c0 10 3.5 18.667 10.5 26s15.833 11 26.5 11z" />
    <glyph glyph-name="Amacron" unicode="&#x100;" horiz-adv-x="669" 
d="M642 31c0 -7.33301 -2.50293 -14.333 -7.50293 -21s-12.167 -10 -21.5 -10c-13.333 -0 -22.666 6.33301 -27.999 19l-84 229h-335l-82 -229c-5.33301 -12.667 -14.666 -19 -27.999 -19c-11.333 -0 -19.5 4.33301 -24.5 13s-5.83301 18 -2.5 28l218 598
c8 22 18.833 39.167 32.5 51.5s31.834 18.5 54.501 18.5s41 -6 55 -18s25 -29 33 -51l218 -599c1.33301 -4 2 -7.33301 2 -10zM187.997 306h291l-115 322c-5.33301 16.667 -15.333 25 -30 25c-13.333 0 -23.333 -8.66699 -30 -26zM417.997 826
c7.33301 0 13.5 -2.5 18.5 -7.5s7.5 -11.167 7.5 -18.5s-2.5 -13.333 -7.5 -18s-11.167 -7 -18.5 -7h-168c-7.33301 0 -13.333 2.33301 -18 7s-7 10.667 -7 18s2.33301 13.5 7 18.5s10.667 7.5 18 7.5h168z" />
    <glyph glyph-name="amacron" unicode="&#x101;" horiz-adv-x="564" 
d="M473 73c0 -5.33301 -0.834961 -10.1709 -2.50195 -14.5039s-5.16699 -8.5 -10.5 -12.5c-6.66699 -5.33301 -16.334 -11.166 -29.001 -17.499s-27.5 -12.166 -44.5 -17.499s-36.167 -10 -57.5 -14s-44.333 -6 -69 -6c-62.667 0 -110.334 14.833 -143.001 44.5
s-49 69.834 -49 120.501c0 22.667 4.16699 43.834 12.5 63.501s20.666 36.834 36.999 51.501s36.833 26.167 61.5 34.5s53.334 12.5 86.001 12.5c25.333 0 49.166 -1.83301 71.499 -5.5s48.5 -9.5 78.5 -17.5v43c0 46.667 -11.167 80.167 -33.5 100.5
s-56.5 30.5 -102.5 30.5c-25.333 0 -49.166 -3.16699 -71.499 -9.5s-41.166 -12.833 -56.499 -19.5c-13.333 -5.33301 -24 -5.16602 -32 0.500977s-12 13.167 -12 22.5c0 5.33301 1.33301 10.666 4 15.999s7.33398 9.66602 14.001 12.999
c16.667 8.66699 38.834 16.667 66.501 24s56.834 11 87.501 11c63.333 0 111.5 -14 144.5 -42s49.5 -74 49.5 -138v-274zM268.998 47.9951c26 0 52.833 4.16699 80.5 12.5s49.5 18.5 65.5 30.5v147c-29.333 8 -55 14.167 -77 18.5s-45 6.5 -69 6.5
c-49.333 0 -85.5 -10.5 -108.5 -31.5s-34.5 -46.5 -34.5 -76.5c0 -34 11.5 -60.333 34.5 -79s59.167 -28 108.5 -28zM367.998 663.995c7.33301 0 13.5 -2.5 18.5 -7.5s7.5 -11.167 7.5 -18.5s-2.5 -13.333 -7.5 -18s-11.167 -7 -18.5 -7h-168
c-7.33301 0 -13.333 2.33301 -18 7s-7 10.667 -7 18s2.33301 13.5 7 18.5s10.667 7.5 18 7.5h168z" />
    <glyph glyph-name="Abreve" unicode="&#x102;" horiz-adv-x="669" 
d="M642 31c0 -7.33301 -2.50293 -14.333 -7.50293 -21s-12.167 -10 -21.5 -10c-13.333 -0 -22.666 6.33301 -27.999 19l-84 229h-335l-82 -229c-5.33301 -12.667 -14.666 -19 -27.999 -19c-11.333 -0 -19.5 4.33301 -24.5 13s-5.83301 18 -2.5 28l218 598
c8 22 18.833 39.167 32.5 51.5s31.834 18.5 54.501 18.5s41 -6 55 -18s25 -29 33 -51l218 -599c1.33301 -4 2 -7.33301 2 -10zM187.997 306h291l-115 322c-5.33301 16.667 -15.333 25 -30 25c-13.333 0 -23.333 -8.66699 -30 -26zM333.997 807
c14.667 0 27.3311 4.5 37.998 13.5s17.667 20.167 21 33.5c2 5.33301 5.33301 10 10 14s10.334 6 17.001 6c7.33301 0 13.833 -2.83301 19.5 -8.5s8.5 -12.167 8.5 -19.5c0 -4 -1 -9 -3 -15c-7.33301 -21.333 -21 -39.666 -41 -54.999s-43.333 -23 -70 -23
s-50 7.66699 -70 23s-33.667 33.666 -41 54.999c-2 6 -3 11 -3 15c0 7.33301 2.83301 13.833 8.5 19.5s12.167 8.5 19.5 8.5c6.66699 0 12.5 -2 17.5 -6s8.16699 -8.66699 9.5 -14c3.33301 -13.333 10.333 -24.5 21 -33.5s23.334 -13.5 38.001 -13.5z" />
    <glyph glyph-name="abreve" unicode="&#x103;" horiz-adv-x="564" 
d="M473 73c0 -5.33301 -0.834961 -10.1709 -2.50195 -14.5039s-5.16699 -8.5 -10.5 -12.5c-6.66699 -5.33301 -16.334 -11.166 -29.001 -17.499s-27.5 -12.166 -44.5 -17.499s-36.167 -10 -57.5 -14s-44.333 -6 -69 -6c-62.667 0 -110.334 14.833 -143.001 44.5
s-49 69.834 -49 120.501c0 22.667 4.16699 43.834 12.5 63.501s20.666 36.834 36.999 51.501s36.833 26.167 61.5 34.5s53.334 12.5 86.001 12.5c25.333 0 49.166 -1.83301 71.499 -5.5s48.5 -9.5 78.5 -17.5v43c0 46.667 -11.167 80.167 -33.5 100.5
s-56.5 30.5 -102.5 30.5c-25.333 0 -49.166 -3.16699 -71.499 -9.5s-41.166 -12.833 -56.499 -19.5c-13.333 -5.33301 -24 -5.16602 -32 0.500977s-12 13.167 -12 22.5c0 5.33301 1.33301 10.666 4 15.999s7.33398 9.66602 14.001 12.999
c16.667 8.66699 38.834 16.667 66.501 24s56.834 11 87.501 11c63.333 0 111.5 -14 144.5 -42s49.5 -74 49.5 -138v-274zM268.998 47.9951c26 0 52.833 4.16699 80.5 12.5s49.5 18.5 65.5 30.5v147c-29.333 8 -55 14.167 -77 18.5s-45 6.5 -69 6.5
c-49.333 0 -85.5 -10.5 -108.5 -31.5s-34.5 -46.5 -34.5 -76.5c0 -34 11.5 -60.333 34.5 -79s59.167 -28 108.5 -28zM284.998 642.995c14.667 0 27.3311 4.5 37.998 13.5s17.667 20.167 21 33.5c2 5.33301 5.33301 10 10 14s10.334 6 17.001 6
c7.33301 0 13.833 -2.83301 19.5 -8.5s8.5 -12.167 8.5 -19.5c0 -4 -1 -9 -3 -15c-7.33301 -21.333 -21 -39.666 -41 -54.999s-43.333 -23 -70 -23s-50 7.66699 -70 23s-33.667 33.666 -41 54.999c-2 6 -3 11 -3 15c0 7.33301 2.83301 13.833 8.5 19.5s12.167 8.5 19.5 8.5
c6.66699 0 12.5 -2 17.5 -6s8.16699 -8.66699 9.5 -14c3.33301 -13.333 10.333 -24.5 21 -33.5s23.334 -13.5 38.001 -13.5z" />
    <glyph glyph-name="Aogonek" unicode="&#x104;" horiz-adv-x="701" 
d="M501 248h-334.999l-82 -229c-3.33301 -7.33301 -8.66602 -12.833 -15.999 -16.5s-15 -3.83398 -23 -0.500977c-7.33301 3.33301 -12.5 8.83301 -15.5 16.5s-3.16699 15.167 -0.5 22.5l215 602c8 22 20.167 38.5 36.5 49.5s34.166 16.5 53.499 16.5
s37.166 -5.5 53.499 -16.5s28.5 -27.5 36.5 -49.5l214 -597c3.33301 -10 3.5 -19.167 0.5 -27.5s-10.167 -15.166 -21.5 -20.499c-33.333 -15.333 -55.666 -30.833 -66.999 -46.5s-17 -31.167 -17 -46.5c0 -17.333 5.16699 -30 15.5 -38s22.5 -12 36.5 -12
c17.333 0 32.666 5 45.999 15c6 4.66699 12.667 6.33398 20 5.00098s13.333 -5 18 -11s6.33398 -12.833 5.00098 -20.5s-5 -13.834 -11 -18.501c-9.33301 -6.66699 -20.833 -12.5 -34.5 -17.5s-28.834 -7.5 -45.501 -7.5c-28 0 -52.5 9.16699 -73.5 27.5
s-31.5 43.833 -31.5 76.5c0 25.333 7.66699 48.5 23 69.5s41.333 41.5 78 61.5zM188.001 308h291.002l-116 323c-4.66699 13.333 -14.334 20 -29.001 20s-24.334 -6.66699 -29.001 -20z" />
    <glyph glyph-name="aogonek" unicode="&#x105;" horiz-adv-x="564" 
d="M458 44c-14 -8 -27.6729 -16.834 -41.0059 -26.501s-25.166 -20.334 -35.499 -32.001s-18.666 -24 -24.999 -37s-9.5 -27.167 -9.5 -42.5c0 -17.333 5.33301 -30.333 16 -39s23 -13 37 -13c16 0 30.667 5 44 15c6 4.66699 12.833 6.5 20.5 5.5s13.834 -4.5 18.501 -10.5
s6.16699 -12.833 4.5 -20.5s-5.83398 -14.167 -12.501 -19.5c-9.33301 -7.33301 -20.666 -13.166 -33.999 -17.499s-28 -6.5 -44 -6.5c-28 0 -52.5 9.16699 -73.5 27.5s-31.5 43.833 -31.5 76.5c0 19.333 2.66699 36.333 8 51s12.333 28 21 40
c-9.33301 -1.33301 -19 -2.33301 -29 -3s-20.667 -1 -32 -1c-62.667 0 -110.334 14.667 -143.001 44s-49 69.666 -49 120.999c0 22.667 4.16699 43.834 12.5 63.501s20.666 36.834 36.999 51.501s36.833 26.167 61.5 34.5s53.334 12.5 86.001 12.5
c25.333 0 49.166 -1.83301 71.499 -5.5s48.5 -9.5 78.5 -17.5v46c0 46.667 -11.167 79.667 -33.5 99s-56.5 29 -102.5 29c-25.333 0 -49.166 -3.16699 -71.499 -9.5s-41.166 -12.833 -56.499 -19.5c-13.333 -5.33301 -24 -4.83301 -32 1.5s-12 14.166 -12 23.499
c0 5.33301 1.33301 10.5 4 15.5s7.33398 9.16699 14.001 12.5c8 4 18.333 8.16699 31 12.5s26.5 8 41.5 11s30.5 5.5 46.5 7.5s31.333 3 46 3c54.667 0 98.834 -14 132.501 -42s50.5 -73.667 50.5 -137v-274c0 -5.33301 -0.666992 -10.666 -2 -15.999
s-5.66602 -10 -12.999 -14zM125.994 154.999c0 -34 11.499 -60.333 34.499 -79s59.167 -28 108.5 -28c22.667 0 42.834 1.66699 60.501 5s32.5 7.33301 44.5 12s21.333 9 28 13s11 6.66699 13 8v152c-29.333 8.66699 -55 15 -77 19s-45 6 -69 6
c-49.333 0 -85.5 -10.5 -108.5 -31.5s-34.5 -46.5 -34.5 -76.5z" />
    <glyph glyph-name="Cacute" unicode="&#x106;" horiz-adv-x="660" 
d="M355 49c44.667 0 84.8359 11.998 120.503 35.998s61.167 55.667 76.5 95c2 5.33301 5.33301 10 10 14s10.667 6 18 6s13.833 -2.66699 19.5 -8s8.5 -12 8.5 -20c0 -3.33301 -0.666992 -7 -2 -11c-9.33301 -25.333 -22.333 -48.333 -39 -69s-36 -38.5 -58 -53.5
s-46.167 -26.667 -72.5 -35s-53.5 -12.5 -81.5 -12.5c-39.333 0 -75.333 7 -108 21s-61.167 33.5 -85.5 58.5s-43.833 54.5 -58.5 88.5s-23.334 70.667 -26.001 110c-4 53.333 -4 107.333 0 162c2.66699 38.667 11.167 74.834 25.5 108.501s33.666 63 57.999 88
s53 44.667 86 59s69.167 21.5 108.5 21.5c28 0 55.167 -4.16699 81.5 -12.5s50.5 -20 72.5 -35s41.333 -33 58 -54s29.667 -43.833 39 -68.5c1.33301 -4 2 -7.66699 2 -11c0 -8 -2.83301 -14.667 -8.5 -20s-12.167 -8 -19.5 -8s-13.333 2 -18 6s-8 8.66699 -10 14
c-15.333 40 -40.833 72 -76.5 96s-75.834 36 -120.501 36c-31.333 0 -59.833 -5.5 -85.5 -16.5s-48 -26.167 -67 -45.5s-34.333 -42.333 -46 -69s-18.834 -55.667 -21.501 -87c-4 -55.333 -4 -110.666 0 -165.999c2.66699 -31.333 9.83398 -60.333 21.501 -87
s27 -49.667 46 -69s41.333 -34.5 67 -45.5s54.167 -16.5 85.5 -16.5zM429.002 871.998c5.33301 2.66699 10 4.00098 14 4.00098c7.33301 0 13.5 -2.5 18.5 -7.5s7.5 -11.167 7.5 -18.5c0 -11.333 -4.66699 -19.333 -14 -24l-136 -70
c-1.33301 -0.666992 -3 -1.33398 -5 -2.00098s-4.66699 -1 -8 -1c-7.33301 0 -13.5 2.5 -18.5 7.5s-7.5 11.167 -7.5 18.5c0 5.33301 1.5 10 4.5 14s6.16699 7 9.5 9z" />
    <glyph glyph-name="cacute" unicode="&#x107;" horiz-adv-x="556" 
d="M298 46c28 0 55.3359 7.66797 82.0029 23.001s46 39 58 71c3.33301 10 7.83301 17 13.5 21s12.167 6 19.5 6s13.5 -2.66699 18.5 -8s7.5 -12.666 7.5 -21.999c0 -10 -4 -23.333 -12 -40s-20.167 -33 -36.5 -49s-36.833 -29.667 -61.5 -41s-54 -17 -88 -17
c-32 0 -61.167 5.16699 -87.5 15.5s-49 24.5 -68 42.5s-34 39.333 -45 64s-17.5 51 -19.5 79c-0.666992 10 -1.16699 21 -1.5 33s-0.5 24.167 -0.5 36.5s0.166992 24.666 0.5 36.999s0.833008 23.5 1.5 33.5c1.33301 29.333 7.66602 56 18.999 80s26.666 44.667 45.999 62
s42.166 30.666 68.499 39.999s55.166 14 86.499 14c34 0 63.333 -5.66699 88 -17s45 -24.666 61 -39.999s27.833 -31.333 35.5 -48s11.5 -30 11.5 -40s-2.66699 -17.667 -8 -23s-12 -8 -20 -8c-7.33301 0 -13.5 2 -18.5 6s-9.16699 11 -12.5 21
c-11.333 31.333 -30.166 54.666 -56.499 69.999s-53.5 23 -81.5 23c-23.333 0 -44.5 -3.5 -63.5 -10.5s-35.5 -16.667 -49.5 -29s-25.167 -27 -33.5 -44s-12.833 -35.833 -13.5 -56.5c-0.666992 -9.33301 -1.16699 -20.166 -1.5 -32.499s-0.5 -25 -0.5 -38
s0.166992 -25.833 0.5 -38.5s0.833008 -23.334 1.5 -32.001c3.33301 -42 19 -76.5 47 -103.5s65.667 -40.5 113 -40.5zM362.003 708.001c5.33301 2.66699 10 4.00098 14 4.00098c7.33301 0 13.5 -2.5 18.5 -7.5s7.5 -11.167 7.5 -18.5c0 -11.333 -4.66699 -19.333 -14 -24
l-136 -70c-1.33301 -0.666992 -3 -1.33398 -5 -2.00098s-4.66699 -1 -8 -1c-7.33301 0 -13.5 2.5 -18.5 7.5s-7.5 11.167 -7.5 18.5c0 5.33301 1.5 10 4.5 14s6.16699 7 9.5 9z" />
    <glyph glyph-name="Cdotaccent" unicode="&#x10a;" horiz-adv-x="660" 
d="M355 49c44.667 0 84.8359 11.998 120.503 35.998s61.167 55.667 76.5 95c2 5.33301 5.33301 10 10 14s10.667 6 18 6s13.833 -2.66699 19.5 -8s8.5 -12 8.5 -20c0 -3.33301 -0.666992 -7 -2 -11c-9.33301 -25.333 -22.333 -48.333 -39 -69s-36 -38.5 -58 -53.5
s-46.167 -26.667 -72.5 -35s-53.5 -12.5 -81.5 -12.5c-39.333 0 -75.333 7 -108 21s-61.167 33.5 -85.5 58.5s-43.833 54.5 -58.5 88.5s-23.334 70.667 -26.001 110c-4 53.333 -4 107.333 0 162c2.66699 38.667 11.167 74.834 25.5 108.501s33.666 63 57.999 88
s53 44.667 86 59s69.167 21.5 108.5 21.5c28 0 55.167 -4.16699 81.5 -12.5s50.5 -20 72.5 -35s41.333 -33 58 -54s29.667 -43.833 39 -68.5c1.33301 -4 2 -7.66699 2 -11c0 -8 -2.83301 -14.667 -8.5 -20s-12.167 -8 -19.5 -8s-13.333 2 -18 6s-8 8.66699 -10 14
c-15.333 40 -40.833 72 -76.5 96s-75.834 36 -120.501 36c-31.333 0 -59.833 -5.5 -85.5 -16.5s-48 -26.167 -67 -45.5s-34.333 -42.333 -46 -69s-18.834 -55.667 -21.501 -87c-4 -55.333 -4 -110.666 0 -165.999c2.66699 -31.333 9.83398 -60.333 21.501 -87
s27 -49.667 46 -69s41.333 -34.5 67 -45.5s54.167 -16.5 85.5 -16.5zM354.002 836.998c10.667 0 19.5 -3.66699 26.5 -11s10.5 -16 10.5 -26c0 -10.667 -3.5 -19.5 -10.5 -26.5s-15.833 -10.5 -26.5 -10.5s-19.5 3.5 -26.5 10.5s-10.5 15.833 -10.5 26.5
c0 10 3.5 18.667 10.5 26s15.833 11 26.5 11z" />
    <glyph glyph-name="cdotaccent" unicode="&#x10b;" horiz-adv-x="556" 
d="M298 46c28 0 55.3359 7.66797 82.0029 23.001s46 39 58 71c3.33301 10 7.83301 17 13.5 21s12.167 6 19.5 6s13.5 -2.66699 18.5 -8s7.5 -12.666 7.5 -21.999c0 -10 -4 -23.333 -12 -40s-20.167 -33 -36.5 -49s-36.833 -29.667 -61.5 -41s-54 -17 -88 -17
c-32 0 -61.167 5.16699 -87.5 15.5s-49 24.5 -68 42.5s-34 39.333 -45 64s-17.5 51 -19.5 79c-0.666992 10 -1.16699 21 -1.5 33s-0.5 24.167 -0.5 36.5s0.166992 24.666 0.5 36.999s0.833008 23.5 1.5 33.5c1.33301 29.333 7.66602 56 18.999 80s26.666 44.667 45.999 62
s42.166 30.666 68.499 39.999s55.166 14 86.499 14c34 0 63.333 -5.66699 88 -17s45 -24.666 61 -39.999s27.833 -31.333 35.5 -48s11.5 -30 11.5 -40s-2.66699 -17.667 -8 -23s-12 -8 -20 -8c-7.33301 0 -13.5 2 -18.5 6s-9.16699 11 -12.5 21
c-11.333 31.333 -30.166 54.666 -56.499 69.999s-53.5 23 -81.5 23c-23.333 0 -44.5 -3.5 -63.5 -10.5s-35.5 -16.667 -49.5 -29s-25.167 -27 -33.5 -44s-12.833 -35.833 -13.5 -56.5c-0.666992 -9.33301 -1.16699 -20.166 -1.5 -32.499s-0.5 -25 -0.5 -38
s0.166992 -25.833 0.5 -38.5s0.833008 -23.334 1.5 -32.001c3.33301 -42 19 -76.5 47 -103.5s65.667 -40.5 113 -40.5zM295.003 676.001c10.667 0 19.5 -3.66699 26.5 -11s10.5 -16 10.5 -26c0 -10.667 -3.5 -19.5 -10.5 -26.5s-15.833 -10.5 -26.5 -10.5
s-19.5 3.5 -26.5 10.5s-10.5 15.833 -10.5 26.5c0 10 3.5 18.667 10.5 26s15.833 11 26.5 11z" />
    <glyph glyph-name="Ccaron" unicode="&#x10c;" horiz-adv-x="660" 
d="M355 49c44.667 0 84.8359 11.998 120.503 35.998s61.167 55.667 76.5 95c2 5.33301 5.33301 10 10 14s10.667 6 18 6s13.833 -2.66699 19.5 -8s8.5 -12 8.5 -20c0 -3.33301 -0.666992 -7 -2 -11c-9.33301 -25.333 -22.333 -48.333 -39 -69s-36 -38.5 -58 -53.5
s-46.167 -26.667 -72.5 -35s-53.5 -12.5 -81.5 -12.5c-39.333 0 -75.333 7 -108 21s-61.167 33.5 -85.5 58.5s-43.833 54.5 -58.5 88.5s-23.334 70.667 -26.001 110c-4 53.333 -4 107.333 0 162c2.66699 38.667 11.167 74.834 25.5 108.501s33.666 63 57.999 88
s53 44.667 86 59s69.167 21.5 108.5 21.5c28 0 55.167 -4.16699 81.5 -12.5s50.5 -20 72.5 -35s41.333 -33 58 -54s29.667 -43.833 39 -68.5c1.33301 -4 2 -7.66699 2 -11c0 -8 -2.83301 -14.667 -8.5 -20s-12.167 -8 -19.5 -8s-13.333 2 -18 6s-8 8.66699 -10 14
c-15.333 40 -40.833 72 -76.5 96s-75.834 36 -120.501 36c-31.333 0 -59.833 -5.5 -85.5 -16.5s-48 -26.167 -67 -45.5s-34.333 -42.333 -46 -69s-18.834 -55.667 -21.501 -87c-4 -55.333 -4 -110.666 0 -165.999c2.66699 -31.333 9.83398 -60.333 21.501 -87
s27 -49.667 46 -69s41.333 -34.5 67 -45.5s54.167 -16.5 85.5 -16.5zM372.002 761.998c-8.66699 -6.66699 -17.002 -10 -25.002 -10c-10 0 -18.667 3.33301 -26 10l-87 64c-3.33301 2 -6.16602 4.83301 -8.49902 8.5s-3.5 8.16699 -3.5 13.5c0 7.33301 2.33301 13.5 7 18.5
s11 7.5 19 7.5c7.33301 0 13.333 -2 18 -6l81 -61l81 61c4.66699 4 10.334 6 17.001 6c8.66699 0 15.167 -2.5 19.5 -7.5s6.5 -11.167 6.5 -18.5c0 -10 -3.66699 -17.333 -11 -22z" />
    <glyph glyph-name="ccaron" unicode="&#x10d;" horiz-adv-x="556" 
d="M298 46c28 0 55.3359 7.66797 82.0029 23.001s46 39 58 71c3.33301 10 7.83301 17 13.5 21s12.167 6 19.5 6s13.5 -2.66699 18.5 -8s7.5 -12.666 7.5 -21.999c0 -10 -4 -23.333 -12 -40s-20.167 -33 -36.5 -49s-36.833 -29.667 -61.5 -41s-54 -17 -88 -17
c-32 0 -61.167 5.16699 -87.5 15.5s-49 24.5 -68 42.5s-34 39.333 -45 64s-17.5 51 -19.5 79c-0.666992 10 -1.16699 21 -1.5 33s-0.5 24.167 -0.5 36.5s0.166992 24.666 0.5 36.999s0.833008 23.5 1.5 33.5c1.33301 29.333 7.66602 56 18.999 80s26.666 44.667 45.999 62
s42.166 30.666 68.499 39.999s55.166 14 86.499 14c34 0 63.333 -5.66699 88 -17s45 -24.666 61 -39.999s27.833 -31.333 35.5 -48s11.5 -30 11.5 -40s-2.66699 -17.667 -8 -23s-12 -8 -20 -8c-7.33301 0 -13.5 2 -18.5 6s-9.16699 11 -12.5 21
c-11.333 31.333 -30.166 54.666 -56.499 69.999s-53.5 23 -81.5 23c-23.333 0 -44.5 -3.5 -63.5 -10.5s-35.5 -16.667 -49.5 -29s-25.167 -27 -33.5 -44s-12.833 -35.833 -13.5 -56.5c-0.666992 -9.33301 -1.16699 -20.166 -1.5 -32.499s-0.5 -25 -0.5 -38
s0.166992 -25.833 0.5 -38.5s0.833008 -23.334 1.5 -32.001c3.33301 -42 19 -76.5 47 -103.5s65.667 -40.5 113 -40.5zM318.003 599.001c-8.66699 -6.66699 -17.002 -10 -25.002 -10c-10 0 -18.667 3.33301 -26 10l-87 64c-3.33301 2 -6.16602 4.83301 -8.49902 8.5
s-3.5 8.16699 -3.5 13.5c0 7.33301 2.33301 13.5 7 18.5s11 7.5 19 7.5c7.33301 0 13.333 -2 18 -6l81 -61l81 61c4.66699 4 10.334 6 17.001 6c8.66699 0 15.167 -2.5 19.5 -7.5s6.5 -11.167 6.5 -18.5c0 -10 -3.66699 -17.333 -11 -22z" />
    <glyph glyph-name="Dcaron" unicode="&#x10e;" horiz-adv-x="719" 
d="M586 294c1.33301 17.333 1.99805 36.502 1.99805 57.502s-0.666992 39.167 -2 54.5c-2 35.333 -8.5 67.5 -19.5 96.5s-26.667 53.667 -47 74s-45.666 36.166 -75.999 47.499s-66.166 17 -107.499 17h-168v-582h168c41.333 0 77.333 5.66699 108 17
s56.167 27.166 76.5 47.499s35.833 45 46.5 74s17 61.167 19 96.5zM164.998 0.00195312c-18 0 -31.666 5.5 -40.999 16.5s-14 24.167 -14 39.5v587c0 15.333 4.66699 28.5 14 39.5s23 16.5 41 16.5h173c49.333 0 92.666 -7.5 129.999 -22.5s68.666 -35.667 93.999 -62
s44.833 -57.5 58.5 -93.5s21.5 -75.333 23.5 -118c1.33301 -18 2 -36.5 2 -55.5s-0.666992 -36.833 -2 -53.5c-2 -42 -10 -81 -24 -117s-33.667 -67 -59 -93s-56.666 -46.5 -93.999 -61.5s-80.333 -22.5 -129 -22.5h-173zM372.999 762.002
c-8.66699 -6.66699 -17.002 -10 -25.002 -10c-10 0 -18.667 3.33301 -26 10l-87 64c-3.33301 2 -6.16602 4.83301 -8.49902 8.5s-3.5 8.16699 -3.5 13.5c0 7.33301 2.33301 13.5 7 18.5s11 7.5 19 7.5c7.33301 0 13.333 -2 18 -6l81 -61l81 61c4.66699 4 10.334 6 17.001 6
c8.66699 0 15.167 -2.5 19.5 -7.5s6.5 -11.167 6.5 -18.5c0 -10 -3.66699 -17.333 -11 -22z" />
    <glyph glyph-name="dcaron" unicode="&#x10f;" horiz-adv-x="603" 
d="M80 331c5.33301 63.333 25.667 111.834 61 145.501s84.333 50.5 147 50.5c30 0 58.5 -3.66699 85.5 -11s50.167 -15 69.5 -23v184c0 8.66699 2.83301 15.834 8.5 21.501s12.5 8.5 20.5 8.5s14.833 -2.83301 20.5 -8.5s8.5 -12.834 8.5 -21.501v-599
c0 -5.33301 -0.666992 -10.166 -2 -14.499s-5 -8.5 -11 -12.5c-5.33301 -4 -14.333 -9.5 -27 -16.5s-27.667 -13.833 -45 -20.5s-36.333 -12.334 -57 -17.001s-42 -7 -64 -7c-66 0 -117 17.833 -153 53.5s-56.667 84.834 -62 147.501
c-0.666992 8.66699 -1.16699 19.167 -1.5 31.5s-0.5 25.166 -0.5 38.499s0.166992 26.166 0.5 38.499s0.833008 22.833 1.5 31.5zM139.001 189.001c5.33301 -48 20.6689 -83.832 46.002 -107.499s62.333 -35.5 111 -35.5c13.333 0 27.333 1.5 42 4.5
s28.834 6.66699 42.501 11s26 9.16602 37 14.499s19.5 10.333 25.5 15v341c-13.333 8 -34.5 16.5 -63.5 25.5s-60.5 13.5 -94.5 13.5c-47.333 0 -82.333 -11.667 -105 -35s-36.334 -58 -41.001 -104c-0.666992 -8 -1.33398 -18.167 -2.00098 -30.5s-1 -25.333 -1 -39
s0.166992 -27 0.5 -40s1.16602 -24.167 2.49902 -33.5zM622.004 571.002c-7.33301 -13.333 -17.335 -19.998 -30.002 -19.998c-9.33301 0 -16.166 2.66699 -20.499 8s-6.5 12 -6.5 20c0 5.33301 1.33301 10.5 4 15.5s5.5 10.667 8.5 17s5.83301 13.666 8.5 21.999
s4 18.5 4 30.5v18c0 9.33301 2.5 17 7.5 23s11.833 9 20.5 9s15.834 -3 21.501 -9s8.5 -13.667 8.5 -23v-18c0 -12 -1.83301 -26.333 -5.5 -43s-10.5 -33.334 -20.5 -50.001z" />
    <glyph glyph-name="Dcroat" unicode="&#x110;" horiz-adv-x="720" 
d="M167 0c-18.667 0 -32.8311 5.49902 -42.498 16.499s-14.5 24.167 -14.5 39.5v262h-77c-8.66699 0 -15.834 2.83301 -21.501 8.5s-8.5 12.5 -8.5 20.5c0 8.66699 2.83301 15.667 8.5 21s12.834 8 21.501 8h77v267c0 15.333 4.83301 28.5 14.5 39.5
s23.834 16.5 42.501 16.5h172c49.333 0 92.666 -7.5 129.999 -22.5s68.666 -35.667 93.999 -62s44.833 -57.5 58.5 -93.5s21.5 -75.333 23.5 -118c2 -36 2 -71.667 0 -107c-2 -42.667 -9.83301 -82.167 -23.5 -118.5s-33.334 -67.666 -59.001 -93.999s-57 -46.833 -94 -61.5
s-80.167 -22 -129.5 -22h-172zM337.003 58.999c41.333 0 77 5.66797 107 17.001s55.167 27.166 75.5 47.499s35.833 45 46.5 74s17.334 61.167 20.001 96.5c2.66699 36.667 2.66699 73.667 0 111c-2.66699 35.333 -9.33398 67.5 -20.001 96.5s-26.167 53.833 -46.5 74.5
s-45.5 36.667 -75.5 48s-65.667 17 -107 17h-169v-265h177c8.66699 0 15.667 -2.66699 21 -8s8 -12.333 8 -21c0 -8 -2.66699 -14.833 -8 -20.5s-12.333 -8.5 -21 -8.5h-177v-259h169z" />
    <glyph glyph-name="dcroat" unicode="&#x111;" horiz-adv-x="602" 
d="M81 331c5.33301 63.333 25.5029 111.836 60.5029 145.503s83.833 50.5 146.5 50.5c30 0 58.333 -3.66699 85 -11s49.667 -15 69 -23v93h-94c-8 0 -14.833 2.66699 -20.5 8s-8.5 11.666 -8.5 18.999c0 8.66699 2.83301 15.5 8.5 20.5s12.5 7.5 20.5 7.5h94v28
c0 10 3.16699 18.167 9.5 24.5s13.166 9.5 20.499 9.5s14 -3.16699 20 -9.5s9 -14.5 9 -24.5v-28h42c8.66699 0 15.667 -2.66699 21 -8s8 -12 8 -20c0 -6.66699 -2.83301 -12.834 -8.5 -18.501s-12.5 -8.5 -20.5 -8.5h-42v-508c0 -5.33301 -0.666992 -10.166 -2 -14.499
s-5 -8.5 -11 -12.5c-5.33301 -4 -14.333 -9.5 -27 -16.5s-27.834 -13.833 -45.501 -20.5s-36.834 -12.334 -57.501 -17.001s-41.667 -7 -63 -7c-66 0 -116.833 17.833 -152.5 53.5s-56.167 84.834 -61.5 147.501c-0.666992 8.66699 -1.16699 19.167 -1.5 31.5
s-0.5 25.166 -0.5 38.499s0.166992 26.166 0.5 38.499s0.833008 22.833 1.5 31.5zM139.003 189.003c8 -96 60.333 -143.998 157 -143.998c13.333 0 27.333 1.5 42 4.5s28.667 6.66699 42 11s25.5 9.16602 36.5 14.499s19.5 10.333 25.5 15v342
c-13.333 8 -34.333 16.5 -63 25.5s-60 13.5 -94 13.5c-91.333 0 -140 -46 -146 -138c-0.666992 -8 -1.16699 -18.333 -1.5 -31s-0.5 -25.834 -0.5 -39.501v-40c0 -13 0.666992 -24.167 2 -33.5z" />
    <glyph glyph-name="Emacron" unicode="&#x112;" horiz-adv-x="623" 
d="M517 699c8.66699 0 16 -2.66602 22 -7.99902s9 -12.333 9 -21c0 -8 -3 -14.833 -9 -20.5s-13.333 -8.5 -22 -8.5h-349v-259h342c9.33301 0 17 -2.66699 23 -8s9 -12.333 9 -21s-3.16699 -16 -9.5 -22s-13.833 -9 -22.5 -9h-342v-263h351c8.66699 0 16 -2.83301 22 -8.5
s9 -12.5 9 -20.5c0 -8.66699 -2.83301 -15.834 -8.5 -21.501s-13.167 -8.5 -22.5 -8.5h-353c-18.667 0 -32.667 5.5 -42 16.5s-14 24.167 -14 39.5v587c0 15.333 4.66699 28.5 14 39.5s23.333 16.5 42 16.5h351zM418 826.001c7.33301 0 13.5 -2.5 18.5 -7.5
s7.5 -11.167 7.5 -18.5s-2.5 -13.333 -7.5 -18s-11.167 -7 -18.5 -7h-168c-7.33301 0 -13.333 2.33301 -18 7s-7 10.667 -7 18s2.33301 13.5 7 18.5s10.667 7.5 18 7.5h168z" />
    </font>
</defs>
</svg>
