<?xml version="1.0" standalone="no"?>
<!DOCTYPE svg PUBLIC "-//W3C//DTD SVG 1.1//EN" "http://www.w3.org/Graphics/SVG/1.1/DTD/svg11.dtd" >
<svg>
<metadata>
Created by FontForge 20090914 at Mon Aug 31 11:47:39 2015
 By www-data
This font is a renamed version of Rubrik, licensed for use only within the Adani Group. Copyright (c) 2010 by Miles Newlyn. All rights reserved.
</metadata>
<defs>
<font id="Adani-Medium" horiz-adv-x="603" >
  <font-face 
    font-family="Adani Medium"
    font-weight="500"
    font-stretch="normal"
    units-per-em="1000"
    panose-1="2 0 5 3 0 0 0 2 0 4"
    ascent="750"
    descent="-250"
    x-height="520.999"
    cap-height="706"
    bbox="-33.8783 -283.999 1111.5 959.001"
    underline-thickness="70"
    underline-position="-30"
    unicode-range="U+0020-U+FB02"
  />
<missing-glyph horiz-adv-x="301" 
 />
    <glyph glyph-name="fi" unicode="fi" horiz-adv-x="691" 
d="M109 549c0 54.667 14.5 97.167 43.5 127.5s70.167 45.5 123.5 45.5c17.333 0 34.666 -1 51.999 -3s31.333 -4.66699 42 -8c27.333 -8 41 -24.667 41 -50c0 -11.333 -4.16699 -22 -12.5 -32s-20.833 -15 -37.5 -15c-11.333 0 -23.166 1.5 -35.499 4.5s-26.5 4.5 -42.5 4.5
c-45.333 0 -68 -26.333 -68 -79v-32h128c13.333 0 25 -4.5 35 -13.5s15 -20.167 15 -33.5s-5 -24.5 -15 -33.5s-21.667 -13.5 -35 -13.5h-128v-367c0 -15.333 -5 -28.333 -15 -39s-22.667 -16 -38 -16c-14.667 0 -27.167 5.33301 -37.5 16s-15.5 23.667 -15.5 39v367h-30
c-13.333 0 -24.833 4.33301 -34.5 13s-14.5 19.667 -14.5 33c0 14 4.83301 25.5 14.5 34.5s21.167 13.5 34.5 13.5h30v37zM610 662c0 -16.667 -5.66699 -31 -17 -43s-25.333 -18 -42 -18c-17.333 0 -31.666 6 -42.999 18s-17 26.333 -17 43s5.66699 30.667 17 42
s25.666 17 42.999 17c16.667 0 30.667 -5.66699 42 -17s17 -25.333 17 -42zM551 532c14.667 0 27.167 -5.16699 37.5 -15.5s15.5 -23.166 15.5 -38.499v-428c0 -15.333 -5 -28.166 -15 -38.499s-22.667 -15.5 -38 -15.5c-14 0 -26.333 5.16699 -37 15.5
s-16 23.166 -16 38.499v428c0 15.333 5 28.166 15 38.499s22.667 15.5 38 15.5z" />
    <glyph glyph-name=".notdef" horiz-adv-x="301" 
 />
    <glyph glyph-name="space" unicode=" " horiz-adv-x="280" 
 />
    <glyph glyph-name="space" unicode="&#xa0;" horiz-adv-x="280" 
 />
    <glyph glyph-name="exclam" unicode="!" horiz-adv-x="227" 
d="M61 649c-0.666992 15.333 4.16992 28.166 14.5029 38.499s22.833 15.5 37.5 15.5c15.333 0 28.166 -5.16699 38.499 -15.5s15.166 -23.166 14.499 -38.499l-6 -374c-0.666992 -13.333 -5.33398 -24.333 -14.001 -33s-19.667 -13 -33 -13s-24.333 4.5 -33 13.5
s-13 19.833 -13 32.5zM63.0039 90c0 13.333 4.83301 24.833 14.5 34.5s21.5 14.5 35.5 14.5c14.667 0 26.834 -4.83301 36.501 -14.5s14.5 -21.167 14.5 -34.5v-50c0 -13.333 -4.83301 -24.666 -14.5 -33.999s-21.834 -14 -36.501 -14c-14 0 -25.833 4.66699 -35.5 14
s-14.5 20.666 -14.5 33.999v50z" />
    <glyph glyph-name="quotedbl" unicode="&#x22;" horiz-adv-x="369" 
d="M157 511c0 -13.333 -4.66699 -24.833 -14 -34.5s-21 -14.5 -35 -14.5s-25.667 4.83301 -35 14.5s-14 21.167 -14 34.5v144c0 13.333 4.66699 24.666 14 33.999s21 14 35 14s25.667 -4.66699 35 -14s14 -20.666 14 -33.999v-144zM310 511
c0 -13.333 -4.5 -24.833 -13.5 -34.5s-20.833 -14.5 -35.5 -14.5c-14 0 -25.667 4.83301 -35 14.5s-14 21.167 -14 34.5v144c0 13.333 4.66699 24.666 14 33.999s21 14 35 14c14.667 0 26.5 -4.66699 35.5 -14s13.5 -20.666 13.5 -33.999v-144z" />
    <glyph glyph-name="numbersign" unicode="#" horiz-adv-x="673" 
d="M176 26c-3.33301 -11.333 -9.16797 -19.6699 -17.501 -25.0029s-17.5 -8 -27.5 -8c-17.333 0 -30.166 6.83301 -38.499 20.5s-9.83301 28.5 -4.5 44.5l44 136h-44c-14 0 -25.833 4.5 -35.5 13.5s-14.5 20.167 -14.5 33.5s5 24.333 15 33s22 13 36 13h75l43 138h-44
c-14.667 0 -26.834 4.5 -36.501 13.5s-14.5 20.167 -14.5 33.5s5 24.5 15 33.5s22 13.5 36 13.5h76l49 149c5.33301 14.667 12.166 24.834 20.499 30.501s17.5 8.5 27.5 8.5c17.333 0 30 -6.83301 38 -20.5s9.33301 -28.5 4 -44.5l-39 -123h103l49 149
c5.33301 14.667 12.166 24.834 20.499 30.501s17.5 8.5 27.5 8.5c17.333 0 30 -6.83301 38 -20.5s9.33301 -28.5 4 -44.5l-40 -123h43c14 0 26 -4.5 36 -13.5s15 -20.167 15 -33.5s-5 -24.5 -15 -33.5s-22 -13.5 -36 -13.5h-75l-44 -138h45c14 0 26 -4.33301 36 -13
s15 -19.667 15 -33s-5.16699 -24.5 -15.5 -33.5s-22.166 -13.5 -35.499 -13.5h-77l-54 -168c-3.33301 -11.333 -9.16602 -19.666 -17.499 -24.999s-17.5 -8 -27.5 -8c-17.333 0 -30.166 6.83301 -38.499 20.5s-9.83301 28.5 -4.5 44.5l44 136h-105zM261.998 286.996h105
l43 138h-104z" />
    <glyph glyph-name="dollar" unicode="$" horiz-adv-x="610" 
d="M554 208c0 -26 -4.83496 -50.1631 -14.502 -72.4961s-23.334 -42 -41.001 -59s-39 -30.833 -64 -41.5s-52.833 -17.334 -83.5 -20.001v-54c0 -14 -4.5 -25.833 -13.5 -35.5s-20.167 -14.5 -33.5 -14.5c-12.667 0 -23.667 5 -33 15s-14 21.667 -14 35v56
c-38 5.33301 -71.5 14 -100.5 26s-53.167 25.667 -72.5 41c-9.33301 7.33301 -16.333 14.833 -21 22.5s-7 17.167 -7 28.5c0 14 5.33301 26 16 36s23.334 15 38.001 15c5.33301 0 11.166 -1 17.499 -3s13.5 -6 21.5 -12c20 -15.333 44.5 -28.333 73.5 -39
s59.167 -16 90.5 -16c42 0 74.5 7.83301 97.5 23.5s34.5 38.5 34.5 68.5c0 13.333 -2.83301 24.833 -8.5 34.5s-14.834 18.167 -27.501 25.5s-29.167 14.166 -49.5 20.499s-45.5 12.833 -75.5 19.5c-37.333 8 -69.833 17.333 -97.5 28s-50.5 23.5 -68.5 38.5
s-31.333 32.833 -40 53.5s-13 44.667 -13 72c0 24.667 4.66699 47.667 14 69s22.5 40 39.5 56s37.167 29.333 60.5 40s49.333 17.667 78 21v53c0 13.333 4.66699 25 14 35s20.333 15 33 15c13.333 0 24.5 -4.83301 33.5 -14.5s13.5 -21.5 13.5 -35.5v-52
c30.667 -3.33301 58.334 -9.83301 83.001 -19.5s44.667 -21.167 60 -34.5c6.66699 -5.33301 11.5 -11.5 14.5 -18.5s4.5 -13.5 4.5 -19.5c0 -15.333 -4.66699 -28.333 -14 -39s-21.333 -16 -36 -16c-6.66699 0 -13.667 1.5 -21 4.5s-13.666 6.16699 -18.999 9.5
c-18 11.333 -37.667 20 -59 26s-42.666 9 -63.999 9c-24 0 -44.167 -2.66699 -60.5 -8s-29.166 -12 -38.499 -20s-16 -17.167 -20 -27.5s-6 -20.5 -6 -30.5c0 -15.333 3 -28 9 -38s14.833 -18.5 26.5 -25.5s26.167 -12.833 43.5 -17.5s37 -9.33398 59 -14.001
c42.667 -9.33301 79.167 -19.833 109.5 -31.5s55.333 -25.334 75 -41.001s34 -34 43 -55s13.5 -45.167 13.5 -72.5z" />
    <glyph glyph-name="percent" unicode="%" horiz-adv-x="792" 
d="M602 345c21.333 0 41.1631 -4.00098 59.4961 -12.001s34.333 -18.833 48 -32.5s24.5 -29.834 32.5 -48.501s12.667 -38.334 14 -59.001c0.666992 -17.333 0.666992 -34.333 0 -51c-1.33301 -21.333 -6.16602 -41.166 -14.499 -59.499s-19.166 -34.333 -32.499 -48
s-29.166 -24.5 -47.499 -32.5s-38.166 -12 -59.499 -12s-41.333 4 -60 12s-35 18.833 -49 32.5s-25.167 29.667 -33.5 48s-12.833 37.833 -13.5 58.5c-0.666992 18 -0.666992 35.333 0 52c0.666992 20.667 5.16699 40.334 13.5 59.001s19.5 34.834 33.5 48.501
s30.333 24.5 49 32.5s38.667 12 60 12zM190.997 708.999c20.667 0 40.166 -4.00098 58.499 -12.001s34.5 -18.667 48.5 -32s25 -29.333 33 -48s12.667 -38.334 14 -59.001c0.666992 -17.333 0.666992 -34.666 0 -51.999c-1.33301 -21.333 -6.16602 -41.166 -14.499 -59.499
s-19.333 -34.166 -33 -47.499s-29.667 -24 -48 -32s-37.833 -12 -58.5 -12c-21.333 0 -41.333 4 -60 12s-35 18.667 -49 32s-25.167 29.166 -33.5 47.499s-12.833 38.166 -13.5 59.499c-0.666992 18 -0.666992 35.333 0 52c0.666992 20.667 5.16699 40.334 13.5 59.001
s19.5 34.667 33.5 48s30.333 24 49 32s38.667 12 60 12zM553.996 602.998c8 10.667 18.834 16.165 32.501 16.498s25.167 -3.5 34.5 -11.5c10.667 -8.66699 16.167 -19.667 16.5 -33s-3.5 -24.666 -11.5 -33.999l-381 -436c-8 -10 -18.833 -15.667 -32.5 -17
s-25.167 2.33398 -34.5 11.001c-9.33301 8 -14.333 19 -15 33s2.66602 25.667 9.99902 35zM189.997 622.996c-19.333 0 -34.998 -6.50098 -46.998 -19.501s-19 -29.167 -21 -48.5c-1.33301 -15.333 -1.33301 -30.666 0 -45.999c1.33301 -19.333 8.16602 -35.5 20.499 -48.5
s28.166 -19.5 47.499 -19.5s35.166 6.5 47.499 19.5s19.166 29.167 20.499 48.5c1.33301 14.667 1.33301 30 0 46c-1.33301 19.333 -8.16602 35.5 -20.499 48.5s-28.166 19.5 -47.499 19.5zM600.999 258.995c-19.333 0 -35 -6.5 -47 -19.5s-18.667 -29.167 -20 -48.5
c-2 -15.333 -2 -31 0 -47c1.33301 -19.333 8 -35.333 20 -48s27.667 -19 47 -19s35.166 6.5 47.499 19.5s19.166 29.167 20.499 48.5c2 14 2 29.333 0 46c-1.33301 19.333 -8.16602 35.5 -20.499 48.5s-28.166 19.5 -47.499 19.5z" />
    <glyph glyph-name="ampersand" unicode="&#x26;" horiz-adv-x="704" 
d="M489 244c1.33301 25.333 7.66406 45.1709 18.9971 59.5039s29.666 21.5 54.999 21.5h75c15.333 0 28.333 -5 39 -15s16 -22.667 16 -38c0 -14.667 -5.16699 -27.167 -15.5 -37.5s-23.166 -15.5 -38.499 -15.5h-57c-4 -36 -13.5 -68.167 -28.5 -96.5
s-34.333 -52.333 -58 -72s-51.167 -34.5 -82.5 -44.5s-65 -15 -101 -15c-43.333 0 -81.666 5.16699 -114.999 15.5s-61.166 24.5 -83.499 42.5s-39.166 39.333 -50.499 64s-17 51.334 -17 80.001c0 40 10 74.167 30 102.5s52.333 52.166 97 71.499
c-24.667 18.667 -45.167 40.5 -61.5 65.5s-24.5 54.833 -24.5 89.5c0 26.667 5.33301 51.167 16 73.5s25.834 41.666 45.501 57.999s43 29 70 38s57.167 13.5 90.5 13.5c34.667 0 66 -4.66699 94 -14s51.667 -22 71 -38s34.166 -35 44.499 -57s15.5 -45.667 15.5 -71
c0 -28 -4.5 -52.667 -13.5 -74s-22.833 -40 -41.5 -56s-42.334 -30.167 -71.001 -42.5s-63 -23.833 -103 -34.5c-29.333 -7.33301 -53.833 -14.833 -73.5 -22.5s-35.167 -16.334 -46.5 -26.001s-19.333 -20.334 -24 -32.001s-7 -24.834 -7 -39.501
c0 -31.333 13.333 -56.833 40 -76.5s65.334 -29.5 116.001 -29.5c54.667 0 97.667 14.333 129 43s48 65 50 109zM194.998 513.005c0 -13.333 2.50098 -25.3359 7.50098 -36.0029s11.333 -20.167 19 -28.5s16.334 -15.666 26.001 -21.999s19.167 -11.833 28.5 -16.5
c29.333 6 53.666 12 72.999 18s34.666 13 45.999 21s19.333 17.333 24 28s7 23.667 7 39c0 10.667 -2.16699 21.334 -6.5 32.001s-11.166 20.334 -20.499 29.001s-21.333 15.5 -36 20.5s-32.334 7.5 -53.001 7.5c-39.333 0 -68.333 -9 -87 -27s-28 -39.667 -28 -65z" />
    <glyph glyph-name="quotesingle" unicode="'" horiz-adv-x="216" 
d="M157 511c0 -13.333 -4.66699 -24.833 -14 -34.5s-21 -14.5 -35 -14.5s-25.667 4.83301 -35 14.5s-14 21.167 -14 34.5v144c0 13.333 4.66699 24.666 14 33.999s21 14 35 14s25.667 -4.66699 35 -14s14 -20.666 14 -33.999v-144z" />
    <glyph glyph-name="parenleft" unicode="(" horiz-adv-x="356" 
d="M172 309c0 -78.667 14.167 -151.33 42.5 -217.997s68.5 -125 120.5 -175c9.33301 -9.33301 14.833 -20 16.5 -32s-1.16602 -23.667 -8.49902 -35s-18.666 -18.833 -33.999 -22.5s-29.333 0.5 -42 12.5c-34 32 -63.5 66.5 -88.5 103.5s-45.667 75.667 -62 116
s-28.666 81.666 -36.999 123.999s-12.5 84.5 -12.5 126.5s4.16699 84.167 12.5 126.5s20.666 83.666 36.999 123.999s37 79 62 116s54.5 71.5 88.5 103.5c12.667 12 26.667 16.167 42 12.5s26.666 -11.167 33.999 -22.5s10.166 -23 8.49902 -35s-7.16699 -22.667 -16.5 -32
c-52 -50 -92.167 -108.333 -120.5 -175s-42.5 -139.334 -42.5 -218.001z" />
    <glyph glyph-name="parenright" unicode=")" horiz-adv-x="356" 
d="M184 309c0 78.667 -14.167 151.33 -42.5 217.997s-68.5 125 -120.5 175c-9.33301 9.33301 -15 20 -17 32s0.666992 23.667 8 35c8 11.333 19.5 18.833 34.5 22.5s29.167 -0.5 42.5 -12.5c34 -32 63.333 -66.5 88 -103.5s45.334 -75.667 62.001 -116
s29 -81.666 37 -123.999s12 -84.5 12 -126.5s-4 -84.167 -12 -126.5s-20.333 -83.666 -37 -123.999s-37.334 -79 -62.001 -116s-54 -71.5 -88 -103.5c-13.333 -12 -27.5 -16.167 -42.5 -12.5s-26.5 11.167 -34.5 22.5c-7.33301 11.333 -10 23 -8 35s7.66699 22.667 17 32
c52 50 92.167 108.333 120.5 175s42.5 139.334 42.5 218.001z" />
    <glyph glyph-name="asterisk" unicode="*" horiz-adv-x="402" 
d="M337 499c12.667 -5.33301 21 -13.333 25 -24s3.33301 -21.667 -2 -33c-5.33301 -10 -13.666 -16.5 -24.999 -19.5s-23 -0.5 -35 7.5l-68 47l7 -79c1.33301 -15.333 -2.16699 -26.833 -10.5 -34.5s-17.5 -11.5 -27.5 -11.5s-19.167 3.83301 -27.5 11.5
s-11.833 19.167 -10.5 34.5l7 79l-68 -47c-12 -8 -23.667 -10.5 -35 -7.5s-19.666 9.5 -24.999 19.5c-5.33301 11.333 -6 22.333 -2 33s12.333 18.667 25 24l75 34l-75 34c-12.667 5.33301 -21 13.333 -25 24s-3.33301 21.667 2 33c5.33301 10 13.666 16.5 24.999 19.5
s23 0.5 35 -7.5l68 -47l-7 79c-1.33301 15.333 2.16699 26.833 10.5 34.5s17.5 11.5 27.5 11.5s19.167 -3.83301 27.5 -11.5s11.833 -19.167 10.5 -34.5l-7 -79l68 47c12 8 23.667 10.5 35 7.5s19.666 -9.5 24.999 -19.5c5.33301 -11.333 6 -22.333 2 -33
s-12.333 -18.667 -25 -24l-75 -34z" />
    <glyph glyph-name="plus" unicode="+" horiz-adv-x="628" 
d="M264 299h-151.999c-14.667 0 -27 5 -37 15s-15 22 -15 36c0 14.667 5 26.834 15 36.501s22.333 14.5 37 14.5h152v152c0 14.667 5 27 15 37s22 15 36 15c14.667 0 26.834 -5 36.501 -15s14.5 -22.333 14.5 -37v-152h150c14.667 0 27 -4.83301 37 -14.5
s15 -21.834 15 -36.501c0 -14 -5.16699 -26 -15.5 -36s-22.5 -15 -36.5 -15h-150v-152c0 -14.667 -4.83301 -27 -14.5 -37s-21.834 -15 -36.501 -15s-26.834 5.16699 -36.501 15.5s-14.5 22.5 -14.5 36.5v152z" />
    <glyph glyph-name="comma" unicode="," horiz-adv-x="223" 
d="M162 58c0 -23.333 -1.66895 -45 -5.00195 -65s-10.666 -40.333 -21.999 -61c-5.33301 -9.33301 -12.5 -17.166 -21.5 -23.499s-19.167 -9.5 -30.5 -9.5c-14 0 -25 4.66699 -33 14s-12 19.333 -12 30c0 7.33301 1.16699 13.666 3.5 18.999s5 11 8 17s5.66699 13.5 8 22.5
s3.5 20.5 3.5 34.5v57c0 13.333 4.83301 24.833 14.5 34.5s21.834 14.5 36.501 14.5c13.333 0 25 -4.83301 35 -14.5s15 -21.167 15 -34.5v-35z" />
    <glyph glyph-name="hyphen" unicode="-" horiz-adv-x="333" 
d="M289 287c0 -14.667 -5.16699 -27.167 -15.5 -37.5s-23.166 -15.5 -38.499 -15.5h-137c-15.333 0 -28.166 5 -38.499 15s-15.5 22.667 -15.5 38c0 14.667 5.16699 27.167 15.5 37.5s23.166 15.5 38.499 15.5h137c15.333 0 28.166 -5 38.499 -15s15.5 -22.667 15.5 -38z
" />
    <glyph glyph-name="period" unicode="." horiz-adv-x="271" 
d="M111 147c14 0 25.999 -5 35.999 -15s15 -22.333 15 -37v-53c0 -14.667 -4.66699 -26.834 -14 -36.501s-21.666 -14.5 -36.999 -14.5c-13.333 0 -25 4.83301 -35 14.5s-15 21.834 -15 36.501v53c0 14.667 4.66699 27 14 37s21.333 15 36 15z" />
    <glyph glyph-name="slash" unicode="/" horiz-adv-x="366" 
d="M334 729c13.333 -5.33301 22.833 -14.665 28.5 -27.998s5.5 -27 -0.5 -41l-261 -659c-6 -14 -15.667 -23.833 -29 -29.5s-26.666 -5.83398 -39.999 -0.500977s-22.666 14.666 -27.999 27.999s-5.33301 27 0 41l262 658c5.33301 14 14.666 24 27.999 30
s26.666 6.33301 39.999 1z" />
    <glyph glyph-name="zero" unicode="0" horiz-adv-x="705" 
d="M352 -8c-38.667 0 -73.998 6.5 -105.998 19.5s-59.833 31.167 -83.5 54.5s-42.334 51.5 -56.001 84.5s-21.834 69.167 -24.501 108.5c-1.33301 13.333 -2.16602 28.166 -2.49902 44.499s-0.5 32.833 -0.5 49.5s0.166992 33 0.5 49s1.16602 30.667 2.49902 44
c2.66699 40 11 76.167 25 108.5s32.667 60.166 56 83.499s51 41.333 83 54s67.333 19 106 19s74.167 -6.5 106.5 -19.5s60.166 -31.167 83.499 -54.5s42 -51.166 56 -83.499s22.333 -68.166 25 -107.499c0.666992 -13.333 1.33398 -28 2.00098 -44s1 -32.5 1 -49.5
s-0.333008 -33.5 -1 -49.5s-1.33398 -30.667 -2.00098 -44c-2.66699 -39.333 -11 -75.5 -25 -108.5s-32.667 -61.167 -56 -84.5s-51.166 -41.5 -83.499 -54.5s-67.833 -19.5 -106.5 -19.5zM352.002 94c48 0 86.333 15.667 115 47s45 74.333 49 129
c0.666992 12 1.16699 25.167 1.5 39.5s0.5 29 0.5 44s-0.166992 29.667 -0.5 44s-0.833008 27.166 -1.5 38.499c-3.33301 54.667 -19.5 97.167 -48.5 127.5s-67.5 45.5 -115.5 45.5s-86.333 -15.167 -115 -45.5s-44.667 -72.833 -48 -127.5
c-0.666992 -11.333 -1.16699 -24.166 -1.5 -38.499s-0.5 -29 -0.5 -44s0.166992 -29.667 0.5 -44s0.833008 -27.5 1.5 -39.5c4 -54.667 20.167 -97.667 48.5 -129s66.5 -47 114.5 -47z" />
    <glyph glyph-name="one" unicode="1" horiz-adv-x="483" 
d="M293 700c16.667 0 29.668 -5.50195 39.001 -16.502s14 -23.167 14 -36.5v-597c0 -15.333 -5 -28.166 -15 -38.499s-22.667 -15.5 -38 -15.5c-14.667 0 -27.167 5.33301 -37.5 16s-15.5 23.334 -15.5 38.001v507l-114 -64c-13.333 -7.33301 -27 -9.16602 -41 -5.49902
s-24.667 12.167 -32 25.5c-7.33301 12.667 -8.83301 26.167 -4.5 40.5s13.166 25.166 26.499 32.499l189 106c9.33301 5.33301 19 8 29 8z" />
    <glyph glyph-name="two" unicode="2" horiz-adv-x="597" 
d="M55 70c0 44.667 13.002 85.501 39.002 122.501s65.667 74.167 119 111.5l95 67.5c25.333 18.333 45.5 34.666 60.5 48.999s25.5 28.166 31.5 41.499s9 28.666 9 45.999c0 11.333 -2 22.833 -6 34.5s-10.833 22.334 -20.5 32.001s-22.334 17.5 -38.001 23.5
s-34.834 9 -57.501 9c-32 0 -58.833 -6.16699 -80.5 -18.5s-39.5 -27.166 -53.5 -44.499c-4 -4.66699 -8.16699 -9 -12.5 -13s-9.83301 -7 -16.5 -9c-14 -4.66699 -27.667 -3.66699 -41 3s-22 16.667 -26 30c-5.33301 16.667 -3.33301 32.334 6 47.001
c9.33301 12.667 21 25.334 35 38.001s30.333 24.167 49 34.5s39.334 18.666 62.001 24.999s47.667 9.5 75 9.5c38 0 71.667 -5.33301 101 -16s53.666 -25 72.999 -43s34 -39 44 -63s15 -49.667 15 -77c0 -24 -3.16699 -45.833 -9.5 -65.5s-17.333 -39.334 -33 -59.001
s-36.5 -40.334 -62.5 -62.001s-59 -46.5 -99 -74.5l-53.5 -38.5c-17 -12.333 -32 -24.333 -45 -36s-23.667 -23.167 -32 -34.5s-12.833 -22.666 -13.5 -33.999h310c15.333 0 28.166 -5.16699 38.499 -15.5s15.5 -22.833 15.5 -37.5c0 -15.333 -5.16699 -28 -15.5 -38
s-23.166 -15 -38.499 -15h-353c-20.667 0 -37.667 6.16699 -51 18.5s-20 29.5 -20 51.5z" />
    <glyph glyph-name="three" unicode="3" horiz-adv-x="599" 
d="M326 442c28.667 0 54.834 -4.66992 78.501 -14.0029s44 -22.166 61 -38.499s30.333 -35.833 40 -58.5s14.5 -47.334 14.5 -74.001c0 -44 -10.5 -82.667 -31.5 -116s-50.5 -61.166 -88.5 -83.499s-83.167 -38.666 -135.5 -48.999s-109.5 -14.166 -171.5 -11.499
c-15.333 0.666992 -27.833 5.66699 -37.5 15s-14.834 21 -15.501 35c-1.33301 15.333 3.66699 28.666 15 39.999s26.333 16.333 45 15c44.667 -3.33301 86.167 -2.33301 124.5 3s71.5 14.5 99.5 27.5s50 29.833 66 50.5s24 44.667 24 72c0 32 -10.5 57 -31.5 75
s-49.167 27 -84.5 27c-18 0 -33.333 -1.83301 -46 -5.5s-23.667 -5.5 -33 -5.5c-13.333 0 -25 4.5 -35 13.5s-15 20.833 -15 35.5s6 27.667 18 39l155 160h-249c-15.333 0 -28.166 5.16699 -38.499 15.5s-15.5 22.833 -15.5 37.5c0 15.333 5.16699 28 15.5 38
s23.166 15 38.499 15h316c20 0 37.333 -6 52 -18s22 -28 22 -48c0 -7.33301 -1.66699 -15.666 -5 -24.999s-8 -17.333 -14 -24z" />
    <glyph glyph-name="four" unicode="4" horiz-adv-x="669" 
d="M505 164l0.000976562 -110.999c0 -14.667 -4.83301 -27.334 -14.5 -38.001s-21.834 -16 -36.501 -16c-15.333 0 -27.833 5.16699 -37.5 15.5s-14.5 23.166 -14.5 38.499v111h-267c-13.333 0 -25.166 2.16699 -35.499 6.5s-19 10 -26 17s-12.167 14.833 -15.5 23.5
s-5 17 -5 25c0 14 2.33301 25.833 7 35.5s11.667 20.5 21 32.5l254 332c14 18.667 28.167 34 42.5 46s31.166 18 50.499 18c16 0 29 -3 39 -9s17.833 -13.5 23.5 -22.5s9.5 -18.667 11.5 -29s3 -19.833 3 -28.5v-344h66c14 0 26.167 -4.66699 36.5 -14
s15.5 -21.666 15.5 -36.999c0 -13.333 -5.33301 -25.333 -16 -36s-22.667 -16 -36 -16h-66zM402.001 267.001v296l-228 -296h228z" />
    <glyph glyph-name="five" unicode="5" horiz-adv-x="614" 
d="M555 273c0 -45.333 -10.498 -85.3311 -31.498 -119.998s-50.333 -63.667 -88 -87s-82.834 -40.833 -135.501 -52.5s-111 -17.5 -175 -17.5c-15.333 0 -28.333 4.66699 -39 14s-16.334 21.333 -17.001 36c-0.666992 17.333 4.5 30.666 15.5 39.999s24.167 14 39.5 14
c48.667 0 93 3.33301 133 10s74.167 16.834 102.5 30.501s50.333 31.167 66 52.5s23.5 46.666 23.5 75.999c0 30.667 -11.5 55.334 -34.5 74.001s-52.833 28 -89.5 28c-34.667 0 -64.667 -4.83301 -90 -14.5s-45.333 -17.834 -60 -24.501
c-14 -5.33301 -26.333 -7.5 -37 -6.5s-19.667 4.16699 -27 9.5s-12.833 12.166 -16.5 20.499s-5.5 17.5 -5.5 27.5v239c0 28.667 8.16699 48.834 24.5 60.501s34.833 17.5 55.5 17.5h293c15.333 0 28 -4.83301 38 -14.5s15 -22.167 15 -37.5
c0 -14.667 -5.33301 -27.334 -16 -38.001s-23 -16 -37 -16h-271v-156c19.333 8.66699 40.5 16.5 63.5 23.5s51.167 10.5 84.5 10.5c34 0 64.333 -5 91 -15s49.167 -24 67.5 -42s32.5 -39.167 42.5 -63.5s15 -50.5 15 -78.5z" />
    <glyph glyph-name="six" unicode="6" horiz-adv-x="675" 
d="M506 602c-9.33301 0 -21.4971 1.49707 -36.4971 4.49707s-36.5 4.5 -64.5 4.5c-26 0 -51 -4.33301 -75 -13s-45.333 -21.334 -64 -38.001s-34.5 -37.167 -47.5 -61.5s-21.5 -52.166 -25.5 -83.499c21.333 10 46.333 19 75 27s61 12 97 12c38 0 71.833 -5.33301 101.5 -16
s55 -25.667 76 -45s37 -42.666 48 -69.999s16.5 -57.333 16.5 -90s-5.5 -63.667 -16.5 -93s-27.333 -55.166 -49 -77.499s-48.667 -40 -81 -53s-70.166 -19.5 -113.499 -19.5c-53.333 0 -97.833 9.66699 -133.5 29s-63.834 45.833 -84.501 79.5s-34.667 73.334 -42 119.001
s-9.33301 94.834 -6 147.501c6 111.333 37.333 197.166 94 257.499s136 90.5 238 90.5c21.333 0 41.166 -1.16699 59.499 -3.5s32.166 -4.5 41.499 -6.5c13.333 -3.33301 24.166 -9.33301 32.499 -18s12.5 -19.667 12.5 -33c0 -14.667 -4.5 -26.667 -13.5 -36
s-22.167 -14 -39.5 -14zM350.003 354.997c-35.333 0 -66.502 -4.66504 -93.502 -13.998s-50.5 -19.333 -70.5 -30c-3.33301 -72.667 9.33398 -127.334 38.001 -164.001s70.667 -55 126 -55c26 0 48.333 3.66699 67 11s34.167 17.166 46.5 29.499s21.5 26.833 27.5 43.5
s9 34.667 9 54c0 41.333 -13.167 72.5 -39.5 93.5s-63.166 31.5 -110.499 31.5z" />
    <glyph glyph-name="seven" unicode="7" horiz-adv-x="535" 
d="M444 700c21.333 0 38.667 -6 52 -18s20 -28.333 20 -49c0 -8 -1.33301 -15.5 -4 -22.5s-6 -14.167 -10 -21.5l-105.5 -175.5c-29.667 -50.333 -55.167 -96.666 -76.5 -138.999s-39.166 -82.333 -53.499 -120s-26.5 -76.834 -36.5 -117.501c-4 -14 -11 -24.333 -21 -31
s-20.333 -10 -31 -10s-19.334 2.33301 -26.001 7c-9.33301 5.33301 -15.833 11.833 -19.5 19.5s-5.5 16.167 -5.5 25.5c0 7.33301 1 14.666 3 21.999c10.667 38 23.5 75.833 38.5 113.5s33 77.334 54 119.001s45 86.5 72 134.5l93.5 159h-304
c-15.333 0 -28.166 5 -38.499 15s-15.5 22.333 -15.5 37c0 15.333 5.16699 27.833 15.5 37.5s23.166 14.5 38.499 14.5h360z" />
    <glyph glyph-name="eight" unicode="8" horiz-adv-x="688" 
d="M344 612c-52 0 -89.668 -8.50098 -113.001 -25.501s-35 -39.833 -35 -68.5c0 -32.667 13.167 -58 39.5 -76s62.5 -27 108.5 -27c46.667 0 82.834 9.33301 108.501 28s38.5 44 38.5 76c0 28.667 -11.5 51.334 -34.5 68.001s-60.5 25 -112.5 25zM340.999 312.999
c-54 0 -94.166 -10.333 -120.499 -31s-39.5 -48 -39.5 -82c0 -32 12.667 -58 38 -78s66.666 -30 123.999 -30c58.667 0 101 10.5 127 31.5s39 46.5 39 76.5c0 34 -14.5 61.333 -43.5 82s-70.5 31 -124.5 31zM344 -10.001c-44.667 0 -83.832 5.16895 -117.499 15.502
s-61.834 24.5 -84.501 42.5s-39.667 39.5 -51 64.5s-17 52.167 -17 81.5c0 45.333 10.833 82.166 32.5 110.499s50.167 48.833 85.5 61.5c-30 10.667 -54.5 28.667 -73.5 54s-28.5 59 -28.5 101c0 60.667 22.167 107.834 66.5 141.501s106.5 50.5 186.5 50.5
c80.667 0 143.167 -16.833 187.5 -50.5s66.5 -79.834 66.5 -138.501c0 -39.333 -9.16699 -72 -27.5 -98s-42.5 -45.667 -72.5 -59c35.333 -12.667 63.833 -33.334 85.5 -62.001s32.5 -65.667 32.5 -111c0 -29.333 -5.66699 -56.5 -17 -81.5s-28.333 -46.5 -51 -64.5
s-51 -32.167 -85 -42.5s-73.333 -15.5 -118 -15.5z" />
    <glyph glyph-name="nine" unicode="9" horiz-adv-x="671" 
d="M165 101c34.667 0 69 1.49805 103 4.49805s65 10.5 93 22.5s52.167 29.667 72.5 53s34.5 55.666 42.5 96.999c-23.333 -10 -49.166 -18.5 -77.499 -25.5s-56.833 -10.5 -85.5 -10.5c-38.667 0 -73.167 5.5 -103.5 16.5s-55.833 26.5 -76.5 46.5s-36.5 43.833 -47.5 71.5
s-16.5 58.5 -16.5 92.5s5.5 65.667 16.5 95s27.333 54.833 49 76.5s48.667 38.834 81 51.501s69.5 19 111.5 19c51.333 0 94.5 -8.66699 129.5 -26s62.833 -41.666 83.5 -72.999s34.834 -68.833 42.501 -112.5s10.5 -91.5 8.5 -143.5
c-2.66699 -66.667 -13.334 -123 -32.001 -169s-45.5 -83.167 -80.5 -111.5s-78.333 -48.833 -130 -61.5s-111.834 -19 -180.501 -19c-16 0 -29.5 4.5 -40.5 13.5s-16.5 21.833 -16.5 38.5c0 12.667 4.5 24.834 13.5 36.501s22.5 17.5 40.5 17.5zM320 341.998
c18 0 34.499 1.16602 49.499 3.49902s29 5.5 42 9.5s25.5 8.5 37.5 13.5s24 10.5 36 16.5c2 74 -8.66699 129.5 -32 166.5s-65.666 55.5 -126.999 55.5c-52 0 -90.167 -12.667 -114.5 -38s-36.5 -58 -36.5 -98c0 -41.333 12.5 -73.166 37.5 -95.499
s60.833 -33.5 107.5 -33.5z" />
    <glyph glyph-name="colon" unicode=":" horiz-adv-x="270" 
d="M135 502c14 0 25.999 -5 35.999 -15s15 -22.333 15 -37v-53c0 -14.667 -4.66699 -26.834 -14 -36.501s-21.666 -14.5 -36.999 -14.5c-13.333 0 -25 4.83301 -35 14.5s-15 21.834 -15 36.501v53c0 14.667 4.66699 27 14 37s21.333 15 36 15zM134.999 146
c14 0 25.999 -5 35.999 -15s15 -22.333 15 -37v-53c0 -14.667 -4.66699 -26.834 -14 -36.501s-21.666 -14.5 -36.999 -14.5c-13.333 0 -25 4.83301 -35 14.5s-15 21.834 -15 36.501v53c0 14.667 4.66699 27 14 37s21.333 15 36 15z" />
    <glyph glyph-name="semicolon" unicode=";" horiz-adv-x="270" 
d="M199 44c0 -13.333 -1.33301 -28.332 -4 -44.999s-7 -32.5 -13 -47.5s-14 -27.5 -24 -37.5s-22.333 -15 -37 -15c-11.333 0 -20.833 3.66699 -28.5 11s-12.5 15.666 -14.5 24.999c-0.666992 3.33301 -0.833984 6.33301 -0.500977 9s0.5 5.66699 0.5 9
c0.666992 5.33301 2.33398 10.333 5.00098 15s5.16699 10 7.5 16s4.5 13.167 6.5 21.5s3 18.5 3 30.5v57c0 13.333 4.66699 24.833 14 34.5s21.333 14.5 36 14.5c13.333 0 24.833 -4.83301 34.5 -14.5s14.5 -21.167 14.5 -34.5v-49zM150 502.001c14 0 25.999 -5 35.999 -15
s15 -22.333 15 -37v-53c0 -14.667 -4.66699 -26.834 -14 -36.501s-21.666 -14.5 -36.999 -14.5c-13.333 0 -25 4.83301 -35 14.5s-15 21.834 -15 36.501v53c0 14.667 4.66699 27 14 37s21.333 15 36 15z" />
    <glyph glyph-name="less" unicode="&#x3c;" horiz-adv-x="628" 
d="M490 641c9.33301 -11.333 13.333 -24.0039 12 -38.0039s-7.66602 -25.333 -18.999 -34l-255 -205c-2 -1.33301 -4 -3.16602 -6 -5.49902s-3 -5.16602 -3 -8.49902s1 -6.16602 3 -8.49902s4 -4.16602 6 -5.49902l255 -205c11.333 -8.66699 17.666 -20 18.999 -34
s-2.66699 -26.667 -12 -38s-20.833 -17.5 -34.5 -18.5s-26.167 3.16699 -37.5 12.5l-267 216c-16 13.333 -27.667 26.333 -35 39s-11 26.667 -11 42s3.66699 29.333 11 42s19 25.667 35 39l267 216c11.333 9.33301 23.833 13.5 37.5 12.5s25.167 -7.16699 34.5 -18.5z" />
    <glyph glyph-name="equal" unicode="=" horiz-adv-x="628" 
d="M119 397c-14.667 0 -27 5 -37 15s-15 22 -15 36c0 14.667 5 26.834 15 36.501s22.333 14.5 37 14.5h390c14.667 0 27 -4.83301 37 -14.5s15 -21.834 15 -36.501c0 -14 -5.16699 -26 -15.5 -36s-22.5 -15 -36.5 -15h-390zM119 202c-14.667 0 -27 5.16699 -37 15.5
s-15 22.166 -15 35.499c0 15.333 5 27.666 15 36.999s22.333 14 37 14h390c14.667 0 27 -4.66699 37 -14s15 -21.666 15 -36.999c0 -13.333 -5.16699 -25.166 -15.5 -35.499s-22.5 -15.5 -36.5 -15.5h-390z" />
    <glyph glyph-name="greater" unicode="&#x3e;" horiz-adv-x="628" 
d="M138 641c9.33301 11.333 20.833 17.5039 34.5 18.5039s26.167 -3.16699 37.5 -12.5l267 -216c16 -13.333 27.667 -26.333 35 -39s11 -26.667 11 -42s-3.66699 -29.333 -11 -42s-19 -25.667 -35 -39l-267 -216c-11.333 -9.33301 -23.833 -13.5 -37.5 -12.5
s-25.167 7.16699 -34.5 18.5s-13.333 24 -12 38s7.66602 25.333 18.999 34l255 205c2 1.33301 4 3.16602 6 5.49902s3 5.16602 3 8.49902s-1 6.16602 -3 8.49902s-4 4.16602 -6 5.49902l-255 205c-11.333 8.66699 -17.666 20 -18.999 34s2.66699 26.667 12 38z" />
    <glyph glyph-name="question" unicode="?" horiz-adv-x="555" 
d="M146 544c-4.66699 -4.66699 -10.5049 -9.33301 -17.5049 -14s-15.5 -7 -25.5 -7c-15.333 0 -28 5.5 -38 16.5s-15 23.5 -15 37.5c0 10.667 5 22.667 15 36c25.333 32 56.5 56.667 93.5 74s77.5 26 121.5 26c32 0 61.167 -5 87.5 -15s48.833 -23.667 67.5 -41
s33.167 -38 43.5 -62s15.5 -50.333 15.5 -79c0 -32 -4.5 -60.333 -13.5 -85s-22.333 -47 -40 -67s-39.667 -38.5 -66 -55.5s-57.166 -33.833 -92.499 -50.5c-12.667 -5.33301 -24.667 -8 -36 -8c-12.667 0 -24 4.5 -34 13.5s-15 20.167 -15 33.5c0 12.667 3.33301 23 10 31
s15.334 14.667 26.001 20c27.333 12 50.833 23.5 70.5 34.5s35.834 22.833 48.501 35.5s22 26.167 28 40.5s9 31.166 9 50.499c0 28.667 -9.5 52.667 -28.5 72s-45.833 29 -80.5 29c-29.333 0 -54.166 -5.16699 -74.499 -15.5s-40.166 -27.166 -59.499 -50.499z
M199.995 91.001c0 13.333 4.83301 24.666 14.5 33.999s21.5 14 35.5 14s26 -4.66699 36 -14s15 -20.666 15 -33.999v-50c0 -13.333 -5 -24.833 -15 -34.5s-22 -14.5 -36 -14.5s-25.833 4.83301 -35.5 14.5s-14.5 21.167 -14.5 34.5v50z" />
    <glyph glyph-name="at" unicode="@" horiz-adv-x="876" 
d="M468 153c13.333 3.33301 24.8242 1.66797 34.4912 -4.99902s15.834 -15.334 18.501 -26.001c3.33301 -12 1.83301 -23 -4.5 -33s-15.166 -16.667 -26.499 -20c-9.33301 -3.33301 -19.166 -5.66602 -29.499 -6.99902s-20.166 -2 -29.499 -2
c-25.333 0 -48.833 3.83301 -70.5 11.5s-40.334 19 -56.001 34s-28 33.167 -37 54.5s-13.5 45.666 -13.5 72.999v77c0 25.333 4.83301 49 14.5 71s22.667 41 39 57s35.833 28.5 58.5 37.5s47 13.5 73 13.5s50.5 -4.5 73.5 -13.5s43 -21.5 60 -37.5s30.5 -35 40.5 -57
s15 -46 15 -72v-114c0 -13.333 4.33301 -24.666 13 -33.999s19.667 -14 33 -14c12.667 0 23.334 4.66699 32.001 14s13 20.666 13 33.999v149c0 42 -7.66699 79.833 -23 113.5s-35.833 62.334 -61.5 86.001s-55.5 41.834 -89.5 54.501s-69.333 19 -106 19
c-38 0 -73.167 -6.33301 -105.5 -19s-60.666 -30.5 -84.999 -53.5s-44 -50.167 -59 -81.5s-24.167 -65.333 -27.5 -102c-1.33301 -15.333 -2.16602 -31.333 -2.49902 -48s-0.5 -33.167 -0.5 -49.5s0.333008 -32.166 1 -47.499s1.66699 -29 3 -41
c3.33301 -40 12.666 -75 27.999 -105s35 -55 59 -75s51.167 -35 81.5 -45s62.166 -15 95.499 -15c20.667 0 40.834 2.16699 60.501 6.5s38.834 10.166 57.501 17.499c9.33301 3.33301 20 4 32 2s21.667 -8.33301 29 -19c6.66699 -10 8.66699 -21.5 6 -34.5
s-10 -23.167 -22 -30.5c-18 -10.667 -40.667 -19.334 -68 -26.001s-58.333 -10 -93 -10c-43.333 0 -86 6.66699 -128 20s-79.833 33.5 -113.5 60.5s-61.5 61 -83.5 102s-35 89.167 -39 144.5c-0.666992 12.667 -1.33398 28 -2.00098 46s-1 36.167 -1 54.5
s0.166992 36.333 0.5 54s1.16602 33.167 2.49902 46.5c2.66699 50 14.334 95.833 35.001 137.5s47.834 77.5 81.501 107.5s72.5 53.333 116.5 70s91 25 141 25c50.667 0 98.667 -8.5 144 -25.5s85.166 -41 119.499 -72s61.5 -68.333 81.5 -112s30 -92.5 30 -146.5v-154
c0 -20.667 -3.66699 -39.5 -11 -56.5s-17.333 -31.5 -30 -43.5s-27 -21.333 -43 -28s-33 -10 -51 -10c-21.333 0 -40.666 3.83301 -57.999 11.5s-32.166 17.667 -44.499 30s-22 26.833 -29 43.5s-10.5 34 -10.5 52v103c0 27.333 -9 50.5 -27 69.5s-41 28.5 -69 28.5
s-51 -9.5 -69 -28.5s-27 -42.167 -27 -69.5v-65c0 -19.333 3.83301 -35.333 11.5 -48s17.334 -22.334 29.001 -29.001s24.834 -10.5 39.501 -11.5s29 0.833008 43 5.5z" />
    <glyph glyph-name="A" unicode="A" horiz-adv-x="683" 
d="M660 54c0 -13.333 -4.66797 -25.999 -14.001 -37.999s-22.333 -18 -39 -18c-11.333 0 -21.5 3 -30.5 9s-15.5 14.667 -19.5 26l-66 187h-300l-66 -188c-4 -10.667 -10.667 -19 -20 -25s-19.333 -9 -30 -9c-16.667 0 -29.5 5.66699 -38.5 17s-13.5 23.666 -13.5 36.999
c0 7.33301 1 14 3 20l200 556c10 29.333 25.333 51 46 65s44 21 70 21c25.333 0 48.333 -7 69 -21s36.334 -35.667 47.001 -65l199 -556c2 -6 3 -12 3 -18zM224.999 318.001h232l-95 271c-3.33301 10 -10 15 -20 15c-10.667 0 -17.667 -5 -21 -15z" />
    <glyph glyph-name="B" unicode="B" horiz-adv-x="670" 
d="M198 102l193 0.000976562c40.667 0 70.667 9.16699 90 27.5s29 44.833 29 79.5c0 33.333 -10.167 59.166 -30.5 77.499s-47.5 27.5 -81.5 27.5h-200v-212zM384 409.001c37.333 0 64.666 8.5 81.999 25.5s26 40.833 26 71.5c0 32 -9.16699 56 -27.5 72
s-45.166 24 -80.499 24h-186v-193h186zM619 202.001c0 -35.333 -5.5 -65.833 -16.5 -91.5s-26.333 -46.667 -46 -63s-42.5 -28.333 -68.5 -36s-54 -11.5 -84 -11.5h-230c-27.333 0 -48 8 -62 24s-21 35.333 -21 58v539c0 22.667 7 42 21 58s34.667 24 62 24h223
c32.667 0 61.667 -5 87 -15s46.5 -23.333 63.5 -40s29.833 -36 38.5 -58s13 -45.333 13 -70c0 -22 -2.33301 -41.333 -7 -58s-11.167 -31.334 -19.5 -44.001s-18 -23.167 -29 -31.5s-22.833 -15.166 -35.5 -20.499v-1c34 -10 61 -29.167 81 -57.5s30 -63.5 30 -105.5z" />
    <glyph glyph-name="C" unicode="C" horiz-adv-x="666" 
d="M355 92c36.667 0 69.3311 9.50195 97.998 28.502s50.334 44.5 65.001 76.5c5.33301 9.33301 11.5 17 18.5 23s17.167 9 30.5 9c12 0 23.667 -4.66699 35 -14s17 -21.333 17 -36c0 -4.66699 -0.333008 -9 -1 -13s-2.33398 -8.66699 -5.00098 -14
c-10 -25.333 -23.833 -48 -41.5 -68s-37.834 -37 -60.501 -51s-47.167 -24.833 -73.5 -32.5s-53.5 -11.5 -81.5 -11.5c-41.333 0 -79.166 7.16699 -113.499 21.5s-64.333 34.166 -90 59.499s-46.167 55.166 -61.5 89.499s-24.333 71.5 -27 111.5
c-5.33301 54 -5.33301 107.333 0 160c2.66699 39.333 11.667 76.166 27 110.499s35.833 64.166 61.5 89.499s55.5 45.333 89.5 60s71.667 22 113 22c28 0 55.333 -3.83301 82 -11.5s51.334 -18.5 74.001 -32.5s42.834 -31 60.501 -51s31.5 -42.667 41.5 -68
c2.66699 -5.33301 4.33398 -10 5.00098 -14s1 -8.33301 1 -13c0 -14.667 -5.66699 -26.667 -17 -36s-23 -14 -35 -14c-13.333 0 -23.666 3.33301 -30.999 10s-13.333 14 -18 22c-14.667 32.667 -36.334 58.5 -65.001 77.5s-61.334 28.5 -98.001 28.5
c-26.667 0 -50.834 -4.83301 -72.501 -14.5s-40.334 -23 -56.001 -40s-28.334 -37.167 -38.001 -60.5s-15.5 -48.333 -17.5 -75c-3.33301 -47.333 -3.33301 -94.666 0 -141.999c2 -27.333 7.83301 -52.5 17.5 -75.5s22.334 -42.667 38.001 -59
s34.334 -29.166 56.001 -38.499s45.834 -14 72.501 -14z" />
    <glyph glyph-name="D" unicode="D" horiz-adv-x="718" 
d="M548 303c1.33301 15.333 2.16699 31.501 2.5 48.501s-0.166992 32.167 -1.5 45.5c-3.33301 61.333 -21.833 110 -55.5 146s-86.5 54 -158.5 54h-136v-491h136c35.333 0 66 4.66699 92 14s47.667 22.666 65 39.999s30.5 38 39.5 62s14.5 51 16.5 81zM173.001 0.000976562
c-26.667 0 -46.999 7.83301 -60.999 23.5s-21 35.167 -21 58.5v540c0 23.333 6.83301 42.666 20.5 57.999s34.167 23 61.5 23h161c52 0 97.5 -7.33301 136.5 -22s71.833 -35 98.5 -61s47 -57.167 61 -93.5s22.333 -75.833 25 -118.5
c1.33301 -18 2.16602 -36.5 2.49902 -55.5s-0.166992 -36.833 -1.5 -53.5c-2.66699 -43.333 -11 -83.166 -25 -119.499s-34.333 -67.833 -61 -94.5s-59.5 -47.5 -98.5 -62.5s-84.833 -22.5 -137.5 -22.5h-161z" />
    <glyph glyph-name="E" unicode="E" horiz-adv-x="627" 
d="M509 703c15.333 0 28.332 -4.83496 38.999 -14.502s16 -22.167 16 -37.5s-5.5 -28.166 -16.5 -38.499s-23.833 -15.5 -38.5 -15.5h-310v-193h302c14 0 25.833 -4.66699 35.5 -14s14.5 -21.333 14.5 -36c0 -13.333 -5 -25 -15 -35s-21.667 -15 -35 -15h-302v-198h313
c14 0 26.5 -5.16699 37.5 -15.5s16.5 -22.833 16.5 -37.5c0 -15.333 -5.16699 -28 -15.5 -38s-23.166 -15 -38.499 -15h-338c-27.333 0 -48 8 -62 24s-21 35.333 -21 58v540c0 22.667 7 41.834 21 57.501s34.667 23.5 62 23.5h335z" />
    <glyph glyph-name="F" unicode="F" horiz-adv-x="599" 
d="M91 622c0 22.667 7 41.832 21 57.499s34.667 23.5 62 23.5h331c15.333 0 28.5 -4.83301 39.5 -14.5s16.5 -22.167 16.5 -37.5s-5.5 -28.166 -16.5 -38.499s-24.167 -15.5 -39.5 -15.5h-306v-208h291c15.333 0 28 -5 38 -15s15 -22.667 15 -38
c0 -14 -5.33301 -26.167 -16 -36.5s-23 -15.5 -37 -15.5h-291v-233c0 -15.333 -5.33301 -28.333 -16 -39s-23.667 -16 -39 -16c-14.667 0 -27.167 5.5 -37.5 16.5s-15.5 23.833 -15.5 38.5v571z" />
    <glyph glyph-name="G" unicode="G" horiz-adv-x="700" 
d="M639 243c0 -35.333 -6.83301 -68.3271 -20.5 -98.9941s-32.834 -57.5 -57.501 -80.5s-54 -41.167 -88 -54.5s-71.333 -20 -112 -20c-41.333 0 -79.5 7.16699 -114.5 21.5s-65.5 34.166 -91.5 59.499s-47 55.166 -63 89.499s-25.333 71.5 -28 111.5
c-5.33301 54 -5.33301 107.333 0 160c2.66699 39.333 12 76.166 28 110.499s37 64.166 63 89.499s56.5 45.333 91.5 60s73.167 22 114.5 22c58 0 108.833 -13.333 152.5 -40s77.167 -63 100.5 -109c5.33301 -8.66699 8 -18.334 8 -29.001
c0 -13.333 -5.16699 -25.166 -15.5 -35.499s-22.5 -15.5 -36.5 -15.5c-10 0 -18.833 2.66699 -26.5 8s-13.834 11.666 -18.501 18.999c-15.333 30 -36.666 54.167 -63.999 72.5s-60.333 27.5 -99 27.5c-27.333 0 -52.166 -4.66699 -74.499 -14s-41.666 -22.5 -57.999 -39.5
s-29.5 -37 -39.5 -60s-16.333 -48.5 -19 -76.5c-4 -48.667 -4 -96.334 0 -143.001c2.66699 -27.333 9.16699 -52.333 19.5 -75s23.833 -42.334 40.5 -59.001s36.167 -29.5 58.5 -38.5s47.166 -13.5 74.499 -13.5c26 0 49.5 3.66699 70.5 11s38.833 17.333 53.5 30
s26 27.5 34 44.5s12 35.167 12 54.5v48h-120c-14.667 0 -27 5.16699 -37 15.5s-15 22.5 -15 36.5c0 14.667 5 26.834 15 36.501s22.333 14.5 37 14.5h145c26 0 45.833 -7.83301 59.5 -23.5s20.5 -34.167 20.5 -55.5v-61z" />
    <glyph glyph-name="H" unicode="H" horiz-adv-x="752" 
d="M91 651c0 15.333 5.33301 28.333 16 39s23.334 16 38.001 16c15.333 0 28.166 -5.33301 38.499 -16s15.5 -23.667 15.5 -39v-249h355v249c0 15.333 5.33301 28.333 16 39s23.334 16 38.001 16c15.333 0 28.166 -5.33301 38.499 -16s15.5 -23.667 15.5 -39v-600
c0 -15.333 -5.16699 -28.333 -15.5 -39s-23.166 -16 -38.499 -16c-14.667 0 -27.334 5.5 -38.001 16.5s-16 23.833 -16 38.5v248h-355v-248c0 -15.333 -5.16699 -28.333 -15.5 -39s-23.166 -16 -38.499 -16c-14.667 0 -27.334 5.33301 -38.001 16s-16 23.667 -16 39v600z
" />
    <glyph glyph-name="I" unicode="I" horiz-adv-x="288" 
d="M90 651c0 15.333 5.33301 28.333 16 39s23.334 16 38.001 16c15.333 0 28.166 -5.33301 38.499 -16s15.5 -23.667 15.5 -39v-600c0 -15.333 -5.16699 -28.333 -15.5 -39s-23.166 -16 -38.499 -16c-14.667 0 -27.334 5.33301 -38.001 16s-16 23.667 -16 39v600z" />
    <glyph glyph-name="J" unicode="J" horiz-adv-x="530" 
d="M38 105l-3.99902 12.499c-1.33301 4.33301 -2 8.83301 -2 13.5c0 14 4.83301 26.167 14.5 36.5s21.5 15.5 35.5 15.5c11.333 0 21 -2.83301 29 -8.5s14.667 -12.5 20 -20.5c10.667 -19.333 24.5 -34.5 41.5 -45.5s36.5 -16.5 58.5 -16.5c14 0 27.333 2.5 40 7.5
s24 12.5 34 22.5s17.833 22.667 23.5 38s8.5 33.333 8.5 54v437c0 15.333 5.33301 28.333 16 39s23.334 16 38.001 16c15.333 0 28.166 -5.33301 38.499 -16s15.5 -23.667 15.5 -39v-438c0 -33.333 -5.66699 -63.666 -17 -90.999s-26.833 -50.833 -46.5 -70.5
s-42.5 -35 -68.5 -46s-53.667 -16.5 -83 -16.5c-44 0 -82.833 10.833 -116.5 32.5s-58.834 49.5 -75.501 83.5z" />
    <glyph glyph-name="K" unicode="K" horiz-adv-x="642" 
d="M616 50c0 -14 -5.16895 -26.334 -15.502 -37.001s-22.833 -16 -37.5 -16c-14 0 -26.667 5.66699 -38 17l-265 265c-11.333 11.333 -21 18 -29 20s-18.667 3 -32 3v-251c0 -15.333 -5.16699 -28.333 -15.5 -39s-23.166 -16 -38.499 -16
c-14.667 0 -27.334 5.5 -38.001 16.5s-16 23.833 -16 38.5v600c0 15.333 5.33301 28.333 16 39s23.334 16 38.001 16c15.333 0 28.166 -5.33301 38.499 -16s15.5 -23.667 15.5 -39v-244c13.333 0 24 1 32 3s17.667 8.66699 29 20l261 258c10.667 12 24.334 18 41.001 18
c14.667 0 26.334 -5.33301 35.001 -16c10 -11.333 15 -23.666 15 -36.999s-5 -25 -15 -35l-268 -259l271 -270c10.667 -12 16 -25 16 -39z" />
    <glyph glyph-name="L" unicode="L" horiz-adv-x="561" 
d="M91 651c0 15.333 5.33105 28.333 15.998 39s23.334 16 38.001 16c15.333 0 28.166 -5.33301 38.499 -16s15.5 -23.667 15.5 -39v-545h303c14 0 26.5 -5.16699 37.5 -15.5s16.5 -22.833 16.5 -37.5c0 -15.333 -5.16699 -28 -15.5 -38s-23.166 -15 -38.499 -15h-339
c-23.333 0 -41.166 7 -53.499 21s-18.5 31 -18.5 51v579z" />
    <glyph glyph-name="M" unicode="M" horiz-adv-x="937" 
d="M876 51c0 -15.333 -4.33105 -28.666 -12.998 -39.999s-22.334 -17 -41.001 -17c-13.333 0 -25.333 4 -36 12s-16.667 18.667 -18 32l-71 550c-1.33301 6 -4.33301 9 -9 9s-7.66699 -2.66699 -9 -8l-114 -503c-6.66699 -30 -18.667 -52.167 -36 -66.5
s-37.666 -21.5 -60.999 -21.5s-43.5 7.16699 -60.5 21.5s-28.833 36.5 -35.5 66.5l-115 502c-1.33301 6 -4.33301 9 -9 9s-7.66699 -3 -9 -9l-70 -550c-1.33301 -13.333 -7.33301 -24 -18 -32s-22.667 -12 -36 -12c-18.667 0 -32.334 5.66699 -41.001 17
s-13 24.666 -13 39.999c0 5.33301 0.333008 9.33301 1 12l79 549c5.33301 34 17.333 58.667 36 74s40.667 23 66 23c26 0 48.5 -7.33301 67.5 -22s32.167 -38 39.5 -70l110 -494c0.666992 -2 1.66699 -4 3 -6s3.66602 -3 6.99902 -3s5.5 1 6.5 3s1.83301 4 2.5 6l108 494
c7.33301 32 20.333 55.333 39 70s40.667 22 66 22c26 0 48.333 -7.66699 67 -23s30.667 -40 36 -74l80 -549c0.666992 -2.66699 1 -6.66699 1 -12z" />
    <glyph glyph-name="N" unicode="N" horiz-adv-x="768" 
d="M572 136l1.99707 -0.00195312c-0.666992 20 -1.5 43 -2.5 69s-1.5 55 -1.5 87v359c0 15.333 5.33301 28.333 16 39s23.334 16 38.001 16c15.333 0 28 -5.33301 38 -16s15 -23.667 15 -39v-566c0 -24 -7.5 -44.667 -22.5 -62s-35.167 -26 -60.5 -26
c-15.333 0 -30.333 3.5 -45 10.5s-27 18.833 -37 35.5l-315 528h-3c0.666992 -21.333 1.5 -46.166 2.5 -74.499s1.5 -57.166 1.5 -86.499v-358c0 -15.333 -5.16699 -28.333 -15.5 -39s-23.166 -16 -38.499 -16c-14.667 0 -27.167 5.5 -37.5 16.5s-15.5 23.833 -15.5 38.5
v563c0 25.333 7.83301 46.666 23.5 63.999s36.167 26 61.5 26c16 0 31.333 -3.66699 46 -11s27.334 -19.666 38.001 -36.999z" />
    <glyph glyph-name="O" unicode="O" horiz-adv-x="731" 
d="M365 -11c-41.333 0 -79.666 7.16602 -114.999 21.499s-66.333 34.166 -93 59.499s-48.167 55.166 -64.5 89.499s-25.833 71.5 -28.5 111.5c-5.33301 54 -5.33301 107.333 0 160c2.66699 39.333 12.167 76.166 28.5 110.499s37.833 64.166 64.5 89.499
s57.667 45.333 93 60s73.666 22 114.999 22c40.667 0 78.834 -7.33301 114.501 -22s67 -34.667 94 -60s48.667 -55.166 65 -89.499s25.833 -71.166 28.5 -110.499c5.33301 -53.333 5.33301 -106.666 0 -159.999c-2.66699 -40 -12.167 -77.167 -28.5 -111.5
s-38 -64.166 -65 -89.499s-58.333 -45.166 -94 -59.499s-73.834 -21.5 -114.501 -21.5zM365 91.999c26.667 0 51.501 4.66699 74.501 14s43 22.333 60 39s30.833 36.5 41.5 59.5s17 48.167 19 75.5c4 47.333 4 95 0 143c-2 26.667 -8.33301 51.5 -19 74.5s-24.667 43 -42 60
s-37.333 30.167 -60 39.5s-47.334 14 -74.001 14s-51.334 -4.66699 -74.001 -14s-42.5 -22.5 -59.5 -39.5s-30.833 -37 -41.5 -60s-17 -47.833 -19 -74.5c-4 -48 -4 -95.667 0 -143c2 -27.333 8.33301 -52.5 19 -75.5s24.5 -42.833 41.5 -59.5s36.833 -29.667 59.5 -39
s47.334 -14 74.001 -14z" />
    <glyph glyph-name="P" unicode="P" horiz-adv-x="646" 
d="M360 343c48.667 0 83.667 11.833 105 35.5s32 54.167 32 91.5c0 38 -10.667 68.667 -32 92s-55 35 -101 35h-166v-254h162zM198 237l0.00292969 -186c0 -14.667 -5.33301 -27.5 -16 -38.5s-23.334 -16.5 -38.001 -16.5s-27.167 5.5 -37.5 16.5s-15.5 23.833 -15.5 38.5
v575c0 21.333 6.66699 39.5 20 54.5s32.666 22.5 57.999 22.5h201c32 0 62.167 -5.33301 90.5 -16s53.333 -26 75 -46s38.667 -44.333 51 -73s18.5 -61 18.5 -97c0 -36.667 -6 -69.5 -18 -98.5s-28.833 -53.5 -50.5 -73.5s-47.334 -35.333 -77.001 -46
s-62.167 -16 -97.5 -16h-164z" />
    <glyph glyph-name="Q" unicode="Q" horiz-adv-x="732" 
d="M365 -11c-41.333 0 -79.667 7.16797 -115 21.501s-66.333 34.166 -93 59.499s-48.167 55.166 -64.5 89.499s-25.833 71.5 -28.5 111.5c-5.33301 54 -5.33301 107.333 0 160c2.66699 39.333 12.167 76.166 28.5 110.499s37.833 64.166 64.5 89.499s57.667 45.333 93 60
s73.666 22 114.999 22c40.667 0 78.834 -7.33301 114.501 -22s67 -34.667 94 -60s48.667 -55.166 65 -89.499s25.833 -71.166 28.5 -110.499c5.33301 -53.333 5.33301 -106.666 0 -159.999c-3.33301 -39.333 -12.833 -75.833 -28.5 -109.5s-36.5 -63.167 -62.5 -88.5
l86 -106c8.66699 -10.667 12.167 -23 10.5 -37s-7.16699 -24.667 -16.5 -32c-11.333 -9.33301 -23.833 -13.666 -37.5 -12.999s-25.167 6.66699 -34.5 18l-92 113c-19.333 -8.66699 -39.5 -15.334 -60.5 -20.001s-43.167 -7 -66.5 -7zM364.999 92.001
c20 0 39.6699 2.66797 59.0029 8.00098l-81 102c-8 10 -11.5 22 -10.5 36s6.16699 24.667 15.5 32c11.333 9.33301 24.166 13.833 38.499 13.5s26.166 -6.5 35.499 -18.5l87 -109c30 33.333 47 74.666 51 123.999c4 47.333 4 95 0 143c-2 26.667 -8.33301 51.5 -19 74.5
s-24.667 43 -42 60s-37.333 30.167 -60 39.5s-47.334 14 -74.001 14s-51.334 -4.66699 -74.001 -14s-42.5 -22.5 -59.5 -39.5s-30.833 -37 -41.5 -60s-17 -47.833 -19 -74.5c-4 -48 -4 -95.667 0 -143c2 -27.333 8.33301 -52.5 19 -75.5s24.5 -42.833 41.5 -59.5
s36.833 -29.667 59.5 -39s47.334 -14 74.001 -14z" />
    <glyph glyph-name="R" unicode="R" horiz-adv-x="678" 
d="M198 261l0.00390625 -210c0 -15.333 -5.33301 -28.5 -16 -39.5s-23.334 -16.5 -38.001 -16.5s-27.167 5.5 -37.5 16.5s-15.5 24.167 -15.5 39.5v574c0 21.333 6.66699 39.666 20 54.999s32.666 23 57.999 23h204c32 0 62 -4.83301 90 -14.5s52.667 -23.667 74 -42
s38.166 -41.333 50.499 -69s18.5 -59.5 18.5 -95.5c0 -30 -4 -56.333 -12 -79s-18.833 -42 -32.5 -58s-30 -29 -49 -39s-39.5 -17.333 -61.5 -22l162 -198c9.33301 -10.667 13.666 -23.667 12.999 -39s-6 -27.666 -16 -36.999c-12 -10.667 -25.333 -15.667 -40 -15
s-27 6.66699 -37 18l-175 216c-8 10 -15.833 17.833 -23.5 23.5s-18.5 8.5 -32.5 8.5h-104zM361.004 363c50.667 0 86.166 10.667 106.499 32s30.5 50 30.5 86c0 37.333 -10.667 66.333 -32 87s-54.666 31 -99.999 31h-168v-236h163z" />
    <glyph glyph-name="S" unicode="S" horiz-adv-x="627" 
d="M336 406c44 -8 81.6709 -17.832 113.004 -29.499s57.166 -25.667 77.499 -42s35.166 -35.5 44.499 -57.5s14 -47.667 14 -77c0 -30 -5.83301 -58 -17.5 -84s-28.834 -48.333 -51.501 -67s-50.167 -33.334 -82.5 -44.001s-69.166 -16 -110.499 -16
c-56.667 0 -104.334 7.16699 -143.001 21.5s-71.667 31.5 -99 51.5c-18.667 13.333 -28 29 -28 47c0 16 5.33301 29.167 16 39.5s23.667 15.5 39 15.5c5.33301 0 11.166 -1 17.499 -3s13.5 -6 21.5 -12c22.667 -16 48 -29.5 76 -40.5s63 -16.5 105 -16.5
c46.667 0 83.167 9.5 109.5 28.5s39.5 45.5 39.5 79.5c0 14.667 -3.16699 27.167 -9.5 37.5s-16.333 19.5 -30 27.5s-31.334 15.167 -53.001 21.5s-47.5 12.5 -77.5 18.5c-81.333 16 -141.333 39.5 -180 70.5s-58 75.167 -58 132.5c0 31.333 6.16699 59.666 18.5 84.999
s29.333 46.833 51 64.5s47.667 31.334 78 41.001s63.5 14.5 99.5 14.5c44.667 0 85.334 -5.33301 122.001 -16s65.334 -24.667 86.001 -42c11.333 -10.667 17 -24.667 17 -42c0 -14 -4.66699 -25.833 -14 -35.5s-21 -14.5 -35 -14.5c-7.33301 0 -14.333 1.16699 -21 3.5
s-13 5.16602 -19 8.49902c-17.333 9.33301 -37 17.666 -59 24.999s-47.667 11 -77 11c-25.333 0 -46.833 -2.83301 -64.5 -8.5s-32 -13.167 -43 -22.5s-19 -20.166 -24 -32.499s-7.5 -25.166 -7.5 -38.499c0 -14 2.66699 -26.167 8 -36.5s14.333 -19.5 27 -27.5
s29.167 -15 49.5 -21s45.166 -12 74.499 -18z" />
    <glyph glyph-name="T" unicode="T" horiz-adv-x="609" 
d="M251 597h-181c-15.333 0 -28.333 5.16699 -39 15.5s-16 22.833 -16 37.5c0 15.333 5.33301 28 16 38s23.667 15 39 15h469c15.333 0 28.333 -5 39 -15s16 -22.667 16 -38c0 -14.667 -5.5 -27.167 -16.5 -37.5s-23.833 -15.5 -38.5 -15.5h-180v-546
c0 -15.333 -5.16699 -28.333 -15.5 -39s-23.166 -16 -38.499 -16c-14.667 0 -27.334 5.33301 -38.001 16s-16 23.667 -16 39v546z" />
    <glyph glyph-name="U" unicode="U" horiz-adv-x="748" 
d="M665 292c0 -45.333 -7.33008 -86.5 -21.9971 -123.5s-35 -68.833 -61 -95.5s-56.667 -47.334 -92 -62.001s-74 -22 -116 -22s-80.833 7.33301 -116.5 22s-66.5 35.334 -92.5 62.001s-46.333 58.5 -61 95.5s-22 78.167 -22 123.5v359c0 15.333 5.5 28.333 16.5 39
s23.833 16 38.5 16c15.333 0 28 -5.33301 38 -16s15 -23.667 15 -39v-362c0 -30.667 4.66699 -58.167 14 -82.5s22.166 -45 38.499 -62s35.666 -30 57.999 -39s46.833 -13.5 73.5 -13.5s51.167 4.5 73.5 13.5s41.666 22 57.999 39s29 37.667 38 62s13.5 51.833 13.5 82.5
v362c0 15.333 5.33301 28.333 16 39s23.334 16 38.001 16c15.333 0 28.166 -5.33301 38.499 -16s15.5 -23.667 15.5 -39v-359z" />
    <glyph glyph-name="V" unicode="V" horiz-adv-x="673" 
d="M22 650c0 14 4.66797 26.6631 14.001 37.9961s22.333 17 39 17c11.333 0 21.666 -3.16699 30.999 -9.5s16 -15.166 20 -26.499l200 -560c2.66699 -6 6.33398 -9 11.001 -9s8.33398 3 11.001 9l199 557c4.66699 12.667 11.667 22.334 21 29.001s19.666 10 30.999 10
c16.667 0 29.667 -5.66699 39 -17s14 -24 14 -38c0 -3.33301 -0.333008 -6.66602 -1 -9.99902s-1.66699 -6.66602 -3 -9.99902l-204 -554c-22 -58 -58 -87 -108 -87c-50.667 0 -86.334 29 -107.001 87l-204 555c-2 6 -3 12.333 -3 19z" />
    <glyph glyph-name="W" unicode="W" horiz-adv-x="938" 
d="M36 651c0 13.333 4.33301 25.833 13 37.5s21.667 17.5 39 17.5c12.667 0 24 -3.83301 34 -11.5s16.333 -17.167 19 -28.5l110 -568c0.666992 -1.33301 1.66699 -2 3 -2s2.33301 0.666992 3 2l129 527c6.66699 28 18.5 48.333 35.5 61s35.167 19 54.5 19
c18 0 35.667 -6.5 53 -19.5s29.333 -33.167 36 -60.5l129 -527c0.666992 -2 1.66699 -3 3 -3s2.33301 1 3 3l111 563c3.33301 14 9.83301 25 19.5 33s20.834 12 33.501 12c17.333 0 30.666 -5.66699 39.999 -17s14 -23.666 14 -36.999c0 -4 -0.666992 -8.66699 -2 -14
l-132 -572c-5.33301 -25.333 -16.333 -44.5 -33 -57.5s-34.667 -19.5 -54 -19.5s-37.5 6.5 -54.5 19.5s-28.5 31.833 -34.5 56.5l-130 523c-0.666992 1.33301 -1.5 2 -2.5 2s-1.83301 -0.666992 -2.5 -2l-130 -522c-6 -25.333 -17.5 -44.5 -34.5 -57.5
s-35.167 -19.5 -54.5 -19.5c-20 0 -38.833 6.66699 -56.5 20s-29.167 32.666 -34.5 57.999l-126 571c-0.666992 2.66699 -1 7 -1 13z" />
    <glyph glyph-name="X" unicode="X" horiz-adv-x="653" 
d="M564 705c15.333 0 28.5 -5.33594 39.5 -16.0029s16.5 -23.667 16.5 -39c0 -6 -0.833008 -12.167 -2.5 -18.5s-4.83398 -12.166 -9.50098 -17.499l-211 -265l207 -262c9.33301 -12.667 14 -25 14 -37c0 -13.333 -5.33301 -25.5 -16 -36.5s-23.667 -16.5 -39 -16.5
c-8.66699 0 -17 1.83301 -25 5.5s-14.667 8.83398 -20 15.501l-192 243l-193 -244c-5.33301 -6.66699 -12 -11.667 -20 -15s-16.333 -5 -25 -5c-16 0 -29.167 5.5 -39.5 16.5s-15.5 23.5 -15.5 37.5c0 12.667 4.33301 24.334 13 35.001l209 263l-208 266
c-9.33301 12 -13.333 25.833 -12 41.5s8.33301 28.167 21 37.5s26.334 12.833 41.001 10.5s26.667 -9.16602 36 -20.499l193 -247l195 247c5.33301 7.33301 11.833 12.666 19.5 15.999s15.5 5 23.5 5z" />
    <glyph glyph-name="Y" unicode="Y" horiz-adv-x="653" 
d="M585 706c15.333 0 28.1689 -5.66602 38.502 -16.999s15.5 -24 15.5 -38c0 -6 -1 -12 -3 -18s-5.33301 -11.667 -10 -17l-219 -267c-8 -10 -14.5 -18.5 -19.5 -25.5s-7.5 -17.5 -7.5 -31.5v-241c0 -15.333 -5.16699 -28.333 -15.5 -39s-23.166 -16 -38.499 -16
c-14.667 0 -27.334 5.5 -38.001 16.5s-16 23.833 -16 38.5v241c0 13.333 -2.66699 23.833 -8 31.5s-12 16.5 -20 26.5l-217 266c-8.66699 10.667 -13 22.667 -13 36c0 14 5.16699 26.5 15.5 37.5s23.166 16.5 38.499 16.5c17.333 0 31.666 -6.66699 42.999 -20l215 -270
l216 269c5.33301 7.33301 11.833 12.666 19.5 15.999s15.5 5 23.5 5z" />
    <glyph glyph-name="Z" unicode="Z" horiz-adv-x="589" 
d="M130 0c-27.333 0 -48.501 7.33008 -63.501 21.9971s-22.5 32.667 -22.5 54c0 20.667 8 41.334 24 62.001l341 459h-306c-15.333 0 -28.333 5.16699 -39 15.5s-16 22.833 -16 37.5c0 15.333 5.33301 28 16 38s23.667 15 39 15h350c26.667 0 47.334 -7.16699 62.001 -21.5
s22 -32.166 22 -53.499c0 -10.667 -2.16699 -21.167 -6.5 -31.5s-11.5 -22.166 -21.5 -35.499l-337 -455h329c15.333 0 28.333 -5.16699 39 -15.5s16 -22.833 16 -37.5c0 -15.333 -5.33301 -28 -16 -38s-23.667 -15 -39 -15h-371z" />
    <glyph glyph-name="bracketleft" unicode="[" horiz-adv-x="373" 
d="M366 -123c0 -15.333 -5.16797 -27.832 -15.501 -37.499s-23.166 -14.5 -38.499 -14.5h-169c-22 0 -39 6.5 -51 19.5s-18 29.5 -18 49.5v830c0 19.333 5.83301 35.666 17.5 48.999s28.834 20 51.501 20h169c15.333 0 28.166 -4.83301 38.499 -14.5
s15.5 -22.167 15.5 -37.5s-5.33301 -28 -16 -38s-23.334 -15 -38.001 -15h-132v-759h132c14.667 0 27.334 -4.83301 38.001 -14.5s16 -22.167 16 -37.5z" />
    <glyph glyph-name="backslash" unicode="\" horiz-adv-x="374" 
d="M24 761c13.333 5.33301 26.834 5.00098 40.501 -0.999023s23.167 -16 28.5 -30l287 -718c5.33301 -14.667 5.16602 -28.834 -0.500977 -42.501s-15.5 -23.167 -29.5 -28.5c-13.333 -5.33301 -26.833 -5 -40.5 1s-23.167 16.333 -28.5 31l-287 718
c-5.33301 13.333 -5 27 1 41s15.667 23.667 29 29z" />
    <glyph glyph-name="bracketright" unicode="]" horiz-adv-x="373" 
d="M7 -123c0 15.333 5.33203 27.833 15.999 37.5s23.334 14.5 38.001 14.5h132v759h-132c-14.667 0 -27.334 5 -38.001 15s-16 22.333 -16 37c0 15.333 5.16699 27.833 15.5 37.5s23.166 14.5 38.499 14.5h169c22.667 0 39.834 -6.5 51.501 -19.5s17.5 -29.5 17.5 -49.5
v-830c0 -20 -6 -36.5 -18 -49.5s-29 -19.5 -51 -19.5h-169c-15.333 0 -28.166 5 -38.499 15s-15.5 22.667 -15.5 38z" />
    <glyph glyph-name="asciicircum" unicode="^" horiz-adv-x="573" 
d="M286 589c-4.66699 0 -8.33594 -3.33301 -11.0029 -10l-77 -219c-4.66699 -13.333 -13.667 -22.833 -27 -28.5s-26.666 -5.83398 -39.999 -0.500977s-22.833 14.666 -28.5 27.999s-6.16699 26 -1.5 38l90 232c20 50.667 51.667 76 95 76
c23.333 0 42.666 -6.33301 57.999 -19s28 -31.667 38 -57l89 -232c4.66699 -12 4.33398 -24.667 -0.999023 -38s-14.666 -22.666 -27.999 -27.999s-26.666 -5.16602 -39.999 0.500977s-22.333 15.167 -27 28.5l-77 219c-2.66699 6.66699 -6.66699 10 -12 10z" />
    <glyph glyph-name="underscore" unicode="_" horiz-adv-x="472" 
d="M472 -200h-472v90h472v-90z" />
    <glyph glyph-name="grave" unicode="`" horiz-adv-x="382" 
d="M279 834c16 -8.66699 24 -21.333 24 -38c0 -11.333 -4.16699 -21.333 -12.5 -30s-18.166 -13 -29.499 -13c-4 0 -7.83301 0.666992 -11.5 2l-10.5 4l-135 70c-16.667 8 -25 20.333 -25 37c0 12 4.16699 22.333 12.5 31s18.166 13 29.499 13c8.66699 0 16 -2 22 -6z" />
    <glyph glyph-name="a" unicode="a" horiz-adv-x="560" 
d="M486 85c0 -9.33301 -1.33203 -16.832 -3.99902 -22.499s-7.66699 -11.167 -15 -16.5c-7.33301 -4.66699 -17.333 -10.167 -30 -16.5s-27.834 -12.5 -45.501 -18.5s-37.667 -11 -60 -15s-46.5 -6 -72.5 -6c-34 0 -63.833 4.33301 -89.5 13s-47 20.834 -64 36.501
s-29.833 34 -38.5 55s-13 43.833 -13 68.5c0 22 4 43 12 63s20.333 37.667 37 53s37.667 27.5 63 36.5s55.666 13.5 90.999 13.5c23.333 0 44.5 -1.5 63.5 -4.5s40.167 -7.16699 63.5 -12.5v33c0 34 -8.66699 58.667 -26 74s-45.666 23 -84.999 23
c-20.667 0 -40.5 -2.33301 -59.5 -7s-35.5 -9.66699 -49.5 -15c-22 -7.33301 -39.667 -6.33301 -53 3s-20 21.666 -20 36.999c0 8.66699 2.5 17.5 7.5 26.5s14.167 16.5 27.5 22.5c14.667 7.33301 36.167 14.166 64.5 20.499s57.833 9.5 88.5 9.5
c64 0 114.5 -15.5 151.5 -46.5s55.5 -80.167 55.5 -147.5v-260zM268.001 83.001c34.667 0 61.334 4.16602 80.001 12.499s30.667 14.5 36 18.5v111c-22 5.33301 -42 9.5 -60 12.5s-38.333 4.5 -61 4.5c-30.667 0 -55.834 -6.5 -75.501 -19.5s-29.5 -31.5 -29.5 -55.5
c0 -27.333 9.33301 -48.166 28 -62.499s46 -21.5 82 -21.5z" />
    <glyph glyph-name="b" unicode="b" horiz-adv-x="600" 
d="M534 338c0.666992 -9.33301 1.33496 -20.332 2.00195 -32.999s1 -25.5 1 -38.5s-0.333008 -25.833 -1 -38.5s-1.33398 -23.334 -2.00098 -32.001c-2.66699 -30.667 -9.66699 -58.667 -21 -84s-26.666 -47 -45.999 -65s-42.5 -32 -69.5 -42s-57.5 -15 -91.5 -15
c-24 0 -46.833 2.33301 -68.5 7s-41.334 10.334 -59.001 17.001s-33 13.5 -46 20.5s-22.833 12.833 -29.5 17.5c-8 5.33301 -13.333 11 -16 17s-4 13.667 -4 23v568c0 15.333 5 28.166 15 38.499s22.667 15.5 38 15.5c14.667 0 27.167 -5.16699 37.5 -15.5
s15.5 -23.166 15.5 -38.499v-150c17.333 7.33301 37.5 14 60.5 20s46.5 9 70.5 9c64.667 0 115.167 -17.833 151.5 -53.5s57.166 -84.834 62.499 -147.501zM429.001 209.001c0.666992 8 1 17.165 1 27.498v32c0 11 -0.166992 21.667 -0.5 32s-0.5 18.833 -0.5 25.5
c-2.66699 36.667 -13.167 64.334 -31.5 83.001s-46.5 28 -84.5 28c-26.667 0 -51.334 -3.5 -74.001 -10.5s-39.334 -13.833 -50.001 -20.5v-279c4.66699 -4 11.334 -8 20.001 -12s18.334 -7.66699 29.001 -11s21.667 -6.16602 33 -8.49902s22.333 -3.5 33 -3.5
c76 0 117.667 39 125 117z" />
    <glyph glyph-name="c" unicode="c" horiz-adv-x="559" 
d="M298 92c24 0 46.3359 5.66406 67.0029 16.9971s36.667 29.666 48 54.999c9.33301 19.333 24.666 29 45.999 29c14.667 0 26.667 -5.16699 36 -15.5s14 -23.166 14 -38.499c0 -12.667 -4.5 -27.5 -13.5 -44.5s-22.333 -33.333 -40 -49s-39.834 -28.834 -66.501 -39.501
s-57.667 -16 -93 -16c-32.667 0 -62.667 5.33301 -90 16s-51 25.334 -71 44.001s-36.167 40.5 -48.5 65.5s-19.5 51.833 -21.5 80.5c-0.666992 10 -1.16699 21.167 -1.5 33.5s-0.5 24.833 -0.5 37.5s0.166992 25.167 0.5 37.5s0.833008 23.5 1.5 33.5
c2 30 9.16699 57.333 21.5 82s28.666 45.834 48.999 63.501s44.166 31.334 71.499 41.001s57 14.5 89 14.5c35.333 0 66.166 -5.5 92.499 -16.5s48.333 -24.167 66 -39.5s30.834 -31.5 39.501 -48.5s13 -31.833 13 -44.5c0 -15.333 -4.5 -28.166 -13.5 -38.499
s-21.167 -15.5 -36.5 -15.5c-20.667 0 -35.667 9.66699 -45 29c-11.333 25.333 -27.166 43.666 -47.499 54.999s-42.5 17 -66.5 17c-38 0 -67.833 -9.83301 -89.5 -29.5s-34.167 -46.5 -37.5 -80.5c-0.666992 -6.66699 -1.16699 -15.167 -1.5 -25.5
s-0.5 -21.166 -0.5 -32.499s0.166992 -22.333 0.5 -33s0.833008 -20 1.5 -28c3.33301 -34 15.5 -61.833 36.5 -83.5s51.167 -32.5 90.5 -32.5z" />
    <glyph glyph-name="d" unicode="d" horiz-adv-x="602" 
d="M66 338c5.33301 62.667 26.168 111.835 62.501 147.502s86.833 53.5 151.5 53.5c24 0 47.667 -3 71 -9s43.333 -12.667 60 -20v150c0 15.333 5.16699 28.166 15.5 38.499s22.833 15.5 37.5 15.5c15.333 0 28 -5.16699 38 -15.5s15 -23.166 15 -38.499v-568
c0 -9.33301 -1.16699 -17 -3.5 -23s-7.5 -11.667 -15.5 -17c-6.66699 -4.66699 -16.5 -10.5 -29.5 -17.5s-28.333 -13.833 -46 -20.5s-37.5 -12.334 -59.5 -17.001s-45 -7 -69 -7c-34 0 -64.333 5 -91 15s-49.834 24 -69.501 42s-35.167 39.667 -46.5 65
s-18.333 53.333 -21 84c-0.666992 8.66699 -1.16699 19.334 -1.5 32.001s-0.5 25.667 -0.5 39s0.166992 26.166 0.5 38.499s0.833008 23.166 1.5 32.499zM172.002 209.001c6 -78 47.335 -116.999 124.002 -116.999c10.667 0 21.667 1.16699 33 3.5s22.333 5.33301 33 9
s20.167 7.5 28.5 11.5s15.166 8 20.499 12v278c-10.667 6.66699 -27.334 13.5 -50.001 20.5s-47 10.5 -73 10.5c-38 0 -66.333 -9.33301 -85 -28s-29 -46.334 -31 -83.001c-0.666992 -6.66699 -1.16699 -15.167 -1.5 -25.5s-0.5 -21 -0.5 -32s0.166992 -21.667 0.5 -32
s0.833008 -19.5 1.5 -27.5z" />
    <glyph glyph-name="e" unicode="e" horiz-adv-x="571" 
d="M516 287c0 -18.667 -5.16309 -33.9951 -15.4961 -45.9951s-26.5 -18 -48.5 -18h-283v-12c0 -40 12.167 -70.667 36.5 -92s56.166 -32 95.499 -32c18 0 36.833 2.16699 56.5 6.5s39.167 10.166 58.5 17.499c10.667 4 20.5 5.5 29.5 4.5s16.667 -3.66699 23 -8
s11.166 -9.83301 14.499 -16.5s5 -13.667 5 -21c0 -8 -1.66699 -15.833 -5 -23.5s-10.666 -14.834 -21.999 -21.501c-8.66699 -5.33301 -19.167 -10.166 -31.5 -14.499s-25.666 -8 -39.999 -11s-29.333 -5.33301 -45 -7s-30.834 -2.5 -45.501 -2.5
c-34.667 0 -65.834 5.33301 -93.501 16s-51.5 25.5 -71.5 44.5s-35.833 41.667 -47.5 68s-18.5 55.166 -20.5 86.499c-0.666992 9.33301 -1.16699 19.666 -1.5 30.999s-0.5 22.5 -0.5 33.5s0.166992 21.667 0.5 32s0.833008 19.5 1.5 27.5c2.66699 32 10 61 22 87
s28 48.167 48 66.5s43.5 32.333 70.5 42s56.167 14.5 87.5 14.5c33.333 0 63.666 -5.33301 90.999 -16s50.666 -25.834 69.999 -45.501s34.333 -43.334 45 -71.001s16 -58.167 16 -91.5v-28zM401.004 307.005c6.66699 0 10.668 4 12.001 12
c2.66699 38 -6.83301 68.5 -28.5 91.5s-51.834 34.5 -90.501 34.5c-42.667 0 -74.5 -12.5 -95.5 -37.5s-30.833 -58.5 -29.5 -100.5h232z" />
    <glyph glyph-name="f" unicode="f" horiz-adv-x="415" 
d="M109 549c0 54.667 14.5 97.167 43.5 127.5s70.167 45.5 123.5 45.5c17.333 0 34.666 -1 51.999 -3s31.333 -4.66699 42 -8c27.333 -8 41 -24.667 41 -50c0 -11.333 -4.16699 -22 -12.5 -32s-20.833 -15 -37.5 -15c-11.333 0 -23.166 1.5 -35.499 4.5s-26.5 4.5 -42.5 4.5
c-45.333 0 -68 -26.333 -68 -79v-32h128c13.333 0 25 -4.5 35 -13.5s15 -20.167 15 -33.5s-5 -24.5 -15 -33.5s-21.667 -13.5 -35 -13.5h-128v-367c0 -15.333 -5 -28.333 -15 -39s-22.667 -16 -38 -16c-14.667 0 -27.167 5.33301 -37.5 16s-15.5 23.667 -15.5 39v367h-30
c-13.333 0 -24.833 4.33301 -34.5 13s-14.5 19.667 -14.5 33c0 14 4.83301 25.5 14.5 34.5s21.167 13.5 34.5 13.5h30v37z" />
    <glyph glyph-name="g" unicode="g" horiz-adv-x="600" 
d="M517 34c0 -38.667 -6.33398 -72.167 -19.001 -100.5s-29.667 -51.833 -51 -70.5s-46.666 -32.667 -75.999 -42s-60.333 -14 -93 -14s-62.5 4.16699 -89.5 12.5s-49.167 18.166 -66.5 29.499c-12 7.33301 -22.333 16 -31 26s-13 21.333 -13 34c0 11.333 4 21.833 12 31.5
s20.667 14.5 38 14.5c12 0 23.333 -2.5 34 -7.5s21.5 -10.667 32.5 -17s23 -12 36 -17s28.5 -7.5 46.5 -7.5c17.333 0 34.166 2.5 50.499 7.5s30.666 12.667 42.999 23s22.333 23 30 38s11.5 32.5 11.5 52.5v10c-17.333 -8 -37.666 -15.167 -60.999 -21.5
s-48.666 -9.5 -75.999 -9.5c-31.333 0 -59.5 4.83301 -84.5 14.5s-46.5 23.167 -64.5 40.5s-32.167 38.333 -42.5 63s-16.5 51.667 -18.5 81c-0.666992 6.66699 -1.16699 15.334 -1.5 26.001s-0.5 22 -0.5 34s0.166992 23.833 0.5 35.5s0.833008 22.5 1.5 32.5
c2.66699 30 9.33398 57.667 20.001 83s25.5 47 44.5 65s41.833 32.167 68.5 42.5s57.334 15.5 92.001 15.5c24 0 46.833 -2.16699 68.5 -6.5s41.5 -9.83301 59.5 -16.5s33.667 -13.5 47 -20.5s23.666 -12.833 30.999 -17.5c9.33301 -6 15.166 -12 17.499 -18
s3.5 -13.667 3.5 -23v-403zM293.999 437c-21.333 0 -39.5029 -3.00293 -54.5029 -9.00293s-27.333 -14.167 -37 -24.5s-17 -22.5 -22 -36.5s-8.16699 -29.333 -9.5 -46c-1.33301 -12.667 -2 -29.167 -2 -49.5s0.666992 -38.166 2 -53.499
c2.66699 -35.333 12.834 -63.333 30.501 -84s47.167 -31 88.5 -31c29.333 0 55 4.33301 77 13s36.667 16.334 44 23.001v267c-1.33301 0.666992 -5.16602 2.83398 -11.499 6.50098s-14.666 7.16699 -24.999 10.5s-22.333 6.5 -36 9.5s-28.5 4.5 -44.5 4.5z" />
    <glyph glyph-name="h" unicode="h" horiz-adv-x="605" 
d="M189 485c14.667 14 34.501 26.5 59.501 37.5s52.5 16.5 82.5 16.5c60.667 0 109 -17.833 145 -53.5s54 -88.167 54 -157.5v-277c0 -15.333 -5 -28.333 -15 -39s-22.667 -16 -38 -16c-14.667 0 -27.167 5.33301 -37.5 16s-15.5 23.667 -15.5 39v270
c0 36.667 -9.5 65.167 -28.5 85.5s-45.5 30.5 -79.5 30.5c-26 0 -50.333 -6.16699 -73 -18.5s-40.667 -26.833 -54 -43.5v-325c0 -15.333 -4.83301 -28.166 -14.5 -38.499s-22.167 -15.5 -37.5 -15.5c-14.667 0 -27.334 5.16699 -38.001 15.5s-16 23.166 -16 38.499v610
c0 15.333 5 28.166 15 38.499s22.667 15.5 38 15.5c14.667 0 27.167 -5.16699 37.5 -15.5s15.5 -23.166 15.5 -38.499v-175z" />
    <glyph glyph-name="i" unicode="i" horiz-adv-x="280" 
d="M199 662c0 -16.667 -5.66699 -31 -17 -43s-25.333 -18 -42 -18c-17.333 0 -31.666 6 -42.999 18s-17 26.333 -17 43s5.66699 30.667 17 42s25.666 17 42.999 17c16.667 0 30.667 -5.66699 42 -17s17 -25.333 17 -42zM140 532c14.667 0 27.167 -5.16699 37.5 -15.5
s15.5 -23.166 15.5 -38.499v-428c0 -15.333 -5 -28.166 -15 -38.499s-22.667 -15.5 -38 -15.5c-14 0 -26.333 5.16699 -37 15.5s-16 23.166 -16 38.499v428c0 15.333 5 28.166 15 38.499s22.667 15.5 38 15.5z" />
    <glyph glyph-name="j" unicode="j" horiz-adv-x="274" 
d="M81 478c0 15.333 5.00293 28.167 15.0029 38.5s22.667 15.5 38 15.5c14.667 0 27.167 -5.16699 37.5 -15.5s15.5 -23.166 15.5 -38.499v-377c0 -32 -2.33301 -61.167 -7 -87.5s-11.334 -50.5 -20.001 -72.5s-19.334 -42.167 -32.001 -60.5s-27 -35.833 -43 -52.5
c-5.33301 -6 -11.5 -10.333 -18.5 -13s-14.167 -4 -21.5 -4c-12.667 0 -22.667 3.33301 -30 10c-4.66699 4 -8.83398 8.83301 -12.501 14.5s-6 12 -7 19s-0.5 14.167 1.5 21.5s6 14.666 12 21.999c14 16 25.667 31.167 35 45.5s16.833 28.833 22.5 43.5s9.5 30 11.5 46
s3 34 3 54v391zM193.003 661.001c0 -16 -5.66699 -30 -17 -42s-25.333 -18 -42 -18c-17.333 0 -31.5 6 -42.5 18s-16.5 26 -16.5 42c0 17.333 5.5 31.666 16.5 42.999s25.167 17 42.5 17c16.667 0 30.667 -5.66699 42 -17s17 -25.666 17 -42.999z" />
    <glyph glyph-name="k" unicode="k" horiz-adv-x="548" 
d="M135 713c15.333 0 28.165 -5.16895 38.498 -15.502s15.5 -23.166 15.5 -38.499v-339h14c11.333 0 20.5 1.33301 27.5 4s15.5 9 25.5 19l172 173c10.667 11.333 23.5 17.333 38.5 18s27.833 -4.66602 38.5 -15.999c9.33301 -10.667 14 -22.834 14 -36.501
s-5 -25.5 -15 -35.5l-179 -174l179 -184c10.667 -11.333 16.334 -24 17.001 -38s-4.33301 -26.667 -15 -38c-10 -11.333 -22.667 -16.833 -38 -16.5s-28.333 6.16602 -39 17.499l-173 182c-10 10.667 -18.5 17.334 -25.5 20.001s-15.833 4 -26.5 4h-15v-169
c0 -15.333 -5.16699 -28.166 -15.5 -38.499s-23.166 -15.5 -38.499 -15.5c-14 0 -26.167 5.33301 -36.5 16s-15.5 23.334 -15.5 38.001v609c0 15.333 5 28.166 15 38.499s22.333 15.5 37 15.5z" />
    <glyph glyph-name="l" unicode="l" horiz-adv-x="271" 
d="M136 713c14.667 0 27.167 -5.16699 37.5 -15.5s15.5 -23.166 15.5 -38.499v-609c0 -15.333 -5 -28.166 -15 -38.499s-22.667 -15.5 -38 -15.5c-14 0 -26.333 5.16699 -37 15.5s-16 23.166 -16 38.499v609c0 15.333 5 28.166 15 38.499s22.667 15.5 38 15.5z" />
    <glyph glyph-name="m" unicode="m" horiz-adv-x="867" 
d="M792 50c0 -15.333 -5.00195 -28.166 -15.002 -38.499s-22.667 -15.5 -38 -15.5c-14.667 0 -27.167 5.16699 -37.5 15.5s-15.5 23.166 -15.5 38.499v272c0 40 -8.16699 69.167 -24.5 87.5s-41.166 27.5 -74.499 27.5c-23.333 0 -43.166 -4.33301 -59.499 -13
s-29.166 -19 -38.499 -31v-343c0 -15.333 -5 -28.166 -15 -38.499s-22.667 -15.5 -38 -15.5c-14 0 -26.333 5.16699 -37 15.5s-16 23.166 -16 38.499v279c0 38 -8.66699 65.5 -26 82.5s-41.333 25.5 -72 25.5c-16 0 -29.833 -1.33301 -41.5 -4s-21.5 -5.66699 -29.5 -9
s-14.167 -6.5 -18.5 -9.5s-7.16602 -4.83301 -8.49902 -5.5v-359c0 -15.333 -5 -28.166 -15 -38.499s-22.667 -15.5 -38 -15.5c-14 0 -26.333 5.16699 -37 15.5s-16 23.166 -16 38.499v391c0 10.667 1.83301 19 5.5 25s9.5 12.333 17.5 19c19.333 14 44.333 26.5 75 37.5
s64.667 16.5 102 16.5c67.333 0 117.666 -19.667 150.999 -59c18.667 14.667 40.667 28.167 66 40.5s56.333 18.5 93 18.5c71.333 0 122.666 -18.167 153.999 -54.5s47 -88.5 47 -156.5v-278z" />
    <glyph glyph-name="n" unicode="n" 
d="M528 50c0 -15.333 -4.99805 -28.165 -14.998 -38.498s-22.667 -15.5 -38 -15.5c-14 0 -26.333 5.16699 -37 15.5s-16 23.166 -16 38.499v273c0 20 -3.16699 37.167 -9.5 51.5s-14.833 26.166 -25.5 35.499s-23 16.166 -37 20.499s-28.667 6.5 -44 6.5
c-24.667 0 -47.834 -2.83301 -69.501 -8.5s-38.167 -12.167 -49.5 -19.5v-359c0 -15.333 -5 -28.166 -15 -38.499s-22.667 -15.5 -38 -15.5c-14 0 -26.333 5.16699 -37 15.5s-16 23.166 -16 38.499v393c0 10.667 1.66699 18.834 5 24.501s8.66602 11.167 15.999 16.5
s17.333 11.166 30 17.499s27.667 12.333 45 18s37.166 10.334 59.499 14.001s46.5 5.5 72.5 5.5c72.667 0 127.334 -18.167 164.001 -54.5s55 -88.5 55 -156.5v-278z" />
    <glyph glyph-name="o" unicode="o" horiz-adv-x="593" 
d="M296 539c32 0 61.667 -4.83301 89 -14.5s51.166 -23.334 71.499 -41.001s36.666 -38.834 48.999 -63.501s19.5 -52 21.5 -82c0.666992 -10 1.16699 -21.167 1.5 -33.5s0.5 -24.833 0.5 -37.5s-0.166992 -25.334 -0.5 -38.001s-0.833008 -24 -1.5 -34
c-2 -29.333 -9.16699 -56.5 -21.5 -81.5s-28.666 -46.667 -48.999 -65s-44.166 -32.666 -71.499 -42.999s-57 -15.5 -89 -15.5c-31.333 0 -60.666 5.16699 -87.999 15.5s-51.166 24.666 -71.499 42.999s-36.833 40 -49.5 65s-20 52.167 -22 81.5
c-0.666992 10 -1.16699 21.333 -1.5 34s-0.5 25.334 -0.5 38.001s0.166992 25.167 0.5 37.5s0.833008 23.5 1.5 33.5c2 30 9.33301 57.333 22 82s29.167 45.834 49.5 63.501s44.166 31.334 71.499 41.001s56.666 14.5 87.999 14.5zM296 437
c-37.333 0 -66.8311 -10.5 -88.498 -31.5s-33.834 -48.167 -36.501 -81.5c-0.666992 -8 -1.16699 -17 -1.5 -27s-0.5 -20.333 -0.5 -31s0.166992 -21.167 0.5 -31.5s0.833008 -19.166 1.5 -26.499c3.33301 -35.333 16 -63.5 38 -84.5s51 -31.5 87 -31.5
s65.167 10.5 87.5 31.5s35.166 49.167 38.499 84.5c0.666992 7.33301 1 16.166 1 26.499v31.5c0 10.667 -0.166992 21 -0.5 31s-0.5 19 -0.5 27c-2 33.333 -14 60.5 -36 81.5s-52 31.5 -90 31.5z" />
    <glyph glyph-name="p" unicode="p" horiz-adv-x="599" 
d="M533 193c-5.33301 -62.667 -26.8311 -112.168 -64.498 -148.501s-89.834 -54.5 -156.501 -54.5c-22.667 0 -45.167 3.16699 -67.5 9.5s-41.5 13.166 -57.5 20.499v-163c0 -15.333 -5.16699 -28.166 -15.5 -38.499s-22.833 -15.5 -37.5 -15.5
c-15.333 0 -28 5.16699 -38 15.5s-15 23.166 -15 38.499v587c0 6.66699 1 12.167 3 16.5s6.33301 8.83301 13 13.5s16.834 10.834 30.501 18.501s29.667 14.834 48 21.501s38.666 12.5 60.999 17.5s46.166 7.5 71.499 7.5c33.333 0 63.333 -4.83301 90 -14.5
s49.5 -23.5 68.5 -41.5s34.167 -39.667 45.5 -65s18.333 -53.333 21 -84c0.666992 -8.66699 1.16699 -19.167 1.5 -31.5s0.5 -25.166 0.5 -38.499s-0.166992 -26.333 -0.5 -39s-0.833008 -23.334 -1.5 -32.001zM427.002 319.999c-3.33301 38 -14.833 67.001 -34.5 87.001
s-48.5 30 -86.5 30c-11.333 0 -22.833 -1.16699 -34.5 -3.5s-23 -5.33301 -34 -9s-21 -7.66699 -30 -12s-15.833 -8.5 -20.5 -12.5v-275c9.33301 -6.66699 25 -13.834 47 -21.501s45.333 -11.5 70 -11.5c40.667 0 70.667 9.66699 90 29s30.333 47 33 83
c0.666992 6.66699 1 15 1 25v31.5v32c0 10.333 -0.333008 19.5 -1 27.5z" />
    <glyph glyph-name="q" unicode="q" horiz-adv-x="602" 
d="M66 192c-0.666992 9.33301 -1.16504 20.334 -1.49805 33.001s-0.5 25.5 -0.5 38.5s0.166992 25.667 0.5 38s0.833008 23.166 1.5 32.499c2.66699 30.667 9.5 58.667 20.5 84s26.167 47 45.5 65s42.333 31.833 69 41.5s56.667 14.5 90 14.5
c24.667 0 48.334 -2.33301 71.001 -7s43.167 -10.334 61.5 -17.001s34.166 -13.667 47.499 -21s23.666 -13.333 30.999 -18c6.66699 -4.66699 10.834 -9.5 12.501 -14.5s2.5 -10.833 2.5 -17.5v-587c0 -15.333 -4.83301 -28.166 -14.5 -38.499s-22.167 -15.5 -37.5 -15.5
c-14.667 0 -27.167 5.16699 -37.5 15.5s-15.5 23.166 -15.5 38.499v163c-16.667 -7.33301 -36.334 -14.166 -59.001 -20.499s-45.667 -9.5 -69 -9.5c-66.667 0 -118.334 18 -155.001 54s-57.667 85.333 -63 148zM172.002 322.001c-0.666992 -8 -1.16699 -17.333 -1.5 -28
s-0.5 -21.5 -0.5 -32.5s0.166992 -21.5 0.5 -31.5s0.833008 -18.333 1.5 -25c2 -36.667 12.5 -64.667 31.5 -84s48.167 -29 87.5 -29c25.333 0 49.333 3.66699 72 11s39 14 49 20v277c-5.33301 4 -12.333 8.16699 -21 12.5s-18.5 8.33301 -29.5 12s-22.5 6.66699 -34.5 9
s-23.333 3.5 -34 3.5c-74.667 0 -115 -38.333 -121 -115z" />
    <glyph glyph-name="r" unicode="r" horiz-adv-x="389" 
d="M335 528c15.333 -4.66699 25.998 -11.167 31.998 -19.5s9 -18.5 9 -30.5c0 -11.333 -4 -22.5 -12 -33.5s-20.667 -16.5 -38 -16.5c-9.33301 0 -20 1.66699 -32 5s-26.333 4.66602 -43 3.99902c-23.333 -0.666992 -40.666 -7.16699 -51.999 -19.5s-17 -32.5 -17 -60.5
v-308c0 -15.333 -5.16699 -28 -15.5 -38s-23.166 -15 -38.499 -15c-14 0 -26.167 5 -36.5 15s-15.5 22.667 -15.5 38v325c0 50.667 14.333 90.834 43 120.501s70.334 44.5 125.001 44.5c17.333 0 34.166 -1 50.499 -3s29.833 -4.66699 40.5 -8z" />
    <glyph glyph-name="s" unicode="s" horiz-adv-x="494" 
d="M311 306c94 -23.333 141.002 -73.666 141.002 -150.999c0 -25.333 -5 -48.166 -15 -68.499s-24 -37.666 -42 -51.999s-39.333 -25.333 -64 -33s-51.334 -11.5 -80.001 -11.5c-42 0 -78 5.16699 -108 15.5s-55.333 24.166 -76 41.499c-10 8.66699 -16 19.667 -18 33
s0.666992 25 8 35c8 11.333 18.333 18 31 20s25.667 -1.33301 39 -10c16 -11.333 33.667 -20.666 53 -27.999s44.666 -11 75.999 -11c30.667 0 53.667 6.16699 69 18.5s23 28.166 23 47.499c0 14.667 -5.16699 26.667 -15.5 36s-28.166 17 -53.499 23
c-8.66699 2 -15.5 3.5 -20.5 4.5s-9.66699 2 -14 3l-15 3.5c-5.66699 1.33301 -13.167 3.33301 -22.5 6c-44 11.333 -79.167 29 -105.5 53s-39.5 56.333 -39.5 97c0 24.667 5 47 15 67s23.833 37 41.5 51s38.5 24.667 62.5 32s50 11 78 11c29.333 0 57.5 -4.33301 84.5 -13
s49.167 -20 66.5 -34c11.333 -9.33301 16.833 -20.833 16.5 -34.5s-4.16602 -24.834 -11.499 -33.501c-8 -9.33301 -18.333 -14.5 -31 -15.5s-25.334 1.83301 -38.001 8.5c-28.667 16.667 -59.334 25 -92.001 25c-60 0 -90 -20.667 -90 -62c0 -13.333 5 -24.333 15 -33
s28 -16.334 54 -23.001l78 -18v0z" />
    <glyph glyph-name="t" unicode="t" horiz-adv-x="417" 
d="M355 9c-15.333 -6.66699 -32.9971 -11.5 -52.9971 -14.5s-39.667 -4.5 -59 -4.5c-28.667 0 -53.334 4.66699 -74.001 14s-37.834 22 -51.501 38s-23.834 35 -30.501 57s-10 45.667 -10 71v418c0 15.333 5 28.166 15 38.499s22.667 15.5 38 15.5
c14.667 0 27.167 -5.16699 37.5 -15.5s15.5 -23.166 15.5 -38.499v-76h138c13.333 0 25 -4.5 35 -13.5s15 -20.167 15 -33.5s-5 -24.5 -15 -33.5s-21.667 -13.5 -35 -13.5h-138v-249c0 -25.333 5.66699 -44.833 17 -58.5s29.333 -20.5 54 -20.5
c13.333 0 25.833 1.66699 37.5 5l34.5 10c10 2.66699 19.167 3 27.5 1s15.166 -5.16699 20.499 -9.5s9.5 -10 12.5 -17s4.5 -14.167 4.5 -21.5c0 -10 -2.66699 -19.333 -8 -28s-14.666 -15.667 -27.999 -21z" />
    <glyph glyph-name="u" unicode="u" 
d="M75 476c0 16 4.66992 29.332 14.0029 39.999s22 16 38 16c15.333 0 28.166 -5.33301 38.499 -16s15.5 -24 15.5 -40v-272c0 -34.667 10.333 -62 31 -82s49 -30 85 -30c27.333 0 50.666 3.5 69.999 10.5s35.666 14.5 48.999 22.5v352c0 15.333 5 28.333 15 39
s22.667 16 38 16c14.667 0 27.167 -5.33301 37.5 -16s15.5 -23.667 15.5 -39v-387c0 -9.33301 -1.5 -17 -4.5 -23s-8.16699 -11.667 -15.5 -17s-17.333 -11.5 -30 -18.5s-27.667 -13.5 -45 -19.5s-37 -11.167 -59 -15.5s-46 -6.5 -72 -6.5c-68 0 -121.833 18.333 -161.5 55
s-59.5 89.334 -59.5 158.001v273z" />
    <glyph glyph-name="v" unicode="v" horiz-adv-x="524" 
d="M449 531c10 0 18.833 -2.16797 26.5 -6.50098s14 -10.166 19 -17.499s8.16699 -15.5 9.5 -24.5s0 -18.5 -4 -28.5l-143 -382c-19.333 -52 -51.333 -78 -96 -78c-43.333 0 -74.666 25.667 -93.999 77l-143 385c-4 10 -5.33301 19.667 -4 29s4.5 17.5 9.5 24.5
s11.333 12.667 19 17s16.5 6.5 26.5 6.5c11.333 0 21.666 -3.66699 30.999 -11s16 -17 20 -29l131 -375c1.33301 -2.66699 3 -4 5 -4s3.66699 1.33301 5 4l129 372c4.66699 12.667 11.667 22.667 21 30s20 11 32 11z" />
    <glyph glyph-name="w" unicode="w" horiz-adv-x="811" 
d="M411 399c-0.666992 2.66699 -2.33594 3.99902 -5.00293 3.99902c-3.33301 0 -5 -1.33301 -5 -4l-86 -331c-7.33301 -27.333 -18.5 -47.166 -33.5 -59.499s-33.5 -18.5 -55.5 -18.5c-20.667 0 -39 6.16699 -55 18.5s-27.667 31.5 -35 57.5l-105 395
c-2.66699 10 -3.33398 19.333 -2.00098 28s4.33301 16.167 9 22.5s10.5 11.5 17.5 15.5s15.167 6 24.5 6c11.333 0 22 -3.5 32 -10.5s17 -18.167 21 -33.5l92 -376c0.666992 -2.66699 2.33398 -4 5.00098 -4s4.33398 1.33301 5.00098 4l86 345c6 24 16.667 42.5 32 55.5
s33 19.5 53 19.5c20.667 0 38.5 -6.5 53.5 -19.5s25.5 -31.5 31.5 -55.5l86 -345c0.666992 -2.66699 2.33398 -4 5.00098 -4s4.33398 1.33301 5.00098 4l92 375c3.33301 13.333 9.66602 24.166 18.999 32.499s20.333 12.5 33 12.5c19.333 0 33.833 -7.16699 43.5 -21.5
s11.834 -31.166 6.50098 -50.499l-106 -394c-7.33301 -26.667 -18.833 -46.167 -34.5 -58.5s-34.167 -18.5 -55.5 -18.5s-40 6.16699 -56 18.5s-27.333 31.833 -34 58.5z" />
    <glyph glyph-name="x" unicode="x" horiz-adv-x="550" 
d="M506 45c0 -12.667 -5.16895 -24.1689 -15.502 -34.502s-22.5 -15.5 -36.5 -15.5c-8 0 -15.667 1.66699 -23 5s-13.666 8.33301 -18.999 15l-137 171l-137 -172c-10.667 -12.667 -24.667 -19 -42 -19c-15.333 0 -27.833 5.33301 -37.5 16s-14.5 22.667 -14.5 36
c0 6 1 12 3 18s5.33301 11.667 10 17l150 185l-142 177c-9.33301 11.333 -14 23.333 -14 36c0 13.333 5.33301 25.166 16 35.499s23.334 15.5 38.001 15.5c16.667 0 30 -6.33301 40 -19l129 -164l130 163c5.33301 7.33301 11.833 12.5 19.5 15.5s15.5 4.5 23.5 4.5
c14.667 0 27 -5.16699 37 -15.5s15 -22.166 15 -35.499s-4.66699 -25.666 -14 -36.999l-141 -176l148 -185c9.33301 -11.333 14 -23.666 14 -36.999z" />
    <glyph glyph-name="y" unicode="y" horiz-adv-x="524" 
d="M25 455c-4 10 -5.5 19.6641 -4.5 28.9971s4 17.5 9 24.5s11.333 12.667 19 17s15.834 6.5 24.501 6.5c14 0 25.5 -3.83301 34.5 -11.5s15.5 -17.167 19.5 -28.5l135 -323c0.666992 -2 2 -3 4 -3s3.66699 1 5 3l124 321c4.66699 12.667 11.5 22.834 20.5 30.501
s20.167 11.5 33.5 11.5c10 0 18.833 -2.16699 26.5 -6.5s14 -10.166 19 -17.499s8 -15.666 9 -24.999s-0.5 -18.666 -4.5 -27.999l-188 -447c-20 -48 -42.5 -88 -67.5 -120s-47.833 -54.667 -68.5 -68c-15.333 -10 -30.333 -15 -45 -15c-13.333 0 -25 4.5 -35 13.5
s-15 21.167 -15 36.5c0 7.33301 1.83301 15 5.5 23s9.16699 14.667 16.5 20c18 11.333 36.667 28.166 56 50.499s35.666 51.5 48.999 87.5z" />
    <glyph glyph-name="z" unicode="z" horiz-adv-x="506" 
d="M172 98l237 -0.00195312c14.667 0 27.167 -4.5 37.5 -13.5s15.5 -20.833 15.5 -35.5c0 -14 -5.16699 -25.667 -15.5 -35s-22.833 -14 -37.5 -14h-285c-23.333 0 -42 6.5 -56 19.5s-21 29.167 -21 48.5c0 18.667 7 36.667 21 54l271 302h-226
c-14 0 -26.167 4.33301 -36.5 13s-15.5 20.334 -15.5 35.001c0 14 5.16699 25.667 15.5 35s22.5 14 36.5 14h274c20.667 0 37 -5.16699 49 -15.5s19.667 -23.166 23 -38.499c6 -25.333 -1.33301 -50 -22 -74z" />
    <glyph glyph-name="braceleft" unicode="{" horiz-adv-x="405" 
d="M242 688c-8.66699 0 -15.833 -2.83398 -21.5 -8.50098s-8.5 -12.834 -8.5 -21.501v-194c0 -21.333 -2.16699 -40.333 -6.5 -57s-9.83301 -31 -16.5 -43s-14 -22 -22 -30s-15.333 -14.333 -22 -19c6.66699 -5.33301 14 -12 22 -20s15.333 -18 22 -30
s12.167 -26.167 16.5 -42.5s6.5 -35.166 6.5 -56.499v-208c0 -8 2.66699 -15 8 -21s12.333 -9 21 -9h103c14.667 0 27.334 -4.83301 38.001 -14.5s16 -22.167 16 -37.5s-5.16699 -27.833 -15.5 -37.5s-23.166 -14.5 -38.499 -14.5h-125c-15.333 0 -29.833 3 -43.5 9
s-25.667 14.167 -36 24.5s-18.5 22.333 -24.5 36s-9 28.167 -9 43.5v228c0 24.667 -3.5 45.667 -10.5 63s-21.167 34.333 -42.5 51c-5.33301 4 -10 8.83301 -14 14.5s-6 12.834 -6 21.501c0 8 2 14.833 6 20.5s8.66699 10.5 14 14.5c21.333 16.667 35.5 33.667 42.5 51
s10.5 38.333 10.5 63v228c0 28 9.66699 51.667 29 71s43 29 71 29h138c15.333 0 28.166 -4.83301 38.499 -14.5s15.5 -22.167 15.5 -37.5s-5.33301 -27.833 -16 -37.5s-23.334 -14.5 -38.001 -14.5h-102z" />
    <glyph glyph-name="bar" unicode="|" horiz-adv-x="304" 
d="M150 835c14.667 0 27.167 -5.33496 37.5 -16.002s15.5 -23.667 15.5 -39v-866c0 -15.333 -5 -28.166 -15 -38.499s-22.667 -15.5 -38 -15.5c-14.667 0 -27.167 5.33301 -37.5 16s-15.5 23.334 -15.5 38.001v866c0 15.333 5 28.333 15 39s22.667 16 38 16z" />
    <glyph glyph-name="braceright" unicode="}" horiz-adv-x="405" 
d="M299 -63c0 -15.333 -2.99902 -29.832 -8.99902 -43.499s-14.167 -25.667 -24.5 -36s-22.333 -18.5 -36 -24.5s-28.167 -9 -43.5 -9h-125c-15.333 0 -28.166 4.83301 -38.499 14.5s-15.5 22.167 -15.5 37.5s5.33301 27.833 16 37.5s23.334 14.5 38.001 14.5h103
c8.66699 0 15.667 3 21 9s8 13 8 21v208c0 21.333 2.16699 40.166 6.5 56.499s9.83301 30.5 16.5 42.5s13.834 22 21.501 30s15.167 14.667 22.5 20c-7.33301 4.66699 -14.833 11 -22.5 19s-14.834 18 -21.501 30s-12.167 26.333 -16.5 43s-6.5 35.667 -6.5 57v194
c0 8.66699 -2.83301 15.834 -8.5 21.501s-12.834 8.5 -21.501 8.5h-102c-14.667 0 -27.334 4.83301 -38.001 14.5s-16 22.167 -16 37.5s5.16699 27.833 15.5 37.5s23.166 14.5 38.499 14.5h138c28 0 51.667 -9.66699 71 -29s29 -43 29 -71v-228
c0 -24.667 3.5 -45.667 10.5 -63s21.167 -34.333 42.5 -51c5.33301 -4 10 -8.83301 14 -14.5s6 -12.5 6 -20.5c0 -8.66699 -2 -15.834 -6 -21.501s-8.66699 -10.5 -14 -14.5c-21.333 -16.667 -35.5 -33.667 -42.5 -51s-10.5 -38.333 -10.5 -63v-228z" />
    <glyph glyph-name="asciitilde" unicode="~" horiz-adv-x="643" 
d="M500 413c13.333 6.66699 25.168 9.49902 35.501 8.49902s19.166 -4.16699 26.499 -9.5s13 -12 17 -20s6 -15.667 6 -23c0 -13.333 -4 -24.666 -12 -33.999s-17.667 -16.333 -29 -21c-20 -8.66699 -40.5 -16.5 -61.5 -23.5s-42.5 -10.5 -64.5 -10.5
c-19.333 0 -37 2.66699 -53 8s-31.667 11.166 -47 17.499s-30.833 12.166 -46.5 17.499s-32.5 8 -50.5 8c-12 0 -24 -2 -36 -6s-25.667 -9.66699 -41 -17c-13.333 -6.66699 -25.333 -9.5 -36 -8.5s-19.834 4.16699 -27.501 9.5s-13.5 12 -17.5 20s-6 15.667 -6 23
c0 14 4.16699 25.5 12.5 34.5s18.166 16.167 29.499 21.5c24 10 46 18 66 24s39.333 9 58 9s36 -2.66699 52 -8s31.667 -11.166 47 -17.499s30.833 -12.166 46.5 -17.499s32.834 -8 51.501 -8c12.667 0 25.334 2 38.001 6s26.667 9.66699 42 17z" />
    <glyph glyph-name="exclamdown" unicode="&#xa1;" horiz-adv-x="227" 
d="M61 52.04c-0.666992 -15.333 4.16992 -28.166 14.5029 -38.499s22.833 -15.499 37.5 -15.499c15.333 0 28.166 5.16602 38.499 15.499s15.166 23.166 14.499 38.499l-6 373.977c-0.666992 13.333 -5.33398 24.332 -14.001 32.998s-19.667 12.999 -33 12.999
s-24.333 -4.5 -33 -13.499s-13 -19.832 -13 -32.498zM63.0039 611.006c0 -13.333 4.83301 -24.832 14.5 -34.498s21.5 -14.499 35.5 -14.499c14.667 0 26.834 4.83301 36.501 14.499s14.5 21.165 14.5 34.498v49.9961c0 13.333 -4.83301 24.666 -14.5 33.999
s-21.834 14 -36.501 14c-14 0 -25.833 -4.66699 -35.5 -14s-14.5 -20.666 -14.5 -33.999v-49.9961z" />
    <glyph glyph-name="cent" unicode="&#xa2;" horiz-adv-x="492" 
d="M320 576c30 -6.66699 55.834 -18.998 77.501 -36.998s37.5 -39 47.5 -63c1.33301 -2.66699 2.5 -6 3.5 -10s1.5 -8.66699 1.5 -14c0 -13.333 -5.33301 -24.333 -16 -33s-21.667 -13 -33 -13s-20.666 3 -27.999 9s-12.666 12.667 -15.999 20
c-8 17.333 -19.667 31.166 -35 41.499s-32.333 15.5 -51 15.5c-30.667 0 -53.167 -8.83301 -67.5 -26.5s-22.833 -40.5 -25.5 -68.5c-1.33301 -13.333 -2 -29.333 -2 -48s0.666992 -34.334 2 -47.001c3.33301 -28 12 -50.5 26 -67.5s36.333 -25.5 67 -25.5
c18.667 0 35.667 5 51 15s27 23.667 35 41c3.33301 7.33301 8.66602 14 15.999 20s16.666 9 27.999 9s22.166 -4.33301 32.499 -13s15.5 -19.667 15.5 -33c0 -6 -1.33301 -12.667 -4 -20c-25.333 -56.667 -67 -92 -125 -106v-81c0 -14 -4.5 -25.833 -13.5 -35.5
s-20.167 -14.5 -33.5 -14.5c-12.667 0 -23.667 5 -33 15s-14 21.667 -14 35v83c-42 9.33301 -76.5 30 -103.5 62s-41.833 70.333 -44.5 115c-2 32 -2 64.333 0 97c3.33301 44 18.333 82.167 45 114.5s61 53.5 103 63.5v83c0 13.333 4.66699 25 14 35s20.333 15 33 15
c13.333 0 24.5 -4.83301 33.5 -14.5s13.5 -21.5 13.5 -35.5v-83z" />
    <glyph glyph-name="sterling" unicode="&#xa3;" horiz-adv-x="578" 
d="M66 279c-15.333 0 -28.332 4.83789 -38.999 14.5049s-16 22.167 -16 37.5c0 14.667 5.33301 26.667 16 36s23.667 14 39 14h41l-13 61c-4 19.333 -6 38.333 -6 57c0 28.667 4.66699 55.667 14 81s23.166 47.5 41.499 66.5s41.333 34.167 69 45.5s59.834 17 96.501 17
c24.667 0 47 -2.33301 67 -7s38.167 -10.834 54.5 -18.501s30.666 -16.167 42.999 -25.5s23.166 -18.333 32.499 -27c9.33301 -9.33301 15.333 -17.333 18 -24s4 -13.334 4 -20.001c0 -15.333 -5 -27.833 -15 -37.5s-22.333 -14.5 -37 -14.5c-8 0 -15.333 1.66699 -22 5
s-13.667 7.66602 -21 12.999c-18 16.667 -36.333 29.667 -55 39s-42.334 14 -71.001 14c-21.333 0 -39.166 -3.33301 -53.499 -10s-26 -15 -35 -25s-15.333 -21.167 -19 -33.5s-5.5 -24.5 -5.5 -36.5c0 -16.667 2.33301 -35 7 -55s9.33398 -41.667 14.001 -65h131
c15.333 0 28.166 -4.5 38.499 -13.5s15.5 -21.167 15.5 -36.5s-5.33301 -27.833 -16 -37.5s-23.334 -14.5 -38.001 -14.5h-120c2.66699 -25.333 0.333984 -53.5 -6.99902 -84.5s-18.333 -60.5 -33 -88.5h309c14 0 26.5 -5.16699 37.5 -15.5s16.5 -23.166 16.5 -38.499
c0 -14.667 -5.16699 -27 -15.5 -37s-23.166 -15 -38.499 -15h-357c-23.333 0 -41.333 6.16699 -54 18.5s-19 28.166 -19 47.499c0 9.33301 1.5 17.666 4.5 24.999s7.5 17.666 13.5 30.999c13.333 26 23.5 52 30.5 78s9.16699 52.333 6.5 79h-54z" />
    <glyph glyph-name="currency" unicode="&#xa4;" horiz-adv-x="620" 
d="M310 561c40 0 75.667 -11.999 107 -35.999l72 72c9.33301 10.667 21 16 35 16s25.667 -4.66699 35 -14s13.833 -20.833 13.5 -34.5s-5.5 -25.5 -15.5 -35.5l-79 -80c8.66699 -20.667 13.667 -43.334 15 -68.001c0.666992 -21.333 0.666992 -42.333 0 -63
c0 -24 -5 -46 -15 -66l79 -80c10 -10 15.167 -21.667 15.5 -35s-4.16699 -24.666 -13.5 -33.999c-9.33301 -10 -20.833 -14.667 -34.5 -14s-25.5 5.66699 -35.5 15l-71 75c-15.333 -11.333 -31.833 -20.666 -49.5 -27.999s-37.167 -11 -58.5 -11
c-20.667 0 -40 3.66699 -58 11s-34.667 16.666 -50 27.999l-71 -75c-10 -9.33301 -21.833 -14.333 -35.5 -15s-25.167 4 -34.5 14c-9.33301 9.33301 -13.833 20.666 -13.5 33.999s5.5 25 15.5 35l79 80c-9.33301 20 -14.333 42 -15 66c-1.33301 20.667 -1.33301 41.667 0 63
c1.33301 24.667 6.33301 47.334 15 68.001l-79 80c-10 10 -15.167 21.833 -15.5 35.5s4.16699 25.167 13.5 34.5s21 14 35 14s25.667 -5.33301 35 -16l72 -72c15.333 11.333 32 20.166 50 26.499s37 9.5 57 9.5zM310 471.001c-25.333 0 -46.667 -8.66602 -64 -25.999
s-27 -38.666 -29 -63.999c-0.666992 -9.33301 -1 -19.833 -1 -31.5s0.333008 -22.5 1 -32.5c1.33301 -25.333 10.833 -46.333 28.5 -63s39.167 -25 64.5 -25s46.666 8.33301 63.999 25s26.666 37.667 27.999 63c0.666992 9.33301 1 19.666 1 30.999s-0.333008 22.333 -1 33
c-1.33301 25.333 -10.666 46.666 -27.999 63.999s-38.666 26 -63.999 26z" />
    <glyph glyph-name="yen" unicode="&#xa5;" horiz-adv-x="653" 
d="M27 616c-10 12 -14.3311 25.498 -12.998 40.498s7.66602 27.167 18.999 36.5c11.333 10 24.833 14.167 40.5 12.5s28.167 -8.16699 37.5 -19.5l215 -270l216 269c9.33301 12 21.666 18.833 36.999 20.5s28.666 -2.16602 39.999 -11.499s17.833 -21.666 19.5 -36.999
s-2.5 -29 -12.5 -41l-219 -267l-18.5 -24c-5 -6.66699 -7.83301 -15.667 -8.5 -27h98c14.667 0 27.167 -4.5 37.5 -13.5s15.5 -21.167 15.5 -36.5c0 -14 -5.16699 -25.667 -15.5 -35s-22.833 -14 -37.5 -14h-98v-148c0 -15.333 -5.16699 -28.333 -15.5 -39
s-23.166 -16 -38.499 -16c-14.667 0 -27.167 5.5 -37.5 16.5s-15.5 23.833 -15.5 38.5v148h-98c-15.333 0 -28 4.5 -38 13.5s-15 20.833 -15 35.5c0 15.333 5 27.5 15 36.5s22.667 13.5 38 13.5h98c-1.33301 11.333 -4.5 20.5 -9.5 27.5s-11.167 15.167 -18.5 24.5z" />
    <glyph glyph-name="brokenbar" unicode="&#xa6;" horiz-adv-x="304" 
d="M150 311c14.667 0 27.167 -5.33496 37.5 -16.002s15.5 -23.667 15.5 -39v-342c0 -15.333 -5 -28.166 -15 -38.499s-22.667 -15.5 -38 -15.5c-14.667 0 -27.167 5.33301 -37.5 16s-15.5 23.334 -15.5 38.001v342c0 15.333 5 28.333 15 39s22.667 16 38 16zM150 834.998
c14.667 0 27.167 -5.33496 37.5 -16.002s15.5 -23.667 15.5 -39v-342c0 -15.333 -5 -28.166 -15 -38.499s-22.667 -15.5 -38 -15.5c-14.667 0 -27.167 5.33301 -37.5 16s-15.5 23.334 -15.5 38.001v342c0 15.333 5 28.333 15 39s22.667 16 38 16z" />
    <glyph glyph-name="section" unicode="&#xa7;" horiz-adv-x="574" 
d="M498 279c0 -16.667 -3.50293 -32.665 -10.5029 -47.998s-15.833 -28.666 -26.5 -39.999c27.333 -28.667 41 -65 41 -109c0 -26 -5.16699 -50.333 -15.5 -73s-24.833 -42.334 -43.5 -59.001s-41.167 -29.667 -67.5 -39s-55.166 -14 -86.499 -14
c-22 0 -43.167 1.83301 -63.5 5.5s-39.333 8.5 -57 14.5s-33.334 12.5 -47.001 19.5s-24.5 13.833 -32.5 20.5c-13.333 10 -20 24.333 -20 43c0 15.333 5.33301 27.666 16 36.999s23 14 37 14c10.667 0 20.667 -3 30 -9c22 -13.333 45.167 -23.333 69.5 -30
s46.166 -10 65.499 -10s35.833 2.33301 49.5 7s24.834 11 33.501 19s15 16.833 19 26.5s6 19.5 6 29.5c0 14.667 -3 26.834 -9 36.501s-14.5 17.834 -25.5 24.501s-24.333 12.167 -40 16.5l-53.5 14.5c-34 8.66699 -62.5 18.167 -85.5 28.5s-41.667 21.5 -56 33.5
s-24.5 25.333 -30.5 40s-9 31 -9 49c0 16 3.33301 31.833 10 47.5s15.667 29.167 27 40.5c-27.333 28.667 -41 65 -41 109c0 26 5.16699 50.333 15.5 73s25 42.334 44 59.001s41.5 29.667 67.5 39s54.667 14 86 14c22 0 42.5 -1.83301 61.5 -5.5s36.333 -8.33398 52 -14.001
s29.5 -11.834 41.5 -18.501s22 -13 30 -19c15.333 -12.667 23 -28 23 -46c0 -14 -4.66699 -26.167 -14 -36.5s-21.666 -15.5 -36.999 -15.5c-7.33301 0 -13.833 1.16699 -19.5 3.5s-12.5 6.16602 -20.5 11.499c-17.333 11.333 -36.5 20.166 -57.5 26.499
s-40.833 9.5 -59.5 9.5c-19.333 0 -35.666 -2.5 -48.999 -7.5s-24.166 -11.333 -32.499 -19s-14.333 -16.334 -18 -26.001s-5.5 -19.5 -5.5 -29.5c0 -15.333 2.83301 -28 8.5 -38s14 -18.167 25 -24.5s24.333 -11.833 40 -16.5s33.5 -9.66699 53.5 -15
c34 -8.66699 62.5 -18 85.5 -28s41.667 -21.167 56 -33.5s24.5 -25.666 30.5 -39.999s9 -30.5 9 -48.5zM301.997 261.002c35.333 -9.33301 64.666 -18.6709 87.999 -28.0039l2 3c4 5.33301 7.5 11 10.5 17s4.5 12.667 4.5 20c0 14.667 -8.66699 27.334 -26 38.001
s-49.666 21.667 -96.999 33c-34 8 -63.333 17.333 -88 28l-2 -3c-10 -11.333 -15 -23.666 -15 -36.999c0 -7.33301 2 -14.166 6 -20.499s10.667 -12.333 20 -18s21.833 -11.167 37.5 -16.5s35.5 -10.666 59.5 -15.999z" />
    <glyph glyph-name="dieresis" unicode="&#xa8;" horiz-adv-x="382" 
d="M107 868c15.333 0 28.166 -5.16699 38.499 -15.5s15.5 -23.166 15.5 -38.499s-5.16699 -28.333 -15.5 -39s-23.166 -16 -38.499 -16s-28.166 5.33301 -38.499 16s-15.5 23.667 -15.5 39s5.16699 28.166 15.5 38.499s23.166 15.5 38.499 15.5zM275 868
c15.333 0 28.166 -5.16699 38.499 -15.5s15.5 -23.166 15.5 -38.499s-5.16699 -28.333 -15.5 -39s-23.166 -16 -38.499 -16s-28.166 5.33301 -38.499 16s-15.5 23.667 -15.5 39s5.16699 28.166 15.5 38.499s23.166 15.5 38.499 15.5z" />
    <glyph glyph-name="copyright" unicode="&#xa9;" horiz-adv-x="797" 
d="M398 709c42 0 81.5 -7.66699 118.5 -23s69.333 -36.833 97 -64.5s49.834 -60.5 66.501 -98.5s26 -79.333 28 -124c1.33301 -32 1.33301 -64 0 -96c-2 -44.667 -11.333 -85.834 -28 -123.501s-38.834 -70.334 -66.501 -98.001s-60 -49.167 -97 -64.5s-76.5 -23 -118.5 -23
s-81.5 7.66699 -118.5 23s-69.333 36.833 -97 64.5s-49.834 60.334 -66.501 98.001s-26 78.834 -28 123.501c-1.33301 32 -1.33301 64 0 96c2 44.667 11.333 86 28 124s38.834 70.833 66.501 98.5s60 49.167 97 64.5s76.5 23 118.5 23zM398 634
c-31.333 0 -60.665 -5.5 -87.998 -16.5s-51.333 -26.5 -72 -46.5s-37.5 -44.167 -50.5 -72.5s-20.5 -59.833 -22.5 -94.5c-0.666992 -7.33301 -1.16699 -15.5 -1.5 -24.5s-0.5 -18.5 -0.5 -28.5s0.166992 -19.667 0.5 -29s0.833008 -17.333 1.5 -24
c2 -34.667 9.5 -66.167 22.5 -94.5s29.833 -52.5 50.5 -72.5s44.667 -35.5 72 -46.5s56.666 -16.5 87.999 -16.5s60.833 5.5 88.5 16.5s52 26.5 73 46.5s37.833 44.167 50.5 72.5s20 59.833 22 94.5c0.666992 6.66699 1 14.667 1 24v29v28.5c0 9 -0.333008 17.167 -1 24.5
c-2 34.667 -9.5 66.167 -22.5 94.5s-29.833 52.5 -50.5 72.5s-44.834 35.5 -72.501 46.5s-57.167 16.5 -88.5 16.5zM400.001 214c40.667 0 69.334 17.001 86.001 51.001c2.66699 5.33301 6.5 10.5 11.5 15.5s12.167 7.5 21.5 7.5s17.5 -3.16699 24.5 -9.5
s10.5 -15.166 10.5 -26.499c0 -6.66699 -2 -15 -6 -25c-10.667 -25.333 -29.334 -45.833 -56.001 -61.5s-57.334 -23.5 -92.001 -23.5c-23.333 0 -44.666 4 -63.999 12s-36.333 19.333 -51 34s-26.667 31.667 -36 51s-15 40.666 -17 63.999
c-1.33301 15.333 -2 31.666 -2 48.999s0.666992 33.666 2 48.999c2 22.667 7.5 43.667 16.5 63s21 36.166 36 50.499s32.167 25.5 51.5 33.5s40.666 12 63.999 12c34.667 0 65.334 -7.83301 92.001 -23.5s45.334 -36.167 56.001 -61.5c4 -10 6 -18.333 6 -25
c0 -11.333 -3.5 -20.166 -10.5 -26.499s-15.167 -9.5 -24.5 -9.5s-16.5 2.5 -21.5 7.5s-8.83301 10.167 -11.5 15.5c-16.667 34.667 -45.334 52 -86.001 52c-26 0 -47.333 -8.83301 -64 -26.5s-26 -40.5 -28 -68.5c-1.33301 -13.333 -1.83301 -27.666 -1.5 -42.999
s0.833008 -29.333 1.5 -42c2 -28 11.333 -50.833 28 -68.5s38 -26.5 64 -26.5z" />
    <glyph glyph-name="ordfeminine" unicode="&#xaa;" horiz-adv-x="480" 
d="M432 345c9.33301 -13.333 12.001 -26.502 8.00098 -39.502s-10.667 -22.167 -20 -27.5c-10.667 -5.33301 -21.667 -7.16602 -33 -5.49902s-20.666 7.16699 -27.999 16.5c-9.33301 10.667 -16.333 21.667 -21 33c-18.667 -17.333 -38.667 -30.166 -60 -38.499
s-41 -12.5 -59 -12.5c-53.333 0 -94.833 15.333 -124.5 46s-46.167 70.667 -49.5 120c-1.33301 15.333 -2 32.833 -2 52.5s0.666992 37.167 2 52.5c3.33301 52 20.5 92.833 51.5 122.5s71.833 44.5 122.5 44.5c18 0 35.333 -1.5 52 -4.5s32 -6.83301 46 -11.5
s26.167 -9.5 36.5 -14.5s18.166 -9.5 23.499 -13.5c6.66699 -5.33301 11.667 -10.5 15 -15.5s5 -12.5 5 -22.5v-176c0 -13.333 0.833008 -25 2.5 -35s4 -19 7 -27s6.66699 -15.5 11 -22.5s9.16602 -14.167 14.499 -21.5zM220.001 361.998
c15.333 0 31.499 3.83301 48.499 11.5s30.833 17.167 41.5 28.5c-2 15.333 -3.16699 27.833 -3.5 37.5s-0.5 18.834 -0.5 27.501v131c-7.33301 4.66699 -19.166 9.16699 -35.499 13.5s-33.166 6.5 -50.499 6.5c-28 0 -48.833 -7.33301 -62.5 -22
s-21.167 -34.334 -22.5 -59.001c-0.666992 -6 -1.16699 -13.167 -1.5 -21.5s-0.5 -17 -0.5 -26s0.166992 -17.833 0.5 -26.5s0.833008 -16.334 1.5 -23.001c1.33301 -23.333 8.66602 -42.166 21.999 -56.499s34.333 -21.5 63 -21.5z" />
    <glyph glyph-name="guillemotleft" unicode="&#xab;" horiz-adv-x="588" 
d="M44 354c0 15.333 3.5 29.498 10.5 42.498s18.833 26.167 35.5 39.5l122 93c11.333 8.66699 23.5 12.5 36.5 11.5s23.833 -6.83301 32.5 -17.5c9.33301 -10.667 13.333 -22.834 12 -36.501s-7.33301 -24.5 -18 -32.5l-113 -86c-2 -1.33301 -4 -3.16602 -6 -5.49902
s-3 -5.16602 -3 -8.49902s1 -6.16602 3 -8.49902s4 -4.16602 6 -5.49902l113 -86c10.667 -8 16.667 -18.833 18 -32.5s-2.66699 -25.834 -12 -36.501c-8.66699 -10.667 -19.5 -16.5 -32.5 -17.5s-25.167 2.83301 -36.5 11.5l-122 94c-16.667 13.333 -28.5 26.333 -35.5 39
s-10.5 26.667 -10.5 42zM274 353.998c0 15.333 3.5 29.498 10.5 42.498s19.167 26.167 36.5 39.5l121 93c12 8.66699 24.5 12.5 37.5 11.5s23.833 -6.83301 32.5 -17.5s12.5 -22.834 11.5 -36.501s-7.16699 -24.5 -18.5 -32.5l-113 -86c-2 -1.33301 -4 -3.16602 -6 -5.49902
s-3 -5.16602 -3 -8.49902s1 -6.16602 3 -8.49902s4 -4.16602 6 -5.49902l113 -86c11.333 -8 17.5 -18.833 18.5 -32.5s-2.83301 -25.834 -11.5 -36.501s-19.5 -16.5 -32.5 -17.5s-25.5 2.83301 -37.5 11.5l-121 94c-17.333 13.333 -29.5 26.333 -36.5 39
s-10.5 26.667 -10.5 42z" />
    <glyph glyph-name="logicalnot" unicode="&#xac;" horiz-adv-x="628" 
d="M568 146c0 -14.667 -4.83203 -27.001 -14.499 -37.001s-21.834 -15 -36.501 -15c-14 0 -26 5.33301 -36 16s-15 22.667 -15 36v153h-354c-14.667 0 -27 5 -37 15s-15 22 -15 36c0 14.667 5 26.834 15 36.501s22.333 14.5 37 14.5h382
c24.667 0 43.167 -7.16699 55.5 -21.5s18.5 -31.5 18.5 -51.5v-182z" />
    <glyph glyph-name="registered" unicode="&#xae;" horiz-adv-x="619" 
d="M314 450c16 0 27.167 3.33301 33.5 10s9.5 15.667 9.5 27s-3.33301 20.5 -10 27.5s-17 10.5 -31 10.5h-51v-75h49zM485 396c1.33301 12 2 26.002 2 42.002s-0.666992 29.667 -2 41c-4.66699 54 -23.167 96.333 -55.5 127s-72.833 46 -121.5 46c-24 0 -46.5 -4 -67.5 -12
s-39.167 -19.333 -54.5 -34s-27.833 -32.834 -37.5 -54.501s-15.5 -45.834 -17.5 -72.501c-1.33301 -11.333 -2 -25 -2 -41s0.666992 -30 2 -42c2 -26.667 7.83301 -50.667 17.5 -72s22.167 -39.5 37.5 -54.5s33.5 -26.5 54.5 -34.5s43.5 -12 67.5 -12
c48.667 0 89.167 15.333 121.5 46s50.833 73 55.5 127zM310 393.002c-2.66699 3.33301 -5.16895 5.49902 -7.50195 6.49902s-5.16602 1.5 -8.49902 1.5h-28v-71c0 -8.66699 -2.5 -15.667 -7.5 -21s-12.167 -8 -21.5 -8c-7.33301 0 -13.666 2.66699 -18.999 8
s-8 12.333 -8 21v211c0 9.33301 2.83301 17.333 8.5 24s14.167 10 25.5 10h79c25.333 0 46.833 -7.5 64.5 -22.5s26.5 -36.5 26.5 -64.5c0 -19.333 -4.16699 -35.666 -12.5 -48.999s-20.166 -22.666 -35.499 -27.999l49 -63c2 -3.33301 3.66699 -6.5 5 -9.5s2 -6.5 2 -10.5
c0 -7.33301 -2.66699 -13.833 -8 -19.5s-12.666 -8.5 -21.999 -8.5c-4.66699 0 -8.83398 1.16699 -12.501 3.5s-6.83398 5.16602 -9.50098 8.49902zM544.998 400.001c-1.33301 -33.333 -8.33301 -64.333 -21 -93s-29.667 -53.5 -51 -74.5s-46 -37.5 -74 -49.5
s-58.333 -18 -91 -18s-63 6 -91 18s-52.667 28.5 -74 49.5s-38.333 45.833 -51 74.5s-19.667 59.667 -21 93c-1.33301 24.667 -1.33301 49.667 0 75c1.33301 33.333 8.33301 64.333 21 93s29.667 53.5 51 74.5s46 37.5 74 49.5s58.333 18 91 18s63 -6 91 -18
s52.667 -28.5 74 -49.5s38.333 -45.833 51 -74.5s19.667 -59.667 21 -93c0.666992 -25.333 0.666992 -50.333 0 -75z" />
    <glyph glyph-name="macron" unicode="&#xaf;" horiz-adv-x="382" 
d="M273 851c12.667 0 23.167 -4 31.5 -12s12.5 -18.333 12.5 -31s-4.16699 -23.167 -12.5 -31.5s-18.833 -12.5 -31.5 -12.5h-161c-12.667 0 -23.167 4.16699 -31.5 12.5s-12.5 18.833 -12.5 31.5s4.16699 23 12.5 31s18.833 12 31.5 12h161z" />
    <glyph glyph-name="degree" unicode="&#xb0;" horiz-adv-x="346" 
d="M42 587c0 18 3.5 35 10.5 51s16.333 30 28 42s25.5 21.5 41.5 28.5s33 10.5 51 10.5s35 -3.5 51 -10.5s29.833 -16.5 41.5 -28.5s21 -26 28 -42s10.5 -33 10.5 -51s-3.5 -34.833 -10.5 -50.5s-16.333 -29.5 -28 -41.5s-25.5 -21.5 -41.5 -28.5s-33 -10.5 -51 -10.5
s-35 3.5 -51 10.5s-29.833 16.5 -41.5 28.5s-21 25.833 -28 41.5s-10.5 32.5 -10.5 50.5zM110 587c0 -17.333 6.16699 -32 18.5 -44s27.166 -18 44.499 -18s32.166 6 44.499 18s18.5 26.667 18.5 44s-6.16699 32.166 -18.5 44.499s-27.166 18.5 -44.499 18.5
s-32.166 -6.16699 -44.499 -18.5s-18.5 -27.166 -18.5 -44.499z" />
    <glyph glyph-name="plusminus" unicode="&#xb1;" horiz-adv-x="628" 
d="M112 0c-14.667 0 -27 5 -37 15s-15 22 -15 36c0 14.667 5 26.834 15 36.501s22.333 14.5 37 14.5h404c14.667 0 27 -4.83301 37 -14.5s15 -21.834 15 -36.501c0 -14 -5.16699 -26 -15.5 -36s-22.5 -15 -36.5 -15h-404zM264 327h-152c-14.667 0 -27 5 -37 15
s-15 22 -15 36s5 26 15 36s22.333 15 37 15h152v152c0 14 5 26.167 15 36.5s22 15.5 36 15.5c14.667 0 26.834 -5.16699 36.501 -15.5s14.5 -22.5 14.5 -36.5v-152h150c14.667 0 27 -5 37 -15s15 -22 15 -36s-5.16699 -26 -15.5 -36s-22.5 -15 -36.5 -15h-150v-153
c0 -14.667 -4.83301 -27 -14.5 -37s-21.834 -15 -36.501 -15c-14 0 -26 5.33301 -36 16s-15 22.667 -15 36v153z" />
    <glyph glyph-name="twosuperior" unicode="&#xb2;" horiz-adv-x="451" 
d="M63 307c0 26.667 7.83496 51.833 23.502 75.5s40.167 47.5 73.5 71.5c10.667 8 22.667 16 36 24s26 16.667 38 26s22 19.333 30 30s12 22.667 12 36c0 12 -4.66699 23.5 -14 34.5s-25 16.5 -47 16.5c-16 0 -30 -3.66699 -42 -11s-22 -15.666 -30 -24.999
c-3.33301 -3.33301 -8 -7.66602 -14 -12.999s-13.667 -8 -23 -8c-12.667 0 -23.667 4.16699 -33 12.5s-14 19.5 -14 33.5c0 9.33301 3.66699 19 11 29c12 17.333 30.167 33.333 54.5 48s54.166 22 89.499 22c26 0 48.833 -3.66699 68.5 -11s36 -17 49 -29
s22.833 -26 29.5 -42s10 -32.333 10 -49c0 -18 -2.16699 -33.833 -6.5 -47.5s-11.166 -26.834 -20.499 -39.501s-21.833 -25.334 -37.5 -38.001s-34.834 -26.667 -57.501 -42l-55 -38c-16.667 -12 -26.334 -23.667 -29.001 -35h168c14 0 25.833 -4.16699 35.5 -12.5
s14.5 -19.5 14.5 -33.5s-4.83301 -25.167 -14.5 -33.5s-21.5 -12.5 -35.5 -12.5h-208c-20.667 0 -36.167 5.66699 -46.5 17s-15.5 26 -15.5 44z" />
    <glyph glyph-name="threesuperior" unicode="&#xb3;" horiz-adv-x="428" 
d="M173 455c-9.33301 0 -18.001 3.16699 -26.001 9.5s-12 14.833 -12 25.5s4.33301 20.334 13 29.001l79 81h-125c-13.333 0 -24.333 4.66699 -33 14s-13 20.666 -13 33.999s4.33301 24.333 13 33s19.667 13 33 13h187c15.333 0 28.666 -4.66699 39.999 -14
s17 -21.666 17 -36.999c0 -5.33301 -1.16699 -12 -3.5 -20s-9.16602 -18 -20.499 -30l-56 -59c34 -6.66699 60.167 -21.334 78.5 -44.001s27.5 -50 27.5 -82c0 -53.333 -21.167 -95.5 -63.5 -126.5s-100.833 -46.5 -175.5 -46.5h-16c-6 0 -11.333 0.333008 -16 1
c-13.333 0.666992 -24.5 5.16699 -33.5 13.5s-13.5 18.833 -13.5 31.5c0 13.333 4.33301 24.5 13 33.5s20 13.5 34 13.5c5.33301 0 11.333 -0.5 18 -1.5s14 -1.5 22 -1.5c42.667 0 76.167 7.33301 100.5 22s36.5 34.667 36.5 60c0 16.667 -5.5 29.667 -16.5 39
s-26.167 14 -45.5 14c-8.66699 0 -16.667 -0.833008 -24 -2.5s-13.666 -2.5 -18.999 -2.5z" />
    <glyph glyph-name="acute" unicode="&#xb4;" horiz-adv-x="382" 
d="M239 904c6.66699 4 14 5.99902 22 5.99902c11.333 0 21.166 -4.33301 29.499 -13s12.5 -19 12.5 -31c0 -16 -8 -28.333 -24 -37l-136 -70l-10.5 -4c-3.66699 -1.33301 -7.5 -2 -11.5 -2c-11.333 0 -21.166 4.33301 -29.499 13s-12.5 18.667 -12.5 30
c0 16.667 8.33301 29.334 25 38.001z" />
    <glyph glyph-name="mu" unicode="&#xb5;" horiz-adv-x="612" 
d="M87 476c0 14.667 4.99902 27.3359 14.999 38.0029s22.667 16 38 16c14 0 26.333 -5.33301 37 -16s16 -23.334 16 -38.001v-273c0 -34.667 9.5 -61.834 28.5 -81.501s46.167 -29.5 81.5 -29.5c25.333 0 48.333 3.33301 69 10s37.334 14 50.001 22v352
c0 15.333 5 28.166 15 38.499s22.667 15.5 38 15.5c14.667 0 27.167 -5.33301 37.5 -16s15.5 -23.334 15.5 -38.001v-392c0 -14 -5.33301 -24.667 -16 -32c-8 -5.33301 -18.333 -11.5 -31 -18.5s-27.5 -13.667 -44.5 -20s-36.167 -11.666 -57.5 -15.999
s-44.666 -6.5 -69.999 -6.5c-46.667 0 -85.334 10.333 -116.001 31v-156c0 -15.333 -5 -28.166 -15 -38.499s-22.667 -15.5 -38 -15.5c-14.667 0 -27.167 5.16699 -37.5 15.5s-15.5 23.166 -15.5 38.499v610z" />
    <glyph glyph-name="mu" unicode="&#x3bc;" horiz-adv-x="612" 
d="M87 476c0 14.667 4.99902 27.3359 14.999 38.0029s22.667 16 38 16c14 0 26.333 -5.33301 37 -16s16 -23.334 16 -38.001v-273c0 -34.667 9.5 -61.834 28.5 -81.501s46.167 -29.5 81.5 -29.5c25.333 0 48.333 3.33301 69 10s37.334 14 50.001 22v352
c0 15.333 5 28.166 15 38.499s22.667 15.5 38 15.5c14.667 0 27.167 -5.33301 37.5 -16s15.5 -23.334 15.5 -38.001v-392c0 -14 -5.33301 -24.667 -16 -32c-8 -5.33301 -18.333 -11.5 -31 -18.5s-27.5 -13.667 -44.5 -20s-36.167 -11.666 -57.5 -15.999
s-44.666 -6.5 -69.999 -6.5c-46.667 0 -85.334 10.333 -116.001 31v-156c0 -15.333 -5 -28.166 -15 -38.499s-22.667 -15.5 -38 -15.5c-14.667 0 -27.167 5.16699 -37.5 15.5s-15.5 23.166 -15.5 38.499v610z" />
    <glyph glyph-name="paragraph" unicode="&#xb6;" horiz-adv-x="733" 
d="M413 -192c-14.667 0 -27.167 5.16602 -37.5 15.499s-15.5 23.166 -15.5 38.499v383h-41c-34.667 0 -66.667 5 -96 15s-54.833 24.833 -76.5 44.5s-38.5 43.667 -50.5 72s-18 60.833 -18 97.5c0 36 6.33301 68.167 19 96.5s29.667 52.333 51 72s46.333 34.667 75 45
s59 15.5 91 15.5h248c26 1.33301 46 -5.66699 60 -21s21 -34.666 21 -57.999v-762c0 -14.667 -5.16699 -27.334 -15.5 -38.001s-22.833 -16 -37.5 -16s-27.167 5.33301 -37.5 16s-15.5 23.334 -15.5 38.001v735h-71v-735c0 -15.333 -5 -28.166 -15 -38.499
s-22.667 -15.5 -38 -15.5zM186 472.999c0 -40.667 12 -71.667 36 -93s59 -32 105 -32h33v249h-36c-44 0 -78 -10.333 -102 -31s-36 -51.667 -36 -93z" />
    <glyph glyph-name="periodcentered" unicode="&#xb7;" horiz-adv-x="271" 
d="M135 431c14 0 25.999 -5 35.999 -15s15 -22.333 15 -37v-53c0 -14.667 -4.66699 -26.834 -14 -36.501s-21.666 -14.5 -36.999 -14.5c-13.333 0 -25 4.83301 -35 14.5s-15 21.834 -15 36.501v53c0 14.667 4.66699 27 14 37s21.333 15 36 15z" />
    <glyph glyph-name="cedilla" unicode="&#xb8;" horiz-adv-x="382" 
d="M146 9c3.33301 8 7.66992 14.834 13.0029 20.501s12.666 8.5 21.999 8.5c11.333 0 19.833 -3.33301 25.5 -10s8.5 -14.667 8.5 -24c0 -4 -1 -8 -3 -12l-13 -34c30 -2 53.167 -11.833 69.5 -29.5s24.5 -39.5 24.5 -65.5c0 -16.667 -3.33301 -31.667 -10 -45
s-15.834 -25.5 -27.501 -36.5s-25.167 -20.667 -40.5 -29s-31.666 -15.5 -48.999 -21.5c-6 -2 -12.167 -3 -18.5 -3s-12.333 1.33301 -18 4s-10.334 6.83398 -14.001 12.501s-5.5 12.834 -5.5 21.501c0 6 1.83301 12.333 5.5 19s11.167 12.334 22.5 17.001
c16 6 28.833 11.667 38.5 17s17.167 10.166 22.5 14.499s8.83301 8.66602 10.5 12.999s2.5 9.16602 2.5 14.499s-2.5 11.166 -7.5 17.499s-12.5 9.5 -22.5 9.5c-7.33301 0 -12.833 -0.666992 -16.5 -2s-8.83398 -2 -15.501 -2c-12 0 -21.667 5.16699 -29 15.5
s-8.33301 21.5 -3 33.5z" />
    <glyph glyph-name="onesuperior" unicode="&#xb9;" horiz-adv-x="342" 
d="M160 571l-57.999 -29.001c-12 -6 -23.833 -7.5 -35.5 -4.5s-21.167 10.167 -28.5 21.5c-6.66699 10.667 -7.83398 22.667 -3.50098 36s11.833 22.666 22.5 27.999l124 70c4 2.66699 8.33301 4.5 13 5.5s8.66699 1.5 12 1.5c14 0 25.5 -4.83301 34.5 -14.5
s13.5 -21.167 13.5 -34.5v-360c0 -13.333 -4.16699 -24.666 -12.5 -33.999s-19.5 -14 -33.5 -14s-25.5 4.83301 -34.5 14.5s-13.5 20.834 -13.5 33.501v280z" />
    <glyph glyph-name="ordmasculine" unicode="&#xba;" horiz-adv-x="460" 
d="M412 444c-2 -25.333 -7.83301 -48.501 -17.5 -69.501s-22.5 -39.333 -38.5 -55s-34.667 -27.834 -56 -36.501s-44.666 -13 -69.999 -13s-48.666 4.33301 -69.999 13s-40 20.834 -56 36.501s-28.833 34 -38.5 55s-15.5 44.167 -17.5 69.5c-2 30.667 -2 61.334 0 92.001
c2 24 7.83301 46.667 17.5 68s22.5 39.666 38.5 54.999s34.667 27.5 56 36.5s44.666 13.5 69.999 13.5s48.666 -4.5 69.999 -13.5s40 -21.167 56 -36.5s28.833 -33.666 38.5 -54.999s15.5 -44 17.5 -68c1.33301 -16 2 -31.167 2 -45.5s-0.666992 -29.833 -2 -46.5z
M230 361.999c24 0 44.167 7.33301 60.5 22s25.5 34.667 27.5 60c1.33301 14.667 2 30 2 46s-0.666992 31 -2 45c-2 24.667 -11.167 44.5 -27.5 59.5s-36.5 22.5 -60.5 22.5s-44.167 -7.5 -60.5 -22.5s-25.5 -34.833 -27.5 -59.5c-1.33301 -14 -2 -29 -2 -45
s0.666992 -31.333 2 -46c2.66699 -25.333 12 -45.333 28 -60s36 -22 60 -22z" />
    <glyph glyph-name="guillemotright" unicode="&#xbb;" horiz-adv-x="588" 
d="M545 354c0 -15.333 -3.5 -29.3311 -10.5 -41.998s-19.167 -25.667 -36.5 -39l-122 -94c-11.333 -8.66699 -23.5 -12.5 -36.5 -11.5s-23.833 6.83301 -32.5 17.5c-9.33301 10.667 -13.333 22.834 -12 36.501s7.66602 24.5 18.999 32.5l113 86
c2 1.33301 4 3.16602 6 5.49902s3 5.16602 3 8.49902s-1 6.16602 -3 8.49902s-4 4.16602 -6 5.49902l-113 86c-11.333 8 -17.666 18.833 -18.999 32.5s2.66699 25.834 12 36.501c8.66699 10.667 19.5 16.5 32.5 17.5s25.167 -2.83301 36.5 -11.5l122 -93
c17.333 -13.333 29.5 -26.5 36.5 -39.5s10.5 -27.167 10.5 -42.5zM314 354.002c0 -15.333 -3.5 -29.3311 -10.5 -41.998s-18.833 -25.667 -35.5 -39l-122 -94c-11.333 -8.66699 -23.5 -12.5 -36.5 -11.5s-23.833 6.83301 -32.5 17.5
c-9.33301 10.667 -13.333 22.834 -12 36.501s7.33301 24.5 18 32.5l113 86c2 1.33301 4 3.16602 6 5.49902s3 5.16602 3 8.49902s-1 6.16602 -3 8.49902s-4 4.16602 -6 5.49902l-113 86c-10.667 8 -16.667 18.833 -18 32.5s2.66699 25.834 12 36.501
c8.66699 10.667 19.5 16.5 32.5 17.5s25.167 -2.83301 36.5 -11.5l122 -93c16.667 -13.333 28.5 -26.5 35.5 -39.5s10.5 -27.167 10.5 -42.5z" />
    <glyph glyph-name="onequarter" unicode="&#xbc;" horiz-adv-x="986" 
d="M895 180c11.333 0 21.333 -3.99805 30 -11.998s13 -18 13 -30c0 -12.667 -4 -23 -12 -31s-18.333 -12 -31 -12h-34v-52c0 -11.333 -4.16699 -21.333 -12.5 -30s-18.5 -13 -30.5 -13c-12.667 0 -23 4 -31 12s-12 18.333 -12 31v51h-187c-18.667 0 -34.167 5.5 -46.5 16.5
s-18.5 25.833 -18.5 44.5c0 7.33301 1.5 15.166 4.5 23.499s10.5 19.166 22.5 32.499l191 216c16.667 20 35 30 55 30c19.333 0 35 -6.33301 47 -19s18 -28 18 -46v-212h34zM632 180.002h143v161zM514 701.002c6 14.667 15.501 24.168 28.501 28.501s25.5 3.83301 37.5 -1.5
c11.333 -4.66699 19.5 -13 24.5 -25s4.83301 -24.667 -0.5 -38l-265 -667c-5.33301 -11.333 -13.5 -19.833 -24.5 -25.5s-24.167 -5.83398 -39.5 -0.500977c-11.333 4 -19.833 12.333 -25.5 25s-5.83398 25 -0.500977 37zM158.001 571.003l-55.999 -29.001
c-12 -6 -23.833 -7.5 -35.5 -4.5s-21.167 10.167 -28.5 21.5c-6.66699 10.667 -7.83398 22.667 -3.50098 36s11.833 22.666 22.5 27.999l124 70c4 2.66699 8.33301 4.5 13 5.5s8.66699 1.5 12 1.5c14 0 25.5 -4.83301 34.5 -14.5s13.5 -21.167 13.5 -34.5v-360
c0 -13.333 -4.33301 -24.666 -13 -33.999s-20 -14 -34 -14s-25.667 4.83301 -35 14.5s-14 20.834 -14 33.501v280z" />
    <glyph glyph-name="onehalf" unicode="&#xbd;" horiz-adv-x="971" 
d="M515 701c6 14.667 15.501 24.168 28.501 28.501s25.5 3.83301 37.5 -1.5c11.333 -4.66699 19.5 -13 24.5 -25s4.83301 -24.667 -0.5 -38l-265 -667c-5.33301 -11.333 -13.5 -19.833 -24.5 -25.5s-24.167 -5.83398 -39.5 -0.500977c-11.333 4 -19.833 12.333 -25.5 25
s-5.83398 25 -0.500977 37zM160.001 571.001l-57.999 -29.001c-12 -6 -23.833 -7.5 -35.5 -4.5s-21.167 10.167 -28.5 21.5c-6.66699 10.667 -7.83398 22.667 -3.50098 36s11.833 22.666 22.5 27.999l124 70c4 2.66699 8.33301 4.5 13 5.5s8.66699 1.5 12 1.5
c14 0 25.5 -4.83301 34.5 -14.5s13.5 -21.167 13.5 -34.5v-360c0 -13.333 -4.16699 -24.666 -12.5 -33.999s-19.5 -14 -33.5 -14s-25.5 4.83301 -34.5 14.5s-13.5 20.834 -13.5 33.501v280zM583.002 62c0 26.667 7.83496 51.833 23.502 75.5s40.167 47.5 73.5 71.5
c10.667 8 22.667 16 36 24s26 16.667 38 26s22 19.333 30 30s12 22.667 12 36c0 12 -4.66699 23.5 -14 34.5s-25 16.5 -47 16.5c-16 0 -30 -3.66699 -42 -11s-22 -15.666 -30 -24.999c-3.33301 -3.33301 -8 -7.66602 -14 -12.999s-13.667 -8 -23 -8
c-12.667 0 -23.667 4.16699 -33 12.5s-14 19.5 -14 33.5c0 9.33301 3.66699 19 11 29c12 17.333 30.167 33.333 54.5 48s54.166 22 89.499 22c26 0 48.833 -3.66699 68.5 -11s36 -17 49 -29s22.833 -26 29.5 -42s10 -32.333 10 -49c0 -18 -2.16699 -33.833 -6.5 -47.5
s-11.166 -26.834 -20.499 -39.501s-21.833 -25.334 -37.5 -38.001s-34.834 -26.667 -57.501 -42l-55 -38c-16.667 -12 -26.334 -23.667 -29.001 -35h168c14 0 25.833 -4.16699 35.5 -12.5s14.5 -19.5 14.5 -33.5s-4.83301 -25.167 -14.5 -33.5s-21.5 -12.5 -35.5 -12.5h-208
c-20.667 0 -36.167 5.66699 -46.5 17s-15.5 26 -15.5 44z" />
    <glyph glyph-name="threequarters" unicode="&#xbe;" horiz-adv-x="1071" 
d="M956 95v-35.999c0 -6.66699 -0.666992 -13.5 -2 -20.5s-3.5 -13.333 -6.5 -19s-7.33301 -10.334 -13 -14.001s-12.834 -5.5 -21.501 -5.5c-16.667 0 -27.834 6 -33.501 18s-8.5 25.667 -8.5 41v35h-167c-11.333 0 -22.166 0.833008 -32.499 2.5s-19.5 4.66699 -27.5 9
s-14.333 10.5 -19 18.5s-7 18.333 -7 31c0 9.33301 2.5 18.5 7.5 27.5s16.167 23.5 33.5 43.5l151 172c10 11.333 20.333 22 31 32s22.334 17.333 35.001 22c8 3.33301 16.667 4.33301 26 3c11.333 -0.666992 20.5 -3.5 27.5 -8.5s12.5 -11.5 16.5 -19.5
s6.66699 -16.667 8 -26s2 -19 2 -29v-192h35c11.333 0 21.333 -4 30 -12s13 -18 13 -30c0 -12.667 -4 -23 -12 -31s-18.333 -12 -31 -12h-35zM870 180.001v161l-143 -161h143zM173 455.001c-9.33301 0 -18.001 3.16699 -26.001 9.5s-12 14.833 -12 25.5
s4.33301 20.334 13 29.001l79 81h-125c-13.333 0 -24.333 4.66699 -33 14s-13 20.666 -13 33.999s4.33301 24.333 13 33s19.667 13 33 13h187c15.333 0 28.666 -4.66699 39.999 -14s17 -21.666 17 -36.999c0 -5.33301 -1.16699 -12 -3.5 -20s-9.16602 -18 -20.499 -30
l-56 -59c34 -6.66699 60.167 -21.334 78.5 -44.001s27.5 -50 27.5 -82c0 -53.333 -21.167 -95.5 -63.5 -126.5s-100.833 -46.5 -175.5 -46.5c-8.66699 0 -17.667 0.5 -27 1.5s-17.833 3 -25.5 6s-14 7.5 -19 13.5s-7.5 14.333 -7.5 25c0 13.333 4.33301 24.5 13 33.5
s20 13.5 34 13.5c5.33301 0 11.333 -0.5 18 -1.5s14 -1.5 22 -1.5c42.667 0 76.167 7.33301 100.5 22s36.5 34.667 36.5 60c0 16.667 -5.5 29.667 -16.5 39s-26.167 14 -45.5 14c-8.66699 0 -16.667 -0.833008 -24 -2.5s-13.666 -2.5 -18.999 -2.5zM609.999 701.001
c6 14.667 15.501 24.168 28.501 28.501s25.5 3.83301 37.5 -1.5c11.333 -4.66699 19.5 -13 24.5 -25s4.83301 -24.667 -0.5 -38l-265 -667c-5.33301 -11.333 -13.5 -19.833 -24.5 -25.5s-24.167 -5.83398 -39.5 -0.500977c-11.333 4 -19.833 12.333 -25.5 25
s-5.83398 25 -0.500977 37z" />
    <glyph glyph-name="questiondown" unicode="&#xbf;" horiz-adv-x="555" 
d="M402.009 158.033c4.66699 4.66699 10.501 9.33008 17.5 13.9961c6.99902 4.66699 15.498 7 25.4971 7c15.333 0 27.999 -5.5 37.998 -16.499s14.999 -23.498 14.999 -37.4971c0 -10.666 -5 -22.665 -14.999 -35.998c-25.332 -31.998 -56.4971 -56.6631 -93.4941 -73.9951
c-36.998 -17.332 -77.4951 -25.998 -121.492 -25.998c-31.999 0 -61.1641 5 -87.4951 14.999c-26.332 9.99902 -48.8311 23.665 -67.4961 40.9971s-33.1641 37.9971 -43.4971 61.9961s-15.499 50.3311 -15.499 78.9961c0 31.998 4.5 60.3301 13.499 84.9951
s22.332 46.9971 39.998 66.9961c17.665 19.999 39.6631 38.498 65.9941 55.4971c26.332 16.999 57.1641 33.8311 92.4951 50.4961c12.665 5.33301 24.6641 8 35.9971 8c12.666 0 23.999 -4.5 33.998 -13.5c9.99902 -8.99902 14.999 -20.165 14.999 -33.4971
c0 -12.666 -3.33301 -22.999 -9.99902 -30.999c-6.66602 -7.99902 -15.332 -14.665 -25.998 -19.998c-27.332 -11.999 -50.8311 -23.498 -70.4961 -34.4971s-35.8311 -22.832 -48.4971 -35.498s-21.999 -26.165 -27.998 -40.4971c-6 -14.333 -9 -31.165 -9 -50.4971
c0 -28.665 9.5 -52.6641 28.499 -71.9961s45.8311 -28.998 80.4961 -28.998c29.3311 0 54.1631 5.16602 74.4951 15.499s40.1641 27.165 59.4961 50.4971zM348.013 611.003c0 -13.333 -4.83301 -24.666 -14.499 -33.999s-21.498 -13.999 -35.4971 -13.999
s-25.998 4.66602 -35.9971 13.999s-14.999 20.666 -14.999 33.999v49.9971c0 13.332 5 24.8311 14.999 34.4971c9.99902 9.66699 21.998 14.5 35.9971 14.5s25.8311 -4.83301 35.4971 -14.5c9.66602 -9.66602 14.499 -21.165 14.499 -34.4971v-49.9971z" />
    <glyph glyph-name="Agrave" unicode="&#xc0;" horiz-adv-x="683" 
d="M660 54c0 -13.333 -4.66797 -25.999 -14.001 -37.999s-22.333 -18 -39 -18c-11.333 0 -21.5 3 -30.5 9s-15.5 14.667 -19.5 26l-66 187h-300l-66 -188c-4 -10.667 -10.667 -19 -20 -25s-19.333 -9 -30 -9c-16.667 0 -29.5 5.66699 -38.5 17s-13.5 23.666 -13.5 36.999
c0 7.33301 1 14 3 20l200 556c10 29.333 25.333 51 46 65s44 21 70 21c25.333 0 48.333 -7 69 -21s36.334 -35.667 47.001 -65l199 -556c2 -6 3 -12 3 -18zM224.999 318.001h232l-95 271c-3.33301 10 -10 15 -20 15c-10.667 0 -17.667 -5 -21 -15zM383.999 834.001
c16 -8.66699 24 -21.333 24 -38c0 -11.333 -4.16699 -21.333 -12.5 -30s-18.166 -13 -29.499 -13c-4 0 -7.83301 0.666992 -11.5 2l-10.5 4l-135 70c-16.667 8 -25 20.333 -25 37c0 12 4.16699 22.333 12.5 31s18.166 13 29.499 13c8.66699 0 16 -2 22 -6z" />
    <glyph glyph-name="Aacute" unicode="&#xc1;" horiz-adv-x="683" 
d="M660 54c0 -13.333 -4.66797 -25.999 -14.001 -37.999s-22.333 -18 -39 -18c-11.333 0 -21.5 3 -30.5 9s-15.5 14.667 -19.5 26l-66 187h-300l-66 -188c-4 -10.667 -10.667 -19 -20 -25s-19.333 -9 -30 -9c-16.667 0 -29.5 5.66699 -38.5 17s-13.5 23.666 -13.5 36.999
c0 7.33301 1 14 3 20l200 556c10 29.333 25.333 51 46 65s44 21 70 21c25.333 0 48.333 -7 69 -21s36.334 -35.667 47.001 -65l199 -556c2 -6 3 -12 3 -18zM224.999 318.001h232l-95 271c-3.33301 10 -10 15 -20 15c-10.667 0 -17.667 -5 -21 -15zM427.999 904.001
c6.66699 4 14 5.99902 22 5.99902c11.333 0 21.166 -4.33301 29.499 -13s12.5 -19 12.5 -31c0 -16 -8 -28.333 -24 -37l-136 -70l-10.5 -4c-3.66699 -1.33301 -7.5 -2 -11.5 -2c-11.333 0 -21.166 4.33301 -29.499 13s-12.5 18.667 -12.5 30
c0 16.667 8.33301 29.334 25 38.001z" />
    <glyph glyph-name="Acircumflex" unicode="&#xc2;" horiz-adv-x="683" 
d="M660 54c0 -13.333 -4.66797 -25.999 -14.001 -37.999s-22.333 -18 -39 -18c-11.333 0 -21.5 3 -30.5 9s-15.5 14.667 -19.5 26l-66 187h-300l-66 -188c-4 -10.667 -10.667 -19 -20 -25s-19.333 -9 -30 -9c-16.667 0 -29.5 5.66699 -38.5 17s-13.5 23.666 -13.5 36.999
c0 7.33301 1 14 3 20l200 556c10 29.333 25.333 51 46 65s44 21 70 21c25.333 0 48.333 -7 69 -21s36.334 -35.667 47.001 -65l199 -556c2 -6 3 -12 3 -18zM224.999 318.001h232l-95 271c-3.33301 10 -10 15 -20 15c-10.667 0 -17.667 -5 -21 -15zM474.999 831.001
c12.667 -9.33301 18.999 -21 18.999 -35c0 -11.333 -4.16699 -21.333 -12.5 -30s-18.5 -13 -30.5 -13c-5.33301 0 -10 0.833008 -14 2.5s-8.66699 4.16699 -14 7.5l-81 62l-81 -62c-10 -6.66699 -19.333 -10 -28 -10c-11.333 0 -21.166 4.33301 -29.499 13
s-12.5 18.667 -12.5 30c0 14 6.33301 25.667 19 35l99 75c10.667 9.33301 21.667 14 33 14c10.667 0 21.667 -4.66699 33 -14z" />
    <glyph glyph-name="Atilde" unicode="&#xc3;" horiz-adv-x="683" 
d="M660 54c0 -13.333 -4.66797 -25.999 -14.001 -37.999s-22.333 -18 -39 -18c-11.333 0 -21.5 3 -30.5 9s-15.5 14.667 -19.5 26l-66 187h-300l-66 -188c-4 -10.667 -10.667 -19 -20 -25s-19.333 -9 -30 -9c-16.667 0 -29.5 5.66699 -38.5 17s-13.5 23.666 -13.5 36.999
c0 7.33301 1 14 3 20l200 556c10 29.333 25.333 51 46 65s44 21 70 21c25.333 0 48.333 -7 69 -21s36.334 -35.667 47.001 -65l199 -556c2 -6 3 -12 3 -18zM224.999 318.001h232l-95 271c-3.33301 10 -10 15 -20 15c-10.667 0 -17.667 -5 -21 -15zM396.999 837.001
c7.33301 0 13.498 1.49805 18.498 4.49805s9.83301 6.33301 14.5 10s9.33398 7 14.001 10s10.334 4.5 17.001 4.5c11.333 0 20.666 -4.16699 27.999 -12.5s11 -17.833 11 -28.5c0 -7.33301 -1.66699 -13.5 -5 -18.5s-7.33301 -9.83301 -12 -14.5
c-12.667 -11.333 -25.834 -20.5 -39.501 -27.5s-27.167 -10.5 -40.5 -10.5c-12 0 -23.333 1.83301 -34 5.5s-20.834 7.83398 -30.501 12.501s-18.834 8.83398 -27.501 12.501s-17 5.5 -25 5.5c-7.33301 0 -13.5 -1.5 -18.5 -4.5s-9.66699 -6.16699 -14 -9.5
s-9 -6.5 -14 -9.5s-10.833 -4.5 -17.5 -4.5c-11.333 0 -20.666 4.16699 -27.999 12.5s-11 17.833 -11 28.5c0 7.33301 1.66699 13.5 5 18.5s7.33301 9.83301 12 14.5c12.667 11.333 25.834 20.5 39.501 27.5s27.167 10.5 40.5 10.5c12.667 0 24.334 -2 35.001 -6
s20.834 -8.16699 30.501 -12.5l27 -12.5c8.33301 -4 16.5 -6 24.5 -6z" />
    <glyph glyph-name="Adieresis" unicode="&#xc4;" horiz-adv-x="683" 
d="M660 54c0 -13.333 -4.66797 -25.999 -14.001 -37.999s-22.333 -18 -39 -18c-11.333 0 -21.5 3 -30.5 9s-15.5 14.667 -19.5 26l-66 187h-300l-66 -188c-4 -10.667 -10.667 -19 -20 -25s-19.333 -9 -30 -9c-16.667 0 -29.5 5.66699 -38.5 17s-13.5 23.666 -13.5 36.999
c0 7.33301 1 14 3 20l200 556c10 29.333 25.333 51 46 65s44 21 70 21c25.333 0 48.333 -7 69 -21s36.334 -35.667 47.001 -65l199 -556c2 -6 3 -12 3 -18zM224.999 318.001h232l-95 271c-3.33301 10 -10 15 -20 15c-10.667 0 -17.667 -5 -21 -15zM257.999 868.001
c15.333 0 28.166 -5.16699 38.499 -15.5s15.5 -23.166 15.5 -38.499s-5.16699 -28.333 -15.5 -39s-23.166 -16 -38.499 -16s-28.166 5.33301 -38.499 16s-15.5 23.667 -15.5 39s5.16699 28.166 15.5 38.499s23.166 15.5 38.499 15.5zM425.999 868.001
c15.333 0 28.166 -5.16699 38.499 -15.5s15.5 -23.166 15.5 -38.499s-5.16699 -28.333 -15.5 -39s-23.166 -16 -38.499 -16s-28.166 5.33301 -38.499 16s-15.5 23.667 -15.5 39s5.16699 28.166 15.5 38.499s23.166 15.5 38.499 15.5z" />
    <glyph glyph-name="Aring" unicode="&#xc5;" horiz-adv-x="683" 
d="M660 54c0 -13.333 -4.66797 -25.999 -14.001 -37.999s-22.333 -18 -39 -18c-11.333 0 -21.5 3 -30.5 9s-15.5 14.667 -19.5 26l-66 187h-300l-66 -188c-4 -10.667 -10.667 -19 -20 -25s-19.333 -9 -30 -9c-16.667 0 -29.5 5.66699 -38.5 17s-13.5 23.666 -13.5 36.999
c0 7.33301 1 14 3 20l200 556c10 29.333 25.333 51 46 65s44 21 70 21c25.333 0 48.333 -7 69 -21s36.334 -35.667 47.001 -65l199 -556c2 -6 3 -12 3 -18zM224.999 318.001h232l-95 271c-3.33301 10 -10 15 -20 15c-10.667 0 -17.667 -5 -21 -15zM237.999 857.001
c0 14 2.66699 27.333 8 40s12.833 23.5 22.5 32.5s20.667 16.167 33 21.5s25.5 8 39.5 8s27.333 -2.66699 40 -8s23.834 -12.5 33.501 -21.5s17.167 -19.833 22.5 -32.5s8 -26 8 -40s-2.66699 -27.333 -8 -40s-12.833 -23.667 -22.5 -33s-20.834 -16.666 -33.501 -21.999
s-26 -8 -40 -8s-27.167 2.66699 -39.5 8s-23.333 12.666 -33 21.999s-17.167 20.333 -22.5 33s-8 26 -8 40zM299.999 857.001c0 -12 4 -22.167 12 -30.5s17.667 -12.5 29 -12.5s21.166 4.16699 29.499 12.5s12.5 18.5 12.5 30.5c0 11.333 -4.16699 21.166 -12.5 29.499
s-18.166 12.5 -29.499 12.5s-21 -4.16699 -29 -12.5s-12 -18.166 -12 -29.499z" />
    <glyph glyph-name="AE" unicode="&#xc6;" horiz-adv-x="1055" 
d="M519 229l-264.001 0.000976562l-140 -209c-8 -12 -19 -19.333 -33 -22s-27 -0.333984 -39 6.99902c-12.667 7.33301 -20.667 18.333 -24 33s-1 27.667 7 39l378 559c17.333 26 36.333 43.667 57 53s46.667 14 78 14h399c15.333 0 28.333 -5 39 -15s16 -22.667 16 -38
c0 -14.667 -5.5 -27.167 -16.5 -37.5s-23.833 -15.5 -38.5 -15.5h-312v-194h303c14 0 26 -4.5 36 -13.5s15 -20.833 15 -35.5c0 -13.333 -5.16699 -25 -15.5 -35s-22.166 -15 -35.499 -15h-303v-198h314c14.667 0 27.5 -5.16699 38.5 -15.5s16.5 -22.833 16.5 -37.5
c0 -15.333 -5.33301 -28 -16 -38s-23.667 -15 -39 -15h-338c-27.333 0 -48 8 -62 24s-21 35.333 -21 58v147zM319.999 327.001l199.001 -0.000976562v270c-5.33301 0 -10.333 -1.66699 -15 -5s-10.334 -9.66602 -17.001 -18.999z" />
    <glyph glyph-name="Ccedilla" unicode="&#xc7;" horiz-adv-x="664" 
d="M567 229c12 0 23.666 -4.66211 34.999 -13.9951s17 -21.333 17 -36c0 -4.66699 -0.333008 -9 -1 -13s-2.33398 -8.66699 -5.00098 -14c-9.33301 -22.667 -21.666 -43.334 -36.999 -62.001s-32.833 -34.834 -52.5 -48.501s-41.167 -24.834 -64.5 -33.501
s-47.333 -14.334 -72 -17.001l-12 -33c30 -2 53.167 -11.833 69.5 -29.5s24.5 -39.5 24.5 -65.5c0 -16.667 -3.33301 -31.667 -10 -45s-15.834 -25.5 -27.501 -36.5s-25.167 -20.667 -40.5 -29s-31.666 -15.5 -48.999 -21.5c-6 -2 -12.167 -3 -18.5 -3
s-12.333 1.33301 -18 4s-10.334 6.83398 -14.001 12.501s-5.5 12.834 -5.5 21.501c0 6 1.66699 12.333 5 19s11 12.334 23 17.001c16 6 28.833 11.667 38.5 17s17.167 10.166 22.5 14.499s8.83301 8.66602 10.5 12.999s2.5 9.16602 2.5 14.499s-2.5 11.166 -7.5 17.499
s-12.5 9.5 -22.5 9.5c-7.33301 0 -12.833 -0.666992 -16.5 -2s-8.83398 -2 -15.501 -2c-12 0 -21.667 5.16699 -29 15.5s-8.33301 21.5 -3 33.5l21 60c-36 4 -68.833 14 -98.5 30s-55.334 36.167 -77.001 60.5s-39 52.5 -52 84.5s-20.833 66.333 -23.5 103
c-5.33301 54 -5.33301 107.333 0 160c2.66699 39.333 11.667 76.166 27 110.499s35.833 64.166 61.5 89.499s55.5 45.333 89.5 60s71.667 22 113 22c28 0 55.333 -3.83301 82 -11.5s51.334 -18.5 74.001 -32.5s42.834 -31 60.501 -51s31.5 -42.667 41.5 -68
c2.66699 -5.33301 4.33398 -10 5.00098 -14s1 -8.33301 1 -13c0 -14.667 -5.66699 -26.667 -17 -36s-23 -14 -35 -14c-13.333 0 -23.666 3.33301 -30.999 10s-13.333 14 -18 22c-14.667 32.667 -36.334 58.334 -65.001 77.001s-61.334 28 -98.001 28
c-26.667 0 -50.834 -4.83301 -72.501 -14.5s-40.334 -22.834 -56.001 -39.501s-28.334 -36.667 -38.001 -60s-15.5 -48.333 -17.5 -75c-3.33301 -47.333 -3.33301 -94.666 0 -141.999c2 -27.333 7.83301 -52.5 17.5 -75.5s22.334 -42.667 38.001 -59
s34.334 -29.166 56.001 -38.499s45.834 -14 72.501 -14c36.667 0 69.334 9.5 98.001 28.5s50.334 44.5 65.001 76.5c5.33301 9.33301 11.5 17 18.5 23s17.167 9 30.5 9z" />
    <glyph glyph-name="Egrave" unicode="&#xc8;" horiz-adv-x="627" 
d="M509 703c15.333 0 28.332 -4.83496 38.999 -14.502s16 -22.167 16 -37.5s-5.5 -28.166 -16.5 -38.499s-23.833 -15.5 -38.5 -15.5h-310v-193h302c14 0 25.833 -4.66699 35.5 -14s14.5 -21.333 14.5 -36c0 -13.333 -5 -25 -15 -35s-21.667 -15 -35 -15h-302v-198h313
c14 0 26.5 -5.16699 37.5 -15.5s16.5 -22.833 16.5 -37.5c0 -15.333 -5.16699 -28 -15.5 -38s-23.166 -15 -38.499 -15h-338c-27.333 0 -48 8 -62 24s-21 35.333 -21 58v540c0 22.667 7 41.834 21 57.501s34.667 23.5 62 23.5h335zM384.999 833.998
c16 -8.66699 24 -21.333 24 -38c0 -11.333 -4.16699 -21.333 -12.5 -30s-18.166 -13 -29.499 -13c-4 0 -7.83301 0.666992 -11.5 2l-10.5 4l-135 70c-16.667 8 -25 20.333 -25 37c0 12 4.16699 22.333 12.5 31s18.166 13 29.499 13c8.66699 0 16 -2 22 -6z" />
    <glyph glyph-name="Eacute" unicode="&#xc9;" horiz-adv-x="627" 
d="M509 703c15.333 0 28.332 -4.83496 38.999 -14.502s16 -22.167 16 -37.5s-5.5 -28.166 -16.5 -38.499s-23.833 -15.5 -38.5 -15.5h-310v-193h302c14 0 25.833 -4.66699 35.5 -14s14.5 -21.333 14.5 -36c0 -13.333 -5 -25 -15 -35s-21.667 -15 -35 -15h-302v-198h313
c14 0 26.5 -5.16699 37.5 -15.5s16.5 -22.833 16.5 -37.5c0 -15.333 -5.16699 -28 -15.5 -38s-23.166 -15 -38.499 -15h-338c-27.333 0 -48 8 -62 24s-21 35.333 -21 58v540c0 22.667 7 41.834 21 57.501s34.667 23.5 62 23.5h335zM379.999 903.998
c6.66699 4 14 5.99902 22 5.99902c11.333 0 21.166 -4.33301 29.499 -13s12.5 -19 12.5 -31c0 -16 -8 -28.333 -24 -37l-136 -70l-10.5 -4c-3.66699 -1.33301 -7.5 -2 -11.5 -2c-11.333 0 -21.166 4.33301 -29.499 13s-12.5 18.667 -12.5 30
c0 16.667 8.33301 29.334 25 38.001z" />
    <glyph glyph-name="Ecircumflex" unicode="&#xca;" horiz-adv-x="627" 
d="M509 703c15.333 0 28.332 -4.83496 38.999 -14.502s16 -22.167 16 -37.5s-5.5 -28.166 -16.5 -38.499s-23.833 -15.5 -38.5 -15.5h-310v-193h302c14 0 25.833 -4.66699 35.5 -14s14.5 -21.333 14.5 -36c0 -13.333 -5 -25 -15 -35s-21.667 -15 -35 -15h-302v-198h313
c14 0 26.5 -5.16699 37.5 -15.5s16.5 -22.833 16.5 -37.5c0 -15.333 -5.16699 -28 -15.5 -38s-23.166 -15 -38.499 -15h-338c-27.333 0 -48 8 -62 24s-21 35.333 -21 58v540c0 22.667 7 41.834 21 57.501s34.667 23.5 62 23.5h335zM463.999 830.998
c12.667 -9.33301 18.999 -21 18.999 -35c0 -11.333 -4.16699 -21.333 -12.5 -30s-18.5 -13 -30.5 -13c-5.33301 0 -10 0.833008 -14 2.5s-8.66699 4.16699 -14 7.5l-81 62l-81 -62c-10 -6.66699 -19.333 -10 -28 -10c-11.333 0 -21.166 4.33301 -29.499 13
s-12.5 18.667 -12.5 30c0 14 6.33301 25.667 19 35l99 75c10.667 9.33301 21.667 14 33 14c10.667 0 21.667 -4.66699 33 -14z" />
    <glyph glyph-name="Edieresis" unicode="&#xcb;" horiz-adv-x="627" 
d="M509 703c15.333 0 28.332 -4.83496 38.999 -14.502s16 -22.167 16 -37.5s-5.5 -28.166 -16.5 -38.499s-23.833 -15.5 -38.5 -15.5h-310v-193h302c14 0 25.833 -4.66699 35.5 -14s14.5 -21.333 14.5 -36c0 -13.333 -5 -25 -15 -35s-21.667 -15 -35 -15h-302v-198h313
c14 0 26.5 -5.16699 37.5 -15.5s16.5 -22.833 16.5 -37.5c0 -15.333 -5.16699 -28 -15.5 -38s-23.166 -15 -38.499 -15h-338c-27.333 0 -48 8 -62 24s-21 35.333 -21 58v540c0 22.667 7 41.834 21 57.501s34.667 23.5 62 23.5h335zM249.999 867.998
c15.333 0 28.166 -5.16699 38.499 -15.5s15.5 -23.166 15.5 -38.499s-5.16699 -28.333 -15.5 -39s-23.166 -16 -38.499 -16s-28.166 5.33301 -38.499 16s-15.5 23.667 -15.5 39s5.16699 28.166 15.5 38.499s23.166 15.5 38.499 15.5zM417.999 867.998
c15.333 0 28.166 -5.16699 38.499 -15.5s15.5 -23.166 15.5 -38.499s-5.16699 -28.333 -15.5 -39s-23.166 -16 -38.499 -16s-28.166 5.33301 -38.499 16s-15.5 23.667 -15.5 39s5.16699 28.166 15.5 38.499s23.166 15.5 38.499 15.5z" />
    <glyph glyph-name="Igrave" unicode="&#xcc;" horiz-adv-x="285" 
d="M89 651c0 15.333 5.33301 28.333 16 39s23.334 16 38.001 16c15.333 0 28.166 -5.33301 38.499 -16s15.5 -23.667 15.5 -39v-600c0 -15.333 -5.16699 -28.333 -15.5 -39s-23.166 -16 -38.499 -16c-14.667 0 -27.334 5.33301 -38.001 16s-16 23.667 -16 39v600zM190 834
c16 -8.66699 24 -21.333 24 -38c0 -11.333 -4.16699 -21.333 -12.5 -30s-18.166 -13 -29.499 -13c-4 0 -7.83301 0.666992 -11.5 2l-10.5 4l-135 70c-16.667 8 -25 20.333 -25 37c0 12 4.16699 22.333 12.5 31s18.166 13 29.499 13c8.66699 0 16 -2 22 -6z" />
    <glyph glyph-name="Iacute" unicode="&#xcd;" horiz-adv-x="285" 
d="M89 651c0 15.333 5.33301 28.333 16 39s23.334 16 38.001 16c15.333 0 28.166 -5.33301 38.499 -16s15.5 -23.667 15.5 -39v-600c0 -15.333 -5.16699 -28.333 -15.5 -39s-23.166 -16 -38.499 -16c-14.667 0 -27.334 5.33301 -38.001 16s-16 23.667 -16 39v600zM222 904
c6.66699 4 14 5.99902 22 5.99902c11.333 0 21.166 -4.33301 29.499 -13s12.5 -19 12.5 -31c0 -16 -8 -28.333 -24 -37l-136 -70l-10.5 -4c-3.66699 -1.33301 -7.5 -2 -11.5 -2c-11.333 0 -21.166 4.33301 -29.499 13s-12.5 18.667 -12.5 30
c0 16.667 8.33301 29.334 25 38.001z" />
    <glyph glyph-name="Icircumflex" unicode="&#xce;" horiz-adv-x="285" 
d="M89 651c0 15.333 5.33301 28.333 16 39s23.334 16 38.001 16c15.333 0 28.166 -5.33301 38.499 -16s15.5 -23.667 15.5 -39v-600c0 -15.333 -5.16699 -28.333 -15.5 -39s-23.166 -16 -38.499 -16c-14.667 0 -27.334 5.33301 -38.001 16s-16 23.667 -16 39v600zM275 831
c12.667 -9.33301 18.999 -21 18.999 -35c0 -11.333 -4.16699 -21.333 -12.5 -30s-18.5 -13 -30.5 -13c-5.33301 0 -10 0.833008 -14 2.5s-8.66699 4.16699 -14 7.5l-81 62l-81 -62c-10 -6.66699 -19.333 -10 -28 -10c-11.333 0 -21.166 4.33301 -29.499 13
s-12.5 18.667 -12.5 30c0 14 6.33301 25.667 19 35l99 75c10.667 9.33301 21.667 14 33 14c10.667 0 21.667 -4.66699 33 -14z" />
    <glyph glyph-name="Idieresis" unicode="&#xcf;" horiz-adv-x="285" 
d="M89 651c0 15.333 5.33301 28.333 16 39s23.334 16 38.001 16c15.333 0 28.166 -5.33301 38.499 -16s15.5 -23.667 15.5 -39v-600c0 -15.333 -5.16699 -28.333 -15.5 -39s-23.166 -16 -38.499 -16c-14.667 0 -27.334 5.33301 -38.001 16s-16 23.667 -16 39v600zM60 868
c15.333 0 28.166 -5.16699 38.499 -15.5s15.5 -23.166 15.5 -38.499s-5.16699 -28.333 -15.5 -39s-23.166 -16 -38.499 -16s-28.166 5.33301 -38.499 16s-15.5 23.667 -15.5 39s5.16699 28.166 15.5 38.499s23.166 15.5 38.499 15.5zM228 868
c15.333 0 28.166 -5.16699 38.499 -15.5s15.5 -23.166 15.5 -38.499s-5.16699 -28.333 -15.5 -39s-23.166 -16 -38.499 -16s-28.166 5.33301 -38.499 16s-15.5 23.667 -15.5 39s5.16699 28.166 15.5 38.499s23.166 15.5 38.499 15.5z" />
    <glyph glyph-name="Eth" unicode="&#xd0;" horiz-adv-x="719" 
d="M173 0c-26.667 0 -46.999 7.83398 -60.999 23.501s-21 35.167 -21 58.5v219h-51c-14 0 -25.667 4.83301 -35 14.5s-14 21.167 -14 34.5s4.5 24.666 13.5 33.999s20.833 14 35.5 14h51v224c0 23.333 6.83301 42.666 20.5 57.999s34.167 23 61.5 23h161
c52 0 97.5 -7.33301 136.5 -22s71.833 -35 98.5 -61s47 -57.167 61 -93.5s22.333 -75.833 25 -118.5c1.33301 -18 2.16602 -36.5 2.49902 -55.5s-0.166992 -36.833 -1.5 -53.5c-2.66699 -43.333 -11 -83.166 -25 -119.499s-34.333 -67.833 -61 -94.5
s-59.5 -47.5 -98.5 -62.5s-84.833 -22.5 -137.5 -22.5h-161zM548.001 303.001c1.33301 15.333 2.16699 31.5 2.5 48.5s-0.166992 32.167 -1.5 45.5c-3.33301 61.333 -21.833 110 -55.5 146s-86.5 54 -158.5 54h-137v-199h137c14 0 25.5 -4.66699 34.5 -14
s13.5 -20.666 13.5 -33.999s-4.5 -24.833 -13.5 -34.5s-20.5 -14.5 -34.5 -14.5h-137v-195h137c35.333 0 66 4.66699 92 14s47.667 22.666 65 39.999s30.5 38 39.5 62s14.5 51 16.5 81z" />
    <glyph glyph-name="Ntilde" unicode="&#xd1;" horiz-adv-x="768" 
d="M572 136l1.99707 -0.00195312c-0.666992 20 -1.5 43 -2.5 69s-1.5 55 -1.5 87v359c0 15.333 5.33301 28.333 16 39s23.334 16 38.001 16c15.333 0 28 -5.33301 38 -16s15 -23.667 15 -39v-566c0 -24 -7.5 -44.667 -22.5 -62s-35.167 -26 -60.5 -26
c-15.333 0 -30.333 3.5 -45 10.5s-27 18.833 -37 35.5l-315 528h-3c0.666992 -21.333 1.5 -46.166 2.5 -74.499s1.5 -57.166 1.5 -86.499v-358c0 -15.333 -5.16699 -28.333 -15.5 -39s-23.166 -16 -38.499 -16c-14.667 0 -27.167 5.5 -37.5 16.5s-15.5 23.833 -15.5 38.5
v563c0 25.333 7.83301 46.666 23.5 63.999s36.167 26 61.5 26c16 0 31.333 -3.66699 46 -11s27.334 -19.666 38.001 -36.999zM446.997 838.998c7.33301 0 13.498 1.49805 18.498 4.49805s9.83301 6.33301 14.5 10s9.33398 7 14.001 10s10.334 4.5 17.001 4.5
c11.333 0 20.666 -4.16699 27.999 -12.5s11 -17.833 11 -28.5c0 -7.33301 -1.66699 -13.5 -5 -18.5s-7.33301 -9.83301 -12 -14.5c-12.667 -11.333 -25.834 -20.5 -39.501 -27.5s-27.167 -10.5 -40.5 -10.5c-12 0 -23.333 1.83301 -34 5.5s-20.834 7.83398 -30.501 12.501
s-18.834 8.83398 -27.501 12.501s-17 5.5 -25 5.5c-7.33301 0 -13.5 -1.5 -18.5 -4.5s-9.66699 -6.16699 -14 -9.5s-9 -6.5 -14 -9.5s-10.833 -4.5 -17.5 -4.5c-11.333 0 -20.666 4.16699 -27.999 12.5s-11 17.833 -11 28.5c0 7.33301 1.66699 13.5 5 18.5
s7.33301 9.83301 12 14.5c12.667 11.333 25.834 20.5 39.501 27.5s27.167 10.5 40.5 10.5c12.667 0 24.334 -2 35.001 -6s20.834 -8.16699 30.501 -12.5l27 -12.5c8.33301 -4 16.5 -6 24.5 -6z" />
    <glyph glyph-name="Ograve" unicode="&#xd2;" horiz-adv-x="731" 
d="M365 -11c-41.333 0 -79.666 7.16602 -114.999 21.499s-66.333 34.166 -93 59.499s-48.167 55.166 -64.5 89.499s-25.833 71.5 -28.5 111.5c-5.33301 54 -5.33301 107.333 0 160c2.66699 39.333 12.167 76.166 28.5 110.499s37.833 64.166 64.5 89.499
s57.667 45.333 93 60s73.666 22 114.999 22c40.667 0 78.834 -7.33301 114.501 -22s67 -34.667 94 -60s48.667 -55.166 65 -89.499s25.833 -71.166 28.5 -110.499c5.33301 -53.333 5.33301 -106.666 0 -159.999c-2.66699 -40 -12.167 -77.167 -28.5 -111.5
s-38 -64.166 -65 -89.499s-58.333 -45.166 -94 -59.499s-73.834 -21.5 -114.501 -21.5zM365 91.999c26.667 0 51.501 4.66699 74.501 14s43 22.333 60 39s30.833 36.5 41.5 59.5s17 48.167 19 75.5c4 47.333 4 95 0 143c-2 26.667 -8.33301 51.5 -19 74.5s-24.667 43 -42 60
s-37.333 30.167 -60 39.5s-47.334 14 -74.001 14s-51.334 -4.66699 -74.001 -14s-42.5 -22.5 -59.5 -39.5s-30.833 -37 -41.5 -60s-17 -47.833 -19 -74.5c-4 -48 -4 -95.667 0 -143c2 -27.333 8.33301 -52.5 19 -75.5s24.5 -42.833 41.5 -59.5s36.833 -29.667 59.5 -39
s47.334 -14 74.001 -14zM423.001 833.999c16 -8.66699 24 -21.333 24 -38c0 -11.333 -4.16699 -21.333 -12.5 -30s-18.166 -13 -29.499 -13c-4 0 -7.83301 0.666992 -11.5 2l-10.5 4l-135 70c-16.667 8 -25 20.333 -25 37c0 12 4.16699 22.333 12.5 31s18.166 13 29.499 13
c8.66699 0 16 -2 22 -6z" />
    <glyph glyph-name="Oacute" unicode="&#xd3;" horiz-adv-x="731" 
d="M365 -11c-41.333 0 -79.666 7.16602 -114.999 21.499s-66.333 34.166 -93 59.499s-48.167 55.166 -64.5 89.499s-25.833 71.5 -28.5 111.5c-5.33301 54 -5.33301 107.333 0 160c2.66699 39.333 12.167 76.166 28.5 110.499s37.833 64.166 64.5 89.499
s57.667 45.333 93 60s73.666 22 114.999 22c40.667 0 78.834 -7.33301 114.501 -22s67 -34.667 94 -60s48.667 -55.166 65 -89.499s25.833 -71.166 28.5 -110.499c5.33301 -53.333 5.33301 -106.666 0 -159.999c-2.66699 -40 -12.167 -77.167 -28.5 -111.5
s-38 -64.166 -65 -89.499s-58.333 -45.166 -94 -59.499s-73.834 -21.5 -114.501 -21.5zM365 91.999c26.667 0 51.501 4.66699 74.501 14s43 22.333 60 39s30.833 36.5 41.5 59.5s17 48.167 19 75.5c4 47.333 4 95 0 143c-2 26.667 -8.33301 51.5 -19 74.5s-24.667 43 -42 60
s-37.333 30.167 -60 39.5s-47.334 14 -74.001 14s-51.334 -4.66699 -74.001 -14s-42.5 -22.5 -59.5 -39.5s-30.833 -37 -41.5 -60s-17 -47.833 -19 -74.5c-4 -48 -4 -95.667 0 -143c2 -27.333 8.33301 -52.5 19 -75.5s24.5 -42.833 41.5 -59.5s36.833 -29.667 59.5 -39
s47.334 -14 74.001 -14zM439.001 903.999c6.66699 4 14 5.99902 22 5.99902c11.333 0 21.166 -4.33301 29.499 -13s12.5 -19 12.5 -31c0 -16 -8 -28.333 -24 -37l-136 -70l-10.5 -4c-3.66699 -1.33301 -7.5 -2 -11.5 -2c-11.333 0 -21.166 4.33301 -29.499 13
s-12.5 18.667 -12.5 30c0 16.667 8.33301 29.334 25 38.001z" />
    <glyph glyph-name="Ocircumflex" unicode="&#xd4;" horiz-adv-x="731" 
d="M365 -11c-41.333 0 -79.666 7.16602 -114.999 21.499s-66.333 34.166 -93 59.499s-48.167 55.166 -64.5 89.499s-25.833 71.5 -28.5 111.5c-5.33301 54 -5.33301 107.333 0 160c2.66699 39.333 12.167 76.166 28.5 110.499s37.833 64.166 64.5 89.499
s57.667 45.333 93 60s73.666 22 114.999 22c40.667 0 78.834 -7.33301 114.501 -22s67 -34.667 94 -60s48.667 -55.166 65 -89.499s25.833 -71.166 28.5 -110.499c5.33301 -53.333 5.33301 -106.666 0 -159.999c-2.66699 -40 -12.167 -77.167 -28.5 -111.5
s-38 -64.166 -65 -89.499s-58.333 -45.166 -94 -59.499s-73.834 -21.5 -114.501 -21.5zM365 91.999c26.667 0 51.501 4.66699 74.501 14s43 22.333 60 39s30.833 36.5 41.5 59.5s17 48.167 19 75.5c4 47.333 4 95 0 143c-2 26.667 -8.33301 51.5 -19 74.5s-24.667 43 -42 60
s-37.333 30.167 -60 39.5s-47.334 14 -74.001 14s-51.334 -4.66699 -74.001 -14s-42.5 -22.5 -59.5 -39.5s-30.833 -37 -41.5 -60s-17 -47.833 -19 -74.5c-4 -48 -4 -95.667 0 -143c2 -27.333 8.33301 -52.5 19 -75.5s24.5 -42.833 41.5 -59.5s36.833 -29.667 59.5 -39
s47.334 -14 74.001 -14zM500.001 830.999c12.667 -9.33301 18.999 -21 18.999 -35c0 -11.333 -4.16699 -21.333 -12.5 -30s-18.5 -13 -30.5 -13c-5.33301 0 -10 0.833008 -14 2.5s-8.66699 4.16699 -14 7.5l-81 62l-81 -62c-10 -6.66699 -19.333 -10 -28 -10
c-11.333 0 -21.166 4.33301 -29.499 13s-12.5 18.667 -12.5 30c0 14 6.33301 25.667 19 35l99 75c10.667 9.33301 21.667 14 33 14c10.667 0 21.667 -4.66699 33 -14z" />
    <glyph glyph-name="Otilde" unicode="&#xd5;" horiz-adv-x="731" 
d="M365 -11c-41.333 0 -79.666 7.16602 -114.999 21.499s-66.333 34.166 -93 59.499s-48.167 55.166 -64.5 89.499s-25.833 71.5 -28.5 111.5c-5.33301 54 -5.33301 107.333 0 160c2.66699 39.333 12.167 76.166 28.5 110.499s37.833 64.166 64.5 89.499
s57.667 45.333 93 60s73.666 22 114.999 22c40.667 0 78.834 -7.33301 114.501 -22s67 -34.667 94 -60s48.667 -55.166 65 -89.499s25.833 -71.166 28.5 -110.499c5.33301 -53.333 5.33301 -106.666 0 -159.999c-2.66699 -40 -12.167 -77.167 -28.5 -111.5
s-38 -64.166 -65 -89.499s-58.333 -45.166 -94 -59.499s-73.834 -21.5 -114.501 -21.5zM365 91.999c26.667 0 51.501 4.66699 74.501 14s43 22.333 60 39s30.833 36.5 41.5 59.5s17 48.167 19 75.5c4 47.333 4 95 0 143c-2 26.667 -8.33301 51.5 -19 74.5s-24.667 43 -42 60
s-37.333 30.167 -60 39.5s-47.334 14 -74.001 14s-51.334 -4.66699 -74.001 -14s-42.5 -22.5 -59.5 -39.5s-30.833 -37 -41.5 -60s-17 -47.833 -19 -74.5c-4 -48 -4 -95.667 0 -143c2 -27.333 8.33301 -52.5 19 -75.5s24.5 -42.833 41.5 -59.5s36.833 -29.667 59.5 -39
s47.334 -14 74.001 -14zM420.001 834.999c7.33301 0 13.498 1.49805 18.498 4.49805s9.83301 6.33301 14.5 10s9.33398 7 14.001 10s10.334 4.5 17.001 4.5c11.333 0 20.666 -4.16699 27.999 -12.5s11 -17.833 11 -28.5c0 -7.33301 -1.66699 -13.5 -5 -18.5
s-7.33301 -9.83301 -12 -14.5c-12.667 -11.333 -25.834 -20.5 -39.501 -27.5s-27.167 -10.5 -40.5 -10.5c-12 0 -23.333 1.83301 -34 5.5s-20.834 7.83398 -30.501 12.501s-18.834 8.83398 -27.501 12.501s-17 5.5 -25 5.5c-7.33301 0 -13.5 -1.5 -18.5 -4.5
s-9.66699 -6.16699 -14 -9.5s-9 -6.5 -14 -9.5s-10.833 -4.5 -17.5 -4.5c-11.333 0 -20.666 4.16699 -27.999 12.5s-11 17.833 -11 28.5c0 7.33301 1.66699 13.5 5 18.5s7.33301 9.83301 12 14.5c12.667 11.333 25.834 20.5 39.501 27.5s27.167 10.5 40.5 10.5
c12.667 0 24.334 -2 35.001 -6s20.834 -8.16699 30.501 -12.5l27 -12.5c8.33301 -4 16.5 -6 24.5 -6z" />
    <glyph glyph-name="Odieresis" unicode="&#xd6;" horiz-adv-x="731" 
d="M365 -11c-41.333 0 -79.666 7.16602 -114.999 21.499s-66.333 34.166 -93 59.499s-48.167 55.166 -64.5 89.499s-25.833 71.5 -28.5 111.5c-5.33301 54 -5.33301 107.333 0 160c2.66699 39.333 12.167 76.166 28.5 110.499s37.833 64.166 64.5 89.499
s57.667 45.333 93 60s73.666 22 114.999 22c40.667 0 78.834 -7.33301 114.501 -22s67 -34.667 94 -60s48.667 -55.166 65 -89.499s25.833 -71.166 28.5 -110.499c5.33301 -53.333 5.33301 -106.666 0 -159.999c-2.66699 -40 -12.167 -77.167 -28.5 -111.5
s-38 -64.166 -65 -89.499s-58.333 -45.166 -94 -59.499s-73.834 -21.5 -114.501 -21.5zM365 91.999c26.667 0 51.501 4.66699 74.501 14s43 22.333 60 39s30.833 36.5 41.5 59.5s17 48.167 19 75.5c4 47.333 4 95 0 143c-2 26.667 -8.33301 51.5 -19 74.5s-24.667 43 -42 60
s-37.333 30.167 -60 39.5s-47.334 14 -74.001 14s-51.334 -4.66699 -74.001 -14s-42.5 -22.5 -59.5 -39.5s-30.833 -37 -41.5 -60s-17 -47.833 -19 -74.5c-4 -48 -4 -95.667 0 -143c2 -27.333 8.33301 -52.5 19 -75.5s24.5 -42.833 41.5 -59.5s36.833 -29.667 59.5 -39
s47.334 -14 74.001 -14zM282.001 867.999c15.333 0 28.166 -5.16699 38.499 -15.5s15.5 -23.166 15.5 -38.499s-5.16699 -28.333 -15.5 -39s-23.166 -16 -38.499 -16s-28.166 5.33301 -38.499 16s-15.5 23.667 -15.5 39s5.16699 28.166 15.5 38.499s23.166 15.5 38.499 15.5
zM450.001 867.999c15.333 0 28.166 -5.16699 38.499 -15.5s15.5 -23.166 15.5 -38.499s-5.16699 -28.333 -15.5 -39s-23.166 -16 -38.499 -16s-28.166 5.33301 -38.499 16s-15.5 23.667 -15.5 39s5.16699 28.166 15.5 38.499s23.166 15.5 38.499 15.5z" />
    <glyph glyph-name="multiply" unicode="&#xd7;" horiz-adv-x="628" 
d="M528 212c10 -9.33301 15.335 -21.1689 16.002 -35.502s-3.66602 -26.833 -12.999 -37.5c-10.667 -11.333 -23.167 -16.833 -37.5 -16.5s-26.833 5.5 -37.5 15.5l-142 142l-144 -144c-10 -10.667 -21.833 -16.167 -35.5 -16.5s-26.167 4.83398 -37.5 15.501
c-9.33301 9.33301 -14 21.333 -14 36s5 27 15 37l144 143l-144 144c-10.667 10 -15.834 22.333 -15.501 37s5.16602 26.667 14.499 36c11.333 10 23.833 14.833 37.5 14.5s25.5 -5.5 35.5 -15.5l144 -144l142 142c10.667 10 23.167 15.167 37.5 15.5
s26.833 -5.16699 37.5 -16.5c9.33301 -10 13.666 -22.167 12.999 -36.5s-5.66699 -26.166 -15 -35.499l-142 -141z" />
    <glyph glyph-name="Oslash" unicode="&#xd8;" horiz-adv-x="733" 
d="M367 -11c-59.333 0 -112.002 14.3291 -158.002 42.9961l-14 -22c-7.33301 -11.333 -17.166 -18 -29.499 -20s-24.166 0.666992 -35.499 8c-10.667 7.33301 -16.834 17.333 -18.501 30s1.16602 24.667 8.49902 36l18 28c-20.667 24 -37.167 51.167 -49.5 81.5
s-19.833 62.833 -22.5 97.5c-5.33301 54 -5.33301 107.333 0 160c2.66699 39.333 12.167 76.166 28.5 110.499s37.833 64.166 64.5 89.499s57.667 45.333 93 60s73.666 22 114.999 22c28 0 54.667 -3.5 80 -10.5s49 -16.833 71 -29.5l13 19
c7.33301 10.667 17.333 17.167 30 19.5s24.334 -0.5 35.001 -8.5c10.667 -7.33301 16.834 -17.166 18.501 -29.499s-1.16602 -24.166 -8.49902 -35.499l-15 -23c22 -24.667 39.833 -52.667 53.5 -84s21.834 -64.666 24.501 -99.999
c5.33301 -53.333 5.33301 -106.666 0 -159.999c-2.66699 -40 -12.167 -77.167 -28.5 -111.5s-38 -64.166 -65 -89.499s-58.333 -45.166 -94 -59.499s-73.834 -21.5 -114.501 -21.5zM366.998 91.9961c26.667 0 51.5 4.66699 74.5 14s43 22.333 60 39s30.833 36.5 41.5 59.5
s17 48.167 19 75.5c4 47.333 4 95 0 143c-1.33301 18.667 -4.83301 36.167 -10.5 52.5s-12.834 31.5 -21.501 45.5l-264 -402c28.667 -18 62.334 -27 101.001 -27zM172.998 279.996c3.33301 -35.333 12.668 -66.333 28.001 -93l261 399c-29.333 16.667 -61 25 -95 25
c-26.667 0 -51.334 -4.66699 -74.001 -14s-42.5 -22.5 -59.5 -39.5s-30.833 -37 -41.5 -60s-17 -47.833 -19 -74.5c-4 -48 -4 -95.667 0 -143z" />
    <glyph glyph-name="Ugrave" unicode="&#xd9;" horiz-adv-x="748" 
d="M665 292c0 -45.333 -7.33008 -86.5 -21.9971 -123.5s-35 -68.833 -61 -95.5s-56.667 -47.334 -92 -62.001s-74 -22 -116 -22s-80.833 7.33301 -116.5 22s-66.5 35.334 -92.5 62.001s-46.333 58.5 -61 95.5s-22 78.167 -22 123.5v359c0 15.333 5.5 28.333 16.5 39
s23.833 16 38.5 16c15.333 0 28 -5.33301 38 -16s15 -23.667 15 -39v-362c0 -30.667 4.66699 -58.167 14 -82.5s22.166 -45 38.499 -62s35.666 -30 57.999 -39s46.833 -13.5 73.5 -13.5s51.167 4.5 73.5 13.5s41.666 22 57.999 39s29 37.667 38 62s13.5 51.833 13.5 82.5
v362c0 15.333 5.33301 28.333 16 39s23.334 16 38.001 16c15.333 0 28.166 -5.33301 38.499 -16s15.5 -23.667 15.5 -39v-359zM442.003 834c16 -8.66699 24 -21.333 24 -38c0 -11.333 -4.16699 -21.333 -12.5 -30s-18.166 -13 -29.499 -13c-4 0 -7.83301 0.666992 -11.5 2
l-10.5 4l-135 70c-16.667 8 -25 20.333 -25 37c0 12 4.16699 22.333 12.5 31s18.166 13 29.499 13c8.66699 0 16 -2 22 -6z" />
    <glyph glyph-name="Uacute" unicode="&#xda;" horiz-adv-x="748" 
d="M665 292c0 -45.333 -7.33008 -86.5 -21.9971 -123.5s-35 -68.833 -61 -95.5s-56.667 -47.334 -92 -62.001s-74 -22 -116 -22s-80.833 7.33301 -116.5 22s-66.5 35.334 -92.5 62.001s-46.333 58.5 -61 95.5s-22 78.167 -22 123.5v359c0 15.333 5.5 28.333 16.5 39
s23.833 16 38.5 16c15.333 0 28 -5.33301 38 -16s15 -23.667 15 -39v-362c0 -30.667 4.66699 -58.167 14 -82.5s22.166 -45 38.499 -62s35.666 -30 57.999 -39s46.833 -13.5 73.5 -13.5s51.167 4.5 73.5 13.5s41.666 22 57.999 39s29 37.667 38 62s13.5 51.833 13.5 82.5
v362c0 15.333 5.33301 28.333 16 39s23.334 16 38.001 16c15.333 0 28.166 -5.33301 38.499 -16s15.5 -23.667 15.5 -39v-359zM437.003 904c6.66699 4 14 5.99902 22 5.99902c11.333 0 21.166 -4.33301 29.499 -13s12.5 -19 12.5 -31c0 -16 -8 -28.333 -24 -37l-136 -70
l-10.5 -4c-3.66699 -1.33301 -7.5 -2 -11.5 -2c-11.333 0 -21.166 4.33301 -29.499 13s-12.5 18.667 -12.5 30c0 16.667 8.33301 29.334 25 38.001z" />
    <glyph glyph-name="Ucircumflex" unicode="&#xdb;" horiz-adv-x="748" 
d="M665 292c0 -45.333 -7.33008 -86.5 -21.9971 -123.5s-35 -68.833 -61 -95.5s-56.667 -47.334 -92 -62.001s-74 -22 -116 -22s-80.833 7.33301 -116.5 22s-66.5 35.334 -92.5 62.001s-46.333 58.5 -61 95.5s-22 78.167 -22 123.5v359c0 15.333 5.5 28.333 16.5 39
s23.833 16 38.5 16c15.333 0 28 -5.33301 38 -16s15 -23.667 15 -39v-362c0 -30.667 4.66699 -58.167 14 -82.5s22.166 -45 38.499 -62s35.666 -30 57.999 -39s46.833 -13.5 73.5 -13.5s51.167 4.5 73.5 13.5s41.666 22 57.999 39s29 37.667 38 62s13.5 51.833 13.5 82.5
v362c0 15.333 5.33301 28.333 16 39s23.334 16 38.001 16c15.333 0 28.166 -5.33301 38.499 -16s15.5 -23.667 15.5 -39v-359zM508.003 831c12.667 -9.33301 18.999 -21 18.999 -35c0 -11.333 -4.16699 -21.333 -12.5 -30s-18.5 -13 -30.5 -13
c-5.33301 0 -10 0.833008 -14 2.5s-8.66699 4.16699 -14 7.5l-81 62l-81 -62c-10 -6.66699 -19.333 -10 -28 -10c-11.333 0 -21.166 4.33301 -29.499 13s-12.5 18.667 -12.5 30c0 14 6.33301 25.667 19 35l99 75c10.667 9.33301 21.667 14 33 14
c10.667 0 21.667 -4.66699 33 -14z" />
    <glyph glyph-name="Udieresis" unicode="&#xdc;" horiz-adv-x="748" 
d="M665 292c0 -45.333 -7.33008 -86.5 -21.9971 -123.5s-35 -68.833 -61 -95.5s-56.667 -47.334 -92 -62.001s-74 -22 -116 -22s-80.833 7.33301 -116.5 22s-66.5 35.334 -92.5 62.001s-46.333 58.5 -61 95.5s-22 78.167 -22 123.5v359c0 15.333 5.5 28.333 16.5 39
s23.833 16 38.5 16c15.333 0 28 -5.33301 38 -16s15 -23.667 15 -39v-362c0 -30.667 4.66699 -58.167 14 -82.5s22.166 -45 38.499 -62s35.666 -30 57.999 -39s46.833 -13.5 73.5 -13.5s51.167 4.5 73.5 13.5s41.666 22 57.999 39s29 37.667 38 62s13.5 51.833 13.5 82.5
v362c0 15.333 5.33301 28.333 16 39s23.334 16 38.001 16c15.333 0 28.166 -5.33301 38.499 -16s15.5 -23.667 15.5 -39v-359zM290.003 868c15.333 0 28.166 -5.16699 38.499 -15.5s15.5 -23.166 15.5 -38.499s-5.16699 -28.333 -15.5 -39s-23.166 -16 -38.499 -16
s-28.166 5.33301 -38.499 16s-15.5 23.667 -15.5 39s5.16699 28.166 15.5 38.499s23.166 15.5 38.499 15.5zM458.003 868c15.333 0 28.166 -5.16699 38.499 -15.5s15.5 -23.166 15.5 -38.499s-5.16699 -28.333 -15.5 -39s-23.166 -16 -38.499 -16
s-28.166 5.33301 -38.499 16s-15.5 23.667 -15.5 39s5.16699 28.166 15.5 38.499s23.166 15.5 38.499 15.5z" />
    <glyph glyph-name="Yacute" unicode="&#xdd;" horiz-adv-x="653" 
d="M585 706c15.333 0 28.1689 -5.66602 38.502 -16.999s15.5 -24 15.5 -38c0 -6 -1 -12 -3 -18s-5.33301 -11.667 -10 -17l-219 -267c-8 -10 -14.5 -18.5 -19.5 -25.5s-7.5 -17.5 -7.5 -31.5v-241c0 -15.333 -5.16699 -28.333 -15.5 -39s-23.166 -16 -38.499 -16
c-14.667 0 -27.334 5.5 -38.001 16.5s-16 23.833 -16 38.5v241c0 13.333 -2.66699 23.833 -8 31.5s-12 16.5 -20 26.5l-217 266c-8.66699 10.667 -13 22.667 -13 36c0 14 5.16699 26.5 15.5 37.5s23.166 16.5 38.499 16.5c17.333 0 31.666 -6.66699 42.999 -20l215 -270
l216 269c5.33301 7.33301 11.833 12.666 19.5 15.999s15.5 5 23.5 5zM374.003 904.001c6.66699 4 14 5.99902 22 5.99902c11.333 0 21.166 -4.33301 29.499 -13s12.5 -19 12.5 -31c0 -16 -8 -28.333 -24 -37l-136 -70l-10.5 -4c-3.66699 -1.33301 -7.5 -2 -11.5 -2
c-11.333 0 -21.166 4.33301 -29.499 13s-12.5 18.667 -12.5 30c0 16.667 8.33301 29.334 25 38.001z" />
    <glyph glyph-name="Thorn" unicode="&#xde;" horiz-adv-x="646" 
d="M198 123l0.00195312 -72c0 -15.333 -5.16699 -28.5 -15.5 -39.5s-23.166 -16.5 -38.499 -16.5c-14.667 0 -27.167 5.5 -37.5 16.5s-15.5 24.167 -15.5 39.5v603c0 15.333 5 28.333 15 39s22.667 16 38 16s28.166 -5.33301 38.499 -16s15.5 -23.667 15.5 -39v-76h172
c32 0 62.167 -5 90.5 -15s53.166 -24.667 74.499 -44s38.333 -43 51 -71s19 -60 19 -96c0 -36.667 -6 -69.167 -18 -97.5s-28.833 -52.333 -50.5 -72s-47.334 -34.5 -77.001 -44.5s-62.167 -15 -97.5 -15h-164zM360.002 226c48.667 0 83.499 11.667 104.499 35
s31.5 54 31.5 92s-10.667 68.667 -32 92s-54.666 35 -99.999 35h-166v-254h162z" />
    <glyph glyph-name="germandbls" unicode="&#xdf;" horiz-adv-x="678" 
d="M512 566c0 -23.333 -4.16797 -42.8262 -12.501 -58.4932s-17.333 -29.5 -27 -41.5l-27 -34.5c-8.33301 -11 -12.5 -23.5 -12.5 -37.5c0 -17.333 6.83301 -30.333 20.5 -39s35.5 -19.334 65.5 -32.001c45.333 -18.667 77 -41.167 95 -67.5s27 -56.833 27 -91.5
c0 -22.667 -4.5 -44.5 -13.5 -65.5s-22.167 -39.5 -39.5 -55.5s-38.5 -28.833 -63.5 -38.5s-53.5 -14.5 -85.5 -14.5c-26 0 -52.5 4.33301 -79.5 13s-52.833 22.667 -77.5 42c-12 10 -19.167 22.333 -21.5 37s0.166992 27 7.5 37c7.33301 11.333 18 18.166 32 20.499
s28 -1.83398 42 -12.501c14.667 -10.667 28.334 -19.334 41.001 -26.001s31 -10 55 -10c28.667 0 52.167 6.66699 70.5 20s27.5 34 27.5 62c0 21.333 -7 37.833 -21 49.5s-37 23.167 -69 34.5c-42.667 14 -73.167 30.333 -91.5 49s-27.5 44.334 -27.5 77.001
c0 20.667 4.16699 38.167 12.5 52.5s17.5 27.333 27.5 39s19.167 23.167 27.5 34.5s12.5 24.666 12.5 39.999c0 20.667 -7.66699 37.667 -23 51s-39 19.666 -71 18.999c-40 -0.666992 -70.667 -10.834 -92 -30.501s-32 -50.834 -32 -93.501v-445
c0 -15.333 -5.16699 -28.333 -15.5 -39s-23.166 -16 -38.499 -16c-14 0 -26.167 5.33301 -36.5 16s-15.5 23.667 -15.5 39v453c0 66.667 20 118.667 60 156s98 56 174 56c28.667 0 55 -3.5 79 -10.5s44.667 -17 62 -30s30.666 -28.667 39.999 -47s14 -38.833 14 -61.5z" />
    <glyph glyph-name="agrave" unicode="&#xe0;" horiz-adv-x="560" 
d="M486 85c0 -9.33301 -1.33203 -16.832 -3.99902 -22.499s-7.66699 -11.167 -15 -16.5c-7.33301 -4.66699 -17.333 -10.167 -30 -16.5s-27.834 -12.5 -45.501 -18.5s-37.667 -11 -60 -15s-46.5 -6 -72.5 -6c-34 0 -63.833 4.33301 -89.5 13s-47 20.834 -64 36.501
s-29.833 34 -38.5 55s-13 43.833 -13 68.5c0 22 4 43 12 63s20.333 37.667 37 53s37.667 27.5 63 36.5s55.666 13.5 90.999 13.5c23.333 0 44.5 -1.5 63.5 -4.5s40.167 -7.16699 63.5 -12.5v33c0 34 -8.66699 58.667 -26 74s-45.666 23 -84.999 23
c-20.667 0 -40.5 -2.33301 -59.5 -7s-35.5 -9.66699 -49.5 -15c-22 -7.33301 -39.667 -6.33301 -53 3s-20 21.666 -20 36.999c0 8.66699 2.5 17.5 7.5 26.5s14.167 16.5 27.5 22.5c14.667 7.33301 36.167 14.166 64.5 20.499s57.833 9.5 88.5 9.5
c64 0 114.5 -15.5 151.5 -46.5s55.5 -80.167 55.5 -147.5v-260zM268.001 83.001c34.667 0 61.334 4.16602 80.001 12.499s30.667 14.5 36 18.5v111c-22 5.33301 -42 9.5 -60 12.5s-38.333 4.5 -61 4.5c-30.667 0 -55.834 -6.5 -75.501 -19.5s-29.5 -31.5 -29.5 -55.5
c0 -27.333 9.33301 -48.166 28 -62.499s46 -21.5 82 -21.5zM359.001 670c16 -8.66699 24 -21.333 24 -38c0 -11.333 -4.16699 -21.333 -12.5 -30s-18.166 -13 -29.499 -13c-4 0 -7.83301 0.666992 -11.5 2l-10.5 4l-135 70c-16.667 8 -25 20.333 -25 37
c0 12 4.16699 22.333 12.5 31s18.166 13 29.499 13c8.66699 0 16 -2 22 -6z" />
    <glyph glyph-name="aacute" unicode="&#xe1;" horiz-adv-x="560" 
d="M486 85c0 -9.33301 -1.33203 -16.832 -3.99902 -22.499s-7.66699 -11.167 -15 -16.5c-7.33301 -4.66699 -17.333 -10.167 -30 -16.5s-27.834 -12.5 -45.501 -18.5s-37.667 -11 -60 -15s-46.5 -6 -72.5 -6c-34 0 -63.833 4.33301 -89.5 13s-47 20.834 -64 36.501
s-29.833 34 -38.5 55s-13 43.833 -13 68.5c0 22 4 43 12 63s20.333 37.667 37 53s37.667 27.5 63 36.5s55.666 13.5 90.999 13.5c23.333 0 44.5 -1.5 63.5 -4.5s40.167 -7.16699 63.5 -12.5v33c0 34 -8.66699 58.667 -26 74s-45.666 23 -84.999 23
c-20.667 0 -40.5 -2.33301 -59.5 -7s-35.5 -9.66699 -49.5 -15c-22 -7.33301 -39.667 -6.33301 -53 3s-20 21.666 -20 36.999c0 8.66699 2.5 17.5 7.5 26.5s14.167 16.5 27.5 22.5c14.667 7.33301 36.167 14.166 64.5 20.499s57.833 9.5 88.5 9.5
c64 0 114.5 -15.5 151.5 -46.5s55.5 -80.167 55.5 -147.5v-260zM268.001 83.001c34.667 0 61.334 4.16602 80.001 12.499s30.667 14.5 36 18.5v111c-22 5.33301 -42 9.5 -60 12.5s-38.333 4.5 -61 4.5c-30.667 0 -55.834 -6.5 -75.501 -19.5s-29.5 -31.5 -29.5 -55.5
c0 -27.333 9.33301 -48.166 28 -62.499s46 -21.5 82 -21.5zM345.001 740c6.66699 4 14 5.99902 22 5.99902c11.333 0 21.166 -4.33301 29.499 -13s12.5 -19 12.5 -31c0 -16 -8 -28.333 -24 -37l-136 -70l-10.5 -4c-3.66699 -1.33301 -7.5 -2 -11.5 -2
c-11.333 0 -21.166 4.33301 -29.499 13s-12.5 18.667 -12.5 30c0 16.667 8.33301 29.334 25 38.001z" />
    <glyph glyph-name="acircumflex" unicode="&#xe2;" horiz-adv-x="560" 
d="M486 85c0 -9.33301 -1.33203 -16.832 -3.99902 -22.499s-7.66699 -11.167 -15 -16.5c-7.33301 -4.66699 -17.333 -10.167 -30 -16.5s-27.834 -12.5 -45.501 -18.5s-37.667 -11 -60 -15s-46.5 -6 -72.5 -6c-34 0 -63.833 4.33301 -89.5 13s-47 20.834 -64 36.501
s-29.833 34 -38.5 55s-13 43.833 -13 68.5c0 22 4 43 12 63s20.333 37.667 37 53s37.667 27.5 63 36.5s55.666 13.5 90.999 13.5c23.333 0 44.5 -1.5 63.5 -4.5s40.167 -7.16699 63.5 -12.5v33c0 34 -8.66699 58.667 -26 74s-45.666 23 -84.999 23
c-20.667 0 -40.5 -2.33301 -59.5 -7s-35.5 -9.66699 -49.5 -15c-22 -7.33301 -39.667 -6.33301 -53 3s-20 21.666 -20 36.999c0 8.66699 2.5 17.5 7.5 26.5s14.167 16.5 27.5 22.5c14.667 7.33301 36.167 14.166 64.5 20.499s57.833 9.5 88.5 9.5
c64 0 114.5 -15.5 151.5 -46.5s55.5 -80.167 55.5 -147.5v-260zM268.001 83.001c34.667 0 61.334 4.16602 80.001 12.499s30.667 14.5 36 18.5v111c-22 5.33301 -42 9.5 -60 12.5s-38.333 4.5 -61 4.5c-30.667 0 -55.834 -6.5 -75.501 -19.5s-29.5 -31.5 -29.5 -55.5
c0 -27.333 9.33301 -48.166 28 -62.499s46 -21.5 82 -21.5zM418.001 655c12.667 -9.33301 18.999 -21 18.999 -35c0 -11.333 -4.16699 -21.333 -12.5 -30s-18.5 -13 -30.5 -13c-5.33301 0 -10 0.833008 -14 2.5s-8.66699 4.16699 -14 7.5l-81 62l-81 -62
c-10 -6.66699 -19.333 -10 -28 -10c-11.333 0 -21.166 4.33301 -29.499 13s-12.5 18.667 -12.5 30c0 14 6.33301 25.667 19 35l99 75c10.667 9.33301 21.667 14 33 14c10.667 0 21.667 -4.66699 33 -14z" />
    <glyph glyph-name="atilde" unicode="&#xe3;" horiz-adv-x="560" 
d="M486 85c0 -9.33301 -1.33203 -16.832 -3.99902 -22.499s-7.66699 -11.167 -15 -16.5c-7.33301 -4.66699 -17.333 -10.167 -30 -16.5s-27.834 -12.5 -45.501 -18.5s-37.667 -11 -60 -15s-46.5 -6 -72.5 -6c-34 0 -63.833 4.33301 -89.5 13s-47 20.834 -64 36.501
s-29.833 34 -38.5 55s-13 43.833 -13 68.5c0 22 4 43 12 63s20.333 37.667 37 53s37.667 27.5 63 36.5s55.666 13.5 90.999 13.5c23.333 0 44.5 -1.5 63.5 -4.5s40.167 -7.16699 63.5 -12.5v33c0 34 -8.66699 58.667 -26 74s-45.666 23 -84.999 23
c-20.667 0 -40.5 -2.33301 -59.5 -7s-35.5 -9.66699 -49.5 -15c-22 -7.33301 -39.667 -6.33301 -53 3s-20 21.666 -20 36.999c0 8.66699 2.5 17.5 7.5 26.5s14.167 16.5 27.5 22.5c14.667 7.33301 36.167 14.166 64.5 20.499s57.833 9.5 88.5 9.5
c64 0 114.5 -15.5 151.5 -46.5s55.5 -80.167 55.5 -147.5v-260zM268.001 83.001c34.667 0 61.334 4.16602 80.001 12.499s30.667 14.5 36 18.5v111c-22 5.33301 -42 9.5 -60 12.5s-38.333 4.5 -61 4.5c-30.667 0 -55.834 -6.5 -75.501 -19.5s-29.5 -31.5 -29.5 -55.5
c0 -27.333 9.33301 -48.166 28 -62.499s46 -21.5 82 -21.5zM338.001 676c7.33301 0 13.498 1.49805 18.498 4.49805s9.83301 6.33301 14.5 10s9.33398 7 14.001 10s10.334 4.5 17.001 4.5c11.333 0 20.666 -4.16699 27.999 -12.5s11 -17.833 11 -28.5
c0 -7.33301 -1.66699 -13.5 -5 -18.5s-7.33301 -9.83301 -12 -14.5c-12.667 -11.333 -25.834 -20.5 -39.501 -27.5s-27.167 -10.5 -40.5 -10.5c-12 0 -23.333 1.83301 -34 5.5s-20.834 7.83398 -30.501 12.501s-18.834 8.83398 -27.501 12.501s-17 5.5 -25 5.5
c-7.33301 0 -13.5 -1.5 -18.5 -4.5s-9.66699 -6.16699 -14 -9.5s-9 -6.5 -14 -9.5s-10.833 -4.5 -17.5 -4.5c-11.333 0 -20.666 4.16699 -27.999 12.5s-11 17.833 -11 28.5c0 7.33301 1.66699 13.5 5 18.5s7.33301 9.83301 12 14.5c12.667 11.333 25.834 20.5 39.501 27.5
s27.167 10.5 40.5 10.5c12.667 0 24.334 -2 35.001 -6s20.834 -8.16699 30.501 -12.5l27 -12.5c8.33301 -4 16.5 -6 24.5 -6z" />
    <glyph glyph-name="adieresis" unicode="&#xe4;" horiz-adv-x="560" 
d="M486 85c0 -9.33301 -1.33203 -16.832 -3.99902 -22.499s-7.66699 -11.167 -15 -16.5c-7.33301 -4.66699 -17.333 -10.167 -30 -16.5s-27.834 -12.5 -45.501 -18.5s-37.667 -11 -60 -15s-46.5 -6 -72.5 -6c-34 0 -63.833 4.33301 -89.5 13s-47 20.834 -64 36.501
s-29.833 34 -38.5 55s-13 43.833 -13 68.5c0 22 4 43 12 63s20.333 37.667 37 53s37.667 27.5 63 36.5s55.666 13.5 90.999 13.5c23.333 0 44.5 -1.5 63.5 -4.5s40.167 -7.16699 63.5 -12.5v33c0 34 -8.66699 58.667 -26 74s-45.666 23 -84.999 23
c-20.667 0 -40.5 -2.33301 -59.5 -7s-35.5 -9.66699 -49.5 -15c-22 -7.33301 -39.667 -6.33301 -53 3s-20 21.666 -20 36.999c0 8.66699 2.5 17.5 7.5 26.5s14.167 16.5 27.5 22.5c14.667 7.33301 36.167 14.166 64.5 20.499s57.833 9.5 88.5 9.5
c64 0 114.5 -15.5 151.5 -46.5s55.5 -80.167 55.5 -147.5v-260zM268.001 83.001c34.667 0 61.334 4.16602 80.001 12.499s30.667 14.5 36 18.5v111c-22 5.33301 -42 9.5 -60 12.5s-38.333 4.5 -61 4.5c-30.667 0 -55.834 -6.5 -75.501 -19.5s-29.5 -31.5 -29.5 -55.5
c0 -27.333 9.33301 -48.166 28 -62.499s46 -21.5 82 -21.5zM200.001 707c15.333 0 28.166 -5.16699 38.499 -15.5s15.5 -23.166 15.5 -38.499s-5.16699 -28.333 -15.5 -39s-23.166 -16 -38.499 -16s-28.166 5.33301 -38.499 16s-15.5 23.667 -15.5 39
s5.16699 28.166 15.5 38.499s23.166 15.5 38.499 15.5zM368.001 707c15.333 0 28.166 -5.16699 38.499 -15.5s15.5 -23.166 15.5 -38.499s-5.16699 -28.333 -15.5 -39s-23.166 -16 -38.499 -16s-28.166 5.33301 -38.499 16s-15.5 23.667 -15.5 39
s5.16699 28.166 15.5 38.499s23.166 15.5 38.499 15.5z" />
    <glyph glyph-name="aring" unicode="&#xe5;" horiz-adv-x="560" 
d="M486 85c0 -9.33301 -1.33203 -16.832 -3.99902 -22.499s-7.66699 -11.167 -15 -16.5c-7.33301 -4.66699 -17.333 -10.167 -30 -16.5s-27.834 -12.5 -45.501 -18.5s-37.667 -11 -60 -15s-46.5 -6 -72.5 -6c-34 0 -63.833 4.33301 -89.5 13s-47 20.834 -64 36.501
s-29.833 34 -38.5 55s-13 43.833 -13 68.5c0 22 4 43 12 63s20.333 37.667 37 53s37.667 27.5 63 36.5s55.666 13.5 90.999 13.5c23.333 0 44.5 -1.5 63.5 -4.5s40.167 -7.16699 63.5 -12.5v33c0 34 -8.66699 58.667 -26 74s-45.666 23 -84.999 23
c-20.667 0 -40.5 -2.33301 -59.5 -7s-35.5 -9.66699 -49.5 -15c-22 -7.33301 -39.667 -6.33301 -53 3s-20 21.666 -20 36.999c0 8.66699 2.5 17.5 7.5 26.5s14.167 16.5 27.5 22.5c14.667 7.33301 36.167 14.166 64.5 20.499s57.833 9.5 88.5 9.5
c64 0 114.5 -15.5 151.5 -46.5s55.5 -80.167 55.5 -147.5v-260zM268.001 83.001c34.667 0 61.334 4.16602 80.001 12.499s30.667 14.5 36 18.5v111c-22 5.33301 -42 9.5 -60 12.5s-38.333 4.5 -61 4.5c-30.667 0 -55.834 -6.5 -75.501 -19.5s-29.5 -31.5 -29.5 -55.5
c0 -27.333 9.33301 -48.166 28 -62.499s46 -21.5 82 -21.5zM181.001 673c0 14 2.66699 27.333 8 40s12.833 23.5 22.5 32.5s20.667 16.167 33 21.5s25.5 8 39.5 8s27.333 -2.66699 40 -8s23.834 -12.5 33.501 -21.5s17.167 -19.833 22.5 -32.5s8 -26 8 -40
s-2.66699 -27.333 -8 -40s-12.833 -23.667 -22.5 -33s-20.834 -16.666 -33.501 -21.999s-26 -8 -40 -8s-27.167 2.66699 -39.5 8s-23.333 12.666 -33 21.999s-17.167 20.333 -22.5 33s-8 26 -8 40zM243.001 673c0 -12 4 -22.167 12 -30.5s17.667 -12.5 29 -12.5
s21.166 4.16699 29.499 12.5s12.5 18.5 12.5 30.5c0 11.333 -4.16699 21.166 -12.5 29.499s-18.166 12.5 -29.499 12.5s-21 -4.16699 -29 -12.5s-12 -18.166 -12 -29.499z" />
    <glyph glyph-name="ae" unicode="&#xe6;" horiz-adv-x="889" 
d="M833 287c0 -18.667 -5.00098 -34 -15.001 -46s-26.333 -18 -49 -18h-283v-12c0 -40 12.167 -70.667 36.5 -92s56.166 -32 95.499 -32c18 0 36.667 2.16699 56 6.5s39 10.166 59 17.499c10.667 4 20.5 5.5 29.5 4.5s16.667 -3.66699 23 -8s11.166 -9.83301 14.499 -16.5
s5 -13.667 5 -21c0 -8.66699 -1.66699 -16.5 -5 -23.5s-10.666 -14.167 -21.999 -21.5c-17.333 -10.667 -41 -19.167 -71 -25.5s-60 -9.5 -90 -9.5c-34 0 -64 5.5 -90 16.5s-48.667 25.5 -68 43.5c-8.66699 -6 -19.667 -12.5 -33 -19.5s-28.666 -13.5 -45.999 -19.5
s-36.166 -11 -56.499 -15s-41.833 -6 -64.5 -6c-34 0 -63.833 4.5 -89.5 13.5s-47 21.333 -64 37s-29.833 34.167 -38.5 55.5s-13 44.333 -13 69c0 21.333 4 41.833 12 61.5s20.333 36.834 37 51.501s37.667 26.334 63 35.001s55.666 13 90.999 13
c23.333 0 44.5 -1.5 63.5 -4.5s40.167 -7.16699 63.5 -12.5v37c0 34 -8.66699 58.833 -26 74.5s-45.666 23.5 -84.999 23.5c-19.333 0 -38.833 -2.5 -58.5 -7.5s-36.5 -10.167 -50.5 -15.5c-22 -7.33301 -39.667 -6.33301 -53 3s-20 22 -20 38c0 8 2.5 16.333 7.5 25
s14.167 16 27.5 22c15.333 7.33301 37 14.166 65 20.499s57.333 9.5 88 9.5c37.333 0 70 -6 98 -18s50.667 -29.667 68 -53c20 22.667 44.167 40.167 72.5 52.5s59.5 18.5 93.5 18.5c32 0 61.667 -5.16699 89 -15.5s50.833 -25.333 70.5 -45s35 -43.5 46 -71.5
s16.5 -59.333 16.5 -94v-26zM268.999 82c28 0 53.001 4.50098 75.001 13.501s41 19.167 57 30.5c-12.667 30.667 -19 64.667 -19 102c-21.333 5.33301 -40.833 9.66602 -58.5 12.999s-37.834 5 -60.501 5c-30.667 0 -55.834 -6.83301 -75.501 -20.5
s-29.5 -33.167 -29.5 -58.5c0 -27.333 9.33301 -48.333 28 -63s46.334 -22 83.001 -22zM718 307.001c6.66699 0 10.666 4 11.999 12c2 38.667 -7.66699 69.5 -29 92.5s-51.333 34.5 -90 34.5c-44 0 -76.167 -13.167 -96.5 -39.5s-30.166 -59.5 -29.499 -99.5h233z" />
    <glyph glyph-name="ccedilla" unicode="&#xe7;" horiz-adv-x="559" 
d="M254 -6c-27.333 4 -52 12.001 -74 24.001s-41.333 27 -58 45s-29.834 38.333 -39.501 61s-15.5 46.667 -17.5 72c-0.666992 10 -1.16699 21.167 -1.5 33.5s-0.5 24.833 -0.5 37.5s0.166992 25.167 0.5 37.5s0.833008 23.5 1.5 33.5c2 30 9.16699 57.333 21.5 82
s28.666 45.834 48.999 63.501s44.166 31.334 71.499 41.001s57 14.5 89 14.5c35.333 0 66.166 -5.5 92.499 -16.5s48.333 -24.167 66 -39.5s30.834 -31.5 39.501 -48.5s13 -31.833 13 -44.5c0 -15.333 -4.5 -28.166 -13.5 -38.499s-21.167 -15.5 -36.5 -15.5
c-20.667 0 -35.667 9.66699 -45 29c-11.333 25.333 -27.166 43.666 -47.499 54.999s-42.5 17 -66.5 17c-38 0 -67.833 -10 -89.5 -30s-34.167 -47 -37.5 -81c-0.666992 -6.66699 -1.16699 -15 -1.5 -25s-0.5 -20.667 -0.5 -32s0.166992 -22.333 0.5 -33
s0.833008 -20 1.5 -28c3.33301 -34 15.5 -61.833 36.5 -83.5s51.167 -32.5 90.5 -32.5c24 0 46.333 5.83301 67 17.5s36.667 30.167 48 55.5c9.33301 19.333 24.666 29 45.999 29c14.667 0 26.834 -5.16699 36.501 -15.5s14.5 -23.166 14.5 -38.499
c0 -12 -3.83301 -25.833 -11.5 -41.5s-19.167 -30.834 -34.5 -45.501s-34.5 -27.667 -57.5 -39s-49.833 -18.333 -80.5 -21l-13 -35c30 -2 53.167 -11.833 69.5 -29.5s24.5 -39.5 24.5 -65.5c0 -16.667 -3.33301 -31.667 -10 -45s-15.667 -25.5 -27 -36.5
s-24.666 -20.667 -39.999 -29s-31.666 -15.5 -48.999 -21.5c-12 -4 -24.5 -3.5 -37.5 1.5s-19.5 16.167 -19.5 33.5c0 6 1.83301 12.333 5.5 19s11.167 12.334 22.5 17.001c16 6 28.833 11.667 38.5 17s17.167 10.166 22.5 14.499s8.83301 8.66602 10.5 12.999
s2.5 9.16602 2.5 14.499s-2.5 11.166 -7.5 17.499s-12.167 9.5 -21.5 9.5c-7.33301 0 -12.833 -0.666992 -16.5 -2s-9.16699 -2 -16.5 -2c-12 0 -21.5 5.16699 -28.5 15.5s-8.16699 21.5 -3.5 33.5z" />
    <glyph glyph-name="egrave" unicode="&#xe8;" horiz-adv-x="571" 
d="M516 287c0 -18.667 -5.16309 -33.9951 -15.4961 -45.9951s-26.5 -18 -48.5 -18h-283v-12c0 -40 12.167 -70.667 36.5 -92s56.166 -32 95.499 -32c18 0 36.833 2.16699 56.5 6.5s39.167 10.166 58.5 17.499c10.667 4 20.5 5.5 29.5 4.5s16.667 -3.66699 23 -8
s11.166 -9.83301 14.499 -16.5s5 -13.667 5 -21c0 -8 -1.66699 -15.833 -5 -23.5s-10.666 -14.834 -21.999 -21.501c-8.66699 -5.33301 -19.167 -10.166 -31.5 -14.499s-25.666 -8 -39.999 -11s-29.333 -5.33301 -45 -7s-30.834 -2.5 -45.501 -2.5
c-34.667 0 -65.834 5.33301 -93.501 16s-51.5 25.5 -71.5 44.5s-35.833 41.667 -47.5 68s-18.5 55.166 -20.5 86.499c-0.666992 9.33301 -1.16699 19.666 -1.5 30.999s-0.5 22.5 -0.5 33.5s0.166992 21.667 0.5 32s0.833008 19.5 1.5 27.5c2.66699 32 10 61 22 87
s28 48.167 48 66.5s43.5 32.333 70.5 42s56.167 14.5 87.5 14.5c33.333 0 63.666 -5.33301 90.999 -16s50.666 -25.834 69.999 -45.501s34.333 -43.334 45 -71.001s16 -58.167 16 -91.5v-28zM401.004 307.005c6.66699 0 10.668 4 12.001 12
c2.66699 38 -6.83301 68.5 -28.5 91.5s-51.834 34.5 -90.501 34.5c-42.667 0 -74.5 -12.5 -95.5 -37.5s-30.833 -58.5 -29.5 -100.5h232zM361.005 670.005c16 -8.66699 24 -21.333 24 -38c0 -11.333 -4.16699 -21.333 -12.5 -30s-18.166 -13 -29.499 -13
c-4 0 -7.83301 0.666992 -11.5 2l-10.5 4l-135 70c-16.667 8 -25 20.333 -25 37c0 12 4.16699 22.333 12.5 31s18.166 13 29.499 13c8.66699 0 16 -2 22 -6z" />
    <glyph glyph-name="eacute" unicode="&#xe9;" horiz-adv-x="571" 
d="M516 287c0 -18.667 -5.16309 -33.9951 -15.4961 -45.9951s-26.5 -18 -48.5 -18h-283v-12c0 -40 12.167 -70.667 36.5 -92s56.166 -32 95.499 -32c18 0 36.833 2.16699 56.5 6.5s39.167 10.166 58.5 17.499c10.667 4 20.5 5.5 29.5 4.5s16.667 -3.66699 23 -8
s11.166 -9.83301 14.499 -16.5s5 -13.667 5 -21c0 -8 -1.66699 -15.833 -5 -23.5s-10.666 -14.834 -21.999 -21.501c-8.66699 -5.33301 -19.167 -10.166 -31.5 -14.499s-25.666 -8 -39.999 -11s-29.333 -5.33301 -45 -7s-30.834 -2.5 -45.501 -2.5
c-34.667 0 -65.834 5.33301 -93.501 16s-51.5 25.5 -71.5 44.5s-35.833 41.667 -47.5 68s-18.5 55.166 -20.5 86.499c-0.666992 9.33301 -1.16699 19.666 -1.5 30.999s-0.5 22.5 -0.5 33.5s0.166992 21.667 0.5 32s0.833008 19.5 1.5 27.5c2.66699 32 10 61 22 87
s28 48.167 48 66.5s43.5 32.333 70.5 42s56.167 14.5 87.5 14.5c33.333 0 63.666 -5.33301 90.999 -16s50.666 -25.834 69.999 -45.501s34.333 -43.334 45 -71.001s16 -58.167 16 -91.5v-28zM401.004 307.005c6.66699 0 10.668 4 12.001 12
c2.66699 38 -6.83301 68.5 -28.5 91.5s-51.834 34.5 -90.501 34.5c-42.667 0 -74.5 -12.5 -95.5 -37.5s-30.833 -58.5 -29.5 -100.5h232zM362.005 740.005c6.66699 4 14 5.99902 22 5.99902c11.333 0 21.166 -4.33301 29.499 -13s12.5 -19 12.5 -31
c0 -16 -8 -28.333 -24 -37l-136 -70l-10.5 -4c-3.66699 -1.33301 -7.5 -2 -11.5 -2c-11.333 0 -21.166 4.33301 -29.499 13s-12.5 18.667 -12.5 30c0 16.667 8.33301 29.334 25 38.001z" />
    <glyph glyph-name="ecircumflex" unicode="&#xea;" horiz-adv-x="571" 
d="M516 287c0 -18.667 -5.16309 -33.9951 -15.4961 -45.9951s-26.5 -18 -48.5 -18h-283v-12c0 -40 12.167 -70.667 36.5 -92s56.166 -32 95.499 -32c18 0 36.833 2.16699 56.5 6.5s39.167 10.166 58.5 17.499c10.667 4 20.5 5.5 29.5 4.5s16.667 -3.66699 23 -8
s11.166 -9.83301 14.499 -16.5s5 -13.667 5 -21c0 -8 -1.66699 -15.833 -5 -23.5s-10.666 -14.834 -21.999 -21.501c-8.66699 -5.33301 -19.167 -10.166 -31.5 -14.499s-25.666 -8 -39.999 -11s-29.333 -5.33301 -45 -7s-30.834 -2.5 -45.501 -2.5
c-34.667 0 -65.834 5.33301 -93.501 16s-51.5 25.5 -71.5 44.5s-35.833 41.667 -47.5 68s-18.5 55.166 -20.5 86.499c-0.666992 9.33301 -1.16699 19.666 -1.5 30.999s-0.5 22.5 -0.5 33.5s0.166992 21.667 0.5 32s0.833008 19.5 1.5 27.5c2.66699 32 10 61 22 87
s28 48.167 48 66.5s43.5 32.333 70.5 42s56.167 14.5 87.5 14.5c33.333 0 63.666 -5.33301 90.999 -16s50.666 -25.834 69.999 -45.501s34.333 -43.334 45 -71.001s16 -58.167 16 -91.5v-28zM401.004 307.005c6.66699 0 10.668 4 12.001 12
c2.66699 38 -6.83301 68.5 -28.5 91.5s-51.834 34.5 -90.501 34.5c-42.667 0 -74.5 -12.5 -95.5 -37.5s-30.833 -58.5 -29.5 -100.5h232zM422.005 668.005c12.667 -9.33301 18.999 -21 18.999 -35c0 -11.333 -4.16699 -21.333 -12.5 -30s-18.5 -13 -30.5 -13
c-5.33301 0 -10 0.833008 -14 2.5s-8.66699 4.16699 -14 7.5l-81 62l-81 -62c-10 -6.66699 -19.333 -10 -28 -10c-11.333 0 -21.166 4.33301 -29.499 13s-12.5 18.667 -12.5 30c0 14 6.33301 25.667 19 35l99 75c10.667 9.33301 21.667 14 33 14
c10.667 0 21.667 -4.66699 33 -14z" />
    <glyph glyph-name="edieresis" unicode="&#xeb;" horiz-adv-x="571" 
d="M516 287c0 -18.667 -5.16309 -33.9951 -15.4961 -45.9951s-26.5 -18 -48.5 -18h-283v-12c0 -40 12.167 -70.667 36.5 -92s56.166 -32 95.499 -32c18 0 36.833 2.16699 56.5 6.5s39.167 10.166 58.5 17.499c10.667 4 20.5 5.5 29.5 4.5s16.667 -3.66699 23 -8
s11.166 -9.83301 14.499 -16.5s5 -13.667 5 -21c0 -8 -1.66699 -15.833 -5 -23.5s-10.666 -14.834 -21.999 -21.501c-8.66699 -5.33301 -19.167 -10.166 -31.5 -14.499s-25.666 -8 -39.999 -11s-29.333 -5.33301 -45 -7s-30.834 -2.5 -45.501 -2.5
c-34.667 0 -65.834 5.33301 -93.501 16s-51.5 25.5 -71.5 44.5s-35.833 41.667 -47.5 68s-18.5 55.166 -20.5 86.499c-0.666992 9.33301 -1.16699 19.666 -1.5 30.999s-0.5 22.5 -0.5 33.5s0.166992 21.667 0.5 32s0.833008 19.5 1.5 27.5c2.66699 32 10 61 22 87
s28 48.167 48 66.5s43.5 32.333 70.5 42s56.167 14.5 87.5 14.5c33.333 0 63.666 -5.33301 90.999 -16s50.666 -25.834 69.999 -45.501s34.333 -43.334 45 -71.001s16 -58.167 16 -91.5v-28zM401.004 307.005c6.66699 0 10.668 4 12.001 12
c2.66699 38 -6.83301 68.5 -28.5 91.5s-51.834 34.5 -90.501 34.5c-42.667 0 -74.5 -12.5 -95.5 -37.5s-30.833 -58.5 -29.5 -100.5h232zM210.005 707.005c15.333 0 28.166 -5.16699 38.499 -15.5s15.5 -23.166 15.5 -38.499s-5.16699 -28.333 -15.5 -39
s-23.166 -16 -38.499 -16s-28.166 5.33301 -38.499 16s-15.5 23.667 -15.5 39s5.16699 28.166 15.5 38.499s23.166 15.5 38.499 15.5zM378.005 707.005c15.333 0 28.166 -5.16699 38.499 -15.5s15.5 -23.166 15.5 -38.499s-5.16699 -28.333 -15.5 -39
s-23.166 -16 -38.499 -16s-28.166 5.33301 -38.499 16s-15.5 23.667 -15.5 39s5.16699 28.166 15.5 38.499s23.166 15.5 38.499 15.5z" />
    <glyph glyph-name="igrave" unicode="&#xec;" horiz-adv-x="280" 
d="M199 670c16 -8.66699 24 -21.333 24 -38c0 -11.333 -4.16699 -21.333 -12.5 -30s-18.166 -13 -29.499 -13c-4 0 -7.83301 0.666992 -11.5 2l-10.5 4l-135 70c-16.667 8 -25 20.333 -25 37c0 12 4.16699 22.333 12.5 31s18.166 13 29.499 13c8.66699 0 16 -2 22 -6z
M140 532.001c14.667 0 27.167 -5.16699 37.5 -15.5s15.5 -23.166 15.5 -38.499v-428c0 -15.333 -5 -28.333 -15 -39s-22.667 -16 -38 -16c-14 0 -26.167 5.33301 -36.5 16s-15.5 23.667 -15.5 39v428c0 15.333 4.83301 28.166 14.5 38.499s22.167 15.5 37.5 15.5z" />
    <glyph glyph-name="iacute" unicode="&#xed;" horiz-adv-x="280" 
d="M221 740c6.66699 4 14 5.99902 22 5.99902c11.333 0 21.166 -4.33301 29.499 -13s12.5 -19 12.5 -31c0 -16 -8 -28.333 -24 -37l-136 -70l-10.5 -4c-3.66699 -1.33301 -7.5 -2 -11.5 -2c-11.333 0 -21.166 4.33301 -29.499 13s-12.5 18.667 -12.5 30
c0 16.667 8.33301 29.334 25 38.001zM140 531.999c14.667 0 27.167 -5.16699 37.5 -15.5s15.5 -23.166 15.5 -38.499v-428c0 -15.333 -5 -28.333 -15 -39s-22.667 -16 -38 -16c-14 0 -26.167 5.33301 -36.5 16s-15.5 23.667 -15.5 39v428
c0 15.333 4.83301 28.166 14.5 38.499s22.167 15.5 37.5 15.5z" />
    <glyph glyph-name="icircumflex" unicode="&#xee;" horiz-adv-x="280" 
d="M140 532c14.667 0 27.167 -5.16699 37.5 -15.5s15.5 -23.166 15.5 -38.499v-428c0 -15.333 -5 -28.333 -15 -39s-22.667 -16 -38 -16c-14 0 -26.167 5.33301 -36.5 16s-15.5 23.667 -15.5 39v428c0 15.333 4.83301 28.166 14.5 38.499s22.167 15.5 37.5 15.5zM278 668
c12.667 -9.33301 18.999 -21 18.999 -35c0 -11.333 -4.16699 -21.333 -12.5 -30s-18.5 -13 -30.5 -13c-5.33301 0 -10 0.833008 -14 2.5s-8.66699 4.16699 -14 7.5l-81 62l-81 -62c-10 -6.66699 -19.333 -10 -28 -10c-11.333 0 -21.166 4.33301 -29.499 13
s-12.5 18.667 -12.5 30c0 14 6.33301 25.667 19 35l99 75c10.667 9.33301 21.667 14 33 14c10.667 0 21.667 -4.66699 33 -14z" />
    <glyph glyph-name="idieresis" unicode="&#xef;" horiz-adv-x="280" 
d="M60 707c15.333 0 28.166 -5.16699 38.499 -15.5s15.5 -23.166 15.5 -38.499s-5.16699 -28.333 -15.5 -39s-23.166 -16 -38.499 -16s-28.166 5.33301 -38.499 16s-15.5 23.667 -15.5 39s5.16699 28.166 15.5 38.499s23.166 15.5 38.499 15.5zM228 707
c15.333 0 28.166 -5.16699 38.499 -15.5s15.5 -23.166 15.5 -38.499s-5.16699 -28.333 -15.5 -39s-23.166 -16 -38.499 -16s-28.166 5.33301 -38.499 16s-15.5 23.667 -15.5 39s5.16699 28.166 15.5 38.499s23.166 15.5 38.499 15.5zM140 532
c14.667 0 27.167 -5.16699 37.5 -15.5s15.5 -23.166 15.5 -38.499v-428c0 -15.333 -5 -28.333 -15 -39s-22.667 -16 -38 -16c-14 0 -26.167 5.33301 -36.5 16s-15.5 23.667 -15.5 39v428c0 15.333 4.83301 28.166 14.5 38.499s22.167 15.5 37.5 15.5z" />
    <glyph glyph-name="eth" unicode="&#xf0;" horiz-adv-x="605" 
d="M309 641l-7 5.00195c-14.667 9.33301 -23.167 20.333 -25.5 33s-0.833008 23.667 4.5 33c5.33301 10 13.833 17.167 25.5 21.5s23.834 3.5 36.501 -2.5c12.667 -6.66699 24.667 -13.667 36 -21s21.666 -15.333 30.999 -24l54 24
c11.333 4.66699 22.666 5.33398 33.999 2.00098s19.666 -11 24.999 -23c5.33301 -11.333 5.66602 -22.666 0.999023 -33.999s-12.667 -19.333 -24 -24l-31 -14c17.333 -28 30 -59.167 38 -93.5s12 -71.5 12 -111.5v-204c0 -32 -5.83301 -61.333 -17.5 -88
s-27.667 -49.667 -48 -69s-44.333 -34.333 -72 -45s-57.5 -16 -89.5 -16c-31.333 0 -60.166 5.16699 -86.499 15.5s-49.5 24.666 -69.5 42.999s-36.167 39.833 -48.5 64.5s-19.5 51.334 -21.5 80.001c-1.33301 20 -2.16602 39.667 -2.49902 59s0.166992 38.666 1.5 57.999
c2 29.333 9 56 21 80s27.833 44.667 47.5 62s42.834 30.833 69.501 40.5s55.667 14.5 87 14.5c24.667 0 48.167 -4 70.5 -12s42.833 -19.667 61.5 -35c-0.666992 20.667 -3.66699 40.667 -9 60s-15.666 38.666 -30.999 57.999l-67 -29c-11.333 -5.33301 -22.833 -6 -34.5 -2
s-20.167 11.333 -25.5 22c-4.66699 11.333 -4.83398 22.666 -0.500977 33.999s12.5 19.666 24.5 24.999zM292 406.002c-35.333 0 -63.3311 -10.168 -83.998 -30.501s-32.334 -46.166 -35.001 -77.499c-1.33301 -15.333 -2 -31.666 -2 -48.999s0.666992 -33.333 2 -48
c2.66699 -32 14.667 -58.167 36 -78.5s49 -30.5 83 -30.5s61.667 10.333 83 31s33.666 47 36.999 79c1.33301 14.667 2 30.667 2 48s-0.666992 33.333 -2 48c-2.66699 31.333 -14.5 57.166 -35.5 77.499s-49.167 30.5 -84.5 30.5z" />
    <glyph glyph-name="ntilde" unicode="&#xf1;" 
d="M528 50c0 -15.333 -4.99805 -28.165 -14.998 -38.498s-22.667 -15.5 -38 -15.5c-14 0 -26.333 5.16699 -37 15.5s-16 23.166 -16 38.499v273c0 20 -3.16699 37.167 -9.5 51.5s-14.833 26.166 -25.5 35.499s-23 16.166 -37 20.499s-28.667 6.5 -44 6.5
c-24.667 0 -47.834 -2.83301 -69.501 -8.5s-38.167 -12.167 -49.5 -19.5v-359c0 -15.333 -5 -28.166 -15 -38.499s-22.667 -15.5 -38 -15.5c-14 0 -26.333 5.16699 -37 15.5s-16 23.166 -16 38.499v393c0 10.667 1.66699 18.834 5 24.501s8.66602 11.167 15.999 16.5
s17.333 11.166 30 17.499s27.667 12.333 45 18s37.166 10.334 59.499 14.001s46.5 5.5 72.5 5.5c72.667 0 127.334 -18.167 164.001 -54.5s55 -88.5 55 -156.5v-278zM352.002 676.001c7.33301 0 13.498 1.49805 18.498 4.49805s9.83301 6.33301 14.5 10s9.33398 7 14.001 10
s10.334 4.5 17.001 4.5c11.333 0 20.666 -4.16699 27.999 -12.5s11 -17.833 11 -28.5c0 -7.33301 -1.66699 -13.5 -5 -18.5s-7.33301 -9.83301 -12 -14.5c-12.667 -11.333 -25.834 -20.5 -39.501 -27.5s-27.167 -10.5 -40.5 -10.5c-12 0 -23.333 1.83301 -34 5.5
s-20.834 7.83398 -30.501 12.501s-18.834 8.83398 -27.501 12.501s-17 5.5 -25 5.5c-7.33301 0 -13.5 -1.5 -18.5 -4.5s-9.66699 -6.16699 -14 -9.5s-9 -6.5 -14 -9.5s-10.833 -4.5 -17.5 -4.5c-11.333 0 -20.666 4.16699 -27.999 12.5s-11 17.833 -11 28.5
c0 7.33301 1.66699 13.5 5 18.5s7.33301 9.83301 12 14.5c12.667 11.333 25.834 20.5 39.501 27.5s27.167 10.5 40.5 10.5c12.667 0 24.334 -2 35.001 -6s20.834 -8.16699 30.501 -12.5l27 -12.5c8.33301 -4 16.5 -6 24.5 -6z" />
    <glyph glyph-name="ograve" unicode="&#xf2;" horiz-adv-x="593" 
d="M296 539c32 0 61.667 -4.83301 89 -14.5s51.166 -23.334 71.499 -41.001s36.666 -38.834 48.999 -63.501s19.5 -52 21.5 -82c0.666992 -10 1.16699 -21.167 1.5 -33.5s0.5 -24.833 0.5 -37.5s-0.166992 -25.334 -0.5 -38.001s-0.833008 -24 -1.5 -34
c-2 -29.333 -9.16699 -56.5 -21.5 -81.5s-28.666 -46.667 -48.999 -65s-44.166 -32.666 -71.499 -42.999s-57 -15.5 -89 -15.5c-31.333 0 -60.666 5.16699 -87.999 15.5s-51.166 24.666 -71.499 42.999s-36.833 40 -49.5 65s-20 52.167 -22 81.5
c-0.666992 10 -1.16699 21.333 -1.5 34s-0.5 25.334 -0.5 38.001s0.166992 25.167 0.5 37.5s0.833008 23.5 1.5 33.5c2 30 9.33301 57.333 22 82s29.167 45.834 49.5 63.501s44.166 31.334 71.499 41.001s56.666 14.5 87.999 14.5zM296 437
c-37.333 0 -66.8311 -10.5 -88.498 -31.5s-33.834 -48.167 -36.501 -81.5c-0.666992 -8 -1.16699 -17 -1.5 -27s-0.5 -20.333 -0.5 -31s0.166992 -21.167 0.5 -31.5s0.833008 -19.166 1.5 -26.499c3.33301 -35.333 16 -63.5 38 -84.5s51 -31.5 87 -31.5
s65.167 10.5 87.5 31.5s35.166 49.167 38.499 84.5c0.666992 7.33301 1 16.166 1 26.499v31.5c0 10.667 -0.166992 21 -0.5 31s-0.5 19 -0.5 27c-2 33.333 -14 60.5 -36 81.5s-52 31.5 -90 31.5zM371.002 670c16 -8.66699 24 -21.333 24 -38
c0 -11.333 -4.16699 -21.333 -12.5 -30s-18.166 -13 -29.499 -13c-4 0 -7.83301 0.666992 -11.5 2l-10.5 4l-135 70c-16.667 8 -25 20.333 -25 37c0 12 4.16699 22.333 12.5 31s18.166 13 29.499 13c8.66699 0 16 -2 22 -6z" />
    <glyph glyph-name="oacute" unicode="&#xf3;" horiz-adv-x="593" 
d="M296 539c32 0 61.667 -4.83301 89 -14.5s51.166 -23.334 71.499 -41.001s36.666 -38.834 48.999 -63.501s19.5 -52 21.5 -82c0.666992 -10 1.16699 -21.167 1.5 -33.5s0.5 -24.833 0.5 -37.5s-0.166992 -25.334 -0.5 -38.001s-0.833008 -24 -1.5 -34
c-2 -29.333 -9.16699 -56.5 -21.5 -81.5s-28.666 -46.667 -48.999 -65s-44.166 -32.666 -71.499 -42.999s-57 -15.5 -89 -15.5c-31.333 0 -60.666 5.16699 -87.999 15.5s-51.166 24.666 -71.499 42.999s-36.833 40 -49.5 65s-20 52.167 -22 81.5
c-0.666992 10 -1.16699 21.333 -1.5 34s-0.5 25.334 -0.5 38.001s0.166992 25.167 0.5 37.5s0.833008 23.5 1.5 33.5c2 30 9.33301 57.333 22 82s29.167 45.834 49.5 63.501s44.166 31.334 71.499 41.001s56.666 14.5 87.999 14.5zM296 437
c-37.333 0 -66.8311 -10.5 -88.498 -31.5s-33.834 -48.167 -36.501 -81.5c-0.666992 -8 -1.16699 -17 -1.5 -27s-0.5 -20.333 -0.5 -31s0.166992 -21.167 0.5 -31.5s0.833008 -19.166 1.5 -26.499c3.33301 -35.333 16 -63.5 38 -84.5s51 -31.5 87 -31.5
s65.167 10.5 87.5 31.5s35.166 49.167 38.499 84.5c0.666992 7.33301 1 16.166 1 26.499v31.5c0 10.667 -0.166992 21 -0.5 31s-0.5 19 -0.5 27c-2 33.333 -14 60.5 -36 81.5s-52 31.5 -90 31.5zM353.002 740c6.66699 4 14 5.99902 22 5.99902
c11.333 0 21.166 -4.33301 29.499 -13s12.5 -19 12.5 -31c0 -16 -8 -28.333 -24 -37l-136 -70l-10.5 -4c-3.66699 -1.33301 -7.5 -2 -11.5 -2c-11.333 0 -21.166 4.33301 -29.499 13s-12.5 18.667 -12.5 30c0 16.667 8.33301 29.334 25 38.001z" />
    <glyph glyph-name="ocircumflex" unicode="&#xf4;" horiz-adv-x="593" 
d="M296 539c32 0 61.667 -4.83301 89 -14.5s51.166 -23.334 71.499 -41.001s36.666 -38.834 48.999 -63.501s19.5 -52 21.5 -82c0.666992 -10 1.16699 -21.167 1.5 -33.5s0.5 -24.833 0.5 -37.5s-0.166992 -25.334 -0.5 -38.001s-0.833008 -24 -1.5 -34
c-2 -29.333 -9.16699 -56.5 -21.5 -81.5s-28.666 -46.667 -48.999 -65s-44.166 -32.666 -71.499 -42.999s-57 -15.5 -89 -15.5c-31.333 0 -60.666 5.16699 -87.999 15.5s-51.166 24.666 -71.499 42.999s-36.833 40 -49.5 65s-20 52.167 -22 81.5
c-0.666992 10 -1.16699 21.333 -1.5 34s-0.5 25.334 -0.5 38.001s0.166992 25.167 0.5 37.5s0.833008 23.5 1.5 33.5c2 30 9.33301 57.333 22 82s29.167 45.834 49.5 63.501s44.166 31.334 71.499 41.001s56.666 14.5 87.999 14.5zM296 437
c-37.333 0 -66.8311 -10.5 -88.498 -31.5s-33.834 -48.167 -36.501 -81.5c-0.666992 -8 -1.16699 -17 -1.5 -27s-0.5 -20.333 -0.5 -31s0.166992 -21.167 0.5 -31.5s0.833008 -19.166 1.5 -26.499c3.33301 -35.333 16 -63.5 38 -84.5s51 -31.5 87 -31.5
s65.167 10.5 87.5 31.5s35.166 49.167 38.499 84.5c0.666992 7.33301 1 16.166 1 26.499v31.5c0 10.667 -0.166992 21 -0.5 31s-0.5 19 -0.5 27c-2 33.333 -14 60.5 -36 81.5s-52 31.5 -90 31.5zM430.002 667c12.667 -9.33301 18.999 -21 18.999 -35
c0 -11.333 -4.16699 -21.333 -12.5 -30s-18.5 -13 -30.5 -13c-5.33301 0 -10 0.833008 -14 2.5s-8.66699 4.16699 -14 7.5l-81 62l-81 -62c-10 -6.66699 -19.333 -10 -28 -10c-11.333 0 -21.166 4.33301 -29.499 13s-12.5 18.667 -12.5 30c0 14 6.33301 25.667 19 35l99 75
c10.667 9.33301 21.667 14 33 14c10.667 0 21.667 -4.66699 33 -14z" />
    <glyph glyph-name="otilde" unicode="&#xf5;" horiz-adv-x="593" 
d="M296 539c32 0 61.667 -4.83301 89 -14.5s51.166 -23.334 71.499 -41.001s36.666 -38.834 48.999 -63.501s19.5 -52 21.5 -82c0.666992 -10 1.16699 -21.167 1.5 -33.5s0.5 -24.833 0.5 -37.5s-0.166992 -25.334 -0.5 -38.001s-0.833008 -24 -1.5 -34
c-2 -29.333 -9.16699 -56.5 -21.5 -81.5s-28.666 -46.667 -48.999 -65s-44.166 -32.666 -71.499 -42.999s-57 -15.5 -89 -15.5c-31.333 0 -60.666 5.16699 -87.999 15.5s-51.166 24.666 -71.499 42.999s-36.833 40 -49.5 65s-20 52.167 -22 81.5
c-0.666992 10 -1.16699 21.333 -1.5 34s-0.5 25.334 -0.5 38.001s0.166992 25.167 0.5 37.5s0.833008 23.5 1.5 33.5c2 30 9.33301 57.333 22 82s29.167 45.834 49.5 63.501s44.166 31.334 71.499 41.001s56.666 14.5 87.999 14.5zM296 437
c-37.333 0 -66.8311 -10.5 -88.498 -31.5s-33.834 -48.167 -36.501 -81.5c-0.666992 -8 -1.16699 -17 -1.5 -27s-0.5 -20.333 -0.5 -31s0.166992 -21.167 0.5 -31.5s0.833008 -19.166 1.5 -26.499c3.33301 -35.333 16 -63.5 38 -84.5s51 -31.5 87 -31.5
s65.167 10.5 87.5 31.5s35.166 49.167 38.499 84.5c0.666992 7.33301 1 16.166 1 26.499v31.5c0 10.667 -0.166992 21 -0.5 31s-0.5 19 -0.5 27c-2 33.333 -14 60.5 -36 81.5s-52 31.5 -90 31.5zM350.002 676c7.33301 0 13.498 1.49805 18.498 4.49805
s9.83301 6.33301 14.5 10s9.33398 7 14.001 10s10.334 4.5 17.001 4.5c11.333 0 20.666 -4.16699 27.999 -12.5s11 -17.833 11 -28.5c0 -7.33301 -1.66699 -13.5 -5 -18.5s-7.33301 -9.83301 -12 -14.5c-12.667 -11.333 -25.834 -20.5 -39.501 -27.5
s-27.167 -10.5 -40.5 -10.5c-12 0 -23.333 1.83301 -34 5.5s-20.834 7.83398 -30.501 12.501s-18.834 8.83398 -27.501 12.501s-17 5.5 -25 5.5c-7.33301 0 -13.5 -1.5 -18.5 -4.5s-9.66699 -6.16699 -14 -9.5s-9 -6.5 -14 -9.5s-10.833 -4.5 -17.5 -4.5
c-11.333 0 -20.666 4.16699 -27.999 12.5s-11 17.833 -11 28.5c0 7.33301 1.66699 13.5 5 18.5s7.33301 9.83301 12 14.5c12.667 11.333 25.834 20.5 39.501 27.5s27.167 10.5 40.5 10.5c12.667 0 24.334 -2 35.001 -6s20.834 -8.16699 30.501 -12.5l27 -12.5
c8.33301 -4 16.5 -6 24.5 -6z" />
    <glyph glyph-name="odieresis" unicode="&#xf6;" horiz-adv-x="593" 
d="M296 539c32 0 61.667 -4.83301 89 -14.5s51.166 -23.334 71.499 -41.001s36.666 -38.834 48.999 -63.501s19.5 -52 21.5 -82c0.666992 -10 1.16699 -21.167 1.5 -33.5s0.5 -24.833 0.5 -37.5s-0.166992 -25.334 -0.5 -38.001s-0.833008 -24 -1.5 -34
c-2 -29.333 -9.16699 -56.5 -21.5 -81.5s-28.666 -46.667 -48.999 -65s-44.166 -32.666 -71.499 -42.999s-57 -15.5 -89 -15.5c-31.333 0 -60.666 5.16699 -87.999 15.5s-51.166 24.666 -71.499 42.999s-36.833 40 -49.5 65s-20 52.167 -22 81.5
c-0.666992 10 -1.16699 21.333 -1.5 34s-0.5 25.334 -0.5 38.001s0.166992 25.167 0.5 37.5s0.833008 23.5 1.5 33.5c2 30 9.33301 57.333 22 82s29.167 45.834 49.5 63.501s44.166 31.334 71.499 41.001s56.666 14.5 87.999 14.5zM296 437
c-37.333 0 -66.8311 -10.5 -88.498 -31.5s-33.834 -48.167 -36.501 -81.5c-0.666992 -8 -1.16699 -17 -1.5 -27s-0.5 -20.333 -0.5 -31s0.166992 -21.167 0.5 -31.5s0.833008 -19.166 1.5 -26.499c3.33301 -35.333 16 -63.5 38 -84.5s51 -31.5 87 -31.5
s65.167 10.5 87.5 31.5s35.166 49.167 38.499 84.5c0.666992 7.33301 1 16.166 1 26.499v31.5c0 10.667 -0.166992 21 -0.5 31s-0.5 19 -0.5 27c-2 33.333 -14 60.5 -36 81.5s-52 31.5 -90 31.5zM212.002 707c15.333 0 28.166 -5.16699 38.499 -15.5
s15.5 -23.166 15.5 -38.499s-5.16699 -28.333 -15.5 -39s-23.166 -16 -38.499 -16s-28.166 5.33301 -38.499 16s-15.5 23.667 -15.5 39s5.16699 28.166 15.5 38.499s23.166 15.5 38.499 15.5zM380.002 707c15.333 0 28.166 -5.16699 38.499 -15.5s15.5 -23.166 15.5 -38.499
s-5.16699 -28.333 -15.5 -39s-23.166 -16 -38.499 -16s-28.166 5.33301 -38.499 16s-15.5 23.667 -15.5 39s5.16699 28.166 15.5 38.499s23.166 15.5 38.499 15.5z" />
    <glyph glyph-name="divide" unicode="&#xf7;" horiz-adv-x="628" 
d="M112 299c-14.667 0 -27 5 -37 15s-15 22 -15 36c0 14.667 5 26.834 15 36.501s22.333 14.5 37 14.5h404c14.667 0 27 -4.83301 37 -14.5s15 -21.834 15 -36.501c0 -14 -5.16699 -26 -15.5 -36s-22.5 -15 -36.5 -15h-404zM251 547c0 17.333 6.16699 32.166 18.5 44.499
s27.166 18.5 44.499 18.5s32.166 -6.16699 44.499 -18.5s18.5 -27.166 18.5 -44.499s-6.16699 -32.166 -18.5 -44.499s-27.166 -18.5 -44.499 -18.5s-32.166 6.16699 -44.499 18.5s-18.5 27.166 -18.5 44.499zM251 154c0 17.333 6.16699 32.166 18.5 44.499
s27.166 18.5 44.499 18.5s32.166 -6.16699 44.499 -18.5s18.5 -27.166 18.5 -44.499s-6.16699 -32.166 -18.5 -44.499s-27.166 -18.5 -44.499 -18.5s-32.166 6.16699 -44.499 18.5s-18.5 27.166 -18.5 44.499z" />
    <glyph glyph-name="oslash" unicode="&#xf8;" horiz-adv-x="596" 
d="M298 539c27.333 0 52.832 -3.50293 76.499 -10.5029s45.167 -17.167 64.5 -30.5l17 20c8.66699 10 19.167 15.5 31.5 16.5s23.166 -2.5 32.499 -10.5c10 -7.33301 15 -17.666 15 -30.999s-4 -24.666 -12 -33.999l-23 -26c16 -26.667 25.667 -58.334 29 -95.001
c0.666992 -10 1.16699 -21.167 1.5 -33.5s0.5 -24.833 0.5 -37.5s-0.166992 -25.334 -0.5 -38.001s-0.833008 -24 -1.5 -34c-2 -29.333 -9.16699 -56.5 -21.5 -81.5s-28.666 -46.667 -48.999 -65s-44.166 -32.666 -71.499 -42.999s-57 -15.5 -89 -15.5
c-27.333 0 -52.833 3.83301 -76.5 11.5s-45.167 18.167 -64.5 31.5l-18 -21c-8.66699 -10 -19.167 -15.333 -31.5 -16s-23.166 3 -32.499 11s-14.166 18.333 -14.499 31s3.5 23.667 11.5 33l24 28c-8 14 -14.5 29.167 -19.5 45.5s-8.16699 33.166 -9.5 50.499
c-0.666992 10 -1.16699 21.333 -1.5 34s-0.5 25.334 -0.5 38.001s0.166992 25.167 0.5 37.5s0.833008 23.5 1.5 33.5c2 30 9.33301 57.333 22 82s29.167 45.834 49.5 63.501s44.166 31.334 71.499 41.001s56.666 14.5 87.999 14.5zM426.999 207.997
c0.666992 11.333 1.16797 23.5 1.50098 36.5s0.333008 25.667 0 38s-0.833008 23.833 -1.5 34.5s-1.66699 19.667 -3 27l-200 -233c19.333 -12.667 44 -19 74 -19c36 0 65.667 10.5 89 31.5s36.666 49.167 39.999 84.5zM298 436.997
c-37.333 0 -67.332 -10.501 -89.999 -31.501s-35.334 -48.167 -38.001 -81.5c-0.666992 -10 -1.16699 -21.667 -1.5 -35s-0.5 -26.5 -0.5 -39.5s0.5 -25.167 1.5 -36.5s2.16699 -19.666 3.5 -24.999l197 230c-21.333 12.667 -45.333 19 -72 19z" />
    <glyph glyph-name="ugrave" unicode="&#xf9;" 
d="M76 476c0 16 4.66992 29.332 14.0029 39.999s22 16 38 16c15.333 0 28.166 -5.33301 38.499 -16s15.5 -24 15.5 -40v-272c0 -34.667 10.333 -62 31 -82s49 -30 85 -30c27.333 0 50.666 3.5 69.999 10.5s35.666 14.5 48.999 22.5v352c0 15.333 5 28.333 15 39
s22.667 16 38 16c14.667 0 27.167 -5.33301 37.5 -16s15.5 -23.667 15.5 -39v-387c0 -9.33301 -1.5 -17 -4.5 -23s-8.16699 -11.667 -15.5 -17s-17.333 -11.5 -30 -18.5s-27.667 -13.5 -45 -19.5s-37 -11.167 -59 -15.5s-46 -6.5 -72 -6.5c-68 0 -121.833 18.333 -161.5 55
s-59.5 89.334 -59.5 158.001v273zM378.003 669.999c16 -8.66699 24 -21.333 24 -38c0 -11.333 -4.16699 -21.333 -12.5 -30s-18.166 -13 -29.499 -13c-4 0 -7.83301 0.666992 -11.5 2l-10.5 4l-135 70c-16.667 8 -25 20.333 -25 37c0 12 4.16699 22.333 12.5 31
s18.166 13 29.499 13c8.66699 0 16 -2 22 -6z" />
    <glyph glyph-name="uacute" unicode="&#xfa;" 
d="M76 476c0 16 4.66992 29.332 14.0029 39.999s22 16 38 16c15.333 0 28.166 -5.33301 38.499 -16s15.5 -24 15.5 -40v-272c0 -34.667 10.333 -62 31 -82s49 -30 85 -30c27.333 0 50.666 3.5 69.999 10.5s35.666 14.5 48.999 22.5v352c0 15.333 5 28.333 15 39
s22.667 16 38 16c14.667 0 27.167 -5.33301 37.5 -16s15.5 -23.667 15.5 -39v-387c0 -9.33301 -1.5 -17 -4.5 -23s-8.16699 -11.667 -15.5 -17s-17.333 -11.5 -30 -18.5s-27.667 -13.5 -45 -19.5s-37 -11.167 -59 -15.5s-46 -6.5 -72 -6.5c-68 0 -121.833 18.333 -161.5 55
s-59.5 89.334 -59.5 158.001v273zM367.003 739.999c6.66699 4 14 5.99902 22 5.99902c11.333 0 21.166 -4.33301 29.499 -13s12.5 -19 12.5 -31c0 -16 -8 -28.333 -24 -37l-136 -70l-10.5 -4c-3.66699 -1.33301 -7.5 -2 -11.5 -2c-11.333 0 -21.166 4.33301 -29.499 13
s-12.5 18.667 -12.5 30c0 16.667 8.33301 29.334 25 38.001z" />
    <glyph glyph-name="ucircumflex" unicode="&#xfb;" 
d="M76 476c0 16 4.66992 29.332 14.0029 39.999s22 16 38 16c15.333 0 28.166 -5.33301 38.499 -16s15.5 -24 15.5 -40v-272c0 -34.667 10.333 -62 31 -82s49 -30 85 -30c27.333 0 50.666 3.5 69.999 10.5s35.666 14.5 48.999 22.5v352c0 15.333 5 28.333 15 39
s22.667 16 38 16c14.667 0 27.167 -5.33301 37.5 -16s15.5 -23.667 15.5 -39v-387c0 -9.33301 -1.5 -17 -4.5 -23s-8.16699 -11.667 -15.5 -17s-17.333 -11.5 -30 -18.5s-27.667 -13.5 -45 -19.5s-37 -11.167 -59 -15.5s-46 -6.5 -72 -6.5c-68 0 -121.833 18.333 -161.5 55
s-59.5 89.334 -59.5 158.001v273zM434.003 667.999c12.667 -9.33301 18.999 -21 18.999 -35c0 -11.333 -4.16699 -21.333 -12.5 -30s-18.5 -13 -30.5 -13c-5.33301 0 -10 0.833008 -14 2.5s-8.66699 4.16699 -14 7.5l-81 62l-81 -62c-10 -6.66699 -19.333 -10 -28 -10
c-11.333 0 -21.166 4.33301 -29.499 13s-12.5 18.667 -12.5 30c0 14 6.33301 25.667 19 35l99 75c10.667 9.33301 21.667 14 33 14c10.667 0 21.667 -4.66699 33 -14z" />
    <glyph glyph-name="udieresis" unicode="&#xfc;" 
d="M76 476c0 16 4.66992 29.332 14.0029 39.999s22 16 38 16c15.333 0 28.166 -5.33301 38.499 -16s15.5 -24 15.5 -40v-272c0 -34.667 10.333 -62 31 -82s49 -30 85 -30c27.333 0 50.666 3.5 69.999 10.5s35.666 14.5 48.999 22.5v352c0 15.333 5 28.333 15 39
s22.667 16 38 16c14.667 0 27.167 -5.33301 37.5 -16s15.5 -23.667 15.5 -39v-387c0 -9.33301 -1.5 -17 -4.5 -23s-8.16699 -11.667 -15.5 -17s-17.333 -11.5 -30 -18.5s-27.667 -13.5 -45 -19.5s-37 -11.167 -59 -15.5s-46 -6.5 -72 -6.5c-68 0 -121.833 18.333 -161.5 55
s-59.5 89.334 -59.5 158.001v273zM219.003 706.999c15.333 0 28.166 -5.16699 38.499 -15.5s15.5 -23.166 15.5 -38.499s-5.16699 -28.333 -15.5 -39s-23.166 -16 -38.499 -16s-28.166 5.33301 -38.499 16s-15.5 23.667 -15.5 39s5.16699 28.166 15.5 38.499
s23.166 15.5 38.499 15.5zM387.003 706.999c15.333 0 28.166 -5.16699 38.499 -15.5s15.5 -23.166 15.5 -38.499s-5.16699 -28.333 -15.5 -39s-23.166 -16 -38.499 -16s-28.166 5.33301 -38.499 16s-15.5 23.667 -15.5 39s5.16699 28.166 15.5 38.499
s23.166 15.5 38.499 15.5z" />
    <glyph glyph-name="yacute" unicode="&#xfd;" horiz-adv-x="524" 
d="M25 455c-4 10 -5.5 19.6641 -4.5 28.9971s4 17.5 9 24.5s11.333 12.667 19 17s15.834 6.5 24.501 6.5c14 0 25.5 -3.83301 34.5 -11.5s15.5 -17.167 19.5 -28.5l135 -323c0.666992 -2 2 -3 4 -3s3.66699 1 5 3l124 321c4.66699 12.667 11.5 22.834 20.5 30.501
s20.167 11.5 33.5 11.5c10 0 18.833 -2.16699 26.5 -6.5s14 -10.166 19 -17.499s8 -15.666 9 -24.999s-0.5 -18.666 -4.5 -27.999l-188 -447c-20 -48 -42.5 -88 -67.5 -120s-47.833 -54.667 -68.5 -68c-15.333 -10 -30.333 -15 -45 -15c-13.333 0 -25 4.5 -35 13.5
s-15 21.167 -15 36.5c0 7.33301 1.83301 15 5.5 23s9.16699 14.667 16.5 20c18 11.333 36.667 28.166 56 50.499s35.666 51.5 48.999 87.5zM364 740.997c6.66699 4 14 5.99902 22 5.99902c11.333 0 21.166 -4.33301 29.499 -13s12.5 -19 12.5 -31c0 -16 -8 -28.333 -24 -37
l-136 -70l-10.5 -4c-3.66699 -1.33301 -7.5 -2 -11.5 -2c-11.333 0 -21.166 4.33301 -29.499 13s-12.5 18.667 -12.5 30c0 16.667 8.33301 29.334 25 38.001z" />
    <glyph glyph-name="thorn" unicode="&#xfe;" horiz-adv-x="600" 
d="M534 193c-5.33301 -62.667 -26.668 -112.168 -64.001 -148.501s-89.666 -54.5 -156.999 -54.5c-22.667 0 -45 3.16699 -67 9.5s-41 13.166 -57 20.499v-163c0 -15.333 -5 -28.166 -15 -38.499s-22.667 -15.5 -38 -15.5c-14 0 -26.333 5.16699 -37 15.5
s-16 23.166 -16 38.499v802c0 15.333 5 28.166 15 38.499s22.667 15.5 38 15.5c14.667 0 27.167 -5.16699 37.5 -15.5s15.5 -23.166 15.5 -38.499v-149c16.667 7.33301 35.5 14 56.5 20s43.167 9 66.5 9c66.667 0 119 -18 157 -54s59.667 -85.333 65 -148
c0.666992 -9.33301 1.33398 -20.166 2.00098 -32.499s1 -25.166 1 -38.499s-0.333008 -26.5 -1 -39.5s-1.33398 -24.167 -2.00098 -33.5zM428.998 321.999c-6 76.667 -46.665 115.001 -121.998 115.001c-11.333 0 -22.833 -1.16699 -34.5 -3.5s-22.834 -5.33301 -33.501 -9
s-20.334 -7.66699 -29.001 -12s-15.667 -8.5 -21 -12.5v-275c10 -6.66699 25.667 -13.834 47 -21.501s44.666 -11.5 69.999 -11.5c40 0 69.833 9.66699 89.5 29s30.834 47 33.501 83c0 6.66699 0.166992 15.167 0.5 25.5s0.5 21 0.5 32v32.5c0 10.667 -0.333008 20 -1 28z
" />
    <glyph glyph-name="ydieresis" unicode="&#xff;" horiz-adv-x="524" 
d="M25 455c-4 10 -5.5 19.6641 -4.5 28.9971s4 17.5 9 24.5s11.333 12.667 19 17s15.834 6.5 24.501 6.5c14 0 25.5 -3.83301 34.5 -11.5s15.5 -17.167 19.5 -28.5l135 -323c0.666992 -2 2 -3 4 -3s3.66699 1 5 3l124 321c4.66699 12.667 11.5 22.834 20.5 30.501
s20.167 11.5 33.5 11.5c10 0 18.833 -2.16699 26.5 -6.5s14 -10.166 19 -17.499s8 -15.666 9 -24.999s-0.5 -18.666 -4.5 -27.999l-188 -447c-20 -48 -42.5 -88 -67.5 -120s-47.833 -54.667 -68.5 -68c-15.333 -10 -30.333 -15 -45 -15c-13.333 0 -25 4.5 -35 13.5
s-15 21.167 -15 36.5c0 7.33301 1.83301 15 5.5 23s9.16699 14.667 16.5 20c18 11.333 36.667 28.166 56 50.499s35.666 51.5 48.999 87.5zM182 706.997c15.333 0 28.166 -5.16699 38.499 -15.5s15.5 -23.166 15.5 -38.499s-5.16699 -28.333 -15.5 -39
s-23.166 -16 -38.499 -16s-28.166 5.33301 -38.499 16s-15.5 23.667 -15.5 39s5.16699 28.166 15.5 38.499s23.166 15.5 38.499 15.5zM350 706.997c15.333 0 28.166 -5.16699 38.499 -15.5s15.5 -23.166 15.5 -38.499s-5.16699 -28.333 -15.5 -39s-23.166 -16 -38.499 -16
s-28.166 5.33301 -38.499 16s-15.5 23.667 -15.5 39s5.16699 28.166 15.5 38.499s23.166 15.5 38.499 15.5z" />
    <glyph glyph-name="Amacron" unicode="&#x100;" horiz-adv-x="683" 
d="M660 54c0 -13.333 -4.66797 -25.999 -14.001 -37.999s-22.333 -18 -39 -18c-11.333 0 -21.5 3 -30.5 9s-15.5 14.667 -19.5 26l-66 187h-300l-66 -188c-4 -10.667 -10.667 -19 -20 -25s-19.333 -9 -30 -9c-16.667 0 -29.5 5.66699 -38.5 17s-13.5 23.666 -13.5 36.999
c0 7.33301 1 14 3 20l200 556c10 29.333 25.333 51 46 65s44 21 70 21c25.333 0 48.333 -7 69 -21s36.334 -35.667 47.001 -65l199 -556c2 -6 3 -12 3 -18zM224.999 318.001h232l-95 271c-3.33301 10 -10 15 -20 15c-10.667 0 -17.667 -5 -21 -15zM421.999 855.001
c12.667 0 23.167 -4 31.5 -12s12.5 -18.333 12.5 -31s-4.16699 -23.167 -12.5 -31.5s-18.833 -12.5 -31.5 -12.5h-161c-12.667 0 -23.167 4.16699 -31.5 12.5s-12.5 18.833 -12.5 31.5s4.16699 23 12.5 31s18.833 12 31.5 12h161z" />
    <glyph glyph-name="amacron" unicode="&#x101;" horiz-adv-x="560" 
d="M486 85c0 -9.33301 -1.33203 -16.832 -3.99902 -22.499s-7.66699 -11.167 -15 -16.5c-7.33301 -4.66699 -17.333 -10.167 -30 -16.5s-27.834 -12.5 -45.501 -18.5s-37.667 -11 -60 -15s-46.5 -6 -72.5 -6c-34 0 -63.833 4.33301 -89.5 13s-47 20.834 -64 36.501
s-29.833 34 -38.5 55s-13 43.833 -13 68.5c0 22 4 43 12 63s20.333 37.667 37 53s37.667 27.5 63 36.5s55.666 13.5 90.999 13.5c23.333 0 44.5 -1.5 63.5 -4.5s40.167 -7.16699 63.5 -12.5v33c0 34 -8.66699 58.667 -26 74s-45.666 23 -84.999 23
c-20.667 0 -40.5 -2.33301 -59.5 -7s-35.5 -9.66699 -49.5 -15c-22 -7.33301 -39.667 -6.33301 -53 3s-20 21.666 -20 36.999c0 8.66699 2.5 17.5 7.5 26.5s14.167 16.5 27.5 22.5c14.667 7.33301 36.167 14.166 64.5 20.499s57.833 9.5 88.5 9.5
c64 0 114.5 -15.5 151.5 -46.5s55.5 -80.167 55.5 -147.5v-260zM268.001 83.001c34.667 0 61.334 4.16602 80.001 12.499s30.667 14.5 36 18.5v111c-22 5.33301 -42 9.5 -60 12.5s-38.333 4.5 -61 4.5c-30.667 0 -55.834 -6.5 -75.501 -19.5s-29.5 -31.5 -29.5 -55.5
c0 -27.333 9.33301 -48.166 28 -62.499s46 -21.5 82 -21.5zM365.001 693c12.667 0 23.167 -4 31.5 -12s12.5 -18.333 12.5 -31s-4.16699 -23.167 -12.5 -31.5s-18.833 -12.5 -31.5 -12.5h-161c-12.667 0 -23.167 4.16699 -31.5 12.5s-12.5 18.833 -12.5 31.5
s4.16699 23 12.5 31s18.833 12 31.5 12h161z" />
    <glyph glyph-name="Abreve" unicode="&#x102;" horiz-adv-x="683" 
d="M660 54c0 -13.333 -4.66797 -25.999 -14.001 -37.999s-22.333 -18 -39 -18c-11.333 0 -21.5 3 -30.5 9s-15.5 14.667 -19.5 26l-66 187h-300l-66 -188c-4 -10.667 -10.667 -19 -20 -25s-19.333 -9 -30 -9c-16.667 0 -29.5 5.66699 -38.5 17s-13.5 23.666 -13.5 36.999
c0 7.33301 1 14 3 20l200 556c10 29.333 25.333 51 46 65s44 21 70 21c25.333 0 48.333 -7 69 -21s36.334 -35.667 47.001 -65l199 -556c2 -6 3 -12 3 -18zM224.999 318.001h232l-95 271c-3.33301 10 -10 15 -20 15c-10.667 0 -17.667 -5 -21 -15zM341.999 831.001
c13.333 0 24.835 4 34.502 12s16.5 18.667 20.5 32c2.66699 9.33301 7.66699 16.666 15 21.999s15.666 8 24.999 8c11.333 0 21 -4.16699 29 -12.5s12 -18.166 12 -29.499c0 -4.66699 -1 -10 -3 -16c-9.33301 -26 -25.5 -48.333 -48.5 -67s-51.167 -28 -84.5 -28
s-61.5 9.33301 -84.5 28s-39.167 41 -48.5 67c-2 6 -3 11.333 -3 16c0 11.333 4 21.166 12 29.499s17.667 12.5 29 12.5c9.33301 0 17.666 -2.66699 24.999 -8s12.333 -12.666 15 -21.999c4 -13.333 10.833 -24 20.5 -32s21.167 -12 34.5 -12z" />
    <glyph glyph-name="abreve" unicode="&#x103;" horiz-adv-x="560" 
d="M486 85c0 -9.33301 -1.33203 -16.832 -3.99902 -22.499s-7.66699 -11.167 -15 -16.5c-7.33301 -4.66699 -17.333 -10.167 -30 -16.5s-27.834 -12.5 -45.501 -18.5s-37.667 -11 -60 -15s-46.5 -6 -72.5 -6c-34 0 -63.833 4.33301 -89.5 13s-47 20.834 -64 36.501
s-29.833 34 -38.5 55s-13 43.833 -13 68.5c0 22 4 43 12 63s20.333 37.667 37 53s37.667 27.5 63 36.5s55.666 13.5 90.999 13.5c23.333 0 44.5 -1.5 63.5 -4.5s40.167 -7.16699 63.5 -12.5v33c0 34 -8.66699 58.667 -26 74s-45.666 23 -84.999 23
c-20.667 0 -40.5 -2.33301 -59.5 -7s-35.5 -9.66699 -49.5 -15c-22 -7.33301 -39.667 -6.33301 -53 3s-20 21.666 -20 36.999c0 8.66699 2.5 17.5 7.5 26.5s14.167 16.5 27.5 22.5c14.667 7.33301 36.167 14.166 64.5 20.499s57.833 9.5 88.5 9.5
c64 0 114.5 -15.5 151.5 -46.5s55.5 -80.167 55.5 -147.5v-260zM268.001 83.001c34.667 0 61.334 4.16602 80.001 12.499s30.667 14.5 36 18.5v111c-22 5.33301 -42 9.5 -60 12.5s-38.333 4.5 -61 4.5c-30.667 0 -55.834 -6.5 -75.501 -19.5s-29.5 -31.5 -29.5 -55.5
c0 -27.333 9.33301 -48.166 28 -62.499s46 -21.5 82 -21.5zM282.001 667c13.333 0 24.835 4 34.502 12s16.5 18.667 20.5 32c2.66699 9.33301 7.66699 16.666 15 21.999s15.666 8 24.999 8c11.333 0 21 -4.16699 29 -12.5s12 -18.166 12 -29.499c0 -4.66699 -1 -10 -3 -16
c-9.33301 -26 -25.5 -48.333 -48.5 -67s-51.167 -28 -84.5 -28s-61.5 9.33301 -84.5 28s-39.167 41 -48.5 67c-2 6 -3 11.333 -3 16c0 11.333 4 21.166 12 29.499s17.667 12.5 29 12.5c9.33301 0 17.666 -2.66699 24.999 -8s12.333 -12.666 15 -21.999
c4 -13.333 10.833 -24 20.5 -32s21.167 -12 34.5 -12z" />
    <glyph glyph-name="Aogonek" unicode="&#x104;" horiz-adv-x="702" 
d="M491 220l-300.003 -0.00195312l-66 -188c-4.66699 -13.333 -14 -23 -28 -29s-27.667 -6.33301 -41 -1c-14 5.33301 -23.833 15 -29.5 29s-5.83398 27.667 -0.500977 41l200 556c10 29.333 25.333 51 46 65s44 21 70 21c25.333 0 48.333 -7 69 -21
s36.334 -35.667 47.001 -65l197 -553c5.33301 -13.333 6 -26.5 2 -39.5s-12.667 -23.167 -26 -30.5c-59.333 -32 -89 -63.667 -89 -95c0 -15.333 4.66699 -26.833 14 -34.5s20.333 -11.5 33 -11.5c12 0 23.667 3.66699 35 11c8 5.33301 16.667 7.33301 26 6
s17 -5.66602 23 -12.999c6 -8.66699 8 -18 6 -28s-7 -18.333 -15 -25c-9.33301 -7.33301 -21.166 -13.833 -35.499 -19.5s-31.166 -8.5 -50.499 -8.5c-32.667 0 -60.167 10.833 -82.5 32.5s-33.5 49.834 -33.5 84.501c0 25.333 6.83301 49 20.5 71s37.834 43.333 72.501 64z
M224.997 317.998h232l-95 271c-3.33301 10 -10 15 -20 15c-10.667 0 -17.667 -5 -21 -15z" />
    <glyph glyph-name="aogonek" unicode="&#x105;" horiz-adv-x="560" 
d="M450 31c-28 -12.667 -50.5039 -28.499 -67.5039 -47.499s-25.5 -41.833 -25.5 -68.5c0 -18.667 4.66699 -32 14 -40s20.333 -12 33 -12c11.333 0 23 4 35 12c8 5.33301 16.5 7.33301 25.5 6s16.833 -5.66602 23.5 -12.999c6 -8.66699 8 -18 6 -28s-7 -18.333 -15 -25
c-9.33301 -7.33301 -21.166 -13.833 -35.499 -19.5s-31.166 -8.5 -50.499 -8.5c-16 0 -31.167 2.83301 -45.5 8.5s-26.833 13.667 -37.5 24s-19 22.666 -25 36.999s-9 30.166 -9 47.499s2.5 33.166 7.5 47.499s11.833 28.166 20.5 41.499
c-7.33301 -1.33301 -14.666 -2 -21.999 -2h-23c-34 0 -63.833 4.33301 -89.5 13s-47 20.834 -64 36.501s-29.833 34 -38.5 55s-13 43.833 -13 68.5c0 22 4 42.833 12 62.5s20.333 37 37 52s37.667 27 63 36s55.666 13.5 90.999 13.5c23.333 0 44.5 -1.83301 63.5 -5.5
s40.167 -8.16699 63.5 -13.5v36c0 34 -8.66699 58.833 -26 74.5s-45.666 23.5 -84.999 23.5c-20.667 0 -40.5 -2.5 -59.5 -7.5s-35.5 -10.167 -49.5 -15.5c-22 -7.33301 -39.667 -6.16602 -53 3.50098s-20 22.167 -20 37.5c0 8.66699 2.5 17.334 7.5 26.001
s14.167 16 27.5 22c14.667 7.33301 36.167 14.166 64.5 20.499s57.833 9.5 88.5 9.5c64 0 114.5 -15.5 151.5 -46.5s55.5 -80.167 55.5 -147.5v-269c0 -10.667 -3.16699 -19.5 -9.5 -26.5s-15.166 -13.167 -26.499 -18.5zM157.996 168.001
c0 -27.333 9.33301 -48.332 28 -62.999s46 -22 82 -22c34.667 0 61.334 3.5 80.001 10.5s30.667 11.833 36 14.5v119c-22 5.33301 -42 9.66602 -60 12.999s-38.333 5 -61 5c-30.667 0 -55.834 -6.66699 -75.501 -20s-29.5 -32.333 -29.5 -57z" />
    <glyph glyph-name="Cacute" unicode="&#x106;" horiz-adv-x="664" 
d="M355 92c36.667 0 69.3311 9.50195 97.998 28.502s50.334 44.5 65.001 76.5c5.33301 9.33301 11.5 17 18.5 23s17.167 9 30.5 9c12 0 23.667 -4.66699 35 -14s17 -21.333 17 -36c0 -4.66699 -0.333008 -9 -1 -13s-2.33398 -8.66699 -5.00098 -14
c-10 -25.333 -23.833 -48 -41.5 -68s-37.834 -37 -60.501 -51s-47.167 -24.833 -73.5 -32.5s-53.5 -11.5 -81.5 -11.5c-41.333 0 -79.166 7.16699 -113.499 21.5s-64.333 34.166 -90 59.499s-46.167 55.166 -61.5 89.499s-24.333 71.5 -27 111.5
c-5.33301 54 -5.33301 107.333 0 160c2.66699 39.333 11.667 76.166 27 110.499s35.833 64.166 61.5 89.499s55.5 45.333 89.5 60s71.667 22 113 22c28 0 55.333 -3.83301 82 -11.5s51.334 -18.5 74.001 -32.5s42.834 -31 60.501 -51s31.5 -42.667 41.5 -68
c2.66699 -5.33301 4.33398 -10 5.00098 -14s1 -8.33301 1 -13c0 -14.667 -5.66699 -26.667 -17 -36s-23 -14 -35 -14c-13.333 0 -23.666 3.33301 -30.999 10s-13.333 14 -18 22c-14.667 32.667 -36.334 58.5 -65.001 77.5s-61.334 28.5 -98.001 28.5
c-26.667 0 -50.834 -4.83301 -72.501 -14.5s-40.334 -23 -56.001 -40s-28.334 -37.167 -38.001 -60.5s-15.5 -48.333 -17.5 -75c-3.33301 -47.333 -3.33301 -94.666 0 -141.999c2 -27.333 7.83301 -52.5 17.5 -75.5s22.334 -42.667 38.001 -59
s34.334 -29.166 56.001 -38.499s45.834 -14 72.501 -14zM432.997 904.002c6.66699 4 14 5.99902 22 5.99902c11.333 0 21.166 -4.33301 29.499 -13s12.5 -19 12.5 -31c0 -16 -8 -28.333 -24 -37l-136 -70l-10.5 -4c-3.66699 -1.33301 -7.5 -2 -11.5 -2
c-11.333 0 -21.166 4.33301 -29.499 13s-12.5 18.667 -12.5 30c0 16.667 8.33301 29.334 25 38.001z" />
    <glyph glyph-name="cacute" unicode="&#x107;" horiz-adv-x="559" 
d="M298 92c24 0 46.3359 5.66406 67.0029 16.9971s36.667 29.666 48 54.999c9.33301 19.333 24.666 29 45.999 29c14.667 0 26.667 -5.16699 36 -15.5s14 -23.166 14 -38.499c0 -12.667 -4.5 -27.5 -13.5 -44.5s-22.333 -33.333 -40 -49s-39.834 -28.834 -66.501 -39.501
s-57.667 -16 -93 -16c-32.667 0 -62.667 5.33301 -90 16s-51 25.334 -71 44.001s-36.167 40.5 -48.5 65.5s-19.5 51.833 -21.5 80.5c-0.666992 10 -1.16699 21.167 -1.5 33.5s-0.5 24.833 -0.5 37.5s0.166992 25.167 0.5 37.5s0.833008 23.5 1.5 33.5
c2 30 9.16699 57.333 21.5 82s28.666 45.834 48.999 63.501s44.166 31.334 71.499 41.001s57 14.5 89 14.5c35.333 0 66.166 -5.5 92.499 -16.5s48.333 -24.167 66 -39.5s30.834 -31.5 39.501 -48.5s13 -31.833 13 -44.5c0 -15.333 -4.5 -28.166 -13.5 -38.499
s-21.167 -15.5 -36.5 -15.5c-20.667 0 -35.667 9.66699 -45 29c-11.333 25.333 -27.166 43.666 -47.499 54.999s-42.5 17 -66.5 17c-38 0 -67.833 -9.83301 -89.5 -29.5s-34.167 -46.5 -37.5 -80.5c-0.666992 -6.66699 -1.16699 -15.167 -1.5 -25.5
s-0.5 -21.166 -0.5 -32.499s0.166992 -22.333 0.5 -33s0.833008 -20 1.5 -28c3.33301 -34 15.5 -61.833 36.5 -83.5s51.167 -32.5 90.5 -32.5zM366.003 739.997c6.66699 4 14 5.99902 22 5.99902c11.333 0 21.166 -4.33301 29.499 -13s12.5 -19 12.5 -31
c0 -16 -8 -28.333 -24 -37l-136 -70l-10.5 -4c-3.66699 -1.33301 -7.5 -2 -11.5 -2c-11.333 0 -21.166 4.33301 -29.499 13s-12.5 18.667 -12.5 30c0 16.667 8.33301 29.334 25 38.001z" />
    <glyph glyph-name="Cdotaccent" unicode="&#x10a;" horiz-adv-x="664" 
d="M355 92c36.667 0 69.3311 9.50195 97.998 28.502s50.334 44.5 65.001 76.5c5.33301 9.33301 11.5 17 18.5 23s17.167 9 30.5 9c12 0 23.667 -4.66699 35 -14s17 -21.333 17 -36c0 -4.66699 -0.333008 -9 -1 -13s-2.33398 -8.66699 -5.00098 -14
c-10 -25.333 -23.833 -48 -41.5 -68s-37.834 -37 -60.501 -51s-47.167 -24.833 -73.5 -32.5s-53.5 -11.5 -81.5 -11.5c-41.333 0 -79.166 7.16699 -113.499 21.5s-64.333 34.166 -90 59.499s-46.167 55.166 -61.5 89.499s-24.333 71.5 -27 111.5
c-5.33301 54 -5.33301 107.333 0 160c2.66699 39.333 11.667 76.166 27 110.499s35.833 64.166 61.5 89.499s55.5 45.333 89.5 60s71.667 22 113 22c28 0 55.333 -3.83301 82 -11.5s51.334 -18.5 74.001 -32.5s42.834 -31 60.501 -51s31.5 -42.667 41.5 -68
c2.66699 -5.33301 4.33398 -10 5.00098 -14s1 -8.33301 1 -13c0 -14.667 -5.66699 -26.667 -17 -36s-23 -14 -35 -14c-13.333 0 -23.666 3.33301 -30.999 10s-13.333 14 -18 22c-14.667 32.667 -36.334 58.5 -65.001 77.5s-61.334 28.5 -98.001 28.5
c-26.667 0 -50.834 -4.83301 -72.501 -14.5s-40.334 -23 -56.001 -40s-28.334 -37.167 -38.001 -60.5s-15.5 -48.333 -17.5 -75c-3.33301 -47.333 -3.33301 -94.666 0 -141.999c2 -27.333 7.83301 -52.5 17.5 -75.5s22.334 -42.667 38.001 -59
s34.334 -29.166 56.001 -38.499s45.834 -14 72.501 -14zM351.997 868.002c15.333 0 28.166 -5.16699 38.499 -15.5s15.5 -23.166 15.5 -38.499s-5.16699 -28.333 -15.5 -39s-23.166 -16 -38.499 -16s-28.166 5.33301 -38.499 16s-15.5 23.667 -15.5 39
s5.16699 28.166 15.5 38.499s23.166 15.5 38.499 15.5z" />
    <glyph glyph-name="cdotaccent" unicode="&#x10b;" horiz-adv-x="559" 
d="M298 92c24 0 46.3359 5.66406 67.0029 16.9971s36.667 29.666 48 54.999c9.33301 19.333 24.666 29 45.999 29c14.667 0 26.667 -5.16699 36 -15.5s14 -23.166 14 -38.499c0 -12.667 -4.5 -27.5 -13.5 -44.5s-22.333 -33.333 -40 -49s-39.834 -28.834 -66.501 -39.501
s-57.667 -16 -93 -16c-32.667 0 -62.667 5.33301 -90 16s-51 25.334 -71 44.001s-36.167 40.5 -48.5 65.5s-19.5 51.833 -21.5 80.5c-0.666992 10 -1.16699 21.167 -1.5 33.5s-0.5 24.833 -0.5 37.5s0.166992 25.167 0.5 37.5s0.833008 23.5 1.5 33.5
c2 30 9.16699 57.333 21.5 82s28.666 45.834 48.999 63.501s44.166 31.334 71.499 41.001s57 14.5 89 14.5c35.333 0 66.166 -5.5 92.499 -16.5s48.333 -24.167 66 -39.5s30.834 -31.5 39.501 -48.5s13 -31.833 13 -44.5c0 -15.333 -4.5 -28.166 -13.5 -38.499
s-21.167 -15.5 -36.5 -15.5c-20.667 0 -35.667 9.66699 -45 29c-11.333 25.333 -27.166 43.666 -47.499 54.999s-42.5 17 -66.5 17c-38 0 -67.833 -9.83301 -89.5 -29.5s-34.167 -46.5 -37.5 -80.5c-0.666992 -6.66699 -1.16699 -15.167 -1.5 -25.5
s-0.5 -21.166 -0.5 -32.499s0.166992 -22.333 0.5 -33s0.833008 -20 1.5 -28c3.33301 -34 15.5 -61.833 36.5 -83.5s51.167 -32.5 90.5 -32.5zM293.003 706.997c15.333 0 28.166 -5.16699 38.499 -15.5s15.5 -23.166 15.5 -38.499s-5.16699 -28.333 -15.5 -39
s-23.166 -16 -38.499 -16s-28.166 5.33301 -38.499 16s-15.5 23.667 -15.5 39s5.16699 28.166 15.5 38.499s23.166 15.5 38.499 15.5z" />
    <glyph glyph-name="Ccaron" unicode="&#x10c;" horiz-adv-x="664" 
d="M355 92c36.667 0 69.3311 9.50195 97.998 28.502s50.334 44.5 65.001 76.5c5.33301 9.33301 11.5 17 18.5 23s17.167 9 30.5 9c12 0 23.667 -4.66699 35 -14s17 -21.333 17 -36c0 -4.66699 -0.333008 -9 -1 -13s-2.33398 -8.66699 -5.00098 -14
c-10 -25.333 -23.833 -48 -41.5 -68s-37.834 -37 -60.501 -51s-47.167 -24.833 -73.5 -32.5s-53.5 -11.5 -81.5 -11.5c-41.333 0 -79.166 7.16699 -113.499 21.5s-64.333 34.166 -90 59.499s-46.167 55.166 -61.5 89.499s-24.333 71.5 -27 111.5
c-5.33301 54 -5.33301 107.333 0 160c2.66699 39.333 11.667 76.166 27 110.499s35.833 64.166 61.5 89.499s55.5 45.333 89.5 60s71.667 22 113 22c28 0 55.333 -3.83301 82 -11.5s51.334 -18.5 74.001 -32.5s42.834 -31 60.501 -51s31.5 -42.667 41.5 -68
c2.66699 -5.33301 4.33398 -10 5.00098 -14s1 -8.33301 1 -13c0 -14.667 -5.66699 -26.667 -17 -36s-23 -14 -35 -14c-13.333 0 -23.666 3.33301 -30.999 10s-13.333 14 -18 22c-14.667 32.667 -36.334 58.5 -65.001 77.5s-61.334 28.5 -98.001 28.5
c-26.667 0 -50.834 -4.83301 -72.501 -14.5s-40.334 -23 -56.001 -40s-28.334 -37.167 -38.001 -60.5s-15.5 -48.333 -17.5 -75c-3.33301 -47.333 -3.33301 -94.666 0 -141.999c2 -27.333 7.83301 -52.5 17.5 -75.5s22.334 -42.667 38.001 -59
s34.334 -29.166 56.001 -38.499s45.834 -14 72.501 -14zM380.997 767.002c-11.333 -9.33301 -22.3311 -14 -32.998 -14c-11.333 0 -22.333 4.66699 -33 14l-99 75c-12.667 8.66699 -19 20.334 -19 35.001c0 11.333 4.16699 21.333 12.5 30s18.166 13 29.499 13
c9.33301 0 18.666 -3.66699 27.999 -11l81 -61l81 61c5.33301 3.33301 10 6 14 8s8.66699 3 14 3c12 0 22.167 -4.33301 30.5 -13s12.5 -18.667 12.5 -30c0 -14.667 -6.33301 -26.334 -19 -35.001z" />
    <glyph glyph-name="ccaron" unicode="&#x10d;" horiz-adv-x="559" 
d="M298 92c24 0 46.3359 5.66406 67.0029 16.9971s36.667 29.666 48 54.999c9.33301 19.333 24.666 29 45.999 29c14.667 0 26.667 -5.16699 36 -15.5s14 -23.166 14 -38.499c0 -12.667 -4.5 -27.5 -13.5 -44.5s-22.333 -33.333 -40 -49s-39.834 -28.834 -66.501 -39.501
s-57.667 -16 -93 -16c-32.667 0 -62.667 5.33301 -90 16s-51 25.334 -71 44.001s-36.167 40.5 -48.5 65.5s-19.5 51.833 -21.5 80.5c-0.666992 10 -1.16699 21.167 -1.5 33.5s-0.5 24.833 -0.5 37.5s0.166992 25.167 0.5 37.5s0.833008 23.5 1.5 33.5
c2 30 9.16699 57.333 21.5 82s28.666 45.834 48.999 63.501s44.166 31.334 71.499 41.001s57 14.5 89 14.5c35.333 0 66.166 -5.5 92.499 -16.5s48.333 -24.167 66 -39.5s30.834 -31.5 39.501 -48.5s13 -31.833 13 -44.5c0 -15.333 -4.5 -28.166 -13.5 -38.499
s-21.167 -15.5 -36.5 -15.5c-20.667 0 -35.667 9.66699 -45 29c-11.333 25.333 -27.166 43.666 -47.499 54.999s-42.5 17 -66.5 17c-38 0 -67.833 -9.83301 -89.5 -29.5s-34.167 -46.5 -37.5 -80.5c-0.666992 -6.66699 -1.16699 -15.167 -1.5 -25.5
s-0.5 -21.166 -0.5 -32.499s0.166992 -22.333 0.5 -33s0.833008 -20 1.5 -28c3.33301 -34 15.5 -61.833 36.5 -83.5s51.167 -32.5 90.5 -32.5zM323.003 603.997c-11.333 -9.33301 -22.3311 -14 -32.998 -14c-11.333 0 -22.333 4.66699 -33 14l-99 75
c-12.667 8.66699 -19 20.334 -19 35.001c0 11.333 4.16699 21.333 12.5 30s18.166 13 29.499 13c9.33301 0 18.666 -3.66699 27.999 -11l81 -61l81 61c5.33301 3.33301 10 6 14 8s8.66699 3 14 3c12 0 22.167 -4.33301 30.5 -13s12.5 -18.667 12.5 -30
c0 -14.667 -6.33301 -26.334 -19 -35.001z" />
    <glyph glyph-name="Dcaron" unicode="&#x10e;" horiz-adv-x="718" 
d="M548 303c1.33301 15.333 2.16699 31.501 2.5 48.501s-0.166992 32.167 -1.5 45.5c-3.33301 61.333 -21.833 110 -55.5 146s-86.5 54 -158.5 54h-136v-491h136c35.333 0 66 4.66699 92 14s47.667 22.666 65 39.999s30.5 38 39.5 62s14.5 51 16.5 81zM173.001 0.000976562
c-26.667 0 -46.999 7.83301 -60.999 23.5s-21 35.167 -21 58.5v540c0 23.333 6.83301 42.666 20.5 57.999s34.167 23 61.5 23h161c52 0 97.5 -7.33301 136.5 -22s71.833 -35 98.5 -61s47 -57.167 61 -93.5s22.333 -75.833 25 -118.5
c1.33301 -18 2.16602 -36.5 2.49902 -55.5s-0.166992 -36.833 -1.5 -53.5c-2.66699 -43.333 -11 -83.166 -25 -119.499s-34.333 -67.833 -61 -94.5s-59.5 -47.5 -98.5 -62.5s-84.833 -22.5 -137.5 -22.5h-161zM380.002 767.001c-11.333 -9.33301 -22.3311 -14 -32.998 -14
c-11.333 0 -22.333 4.66699 -33 14l-99 75c-12.667 8.66699 -19 20.334 -19 35.001c0 11.333 4.16699 21.333 12.5 30s18.166 13 29.499 13c9.33301 0 18.666 -3.66699 27.999 -11l81 -61l81 61c5.33301 3.33301 10 6 14 8s8.66699 3 14 3c12 0 22.167 -4.33301 30.5 -13
s12.5 -18.667 12.5 -30c0 -14.667 -6.33301 -26.334 -19 -35.001z" />
    <glyph glyph-name="dcaron" unicode="&#x10f;" horiz-adv-x="661" 
d="M66 338c5.33301 62.667 26.168 111.835 62.501 147.502s86.833 53.5 151.5 53.5c24 0 47.667 -3 71 -9s43.333 -12.667 60 -20v150c0 15.333 5.16699 28.166 15.5 38.499s22.833 15.5 37.5 15.5c15.333 0 28 -5.16699 38 -15.5s15 -23.166 15 -38.499v-568
c0 -9.33301 -1.16699 -17 -3.5 -23s-7.5 -11.667 -15.5 -17c-6.66699 -4.66699 -16.5 -10.5 -29.5 -17.5s-28.333 -13.833 -46 -20.5s-37.5 -12.334 -59.5 -17.001s-45 -7 -69 -7c-34 0 -64.333 5 -91 15s-49.834 24 -69.501 42s-35.167 39.667 -46.5 65
s-18.333 53.333 -21 84c-0.666992 8.66699 -1.16699 19.334 -1.5 32.001s-0.5 25.667 -0.5 39s0.166992 26.166 0.5 38.499s0.833008 23.166 1.5 32.499zM172.002 209.001c6 -78 47.335 -116.999 124.002 -116.999c10.667 0 21.667 1.16699 33 3.5s22.333 5.33301 33 9
s20.167 7.5 28.5 11.5s15.166 8 20.499 12v278c-10.667 6.66699 -27.334 13.5 -50.001 20.5s-47 10.5 -73 10.5c-38 0 -66.333 -9.33301 -85 -28s-29 -46.334 -31 -83.001c-0.666992 -6.66699 -1.16699 -15.167 -1.5 -25.5s-0.5 -21 -0.5 -32s0.166992 -21.667 0.5 -32
s0.833008 -19.5 1.5 -27.5zM663.004 581.002c-5.33301 -9.33301 -11.666 -16.667 -18.999 -22s-16.333 -8 -27 -8c-13.333 0 -24 4 -32 12s-12 17.667 -12 29c0 6.66699 1.5 12.834 4.5 18.501s6.16699 12 9.5 19s6.5 15 9.5 24s4.5 19.5 4.5 31.5v27
c0 13.333 4.16699 24.666 12.5 33.999s19.5 14 33.5 14s25.167 -4.66699 33.5 -14s12.5 -20.666 12.5 -33.999v-23c0 -14.667 -2.33301 -31.834 -7 -51.501s-12.334 -38.5 -23.001 -56.5z" />
    </font>
</defs>
</svg>
