<svg xmlns="http://www.w3.org/2000/svg" width="42" height="42" viewBox="0 0 42 42">
  <g id="Page-1" transform="translate(-0.266 0)">
    <g id="_12-Lakhs-square.--space-delivered" data-name="12-Lakhs-square.--space-delivered" transform="translate(0.266 0)">
      <rect id="Rectangle" width="42" height="42" fill="#fff" opacity="0"/>
      <path id="Shape" d="M38.619,38.948h-1.3V20.88a1.021,1.021,0,0,0-1.025-1H34.929V16.93a1.021,1.021,0,0,0-1.025-1H28.04V9.044a1.009,1.009,0,0,0-.7-.947L5.8,1.1a1.012,1.012,0,0,0-.916.133.98.98,0,0,0-.424.814v36.9H3.385a1,1,0,1,0,0,2H38.6a1.021,1.021,0,0,0,1.025-1A1.009,1.009,0,0,0,38.619,38.948ZM32.865,17.931v1.948H28.027V17.931ZM6.515,3.439,25.99,9.764v7.1c0,.027-.014.04-.014.067V38.948H6.515ZM28.027,38.948V21.881h7.23V38.948Zm-14.911-25.1a.94.94,0,0,1-.957.934H10.178V16.7a.957.957,0,0,1-1.913,0V13.848a.94.94,0,0,1,.957-.934h2.925A.952.952,0,0,1,13.116,13.848Zm5.549,0a.94.94,0,0,1-.957.934H15.74V16.7a.957.957,0,0,1-1.913,0V13.848a.94.94,0,0,1,.957-.934h2.925A.94.94,0,0,1,18.665,13.848Zm.711,2.856V13.848a.94.94,0,0,1,.957-.934h2.925a.934.934,0,1,1,0,1.868H21.289V16.7a.957.957,0,0,1-1.913,0Zm-6.26,4.924a.94.94,0,0,1-.957.934H10.178v1.922a.957.957,0,0,1-1.913,0V21.627a.94.94,0,0,1,.957-.934h2.925A.952.952,0,0,1,13.116,21.627Zm5.549,0a.94.94,0,0,1-.957.934H15.74v1.922a.957.957,0,0,1-1.913,0V21.627a.94.94,0,0,1,.957-.934h2.925A.94.94,0,0,1,18.665,21.627Zm5.562,0a.94.94,0,0,1-.957.934H21.3v1.922a.957.957,0,0,1-1.913,0V21.627a.94.94,0,0,1,.957-.934h2.925A.948.948,0,0,1,24.227,21.627ZM13.116,29.394a.94.94,0,0,1-.957.934H10.178v1.922a.957.957,0,0,1-1.913,0V29.394a.94.94,0,0,1,.957-.934h2.925A.952.952,0,0,1,13.116,29.394Zm5.549,0a.94.94,0,0,1-.957.934H15.74v1.922a.957.957,0,0,1-1.913,0V29.394a.94.94,0,0,1,.957-.934h2.925A.94.94,0,0,1,18.665,29.394Zm5.562,0a.94.94,0,0,1-.957.934H21.3v1.922a.957.957,0,0,1-1.913,0V29.394a.94.94,0,0,1,.957-.934h2.925A.948.948,0,0,1,24.227,29.394Z" transform="translate(-0.266 0)" fill="#333"/>
    </g>
  </g>
</svg>
