<svg xmlns="http://www.w3.org/2000/svg" width="42" height="42" viewBox="0 0 42 42">
  <g id="Page-1" transform="translate(0.203 0)">
    <g id="_40_-awards-won" data-name="40+-awards-won" transform="translate(-0.203 0)">
      <rect id="Rectangle" width="42" height="42" fill="#fff" opacity="0"/>
      <path id="Shape" d="M33.046,34.737h-.372a2.9,2.9,0,0,0,.086-.6v-.227a2.707,2.707,0,0,0-2.793-2.6H22.2V24.028a4.215,4.215,0,0,0,1.862-.868,21.489,21.489,0,0,0,4.111-4.807c8.251-3.1,9.339-12.178,9.382-12.566a.987.987,0,0,0-.272-.775,1.088,1.088,0,0,0-.8-.334H33.319c.258-1.4.372-2.324.387-2.47a.987.987,0,0,0-.272-.775,1.088,1.088,0,0,0-.8-.334h-23a1.136,1.136,0,0,0-.8.334.9.9,0,0,0-.272.748c.014.134.115,1.068.387,2.47H5.516a1.136,1.136,0,0,0-.8.334.987.987,0,0,0-.272.775c.043.4,1.16,9.735,9.74,12.712a21.8,21.8,0,0,0,4.025,4.674,4.161,4.161,0,0,0,1.848.868v7.291H13.337a2.707,2.707,0,0,0-2.793,2.6v.227a2.04,2.04,0,0,0,.086.6h-.372a3.065,3.065,0,0,0-3.166,2.951v.28a3.065,3.065,0,0,0,3.166,2.951H33.046a3.065,3.065,0,0,0,3.166-2.951v-.28A3.074,3.074,0,0,0,33.046,34.737ZM32.889,6.655h2.335a14.48,14.48,0,0,1-5.243,8.426A41.892,41.892,0,0,0,32.889,6.655Zm-26.1,0H9.369a41.1,41.1,0,0,0,3.022,8.666C8.638,12.838,7.249,8.645,6.791,6.655ZM19.654,21.664c-6.2-5.3-8.279-15.263-8.809-18.561H31.4c-.53,3.312-2.593,13.26-8.795,18.561a2.28,2.28,0,0,1-1.475.481H21.1A2.418,2.418,0,0,1,19.654,21.664ZM12.692,33.9a.621.621,0,0,1,.645-.6h16.6a.621.621,0,0,1,.645.6v.227a.621.621,0,0,1-.645.6H13.322a.621.621,0,0,1-.645-.6V33.9Zm21.357,4.059a.988.988,0,0,1-1.017.948H10.257a.988.988,0,0,1-1.017-.948v-.28a.988.988,0,0,1,1.017-.948H33.032a.988.988,0,0,1,1.017.948ZM23.578,14.667a1.106,1.106,0,0,0,.5.12,1.154,1.154,0,0,0,.63-.187.967.967,0,0,0,.43-.975l-.473-2.551,1.991-1.8a.966.966,0,0,0,.272-1.028,1.056,1.056,0,0,0-.874-.681l-2.75-.374L22.074,4.866a1.17,1.17,0,0,0-1.934,0L18.909,7.189l-2.75.374a1.075,1.075,0,0,0-.874.681.966.966,0,0,0,.272,1.028l1.991,1.8-.473,2.551a.957.957,0,0,0,.43.975,1.143,1.143,0,0,0,1.132.08l2.449-1.2ZM19.6,11.943l.2-1.068a.951.951,0,0,0-.315-.881l-.831-.761,1.146-.16a1.092,1.092,0,0,0,.816-.547l.516-.975.516.975a1.059,1.059,0,0,0,.816.547l1.146.16-.831.761a.951.951,0,0,0-.315.881l.2,1.068-1.031-.507a1.106,1.106,0,0,0-1,0Z" transform="translate(0.203 0)" fill="#333"/>
    </g>
  </g>
</svg>
