<svg id="Page-1" xmlns="http://www.w3.org/2000/svg" width="29" height="29" viewBox="0 0 29 29">
  <g id="Architecture">
    <rect id="Rectangle" width="29" height="29" fill="#fff" opacity="0"/>
    <path id="Shape" d="M28.532,26.321h-1.09V24.259a.706.706,0,0,0-.693-.709h0V13.932h0a.706.706,0,0,0,.693-.709V11.161h.85a.687.687,0,0,0,.665-.52.7.7,0,0,0-.323-.794l-13.539-8.1a.7.7,0,0,0-.693,0L.844,9.837a.719.719,0,0,0-.323.794.7.7,0,0,0,.665.52h.85v2.062a.706.706,0,0,0,.693.709h.009v9.618h0a.706.706,0,0,0-.693.709v2.062H.918a.709.709,0,0,0,0,1.419H28.532a.706.706,0,0,0,.693-.709A.692.692,0,0,0,28.532,26.321ZM25.374,23.55H23.785V13.932h1.589Zm-2.992,0a.706.706,0,0,0-.693.709v2.062H17.625V24.259a.706.706,0,0,0-.693-.709h0V13.932h0a.706.706,0,0,0,.693-.709V11.161h4.064v2.062a.706.706,0,0,0,.693.709h.009V23.55Zm-9.818,0a.706.706,0,0,0-.693.709v2.062H7.807V24.259a.706.706,0,0,0-.693-.709h0V13.932h0a.706.706,0,0,0,.693-.709V11.161h4.064v2.062a.706.706,0,0,0,.693.709h.009V23.55ZM16.24,12.514H13.257V11.161H16.24Zm-2.281,1.419h1.589V23.55H13.958Zm12.108-1.419H23.083V11.161h2.983ZM14.753,3.189l10.99,6.554H3.762ZM6.422,11.161v1.352H3.43V11.161Zm-2.29,2.771H5.72V23.55H4.132Zm-.7,12.389V24.969H6.413v1.352Zm9.827,0V24.969H16.24v1.352Zm9.818,0V24.969h2.983v1.352Z" transform="translate(-0.225 -0.195)" fill="#222"/>
  </g>
</svg>
