<svg id="Page-1" xmlns="http://www.w3.org/2000/svg" width="29" height="29" viewBox="0 0 29 29">
  <g id="Investor-Friendly">
    <rect id="Rectangle" width="29" height="29" fill="#fff" opacity="0"/>
    <path id="Shape" d="M12.248,12.635A5.44,5.44,0,1,0,6.86,7.195,5.42,5.42,0,0,0,12.248,12.635Zm0-9.278a3.839,3.839,0,1,1-3.8,3.839A3.824,3.824,0,0,1,12.248,3.356ZM22.04,14.178A7.508,7.508,0,0,0,17.789,15.5a11.723,11.723,0,0,0-5.646-1.456A11.418,11.418,0,0,0,.623,25.327a.8.8,0,0,0,.793.8H15.783a7.6,7.6,0,1,0,6.257-11.95ZM2.237,24.527a9.852,9.852,0,0,1,9.906-8.883,10.041,10.041,0,0,1,4.346.993,7.638,7.638,0,0,0-1.528,7.89Zm19.8,3.347a6.048,6.048,0,1,1,5.99-6.047A6.022,6.022,0,0,1,22.04,27.874Zm1.481-8.9a3.022,3.022,0,0,1,.287.7H24.6a.8.8,0,0,1,0,1.6h-.793a3.043,3.043,0,0,1-2.465,2.257l2.321,2.334a.791.791,0,0,1,0,1.128.809.809,0,0,1-.564.241.777.777,0,0,1-.554-.231l-3.64-3.646h0a.771.771,0,0,1-.172-.26.843.843,0,0,1-.057-.309h0c0-.019.01-.029.01-.039a.609.609,0,0,1,.057-.26.677.677,0,0,1,.134-.2c.019-.019.019-.039.038-.058h0a.763.763,0,0,1,.258-.174.808.808,0,0,1,.3-.058h1.423a1.439,1.439,0,0,0,1.223-.714H19.47a.8.8,0,0,1,0-1.6h2.646a1.43,1.43,0,0,0-1.223-.7H19.47a.8.8,0,0,1,0-1.6H24.6a.8.8,0,0,1,0,1.6H23.52Z" transform="translate(-0.615 -1.115)" fill="#222"/>
  </g>
</svg>
