<svg id="Page-1" xmlns="http://www.w3.org/2000/svg" width="29" height="29" viewBox="0 0 29 29">
  <g id="Socio-Economic--Growth">
    <rect id="Rectangle" width="29" height="29" fill="#fff" opacity="0"/>
    <path id="Shape" d="M29.329,28.477H28.5V10.929a.862.862,0,0,0-.865-.863H23.223a.862.862,0,0,0-.865.863V28.477h-3.3V16.585a.862.862,0,0,0-.865-.863H13.783a.862.862,0,0,0-.865.863v11.9H9.605V21.471a.862.862,0,0,0-.865-.863H4.333a.862.862,0,0,0-.865.863v7.017H2.635a.863.863,0,1,0,0,1.726H29.318a.868.868,0,0,0,.01-1.736Zm-24.131,0V22.323H7.886v6.154Zm9.44,0V17.447h2.688v11.04H14.638Zm9.44,0V11.792h2.688V28.477ZM4.51,15.4a.861.861,0,0,1,.135-1.216l6.231-4.969a.886.886,0,0,1,.979-.073l3.313,1.923,7.3-7.8-1.688.042h-.021a.863.863,0,0,1-.021-1.726l3.73-.083h.01a.873.873,0,0,1,.615.229.839.839,0,0,1,.26.655l.083,3.67a.862.862,0,0,1-.844.884h-.021a.864.864,0,0,1-.865-.842l-.042-1.58L15.95,12.749a.871.871,0,0,1-1.063.156l-3.4-1.975L5.729,15.535a.857.857,0,0,1-.542.187A.9.9,0,0,1,4.51,15.4Z" transform="translate(-1.476 -1.356)" fill="#222"/>
  </g>
</svg>
