<svg id="Group_360" data-name="Group 360" xmlns="http://www.w3.org/2000/svg" width="17.546" height="17.546" viewBox="0 0 17.546 17.546">
  <path id="Path_364" data-name="Path 364" d="M396.35,97.895c2.343,0,2.62.009,3.545.051a4.855,4.855,0,0,1,1.629.3,2.908,2.908,0,0,1,1.665,1.665,4.856,4.856,0,0,1,.3,1.629c.042.925.051,1.2.051,3.545s-.009,2.62-.051,3.545a4.85,4.85,0,0,1-.3,1.629,2.907,2.907,0,0,1-1.665,1.665,4.846,4.846,0,0,1-1.629.3c-.925.042-1.2.051-3.545.051s-2.62-.009-3.545-.051a4.841,4.841,0,0,1-1.629-.3,2.905,2.905,0,0,1-1.665-1.665,4.864,4.864,0,0,1-.3-1.629c-.042-.925-.051-1.2-.051-3.545s.008-2.62.051-3.545a4.87,4.87,0,0,1,.3-1.629,2.906,2.906,0,0,1,1.665-1.665,4.849,4.849,0,0,1,1.629-.3c.925-.042,1.2-.051,3.545-.051m0-1.581c-2.382,0-2.681.01-3.617.053a6.443,6.443,0,0,0-2.129.408,4.485,4.485,0,0,0-2.566,2.566,6.436,6.436,0,0,0-.408,2.129c-.043.936-.053,1.234-.053,3.617s.01,2.681.053,3.617a6.439,6.439,0,0,0,.408,2.13A4.485,4.485,0,0,0,390.6,113.4a6.455,6.455,0,0,0,2.129.408c.936.042,1.234.053,3.617.053s2.681-.01,3.617-.053a6.457,6.457,0,0,0,2.129-.408,4.485,4.485,0,0,0,2.566-2.566,6.448,6.448,0,0,0,.408-2.13c.042-.936.053-1.234.053-3.617s-.01-2.681-.053-3.617a6.446,6.446,0,0,0-.408-2.129,4.485,4.485,0,0,0-2.566-2.566,6.446,6.446,0,0,0-2.129-.408c-.936-.042-1.234-.053-3.617-.053" transform="translate(-387.577 -96.314)" fill="#333"/>
  <path id="Path_365" data-name="Path 365" d="M401.649,105.88a4.505,4.505,0,1,0,4.505,4.505,4.5,4.5,0,0,0-4.505-4.505m0,7.429a2.924,2.924,0,1,1,2.924-2.924,2.924,2.924,0,0,1-2.924,2.924" transform="translate(-392.876 -101.612)" fill="#333"/>
  <path id="Path_366" data-name="Path 366" d="M417.484,104.174a1.053,1.053,0,1,1-1.053-1.052,1.053,1.053,0,0,1,1.053,1.052" transform="translate(-402.975 -100.085)" fill="#333"/>
</svg>
