<?xml version="1.0" encoding="utf-8"?>
<!-- Generator: Adobe Illustrator 26.0.0, SVG Export Plug-In . SVG Version: 6.00 Build 0)  -->
<svg version="1.1" id="Layer_1" xmlns="http://www.w3.org/2000/svg" xmlns:xlink="http://www.w3.org/1999/xlink" x="0px" y="0px"
	 viewBox="0 0 217.82 46.14" style="enable-background:new 0 0 217.82 46.14;" xml:space="preserve">
<style type="text/css">
	.st0{opacity:0;fill:#FFFFFF;}
	.st1{fill:#FFFFFF;}
	.st2{fill:#C7B299;}
	.st3{fill:#FF0000;}
	.st4{fill:#00FF00;}
	.st5{fill:none;stroke:#000000;stroke-linecap:round;stroke-linejoin:round;stroke-miterlimit:10;}
	.st6{fill:none;stroke:#000000;stroke-linejoin:round;stroke-miterlimit:10;}
	.st7{fill:none;stroke:#000000;stroke-linecap:round;stroke-linejoin:round;}
	.st8{fill:none;stroke:#000000;stroke-linejoin:round;}
	.st9{fill:none;stroke:#231F20;stroke-linejoin:round;stroke-miterlimit:10;}
	.st10{fill:none;stroke:#231F20;stroke-linecap:round;stroke-linejoin:round;stroke-miterlimit:10;}
	.st11{fill:none;stroke:#000000;stroke-width:0.75;stroke-linecap:round;stroke-linejoin:round;stroke-miterlimit:10;}
	.st12{fill:none;stroke:#000000;stroke-linecap:round;stroke-miterlimit:10;}
	.st13{fill:none;stroke:#241F20;stroke-linecap:round;stroke-linejoin:round;stroke-miterlimit:10;}
	.st14{fill:none;stroke:#221F20;stroke-linecap:round;stroke-linejoin:round;stroke-miterlimit:10;}
	.st15{fill:#231F20;}
	.st16{fill:#00B921;}
	.st17{fill:#FFFFFF;stroke:#EFEFEF;stroke-width:0.25;stroke-miterlimit:10;}
	.st18{fill:#4BCA59;}
	.st19{fill-rule:evenodd;clip-rule:evenodd;fill:#FFFFFF;}
	.st20{fill:none;stroke:#020202;stroke-miterlimit:10;}
	.st21{fill:none;stroke:#000000;stroke-miterlimit:10;}
	.st22{fill:none;stroke:#000000;stroke-width:0.95;stroke-linecap:round;stroke-linejoin:round;stroke-miterlimit:10;}
	.st23{fill:none;stroke:#000000;stroke-linecap:round;stroke-linejoin:round;stroke-miterlimit:10;stroke-dasharray:2;}
	.st24{fill:none;stroke:#000000;stroke-width:0.93;stroke-linecap:round;stroke-linejoin:round;stroke-miterlimit:10;}
	.st25{fill:#020202;}
	.st26{fill:none;stroke:#020202;stroke-width:0.5;stroke-linecap:round;stroke-linejoin:round;stroke-miterlimit:10;}
	.st27{fill:none;stroke:#020202;stroke-linecap:round;stroke-linejoin:round;stroke-miterlimit:10;}
	.st28{fill:#FF6000;}
	.st29{fill:none;stroke:#000000;stroke-width:0.9;stroke-linecap:round;stroke-linejoin:round;stroke-miterlimit:10;}
	.st30{enable-background:new    ;}
	.st31{fill:#010101;}
	.st32{fill:none;stroke:#000000;stroke-width:1.3;stroke-linecap:round;stroke-linejoin:round;stroke-miterlimit:10;}
	.st33{fill:none;stroke:#000000;stroke-width:1.2;stroke-linecap:round;stroke-linejoin:round;stroke-miterlimit:10;}
	.st34{fill:none;stroke:#000000;stroke-width:1.3;stroke-miterlimit:10;}
	
		.st35{fill-rule:evenodd;clip-rule:evenodd;fill:none;stroke:#000000;stroke-width:1.3;stroke-linecap:round;stroke-linejoin:round;stroke-miterlimit:10;}
	.st36{fill:none;stroke:#000000;stroke-width:1.5;stroke-linecap:round;stroke-linejoin:round;stroke-miterlimit:10;}
	.st37{fill:none;stroke:#000000;stroke-width:1.3;stroke-linejoin:round;stroke-miterlimit:10;}
	.st38{fill:none;stroke:#000000;stroke-width:1.3;stroke-linecap:round;stroke-miterlimit:10;}
	.st39{fill:none;stroke:#000000;stroke-width:1.5;stroke-linejoin:round;stroke-miterlimit:10;}
	.st40{fill:none;stroke:#000000;stroke-width:1.7;stroke-linecap:round;stroke-linejoin:round;stroke-miterlimit:10;}
	
		.st41{fill-rule:evenodd;clip-rule:evenodd;fill:none;stroke:#000000;stroke-width:1.5;stroke-linecap:round;stroke-linejoin:round;stroke-miterlimit:10;}
	
		.st42{fill-rule:evenodd;clip-rule:evenodd;fill:none;stroke:#000000;stroke-linecap:round;stroke-linejoin:round;stroke-miterlimit:10;}
	.st43{fill:none;stroke:#000000;stroke-width:1.8;stroke-linecap:round;stroke-linejoin:round;stroke-miterlimit:10;}
	
		.st44{fill-rule:evenodd;clip-rule:evenodd;fill:none;stroke:#000000;stroke-width:1.8;stroke-linecap:round;stroke-linejoin:round;stroke-miterlimit:10;}
	
		.st45{fill-rule:evenodd;clip-rule:evenodd;fill:none;stroke:#000000;stroke-width:1.7;stroke-linecap:round;stroke-linejoin:round;stroke-miterlimit:10;}
	.st46{fill:#FF8BB3;}
</style>
<rect class="st0" width="217.82" height="46.14"/>
<g>
	<g class="st30">
		<path class="st31" d="M5.68,12.38c0.59,0,1.11-0.15,1.57-0.46c0.46-0.3,0.81-0.71,1.04-1.22c0.08-0.15,0.18-0.27,0.3-0.37
			s0.27-0.14,0.49-0.14c0.19,0,0.38,0.08,0.56,0.22c0.18,0.15,0.27,0.34,0.27,0.58c0,0.07,0,0.14-0.02,0.21
			c-0.01,0.06-0.04,0.14-0.08,0.22c-0.16,0.41-0.38,0.77-0.66,1.09c-0.28,0.32-0.61,0.59-0.97,0.81C7.81,13.54,7.42,13.71,7,13.83
			s-0.86,0.18-1.3,0.18c-0.66,0-1.27-0.11-1.82-0.34c-0.55-0.23-1.03-0.55-1.44-0.95c-0.41-0.41-0.74-0.88-0.98-1.43
			c-0.25-0.55-0.39-1.14-0.43-1.79c-0.09-0.86-0.09-1.72,0-2.56c0.04-0.63,0.19-1.22,0.43-1.77C1.7,4.62,2.03,4.15,2.44,3.74
			c0.41-0.4,0.89-0.72,1.43-0.96s1.15-0.35,1.81-0.35c0.45,0,0.88,0.06,1.31,0.19c0.43,0.12,0.82,0.29,1.18,0.52
			c0.36,0.22,0.69,0.5,0.97,0.82c0.28,0.32,0.5,0.68,0.66,1.09C9.85,5.12,9.88,5.2,9.89,5.26C9.9,5.33,9.9,5.4,9.9,5.47
			c0,0.23-0.09,0.43-0.27,0.58C9.45,6.19,9.26,6.27,9.07,6.27c-0.21,0-0.38-0.05-0.5-0.16C8.46,6,8.36,5.89,8.29,5.76
			C8.05,5.24,7.71,4.82,7.25,4.52c-0.46-0.3-0.98-0.46-1.57-0.46c-0.43,0-0.81,0.08-1.16,0.23c-0.35,0.15-0.65,0.37-0.9,0.64
			c-0.25,0.27-0.45,0.6-0.61,0.97c-0.16,0.37-0.25,0.77-0.28,1.2c-0.05,0.76-0.05,1.52,0,2.28c0.03,0.44,0.13,0.84,0.28,1.21
			c0.15,0.37,0.36,0.68,0.61,0.95c0.25,0.26,0.55,0.47,0.9,0.62C4.87,12.31,5.25,12.38,5.68,12.38z"/>
		<path class="st31" d="M13.92,6.08c0.23-0.22,0.55-0.42,0.95-0.6c0.4-0.18,0.84-0.26,1.32-0.26c0.97,0,1.74,0.29,2.32,0.86
			c0.58,0.57,0.86,1.41,0.86,2.52v4.43c0,0.25-0.08,0.46-0.24,0.62s-0.36,0.26-0.61,0.26c-0.23,0-0.43-0.09-0.6-0.26
			s-0.25-0.38-0.25-0.62V8.7c0-0.59-0.15-1.04-0.46-1.37c-0.3-0.32-0.73-0.49-1.27-0.49c-0.42,0-0.81,0.1-1.17,0.3
			c-0.36,0.2-0.65,0.43-0.87,0.7v5.2c0,0.24-0.08,0.45-0.23,0.62c-0.16,0.17-0.35,0.25-0.6,0.25c-0.23,0-0.44-0.08-0.61-0.25
			c-0.17-0.17-0.26-0.37-0.26-0.62V3.28c0-0.25,0.08-0.45,0.24-0.62c0.16-0.16,0.36-0.25,0.61-0.25c0.23,0,0.43,0.08,0.6,0.25
			c0.17,0.17,0.25,0.37,0.25,0.62V6.08z"/>
		<path class="st31" d="M23.6,6.08c0.23-0.22,0.55-0.42,0.95-0.6s0.84-0.26,1.32-0.26c0.97,0,1.74,0.29,2.32,0.86
			c0.58,0.57,0.86,1.41,0.86,2.52v4.43c0,0.25-0.08,0.46-0.24,0.62s-0.36,0.26-0.61,0.26c-0.23,0-0.44-0.09-0.6-0.26
			c-0.17-0.17-0.25-0.38-0.25-0.62V8.7c0-0.59-0.15-1.04-0.46-1.37c-0.3-0.32-0.73-0.49-1.27-0.49c-0.42,0-0.81,0.1-1.17,0.3
			c-0.36,0.2-0.65,0.43-0.86,0.7v5.2c0,0.24-0.08,0.45-0.23,0.62c-0.16,0.17-0.36,0.25-0.6,0.25c-0.24,0-0.44-0.08-0.61-0.25
			c-0.17-0.17-0.26-0.37-0.26-0.62V3.28c0-0.25,0.08-0.45,0.24-0.62c0.16-0.16,0.36-0.25,0.61-0.25c0.24,0,0.44,0.08,0.6,0.25
			c0.17,0.17,0.25,0.37,0.25,0.62V6.08z"/>
		<path class="st31" d="M38.03,12.48c0,0.15-0.02,0.27-0.06,0.36c-0.04,0.09-0.12,0.18-0.24,0.26c-0.12,0.08-0.28,0.16-0.48,0.27
			c-0.2,0.1-0.45,0.2-0.73,0.29c-0.28,0.1-0.6,0.18-0.96,0.24S34.82,14,34.4,14c-0.54,0-1.02-0.07-1.43-0.21s-0.75-0.33-1.02-0.58
			c-0.27-0.25-0.48-0.54-0.62-0.88s-0.21-0.7-0.21-1.1c0-0.35,0.06-0.69,0.19-1.01c0.13-0.32,0.33-0.6,0.59-0.85
			c0.27-0.25,0.6-0.44,1.01-0.58c0.41-0.14,0.89-0.22,1.46-0.22c0.37,0,0.71,0.02,1.02,0.07c0.3,0.05,0.64,0.12,1.02,0.2V8.32
			c0-0.54-0.14-0.94-0.42-1.18c-0.28-0.25-0.73-0.37-1.36-0.37c-0.33,0-0.65,0.04-0.95,0.11s-0.57,0.15-0.79,0.24
			c-0.35,0.12-0.63,0.1-0.85-0.05c-0.21-0.15-0.32-0.35-0.32-0.59c0-0.14,0.04-0.28,0.12-0.42c0.08-0.14,0.23-0.26,0.44-0.36
			c0.23-0.12,0.58-0.23,1.03-0.33s0.93-0.15,1.42-0.15c1.02,0,1.83,0.25,2.42,0.74s0.89,1.28,0.89,2.36V12.48z M34.54,12.51
			c0.55,0,0.98-0.07,1.28-0.2s0.49-0.23,0.58-0.3v-1.78c-0.35-0.09-0.67-0.15-0.96-0.2c-0.29-0.05-0.61-0.07-0.98-0.07
			c-0.49,0-0.89,0.1-1.21,0.31c-0.32,0.21-0.47,0.5-0.47,0.89c0,0.44,0.15,0.77,0.45,1C33.53,12.4,33.97,12.51,34.54,12.51z"/>
		<path class="st31" d="M44.9,13.69c-0.25,0.11-0.53,0.18-0.85,0.23C43.73,13.97,43.41,14,43.1,14c-0.46,0-0.85-0.07-1.18-0.22
			c-0.33-0.15-0.61-0.35-0.82-0.61s-0.38-0.56-0.49-0.91c-0.11-0.35-0.16-0.73-0.16-1.13V4.43c0-0.24,0.08-0.45,0.24-0.62
			c0.16-0.17,0.36-0.25,0.61-0.25c0.23,0,0.43,0.08,0.6,0.25c0.17,0.17,0.25,0.37,0.25,0.62v1.22h2.21c0.21,0,0.4,0.07,0.56,0.22
			c0.16,0.14,0.24,0.32,0.24,0.54s-0.08,0.39-0.24,0.54c-0.16,0.14-0.35,0.22-0.56,0.22h-2.21v3.98c0,0.4,0.09,0.72,0.27,0.94
			c0.18,0.22,0.47,0.33,0.86,0.33c0.21,0,0.41-0.03,0.6-0.08c0.19-0.05,0.37-0.11,0.55-0.16c0.16-0.04,0.31-0.05,0.44-0.02
			c0.13,0.03,0.24,0.08,0.33,0.15c0.08,0.07,0.15,0.16,0.2,0.27c0.05,0.11,0.07,0.23,0.07,0.34c0,0.16-0.04,0.31-0.13,0.45
			C45.26,13.5,45.11,13.61,44.9,13.69z"/>
		<path class="st31" d="M51.49,5.39C51.73,5.46,51.9,5.57,52,5.7c0.1,0.13,0.14,0.29,0.14,0.49c0,0.18-0.06,0.36-0.19,0.54
			c-0.13,0.18-0.33,0.26-0.61,0.26c-0.15,0-0.32-0.03-0.51-0.08c-0.19-0.05-0.42-0.07-0.69-0.06c-0.37,0.01-0.65,0.12-0.83,0.31
			s-0.27,0.52-0.27,0.97v4.93c0,0.25-0.08,0.45-0.25,0.61c-0.17,0.16-0.37,0.24-0.62,0.24c-0.22,0-0.42-0.08-0.58-0.24
			c-0.17-0.16-0.25-0.36-0.25-0.61v-5.2c0-0.81,0.23-1.45,0.69-1.93s1.13-0.71,2-0.71c0.28,0,0.55,0.02,0.81,0.05
			C51.1,5.29,51.32,5.34,51.49,5.39z"/>
		<path class="st31" d="M60.05,12.48c0,0.15-0.02,0.27-0.06,0.36c-0.04,0.09-0.12,0.18-0.24,0.26c-0.12,0.08-0.28,0.16-0.48,0.27
			c-0.2,0.1-0.45,0.2-0.73,0.29c-0.28,0.1-0.6,0.18-0.96,0.24S56.83,14,56.41,14c-0.54,0-1.02-0.07-1.43-0.21s-0.75-0.33-1.02-0.58
			c-0.27-0.25-0.48-0.54-0.62-0.88s-0.21-0.7-0.21-1.1c0-0.35,0.06-0.69,0.19-1.01c0.13-0.32,0.33-0.6,0.59-0.85
			c0.27-0.25,0.6-0.44,1.01-0.58c0.41-0.14,0.89-0.22,1.46-0.22c0.37,0,0.71,0.02,1.02,0.07c0.3,0.05,0.64,0.12,1.02,0.2V8.32
			c0-0.54-0.14-0.94-0.42-1.18c-0.28-0.25-0.73-0.37-1.36-0.37c-0.33,0-0.65,0.04-0.95,0.11s-0.57,0.15-0.79,0.24
			c-0.35,0.12-0.63,0.1-0.85-0.05c-0.21-0.15-0.32-0.35-0.32-0.59c0-0.14,0.04-0.28,0.12-0.42c0.08-0.14,0.23-0.26,0.44-0.36
			c0.23-0.12,0.58-0.23,1.03-0.33s0.93-0.15,1.42-0.15c1.02,0,1.83,0.25,2.42,0.74s0.89,1.28,0.89,2.36V12.48z M56.56,12.51
			c0.55,0,0.98-0.07,1.28-0.2s0.49-0.23,0.58-0.3v-1.78c-0.35-0.09-0.67-0.15-0.96-0.2c-0.29-0.05-0.61-0.07-0.98-0.07
			c-0.49,0-0.89,0.1-1.21,0.31c-0.32,0.21-0.47,0.5-0.47,0.89c0,0.44,0.15,0.77,0.45,1C55.55,12.4,55.98,12.51,56.56,12.51z"/>
		<path class="st31" d="M69.76,10.75c-0.08,1-0.43,1.79-1.03,2.38c-0.6,0.58-1.44,0.87-2.5,0.87c-0.36,0-0.72-0.05-1.08-0.15
			c-0.36-0.1-0.66-0.21-0.92-0.33v2.61c0,0.24-0.08,0.45-0.25,0.62c-0.17,0.17-0.37,0.25-0.6,0.25c-0.25,0-0.45-0.08-0.61-0.25
			c-0.16-0.17-0.24-0.37-0.24-0.62V6.73c0-0.11,0.02-0.2,0.05-0.26c0.03-0.07,0.1-0.14,0.21-0.22c0.11-0.07,0.27-0.17,0.49-0.29
			c0.22-0.12,0.47-0.24,0.77-0.34c0.29-0.11,0.62-0.2,0.98-0.28c0.36-0.08,0.74-0.12,1.14-0.12c0.53,0,1.01,0.08,1.44,0.23
			c0.43,0.15,0.79,0.38,1.1,0.66c0.3,0.29,0.55,0.63,0.73,1.04C69.6,7.56,69.72,8,69.76,8.49c0.01,0.14,0.02,0.31,0.02,0.5
			s0.01,0.4,0.01,0.62c0,0.21,0,0.42-0.01,0.62S69.77,10.61,69.76,10.75z M68.06,8.72c-0.05-0.61-0.24-1.07-0.55-1.39
			c-0.31-0.32-0.78-0.48-1.38-0.48c-0.18,0-0.37,0.02-0.55,0.06s-0.37,0.09-0.54,0.14c-0.18,0.06-0.34,0.12-0.48,0.19
			c-0.14,0.07-0.25,0.14-0.33,0.2v4.4c0.15,0.11,0.4,0.22,0.75,0.34c0.35,0.12,0.72,0.19,1.12,0.19c0.65,0,1.13-0.16,1.44-0.46
			c0.31-0.31,0.48-0.75,0.53-1.33c0.01-0.11,0.02-0.24,0.02-0.4s0-0.33,0-0.5s0-0.35,0-0.51S68.07,8.85,68.06,8.72z"/>
		<path class="st31" d="M78.59,12.48c0,0.15-0.02,0.27-0.06,0.36c-0.04,0.09-0.12,0.18-0.24,0.26c-0.12,0.08-0.28,0.16-0.48,0.27
			c-0.2,0.1-0.45,0.2-0.73,0.29c-0.28,0.1-0.6,0.18-0.96,0.24c-0.36,0.06-0.74,0.1-1.16,0.1c-0.54,0-1.02-0.07-1.43-0.21
			s-0.75-0.33-1.02-0.58c-0.27-0.25-0.48-0.54-0.62-0.88s-0.21-0.7-0.21-1.1c0-0.35,0.06-0.69,0.19-1.01
			C72,9.9,72.2,9.62,72.46,9.37c0.27-0.25,0.6-0.44,1.01-0.58c0.4-0.14,0.89-0.22,1.46-0.22c0.37,0,0.71,0.02,1.02,0.07
			s0.64,0.12,1.02,0.2V8.32c0-0.54-0.14-0.94-0.42-1.18c-0.28-0.25-0.73-0.37-1.36-0.37c-0.33,0-0.65,0.04-0.95,0.11
			s-0.57,0.15-0.79,0.24c-0.35,0.12-0.63,0.1-0.85-0.05c-0.21-0.15-0.32-0.35-0.32-0.59c0-0.14,0.04-0.28,0.12-0.42
			s0.23-0.26,0.44-0.36c0.23-0.12,0.58-0.23,1.03-0.33c0.45-0.1,0.92-0.15,1.42-0.15c1.02,0,1.83,0.25,2.42,0.74
			c0.59,0.5,0.89,1.28,0.89,2.36V12.48z M75.1,12.51c0.55,0,0.98-0.07,1.28-0.2s0.49-0.23,0.58-0.3v-1.78
			c-0.35-0.09-0.67-0.15-0.96-0.2c-0.29-0.05-0.61-0.07-0.98-0.07c-0.49,0-0.89,0.1-1.21,0.31c-0.31,0.21-0.47,0.5-0.47,0.89
			c0,0.44,0.15,0.77,0.45,1C74.09,12.4,74.53,12.51,75.1,12.51z"/>
		<path class="st31" d="M85.46,13.69c-0.25,0.11-0.53,0.18-0.85,0.23C84.29,13.97,83.97,14,83.66,14c-0.46,0-0.85-0.07-1.18-0.22
			c-0.33-0.15-0.61-0.35-0.82-0.61s-0.38-0.56-0.49-0.91c-0.11-0.35-0.16-0.73-0.16-1.13V4.43c0-0.24,0.08-0.45,0.24-0.62
			s0.36-0.25,0.61-0.25c0.23,0,0.43,0.08,0.6,0.25c0.16,0.17,0.25,0.37,0.25,0.62v1.22h2.21c0.21,0,0.4,0.07,0.56,0.22
			c0.16,0.14,0.24,0.32,0.24,0.54s-0.08,0.39-0.24,0.54c-0.16,0.14-0.35,0.22-0.56,0.22H82.7v3.98c0,0.4,0.09,0.72,0.27,0.94
			s0.47,0.33,0.86,0.33c0.21,0,0.41-0.03,0.6-0.08s0.37-0.11,0.55-0.16c0.16-0.04,0.31-0.05,0.44-0.02
			c0.13,0.03,0.24,0.08,0.33,0.15c0.09,0.07,0.15,0.16,0.2,0.27c0.05,0.11,0.07,0.23,0.07,0.34c0,0.16-0.04,0.31-0.13,0.45
			C85.82,13.5,85.67,13.61,85.46,13.69z"/>
		<path class="st31" d="M89.63,3.25c0,0.27-0.09,0.5-0.27,0.69c-0.18,0.19-0.41,0.29-0.67,0.29c-0.28,0-0.51-0.1-0.69-0.29
			c-0.18-0.19-0.27-0.42-0.27-0.69c0-0.27,0.09-0.49,0.27-0.67s0.41-0.27,0.69-0.27c0.27,0,0.49,0.09,0.67,0.27
			C89.54,2.76,89.63,2.98,89.63,3.25z M88.69,5.33c0.23,0,0.43,0.08,0.6,0.25s0.25,0.37,0.25,0.62v6.85c0,0.24-0.08,0.45-0.24,0.62
			c-0.16,0.17-0.36,0.25-0.61,0.25c-0.22,0-0.42-0.08-0.59-0.25c-0.17-0.17-0.26-0.37-0.26-0.62V6.19c0-0.24,0.08-0.45,0.24-0.62
			S88.44,5.33,88.69,5.33z"/>
		<path class="st31" d="M100.78,7.34c0.7,0.13,1.31,0.29,1.81,0.47c0.5,0.19,0.92,0.41,1.24,0.67s0.56,0.57,0.71,0.92
			c0.15,0.35,0.22,0.76,0.22,1.23c0,0.48-0.09,0.93-0.28,1.34c-0.19,0.42-0.46,0.77-0.82,1.07s-0.8,0.53-1.32,0.7
			c-0.52,0.17-1.11,0.26-1.77,0.26c-0.91,0-1.67-0.11-2.29-0.34s-1.15-0.5-1.58-0.82c-0.3-0.21-0.45-0.46-0.45-0.75
			c0-0.26,0.09-0.47,0.26-0.63c0.17-0.17,0.38-0.25,0.62-0.25c0.08,0,0.18,0.02,0.28,0.05c0.1,0.03,0.22,0.1,0.34,0.19
			c0.36,0.26,0.77,0.47,1.22,0.65c0.45,0.18,1.01,0.26,1.68,0.26c0.75,0,1.33-0.15,1.75-0.46s0.63-0.73,0.63-1.27
			c0-0.24-0.05-0.44-0.15-0.6c-0.1-0.17-0.26-0.31-0.48-0.44c-0.22-0.13-0.5-0.24-0.85-0.34c-0.35-0.1-0.76-0.2-1.24-0.3
			c-1.3-0.26-2.26-0.63-2.88-1.13c-0.62-0.5-0.93-1.21-0.93-2.12c0-0.5,0.1-0.96,0.3-1.36s0.47-0.75,0.82-1.03s0.76-0.5,1.25-0.66
			c0.49-0.15,1.02-0.23,1.59-0.23c0.71,0,1.37,0.09,1.95,0.26c0.59,0.17,1.04,0.4,1.38,0.67c0.18,0.17,0.27,0.4,0.27,0.67
			c0,0.22-0.08,0.41-0.22,0.57c-0.15,0.16-0.34,0.23-0.56,0.23c-0.12,0-0.23-0.02-0.34-0.06c-0.11-0.04-0.21-0.08-0.3-0.13
			c-0.28-0.15-0.59-0.28-0.94-0.4s-0.76-0.18-1.23-0.18c-0.41,0-0.75,0.04-1.03,0.14c-0.28,0.09-0.51,0.21-0.69,0.36
			c-0.18,0.15-0.3,0.32-0.38,0.52s-0.12,0.4-0.12,0.62c0,0.22,0.04,0.42,0.13,0.58c0.08,0.16,0.23,0.31,0.43,0.44
			c0.2,0.13,0.47,0.24,0.79,0.34C99.92,7.15,100.31,7.25,100.78,7.34z"/>
		<path class="st31" d="M108.46,6.08c0.23-0.22,0.55-0.42,0.95-0.6c0.4-0.18,0.84-0.26,1.32-0.26c0.97,0,1.74,0.29,2.32,0.86
			s0.86,1.41,0.86,2.52v4.43c0,0.25-0.08,0.46-0.24,0.62c-0.16,0.17-0.36,0.26-0.61,0.26c-0.23,0-0.43-0.09-0.6-0.26
			c-0.17-0.17-0.25-0.38-0.25-0.62V8.7c0-0.59-0.15-1.04-0.46-1.37c-0.3-0.32-0.73-0.49-1.27-0.49c-0.42,0-0.8,0.1-1.17,0.3
			c-0.36,0.2-0.65,0.43-0.86,0.7v5.2c0,0.24-0.08,0.45-0.23,0.62s-0.36,0.25-0.6,0.25c-0.24,0-0.44-0.08-0.61-0.25
			s-0.26-0.37-0.26-0.62V3.28c0-0.25,0.08-0.45,0.24-0.62c0.16-0.16,0.36-0.25,0.61-0.25c0.24,0,0.43,0.08,0.6,0.25
			c0.17,0.17,0.25,0.37,0.25,0.62V6.08z"/>
		<path class="st31" d="M118.3,3.25c0,0.27-0.09,0.5-0.27,0.69c-0.18,0.19-0.41,0.29-0.67,0.29c-0.28,0-0.51-0.1-0.69-0.29
			c-0.18-0.19-0.27-0.42-0.27-0.69c0-0.27,0.09-0.49,0.27-0.67s0.41-0.27,0.69-0.27c0.27,0,0.49,0.09,0.67,0.27
			C118.21,2.76,118.3,2.98,118.3,3.25z M117.36,5.33c0.23,0,0.43,0.08,0.6,0.25s0.25,0.37,0.25,0.62v6.85
			c0,0.24-0.08,0.45-0.24,0.62c-0.16,0.17-0.36,0.25-0.61,0.25c-0.22,0-0.42-0.08-0.59-0.25c-0.17-0.17-0.26-0.37-0.26-0.62V6.19
			c0-0.24,0.08-0.45,0.24-0.62S117.11,5.33,117.36,5.33z"/>
		<path class="st31" d="M126.78,5.34c0.16,0,0.3,0.04,0.42,0.11c0.12,0.07,0.22,0.16,0.3,0.28s0.13,0.25,0.15,0.39
			c0.02,0.14,0,0.29-0.06,0.46l-2.29,6.11c-0.31,0.83-0.82,1.25-1.54,1.25c-0.69,0-1.19-0.41-1.5-1.23l-2.29-6.16
			c-0.06-0.16-0.09-0.31-0.06-0.46c0.02-0.15,0.07-0.28,0.15-0.39c0.08-0.11,0.18-0.2,0.3-0.27c0.12-0.07,0.26-0.1,0.42-0.1
			c0.18,0,0.35,0.06,0.5,0.18s0.26,0.27,0.32,0.46l2.1,6c0.02,0.04,0.05,0.06,0.08,0.06s0.06-0.02,0.08-0.06L125.93,6
			c0.08-0.2,0.19-0.36,0.34-0.48C126.42,5.4,126.59,5.34,126.78,5.34z"/>
		<path class="st31" d="M135.55,12.48c0,0.15-0.02,0.27-0.06,0.36c-0.04,0.09-0.12,0.18-0.24,0.26c-0.12,0.08-0.28,0.16-0.48,0.27
			c-0.2,0.1-0.45,0.2-0.73,0.29c-0.28,0.1-0.6,0.18-0.96,0.24s-0.74,0.1-1.16,0.1c-0.54,0-1.02-0.07-1.43-0.21s-0.75-0.33-1.02-0.58
			c-0.27-0.25-0.48-0.54-0.62-0.88s-0.21-0.7-0.21-1.1c0-0.35,0.06-0.69,0.19-1.01c0.13-0.32,0.33-0.6,0.59-0.85
			c0.27-0.25,0.6-0.44,1.01-0.58c0.41-0.14,0.89-0.22,1.46-0.22c0.37,0,0.71,0.02,1.02,0.07c0.3,0.05,0.64,0.12,1.02,0.2V8.32
			c0-0.54-0.14-0.94-0.42-1.18c-0.28-0.25-0.73-0.37-1.36-0.37c-0.33,0-0.65,0.04-0.95,0.11s-0.57,0.15-0.79,0.24
			c-0.35,0.12-0.63,0.1-0.85-0.05c-0.21-0.15-0.32-0.35-0.32-0.59c0-0.14,0.04-0.28,0.12-0.42c0.08-0.14,0.23-0.26,0.44-0.36
			c0.23-0.12,0.58-0.23,1.03-0.33s0.93-0.15,1.42-0.15c1.02,0,1.83,0.25,2.42,0.74s0.89,1.28,0.89,2.36V12.48z M132.06,12.51
			c0.55,0,0.98-0.07,1.28-0.2s0.49-0.23,0.58-0.3v-1.78c-0.35-0.09-0.67-0.15-0.96-0.2c-0.29-0.05-0.61-0.07-0.98-0.07
			c-0.49,0-0.89,0.1-1.21,0.31c-0.32,0.21-0.47,0.5-0.47,0.89c0,0.44,0.15,0.77,0.45,1C131.05,12.4,131.49,12.51,132.06,12.51z"/>
		<path class="st31" d="M138.03,6.19c0-0.24,0.08-0.45,0.24-0.62c0.16-0.17,0.36-0.25,0.61-0.25c0.23,0,0.43,0.08,0.6,0.25
			c0.17,0.17,0.25,0.37,0.25,0.62v6.03c0,0.51-0.04,0.98-0.11,1.4c-0.08,0.42-0.18,0.81-0.32,1.16c-0.14,0.35-0.31,0.67-0.51,0.97
			s-0.43,0.57-0.69,0.84c-0.08,0.1-0.18,0.17-0.29,0.21c-0.11,0.04-0.23,0.06-0.34,0.06c-0.2,0-0.36-0.05-0.48-0.16
			c-0.08-0.06-0.14-0.14-0.2-0.23c-0.06-0.09-0.1-0.19-0.11-0.3c-0.02-0.11-0.01-0.23,0.02-0.34s0.1-0.23,0.19-0.35
			c0.22-0.26,0.41-0.5,0.56-0.73s0.27-0.46,0.36-0.7c0.09-0.23,0.15-0.48,0.18-0.74c0.03-0.26,0.05-0.54,0.05-0.86V6.19z
			 M139.82,3.26c0,0.26-0.09,0.48-0.27,0.67c-0.18,0.19-0.41,0.29-0.67,0.29c-0.28,0-0.5-0.1-0.68-0.29
			c-0.18-0.19-0.26-0.42-0.26-0.67c0-0.28,0.09-0.51,0.26-0.69c0.18-0.18,0.4-0.27,0.68-0.27c0.27,0,0.49,0.09,0.67,0.27
			C139.73,2.76,139.82,2.98,139.82,3.26z"/>
		<path class="st31" d="M144.3,3.25c0,0.27-0.09,0.5-0.27,0.69c-0.18,0.19-0.41,0.29-0.67,0.29c-0.28,0-0.51-0.1-0.69-0.29
			c-0.18-0.19-0.27-0.42-0.27-0.69c0-0.27,0.09-0.49,0.27-0.67s0.41-0.27,0.69-0.27c0.27,0,0.49,0.09,0.67,0.27
			C144.21,2.76,144.3,2.98,144.3,3.25z M143.36,5.33c0.23,0,0.43,0.08,0.6,0.25s0.25,0.37,0.25,0.62v6.85
			c0,0.24-0.08,0.45-0.24,0.62c-0.16,0.17-0.36,0.25-0.61,0.25c-0.22,0-0.42-0.08-0.59-0.25c-0.17-0.17-0.26-0.37-0.26-0.62V6.19
			c0-0.24,0.08-0.45,0.24-0.62S143.11,5.33,143.36,5.33z"/>
		<path class="st31" d="M164.09,13.02c0,0.25-0.07,0.46-0.21,0.64c-0.14,0.18-0.36,0.27-0.66,0.27c-0.21,0-0.41-0.06-0.58-0.19
			c-0.17-0.13-0.27-0.3-0.29-0.51l-1.14-8.8c-0.02-0.1-0.07-0.14-0.14-0.14s-0.12,0.04-0.14,0.13l-1.82,8.05
			c-0.11,0.48-0.3,0.83-0.58,1.06c-0.28,0.23-0.6,0.34-0.98,0.34c-0.37,0-0.7-0.12-0.97-0.34c-0.27-0.23-0.46-0.59-0.57-1.06
			l-1.84-8.03c-0.02-0.1-0.07-0.14-0.14-0.14s-0.12,0.05-0.14,0.14l-1.12,8.8c-0.02,0.21-0.12,0.38-0.29,0.51
			c-0.17,0.13-0.36,0.19-0.58,0.19c-0.3,0-0.52-0.09-0.66-0.27s-0.21-0.39-0.21-0.64c0-0.08,0-0.15,0.02-0.19l1.26-8.78
			c0.09-0.54,0.28-0.94,0.58-1.18c0.3-0.25,0.65-0.37,1.06-0.37c0.42,0,0.78,0.12,1.08,0.35c0.3,0.24,0.51,0.61,0.63,1.12l1.76,7.9
			c0.01,0.03,0.03,0.06,0.05,0.1c0.02,0.03,0.06,0.05,0.11,0.05c0.05,0,0.09-0.02,0.1-0.05c0.02-0.03,0.03-0.06,0.04-0.1l1.73-7.9
			c0.12-0.51,0.32-0.88,0.62-1.12c0.3-0.23,0.65-0.35,1.06-0.35c0.42,0,0.77,0.12,1.07,0.37c0.3,0.24,0.49,0.64,0.58,1.18l1.28,8.78
			C164.09,12.87,164.09,12.94,164.09,13.02z"/>
		<path class="st31" d="M172.89,12.48c0,0.15-0.02,0.27-0.06,0.36c-0.04,0.09-0.12,0.18-0.24,0.26c-0.12,0.08-0.28,0.16-0.48,0.27
			s-0.45,0.2-0.73,0.29s-0.6,0.18-0.96,0.24s-0.74,0.1-1.16,0.1c-0.54,0-1.02-0.07-1.43-0.21c-0.41-0.14-0.75-0.33-1.02-0.58
			c-0.27-0.25-0.48-0.54-0.62-0.88s-0.21-0.7-0.21-1.1c0-0.35,0.06-0.69,0.19-1.01s0.33-0.6,0.59-0.85c0.27-0.25,0.6-0.44,1.01-0.58
			c0.41-0.14,0.89-0.22,1.46-0.22c0.37,0,0.71,0.02,1.02,0.07c0.3,0.05,0.64,0.12,1.02,0.2V8.32c0-0.54-0.14-0.94-0.42-1.18
			c-0.28-0.25-0.73-0.37-1.36-0.37c-0.33,0-0.65,0.04-0.95,0.11c-0.3,0.07-0.57,0.15-0.79,0.24c-0.35,0.12-0.63,0.1-0.85-0.05
			c-0.21-0.15-0.32-0.35-0.32-0.59c0-0.14,0.04-0.28,0.12-0.42s0.23-0.26,0.44-0.36c0.23-0.12,0.58-0.23,1.03-0.33
			s0.92-0.15,1.42-0.15c1.02,0,1.83,0.25,2.42,0.74s0.89,1.28,0.89,2.36V12.48z M169.41,12.51c0.55,0,0.98-0.07,1.28-0.2
			s0.49-0.23,0.58-0.3v-1.78c-0.35-0.09-0.67-0.15-0.96-0.2c-0.29-0.05-0.61-0.07-0.98-0.07c-0.49,0-0.89,0.1-1.21,0.31
			c-0.31,0.21-0.47,0.5-0.47,0.89c0,0.44,0.15,0.77,0.45,1C168.39,12.4,168.83,12.51,169.41,12.51z"/>
		<path class="st31" d="M177.1,6.08c0.23-0.22,0.55-0.42,0.95-0.6s0.84-0.26,1.32-0.26c0.97,0,1.74,0.29,2.32,0.86
			s0.86,1.41,0.86,2.52v4.43c0,0.25-0.08,0.46-0.24,0.62c-0.16,0.17-0.36,0.26-0.61,0.26c-0.23,0-0.43-0.09-0.6-0.26
			c-0.17-0.17-0.25-0.38-0.25-0.62V8.7c0-0.59-0.15-1.04-0.46-1.37c-0.3-0.32-0.73-0.49-1.27-0.49c-0.42,0-0.81,0.1-1.17,0.3
			s-0.65,0.43-0.86,0.7v5.2c0,0.24-0.08,0.45-0.23,0.62s-0.35,0.25-0.6,0.25c-0.23,0-0.44-0.08-0.61-0.25
			c-0.17-0.17-0.26-0.37-0.26-0.62V3.28c0-0.25,0.08-0.45,0.24-0.62c0.16-0.16,0.36-0.25,0.61-0.25c0.23,0,0.43,0.08,0.6,0.25
			c0.17,0.17,0.25,0.37,0.25,0.62V6.08z"/>
		<path class="st31" d="M191.53,12.48c0,0.15-0.02,0.27-0.06,0.36c-0.04,0.09-0.12,0.18-0.24,0.26c-0.12,0.08-0.28,0.16-0.48,0.27
			c-0.2,0.1-0.45,0.2-0.73,0.29c-0.28,0.1-0.6,0.18-0.96,0.24c-0.36,0.06-0.74,0.1-1.16,0.1c-0.54,0-1.02-0.07-1.43-0.21
			s-0.75-0.33-1.02-0.58c-0.27-0.25-0.48-0.54-0.62-0.88s-0.21-0.7-0.21-1.1c0-0.35,0.06-0.69,0.19-1.01
			c0.13-0.32,0.32-0.6,0.59-0.85c0.27-0.25,0.6-0.44,1.01-0.58c0.4-0.14,0.89-0.22,1.46-0.22c0.37,0,0.71,0.02,1.02,0.07
			s0.64,0.12,1.02,0.2V8.32c0-0.54-0.14-0.94-0.42-1.18c-0.28-0.25-0.73-0.37-1.36-0.37c-0.33,0-0.65,0.04-0.95,0.11
			s-0.57,0.15-0.79,0.24c-0.35,0.12-0.63,0.1-0.85-0.05c-0.21-0.15-0.32-0.35-0.32-0.59c0-0.14,0.04-0.28,0.12-0.42
			s0.23-0.26,0.44-0.36c0.23-0.12,0.58-0.23,1.03-0.33c0.45-0.1,0.92-0.15,1.42-0.15c1.02,0,1.83,0.25,2.42,0.74
			c0.59,0.5,0.89,1.28,0.89,2.36V12.48z M188.05,12.51c0.55,0,0.98-0.07,1.28-0.2s0.49-0.23,0.58-0.3v-1.78
			c-0.35-0.09-0.67-0.15-0.96-0.2c-0.29-0.05-0.61-0.07-0.98-0.07c-0.49,0-0.89,0.1-1.21,0.31c-0.31,0.21-0.47,0.5-0.47,0.89
			c0,0.44,0.15,0.77,0.45,1C187.03,12.4,187.47,12.51,188.05,12.51z"/>
		<path class="st31" d="M198.08,5.39c0.25,0.07,0.42,0.18,0.51,0.31c0.1,0.13,0.14,0.29,0.14,0.49c0,0.18-0.06,0.36-0.19,0.54
			s-0.33,0.26-0.61,0.26c-0.15,0-0.32-0.03-0.51-0.08c-0.19-0.05-0.42-0.07-0.69-0.06c-0.37,0.01-0.65,0.12-0.83,0.31
			c-0.18,0.2-0.27,0.52-0.27,0.97v4.93c0,0.25-0.08,0.45-0.25,0.61s-0.37,0.24-0.62,0.24c-0.22,0-0.42-0.08-0.58-0.24
			s-0.25-0.36-0.25-0.61v-5.2c0-0.81,0.23-1.45,0.69-1.93c0.46-0.47,1.13-0.71,2-0.71c0.28,0,0.55,0.02,0.81,0.05
			C197.69,5.29,197.91,5.34,198.08,5.39z"/>
		<path class="st31" d="M206.64,12.48c0,0.15-0.02,0.27-0.06,0.36c-0.04,0.09-0.12,0.18-0.24,0.26c-0.12,0.08-0.28,0.16-0.48,0.27
			c-0.2,0.1-0.45,0.2-0.73,0.29c-0.28,0.1-0.6,0.18-0.96,0.24c-0.36,0.06-0.74,0.1-1.16,0.1c-0.54,0-1.02-0.07-1.43-0.21
			s-0.75-0.33-1.02-0.58c-0.27-0.25-0.48-0.54-0.62-0.88s-0.21-0.7-0.21-1.1c0-0.35,0.06-0.69,0.19-1.01
			c0.13-0.32,0.32-0.6,0.59-0.85c0.27-0.25,0.6-0.44,1.01-0.58c0.4-0.14,0.89-0.22,1.46-0.22c0.37,0,0.71,0.02,1.02,0.07
			s0.64,0.12,1.02,0.2V8.32c0-0.54-0.14-0.94-0.42-1.18c-0.28-0.25-0.73-0.37-1.36-0.37c-0.33,0-0.65,0.04-0.95,0.11
			s-0.57,0.15-0.79,0.24c-0.35,0.12-0.63,0.1-0.85-0.05c-0.21-0.15-0.32-0.35-0.32-0.59c0-0.14,0.04-0.28,0.12-0.42
			s0.23-0.26,0.44-0.36c0.23-0.12,0.58-0.23,1.03-0.33c0.45-0.1,0.92-0.15,1.42-0.15c1.02,0,1.83,0.25,2.42,0.74
			c0.59,0.5,0.89,1.28,0.89,2.36V12.48z M203.15,12.51c0.55,0,0.98-0.07,1.28-0.2s0.49-0.23,0.58-0.3v-1.78
			c-0.35-0.09-0.67-0.15-0.96-0.2c-0.29-0.05-0.61-0.07-0.98-0.07c-0.49,0-0.89,0.1-1.21,0.31c-0.31,0.21-0.47,0.5-0.47,0.89
			c0,0.44,0.15,0.77,0.45,1C202.14,12.4,202.57,12.51,203.15,12.51z"/>
		<path class="st31" d="M209.12,6.19c0-0.24,0.08-0.45,0.24-0.62s0.36-0.25,0.61-0.25c0.23,0,0.44,0.08,0.6,0.25
			s0.25,0.37,0.25,0.62v6.03c0,0.51-0.04,0.98-0.11,1.4c-0.07,0.42-0.18,0.81-0.32,1.16c-0.14,0.35-0.31,0.67-0.51,0.97
			s-0.43,0.57-0.69,0.84c-0.09,0.1-0.18,0.17-0.3,0.21c-0.11,0.04-0.23,0.06-0.34,0.06c-0.2,0-0.36-0.05-0.48-0.16
			c-0.08-0.06-0.14-0.14-0.2-0.23c-0.06-0.09-0.1-0.19-0.11-0.3c-0.02-0.11-0.01-0.23,0.02-0.34c0.03-0.12,0.1-0.23,0.19-0.35
			c0.22-0.26,0.41-0.5,0.56-0.73c0.15-0.23,0.27-0.46,0.36-0.7c0.09-0.23,0.15-0.48,0.18-0.74s0.05-0.54,0.05-0.86V6.19z
			 M210.91,3.26c0,0.26-0.09,0.48-0.27,0.67c-0.18,0.19-0.4,0.29-0.67,0.29c-0.28,0-0.5-0.1-0.68-0.29
			c-0.18-0.19-0.26-0.42-0.26-0.67c0-0.28,0.09-0.51,0.26-0.69s0.4-0.27,0.68-0.27c0.27,0,0.49,0.09,0.67,0.27
			S210.91,2.98,210.91,3.26z"/>
	</g>
	<g class="st30">
		<path class="st31" d="M1.1,21.54c0-0.12,0.04-0.23,0.13-0.32s0.19-0.14,0.32-0.14c0.13,0,0.24,0.04,0.32,0.14
			C1.96,21.31,2,21.42,2,21.54v6.88c0,0.12-0.04,0.23-0.13,0.32c-0.08,0.09-0.19,0.14-0.32,0.14c-0.12,0-0.23-0.05-0.32-0.14
			s-0.13-0.2-0.13-0.32V21.54z"/>
		<path class="st31" d="M9.58,27.77H9.6c-0.01-0.22-0.02-0.46-0.03-0.71c-0.01-0.25-0.02-0.56-0.02-0.93v-4.59
			c0-0.12,0.04-0.23,0.13-0.32s0.19-0.14,0.32-0.14c0.13,0,0.24,0.04,0.32,0.14s0.13,0.2,0.13,0.32v6.54c0,0.21-0.07,0.39-0.2,0.54
			s-0.31,0.23-0.52,0.23c-0.32,0-0.56-0.14-0.73-0.41L5.1,22.13H5.08c0.01,0.23,0.01,0.48,0.02,0.76c0.01,0.28,0.01,0.59,0.01,0.95
			v4.59c0,0.13-0.04,0.24-0.13,0.33c-0.08,0.09-0.19,0.13-0.33,0.13c-0.12,0-0.23-0.05-0.32-0.14s-0.13-0.2-0.13-0.32V21.9
			c0-0.23,0.07-0.42,0.21-0.57c0.14-0.15,0.33-0.23,0.56-0.23c0.15,0,0.28,0.03,0.41,0.09c0.13,0.06,0.24,0.17,0.33,0.34L9.58,27.77
			z"/>
		<path class="st31" d="M14.43,22h-2.2c-0.12,0-0.23-0.04-0.32-0.12c-0.09-0.08-0.14-0.18-0.14-0.31c0-0.13,0.05-0.24,0.14-0.32
			c0.09-0.08,0.2-0.12,0.32-0.12h5.28c0.12,0,0.23,0.04,0.32,0.12c0.09,0.08,0.13,0.19,0.13,0.32c0,0.12-0.04,0.23-0.13,0.31
			C17.74,21.96,17.64,22,17.51,22h-2.18v6.42c0,0.12-0.04,0.23-0.13,0.32s-0.19,0.14-0.32,0.14c-0.12,0-0.23-0.05-0.32-0.14
			s-0.13-0.2-0.13-0.32V22z"/>
		<path class="st31" d="M23.84,21.13c0.12,0,0.23,0.04,0.32,0.13s0.13,0.19,0.13,0.31c0,0.12-0.05,0.23-0.14,0.31
			c-0.09,0.08-0.2,0.12-0.31,0.12h-3.66v2.52h3.56c0.12,0,0.23,0.04,0.31,0.12c0.08,0.08,0.13,0.19,0.13,0.31
			c0,0.12-0.04,0.22-0.13,0.31c-0.09,0.09-0.19,0.13-0.31,0.13h-3.56v2.58h3.68c0.12,0,0.22,0.04,0.31,0.12
			c0.09,0.08,0.14,0.18,0.14,0.31s-0.04,0.23-0.13,0.31c-0.09,0.09-0.19,0.13-0.32,0.13h-3.82c-0.25,0-0.44-0.07-0.57-0.22
			s-0.2-0.32-0.2-0.53v-6.21c0-0.21,0.07-0.39,0.2-0.53s0.32-0.21,0.57-0.21H23.84z"/>
		<path class="st31" d="M31.84,28.41c0,0.12-0.05,0.23-0.14,0.33c-0.09,0.09-0.2,0.14-0.32,0.14c-0.13,0-0.24-0.05-0.33-0.15
			l-2.06-2.55c-0.09-0.11-0.17-0.2-0.26-0.26c-0.08-0.06-0.2-0.09-0.36-0.09h-1.33v2.6c0,0.12-0.04,0.23-0.13,0.32
			s-0.19,0.14-0.32,0.14s-0.23-0.05-0.32-0.14s-0.13-0.2-0.13-0.32v-6.55c0-0.21,0.06-0.38,0.19-0.52s0.31-0.21,0.55-0.21h2.24
			c0.34,0,0.66,0.05,0.96,0.15c0.3,0.1,0.56,0.25,0.79,0.45c0.23,0.2,0.41,0.45,0.54,0.74s0.2,0.64,0.2,1.02
			c0,0.33-0.04,0.62-0.14,0.87s-0.22,0.46-0.38,0.64c-0.17,0.18-0.36,0.32-0.59,0.43c-0.23,0.11-0.48,0.19-0.75,0.23l2,2.47
			C31.81,28.21,31.84,28.31,31.84,28.41z M29.03,24.95c0.31,0,0.57-0.04,0.79-0.1c0.22-0.07,0.39-0.17,0.52-0.3
			c0.13-0.13,0.23-0.29,0.29-0.47c0.06-0.18,0.09-0.38,0.09-0.6c0-0.46-0.13-0.82-0.4-1.09c-0.26-0.27-0.67-0.4-1.23-0.4h-2.04v2.96
			H29.03z"/>
		<path class="st31" d="M38.97,27.77h0.02c-0.01-0.22-0.02-0.46-0.03-0.71c-0.01-0.25-0.02-0.56-0.02-0.93v-4.59
			c0-0.12,0.04-0.23,0.13-0.32s0.19-0.14,0.32-0.14c0.13,0,0.24,0.04,0.33,0.14c0.08,0.09,0.13,0.2,0.13,0.32v6.54
			c0,0.21-0.07,0.39-0.2,0.54s-0.31,0.23-0.52,0.23c-0.32,0-0.56-0.14-0.73-0.41l-3.9-6.32h-0.02c0.01,0.23,0.01,0.48,0.02,0.76
			c0.01,0.28,0.01,0.59,0.01,0.95v4.59c0,0.13-0.04,0.24-0.13,0.33c-0.08,0.09-0.19,0.13-0.32,0.13c-0.12,0-0.23-0.05-0.32-0.14
			s-0.13-0.2-0.13-0.32V21.9c0-0.23,0.07-0.42,0.21-0.57c0.14-0.15,0.33-0.23,0.56-0.23c0.15,0,0.28,0.03,0.41,0.09
			s0.24,0.17,0.34,0.34L38.97,27.77z"/>
		<path class="st31" d="M48.11,28.39c0,0.12-0.04,0.22-0.11,0.32s-0.18,0.14-0.33,0.14c-0.1,0-0.18-0.03-0.26-0.08
			c-0.08-0.05-0.13-0.12-0.17-0.21l-0.81-2.3h-3.51l-0.81,2.3c-0.04,0.09-0.09,0.16-0.17,0.21c-0.08,0.05-0.16,0.08-0.26,0.08
			c-0.15,0-0.26-0.05-0.33-0.14s-0.11-0.2-0.11-0.32c0-0.06,0.01-0.12,0.02-0.15l2.29-6.38c0.1-0.29,0.25-0.5,0.46-0.63
			c0.2-0.13,0.43-0.2,0.68-0.2s0.47,0.07,0.67,0.2c0.2,0.14,0.35,0.35,0.45,0.63l2.29,6.38C48.11,28.26,48.11,28.31,48.11,28.39z
			 M43.23,25.39h2.89l-1.16-3.29c-0.05-0.15-0.15-0.22-0.29-0.22s-0.23,0.07-0.29,0.22L43.23,25.39z"/>
		<path class="st31" d="M50.41,22h-2.2c-0.12,0-0.23-0.04-0.33-0.12c-0.09-0.08-0.14-0.18-0.14-0.31c0-0.13,0.04-0.24,0.14-0.32
			c0.09-0.08,0.2-0.12,0.33-0.12h5.28c0.12,0,0.23,0.04,0.32,0.12c0.09,0.08,0.13,0.19,0.13,0.32c0,0.12-0.04,0.23-0.13,0.31
			C53.72,21.96,53.62,22,53.49,22h-2.18v6.42c0,0.12-0.04,0.23-0.13,0.32s-0.19,0.14-0.32,0.14s-0.23-0.05-0.32-0.14
			c-0.09-0.09-0.13-0.2-0.13-0.32V22z"/>
		<path class="st31" d="M55.25,21.54c0-0.12,0.04-0.23,0.13-0.32s0.19-0.14,0.32-0.14c0.13,0,0.24,0.04,0.33,0.14
			c0.08,0.09,0.13,0.2,0.13,0.32v6.88c0,0.12-0.04,0.23-0.13,0.32c-0.08,0.09-0.19,0.14-0.33,0.14c-0.12,0-0.23-0.05-0.32-0.14
			s-0.13-0.2-0.13-0.32V21.54z"/>
		<path class="st31" d="M61.26,28.95c-0.44,0-0.85-0.08-1.23-0.24c-0.38-0.16-0.71-0.37-1-0.65s-0.52-0.6-0.69-0.97
			c-0.18-0.38-0.28-0.78-0.31-1.21c-0.04-0.6-0.04-1.2,0-1.78c0.03-0.43,0.13-0.84,0.31-1.21c0.18-0.37,0.41-0.7,0.69-0.97
			s0.62-0.49,1-0.65c0.38-0.16,0.79-0.24,1.23-0.24c0.44,0,0.85,0.08,1.24,0.24c0.38,0.16,0.72,0.38,1.01,0.65
			c0.29,0.28,0.52,0.6,0.7,0.98c0.18,0.37,0.28,0.77,0.31,1.2c0.04,0.59,0.04,1.18,0,1.78c-0.03,0.43-0.13,0.84-0.31,1.21
			c-0.18,0.37-0.41,0.7-0.7,0.97s-0.63,0.49-1.01,0.65C62.11,28.87,61.7,28.95,61.26,28.95z M61.26,28.08c0.32,0,0.62-0.06,0.9-0.17
			c0.27-0.11,0.51-0.27,0.72-0.47c0.21-0.2,0.37-0.43,0.5-0.71s0.2-0.57,0.23-0.9c0.06-0.56,0.06-1.13,0-1.71
			c-0.03-0.32-0.11-0.62-0.24-0.89c-0.13-0.27-0.3-0.51-0.5-0.71s-0.45-0.35-0.72-0.47c-0.27-0.11-0.57-0.17-0.88-0.17
			c-0.32,0-0.61,0.06-0.88,0.17c-0.27,0.11-0.51,0.27-0.71,0.47c-0.2,0.2-0.37,0.43-0.5,0.71s-0.21,0.57-0.24,0.89
			c-0.04,0.57-0.04,1.14,0,1.71c0.03,0.32,0.11,0.62,0.24,0.9s0.29,0.51,0.5,0.71c0.2,0.2,0.44,0.35,0.71,0.47
			C60.65,28.02,60.94,28.08,61.26,28.08z"/>
		<path class="st31" d="M71.75,27.77h0.02c-0.01-0.22-0.02-0.46-0.03-0.71c-0.01-0.25-0.02-0.56-0.02-0.93v-4.59
			c0-0.12,0.04-0.23,0.13-0.32s0.19-0.14,0.32-0.14c0.13,0,0.24,0.04,0.32,0.14s0.13,0.2,0.13,0.32v6.54c0,0.21-0.07,0.39-0.2,0.54
			s-0.31,0.23-0.52,0.23c-0.32,0-0.56-0.14-0.73-0.41l-3.91-6.32h-0.02c0.01,0.23,0.01,0.48,0.02,0.76
			c0.01,0.28,0.01,0.59,0.01,0.95v4.59c0,0.13-0.04,0.24-0.13,0.33c-0.08,0.09-0.19,0.13-0.33,0.13c-0.12,0-0.23-0.05-0.32-0.14
			s-0.13-0.2-0.13-0.32V21.9c0-0.23,0.07-0.42,0.21-0.57c0.14-0.15,0.33-0.23,0.56-0.23c0.15,0,0.28,0.03,0.41,0.09
			c0.13,0.06,0.24,0.17,0.33,0.34L71.75,27.77z"/>
		<path class="st31" d="M80.89,28.39c0,0.12-0.04,0.22-0.11,0.32s-0.18,0.14-0.33,0.14c-0.09,0-0.18-0.03-0.26-0.08
			c-0.08-0.05-0.13-0.12-0.17-0.21l-0.81-2.3H75.7l-0.81,2.3c-0.04,0.09-0.09,0.16-0.17,0.21c-0.08,0.05-0.16,0.08-0.26,0.08
			c-0.15,0-0.26-0.05-0.33-0.14s-0.11-0.2-0.11-0.32c0-0.06,0.01-0.12,0.02-0.15l2.29-6.38c0.1-0.29,0.25-0.5,0.46-0.63
			c0.2-0.13,0.43-0.2,0.68-0.2c0.25,0,0.47,0.07,0.67,0.2c0.2,0.14,0.35,0.35,0.45,0.63l2.29,6.38
			C80.89,28.26,80.89,28.31,80.89,28.39z M76.01,25.39h2.89l-1.16-3.29c-0.05-0.15-0.15-0.22-0.29-0.22c-0.14,0-0.23,0.07-0.29,0.22
			L76.01,25.39z"/>
		<path class="st31" d="M82.27,21.54c0-0.12,0.04-0.23,0.13-0.32s0.19-0.14,0.32-0.14c0.13,0,0.24,0.04,0.33,0.14
			c0.08,0.09,0.13,0.2,0.13,0.32v6.42h3.6c0.12,0,0.23,0.04,0.32,0.12c0.09,0.08,0.14,0.18,0.14,0.31c0,0.13-0.04,0.24-0.13,0.32
			c-0.09,0.08-0.2,0.12-0.33,0.12H83c-0.23,0-0.42-0.07-0.54-0.21c-0.13-0.14-0.19-0.31-0.19-0.51V21.54z"/>
		<path class="st31" d="M97.44,28.39c0,0.12-0.04,0.22-0.11,0.32s-0.18,0.14-0.33,0.14c-0.09,0-0.18-0.03-0.26-0.08
			c-0.08-0.05-0.13-0.12-0.17-0.21l-0.81-2.3h-3.51l-0.81,2.3c-0.04,0.09-0.09,0.16-0.17,0.21c-0.08,0.05-0.16,0.08-0.26,0.08
			c-0.15,0-0.26-0.05-0.33-0.14s-0.11-0.2-0.11-0.32c0-0.06,0.01-0.12,0.02-0.15l2.29-6.38c0.1-0.29,0.25-0.5,0.46-0.63
			c0.2-0.13,0.43-0.2,0.68-0.2c0.25,0,0.47,0.07,0.67,0.2c0.2,0.14,0.35,0.35,0.45,0.63l2.29,6.38
			C97.43,28.26,97.44,28.31,97.44,28.39z M92.55,25.39h2.89l-1.16-3.29c-0.05-0.15-0.15-0.22-0.29-0.22c-0.14,0-0.23,0.07-0.29,0.22
			L92.55,25.39z"/>
		<path class="st31" d="M98.81,21.54c0-0.12,0.04-0.23,0.13-0.32s0.19-0.14,0.32-0.14c0.13,0,0.24,0.04,0.33,0.14
			c0.08,0.09,0.13,0.2,0.13,0.32v6.88c0,0.12-0.04,0.23-0.13,0.32c-0.08,0.09-0.19,0.14-0.33,0.14c-0.12,0-0.23-0.05-0.32-0.14
			s-0.13-0.2-0.13-0.32V21.54z"/>
		<path class="st31" d="M107.62,28.41c0,0.12-0.05,0.23-0.14,0.33c-0.09,0.09-0.2,0.14-0.32,0.14c-0.13,0-0.24-0.05-0.33-0.15
			l-2.06-2.55c-0.09-0.11-0.17-0.2-0.26-0.26c-0.08-0.06-0.2-0.09-0.36-0.09h-1.33v2.6c0,0.12-0.04,0.23-0.13,0.32
			s-0.19,0.14-0.32,0.14s-0.23-0.05-0.32-0.14s-0.13-0.2-0.13-0.32v-6.55c0-0.21,0.06-0.38,0.19-0.52s0.31-0.21,0.55-0.21h2.24
			c0.34,0,0.66,0.05,0.96,0.15c0.3,0.1,0.56,0.25,0.79,0.45c0.23,0.2,0.41,0.45,0.54,0.74s0.2,0.64,0.2,1.02
			c0,0.33-0.04,0.62-0.14,0.87s-0.22,0.46-0.38,0.64c-0.17,0.18-0.36,0.32-0.59,0.43c-0.23,0.11-0.48,0.19-0.75,0.23l2,2.47
			C107.59,28.21,107.62,28.31,107.62,28.41z M104.81,24.95c0.31,0,0.57-0.04,0.79-0.1c0.22-0.07,0.39-0.17,0.52-0.3
			c0.13-0.13,0.23-0.29,0.29-0.47c0.06-0.18,0.09-0.38,0.09-0.6c0-0.46-0.13-0.82-0.4-1.09c-0.26-0.27-0.67-0.4-1.23-0.4h-2.04v2.96
			H104.81z"/>
		<path class="st31" d="M110.28,25.96v2.46c0,0.12-0.04,0.23-0.13,0.32s-0.19,0.14-0.32,0.14s-0.23-0.05-0.32-0.14
			s-0.13-0.2-0.13-0.32v-6.55c0-0.21,0.06-0.38,0.19-0.52c0.13-0.14,0.31-0.21,0.56-0.21h2.22c0.34,0,0.66,0.05,0.96,0.16
			c0.3,0.11,0.57,0.26,0.8,0.47c0.23,0.21,0.41,0.46,0.54,0.76c0.13,0.3,0.2,0.64,0.2,1.02c0,0.39-0.06,0.73-0.19,1.03
			c-0.13,0.3-0.31,0.55-0.54,0.76c-0.23,0.21-0.5,0.37-0.82,0.47s-0.66,0.16-1.03,0.16H110.28z M112.25,25.09
			c0.6,0,1.03-0.14,1.29-0.43c0.26-0.29,0.38-0.66,0.38-1.11c0-0.47-0.13-0.84-0.39-1.13c-0.26-0.28-0.67-0.42-1.23-0.42h-2.02v3.09
			H112.25z"/>
		<path class="st31" d="M119.36,28.95c-0.44,0-0.85-0.08-1.23-0.24c-0.38-0.16-0.71-0.37-1-0.65s-0.52-0.6-0.69-0.97
			c-0.18-0.38-0.28-0.78-0.31-1.21c-0.04-0.6-0.04-1.2,0-1.78c0.03-0.43,0.13-0.84,0.31-1.21c0.18-0.37,0.41-0.7,0.69-0.97
			s0.62-0.49,1-0.65c0.38-0.16,0.79-0.24,1.23-0.24c0.44,0,0.85,0.08,1.24,0.24c0.38,0.16,0.72,0.38,1.01,0.65
			c0.29,0.28,0.52,0.6,0.7,0.98c0.18,0.37,0.28,0.77,0.31,1.2c0.04,0.59,0.04,1.18,0,1.78c-0.03,0.43-0.13,0.84-0.31,1.21
			c-0.18,0.37-0.41,0.7-0.7,0.97s-0.63,0.49-1.01,0.65C120.21,28.87,119.8,28.95,119.36,28.95z M119.36,28.08
			c0.32,0,0.62-0.06,0.9-0.17c0.27-0.11,0.51-0.27,0.72-0.47c0.21-0.2,0.37-0.43,0.5-0.71s0.2-0.57,0.23-0.9
			c0.06-0.56,0.06-1.13,0-1.71c-0.03-0.32-0.11-0.62-0.24-0.89c-0.13-0.27-0.3-0.51-0.5-0.71s-0.45-0.35-0.72-0.47
			c-0.27-0.11-0.57-0.17-0.88-0.17c-0.32,0-0.61,0.06-0.88,0.17c-0.27,0.11-0.51,0.27-0.71,0.47c-0.2,0.2-0.37,0.43-0.5,0.71
			s-0.21,0.57-0.24,0.89c-0.04,0.57-0.04,1.14,0,1.71c0.03,0.32,0.11,0.62,0.24,0.9s0.29,0.51,0.5,0.71c0.2,0.2,0.44,0.35,0.71,0.47
			C118.75,28.02,119.04,28.08,119.36,28.08z"/>
		<path class="st31" d="M130.18,28.41c0,0.12-0.05,0.23-0.14,0.33c-0.09,0.09-0.2,0.14-0.32,0.14c-0.13,0-0.24-0.05-0.33-0.15
			l-2.06-2.55c-0.09-0.11-0.17-0.2-0.26-0.26s-0.2-0.09-0.36-0.09h-1.33v2.6c0,0.12-0.04,0.23-0.13,0.32s-0.19,0.14-0.32,0.14
			c-0.12,0-0.23-0.05-0.32-0.14s-0.13-0.2-0.13-0.32v-6.55c0-0.21,0.06-0.38,0.19-0.52c0.13-0.14,0.31-0.21,0.55-0.21h2.24
			c0.34,0,0.66,0.05,0.96,0.15c0.3,0.1,0.56,0.25,0.79,0.45c0.23,0.2,0.41,0.45,0.54,0.74c0.13,0.3,0.2,0.64,0.2,1.02
			c0,0.33-0.05,0.62-0.14,0.87c-0.09,0.25-0.22,0.46-0.38,0.64s-0.36,0.32-0.59,0.43c-0.23,0.11-0.48,0.19-0.75,0.23l2,2.47
			C130.15,28.21,130.18,28.31,130.18,28.41z M127.37,24.95c0.31,0,0.57-0.04,0.79-0.1c0.22-0.07,0.39-0.17,0.52-0.3
			c0.13-0.13,0.23-0.29,0.29-0.47s0.09-0.38,0.09-0.6c0-0.46-0.13-0.82-0.4-1.09c-0.26-0.27-0.67-0.4-1.23-0.4h-2.04v2.96H127.37z"
			/>
		<path class="st31" d="M133.59,22h-2.2c-0.12,0-0.23-0.04-0.33-0.12c-0.09-0.08-0.14-0.18-0.14-0.31c0-0.13,0.04-0.24,0.14-0.32
			c0.09-0.08,0.2-0.12,0.33-0.12h5.28c0.12,0,0.23,0.04,0.32,0.12c0.09,0.08,0.13,0.19,0.13,0.32c0,0.12-0.04,0.23-0.13,0.31
			c-0.09,0.08-0.19,0.12-0.32,0.12h-2.18v6.42c0,0.12-0.04,0.23-0.13,0.32s-0.19,0.14-0.32,0.14s-0.23-0.05-0.32-0.14
			c-0.09-0.09-0.13-0.2-0.13-0.32V22z"/>
	</g>
	<g class="st30">
		<path class="st31" d="M9.39,42.72c-0.08,0.11-0.2,0.17-0.37,0.17c-0.12,0-0.22-0.03-0.3-0.1s-0.13-0.15-0.14-0.26l-0.9-6.48
			c-0.01-0.07-0.05-0.11-0.11-0.11s-0.1,0.03-0.13,0.1l-1.43,5.97c-0.07,0.28-0.18,0.49-0.34,0.63c-0.16,0.14-0.35,0.21-0.58,0.21
			c-0.23,0-0.43-0.07-0.59-0.21c-0.16-0.14-0.27-0.35-0.33-0.63l-1.43-5.97c-0.03-0.07-0.07-0.1-0.12-0.1
			c-0.04,0-0.06,0.01-0.08,0.04S2.5,36.03,2.5,36.05l-0.9,6.48c-0.01,0.11-0.06,0.2-0.14,0.26s-0.17,0.1-0.29,0.1
			c-0.17,0-0.29-0.06-0.37-0.17c-0.08-0.11-0.1-0.24-0.08-0.39l0.95-6.42C1.7,35.6,1.82,35.38,2,35.24c0.18-0.13,0.39-0.2,0.62-0.2
			c0.23,0,0.44,0.07,0.6,0.2c0.17,0.13,0.28,0.33,0.34,0.58l1.42,6.06C4.99,41.9,5,41.93,5.02,41.95c0.02,0.03,0.05,0.04,0.08,0.04
			c0.04,0,0.06-0.01,0.08-0.04c0.02-0.03,0.03-0.05,0.04-0.07l1.39-6.06c0.06-0.26,0.17-0.45,0.35-0.58c0.17-0.13,0.38-0.2,0.61-0.2
			c0.24,0,0.44,0.07,0.62,0.2c0.18,0.14,0.29,0.36,0.33,0.67l0.96,6.41C9.49,42.47,9.46,42.61,9.39,42.72z"/>
		<path class="st31" d="M17.3,39.71c0,0.48-0.08,0.92-0.24,1.32c-0.16,0.39-0.38,0.73-0.65,1.02c-0.28,0.28-0.61,0.5-0.98,0.66
			c-0.38,0.16-0.79,0.24-1.24,0.24s-0.86-0.08-1.24-0.24c-0.38-0.16-0.71-0.38-0.98-0.66c-0.28-0.28-0.5-0.62-0.65-1.02
			c-0.16-0.4-0.24-0.84-0.24-1.32v-4.17c0-0.12,0.04-0.23,0.13-0.32s0.19-0.14,0.32-0.14c0.12,0,0.23,0.04,0.32,0.14
			s0.13,0.2,0.13,0.32v4.16c0,0.37,0.06,0.7,0.17,0.99c0.11,0.29,0.26,0.54,0.46,0.75c0.2,0.21,0.43,0.36,0.7,0.47
			s0.56,0.17,0.88,0.17c0.32,0,0.61-0.06,0.88-0.17c0.27-0.11,0.51-0.27,0.7-0.47c0.2-0.21,0.35-0.46,0.46-0.75
			c0.11-0.29,0.17-0.62,0.17-0.99v-4.16c0-0.12,0.04-0.23,0.13-0.32s0.19-0.14,0.32-0.14c0.12,0,0.23,0.04,0.32,0.14
			s0.13,0.2,0.13,0.32V39.71z"/>
		<path class="st31" d="M27.69,42.72c-0.08,0.11-0.2,0.17-0.37,0.17c-0.12,0-0.22-0.03-0.3-0.1c-0.08-0.07-0.13-0.15-0.14-0.26
			l-0.9-6.48c-0.02-0.07-0.05-0.11-0.11-0.11s-0.1,0.03-0.13,0.1l-1.43,5.97c-0.07,0.28-0.18,0.49-0.33,0.63
			c-0.16,0.14-0.35,0.21-0.58,0.21c-0.23,0-0.43-0.07-0.59-0.21c-0.16-0.14-0.27-0.35-0.34-0.63l-1.43-5.97
			c-0.03-0.07-0.07-0.1-0.12-0.1c-0.04,0-0.06,0.01-0.08,0.04c-0.02,0.03-0.03,0.05-0.04,0.07l-0.9,6.48
			c-0.02,0.11-0.06,0.2-0.14,0.26s-0.17,0.1-0.29,0.1c-0.17,0-0.29-0.06-0.37-0.17s-0.1-0.24-0.08-0.39l0.95-6.42
			c0.04-0.31,0.16-0.53,0.34-0.67c0.18-0.13,0.39-0.2,0.62-0.2s0.44,0.07,0.61,0.2c0.17,0.13,0.28,0.33,0.34,0.58l1.42,6.06
			c0.01,0.02,0.02,0.05,0.04,0.07s0.05,0.04,0.08,0.04c0.04,0,0.06-0.01,0.08-0.04s0.03-0.05,0.04-0.07l1.39-6.06
			c0.06-0.26,0.17-0.45,0.35-0.58c0.17-0.13,0.38-0.2,0.61-0.2c0.23,0,0.44,0.07,0.62,0.2c0.18,0.14,0.29,0.36,0.33,0.67l0.96,6.41
			C27.8,42.47,27.77,42.61,27.69,42.72z"/>
		<path class="st31" d="M35.22,40.64c0,0.4-0.06,0.73-0.18,1.01c-0.12,0.28-0.29,0.51-0.49,0.68s-0.45,0.3-0.73,0.38
			c-0.28,0.08-0.58,0.12-0.89,0.12h-2.56c-0.25,0-0.44-0.07-0.57-0.22s-0.2-0.32-0.2-0.53v-6.21c0-0.21,0.07-0.39,0.2-0.53
			s0.32-0.21,0.57-0.21h2.44c0.36,0,0.68,0.05,0.95,0.16c0.27,0.11,0.5,0.25,0.69,0.43c0.18,0.18,0.32,0.39,0.42,0.63
			c0.09,0.24,0.14,0.49,0.14,0.75c0,0.51-0.1,0.9-0.3,1.17c-0.2,0.26-0.45,0.45-0.73,0.55v0.02c0.4,0.1,0.7,0.3,0.92,0.62
			C35.11,39.78,35.22,40.17,35.22,40.64z M32.75,38.42c0.47,0,0.81-0.11,1.03-0.32c0.22-0.21,0.32-0.51,0.32-0.89
			c0-0.81-0.45-1.21-1.35-1.21h-2.25v2.42H32.75z M30.49,41.97h2.31c0.51,0,0.89-0.12,1.13-0.35c0.24-0.23,0.36-0.57,0.36-1.01
			c0-0.43-0.13-0.75-0.38-0.98c-0.25-0.23-0.59-0.35-1.01-0.35h-2.42V41.97z"/>
		<path class="st31" d="M43,42.39c0,0.12-0.04,0.22-0.11,0.32s-0.18,0.14-0.33,0.14c-0.09,0-0.18-0.03-0.26-0.08
			c-0.08-0.05-0.13-0.12-0.17-0.21l-0.81-2.3h-3.51l-0.81,2.3c-0.04,0.09-0.09,0.16-0.17,0.21c-0.08,0.05-0.16,0.08-0.26,0.08
			c-0.15,0-0.26-0.05-0.33-0.14s-0.11-0.2-0.11-0.32c0-0.06,0.01-0.12,0.02-0.15l2.29-6.38c0.1-0.29,0.25-0.5,0.46-0.63
			c0.2-0.13,0.43-0.2,0.68-0.2c0.25,0,0.47,0.07,0.67,0.2c0.2,0.14,0.35,0.35,0.45,0.63l2.29,6.38C42.99,42.26,43,42.31,43,42.39z
			 M38.12,39.39h2.89l-1.16-3.29c-0.05-0.15-0.15-0.22-0.29-0.22c-0.14,0-0.23,0.07-0.29,0.22L38.12,39.39z"/>
		<path class="st31" d="M44.37,35.54c0-0.12,0.04-0.23,0.13-0.32s0.19-0.14,0.32-0.14c0.13,0,0.24,0.04,0.33,0.14
			c0.08,0.09,0.13,0.2,0.13,0.32v6.88c0,0.12-0.04,0.23-0.13,0.32c-0.08,0.09-0.19,0.14-0.33,0.14c-0.12,0-0.23-0.05-0.32-0.14
			s-0.13-0.2-0.13-0.32V35.54z"/>
	</g>
</g>
</svg>
