<svg id="Aromatic_Planting" data-name="Aromatic Planting" xmlns="http://www.w3.org/2000/svg" width="32.229" height="39.423" viewBox="0 0 32.229 39.423">
  <path id="Path_1396" data-name="Path 1396" d="M19.925,24.651V23.124a6.555,6.555,0,0,0,1.9.32,5.615,5.615,0,0,0,2.272-.479,6.169,6.169,0,0,0,3.409-4.3.882.882,0,0,0-.444-.994,6.183,6.183,0,0,0-5.468-.391,5.575,5.575,0,0,0-1.669,1.207v-3.32a6.555,6.555,0,0,0,1.9.32,5.615,5.615,0,0,0,2.272-.479,6.169,6.169,0,0,0,3.409-4.3.861.861,0,0,0-.444-.994,6.126,6.126,0,0,0-5.468-.391,5.607,5.607,0,0,0-1.669,1.189v-3.3a6.555,6.555,0,0,0,1.9.32A5.615,5.615,0,0,0,24.1,7.057a6.169,6.169,0,0,0,3.409-4.3.861.861,0,0,0-.444-.994,6.126,6.126,0,0,0-5.468-.391A5.584,5.584,0,0,0,19.038,3.7a5.763,5.763,0,0,0-2.556-2.326A6.163,6.163,0,0,0,11,1.767a.906.906,0,0,0-.444.994,6.169,6.169,0,0,0,3.409,4.3,5.755,5.755,0,0,0,2.255.462,6.545,6.545,0,0,0,1.917-.3v3.32A5.575,5.575,0,0,0,16.463,9.33,6.129,6.129,0,0,0,11,9.72a.906.906,0,0,0-.444.994,6.169,6.169,0,0,0,3.409,4.3,5.755,5.755,0,0,0,2.255.462,6.545,6.545,0,0,0,1.917-.3v3.32a5.575,5.575,0,0,0-1.669-1.207A6.123,6.123,0,0,0,11,17.674a.906.906,0,0,0-.444.994,6.169,6.169,0,0,0,3.409,4.3,5.755,5.755,0,0,0,2.255.462,6.545,6.545,0,0,0,1.917-.3v1.527C14.9,25.467,1.888,29.426,2.989,39.51a.917.917,0,0,0,.905.8H4a.892.892,0,0,0,.781-.976c-.905-8.184,9.906-11.859,13.368-12.818v2.343C15.611,29.5,7.321,32.143,7.658,39.475a.883.883,0,0,0,.888.852h.036a.891.891,0,0,0,.852-.923c-.249-5.575,6.143-7.971,8.717-8.7v1.829c-1.811.692-6.959,3.036-6.143,7.084a.89.89,0,0,0,.87.71.6.6,0,0,0,.178-.018.878.878,0,0,0,.692-1.047c-.462-2.308,2.645-4.03,4.4-4.811v4.989a.888.888,0,0,0,1.775,0V34.451c1.758.763,4.882,2.485,4.421,4.811a.9.9,0,0,0,.692,1.047.6.6,0,0,0,.178.018.89.89,0,0,0,.87-.71c.817-4.048-4.35-6.391-6.16-7.084V30.7c2.574.728,8.983,3.107,8.717,8.7a.88.88,0,0,0,.852.923h.036a.883.883,0,0,0,.888-.852c.337-7.35-7.953-10-10.492-10.634V26.5c3.462.959,14.291,4.651,13.386,12.818a.892.892,0,0,0,.781.976H34.2a.9.9,0,0,0,.888-.8C36.187,29.426,23.156,25.467,19.925,24.651ZM22.3,18.9a4.206,4.206,0,0,1,3.249.018,3.994,3.994,0,0,1-5.45,2.4A4.294,4.294,0,0,1,22.3,18.9Zm0-7.953a4.207,4.207,0,0,1,3.249.018,4.05,4.05,0,0,1-2.184,2.414A4.173,4.173,0,0,1,20.1,13.36,4.355,4.355,0,0,1,22.3,10.945Zm-7.616,2.432a4.231,4.231,0,0,1-2.184-2.4,3.983,3.983,0,0,1,5.432,2.4A4.2,4.2,0,0,1,14.688,13.378Zm0,7.953a4.177,4.177,0,0,1-2.184-2.4,4.206,4.206,0,0,1,3.249-.018,4.1,4.1,0,0,1,2.184,2.414A4.127,4.127,0,0,1,14.688,21.331ZM22.3,2.992a4.207,4.207,0,0,1,3.249.018A4.05,4.05,0,0,1,23.37,5.424,4.173,4.173,0,0,1,20.1,5.406,4.355,4.355,0,0,1,22.3,2.992ZM14.688,5.424a4.231,4.231,0,0,1-2.184-2.4,3.983,3.983,0,0,1,5.432,2.4A4.127,4.127,0,0,1,14.688,5.424Z" transform="translate(-2.923 -0.904)" fill="#404040"/>
</svg>
