<svg id="Box_Cricket" data-name="Box Cricket" xmlns="http://www.w3.org/2000/svg" width="25.569" height="40" viewBox="0 0 25.569 40">
  <path id="Path_1339" data-name="Path 1339" d="M10.27,8.128H6.015a.916.916,0,0,0-.925.925V35.88a1.008,1.008,0,0,0,.093.407L7.31,40.672a.928.928,0,0,0,1.665,0L11.1,36.287a1.008,1.008,0,0,0,.093-.407V9.053A.928.928,0,0,0,10.27,8.128Zm-3.33,7.66H9.364v1.85H6.94ZM9.345,9.978v3.959H6.94V9.978Zm-1.2,28.178-1.2-2.479V19.488H9.364V35.677ZM20,8.128H15.728a.916.916,0,0,0-.925.925V35.88a1.008,1.008,0,0,0,.093.407l2.128,4.385a.928.928,0,0,0,1.665,0l2.128-4.385a1.008,1.008,0,0,0,.093-.407V9.053A.9.9,0,0,0,20,8.128Zm-3.33,7.66H19.1v1.85H16.672Zm2.405-5.809v3.959H16.653V9.978Zm-1.2,28.178-1.2-2.479V19.488H19.1V35.677ZM29.752,8.128H25.479a.916.916,0,0,0-.925.925V35.88a1.008,1.008,0,0,0,.093.407l2.128,4.385a.928.928,0,0,0,1.665,0l2.128-4.385a1.008,1.008,0,0,0,.093-.407V9.053A.912.912,0,0,0,29.752,8.128ZM26.4,15.788h2.424v1.85H26.4Zm2.424-5.809v3.959H26.4V9.978ZM27.606,38.156l-1.2-2.479V19.488h2.424V35.677ZM6.052,4.761H7.717v.814a.916.916,0,0,0,.925.925h6.9a.916.916,0,0,0,.925-.925V4.761h1.221a.547.547,0,0,0,.185-.037.657.657,0,0,0,.185.037h1.665v.814a.916.916,0,0,0,.925.925h6.9a.916.916,0,0,0,.925-.925V4.761h1.2a.925.925,0,0,0,0-1.85h-1.2v-.8a.916.916,0,0,0-.925-.925h-6.9a.916.916,0,0,0-.925.925v.8H18.059a.547.547,0,0,0-.185.037.657.657,0,0,0-.185-.037H16.468v-.8a.916.916,0,0,0-.925-.925h-6.9a.916.916,0,0,0-.925.925v.8H6.052a.925.925,0,1,0,0,1.85ZM21.593,3.04h5.051V4.65H21.593Zm-12.026,0h5.051V4.65H9.567Z" transform="translate(-5.09 -1.19)" fill="#404040"/>
</svg>
