<svg id="Group_359" data-name="Group 359" xmlns="http://www.w3.org/2000/svg" width="32" height="32" viewBox="0 0 32 32">
  <path id="Path_361" data-name="Path 361" d="M282.345,112.114h0a16,16,0,0,1-16-16h0a16,16,0,0,1,16-16h0a16,16,0,0,1,16,16h0A16,16,0,0,1,282.345,112.114Z" transform="translate(-266.345 -80.114)" fill="none" opacity="0.6"/>
  <path id="Path_362" data-name="Path 362" d="M294.162,114.06h3.766V104.1h2.628l.28-3.336h-2.908v-1.9c0-.787.149-1.1.869-1.1h2.038V94.3h-2.608c-2.8,0-4.066,1.3-4.066,3.8v2.66H292.2v3.378h1.959Z" transform="translate(-280.52 -88.18)" fill="#fff"/>
</svg>
