<svg xmlns="http://www.w3.org/2000/svg" width="39.879" height="44.125" viewBox="0 0 39.879 44.125">
  <g id="Reflexogy_Pathway" data-name="Reflexogy Pathway" transform="translate(0.81 0.8)">
    <path id="Path_1397" data-name="Path 1397" d="M56.844,19.725l2.206,7.751a20.727,20.727,0,0,1,.778,6.4l-.142,4.059A5.349,5.349,0,0,0,64.2,43.472a5.25,5.25,0,0,0,5.953-4.807l.995-13.259v0c2.887-8.661.982-11.441.907-11.544,0,0,0-.006,0-.009l.846-1.884a1.205,1.205,0,0,0-.688-1.668,1.168,1.168,0,0,0-1.429.679l-.85,2.108,1.171-2.9a1.623,1.623,0,0,0-.639-2.024,1.571,1.571,0,0,0-2.273.857l-.646,1.908,1.069-3.156a1.8,1.8,0,0,0-.7-2.12,1.786,1.786,0,0,0-2.657.938.011.011,0,1,1-.021-.005l.35-1.648a1.686,1.686,0,0,0-.8-1.762,1.644,1.644,0,0,0-2.427,1.175l-.972,3.679.523-3.157C62.071,3.3,60.827.971,59.244,1c-1.6.031-2.762,2.521-2.529,4.1l.6,4.041-.662,2.867a15.465,15.465,0,0,0,.195,7.712" transform="translate(-34.76 -1.001)" fill="none" stroke="#404040" stroke-width="1.6"/>
    <path id="Path_1403" data-name="Path 1403" d="M1.575,0A1.575,1.575,0,1,1,0,1.575,1.575,1.575,0,0,1,1.575,0Z" transform="translate(25.737 12.501)" fill="none" stroke="#404040" stroke-width="1.2"/>
    <path id="Path_1404" data-name="Path 1404" d="M1.575,0A1.575,1.575,0,1,1,0,1.575,1.575,1.575,0,0,1,1.575,0Z" transform="translate(31.256 14.866)" fill="none" stroke="#404040" stroke-width="1.2"/>
    <path id="Path_1405" data-name="Path 1405" d="M1.968,0A1.968,1.968,0,1,1,0,1.968,1.968,1.968,0,0,1,1.968,0Z" transform="translate(28.317 22.657)" fill="none" stroke="#404040" stroke-width="1.2"/>
    <path id="Path_1406" data-name="Path 1406" d="M1.968,0A1.968,1.968,0,1,1,0,1.968,1.968,1.968,0,0,1,1.968,0Z" transform="translate(28.317 28.404)" fill="none" stroke="#404040" stroke-width="1.2"/>
    <path id="Path_1407" data-name="Path 1407" d="M1.968,0A1.968,1.968,0,1,1,0,1.968,1.968,1.968,0,0,1,1.968,0Z" transform="translate(28.317 34.152)" fill="none" stroke="#404040" stroke-width="1.2"/>
    <path id="Path_1400" data-name="Path 1400" d="M17.393,12.011l-.661-2.865.588-3.993A4,4,0,0,0,16.56,2.1c-2.285-2.915-4.645.64-4.428,2.761l.523,3.158-.972-3.679A1.643,1.643,0,0,0,9.442,3.079a1.7,1.7,0,0,0-.988,1.865l.34,1.589a.015.015,0,1,1-.029.007,1.782,1.782,0,0,0-2.446-1A1.824,1.824,0,0,0,5.426,7.78L6.49,10.92l-.627-1.85A1.611,1.611,0,0,0,4.125,7.963,1.57,1.57,0,0,0,2.9,10.1l1.2,2.981-.819-2.032a1.232,1.232,0,0,0-1.321-.79A1.169,1.169,0,0,0,1.1,11.891l.878,1.955a.012.012,0,0,1,0,.014C1.882,14,.025,16.8,2.89,25.4v0l.981,13.083a5.37,5.37,0,0,0,4.985,5.024,5.247,5.247,0,0,0,5.5-5.425l-.148-4.216a20.7,20.7,0,0,1,.779-6.4L17.2,19.725A15.474,15.474,0,0,0,17.393,12.011Z" transform="translate(-1 -1)" fill="none" stroke="#404040" stroke-miterlimit="10" stroke-width="1.6"/>
    <path id="Path_1401" data-name="Path 1401" d="M26.8,32.93a1.577,1.577,0,1,1-1.575-1.49A1.534,1.534,0,0,1,26.8,32.93Z" transform="translate(-14.254 -18.94)" fill="none" stroke="#404040" stroke-miterlimit="10" stroke-width="1.2"/>
    <path id="Path_1402" data-name="Path 1402" d="M13.8,39.93a1.577,1.577,0,1,1-1.575-1.49A1.534,1.534,0,0,1,13.8,39.93Z" transform="translate(-6.379 -23.18)" fill="none" stroke="#404040" stroke-miterlimit="10" stroke-width="1.2"/>
    <path id="Path_1408" data-name="Path 1408" d="M1.968,0A1.968,1.968,0,1,1,0,1.968,1.968,1.968,0,0,1,1.968,0Z" transform="translate(6.027 22.657)" fill="none" stroke="#404040" stroke-width="1.2"/>
    <path id="Path_1409" data-name="Path 1409" d="M1.968,0A1.968,1.968,0,1,1,0,1.968,1.968,1.968,0,0,1,1.968,0Z" transform="translate(6.027 28.404)" fill="none" stroke="#404040" stroke-width="1.2"/>
    <path id="Path_1410" data-name="Path 1410" d="M1.968,0A1.968,1.968,0,1,1,0,1.968,1.968,1.968,0,0,1,1.968,0Z" transform="translate(6.027 34.152)" fill="none" stroke="#404040" stroke-width="1.2"/>
  </g>
</svg>
