<svg id="Yoga_Deck" data-name="Yoga Deck" xmlns="http://www.w3.org/2000/svg" width="48.191" height="27.329" viewBox="0 0 48.191 27.329">
  <path id="Path_1395" data-name="Path 1395" d="M46.289,21.576l-15.451-9.02a13.7,13.7,0,0,0-8.708-1.719A5.872,5.872,0,1,0,11.838,15.5L1.724,21.978a1.126,1.126,0,0,0-.514.938v2.769a1.116,1.116,0,0,0,2.233,0V23.519l10.739-6.877,3.706-2.166a11.965,11.965,0,0,1,3.438-1.317,11.536,11.536,0,0,1,8.4,1.317L45.172,23.5a4.013,4.013,0,0,1-2.032,7.48H7.484V26.6a1.116,1.116,0,0,0-2.233,0v5.493a1.106,1.106,0,0,0,1.116,1.116H43.141a6.242,6.242,0,0,0,3.148-11.633ZM13.736,14.32a3.647,3.647,0,0,1,2.612-6.207,3.632,3.632,0,0,1,3.595,3.1c-.29.089-.558.2-.826.29-.2.067-.38.134-.581.2a11.68,11.68,0,0,0-1.764.848ZM17.866,18.9a1.114,1.114,0,1,1,.915-2.032l17.862,8.127a1.108,1.108,0,0,1-.469,2.121,1.166,1.166,0,0,1-.469-.089Z" transform="translate(-1.21 -5.88)" fill="#404040"/>
</svg>
