<?xml version="1.0" encoding="UTF-8"?>
<svg width="132px" height="23px" viewBox="0 0 132 23" version="1.1" xmlns="http://www.w3.org/2000/svg" xmlns:xlink="http://www.w3.org/1999/xlink">
    <title>Electricity + adani Mask</title>
    <defs>
        <linearGradient x1="0%" y1="35.7304525%" x2="100%" y2="35.7304525%" id="linearGradient-1">
            <stop stop-color="#1C84A6" offset="0%"></stop>
            <stop stop-color="#386BB2" offset="25.2712057%"></stop>
            <stop stop-color="#7356A3" offset="49.4423174%"></stop>
            <stop stop-color="#903B94" offset="71.6984241%"></stop>
            <stop stop-color="#C54961" offset="100%"></stop>
        </linearGradient>
    </defs>
    <g id="Page-1" stroke="none" stroke-width="1" fill="none" fill-rule="evenodd">
        <g id="0.1-Adani-Electricity---Mobile-Site---Home-alert" transform="translate(-48.000000, -136.000000)" fill-rule="nonzero">
            <g id="Group-25" transform="translate(16.000000, 128.000000)">
                <g id="Electricity-+-adani-Mask" transform="translate(24.000000, 0.000000)">
                    <path d="M76.4446291,27.5196507 C76.6793504,27.5196507 76.8758018,27.4432314 77.0339836,27.290393 C77.1921653,27.1375546 77.2712561,26.9439592 77.2712561,26.709607 C77.2712561,26.485444 77.1870626,26.2943959 77.0186756,26.1364629 C76.8502887,25.9785298 76.6589398,25.8995633 76.4446291,25.8995633 L76.4446291,25.8995633 L71.653254,25.8995633 L71.653254,22.8733624 L76.2762421,22.8733624 C76.4803476,22.8733624 76.6589398,22.7969432 76.8120189,22.6441048 C76.965098,22.4912664 77.0416375,22.3129549 77.0416375,22.1091703 C77.0416375,21.8850073 76.9676493,21.7016012 76.8196728,21.558952 C76.6716964,21.4163028 76.4905528,21.3449782 76.2762421,21.3449782 L76.2762421,21.3449782 L71.653254,21.3449782 L71.653254,18.3951965 L76.3987054,18.3951965 C76.6232214,18.3951965 76.8196728,18.31623 76.9880598,18.1582969 C77.1564468,18.0003639 77.2406403,17.8042213 77.2406403,17.569869 C77.2406403,17.3355167 77.1589981,17.1444687 76.9957138,16.9967249 C76.8324294,16.8489811 76.6334266,16.7751092 76.3987054,16.7751092 L76.3987054,16.7751092 L71.2705563,16.7751092 C70.8521402,16.7751092 70.5357768,16.8948326 70.3214661,17.1342795 C70.1071554,17.3737263 70,17.6666667 70,18.0131004 L70,18.0131004 L70,26.2663755 C70,26.6128093 70.1071554,26.9082969 70.3214661,27.1528384 C70.5357768,27.3973799 70.8521402,27.5196507 71.2705563,27.5196507 L71.2705563,27.5196507 L76.4446291,27.5196507 Z M79.9042162,27.580786 C80.1389375,27.580786 80.3328376,27.5018195 80.4859167,27.3438865 C80.6389958,27.1859534 80.7155353,26.9898108 80.7155353,26.7554585 L80.7155353,26.7554585 L80.7155353,17.4475983 C80.7155353,17.213246 80.6364445,17.0171033 80.4782628,16.8591703 C80.3200811,16.7012373 80.1287322,16.6222707 79.9042162,16.6222707 C79.669495,16.6222707 79.4755948,16.7012373 79.3225157,16.8591703 C79.1694367,17.0171033 79.0928971,17.213246 79.0928971,17.4475983 L79.0928971,17.4475983 L79.0928971,26.7554585 C79.0928971,26.9898108 79.1745393,27.1859534 79.3378237,27.3438865 C79.501108,27.5018195 79.6899055,27.580786 79.9042162,27.580786 Z M86.1651505,27.6724891 C86.3896664,27.6724891 86.6218364,27.6597525 86.8616603,27.6342795 C87.1014841,27.6088064 87.3311028,27.5731441 87.5505161,27.5272926 C87.7699294,27.481441 87.9740349,27.4254003 88.1628324,27.3591703 C88.3516299,27.2929403 88.512363,27.2190684 88.6450315,27.1375546 C88.8185211,27.0356623 88.9307791,26.9261281 88.9818055,26.808952 C89.0328318,26.6917758 89.058345,26.5720524 89.058345,26.4497817 C89.058345,26.3377001 89.0328318,26.2307132 88.9818055,26.128821 C88.9307791,26.0269287 88.8567909,25.9428675 88.7598408,25.8766376 C88.6628907,25.8104076 88.5455301,25.7696507 88.4077589,25.7543668 C88.2699878,25.739083 88.11946,25.7620087 87.9561756,25.8231441 C87.6602228,25.9352256 87.3617186,26.0243814 87.0606631,26.0906114 C86.7596075,26.1568413 86.4713086,26.1899563 86.1957663,26.1899563 C85.5936552,26.1899563 85.1063535,26.0269287 84.7338611,25.7008734 C84.3613687,25.374818 84.1751225,24.9061135 84.1751225,24.2947598 L84.1751225,24.2947598 L84.1751225,24.1113537 L88.5072603,24.1113537 C88.8440343,24.1113537 89.0915121,24.0196507 89.2496938,23.8362445 C89.4078756,23.6528384 89.4869664,23.4184862 89.4869664,23.1331878 L89.4869664,23.1331878 L89.4869664,22.7052402 C89.4869664,22.1957787 89.4053242,21.7296215 89.2420399,21.3067686 C89.0787555,20.8839156 88.8491369,20.522198 88.553184,20.2216157 C88.2572312,19.9210335 87.9000467,19.6892285 87.4816305,19.5262009 C87.0632144,19.3631732 86.5988745,19.2816594 86.0886109,19.2816594 C85.6089631,19.2816594 85.1624825,19.3555313 84.749169,19.5032751 C84.3358555,19.6510189 83.9761197,19.8649927 83.6699615,20.1451965 C83.3638034,20.4254003 83.1188768,20.7641921 82.9351819,21.1615721 C82.7514871,21.558952 82.6392291,22.0021834 82.598408,22.4912664 C82.5882027,22.6135371 82.5805488,22.753639 82.5754461,22.9115721 C82.5703435,23.0695051 82.5677922,23.2325328 82.5677922,23.400655 C82.5677922,23.5687773 82.5703435,23.7394469 82.5754461,23.9126638 C82.5805488,24.0858806 82.5882027,24.2438137 82.598408,24.3864629 C82.6290238,24.8653566 82.7336278,25.3060408 82.9122201,25.7085153 C83.0908123,26.1109898 83.3331875,26.4574236 83.6393457,26.7478166 C83.9455038,27.0382096 84.3103423,27.2649199 84.7338611,27.4279476 C85.1573799,27.5909753 85.6344763,27.6724891 86.1651505,27.6724891 Z M87.726557,22.8275109 L84.1751225,22.8275109 C84.1547119,22.1855895 84.3052397,21.6735808 84.6267057,21.2914847 C84.9481718,20.9093886 85.4354735,20.7183406 86.0886109,20.7183406 C86.6805167,20.7183406 87.1423052,20.8941048 87.4739766,21.2456332 C87.8056479,21.5971616 87.951073,22.0633188 87.9102519,22.6441048 C87.8898414,22.7663755 87.8286098,22.8275109 87.726557,22.8275109 L87.726557,22.8275109 Z M94.4773443,27.6724891 C95.0182237,27.6724891 95.4927688,27.5909753 95.9009797,27.4279476 C96.3091906,27.2649199 96.6485159,27.0636827 96.9189556,26.8242358 C97.1893953,26.5847889 97.3935007,26.3351528 97.5312719,26.0753275 C97.669043,25.8155022 97.7379286,25.5887918 97.7379286,25.3951965 C97.7379286,25.1608443 97.6664917,24.9647016 97.5236179,24.8067686 C97.3807441,24.6488355 97.1970492,24.569869 96.9725332,24.569869 C96.6459645,24.569869 96.4112433,24.7176128 96.2683695,25.0131004 C96.0948799,25.4002911 95.8499533,25.6804949 95.5335899,25.8537118 C95.2172265,26.0269287 94.8753499,26.1135371 94.5079601,26.1135371 C93.9058491,26.1135371 93.4440605,25.9479622 93.1225945,25.6168122 C92.8011284,25.2856623 92.6148822,24.860262 92.5638558,24.3406114 C92.5536506,24.2183406 92.5459966,24.0756914 92.540894,23.9126638 C92.5357913,23.7496361 92.53324,23.5815138 92.53324,23.4082969 C92.53324,23.2350801 92.5357913,23.0695051 92.540894,22.9115721 C92.5459966,22.753639 92.5536506,22.6237263 92.5638558,22.5218341 C92.6148822,22.0021834 92.806231,21.592067 93.1379024,21.2914847 C93.4695737,20.9909025 93.9262596,20.8406114 94.5079601,20.8406114 C94.8753499,20.8406114 95.2146752,20.9272198 95.525936,21.1004367 C95.8371968,21.2736536 96.079572,21.5538574 96.2530616,21.941048 C96.3959354,22.2365357 96.625554,22.3842795 96.9419174,22.3842795 C97.1766387,22.3842795 97.3628849,22.305313 97.5006561,22.1473799 C97.6384272,21.9894469 97.7073128,21.7933042 97.7073128,21.558952 C97.7073128,21.3653566 97.6409785,21.1386463 97.50831,20.878821 C97.3756415,20.6189956 97.1740874,20.3719068 96.9036477,20.1375546 C96.633208,19.9032023 96.296434,19.7019651 95.8933258,19.5338428 C95.4902175,19.3657205 95.0182237,19.2816594 94.4773443,19.2816594 C93.9874913,19.2816594 93.5333567,19.3555313 93.1149405,19.5032751 C92.6965244,19.6510189 92.3316859,19.8598981 92.0204251,20.1299127 C91.7091643,20.3999272 91.4591352,20.7234352 91.2703376,21.1004367 C91.0815401,21.4774381 90.9718334,21.8951965 90.9412176,22.3537118 C90.9310124,22.5065502 90.9233584,22.6772198 90.9182558,22.8657205 C90.9131531,23.0542213 90.9106018,23.2452693 90.9106018,23.4388646 C90.9106018,23.63246 90.9131531,23.823508 90.9182558,24.0120087 C90.9233584,24.2005095 90.9310124,24.371179 90.9412176,24.5240175 C90.9718334,24.9621543 91.0815401,25.3722707 91.2703376,25.7543668 C91.4591352,26.1364629 91.706613,26.4701601 92.0127712,26.7554585 C92.3189293,27.0407569 92.6812165,27.2649199 93.0996326,27.4279476 C93.5180488,27.5909753 93.977286,27.6724891 94.4773443,27.6724891 Z M101.840448,27.6724891 C102.136401,27.6724891 102.437456,27.6495633 102.743614,27.6037118 C103.049773,27.5578603 103.320212,27.4839884 103.554934,27.3820961 C103.759039,27.3005822 103.901913,27.1935953 103.983555,27.0611354 C104.065197,26.9286754 104.106018,26.7860262 104.106018,26.6331878 C104.106018,26.5211063 104.083056,26.4115721 104.037133,26.3045852 C103.991209,26.1975983 103.927426,26.1109898 103.845784,26.0447598 C103.764142,25.9785298 103.659538,25.930131 103.531972,25.8995633 C103.404406,25.8689956 103.264083,25.8740902 103.111004,25.9148472 C102.937515,25.9657933 102.761474,26.0167394 102.582881,26.0676856 C102.404289,26.1186317 102.21294,26.1441048 102.008835,26.1441048 C101.63124,26.1441048 101.355697,26.0396652 101.182208,25.830786 C101.008718,25.6219068 100.921973,25.3238719 100.921973,24.9366812 L100.921973,24.9366812 L100.921973,21.1310044 L103.034465,21.1310044 C103.23857,21.1310044 103.417162,21.0622271 103.570241,20.9246725 C103.723321,20.7871179 103.79986,20.6164483 103.79986,20.4126638 C103.79986,20.2088792 103.723321,20.0382096 103.570241,19.900655 C103.417162,19.7631004 103.23857,19.6943231 103.034465,19.6943231 L103.034465,19.6943231 L100.921973,19.6943231 L100.921973,18.5327511 C100.921973,18.2983988 100.842883,18.1022562 100.684701,17.9443231 C100.526519,17.7863901 100.33517,17.7074236 100.110654,17.7074236 C99.8759331,17.7074236 99.6820329,17.7863901 99.5289538,17.9443231 C99.3758747,18.1022562 99.2993352,18.2983988 99.2993352,18.5327511 L99.2993352,18.5327511 L99.2993352,24.9213974 C99.2993352,25.3085881 99.3503616,25.6703057 99.4524143,26.0065502 C99.554467,26.3427948 99.7100974,26.6331878 99.9193055,26.8777293 C100.128514,27.1222707 100.391299,27.3158661 100.707663,27.4585153 C101.024026,27.6011645 101.401621,27.6724891 101.840448,27.6724891 Z M106.310357,27.580786 C106.545078,27.580786 106.74153,27.5043668 106.899711,27.3515284 C107.057893,27.19869 107.136984,27.0050946 107.136984,26.7707424 L107.136984,26.7707424 L107.136984,22.0633188 C107.136984,21.6353712 107.223729,21.327147 107.397218,21.1386463 C107.570708,20.9501456 107.836045,20.8508006 108.19323,20.8406114 C108.448361,20.8304221 108.667775,20.8508006 108.85147,20.9017467 C109.035164,20.9526929 109.198449,20.9781659 109.341323,20.9781659 C109.60666,20.9781659 109.80056,20.8941048 109.923023,20.7259825 C110.045486,20.5578603 110.106718,20.3871907 110.106718,20.2139738 C110.106718,20.0305677 110.060794,19.875182 109.968947,19.7478166 C109.877099,19.6204512 109.713815,19.5211063 109.479094,19.4497817 C109.315809,19.3988355 109.109153,19.3580786 108.859124,19.3275109 C108.609094,19.2969432 108.351411,19.2816594 108.086074,19.2816594 C107.249242,19.2816594 106.611412,19.5083697 106.172586,19.9617904 C105.733759,20.4152111 105.514346,21.0291121 105.514346,21.8034934 L105.514346,21.8034934 L105.514346,26.7707424 C105.514346,27.0050946 105.593437,27.19869 105.751618,27.3515284 C105.9098,27.5043668 106.096046,27.580786 106.310357,27.580786 Z M112.06613,18.3340611 C112.321262,18.3340611 112.535573,18.2423581 112.709062,18.058952 C112.882552,17.8755459 112.969297,17.6564774 112.969297,17.4017467 C112.969297,17.147016 112.882552,16.9330422 112.709062,16.7598253 C112.535573,16.5866084 112.321262,16.5 112.06613,16.5 C111.800793,16.5 111.58138,16.5866084 111.40789,16.7598253 C111.234401,16.9330422 111.147656,17.147016 111.147656,17.4017467 C111.147656,17.6564774 111.234401,17.8755459 111.40789,18.058952 C111.58138,18.2423581 111.800793,18.3340611 112.06613,18.3340611 Z M112.06613,27.580786 C112.300851,27.580786 112.494752,27.5018195 112.647831,27.3438865 C112.80091,27.1859534 112.877449,26.9898108 112.877449,26.7554585 L112.877449,26.7554585 L112.877449,20.2139738 C112.877449,19.9796215 112.798358,19.7834789 112.640177,19.6255459 C112.481995,19.4676128 112.290646,19.3886463 112.06613,19.3886463 C111.831409,19.3886463 111.637509,19.4676128 111.48443,19.6255459 C111.331351,19.7834789 111.254811,19.9796215 111.254811,20.2139738 L111.254811,20.2139738 L111.254811,26.7554585 C111.254811,26.9898108 111.336453,27.1859534 111.499738,27.3438865 C111.663022,27.5018195 111.851819,27.580786 112.06613,27.580786 Z M118.35768,27.6724891 C118.89856,27.6724891 119.373105,27.5909753 119.781316,27.4279476 C120.189526,27.2649199 120.528852,27.0636827 120.799291,26.8242358 C121.069731,26.5847889 121.273837,26.3351528 121.411608,26.0753275 C121.549379,25.8155022 121.618265,25.5887918 121.618265,25.3951965 C121.618265,25.1608443 121.546828,24.9647016 121.403954,24.8067686 C121.26108,24.6488355 121.077385,24.569869 120.852869,24.569869 C120.5263,24.569869 120.291579,24.7176128 120.148705,25.0131004 C119.975216,25.4002911 119.730289,25.6804949 119.413926,25.8537118 C119.097562,26.0269287 118.755686,26.1135371 118.388296,26.1135371 C117.786185,26.1135371 117.324396,25.9479622 117.00293,25.6168122 C116.681464,25.2856623 116.495218,24.860262 116.444192,24.3406114 C116.433986,24.2183406 116.426333,24.0756914 116.42123,23.9126638 C116.416127,23.7496361 116.413576,23.5815138 116.413576,23.4082969 C116.413576,23.2350801 116.416127,23.0695051 116.42123,22.9115721 C116.426333,22.753639 116.433986,22.6237263 116.444192,22.5218341 C116.495218,22.0021834 116.686567,21.592067 117.018238,21.2914847 C117.34991,20.9909025 117.806596,20.8406114 118.388296,20.8406114 C118.755686,20.8406114 119.095011,20.9272198 119.406272,21.1004367 C119.717533,21.2736536 119.959908,21.5538574 120.133397,21.941048 C120.276271,22.2365357 120.50589,22.3842795 120.822253,22.3842795 C121.056975,22.3842795 121.243221,22.305313 121.380992,22.1473799 C121.518763,21.9894469 121.587649,21.7933042 121.587649,21.558952 C121.587649,21.3653566 121.521314,21.1386463 121.388646,20.878821 C121.255977,20.6189956 121.054423,20.3719068 120.783984,20.1375546 C120.513544,19.9032023 120.17677,19.7019651 119.773662,19.5338428 C119.370553,19.3657205 118.89856,19.2816594 118.35768,19.2816594 C117.867827,19.2816594 117.413693,19.3555313 116.995276,19.5032751 C116.57686,19.6510189 116.212022,19.8598981 115.900761,20.1299127 C115.5895,20.3999272 115.339471,20.7234352 115.150674,21.1004367 C114.961876,21.4774381 114.852169,21.8951965 114.821554,22.3537118 C114.811348,22.5065502 114.803694,22.6772198 114.798592,22.8657205 C114.793489,23.0542213 114.790938,23.2452693 114.790938,23.4388646 C114.790938,23.63246 114.793489,23.823508 114.798592,24.0120087 C114.803694,24.2005095 114.811348,24.371179 114.821554,24.5240175 C114.852169,24.9621543 114.961876,25.3722707 115.150674,25.7543668 C115.339471,26.1364629 115.586949,26.4701601 115.893107,26.7554585 C116.199265,27.0407569 116.561552,27.2649199 116.979969,27.4279476 C117.398385,27.5909753 117.857622,27.6724891 118.35768,27.6724891 Z M124.144069,18.3340611 C124.399201,18.3340611 124.613512,18.2423581 124.787001,18.058952 C124.960491,17.8755459 125.047236,17.6564774 125.047236,17.4017467 C125.047236,17.147016 124.960491,16.9330422 124.787001,16.7598253 C124.613512,16.5866084 124.399201,16.5 124.144069,16.5 C123.878732,16.5 123.659319,16.5866084 123.485829,16.7598253 C123.31234,16.9330422 123.225595,17.147016 123.225595,17.4017467 C123.225595,17.6564774 123.31234,17.8755459 123.485829,18.058952 C123.659319,18.2423581 123.878732,18.3340611 124.144069,18.3340611 Z M124.144069,27.580786 C124.378791,27.580786 124.572691,27.5018195 124.72577,27.3438865 C124.878849,27.1859534 124.955388,26.9898108 124.955388,26.7554585 L124.955388,26.7554585 L124.955388,20.2139738 C124.955388,19.9796215 124.876298,19.7834789 124.718116,19.6255459 C124.559934,19.4676128 124.368585,19.3886463 124.144069,19.3886463 C123.909348,19.3886463 123.715448,19.4676128 123.562369,19.6255459 C123.40929,19.7834789 123.33275,19.9796215 123.33275,20.2139738 L123.33275,20.2139738 L123.33275,26.7554585 C123.33275,26.9898108 123.414392,27.1859534 123.577677,27.3438865 C123.740961,27.5018195 123.929759,27.580786 124.144069,27.580786 Z M129.6243,27.6724891 C129.920253,27.6724891 130.221309,27.6495633 130.527467,27.6037118 C130.833625,27.5578603 131.104065,27.4839884 131.338786,27.3820961 C131.542891,27.3005822 131.685765,27.1935953 131.767407,27.0611354 C131.849049,26.9286754 131.889871,26.7860262 131.889871,26.6331878 C131.889871,26.5211063 131.866909,26.4115721 131.820985,26.3045852 C131.775061,26.1975983 131.711278,26.1109898 131.629636,26.0447598 C131.547994,25.9785298 131.44339,25.930131 131.315824,25.8995633 C131.188258,25.8689956 131.047936,25.8740902 130.894857,25.9148472 C130.721367,25.9657933 130.545326,26.0167394 130.366734,26.0676856 C130.188141,26.1186317 129.996793,26.1441048 129.792687,26.1441048 C129.415092,26.1441048 129.13955,26.0396652 128.96606,25.830786 C128.792571,25.6219068 128.705826,25.3238719 128.705826,24.9366812 L128.705826,24.9366812 L128.705826,21.1310044 L130.818317,21.1310044 C131.022422,21.1310044 131.201015,21.0622271 131.354094,20.9246725 C131.507173,20.7871179 131.583712,20.6164483 131.583712,20.4126638 C131.583712,20.2088792 131.507173,20.0382096 131.354094,19.900655 C131.201015,19.7631004 131.022422,19.6943231 130.818317,19.6943231 L130.818317,19.6943231 L128.705826,19.6943231 L128.705826,18.5327511 C128.705826,18.2983988 128.626735,18.1022562 128.468553,17.9443231 C128.310371,17.7863901 128.119023,17.7074236 127.894507,17.7074236 C127.659785,17.7074236 127.465885,17.7863901 127.312806,17.9443231 C127.159727,18.1022562 127.083188,18.2983988 127.083188,18.5327511 L127.083188,18.5327511 L127.083188,24.9213974 C127.083188,25.3085881 127.134214,25.6703057 127.236267,26.0065502 C127.338319,26.3427948 127.49395,26.6331878 127.703158,26.8777293 C127.912366,27.1222707 128.175152,27.3158661 128.491515,27.4585153 C128.807878,27.6011645 129.185474,27.6724891 129.6243,27.6724891 Z M134.277904,30.5 C134.50242,30.5 134.732039,30.4235808 134.96676,30.2707424 C135.283123,30.0669578 135.632654,29.720524 136.015352,29.231441 C136.398049,28.7423581 136.742477,28.1310044 137.048635,27.3973799 L137.048635,27.3973799 L139.926522,20.5655022 C139.987754,20.422853 140.010716,20.2802038 139.995408,20.1375546 C139.9801,19.9949054 139.934176,19.86754 139.857636,19.7554585 C139.781097,19.643377 139.684147,19.5542213 139.566786,19.4879913 C139.449426,19.4217613 139.314206,19.3886463 139.161127,19.3886463 C138.957021,19.3886463 138.786083,19.4472344 138.648312,19.5644105 C138.510541,19.6815866 138.405937,19.8369723 138.3345,20.0305677 L138.3345,20.0305677 L136.436319,24.9366812 C136.415909,24.9672489 136.390395,24.9825328 136.35978,24.9825328 C136.329164,24.9825328 136.308753,24.9672489 136.298548,24.9366812 L136.298548,24.9366812 L134.23198,20 C134.170749,19.8267831 134.071247,19.6815866 133.933476,19.5644105 C133.795705,19.4472344 133.619664,19.3886463 133.405353,19.3886463 C133.272685,19.3886463 133.14767,19.4217613 133.03031,19.4879913 C132.912949,19.5542213 132.815999,19.6408297 132.739459,19.7478166 C132.66292,19.8548035 132.616996,19.9796215 132.601688,20.1222707 C132.58638,20.2649199 132.609342,20.4126638 132.670574,20.5655022 L132.670574,20.5655022 L135.456613,26.9694323 C135.252508,27.5196507 135.002478,27.9654294 134.706526,28.3067686 C134.410573,28.6481077 134.124825,28.9053857 133.849283,29.0786026 C133.737025,29.1601164 133.652831,29.2620087 133.596702,29.3842795 C133.540573,29.5065502 133.512509,29.6237263 133.512509,29.7358079 C133.512509,29.9701601 133.589048,30.1561135 133.742127,30.2936681 C133.895206,30.4312227 134.073799,30.5 134.277904,30.5 Z" id="Electricity" fill="#555555"></path>
                    <path d="M13.492823,28 C14.1894737,28 14.8370016,27.9452804 15.4354067,27.8358413 C16.0338118,27.7264022 16.569697,27.5896033 17.0430622,27.4254446 C17.5164274,27.2612859 17.922807,27.0925673 18.262201,26.9192886 C18.6015949,26.74601 18.8695375,26.5955312 19.0660287,26.4678523 C19.2625199,26.3219334 19.3964912,26.1714546 19.4679426,26.0164159 C19.5393939,25.8613771 19.5751196,25.6561788 19.5751196,25.4008208 L19.5751196,25.4008208 L19.5751196,18.2872777 C19.5751196,16.4450524 19.0794258,15.0998632 18.0880383,14.25171 C17.0966507,13.4035568 15.7435407,12.9794802 14.0287081,12.9794802 C13.2070175,12.9794802 12.4165869,13.0661195 11.6574163,13.2393981 C10.8982456,13.4126767 10.3221691,13.5996352 9.9291866,13.8002736 C9.57192982,13.9644323 9.32631579,14.1696306 9.1923445,14.4158687 C9.05837321,14.6621067 8.99138756,14.9037848 8.99138756,15.1409029 C8.99138756,15.5604195 9.17001595,15.8978568 9.52727273,16.1532148 C9.88452951,16.4085727 10.3578947,16.4359325 10.9473684,16.2352941 C11.322488,16.0893753 11.7645933,15.9525764 12.2736842,15.8248974 C12.7827751,15.6972184 13.3141946,15.6333789 13.8679426,15.6333789 C14.9218501,15.6333789 15.6810207,15.8431373 16.1454545,16.2626539 C16.6098884,16.6821705 16.8421053,17.3570451 16.8421053,18.2872777 L16.8421053,18.2872777 L16.8421053,19.1901505 C16.2169059,19.0442316 15.6497608,18.9302326 15.1406699,18.8481532 C14.6315789,18.7660739 14.0644338,18.7250342 13.4392344,18.7250342 C12.492504,18.7250342 11.6797448,18.8481532 11.0009569,19.0943912 C10.3221691,19.3406293 9.75948963,19.6735066 9.31291866,20.0930233 C8.86634769,20.5125399 8.53588517,20.995896 8.3215311,21.5430917 C8.10717703,22.0902873 8,22.6648427 8,23.2667579 C8,23.9416325 8.11610845,24.5663475 8.34832536,25.1409029 C8.58054226,25.7154583 8.92440191,26.2170543 9.37990431,26.6456908 C9.8354067,27.0743274 10.4070175,27.4072047 11.0947368,27.6443228 C11.7824561,27.8814409 12.5818182,28 13.492823,28 Z M13.7339713,25.4555404 C12.769378,25.4555404 12.0370016,25.2594619 11.5368421,24.8673051 C11.0366826,24.4751482 10.7866029,23.9051528 10.7866029,23.1573187 C10.7866029,22.500684 11.0500797,21.994528 11.5770335,21.6388509 C12.1039872,21.2831737 12.7783094,21.1053352 13.6,21.1053352 C14.2073365,21.1053352 14.7521531,21.1463748 15.2344498,21.2284542 C15.7167464,21.3105335 16.2526316,21.4245326 16.8421053,21.5704514 L16.8421053,21.5704514 L16.8421053,24.6073871 C16.6992026,24.7168263 16.3776715,24.8855449 15.877512,25.1135431 C15.3773525,25.3415413 14.6628389,25.4555404 13.7339713,25.4555404 Z M26.8899522,28 C27.5330144,28 28.1492823,27.9361605 28.738756,27.8084815 C29.3282297,27.6808026 29.8596491,27.5257638 30.3330144,27.3433653 C30.8063796,27.1609667 31.2172249,26.9740082 31.5655502,26.7824897 C31.9138756,26.5909713 32.1773525,26.4313725 32.3559809,26.3036936 C32.5703349,26.1577747 32.7087719,26.002736 32.7712919,25.8385773 C32.8338118,25.6744186 32.8650718,25.4646603 32.8650718,25.2093023 L32.8650718,25.2093023 L32.8650718,9.66894665 C32.8650718,9.24943 32.7311005,8.89831281 32.4631579,8.61559508 C32.1952153,8.33287734 31.8558214,8.19151847 31.4449761,8.19151847 C31.0519936,8.19151847 30.7170654,8.33287734 30.4401914,8.61559508 C30.1633174,8.89831281 30.0248804,9.24943 30.0248804,9.66894665 L30.0248804,9.66894665 L30.0248804,13.7729138 C29.5783094,13.5722754 29.0424242,13.3898769 28.4172249,13.2257182 C27.7920255,13.0615595 27.1578947,12.9794802 26.5148325,12.9794802 C24.7821372,12.9794802 23.4290271,13.4673963 22.4555024,14.4432285 C21.4819777,15.4190606 20.923764,16.7642499 20.7808612,18.4787962 C20.7629984,18.7341541 20.7496013,19.0305518 20.7406699,19.3679891 C20.7317384,19.7054264 20.7272727,20.0565435 20.7272727,20.4213406 C20.7272727,20.7861377 20.7317384,21.1418149 20.7406699,21.4883721 C20.7496013,21.8349293 20.7629984,22.126767 20.7808612,22.3638851 C20.8523126,23.2029184 21.0398724,23.9689922 21.3435407,24.6621067 C21.6472089,25.3552212 22.0625199,25.9480164 22.5894737,26.4404925 C23.1164274,26.9329685 23.7371611,27.3160055 24.4516746,27.5896033 C25.1661882,27.8632011 25.9789474,28 26.8899522,28 Z M26.9435407,25.2093023 C24.8893142,25.2093023 23.7818182,24.1422709 23.6210526,22.0082079 C23.6031898,21.7893297 23.5897927,21.5385317 23.5808612,21.255814 C23.5719298,20.9730962 23.5674641,20.6812585 23.5674641,20.380301 C23.5674641,20.0793434 23.5719298,19.7875057 23.5808612,19.504788 C23.5897927,19.2220702 23.6031898,18.9895121 23.6210526,18.8071135 C23.6746411,17.8039216 23.9515152,17.0469676 24.4516746,16.5362517 C24.9518341,16.0255358 25.7110048,15.7701778 26.7291866,15.7701778 C27.4258373,15.7701778 28.0778309,15.8659371 28.6851675,16.0574555 C29.292504,16.248974 29.739075,16.4359325 30.0248804,16.6183311 L30.0248804,16.6183311 L30.0248804,24.2243502 C29.8819777,24.3337893 29.6988836,24.4432285 29.4755981,24.5526676 C29.2523126,24.6621067 28.9977671,24.7669859 28.7119617,24.8673051 C28.4261563,24.9676243 28.1314195,25.0497036 27.8277512,25.1135431 C27.5240829,25.1773826 27.2293461,25.2093023 26.9435407,25.2093023 Z M39.5368421,28 C40.2334928,28 40.8810207,27.9452804 41.4794258,27.8358413 C42.0778309,27.7264022 42.6137161,27.5896033 43.0870813,27.4254446 C43.5604466,27.2612859 43.9668262,27.0925673 44.3062201,26.9192886 C44.645614,26.74601 44.9135566,26.5955312 45.1100478,26.4678523 C45.3065391,26.3219334 45.4405104,26.1714546 45.5119617,26.0164159 C45.5834131,25.8613771 45.6191388,25.6561788 45.6191388,25.4008208 L45.6191388,25.4008208 L45.6191388,18.2872777 C45.6191388,16.4450524 45.123445,15.0998632 44.1320574,14.25171 C43.1406699,13.4035568 41.7875598,12.9794802 40.0727273,12.9794802 C39.2510367,12.9794802 38.4606061,13.0661195 37.7014354,13.2393981 C36.9422648,13.4126767 36.3661882,13.5996352 35.9732057,13.8002736 C35.615949,13.9644323 35.3703349,14.1696306 35.2363636,14.4158687 C35.1023923,14.6621067 35.0354067,14.9037848 35.0354067,15.1409029 C35.0354067,15.5604195 35.2140351,15.8978568 35.5712919,16.1532148 C35.9285486,16.4085727 36.4019139,16.4359325 36.9913876,16.2352941 C37.3665072,16.0893753 37.8086124,15.9525764 38.3177033,15.8248974 C38.8267943,15.6972184 39.3582137,15.6333789 39.9119617,15.6333789 C40.9658692,15.6333789 41.7250399,15.8431373 42.1894737,16.2626539 C42.6539075,16.6821705 42.8861244,17.3570451 42.8861244,18.2872777 L42.8861244,18.2872777 L42.8861244,19.1901505 C42.260925,19.0442316 41.6937799,18.9302326 41.184689,18.8481532 C40.6755981,18.7660739 40.108453,18.7250342 39.4832536,18.7250342 C38.5365231,18.7250342 37.723764,18.8481532 37.0449761,19.0943912 C36.3661882,19.3406293 35.8035088,19.6735066 35.3569378,20.0930233 C34.9103668,20.5125399 34.5799043,20.995896 34.3655502,21.5430917 C34.1511962,22.0902873 34.0440191,22.6648427 34.0440191,23.2667579 C34.0440191,23.9416325 34.1601276,24.5663475 34.3923445,25.1409029 C34.6245614,25.7154583 34.9684211,26.2170543 35.4239234,26.6456908 C35.8794258,27.0743274 36.4510367,27.4072047 37.138756,27.6443228 C37.8264753,27.8814409 38.6258373,28 39.5368421,28 Z M39.7779904,25.4555404 C38.8133971,25.4555404 38.0810207,25.2594619 37.5808612,24.8673051 C37.0807018,24.4751482 36.830622,23.9051528 36.830622,23.1573187 C36.830622,22.500684 37.0940989,21.994528 37.6210526,21.6388509 C38.1480064,21.2831737 38.8223285,21.1053352 39.6440191,21.1053352 C40.2513557,21.1053352 40.7961722,21.1463748 41.2784689,21.2284542 C41.7607656,21.3105335 42.2966507,21.4245326 42.8861244,21.5704514 L42.8861244,21.5704514 L42.8861244,24.6073871 C42.7432217,24.7168263 42.4216906,24.8855449 41.9215311,25.1135431 C41.4213716,25.3415413 40.7068581,25.4555404 39.7779904,25.4555404 Z M57.7837321,27.8358413 C58.1945774,27.8358413 58.5339713,27.6944824 58.8019139,27.4117647 C59.0698565,27.129047 59.2038278,26.7779298 59.2038278,26.3584131 L59.2038278,26.3584131 L59.2038278,18.752394 C59.2038278,16.8919289 58.7125997,15.4646603 57.7301435,14.4705882 C56.7476874,13.4765162 55.2829346,12.9794802 53.3358852,12.9794802 C52.6392344,12.9794802 51.9917065,13.0296398 51.3933014,13.129959 C50.7948963,13.2302782 50.2634769,13.3579571 49.7990431,13.5129959 C49.3346093,13.6680347 48.9326954,13.8321933 48.5933014,14.005472 C48.2539075,14.1787506 47.9859649,14.3383493 47.7894737,14.4842681 C47.5929825,14.630187 47.4500797,14.7806658 47.3607656,14.9357045 C47.2714514,15.0907433 47.2267943,15.3141815 47.2267943,15.6060192 L47.2267943,15.6060192 L47.2267943,26.3584131 C47.2267943,26.7779298 47.369697,27.129047 47.6555024,27.4117647 C47.9413078,27.6944824 48.2717703,27.8358413 48.64689,27.8358413 C49.0577352,27.8358413 49.3971292,27.6944824 49.6650718,27.4117647 C49.9330144,27.129047 50.0669856,26.7779298 50.0669856,26.3584131 L50.0669856,26.3584131 L50.0669856,16.5362517 C50.3706539,16.3356133 50.8127592,16.1577747 51.3933014,16.002736 C51.9738437,15.8476972 52.5945774,15.7701778 53.2555024,15.7701778 C53.6663477,15.7701778 54.0593301,15.8294574 54.4344498,15.9480164 C54.8095694,16.0665755 55.1400319,16.253534 55.4258373,16.5088919 C55.7116427,16.7642499 55.9393939,17.0880073 56.1090909,17.4801642 C56.2787879,17.872321 56.3636364,18.3419973 56.3636364,18.8891929 L56.3636364,18.8891929 L56.3636364,26.3584131 C56.3636364,26.7779298 56.5065391,27.129047 56.7923445,27.4117647 C57.0781499,27.6944824 57.4086124,27.8358413 57.7837321,27.8358413 Z M62.4191388,11.2831737 C62.8657097,11.2831737 63.2408293,11.119015 63.5444976,10.7906977 C63.8481659,10.4623803 64,10.0702234 64,9.61422709 C64,9.15823073 63.8481659,8.7751938 63.5444976,8.46511628 C63.2408293,8.15503876 62.8657097,8 62.4191388,8 C61.9547049,8 61.5706539,8.15503876 61.2669856,8.46511628 C60.9633174,8.7751938 60.8114833,9.15823073 60.8114833,9.61422709 C60.8114833,10.0702234 60.9633174,10.4623803 61.2669856,10.7906977 C61.5706539,11.119015 61.9547049,11.2831737 62.4191388,11.2831737 Z M62.4191388,27.8358413 C62.8299841,27.8358413 63.169378,27.6944824 63.4373206,27.4117647 C63.7052632,27.129047 63.8392344,26.7779298 63.8392344,26.3584131 L63.8392344,26.3584131 L63.8392344,14.6484268 C63.8392344,14.2289102 63.7007974,13.877793 63.4239234,13.5950752 C63.1470494,13.3123575 62.8121212,13.1709986 62.4191388,13.1709986 C62.0082935,13.1709986 61.6688995,13.3123575 61.4009569,13.5950752 C61.1330144,13.877793 60.9990431,14.2289102 60.9990431,14.6484268 L60.9990431,14.6484268 L60.9990431,26.3584131 C60.9990431,26.7779298 61.1419458,27.129047 61.4277512,27.4117647 C61.7135566,27.6944824 62.0440191,27.8358413 62.4191388,27.8358413 Z" id="adani" fill="url(#linearGradient-1)"></path>
                </g>
            </g>
        </g>
    </g>
</svg>