<?xml version="1.0" encoding="utf-8"?>
<!-- Generator: Adobe Illustrator 26.1.0, SVG Export Plug-In . SVG Version: 6.00 Build 0)  -->
<svg version="1.1" xmlns="http://www.w3.org/2000/svg" xmlns:xlink="http://www.w3.org/1999/xlink" x="0px" y="0px"
	 viewBox="0 0 32 32" style="enable-background:new 0 0 32 32;" xml:space="preserve">
<style type="text/css">
	.st0{opacity:0;fill:#FFFFFF;}
	.st1{fill:#333333;}
	.st2{fill:none;stroke:#000000;stroke-width:1.4;stroke-linecap:round;stroke-linejoin:round;stroke-miterlimit:10;}
	.st3{fill:none;stroke:#000000;stroke-width:1.5;stroke-linecap:round;stroke-linejoin:round;stroke-miterlimit:10;}
	.st4{fill:#4563B7;}
	.st5{fill:none;stroke:#000000;stroke-width:1.5;stroke-linecap:round;stroke-linejoin:round;}
	.st6{fill:#458845;}
	.st7{fill:none;stroke:#333333;stroke-width:1.5;stroke-linecap:round;stroke-linejoin:round;}
	.st8{fill:#44FFE8;}
	.st9{fill-rule:evenodd;clip-rule:evenodd;fill:#333333;}
</style>
<g id="Layer_1">
</g>
<g id="Layer_2">
	<rect y="0" class="st0" width="32" height="32"/>
	<path class="st1" d="M30.1,21.28h-4.81v-8.43h0.04c0.41,0,0.75-0.34,0.75-0.75V9.41c0-0.41-0.34-0.75-0.75-0.75h-0.46
		c-0.02-0.02-0.04-0.05-0.06-0.07l-8.76-6.87c-0.02-0.01-0.04-0.02-0.05-0.03c-0.06-0.04-0.12-0.07-0.18-0.09
		c-0.03-0.01-0.06-0.01-0.1-0.02c-0.04-0.01-0.08-0.03-0.13-0.03h-2.69c-0.04,0-0.08,0.02-0.12,0.02c-0.03,0.01-0.07,0.01-0.1,0.02
		c-0.06,0.02-0.12,0.05-0.17,0.08c-0.02,0.01-0.04,0.01-0.06,0.03L5.21,7.11H1.9c-0.41,0-0.75,0.34-0.75,0.75v5.79
		c0,0.41,0.34,0.75,0.75,0.75h3.56c0.41,0,0.75-0.34,0.75-0.75v-0.8h5.93v17.33c0,0.41,0.34,0.75,0.75,0.75h2.69
		c0.41,0,0.75-0.34,0.75-0.75V12.86h7.45v8.43h-4.81c-0.41,0-0.75,0.34-0.75,0.75v5.88c0,0.41,0.34,0.75,0.75,0.75H30.1
		c0.41,0,0.75-0.34,0.75-0.75v-5.88C30.85,21.62,30.51,21.28,30.1,21.28z M16.33,3.85l6.13,4.81h-6.13V3.85z M13.64,3.05h1.19v5.61
		h-1.19V3.05z M4.71,12.91H2.65V8.61h2.06V12.91z M6.21,8.24l5.93-4.44v4.86H6.21V8.24z M6.21,10.16h6.68h2.69h9v1.19h-9h-2.69H6.21
		V10.16z M14.83,29.44h-1.19V12.86h1.19V29.44z M29.35,27.16h-9.62v-4.38h9.62V27.16z M22.7,24.09v1.76c0,0.41-0.34,0.75-0.75,0.75
		s-0.75-0.34-0.75-0.75v-1.76c0-0.41,0.34-0.75,0.75-0.75S22.7,23.68,22.7,24.09z M24.54,23.34c0.41,0,0.75,0.34,0.75,0.75v1.76
		c0,0.41-0.34,0.75-0.75,0.75s-0.75-0.34-0.75-0.75v-1.76C23.79,23.68,24.12,23.34,24.54,23.34z M26.37,25.85v-1.76
		c0-0.41,0.34-0.75,0.75-0.75s0.75,0.34,0.75,0.75v1.76c0,0.41-0.34,0.75-0.75,0.75S26.37,26.26,26.37,25.85z"/>
</g>
</svg>
