<?xml version="1.0" encoding="utf-8"?>
<!-- Generator: Adobe Illustrator 26.1.0, SVG Export Plug-In . SVG Version: 6.00 Build 0)  -->
<svg version="1.1" xmlns="http://www.w3.org/2000/svg" xmlns:xlink="http://www.w3.org/1999/xlink" x="0px" y="0px"
	 viewBox="0 0 32 32" style="enable-background:new 0 0 32 32;" xml:space="preserve">
<style type="text/css">
	.st0{opacity:0;fill:#FFFFFF;}
	.st1{fill:#333333;}
	.st2{fill:none;stroke:#000000;stroke-width:1.4;stroke-linecap:round;stroke-linejoin:round;stroke-miterlimit:10;}
	.st3{fill:none;stroke:#000000;stroke-width:1.5;stroke-linecap:round;stroke-linejoin:round;stroke-miterlimit:10;}
	.st4{fill:#4563B7;}
	.st5{fill:none;stroke:#000000;stroke-width:1.5;stroke-linecap:round;stroke-linejoin:round;}
	.st6{fill:#458845;}
	.st7{fill:none;stroke:#333333;stroke-width:1.5;stroke-linecap:round;stroke-linejoin:round;}
	.st8{fill:#44FFE8;}
	.st9{fill-rule:evenodd;clip-rule:evenodd;fill:#333333;}
</style>
<g id="Layer_1">
</g>
<g id="Layer_2">
	<rect y="0" class="st0" width="32" height="32"/>
	<path class="st1" d="M29.76,13.03v3.8c0,0.8-0.65,1.45-1.45,1.45h-2.03c-0.17,0.53-0.39,1.05-0.64,1.54l1.44,1.44
		c0.57,0.57,0.56,1.49,0,2.05L24.39,26c-0.28,0.28-0.65,0.42-1.03,0.42s-0.74-0.14-1.03-0.42l-1.84-1.84
		c-0.29-0.29-0.29-0.77,0-1.06c0.29-0.29,0.77-0.29,1.06,0l1.83,1.84l2.62-2.69l-1.84-1.77c-0.24-0.24-0.29-0.61-0.12-0.91
		c0.41-0.71,0.72-1.46,0.93-2.25c0.09-0.33,0.38-0.56,0.72-0.56h2.59l-0.05-3.75l-2.54,0.05c-0.34,0-0.64-0.23-0.72-0.56
		c-0.21-0.78-0.52-1.54-0.93-2.25c-0.17-0.29-0.12-0.67,0.12-0.91l1.84-1.84l-2.69-2.62l-1.77,1.84c-0.24,0.24-0.61,0.29-0.91,0.12
		c-0.71-0.41-1.46-0.72-2.25-0.93c-0.33-0.09-0.56-0.38-0.56-0.72V2.62L14.1,2.67l0.05,2.55c0,0.34-0.23,0.64-0.56,0.72
		c-0.79,0.21-1.54,0.52-2.25,0.93c-0.29,0.17-0.67,0.12-0.91-0.12L8.6,4.92L5.99,7.6l1.84,1.77c0.24,0.24,0.29,0.61,0.12,0.91
		c-0.41,0.71-0.72,1.46-0.93,2.25c-0.09,0.33-0.38,0.56-0.72,0.56H3.69l0.05,3.75l2.54-0.05c0.34,0,0.64,0.23,0.72,0.56
		c0.21,0.79,0.52,1.54,0.93,2.25c0.17,0.29,0.12,0.67-0.12,0.91l-1.84,1.84l2.69,2.62l1.77-1.84c0.29-0.29,0.77-0.29,1.06,0
		s0.29,0.77,0,1.06L9.67,26c-0.56,0.56-1.48,0.57-2.05,0l-2.69-2.69c-0.56-0.56-0.57-1.48,0-2.05l1.44-1.44
		c-0.25-0.5-0.47-1.01-0.64-1.54H3.69c-0.8,0-1.45-0.65-1.45-1.45v-3.8c0-0.8,0.65-1.45,1.45-1.45h2.03
		c0.17-0.53,0.39-1.04,0.64-1.54L4.93,8.6c-0.57-0.57-0.56-1.49,0-2.05l2.69-2.69c0.57-0.57,1.49-0.56,2.05,0l1.44,1.44
		c0.5-0.25,1.01-0.47,1.54-0.64V2.62c0-0.8,0.65-1.45,1.45-1.45h3.8c0.8,0,1.45,0.65,1.45,1.45v2.04c0.53,0.17,1.05,0.39,1.54,0.64
		l1.44-1.44c0.57-0.57,1.49-0.56,2.05,0l2.69,2.69c0.57,0.57,0.57,1.49,0,2.05l-1.44,1.44c0.25,0.5,0.47,1.01,0.64,1.54h2.03
		C29.11,11.58,29.76,12.23,29.76,13.03z M18.96,21.26v8.82c0,0.41-0.34,0.75-0.75,0.75H14.3c-0.41,0-0.75-0.34-0.75-0.75v-8.82
		c-2.28-1.04-3.77-3.34-3.77-5.88c0-2.34,1.27-4.5,3.32-5.65c0.23-0.13,0.52-0.13,0.75,0.01c0.23,0.13,0.37,0.38,0.37,0.65v4.23
		h3.69v-4.42c0-0.25,0.13-0.49,0.34-0.63c0.21-0.14,0.49-0.16,0.72-0.05c2.29,1.05,3.77,3.35,3.77,5.87
		C22.74,17.92,21.24,20.22,18.96,21.26z M21.24,15.38c0-1.51-0.69-2.92-1.83-3.85v3.83c0,0.41-0.34,0.75-0.75,0.75h-5.19
		c-0.41,0-0.75-0.34-0.75-0.75v-3.48c-0.91,0.92-1.44,2.17-1.44,3.49c0,2.09,1.32,3.97,3.28,4.67c0.3,0.11,0.5,0.39,0.5,0.71v8.57
		h2.41v-8.57c0-0.32,0.2-0.6,0.5-0.71C19.92,19.34,21.24,17.47,21.24,15.38z"/>
</g>
</svg>
