<?xml version="1.0" encoding="utf-8"?>
<!-- Generator: Adobe Illustrator 26.1.0, SVG Export Plug-In . SVG Version: 6.00 Build 0)  -->
<svg version="1.1" xmlns="http://www.w3.org/2000/svg" xmlns:xlink="http://www.w3.org/1999/xlink" x="0px" y="0px"
	 viewBox="0 0 32 32" style="enable-background:new 0 0 32 32;" xml:space="preserve">
<style type="text/css">
	.st0{opacity:0;fill:#FFFFFF;}
	.st1{fill:#333333;}
	.st2{fill:none;stroke:#000000;stroke-width:1.4;stroke-linecap:round;stroke-linejoin:round;stroke-miterlimit:10;}
	.st3{fill:none;stroke:#000000;stroke-width:1.5;stroke-linecap:round;stroke-linejoin:round;stroke-miterlimit:10;}
	.st4{fill:#4563B7;}
	.st5{fill:none;stroke:#000000;stroke-width:1.5;stroke-linecap:round;stroke-linejoin:round;}
	.st6{fill:#458845;}
	.st7{fill:none;stroke:#333333;stroke-width:1.5;stroke-linecap:round;stroke-linejoin:round;}
	.st8{fill:#44FFE8;}
	.st9{fill-rule:evenodd;clip-rule:evenodd;fill:#333333;}
</style>
<g id="Layer_1">
</g>
<g id="Layer_2">
	<rect y="0" class="st0" width="32" height="32"/>
	<path class="st1" d="M19.95,7.36c0,0.41-0.34,0.75-0.75,0.75h-2.45v2.45c0,0.41-0.34,0.75-0.75,0.75c-0.41,0-0.75-0.34-0.75-0.75
		V8.11H12.8c-0.41,0-0.75-0.34-0.75-0.75s0.34-0.75,0.75-0.75h2.45V4.17c0-0.41,0.34-0.75,0.75-0.75c0.41,0,0.75,0.34,0.75,0.75
		v2.45h2.45C19.61,6.61,19.95,6.95,19.95,7.36z M30.88,30.09c0,0.41-0.34,0.75-0.75,0.75h-2.95H4.82H1.87
		c-0.41,0-0.75-0.34-0.75-0.75s0.34-0.75,0.75-0.75h2.2V9.25c0-0.41,0.34-0.75,0.75-0.75h3.92V1.91c0-0.41,0.34-0.75,0.75-0.75H22.5
		c0.41,0,0.75,0.34,0.75,0.75V8.5h3.93c0.41,0,0.75,0.34,0.75,0.75v20.09h2.2C30.55,29.34,30.88,29.68,30.88,30.09z M17.83,29.34
		v-3.03h-3.67v3.03H17.83z M26.43,29.34V10H22.5c-0.41,0-0.75-0.34-0.75-0.75V2.66H10.24v6.59C10.24,9.66,9.9,10,9.49,10H5.57v19.34
		h7.1v-3.79c0-0.41,0.34-0.75,0.75-0.75h5.17c0.41,0,0.75,0.34,0.75,0.75v3.79H26.43z M10.95,13.17H8.68
		c-0.41,0-0.75,0.34-0.75,0.75v2.27c0,0.41,0.34,0.75,0.75,0.75s0.75-0.34,0.75-0.75v-1.52h1.52c0.41,0,0.75-0.34,0.75-0.75
		S11.36,13.17,10.95,13.17z M17.13,13.17h-2.27c-0.41,0-0.75,0.34-0.75,0.75v2.27c0,0.41,0.34,0.75,0.75,0.75s0.75-0.34,0.75-0.75
		v-1.52h1.52c0.41,0,0.75-0.34,0.75-0.75S17.55,13.17,17.13,13.17z M23.32,13.17h-2.27c-0.41,0-0.75,0.34-0.75,0.75v2.27
		c0,0.41,0.34,0.75,0.75,0.75s0.75-0.34,0.75-0.75v-1.52h1.52c0.41,0,0.75-0.34,0.75-0.75S23.74,13.17,23.32,13.17z M10.94,19.48
		H8.68c-0.41,0-0.75,0.34-0.75,0.75v2.27c0,0.41,0.34,0.75,0.75,0.75s0.75-0.34,0.75-0.75v-1.52h1.52c0.41,0,0.75-0.34,0.75-0.75
		S11.36,19.48,10.94,19.48z M17.13,19.48h-2.27c-0.41,0-0.75,0.34-0.75,0.75v2.27c0,0.41,0.34,0.75,0.75,0.75s0.75-0.34,0.75-0.75
		v-1.52h1.52c0.41,0,0.75-0.34,0.75-0.75S17.55,19.48,17.13,19.48z M23.32,19.48h-2.27c-0.41,0-0.75,0.34-0.75,0.75v2.27
		c0,0.41,0.34,0.75,0.75,0.75s0.75-0.34,0.75-0.75v-1.52h1.52c0.41,0,0.75-0.34,0.75-0.75S23.73,19.48,23.32,19.48z"/>
</g>
</svg>
