<?xml version="1.0" encoding="utf-8"?>
<!-- Generator: Adobe Illustrator 26.1.0, SVG Export Plug-In . SVG Version: 6.00 Build 0)  -->
<svg version="1.1" xmlns="http://www.w3.org/2000/svg" xmlns:xlink="http://www.w3.org/1999/xlink" x="0px" y="0px"
	 viewBox="0 0 32 32" style="enable-background:new 0 0 32 32;" xml:space="preserve">
<style type="text/css">
	.st0{opacity:0;fill:#FFFFFF;}
	.st1{fill:#333333;}
	.st2{fill:none;stroke:#000000;stroke-width:1.4;stroke-linecap:round;stroke-linejoin:round;stroke-miterlimit:10;}
	.st3{fill:none;stroke:#000000;stroke-width:1.5;stroke-linecap:round;stroke-linejoin:round;stroke-miterlimit:10;}
	.st4{fill:#4563B7;}
	.st5{fill:none;stroke:#000000;stroke-width:1.5;stroke-linecap:round;stroke-linejoin:round;}
	.st6{fill:#458845;}
	.st7{fill:none;stroke:#333333;stroke-width:1.5;stroke-linecap:round;stroke-linejoin:round;}
	.st8{fill:#44FFE8;}
	.st9{fill-rule:evenodd;clip-rule:evenodd;fill:#333333;}
</style>
<g id="Layer_1">
</g>
<g id="Layer_2">
	<rect y="0" class="st0" width="32" height="32"/>
	<path class="st1" d="M27.1,7.92c0-3.65-2.97-6.61-6.63-6.61c-2.19,0-4.19,1.06-5.4,2.8H6.92c-1.12,0-2.02,0.91-2.02,2.02v22.53
		c0,1.12,0.91,2.02,2.02,2.02H21.9c1.12,0,2.02-0.91,2.02-2.02V13.58C25.88,12.39,27.1,10.26,27.1,7.92z M21.9,29.19H6.92
		c-0.29,0-0.52-0.23-0.52-0.52V6.13c0-0.29,0.23-0.52,0.52-0.52h7.36C14,6.35,13.86,7.13,13.86,7.92c0,3.66,2.97,6.63,6.61,6.63
		c0.66,0,1.33-0.1,1.95-0.29v14.41C22.42,28.96,22.19,29.19,21.9,29.19z M22.45,12.65c-0.61,0.26-1.29,0.4-1.98,0.4
		c-2.82,0-5.11-2.3-5.11-5.13c0-0.84,0.21-1.67,0.61-2.4c0.87-1.67,2.6-2.71,4.51-2.71c2.83,0,5.13,2.29,5.13,5.11
		C25.6,9.99,24.36,11.85,22.45,12.65z M18,18.43l-6.13,6.13c-0.15,0.15-0.34,0.22-0.53,0.22s-0.38-0.07-0.53-0.22
		c-0.29-0.29-0.29-0.77,0-1.06l6.13-6.13c0.29-0.29,0.77-0.29,1.06,0S18.3,18.14,18,18.43z M10.44,19.17c-0.6-0.6-0.6-1.57,0-2.18
		c0.6-0.6,1.58-0.6,2.18,0c0.6,0.6,0.6,1.57,0,2.18C12.01,19.77,11.04,19.77,10.44,19.17z M18.38,22.76c0.6,0.6,0.6,1.57,0,2.18
		c-0.6,0.6-1.58,0.6-2.18,0c-0.6-0.6-0.6-1.58,0-2.18S17.78,22.16,18.38,22.76z M23.1,6.53l-1.4,1.4l1.4,1.4
		c0.29,0.29,0.29,0.77,0,1.06c-0.15,0.15-0.34,0.22-0.53,0.22s-0.38-0.07-0.53-0.22l-1.4-1.4l-1.4,1.4
		c-0.15,0.15-0.34,0.22-0.53,0.22s-0.38-0.07-0.53-0.22c-0.29-0.29-0.29-0.77,0-1.06l1.4-1.4l-1.4-1.4c-0.29-0.29-0.29-0.77,0-1.06
		s0.77-0.29,1.06,0l1.4,1.4l1.4-1.4c0.29-0.29,0.77-0.29,1.06,0S23.4,6.24,23.1,6.53z"/>
</g>
</svg>
