<?xml version="1.0" encoding="utf-8"?>
<!-- Generator: Adobe Illustrator 26.1.0, SVG Export Plug-In . SVG Version: 6.00 Build 0)  -->
<svg version="1.1" xmlns="http://www.w3.org/2000/svg" xmlns:xlink="http://www.w3.org/1999/xlink" x="0px" y="0px"
	 viewBox="0 0 32 32" style="enable-background:new 0 0 32 32;" xml:space="preserve">
<style type="text/css">
	.st0{opacity:0;fill:#FFFFFF;}
	.st1{fill:#333333;}
	.st2{fill:none;stroke:#000000;stroke-width:1.4;stroke-linecap:round;stroke-linejoin:round;stroke-miterlimit:10;}
	.st3{fill:none;stroke:#000000;stroke-width:1.5;stroke-linecap:round;stroke-linejoin:round;stroke-miterlimit:10;}
	.st4{fill:#4563B7;}
	.st5{fill:none;stroke:#000000;stroke-width:1.5;stroke-linecap:round;stroke-linejoin:round;}
	.st6{fill:#458845;}
	.st7{fill:none;stroke:#333333;stroke-width:1.5;stroke-linecap:round;stroke-linejoin:round;}
	.st8{fill:#44FFE8;}
	.st9{fill-rule:evenodd;clip-rule:evenodd;fill:#333333;}
</style>
<g id="Layer_1">
</g>
<g id="Layer_2">
	<rect y="0" class="st0" width="32" height="32"/>
	<path class="st1" d="M20.73,10.16c-0.45-0.4-0.98-0.71-1.57-0.92c-0.6-0.21-1.25-0.31-1.91-0.31h-4.48c-0.46,0-0.81,0.13-1.05,0.4
		c-0.24,0.27-0.36,0.59-0.36,0.99v13.22c0,0.23,0.08,0.42,0.24,0.58c0.16,0.17,0.35,0.25,0.57,0.25s0.41-0.08,0.57-0.25
		c0.16-0.17,0.24-0.36,0.24-0.58v-5.07h4.09c0.74,0,1.43-0.11,2.05-0.32c0.62-0.21,1.16-0.52,1.62-0.93
		c0.45-0.41,0.81-0.91,1.06-1.5c0.25-0.58,0.38-1.27,0.38-2.04c0-0.75-0.13-1.43-0.39-2.02C21.54,11.07,21.18,10.56,20.73,10.16z
		 M19.72,16.01c-0.54,0.6-1.43,0.9-2.67,0.9h-4.07v-6.43h4.18c1.15,0,2,0.3,2.55,0.89c0.54,0.59,0.81,1.38,0.81,2.34
		C20.53,14.64,20.26,15.42,19.72,16.01z M16,1.44C7.97,1.44,1.44,7.97,1.44,16c0,8.03,6.53,14.56,14.56,14.56
		c8.03,0,14.56-6.53,14.56-14.56C30.56,7.97,24.03,1.44,16,1.44z M16,29.06C8.8,29.06,2.94,23.2,2.94,16C2.94,8.8,8.8,2.94,16,2.94
		c7.2,0,13.06,5.86,13.06,13.06C29.06,23.2,23.2,29.06,16,29.06z"/>
</g>
</svg>
