<?xml version="1.0" encoding="utf-8"?>
<!-- Generator: Adobe Illustrator 26.1.0, SVG Export Plug-In . SVG Version: 6.00 Build 0)  -->
<svg version="1.1" xmlns="http://www.w3.org/2000/svg" xmlns:xlink="http://www.w3.org/1999/xlink" x="0px" y="0px"
	 viewBox="0 0 32 32" style="enable-background:new 0 0 32 32;" xml:space="preserve">
<style type="text/css">
	.st0{opacity:0;fill:#FFFFFF;}
	.st1{fill:#333333;}
	.st2{fill:none;stroke:#000000;stroke-width:1.4;stroke-linecap:round;stroke-linejoin:round;stroke-miterlimit:10;}
	.st3{fill:none;stroke:#000000;stroke-width:1.5;stroke-linecap:round;stroke-linejoin:round;stroke-miterlimit:10;}
	.st4{fill:#4563B7;}
	.st5{fill:none;stroke:#000000;stroke-width:1.5;stroke-linecap:round;stroke-linejoin:round;}
	.st6{fill:#458845;}
	.st7{fill:none;stroke:#333333;stroke-width:1.5;stroke-linecap:round;stroke-linejoin:round;}
	.st8{fill:#44FFE8;}
	.st9{fill-rule:evenodd;clip-rule:evenodd;fill:#333333;}
</style>
<g id="Layer_1">
</g>
<g id="Layer_2">
	<rect y="0" class="st0" width="32" height="32"/>
	<path class="st1" d="M28.79,6.32H3.21c-1.24,0-2.25,1.01-2.25,2.25v14.87c0,1.24,1.01,2.25,2.25,2.25h25.58
		c1.24,0,2.25-1.01,2.25-2.25v-3.08v-8.71V8.56C31.04,7.33,30.03,6.32,28.79,6.32z M15.25,17.85c-0.74-0.3-1.26-1.02-1.26-1.86
		c0-0.84,0.52-1.56,1.26-1.86V17.85z M16.75,14.13c0.74,0.3,1.26,1.02,1.26,1.86c0,0.84-0.52,1.56-1.26,1.86V14.13z M2.46,23.44
		v-2.11h4.56c0.54,0,0.97-0.44,0.97-0.97v-1.31c1.61-0.08,2.9-1.41,2.9-3.04c0-1.63-1.29-2.96-2.9-3.04v-1.31
		c0-0.54-0.44-0.99-0.97-0.99H2.46v-2.1c0-0.41,0.33-0.75,0.75-0.75h12.04v4.75c-1.57,0.34-2.76,1.75-2.76,3.42s1.18,3.08,2.76,3.42
		v4.77H3.21C2.8,24.18,2.46,23.85,2.46,23.44z M8,14.45c0.79,0.08,1.4,0.74,1.4,1.55c0,0.81-0.62,1.47-1.4,1.55V14.45z M6.5,13.78
		v4.45v1.6H2.47v-7.67H6.5V13.78z M28.79,24.18H16.75v-4.77c1.57-0.34,2.76-1.75,2.76-3.42s-1.18-3.08-2.76-3.42V7.82h12.04
		c0.41,0,0.75,0.33,0.75,0.75v2.1h-4.56c-0.54,0-0.97,0.44-0.97,0.99v1.31c-1.61,0.08-2.9,1.41-2.9,3.04c0,1.63,1.29,2.96,2.9,3.04
		v1.31c0,0.54,0.44,0.97,0.97,0.97h4.56v2.11C29.54,23.85,29.2,24.18,28.79,24.18z M29.54,19.83h-4.03v-1.6v-4.45v-1.61h4.03V19.83z
		 M24.01,17.55c-0.79-0.08-1.4-0.74-1.4-1.55c0-0.81,0.62-1.47,1.4-1.55V17.55z"/>
</g>
</svg>
