<?xml version="1.0" encoding="utf-8"?>
<!-- Generator: Adobe Illustrator 26.1.0, SVG Export Plug-In . SVG Version: 6.00 Build 0)  -->
<svg version="1.1" xmlns="http://www.w3.org/2000/svg" xmlns:xlink="http://www.w3.org/1999/xlink" x="0px" y="0px"
	 viewBox="0 0 32 32" style="enable-background:new 0 0 32 32;" xml:space="preserve">
<style type="text/css">
	.st0{opacity:0;fill:#FFFFFF;}
	.st1{fill:#333333;}
	.st2{fill:none;stroke:#000000;stroke-width:1.4;stroke-linecap:round;stroke-linejoin:round;stroke-miterlimit:10;}
	.st3{fill:none;stroke:#000000;stroke-width:1.5;stroke-linecap:round;stroke-linejoin:round;stroke-miterlimit:10;}
	.st4{fill:#4563B7;}
	.st5{fill:none;stroke:#000000;stroke-width:1.5;stroke-linecap:round;stroke-linejoin:round;}
	.st6{fill:#458845;}
	.st7{fill:none;stroke:#333333;stroke-width:1.5;stroke-linecap:round;stroke-linejoin:round;}
	.st8{fill:#44FFE8;}
	.st9{fill-rule:evenodd;clip-rule:evenodd;fill:#333333;}
</style>
<g id="Layer_1">
</g>
<g id="Layer_2">
	<rect y="0" class="st0" width="32" height="32"/>
	<path class="st1" d="M13.21,11.98c-0.17,0.21-0.4,0.42-0.73,0.6c-0.3,0.17-0.45,0.51-0.36,0.84c0.09,0.33,0.38,0.56,0.73,0.56h5.06
		c0.34,0,0.64-0.23,0.73-0.56c0.08-0.33-0.07-0.68-0.37-0.84c-0.3-0.17-0.52-0.36-0.68-0.55c0.01,0,0.03,0,0.04,0
		c0.79,0,1.56-0.39,2.06-1.06c0.95-1.27,0.9-3.14-0.11-4.35l-3.5-4.21c-0.14-0.17-0.35-0.27-0.58-0.27s-0.43,0.1-0.58,0.27
		l-3.5,4.21c-1.01,1.21-1.05,3.08-0.1,4.35C11.8,11.63,12.49,11.98,13.21,11.98z M12.57,7.58l2.93-3.52l2.93,3.52
		c0.56,0.67,0.58,1.79,0.05,2.5c-0.3,0.4-0.71,0.49-1,0.45c-0.18-0.03-0.31-0.1-0.34-0.2c-0.01-0.03-0.03-0.05-0.05-0.08
		c-0.02-0.04-0.04-0.09-0.07-0.12c-0.03-0.04-0.07-0.07-0.11-0.11c-0.03-0.03-0.07-0.06-0.11-0.08c-0.05-0.03-0.1-0.05-0.15-0.06
		c-0.03-0.01-0.05-0.03-0.08-0.03c-0.02,0-0.03,0-0.05,0c-0.05-0.01-0.1,0-0.16,0c-0.05,0-0.09,0.01-0.14,0.02
		c-0.02,0-0.04,0-0.06,0.01c-0.03,0.01-0.05,0.03-0.08,0.05c-0.04,0.02-0.08,0.04-0.12,0.07c-0.04,0.03-0.07,0.06-0.1,0.1
		c-0.03,0.04-0.06,0.07-0.08,0.11c-0.03,0.05-0.04,0.09-0.06,0.14c-0.01,0.03-0.03,0.05-0.03,0.08c-0.01,0.06-0.2,1.04,0.37,2.06
		h-1.39c0.57-1.01,0.38-2,0.37-2.06c-0.01-0.03-0.02-0.05-0.03-0.07c-0.02-0.05-0.03-0.1-0.06-0.14c-0.02-0.04-0.05-0.08-0.08-0.11
		c-0.03-0.04-0.07-0.07-0.11-0.1c-0.04-0.03-0.07-0.05-0.12-0.08c-0.03-0.01-0.04-0.03-0.07-0.05c-0.02-0.01-0.05-0.01-0.07-0.01
		c-0.04-0.01-0.09-0.02-0.13-0.02c-0.06-0.01-0.11-0.01-0.16,0c-0.02,0-0.04,0-0.06,0c-0.02,0-0.04,0.02-0.07,0.03
		c-0.05,0.02-0.1,0.04-0.15,0.06c-0.04,0.02-0.08,0.05-0.11,0.08c-0.04,0.03-0.07,0.06-0.1,0.1c-0.03,0.04-0.06,0.08-0.08,0.13
		c-0.01,0.02-0.03,0.04-0.04,0.06c-0.04,0.1-0.16,0.17-0.31,0.19c-0.13,0.02-0.47,0.01-0.79-0.42C11.99,9.37,12.01,8.25,12.57,7.58z
		 M26.78,10.47h-3.31c0.15-0.63,0.24-1.29,0.24-1.98c0-4.62-3.69-8.39-8.22-8.39S7.27,3.87,7.27,8.49c0,0.68,0.09,1.34,0.24,1.98
		H3.96c-0.41,0-0.75,0.34-0.75,0.75v2.99c0,0.29,0.17,0.54,0.42,0.67v14.14c0,0.41,0.34,0.75,0.75,0.75h8.44c0.01,0,0.02,0,0.02,0
		h5.06c0.01,0,0.02,0,0.02,0h8.43c0.41,0,0.75-0.34,0.75-0.75V14.87c0.25-0.12,0.42-0.37,0.42-0.67v-2.99
		C27.53,10.8,27.19,10.47,26.78,10.47z M26.03,11.97v1.49H22.1c0.01-0.01,0.01-0.02,0.02-0.03c0.14-0.19,0.26-0.39,0.38-0.59
		c0.01-0.01,0.02-0.03,0.02-0.04c0.16-0.27,0.3-0.54,0.43-0.83H26.03z M15.49,1.6c3.71,0,6.72,3.09,6.72,6.89
		c0,0.86-0.16,1.68-0.44,2.43c-0.01,0.01-0.01,0.02-0.02,0.04c-0.07,0.2-0.16,0.38-0.24,0.56c-0.28,0.59-0.65,1.15-1.13,1.67
		c-0.01,0.01-0.01,0.02-0.02,0.02c-0.13,0.15-0.27,0.28-0.41,0.41c-0.06,0.05-0.11,0.1-0.16,0.15c-0.02,0.01-0.02,0.02-0.05,0.04
		c-0.29,0.24-0.59,0.45-0.91,0.64c-0.02,0.01-0.03,0.02-0.05,0.03c-0.32,0.18-0.65,0.34-0.99,0.46c-0.02,0.01-0.04,0.02-0.07,0.03
		c-0.35,0.13-0.7,0.22-1.07,0.29c-0.01,0-0.01,0-0.02,0c-0.37,0.07-0.75,0.1-1.14,0.1c-1.55,0-3.05-0.55-4.3-1.6
		c-0.04-0.03-0.06-0.06-0.09-0.09c-0.01-0.01-0.01-0.01-0.02-0.01c-0.01-0.01-0.01-0.02-0.02-0.03c-0.16-0.13-0.3-0.27-0.45-0.45
		c-0.46-0.51-0.84-1.07-1.13-1.7c-0.08-0.17-0.16-0.35-0.22-0.53c-0.02-0.04-0.04-0.08-0.06-0.12c-0.26-0.73-0.41-1.52-0.41-2.35
		C8.77,4.69,11.78,1.6,15.49,1.6z M4.71,11.97h3.3c0.24,0.53,0.53,1.02,0.86,1.49H4.71V11.97z M17.15,28.26h-3.56v-8.24h3.56V28.26z
		 M25.61,28.26h-6.96v-8.99c0-0.41-0.34-0.75-0.75-0.75h-5.06c-0.41,0-0.75,0.34-0.75,0.75v8.99H5.13V14.95h5.12
		c1.42,1.2,3.25,1.93,5.23,1.93c0.44,0,0.87-0.05,1.3-0.11c0.06-0.01,0.11-0.02,0.17-0.03c0.17-0.03,0.33-0.07,0.5-0.11
		c0.09-0.02,0.17-0.04,0.26-0.07c0.14-0.04,0.28-0.08,0.42-0.13c0.12-0.04,0.24-0.09,0.35-0.13c0.1-0.04,0.21-0.08,0.31-0.13
		c0.16-0.07,0.32-0.15,0.48-0.24c0.06-0.03,0.12-0.06,0.17-0.09c0.2-0.11,0.4-0.24,0.6-0.37c0.02-0.01,0.04-0.02,0.05-0.03
		c0.07-0.05,0.14-0.1,0.21-0.16c0.14-0.1,0.28-0.2,0.41-0.32c0.01,0,0.01-0.01,0.02-0.01h4.88V28.26z M19.87,17.52v4.31
		c0,0.41,0.34,0.75,0.75,0.75h3.11c0.41,0,0.75-0.34,0.75-0.75v-4.31c0-0.41-0.34-0.75-0.75-0.75h-3.11
		C20.21,16.77,19.87,17.1,19.87,17.52z M21.37,18.27h1.61v2.81h-1.61V18.27z M10.13,16.77H7.01c-0.41,0-0.75,0.34-0.75,0.75v4.31
		c0,0.41,0.34,0.75,0.75,0.75h3.11c0.41,0,0.75-0.34,0.75-0.75v-4.31C10.88,17.1,10.54,16.77,10.13,16.77z M9.38,21.08H7.76v-2.81
		h1.61V21.08z"/>
</g>
</svg>
