<?xml version="1.0" encoding="utf-8"?>
<!-- Generator: Adobe Illustrator 26.1.0, SVG Export Plug-In . SVG Version: 6.00 Build 0)  -->
<svg version="1.1" xmlns="http://www.w3.org/2000/svg" xmlns:xlink="http://www.w3.org/1999/xlink" x="0px" y="0px"
	 viewBox="0 0 32 32" style="enable-background:new 0 0 32 32;" xml:space="preserve">
<style type="text/css">
	.st0{opacity:0;fill:#FFFFFF;}
	.st1{fill:#333333;}
	.st2{fill:none;stroke:#000000;stroke-width:1.4;stroke-linecap:round;stroke-linejoin:round;stroke-miterlimit:10;}
	.st3{fill:none;stroke:#000000;stroke-width:1.5;stroke-linecap:round;stroke-linejoin:round;stroke-miterlimit:10;}
	.st4{fill:#4563B7;}
	.st5{fill:none;stroke:#000000;stroke-width:1.5;stroke-linecap:round;stroke-linejoin:round;}
	.st6{fill:#458845;}
	.st7{fill:none;stroke:#333333;stroke-width:1.5;stroke-linecap:round;stroke-linejoin:round;}
	.st8{fill:#44FFE8;}
	.st9{fill-rule:evenodd;clip-rule:evenodd;fill:#333333;}
</style>
<g id="Layer_1">
</g>
<g id="Layer_2">
	<rect y="0" class="st0" width="32" height="32"/>
	<path class="st1" d="M6.95,12.45c-3.32,0-6.02,2.7-6.02,6.02c0,2.44,3.07,7.54,4.9,10.37c0.25,0.38,0.66,0.6,1.11,0.6
		s0.87-0.23,1.11-0.6c1.83-2.82,4.9-7.92,4.9-10.37C12.97,15.15,10.27,12.45,6.95,12.45z M6.95,27.79
		c-2.79-4.33-4.52-7.89-4.52-9.33c0-2.49,2.03-4.52,4.52-4.52s4.52,2.03,4.52,4.52C11.47,19.9,9.74,23.46,6.95,27.79z M6.95,15.59
		c-1.57,0-2.84,1.28-2.84,2.84c0,1.57,1.28,2.84,2.84,2.84c1.57,0,2.84-1.28,2.84-2.84C9.79,16.86,8.52,15.59,6.95,15.59z
		 M6.95,19.78c-0.74,0-1.34-0.6-1.34-1.34c0-0.74,0.6-1.34,1.34-1.34c0.74,0,1.34,0.6,1.34,1.34C8.29,19.17,7.69,19.78,6.95,19.78z
		 M26.4,2.57c-2.57,0-4.66,2.09-4.66,4.66c0,1.87,2.3,5.69,3.67,7.81c0.22,0.34,0.59,0.54,0.99,0.54h0c0.4,0,0.77-0.2,0.99-0.54
		c1.37-2.12,3.67-5.94,3.67-7.81C31.07,4.66,28.97,2.57,26.4,2.57z M26.4,13.8c-1.93-3.03-3.16-5.59-3.16-6.57
		c0-1.75,1.42-3.16,3.16-3.16s3.16,1.42,3.16,3.16C29.57,8.22,28.33,10.77,26.4,13.8z M26.4,4.9c-1.27,0-2.31,1.03-2.31,2.31
		s1.03,2.31,2.31,2.31s2.31-1.03,2.31-2.31S27.67,4.9,26.4,4.9z M26.4,8.01c-0.44,0-0.81-0.36-0.81-0.81S25.96,6.4,26.4,6.4
		s0.81,0.36,0.81,0.81S26.85,8.01,26.4,8.01z M23.73,14.82c0,0.41-0.34,0.75-0.75,0.75h-3.43l-3.12,13.28
		c-0.08,0.34-0.38,0.58-0.73,0.58h-5.24c-0.41,0-0.75-0.34-0.75-0.75s0.34-0.75,0.75-0.75h4.65l3.12-13.28
		c0.08-0.34,0.38-0.58,0.73-0.58h4.02C23.39,14.07,23.73,14.41,23.73,14.82z"/>
</g>
</svg>
