<?xml version="1.0" encoding="UTF-8"?>
<svg width="126px" height="160px" viewBox="0 0 126 160" version="1.1" xmlns="http://www.w3.org/2000/svg" xmlns:xlink="http://www.w3.org/1999/xlink">
    <title>A1 gradient</title>
    <defs>
        <linearGradient x1="-8.33208639%" y1="67.0636807%" x2="103.861039%" y2="34.5049275%" id="linearGradient-1">
            <stop stop-color="#0FB371" offset="0%"></stop>
            <stop stop-color="#2073B8" offset="35%"></stop>
            <stop stop-color="#6B5CA6" offset="49%"></stop>
            <stop stop-color="#923993" offset="64%"></stop>
            <stop stop-color="#F05636" offset="89%"></stop>
            <stop stop-color="#F05636" offset="100%"></stop>
        </linearGradient>
        <path d="M65.6335323,0 C47.8151019,0 29.4473215,4.62615789 20.9560258,8.69407111 L20.9560258,8.69407111 C13.0889017,12.224379 10.7438274,18.0092877 10.7438274,22.9951596 L10.7438274,22.9951596 C10.7438274,32.0263397 19.1947587,38.7527949 32.0660864,34.6229637 L32.0660864,34.6229637 C40.2275753,31.7246124 51.9204588,28.2257549 63.8397768,28.2257549 L63.8397768,28.2257549 C86.607279,28.2257549 96.2405926,36.6888621 96.2405926,56.473132 L96.2405926,56.473132 L96.2405926,66.0576427 C82.79038,62.8841003 72.8814071,61.1621907 59.1840855,61.1621907 L59.1840855,61.1621907 C19.7185117,61.1621907 1.21487061,82.6329885 0,106.912701 L0,106.912701 L0,112.241578 C1.17745968,137.66923 18.5499125,157.184206 52.3634829,159.643234 L52.3634829,159.643234 C54.5854951,159.86437 56.8646081,159.988206 59.1998375,160 L59.1998375,160 L59.1998375,113.793459 L44.6430491,122.048208 C41.2229029,123.924421 37.6915083,124.388314 34.051819,123.45463 L34.051819,123.45463 C30.4150831,122.517998 27.6565196,120.289933 25.7820353,116.76454 L25.7820353,116.76454 C24.895987,115.113393 24.3771565,113.405243 24.2107763,111.646969 L24.2107763,111.646969 C24.0424272,109.883781 24.2107763,108.153026 24.7069634,106.443893 L24.7069634,106.443893 C25.2031504,104.73476 26.0025628,103.138652 27.1052007,101.651638 L27.1052007,101.651638 C28.2078385,100.16364 29.5851513,98.9272464 31.2420615,97.9355758 L31.2420615,97.9355758 L65.3234154,78.7773655 C67.7442962,77.4574314 70.2281848,76.7940244 72.7672053,76.7940244 L72.7672053,76.7940244 C75.0837292,76.7940244 77.0930898,77.2677461 78.8051319,78.20143 L78.8051319,78.20143 C80.511267,79.1390452 81.9486342,80.2928819 83.1093574,81.6688371 L83.1093574,81.6688371 C84.2661426,83.0477407 85.118718,84.5848792 85.6700369,86.2940121 L85.6700369,86.2940121 C86.2213558,88.0021622 86.4970153,89.5717339 86.4970153,91.0017445 L86.4970153,91.0017445 L86.4970153,157.038748 C87.0286442,156.91786 87.5671646,156.808767 88.0938711,156.681 L88.0938711,156.681 C103.764127,153.051426 115.098653,147.198703 120.454322,143.623185 L120.454322,143.623185 C124.857982,140.638345 126,137.49527 126,132.238139 L126,132.238139 L126,56.473132 C126,17.1512814 102.943055,0 65.6335323,0 Z" id="path-2"></path>
    </defs>
    <g id="A1-gradient" stroke="none" stroke-width="1" fill="none" fill-rule="evenodd">
        <mask id="mask-3" fill="white">
            <use xlink:href="#path-2"></use>
        </mask>
        <use id="path-1" fill="url(#linearGradient-1)" fill-rule="nonzero" xlink:href="#path-2"></use>
    </g>
</svg>