<?xml version="1.0" encoding="UTF-8"?>
<svg width="73px" height="64px" viewBox="0 0 73 64" version="1.1" xmlns="http://www.w3.org/2000/svg" xmlns:xlink="http://www.w3.org/1999/xlink">
    <title>CSMIA feather</title>
    <g id="Airport-Logos" stroke="none" stroke-width="1" fill="none" fill-rule="evenodd">
        <g id="CSMIA-feather">
            <path d="M3.60195736,45.033987 C3.35978473,46.2845297 2.89369082,50.8507542 5.46587672,51.7523135 C6.24247176,52.023506 7.35569018,51.7317052 8.14106869,51.3215761 C9.3124633,50.6997017 10.8434095,49.238999 10.8434095,49.238999 C10.8462613,49.2479444 10.9182401,49.2163525 10.8115837,49.4344388 C9.86034608,51.2307634 6.40536508,54.2907657 4.15999246,54.2402639 C0.961442966,54.1671156 -0.118923021,50.3533227 0.0102052969,47.5598703 C0.238917556,42.3667891 3.61655845,35.4427186 3.61655845,35.4427186 C8.00178806,27.5550372 12.2097514,26.5921058 14.1775894,26.8321592 C16.368322,27.1178455 17.9912095,28.9540281 16.8279139,31.6505532 C16.6187078,32.0666836 16.3356977,32.441937 15.9925723,32.7584226 C15.7210835,33.1423949 12.9548629,33.9836012 12.9548629,33.9836012 C12.9548629,33.9836012 14.9490512,32.3904161 15.1920224,30.5240004 C15.3777299,29.1118745 14.5021213,28.2253752 13.3998536,28.2750844 C11.1727324,28.3867319 5.88166534,33.0312003 3.60172922,45.0342134" id="Fill-5" fill="#E3001B"></path>
            <path d="M6.50799472,45.9296582 C6.24243754,45.3332612 9.89498943,49.2110305 14.0282363,43.1466232 C18.8003946,36.1717112 19.1398697,29.0191369 20.2939256,21.8817359 C21.44262,14.7540728 23.9818394,7.03533473 29.9947475,5.77947011 C31.1907814,5.53545349 34.4275447,5.42346628 35.0218543,8.35540234 C33.6429647,7.09772599 31.6006383,6.87567653 29.9801464,7.80701605 C24.408807,10.75254 23.7360165,25.4785747 22.5775119,31.0695559 C18.9540482,48.580324 8.43328425,50.3205984 6.50799472,45.9296582" id="Fill-7" fill="#FFA600"></path>
            <path d="M54.5261848,16.9225936 C54.5169451,14.994466 53.5868105,12.8560652 50.5732841,12.7829168 C47.6295691,12.7122595 46.0257315,15.020736 46.0257315,15.020736 L41.7553714,15.1184559 C41.7553714,15.1184559 43.724236,12.4883984 47.0287574,11.6005402 C52.6847374,10.0852593 56.2427245,12.891507 56.7633443,16.0718758 C57.364156,19.720462 56.060211,24.9870313 52.3044249,29.3318858 C48.2376814,34.0165519 41.4476079,35.9608717 37.073101,34.1592252 C32.7050961,32.3494258 32.6223947,28.3625001 32.7098871,27.1750281 C32.8816779,24.7203681 35.0215349,20.3140282 40.8822723,19.129387 C46.7458614,17.9369327 52.732305,20.3140282 53.7397797,20.6328917 C54.2810463,19.4704441 54.5502538,18.2015577 54.5273255,16.9212348 M37.1515818,30.3121419 C39.508858,32.6096347 44.0951947,31.6916567 47.1590264,29.6062488 C51.2157317,26.8300078 53.0470268,22.3239098 53.0470268,22.3239098 C53.0470268,22.3239098 47.6351586,20.021095 43.2533511,20.844184 C35.7607147,22.2564231 34.2359283,27.4731699 37.1515818,30.3129345" id="Fill-9" fill="#2BB8CF"></path>
            <path d="M40.6409552,8.38412949 C26.6794692,16.5465136 32.8813928,27.919726 26.3344045,36.6829231 C25.2374983,38.1565344 22.1153763,40.9529308 22.1153763,40.9529308 C29.5070599,27.2278738 23.9076591,13.3091887 37.7506254,9.07541554 C39.9788874,8.38865881 40.640613,8.38412949 40.640613,8.38412949" id="Fill-11" fill="#95BF28"></path>
            <path d="M66.9013089,2.79289924 C58.0650308,7.34995198 50.1536399,2.40507701 41.1475101,8.0929854 C41.5523479,7.58343795 41.9933462,7.10321778 42.4671969,6.65617481 C50.5113664,-0.562753837 65.3020342,4.3623054 70.0917594,0.000126251733 C70.1344219,-0.0152734047 69.6509892,1.38066016 66.9013089,2.79210661" id="Fill-13" fill="#003F84"></path>
            <path d="M15.1777179,49.1887577 C28.4891136,35.7827906 47.2956492,51.695165 62.3931679,37.6475078 C62.3931679,37.6475078 59.7079376,41.6040872 57.6417705,43.4596325 C45.7228389,54.1880976 26.5900604,39.4391899 12.8275141,51.7422698 C12.8275141,51.7422698 14.2247691,50.149198 15.1777179,49.1887577" id="Fill-15" fill="#003F84"></path>
            <path d="M2.3362603,61.4779666 C15.8418047,44.7567705 30.9662441,57.6596444 40.6117416,49.8660595 C39.1666908,51.6169777 37.4069182,53.0865126 35.4217415,54.2000436 C24.8771367,60.0892799 13.9921443,50.4342615 0.291766628,64 C0.291766628,64 1.88647854,62.038582 2.3370588,61.4793254" id="Fill-17" fill="#003F84"></path>
            <path d="M35.9649245,37.8694893 C55.6942942,39.0368059 61.6889508,27.9454298 64.1356587,17.2612388 C67.1170171,4.20119782 73.0036486,3.07464501 73,3.00036431 C69.343568,6.55032482 67.8828895,11.9947828 66.9246935,16.6236251 C65.4921905,23.6421317 64.9597072,43.1360586 35.4201216,40.104138 C27.9693493,39.3417418 23.5976941,42.2417462 23.6069192,42.2328214 C23.629748,42.2101542 26.3867289,37.2959653 35.9626431,37.8697158" id="Fill-19" fill="#003F84"></path>
        </g>
    </g>
</svg>