<?xml version="1.0" encoding="utf-8"?>
<!-- Generator: Adobe Illustrator 26.0.3, SVG Export Plug-In . SVG Version: 6.00 Build 0)  -->
<svg version="1.1" id="Layer_1" xmlns="http://www.w3.org/2000/svg" xmlns:xlink="http://www.w3.org/1999/xlink" x="0px" y="0px"
	 viewBox="0 0 1080 1080" style="enable-background:new 0 0 1080 1080;" xml:space="preserve">
<style type="text/css">
	.st0{fill:#F16347;}
	.st1{fill:#A84D9C;}
	.st2{fill:#2A95D2;}
	.st3{fill:#4AB978;}
	.st4{fill:#D53E27;}
	.st5{fill:#983D96;}
	.st6{fill:#0074B1;}
	.st7{fill:#01984D;}
	.st8{fill:#FFFFFF;}
	.st9{fill:#E9EEF8;}
	.st10{fill:#B0C8E8;}
	.st11{fill:#7FA6D7;}
	.st12{fill:#8E388E;}
	.st13{fill:#8CEDA4;}
	.st14{fill:#FEFFFF;}
	.st15{fill:#661E66;}
	.st16{fill:#52C167;}
	.st17{fill:#F7E076;}
	.st18{fill:#702470;}
	.st19{fill:#E24333;}
	.st20{fill:#12313E;}
	.st21{fill:#FFED9F;}
	.st22{fill:#E2B90E;}
	.st23{fill:#485C6A;}
</style>
<g>
	<rect class="st0" width="1080" height="1080"/>
	<polygon class="st19" points="1022.9,0 127.2,1080 1080,1080 1080,0 	"/>
	<rect x="536.82" y="758.43" class="st20" width="13.14" height="55.63"/>
	
		<rect x="536.88" y="767.11" transform="matrix(6.123234e-17 -1 1 6.123234e-17 -268.4289 1355.2195)" class="st20" width="13.04" height="89.44"/>
	<g>
		<path class="st20" d="M585.09,837.28h-1.05c-4.45,0-8.06-3.61-8.06-8.06v-34.78c0-4.45,3.61-8.06,8.06-8.06h1.05
			c4.45,0,8.06,3.61,8.06,8.06v34.78C593.16,833.67,589.55,837.28,585.09,837.28z"/>
		<path class="st20" d="M502.75,837.28h-1.05c-4.45,0-8.06-3.61-8.06-8.06v-34.78c0-4.45,3.61-8.06,8.06-8.06h1.05
			c4.45,0,8.06,3.61,8.06,8.06v34.78C510.81,833.67,507.2,837.28,502.75,837.28z"/>
	</g>
	<path class="st20" d="M561.81,357.15h-33.14l12.36-116.11c0.36-3.34,5.2-3.4,5.63-0.07L561.81,357.15z"/>
	<path class="st20" d="M610.1,379.13v-33.14l116.11,12.36c3.34,0.36,3.4,5.2,0.07,5.63L610.1,379.13z"/>
	<path class="st20" d="M476.41,345.99v33.14L360.3,366.77c-3.34-0.36-3.4-5.2-0.07-5.63L476.41,345.99z"/>
	<polygon class="st21" points="1016.56,540.33 1040.3,506.1 1053.57,506.1 1033.66,549.24 739,552.56 716.88,523.8 727.94,492.82 	
		"/>
	<path class="st22" d="M122.2,550.08l195.75-17.47c0,0,8.84-20.63,22.85-37.83c-8.14,27.9-7.79,57.67-7.79,57.67L122.2,550.08z"/>
	<polygon class="st21" points="64.14,540.33 40.39,506.1 27.12,506.1 47.03,549.24 341.69,552.56 363.81,523.8 352.75,492.82 	"/>
	<path class="st20" d="M122.2,550.08l195.75-17.47c0,0,8.84-20.63,22.85-37.83c-8.14,27.9-7.79,57.67-7.79,57.67L122.2,550.08z"/>
	<path class="st20" d="M963.5,550.08l-195.75-17.47c0,0-8.84-20.63-22.85-37.83c8.14,27.9,7.79,57.67,7.79,57.67L963.5,550.08z"/>
	<path class="st21" d="M742.92,484.54c-2.82-11.81-7.58-23.14-14.03-33.81c-35.63-69.31-105.33-116.41-185.5-116.41
		c-79.83,0-149.29,46.7-185.05,115.55c-6.84,11.14-11.84,23.01-14.71,35.4c-7.11,22.22-10.99,46-10.99,70.74
		c0,122.44,94.35,221.69,210.74,221.69s210.74-99.25,210.74-221.69C754.14,531,750.18,506.97,742.92,484.54z"/>
	<path class="st20" d="M543.4,749.55c-111.89,0-203.4-91.74-210.31-207.61c-0.28,4.66-0.43,9.35-0.43,14.08
		c0,122.44,94.35,221.69,210.74,221.69s210.74-99.25,210.74-221.69c0-4.73-0.16-9.42-0.43-14.08
		C746.8,657.81,655.29,749.55,543.4,749.55z"/>
	<path class="st23" d="M544.49,676.03c-11.99,0-23.8-4.59-34.14-13.27c-4.18-3.5-5.72-10.31-3.36-14.88
		c1.4-2.72,3.75-4.28,6.46-4.28c1.75,0,3.46,0.66,4.96,1.91c7.95,6.67,16.97,10.2,26.08,10.2c9.11,0,18.13-3.52,26.07-10.19
		c1.5-1.25,3.22-1.91,4.97-1.91c2.71,0,5.06,1.56,6.46,4.28c2.36,4.56,0.82,11.37-3.36,14.88
		C568.29,671.44,556.48,676.03,544.49,676.03z"/>
	<path class="st23" d="M577.35,661.23c-20.34,17.07-45.37,17.07-65.71,0c-3.53-2.96-4.72-8.84-2.87-12.43l0,0
		c1.85-3.6,5.52-4.12,8.37-1.75c16.94,14.22,37.78,14.22,54.72,0c2.84-2.37,6.51-1.84,8.37,1.75l0,0
		C582.07,652.38,580.88,658.27,577.35,661.23z"/>
	<path class="st0" d="M544.49,676.03c-11.99,0-23.8-4.59-34.14-13.27c-4.18-3.5-5.72-10.31-3.36-14.88c1.4-2.72,3.75-4.28,6.46-4.28
		c1.75,0,3.46,0.66,4.96,1.91c7.95,6.67,16.97,10.2,26.08,10.2c9.11,0,18.13-3.52,26.07-10.19c1.5-1.25,3.22-1.91,4.97-1.91
		c2.71,0,5.06,1.56,6.46,4.28c2.36,4.56,0.82,11.37-3.36,14.88C568.29,671.44,556.48,676.03,544.49,676.03z"/>
	<path class="st0" d="M717.13,511.16c-1.58,15.11-5.94,40.21-6.57,42.37c-9.22,31.9-30.62,59.11-64.77,65.22
		c-41.34,7.39-69.23,1.24-98.85-28.36c0,0-5.51-5.51-13.39-0.79c-6.67,4-11.75,12.22-17.6,17.37c-8.77,7.72-19.19,11.81-30.61,14.18
		c-32.12,6.68-67.47-4.72-90.65-27.83c-21.87-21.8-27.89-52.41-24.89-82.17h-32.84c0.23-1.87,0.86-4.55,1.5-7.41
		c1.89-8.13,4.28-15.88,5.94-21.77c0.69,0,397.34-0.06,397.84,0c2.15,6.74,3.87,12.29,6.01,21.83c0.75,3.44,1.13,5.09,1.54,7.27
		C741.2,511.09,717.13,511.16,717.13,511.16z"/>
	<path class="st20" d="M570.02,506.22c-82.58-0.14-175.47-0.31-179.71-0.31c-5.11,13.29,0.3,43.33,2.39,50.02
		c6.94,22.23,28.65,38.07,50.94,42.73c14.62,3.06,30.36,2.66,44.41-2.66c14.63-5.54,28.96-16.61,37.75-29.24
		c5.2-7.48,18.4-9.13,27.09-0.85l49.47-59.63C591.92,506.26,581.07,506.24,570.02,506.22z"/>
	<path class="st23" d="M555.28,568.58c10.99,14.6,22.71,25.81,41.05,30.46c14.8,3.75,30.86,2.87,45.34-1.84
		c1.08-0.35,2.14-0.77,3.21-1.16c12.33-4.6,23.89-12.39,30.64-23.87c6.72-11.42,12.14-23.23,14.12-36.14
		c1.03-6.68,1.69-19.53,0.02-29.65c-14.72,0-48.04-0.04-87.3-0.11l-49.47,59.63C553.73,566.71,554.54,567.59,555.28,568.58z"/>
	<path class="st19" d="M393.03,222.89c-1.27,0-2.48,0.21-3.7,0.37c-6.32-5.54-14.5-9.01-23.57-9.01c-10,0-18.96,4.13-25.44,10.75
		c-3.34,3.41-9.86,7.66-13.84,10.29c-0.76,0.5-1.48,1.06-2.15,1.67c-5.11,4.62-1.37,13.21,5.51,13.21l0,0h24.53h11.38h35.91l0,0
		c11.91,0,16.86-15.33,7.16-22.24C404.37,224.75,398.92,222.89,393.03,222.89z"/>
	<path class="st19" d="M231.93,250.18c1.87,0,3.66,0.3,5.46,0.55c9.31-8.17,21.38-13.29,34.74-13.29c14.73,0,27.95,6.09,37.49,15.84
		c4.92,5.03,14.53,11.28,20.4,15.17c1.12,0.74,2.18,1.56,3.17,2.46c7.52,6.81,2.02,19.47-8.13,19.47l0,0H288.9h-16.77H219.2l0,0
		c-17.55,0-24.84-22.6-10.55-32.77C215.22,252.93,223.25,250.18,231.93,250.18z"/>
	<path class="st0" d="M845.18,373.4c2.71,0,5.31,0.44,7.92,0.8c13.52-11.86,31.03-19.28,50.43-19.28c21.39,0,40.57,8.84,54.42,22.99
		c7.14,7.3,21.09,16.38,29.61,22.01c1.63,1.07,3.16,2.27,4.6,3.57c10.92,9.88,2.93,28.26-11.8,28.26l0,0h-52.49h-24.35h-76.83l0,0
		c-25.47,0-36.06-32.8-15.31-47.57C820.92,377.39,832.58,373.4,845.18,373.4z"/>
</g>
</svg>
