<svg xmlns="http://www.w3.org/2000/svg" width="67.906" height="87.651" viewBox="0 0 67.906 87.651">
  <g id="Layer_1" transform="translate(-2.75 -0.51)">
    <g id="Group_1008" data-name="Group 1008" transform="translate(4.75 2.51)">
      <path id="Path_1098" data-name="Path 1098" d="M54.1,2.51S51.194,32.524,34.931,47.421a7.171,7.171,0,0,1-9.079,0C9.589,32.524,6.68,2.51,6.68,2.51Z" transform="translate(1.826 -2.51)" fill="none" stroke="#555" stroke-linecap="round" stroke-linejoin="round" stroke-width="4"/>
      <line id="Line_16" data-name="Line 16" y2="20.274" transform="translate(32.218 46.542)" fill="none" stroke="#555" stroke-linecap="round" stroke-linejoin="round" stroke-width="4"/>
      <path id="Path_1099" data-name="Path 1099" d="M45.459,25.329H11.17a3.555,3.555,0,0,1-3.57-3.57V21.23a3.555,3.555,0,0,1,3.57-3.57H45.459a3.555,3.555,0,0,1,3.57,3.57v.529A3.555,3.555,0,0,1,45.459,25.329Z" transform="translate(4.961 49.111)" fill="none" stroke="#555" stroke-linecap="round" stroke-linejoin="round" stroke-width="4"/>
      <path id="Path_1100" data-name="Path 1100" d="M57.257,28.645H10.275A4.289,4.289,0,0,1,6,24.326v-.617a4.326,4.326,0,0,1,4.319-4.319H57.3a4.326,4.326,0,0,1,4.319,4.319v.617A4.393,4.393,0,0,1,57.257,28.645Z" transform="translate(-0.491 55.006)" fill="none" stroke="#555" stroke-linecap="round" stroke-linejoin="round" stroke-width="4"/>
      <path id="Path_1101" data-name="Path 1101" d="M19.692,4.12l3.041,6.17L29.565,11.3l-4.936,4.8L25.775,22.9l-6.082-3.217L13.61,22.9l1.146-6.787L9.82,11.3l6.831-1.014Z" transform="translate(12.525 2.976)" fill="none" stroke="#555" stroke-linecap="round" stroke-linejoin="round" stroke-width="4"/>
      <path id="Path_1102" data-name="Path 1102" d="M24.442,4.3H33.7S31.626,24.442,15.01,30.568" transform="translate(30.209 3.589)" fill="none" stroke="#555" stroke-linecap="round" stroke-linejoin="round" stroke-width="4"/>
      <path id="Path_1103" data-name="Path 1103" d="M14.005,4.3H4.75S6.821,24.442,23.437,30.568" transform="translate(-4.75 3.589)" fill="none" stroke="#555" stroke-linecap="round" stroke-linejoin="round" stroke-width="4"/>
    </g>
  </g>
</svg>
