<svg xmlns="http://www.w3.org/2000/svg" width="66.037" height="88.706" viewBox="0 0 66.037 88.706">
  <g id="Layer_2" transform="translate(-2.78 -0.23)">
    <g id="Group_1018" data-name="Group 1018" transform="translate(4.78 2.23)">
      <path id="Path_1109" data-name="Path 1109" d="M61.318,64.964H10.279a5.51,5.51,0,0,1-5.5-5.5V19.553A15.438,15.438,0,0,1,20.2,4.13H51.351A15.438,15.438,0,0,1,66.774,19.553V59.465A5.419,5.419,0,0,1,61.318,64.964Z" transform="translate(-4.78 4.033)" fill="none" stroke="#555" stroke-linecap="round" stroke-linejoin="round" stroke-width="4"/>
      <path id="Path_1110" data-name="Path 1110" d="M42.6,23.407H11.663A4.263,4.263,0,0,1,7.41,19.154V10.733A4.263,4.263,0,0,1,11.663,6.48H42.639a4.263,4.263,0,0,1,4.253,4.253v8.421A4.3,4.3,0,0,1,42.6,23.407Z" transform="translate(3.889 11.779)" fill="none" stroke="#555" stroke-linecap="round" stroke-linejoin="round" stroke-width="4"/>
      <g id="Group_1016" data-name="Group 1016" transform="translate(9.194 49.707)">
        <circle id="Ellipse_4" data-name="Ellipse 4" cx="4.511" cy="4.511" r="4.511" fill="none" stroke="#555" stroke-linecap="round" stroke-linejoin="round" stroke-width="4"/>
        <circle id="Ellipse_5" data-name="Ellipse 5" cx="4.511" cy="4.511" r="4.511" transform="translate(34.627)" fill="none" stroke="#555" stroke-linecap="round" stroke-linejoin="round" stroke-width="4"/>
      </g>
      <line id="Line_21" data-name="Line 21" x2="7.733" transform="translate(27.753 52.413)" fill="none" stroke="#555" stroke-linecap="round" stroke-linejoin="round" stroke-width="4"/>
      <line id="Line_22" data-name="Line 22" x2="16.712" transform="translate(23.242)" fill="none" stroke="#555" stroke-linecap="round" stroke-linejoin="round" stroke-width="4"/>
      <line id="Line_23" data-name="Line 23" y2="6.616" transform="translate(31.62 1.547)" fill="none" stroke="#555" stroke-linecap="round" stroke-linejoin="round" stroke-width="4"/>
      <line id="Line_24" data-name="Line 24" x2="7.733" transform="translate(27.753 61.392)" fill="none" stroke="#555" stroke-linecap="round" stroke-linejoin="round" stroke-width="4"/>
      <g id="Group_1017" data-name="Group 1017" transform="translate(7.389 70.543)">
        <line id="Line_25" data-name="Line 25" x1="8.463" y2="13.404" fill="none" stroke="#555" stroke-linecap="round" stroke-linejoin="round" stroke-width="4"/>
        <line id="Line_26" data-name="Line 26" x2="8.463" y2="13.404" transform="translate(38.794)" fill="none" stroke="#555" stroke-linecap="round" stroke-linejoin="round" stroke-width="4"/>
      </g>
      <line id="Line_27" data-name="Line 27" x2="62.037" transform="translate(0 78.362)" fill="none" stroke="#555" stroke-linecap="round" stroke-linejoin="round" stroke-width="4"/>
    </g>
  </g>
</svg>
