<svg xmlns="http://www.w3.org/2000/svg" width="74.905" height="75.654" viewBox="0 0 74.905 75.654">
  <g id="Layer_1" transform="translate(-4.595 -1.98)">
    <path id="Path_1120" data-name="Path 1120" d="M64.726,3.6A2.482,2.482,0,0,0,62.2,1.98H21.793a2.348,2.348,0,0,0-2.475,1.586L4.62,75.481a1.57,1.57,0,0,0,.606,1.511,2.869,2.869,0,0,0,1.919.642h69.8a2.964,2.964,0,0,0,1.919-.642,1.57,1.57,0,0,0,.606-1.511ZM44.371,73.895a1.376,1.376,0,0,0,.152-.642V62.488c0-1.058-1.111-1.889-2.525-1.889s-2.525.831-2.525,1.889V73.215a1.376,1.376,0,0,0,.152.642h-29.6l13.941-68.1H60.079l13.89,68.1h-29.6Zm.152-64.247V20.374c0,1.058-1.111,1.889-2.525,1.889s-2.525-.831-2.525-1.889V9.647c0-1.058,1.111-1.889,2.525-1.889S44.523,8.628,44.523,9.647Zm0,17.639V38.013c0,1.058-1.111,1.889-2.525,1.889s-2.525-.831-2.525-1.889V27.286c0-1.058,1.111-1.889,2.525-1.889S44.523,26.229,44.523,27.286Zm0,17.6V55.614c0,1.058-1.111,1.889-2.525,1.889s-2.525-.831-2.525-1.889V44.887C39.472,43.83,40.583,43,42,43S44.523,43.83,44.523,44.887Z" transform="translate(0 0)" fill="#555"/>
  </g>
</svg>
