<svg xmlns="http://www.w3.org/2000/svg" width="75.545" height="75.822" viewBox="0 0 75.545 75.822">
  <g id="Layer_2" transform="translate(-2.44 -2.41)">
    <path id="Path_1104" data-name="Path 1104" d="M76.01,74.281H70.478v-32.2h2.963A1.956,1.956,0,0,0,75.417,40.1V32.4a1.956,1.956,0,0,0-1.976-1.976H70.4A29.923,29.923,0,0,0,24.25,7.23c-.04-.04-.079,0-.158,0a.085.085,0,0,1-.079.079A29.966,29.966,0,0,0,10.579,30.423h-3.6A1.956,1.956,0,0,0,5.008,32.4v7.7a1.956,1.956,0,0,0,1.976,1.976H10.5v32.2H4.416a1.976,1.976,0,1,0,0,3.951H76.01a1.976,1.976,0,1,0,0-3.951ZM66.487,30.423H44.124L56.175,11.616A26.071,26.071,0,0,1,66.487,30.423Zm-26-24.1A25.946,25.946,0,0,1,52.817,9.443L40.331,28.922,27.964,9.562A25.8,25.8,0,0,1,40.489,6.322ZM24.645,11.735,36.617,30.423H14.491A26.015,26.015,0,0,1,24.645,11.735ZM8.959,34.374H71.505v3.754H8.959Zm5.453,7.7H38.593a1.169,1.169,0,0,0-.079.4V74.281h-24.1Zm28.053,32.2V42.474a1.4,1.4,0,0,0-.079-.4H66.566v32.2ZM50.6,54.565v7.191a1.976,1.976,0,0,1-3.951,0V54.565a1.956,1.956,0,0,1,1.976-1.976A1.981,1.981,0,0,1,50.6,54.565Zm-16.318,0v7.191a1.976,1.976,0,0,1-3.951,0V54.565a1.956,1.956,0,0,1,1.976-1.976A1.981,1.981,0,0,1,34.286,54.565Z" transform="translate(0 0)" fill="#555"/>
  </g>
</svg>
