<?xml version="1.0" encoding="UTF-8"?>
<svg width="17px" height="17px" viewBox="0 0 17 17" version="1.1" xmlns="http://www.w3.org/2000/svg" xmlns:xlink="http://www.w3.org/1999/xlink">
    <title>D168172B-39B5-4307-A1BB-9EA552A6C963</title>
    <g id="Shop" stroke="none" stroke-width="1" fill="none" fill-rule="evenodd">
        <g id="1---Shop---Desktop" transform="translate(-984.000000, -505.000000)" fill="#8E8E93">
            <g id="Group-29" transform="translate(25.000000, 492.000000)">
                <g id="Group-4" transform="translate(940.000000, 0.000000)">
                    <path d="M35.6881988,28.2692394 L31.0337983,23.6128342 C31.8681062,22.4748761 32.3150417,21.0991119 32.3088102,19.6880718 C32.2928911,16.0047887 29.3138947,13.0213414 25.6307838,13.0000677 C23.8682076,12.9920927 22.175649,13.6893985 20.9301623,14.936645 C19.6846756,16.1838915 18.9897211,17.8774721 19.0001149,19.6401051 C19.016034,23.3237235 21.9953022,26.3074426 25.6787485,26.3287164 C27.0954812,26.3348569 28.4762174,25.8826869 29.6148923,25.0396894 L29.6197495,25.0360463 L34.2698999,29.6888085 C34.5213187,29.9525806 34.8959499,30.0593493 35.2486414,29.9677468 C35.6013329,29.8761443 35.8766666,29.600564 35.9679636,29.2477804 C36.0592606,28.8949967 35.9521755,28.5204423 35.6881988,28.2692394 L35.6881988,28.2692394 Z M25.6738913,24.9953658 C22.7272953,24.9784148 20.3439195,22.5916949 20.3309845,19.6449625 C20.3230315,18.2350387 20.8790409,16.8804463 21.8752427,15.8827228 C22.8714444,14.8849993 24.2251553,14.3269544 25.6350338,14.3328111 C28.5816299,14.3497621 30.9650057,16.736482 30.9779407,19.6832144 C30.9858936,21.0931382 30.4298842,22.4477306 29.4336825,23.4454541 C28.4374807,24.4431776 27.0837698,25.0012225 25.6738913,24.9953658 Z" id="Search"></path>
                </g>
            </g>
        </g>
    </g>
</svg>