<?xml version="1.0" encoding="utf-8"?>
<!-- Generator: Adobe Illustrator 26.0.0, SVG Export Plug-In . SVG Version: 6.00 Build 0)  -->
<svg version="1.1" id="Layer_1" xmlns="http://www.w3.org/2000/svg" xmlns:xlink="http://www.w3.org/1999/xlink" x="0px" y="0px"
	 viewBox="0 0 217.82 46.14" style="enable-background:new 0 0 217.82 46.14;" xml:space="preserve">
<style type="text/css">
	.st0{opacity:0;fill:#FFFFFF;}
	.st1{fill:#FFFFFF;}
	.st2{fill:#C7B299;}
	.st3{fill:#FF0000;}
	.st4{fill:#00FF00;}
	.st5{fill:none;stroke:#000000;stroke-linecap:round;stroke-linejoin:round;stroke-miterlimit:10;}
	.st6{fill:none;stroke:#000000;stroke-linejoin:round;stroke-miterlimit:10;}
	.st7{fill:none;stroke:#000000;stroke-linecap:round;stroke-linejoin:round;}
	.st8{fill:none;stroke:#000000;stroke-linejoin:round;}
	.st9{fill:none;stroke:#231F20;stroke-linejoin:round;stroke-miterlimit:10;}
	.st10{fill:none;stroke:#231F20;stroke-linecap:round;stroke-linejoin:round;stroke-miterlimit:10;}
	.st11{fill:none;stroke:#000000;stroke-width:0.75;stroke-linecap:round;stroke-linejoin:round;stroke-miterlimit:10;}
	.st12{fill:none;stroke:#000000;stroke-linecap:round;stroke-miterlimit:10;}
	.st13{fill:none;stroke:#241F20;stroke-linecap:round;stroke-linejoin:round;stroke-miterlimit:10;}
	.st14{fill:none;stroke:#221F20;stroke-linecap:round;stroke-linejoin:round;stroke-miterlimit:10;}
	.st15{fill:#231F20;}
	.st16{fill:#00B921;}
	.st17{fill:#FFFFFF;stroke:#EFEFEF;stroke-width:0.25;stroke-miterlimit:10;}
	.st18{fill:#4BCA59;}
	.st19{fill-rule:evenodd;clip-rule:evenodd;fill:#FFFFFF;}
	.st20{fill:none;stroke:#020202;stroke-miterlimit:10;}
	.st21{fill:none;stroke:#000000;stroke-miterlimit:10;}
	.st22{fill:none;stroke:#000000;stroke-width:0.95;stroke-linecap:round;stroke-linejoin:round;stroke-miterlimit:10;}
	.st23{fill:none;stroke:#000000;stroke-linecap:round;stroke-linejoin:round;stroke-miterlimit:10;stroke-dasharray:2;}
	.st24{fill:none;stroke:#000000;stroke-width:0.93;stroke-linecap:round;stroke-linejoin:round;stroke-miterlimit:10;}
	.st25{fill:#020202;}
	.st26{fill:none;stroke:#020202;stroke-width:0.5;stroke-linecap:round;stroke-linejoin:round;stroke-miterlimit:10;}
	.st27{fill:none;stroke:#020202;stroke-linecap:round;stroke-linejoin:round;stroke-miterlimit:10;}
	.st28{fill:#FF6000;}
	.st29{fill:none;stroke:#000000;stroke-width:0.9;stroke-linecap:round;stroke-linejoin:round;stroke-miterlimit:10;}
	.st30{enable-background:new    ;}
	.st31{fill:#010101;}
	.st32{fill:none;stroke:#000000;stroke-width:1.3;stroke-linecap:round;stroke-linejoin:round;stroke-miterlimit:10;}
	.st33{fill:none;stroke:#000000;stroke-width:1.2;stroke-linecap:round;stroke-linejoin:round;stroke-miterlimit:10;}
	.st34{fill:none;stroke:#000000;stroke-width:1.3;stroke-miterlimit:10;}
	
		.st35{fill-rule:evenodd;clip-rule:evenodd;fill:none;stroke:#000000;stroke-width:1.3;stroke-linecap:round;stroke-linejoin:round;stroke-miterlimit:10;}
	.st36{fill:none;stroke:#000000;stroke-width:1.5;stroke-linecap:round;stroke-linejoin:round;stroke-miterlimit:10;}
	.st37{fill:none;stroke:#000000;stroke-width:1.3;stroke-linejoin:round;stroke-miterlimit:10;}
	.st38{fill:none;stroke:#000000;stroke-width:1.3;stroke-linecap:round;stroke-miterlimit:10;}
	.st39{fill:none;stroke:#000000;stroke-width:1.5;stroke-linejoin:round;stroke-miterlimit:10;}
	.st40{fill:none;stroke:#000000;stroke-width:1.7;stroke-linecap:round;stroke-linejoin:round;stroke-miterlimit:10;}
	
		.st41{fill-rule:evenodd;clip-rule:evenodd;fill:none;stroke:#000000;stroke-width:1.5;stroke-linecap:round;stroke-linejoin:round;stroke-miterlimit:10;}
	
		.st42{fill-rule:evenodd;clip-rule:evenodd;fill:none;stroke:#000000;stroke-linecap:round;stroke-linejoin:round;stroke-miterlimit:10;}
	.st43{fill:none;stroke:#000000;stroke-width:1.8;stroke-linecap:round;stroke-linejoin:round;stroke-miterlimit:10;}
	
		.st44{fill-rule:evenodd;clip-rule:evenodd;fill:none;stroke:#000000;stroke-width:1.8;stroke-linecap:round;stroke-linejoin:round;stroke-miterlimit:10;}
	
		.st45{fill-rule:evenodd;clip-rule:evenodd;fill:none;stroke:#000000;stroke-width:1.7;stroke-linecap:round;stroke-linejoin:round;stroke-miterlimit:10;}
	.st46{fill:#FF8BB3;}
</style>
<g id="Group_Copy_4" transform="translate(479)">
	<g class="st30">
		<path class="st31" d="M-478.39,11.67c-0.02-0.06-0.04-0.13-0.06-0.2s-0.03-0.14-0.03-0.22c0-0.22,0.08-0.42,0.23-0.58
			c0.15-0.17,0.34-0.25,0.57-0.25c0.18,0,0.34,0.05,0.46,0.14c0.13,0.09,0.24,0.2,0.32,0.33c0.17,0.31,0.39,0.55,0.66,0.73
			c0.27,0.18,0.58,0.26,0.94,0.26c0.22,0,0.44-0.04,0.64-0.12c0.2-0.08,0.38-0.2,0.54-0.36s0.29-0.36,0.38-0.61
			c0.09-0.25,0.14-0.53,0.14-0.87v-7c0-0.25,0.08-0.45,0.26-0.62c0.17-0.17,0.37-0.26,0.61-0.26c0.25,0,0.45,0.08,0.62,0.26
			c0.17,0.17,0.25,0.38,0.25,0.62v7.01c0,0.53-0.09,1.02-0.27,1.46s-0.43,0.81-0.74,1.13c-0.31,0.32-0.68,0.56-1.1,0.74
			s-0.86,0.26-1.33,0.26c-0.7,0-1.33-0.17-1.86-0.51C-477.72,12.66-478.13,12.21-478.39,11.67z"/>
		<path class="st31" d="M-462.74,11.98c0,0.15-0.02,0.27-0.06,0.36c-0.04,0.09-0.12,0.18-0.24,0.26c-0.12,0.08-0.28,0.16-0.48,0.26
			c-0.2,0.1-0.45,0.2-0.73,0.3c-0.28,0.1-0.6,0.18-0.96,0.24c-0.36,0.06-0.74,0.1-1.16,0.1c-0.54,0-1.02-0.07-1.43-0.21
			c-0.41-0.14-0.75-0.33-1.02-0.58c-0.27-0.25-0.48-0.54-0.62-0.88s-0.21-0.7-0.21-1.1c0-0.35,0.06-0.69,0.19-1.01
			c0.13-0.32,0.33-0.6,0.59-0.85s0.6-0.44,1.01-0.58c0.41-0.14,0.89-0.22,1.46-0.22c0.37,0,0.71,0.02,1.02,0.07
			c0.3,0.05,0.64,0.12,1.02,0.2V7.82c0-0.54-0.14-0.94-0.42-1.18s-0.73-0.37-1.36-0.37c-0.33,0-0.65,0.04-0.95,0.11
			c-0.3,0.08-0.57,0.15-0.79,0.24c-0.35,0.12-0.63,0.1-0.85-0.05c-0.21-0.15-0.32-0.35-0.32-0.59c0-0.14,0.04-0.28,0.12-0.42
			c0.08-0.14,0.23-0.26,0.44-0.36c0.23-0.12,0.58-0.23,1.03-0.33c0.45-0.1,0.93-0.15,1.42-0.15c1.02,0,1.83,0.25,2.42,0.74
			c0.59,0.5,0.89,1.28,0.89,2.36V11.98z M-466.23,12.01c0.55,0,0.98-0.07,1.28-0.2c0.3-0.13,0.49-0.23,0.58-0.3V9.74
			c-0.35-0.09-0.67-0.15-0.96-0.2s-0.61-0.07-0.98-0.07c-0.49,0-0.89,0.1-1.21,0.31s-0.47,0.5-0.47,0.89c0,0.44,0.15,0.77,0.45,1
			C-467.25,11.9-466.81,12.01-466.23,12.01z"/>
		<path class="st31" d="M-458.38,2.75c0,0.27-0.09,0.5-0.27,0.69c-0.18,0.19-0.41,0.29-0.67,0.29c-0.28,0-0.51-0.1-0.69-0.29
			c-0.18-0.19-0.27-0.42-0.27-0.69s0.09-0.49,0.27-0.67c0.18-0.18,0.41-0.27,0.69-0.27c0.27,0,0.49,0.09,0.67,0.27
			S-458.38,2.48-458.38,2.75z M-459.32,4.83c0.23,0,0.43,0.08,0.6,0.25c0.17,0.17,0.25,0.37,0.25,0.62v6.85
			c0,0.25-0.08,0.45-0.24,0.62c-0.16,0.17-0.36,0.25-0.61,0.25c-0.22,0-0.42-0.08-0.59-0.25c-0.17-0.17-0.26-0.37-0.26-0.62V5.69
			c0-0.25,0.08-0.45,0.24-0.62C-459.77,4.91-459.56,4.83-459.32,4.83z"/>
		<path class="st31" d="M-448.55,10.25c-0.08,1-0.43,1.79-1.03,2.38c-0.6,0.58-1.44,0.87-2.5,0.87c-0.36,0-0.72-0.05-1.08-0.15
			c-0.36-0.1-0.66-0.21-0.92-0.33v2.61c0,0.25-0.08,0.45-0.25,0.62c-0.17,0.17-0.37,0.25-0.6,0.25c-0.25,0-0.45-0.08-0.61-0.25
			c-0.16-0.17-0.24-0.37-0.24-0.62V6.23c0-0.11,0.02-0.2,0.05-0.26s0.1-0.14,0.21-0.22c0.11-0.07,0.27-0.17,0.49-0.3
			c0.22-0.12,0.47-0.24,0.77-0.34s0.62-0.2,0.98-0.28c0.36-0.08,0.74-0.12,1.14-0.12c0.53,0,1.01,0.08,1.44,0.23
			c0.43,0.15,0.79,0.38,1.1,0.66c0.3,0.29,0.55,0.63,0.73,1.04c0.18,0.41,0.29,0.85,0.34,1.34c0.01,0.14,0.02,0.31,0.02,0.5
			c0,0.2,0.01,0.4,0.01,0.62c0,0.21,0,0.42-0.01,0.62C-448.53,9.94-448.54,10.11-448.55,10.25z M-450.25,8.22
			c-0.05-0.61-0.24-1.07-0.55-1.39c-0.31-0.32-0.78-0.48-1.38-0.48c-0.18,0-0.37,0.02-0.55,0.06c-0.19,0.04-0.37,0.08-0.54,0.14
			s-0.34,0.12-0.48,0.19c-0.14,0.07-0.25,0.14-0.33,0.2v4.4c0.15,0.11,0.4,0.22,0.75,0.34c0.35,0.12,0.72,0.18,1.12,0.18
			c0.65,0,1.13-0.16,1.44-0.46c0.31-0.31,0.49-0.75,0.53-1.33c0.01-0.11,0.02-0.24,0.02-0.4s0-0.33,0-0.5s0-0.35,0-0.51
			C-450.23,8.49-450.24,8.35-450.25,8.22z"/>
		<path class="st31" d="M-446.3,5.72c0-0.26,0.07-0.47,0.22-0.64s0.35-0.26,0.61-0.26c0.25,0,0.45,0.08,0.62,0.26
			c0.17,0.17,0.25,0.38,0.25,0.64v4.35c0,0.55,0.17,0.99,0.5,1.31s0.78,0.48,1.36,0.48c0.44,0,0.81-0.06,1.12-0.17
			c0.31-0.11,0.57-0.23,0.78-0.36V5.71c0-0.25,0.08-0.45,0.24-0.62s0.36-0.26,0.61-0.26c0.23,0,0.43,0.08,0.6,0.26
			s0.25,0.38,0.25,0.62v6.19c0,0.15-0.02,0.27-0.07,0.37c-0.05,0.1-0.13,0.19-0.25,0.27c-0.12,0.08-0.28,0.18-0.48,0.3
			c-0.2,0.11-0.44,0.22-0.72,0.31c-0.28,0.1-0.59,0.18-0.94,0.25c-0.35,0.07-0.74,0.1-1.15,0.1c-1.09,0-1.95-0.29-2.58-0.88
			s-0.95-1.43-0.95-2.53V5.72z"/>
		<path class="st31" d="M-432.49,4.89c0.25,0.08,0.42,0.18,0.51,0.31c0.1,0.13,0.14,0.3,0.14,0.49c0,0.18-0.06,0.36-0.19,0.54
			c-0.13,0.18-0.33,0.26-0.61,0.26c-0.15,0-0.32-0.03-0.51-0.08c-0.19-0.05-0.42-0.08-0.69-0.06c-0.37,0.01-0.65,0.12-0.83,0.31
			c-0.18,0.2-0.27,0.52-0.27,0.97v4.93c0,0.25-0.08,0.45-0.25,0.61s-0.37,0.24-0.62,0.24c-0.22,0-0.42-0.08-0.58-0.24
			c-0.17-0.16-0.25-0.36-0.25-0.61v-5.2c0-0.81,0.23-1.45,0.69-1.93c0.46-0.47,1.12-0.71,2-0.71c0.28,0,0.55,0.02,0.81,0.05
			C-432.87,4.79-432.66,4.84-432.49,4.89z"/>
	</g>
	<g class="st30">
		<path class="st31" d="M-477.9,21.05c0-0.12,0.04-0.23,0.13-0.32s0.19-0.14,0.32-0.14c0.13,0,0.24,0.05,0.32,0.14
			c0.08,0.09,0.13,0.2,0.13,0.32v6.88c0,0.12-0.04,0.23-0.13,0.32c-0.08,0.09-0.19,0.14-0.32,0.14c-0.12,0-0.23-0.05-0.32-0.14
			s-0.13-0.2-0.13-0.32V21.05z"/>
		<path class="st31" d="M-469.42,27.27h0.02c-0.01-0.22-0.02-0.46-0.03-0.71s-0.02-0.56-0.02-0.93v-4.59c0-0.12,0.04-0.23,0.13-0.32
			s0.19-0.14,0.32-0.14c0.13,0,0.24,0.05,0.32,0.14s0.13,0.2,0.13,0.32v6.54c0,0.21-0.07,0.39-0.2,0.54s-0.31,0.23-0.52,0.23
			c-0.32,0-0.56-0.14-0.73-0.41l-3.91-6.33h-0.02c0.01,0.23,0.01,0.48,0.02,0.76c0.01,0.28,0.01,0.59,0.01,0.95v4.59
			c0,0.13-0.04,0.24-0.13,0.33c-0.08,0.09-0.19,0.13-0.33,0.13c-0.12,0-0.23-0.05-0.32-0.14s-0.13-0.2-0.13-0.32V21.4
			c0-0.23,0.07-0.42,0.21-0.57c0.14-0.15,0.33-0.23,0.56-0.23c0.15,0,0.28,0.03,0.41,0.09c0.13,0.06,0.24,0.17,0.33,0.33
			L-469.42,27.27z"/>
		<path class="st31" d="M-464.57,21.5h-2.2c-0.12,0-0.23-0.04-0.32-0.12s-0.14-0.18-0.14-0.31c0-0.13,0.05-0.24,0.14-0.32
			s0.2-0.12,0.32-0.12h5.28c0.12,0,0.23,0.04,0.32,0.12c0.09,0.08,0.13,0.19,0.13,0.32c0,0.12-0.04,0.23-0.13,0.31
			c-0.09,0.08-0.19,0.12-0.32,0.12h-2.18v6.42c0,0.12-0.04,0.23-0.13,0.32s-0.19,0.14-0.32,0.14c-0.12,0-0.23-0.05-0.32-0.14
			s-0.13-0.2-0.13-0.32V21.5z"/>
		<path class="st31" d="M-455.16,20.63c0.12,0,0.23,0.04,0.32,0.13c0.09,0.08,0.13,0.19,0.13,0.31c0,0.12-0.05,0.23-0.14,0.31
			s-0.2,0.12-0.31,0.12h-3.66v2.52h3.56c0.12,0,0.23,0.04,0.31,0.12c0.08,0.08,0.13,0.19,0.13,0.31c0,0.12-0.04,0.22-0.13,0.31
			s-0.19,0.13-0.31,0.13h-3.56v2.58h3.68c0.12,0,0.22,0.04,0.31,0.12c0.09,0.08,0.14,0.18,0.14,0.31c0,0.12-0.04,0.23-0.13,0.31
			c-0.09,0.08-0.19,0.13-0.32,0.13h-3.82c-0.25,0-0.44-0.07-0.57-0.22s-0.2-0.32-0.2-0.53v-6.21c0-0.21,0.07-0.39,0.2-0.53
			c0.13-0.14,0.32-0.21,0.57-0.21H-455.16z"/>
		<path class="st31" d="M-447.15,27.91c0,0.12-0.05,0.23-0.14,0.33c-0.09,0.09-0.2,0.14-0.32,0.14c-0.13,0-0.24-0.05-0.33-0.15
			l-2.06-2.55c-0.09-0.11-0.17-0.2-0.26-0.26c-0.08-0.06-0.2-0.09-0.36-0.09h-1.33v2.6c0,0.12-0.04,0.23-0.13,0.32
			s-0.19,0.14-0.32,0.14s-0.23-0.05-0.32-0.14s-0.13-0.2-0.13-0.32v-6.56c0-0.21,0.06-0.38,0.19-0.52c0.13-0.14,0.31-0.21,0.55-0.21
			h2.24c0.34,0,0.66,0.05,0.96,0.15s0.56,0.25,0.79,0.45c0.23,0.2,0.41,0.45,0.54,0.74s0.2,0.64,0.2,1.02
			c0,0.33-0.04,0.62-0.14,0.87c-0.09,0.25-0.22,0.46-0.38,0.64c-0.17,0.18-0.36,0.32-0.59,0.43c-0.23,0.11-0.48,0.19-0.75,0.23
			l2,2.47C-447.19,27.72-447.15,27.81-447.15,27.91z M-449.97,24.46c0.31,0,0.57-0.04,0.79-0.1c0.22-0.07,0.39-0.17,0.52-0.3
			c0.13-0.13,0.23-0.29,0.29-0.47c0.06-0.18,0.09-0.38,0.09-0.6c0-0.46-0.13-0.82-0.4-1.09c-0.26-0.27-0.67-0.4-1.23-0.4h-2.04v2.96
			H-449.97z"/>
		<path class="st31" d="M-440.03,27.27h0.02c-0.01-0.22-0.02-0.46-0.03-0.71c-0.01-0.25-0.02-0.56-0.02-0.93v-4.59
			c0-0.12,0.04-0.23,0.13-0.32s0.19-0.14,0.32-0.14c0.13,0,0.24,0.05,0.33,0.14c0.08,0.09,0.13,0.2,0.13,0.32v6.54
			c0,0.21-0.07,0.39-0.2,0.54s-0.31,0.23-0.52,0.23c-0.32,0-0.56-0.14-0.73-0.41l-3.9-6.33h-0.02c0.01,0.23,0.01,0.48,0.02,0.76
			c0.01,0.28,0.01,0.59,0.01,0.95v4.59c0,0.13-0.04,0.24-0.13,0.33c-0.08,0.09-0.19,0.13-0.32,0.13c-0.12,0-0.23-0.05-0.32-0.14
			s-0.13-0.2-0.13-0.32V21.4c0-0.23,0.07-0.42,0.21-0.57c0.14-0.15,0.33-0.23,0.56-0.23c0.15,0,0.28,0.03,0.41,0.09
			s0.24,0.17,0.34,0.33L-440.03,27.27z"/>
		<path class="st31" d="M-430.89,27.89c0,0.12-0.04,0.22-0.11,0.32s-0.18,0.14-0.33,0.14c-0.1,0-0.18-0.03-0.26-0.08
			c-0.08-0.05-0.13-0.12-0.17-0.21l-0.81-2.3h-3.51l-0.81,2.3c-0.04,0.09-0.09,0.16-0.17,0.21c-0.08,0.05-0.16,0.08-0.26,0.08
			c-0.15,0-0.26-0.05-0.33-0.14s-0.11-0.2-0.11-0.32c0-0.07,0.01-0.12,0.02-0.15l2.29-6.38c0.1-0.29,0.25-0.5,0.46-0.63
			c0.2-0.14,0.43-0.2,0.68-0.2s0.47,0.07,0.67,0.2s0.35,0.35,0.45,0.63l2.29,6.38C-430.89,27.76-430.89,27.81-430.89,27.89z
			 M-435.77,24.89h2.89l-1.16-3.29c-0.05-0.15-0.15-0.22-0.29-0.22s-0.23,0.07-0.29,0.22L-435.77,24.89z"/>
		<path class="st31" d="M-428.59,21.5h-2.2c-0.12,0-0.23-0.04-0.33-0.12s-0.14-0.18-0.14-0.31c0-0.13,0.04-0.24,0.14-0.32
			s0.2-0.12,0.33-0.12h5.28c0.12,0,0.23,0.04,0.32,0.12s0.13,0.19,0.13,0.32c0,0.12-0.04,0.23-0.13,0.31s-0.19,0.12-0.32,0.12h-2.18
			v6.42c0,0.12-0.04,0.23-0.13,0.32s-0.19,0.14-0.32,0.14s-0.23-0.05-0.32-0.14c-0.09-0.09-0.13-0.2-0.13-0.32V21.5z"/>
		<path class="st31" d="M-423.75,21.05c0-0.12,0.04-0.23,0.13-0.32s0.19-0.14,0.32-0.14c0.13,0,0.24,0.05,0.33,0.14
			c0.08,0.09,0.13,0.2,0.13,0.32v6.88c0,0.12-0.04,0.23-0.13,0.32c-0.08,0.09-0.19,0.14-0.33,0.14c-0.12,0-0.23-0.05-0.32-0.14
			s-0.13-0.2-0.13-0.32V21.05z"/>
		<path class="st31" d="M-417.74,28.45c-0.44,0-0.85-0.08-1.23-0.24c-0.38-0.16-0.71-0.37-1-0.65c-0.29-0.28-0.52-0.6-0.69-0.97
			c-0.18-0.37-0.28-0.78-0.31-1.21c-0.04-0.6-0.04-1.2,0-1.78c0.03-0.43,0.13-0.84,0.31-1.21c0.18-0.37,0.41-0.7,0.69-0.97
			c0.29-0.27,0.62-0.49,1-0.65c0.38-0.16,0.79-0.24,1.23-0.24c0.44,0,0.85,0.08,1.24,0.24c0.38,0.16,0.72,0.38,1.01,0.65
			s0.52,0.6,0.7,0.98c0.18,0.37,0.28,0.77,0.31,1.2c0.04,0.59,0.04,1.18,0,1.78c-0.03,0.43-0.13,0.84-0.31,1.21
			c-0.18,0.37-0.41,0.7-0.7,0.97c-0.29,0.27-0.63,0.49-1.01,0.65C-416.89,28.37-417.3,28.45-417.74,28.45z M-417.74,27.58
			c0.32,0,0.62-0.06,0.9-0.17c0.27-0.11,0.51-0.27,0.72-0.47c0.21-0.2,0.37-0.43,0.5-0.71s0.2-0.57,0.23-0.9
			c0.06-0.56,0.06-1.13,0-1.71c-0.03-0.32-0.11-0.62-0.24-0.89c-0.13-0.27-0.3-0.51-0.5-0.7c-0.21-0.2-0.45-0.35-0.72-0.47
			c-0.27-0.11-0.57-0.17-0.88-0.17c-0.32,0-0.61,0.06-0.88,0.17c-0.27,0.11-0.51,0.27-0.71,0.47c-0.2,0.2-0.37,0.43-0.5,0.7
			s-0.21,0.57-0.24,0.89c-0.04,0.57-0.04,1.14,0,1.71c0.03,0.32,0.11,0.62,0.24,0.9s0.29,0.51,0.5,0.71c0.2,0.2,0.44,0.35,0.71,0.47
			C-418.35,27.52-418.06,27.58-417.74,27.58z"/>
		<path class="st31" d="M-407.25,27.27h0.02c-0.01-0.22-0.02-0.46-0.03-0.71s-0.02-0.56-0.02-0.93v-4.59c0-0.12,0.04-0.23,0.13-0.32
			s0.19-0.14,0.32-0.14c0.13,0,0.24,0.05,0.32,0.14s0.13,0.2,0.13,0.32v6.54c0,0.21-0.07,0.39-0.2,0.54s-0.31,0.23-0.52,0.23
			c-0.32,0-0.56-0.14-0.73-0.41l-3.91-6.33h-0.02c0.01,0.23,0.01,0.48,0.02,0.76c0.01,0.28,0.01,0.59,0.01,0.95v4.59
			c0,0.13-0.04,0.24-0.13,0.33c-0.08,0.09-0.19,0.13-0.33,0.13c-0.12,0-0.23-0.05-0.32-0.14s-0.13-0.2-0.13-0.32V21.4
			c0-0.23,0.07-0.42,0.21-0.57c0.14-0.15,0.33-0.23,0.56-0.23c0.15,0,0.28,0.03,0.41,0.09c0.13,0.06,0.24,0.17,0.33,0.33
			L-407.25,27.27z"/>
		<path class="st31" d="M-398.11,27.89c0,0.12-0.04,0.22-0.11,0.32s-0.18,0.14-0.33,0.14c-0.09,0-0.18-0.03-0.26-0.08
			c-0.08-0.05-0.13-0.12-0.17-0.21l-0.81-2.3h-3.51l-0.81,2.3c-0.04,0.09-0.09,0.16-0.17,0.21c-0.08,0.05-0.16,0.08-0.26,0.08
			c-0.15,0-0.26-0.05-0.33-0.14s-0.11-0.2-0.11-0.32c0-0.07,0.01-0.12,0.02-0.15l2.29-6.38c0.1-0.29,0.25-0.5,0.46-0.63
			c0.2-0.14,0.43-0.2,0.68-0.2c0.25,0,0.47,0.07,0.67,0.2c0.2,0.14,0.35,0.35,0.45,0.63l2.29,6.38
			C-398.11,27.76-398.11,27.81-398.11,27.89z M-402.99,24.89h2.89l-1.16-3.29c-0.05-0.15-0.15-0.22-0.29-0.22
			c-0.14,0-0.23,0.07-0.29,0.22L-402.99,24.89z"/>
		<path class="st31" d="M-396.73,21.05c0-0.12,0.04-0.23,0.13-0.32s0.19-0.14,0.32-0.14c0.13,0,0.24,0.05,0.33,0.14
			c0.08,0.09,0.13,0.2,0.13,0.32v6.42h3.6c0.12,0,0.23,0.04,0.32,0.12c0.09,0.08,0.14,0.18,0.14,0.31c0,0.13-0.04,0.24-0.13,0.32
			c-0.09,0.08-0.2,0.12-0.33,0.12h-3.76c-0.23,0-0.42-0.07-0.54-0.21c-0.13-0.14-0.19-0.31-0.19-0.51V21.05z"/>
		<path class="st31" d="M-381.56,27.89c0,0.12-0.04,0.22-0.11,0.32s-0.18,0.14-0.33,0.14c-0.09,0-0.18-0.03-0.26-0.08
			c-0.08-0.05-0.13-0.12-0.17-0.21l-0.81-2.3h-3.51l-0.81,2.3c-0.04,0.09-0.09,0.16-0.17,0.21c-0.08,0.05-0.16,0.08-0.26,0.08
			c-0.15,0-0.26-0.05-0.33-0.14s-0.11-0.2-0.11-0.32c0-0.07,0.01-0.12,0.02-0.15l2.29-6.38c0.1-0.29,0.25-0.5,0.46-0.63
			c0.2-0.14,0.43-0.2,0.68-0.2c0.25,0,0.47,0.07,0.67,0.2c0.2,0.14,0.35,0.35,0.45,0.63l2.29,6.38
			C-381.57,27.76-381.56,27.81-381.56,27.89z M-386.45,24.89h2.89l-1.16-3.29c-0.05-0.15-0.15-0.22-0.29-0.22
			c-0.14,0-0.23,0.07-0.29,0.22L-386.45,24.89z"/>
		<path class="st31" d="M-380.19,21.05c0-0.12,0.04-0.23,0.13-0.32s0.19-0.14,0.32-0.14c0.13,0,0.24,0.05,0.33,0.14
			c0.08,0.09,0.13,0.2,0.13,0.32v6.88c0,0.12-0.04,0.23-0.13,0.32c-0.08,0.09-0.19,0.14-0.33,0.14c-0.12,0-0.23-0.05-0.32-0.14
			s-0.13-0.2-0.13-0.32V21.05z"/>
		<path class="st31" d="M-371.38,27.91c0,0.12-0.05,0.23-0.14,0.33c-0.09,0.09-0.2,0.14-0.32,0.14c-0.13,0-0.24-0.05-0.33-0.15
			l-2.06-2.55c-0.09-0.11-0.17-0.2-0.26-0.26c-0.08-0.06-0.2-0.09-0.36-0.09h-1.33v2.6c0,0.12-0.04,0.23-0.13,0.32
			s-0.19,0.14-0.32,0.14s-0.23-0.05-0.32-0.14s-0.13-0.2-0.13-0.32v-6.56c0-0.21,0.06-0.38,0.19-0.52c0.13-0.14,0.31-0.21,0.55-0.21
			h2.24c0.34,0,0.66,0.05,0.96,0.15s0.56,0.25,0.79,0.45c0.23,0.2,0.41,0.45,0.54,0.74s0.2,0.64,0.2,1.02
			c0,0.33-0.04,0.62-0.14,0.87c-0.09,0.25-0.22,0.46-0.38,0.64c-0.17,0.18-0.36,0.32-0.59,0.43c-0.23,0.11-0.48,0.19-0.75,0.23
			l2,2.47C-371.41,27.72-371.38,27.81-371.38,27.91z M-374.19,24.46c0.31,0,0.57-0.04,0.79-0.1c0.22-0.07,0.39-0.17,0.52-0.3
			c0.13-0.13,0.23-0.29,0.29-0.47c0.06-0.18,0.09-0.38,0.09-0.6c0-0.46-0.13-0.82-0.4-1.09c-0.26-0.27-0.67-0.4-1.23-0.4h-2.04v2.96
			H-374.19z"/>
		<path class="st31" d="M-368.71,25.46v2.46c0,0.12-0.04,0.23-0.13,0.32s-0.19,0.14-0.32,0.14s-0.23-0.05-0.32-0.14
			s-0.13-0.2-0.13-0.32v-6.56c0-0.21,0.06-0.38,0.19-0.52c0.13-0.14,0.31-0.21,0.56-0.21h2.22c0.34,0,0.66,0.05,0.96,0.16
			s0.57,0.26,0.8,0.47c0.23,0.21,0.41,0.46,0.54,0.76c0.13,0.3,0.2,0.64,0.2,1.02c0,0.39-0.06,0.73-0.19,1.03
			c-0.13,0.3-0.31,0.55-0.54,0.76c-0.23,0.21-0.5,0.37-0.82,0.47c-0.32,0.11-0.66,0.16-1.03,0.16H-368.71z M-366.75,24.59
			c0.6,0,1.03-0.14,1.29-0.43s0.38-0.66,0.38-1.11c0-0.47-0.13-0.84-0.39-1.13c-0.26-0.28-0.67-0.42-1.23-0.42h-2.02v3.09H-366.75z"
			/>
		<path class="st31" d="M-359.64,28.45c-0.44,0-0.85-0.08-1.23-0.24c-0.38-0.16-0.71-0.37-1-0.65c-0.29-0.28-0.52-0.6-0.69-0.97
			c-0.18-0.37-0.28-0.78-0.31-1.21c-0.04-0.6-0.04-1.2,0-1.78c0.03-0.43,0.13-0.84,0.31-1.21c0.18-0.37,0.41-0.7,0.69-0.97
			c0.29-0.27,0.62-0.49,1-0.65c0.38-0.16,0.79-0.24,1.23-0.24c0.44,0,0.85,0.08,1.24,0.24c0.38,0.16,0.72,0.38,1.01,0.65
			s0.52,0.6,0.7,0.98c0.18,0.37,0.28,0.77,0.31,1.2c0.04,0.59,0.04,1.18,0,1.78c-0.03,0.43-0.13,0.84-0.31,1.21
			c-0.18,0.37-0.41,0.7-0.7,0.97c-0.29,0.27-0.63,0.49-1.01,0.65C-358.79,28.37-359.2,28.45-359.64,28.45z M-359.64,27.58
			c0.32,0,0.62-0.06,0.9-0.17c0.27-0.11,0.51-0.27,0.72-0.47c0.21-0.2,0.37-0.43,0.5-0.71s0.2-0.57,0.23-0.9
			c0.06-0.56,0.06-1.13,0-1.71c-0.03-0.32-0.11-0.62-0.24-0.89c-0.13-0.27-0.3-0.51-0.5-0.7c-0.21-0.2-0.45-0.35-0.72-0.47
			c-0.27-0.11-0.57-0.17-0.88-0.17c-0.32,0-0.61,0.06-0.88,0.17c-0.27,0.11-0.51,0.27-0.71,0.47c-0.2,0.2-0.37,0.43-0.5,0.7
			s-0.21,0.57-0.24,0.89c-0.04,0.57-0.04,1.14,0,1.71c0.03,0.32,0.11,0.62,0.24,0.9s0.29,0.51,0.5,0.71c0.2,0.2,0.44,0.35,0.71,0.47
			C-360.25,27.52-359.95,27.58-359.64,27.58z"/>
		<path class="st31" d="M-348.82,27.91c0,0.12-0.05,0.23-0.14,0.33c-0.09,0.09-0.2,0.14-0.32,0.14c-0.13,0-0.24-0.05-0.33-0.15
			l-2.06-2.55c-0.09-0.11-0.17-0.2-0.26-0.26c-0.08-0.06-0.2-0.09-0.36-0.09h-1.33v2.6c0,0.12-0.04,0.23-0.13,0.32
			s-0.19,0.14-0.32,0.14c-0.12,0-0.23-0.05-0.32-0.14s-0.13-0.2-0.13-0.32v-6.56c0-0.21,0.06-0.38,0.19-0.52
			c0.13-0.14,0.31-0.21,0.55-0.21h2.24c0.34,0,0.66,0.05,0.96,0.15c0.3,0.1,0.56,0.25,0.79,0.45c0.23,0.2,0.41,0.45,0.54,0.74
			c0.13,0.3,0.2,0.64,0.2,1.02c0,0.33-0.05,0.62-0.14,0.87c-0.09,0.25-0.22,0.46-0.38,0.64s-0.36,0.32-0.59,0.43
			c-0.23,0.11-0.48,0.19-0.75,0.23l2,2.47C-348.85,27.72-348.82,27.81-348.82,27.91z M-351.63,24.46c0.31,0,0.57-0.04,0.79-0.1
			c0.22-0.07,0.39-0.17,0.52-0.3c0.13-0.13,0.23-0.29,0.29-0.47c0.06-0.18,0.09-0.38,0.09-0.6c0-0.46-0.13-0.82-0.4-1.09
			c-0.26-0.27-0.67-0.4-1.23-0.4h-2.04v2.96H-351.63z"/>
		<path class="st31" d="M-345.41,21.5h-2.2c-0.12,0-0.23-0.04-0.33-0.12s-0.14-0.18-0.14-0.31c0-0.13,0.04-0.24,0.14-0.32
			s0.2-0.12,0.33-0.12h5.28c0.12,0,0.23,0.04,0.32,0.12s0.13,0.19,0.13,0.32c0,0.12-0.04,0.23-0.13,0.31s-0.19,0.12-0.32,0.12h-2.18
			v6.42c0,0.12-0.04,0.23-0.13,0.32s-0.19,0.14-0.32,0.14s-0.23-0.05-0.32-0.14c-0.09-0.09-0.13-0.2-0.13-0.32V21.5z"/>
	</g>
	<g class="st30">
		<path class="st31" d="M-478.56,42.24c-0.01-0.04-0.03-0.07-0.03-0.1c-0.01-0.03-0.01-0.07-0.01-0.1c0-0.12,0.04-0.22,0.12-0.31
			s0.18-0.13,0.31-0.13c0.1,0,0.19,0.02,0.25,0.07c0.07,0.05,0.12,0.11,0.17,0.19c0.12,0.21,0.27,0.39,0.47,0.52
			c0.2,0.14,0.43,0.2,0.7,0.2c0.18,0,0.34-0.03,0.5-0.09c0.15-0.06,0.29-0.15,0.41-0.28c0.12-0.12,0.22-0.27,0.29-0.46
			c0.07-0.19,0.1-0.41,0.1-0.67v-5.04c0-0.12,0.04-0.23,0.13-0.32s0.19-0.14,0.32-0.14c0.13,0,0.24,0.05,0.32,0.14
			s0.13,0.2,0.13,0.32v5.1c0,0.35-0.06,0.66-0.18,0.94s-0.27,0.52-0.47,0.73c-0.2,0.21-0.43,0.36-0.7,0.47
			c-0.27,0.11-0.55,0.17-0.85,0.17c-0.44,0-0.84-0.11-1.19-0.34C-478.13,42.89-478.39,42.6-478.56,42.24z"/>
		<path class="st31" d="M-466.17,42.89c0,0.12-0.04,0.22-0.11,0.32s-0.18,0.14-0.33,0.14c-0.1,0-0.18-0.03-0.26-0.08
			c-0.08-0.05-0.13-0.12-0.17-0.21l-0.81-2.3h-3.51l-0.81,2.3c-0.04,0.09-0.09,0.16-0.17,0.21c-0.08,0.05-0.16,0.08-0.26,0.08
			c-0.15,0-0.26-0.05-0.33-0.14s-0.11-0.2-0.11-0.32c0-0.07,0.01-0.12,0.02-0.15l2.29-6.38c0.1-0.29,0.25-0.5,0.46-0.63
			c0.2-0.14,0.43-0.2,0.68-0.2s0.47,0.07,0.67,0.2s0.35,0.35,0.45,0.63l2.29,6.38C-466.18,42.76-466.17,42.81-466.17,42.89z
			 M-471.06,39.89h2.89l-1.16-3.29c-0.05-0.15-0.15-0.22-0.29-0.22s-0.23,0.07-0.29,0.22L-471.06,39.89z"/>
		<path class="st31" d="M-464.8,36.05c0-0.12,0.04-0.23,0.13-0.32s0.19-0.14,0.32-0.14c0.13,0,0.24,0.05,0.32,0.14
			c0.08,0.09,0.13,0.2,0.13,0.32v6.88c0,0.12-0.04,0.23-0.13,0.32c-0.08,0.09-0.19,0.14-0.32,0.14c-0.12,0-0.23-0.05-0.32-0.14
			s-0.13-0.2-0.13-0.32V36.05z"/>
		<path class="st31" d="M-460.78,40.46v2.46c0,0.12-0.04,0.23-0.13,0.32s-0.19,0.14-0.32,0.14c-0.12,0-0.23-0.05-0.32-0.14
			s-0.13-0.2-0.13-0.32v-6.56c0-0.21,0.06-0.38,0.19-0.52c0.13-0.14,0.31-0.21,0.56-0.21h2.22c0.34,0,0.66,0.05,0.96,0.16
			c0.3,0.11,0.57,0.26,0.8,0.47s0.41,0.46,0.54,0.76s0.2,0.64,0.2,1.02c0,0.39-0.06,0.73-0.19,1.03c-0.13,0.3-0.31,0.55-0.54,0.76
			c-0.23,0.21-0.5,0.37-0.82,0.47c-0.32,0.11-0.66,0.16-1.03,0.16H-460.78z M-458.81,39.59c0.6,0,1.03-0.14,1.29-0.43
			s0.39-0.66,0.39-1.11c0-0.47-0.13-0.84-0.39-1.13c-0.26-0.28-0.67-0.42-1.23-0.42h-2.02v3.09H-458.81z"/>
		<path class="st31" d="M-448.47,40.21c0,0.48-0.08,0.92-0.24,1.32c-0.16,0.4-0.38,0.74-0.66,1.02c-0.28,0.28-0.61,0.5-0.98,0.66
			c-0.38,0.16-0.79,0.24-1.24,0.24s-0.86-0.08-1.24-0.24c-0.38-0.16-0.71-0.38-0.98-0.66c-0.28-0.28-0.5-0.62-0.66-1.02
			c-0.16-0.4-0.24-0.84-0.24-1.32v-4.17c0-0.12,0.04-0.23,0.13-0.32c0.09-0.09,0.19-0.14,0.32-0.14s0.23,0.05,0.32,0.14
			s0.13,0.2,0.13,0.32v4.16c0,0.37,0.05,0.7,0.17,0.99c0.11,0.29,0.26,0.54,0.46,0.75c0.2,0.21,0.43,0.36,0.7,0.47
			c0.27,0.11,0.56,0.17,0.89,0.17c0.32,0,0.61-0.06,0.88-0.17c0.27-0.11,0.51-0.27,0.7-0.47c0.2-0.21,0.35-0.45,0.46-0.75
			c0.11-0.29,0.17-0.62,0.17-0.99v-4.16c0-0.12,0.04-0.23,0.13-0.32s0.19-0.14,0.32-0.14c0.12,0,0.23,0.05,0.32,0.14
			c0.09,0.09,0.13,0.2,0.13,0.32V40.21z"/>
		<path class="st31" d="M-440.68,42.91c0,0.12-0.05,0.23-0.14,0.33c-0.09,0.09-0.2,0.14-0.32,0.14c-0.13,0-0.24-0.05-0.33-0.15
			l-2.06-2.55c-0.09-0.11-0.17-0.2-0.26-0.26c-0.08-0.06-0.2-0.09-0.36-0.09h-1.33v2.6c0,0.12-0.04,0.23-0.13,0.32
			s-0.19,0.14-0.32,0.14s-0.23-0.05-0.32-0.14s-0.13-0.2-0.13-0.32v-6.56c0-0.21,0.06-0.38,0.19-0.52c0.13-0.14,0.31-0.21,0.55-0.21
			h2.24c0.34,0,0.66,0.05,0.96,0.15s0.56,0.25,0.79,0.45c0.23,0.2,0.41,0.45,0.54,0.74s0.2,0.64,0.2,1.02
			c0,0.33-0.04,0.62-0.14,0.87c-0.09,0.25-0.22,0.46-0.38,0.64c-0.17,0.18-0.36,0.32-0.59,0.43c-0.23,0.11-0.48,0.19-0.75,0.23
			l2,2.47C-440.71,42.72-440.68,42.81-440.68,42.91z M-443.49,39.46c0.31,0,0.57-0.04,0.79-0.1c0.22-0.07,0.39-0.17,0.52-0.3
			c0.13-0.13,0.23-0.29,0.29-0.47c0.06-0.18,0.09-0.38,0.09-0.6c0-0.46-0.13-0.82-0.4-1.09c-0.26-0.27-0.67-0.4-1.23-0.4h-2.04v2.96
			H-443.49z"/>
	</g>
</g>
<rect x="0" class="st0" width="217.82" height="46.14"/>
</svg>
