<?xml version="1.0" encoding="utf-8"?>
<!-- Generator: Adobe Illustrator 26.0.0, SVG Export Plug-In . SVG Version: 6.00 Build 0)  -->
<svg version="1.1" id="Layer_1" xmlns="http://www.w3.org/2000/svg" xmlns:xlink="http://www.w3.org/1999/xlink" x="0px" y="0px"
	 viewBox="0 0 217.82 46.14" style="enable-background:new 0 0 217.82 46.14;" xml:space="preserve">
<style type="text/css">
	.st0{opacity:0;fill:#FFFFFF;}
	.st1{fill:#FFFFFF;}
	.st2{fill:#C7B299;}
	.st3{fill:#FF0000;}
	.st4{fill:#00FF00;}
	.st5{fill:none;stroke:#000000;stroke-linecap:round;stroke-linejoin:round;stroke-miterlimit:10;}
	.st6{fill:none;stroke:#000000;stroke-linejoin:round;stroke-miterlimit:10;}
	.st7{fill:none;stroke:#000000;stroke-linecap:round;stroke-linejoin:round;}
	.st8{fill:none;stroke:#000000;stroke-linejoin:round;}
	.st9{fill:none;stroke:#231F20;stroke-linejoin:round;stroke-miterlimit:10;}
	.st10{fill:none;stroke:#231F20;stroke-linecap:round;stroke-linejoin:round;stroke-miterlimit:10;}
	.st11{fill:none;stroke:#000000;stroke-width:0.75;stroke-linecap:round;stroke-linejoin:round;stroke-miterlimit:10;}
	.st12{fill:none;stroke:#000000;stroke-linecap:round;stroke-miterlimit:10;}
	.st13{fill:none;stroke:#241F20;stroke-linecap:round;stroke-linejoin:round;stroke-miterlimit:10;}
	.st14{fill:none;stroke:#221F20;stroke-linecap:round;stroke-linejoin:round;stroke-miterlimit:10;}
	.st15{fill:#231F20;}
	.st16{fill:#00B921;}
	.st17{fill:#FFFFFF;stroke:#EFEFEF;stroke-width:0.25;stroke-miterlimit:10;}
	.st18{fill:#4BCA59;}
	.st19{fill-rule:evenodd;clip-rule:evenodd;fill:#FFFFFF;}
	.st20{fill:none;stroke:#020202;stroke-miterlimit:10;}
	.st21{fill:none;stroke:#000000;stroke-miterlimit:10;}
	.st22{fill:none;stroke:#000000;stroke-width:0.95;stroke-linecap:round;stroke-linejoin:round;stroke-miterlimit:10;}
	.st23{fill:none;stroke:#000000;stroke-linecap:round;stroke-linejoin:round;stroke-miterlimit:10;stroke-dasharray:2;}
	.st24{fill:none;stroke:#000000;stroke-width:0.93;stroke-linecap:round;stroke-linejoin:round;stroke-miterlimit:10;}
	.st25{fill:#020202;}
	.st26{fill:none;stroke:#020202;stroke-width:0.5;stroke-linecap:round;stroke-linejoin:round;stroke-miterlimit:10;}
	.st27{fill:none;stroke:#020202;stroke-linecap:round;stroke-linejoin:round;stroke-miterlimit:10;}
	.st28{fill:#FF6000;}
	.st29{fill:none;stroke:#000000;stroke-width:0.9;stroke-linecap:round;stroke-linejoin:round;stroke-miterlimit:10;}
	.st30{enable-background:new    ;}
	.st31{fill:#010101;}
	.st32{fill:none;stroke:#000000;stroke-width:1.3;stroke-linecap:round;stroke-linejoin:round;stroke-miterlimit:10;}
	.st33{fill:none;stroke:#000000;stroke-width:1.2;stroke-linecap:round;stroke-linejoin:round;stroke-miterlimit:10;}
	.st34{fill:none;stroke:#000000;stroke-width:1.3;stroke-miterlimit:10;}
	
		.st35{fill-rule:evenodd;clip-rule:evenodd;fill:none;stroke:#000000;stroke-width:1.3;stroke-linecap:round;stroke-linejoin:round;stroke-miterlimit:10;}
	.st36{fill:none;stroke:#000000;stroke-width:1.5;stroke-linecap:round;stroke-linejoin:round;stroke-miterlimit:10;}
	.st37{fill:none;stroke:#000000;stroke-width:1.3;stroke-linejoin:round;stroke-miterlimit:10;}
	.st38{fill:none;stroke:#000000;stroke-width:1.3;stroke-linecap:round;stroke-miterlimit:10;}
	.st39{fill:none;stroke:#000000;stroke-width:1.5;stroke-linejoin:round;stroke-miterlimit:10;}
	.st40{fill:none;stroke:#000000;stroke-width:1.7;stroke-linecap:round;stroke-linejoin:round;stroke-miterlimit:10;}
	
		.st41{fill-rule:evenodd;clip-rule:evenodd;fill:none;stroke:#000000;stroke-width:1.5;stroke-linecap:round;stroke-linejoin:round;stroke-miterlimit:10;}
	
		.st42{fill-rule:evenodd;clip-rule:evenodd;fill:none;stroke:#000000;stroke-linecap:round;stroke-linejoin:round;stroke-miterlimit:10;}
	.st43{fill:none;stroke:#000000;stroke-width:1.8;stroke-linecap:round;stroke-linejoin:round;stroke-miterlimit:10;}
	
		.st44{fill-rule:evenodd;clip-rule:evenodd;fill:none;stroke:#000000;stroke-width:1.8;stroke-linecap:round;stroke-linejoin:round;stroke-miterlimit:10;}
	
		.st45{fill-rule:evenodd;clip-rule:evenodd;fill:none;stroke:#000000;stroke-width:1.7;stroke-linecap:round;stroke-linejoin:round;stroke-miterlimit:10;}
	.st46{fill:#FF8BB3;}
</style>
<rect x="0" class="st0" width="217.82" height="46.14"/>
<g id="Group_Copy_2" transform="translate(253 60)">
	<g class="st30">
		<path class="st31" d="M-238.98-47.48c0,0.25-0.07,0.46-0.21,0.64c-0.14,0.18-0.36,0.27-0.66,0.27c-0.21,0-0.41-0.06-0.58-0.19
			s-0.27-0.3-0.29-0.51l-1.14-8.8c-0.02-0.1-0.07-0.14-0.14-0.14c-0.07,0-0.12,0.04-0.14,0.13l-1.82,8.05
			c-0.11,0.48-0.3,0.83-0.58,1.06s-0.6,0.34-0.98,0.34c-0.37,0-0.7-0.11-0.97-0.34c-0.27-0.23-0.46-0.58-0.57-1.06l-1.84-8.03
			c-0.02-0.1-0.07-0.14-0.14-0.14c-0.07,0-0.12,0.05-0.14,0.14l-1.12,8.8c-0.02,0.21-0.12,0.38-0.29,0.51s-0.36,0.19-0.58,0.19
			c-0.3,0-0.52-0.09-0.66-0.27c-0.14-0.18-0.21-0.39-0.21-0.64c0-0.08,0-0.15,0.02-0.19l1.26-8.78c0.09-0.54,0.28-0.94,0.58-1.18
			c0.3-0.25,0.65-0.37,1.06-0.37c0.42,0,0.78,0.12,1.08,0.35c0.3,0.24,0.51,0.61,0.63,1.12l1.76,7.9c0.01,0.03,0.03,0.06,0.05,0.1
			s0.06,0.05,0.11,0.05c0.05,0,0.09-0.02,0.1-0.05c0.02-0.03,0.03-0.06,0.04-0.1l1.73-7.9c0.12-0.51,0.33-0.88,0.62-1.12
			c0.3-0.23,0.65-0.35,1.06-0.35c0.42,0,0.77,0.12,1.07,0.37c0.3,0.25,0.49,0.64,0.58,1.18l1.28,8.78
			C-238.99-47.63-238.98-47.56-238.98-47.48z"/>
		<path class="st31" d="M-230.18-48.02c0,0.15-0.02,0.27-0.06,0.36c-0.04,0.09-0.12,0.18-0.24,0.26c-0.12,0.08-0.28,0.16-0.48,0.26
			c-0.2,0.1-0.45,0.2-0.73,0.3c-0.28,0.1-0.6,0.18-0.96,0.24c-0.36,0.06-0.74,0.1-1.16,0.1c-0.54,0-1.02-0.07-1.43-0.21
			c-0.41-0.14-0.75-0.33-1.02-0.58c-0.27-0.25-0.48-0.54-0.62-0.88s-0.21-0.7-0.21-1.1c0-0.35,0.06-0.69,0.19-1.01
			c0.13-0.32,0.33-0.6,0.59-0.85s0.6-0.44,1.01-0.58c0.41-0.14,0.89-0.22,1.46-0.22c0.37,0,0.71,0.02,1.02,0.07
			c0.3,0.05,0.64,0.12,1.02,0.2v-0.53c0-0.54-0.14-0.94-0.42-1.18s-0.73-0.37-1.36-0.37c-0.33,0-0.65,0.04-0.95,0.11
			c-0.3,0.08-0.57,0.15-0.79,0.24c-0.35,0.12-0.63,0.1-0.85-0.05c-0.21-0.15-0.32-0.35-0.32-0.59c0-0.14,0.04-0.28,0.12-0.42
			c0.08-0.14,0.23-0.26,0.44-0.36c0.23-0.12,0.58-0.23,1.03-0.33c0.45-0.1,0.93-0.15,1.42-0.15c1.02,0,1.83,0.25,2.42,0.74
			c0.59,0.5,0.89,1.28,0.89,2.36V-48.02z M-233.67-47.99c0.55,0,0.98-0.07,1.28-0.2c0.3-0.13,0.49-0.23,0.58-0.3v-1.78
			c-0.35-0.09-0.67-0.15-0.96-0.2s-0.61-0.07-0.98-0.07c-0.49,0-0.89,0.1-1.21,0.31s-0.47,0.5-0.47,0.89c0,0.44,0.15,0.77,0.45,1
			C-234.69-48.1-234.25-47.99-233.67-47.99z"/>
		<path class="st31" d="M-220.55-47.46c0,0.25-0.08,0.45-0.24,0.62c-0.16,0.17-0.36,0.25-0.61,0.25c-0.22,0-0.42-0.08-0.59-0.25
			c-0.17-0.17-0.26-0.37-0.26-0.62v-4.37c0-0.32-0.05-0.59-0.15-0.82c-0.1-0.23-0.24-0.42-0.41-0.57c-0.17-0.15-0.37-0.26-0.59-0.33
			c-0.22-0.07-0.46-0.1-0.7-0.1c-0.39,0-0.77,0.05-1.11,0.14c-0.35,0.09-0.61,0.2-0.79,0.31v5.74c0,0.25-0.08,0.45-0.24,0.62
			c-0.16,0.17-0.36,0.25-0.61,0.25c-0.22,0-0.42-0.08-0.59-0.25c-0.17-0.17-0.26-0.37-0.26-0.62v-6.29c0-0.17,0.03-0.3,0.08-0.39
			c0.05-0.09,0.14-0.18,0.26-0.26c0.12-0.08,0.28-0.18,0.48-0.28c0.2-0.1,0.44-0.2,0.72-0.29c0.28-0.09,0.59-0.17,0.95-0.22
			s0.74-0.09,1.16-0.09c1.16,0,2.04,0.29,2.62,0.87c0.59,0.58,0.88,1.42,0.88,2.5V-47.46z"/>
		<path class="st31" d="M-211.08-47.21c0,0.62-0.1,1.15-0.3,1.61c-0.2,0.45-0.47,0.83-0.82,1.13c-0.34,0.3-0.75,0.52-1.22,0.67
			s-0.96,0.22-1.49,0.22c-0.52,0-1-0.07-1.43-0.2c-0.43-0.13-0.79-0.29-1.06-0.47c-0.19-0.12-0.36-0.26-0.5-0.42
			s-0.21-0.34-0.21-0.54c0-0.18,0.06-0.35,0.19-0.5c0.13-0.16,0.33-0.23,0.61-0.23c0.19,0,0.37,0.04,0.54,0.12s0.34,0.17,0.52,0.27
			c0.18,0.1,0.37,0.19,0.58,0.27s0.46,0.12,0.74,0.12c0.28,0,0.55-0.04,0.81-0.12c0.26-0.08,0.49-0.2,0.69-0.37
			c0.2-0.17,0.36-0.37,0.48-0.61c0.12-0.24,0.18-0.52,0.18-0.84v-0.16c-0.28,0.13-0.6,0.24-0.98,0.34c-0.37,0.1-0.78,0.15-1.22,0.15
			c-0.5,0-0.95-0.08-1.35-0.23c-0.4-0.15-0.74-0.37-1.03-0.65s-0.51-0.61-0.68-1.01c-0.17-0.39-0.26-0.83-0.3-1.3
			c-0.01-0.11-0.02-0.25-0.02-0.42c0-0.17-0.01-0.35-0.01-0.54c0-0.19,0-0.38,0.01-0.57c0.01-0.19,0.01-0.36,0.02-0.52
			c0.04-0.48,0.15-0.92,0.32-1.33c0.17-0.41,0.41-0.75,0.71-1.04c0.3-0.29,0.67-0.51,1.1-0.68s0.92-0.25,1.47-0.25
			c0.38,0,0.75,0.04,1.1,0.1s0.66,0.16,0.95,0.26s0.54,0.22,0.75,0.33c0.21,0.11,0.38,0.21,0.5,0.28c0.15,0.1,0.24,0.19,0.28,0.29
			c0.04,0.1,0.06,0.22,0.06,0.37V-47.21z M-214.65-53.65c-0.34,0-0.63,0.05-0.87,0.14c-0.24,0.1-0.44,0.23-0.59,0.39
			c-0.16,0.17-0.27,0.36-0.35,0.58s-0.13,0.47-0.15,0.74c-0.02,0.2-0.03,0.47-0.03,0.79s0.01,0.61,0.03,0.86
			c0.04,0.57,0.21,1.01,0.49,1.34c0.28,0.33,0.75,0.5,1.42,0.5c0.47,0,0.88-0.07,1.23-0.21c0.35-0.14,0.59-0.26,0.7-0.37v-4.27
			c-0.02-0.01-0.08-0.04-0.18-0.1s-0.23-0.12-0.4-0.17c-0.17-0.05-0.36-0.1-0.58-0.15C-214.15-53.63-214.39-53.65-214.65-53.65z"/>
		<path class="st31" d="M-201.98-48.02c0,0.15-0.02,0.27-0.06,0.36c-0.04,0.09-0.12,0.18-0.24,0.26c-0.12,0.08-0.28,0.16-0.48,0.26
			c-0.2,0.1-0.45,0.2-0.73,0.3c-0.28,0.1-0.6,0.18-0.96,0.24c-0.36,0.06-0.74,0.1-1.16,0.1c-0.54,0-1.02-0.07-1.43-0.21
			c-0.41-0.14-0.75-0.33-1.02-0.58c-0.27-0.25-0.48-0.54-0.62-0.88s-0.21-0.7-0.21-1.1c0-0.35,0.06-0.69,0.19-1.01
			c0.13-0.32,0.33-0.6,0.59-0.85s0.6-0.44,1.01-0.58c0.41-0.14,0.89-0.22,1.46-0.22c0.37,0,0.71,0.02,1.02,0.07
			c0.3,0.05,0.64,0.12,1.02,0.2v-0.53c0-0.54-0.14-0.94-0.42-1.18s-0.73-0.37-1.36-0.37c-0.33,0-0.65,0.04-0.95,0.11
			c-0.3,0.08-0.57,0.15-0.79,0.24c-0.35,0.12-0.63,0.1-0.85-0.05c-0.21-0.15-0.32-0.35-0.32-0.59c0-0.14,0.04-0.28,0.12-0.42
			c0.08-0.14,0.23-0.26,0.44-0.36c0.23-0.12,0.58-0.23,1.03-0.33c0.45-0.1,0.93-0.15,1.42-0.15c1.02,0,1.83,0.25,2.42,0.74
			c0.59,0.5,0.89,1.28,0.89,2.36V-48.02z M-205.46-47.99c0.55,0,0.98-0.07,1.28-0.2c0.3-0.13,0.49-0.23,0.58-0.3v-1.78
			c-0.35-0.09-0.67-0.15-0.96-0.2s-0.61-0.07-0.98-0.07c-0.49,0-0.89,0.1-1.21,0.31s-0.47,0.5-0.47,0.89c0,0.44,0.15,0.77,0.45,1
			C-206.48-48.1-206.04-47.99-205.46-47.99z"/>
		<path class="st31" d="M-198.62-58.07c0.24,0,0.43,0.08,0.6,0.25c0.17,0.17,0.25,0.37,0.25,0.62v9.74c0,0.25-0.08,0.45-0.24,0.62
			c-0.16,0.17-0.36,0.25-0.61,0.25c-0.22,0-0.42-0.08-0.59-0.25c-0.17-0.17-0.26-0.37-0.26-0.62v-9.74c0-0.25,0.08-0.45,0.24-0.62
			C-199.06-57.99-198.86-58.07-198.62-58.07z"/>
		<path class="st31" d="M-195.26-54.28c0-0.26,0.07-0.47,0.22-0.64s0.35-0.26,0.61-0.26c0.25,0,0.45,0.08,0.62,0.26
			c0.17,0.17,0.25,0.38,0.25,0.64v4.35c0,0.55,0.17,0.99,0.5,1.31c0.33,0.32,0.78,0.48,1.36,0.48c0.44,0,0.81-0.06,1.12-0.17
			c0.31-0.11,0.57-0.23,0.78-0.36v-5.63c0-0.25,0.08-0.45,0.24-0.62s0.36-0.26,0.61-0.26c0.23,0,0.43,0.08,0.6,0.26
			c0.17,0.17,0.25,0.38,0.25,0.62v6.19c0,0.15-0.02,0.27-0.07,0.37c-0.05,0.1-0.13,0.19-0.25,0.27s-0.28,0.18-0.48,0.3
			c-0.2,0.11-0.44,0.22-0.72,0.31c-0.28,0.1-0.59,0.18-0.94,0.25c-0.35,0.07-0.74,0.1-1.15,0.1c-1.09,0-1.95-0.29-2.58-0.88
			s-0.95-1.43-0.95-2.53V-54.28z"/>
		<path class="st31" d="M-181.45-55.11c0.25,0.08,0.42,0.18,0.51,0.31c0.1,0.13,0.14,0.3,0.14,0.49c0,0.18-0.06,0.36-0.19,0.54
			c-0.13,0.18-0.33,0.26-0.61,0.26c-0.15,0-0.32-0.03-0.51-0.08c-0.19-0.05-0.42-0.08-0.69-0.06c-0.37,0.01-0.65,0.12-0.83,0.31
			s-0.27,0.52-0.27,0.97v4.93c0,0.25-0.08,0.45-0.25,0.61c-0.17,0.16-0.37,0.24-0.62,0.24c-0.22,0-0.42-0.08-0.58-0.24
			c-0.17-0.16-0.25-0.36-0.25-0.61v-5.2c0-0.81,0.23-1.45,0.69-1.93c0.46-0.47,1.13-0.71,2-0.71c0.28,0,0.55,0.02,0.81,0.05
			C-181.83-55.21-181.62-55.16-181.45-55.11z"/>
		<path class="st31" d="M-179.38-54.28c0-0.26,0.07-0.47,0.22-0.64s0.35-0.26,0.61-0.26c0.25,0,0.45,0.08,0.62,0.26
			c0.17,0.17,0.25,0.38,0.25,0.64v4.35c0,0.55,0.17,0.99,0.5,1.31c0.33,0.32,0.78,0.48,1.36,0.48c0.44,0,0.81-0.06,1.12-0.17
			c0.31-0.11,0.57-0.23,0.78-0.36v-5.63c0-0.25,0.08-0.45,0.24-0.62s0.36-0.26,0.61-0.26c0.23,0,0.43,0.08,0.6,0.26
			c0.17,0.17,0.25,0.38,0.25,0.62v6.19c0,0.15-0.02,0.27-0.07,0.37c-0.05,0.1-0.13,0.19-0.25,0.27s-0.28,0.18-0.48,0.3
			c-0.2,0.11-0.44,0.22-0.72,0.31c-0.28,0.1-0.59,0.18-0.94,0.25c-0.35,0.07-0.74,0.1-1.15,0.1c-1.09,0-1.95-0.29-2.58-0.88
			s-0.95-1.43-0.95-2.53V-54.28z"/>
	</g>
	<g class="st30">
		<path class="st31" d="M-251.9-38.95c0-0.12,0.04-0.23,0.13-0.32s0.19-0.14,0.32-0.14c0.13,0,0.24,0.05,0.33,0.14
			c0.08,0.09,0.13,0.2,0.13,0.32v6.88c0,0.12-0.04,0.23-0.13,0.32c-0.08,0.09-0.19,0.14-0.33,0.14c-0.12,0-0.23-0.05-0.32-0.14
			s-0.13-0.2-0.13-0.32V-38.95z"/>
		<path class="st31" d="M-243.42-32.73h0.02c-0.01-0.22-0.02-0.46-0.03-0.71c-0.01-0.25-0.02-0.56-0.02-0.93v-4.59
			c0-0.12,0.04-0.23,0.13-0.32s0.19-0.14,0.32-0.14c0.13,0,0.24,0.05,0.33,0.14c0.08,0.09,0.13,0.2,0.13,0.32v6.54
			c0,0.21-0.07,0.39-0.2,0.54s-0.31,0.23-0.52,0.23c-0.32,0-0.56-0.14-0.73-0.41l-3.9-6.33h-0.02c0.01,0.23,0.01,0.48,0.02,0.76
			c0.01,0.28,0.01,0.59,0.01,0.95v4.59c0,0.13-0.04,0.24-0.13,0.33c-0.08,0.09-0.19,0.13-0.32,0.13c-0.12,0-0.23-0.05-0.32-0.14
			s-0.13-0.2-0.13-0.32v-6.52c0-0.23,0.07-0.42,0.21-0.57c0.14-0.15,0.33-0.23,0.56-0.23c0.15,0,0.28,0.03,0.41,0.09
			s0.24,0.17,0.34,0.33L-243.42-32.73z"/>
		<path class="st31" d="M-238.57-38.5h-2.2c-0.12,0-0.23-0.04-0.33-0.12s-0.14-0.18-0.14-0.31c0-0.13,0.04-0.24,0.14-0.32
			s0.2-0.12,0.33-0.12h5.28c0.12,0,0.23,0.04,0.32,0.12s0.13,0.19,0.13,0.32c0,0.12-0.04,0.23-0.13,0.31s-0.19,0.12-0.32,0.12h-2.18
			v6.42c0,0.12-0.04,0.23-0.13,0.32s-0.19,0.14-0.32,0.14s-0.23-0.05-0.32-0.14c-0.09-0.09-0.13-0.2-0.13-0.32V-38.5z"/>
		<path class="st31" d="M-229.16-39.37c0.12,0,0.23,0.04,0.32,0.13c0.09,0.08,0.13,0.19,0.13,0.31c0,0.12-0.05,0.23-0.14,0.31
			s-0.2,0.12-0.31,0.12h-3.66v2.52h3.56c0.12,0,0.23,0.04,0.31,0.12c0.08,0.08,0.13,0.19,0.13,0.31c0,0.12-0.04,0.22-0.13,0.31
			s-0.19,0.13-0.31,0.13h-3.56v2.58h3.69c0.12,0,0.22,0.04,0.31,0.12c0.09,0.08,0.14,0.18,0.14,0.31c0,0.12-0.04,0.23-0.13,0.31
			c-0.09,0.08-0.19,0.13-0.32,0.13h-3.82c-0.25,0-0.44-0.07-0.57-0.22c-0.13-0.15-0.2-0.32-0.2-0.53v-6.21
			c0-0.21,0.07-0.39,0.2-0.53c0.13-0.14,0.32-0.21,0.57-0.21H-229.16z"/>
		<path class="st31" d="M-221.15-32.09c0,0.12-0.05,0.23-0.14,0.33c-0.09,0.09-0.2,0.14-0.32,0.14c-0.13,0-0.24-0.05-0.33-0.15
			l-2.06-2.55c-0.09-0.11-0.17-0.2-0.26-0.26c-0.08-0.06-0.2-0.09-0.36-0.09h-1.33v2.6c0,0.12-0.04,0.23-0.13,0.32
			s-0.19,0.14-0.32,0.14c-0.12,0-0.23-0.05-0.32-0.14s-0.13-0.2-0.13-0.32v-6.56c0-0.21,0.06-0.38,0.19-0.52
			c0.13-0.14,0.31-0.21,0.55-0.21h2.24c0.34,0,0.66,0.05,0.96,0.15c0.3,0.1,0.56,0.25,0.79,0.45c0.23,0.2,0.41,0.45,0.54,0.74
			c0.13,0.3,0.2,0.64,0.2,1.02c0,0.33-0.05,0.62-0.14,0.87c-0.09,0.25-0.22,0.46-0.38,0.64s-0.36,0.32-0.59,0.43
			c-0.23,0.11-0.48,0.19-0.75,0.23l2,2.47C-221.19-32.28-221.15-32.19-221.15-32.09z M-223.97-35.54c0.31,0,0.57-0.04,0.79-0.1
			c0.22-0.07,0.39-0.17,0.52-0.3c0.13-0.13,0.23-0.29,0.29-0.47c0.06-0.18,0.09-0.38,0.09-0.6c0-0.46-0.13-0.82-0.4-1.09
			c-0.26-0.27-0.67-0.4-1.23-0.4h-2.04v2.96H-223.97z"/>
		<path class="st31" d="M-214.03-32.73h0.02c-0.01-0.22-0.02-0.46-0.03-0.71s-0.02-0.56-0.02-0.93v-4.59c0-0.12,0.04-0.23,0.13-0.32
			s0.19-0.14,0.32-0.14c0.13,0,0.24,0.05,0.32,0.14s0.13,0.2,0.13,0.32v6.54c0,0.21-0.07,0.39-0.2,0.54s-0.31,0.23-0.52,0.23
			c-0.32,0-0.56-0.14-0.73-0.41l-3.91-6.33h-0.02c0.01,0.23,0.01,0.48,0.02,0.76c0.01,0.28,0.01,0.59,0.01,0.95v4.59
			c0,0.13-0.04,0.24-0.13,0.33c-0.08,0.09-0.19,0.13-0.33,0.13c-0.12,0-0.23-0.05-0.32-0.14s-0.13-0.2-0.13-0.32v-6.52
			c0-0.23,0.07-0.42,0.21-0.57c0.14-0.15,0.33-0.23,0.56-0.23c0.15,0,0.28,0.03,0.41,0.09c0.13,0.06,0.24,0.17,0.33,0.33
			L-214.03-32.73z"/>
		<path class="st31" d="M-204.89-32.11c0,0.12-0.04,0.22-0.11,0.32s-0.18,0.14-0.33,0.14c-0.09,0-0.18-0.03-0.26-0.08
			c-0.08-0.05-0.13-0.12-0.17-0.21l-0.81-2.3h-3.51l-0.81,2.3c-0.04,0.09-0.09,0.16-0.17,0.21c-0.08,0.05-0.16,0.08-0.26,0.08
			c-0.15,0-0.26-0.05-0.33-0.14s-0.11-0.2-0.11-0.32c0-0.07,0.01-0.12,0.02-0.15l2.29-6.38c0.1-0.29,0.25-0.5,0.46-0.63
			c0.2-0.14,0.43-0.2,0.68-0.2c0.25,0,0.47,0.07,0.67,0.2c0.2,0.14,0.35,0.35,0.45,0.63l2.29,6.38
			C-204.89-32.24-204.89-32.19-204.89-32.11z M-209.77-35.11h2.89l-1.16-3.29c-0.05-0.15-0.15-0.22-0.29-0.22
			c-0.14,0-0.23,0.07-0.29,0.22L-209.77-35.11z"/>
		<path class="st31" d="M-202.59-38.5h-2.2c-0.12,0-0.23-0.04-0.32-0.12s-0.14-0.18-0.14-0.31c0-0.13,0.05-0.24,0.14-0.32
			s0.2-0.12,0.32-0.12h5.28c0.12,0,0.23,0.04,0.32,0.12c0.09,0.08,0.13,0.19,0.13,0.32c0,0.12-0.04,0.23-0.13,0.31
			c-0.09,0.08-0.19,0.12-0.32,0.12h-2.18v6.42c0,0.12-0.04,0.23-0.13,0.32s-0.19,0.14-0.32,0.14c-0.12,0-0.23-0.05-0.32-0.14
			s-0.13-0.2-0.13-0.32V-38.5z"/>
		<path class="st31" d="M-197.75-38.95c0-0.12,0.04-0.23,0.13-0.32s0.19-0.14,0.32-0.14c0.13,0,0.24,0.05,0.32,0.14
			c0.08,0.09,0.13,0.2,0.13,0.32v6.88c0,0.12-0.04,0.23-0.13,0.32c-0.08,0.09-0.19,0.14-0.32,0.14c-0.12,0-0.23-0.05-0.32-0.14
			s-0.13-0.2-0.13-0.32V-38.95z"/>
		<path class="st31" d="M-191.74-31.55c-0.44,0-0.85-0.08-1.23-0.24c-0.38-0.16-0.71-0.37-1-0.65c-0.29-0.28-0.52-0.6-0.69-0.97
			s-0.28-0.78-0.31-1.21c-0.04-0.6-0.04-1.2,0-1.78c0.03-0.43,0.13-0.84,0.31-1.21s0.41-0.7,0.69-0.97c0.29-0.27,0.62-0.49,1-0.65
			c0.38-0.16,0.79-0.24,1.23-0.24c0.44,0,0.85,0.08,1.24,0.24c0.39,0.16,0.72,0.38,1.01,0.65c0.29,0.28,0.52,0.6,0.7,0.98
			s0.28,0.77,0.31,1.2c0.04,0.59,0.04,1.18,0,1.78c-0.03,0.43-0.13,0.84-0.31,1.21s-0.41,0.7-0.7,0.97
			c-0.29,0.27-0.63,0.49-1.01,0.65C-190.89-31.63-191.3-31.55-191.74-31.55z M-191.74-32.42c0.32,0,0.62-0.06,0.9-0.17
			c0.28-0.11,0.52-0.27,0.72-0.47c0.21-0.2,0.37-0.43,0.5-0.71c0.12-0.28,0.2-0.57,0.23-0.9c0.06-0.56,0.06-1.13,0-1.71
			c-0.03-0.32-0.11-0.62-0.24-0.89s-0.29-0.51-0.5-0.7c-0.21-0.2-0.45-0.35-0.72-0.47c-0.28-0.11-0.57-0.17-0.89-0.17
			s-0.61,0.06-0.88,0.17c-0.27,0.11-0.51,0.27-0.71,0.47c-0.2,0.2-0.37,0.43-0.49,0.7c-0.13,0.27-0.21,0.57-0.24,0.89
			c-0.04,0.57-0.04,1.14,0,1.71c0.03,0.32,0.11,0.62,0.24,0.9c0.13,0.28,0.29,0.51,0.49,0.71c0.2,0.2,0.44,0.35,0.71,0.47
			C-192.35-32.48-192.06-32.42-191.74-32.42z"/>
		<path class="st31" d="M-181.25-32.73h0.02c-0.01-0.22-0.02-0.46-0.03-0.71c-0.01-0.25-0.02-0.56-0.02-0.93v-4.59
			c0-0.12,0.04-0.23,0.13-0.32s0.19-0.14,0.32-0.14c0.13,0,0.24,0.05,0.33,0.14c0.08,0.09,0.13,0.2,0.13,0.32v6.54
			c0,0.21-0.07,0.39-0.2,0.54s-0.31,0.23-0.52,0.23c-0.32,0-0.56-0.14-0.73-0.41l-3.9-6.33h-0.02c0.01,0.23,0.01,0.48,0.02,0.76
			c0.01,0.28,0.01,0.59,0.01,0.95v4.59c0,0.13-0.04,0.24-0.13,0.33c-0.08,0.09-0.19,0.13-0.32,0.13c-0.12,0-0.23-0.05-0.32-0.14
			s-0.13-0.2-0.13-0.32v-6.52c0-0.23,0.07-0.42,0.21-0.57c0.14-0.15,0.33-0.23,0.56-0.23c0.15,0,0.28,0.03,0.41,0.09
			s0.24,0.17,0.34,0.33L-181.25-32.73z"/>
		<path class="st31" d="M-172.11-32.11c0,0.12-0.04,0.22-0.11,0.32s-0.18,0.14-0.33,0.14c-0.1,0-0.18-0.03-0.26-0.08
			c-0.08-0.05-0.13-0.12-0.17-0.21l-0.81-2.3h-3.51l-0.81,2.3c-0.04,0.09-0.09,0.16-0.17,0.21c-0.08,0.05-0.16,0.08-0.26,0.08
			c-0.15,0-0.26-0.05-0.33-0.14s-0.11-0.2-0.11-0.32c0-0.07,0.01-0.12,0.02-0.15l2.29-6.38c0.1-0.29,0.25-0.5,0.46-0.63
			c0.2-0.14,0.43-0.2,0.68-0.2s0.47,0.07,0.67,0.2s0.35,0.35,0.45,0.63l2.29,6.38C-172.11-32.24-172.11-32.19-172.11-32.11z
			 M-176.99-35.11h2.89l-1.16-3.29c-0.05-0.15-0.15-0.22-0.29-0.22s-0.23,0.07-0.29,0.22L-176.99-35.11z"/>
		<path class="st31" d="M-170.73-38.95c0-0.12,0.04-0.23,0.13-0.32s0.19-0.14,0.32-0.14c0.13,0,0.24,0.05,0.32,0.14
			c0.08,0.09,0.13,0.2,0.13,0.32v6.42h3.6c0.12,0,0.23,0.04,0.32,0.12c0.09,0.08,0.14,0.18,0.14,0.31c0,0.13-0.04,0.24-0.13,0.32
			c-0.09,0.08-0.2,0.12-0.33,0.12h-3.76c-0.24,0-0.42-0.07-0.54-0.21c-0.13-0.14-0.19-0.31-0.19-0.51V-38.95z"/>
		<path class="st31" d="M-155.56-32.11c0,0.12-0.04,0.22-0.11,0.32s-0.18,0.14-0.33,0.14c-0.1,0-0.18-0.03-0.26-0.08
			c-0.08-0.05-0.13-0.12-0.17-0.21l-0.81-2.3h-3.51l-0.81,2.3c-0.04,0.09-0.09,0.16-0.17,0.21c-0.08,0.05-0.16,0.08-0.26,0.08
			c-0.15,0-0.26-0.05-0.33-0.14s-0.11-0.2-0.11-0.32c0-0.07,0.01-0.12,0.02-0.15l2.29-6.38c0.1-0.29,0.25-0.5,0.46-0.63
			c0.2-0.14,0.43-0.2,0.68-0.2s0.47,0.07,0.67,0.2s0.35,0.35,0.45,0.63l2.29,6.38C-155.57-32.24-155.56-32.19-155.56-32.11z
			 M-160.45-35.11h2.89l-1.16-3.29c-0.05-0.15-0.15-0.22-0.29-0.22s-0.23,0.07-0.29,0.22L-160.45-35.11z"/>
		<path class="st31" d="M-154.19-38.95c0-0.12,0.04-0.23,0.13-0.32s0.19-0.14,0.32-0.14c0.13,0,0.24,0.05,0.32,0.14
			c0.08,0.09,0.13,0.2,0.13,0.32v6.88c0,0.12-0.04,0.23-0.13,0.32c-0.08,0.09-0.19,0.14-0.32,0.14c-0.12,0-0.23-0.05-0.32-0.14
			s-0.13-0.2-0.13-0.32V-38.95z"/>
		<path class="st31" d="M-145.38-32.09c0,0.12-0.05,0.23-0.14,0.33c-0.09,0.09-0.2,0.14-0.32,0.14c-0.13,0-0.24-0.05-0.33-0.15
			l-2.06-2.55c-0.09-0.11-0.17-0.2-0.26-0.26c-0.08-0.06-0.2-0.09-0.36-0.09h-1.33v2.6c0,0.12-0.04,0.23-0.13,0.32
			s-0.19,0.14-0.32,0.14c-0.12,0-0.23-0.05-0.32-0.14s-0.13-0.2-0.13-0.32v-6.56c0-0.21,0.06-0.38,0.19-0.52
			c0.13-0.14,0.31-0.21,0.55-0.21h2.24c0.34,0,0.66,0.05,0.96,0.15c0.3,0.1,0.56,0.25,0.79,0.45c0.23,0.2,0.41,0.45,0.54,0.74
			c0.13,0.3,0.2,0.64,0.2,1.02c0,0.33-0.05,0.62-0.14,0.87c-0.09,0.25-0.22,0.46-0.38,0.64s-0.36,0.32-0.59,0.43
			c-0.23,0.11-0.48,0.19-0.75,0.23l2,2.47C-145.41-32.28-145.38-32.19-145.38-32.09z M-148.19-35.54c0.31,0,0.57-0.04,0.79-0.1
			c0.22-0.07,0.39-0.17,0.52-0.3c0.13-0.13,0.23-0.29,0.29-0.47c0.06-0.18,0.09-0.38,0.09-0.6c0-0.46-0.13-0.82-0.4-1.09
			c-0.26-0.27-0.67-0.4-1.23-0.4h-2.04v2.96H-148.19z"/>
		<path class="st31" d="M-142.71-34.54v2.46c0,0.12-0.04,0.23-0.13,0.32s-0.19,0.14-0.32,0.14c-0.12,0-0.23-0.05-0.32-0.14
			s-0.13-0.2-0.13-0.32v-6.56c0-0.21,0.06-0.38,0.19-0.52c0.13-0.14,0.31-0.21,0.56-0.21h2.22c0.34,0,0.66,0.05,0.96,0.16
			c0.3,0.11,0.57,0.26,0.8,0.47s0.41,0.46,0.54,0.76s0.2,0.64,0.2,1.02c0,0.39-0.06,0.73-0.19,1.03c-0.13,0.3-0.31,0.55-0.54,0.76
			c-0.23,0.21-0.5,0.37-0.82,0.47c-0.32,0.11-0.66,0.16-1.03,0.16H-142.71z M-140.74-35.41c0.6,0,1.03-0.14,1.29-0.43
			s0.39-0.66,0.39-1.11c0-0.47-0.13-0.84-0.39-1.13c-0.26-0.28-0.67-0.42-1.23-0.42h-2.02v3.09H-140.74z"/>
		<path class="st31" d="M-133.64-31.55c-0.44,0-0.85-0.08-1.23-0.24c-0.38-0.16-0.71-0.37-1-0.65c-0.29-0.28-0.52-0.6-0.69-0.97
			s-0.28-0.78-0.31-1.21c-0.04-0.6-0.04-1.2,0-1.78c0.03-0.43,0.13-0.84,0.31-1.21s0.41-0.7,0.69-0.97c0.29-0.27,0.62-0.49,1-0.65
			c0.38-0.16,0.79-0.24,1.23-0.24c0.44,0,0.85,0.08,1.24,0.24c0.39,0.16,0.72,0.38,1.01,0.65c0.29,0.28,0.52,0.6,0.7,0.98
			s0.28,0.77,0.31,1.2c0.04,0.59,0.04,1.18,0,1.78c-0.03,0.43-0.13,0.84-0.31,1.21s-0.41,0.7-0.7,0.97
			c-0.29,0.27-0.63,0.49-1.01,0.65C-132.79-31.63-133.2-31.55-133.64-31.55z M-133.64-32.42c0.32,0,0.62-0.06,0.9-0.17
			c0.28-0.11,0.52-0.27,0.72-0.47c0.21-0.2,0.37-0.43,0.5-0.71c0.12-0.28,0.2-0.57,0.23-0.9c0.06-0.56,0.06-1.13,0-1.71
			c-0.03-0.32-0.11-0.62-0.24-0.89s-0.29-0.51-0.5-0.7c-0.21-0.2-0.45-0.35-0.72-0.47c-0.28-0.11-0.57-0.17-0.89-0.17
			s-0.61,0.06-0.88,0.17c-0.27,0.11-0.51,0.27-0.71,0.47c-0.2,0.2-0.37,0.43-0.49,0.7c-0.13,0.27-0.21,0.57-0.24,0.89
			c-0.04,0.57-0.04,1.14,0,1.71c0.03,0.32,0.11,0.62,0.24,0.9c0.13,0.28,0.29,0.51,0.49,0.71c0.2,0.2,0.44,0.35,0.71,0.47
			C-134.25-32.48-133.95-32.42-133.64-32.42z"/>
		<path class="st31" d="M-122.82-32.09c0,0.12-0.05,0.23-0.14,0.33c-0.09,0.09-0.2,0.14-0.32,0.14c-0.13,0-0.24-0.05-0.33-0.15
			l-2.06-2.55c-0.09-0.11-0.17-0.2-0.26-0.26c-0.08-0.06-0.2-0.09-0.36-0.09h-1.33v2.6c0,0.12-0.04,0.23-0.13,0.32
			s-0.19,0.14-0.32,0.14c-0.12,0-0.23-0.05-0.32-0.14s-0.13-0.2-0.13-0.32v-6.56c0-0.21,0.06-0.38,0.19-0.52
			c0.13-0.14,0.31-0.21,0.55-0.21h2.24c0.34,0,0.66,0.05,0.96,0.15s0.56,0.25,0.79,0.45c0.23,0.2,0.41,0.45,0.54,0.74
			s0.2,0.64,0.2,1.02c0,0.33-0.04,0.62-0.14,0.87c-0.09,0.25-0.22,0.46-0.38,0.64c-0.17,0.18-0.36,0.32-0.59,0.43
			c-0.23,0.11-0.48,0.19-0.75,0.23l2,2.47C-122.85-32.28-122.82-32.19-122.82-32.09z M-125.63-35.54c0.31,0,0.57-0.04,0.79-0.1
			c0.22-0.07,0.39-0.17,0.52-0.3c0.13-0.13,0.23-0.29,0.29-0.47c0.06-0.18,0.09-0.38,0.09-0.6c0-0.46-0.13-0.82-0.4-1.09
			c-0.26-0.27-0.67-0.4-1.23-0.4h-2.04v2.96H-125.63z"/>
		<path class="st31" d="M-119.4-38.5h-2.2c-0.12,0-0.23-0.04-0.32-0.12s-0.14-0.18-0.14-0.31c0-0.13,0.05-0.24,0.14-0.32
			s0.2-0.12,0.32-0.12h5.28c0.12,0,0.23,0.04,0.32,0.12c0.09,0.08,0.13,0.19,0.13,0.32c0,0.12-0.04,0.23-0.13,0.31
			c-0.09,0.08-0.19,0.12-0.32,0.12h-2.18v6.42c0,0.12-0.04,0.23-0.13,0.32s-0.19,0.14-0.32,0.14c-0.12,0-0.23-0.05-0.32-0.14
			s-0.13-0.2-0.13-0.32V-38.5z"/>
	</g>
	<g class="st30">
		<path class="st31" d="M-243.61-16.78c-0.08,0.11-0.2,0.17-0.37,0.17c-0.12,0-0.22-0.03-0.3-0.1c-0.08-0.07-0.13-0.15-0.14-0.26
			l-0.9-6.48c-0.02-0.07-0.05-0.11-0.11-0.11s-0.1,0.03-0.13,0.1l-1.43,5.97c-0.07,0.28-0.18,0.49-0.33,0.63
			c-0.16,0.14-0.35,0.21-0.58,0.21c-0.23,0-0.43-0.07-0.59-0.21c-0.16-0.14-0.27-0.35-0.34-0.63l-1.43-5.97
			c-0.03-0.07-0.07-0.1-0.12-0.1c-0.04,0-0.06,0.01-0.08,0.04c-0.02,0.03-0.03,0.05-0.04,0.07l-0.9,6.48
			c-0.02,0.11-0.06,0.2-0.14,0.26s-0.17,0.1-0.29,0.1c-0.17,0-0.29-0.06-0.37-0.17c-0.08-0.11-0.1-0.24-0.08-0.39l0.95-6.42
			c0.04-0.31,0.16-0.53,0.34-0.67s0.39-0.2,0.62-0.2s0.44,0.07,0.61,0.2c0.17,0.13,0.28,0.33,0.34,0.58l1.42,6.06
			c0.01,0.02,0.02,0.05,0.04,0.07c0.02,0.03,0.05,0.04,0.08,0.04c0.04,0,0.06-0.01,0.08-0.04c0.02-0.03,0.03-0.05,0.04-0.07
			l1.39-6.06c0.06-0.26,0.17-0.45,0.35-0.58c0.17-0.13,0.38-0.2,0.61-0.2c0.23,0,0.44,0.07,0.62,0.2c0.18,0.14,0.29,0.36,0.33,0.67
			l0.96,6.41C-243.51-17.03-243.53-16.89-243.61-16.78z"/>
		<path class="st31" d="M-235.55-17.11c0,0.12-0.04,0.22-0.11,0.32s-0.18,0.14-0.33,0.14c-0.09,0-0.18-0.03-0.26-0.08
			c-0.08-0.05-0.13-0.12-0.17-0.21l-0.81-2.3h-3.51l-0.81,2.3c-0.04,0.09-0.09,0.16-0.17,0.21c-0.08,0.05-0.16,0.08-0.26,0.08
			c-0.15,0-0.26-0.05-0.33-0.14s-0.11-0.2-0.11-0.32c0-0.07,0.01-0.12,0.02-0.15l2.29-6.38c0.1-0.29,0.25-0.5,0.46-0.63
			c0.2-0.14,0.43-0.2,0.68-0.2c0.25,0,0.47,0.07,0.67,0.2c0.2,0.14,0.35,0.35,0.45,0.63l2.29,6.38
			C-235.56-17.24-235.55-17.19-235.55-17.11z M-240.44-20.11h2.89l-1.16-3.29c-0.05-0.15-0.15-0.22-0.29-0.22
			c-0.14,0-0.23,0.07-0.29,0.22L-240.44-20.11z"/>
		<path class="st31" d="M-228.81-17.73h0.02c-0.01-0.22-0.02-0.46-0.03-0.71s-0.02-0.56-0.02-0.93v-4.59c0-0.12,0.04-0.23,0.13-0.32
			s0.19-0.14,0.32-0.14c0.13,0,0.24,0.05,0.32,0.14s0.13,0.2,0.13,0.32v6.54c0,0.21-0.07,0.39-0.2,0.54s-0.31,0.23-0.52,0.23
			c-0.32,0-0.56-0.14-0.73-0.41l-3.91-6.33h-0.02c0.01,0.23,0.01,0.48,0.02,0.76c0.01,0.28,0.01,0.59,0.01,0.95v4.59
			c0,0.13-0.04,0.24-0.13,0.33c-0.08,0.09-0.19,0.13-0.33,0.13c-0.12,0-0.23-0.05-0.32-0.14s-0.13-0.2-0.13-0.32v-6.52
			c0-0.23,0.07-0.42,0.21-0.57c0.14-0.15,0.33-0.23,0.56-0.23c0.15,0,0.28,0.03,0.41,0.09c0.13,0.06,0.24,0.17,0.33,0.33
			L-228.81-17.73z"/>
		<path class="st31" d="M-219.85-19.29c0,0.37-0.07,0.71-0.21,1.05c-0.14,0.33-0.35,0.62-0.61,0.88c-0.26,0.25-0.58,0.45-0.94,0.6
			s-0.78,0.22-1.22,0.22c-0.44,0-0.85-0.08-1.23-0.24c-0.38-0.16-0.71-0.37-1-0.65c-0.28-0.28-0.51-0.6-0.68-0.97
			s-0.27-0.78-0.3-1.21c-0.04-0.6-0.04-1.2,0-1.78c0.03-0.43,0.13-0.84,0.31-1.21s0.41-0.7,0.69-0.97c0.28-0.27,0.61-0.49,0.99-0.65
			c0.38-0.16,0.79-0.24,1.23-0.24c0.63,0,1.19,0.15,1.67,0.45c0.48,0.3,0.85,0.72,1.11,1.24c0.03,0.06,0.04,0.13,0.04,0.22
			c0,0.12-0.04,0.23-0.13,0.31c-0.09,0.08-0.19,0.13-0.32,0.13c-0.09,0-0.17-0.02-0.24-0.07c-0.07-0.05-0.12-0.1-0.16-0.17
			c-0.19-0.38-0.45-0.68-0.79-0.91s-0.73-0.34-1.18-0.34c-0.32,0-0.62,0.06-0.89,0.17c-0.27,0.11-0.51,0.27-0.71,0.47
			c-0.2,0.2-0.36,0.43-0.49,0.71c-0.12,0.28-0.2,0.57-0.23,0.9c-0.04,0.58-0.04,1.14,0,1.69c0.03,0.32,0.11,0.62,0.23,0.9
			s0.29,0.51,0.5,0.71c0.21,0.2,0.44,0.35,0.71,0.47c0.27,0.11,0.56,0.17,0.89,0.17c0.31,0,0.59-0.04,0.85-0.13s0.48-0.21,0.66-0.37
			c0.18-0.16,0.33-0.35,0.42-0.57s0.15-0.46,0.15-0.71v-0.68h-1.57c-0.12,0-0.23-0.04-0.32-0.12s-0.14-0.19-0.14-0.31
			s0.05-0.23,0.14-0.31s0.2-0.12,0.32-0.12h1.71c0.25,0,0.44,0.07,0.57,0.21s0.2,0.32,0.2,0.52V-19.29z"/>
		<path class="st31" d="M-211.96-17.11c0,0.12-0.04,0.22-0.11,0.32s-0.18,0.14-0.33,0.14c-0.09,0-0.18-0.03-0.26-0.08
			c-0.08-0.05-0.13-0.12-0.17-0.21l-0.81-2.3h-3.51l-0.81,2.3c-0.04,0.09-0.09,0.16-0.17,0.21c-0.08,0.05-0.16,0.08-0.26,0.08
			c-0.15,0-0.26-0.05-0.33-0.14s-0.11-0.2-0.11-0.32c0-0.07,0.01-0.12,0.02-0.15l2.29-6.38c0.1-0.29,0.25-0.5,0.46-0.63
			c0.2-0.14,0.43-0.2,0.68-0.2c0.25,0,0.47,0.07,0.67,0.2c0.2,0.14,0.35,0.35,0.45,0.63l2.29,6.38
			C-211.97-17.24-211.96-17.19-211.96-17.11z M-216.84-20.11h2.89l-1.16-3.29c-0.05-0.15-0.15-0.22-0.29-0.22
			c-0.14,0-0.23,0.07-0.29,0.22L-216.84-20.11z"/>
		<path class="st31" d="M-210.58-23.95c0-0.12,0.04-0.23,0.13-0.32s0.19-0.14,0.32-0.14c0.13,0,0.24,0.05,0.33,0.14
			c0.08,0.09,0.13,0.2,0.13,0.32v6.42h3.6c0.12,0,0.23,0.04,0.32,0.12c0.09,0.08,0.14,0.18,0.14,0.31c0,0.13-0.04,0.24-0.13,0.32
			c-0.09,0.08-0.2,0.12-0.33,0.12h-3.76c-0.23,0-0.42-0.07-0.54-0.21c-0.13-0.14-0.19-0.31-0.19-0.51V-23.95z"/>
		<path class="st31" d="M-198.44-19.79c0,0.48-0.08,0.92-0.24,1.32c-0.16,0.4-0.38,0.74-0.66,1.02c-0.28,0.28-0.61,0.5-0.98,0.66
			c-0.38,0.16-0.79,0.24-1.24,0.24s-0.86-0.08-1.24-0.24c-0.38-0.16-0.71-0.38-0.98-0.66c-0.28-0.28-0.5-0.62-0.66-1.02
			c-0.16-0.4-0.24-0.84-0.24-1.32v-4.17c0-0.12,0.04-0.23,0.13-0.32c0.09-0.09,0.19-0.14,0.32-0.14s0.23,0.05,0.32,0.14
			s0.13,0.2,0.13,0.32v4.16c0,0.37,0.05,0.7,0.17,0.99c0.11,0.29,0.26,0.54,0.46,0.75c0.2,0.21,0.43,0.36,0.7,0.47
			c0.27,0.11,0.56,0.17,0.89,0.17c0.32,0,0.61-0.06,0.88-0.17c0.27-0.11,0.51-0.27,0.7-0.47c0.2-0.21,0.35-0.45,0.46-0.75
			c0.11-0.29,0.17-0.62,0.17-0.99v-4.16c0-0.12,0.04-0.23,0.13-0.32s0.19-0.14,0.32-0.14c0.12,0,0.23,0.05,0.32,0.14
			c0.09,0.09,0.13,0.2,0.13,0.32V-19.79z"/>
		<path class="st31" d="M-190.64-17.09c0,0.12-0.05,0.23-0.14,0.33c-0.09,0.09-0.2,0.14-0.32,0.14c-0.13,0-0.24-0.05-0.33-0.15
			l-2.06-2.55c-0.09-0.11-0.17-0.2-0.26-0.26c-0.08-0.06-0.2-0.09-0.36-0.09h-1.33v2.6c0,0.12-0.04,0.23-0.13,0.32
			s-0.19,0.14-0.32,0.14s-0.23-0.05-0.32-0.14s-0.13-0.2-0.13-0.32v-6.56c0-0.21,0.06-0.38,0.19-0.52c0.13-0.14,0.31-0.21,0.55-0.21
			h2.24c0.34,0,0.66,0.05,0.96,0.15s0.56,0.25,0.79,0.45c0.23,0.2,0.41,0.45,0.54,0.74s0.2,0.64,0.2,1.02
			c0,0.33-0.04,0.62-0.14,0.87c-0.09,0.25-0.22,0.46-0.38,0.64c-0.17,0.18-0.36,0.32-0.59,0.43c-0.23,0.11-0.48,0.19-0.75,0.23
			l2,2.47C-190.67-17.28-190.64-17.19-190.64-17.09z M-193.46-20.54c0.31,0,0.57-0.04,0.79-0.1c0.22-0.07,0.39-0.17,0.52-0.3
			c0.13-0.13,0.23-0.29,0.29-0.47c0.06-0.18,0.09-0.38,0.09-0.6c0-0.46-0.13-0.82-0.4-1.09c-0.26-0.27-0.67-0.4-1.23-0.4h-2.04v2.96
			H-193.46z"/>
		<path class="st31" d="M-182.75-19.79c0,0.48-0.08,0.92-0.24,1.32c-0.16,0.4-0.38,0.74-0.65,1.02c-0.28,0.28-0.61,0.5-0.98,0.66
			c-0.38,0.16-0.79,0.24-1.24,0.24s-0.86-0.08-1.24-0.24c-0.38-0.16-0.71-0.38-0.98-0.66s-0.5-0.62-0.65-1.02
			c-0.16-0.4-0.24-0.84-0.24-1.32v-4.17c0-0.12,0.04-0.23,0.13-0.32s0.19-0.14,0.32-0.14c0.12,0,0.23,0.05,0.32,0.14
			s0.13,0.2,0.13,0.32v4.16c0,0.37,0.06,0.7,0.17,0.99c0.11,0.29,0.26,0.54,0.46,0.75c0.2,0.21,0.43,0.36,0.7,0.47
			c0.27,0.11,0.56,0.17,0.88,0.17c0.32,0,0.61-0.06,0.88-0.17c0.27-0.11,0.51-0.27,0.7-0.47c0.2-0.21,0.35-0.45,0.46-0.75
			c0.11-0.29,0.17-0.62,0.17-0.99v-4.16c0-0.12,0.04-0.23,0.13-0.32s0.19-0.14,0.32-0.14c0.12,0,0.23,0.05,0.32,0.14
			s0.13,0.2,0.13,0.32V-19.79z"/>
	</g>
</g>
</svg>
