<?xml version="1.0" encoding="utf-8"?>
<!-- Generator: Adobe Illustrator 26.0.0, SVG Export Plug-In . SVG Version: 6.00 Build 0)  -->
<svg version="1.1" id="Layer_1" xmlns="http://www.w3.org/2000/svg" xmlns:xlink="http://www.w3.org/1999/xlink" x="0px" y="0px"
	 viewBox="0 0 217.82 46.14" style="enable-background:new 0 0 217.82 46.14;" xml:space="preserve">
<style type="text/css">
	.st0{opacity:0;fill:#FFFFFF;}
	.st1{fill:#FFFFFF;}
	.st2{fill:#C7B299;}
	.st3{fill:#FF0000;}
	.st4{fill:#00FF00;}
	.st5{fill:none;stroke:#000000;stroke-linecap:round;stroke-linejoin:round;stroke-miterlimit:10;}
	.st6{fill:none;stroke:#000000;stroke-linejoin:round;stroke-miterlimit:10;}
	.st7{fill:none;stroke:#000000;stroke-linecap:round;stroke-linejoin:round;}
	.st8{fill:none;stroke:#000000;stroke-linejoin:round;}
	.st9{fill:none;stroke:#231F20;stroke-linejoin:round;stroke-miterlimit:10;}
	.st10{fill:none;stroke:#231F20;stroke-linecap:round;stroke-linejoin:round;stroke-miterlimit:10;}
	.st11{fill:none;stroke:#000000;stroke-width:0.75;stroke-linecap:round;stroke-linejoin:round;stroke-miterlimit:10;}
	.st12{fill:none;stroke:#000000;stroke-linecap:round;stroke-miterlimit:10;}
	.st13{fill:none;stroke:#241F20;stroke-linecap:round;stroke-linejoin:round;stroke-miterlimit:10;}
	.st14{fill:none;stroke:#221F20;stroke-linecap:round;stroke-linejoin:round;stroke-miterlimit:10;}
	.st15{fill:#231F20;}
	.st16{fill:#00B921;}
	.st17{fill:#FFFFFF;stroke:#EFEFEF;stroke-width:0.25;stroke-miterlimit:10;}
	.st18{fill:#4BCA59;}
	.st19{fill-rule:evenodd;clip-rule:evenodd;fill:#FFFFFF;}
	.st20{fill:none;stroke:#020202;stroke-miterlimit:10;}
	.st21{fill:none;stroke:#000000;stroke-miterlimit:10;}
	.st22{fill:none;stroke:#000000;stroke-width:0.95;stroke-linecap:round;stroke-linejoin:round;stroke-miterlimit:10;}
	.st23{fill:none;stroke:#000000;stroke-linecap:round;stroke-linejoin:round;stroke-miterlimit:10;stroke-dasharray:2;}
	.st24{fill:none;stroke:#000000;stroke-width:0.93;stroke-linecap:round;stroke-linejoin:round;stroke-miterlimit:10;}
	.st25{fill:#020202;}
	.st26{fill:none;stroke:#020202;stroke-width:0.5;stroke-linecap:round;stroke-linejoin:round;stroke-miterlimit:10;}
	.st27{fill:none;stroke:#020202;stroke-linecap:round;stroke-linejoin:round;stroke-miterlimit:10;}
	.st28{fill:#FF6000;}
	.st29{fill:none;stroke:#000000;stroke-width:0.9;stroke-linecap:round;stroke-linejoin:round;stroke-miterlimit:10;}
	.st30{enable-background:new    ;}
	.st31{fill:#010101;}
	.st32{fill:none;stroke:#000000;stroke-width:1.3;stroke-linecap:round;stroke-linejoin:round;stroke-miterlimit:10;}
	.st33{fill:none;stroke:#000000;stroke-width:1.2;stroke-linecap:round;stroke-linejoin:round;stroke-miterlimit:10;}
	.st34{fill:none;stroke:#000000;stroke-width:1.3;stroke-miterlimit:10;}
	
		.st35{fill-rule:evenodd;clip-rule:evenodd;fill:none;stroke:#000000;stroke-width:1.3;stroke-linecap:round;stroke-linejoin:round;stroke-miterlimit:10;}
	.st36{fill:none;stroke:#000000;stroke-width:1.5;stroke-linecap:round;stroke-linejoin:round;stroke-miterlimit:10;}
	.st37{fill:none;stroke:#000000;stroke-width:1.3;stroke-linejoin:round;stroke-miterlimit:10;}
	.st38{fill:none;stroke:#000000;stroke-width:1.3;stroke-linecap:round;stroke-miterlimit:10;}
	.st39{fill:none;stroke:#000000;stroke-width:1.5;stroke-linejoin:round;stroke-miterlimit:10;}
	.st40{fill:none;stroke:#000000;stroke-width:1.7;stroke-linecap:round;stroke-linejoin:round;stroke-miterlimit:10;}
	
		.st41{fill-rule:evenodd;clip-rule:evenodd;fill:none;stroke:#000000;stroke-width:1.5;stroke-linecap:round;stroke-linejoin:round;stroke-miterlimit:10;}
	
		.st42{fill-rule:evenodd;clip-rule:evenodd;fill:none;stroke:#000000;stroke-linecap:round;stroke-linejoin:round;stroke-miterlimit:10;}
	.st43{fill:none;stroke:#000000;stroke-width:1.8;stroke-linecap:round;stroke-linejoin:round;stroke-miterlimit:10;}
	
		.st44{fill-rule:evenodd;clip-rule:evenodd;fill:none;stroke:#000000;stroke-width:1.8;stroke-linecap:round;stroke-linejoin:round;stroke-miterlimit:10;}
	
		.st45{fill-rule:evenodd;clip-rule:evenodd;fill:none;stroke:#000000;stroke-width:1.7;stroke-linecap:round;stroke-linejoin:round;stroke-miterlimit:10;}
	.st46{fill:#FF8BB3;}
</style>
<rect x="0" class="st0" width="217.82" height="46.14"/>
<g id="Group_Copy_3" transform="translate(1 60)">
	<g class="st30">
		<path class="st31" d="M0.46-57.08c0-0.24,0.08-0.45,0.26-0.62c0.17-0.17,0.37-0.26,0.61-0.26c0.25,0,0.45,0.08,0.62,0.26
			c0.17,0.17,0.25,0.38,0.25,0.62v8.72h4.85c0.22,0,0.42,0.08,0.6,0.25c0.18,0.17,0.26,0.37,0.26,0.6c0,0.25-0.08,0.45-0.25,0.61
			c-0.17,0.16-0.37,0.24-0.62,0.24H1.61c-0.37,0-0.66-0.11-0.86-0.34c-0.2-0.22-0.3-0.5-0.3-0.82V-57.08z"/>
		<path class="st31" d="M12.48-55.29c0.51,0,0.99,0.08,1.43,0.23c0.44,0.15,0.82,0.37,1.15,0.65c0.33,0.28,0.59,0.62,0.79,1.02
			c0.2,0.39,0.31,0.83,0.34,1.31c0.01,0.16,0.02,0.34,0.02,0.54c0,0.2,0.01,0.4,0.01,0.6s0,0.41-0.01,0.61
			c-0.01,0.2-0.01,0.38-0.02,0.54c-0.03,0.47-0.15,0.9-0.34,1.3c-0.2,0.4-0.46,0.75-0.79,1.04c-0.33,0.29-0.71,0.52-1.15,0.69
			c-0.44,0.17-0.91,0.25-1.43,0.25c-0.5,0-0.97-0.08-1.41-0.25c-0.44-0.16-0.82-0.39-1.15-0.69s-0.59-0.64-0.79-1.04
			c-0.2-0.4-0.32-0.83-0.35-1.3c-0.01-0.16-0.02-0.34-0.02-0.54c-0.01-0.2-0.01-0.4-0.01-0.61s0-0.4,0.01-0.6
			c0-0.2,0.01-0.38,0.02-0.54c0.03-0.48,0.15-0.92,0.35-1.31s0.47-0.73,0.79-1.02c0.33-0.28,0.71-0.5,1.15-0.65
			C11.51-55.21,11.98-55.29,12.48-55.29z M12.47-53.65c-0.6,0-1.07,0.17-1.42,0.5s-0.54,0.77-0.58,1.3
			c-0.01,0.13-0.02,0.27-0.02,0.43c0,0.16-0.01,0.33-0.01,0.5c0,0.17,0,0.34,0.01,0.5c0.01,0.17,0.01,0.31,0.02,0.42
			c0.05,0.57,0.26,1.02,0.61,1.35c0.35,0.34,0.82,0.5,1.39,0.5s1.04-0.17,1.4-0.5c0.36-0.34,0.56-0.79,0.62-1.35
			c0.01-0.12,0.02-0.26,0.02-0.42c0-0.16,0-0.33,0-0.5c0-0.17,0-0.34-0.01-0.5c0-0.16-0.01-0.3-0.01-0.43
			c-0.03-0.53-0.22-0.97-0.58-1.3C13.56-53.49,13.08-53.65,12.47-53.65z"/>
		<path class="st31" d="M19.38-58.07c0.25,0,0.45,0.08,0.62,0.25c0.17,0.17,0.25,0.37,0.25,0.62v5.41h0.22
			c0.18,0,0.33-0.02,0.44-0.06c0.11-0.04,0.25-0.14,0.41-0.3l2.75-2.77c0.17-0.18,0.38-0.28,0.62-0.29
			c0.24-0.01,0.45,0.07,0.62,0.26c0.15,0.17,0.22,0.37,0.22,0.58s-0.08,0.41-0.24,0.57l-2.86,2.79l2.86,2.95
			c0.17,0.18,0.26,0.38,0.27,0.61c0.01,0.22-0.07,0.43-0.24,0.61c-0.16,0.18-0.36,0.27-0.61,0.26s-0.45-0.1-0.62-0.28l-2.77-2.91
			c-0.16-0.17-0.3-0.28-0.41-0.32c-0.11-0.04-0.25-0.06-0.42-0.06h-0.24v2.71c0,0.24-0.08,0.45-0.25,0.62
			c-0.17,0.17-0.37,0.25-0.62,0.25c-0.22,0-0.42-0.09-0.58-0.26s-0.25-0.37-0.25-0.61v-9.74c0-0.25,0.08-0.45,0.24-0.62
			C18.95-57.99,19.15-58.07,19.38-58.07z"/>
		<path class="st31" d="M34.52-49.75c-0.09,1-0.43,1.79-1.03,2.38c-0.6,0.58-1.44,0.87-2.5,0.87c-0.36,0-0.72-0.05-1.08-0.15
			c-0.36-0.1-0.66-0.21-0.92-0.33v2.61c0,0.24-0.08,0.45-0.25,0.62s-0.37,0.25-0.6,0.25c-0.25,0-0.45-0.08-0.61-0.25
			s-0.24-0.37-0.24-0.62v-9.39c0-0.11,0.02-0.2,0.05-0.26c0.03-0.07,0.1-0.14,0.21-0.22c0.11-0.07,0.27-0.17,0.49-0.29
			s0.47-0.24,0.77-0.34c0.29-0.11,0.62-0.2,0.98-0.28s0.74-0.12,1.14-0.12c0.53,0,1.01,0.08,1.44,0.23c0.43,0.15,0.79,0.38,1.1,0.66
			c0.3,0.29,0.55,0.63,0.73,1.04c0.18,0.41,0.29,0.85,0.34,1.34c0.01,0.14,0.02,0.31,0.02,0.5c0.01,0.2,0.01,0.4,0.01,0.62
			c0,0.21,0,0.42-0.01,0.62C34.54-50.06,34.53-49.89,34.52-49.75z M32.82-51.78c-0.05-0.61-0.24-1.07-0.55-1.39
			c-0.31-0.32-0.78-0.48-1.38-0.48c-0.18,0-0.37,0.02-0.55,0.06c-0.19,0.04-0.37,0.09-0.54,0.14c-0.18,0.06-0.34,0.12-0.48,0.19
			c-0.14,0.07-0.25,0.14-0.33,0.2v4.4c0.15,0.11,0.4,0.22,0.75,0.34c0.35,0.12,0.73,0.19,1.12,0.19c0.65,0,1.13-0.16,1.44-0.46
			c0.31-0.31,0.48-0.75,0.53-1.33c0.01-0.11,0.02-0.24,0.02-0.4s0-0.33,0-0.5s0-0.35,0-0.51S32.83-51.65,32.82-51.78z"/>
		<path class="st31" d="M40.93-55.11c0.25,0.07,0.42,0.18,0.51,0.31c0.1,0.13,0.14,0.29,0.14,0.49c0,0.18-0.06,0.36-0.19,0.54
			s-0.33,0.26-0.61,0.26c-0.15,0-0.32-0.03-0.51-0.08c-0.19-0.05-0.42-0.07-0.69-0.06c-0.37,0.01-0.65,0.12-0.83,0.31
			c-0.18,0.2-0.27,0.52-0.27,0.97v4.93c0,0.25-0.08,0.45-0.25,0.61s-0.37,0.24-0.62,0.24c-0.22,0-0.42-0.08-0.58-0.24
			c-0.17-0.16-0.25-0.36-0.25-0.61v-5.2c0-0.81,0.23-1.45,0.69-1.93c0.46-0.47,1.12-0.71,2-0.71c0.28,0,0.55,0.02,0.81,0.05
			C40.55-55.21,40.76-55.16,40.93-55.11z"/>
		<path class="st31" d="M44.98-57.25c0,0.27-0.09,0.5-0.27,0.69c-0.18,0.19-0.41,0.29-0.67,0.29c-0.28,0-0.51-0.1-0.69-0.29
			c-0.18-0.19-0.27-0.42-0.27-0.69c0-0.27,0.09-0.49,0.27-0.67c0.18-0.18,0.41-0.27,0.69-0.27c0.27,0,0.49,0.09,0.67,0.27
			S44.98-57.52,44.98-57.25z M44.04-55.17c0.23,0,0.43,0.08,0.6,0.25c0.17,0.17,0.25,0.37,0.25,0.62v6.85
			c0,0.24-0.08,0.45-0.24,0.62c-0.16,0.17-0.36,0.25-0.61,0.25c-0.22,0-0.42-0.08-0.59-0.25c-0.17-0.17-0.26-0.37-0.26-0.62v-6.85
			c0-0.24,0.08-0.45,0.24-0.62C43.59-55.09,43.79-55.17,44.04-55.17z"/>
		<path class="st31" d="M46.68-53.94c-0.06-0.16-0.09-0.31-0.07-0.46c0.02-0.15,0.06-0.28,0.14-0.39c0.08-0.11,0.18-0.2,0.3-0.27
			c0.12-0.07,0.25-0.1,0.39-0.1c0.22,0,0.41,0.06,0.55,0.18c0.14,0.12,0.25,0.28,0.31,0.46l2.16,5.17c0.01,0.03,0.03,0.05,0.06,0.05
			c0.03,0,0.06-0.02,0.08-0.05l1.98-5.14c0.07-0.2,0.18-0.37,0.33-0.49c0.14-0.12,0.32-0.18,0.54-0.18c0.16,0,0.3,0.04,0.42,0.1
			c0.12,0.07,0.22,0.16,0.3,0.28s0.13,0.25,0.14,0.4c0.02,0.15-0.01,0.3-0.07,0.45l-3.01,7.15c-0.32,0.77-0.68,1.41-1.08,1.92
			c-0.4,0.51-0.77,0.87-1.1,1.09c-0.25,0.16-0.49,0.24-0.72,0.24c-0.21,0-0.4-0.07-0.56-0.22s-0.24-0.34-0.24-0.58
			c0-0.12,0.03-0.24,0.09-0.37c0.06-0.13,0.15-0.24,0.26-0.32c0.29-0.18,0.59-0.45,0.9-0.81s0.57-0.82,0.78-1.4L46.68-53.94z"/>
		<path class="st31" d="M62.23-48.02c0,0.15-0.02,0.27-0.06,0.36c-0.04,0.09-0.12,0.18-0.24,0.26c-0.12,0.08-0.28,0.16-0.48,0.27
			c-0.2,0.1-0.45,0.2-0.73,0.29c-0.28,0.1-0.6,0.18-0.96,0.24c-0.36,0.06-0.74,0.1-1.16,0.1c-0.54,0-1.02-0.07-1.43-0.21
			c-0.41-0.14-0.75-0.33-1.02-0.58c-0.27-0.25-0.48-0.54-0.62-0.88s-0.21-0.7-0.21-1.1c0-0.35,0.06-0.69,0.19-1.01
			s0.33-0.6,0.59-0.85c0.27-0.25,0.6-0.44,1.01-0.58c0.41-0.14,0.89-0.22,1.46-0.22c0.37,0,0.71,0.02,1.02,0.07
			c0.3,0.05,0.64,0.12,1.02,0.2v-0.53c0-0.54-0.14-0.94-0.42-1.18c-0.28-0.25-0.73-0.37-1.36-0.37c-0.33,0-0.65,0.04-0.95,0.11
			c-0.3,0.07-0.57,0.15-0.79,0.24c-0.35,0.12-0.63,0.1-0.85-0.05c-0.21-0.15-0.32-0.35-0.32-0.59c0-0.14,0.04-0.28,0.12-0.42
			s0.23-0.26,0.44-0.36c0.23-0.12,0.58-0.23,1.03-0.33c0.45-0.1,0.93-0.15,1.42-0.15c1.02,0,1.83,0.25,2.42,0.74
			c0.59,0.5,0.89,1.28,0.89,2.36V-48.02z M58.74-47.99c0.55,0,0.98-0.07,1.28-0.2s0.49-0.23,0.58-0.3v-1.78
			c-0.35-0.09-0.67-0.15-0.96-0.2c-0.29-0.05-0.61-0.07-0.98-0.07c-0.49,0-0.89,0.1-1.21,0.31c-0.31,0.21-0.47,0.5-0.47,0.89
			c0,0.44,0.15,0.77,0.45,1C57.73-48.1,58.17-47.99,58.74-47.99z"/>
		<path class="st31" d="M78.14-50.54c0,0.56-0.11,1.09-0.33,1.58s-0.53,0.92-0.93,1.29c-0.4,0.37-0.87,0.66-1.41,0.87
			s-1.14,0.32-1.79,0.32c-0.66,0-1.27-0.11-1.83-0.34c-0.56-0.23-1.05-0.55-1.46-0.95c-0.42-0.41-0.75-0.88-1.01-1.43
			c-0.26-0.55-0.41-1.14-0.45-1.79c-0.08-0.86-0.08-1.72,0-2.56c0.04-0.63,0.19-1.22,0.45-1.77c0.26-0.55,0.59-1.03,1.01-1.43
			c0.42-0.4,0.9-0.72,1.46-0.96c0.56-0.23,1.17-0.35,1.83-0.35c0.93,0,1.74,0.21,2.44,0.64c0.7,0.43,1.24,1.01,1.62,1.74
			c0.09,0.14,0.13,0.29,0.13,0.46c0,0.21-0.08,0.4-0.25,0.57c-0.17,0.17-0.36,0.25-0.59,0.25c-0.16,0-0.3-0.04-0.43-0.13
			s-0.22-0.19-0.3-0.3c-0.25-0.48-0.59-0.87-1.02-1.16s-0.97-0.44-1.58-0.44c-0.44,0-0.83,0.07-1.19,0.22
			c-0.36,0.15-0.67,0.36-0.93,0.63c-0.26,0.27-0.47,0.59-0.63,0.96c-0.16,0.37-0.26,0.78-0.3,1.22c-0.06,0.78-0.06,1.54,0,2.29
			c0.04,0.44,0.15,0.84,0.31,1.2c0.17,0.36,0.38,0.68,0.65,0.95s0.58,0.47,0.94,0.62s0.75,0.22,1.19,0.22
			c0.42,0,0.79-0.06,1.13-0.18c0.34-0.12,0.62-0.28,0.86-0.48c0.23-0.2,0.42-0.44,0.54-0.71s0.19-0.57,0.19-0.88v-0.77h-1.92
			c-0.24,0-0.43-0.08-0.59-0.24c-0.16-0.16-0.24-0.36-0.24-0.58c0-0.23,0.08-0.43,0.24-0.58c0.16-0.15,0.36-0.23,0.59-0.23h2.32
			c0.42,0,0.74,0.12,0.96,0.38s0.33,0.54,0.33,0.88V-50.54z"/>
		<path class="st31" d="M83.84-55.29c0.51,0,0.99,0.08,1.43,0.23c0.44,0.15,0.82,0.37,1.15,0.65c0.33,0.28,0.59,0.62,0.79,1.02
			c0.2,0.39,0.31,0.83,0.35,1.31c0.01,0.16,0.02,0.34,0.02,0.54c0,0.2,0.01,0.4,0.01,0.6s0,0.41-0.01,0.61
			c-0.01,0.2-0.01,0.38-0.02,0.54c-0.03,0.47-0.15,0.9-0.35,1.3c-0.2,0.4-0.46,0.75-0.79,1.04s-0.71,0.52-1.15,0.69
			c-0.44,0.17-0.91,0.25-1.43,0.25c-0.5,0-0.97-0.08-1.41-0.25c-0.44-0.16-0.82-0.39-1.15-0.69s-0.59-0.64-0.79-1.04
			c-0.2-0.4-0.32-0.83-0.35-1.3c-0.01-0.16-0.02-0.34-0.02-0.54c0-0.2-0.01-0.4-0.01-0.61s0-0.4,0.01-0.6
			c0.01-0.2,0.01-0.38,0.02-0.54c0.03-0.48,0.15-0.92,0.35-1.31s0.47-0.73,0.79-1.02c0.33-0.28,0.71-0.5,1.15-0.65
			C82.87-55.21,83.34-55.29,83.84-55.29z M83.83-53.65c-0.6,0-1.07,0.17-1.42,0.5s-0.54,0.77-0.58,1.3
			c-0.01,0.13-0.02,0.27-0.02,0.43c-0.01,0.16-0.01,0.33-0.01,0.5c0,0.17,0,0.34,0.01,0.5c0,0.17,0.01,0.31,0.02,0.42
			c0.05,0.57,0.26,1.02,0.61,1.35s0.82,0.5,1.39,0.5c0.58,0,1.04-0.17,1.4-0.5s0.56-0.79,0.62-1.35c0.01-0.12,0.02-0.26,0.02-0.42
			c0-0.16,0-0.33,0-0.5c0-0.17,0-0.34-0.01-0.5c-0.01-0.16-0.01-0.3-0.01-0.43c-0.03-0.53-0.22-0.97-0.58-1.3
			S84.44-53.65,83.83-53.65z"/>
		<path class="st31" d="M97.11-49.75c-0.09,1-0.43,1.79-1.03,2.38c-0.6,0.58-1.44,0.87-2.5,0.87c-0.36,0-0.72-0.05-1.08-0.15
			c-0.36-0.1-0.66-0.21-0.92-0.33v2.61c0,0.24-0.08,0.45-0.25,0.62s-0.37,0.25-0.6,0.25c-0.25,0-0.45-0.08-0.61-0.25
			s-0.24-0.37-0.24-0.62v-9.39c0-0.11,0.02-0.2,0.05-0.26c0.03-0.07,0.1-0.14,0.21-0.22c0.11-0.07,0.27-0.17,0.49-0.29
			s0.47-0.24,0.77-0.34c0.29-0.11,0.62-0.2,0.98-0.28s0.74-0.12,1.14-0.12c0.53,0,1.01,0.08,1.44,0.23c0.43,0.15,0.79,0.38,1.1,0.66
			c0.3,0.29,0.55,0.63,0.73,1.04c0.18,0.41,0.29,0.85,0.34,1.34c0.01,0.14,0.02,0.31,0.02,0.5c0.01,0.2,0.01,0.4,0.01,0.62
			c0,0.21,0,0.42-0.01,0.62C97.13-50.06,97.12-49.89,97.11-49.75z M95.41-51.78c-0.05-0.61-0.24-1.07-0.55-1.39
			s-0.78-0.48-1.38-0.48c-0.18,0-0.37,0.02-0.55,0.06c-0.19,0.04-0.37,0.09-0.54,0.14c-0.18,0.06-0.34,0.12-0.48,0.19
			c-0.14,0.07-0.25,0.14-0.33,0.2v4.4c0.15,0.11,0.4,0.22,0.75,0.34c0.35,0.12,0.73,0.19,1.12,0.19c0.65,0,1.13-0.16,1.44-0.46
			c0.31-0.31,0.48-0.75,0.53-1.33c0.01-0.11,0.02-0.24,0.02-0.4s0-0.33,0-0.5s0-0.35,0-0.51S95.43-51.65,95.41-51.78z"/>
		<path class="st31" d="M101.35-57.25c0,0.27-0.09,0.5-0.27,0.69c-0.18,0.19-0.41,0.29-0.67,0.29c-0.28,0-0.51-0.1-0.69-0.29
			c-0.18-0.19-0.27-0.42-0.27-0.69c0-0.27,0.09-0.49,0.27-0.67c0.18-0.18,0.41-0.27,0.69-0.27c0.27,0,0.49,0.09,0.67,0.27
			S101.35-57.52,101.35-57.25z M100.41-55.17c0.23,0,0.43,0.08,0.6,0.25c0.17,0.17,0.25,0.37,0.25,0.62v6.85
			c0,0.24-0.08,0.45-0.24,0.62c-0.16,0.17-0.36,0.25-0.61,0.25c-0.22,0-0.42-0.08-0.59-0.25c-0.17-0.17-0.26-0.37-0.26-0.62v-6.85
			c0-0.24,0.08-0.45,0.24-0.62C99.96-55.09,100.16-55.17,100.41-55.17z"/>
		<path class="st31" d="M111.1-47.46c0,0.24-0.08,0.45-0.24,0.62s-0.36,0.25-0.61,0.25c-0.22,0-0.42-0.08-0.59-0.25
			s-0.26-0.37-0.26-0.62v-4.37c0-0.32-0.05-0.59-0.15-0.82c-0.1-0.23-0.24-0.42-0.41-0.57c-0.17-0.15-0.37-0.26-0.59-0.33
			c-0.22-0.07-0.46-0.11-0.7-0.11c-0.39,0-0.77,0.05-1.11,0.14c-0.35,0.09-0.61,0.2-0.79,0.31v5.74c0,0.24-0.08,0.45-0.24,0.62
			s-0.36,0.25-0.61,0.25c-0.22,0-0.42-0.08-0.59-0.25s-0.26-0.37-0.26-0.62v-6.29c0-0.17,0.03-0.3,0.08-0.39
			c0.05-0.09,0.14-0.18,0.26-0.26c0.12-0.08,0.28-0.18,0.48-0.28c0.2-0.1,0.44-0.2,0.72-0.29c0.28-0.09,0.59-0.17,0.95-0.22
			c0.36-0.06,0.74-0.09,1.16-0.09c1.16,0,2.04,0.29,2.62,0.87c0.59,0.58,0.88,1.42,0.88,2.5V-47.46z"/>
		<path class="st31" d="M120.07-48.02c0,0.15-0.02,0.27-0.06,0.36c-0.04,0.09-0.12,0.18-0.24,0.26c-0.12,0.08-0.28,0.16-0.48,0.27
			c-0.2,0.1-0.45,0.2-0.73,0.29c-0.28,0.1-0.6,0.18-0.96,0.24c-0.36,0.06-0.74,0.1-1.16,0.1c-0.54,0-1.02-0.07-1.43-0.21
			c-0.41-0.14-0.75-0.33-1.02-0.58c-0.27-0.25-0.48-0.54-0.62-0.88s-0.21-0.7-0.21-1.1c0-0.35,0.06-0.69,0.19-1.01
			s0.33-0.6,0.59-0.85c0.27-0.25,0.6-0.44,1.01-0.58c0.41-0.14,0.89-0.22,1.46-0.22c0.37,0,0.71,0.02,1.02,0.07
			c0.3,0.05,0.64,0.12,1.02,0.2v-0.53c0-0.54-0.14-0.94-0.42-1.18c-0.28-0.25-0.73-0.37-1.36-0.37c-0.33,0-0.65,0.04-0.95,0.11
			c-0.3,0.07-0.57,0.15-0.79,0.24c-0.35,0.12-0.63,0.1-0.85-0.05c-0.21-0.15-0.32-0.35-0.32-0.59c0-0.14,0.04-0.28,0.12-0.42
			s0.23-0.26,0.44-0.36c0.23-0.12,0.58-0.23,1.03-0.33c0.45-0.1,0.93-0.15,1.42-0.15c1.02,0,1.83,0.25,2.42,0.74
			c0.59,0.5,0.89,1.28,0.89,2.36V-48.02z M116.58-47.99c0.55,0,0.98-0.07,1.28-0.2s0.49-0.23,0.58-0.3v-1.78
			c-0.35-0.09-0.67-0.15-0.96-0.2c-0.29-0.05-0.61-0.07-0.98-0.07c-0.49,0-0.89,0.1-1.21,0.31c-0.31,0.21-0.47,0.5-0.47,0.89
			c0,0.44,0.15,0.77,0.45,1C115.57-48.1,116.01-47.99,116.58-47.99z"/>
		<path class="st31" d="M126.93-46.81c-0.25,0.11-0.53,0.18-0.85,0.23c-0.32,0.05-0.63,0.07-0.94,0.07c-0.46,0-0.85-0.07-1.18-0.22
			c-0.33-0.15-0.61-0.35-0.82-0.61s-0.38-0.56-0.49-0.91c-0.11-0.35-0.16-0.73-0.16-1.13v-6.69c0-0.24,0.08-0.45,0.24-0.62
			c0.16-0.17,0.36-0.25,0.61-0.25c0.23,0,0.43,0.08,0.6,0.25c0.17,0.17,0.25,0.37,0.25,0.62v1.22h2.21c0.21,0,0.4,0.07,0.56,0.22
			c0.16,0.14,0.24,0.32,0.24,0.54s-0.08,0.39-0.24,0.54c-0.16,0.14-0.35,0.22-0.56,0.22h-2.21v3.98c0,0.4,0.09,0.72,0.27,0.94
			s0.47,0.33,0.86,0.33c0.21,0,0.41-0.03,0.6-0.08s0.37-0.11,0.55-0.16c0.16-0.04,0.31-0.05,0.44-0.02
			c0.13,0.03,0.24,0.08,0.33,0.15c0.08,0.07,0.15,0.16,0.2,0.27s0.07,0.23,0.07,0.34c0,0.16-0.04,0.31-0.13,0.45
			C127.3-47,127.15-46.89,126.93-46.81z"/>
		<path class="st31" d="M130.95-54.42c0.23-0.22,0.55-0.42,0.95-0.6c0.4-0.18,0.84-0.26,1.32-0.26c0.97,0,1.74,0.29,2.32,0.86
			s0.86,1.41,0.86,2.52v4.43c0,0.25-0.08,0.46-0.24,0.62s-0.36,0.26-0.61,0.26c-0.23,0-0.43-0.09-0.6-0.26s-0.25-0.38-0.25-0.62
			v-4.32c0-0.59-0.15-1.04-0.46-1.37c-0.3-0.32-0.73-0.49-1.27-0.49c-0.42,0-0.81,0.1-1.17,0.3c-0.36,0.2-0.65,0.43-0.86,0.7v5.2
			c0,0.24-0.08,0.45-0.23,0.62s-0.35,0.25-0.6,0.25c-0.24,0-0.44-0.08-0.61-0.25s-0.26-0.37-0.26-0.62v-9.76
			c0-0.25,0.08-0.45,0.24-0.62c0.16-0.16,0.36-0.25,0.61-0.25c0.24,0,0.43,0.08,0.6,0.25c0.17,0.17,0.25,0.37,0.25,0.62V-54.42z"/>
		<path class="st31" d="M151.99-49.9c0,0.57-0.09,1.05-0.26,1.46c-0.18,0.41-0.42,0.75-0.74,1.01s-0.68,0.45-1.1,0.58
			s-0.86,0.18-1.34,0.18h-3.68c-0.44,0-0.77-0.13-0.99-0.38c-0.22-0.26-0.34-0.57-0.34-0.93v-8.62c0-0.36,0.11-0.67,0.33-0.93
			c0.22-0.26,0.55-0.38,0.99-0.38h3.56c0.52,0,0.98,0.08,1.39,0.24c0.41,0.16,0.74,0.37,1.01,0.64c0.27,0.27,0.48,0.58,0.61,0.93
			s0.21,0.72,0.21,1.12c0,0.35-0.04,0.66-0.11,0.93c-0.07,0.27-0.18,0.5-0.31,0.7c-0.13,0.2-0.29,0.37-0.46,0.5
			c-0.18,0.13-0.37,0.24-0.57,0.33v0.02c0.54,0.16,0.98,0.47,1.3,0.92S151.99-50.57,151.99-49.9z M148.23-53.21
			c0.6,0,1.04-0.14,1.32-0.41c0.28-0.27,0.42-0.65,0.42-1.14c0-0.51-0.15-0.89-0.44-1.15c-0.29-0.25-0.73-0.38-1.29-0.38h-2.99v3.07
			H148.23z M145.24-48.29h3.1c0.65,0,1.13-0.15,1.44-0.44c0.31-0.29,0.47-0.72,0.47-1.27c0-0.53-0.16-0.95-0.49-1.24
			c-0.33-0.29-0.76-0.44-1.31-0.44h-3.21V-48.29z"/>
		<path class="st31" d="M157.55-55.29c0.51,0,0.99,0.08,1.43,0.23c0.44,0.15,0.82,0.37,1.15,0.65c0.33,0.28,0.59,0.62,0.79,1.02
			c0.2,0.39,0.31,0.83,0.35,1.31c0.01,0.16,0.02,0.34,0.02,0.54c0,0.2,0.01,0.4,0.01,0.6s0,0.41-0.01,0.61
			c-0.01,0.2-0.01,0.38-0.02,0.54c-0.03,0.47-0.15,0.9-0.35,1.3c-0.2,0.4-0.46,0.75-0.79,1.04s-0.71,0.52-1.15,0.69
			c-0.44,0.17-0.91,0.25-1.43,0.25c-0.5,0-0.97-0.08-1.41-0.25c-0.44-0.16-0.82-0.39-1.15-0.69s-0.59-0.64-0.79-1.04
			c-0.2-0.4-0.32-0.83-0.35-1.3c-0.01-0.16-0.02-0.34-0.02-0.54c0-0.2-0.01-0.4-0.01-0.61s0-0.4,0.01-0.6
			c0.01-0.2,0.01-0.38,0.02-0.54c0.03-0.48,0.15-0.92,0.35-1.31s0.47-0.73,0.79-1.02c0.33-0.28,0.71-0.5,1.15-0.65
			C156.58-55.21,157.05-55.29,157.55-55.29z M157.54-53.65c-0.6,0-1.07,0.17-1.42,0.5s-0.54,0.77-0.58,1.3
			c-0.01,0.13-0.02,0.27-0.02,0.43c-0.01,0.16-0.01,0.33-0.01,0.5c0,0.17,0,0.34,0.01,0.5c0,0.17,0.01,0.31,0.02,0.42
			c0.05,0.57,0.26,1.02,0.61,1.35s0.82,0.5,1.39,0.5c0.58,0,1.04-0.17,1.4-0.5s0.56-0.79,0.62-1.35c0.01-0.12,0.02-0.26,0.02-0.42
			c0-0.16,0-0.33,0-0.5c0-0.17,0-0.34-0.01-0.5c-0.01-0.16-0.01-0.3-0.01-0.43c-0.03-0.53-0.22-0.97-0.58-1.3
			S158.15-53.65,157.54-53.65z"/>
		<path class="st31" d="M167.65-55.11c0.25,0.07,0.42,0.18,0.51,0.31c0.1,0.13,0.14,0.29,0.14,0.49c0,0.18-0.06,0.36-0.19,0.54
			s-0.33,0.26-0.61,0.26c-0.15,0-0.32-0.03-0.51-0.08c-0.19-0.05-0.42-0.07-0.69-0.06c-0.37,0.01-0.65,0.12-0.83,0.31
			c-0.18,0.2-0.27,0.52-0.27,0.97v4.93c0,0.25-0.08,0.45-0.25,0.61s-0.37,0.24-0.62,0.24c-0.22,0-0.42-0.08-0.58-0.24
			c-0.17-0.16-0.25-0.36-0.25-0.61v-5.2c0-0.81,0.23-1.45,0.69-1.93c0.46-0.47,1.12-0.71,2-0.71c0.28,0,0.55,0.02,0.81,0.05
			C167.27-55.21,167.48-55.16,167.65-55.11z"/>
		<path class="st31" d="M169.43-52.07c0.08-1,0.42-1.79,1-2.36c0.58-0.57,1.39-0.86,2.42-0.86c0.38,0,0.76,0.05,1.14,0.14
			c0.37,0.1,0.69,0.2,0.96,0.32v-2.4c0-0.25,0.08-0.45,0.25-0.62c0.17-0.16,0.37-0.25,0.6-0.25c0.25,0,0.45,0.08,0.61,0.25
			c0.16,0.17,0.24,0.37,0.24,0.62v9.09c0,0.15-0.02,0.27-0.06,0.37c-0.04,0.1-0.12,0.19-0.25,0.27c-0.11,0.08-0.26,0.17-0.47,0.28
			c-0.21,0.11-0.45,0.22-0.74,0.33c-0.28,0.11-0.6,0.2-0.95,0.27c-0.35,0.07-0.72,0.11-1.1,0.11c-0.54,0-1.03-0.08-1.46-0.24
			s-0.8-0.38-1.11-0.67c-0.32-0.29-0.56-0.63-0.74-1.04c-0.18-0.41-0.29-0.85-0.34-1.34c-0.01-0.14-0.02-0.31-0.02-0.51
			c-0.01-0.2-0.01-0.41-0.01-0.62s0-0.42,0.01-0.62C169.41-51.75,169.42-51.92,169.43-52.07z M171.13-50.01
			c0.1,1.25,0.76,1.87,1.98,1.87c0.17,0,0.35-0.02,0.53-0.06c0.18-0.04,0.36-0.09,0.53-0.14s0.32-0.12,0.46-0.18
			s0.24-0.13,0.33-0.19v-4.45c-0.17-0.11-0.44-0.21-0.8-0.33c-0.36-0.11-0.75-0.17-1.17-0.17c-0.61,0-1.06,0.15-1.36,0.45
			s-0.46,0.74-0.5,1.33c-0.01,0.11-0.02,0.24-0.02,0.41c-0.01,0.16-0.01,0.34-0.01,0.51s0,0.35,0.01,0.51
			C171.11-50.28,171.12-50.13,171.13-50.01z"/>
		<path class="st31" d="M182.75-55.29c0.51,0,0.99,0.08,1.43,0.23c0.44,0.15,0.82,0.37,1.15,0.65c0.33,0.28,0.59,0.62,0.79,1.02
			c0.2,0.39,0.31,0.83,0.34,1.31c0.01,0.16,0.02,0.34,0.02,0.54c0,0.2,0.01,0.4,0.01,0.6s0,0.41-0.01,0.61
			c-0.01,0.2-0.01,0.38-0.02,0.54c-0.03,0.47-0.15,0.9-0.34,1.3c-0.2,0.4-0.46,0.75-0.79,1.04c-0.33,0.29-0.71,0.52-1.15,0.69
			c-0.44,0.17-0.91,0.25-1.43,0.25c-0.5,0-0.97-0.08-1.41-0.25c-0.44-0.16-0.82-0.39-1.15-0.69s-0.59-0.64-0.79-1.04
			c-0.2-0.4-0.32-0.83-0.35-1.3c-0.01-0.16-0.02-0.34-0.02-0.54c-0.01-0.2-0.01-0.4-0.01-0.61s0-0.4,0.01-0.6
			c0-0.2,0.01-0.38,0.02-0.54c0.03-0.48,0.15-0.92,0.35-1.31s0.47-0.73,0.79-1.02c0.33-0.28,0.71-0.5,1.15-0.65
			C181.78-55.21,182.25-55.29,182.75-55.29z M182.74-53.65c-0.6,0-1.07,0.17-1.42,0.5s-0.54,0.77-0.58,1.3
			c-0.01,0.13-0.02,0.27-0.02,0.43c0,0.16-0.01,0.33-0.01,0.5c0,0.17,0,0.34,0.01,0.5c0.01,0.17,0.01,0.31,0.02,0.42
			c0.05,0.57,0.26,1.02,0.61,1.35c0.35,0.34,0.82,0.5,1.39,0.5s1.04-0.17,1.4-0.5c0.36-0.34,0.56-0.79,0.62-1.35
			c0.01-0.12,0.02-0.26,0.02-0.42c0-0.16,0-0.33,0-0.5c0-0.17,0-0.34-0.01-0.5c0-0.16-0.01-0.3-0.01-0.43
			c-0.03-0.53-0.22-0.97-0.58-1.3C183.83-53.49,183.35-53.65,182.74-53.65z"/>
		<path class="st31" d="M189.67-58.07c0.24,0,0.43,0.08,0.6,0.25c0.17,0.17,0.25,0.37,0.25,0.62v9.74c0,0.24-0.08,0.45-0.24,0.62
			s-0.36,0.25-0.61,0.25c-0.22,0-0.42-0.08-0.59-0.25s-0.26-0.37-0.26-0.62v-9.74c0-0.25,0.08-0.45,0.24-0.62
			C189.22-57.99,189.43-58.07,189.67-58.07z"/>
		<path class="st31" d="M196.57-55.29c0.51,0,0.99,0.08,1.43,0.23c0.44,0.15,0.82,0.37,1.15,0.65c0.33,0.28,0.59,0.62,0.79,1.02
			c0.2,0.39,0.31,0.83,0.34,1.31c0.01,0.16,0.02,0.34,0.02,0.54c0,0.2,0.01,0.4,0.01,0.6s0,0.41-0.01,0.61
			c-0.01,0.2-0.01,0.38-0.02,0.54c-0.03,0.47-0.15,0.9-0.34,1.3c-0.2,0.4-0.46,0.75-0.79,1.04c-0.33,0.29-0.71,0.52-1.15,0.69
			c-0.44,0.17-0.91,0.25-1.43,0.25c-0.5,0-0.97-0.08-1.41-0.25c-0.44-0.16-0.82-0.39-1.15-0.69s-0.59-0.64-0.79-1.04
			c-0.2-0.4-0.32-0.83-0.35-1.3c-0.01-0.16-0.02-0.34-0.02-0.54c-0.01-0.2-0.01-0.4-0.01-0.61s0-0.4,0.01-0.6
			c0-0.2,0.01-0.38,0.02-0.54c0.03-0.48,0.15-0.92,0.35-1.31s0.47-0.73,0.79-1.02c0.33-0.28,0.71-0.5,1.15-0.65
			C195.6-55.21,196.07-55.29,196.57-55.29z M196.57-53.65c-0.6,0-1.07,0.17-1.42,0.5s-0.54,0.77-0.58,1.3
			c-0.01,0.13-0.02,0.27-0.02,0.43c0,0.16-0.01,0.33-0.01,0.5c0,0.17,0,0.34,0.01,0.5c0.01,0.17,0.01,0.31,0.02,0.42
			c0.05,0.57,0.26,1.02,0.61,1.35c0.35,0.34,0.82,0.5,1.39,0.5s1.04-0.17,1.4-0.5c0.36-0.34,0.56-0.79,0.62-1.35
			c0.01-0.12,0.02-0.26,0.02-0.42c0-0.16,0-0.33,0-0.5c0-0.17,0-0.34-0.01-0.5c0-0.16-0.01-0.3-0.01-0.43
			c-0.03-0.53-0.22-0.97-0.58-1.3C197.65-53.49,197.18-53.65,196.57-53.65z"/>
		<path class="st31" d="M204.5-57.25c0,0.27-0.09,0.5-0.27,0.69c-0.18,0.19-0.41,0.29-0.67,0.29c-0.28,0-0.51-0.1-0.69-0.29
			c-0.18-0.19-0.27-0.42-0.27-0.69c0-0.27,0.09-0.49,0.27-0.67c0.18-0.18,0.41-0.27,0.69-0.27c0.27,0,0.49,0.09,0.67,0.27
			S204.5-57.52,204.5-57.25z M203.56-55.17c0.23,0,0.43,0.08,0.6,0.25c0.17,0.17,0.25,0.37,0.25,0.62v6.85
			c0,0.24-0.08,0.45-0.24,0.62c-0.16,0.17-0.36,0.25-0.61,0.25c-0.22,0-0.42-0.08-0.59-0.25c-0.17-0.17-0.26-0.37-0.26-0.62v-6.85
			c0-0.24,0.08-0.45,0.24-0.62C203.11-55.09,203.31-55.17,203.56-55.17z"/>
	</g>
	<g class="st30">
		<path class="st31" d="M0.1-38.96c0-0.12,0.04-0.23,0.13-0.32s0.19-0.14,0.32-0.14c0.13,0,0.24,0.04,0.32,0.14
			C0.96-39.19,1-39.08,1-38.96v6.88c0,0.12-0.04,0.23-0.13,0.32c-0.08,0.09-0.19,0.14-0.32,0.14c-0.13,0-0.23-0.05-0.32-0.14
			s-0.13-0.2-0.13-0.32V-38.96z"/>
		<path class="st31" d="M8.58-32.73H8.6c-0.01-0.22-0.02-0.46-0.03-0.71C8.56-33.69,8.56-34,8.56-34.37v-4.59
			c0-0.12,0.04-0.23,0.13-0.32s0.19-0.14,0.32-0.14c0.13,0,0.24,0.04,0.32,0.14s0.13,0.2,0.13,0.32v6.54c0,0.21-0.07,0.39-0.2,0.54
			s-0.31,0.23-0.52,0.23c-0.32,0-0.56-0.14-0.73-0.41L4.1-38.37H4.08c0.01,0.23,0.01,0.48,0.02,0.76c0.01,0.28,0.01,0.59,0.01,0.95
			v4.59c0,0.13-0.04,0.24-0.13,0.33c-0.08,0.09-0.19,0.13-0.33,0.13c-0.12,0-0.23-0.05-0.32-0.14s-0.13-0.2-0.13-0.32v-6.52
			c0-0.23,0.07-0.42,0.21-0.57c0.14-0.15,0.33-0.23,0.56-0.23c0.15,0,0.28,0.03,0.41,0.09c0.13,0.06,0.24,0.17,0.33,0.34L8.58-32.73
			z"/>
		<path class="st31" d="M13.43-38.5h-2.2c-0.12,0-0.23-0.04-0.32-0.12c-0.09-0.08-0.14-0.18-0.14-0.31c0-0.13,0.05-0.24,0.14-0.32
			c0.09-0.08,0.2-0.12,0.32-0.12h5.28c0.12,0,0.23,0.04,0.32,0.12c0.09,0.08,0.13,0.19,0.13,0.32c0,0.12-0.04,0.23-0.13,0.31
			c-0.09,0.08-0.19,0.12-0.32,0.12h-2.18v6.42c0,0.12-0.04,0.23-0.13,0.32s-0.19,0.14-0.32,0.14c-0.12,0-0.23-0.05-0.32-0.14
			s-0.13-0.2-0.13-0.32V-38.5z"/>
		<path class="st31" d="M22.84-39.37c0.12,0,0.23,0.04,0.32,0.13s0.13,0.19,0.13,0.31c0,0.12-0.05,0.23-0.14,0.31
			c-0.09,0.08-0.2,0.12-0.31,0.12h-3.66v2.52h3.56c0.12,0,0.23,0.04,0.31,0.12c0.08,0.08,0.13,0.19,0.13,0.31
			c0,0.12-0.04,0.22-0.13,0.31c-0.09,0.09-0.19,0.13-0.31,0.13h-3.56v2.58h3.68c0.12,0,0.22,0.04,0.31,0.12
			c0.09,0.08,0.14,0.18,0.14,0.31s-0.04,0.23-0.13,0.31c-0.09,0.09-0.19,0.13-0.32,0.13h-3.82c-0.25,0-0.44-0.07-0.57-0.22
			s-0.2-0.32-0.2-0.53v-6.21c0-0.21,0.07-0.39,0.2-0.53s0.32-0.21,0.57-0.21H22.84z"/>
		<path class="st31" d="M30.85-32.09c0,0.12-0.05,0.23-0.14,0.33c-0.09,0.09-0.2,0.14-0.32,0.14c-0.13,0-0.24-0.05-0.33-0.15
			l-2.06-2.55c-0.09-0.11-0.17-0.2-0.26-0.26c-0.08-0.06-0.2-0.09-0.36-0.09h-1.33v2.6c0,0.12-0.04,0.23-0.13,0.32
			s-0.19,0.14-0.32,0.14s-0.23-0.05-0.32-0.14s-0.13-0.2-0.13-0.32v-6.55c0-0.21,0.06-0.38,0.19-0.52s0.31-0.21,0.55-0.21h2.24
			c0.34,0,0.66,0.05,0.96,0.15c0.3,0.1,0.56,0.25,0.79,0.45c0.23,0.2,0.41,0.45,0.54,0.74s0.2,0.64,0.2,1.02
			c0,0.33-0.04,0.62-0.14,0.87s-0.22,0.46-0.38,0.64c-0.17,0.18-0.36,0.32-0.59,0.43c-0.23,0.11-0.48,0.19-0.75,0.23l2,2.47
			C30.81-32.29,30.85-32.19,30.85-32.09z M28.03-35.55c0.31,0,0.57-0.04,0.79-0.1c0.22-0.07,0.39-0.17,0.52-0.3
			c0.13-0.13,0.23-0.29,0.29-0.47c0.06-0.18,0.09-0.38,0.09-0.6c0-0.46-0.13-0.82-0.4-1.09c-0.26-0.27-0.67-0.4-1.23-0.4h-2.04v2.96
			H28.03z"/>
		<path class="st31" d="M37.97-32.73H38c-0.01-0.22-0.02-0.46-0.03-0.71c-0.01-0.25-0.02-0.56-0.02-0.93v-4.59
			c0-0.12,0.04-0.23,0.13-0.32s0.19-0.14,0.32-0.14c0.13,0,0.24,0.04,0.33,0.14c0.08,0.09,0.13,0.2,0.13,0.32v6.54
			c0,0.21-0.07,0.39-0.2,0.54s-0.31,0.23-0.52,0.23c-0.32,0-0.56-0.14-0.73-0.41l-3.9-6.32h-0.02c0.01,0.23,0.01,0.48,0.02,0.76
			c0.01,0.28,0.01,0.59,0.01,0.95v4.59c0,0.13-0.04,0.24-0.13,0.33c-0.08,0.09-0.19,0.13-0.32,0.13c-0.12,0-0.23-0.05-0.32-0.14
			s-0.13-0.2-0.13-0.32v-6.52c0-0.23,0.07-0.42,0.21-0.57c0.14-0.15,0.33-0.23,0.56-0.23c0.15,0,0.28,0.03,0.41,0.09
			s0.24,0.17,0.34,0.34L37.97-32.73z"/>
		<path class="st31" d="M47.11-32.11c0,0.12-0.04,0.22-0.11,0.32s-0.18,0.14-0.33,0.14c-0.1,0-0.18-0.03-0.26-0.08
			c-0.08-0.05-0.13-0.12-0.17-0.21l-0.81-2.3h-3.51l-0.81,2.3c-0.04,0.09-0.09,0.16-0.17,0.21c-0.08,0.05-0.16,0.08-0.26,0.08
			c-0.15,0-0.26-0.05-0.33-0.14s-0.11-0.2-0.11-0.32c0-0.06,0.01-0.12,0.02-0.15l2.29-6.38c0.1-0.29,0.25-0.5,0.46-0.63
			c0.2-0.13,0.43-0.2,0.68-0.2s0.47,0.07,0.67,0.2c0.2,0.14,0.35,0.35,0.45,0.63l2.29,6.38C47.11-32.24,47.11-32.19,47.11-32.11z
			 M42.23-35.11h2.89l-1.16-3.29c-0.05-0.15-0.15-0.22-0.29-0.22s-0.23,0.07-0.29,0.22L42.23-35.11z"/>
		<path class="st31" d="M49.41-38.5h-2.2c-0.12,0-0.23-0.04-0.33-0.12c-0.09-0.08-0.14-0.18-0.14-0.31c0-0.13,0.04-0.24,0.14-0.32
			c0.09-0.08,0.2-0.12,0.33-0.12h5.28c0.12,0,0.23,0.04,0.32,0.12c0.09,0.08,0.13,0.19,0.13,0.32c0,0.12-0.04,0.23-0.13,0.31
			c-0.09,0.08-0.19,0.12-0.32,0.12h-2.18v6.42c0,0.12-0.04,0.23-0.13,0.32s-0.19,0.14-0.32,0.14s-0.23-0.05-0.32-0.14
			c-0.09-0.09-0.13-0.2-0.13-0.32V-38.5z"/>
		<path class="st31" d="M54.25-38.96c0-0.12,0.04-0.23,0.13-0.32s0.19-0.14,0.32-0.14c0.13,0,0.24,0.04,0.33,0.14
			c0.08,0.09,0.13,0.2,0.13,0.32v6.88c0,0.12-0.04,0.23-0.13,0.32c-0.08,0.09-0.19,0.14-0.33,0.14c-0.12,0-0.23-0.05-0.32-0.14
			s-0.13-0.2-0.13-0.32V-38.96z"/>
		<path class="st31" d="M60.26-31.55c-0.44,0-0.85-0.08-1.23-0.24c-0.38-0.16-0.71-0.37-1-0.65s-0.52-0.6-0.69-0.97
			c-0.18-0.38-0.28-0.78-0.31-1.21c-0.04-0.6-0.04-1.2,0-1.78c0.03-0.43,0.13-0.84,0.31-1.21c0.18-0.37,0.41-0.7,0.69-0.97
			s0.62-0.49,1-0.65c0.38-0.16,0.79-0.24,1.23-0.24c0.44,0,0.85,0.08,1.24,0.24c0.38,0.16,0.72,0.38,1.01,0.65
			c0.29,0.28,0.52,0.6,0.7,0.98c0.18,0.37,0.28,0.77,0.31,1.2c0.04,0.59,0.04,1.18,0,1.78c-0.03,0.43-0.13,0.84-0.31,1.21
			c-0.18,0.37-0.41,0.7-0.7,0.97s-0.63,0.49-1.01,0.65C61.11-31.63,60.7-31.55,60.26-31.55z M60.26-32.42c0.32,0,0.62-0.06,0.9-0.17
			c0.27-0.11,0.51-0.27,0.72-0.47c0.21-0.2,0.37-0.43,0.5-0.71s0.2-0.57,0.23-0.9c0.06-0.56,0.06-1.13,0-1.71
			c-0.03-0.32-0.11-0.62-0.24-0.89c-0.13-0.27-0.3-0.51-0.5-0.71s-0.45-0.35-0.72-0.47c-0.27-0.11-0.57-0.17-0.88-0.17
			c-0.32,0-0.61,0.06-0.88,0.17c-0.27,0.11-0.51,0.27-0.71,0.47c-0.2,0.2-0.37,0.43-0.5,0.71s-0.21,0.57-0.24,0.89
			c-0.04,0.57-0.04,1.14,0,1.71c0.03,0.32,0.11,0.62,0.24,0.9s0.29,0.51,0.5,0.71c0.2,0.2,0.44,0.35,0.71,0.47
			C59.65-32.48,59.94-32.42,60.26-32.42z"/>
		<path class="st31" d="M70.75-32.73h0.02c-0.01-0.22-0.02-0.46-0.03-0.71c-0.01-0.25-0.02-0.56-0.02-0.93v-4.59
			c0-0.12,0.04-0.23,0.13-0.32s0.19-0.14,0.32-0.14c0.13,0,0.24,0.04,0.32,0.14s0.13,0.2,0.13,0.32v6.54c0,0.21-0.07,0.39-0.2,0.54
			s-0.31,0.23-0.52,0.23c-0.32,0-0.56-0.14-0.73-0.41l-3.91-6.32h-0.02c0.01,0.23,0.01,0.48,0.02,0.76
			c0.01,0.28,0.01,0.59,0.01,0.95v4.59c0,0.13-0.04,0.24-0.13,0.33c-0.08,0.09-0.19,0.13-0.33,0.13c-0.12,0-0.23-0.05-0.32-0.14
			s-0.13-0.2-0.13-0.32v-6.52c0-0.23,0.07-0.42,0.21-0.57c0.14-0.15,0.33-0.23,0.56-0.23c0.15,0,0.28,0.03,0.41,0.09
			c0.13,0.06,0.24,0.17,0.33,0.34L70.75-32.73z"/>
		<path class="st31" d="M79.89-32.11c0,0.12-0.04,0.22-0.11,0.32s-0.18,0.14-0.33,0.14c-0.09,0-0.18-0.03-0.26-0.08
			c-0.08-0.05-0.13-0.12-0.17-0.21l-0.81-2.3H74.7l-0.81,2.3c-0.04,0.09-0.09,0.16-0.17,0.21c-0.08,0.05-0.16,0.08-0.26,0.08
			c-0.15,0-0.26-0.05-0.33-0.14s-0.11-0.2-0.11-0.32c0-0.06,0.01-0.12,0.02-0.15l2.29-6.38c0.1-0.29,0.25-0.5,0.46-0.63
			c0.2-0.13,0.43-0.2,0.68-0.2c0.25,0,0.47,0.07,0.67,0.2c0.2,0.14,0.35,0.35,0.45,0.63l2.29,6.38
			C79.89-32.24,79.89-32.19,79.89-32.11z M75.01-35.11h2.89l-1.16-3.29c-0.05-0.15-0.15-0.22-0.29-0.22c-0.14,0-0.23,0.07-0.29,0.22
			L75.01-35.11z"/>
		<path class="st31" d="M81.27-38.96c0-0.12,0.04-0.23,0.13-0.32s0.19-0.14,0.32-0.14c0.13,0,0.24,0.04,0.33,0.14
			c0.08,0.09,0.13,0.2,0.13,0.32v6.42h3.6c0.12,0,0.23,0.04,0.32,0.12c0.09,0.08,0.14,0.18,0.14,0.31c0,0.13-0.04,0.24-0.13,0.32
			c-0.09,0.08-0.2,0.12-0.33,0.12h-3.76c-0.23,0-0.42-0.07-0.54-0.21c-0.13-0.14-0.19-0.31-0.19-0.51V-38.96z"/>
		<path class="st31" d="M96.44-32.11c0,0.12-0.04,0.22-0.11,0.32s-0.18,0.14-0.33,0.14c-0.09,0-0.18-0.03-0.26-0.08
			c-0.08-0.05-0.13-0.12-0.17-0.21l-0.81-2.3h-3.51l-0.81,2.3c-0.04,0.09-0.09,0.16-0.17,0.21c-0.08,0.05-0.16,0.08-0.26,0.08
			c-0.15,0-0.26-0.05-0.33-0.14s-0.11-0.2-0.11-0.32c0-0.06,0.01-0.12,0.02-0.15l2.29-6.38c0.1-0.29,0.25-0.5,0.46-0.63
			c0.2-0.13,0.43-0.2,0.68-0.2c0.25,0,0.47,0.07,0.67,0.2c0.2,0.14,0.35,0.35,0.45,0.63l2.29,6.38
			C96.43-32.24,96.44-32.19,96.44-32.11z M91.55-35.11h2.89l-1.16-3.29c-0.05-0.15-0.15-0.22-0.29-0.22c-0.14,0-0.23,0.07-0.29,0.22
			L91.55-35.11z"/>
		<path class="st31" d="M97.81-38.96c0-0.12,0.04-0.23,0.13-0.32s0.19-0.14,0.32-0.14c0.13,0,0.24,0.04,0.33,0.14
			c0.08,0.09,0.13,0.2,0.13,0.32v6.88c0,0.12-0.04,0.23-0.13,0.32c-0.08,0.09-0.19,0.14-0.33,0.14c-0.12,0-0.23-0.05-0.32-0.14
			s-0.13-0.2-0.13-0.32V-38.96z"/>
		<path class="st31" d="M106.62-32.09c0,0.12-0.05,0.23-0.14,0.33c-0.09,0.09-0.2,0.14-0.32,0.14c-0.13,0-0.24-0.05-0.33-0.15
			l-2.06-2.55c-0.09-0.11-0.17-0.2-0.26-0.26c-0.08-0.06-0.2-0.09-0.36-0.09h-1.33v2.6c0,0.12-0.04,0.23-0.13,0.32
			s-0.19,0.14-0.32,0.14s-0.23-0.05-0.32-0.14s-0.13-0.2-0.13-0.32v-6.55c0-0.21,0.06-0.38,0.19-0.52s0.31-0.21,0.55-0.21h2.24
			c0.34,0,0.66,0.05,0.96,0.15c0.3,0.1,0.56,0.25,0.79,0.45c0.23,0.2,0.41,0.45,0.54,0.74s0.2,0.64,0.2,1.02
			c0,0.33-0.04,0.62-0.14,0.87s-0.22,0.46-0.38,0.64c-0.17,0.18-0.36,0.32-0.59,0.43c-0.23,0.11-0.48,0.19-0.75,0.23l2,2.47
			C106.59-32.29,106.62-32.19,106.62-32.09z M103.81-35.55c0.31,0,0.57-0.04,0.79-0.1c0.22-0.07,0.39-0.17,0.52-0.3
			c0.13-0.13,0.23-0.29,0.29-0.47c0.06-0.18,0.09-0.38,0.09-0.6c0-0.46-0.13-0.82-0.4-1.09c-0.26-0.27-0.67-0.4-1.23-0.4h-2.04v2.96
			H103.81z"/>
		<path class="st31" d="M109.29-34.54v2.46c0,0.12-0.04,0.23-0.13,0.32s-0.19,0.14-0.32,0.14s-0.23-0.05-0.32-0.14
			s-0.13-0.2-0.13-0.32v-6.55c0-0.21,0.06-0.38,0.19-0.52c0.13-0.14,0.31-0.21,0.56-0.21h2.22c0.34,0,0.66,0.05,0.96,0.16
			c0.3,0.11,0.57,0.26,0.8,0.47c0.23,0.21,0.41,0.46,0.54,0.76c0.13,0.3,0.2,0.64,0.2,1.02c0,0.39-0.06,0.73-0.19,1.03
			c-0.13,0.3-0.31,0.55-0.54,0.76c-0.23,0.21-0.5,0.37-0.82,0.47s-0.66,0.16-1.03,0.16H109.29z M111.25-35.41
			c0.6,0,1.03-0.14,1.29-0.43c0.26-0.29,0.38-0.66,0.38-1.11c0-0.47-0.13-0.84-0.39-1.13c-0.26-0.28-0.67-0.42-1.23-0.42h-2.02v3.09
			H111.25z"/>
		<path class="st31" d="M118.36-31.55c-0.44,0-0.85-0.08-1.23-0.24c-0.38-0.16-0.71-0.37-1-0.65s-0.52-0.6-0.69-0.97
			c-0.18-0.38-0.28-0.78-0.31-1.21c-0.04-0.6-0.04-1.2,0-1.78c0.03-0.43,0.13-0.84,0.31-1.21c0.18-0.37,0.41-0.7,0.69-0.97
			s0.62-0.49,1-0.65c0.38-0.16,0.79-0.24,1.23-0.24c0.44,0,0.85,0.08,1.24,0.24c0.38,0.16,0.72,0.38,1.01,0.65
			c0.29,0.28,0.52,0.6,0.7,0.98c0.18,0.37,0.28,0.77,0.31,1.2c0.04,0.59,0.04,1.18,0,1.78c-0.03,0.43-0.13,0.84-0.31,1.21
			c-0.18,0.37-0.41,0.7-0.7,0.97s-0.63,0.49-1.01,0.65C119.21-31.63,118.8-31.55,118.36-31.55z M118.36-32.42
			c0.32,0,0.62-0.06,0.9-0.17c0.27-0.11,0.51-0.27,0.72-0.47c0.21-0.2,0.37-0.43,0.5-0.71s0.2-0.57,0.23-0.9
			c0.06-0.56,0.06-1.13,0-1.71c-0.03-0.32-0.11-0.62-0.24-0.89c-0.13-0.27-0.3-0.51-0.5-0.71s-0.45-0.35-0.72-0.47
			c-0.27-0.11-0.57-0.17-0.88-0.17c-0.32,0-0.61,0.06-0.88,0.17c-0.27,0.11-0.51,0.27-0.71,0.47c-0.2,0.2-0.37,0.43-0.5,0.71
			s-0.21,0.57-0.24,0.89c-0.04,0.57-0.04,1.14,0,1.71c0.03,0.32,0.11,0.62,0.24,0.9s0.29,0.51,0.5,0.71c0.2,0.2,0.44,0.35,0.71,0.47
			C117.75-32.48,118.05-32.42,118.36-32.42z"/>
		<path class="st31" d="M129.18-32.09c0,0.12-0.05,0.23-0.14,0.33c-0.09,0.09-0.2,0.14-0.32,0.14c-0.13,0-0.24-0.05-0.33-0.15
			l-2.06-2.55c-0.09-0.11-0.17-0.2-0.26-0.26s-0.2-0.09-0.36-0.09h-1.33v2.6c0,0.12-0.04,0.23-0.13,0.32s-0.19,0.14-0.32,0.14
			c-0.12,0-0.23-0.05-0.32-0.14s-0.13-0.2-0.13-0.32v-6.55c0-0.21,0.06-0.38,0.19-0.52c0.13-0.14,0.31-0.21,0.55-0.21h2.24
			c0.34,0,0.66,0.05,0.96,0.15c0.3,0.1,0.56,0.25,0.79,0.45c0.23,0.2,0.41,0.45,0.54,0.74c0.13,0.3,0.2,0.64,0.2,1.02
			c0,0.33-0.05,0.62-0.14,0.87c-0.09,0.25-0.22,0.46-0.38,0.64s-0.36,0.32-0.59,0.43c-0.23,0.11-0.48,0.19-0.75,0.23l2,2.47
			C129.15-32.29,129.18-32.19,129.18-32.09z M126.37-35.55c0.31,0,0.57-0.04,0.79-0.1c0.22-0.07,0.39-0.17,0.52-0.3
			c0.13-0.13,0.23-0.29,0.29-0.47s0.09-0.38,0.09-0.6c0-0.46-0.13-0.82-0.4-1.09c-0.26-0.27-0.67-0.4-1.23-0.4h-2.04v2.96H126.37z"
			/>
		<path class="st31" d="M132.59-38.5h-2.2c-0.12,0-0.23-0.04-0.33-0.12c-0.09-0.08-0.14-0.18-0.14-0.31c0-0.13,0.04-0.24,0.14-0.32
			c0.09-0.08,0.2-0.12,0.33-0.12h5.28c0.12,0,0.23,0.04,0.32,0.12c0.09,0.08,0.13,0.19,0.13,0.32c0,0.12-0.04,0.23-0.13,0.31
			c-0.09,0.08-0.19,0.12-0.32,0.12h-2.18v6.42c0,0.12-0.04,0.23-0.13,0.32s-0.19,0.14-0.32,0.14s-0.23-0.05-0.32-0.14
			c-0.09-0.09-0.13-0.2-0.13-0.32V-38.5z"/>
	</g>
	<g class="st30">
		<path class="st31" d="M5.97-19.3c0,0.37-0.07,0.71-0.21,1.05c-0.14,0.33-0.34,0.62-0.61,0.88c-0.26,0.25-0.57,0.45-0.94,0.6
			c-0.37,0.15-0.78,0.22-1.22,0.22c-0.44,0-0.85-0.08-1.23-0.24c-0.38-0.16-0.71-0.37-1-0.65s-0.51-0.6-0.68-0.97
			c-0.17-0.38-0.27-0.78-0.3-1.21c-0.04-0.6-0.04-1.2,0-1.78c0.03-0.43,0.13-0.84,0.31-1.21c0.18-0.37,0.4-0.7,0.69-0.97
			c0.28-0.28,0.61-0.49,0.99-0.65c0.38-0.16,0.79-0.24,1.23-0.24c0.63,0,1.19,0.15,1.67,0.45c0.48,0.3,0.85,0.72,1.11,1.24
			c0.03,0.06,0.04,0.13,0.04,0.22c0,0.12-0.04,0.23-0.13,0.31s-0.19,0.13-0.32,0.13c-0.09,0-0.17-0.02-0.24-0.07
			c-0.07-0.05-0.12-0.1-0.16-0.17c-0.19-0.38-0.45-0.68-0.79-0.91c-0.33-0.22-0.73-0.34-1.18-0.34c-0.32,0-0.62,0.06-0.89,0.17
			s-0.51,0.27-0.71,0.47c-0.2,0.2-0.37,0.44-0.49,0.71c-0.12,0.28-0.2,0.57-0.23,0.9c-0.04,0.58-0.04,1.14,0,1.7
			c0.03,0.32,0.11,0.62,0.23,0.9c0.12,0.28,0.29,0.51,0.5,0.71s0.44,0.35,0.71,0.47c0.27,0.12,0.56,0.17,0.89,0.17
			c0.31,0,0.59-0.04,0.85-0.13s0.48-0.21,0.66-0.37c0.18-0.16,0.32-0.35,0.42-0.57c0.1-0.22,0.15-0.46,0.15-0.71v-0.68H3.5
			c-0.12,0-0.23-0.04-0.33-0.12c-0.09-0.08-0.14-0.19-0.14-0.31s0.04-0.23,0.14-0.31c0.09-0.08,0.2-0.12,0.33-0.12h1.71
			c0.25,0,0.44,0.07,0.57,0.21c0.13,0.14,0.19,0.32,0.19,0.52V-19.3z"/>
		<path class="st31" d="M13.94-19.79c0,0.48-0.08,0.92-0.24,1.32c-0.16,0.39-0.38,0.73-0.65,1.02c-0.28,0.28-0.61,0.5-0.98,0.66
			c-0.38,0.16-0.79,0.24-1.24,0.24s-0.86-0.08-1.24-0.24c-0.38-0.16-0.71-0.38-0.98-0.66c-0.28-0.28-0.5-0.62-0.65-1.02
			c-0.16-0.4-0.24-0.84-0.24-1.32v-4.17c0-0.12,0.04-0.23,0.13-0.32s0.19-0.14,0.32-0.14c0.12,0,0.23,0.04,0.32,0.14
			s0.13,0.2,0.13,0.32v4.16c0,0.37,0.06,0.7,0.17,0.99c0.11,0.29,0.26,0.54,0.46,0.75c0.2,0.21,0.43,0.36,0.7,0.47
			s0.56,0.17,0.88,0.17c0.32,0,0.61-0.06,0.88-0.17c0.27-0.11,0.51-0.27,0.7-0.47c0.2-0.21,0.35-0.46,0.46-0.75
			c0.11-0.29,0.17-0.62,0.17-0.99v-4.16c0-0.12,0.04-0.23,0.13-0.32s0.19-0.14,0.32-0.14c0.12,0,0.23,0.04,0.32,0.14
			s0.13,0.2,0.13,0.32V-19.79z"/>
		<path class="st31" d="M15.37-23.97c0-0.11,0.04-0.21,0.11-0.3s0.18-0.14,0.33-0.14c0.1,0,0.2,0.03,0.29,0.09s0.14,0.14,0.15,0.24
			l1.39,6.67c0.01,0.02,0.02,0.02,0.03,0.02s0.03-0.01,0.03-0.02l1.64-6.31c0.06-0.23,0.16-0.4,0.31-0.51
			c0.15-0.11,0.31-0.16,0.49-0.16c0.16,0,0.32,0.05,0.47,0.16c0.15,0.11,0.25,0.28,0.31,0.51l1.63,6.31
			c0.01,0.02,0.02,0.03,0.03,0.03s0.03-0.01,0.03-0.03l1.42-6.67c0.03-0.1,0.08-0.18,0.17-0.24c0.08-0.06,0.17-0.09,0.27-0.09
			c0.15,0,0.26,0.05,0.33,0.14c0.07,0.09,0.11,0.2,0.11,0.31c0,0.05,0,0.09-0.01,0.11l-1.54,6.61c-0.05,0.22-0.15,0.39-0.3,0.5
			c-0.15,0.11-0.31,0.17-0.48,0.17c-0.17,0-0.33-0.06-0.48-0.17c-0.15-0.12-0.26-0.28-0.32-0.49l-1.63-6.27
			c-0.01-0.02-0.02-0.02-0.03-0.02s-0.02,0.01-0.03,0.02l-1.65,6.27c-0.06,0.21-0.16,0.38-0.31,0.49s-0.3,0.18-0.47,0.18
			c-0.18,0-0.34-0.06-0.5-0.18s-0.26-0.29-0.31-0.52l-1.48-6.6C15.37-23.87,15.37-23.91,15.37-23.97z"/>
		<path class="st31" d="M31.89-17.11c0,0.12-0.04,0.22-0.11,0.32s-0.18,0.14-0.33,0.14c-0.1,0-0.18-0.03-0.26-0.08
			c-0.08-0.05-0.13-0.12-0.17-0.21l-0.81-2.3H26.7l-0.81,2.3c-0.04,0.09-0.09,0.16-0.17,0.21c-0.08,0.05-0.16,0.08-0.26,0.08
			c-0.15,0-0.26-0.05-0.33-0.14s-0.11-0.2-0.11-0.32c0-0.06,0.01-0.12,0.02-0.15l2.29-6.38c0.1-0.29,0.25-0.5,0.46-0.63
			c0.2-0.13,0.43-0.2,0.68-0.2s0.47,0.07,0.67,0.2c0.2,0.14,0.35,0.35,0.45,0.63l2.29,6.38C31.88-17.24,31.89-17.19,31.89-17.11z
			 M27.01-20.11h2.89l-1.16-3.29c-0.05-0.15-0.15-0.22-0.29-0.22s-0.23,0.07-0.29,0.22L27.01-20.11z"/>
		<path class="st31" d="M33.27-23.96c0-0.12,0.04-0.23,0.13-0.32s0.19-0.14,0.32-0.14c0.13,0,0.24,0.04,0.32,0.14
			c0.08,0.09,0.13,0.2,0.13,0.32v3h4.29v-3c0-0.12,0.04-0.23,0.13-0.32s0.19-0.14,0.32-0.14c0.13,0,0.24,0.04,0.32,0.14
			c0.08,0.09,0.13,0.2,0.13,0.32v6.88c0,0.12-0.04,0.23-0.13,0.32c-0.08,0.09-0.19,0.14-0.32,0.14c-0.12,0-0.23-0.05-0.32-0.14
			s-0.13-0.2-0.13-0.32v-3h-4.29v3c0,0.13-0.04,0.24-0.13,0.33c-0.08,0.09-0.19,0.13-0.32,0.13c-0.12,0-0.23-0.05-0.32-0.14
			s-0.13-0.2-0.13-0.32V-23.96z"/>
		<path class="st31" d="M47.62-17.11c0,0.12-0.04,0.22-0.11,0.32s-0.18,0.14-0.33,0.14c-0.1,0-0.18-0.03-0.26-0.08
			c-0.08-0.05-0.13-0.12-0.17-0.21l-0.81-2.3h-3.51l-0.81,2.3c-0.04,0.09-0.09,0.16-0.17,0.21c-0.08,0.05-0.16,0.08-0.26,0.08
			c-0.15,0-0.26-0.05-0.33-0.14s-0.11-0.2-0.11-0.32c0-0.06,0.01-0.12,0.02-0.15l2.29-6.38c0.1-0.29,0.25-0.5,0.46-0.63
			c0.2-0.13,0.43-0.2,0.68-0.2s0.47,0.07,0.67,0.2c0.2,0.14,0.35,0.35,0.45,0.63l2.29,6.38C47.61-17.24,47.62-17.19,47.62-17.11z
			 M42.74-20.11h2.89l-1.16-3.29c-0.05-0.15-0.15-0.22-0.29-0.22s-0.23,0.07-0.29,0.22L42.74-20.11z"/>
		<path class="st31" d="M49.92-23.5h-2.2c-0.12,0-0.23-0.04-0.33-0.12c-0.09-0.08-0.14-0.18-0.14-0.31c0-0.13,0.04-0.24,0.14-0.32
			c0.09-0.08,0.2-0.12,0.33-0.12H53c0.12,0,0.23,0.04,0.32,0.12c0.09,0.08,0.13,0.19,0.13,0.32c0,0.12-0.04,0.23-0.13,0.31
			c-0.09,0.08-0.19,0.12-0.32,0.12h-2.18v6.42c0,0.12-0.04,0.23-0.13,0.32s-0.19,0.14-0.32,0.14s-0.23-0.05-0.32-0.14
			c-0.09-0.09-0.13-0.2-0.13-0.32V-23.5z"/>
		<path class="st31" d="M54.76-23.96c0-0.12,0.04-0.23,0.13-0.32s0.19-0.14,0.32-0.14c0.13,0,0.24,0.04,0.33,0.14
			c0.08,0.09,0.13,0.2,0.13,0.32v6.88c0,0.12-0.04,0.23-0.13,0.32c-0.08,0.09-0.19,0.14-0.33,0.14c-0.12,0-0.23-0.05-0.32-0.14
			s-0.13-0.2-0.13-0.32V-23.96z"/>
	</g>
</g>
</svg>
