<?xml version="1.0" encoding="UTF-8"?><svg id="Layer_1" xmlns="http://www.w3.org/2000/svg" viewBox="0 0 267.19 108.1"><defs><style>.cls-1{font-family:Adani-Regular, Adani;font-size:25.22px;}.cls-1,.cls-2{fill:#fff;}</style></defs><g><path class="cls-2" d="M28.22,38.78c-7.66,0-15.56,1.99-19.21,3.74-3.38,1.52-4.39,4.01-4.39,6.16,0,3.89,3.63,6.79,9.17,5.01,3.51-1.25,8.54-2.76,13.66-2.76,9.79,0,13.93,3.64,13.93,12.16v4.13c-5.78-1.37-10.04-2.11-15.93-2.11-16.97,0-24.92,9.25-25.44,19.7v2.3c.51,10.95,7.98,19.35,22.51,20.41,.96,.1,1.94,.15,2.94,.15v-19.9l-6.26,3.56c-1.47,.81-2.99,1.01-4.55,.61-1.56-.4-2.75-1.36-3.56-2.88-.38-.71-.6-1.45-.68-2.2-.07-.76,0-1.5,.21-2.24,.21-.74,.56-1.42,1.03-2.06,.47-.64,1.07-1.17,1.78-1.6l14.65-8.25c1.04-.57,2.11-.85,3.2-.85,1,0,1.86,.2,2.6,.61,.73,.4,1.35,.9,1.85,1.49,.5,.59,.86,1.26,1.1,1.99s.36,1.41,.36,2.03v28.44c.23-.05,.46-.1,.69-.15,6.74-1.56,11.61-4.08,13.91-5.62,1.89-1.29,2.38-2.64,2.38-4.9V63.1c0-16.93-9.91-24.32-25.95-24.32Z"/><g><path class="cls-2" d="M200.4,44.47c1.71,0,3.29,.26,4.75,.77,1.46,.51,2.73,1.24,3.81,2.18,1.08,.94,1.95,2.07,2.61,3.38,.66,1.31,1.04,2.77,1.15,4.36,.03,.53,.06,1.13,.08,1.78,.02,.66,.03,1.32,.03,2s0,1.35-.03,2.02c-.02,.67-.05,1.28-.08,1.81-.11,1.56-.49,3.01-1.15,4.34-.66,1.33-1.53,2.48-2.61,3.46-1.08,.98-2.36,1.74-3.81,2.29-1.46,.55-3.04,.82-4.75,.82s-3.24-.28-4.69-.82-2.73-1.31-3.81-2.29c-1.08-.98-1.96-2.13-2.64-3.46-.68-1.33-1.07-2.77-1.17-4.34-.04-.53-.06-1.14-.08-1.81-.02-.67-.03-1.35-.03-2.02s0-1.34,.03-2c.02-.66,.04-1.25,.08-1.78,.11-1.6,.5-3.05,1.17-4.36,.67-1.31,1.56-2.44,2.64-3.38,1.08-.94,2.35-1.67,3.81-2.18,1.46-.51,3.02-.77,4.69-.77Zm-.03,5.43c-1.99,0-3.56,.56-4.71,1.68-1.15,1.12-1.8,2.56-1.94,4.34-.04,.43-.06,.9-.08,1.44-.02,.53-.03,1.08-.03,1.65s0,1.13,.03,1.68c.02,.55,.04,1.02,.08,1.41,.18,1.88,.85,3.38,2.02,4.5,1.17,1.12,2.71,1.68,4.63,1.68s3.47-.56,4.66-1.68c1.19-1.12,1.87-2.62,2.05-4.5,.03-.39,.05-.86,.05-1.41v-1.68c0-.57,0-1.12-.03-1.65-.02-.53-.03-1.01-.03-1.44-.11-1.77-.74-3.22-1.92-4.34s-2.77-1.68-4.79-1.68Z"/><path class="cls-2" d="M240.01,70.49c0,.82-.27,1.5-.8,2.05-.53,.55-1.21,.82-2.02,.82-.74,0-1.4-.27-1.97-.82-.57-.55-.85-1.23-.85-2.05v-14.52c0-1.06-.17-1.98-.51-2.74-.34-.76-.79-1.39-1.36-1.89-.57-.5-1.22-.86-1.97-1.09-.74-.23-1.53-.35-2.34-.35-1.31,0-2.55,.15-3.7,.45-1.15,.3-2.03,.65-2.63,1.04v19.1c0,.82-.27,1.5-.8,2.05-.53,.55-1.21,.82-2.02,.82-.74,0-1.4-.27-1.97-.82-.57-.55-.85-1.23-.85-2.05v-20.91c0-.57,.09-1,.27-1.3,.18-.3,.46-.59,.85-.88,.39-.28,.92-.59,1.6-.93,.67-.34,1.47-.66,2.39-.96,.92-.3,1.98-.55,3.17-.74,1.19-.19,2.47-.29,3.86-.29,3.87,0,6.77,.97,8.73,2.9,1.95,1.93,2.93,4.71,2.93,8.33v14.79Z"/><path class="cls-2" d="M267.19,57.88c0,.99-.28,1.81-.83,2.45-.55,.64-1.41,.96-2.58,.96h-15.06v.64c0,2.13,.65,3.76,1.94,4.89,1.29,1.14,2.99,1.7,5.08,1.7,.96,0,1.96-.11,3.01-.35,1.05-.23,2.08-.54,3.11-.93,.57-.21,1.09-.29,1.57-.24,.48,.05,.89,.2,1.22,.43,.34,.23,.59,.52,.77,.88,.18,.35,.27,.73,.27,1.12,0,.43-.09,.84-.27,1.25-.18,.41-.57,.79-1.17,1.14-.46,.28-1.02,.54-1.68,.77-.66,.23-1.37,.43-2.13,.59-.76,.16-1.56,.28-2.39,.37-.83,.09-1.64,.13-2.42,.13-1.85,0-3.5-.28-4.97-.85-1.47-.57-2.74-1.36-3.8-2.37-1.06-1.01-1.91-2.22-2.53-3.62-.62-1.4-.98-2.93-1.09-4.6-.04-.5-.06-1.05-.08-1.65-.02-.6-.03-1.2-.03-1.78s0-1.15,.03-1.7c.02-.55,.04-1.04,.08-1.46,.14-1.7,.53-3.25,1.17-4.63,.64-1.38,1.49-2.56,2.55-3.54,1.06-.98,2.31-1.72,3.75-2.23,1.44-.51,2.99-.77,4.66-.77,1.77,0,3.39,.28,4.84,.85,1.45,.57,2.69,1.37,3.72,2.42,1.03,1.05,1.83,2.31,2.39,3.78,.57,1.47,.85,3.1,.85,4.87v1.49Zm-6.12-1.06c.35,0,.57-.21,.64-.64,.14-2.02-.36-3.64-1.52-4.87-1.15-1.22-2.76-1.84-4.82-1.84-2.27,0-3.96,.67-5.08,2-1.12,1.33-1.64,3.11-1.57,5.35h12.34Z"/></g><g><path class="cls-2" d="M80.88,91.03c.29,0,.54,.09,.74,.27,.2,.18,.3,.42,.3,.71s-.1,.53-.31,.73-.45,.29-.73,.29h-5.88v3.66h5.73c.27,0,.49,.09,.67,.27,.18,.18,.28,.4,.28,.68,0,.25-.1,.47-.28,.66s-.41,.28-.66,.28h-5.73v3.75h5.94c.27,0,.5,.1,.71,.29s.31,.43,.31,.71-.1,.53-.29,.72c-.2,.19-.44,.28-.73,.28h-6.41c-.52,0-.91-.15-1.18-.46-.27-.3-.4-.67-.4-1.1v-10.24c0-.43,.13-.79,.4-1.09,.27-.3,.66-.45,1.18-.45h6.35Z"/><path class="cls-2" d="M92.72,103.51c0,.24-.1,.46-.29,.65s-.43,.29-.69,.29c-.15,0-.3-.03-.44-.09-.14-.06-.26-.16-.36-.28l-2.6-3.24-2.6,3.26c-.2,.24-.47,.36-.8,.36-.29,0-.53-.1-.71-.3-.18-.2-.27-.43-.27-.68,0-.11,.02-.23,.06-.34,.04-.11,.1-.22,.19-.32l2.84-3.51-2.69-3.36c-.18-.21-.27-.44-.27-.68,0-.25,.1-.48,.3-.67,.2-.2,.44-.29,.72-.29,.32,0,.57,.12,.76,.36l2.45,3.11,2.47-3.09c.1-.14,.22-.24,.37-.29,.15-.06,.29-.09,.45-.09,.28,0,.51,.1,.7,.29,.19,.2,.28,.42,.28,.67s-.09,.49-.27,.7l-2.67,3.34,2.81,3.51c.18,.21,.27,.45,.27,.7Z"/><path class="cls-2" d="M103.66,100.7c-.1,1.19-.51,2.13-1.22,2.82-.71,.69-1.7,1.03-2.97,1.03-.43,0-.86-.06-1.28-.18-.42-.12-.79-.25-1.09-.39v3.09c0,.29-.1,.53-.29,.73s-.43,.29-.71,.29-.53-.1-.72-.29c-.19-.2-.28-.44-.28-.73v-11.13c0-.13,.02-.23,.06-.31,.04-.08,.12-.17,.25-.26s.32-.21,.58-.35c.26-.15,.56-.28,.91-.41,.35-.13,.73-.24,1.16-.33,.42-.09,.88-.14,1.36-.14,.63,0,1.2,.09,1.71,.27,.51,.18,.94,.45,1.3,.79s.65,.75,.86,1.23c.21,.48,.35,1.01,.4,1.59,.01,.16,.02,.36,.03,.6,0,.23,0,.48,0,.73s0,.5,0,.74c0,.24-.02,.44-.03,.61Zm-2.01-2.41c-.06-.72-.28-1.27-.65-1.65-.37-.38-.92-.57-1.64-.57-.21,0-.43,.02-.65,.07-.22,.04-.44,.1-.64,.17-.21,.07-.4,.15-.57,.23s-.3,.16-.39,.24v5.22c.18,.13,.47,.26,.89,.41,.42,.15,.86,.22,1.33,.22,.77,0,1.34-.18,1.71-.55,.37-.37,.57-.89,.63-1.57,.01-.13,.02-.28,.02-.47v-1.2c0-.2,0-.37-.02-.52Z"/><path class="cls-2" d="M114.51,98.92c0,.35-.1,.64-.29,.87-.2,.23-.5,.34-.92,.34h-5.37v.23c0,.76,.23,1.34,.69,1.74,.46,.41,1.07,.61,1.81,.61,.34,0,.7-.04,1.07-.12,.37-.08,.74-.19,1.11-.33,.2-.08,.39-.1,.56-.09s.32,.07,.44,.15c.12,.08,.21,.19,.27,.31,.06,.13,.09,.26,.09,.4,0,.15-.03,.3-.09,.45-.06,.15-.2,.28-.42,.41-.16,.1-.36,.19-.6,.27-.23,.08-.49,.15-.76,.21s-.56,.1-.85,.13c-.3,.03-.59,.05-.86,.05-.66,0-1.25-.1-1.77-.3s-.98-.48-1.36-.84c-.38-.36-.68-.79-.9-1.29-.22-.5-.35-1.05-.39-1.64-.01-.18-.02-.37-.03-.59,0-.21,0-.43,0-.64s0-.41,0-.61c0-.2,.02-.37,.03-.52,.05-.61,.19-1.16,.42-1.65,.23-.49,.53-.91,.91-1.26,.38-.35,.82-.61,1.34-.8,.51-.18,1.07-.27,1.66-.27,.63,0,1.21,.1,1.73,.3,.52,.2,.96,.49,1.33,.86,.37,.37,.65,.82,.85,1.35,.2,.52,.3,1.1,.3,1.74v.53Zm-2.18-.38c.13,0,.2-.08,.23-.23,.05-.72-.13-1.3-.54-1.74-.41-.44-.98-.65-1.72-.65-.81,0-1.41,.24-1.81,.71-.4,.47-.58,1.11-.56,1.91h4.4Z"/><path class="cls-2" d="M121.9,94.35c.29,.09,.49,.21,.61,.37,.11,.16,.17,.35,.17,.58,0,.22-.08,.43-.23,.64-.15,.21-.39,.31-.72,.31-.18,0-.38-.03-.61-.09-.23-.06-.5-.09-.82-.08-.44,.01-.77,.14-.99,.37-.21,.23-.32,.62-.32,1.15v5.84c0,.29-.1,.53-.29,.72-.2,.19-.44,.28-.73,.28-.27,0-.5-.1-.69-.28-.2-.19-.29-.43-.29-.72v-6.16c0-.96,.27-1.72,.82-2.29,.54-.56,1.33-.84,2.37-.84,.33,0,.65,.02,.96,.06,.31,.04,.57,.09,.77,.15Z"/><path class="cls-2" d="M126.7,91.81c0,.32-.11,.59-.32,.82-.21,.23-.48,.34-.8,.34s-.6-.11-.82-.34c-.21-.23-.32-.5-.32-.82s.11-.58,.32-.8,.49-.32,.82-.32,.58,.11,.8,.32,.32,.48,.32,.8Zm-1.12,2.47c.28,0,.52,.1,.71,.29,.2,.2,.29,.44,.29,.73v8.12c0,.29-.1,.53-.28,.73-.19,.2-.43,.29-.72,.29-.27,0-.5-.1-.7-.29-.2-.2-.3-.44-.3-.73v-8.12c0-.29,.09-.53,.28-.73,.19-.2,.43-.29,.72-.29Z"/><path class="cls-2" d="M138.02,98.92c0,.35-.1,.64-.29,.87-.2,.23-.5,.34-.92,.34h-5.37v.23c0,.76,.23,1.34,.69,1.74,.46,.41,1.07,.61,1.81,.61,.34,0,.7-.04,1.07-.12,.37-.08,.74-.19,1.11-.33,.2-.08,.39-.1,.56-.09s.32,.07,.44,.15c.12,.08,.21,.19,.27,.31,.06,.13,.09,.26,.09,.4,0,.15-.03,.3-.09,.45-.06,.15-.2,.28-.42,.41-.16,.1-.36,.19-.6,.27-.23,.08-.49,.15-.76,.21s-.56,.1-.85,.13c-.3,.03-.59,.05-.86,.05-.66,0-1.25-.1-1.77-.3s-.98-.48-1.36-.84c-.38-.36-.68-.79-.9-1.29-.22-.5-.35-1.05-.39-1.64-.01-.18-.02-.37-.03-.59,0-.21,0-.43,0-.64s0-.41,0-.61c0-.2,.02-.37,.03-.52,.05-.61,.19-1.16,.42-1.65,.23-.49,.53-.91,.91-1.26,.38-.35,.82-.61,1.34-.8,.51-.18,1.07-.27,1.66-.27,.63,0,1.21,.1,1.73,.3,.52,.2,.96,.49,1.33,.86,.37,.37,.65,.82,.85,1.35,.2,.52,.3,1.1,.3,1.74v.53Zm-2.18-.38c.13,0,.2-.08,.23-.23,.05-.72-.13-1.3-.54-1.74-.41-.44-.98-.65-1.72-.65-.81,0-1.41,.24-1.81,.71-.4,.47-.58,1.11-.56,1.91h4.4Z"/><path class="cls-2" d="M149.08,103.41c0,.29-.09,.53-.28,.73-.19,.2-.43,.29-.72,.29-.27,0-.5-.1-.7-.29-.2-.2-.3-.44-.3-.73v-5.18c0-.38-.06-.7-.18-.98-.12-.27-.28-.5-.48-.67-.2-.18-.44-.31-.7-.39s-.54-.12-.83-.12c-.47,0-.91,.05-1.32,.16-.41,.11-.72,.23-.94,.37v6.81c0,.29-.1,.53-.28,.73-.19,.2-.43,.29-.72,.29-.27,0-.5-.1-.7-.29-.2-.2-.3-.44-.3-.73v-7.45c0-.2,.03-.36,.1-.46,.06-.11,.16-.21,.3-.31,.14-.1,.33-.21,.57-.33,.24-.12,.52-.23,.85-.34,.33-.11,.7-.2,1.13-.27,.42-.07,.88-.1,1.37-.1,1.38,0,2.41,.34,3.11,1.03,.7,.69,1.04,1.68,1.04,2.97v5.27Z"/><path class="cls-2" d="M156.15,102.62c.46,0,.88-.11,1.27-.32,.39-.21,.7-.56,.91-1.04,.18-.37,.47-.55,.87-.55,.28,0,.51,.1,.68,.29,.18,.2,.27,.44,.27,.73,0,.24-.09,.52-.26,.84s-.42,.63-.76,.93c-.34,.3-.76,.55-1.26,.75s-1.09,.3-1.76,.3c-.62,0-1.19-.1-1.71-.3s-.97-.48-1.35-.83c-.38-.35-.69-.77-.92-1.24-.23-.47-.37-.98-.41-1.53-.01-.19-.02-.4-.03-.64s0-.47,0-.71,0-.48,0-.71,.02-.45,.03-.64c.04-.57,.17-1.09,.41-1.55,.23-.47,.54-.87,.93-1.2,.39-.33,.84-.59,1.36-.78,.52-.18,1.08-.27,1.69-.27,.67,0,1.25,.1,1.75,.31s.92,.46,1.25,.75c.33,.29,.58,.6,.75,.92,.16,.32,.25,.6,.25,.84,0,.29-.09,.53-.26,.73-.17,.2-.4,.29-.69,.29-.39,0-.68-.18-.85-.55-.21-.48-.52-.83-.9-1.04s-.81-.32-1.26-.32c-.72,0-1.29,.19-1.7,.56-.41,.37-.65,.88-.71,1.53-.01,.13-.02,.29-.03,.48,0,.2,0,.4,0,.62s0,.42,0,.63c0,.2,.02,.38,.03,.53,.06,.64,.29,1.17,.69,1.58,.4,.41,.97,.62,1.72,.62Z"/><path class="cls-2" d="M170.89,98.92c0,.35-.1,.64-.29,.87-.2,.23-.5,.34-.92,.34h-5.37v.23c0,.76,.23,1.34,.69,1.74,.46,.41,1.07,.61,1.81,.61,.34,0,.7-.04,1.07-.12,.37-.08,.74-.19,1.11-.33,.2-.08,.39-.1,.56-.09s.32,.07,.44,.15c.12,.08,.21,.19,.27,.31,.06,.13,.09,.26,.09,.4,0,.15-.03,.3-.09,.45-.06,.15-.2,.28-.42,.41-.16,.1-.36,.19-.6,.27-.23,.08-.49,.15-.76,.21s-.56,.1-.85,.13c-.3,.03-.59,.05-.86,.05-.66,0-1.25-.1-1.77-.3s-.98-.48-1.36-.84c-.38-.36-.68-.79-.9-1.29-.22-.5-.35-1.05-.39-1.64-.01-.18-.02-.37-.03-.59,0-.21,0-.43,0-.64s0-.41,0-.61c0-.2,.02-.37,.03-.52,.05-.61,.19-1.16,.42-1.65,.23-.49,.53-.91,.91-1.26,.38-.35,.82-.61,1.34-.8,.51-.18,1.07-.27,1.66-.27,.63,0,1.21,.1,1.73,.3,.52,.2,.96,.49,1.33,.86,.37,.37,.65,.82,.85,1.35,.2,.52,.3,1.1,.3,1.74v.53Zm-2.18-.38c.13,0,.2-.08,.23-.23,.05-.72-.13-1.3-.54-1.74-.41-.44-.98-.65-1.72-.65-.81,0-1.41,.24-1.81,.71-.4,.47-.58,1.11-.56,1.91h4.4Z"/><path class="cls-2" d="M189.38,99.76c0,.67-.13,1.29-.39,1.87s-.63,1.09-1.1,1.52c-.47,.44-1.03,.78-1.67,1.03s-1.35,.38-2.12,.38-1.51-.14-2.17-.41c-.66-.27-1.24-.65-1.74-1.13-.49-.48-.89-1.05-1.19-1.7-.3-.65-.48-1.36-.53-2.11-.1-1.02-.1-2.04,0-3.03,.05-.75,.23-1.44,.53-2.1,.3-.65,.7-1.22,1.19-1.7,.49-.48,1.07-.86,1.74-1.14,.66-.28,1.39-.42,2.17-.42,1.1,0,2.06,.25,2.9,.76,.83,.51,1.47,1.19,1.92,2.07,.1,.16,.15,.35,.15,.55,0,.25-.1,.48-.3,.67-.2,.2-.43,.29-.7,.29-.19,0-.36-.05-.51-.15-.15-.1-.26-.22-.35-.36-.29-.57-.7-1.03-1.21-1.37-.52-.35-1.14-.52-1.88-.52-.52,0-.99,.09-1.41,.27-.42,.18-.79,.43-1.1,.75-.31,.32-.56,.7-.75,1.14s-.31,.92-.36,1.45c-.08,.92-.08,1.83,0,2.72,.05,.52,.17,.99,.37,1.43s.45,.8,.77,1.12c.32,.32,.69,.56,1.11,.73,.42,.17,.89,.26,1.41,.26s.94-.07,1.34-.21c.4-.14,.74-.33,1.01-.57,.28-.24,.49-.52,.64-.85,.15-.32,.23-.67,.23-1.04v-.91h-2.28c-.28,0-.51-.1-.7-.29-.19-.19-.28-.42-.28-.69s.1-.5,.28-.69c.19-.18,.42-.27,.7-.27h2.75c.5,0,.88,.15,1.14,.44s.39,.65,.39,1.05v1.15Z"/><path class="cls-2" d="M196.14,94.14c.61,0,1.17,.09,1.69,.27,.52,.18,.97,.44,1.36,.78,.39,.34,.7,.74,.93,1.2,.23,.47,.37,.99,.41,1.55,.01,.19,.02,.4,.03,.64s0,.47,0,.71,0,.48,0,.72-.02,.46-.03,.64c-.04,.56-.17,1.07-.41,1.55-.23,.47-.54,.88-.93,1.23s-.84,.62-1.36,.82c-.52,.2-1.08,.29-1.69,.29s-1.15-.1-1.67-.29c-.52-.2-.97-.47-1.36-.82s-.7-.76-.94-1.23c-.24-.47-.38-.99-.42-1.55-.01-.19-.02-.4-.03-.64s0-.48,0-.72,0-.48,0-.71,.02-.45,.03-.64c.04-.57,.18-1.09,.42-1.55,.24-.47,.55-.87,.94-1.2,.39-.33,.84-.59,1.36-.78,.52-.18,1.08-.27,1.67-.27Zm0,1.93c-.71,0-1.27,.2-1.68,.6-.41,.4-.64,.91-.69,1.55-.01,.15-.02,.32-.03,.51,0,.19,0,.39,0,.59s0,.4,0,.6c0,.2,.02,.36,.03,.5,.06,.67,.3,1.2,.72,1.6,.42,.4,.97,.6,1.65,.6s1.24-.2,1.66-.6c.42-.4,.67-.93,.73-1.6,.01-.14,.02-.31,.02-.5v-.6c0-.2,0-.4,0-.59,0-.19,0-.36,0-.51-.04-.63-.27-1.15-.68-1.55-.42-.4-.99-.6-1.71-.6Z"/><path class="cls-2" d="M207.19,94.14c.61,0,1.17,.09,1.69,.27,.52,.18,.97,.44,1.36,.78,.39,.34,.7,.74,.93,1.2,.23,.47,.37,.99,.41,1.55,.01,.19,.02,.4,.03,.64s0,.47,0,.71,0,.48,0,.72-.02,.46-.03,.64c-.04,.56-.17,1.07-.41,1.55-.23,.47-.54,.88-.93,1.23s-.84,.62-1.36,.82c-.52,.2-1.08,.29-1.69,.29s-1.15-.1-1.67-.29c-.52-.2-.97-.47-1.36-.82s-.7-.76-.94-1.23c-.24-.47-.38-.99-.42-1.55-.01-.19-.02-.4-.03-.64s0-.48,0-.72,0-.48,0-.71,.02-.45,.03-.64c.04-.57,.18-1.09,.42-1.55,.24-.47,.55-.87,.94-1.2,.39-.33,.84-.59,1.36-.78,.52-.18,1.08-.27,1.67-.27Zm0,1.93c-.71,0-1.27,.2-1.68,.6-.41,.4-.64,.91-.69,1.55-.01,.15-.02,.32-.03,.51,0,.19,0,.39,0,.59s0,.4,0,.6c0,.2,.02,.36,.03,.5,.06,.67,.3,1.2,.72,1.6,.42,.4,.97,.6,1.65,.6s1.24-.2,1.66-.6c.42-.4,.67-.93,.73-1.6,.01-.14,.02-.31,.02-.5v-.6c0-.2,0-.4,0-.59,0-.19,0-.36,0-.51-.04-.63-.27-1.15-.68-1.55-.42-.4-.99-.6-1.71-.6Z"/><path class="cls-2" d="M213.88,97.95c.1-1.19,.5-2.12,1.19-2.8,.69-.68,1.65-1.01,2.87-1.01,.45,0,.9,.06,1.35,.17,.44,.11,.82,.24,1.14,.38v-2.84c0-.29,.1-.53,.29-.73,.2-.2,.43-.29,.71-.29s.53,.1,.72,.29c.19,.2,.28,.44,.28,.73v10.77c0,.18-.02,.32-.07,.44-.04,.11-.14,.22-.29,.32-.13,.09-.31,.2-.56,.33s-.54,.26-.87,.39c-.34,.13-.71,.23-1.13,.32-.42,.09-.85,.13-1.31,.13-.64,0-1.22-.1-1.73-.28-.51-.19-.95-.46-1.32-.8-.37-.34-.67-.75-.88-1.23-.22-.48-.35-1.01-.4-1.59-.01-.16-.02-.37-.03-.61,0-.24,0-.49,0-.74s0-.5,0-.73c0-.23,.02-.44,.03-.62Zm2.01,2.45c.11,1.48,.9,2.22,2.35,2.22,.2,0,.41-.02,.63-.07,.21-.04,.42-.1,.63-.17,.2-.07,.38-.14,.54-.22,.16-.08,.29-.15,.39-.23v-5.27c-.2-.13-.52-.26-.95-.39s-.89-.2-1.38-.2c-.72,0-1.26,.18-1.61,.53-.35,.35-.55,.88-.59,1.57-.01,.13-.02,.29-.03,.48,0,.2,0,.4,0,.61s0,.41,0,.61c0,.2,.02,.37,.03,.52Z"/><path class="cls-2" d="M234.05,103.41c0,.29-.09,.53-.28,.73-.19,.2-.43,.29-.72,.29-.27,0-.5-.1-.7-.29-.2-.2-.3-.44-.3-.73v-5.18c0-.38-.06-.7-.18-.98-.12-.27-.28-.5-.48-.67-.2-.18-.44-.31-.7-.39s-.54-.12-.83-.12c-.47,0-.91,.05-1.32,.16-.41,.11-.72,.23-.94,.37v6.81c0,.29-.1,.53-.28,.73-.19,.2-.43,.29-.72,.29-.27,0-.5-.1-.7-.29-.2-.2-.3-.44-.3-.73v-7.45c0-.2,.03-.36,.1-.46,.06-.11,.16-.21,.3-.31,.14-.1,.33-.21,.57-.33,.24-.12,.52-.23,.85-.34,.33-.11,.7-.2,1.13-.27,.42-.07,.88-.1,1.37-.1,1.38,0,2.41,.34,3.11,1.03,.7,.69,1.04,1.68,1.04,2.97v5.27Z"/><path class="cls-2" d="M245.26,98.92c0,.35-.1,.64-.29,.87s-.5,.34-.92,.34h-5.37v.23c0,.76,.23,1.34,.69,1.74,.46,.41,1.06,.61,1.81,.61,.34,0,.7-.04,1.07-.12,.37-.08,.74-.19,1.11-.33,.2-.08,.39-.1,.56-.09,.17,.02,.32,.07,.44,.15s.21,.19,.28,.31c.06,.13,.09,.26,.09,.4,0,.15-.03,.3-.09,.45-.06,.15-.2,.28-.42,.41-.16,.1-.36,.19-.6,.27-.23,.08-.49,.15-.76,.21s-.56,.1-.85,.13c-.3,.03-.59,.05-.86,.05-.66,0-1.25-.1-1.77-.3-.52-.2-.98-.48-1.36-.84-.38-.36-.68-.79-.9-1.29-.22-.5-.35-1.05-.39-1.64-.01-.18-.02-.37-.03-.59,0-.21,0-.43,0-.64s0-.41,0-.61c0-.2,.02-.37,.03-.52,.05-.61,.19-1.16,.42-1.65,.23-.49,.53-.91,.91-1.26,.38-.35,.82-.61,1.34-.8,.51-.18,1.06-.27,1.66-.27,.63,0,1.21,.1,1.73,.3,.52,.2,.96,.49,1.33,.86,.37,.37,.65,.82,.85,1.35,.2,.52,.3,1.1,.3,1.74v.53Zm-2.18-.38c.13,0,.2-.08,.23-.23,.05-.72-.13-1.3-.54-1.74-.41-.44-.98-.65-1.72-.65-.81,0-1.41,.24-1.81,.71-.4,.47-.58,1.11-.56,1.91h4.4Z"/><path class="cls-2" d="M254.78,101.42c0,.48-.1,.91-.29,1.3-.19,.39-.45,.71-.8,.99-.34,.27-.75,.48-1.21,.63-.47,.15-.97,.22-1.52,.22-.8,0-1.48-.1-2.05-.29s-1.05-.46-1.44-.79c-.19-.16-.3-.37-.34-.63s.01-.47,.15-.66c.15-.21,.35-.34,.59-.38,.24-.04,.49,.03,.74,.19,.3,.21,.64,.39,1.01,.53,.37,.14,.85,.21,1.44,.21s1.02-.12,1.31-.35,.44-.53,.44-.9c0-.28-.1-.51-.29-.68s-.53-.32-1.01-.44c-.16-.04-.29-.07-.39-.09-.1-.02-.18-.04-.27-.06-.08-.02-.18-.04-.29-.07s-.25-.06-.43-.11c-.83-.21-1.5-.55-2-1s-.75-1.07-.75-1.84c0-.47,.1-.89,.28-1.27,.19-.38,.45-.7,.79-.97,.33-.27,.73-.47,1.19-.61,.45-.14,.95-.21,1.48-.21s1.09,.08,1.6,.25c.51,.16,.93,.38,1.26,.64,.21,.18,.32,.4,.31,.65,0,.26-.08,.47-.22,.64-.15,.18-.35,.27-.59,.29-.24,.02-.48-.03-.72-.16-.54-.32-1.13-.47-1.75-.47-1.14,0-1.71,.39-1.71,1.18,0,.25,.1,.46,.28,.63,.19,.16,.53,.31,1.02,.44l1.48,.34c1.78,.44,2.67,1.4,2.67,2.86Z"/><path class="cls-2" d="M264.15,101.42c0,.48-.1,.91-.29,1.3-.19,.39-.45,.71-.8,.99-.34,.27-.75,.48-1.21,.63-.47,.15-.97,.22-1.52,.22-.8,0-1.48-.1-2.05-.29s-1.05-.46-1.44-.79c-.19-.16-.3-.37-.34-.63s.01-.47,.15-.66c.15-.21,.35-.34,.59-.38,.24-.04,.49,.03,.74,.19,.3,.21,.64,.39,1.01,.53,.37,.14,.85,.21,1.44,.21s1.02-.12,1.31-.35,.44-.53,.44-.9c0-.28-.1-.51-.29-.68s-.53-.32-1.01-.44c-.16-.04-.29-.07-.39-.09-.1-.02-.18-.04-.27-.06-.08-.02-.18-.04-.29-.07s-.25-.06-.43-.11c-.83-.21-1.5-.55-2-1s-.75-1.07-.75-1.84c0-.47,.1-.89,.28-1.27,.19-.38,.45-.7,.79-.97,.33-.27,.73-.47,1.19-.61,.45-.14,.95-.21,1.48-.21s1.09,.08,1.6,.25c.51,.16,.93,.38,1.26,.64,.21,.18,.32,.4,.31,.65,0,.26-.08,.47-.22,.64-.15,.18-.35,.27-.59,.29-.24,.02-.48-.03-.72-.16-.54-.32-1.13-.47-1.75-.47-1.14,0-1.71,.39-1.71,1.18,0,.25,.1,.46,.28,.63,.19,.16,.53,.31,1.02,.44l1.48,.34c1.78,.44,2.67,1.4,2.67,2.86Z"/></g><rect class="cls-2" x="73.04" y="82.86" width="193.17" height=".98"/><path class="cls-2" d="M169.94,49.17v21.27c0,1.49,1.24,2.69,2.64,2.69,1.49,0,2.63-1.2,2.63-2.69v-21.27c0-1.49-1.19-2.69-2.63-2.69s-2.64,1.2-2.64,2.69m-95.4,15.36c0-2.39,2.19-3.74,5.21-3.74,2.24,0,3.84,.31,6.02,.85v5.52c-.49,.39-2.33,1.54-5.77,1.54s-5.46-1.49-5.46-4.18m-1.59-17.01c-1.34,.6-1.74,1.59-1.74,2.44,0,1.54,1.44,2.69,3.63,1.98,1.39-.49,3.38-1.09,5.42-1.09,3.88,0,5.52,1.44,5.52,4.82v1.63c-2.29-.54-3.98-.84-6.31-.84-6.72,0-9.87,3.67-10.08,7.81v.91c.22,4.64,3.59,8.13,10.18,8.13,5.17,0,8.95-1.84,10.34-2.78,.75-.51,.94-1.04,.94-1.94v-12.93c0-6.71-3.93-9.64-10.28-9.64-3.03,0-6.16,.79-7.61,1.48m51.43,17.01c0-2.39,2.18-3.74,5.21-3.74,2.24,0,3.83,.31,6.02,.85v5.52c-.5,.39-2.34,1.54-5.77,1.54s-5.47-1.49-5.47-4.18m-1.59-17.01c-1.34,.6-1.74,1.59-1.74,2.44,0,1.54,1.45,2.69,3.64,1.98,1.39-.49,3.38-1.09,5.41-1.09,3.87,0,5.52,1.44,5.52,4.82v1.63c-2.29-.54-3.98-.84-6.32-.84-6.96,0-10.09,3.93-10.09,8.25,0,4.88,3.37,8.6,10.19,8.6,5.17,0,8.95-1.84,10.34-2.78,.74-.51,.94-1.04,.94-1.94v-12.93c0-6.71-3.92-9.64-10.29-9.64-3.03,0-6.16,.79-7.6,1.48m22.46,1.24c-.75,.5-1.05,1-1.05,2.04v19.53c0,1.49,1.25,2.69,2.64,2.69,1.48,0,2.63-1.2,2.63-2.69v-17.84c1.13-.7,3.47-1.4,5.91-1.4,3.09,0,5.77,1.69,5.77,5.67v13.57c0,1.49,1.24,2.69,2.63,2.69,1.54,0,2.64-1.2,2.64-2.69v-13.82c0-6.71-3.68-10.48-10.89-10.48-5.22,0-8.85,1.64-10.29,2.72m-46.02,13.67c-.14-1.54-.1-4.47,0-5.81,.21-3.63,2-5.52,5.77-5.52,2.59,0,5.07,.89,6.11,1.55v13.81c-.99,.75-3.57,1.79-5.71,1.79-3.83,0-5.87-1.99-6.17-5.82m11.88-22.42v7.45c-1.63-.74-4.12-1.43-6.51-1.43-6.41,0-10.09,3.82-10.64,9.99-.15,1.79-.15,5.31,0,7.05,.55,6.12,4.62,10.25,11.33,10.25,4.82,0,8.85-2.14,10.14-3.1,.8-.54,.95-1.09,.95-1.98v-28.23c0-1.49-1.15-2.69-2.64-2.69s-2.64,1.2-2.64,2.69m58.48,0c0,1.64,1.25,3.04,2.99,3.04,1.64,0,2.94-1.39,2.94-3.04s-1.3-2.93-2.94-2.93c-1.74,0-2.99,1.29-2.99,2.93"/></g><text class="cls-1" transform="translate(93.86 21.5)"><tspan x="0" y="0">Welcome to</tspan></text></svg>