<?xml version="1.0" encoding="UTF-8"?>
<svg width="659px" height="163px" viewBox="0 0 659 163" version="1.1" xmlns="http://www.w3.org/2000/svg" xmlns:xlink="http://www.w3.org/1999/xlink">
    <title>Group 15 Copy</title>
    <defs>
        <path d="M66.667,0 C48.568,0 29.911,4.707 21.286,8.846 L21.286,8.846 C13.295,12.438 10.913,18.324 10.913,23.397 L10.913,23.397 C10.913,32.586 19.497,39.43 32.571,35.228 L32.571,35.228 C40.861,32.279 52.738,28.719 64.845,28.719 L64.845,28.719 C87.971,28.719 97.756,37.33 97.756,57.46 L97.756,57.46 L97.756,67.212 C84.094,63.983 74.029,62.231 60.116,62.231 L60.116,62.231 C20.029,62.231 1.234,84.077 0,108.781 L0,108.781 L0,114.203 C1.196,140.075 18.842,159.931 53.188,162.433 L53.188,162.433 C55.445,162.658 57.76,162.784 60.132,162.796 L60.132,162.796 L60.132,115.782 L45.346,124.181 C41.872,126.09 38.285,126.562 34.588,125.612 L34.588,125.612 C30.894,124.659 28.092,122.392 26.188,118.805 L26.188,118.805 C25.288,117.125 24.761,115.387 24.592,113.598 L24.592,113.598 C24.421,111.804 24.592,110.043 25.096,108.304 L25.096,108.304 C25.6,106.565 26.412,104.941 27.532,103.428 L27.532,103.428 C28.652,101.914 30.051,100.656 31.734,99.647 L31.734,99.647 L66.352,80.154 C68.811,78.811 71.334,78.136 73.913,78.136 L73.913,78.136 C76.266,78.136 78.307,78.618 80.046,79.568 L80.046,79.568 C81.779,80.522 83.239,81.696 84.418,83.096 L84.418,83.096 C85.593,84.499 86.459,86.063 87.019,87.802 L87.019,87.802 C87.579,89.54 87.859,91.137 87.859,92.592 L87.859,92.592 L87.859,159.783 C88.399,159.66 88.946,159.549 89.481,159.419 L89.481,159.419 C105.398,155.726 116.911,149.771 122.351,146.133 L122.351,146.133 C126.824,143.096 127.984,139.898 127.984,134.549 L127.984,134.549 L127.984,57.46 C127.984,17.451 104.564,0 66.667,0 Z" id="path-1"></path>
        <polygon id="path-3" points="0 0 57.6835 0 57.6835 70.061 0 70.061"></polygon>
        <path d="M253.512,7.416 C253.512,11.572 256.663,15.096 261.063,15.096 L261.063,15.096 C265.21,15.096 268.495,11.572 268.495,7.416 L268.495,7.416 C268.495,3.27 265.21,0 261.063,0 L261.063,0 C256.663,0 253.512,3.27 253.512,7.416 M105.577,7.403 L105.577,26.25 C101.446,24.371 95.164,22.633 89.119,22.633 L89.119,22.633 C72.913,22.633 63.604,32.295 62.213,47.898 L62.213,47.898 C61.837,52.432 61.837,61.342 62.213,65.743 L62.213,65.743 C63.604,81.213 73.908,91.663 90.877,91.663 L90.877,91.663 C103.074,91.663 113.254,86.251 116.529,83.832 L116.529,83.832 C118.54,82.478 118.927,81.075 118.927,78.821 L118.927,78.821 L118.927,7.403 C118.927,3.644 116.02,0.609 112.253,0.609 L112.253,0.609 C108.612,0.609 105.577,3.644 105.577,7.403 M75.52,64.108 C75.174,60.206 75.274,52.803 75.52,49.4 L75.52,49.4 C76.05,40.228 80.572,35.444 90.126,35.444 L90.126,35.444 C96.67,35.444 102.963,37.697 105.577,39.358 L105.577,39.358 L105.577,74.286 C103.074,76.193 96.539,78.821 91.134,78.821 L91.134,78.821 C81.44,78.821 76.293,73.777 75.52,64.108 M191.936,29.522 C190.048,30.797 189.274,32.058 189.274,34.687 L189.274,34.687 L189.274,84.099 C189.274,87.88 192.429,90.914 195.965,90.914 L195.965,90.914 C199.718,90.914 202.626,87.88 202.626,84.099 L202.626,84.099 L202.626,38.976 C205.496,37.204 211.41,35.444 217.569,35.444 L217.569,35.444 C225.378,35.444 232.171,39.725 232.171,49.778 L232.171,49.778 L232.171,84.099 C232.171,87.88 235.304,90.914 238.834,90.914 L238.834,90.914 C242.733,90.914 245.5,87.88 245.5,84.099 L245.5,84.099 L245.5,49.15 C245.5,32.176 236.181,22.633 217.956,22.633 L217.956,22.633 C204.763,22.633 195.57,26.775 191.936,29.522 M135.113,26.382 C131.725,27.907 130.704,30.41 130.704,32.562 L130.704,32.562 C130.704,36.455 134.366,39.358 139.906,37.577 L139.906,37.577 C143.417,36.325 148.45,34.821 153.604,34.821 L153.604,34.821 C163.393,34.821 167.564,38.465 167.564,47.016 L167.564,47.016 L167.564,51.149 C161.774,49.778 157.484,49.03 151.584,49.03 L151.584,49.03 C133.987,49.03 126.066,58.976 126.066,69.899 L126.066,69.899 C126.066,82.234 134.602,91.663 151.833,91.663 L151.833,91.663 C164.906,91.663 174.467,87 177.993,84.625 L177.993,84.625 C179.874,83.337 180.381,81.984 180.381,79.715 L180.381,79.715 L180.381,47.016 C180.381,30.036 170.453,22.633 154.348,22.633 L154.348,22.633 C146.686,22.633 138.762,24.629 135.113,26.382 M139.14,69.404 C139.14,63.36 144.652,59.948 152.33,59.948 L152.33,59.948 C157.994,59.948 162.021,60.722 167.564,62.103 L167.564,62.103 L167.564,76.067 C166.302,77.065 161.644,79.965 152.973,79.965 L152.973,79.965 C144.044,79.965 139.14,76.193 139.14,69.404 M9.026,26.382 C5.639,27.907 4.627,30.41 4.627,32.562 L4.627,32.562 C4.627,36.455 8.268,39.358 13.815,37.577 L13.815,37.577 C17.334,36.325 22.366,34.821 27.514,34.821 L27.514,34.821 C37.323,34.821 41.467,38.465 41.467,47.016 L41.467,47.016 L41.467,51.149 C35.677,49.778 31.407,49.03 25.499,49.03 L25.499,49.03 C8.496,49.03 0.522,58.303 0,68.784 L0,68.784 L0,71.088 C0.545,82.829 9.081,91.663 25.748,91.663 L25.748,91.663 C38.826,91.663 48.381,87 51.908,84.625 L51.908,84.625 C53.801,83.337 54.291,81.984 54.291,79.715 L54.291,79.715 L54.291,47.016 C54.291,30.036 44.353,22.633 28.28,22.633 L28.28,22.633 C20.605,22.633 12.687,24.629 9.026,26.382 M13.055,69.404 C13.055,63.36 18.595,59.948 26.244,59.948 L26.244,59.948 C31.921,59.948 35.946,60.722 41.467,62.103 L41.467,62.103 L41.467,76.067 C40.215,77.065 35.564,79.965 26.875,79.965 L26.875,79.965 C17.954,79.965 13.055,76.193 13.055,69.404 M254.387,30.552 L254.387,84.358 C254.387,88.131 257.536,91.168 261.063,91.168 L261.063,91.168 C264.828,91.168 267.729,88.131 267.729,84.358 L267.729,84.358 L267.729,30.552 C267.729,26.788 264.717,23.76 261.063,23.76 L261.063,23.76 C257.272,23.76 254.387,26.788 254.387,30.552" id="path-5"></path>
    </defs>
    <g id="Page-1" stroke="none" stroke-width="1" fill="none" fill-rule="evenodd">
        <g id="Artboard" transform="translate(-75.000000, -72.000000)">
            <g id="Group-15-Copy" transform="translate(75.000000, 72.000000)">
                <g id="Group-3">
                    <mask id="mask-2" fill="white">
                        <use xlink:href="#path-1"></use>
                    </mask>
                    <g id="Clip-2"></g>
                    <path d="M66.667,0 C48.568,0 29.911,4.707 21.286,8.846 L21.286,8.846 C13.295,12.438 10.913,18.324 10.913,23.397 L10.913,23.397 C10.913,32.586 19.497,39.43 32.571,35.228 L32.571,35.228 C40.861,32.279 52.738,28.719 64.845,28.719 L64.845,28.719 C87.971,28.719 97.756,37.33 97.756,57.46 L97.756,57.46 L97.756,67.212 C84.094,63.983 74.029,62.231 60.116,62.231 L60.116,62.231 C20.029,62.231 1.234,84.077 0,108.781 L0,108.781 L0,114.203 C1.196,140.075 18.842,159.931 53.188,162.433 L53.188,162.433 C55.445,162.658 57.76,162.784 60.132,162.796 L60.132,162.796 L60.132,115.782 L45.346,124.181 C41.872,126.09 38.285,126.562 34.588,125.612 L34.588,125.612 C30.894,124.659 28.092,122.392 26.188,118.805 L26.188,118.805 C25.288,117.125 24.761,115.387 24.592,113.598 L24.592,113.598 C24.421,111.804 24.592,110.043 25.096,108.304 L25.096,108.304 C25.6,106.565 26.412,104.941 27.532,103.428 L27.532,103.428 C28.652,101.914 30.051,100.656 31.734,99.647 L31.734,99.647 L66.352,80.154 C68.811,78.811 71.334,78.136 73.913,78.136 L73.913,78.136 C76.266,78.136 78.307,78.618 80.046,79.568 L80.046,79.568 C81.779,80.522 83.239,81.696 84.418,83.096 L84.418,83.096 C85.593,84.499 86.459,86.063 87.019,87.802 L87.019,87.802 C87.579,89.54 87.859,91.137 87.859,92.592 L87.859,92.592 L87.859,159.783 C88.399,159.66 88.946,159.549 89.481,159.419 L89.481,159.419 C105.398,155.726 116.911,149.771 122.351,146.133 L122.351,146.133 C126.824,143.096 127.984,139.898 127.984,134.549 L127.984,134.549 L127.984,57.46 C127.984,17.451 104.564,0 66.667,0 Z" id="Fill-1" fill="#FFFFFF" fill-rule="nonzero" mask="url(#mask-2)"></path>
                </g>
                <g id="Group-11" transform="translate(468.600100, 57.079500)">
                    <path d="M29.734,13.017 C24.969,13.017 21.204,14.356 18.44,17.037 C15.674,19.717 14.121,23.184 13.782,27.437 C13.696,28.458 13.632,29.606 13.591,30.883 C13.547,32.159 13.527,33.48 13.527,34.84 C13.527,36.201 13.547,37.541 13.591,38.859 C13.632,40.179 13.696,41.306 13.782,42.241 C14.207,46.752 15.824,50.345 18.632,53.025 C21.439,55.704 25.14,57.045 29.734,57.045 C34.329,57.045 38.049,55.704 40.901,53.025 C43.75,50.345 45.387,46.752 45.814,42.241 C45.898,41.306 45.942,40.179 45.942,38.859 L45.942,34.84 C45.942,33.48 45.919,32.159 45.878,30.883 C45.834,29.606 45.814,28.458 45.814,27.437 C45.559,23.184 44.027,19.717 41.219,17.037 C38.413,14.356 34.584,13.017 29.734,13.017 M29.798,0 C33.889,0 37.684,0.618 41.18,1.85 C44.675,3.085 47.725,4.829 50.325,7.082 C52.925,9.338 55.012,12.039 56.591,15.186 C58.168,18.335 59.086,21.822 59.341,25.651 C59.425,26.927 59.489,28.353 59.533,29.926 C59.575,31.501 59.597,33.096 59.597,34.712 C59.597,36.329 59.575,37.946 59.533,39.561 C59.489,41.179 59.425,42.623 59.341,43.9 C59.086,47.645 58.168,51.111 56.591,54.301 C55.012,57.491 52.925,60.257 50.325,62.596 C47.725,64.937 44.675,66.765 41.18,68.084 C37.684,69.401 33.889,70.062 29.798,70.062 C25.79,70.062 22.037,69.401 18.542,68.084 C15.046,66.765 12,64.937 9.399,62.596 C6.799,60.257 4.687,57.491 3.068,54.301 C1.447,51.111 0.51,47.645 0.255,43.9 C0.169,42.623 0.105,41.179 0.064,39.561 C0.019,37.946 0,36.329 0,34.712 C0,33.096 0.019,31.501 0.064,29.926 C0.105,28.353 0.169,26.927 0.255,25.651 C0.51,21.822 1.447,18.335 3.068,15.186 C4.687,12.039 6.799,9.338 9.399,7.082 C12,4.829 15.046,3.085 18.542,1.85 C22.037,0.618 25.79,0 29.798,0" id="Fill-4" fill="#FFFFFF"></path>
                    <path d="M124.8073,62.404 C124.8073,64.362 124.1693,65.999 122.8933,67.318 C121.6173,68.638 120.0003,69.296 118.0433,69.296 C116.2573,69.296 114.6823,68.638 113.3223,67.318 C111.9603,65.999 111.2803,64.362 111.2803,62.404 L111.2803,27.565 C111.2803,25.013 110.8743,22.823 110.0673,20.993 C109.2573,19.164 108.1733,17.655 106.8133,16.462 C105.4513,15.272 103.8783,14.401 102.0913,13.846 C100.3053,13.294 98.4323,13.017 96.4763,13.017 C93.3273,13.017 90.3703,13.38 87.6073,14.101 C84.8413,14.826 82.7363,15.654 81.2903,16.59 L81.2903,62.404 C81.2903,64.362 80.6513,65.999 79.3753,67.318 C78.0993,68.638 76.4823,69.296 74.5263,69.296 C72.7393,69.296 71.1643,68.638 69.8043,67.318 C68.4423,65.999 67.7623,64.362 67.7623,62.404 L67.7623,12.251 C67.7623,10.891 67.9733,9.849 68.4003,9.124 C68.8253,8.403 69.5053,7.7 70.4423,7.019 C71.3773,6.339 72.6543,5.595 74.2713,4.785 C75.8863,3.978 77.8003,3.212 80.0143,2.489 C82.2253,1.766 84.7553,1.17 87.6073,0.702 C90.4563,0.235 93.5413,0 96.8593,0 C106.1313,0 113.1083,2.319 117.7883,6.955 C122.4663,11.593 124.8073,18.249 124.8073,26.927 L124.8073,62.404 Z" id="Fill-6" fill="#FFFFFF"></path>
                    <g id="Group-10" transform="translate(132.335400, 0.000500)">
                        <mask id="mask-4" fill="white">
                            <use xlink:href="#path-3"></use>
                        </mask>
                        <g id="Clip-9"></g>
                        <path d="M43.008,29.606 C43.857,29.606 44.368,29.096 44.54,28.076 C44.878,23.226 43.665,19.333 40.902,16.398 C38.136,13.463 34.286,11.996 29.352,11.996 C23.907,11.996 19.845,13.59 17.165,16.781 C14.486,19.971 13.229,24.247 13.401,29.606 L43.008,29.606 Z M57.684,32.159 C57.684,34.542 57.023,36.498 55.706,38.029 C54.386,39.561 52.324,40.327 49.516,40.327 L13.401,40.327 L13.401,41.857 C13.401,46.962 14.952,50.877 18.058,53.599 C21.164,56.322 25.225,57.682 30.246,57.682 C32.543,57.682 34.946,57.407 37.456,56.853 C39.965,56.3 42.453,55.556 44.922,54.62 C46.282,54.109 47.539,53.917 48.687,54.045 C49.835,54.172 50.812,54.513 51.622,55.066 C52.43,55.62 53.046,56.322 53.472,57.171 C53.897,58.023 54.11,58.917 54.11,59.852 C54.11,60.873 53.897,61.873 53.472,62.851 C53.046,63.83 52.11,64.745 50.665,65.595 C49.558,66.277 48.219,66.893 46.645,67.445 C45.07,67.999 43.369,68.466 41.541,68.849 C39.709,69.231 37.795,69.529 35.798,69.742 C33.797,69.954 31.862,70.061 29.991,70.061 C25.566,70.061 21.588,69.379 18.058,68.019 C14.527,66.659 11.487,64.765 8.934,62.34 C6.382,59.915 4.359,57.025 2.872,53.662 C1.383,50.302 0.511,46.623 0.256,42.623 C0.17,41.432 0.107,40.115 0.064,38.667 C0.021,37.221 0,35.796 0,34.392 C0,32.988 0.021,31.628 0.064,30.309 C0.107,28.99 0.17,27.82 0.256,26.799 C0.595,22.715 1.532,19.015 3.063,15.696 C4.595,12.378 6.637,9.551 9.189,7.21 C11.742,4.87 14.741,3.084 18.186,1.849 C21.632,0.618 25.353,0 29.352,0 C33.606,0 37.476,0.681 40.966,2.041 C44.454,3.403 47.43,5.339 49.899,7.847 C52.366,10.359 54.279,13.379 55.642,16.908 C57.002,20.44 57.684,24.332 57.684,28.585 L57.684,32.159 Z" id="Fill-8" fill="#FFFFFF" mask="url(#mask-4)"></path>
                    </g>
                </g>
                <g id="Group-14" transform="translate(169.951000, 35.567000)">
                    <mask id="mask-6" fill="white">
                        <use xlink:href="#path-5"></use>
                    </mask>
                    <g id="Clip-13"></g>
                    <path d="M253.512,7.416 C253.512,11.572 256.663,15.096 261.063,15.096 L261.063,15.096 C265.21,15.096 268.495,11.572 268.495,7.416 L268.495,7.416 C268.495,3.27 265.21,0 261.063,0 L261.063,0 C256.663,0 253.512,3.27 253.512,7.416 M105.577,7.403 L105.577,26.25 C101.446,24.371 95.164,22.633 89.119,22.633 L89.119,22.633 C72.913,22.633 63.604,32.295 62.213,47.898 L62.213,47.898 C61.837,52.432 61.837,61.342 62.213,65.743 L62.213,65.743 C63.604,81.213 73.908,91.663 90.877,91.663 L90.877,91.663 C103.074,91.663 113.254,86.251 116.529,83.832 L116.529,83.832 C118.54,82.478 118.927,81.075 118.927,78.821 L118.927,78.821 L118.927,7.403 C118.927,3.644 116.02,0.609 112.253,0.609 L112.253,0.609 C108.612,0.609 105.577,3.644 105.577,7.403 M75.52,64.108 C75.174,60.206 75.274,52.803 75.52,49.4 L75.52,49.4 C76.05,40.228 80.572,35.444 90.126,35.444 L90.126,35.444 C96.67,35.444 102.963,37.697 105.577,39.358 L105.577,39.358 L105.577,74.286 C103.074,76.193 96.539,78.821 91.134,78.821 L91.134,78.821 C81.44,78.821 76.293,73.777 75.52,64.108 M191.936,29.522 C190.048,30.797 189.274,32.058 189.274,34.687 L189.274,34.687 L189.274,84.099 C189.274,87.88 192.429,90.914 195.965,90.914 L195.965,90.914 C199.718,90.914 202.626,87.88 202.626,84.099 L202.626,84.099 L202.626,38.976 C205.496,37.204 211.41,35.444 217.569,35.444 L217.569,35.444 C225.378,35.444 232.171,39.725 232.171,49.778 L232.171,49.778 L232.171,84.099 C232.171,87.88 235.304,90.914 238.834,90.914 L238.834,90.914 C242.733,90.914 245.5,87.88 245.5,84.099 L245.5,84.099 L245.5,49.15 C245.5,32.176 236.181,22.633 217.956,22.633 L217.956,22.633 C204.763,22.633 195.57,26.775 191.936,29.522 M135.113,26.382 C131.725,27.907 130.704,30.41 130.704,32.562 L130.704,32.562 C130.704,36.455 134.366,39.358 139.906,37.577 L139.906,37.577 C143.417,36.325 148.45,34.821 153.604,34.821 L153.604,34.821 C163.393,34.821 167.564,38.465 167.564,47.016 L167.564,47.016 L167.564,51.149 C161.774,49.778 157.484,49.03 151.584,49.03 L151.584,49.03 C133.987,49.03 126.066,58.976 126.066,69.899 L126.066,69.899 C126.066,82.234 134.602,91.663 151.833,91.663 L151.833,91.663 C164.906,91.663 174.467,87 177.993,84.625 L177.993,84.625 C179.874,83.337 180.381,81.984 180.381,79.715 L180.381,79.715 L180.381,47.016 C180.381,30.036 170.453,22.633 154.348,22.633 L154.348,22.633 C146.686,22.633 138.762,24.629 135.113,26.382 M139.14,69.404 C139.14,63.36 144.652,59.948 152.33,59.948 L152.33,59.948 C157.994,59.948 162.021,60.722 167.564,62.103 L167.564,62.103 L167.564,76.067 C166.302,77.065 161.644,79.965 152.973,79.965 L152.973,79.965 C144.044,79.965 139.14,76.193 139.14,69.404 M9.026,26.382 C5.639,27.907 4.627,30.41 4.627,32.562 L4.627,32.562 C4.627,36.455 8.268,39.358 13.815,37.577 L13.815,37.577 C17.334,36.325 22.366,34.821 27.514,34.821 L27.514,34.821 C37.323,34.821 41.467,38.465 41.467,47.016 L41.467,47.016 L41.467,51.149 C35.677,49.778 31.407,49.03 25.499,49.03 L25.499,49.03 C8.496,49.03 0.522,58.303 0,68.784 L0,68.784 L0,71.088 C0.545,82.829 9.081,91.663 25.748,91.663 L25.748,91.663 C38.826,91.663 48.381,87 51.908,84.625 L51.908,84.625 C53.801,83.337 54.291,81.984 54.291,79.715 L54.291,79.715 L54.291,47.016 C54.291,30.036 44.353,22.633 28.28,22.633 L28.28,22.633 C20.605,22.633 12.687,24.629 9.026,26.382 M13.055,69.404 C13.055,63.36 18.595,59.948 26.244,59.948 L26.244,59.948 C31.921,59.948 35.946,60.722 41.467,62.103 L41.467,62.103 L41.467,76.067 C40.215,77.065 35.564,79.965 26.875,79.965 L26.875,79.965 C17.954,79.965 13.055,76.193 13.055,69.404 M254.387,30.552 L254.387,84.358 C254.387,88.131 257.536,91.168 261.063,91.168 L261.063,91.168 C264.828,91.168 267.729,88.131 267.729,84.358 L267.729,84.358 L267.729,30.552 C267.729,26.788 264.717,23.76 261.063,23.76 L261.063,23.76 C257.272,23.76 254.387,26.788 254.387,30.552" id="Fill-12" fill="#FFFFFF" fill-rule="nonzero" mask="url(#mask-6)"></path>
                </g>
            </g>
        </g>
    </g>
</svg>