<?xml version="1.0" encoding="UTF-8"?>
<svg width="20px" height="20px" viewBox="0 0 20 20" version="1.1" xmlns="http://www.w3.org/2000/svg" xmlns:xlink="http://www.w3.org/1999/xlink">
    <title>Instagram</title>
    <g id="Instagram" stroke="none" stroke-width="1" fill="none" fill-rule="evenodd">
        <g id="instagram-logo" fill="#000000" fill-rule="nonzero">
            <path d="M14.4,0 C17.4913432,0.00350106414 19.9964989,2.50865675 20,5.6 L20,5.6 L20,14.4 C19.9964989,17.4913432 17.4913432,19.9964989 14.4,20 L14.4,20 L5.6,20 C2.50865675,19.9964989 0.00350106414,17.4913432 0,14.4 L0,14.4 L0,5.6 C0.00350106414,2.50865675 2.50865675,0.00350106414 5.6,0 L5.6,0 Z M10,5.2 C7.3490332,5.2 5.2,7.3490332 5.2,10 C5.2,12.6509668 7.3490332,14.8 10,14.8 C12.6497249,14.7970043 14.7970043,12.6497249 14.8,10 C14.8,7.3490332 12.6509668,5.2 10,5.2 Z M10,6.8 C11.7673112,6.8 13.2,8.2326888 13.2,10 C13.2,11.7673112 11.7673112,13.2 10,13.2 C8.2326888,13.2 6.8,11.7673112 6.8,10 C6.8,8.2326888 8.2326888,6.8 10,6.8 Z M15.2,3.6 C14.5372583,3.6 14,4.1372583 14,4.8 C14,5.4627417 14.5372583,6 15.2,6 C15.8627417,6 16.4,5.4627417 16.4,4.8 C16.4,4.1372583 15.8627417,3.6 15.2,3.6 Z" id="Combined-Shape"></path>
        </g>
    </g>
</svg>