<?xml version="1.0" encoding="UTF-8"?>
<svg width="20px" height="20px" viewBox="0 0 20 20" version="1.1" xmlns="http://www.w3.org/2000/svg" xmlns:xlink="http://www.w3.org/1999/xlink">
    <title>Linkedin</title>
    <g id="Linkedin" stroke="none" stroke-width="1" fill="none" fill-rule="evenodd">
        <g id="linkedin" transform="translate(0.000000, -0.000000)" fill="#000000" fill-rule="nonzero">
            <path d="M0,2.22007722 C0,1.57656371 0.22523166,1.04567568 0.675675676,0.627413127 C1.12611969,0.209131274 1.71171815,0 2.43243243,0 C3.14028958,0 3.71299228,0.205907336 4.15057915,0.617760618 C4.60102317,1.04247104 4.82625483,1.59586873 4.82625483,2.27799228 C4.82625483,2.8957529 4.60747104,3.41054054 4.16988417,3.82239382 C3.71944015,4.24710425 3.12741313,4.45945946 2.39382239,4.45945946 L2.37451737,4.45945946 C1.66666023,4.45945946 1.09395753,4.24710425 0.656370656,3.82239382 C0.218783784,3.3976834 0,2.86357143 0,2.22007722 Z M0.250965251,19.1119691 L0.250965251,6.21621622 L4.53667954,6.21621622 L4.53667954,19.1119691 L0.250965251,19.1119691 Z M6.91119691,19.1119691 L11.1969112,19.1119691 L11.1969112,11.9111969 C11.1969112,11.4607336 11.2483977,11.1132432 11.3513514,10.8687259 C11.5315251,10.431139 11.8050193,10.0611197 12.1718147,9.75868726 C12.53861,9.45623552 12.9987066,9.30501931 13.5521236,9.30501931 C14.9935714,9.30501931 15.7142857,10.2766988 15.7142857,12.2200772 L15.7142857,19.1119691 L20,19.1119691 L20,11.7181467 C20,9.81337838 19.549556,8.36872587 18.6486486,7.38416988 C17.7477413,6.3996139 16.557278,5.90733591 15.0772201,5.90733591 C13.4169884,5.90733591 12.1235521,6.62162162 11.1969112,8.05019305 L11.1969112,8.08880309 L11.1776062,8.08880309 L11.1969112,8.05019305 L11.1969112,6.21621622 L6.91119691,6.21621622 C6.9369305,6.62805019 6.94980695,7.90861004 6.94980695,10.0579151 C6.94980695,12.2072008 6.9369305,15.2252124 6.91119691,19.1119691 Z" id="Shape"></path>
        </g>
    </g>
</svg>