<?xml version="1.0" encoding="UTF-8"?>
<svg width="20px" height="20px" viewBox="0 0 20 20" version="1.1" xmlns="http://www.w3.org/2000/svg" xmlns:xlink="http://www.w3.org/1999/xlink">
    <title>Twitter</title>
    <g id="Twitter" stroke="none" stroke-width="1" fill="none" fill-rule="evenodd">
        <g id="twitter" transform="translate(0.000000, 2.000000)" fill="#000000" fill-rule="nonzero">
            <path d="M20,1.89413264 C19.247667,2.21721103 18.4520003,2.4319271 17.6375,2.53166933 C18.4958348,2.03028941 19.1376073,1.23636716 19.44125,0.300290923 C18.6375184,0.769626939 17.7581707,1.10013586 16.84125,1.27751897 C15.6908178,0.0680656716 13.906575,-0.326340796 12.34147,0.28284365 C10.7763651,0.892028095 9.7483055,2.38106465 9.74875,4.03812668 C9.74875,4.35812579 9.77625,4.66581724 9.84375,4.9587395 C6.54470203,4.79948284 3.4708856,3.26361757 1.3925,0.735982018 C0.299763087,2.57999671 0.851514264,4.94275171 2.6525,6.13165931 C2.00344715,6.11452159 1.36809248,5.94398609 0.8,5.63442993 L0.8,5.6787375 C0.802241575,7.60029376 2.17381583,9.25652006 4.085,9.64549569 C3.73423317,9.73651635 3.37273273,9.78121553 3.01,9.77841839 C2.74948624,9.78297895 2.48923235,9.75987112 2.23375,9.70949551 C2.77666129,11.3515079 4.31173518,12.4783172 6.065,12.5217954 C4.61367308,13.6393801 2.82371695,14.2456295 0.98125,14.2436367 C0.645,14.2436367 0.3225,14.2288675 0,14.1882523 C1.87485261,15.3778374 4.05959463,16.0071012 6.29,16 C13.835,16 17.96,9.84611051 17.96,4.51197151 C17.96,4.33351047 17.95375,4.16120326 17.945,3.99012681 C18.753705,3.42026542 19.4500949,2.70998354 20,1.89413264 Z" id="Path"></path>
        </g>
    </g>
</svg>