<?xml version="1.0" encoding="UTF-8"?>
<svg width="20px" height="20px" viewBox="0 0 20 20" version="1.1" xmlns="http://www.w3.org/2000/svg" xmlns:xlink="http://www.w3.org/1999/xlink">
    <title>Youtube</title>
    <g id="Youtube" stroke="none" stroke-width="1" fill="none" fill-rule="evenodd">
        <path d="M17.0016114,3.21548053 C17.3918048,3.26381004 18.2447053,3.26841285 19.0055249,4.11763142 C19.6052026,4.76547703 19.7997238,6.23607505 19.7997238,6.23607505 L19.803364,6.26833154 C19.8304862,6.51224369 20,8.10021338 20,9.68818307 L20,11.306071 C20,13.032125 19.7997238,14.7581791 19.7997238,14.7581791 C19.7997238,14.7581791 19.6040516,16.2287771 19.0055249,16.8743213 C18.2447053,17.7235398 17.3929558,17.7281427 17.0016114,17.7787736 C14.4970074,17.9702747 10.8691582,17.9959599 10.1331523,17.9992455 L9.95580681,17.9992549 C9.44832768,17.9939054 4.71324225,17.9402452 3.19981584,17.7856778 C2.75437385,17.6970737 1.75644567,17.7223891 0.994475138,16.8743213 C0.394797422,16.2276264 0.200276243,14.7581791 0.200276243,14.7581791 C0.200276243,14.7581791 0.0157016575,13.1685082 0.000935690608,11.5132143 L0,9.68818307 C0,8.10021338 0.169513812,6.51321764 0.196636022,6.26946133 L0.200276243,6.23722575 L0.200276243,6.23722575 C0.200276243,6.23722575 0.395948435,4.76662773 0.994475138,4.11878213 C1.75529466,3.26841285 2.6070442,3.26381004 2.99838858,3.21548053 C5.28105917,3.03899907 8.49596811,3.00648933 9.6029492,3.0005007 L10.3920516,3.0005007 C11.5040319,3.00648933 14.7189408,3.03899907 17.0016114,3.21548053 Z M7.50230203,6.74928844 L7.50230203,14.2495685 L13.7546041,10.4994285 L7.50230203,6.74928844 Z" id="Combined-Shape-Copy" fill="#000000" fill-rule="nonzero"></path>
    </g>
</svg>