<?xml version="1.0" encoding="UTF-8"?>
<svg width="147px" height="44px" viewBox="0 0 147 44" version="1.1" xmlns="http://www.w3.org/2000/svg" xmlns:xlink="http://www.w3.org/1999/xlink">
    <title>Realty 1</title>
    <defs>
        <linearGradient x1="0%" y1="35.7304525%" x2="100%" y2="35.7304525%" id="linearGradient-1">
            <stop stop-color="#1C84A6" offset="0%"></stop>
            <stop stop-color="#386BB2" offset="25.2712057%"></stop>
            <stop stop-color="#7356A3" offset="49.4423174%"></stop>
            <stop stop-color="#903B94" offset="71.6984241%"></stop>
            <stop stop-color="#C54961" offset="100%"></stop>
        </linearGradient>
    </defs>
    <g id="Super-Web-Design---Desktop" stroke="none" stroke-width="1" fill="none" fill-rule="evenodd">
        <g id="Adani-Electricity---Assets" transform="translate(-1283.000000, -118.000000)" fill-rule="nonzero">
            <g id="Group-2-Copy-2" transform="translate(1255.000000, 90.000000)">
                <g id="Realty-1" transform="translate(28.000000, 28.000000)">
                    <path d="M93.3761122,31.798 C93.6632026,31.8110667 93.9241939,31.7130667 94.1590861,31.504 C94.3548295,31.3210667 94.459226,31.0793333 94.4722756,30.7788 C94.4853252,30.4782667 94.400503,30.2234667 94.2178091,30.0144 L94.2178091,30.0144 L91.0467649,26.1336 C91.4774005,26.0421333 91.8786746,25.8984 92.2505872,25.7024 C92.6224998,25.5064 92.9422142,25.2516 93.2097302,24.938 C93.4772463,24.6244 93.6893017,24.2454667 93.8458965,23.8012 C94.0024913,23.3569333 94.0807887,22.8408 94.0807887,22.2528 C94.0807887,21.5472 93.9600802,20.9232667 93.7186633,20.381 C93.4772463,19.8387333 93.1477448,19.3879333 92.7301587,19.0286 C92.3125727,18.6692667 91.8297388,18.3948667 91.2816571,18.2054 C90.7335753,18.0159333 90.1463449,17.9212 89.5199658,17.9212 L89.5199658,17.9212 L85.5267991,17.9212 C85.0309156,17.9212 84.6524782,18.0714667 84.3914869,18.372 C84.1304956,18.6725333 84,19.0318667 84,19.45 L84,19.45 L84,30.7004 C84,31.0009333 84.1011341,31.259 84.3034024,31.4746 C84.5056706,31.6902 84.75035,31.798 85.0374404,31.798 C85.3245308,31.798 85.5724725,31.6902 85.7812656,31.4746 C85.9900586,31.259 86.0944551,31.0009333 86.0944551,30.7004 L86.0944551,30.7004 L86.0944551,26.5844 L88.1301872,26.5844 C88.4042281,26.5844 88.6162835,26.6399333 88.7663535,26.751 C88.9164235,26.8620667 89.0697559,27.0156 89.2263506,27.2116 L89.2263506,27.2116 L92.6518613,31.4452 C92.8476048,31.6673333 93.0890218,31.7849333 93.3761122,31.798 Z M89.2850737,24.5852 L86.0944551,24.5852 L86.0944551,19.9596 L89.3829454,19.9596 C90.2703158,19.9596 90.922794,20.1621333 91.3403801,20.5672 C91.7579662,20.9722667 91.9667592,21.5406667 91.9667592,22.2724 C91.9667592,22.978 91.7677533,23.5398667 91.3697416,23.958 C90.9717299,24.3761333 90.2768406,24.5852 89.2850737,24.5852 L89.2850737,24.5852 Z M100.853513,31.896 C101.140603,31.896 101.437481,31.8796667 101.744145,31.847 C102.05081,31.8143333 102.344425,31.7686 102.624991,31.7098 C102.905557,31.651 103.166548,31.5791333 103.407965,31.4942 C103.649382,31.4092667 103.854913,31.3145333 104.024557,31.21 C104.2464,31.0793333 104.389945,30.9388667 104.455193,30.7886 C104.52044,30.6383333 104.553064,30.4848 104.553064,30.328 C104.553064,30.1842667 104.52044,30.0470667 104.455193,29.9164 C104.389945,29.7857333 104.295335,29.6779333 104.171365,29.593 C104.047394,29.5080667 103.897324,29.4558 103.721155,29.4362 C103.544985,29.4166 103.352504,29.446 103.143711,29.5244 C102.765274,29.6681333 102.383574,29.7824667 101.998612,29.8674 C101.61365,29.9523333 101.245,29.9948 100.892661,29.9948 C100.122737,29.9948 99.4996204,29.7857333 99.0233113,29.3676 C98.5470022,28.9494667 98.3088476,28.3484 98.3088476,27.5644 L98.3088476,27.5644 L98.3088476,27.3292 L103.848388,27.3292 C104.279023,27.3292 104.595475,27.2116 104.797744,26.9764 C105.000012,26.7412 105.101146,26.4406667 105.101146,26.0748 L105.101146,26.0748 L105.101146,25.526 C105.101146,24.8726667 104.996749,24.2748667 104.787956,23.7326 C104.579163,23.1903333 104.285548,22.7264667 103.907111,22.341 C103.528673,21.9555333 103.071939,21.6582667 102.536907,21.4492 C102.001874,21.2401333 101.408119,21.1356 100.755641,21.1356 C100.142311,21.1356 99.571393,21.2303333 99.0428856,21.4198 C98.5143782,21.6092667 98.0543811,21.8836667 97.6628942,22.243 C97.2714072,22.6023333 96.9582177,23.0368 96.7233255,23.5464 C96.4884333,24.056 96.3448881,24.6244 96.2926899,25.2516 C96.2796403,25.4084 96.2698531,25.5880667 96.2633284,25.7906 C96.2568036,25.9931333 96.2535412,26.2022 96.2535412,26.4178 C96.2535412,26.6334 96.2568036,26.8522667 96.2633284,27.0744 C96.2698531,27.2965333 96.2796403,27.4990667 96.2926899,27.682 C96.3318386,28.2961333 96.4655966,28.8612667 96.693964,29.3774 C96.9223314,29.8935333 97.2322585,30.3378 97.6237455,30.7102 C98.0152324,31.0826 98.4817543,31.3733333 99.0233113,31.5824 C99.5648682,31.7914667 100.174935,31.896 100.853513,31.896 Z M102.850096,25.6828 L98.3088476,25.6828 C98.2827485,24.8596 98.4752296,24.203 98.8862908,23.713 C99.2973521,23.223 99.9204688,22.978 100.755641,22.978 C101.512516,22.978 102.103009,23.2034 102.527119,23.6542 C102.95123,24.105 103.137187,24.7028 103.084988,25.4476 C103.058889,25.6044 102.980592,25.6828 102.850096,25.6828 L102.850096,25.6828 Z M110.758132,31.896 C111.267065,31.896 111.740112,31.8568 112.177272,31.7784 C112.614433,31.7 113.00592,31.602 113.351733,31.4844 C113.697547,31.3668 113.994424,31.2459333 114.242366,31.1218 C114.490308,30.9976667 114.686051,30.8898667 114.829596,30.7984 C114.973142,30.6938667 115.071013,30.5860667 115.123212,30.475 C115.17541,30.3639333 115.201509,30.2169333 115.201509,30.034 L115.201509,30.034 L115.201509,24.938 C115.201509,23.6182667 114.839384,22.6546 114.115133,22.047 C113.390882,21.4394 112.402377,21.1356 111.149619,21.1356 C110.549339,21.1356 109.971896,21.1976667 109.417289,21.3218 C108.862683,21.4459333 108.441835,21.5798667 108.154744,21.7236 C107.893753,21.8412 107.714321,21.9882 107.61645,22.1646 C107.518578,22.341 107.469642,22.5141333 107.469642,22.684 C107.469642,22.9845333 107.600138,23.2262667 107.861129,23.4092 C108.12212,23.5921333 108.467934,23.6117333 108.898569,23.468 C109.17261,23.3634667 109.495587,23.2654667 109.867499,23.174 C110.239412,23.0825333 110.627637,23.0368 111.032173,23.0368 C111.802097,23.0368 112.356704,23.1870667 112.695993,23.4876 C113.035281,23.7881333 113.204926,24.2716 113.204926,24.938 L113.204926,24.938 L113.204926,25.5848 C112.748191,25.4802667 112.333867,25.3986 111.961955,25.3398 C111.590042,25.281 111.175718,25.2516 110.718984,25.2516 C110.027357,25.2516 109.433601,25.3398 108.937718,25.5162 C108.441835,25.6926 108.030773,25.9310667 107.704534,26.2316 C107.378295,26.5321333 107.136878,26.8784 106.980283,27.2704 C106.823689,27.6624 106.745391,28.074 106.745391,28.5052 C106.745391,28.9886667 106.830213,29.4362 106.999858,29.8478 C107.169502,30.2594 107.420706,30.6187333 107.75347,30.9258 C108.086234,31.2328667 108.50382,31.4713333 109.006228,31.6412 C109.508636,31.8110667 110.092604,31.896 110.758132,31.896 Z M110.934301,30.0732 C110.229625,30.0732 109.694593,29.9327333 109.329205,29.6518 C108.963817,29.3708667 108.781123,28.9625333 108.781123,28.4268 C108.781123,27.9564 108.973604,27.5938 109.358566,27.339 C109.743529,27.0842 110.23615,26.9568 110.83643,26.9568 C111.280115,26.9568 111.678127,26.9862 112.030465,27.045 C112.382803,27.1038 112.77429,27.1854667 113.204926,27.29 L113.204926,27.29 L113.204926,29.4656 C113.100529,29.544 112.865637,29.6648667 112.500249,29.8282 C112.134861,29.9915333 111.612879,30.0732 110.934301,30.0732 Z M118.822763,31.7784 C119.122903,31.7784 119.370845,31.6771333 119.566588,31.4746 C119.762332,31.2720667 119.860204,31.0205333 119.860204,30.72 L119.860204,30.72 L119.860204,18.7836 C119.860204,18.4830667 119.759069,18.2315333 119.556801,18.029 C119.354533,17.8264667 119.109854,17.7252 118.822763,17.7252 C118.522623,17.7252 118.274681,17.8264667 118.078938,18.029 C117.883195,18.2315333 117.785323,18.4830667 117.785323,18.7836 L117.785323,18.7836 L117.785323,30.72 C117.785323,31.0205333 117.889719,31.2720667 118.098512,31.4746 C118.307305,31.6771333 118.548722,31.7784 118.822763,31.7784 Z M125.732508,31.896 C126.110945,31.896 126.495907,31.8666 126.887394,31.8078 C127.278881,31.749 127.624695,31.6542667 127.924835,31.5236 C128.185826,31.4190667 128.36852,31.2818667 128.472916,31.112 C128.577313,30.9421333 128.629511,30.7592 128.629511,30.5632 C128.629511,30.4194667 128.600149,30.279 128.541426,30.1418 C128.482703,30.0046 128.401144,29.8935333 128.296747,29.8086 C128.192351,29.7236667 128.058593,29.6616 127.895473,29.6224 C127.732353,29.5832 127.552922,29.5897333 127.357178,29.642 C127.135336,29.7073333 126.910231,29.7726667 126.681863,29.838 C126.453496,29.9033333 126.208817,29.936 125.947825,29.936 C125.464992,29.936 125.112653,29.8020667 124.890811,29.5342 C124.668968,29.2663333 124.558047,28.8841333 124.558047,28.3876 L124.558047,28.3876 L124.558047,23.5072 L127.259307,23.5072 C127.520298,23.5072 127.748665,23.419 127.944409,23.2426 C128.140152,23.0662 128.238024,22.8473333 128.238024,22.586 C128.238024,22.3246667 128.140152,22.1058 127.944409,21.9294 C127.748665,21.753 127.520298,21.6648 127.259307,21.6648 L127.259307,21.6648 L124.558047,21.6648 L124.558047,20.1752 C124.558047,19.8746667 124.456913,19.6231333 124.254644,19.4206 C124.052376,19.2180667 123.807697,19.1168 123.520606,19.1168 C123.220466,19.1168 122.972525,19.2180667 122.776781,19.4206 C122.581038,19.6231333 122.483166,19.8746667 122.483166,20.1752 L122.483166,20.1752 L122.483166,28.368 C122.483166,28.8645333 122.548414,29.3284 122.67891,29.7596 C122.809405,30.1908 123.008411,30.5632 123.275927,30.8768 C123.543443,31.1904 123.879469,31.4386667 124.284006,31.6216 C124.688542,31.8045333 125.171376,31.896 125.732508,31.896 Z M131.683109,35.522 C131.9702,35.522 132.263815,35.424 132.563955,35.228 C132.968491,34.9666667 133.415439,34.5224 133.904797,33.8952 C134.394156,33.268 134.834579,32.484 135.226066,31.5432 L135.226066,31.5432 L138.906043,22.782 C138.984341,22.5990667 139.013702,22.4161333 138.994128,22.2332 C138.974553,22.0502667 138.91583,21.8869333 138.817959,21.7432 C138.720087,21.5994667 138.596116,21.4851333 138.446046,21.4002 C138.295976,21.3152667 138.123069,21.2728 137.927326,21.2728 C137.666334,21.2728 137.447754,21.3479333 137.271585,21.4982 C137.095416,21.6484667 136.961658,21.8477333 136.870311,22.096 L136.870311,22.096 L134.443092,28.3876 C134.416993,28.4268 134.384369,28.4464 134.34522,28.4464 C134.306072,28.4464 134.279972,28.4268 134.266923,28.3876 L134.266923,28.3876 L131.624386,22.0568 C131.546089,21.8346667 131.418855,21.6484667 131.242686,21.4982 C131.066517,21.3479333 130.841412,21.2728 130.567371,21.2728 C130.397727,21.2728 130.23787,21.3152667 130.0878,21.4002 C129.93773,21.4851333 129.813759,21.5962 129.715887,21.7334 C129.618016,21.8706 129.559292,22.0306667 129.539718,22.2136 C129.520144,22.3965333 129.549505,22.586 129.627803,22.782 L129.627803,22.782 L133.190334,30.9944 C132.929343,31.7 132.609628,32.2716667 132.231191,32.7094 C131.852753,33.1471333 131.487366,33.4770667 131.135027,33.6992 C130.991482,33.8037333 130.883823,33.9344 130.812051,34.0912 C130.740278,34.248 130.704392,34.3982667 130.704392,34.542 C130.704392,34.8425333 130.802264,35.081 130.998007,35.2574 C131.19375,35.4338 131.422118,35.522 131.683109,35.522 Z" id="Realty" fill="#555555"></path>
                    <path d="M14.6698565,32 C15.5157895,32 16.3020734,31.9343365 17.0287081,31.8030096 C17.7553429,31.6716826 18.4060606,31.5075239 18.9808612,31.3105335 C19.5556619,31.1135431 20.0491228,30.9110807 20.461244,30.7031464 C20.8733652,30.495212 21.1987241,30.3146375 21.4373206,30.1614227 C21.6759171,29.9863201 21.8385965,29.8057456 21.9253589,29.619699 C22.0121212,29.4336525 22.0555024,29.1874145 22.0555024,28.880985 L22.0555024,28.880985 L22.0555024,20.3447332 C22.0555024,18.1340629 21.4535885,16.5198358 20.2497608,15.502052 C19.045933,14.4842681 17.4028708,13.9753762 15.3205742,13.9753762 C14.322807,13.9753762 13.3629984,14.0793434 12.4411483,14.2872777 C11.5192982,14.495212 10.8197767,14.7195622 10.3425837,14.9603283 C9.90877193,15.1573187 9.61052632,15.4035568 9.44784689,15.6990424 C9.28516746,15.994528 9.20382775,16.2845417 9.20382775,16.5690834 C9.20382775,17.0725034 9.42073365,17.4774282 9.85454545,17.7838577 C10.2883573,18.0902873 10.8631579,18.123119 11.5789474,17.8823529 C12.0344498,17.7072503 12.5712919,17.5430917 13.1894737,17.3898769 C13.8076555,17.2366621 14.4529506,17.1600547 15.1253589,17.1600547 C16.4051037,17.1600547 17.3269537,17.4117647 17.8909091,17.9151847 C18.4548644,18.4186047 18.7368421,19.2284542 18.7368421,20.3447332 L18.7368421,20.3447332 L18.7368421,21.4281806 C17.9776715,21.253078 17.2889952,21.1162791 16.6708134,21.0177839 C16.0526316,20.9192886 15.3639553,20.870041 14.6047847,20.870041 C13.4551834,20.870041 12.4682616,21.0177839 11.6440191,21.3132695 C10.8197767,21.6087551 10.1365231,22.0082079 9.59425837,22.5116279 C9.05199362,23.0150479 8.6507177,23.5950752 8.39043062,24.25171 C8.13014354,24.9083447 8,25.5978112 8,26.3201094 C8,27.129959 8.14098884,27.879617 8.42296651,28.5690834 C8.70494418,29.2585499 9.12248804,29.8604651 9.67559809,30.374829 C10.2287081,30.8891929 10.922807,31.2886457 11.7578947,31.5731874 C12.5929825,31.8577291 13.5636364,32 14.6698565,32 Z M14.9626794,28.9466484 C13.7913876,28.9466484 12.9020734,28.7113543 12.2947368,28.2407661 C11.6874003,27.7701778 11.3837321,27.0861833 11.3837321,26.1887825 C11.3837321,25.4008208 11.7036683,24.7934337 12.3435407,24.3666211 C12.9834131,23.9398085 13.8022329,23.7264022 14.8,23.7264022 C15.5374801,23.7264022 16.1990431,23.7756498 16.784689,23.874145 C17.3703349,23.9726402 18.0210526,24.1094391 18.7368421,24.2845417 L18.7368421,24.2845417 L18.7368421,27.9288646 C18.5633174,28.0601915 18.1728868,28.2626539 17.5655502,28.5362517 C16.9582137,28.8098495 16.0905901,28.9466484 14.9626794,28.9466484 Z M30.937799,32 C31.7186603,32 32.4669856,31.9233926 33.1827751,31.7701778 C33.8985646,31.6169631 34.5438596,31.4309166 35.1186603,31.2120383 C35.6934609,30.9931601 36.1923445,30.7688098 36.615311,30.5389877 C37.0382775,30.3091655 37.3582137,30.1176471 37.5751196,29.9644323 C37.8354067,29.7893297 38.0035088,29.6032832 38.0794258,29.4062927 C38.1553429,29.2093023 38.1933014,28.9575923 38.1933014,28.6511628 L38.1933014,28.6511628 L38.1933014,10.002736 C38.1933014,9.49931601 38.030622,9.07797538 37.7052632,8.73871409 C37.3799043,8.3994528 36.9677831,8.22982216 36.4688995,8.22982216 C35.9917065,8.22982216 35.585008,8.3994528 35.2488038,8.73871409 C34.9125997,9.07797538 34.7444976,9.49931601 34.7444976,10.002736 L34.7444976,10.002736 L34.7444976,14.9274966 C34.2022329,14.6867305 33.5515152,14.4678523 32.7923445,14.2708618 C32.0331738,14.0738714 31.2631579,13.9753762 30.4822967,13.9753762 C28.3783094,13.9753762 26.7352472,14.5608755 25.55311,15.7318741 C24.3709729,16.9028728 23.6931419,18.5170999 23.5196172,20.5745554 C23.4979266,20.880985 23.4816587,21.2366621 23.4708134,21.6415869 C23.4599681,22.0465116 23.4545455,22.4678523 23.4545455,22.9056088 C23.4545455,23.3433653 23.4599681,23.7701778 23.4708134,24.1860465 C23.4816587,24.6019152 23.4979266,24.9521204 23.5196172,25.2366621 C23.6063796,26.2435021 23.8341308,27.1627907 24.2028708,27.994528 C24.5716108,28.8262654 25.0759171,29.5376197 25.7157895,30.128591 C26.3556619,30.7195622 27.1094099,31.1792066 27.9770335,31.5075239 C28.8446571,31.8358413 29.8315789,32 30.937799,32 Z M31.0028708,28.6511628 C28.508453,28.6511628 27.1636364,27.370725 26.9684211,24.8098495 C26.9467305,24.5471956 26.9304625,24.246238 26.9196172,23.9069767 C26.9087719,23.5677155 26.9033493,23.2175103 26.9033493,22.8563611 C26.9033493,22.495212 26.9087719,22.1450068 26.9196172,21.8057456 C26.9304625,21.4664843 26.9467305,21.1874145 26.9684211,20.9685363 C27.0334928,19.7647059 27.369697,18.8563611 27.9770335,18.2435021 C28.58437,17.630643 29.5062201,17.3242134 30.7425837,17.3242134 C31.5885167,17.3242134 32.3802233,17.4391245 33.1177033,17.6689466 C33.8551834,17.8987688 34.3974482,18.123119 34.7444976,18.3419973 L34.7444976,18.3419973 L34.7444976,27.4692202 C34.5709729,27.6005472 34.3486443,27.7318741 34.077512,27.8632011 C33.8063796,27.994528 33.4972887,28.120383 33.1502392,28.2407661 C32.8031898,28.3611491 32.4452951,28.4596443 32.076555,28.5362517 C31.707815,28.6128591 31.3499203,28.6511628 31.0028708,28.6511628 Z M46.2947368,32 C47.1406699,32 47.9269537,31.9343365 48.6535885,31.8030096 C49.3802233,31.6716826 50.030941,31.5075239 50.6057416,31.3105335 C51.1805423,31.1135431 51.6740032,30.9110807 52.0861244,30.7031464 C52.4982456,30.495212 52.8236045,30.3146375 53.062201,30.1614227 C53.3007974,29.9863201 53.4634769,29.8057456 53.5502392,29.619699 C53.6370016,29.4336525 53.6803828,29.1874145 53.6803828,28.880985 L53.6803828,28.880985 L53.6803828,20.3447332 C53.6803828,18.1340629 53.0784689,16.5198358 51.8746411,15.502052 C50.6708134,14.4842681 49.0277512,13.9753762 46.9454545,13.9753762 C45.9476874,13.9753762 44.9878788,14.0793434 44.0660287,14.2872777 C43.1441786,14.495212 42.4446571,14.7195622 41.9674641,14.9603283 C41.5336523,15.1573187 41.2354067,15.4035568 41.0727273,15.6990424 C40.9100478,15.994528 40.8287081,16.2845417 40.8287081,16.5690834 C40.8287081,17.0725034 41.045614,17.4774282 41.4794258,17.7838577 C41.9132376,18.0902873 42.4880383,18.123119 43.2038278,17.8823529 C43.6593301,17.7072503 44.1961722,17.5430917 44.8143541,17.3898769 C45.4325359,17.2366621 46.0778309,17.1600547 46.7502392,17.1600547 C48.0299841,17.1600547 48.9518341,17.4117647 49.5157895,17.9151847 C50.0797448,18.4186047 50.3617225,19.2284542 50.3617225,20.3447332 L50.3617225,20.3447332 L50.3617225,21.4281806 C49.6025518,21.253078 48.9138756,21.1162791 48.2956938,21.0177839 C47.677512,20.9192886 46.9888357,20.870041 46.2296651,20.870041 C45.0800638,20.870041 44.0931419,21.0177839 43.2688995,21.3132695 C42.4446571,21.6087551 41.7614035,22.0082079 41.2191388,22.5116279 C40.676874,23.0150479 40.2755981,23.5950752 40.015311,24.25171 C39.7550239,24.9083447 39.6248804,25.5978112 39.6248804,26.3201094 C39.6248804,27.129959 39.7658692,27.879617 40.0478469,28.5690834 C40.3298246,29.2585499 40.7473684,29.8604651 41.3004785,30.374829 C41.8535885,30.8891929 42.5476874,31.2886457 43.3827751,31.5731874 C44.2178628,31.8577291 45.1885167,32 46.2947368,32 Z M46.5875598,28.9466484 C45.4162679,28.9466484 44.5269537,28.7113543 43.9196172,28.2407661 C43.3122807,27.7701778 43.0086124,27.0861833 43.0086124,26.1887825 C43.0086124,25.4008208 43.3285486,24.7934337 43.9684211,24.3666211 C44.6082935,23.9398085 45.4271132,23.7264022 46.4248804,23.7264022 C47.1623604,23.7264022 47.8239234,23.7756498 48.4095694,23.874145 C48.9952153,23.9726402 49.645933,24.1094391 50.3617225,24.2845417 L50.3617225,24.2845417 L50.3617225,27.9288646 C50.1881978,28.0601915 49.7977671,28.2626539 49.1904306,28.5362517 C48.5830941,28.8098495 47.7154705,28.9466484 46.5875598,28.9466484 Z M68.4516746,31.8030096 C68.9505582,31.8030096 69.3626794,31.6333789 69.6880383,31.2941176 C70.0133971,30.9548564 70.1760766,30.5335157 70.1760766,30.0300958 L70.1760766,30.0300958 L70.1760766,20.9028728 C70.1760766,18.6703146 69.5795853,16.9575923 68.3866029,15.7647059 C67.1936204,14.5718194 65.414992,13.9753762 63.0507177,13.9753762 C62.2047847,13.9753762 61.4185008,14.0355677 60.691866,14.1559508 C59.9652313,14.2763338 59.3199362,14.4295486 58.7559809,14.6155951 C58.1920255,14.8016416 57.7039872,14.998632 57.291866,15.2065663 C56.8797448,15.4145007 56.554386,15.6060192 56.3157895,15.7811218 C56.077193,15.9562244 55.9036683,16.1367989 55.7952153,16.3228454 C55.6867624,16.5088919 55.6325359,16.7770178 55.6325359,17.127223 L55.6325359,17.127223 L55.6325359,30.0300958 C55.6325359,30.5335157 55.8060606,30.9548564 56.15311,31.2941176 C56.5001595,31.6333789 56.9014354,31.8030096 57.3569378,31.8030096 C57.8558214,31.8030096 58.2679426,31.6333789 58.5933014,31.2941176 C58.9186603,30.9548564 59.0813397,30.5335157 59.0813397,30.0300958 L59.0813397,30.0300958 L59.0813397,18.2435021 C59.4500797,18.002736 59.9869219,17.7893297 60.691866,17.6032832 C61.3968102,17.4172367 62.1505582,17.3242134 62.95311,17.3242134 C63.4519936,17.3242134 63.9291866,17.3953488 64.384689,17.5376197 C64.8401914,17.6798906 65.2414673,17.9042408 65.5885167,18.2106703 C65.9355662,18.5170999 66.2121212,18.9056088 66.4181818,19.376197 C66.6242424,19.8467852 66.7272727,20.4103967 66.7272727,21.0670315 L66.7272727,21.0670315 L66.7272727,30.0300958 C66.7272727,30.5335157 66.9007974,30.9548564 67.2478469,31.2941176 C67.5948963,31.6333789 67.9961722,31.8030096 68.4516746,31.8030096 Z M74.0803828,11.9398085 C74.6226475,11.9398085 75.0781499,11.7428181 75.44689,11.3488372 C75.81563,10.9548564 76,10.4842681 76,9.9370725 C76,9.38987688 75.81563,8.93023256 75.44689,8.55813953 C75.0781499,8.18604651 74.6226475,8 74.0803828,8 C73.5164274,8 73.0500797,8.18604651 72.6813397,8.55813953 C72.3125997,8.93023256 72.1282297,9.38987688 72.1282297,9.9370725 C72.1282297,10.4842681 72.3125997,10.9548564 72.6813397,11.3488372 C73.0500797,11.7428181 73.5164274,11.9398085 74.0803828,11.9398085 Z M74.0803828,31.8030096 C74.5792663,31.8030096 74.9913876,31.6333789 75.3167464,31.2941176 C75.6421053,30.9548564 75.8047847,30.5335157 75.8047847,30.0300958 L75.8047847,30.0300958 L75.8047847,15.9781122 C75.8047847,15.4746922 75.6366826,15.0533516 75.3004785,14.7140903 C74.9642743,14.374829 74.5575758,14.2051984 74.0803828,14.2051984 C73.5814992,14.2051984 73.169378,14.374829 72.8440191,14.7140903 C72.5186603,15.0533516 72.3559809,15.4746922 72.3559809,15.9781122 L72.3559809,15.9781122 L72.3559809,30.0300958 C72.3559809,30.5335157 72.5295056,30.9548564 72.876555,31.2941176 C73.2236045,31.6333789 73.6248804,31.8030096 74.0803828,31.8030096 Z" id="adani" fill="url(#linearGradient-1)"></path>
                </g>
            </g>
        </g>
    </g>
</svg>