<svg xmlns="http://www.w3.org/2000/svg" xmlns:xlink="http://www.w3.org/1999/xlink" viewBox="0 0 218.65 27.52"><defs><style>.cls-1{fill:none;}.cls-2{clip-path:url(#clip-path);}.cls-3{clip-path:url(#clip-path-2);}.cls-4,.cls-9{fill:#fff;}.cls-5{clip-path:url(#clip-path-3);}.cls-6{clip-path:url(#clip-path-4);}.cls-7{clip-path:url(#clip-path-5);}.cls-8{opacity:0;}.cls-9{fill-rule:evenodd;}</style><clipPath id="clip-path" transform="translate(0 0.26)"><path class="cls-1" d="M70.93.68a.47.47,0,0,1,.47.47h0V22.76a.47.47,0,0,1-.47.47h0a.47.47,0,0,1-.47-.47h0V1.15a.47.47,0,0,1,.47-.47Z"/></clipPath><clipPath id="clip-path-2" transform="translate(0 0.26)"><rect class="cls-1" x="-58.25" y="-85.75" width="339.16" height="274.34"/></clipPath><clipPath id="clip-path-3" transform="translate(0 0.26)"><path class="cls-1" d="M86.79,22.83a1,1,0,0,0,.73-.28.92.92,0,0,0,.3-.68,1,1,0,0,0-.24-.72h0l-3-3.64a4.26,4.26,0,0,0,1.13-.41,3.11,3.11,0,0,0,.9-.71,3.43,3.43,0,0,0,.6-1.07,4.24,4.24,0,0,0,.22-1.46,4.2,4.2,0,0,0-.34-1.75,3.54,3.54,0,0,0-.93-1.27,4.19,4.19,0,0,0-1.36-.78,4.87,4.87,0,0,0-1.65-.26H79.41a1.32,1.32,0,0,0-1.06.42,1.45,1.45,0,0,0-.37,1h0V21.8a1,1,0,0,0,.28.73,1,1,0,0,0,1.39,0,1,1,0,0,0,.3-.73h0V17.93h1.91a1,1,0,0,1,.6.16,2.19,2.19,0,0,1,.43.43h0l3.22,4A.93.93,0,0,0,86.79,22.83Zm-3.85-6.78h-3V11.71H83a2.54,2.54,0,0,1,1.84.57,2.12,2.12,0,0,1,.59,1.6,2.18,2.18,0,0,1-.56,1.58,2.59,2.59,0,0,1-2,.59Zm10.87,6.87a7.87,7.87,0,0,0,.84,0c.28,0,.55-.08.83-.13a6.05,6.05,0,0,0,.73-.2,2.8,2.8,0,0,0,.58-.27,1,1,0,0,0,.4-.4,1.28,1.28,0,0,0,.1-.43.87.87,0,0,0-.1-.39.83.83,0,0,0-.26-.3,1.11,1.11,0,0,0-.43-.15,1.26,1.26,0,0,0-.54.09,7.9,7.9,0,0,1-1.08.32,4.53,4.53,0,0,1-1,.12,2.56,2.56,0,0,1-1.76-.59,2.13,2.13,0,0,1-.67-1.69h0v-.23h5.2a1.1,1.1,0,0,0,.89-.33,1.23,1.23,0,0,0,.29-.84h0v-.52a4.8,4.8,0,0,0-.3-1.68A3.61,3.61,0,0,0,96.67,14a3.44,3.44,0,0,0-1.28-.84,4.74,4.74,0,0,0-1.67-.3,4.9,4.9,0,0,0-1.61.27,3.9,3.9,0,0,0-1.3.77,4,4,0,0,0-.88,1.23,4.65,4.65,0,0,0-.4,1.6c0,.15,0,.31,0,.5s0,.39,0,.59,0,.41,0,.62,0,.4,0,.57a4.57,4.57,0,0,0,.38,1.59,3.79,3.79,0,0,0,.87,1.26,4.08,4.08,0,0,0,1.31.82A4.82,4.82,0,0,0,93.81,22.92Zm1.88-5.83H91.42A2.65,2.65,0,0,1,92,15.23a2.16,2.16,0,0,1,1.75-.69,2.21,2.21,0,0,1,1.67.64,2.11,2.11,0,0,1,.52,1.68c0,.15-.1.22-.22.22Zm7.43,5.83a6.58,6.58,0,0,0,1.33-.11,6.8,6.8,0,0,0,1.1-.27,7.76,7.76,0,0,0,.84-.34l.55-.3a.89.89,0,0,0,.28-.3,1,1,0,0,0,.07-.42h0V16.39a3.32,3.32,0,0,0-1-2.71,4.23,4.23,0,0,0-2.79-.86,7.38,7.38,0,0,0-1.62.18,5.48,5.48,0,0,0-1.19.37,1.05,1.05,0,0,0-.51.42,1,1,0,0,0-.13.49.79.79,0,0,0,.36.68,1.09,1.09,0,0,0,1,0,7.3,7.3,0,0,1,.91-.27,4.45,4.45,0,0,1,1.09-.13,2.37,2.37,0,0,1,1.57.42,1.71,1.71,0,0,1,.47,1.36h0V17c-.43-.1-.81-.17-1.16-.23a7.67,7.67,0,0,0-1.17-.08,5,5,0,0,0-1.68.25,3.25,3.25,0,0,0-1.15.67,2.59,2.59,0,0,0-.68,1,3,3,0,0,0-.23,1.16A3.4,3.4,0,0,0,99.58,21a2.85,2.85,0,0,0,.71,1,3.29,3.29,0,0,0,1.18.67,4.85,4.85,0,0,0,1.65.23Zm.16-1.71a2.53,2.53,0,0,1-1.51-.4,1.36,1.36,0,0,1-.51-1.15,1.12,1.12,0,0,1,.54-1,2.44,2.44,0,0,1,1.39-.36,6,6,0,0,1,1.12.08c.33.06.7.13,1.1.23h0v2.05a4.12,4.12,0,0,1-.66.34A3.87,3.87,0,0,1,103.28,21.21Zm7.41,1.6a.93.93,0,0,0,.7-.29,1,1,0,0,0,.28-.71h0V10.6a1,1,0,0,0-.29-.71.94.94,0,0,0-.69-.28.92.92,0,0,0-.7.28,1,1,0,0,0-.27.71h0V21.82a1,1,0,0,0,.29.71,1,1,0,0,0,.69.28Zm6.49.11a7.88,7.88,0,0,0,1.09-.08,4.11,4.11,0,0,0,1-.27,1.06,1.06,0,0,0,.52-.39,1,1,0,0,0,.14-.51.9.9,0,0,0-.08-.4.82.82,0,0,0-.23-.32,1,1,0,0,0-.38-.17.94.94,0,0,0-.5,0l-.64.18a2.61,2.61,0,0,1-.69.09,1.17,1.17,0,0,1-1-.38,1.59,1.59,0,0,1-.31-1.07h0V15h2.54a.87.87,0,0,0,.64-.25.82.82,0,0,0,0-1.23,1,1,0,0,0-.64-.25h-2.54V11.9a1,1,0,0,0-.29-.71,1,1,0,0,0-1.39,0,1,1,0,0,0-.27.71h0v7.7a4.5,4.5,0,0,0,.18,1.31,3,3,0,0,0,.56,1.05,2.73,2.73,0,0,0,.95.7,3.38,3.38,0,0,0,1.37.26Zm5.6,3.41a1.56,1.56,0,0,0,.83-.28,5.53,5.53,0,0,0,1.26-1.25,9.79,9.79,0,0,0,1.24-2.21h0l3.46-8.23a1,1,0,0,0,.08-.52,1,1,0,0,0-.17-.46,1.07,1.07,0,0,0-.35-.32,1,1,0,0,0-.48-.12.92.92,0,0,0-.62.21,1.47,1.47,0,0,0-.38.57h0l-2.28,5.91a.11.11,0,0,1-.09.05.08.08,0,0,1-.07-.05h0l-2.49-5.95a1.2,1.2,0,0,0-.35-.53,1,1,0,0,0-.64-.21.89.89,0,0,0-.45.12,1.17,1.17,0,0,0-.35.31.94.94,0,0,0-.16.46,1.08,1.08,0,0,0,.08.53h0l3.35,7.72a5.55,5.55,0,0,1-.9,1.61,5,5,0,0,1-1,.93.8.8,0,0,0-.3.36.94.94,0,0,0-.1.43.82.82,0,0,0,.27.67A.93.93,0,0,0,122.78,26.33Z"/></clipPath><clipPath id="clip-path-4" transform="translate(0 0.26)"><rect class="cls-1" x="-58.25" y="-85.75" width="339.16" height="274.34"/></clipPath><clipPath id="clip-path-5" transform="translate(0 0.26)"><path class="cls-1" d="M6.27,23.23a12.59,12.59,0,0,0,2.21-.18,13.06,13.06,0,0,0,1.84-.47A10.41,10.41,0,0,0,11.71,22a8.56,8.56,0,0,0,.92-.51,1.3,1.3,0,0,0,.45-.51,1.6,1.6,0,0,0,.13-.69h0v-8a5.67,5.67,0,0,0-1.7-4.55A7,7,0,0,0,6.88,6.3a13,13,0,0,0-2.71.29,9.63,9.63,0,0,0-2,.63,1.74,1.74,0,0,0-.84.7,1.59,1.59,0,0,0-.23.82,1.32,1.32,0,0,0,.61,1.14A1.75,1.75,0,0,0,3.36,10a11.42,11.42,0,0,1,1.51-.46,7.49,7.49,0,0,1,1.82-.22,3.89,3.89,0,0,1,2.6.71,3,3,0,0,1,.8,2.28h0v1c-.72-.16-1.36-.29-1.94-.39a12.78,12.78,0,0,0-1.95-.13,8.22,8.22,0,0,0-2.78.41A5.57,5.57,0,0,0,1.5,14.32,4.39,4.39,0,0,0,.37,16,5.2,5.2,0,0,0,0,17.9,5.46,5.46,0,0,0,.4,20a4.57,4.57,0,0,0,1.18,1.7,5.29,5.29,0,0,0,1.95,1.12A8.46,8.46,0,0,0,6.27,23.23Zm.27-2.87A4.06,4.06,0,0,1,4,19.7a2.28,2.28,0,0,1-.85-1.93,1.91,1.91,0,0,1,.9-1.71,4.06,4.06,0,0,1,2.31-.6,10.59,10.59,0,0,1,1.86.14c.55.09,1.16.22,1.84.38h0v3.43A7.64,7.64,0,0,1,9,20,6.23,6.23,0,0,1,6.54,20.36Zm15,2.87A10.63,10.63,0,0,0,23.66,23a12.65,12.65,0,0,0,1.82-.53,11.73,11.73,0,0,0,1.4-.63,8.24,8.24,0,0,0,.9-.54,1.2,1.2,0,0,0,.48-.52,2.15,2.15,0,0,0,.11-.71h0V2.57a1.69,1.69,0,0,0-.46-1.19A1.57,1.57,0,0,0,26.74.9a1.54,1.54,0,0,0-1.14.48,1.6,1.6,0,0,0-.48,1.19h0V7.19a11.56,11.56,0,0,0-1.83-.61,8.39,8.39,0,0,0-2.17-.28A6.28,6.28,0,0,0,16.49,8a7,7,0,0,0-1.91,4.55c0,.29,0,.62-.05,1s0,.77,0,1.18,0,.82,0,1.2,0,.72,0,1a8.27,8.27,0,0,0,.64,2.59,6,6,0,0,0,1.42,2,6.4,6.4,0,0,0,2.13,1.3A7.53,7.53,0,0,0,21.55,23.23Zm.06-3.15c-2.34,0-3.61-1.2-3.79-3.61,0-.24,0-.52,0-.84s0-.65,0-1,0-.67,0-1,0-.58,0-.78a3.79,3.79,0,0,1,.95-2.56,3.52,3.52,0,0,1,2.6-.87,7.67,7.67,0,0,1,2.23.33,6.58,6.58,0,0,1,1.53.63h0V19a3.35,3.35,0,0,1-.63.37,6.63,6.63,0,0,1-.87.36,8.89,8.89,0,0,1-1,.28A4.87,4.87,0,0,1,21.61,20.08ZM36,23.23a12.59,12.59,0,0,0,2.21-.18A12.72,12.72,0,0,0,40,22.58,10.41,10.41,0,0,0,41.42,22a8.56,8.56,0,0,0,.92-.51A1.41,1.41,0,0,0,42.8,21a1.6,1.6,0,0,0,.12-.69h0v-8a5.67,5.67,0,0,0-1.7-4.55A7,7,0,0,0,36.59,6.3a13,13,0,0,0-2.71.29,9.63,9.63,0,0,0-2,.63,1.74,1.74,0,0,0-.84.7,1.59,1.59,0,0,0-.23.82,1.32,1.32,0,0,0,.61,1.14,1.75,1.75,0,0,0,1.62.09,11.42,11.42,0,0,1,1.51-.46,7.49,7.49,0,0,1,1.82-.22A3.87,3.87,0,0,1,39,10a2.88,2.88,0,0,1,.8,2.28h0v1c-.71-.16-1.36-.29-1.94-.38a11.44,11.44,0,0,0-1.94-.14,8.4,8.4,0,0,0-2.78.41,5.52,5.52,0,0,0-1.93,1.13A4.39,4.39,0,0,0,30.08,16a5.2,5.2,0,0,0-.37,1.95,5.65,5.65,0,0,0,.4,2.11,4.69,4.69,0,0,0,1.18,1.7,5.41,5.41,0,0,0,2,1.13A8.39,8.39,0,0,0,36,23.23Zm.27-2.87a4,4,0,0,1-2.5-.66,2.29,2.29,0,0,1-.86-1.93,1.94,1.94,0,0,1,.9-1.71,4.08,4.08,0,0,1,2.31-.6A10.52,10.52,0,0,1,38,15.6c.55.09,1.16.22,1.84.38h0v3.43a7.64,7.64,0,0,1-1.1.57A6.17,6.17,0,0,1,36.25,20.36ZM56.8,23.05A1.55,1.55,0,0,0,58,22.57a1.69,1.69,0,0,0,.46-1.19h0V12.81A6.56,6.56,0,0,0,56.73,8a6.79,6.79,0,0,0-5-1.68,13.62,13.62,0,0,0-2.21.17,12.36,12.36,0,0,0-1.82.43,9.27,9.27,0,0,0-1.38.56,5.68,5.68,0,0,0-.92.54,1.83,1.83,0,0,0-.49.51,1.6,1.6,0,0,0-.15.75h0V21.38a1.61,1.61,0,0,0,.49,1.19,1.56,1.56,0,0,0,1.13.48,1.53,1.53,0,0,0,1.16-.48A1.64,1.64,0,0,0,48,21.38h0V10.31a5.18,5.18,0,0,1,1.51-.6,8.07,8.07,0,0,1,2.13-.26,4.07,4.07,0,0,1,1.34.2,2.87,2.87,0,0,1,1.13.63,3,3,0,0,1,.78,1.1A3.75,3.75,0,0,1,55.17,13h0v8.41a1.61,1.61,0,0,0,.49,1.19A1.58,1.58,0,0,0,56.8,23.05ZM62.08,4.38a1.7,1.7,0,0,0,1.29-.55,1.87,1.87,0,0,0,.52-1.33,1.82,1.82,0,0,0-.52-1.3,1.87,1.87,0,0,0-2.6,0,1.75,1.75,0,0,0-.52,1.3,1.85,1.85,0,0,0,.52,1.32A1.69,1.69,0,0,0,62.08,4.38Zm0,18.67a1.57,1.57,0,0,0,1.17-.48,1.69,1.69,0,0,0,.45-1.19h0V8.18A1.62,1.62,0,0,0,63.23,7a1.63,1.63,0,0,0-2.31,0,1.61,1.61,0,0,0-.46,1.18h0v13.2A1.61,1.61,0,0,0,61,22.57a1.57,1.57,0,0,0,1.13.48Z"/></clipPath></defs><g id="Layer_2" data-name="Layer 2"><g id="Layer_1-2" data-name="Layer 1"><g id="Group_786" data-name="Group 786"><g class="cls-2"><g id="Group_787" data-name="Group 787"><g class="cls-3"><g id="Group_786-2" data-name="Group 786-2"><path id="Path_1075" data-name="Path 1075" class="cls-4" d="M69.52-.26h2.82V24.17H69.52Z" transform="translate(0 0.26)"/></g></g></g></g><g class="cls-5"><g id="Group_789" data-name="Group 789"><g class="cls-6"><g id="Group_788" data-name="Group 788"><path id="Path_1078" data-name="Path 1078" class="cls-4" d="M77,8.67h53.55v18.6H77Z" transform="translate(0 0.26)"/></g></g></g></g><g class="cls-7"><g id="Group_794" data-name="Group 794"><g id="Group_796" data-name="Group 796"><g id="Group_791" data-name="Group 791" class="cls-8"><g id="Group_790" data-name="Group 790"><path id="Path_1081" data-name="Path 1081" class="cls-4" d="M0,.68H129.65V27H0Z" transform="translate(0 0.26)"/></g></g><g id="Group_792" data-name="Group 792"><path id="Path_1082" data-name="Path 1082" class="cls-4" d="M0,.68H129.65V27H0Z" transform="translate(0 0.26)"/></g></g></g></g></g><g id="Group_797" data-name="Group 797"><g id="Group_669" data-name="Group 669"><path id="Path_1051" data-name="Path 1051" class="cls-9" d="M146.65,4.33h7.93l3.06,11.76,3-11.76h7.9V23.67h-4.92V8.92l-3.82,14.75h-4.45l-3.8-14.75V23.67h-4.93V4.33Zm40.74,19.34H171.14a10.13,10.13,0,0,1,1.7-4.5,23,23,0,0,1,5.31-5,16.14,16.14,0,0,0,3-2.66,3,3,0,0,0,.67-1.73,2.07,2.07,0,0,0-.66-1.52,2.53,2.53,0,0,0-3.36,0,3.89,3.89,0,0,0-.88,2.28l-5.43-.44a8.59,8.59,0,0,1,1.18-3.54,5.33,5.33,0,0,1,2.4-1.95A10.93,10.93,0,0,1,179.4,4a12.23,12.23,0,0,1,4.45.65,5.3,5.3,0,0,1,2.5,2,5.17,5.17,0,0,1,.91,3,6.09,6.09,0,0,1-1,3.38,14.32,14.32,0,0,1-3.79,3.53c-1.1.75-1.82,1.27-2.19,1.57s-.8.69-1.3,1.17h8.45Zm3.22-19.34h6v7.31L203,4.33h8l-7.1,7.29,7.42,12.05h-7.42l-4.1-8-3.12,3.23v4.73h-6Z" transform="translate(0 0.26)"/><path id="Path_1054" data-name="Path 1054" class="cls-9" d="M216.07,0a2.7,2.7,0,0,1,1.27.33,2.49,2.49,0,0,1,1,1,2.6,2.6,0,0,1,0,2.59,2.46,2.46,0,0,1-1,1,2.63,2.63,0,0,1-2.58,0,2.46,2.46,0,0,1-1-1,2.6,2.6,0,0,1,0-2.59,2.49,2.49,0,0,1,1-1A2.71,2.71,0,0,1,216.06,0Zm0,.43A2.22,2.22,0,0,0,215,.71a2,2,0,0,0-.81.8,2.17,2.17,0,0,0,0,2.15,2.05,2.05,0,0,0,.8.8,2.12,2.12,0,0,0,2.15,0,1.93,1.93,0,0,0,.8-.8,2.1,2.1,0,0,0,.29-1.07,2.16,2.16,0,0,0-.29-1.08,2,2,0,0,0-.81-.8,2.21,2.21,0,0,0-1.06-.28ZM214.93,4h.45V2.84h.26a.56.56,0,0,1,.36.09,2.12,2.12,0,0,1,.47.65l.25.44h.55l-.34-.54a3.84,3.84,0,0,0-.41-.56.72.72,0,0,0-.24-.14.84.84,0,0,0,.58-.26.75.75,0,0,0,.22-.53.74.74,0,0,0-.13-.41.77.77,0,0,0-.35-.27,2.41,2.41,0,0,0-.71-.07h-1V4Zm.45-1.57h.54a.91.91,0,0,0,.54-.11.4.4,0,0,0,.07-.53.3.3,0,0,0-.19-.14,1.35,1.35,0,0,0-.45,0h-.51Z" transform="translate(0 0.26)"/></g></g></g></g></svg>