<svg xmlns="http://www.w3.org/2000/svg" xmlns:xlink="http://www.w3.org/1999/xlink" viewBox="0 0 218.28 27.52"><defs><style>.cls-1{fill:none;}.cls-2{fill:#c7101d;}.cls-2,.cls-3{fill-rule:evenodd;}.cls-3{fill:#1a1818;}.cls-4{clip-path:url(#clip-path);}.cls-5{clip-path:url(#clip-path-2);}.cls-6{fill:#545454;}.cls-7{clip-path:url(#clip-path-3);}.cls-8{clip-path:url(#clip-path-4);}.cls-9{clip-path:url(#clip-path-5);}.cls-10{clip-path:url(#clip-path-6);}.cls-11{opacity:0;}.cls-12{fill:url(#linear-gradient);}.cls-13{fill:url(#linear-gradient-2);}</style><clipPath id="clip-path" transform="translate(0 0.29)"><path class="cls-1" d="M70.56.64a.47.47,0,0,1,.47.47h0V22.72a.47.47,0,0,1-.47.47h0a.47.47,0,0,1-.47-.47h0V1.11a.47.47,0,0,1,.47-.47Z"/></clipPath><clipPath id="clip-path-2" transform="translate(0 0.29)"><rect class="cls-1" x="-58.62" y="-85.79" width="339.16" height="274.34"/></clipPath><clipPath id="clip-path-3" transform="translate(0 0.29)"><path class="cls-1" d="M86.42,22.79a1,1,0,0,0,.73-.28,1,1,0,0,0,.06-1.39h0l-3-3.65a4.26,4.26,0,0,0,1.13-.41,3.11,3.11,0,0,0,.9-.71,3.43,3.43,0,0,0,.6-1.07,4.5,4.5,0,0,0,.22-1.46,4.37,4.37,0,0,0-.34-1.75,3.54,3.54,0,0,0-.93-1.27A4.19,4.19,0,0,0,84.45,10a4.89,4.89,0,0,0-1.66-.26H79a1.35,1.35,0,0,0-1.07.42,1.49,1.49,0,0,0-.36,1h0V21.76a1,1,0,0,0,.28.73,1,1,0,0,0,1.39,0,1.06,1.06,0,0,0,.3-.73h0V17.89h1.91a1,1,0,0,1,.6.16,2.5,2.5,0,0,1,.43.43h0l3.22,4A.93.93,0,0,0,86.42,22.79ZM82.57,16h-3V11.67h3.09a2.54,2.54,0,0,1,1.84.57,2.16,2.16,0,0,1,.59,1.6,2.18,2.18,0,0,1-.56,1.58,2.6,2.6,0,0,1-2,.59Zm10.87,6.87a7.87,7.87,0,0,0,.84,0c.28,0,.55-.08.83-.13a6.05,6.05,0,0,0,.73-.2,3.06,3.06,0,0,0,.58-.27,1,1,0,0,0,.4-.4,1.07,1.07,0,0,0,.09-.43.86.86,0,0,0-.09-.39.77.77,0,0,0-.27-.3,1,1,0,0,0-.42-.15,1.26,1.26,0,0,0-.54.09,7.9,7.9,0,0,1-1.08.32,4.55,4.55,0,0,1-1,.12,2.53,2.53,0,0,1-1.75-.59,2.13,2.13,0,0,1-.67-1.69h0V18.6h5.2a1.14,1.14,0,0,0,.89-.34,1.22,1.22,0,0,0,.28-.84h0V16.9a4.57,4.57,0,0,0-.29-1.68,3.75,3.75,0,0,0-.83-1.31A3.52,3.52,0,0,0,95,13.07a4.74,4.74,0,0,0-1.67-.3,4.9,4.9,0,0,0-1.61.27,3.9,3.9,0,0,0-1.3.77A4,4,0,0,0,89.56,15a4.44,4.44,0,0,0-.4,1.6,3.89,3.89,0,0,0,0,.51c0,.19,0,.38,0,.58s0,.41,0,.62a4.91,4.91,0,0,0,0,.57,4.56,4.56,0,0,0,.37,1.59,3.86,3.86,0,0,0,2.19,2.08A4.79,4.79,0,0,0,93.44,22.88Zm1.88-5.83H91.05a2.65,2.65,0,0,1,.54-1.85,2.23,2.23,0,0,1,4,1.62c0,.15-.1.23-.22.23Zm7.43,5.83a6.64,6.64,0,0,0,1.33-.11,7.06,7.06,0,0,0,1.1-.27,7.76,7.76,0,0,0,.84-.34l.55-.3a1,1,0,0,0,.28-.3,1.23,1.23,0,0,0,.07-.42h0V16.35a3.35,3.35,0,0,0-1-2.71,4.25,4.25,0,0,0-2.79-.86,7.47,7.47,0,0,0-1.63.18,5.57,5.57,0,0,0-1.18.37,1.05,1.05,0,0,0-.51.42,1.16,1.16,0,0,0-.14.49.82.82,0,0,0,.37.68,1.09,1.09,0,0,0,1,.05,6.83,6.83,0,0,1,.91-.27,4.45,4.45,0,0,1,1.09-.13,2.33,2.33,0,0,1,1.56.42,1.72,1.72,0,0,1,.48,1.36h0V17c-.43-.1-.82-.17-1.17-.23a7.45,7.45,0,0,0-1.16-.08,5,5,0,0,0-1.68.25,3.29,3.29,0,0,0-1.16.67,2.7,2.7,0,0,0-.68,1A3.23,3.23,0,0,0,99,19.71,3.4,3.4,0,0,0,99.21,21a2.85,2.85,0,0,0,.71,1,3.29,3.29,0,0,0,1.18.67,4.85,4.85,0,0,0,1.65.23Zm.16-1.71a2.49,2.49,0,0,1-1.51-.4,1.39,1.39,0,0,1-.52-1.15,1.15,1.15,0,0,1,.55-1,2.42,2.42,0,0,1,1.39-.36,6,6,0,0,1,1.12.08c.33.06.7.13,1.1.23h0V20.6a4.12,4.12,0,0,1-.66.34A3.87,3.87,0,0,1,102.91,21.17Zm7.41,1.6a.93.93,0,0,0,.7-.29,1,1,0,0,0,.27-.7h0V10.56a1,1,0,0,0-.28-.71.94.94,0,0,0-.69-.28.92.92,0,0,0-.7.28,1,1,0,0,0-.28.71h0V21.78a1,1,0,0,0,.3.71,1,1,0,0,0,.68.28Zm6.49.11a8,8,0,0,0,1.09-.08,4.11,4.11,0,0,0,1-.27,1.06,1.06,0,0,0,.52-.39,1,1,0,0,0,.14-.51,1.06,1.06,0,0,0-.08-.4.82.82,0,0,0-.23-.32,1,1,0,0,0-.38-.17.94.94,0,0,0-.5,0l-.64.18A2.61,2.61,0,0,1,117,21a1.17,1.17,0,0,1-1-.38,1.59,1.59,0,0,1-.31-1.07h0V15h2.53a.89.89,0,0,0,.65-.25.84.84,0,0,0,0-1.23,1,1,0,0,0-.65-.25h-2.53v-1.4a1,1,0,0,0-.29-.71.94.94,0,0,0-.69-.28.92.92,0,0,0-.7.28,1,1,0,0,0-.27.71h0v7.7a4.19,4.19,0,0,0,.18,1.31,2.89,2.89,0,0,0,.56,1.05,2.64,2.64,0,0,0,1,.7,3.38,3.38,0,0,0,1.37.26Zm5.6,3.41a1.59,1.59,0,0,0,.83-.28,5.53,5.53,0,0,0,1.26-1.25,9.79,9.79,0,0,0,1.24-2.21h0l3.45-8.23a1,1,0,0,0,.09-.52,1.12,1.12,0,0,0-.17-.46,1.07,1.07,0,0,0-.35-.32,1,1,0,0,0-.49-.12.91.91,0,0,0-.61.21,1.47,1.47,0,0,0-.38.57h0L125,19.59a.11.11,0,0,1-.09.05s-.07,0-.07-.05h0l-2.49-5.95a1.14,1.14,0,0,0-.36-.53,1,1,0,0,0-.63-.21.89.89,0,0,0-.45.12,1.07,1.07,0,0,0-.35.32,1,1,0,0,0-.17.45,1.08,1.08,0,0,0,.09.53h0L123.82,22a5.12,5.12,0,0,1-.9,1.61,4.57,4.57,0,0,1-1,.93.91.91,0,0,0-.3.37,1.18,1.18,0,0,0-.1.42.86.86,0,0,0,.28.67A.93.93,0,0,0,122.41,26.29Z"/></clipPath><clipPath id="clip-path-4" transform="translate(0 0.29)"><rect class="cls-1" x="-58.62" y="-85.79" width="339.16" height="274.34"/></clipPath><clipPath id="clip-path-5" transform="translate(0 0.29)"><path class="cls-1" d="M6.27,23.19A12.59,12.59,0,0,0,8.48,23a13.06,13.06,0,0,0,1.84-.47A10.41,10.41,0,0,0,11.71,22a8.56,8.56,0,0,0,.92-.51,1.35,1.35,0,0,0,.45-.5,1.68,1.68,0,0,0,.13-.7h0v-8a5.67,5.67,0,0,0-1.7-4.55A7,7,0,0,0,6.88,6.26a13,13,0,0,0-2.71.29,9.63,9.63,0,0,0-2,.63,1.74,1.74,0,0,0-.84.7,1.59,1.59,0,0,0-.23.82,1.32,1.32,0,0,0,.61,1.14,1.75,1.75,0,0,0,1.62.09,11.42,11.42,0,0,1,1.51-.46,7.49,7.49,0,0,1,1.82-.22,3.89,3.89,0,0,1,2.6.71,3,3,0,0,1,.8,2.28h0v1c-.72-.16-1.36-.29-1.94-.38a11.63,11.63,0,0,0-1.95-.14,8.22,8.22,0,0,0-2.78.41A5.57,5.57,0,0,0,1.5,14.28,4.39,4.39,0,0,0,.37,15.91,5.2,5.2,0,0,0,0,17.86,5.46,5.46,0,0,0,.4,20a4.57,4.57,0,0,0,1.18,1.7,5.29,5.29,0,0,0,1.95,1.12A8.46,8.46,0,0,0,6.27,23.19Zm.27-2.87A4.06,4.06,0,0,1,4,19.66a2.28,2.28,0,0,1-.85-1.93A1.91,1.91,0,0,1,4.08,16a4.06,4.06,0,0,1,2.31-.6,10.59,10.59,0,0,1,1.86.14c.55.09,1.16.22,1.84.38h0v3.43a7.64,7.64,0,0,1-1.1.57A6.23,6.23,0,0,1,6.54,20.32Zm15,2.87A10.63,10.63,0,0,0,23.66,23a12.65,12.65,0,0,0,1.82-.53,11.73,11.73,0,0,0,1.4-.63,8.24,8.24,0,0,0,.9-.54,1.2,1.2,0,0,0,.48-.52,2.15,2.15,0,0,0,.11-.71h0V2.53a1.69,1.69,0,0,0-.46-1.19A1.57,1.57,0,0,0,26.74.86a1.54,1.54,0,0,0-1.14.48,1.6,1.6,0,0,0-.48,1.19h0V7.15a11.56,11.56,0,0,0-1.83-.61,8.39,8.39,0,0,0-2.17-.28,6.28,6.28,0,0,0-4.63,1.65,7,7,0,0,0-1.91,4.55c0,.29,0,.62-.05,1s0,.77,0,1.18,0,.82,0,1.2,0,.72,0,1a8.27,8.27,0,0,0,.64,2.59,6,6,0,0,0,1.42,2,6.4,6.4,0,0,0,2.13,1.3A7.53,7.53,0,0,0,21.55,23.19ZM21.61,20c-2.34,0-3.61-1.2-3.79-3.6,0-.25,0-.53,0-.85s0-.65,0-1,0-.67,0-1,0-.58,0-.78a3.79,3.79,0,0,1,.95-2.56,3.52,3.52,0,0,1,2.6-.87,7.67,7.67,0,0,1,2.23.33,6.58,6.58,0,0,1,1.53.63h0v8.57a3.35,3.35,0,0,1-.63.37,6.63,6.63,0,0,1-.87.36,8.89,8.89,0,0,1-1,.28A4.87,4.87,0,0,1,21.61,20ZM36,23.19A12.59,12.59,0,0,0,38.19,23,12.72,12.72,0,0,0,40,22.54,10.41,10.41,0,0,0,41.42,22a8.56,8.56,0,0,0,.92-.51,1.47,1.47,0,0,0,.46-.5,1.67,1.67,0,0,0,.12-.7h0v-8a5.67,5.67,0,0,0-1.7-4.55,7,7,0,0,0-4.63-1.43,13,13,0,0,0-2.71.29,9.63,9.63,0,0,0-2,.63,1.74,1.74,0,0,0-.84.7,1.59,1.59,0,0,0-.23.82,1.32,1.32,0,0,0,.61,1.14,1.75,1.75,0,0,0,1.62.09,11.42,11.42,0,0,1,1.51-.46,7.49,7.49,0,0,1,1.82-.22A3.87,3.87,0,0,1,39,10a2.88,2.88,0,0,1,.8,2.28h0v1c-.71-.16-1.36-.29-1.94-.38a11.44,11.44,0,0,0-1.94-.14,8.4,8.4,0,0,0-2.78.41,5.52,5.52,0,0,0-1.93,1.13,4.39,4.39,0,0,0-1.13,1.63,5.2,5.2,0,0,0-.37,1.95,5.65,5.65,0,0,0,.4,2.11,4.69,4.69,0,0,0,1.18,1.7,5.41,5.41,0,0,0,2,1.13A8.39,8.39,0,0,0,36,23.19Zm.27-2.87a4,4,0,0,1-2.5-.66,2.29,2.29,0,0,1-.86-1.93,1.94,1.94,0,0,1,.9-1.71,4.08,4.08,0,0,1,2.31-.6,10.52,10.52,0,0,1,1.86.14c.55.09,1.16.22,1.84.38h0v3.43a7.64,7.64,0,0,1-1.1.57A6.17,6.17,0,0,1,36.25,20.32ZM56.8,23A1.55,1.55,0,0,0,58,22.53a1.69,1.69,0,0,0,.46-1.19h0V12.77a6.56,6.56,0,0,0-1.69-4.83,6.79,6.79,0,0,0-5-1.68,13.62,13.62,0,0,0-2.21.17,12.36,12.36,0,0,0-1.82.43,9.27,9.27,0,0,0-1.38.56,5.68,5.68,0,0,0-.92.54,1.83,1.83,0,0,0-.49.51,1.6,1.6,0,0,0-.15.75h0V21.34a1.61,1.61,0,0,0,.49,1.19,1.56,1.56,0,0,0,1.13.48,1.53,1.53,0,0,0,1.16-.48A1.64,1.64,0,0,0,48,21.34h0V10.27a5.18,5.18,0,0,1,1.51-.6,8.07,8.07,0,0,1,2.13-.26,4.07,4.07,0,0,1,1.34.2,2.87,2.87,0,0,1,1.13.63,3,3,0,0,1,.78,1.1,3.75,3.75,0,0,1,.29,1.59h0v8.41a1.61,1.61,0,0,0,.49,1.19A1.58,1.58,0,0,0,56.8,23ZM62.08,4.34a1.7,1.7,0,0,0,1.29-.55,1.87,1.87,0,0,0,.52-1.33,1.82,1.82,0,0,0-.52-1.3,1.87,1.87,0,0,0-2.6,0,1.75,1.75,0,0,0-.52,1.3,1.85,1.85,0,0,0,.52,1.32A1.69,1.69,0,0,0,62.08,4.34Zm0,18.67a1.57,1.57,0,0,0,1.17-.48,1.69,1.69,0,0,0,.45-1.19h0V8.14A1.62,1.62,0,0,0,63.23,7a1.63,1.63,0,0,0-2.31,0,1.61,1.61,0,0,0-.46,1.18h0v13.2A1.61,1.61,0,0,0,61,22.53a1.57,1.57,0,0,0,1.13.48Z"/></clipPath><clipPath id="clip-path-6" transform="translate(0 0.29)"><rect class="cls-1" x="-58.25" y="-85.79" width="339.16" height="274.34"/></clipPath><linearGradient id="linear-gradient" x1="-843.63" y1="533.7" x2="-843.63" y2="497.13" gradientTransform="matrix(129.65, 0, 0, -26.31, 109443.19, 14048.17)" gradientUnits="userSpaceOnUse"><stop offset="0"/><stop offset="0" stop-color="#1c84a6"/><stop offset="0.1" stop-color="#277aab"/><stop offset="0.2" stop-color="#3270af"/><stop offset="0.3" stop-color="#4467af"/><stop offset="0.4" stop-color="#5c5ea9"/><stop offset="0.5" stop-color="#7455a3"/><stop offset="0.6" stop-color="#81499c"/><stop offset="0.7" stop-color="#8e3d95"/><stop offset="0.8" stop-color="#a03f85"/><stop offset="0.9" stop-color="#b24473"/><stop offset="1" stop-color="#c54961"/><stop offset="1"/></linearGradient><linearGradient id="linear-gradient-2" x1="-844.13" y1="533.5" x2="-843.64" y2="533.5" gradientTransform="matrix(129.65, 0, 0, -26.31, 109443.19, 14048.17)" gradientUnits="userSpaceOnUse"><stop offset="0" stop-color="#1c84a6"/><stop offset="0.1" stop-color="#277aab"/><stop offset="0.2" stop-color="#3270af"/><stop offset="0.3" stop-color="#4467af"/><stop offset="0.4" stop-color="#5c5ea9"/><stop offset="0.5" stop-color="#7455a3"/><stop offset="0.6" stop-color="#81499c"/><stop offset="0.7" stop-color="#8e3d95"/><stop offset="0.8" stop-color="#a03f85"/><stop offset="0.9" stop-color="#b24473"/><stop offset="1" stop-color="#c54961"/></linearGradient></defs><g id="Layer_2" data-name="Layer 2"><g id="Layer_1-2" data-name="Layer 1"><path id="Path_1051" data-name="Path 1051" class="cls-2" d="M146.06,4.13h8L157.16,16l3.07-11.89h8V23.68h-5V8.77l-3.86,14.91h-4.5L151,8.77V23.68h-5V4.13Zm41.16,19.55H170.8a10.2,10.2,0,0,1,1.72-4.54,22.64,22.64,0,0,1,5.36-5A16.48,16.48,0,0,0,181,11.43a3,3,0,0,0,.67-1.75A2.09,2.09,0,0,0,181,8.15a2.56,2.56,0,0,0-3.39,0,4,4,0,0,0-.9,2.31L171.2,10a8.58,8.58,0,0,1,1.19-3.58,5.42,5.42,0,0,1,2.42-2,10.88,10.88,0,0,1,4.33-.69,12.5,12.5,0,0,1,4.5.65,5.47,5.47,0,0,1,2.52,2,5.28,5.28,0,0,1,.92,3A6.18,6.18,0,0,1,186,12.9a14.39,14.39,0,0,1-3.84,3.58c-1.1.75-1.83,1.28-2.21,1.59s-.81.7-1.31,1.18h8.54v4.43Zm3.25-19.55h6.08v7.39l6.38-7.39H211l-7.17,7.37,7.5,12.18h-7.5l-4.15-8-3.14,3.26v4.78h-6.09Z" transform="translate(0 0.29)"/><path id="Path_1054" data-name="Path 1054" class="cls-3" d="M215.69,0A2.71,2.71,0,0,1,217,.33a2.4,2.4,0,0,1,1,1,2.6,2.6,0,0,1,0,2.59,2.44,2.44,0,0,1-1,1,2.63,2.63,0,0,1-2.58,0,2.4,2.4,0,0,1-1-1,2.6,2.6,0,0,1,0-2.59,2.42,2.42,0,0,1,1-1A2.7,2.7,0,0,1,215.68,0Zm0,.43a2.18,2.18,0,0,0-1.06.28,2,2,0,0,0-.81.8,2.17,2.17,0,0,0,0,2.15,2,2,0,0,0,.8.8,2.12,2.12,0,0,0,2.15,0,1.93,1.93,0,0,0,.8-.8,2.1,2.1,0,0,0,.29-1.07,2.39,2.39,0,0,0-.29-1.08,2,2,0,0,0-.81-.8A2.21,2.21,0,0,0,215.7.43ZM214.56,4H215V2.84h.26a.57.57,0,0,1,.36.09,2.12,2.12,0,0,1,.47.65l.25.44h.55l-.34-.54a3.84,3.84,0,0,0-.41-.56.72.72,0,0,0-.24-.14.86.86,0,0,0,.58-.26.75.75,0,0,0,.22-.53.74.74,0,0,0-.13-.41.77.77,0,0,0-.35-.27,2.52,2.52,0,0,0-.72-.07h-.95V4ZM215,2.45h.54a.93.93,0,0,0,.54-.11.41.41,0,0,0,.07-.53.33.33,0,0,0-.19-.14,1.38,1.38,0,0,0-.45,0H215Z" transform="translate(0 0.29)"/><g id="Group_786" data-name="Group 786"><g class="cls-4"><g id="Group_787" data-name="Group 787"><g class="cls-5"><g id="Group_786-2" data-name="Group 786-2"><path id="Path_1075" data-name="Path 1075" class="cls-6" d="M69.15-.29H72V24.13H69.15Z" transform="translate(0 0.29)"/></g></g></g></g><g class="cls-7"><g id="Group_789" data-name="Group 789"><g class="cls-8"><g id="Group_788" data-name="Group 788"><path id="Path_1078" data-name="Path 1078" class="cls-6" d="M76.67,8.63h53.55v18.6H76.67Z" transform="translate(0 0.29)"/></g></g></g></g><g class="cls-9"><g id="Group_794" data-name="Group 794"><g class="cls-10"><g id="Group_793" data-name="Group 793"><g id="Group_791" data-name="Group 791" class="cls-11"><g id="Group_790" data-name="Group 790"><path id="Path_1081" data-name="Path 1081" class="cls-12" d="M0,.64H129.65V27H0Z" transform="translate(0 0.29)"/></g></g><g id="Group_792" data-name="Group 792"><path id="Path_1082" data-name="Path 1082" class="cls-13" d="M0,.64H129.65V27H0Z" transform="translate(0 0.29)"/></g></g></g></g></g></g></g></g></svg>