<svg id="Group_460" data-name="Group 460" xmlns="http://www.w3.org/2000/svg" width="111" height="66.35" viewBox="0 0 111 66.35">
  <path id="Path_359" data-name="Path 359" d="M411.836,443.706l.492-.355.216.016-.522.344Z" transform="translate(-303.998 -390.843)" fill="#f4924e"/>
  <path id="Path_360" data-name="Path 360" d="M306.868,342.642l-7.437,8.414V376.22H300.8v-24.6l5.585-6.209V376.22h5.392V342.642Z" transform="translate(-250.199 -342.642)" fill="#f4924e"/>
  <rect id="Rectangle_189" data-name="Rectangle 189" width="12.342" height="0.531" transform="translate(49.233 33.048)" fill="#f4924e"/>
  <rect id="Rectangle_190" data-name="Rectangle 190" width="9.52" height="0.483" transform="translate(50.646 35.512)" fill="#f4924e"/>
  <rect id="Rectangle_191" data-name="Rectangle 191" width="0.475" height="18.339" transform="translate(46.476 15.098)" fill="#f4924e"/>
  <rect id="Rectangle_192" data-name="Rectangle 192" width="0.475" height="14.526" transform="translate(44.948 16.98)" fill="#f4924e"/>
  <rect id="Rectangle_193" data-name="Rectangle 193" width="0.475" height="8.783" transform="translate(43.419 19.827)" fill="#f4924e"/>
  <rect id="Rectangle_194" data-name="Rectangle 194" width="0.475" height="18.339" transform="translate(63.856 15.098)" fill="#f4924e"/>
  <rect id="Rectangle_195" data-name="Rectangle 195" width="0.475" height="14.526" transform="translate(65.384 16.98)" fill="#f4924e"/>
  <rect id="Rectangle_196" data-name="Rectangle 196" width="0.475" height="8.783" transform="translate(66.913 19.827)" fill="#f4924e"/>
  <path id="Path_361" data-name="Path 361" d="M311.4,389.7V369.285h.475V389.94h0v.237h-14.8v-.237h0V369.285h.475V389.7Z" transform="translate(-249.071 -355.394)" fill="#f4924e"/>
  <path id="Path_362" data-name="Path 362" d="M304.83,428.5l1.339-9.659h.2l3.93,7.923,3.906-7.923h.146l1.39,9.659h-.935l-.969-6.915-3.421,6.915h-.253l-3.455-6.968-.926,6.968Zm-15.055-9.659h.969v5.834a11.9,11.9,0,0,0,.04,1.294,2.139,2.139,0,0,0,.334.955,1.978,1.978,0,0,0,.807.643,2.538,2.538,0,0,0,1.1.26,2.148,2.148,0,0,0,.919-.2,2.04,2.04,0,0,0,.736-.565,2.293,2.293,0,0,0,.433-.872,7.279,7.279,0,0,0,.1-1.511v-5.834h.969v5.829a7.118,7.118,0,0,1-.253,2.092,2.844,2.844,0,0,1-1.011,1.388,2.9,2.9,0,0,1-1.838.592,3.518,3.518,0,0,1-2-.558,2.675,2.675,0,0,1-1.119-1.477,7.8,7.8,0,0,1-.177-2.036ZM273.1,428.5v-9.659h.209l6.423,7.387v-7.387h.968V428.5h-.219l-6.385-7.323V428.5Zm-9.892-9.659h.969V428.5H263.2Zm-13.252.942v-.942h5.287v.942h-2.153V428.5H252.1V419.78Zm-11.865,1.085-1.661,3.516h3.316Zm.121-2.027,4.507,9.659h-1.038l-1.509-3.175h-4.186l-1.5,3.175h-1.076l4.561-9.659Zm-16.871,0h.969v8.717h3.726v.942h-4.7Zm-13.7.942v3.282l1.637.02a4.261,4.261,0,0,0,1.453-.181,1.493,1.493,0,0,0,.724-.583,1.626,1.626,0,0,0,.262-.9,1.605,1.605,0,0,0-.262-.891,1.454,1.454,0,0,0-.695-.573,4.141,4.141,0,0,0-1.41-.171Zm-.969-.942H208.6a11.129,11.129,0,0,1,2.235.143,2.472,2.472,0,0,1,1.352.838,2.4,2.4,0,0,1,.527,1.592A2.428,2.428,0,0,1,212.2,423a2.529,2.529,0,0,1-1.41.843,12.506,12.506,0,0,1-2.457.157h-.69V428.5h-.969Z" transform="translate(-205.803 -379.111)" fill="#f4924e"/>
  <rect id="Rectangle_197" data-name="Rectangle 197" width="54.167" height="0.181" transform="translate(0.933 54.702)" fill="#f4924e"/>
  <path id="Path_363" data-name="Path 363" d="M306.213,367.493v0l3.386,3.831v16.788h-.621V371.581l-2.541-3v19.536h-2.454V367.493Z" transform="translate(-252.377 -354.536)" fill="#f4924e"/>
  <text id="MORE_THAN_AN_ADDRESS" data-name="MORE THAN AN ADDRESS" transform="translate(0 65.35)" fill="#f4924e" font-size="5.2" font-family="Gotham-Book, Gotham" letter-spacing="0.4em"><tspan x="0" y="0">MORE THAN AN ADDRESS</tspan></text>
  <g id="Group_459" data-name="Group 459" transform="translate(56.504 52.042)">
    <rect id="Rectangle_198" data-name="Rectangle 198" width="0.115" height="2.346" transform="translate(40.293 0.335)" fill="#f4924e"/>
    <path id="Path_364" data-name="Path 364" d="M359.207,442.639a1.413,1.413,0,0,1,.947.322,1.354,1.354,0,0,1,.453,1.084,1.3,1.3,0,0,1-.453,1.041,1.541,1.541,0,0,1-1.886,0,1.467,1.467,0,0,1,0-2.125A1.443,1.443,0,0,1,359.207,442.639Zm0,.5a.763.763,0,0,0-.6.263,1,1,0,0,0,0,1.235.814.814,0,0,0,1.2,0,.881.881,0,0,0,.215-.6.908.908,0,0,0-.215-.631A.792.792,0,0,0,359.209,443.142Z" transform="translate(-334.645 -442.544)" fill="#f4924e"/>
    <path id="Path_365" data-name="Path 365" d="M364.976,444.239v.923a.184.184,0,0,0,.03.113.218.218,0,0,0,.106.065v.064h-.843v-.064a.205.205,0,0,0,.106-.063.189.189,0,0,0,.03-.115v-.923l-.706-1.083a1.534,1.534,0,0,0-.19-.25.371.371,0,0,0-.169-.091v-.066h1.073v.066c-.092.027-.138.075-.138.144a.547.547,0,0,0,.1.209l.346.534.338-.534a.561.561,0,0,0,.1-.211c0-.066-.046-.114-.137-.142l0-.066h1.021v.066a.371.371,0,0,0-.169.091,1.532,1.532,0,0,0-.19.25Z" transform="translate(-337.291 -442.596)" fill="#f4924e"/>
    <path id="Path_366" data-name="Path 366" d="M371.225,442.935l-.287.619-.051-.031a.167.167,0,0,0-.044-.123.9.9,0,0,0-.357-.2,1.514,1.514,0,0,0-.479-.078.975.975,0,0,0-.366.064q-.229.092-.229.267a.168.168,0,0,0,.111.165,1.564,1.564,0,0,0,.428.077l.336.029a1.45,1.45,0,0,1,.67.19.685.685,0,0,1,.211.227.781.781,0,0,1,.1.4.747.747,0,0,1-.327.64,1.422,1.422,0,0,1-.847.225,2.275,2.275,0,0,1-1.04-.254.136.136,0,0,0-.057-.016c-.028,0-.054.019-.079.057l-.053-.024.245-.65.053.024v.019a.143.143,0,0,0,.043.1.886.886,0,0,0,.368.181,1.813,1.813,0,0,0,.517.077,1.152,1.152,0,0,0,.4-.066q.221-.081.221-.261a.2.2,0,0,0-.153-.2,1.647,1.647,0,0,0-.368-.064l-.334-.031a2.6,2.6,0,0,1-.412-.062.787.787,0,0,1-.249-.111.637.637,0,0,1-.213-.259.833.833,0,0,1-.077-.358.757.757,0,0,1,.336-.666,1.311,1.311,0,0,1,.757-.209,1.664,1.664,0,0,1,.456.06,2.829,2.829,0,0,1,.5.212.329.329,0,0,0,.121.045.145.145,0,0,0,.087-.052Z" transform="translate(-339.936 -442.544)" fill="#f4924e"/>
    <path id="Path_367" data-name="Path 367" d="M375.128,443.09v1.931a.183.183,0,0,0,.03.113.222.222,0,0,0,.106.065v.066h-.842V445.2a.2.2,0,0,0,.105-.062.184.184,0,0,0,.031-.114V443.09h-.7a.144.144,0,0,0-.1.034.251.251,0,0,0-.056.118h-.057v-.785h.057a.242.242,0,0,0,.054.117.142.142,0,0,0,.1.034h1.975a.144.144,0,0,0,.1-.033.242.242,0,0,0,.056-.118h.057v.785h-.057a.25.25,0,0,0-.056-.118.144.144,0,0,0-.1-.034Z" transform="translate(-342.22 -442.457)" fill="#f4924e"/>
    <path id="Path_368" data-name="Path 368" d="M379.431,444.136v.648h1.513a.142.142,0,0,0,.1-.033.246.246,0,0,0,.057-.119h.059v.785H381.1a.232.232,0,0,0-.056-.117.141.141,0,0,0-.1-.034h-2.218V445.2a.2.2,0,0,0,.105-.062.181.181,0,0,0,.031-.114v-2.172a.179.179,0,0,0-.03-.112.23.23,0,0,0-.106-.064v-.066h2.152a.144.144,0,0,0,.1-.033.242.242,0,0,0,.056-.118h.057v.785h-.057a.242.242,0,0,0-.056-.119.146.146,0,0,0-.1-.033h-1.446v.583h.9a.143.143,0,0,0,.1-.033.267.267,0,0,0,.058-.119h.057v.766h-.057a.258.258,0,0,0-.056-.118.144.144,0,0,0-.1-.034Z" transform="translate(-344.654 -442.457)" fill="#f4924e"/>
    <path id="Path_369" data-name="Path 369" d="M384.958,444.313v.847a.183.183,0,0,0,.03.113.224.224,0,0,0,.106.065v.066h-.842v-.066a.2.2,0,0,0,.105-.062.184.184,0,0,0,.031-.114V442.99a.179.179,0,0,0-.03-.112.23.23,0,0,0-.106-.064v-.066h1.561a2.348,2.348,0,0,1,.464.034.76.76,0,0,1,.285.125.7.7,0,0,1,.257.612.74.74,0,0,1-.158.5.934.934,0,0,1-.511.262l.451.7a1.582,1.582,0,0,0,.2.264.341.341,0,0,0,.167.089v.066h-1v-.066c.074-.022.111-.058.111-.107a.355.355,0,0,0-.068-.159l-.476-.759Zm0-.481h.859a.676.676,0,0,0,.289-.047.255.255,0,0,0,.132-.254.269.269,0,0,0-.093-.235.59.59,0,0,0-.328-.067h-.859Z" transform="translate(-347.3 -442.596)" fill="#f4924e"/>
    <path id="Path_370" data-name="Path 370" d="M395.508,444.459l-.174.309-.03-.022a.141.141,0,0,0,.02-.057c0-.026-.04-.063-.121-.111a.915.915,0,0,0-.479-.142.687.687,0,0,0-.48.179.7.7,0,0,0-.224.547.694.694,0,0,0,.213.534.707.707,0,0,0,.5.184.848.848,0,0,0,.308-.056.691.691,0,0,0,.246-.158v-.32h-.367a.108.108,0,0,0-.068.017.118.118,0,0,0-.03.065h-.036V445.1h.036a.12.12,0,0,0,.03.065.109.109,0,0,0,.068.016h.61v.041a.1.1,0,0,0-.058.034.136.136,0,0,0-.015.075v.224a.136.136,0,0,0,.015.075.1.1,0,0,0,.058.034v.035a1.384,1.384,0,0,1-.242.2,1.036,1.036,0,0,1-.563.155.862.862,0,0,1-.628-.234.849.849,0,0,1-.187-.276.981.981,0,0,1-.079-.388.909.909,0,0,1,.153-.519.825.825,0,0,1,.382-.306.983.983,0,0,1,.363-.067,1.056,1.056,0,0,1,.316.045,1.413,1.413,0,0,1,.313.151.2.2,0,0,0,.06.031c.012,0,.03-.018.055-.054Z" transform="translate(-351.885 -443.321)" fill="#f4924e"/>
    <path id="Path_371" data-name="Path 371" d="M398.174,445.273v.628a.138.138,0,0,0,.015.074.1.1,0,0,0,.058.035v.041h-.324v-.041a.1.1,0,0,0,.058-.034A.138.138,0,0,0,398,445.9v-1.43a.144.144,0,0,0-.015-.076.1.1,0,0,0-.058-.033v-.041h.851a1.463,1.463,0,0,1,.276.021.481.481,0,0,1,.177.073.39.39,0,0,1,.125.146.505.505,0,0,1,.055.237.45.45,0,0,1-.118.323.483.483,0,0,1-.323.143l.394.683a.112.112,0,0,0,.1.063v.041H399.1v-.041c.037-.007.056-.019.056-.035a.334.334,0,0,0-.04-.082l-.352-.619Zm0-.165h.628A1.181,1.181,0,0,0,399,445.1a.325.325,0,0,0,.115-.044.334.334,0,0,0,0-.51.344.344,0,0,0-.119-.044,1.274,1.274,0,0,0-.2-.011h-.613Z" transform="translate(-353.843 -443.349)" fill="#f4924e"/>
    <path id="Path_372" data-name="Path 372" d="M402.57,445.565h-.829l-.137.328a.2.2,0,0,0-.019.066c0,.025.022.042.067.051v.041h-.346v-.041a.122.122,0,0,0,.071-.038.559.559,0,0,0,.064-.127l.568-1.367a.232.232,0,0,0,.021-.067c0-.022-.019-.039-.056-.049v-.041h.377v.041c-.037.014-.056.031-.056.053a.245.245,0,0,0,.021.063l.544,1.318a1.132,1.132,0,0,0,.08.171.156.156,0,0,0,.084.043v.041h-.368v-.041c.044-.007.066-.026.066-.056a.261.261,0,0,0-.025-.079Zm-.066-.165-.349-.855-.349.855Z" transform="translate(-355.462 -443.349)" fill="#f4924e"/>
    <path id="Path_373" data-name="Path 373" d="M405.413,444.54V445.9a.138.138,0,0,0,.015.074.1.1,0,0,0,.058.035v.041h-.308v-.041a.1.1,0,0,0,.058-.034.138.138,0,0,0,.015-.075v-1.43a.143.143,0,0,0-.015-.076.1.1,0,0,0-.058-.033v-.041h.446v.041c-.036.014-.054.032-.054.057a.221.221,0,0,0,.054.1l.934,1.218v-1.262a.144.144,0,0,0-.015-.076.1.1,0,0,0-.058-.033v-.041h.308v.041a.1.1,0,0,0-.058.033.143.143,0,0,0-.015.076v1.43a.138.138,0,0,0,.015.075.1.1,0,0,0,.058.034v.041h-.358v-.041c.035-.01.052-.028.052-.052a.2.2,0,0,0-.047-.091Z" transform="translate(-357.315 -443.349)" fill="#f4924e"/>
    <path id="Path_374" data-name="Path 374" d="M409.27,445.919v-1.466a.094.094,0,0,0-.016-.058.112.112,0,0,0-.057-.033v-.041h.818a.858.858,0,0,1,.426.086.686.686,0,0,1,.284.332,1.109,1.109,0,0,1,.085.446,1.062,1.062,0,0,1-.115.509.641.641,0,0,1-.262.273.9.9,0,0,1-.419.083H409.2v-.041a.112.112,0,0,0,.057-.033A.1.1,0,0,0,409.27,445.919Zm.178-.033h.56a.631.631,0,0,0,.365-.085.581.581,0,0,0,.207-.31,1.032,1.032,0,0,0,.043-.306.854.854,0,0,0-.138-.5.43.43,0,0,0-.185-.155.78.78,0,0,0-.293-.045h-.56Z" transform="translate(-359.239 -443.349)" fill="#f4924e"/>
    <path id="Path_375" data-name="Path 375" d="M413.391,445.169v.642h.994a.106.106,0,0,0,.068-.017.111.111,0,0,0,.03-.065h.036v.327h-.036a.12.12,0,0,0-.031-.065.108.108,0,0,0-.068-.016H413.14v-.041a.1.1,0,0,0,.058-.034.144.144,0,0,0,.014-.075V444.4a.146.146,0,0,0-.015-.075.107.107,0,0,0-.058-.034v-.041h1.23a.106.106,0,0,0,.067-.016.126.126,0,0,0,.031-.065h.036v.326h-.036a.122.122,0,0,0-.03-.064.105.105,0,0,0-.068-.017h-.979V445h.642a.113.113,0,0,0,.068-.016.12.12,0,0,0,.03-.065h.036v.326h-.036a.122.122,0,0,0-.03-.065.112.112,0,0,0-.068-.016Z" transform="translate(-361.126 -443.275)" fill="#f4924e"/>
    <path id="Path_376" data-name="Path 376" d="M327.683,443.883h.891a2.224,2.224,0,0,0,.278-.012.43.43,0,0,0,.15-.048.353.353,0,0,0,0-.574.428.428,0,0,0-.148-.05,2.415,2.415,0,0,0-.28-.01h-.891Zm0,.436v.875a.13.13,0,0,0,.028.09.178.178,0,0,0,.095.049v.064h-.824v-.064a.2.2,0,0,0,.1-.05.132.132,0,0,0,.027-.089v-2.235a.136.136,0,0,0-.027-.091.193.193,0,0,0-.1-.05v-.064h1.654a2.62,2.62,0,0,1,.479.035.849.849,0,0,1,.309.122.62.62,0,0,1,.228.273.9.9,0,0,1,.071.357q0,.648-.718.758l.513.727a1.594,1.594,0,0,0,.2.247.251.251,0,0,0,.154.06v.064h-.955v-.064c.065-.01.1-.033.1-.069a.489.489,0,0,0-.091-.168l-.538-.777Zm-3.01-.083v.725h1.7a.134.134,0,0,0,.089-.027.2.2,0,0,0,.05-.1h.063v.682h-.063a.2.2,0,0,0-.05-.1.134.134,0,0,0-.089-.027h-2.4v-.064a.2.2,0,0,0,.1-.05.135.135,0,0,0,.027-.091v-2.233a.136.136,0,0,0-.027-.091.193.193,0,0,0-.1-.05v-.064h2.349a.13.13,0,0,0,.089-.027.2.2,0,0,0,.051-.1h.063v.681h-.063a.2.2,0,0,0-.051-.1.131.131,0,0,0-.088-.027h-1.649v.626h1.07a.133.133,0,0,0,.089-.027.193.193,0,0,0,.05-.1h.064v.666h-.064a.2.2,0,0,0-.05-.095.128.128,0,0,0-.089-.028Zm-3.172-.7-.605,1.523a.514.514,0,0,0-.053.148c0,.058.048.1.143.125v.064h-.848v-.064c.087-.016.13-.06.13-.131a.866.866,0,0,0-.054-.172l-.757-1.947a.7.7,0,0,0-.1-.2.232.232,0,0,0-.133-.069v-.064h.916v.064c-.081.018-.121.056-.121.114a.391.391,0,0,0,.031.127l.525,1.395.565-1.4a.426.426,0,0,0,.037-.119c0-.059-.044-.1-.13-.114v-.064H322v.064c-.087.023-.131.065-.131.125a.419.419,0,0,0,.033.116l.536,1.395.521-1.371a.47.47,0,0,0,.041-.153c0-.057-.047-.094-.14-.112v-.064h.907v.064a.262.262,0,0,0-.133.069.819.819,0,0,0-.1.2l-.756,1.947a.659.659,0,0,0-.054.186c0,.063.046.1.138.118v.064h-.861v-.064c.09-.014.136-.057.136-.129a.66.66,0,0,0-.06-.174Zm-3.815-.383a.913.913,0,0,0-.631.225.958.958,0,0,0,0,1.392,1,1,0,0,0,1.268,0,.868.868,0,0,0,.229-.327.933.933,0,0,0,.07-.357.883.883,0,0,0-.3-.708A.948.948,0,0,0,317.686,443.154Zm0-.448a1.554,1.554,0,0,1,1.1.374A1.378,1.378,0,0,1,319,444.8a1.432,1.432,0,0,1-1.315.643,1.544,1.544,0,0,1-1.091-.374,1.3,1.3,0,0,1-.329-.479,1.37,1.37,0,0,1-.1-.518,1.356,1.356,0,0,1,.2-.726A1.441,1.441,0,0,1,317.684,442.706Zm-2.709.483v2a.135.135,0,0,0,.027.091.2.2,0,0,0,.1.05v.064h-.824v-.064a.2.2,0,0,0,.1-.05.135.135,0,0,0,.027-.091v-2h-.816a.131.131,0,0,0-.089.027.191.191,0,0,0-.05.1h-.064v-.681h.064a.2.2,0,0,0,.051.1.127.127,0,0,0,.088.027h2.209a.133.133,0,0,0,.091-.027.191.191,0,0,0,.05-.1h.064v.681h-.064a.191.191,0,0,0-.05-.1.136.136,0,0,0-.091-.027Z" transform="translate(-313.378 -442.54)" fill="#f4924e"/>
    <text id="at" transform="translate(18.531 2.718)" fill="#f4924e" font-size="3" font-family="SignPainter-HouseScript, SignPainter"><tspan x="0" y="0">at</tspan></text>
  </g>
</svg>
