<svg xmlns="http://www.w3.org/2000/svg" width="181.799" height="23.782" viewBox="0 0 181.799 23.782">
  <g id="Group_691" data-name="Group 691" transform="translate(-709 -418)">
    <line id="Line_20" data-name="Line 20" y2="23.495" transform="translate(779.5 418.287)" fill="#fff" stroke="#fff" stroke-width="0.5"/>
    <g id="Group_556" data-name="Group 556" transform="translate(791 418)">
      <path id="Path_425" data-name="Path 425" d="M194.106,597.094v12.744a1.623,1.623,0,0,0,1.581,1.615,1.582,1.582,0,0,0,1.579-1.615V597.094a1.6,1.6,0,0,0-1.579-1.609,1.579,1.579,0,0,0-1.581,1.609m-57.167,9.2c0-1.432,1.315-2.24,3.126-2.24a13.619,13.619,0,0,1,3.607.509v3.309a5.674,5.674,0,0,1-3.458.924c-2.113,0-3.274-.893-3.274-2.5m-.953-10.191a1.567,1.567,0,0,0-1.043,1.464c0,.922.863,1.611,2.177,1.188a10.01,10.01,0,0,1,3.245-.653c2.324,0,3.307.866,3.307,2.888v.981a15,15,0,0,0-3.783-.5c-4.03,0-5.918,2.195-6.042,4.678v.545c.128,2.783,2.152,4.874,6.1,4.874a11.719,11.719,0,0,0,6.2-1.665,1.2,1.2,0,0,0,.566-1.164v-7.748c0-4.02-2.353-5.775-6.162-5.775a12.066,12.066,0,0,0-4.56.889m30.82,10.191c0-1.432,1.307-2.24,3.126-2.24a13.661,13.661,0,0,1,3.608.509v3.309a5.668,5.668,0,0,1-3.454.924c-2.116,0-3.28-.893-3.28-2.5m-.953-10.191a1.567,1.567,0,0,0-1.043,1.464c0,.922.867,1.611,2.179,1.188a9.974,9.974,0,0,1,3.248-.653c2.315,0,3.3.866,3.3,2.888v.981a15,15,0,0,0-3.785-.5c-4.17,0-6.044,2.356-6.044,4.943,0,2.922,2.02,5.154,6.1,5.154a11.719,11.719,0,0,0,6.2-1.665,1.209,1.209,0,0,0,.569-1.164v-7.748c0-4.02-2.353-5.775-6.166-5.775a12.058,12.058,0,0,0-4.559.889m13.461.744a1.257,1.257,0,0,0-.631,1.224v11.7a1.621,1.621,0,0,0,1.586,1.613,1.581,1.581,0,0,0,1.577-1.613V599.089a7.48,7.48,0,0,1,3.54-.837,3.174,3.174,0,0,1,3.461,3.4v8.129a1.613,1.613,0,0,0,1.575,1.613A1.562,1.562,0,0,0,192,609.778V601.5c0-4.022-2.21-6.282-6.526-6.282a10.827,10.827,0,0,0-6.164,1.633m-27.575,8.192a27.748,27.748,0,0,1,0-3.482c.123-2.172,1.194-3.307,3.457-3.307a7.709,7.709,0,0,1,3.661.928v8.272a6.77,6.77,0,0,1-3.424,1.075c-2.293,0-3.514-1.194-3.694-3.486m7.118-13.433v4.466a10.034,10.034,0,0,0-3.9-.857c-3.839,0-6.044,2.29-6.375,5.986a33.554,33.554,0,0,0,0,4.226,6.351,6.351,0,0,0,6.791,6.14,11.241,11.241,0,0,0,6.075-1.853,1.2,1.2,0,0,0,.569-1.188V591.609a1.581,1.581,0,0,0-1.58-1.606,1.6,1.6,0,0,0-1.581,1.606m35.043.006a1.775,1.775,0,1,0,3.549,0,1.774,1.774,0,0,0-3.549,0" transform="translate(-133.847 -589.858)" fill="#fff"/>
      <g id="Group_555" data-name="Group 555" transform="translate(71.559 12.886)">
        <path id="Path_426" data-name="Path 426" d="M148.648,621.608a.594.594,0,0,1,.322.079,1.319,1.319,0,0,1,.226.234l1.722,2.114a.515.515,0,0,0,.362.176.507.507,0,0,0,.393-.147.518.518,0,0,0,.157-.362.536.536,0,0,0-.128-.381l-1.586-1.938a2.489,2.489,0,0,0,.606-.215,1.665,1.665,0,0,0,.48-.382,1.869,1.869,0,0,0,.314-.567,2.585,2.585,0,0,0-.06-1.713,2.145,2.145,0,0,0-.5-.676,2.292,2.292,0,0,0-.724-.411,2.851,2.851,0,0,0-.881-.137h-2a.726.726,0,0,0-.567.225.815.815,0,0,0-.2.538v5.618a.546.546,0,0,0,.147.382.5.5,0,0,0,.372.166.484.484,0,0,0,.362-.166.515.515,0,0,0,.157-.382v-2.056Zm-1.018-1V618.3h1.654a1.365,1.365,0,0,1,.979.3,1.157,1.157,0,0,1,.314.852,1.141,1.141,0,0,1-.3.842,1.413,1.413,0,0,1-1.038.314Z" transform="translate(-146.592 -617.184)" fill="#fff"/>
        <path id="Path_427" data-name="Path 427" d="M155.538,620.631a2.447,2.447,0,0,0-.157-.9,2.2,2.2,0,0,0-.44-.7,2.043,2.043,0,0,0-.685-.44,2.351,2.351,0,0,0-.891-.157,2.662,2.662,0,0,0-.852.137,2.134,2.134,0,0,0-.7.411,2.091,2.091,0,0,0-.469.656,2.606,2.606,0,0,0-.216.852,2.219,2.219,0,0,0-.01.264c-.01.108-.01.205-.01.313s0,.225.01.333a2.946,2.946,0,0,0,.01.3,2.378,2.378,0,0,0,.207.842,1.871,1.871,0,0,0,.459.666,2.144,2.144,0,0,0,.7.44,2.389,2.389,0,0,0,.91.157,3.644,3.644,0,0,0,.451-.029,3.417,3.417,0,0,0,.44-.068,2.6,2.6,0,0,0,.393-.108,1.659,1.659,0,0,0,.3-.137.5.5,0,0,0,.216-.215.583.583,0,0,0,.049-.225.529.529,0,0,0-.049-.205.455.455,0,0,0-.137-.166.571.571,0,0,0-.226-.079.646.646,0,0,0-.293.05,4.4,4.4,0,0,1-.567.167,2.318,2.318,0,0,1-.559.068,1.372,1.372,0,0,1-.929-.314,1.112,1.112,0,0,1-.362-.9v-.118h2.77a.609.609,0,0,0,.479-.176.667.667,0,0,0,.147-.45v-.275Zm-3.4.079a1.443,1.443,0,0,1,.294-.989,1.136,1.136,0,0,1,.929-.362,1.168,1.168,0,0,1,.891.333,1.153,1.153,0,0,1,.275.9c-.01.079-.05.118-.118.118Z" transform="translate(-144.841 -616.735)" fill="#fff"/>
        <path id="Path_428" data-name="Path 428" d="M159.23,620.338a1.792,1.792,0,0,0-.538-1.448,2.25,2.25,0,0,0-1.489-.451,4.116,4.116,0,0,0-.862.087,3.478,3.478,0,0,0-.635.207.52.52,0,0,0-.343.479.428.428,0,0,0,.2.362.582.582,0,0,0,.519.031c.137-.05.3-.1.49-.147a2.182,2.182,0,0,1,.577-.069,1.256,1.256,0,0,1,.831.226.921.921,0,0,1,.255.724v.323c-.225-.05-.431-.1-.617-.128a4.153,4.153,0,0,0-.626-.039,2.691,2.691,0,0,0-.891.126,1.944,1.944,0,0,0-.617.362,1.376,1.376,0,0,0-.362.519,1.748,1.748,0,0,0,.011,1.283,1.5,1.5,0,0,0,.382.538,1.734,1.734,0,0,0,.626.362,2.617,2.617,0,0,0,.871.126,4.171,4.171,0,0,0,.714-.058,4.315,4.315,0,0,0,.587-.147,3.185,3.185,0,0,0,.441-.186,1.817,1.817,0,0,0,.294-.157.45.45,0,0,0,.146-.166.428.428,0,0,0,.04-.215v-2.544Zm-2.937,2.349a.707.707,0,0,1-.275-.606.621.621,0,0,1,.294-.549,1.282,1.282,0,0,1,.734-.186,3.545,3.545,0,0,1,.6.04c.176.029.372.078.587.126V622.6a1.729,1.729,0,0,1-.352.176,1.85,1.85,0,0,1-.782.128,1.266,1.266,0,0,1-.8-.215Z" transform="translate(-143.335 -616.735)" fill="#fff"/>
        <path id="Path_429" data-name="Path 429" d="M159.233,617.358a.553.553,0,0,0-.146.381V623.7a.478.478,0,0,0,.157.372.508.508,0,0,0,.734,0,.511.511,0,0,0,.147-.372V617.74a.555.555,0,0,0-.147-.381.531.531,0,0,0-.372-.147.516.516,0,0,0-.373.147Z" transform="translate(-141.753 -617.211)" fill="#fff"/>
        <path id="Path_430" data-name="Path 430" d="M163.881,623.7a.555.555,0,0,0,.078-.273.455.455,0,0,0-.166-.383.519.519,0,0,0-.2-.087.53.53,0,0,0-.275.01c-.107.029-.225.068-.332.1a1.576,1.576,0,0,1-.373.048.636.636,0,0,1-.529-.205.879.879,0,0,1-.165-.569v-2.436h1.35a.508.508,0,0,0,.343-.137.417.417,0,0,0,.147-.323.437.437,0,0,0-.147-.333.5.5,0,0,0-.343-.128h-1.35v-.744a.552.552,0,0,0-.147-.382.531.531,0,0,0-.372-.147.516.516,0,0,0-.373.147.551.551,0,0,0-.146.382v4.091a2.307,2.307,0,0,0,.1.7,1.528,1.528,0,0,0,.3.558,1.285,1.285,0,0,0,.5.372,1.789,1.789,0,0,0,.724.137,3.978,3.978,0,0,0,.577-.049,1.876,1.876,0,0,0,.519-.137.509.509,0,0,0,.275-.205Z" transform="translate(-141.056 -617.017)" fill="#fff"/>
        <path id="Path_431" data-name="Path 431" d="M165.36,623.344a2.721,2.721,0,0,1-.48.852,2.264,2.264,0,0,1-.548.5.449.449,0,0,0-.157.2.521.521,0,0,0-.058.226.45.45,0,0,0,.147.352.507.507,0,0,0,.341.136.8.8,0,0,0,.441-.146,2.856,2.856,0,0,0,.676-.666,5.081,5.081,0,0,0,.655-1.175l1.841-4.374a.551.551,0,0,0,.049-.275.528.528,0,0,0-.087-.244.8.8,0,0,0-.186-.176.572.572,0,0,0-.265-.06.518.518,0,0,0-.323.108.755.755,0,0,0-.205.3l-1.214,3.141a.052.052,0,0,1-.049.03c-.019,0-.029-.01-.039-.03l-1.322-3.16a.669.669,0,0,0-.186-.284.552.552,0,0,0-.343-.108.453.453,0,0,0-.234.06.6.6,0,0,0-.186.166.528.528,0,0,0-.087.244.578.578,0,0,0,.039.284l1.781,4.1Z" transform="translate(-140.03 -616.716)" fill="#fff"/>
      </g>
    </g>
    <g id="Group_669" data-name="Group 669" transform="translate(709 420.254)">
      <path id="Path_1051" data-name="Path 1051" d="M242.364,263.61h6.614l2.554,9.83,2.542-9.83h6.592v16.159h-4.106V267.447l-3.186,12.321h-3.716l-3.175-12.321v12.321h-4.118V263.61Zm34,16.159H262.806a8.4,8.4,0,0,1,1.417-3.755,19.052,19.052,0,0,1,4.432-4.149,13.193,13.193,0,0,0,2.542-2.224,2.483,2.483,0,0,0,.557-1.444,1.7,1.7,0,0,0-.549-1.264,2.108,2.108,0,0,0-2.8.019,3.323,3.323,0,0,0-.739,1.907l-4.527-.365a7.142,7.142,0,0,1,.977-2.961,4.506,4.506,0,0,1,2-1.629,9.072,9.072,0,0,1,3.58-.569,10.251,10.251,0,0,1,3.713.538,4.509,4.509,0,0,1,2.084,1.659,4.37,4.37,0,0,1,.761,2.51,5.115,5.115,0,0,1-.871,2.822,11.911,11.911,0,0,1-3.167,2.953c-.913.624-1.519,1.06-1.826,1.313s-.67.576-1.084.978h7.058v3.661Zm2.686-16.159h5.027v6.106l5.274-6.106h6.682l-5.928,6.095,6.194,10.064h-6.194l-3.429-6.648-2.6,2.7v3.946h-5.027Z" transform="translate(-242.364 -260.049)" fill="#fff"/>
      <path id="Path_1054" data-name="Path 1054" d="M381.926,257.625a2.179,2.179,0,0,1,1.046.275,1.956,1.956,0,0,1,.8.787,2.138,2.138,0,0,1,0,2.125,1.968,1.968,0,0,1-.787.788,2.137,2.137,0,0,1-2.118,0,1.976,1.976,0,0,1-.788-.788,2.127,2.127,0,0,1,0-2.125,1.97,1.97,0,0,1,.8-.787,2.179,2.179,0,0,1,1.047-.275Zm0,.352a1.819,1.819,0,0,0-.874.23,1.647,1.647,0,0,0-.664.658,1.766,1.766,0,0,0,0,1.77,1.672,1.672,0,0,0,.658.658,1.774,1.774,0,0,0,1.766,0,1.662,1.662,0,0,0,.657-.658,1.778,1.778,0,0,0,0-1.77,1.638,1.638,0,0,0-.664-.658,1.819,1.819,0,0,0-.871-.23Zm-.935,2.951h.37v-.97h.217a.47.47,0,0,1,.3.077,1.82,1.82,0,0,1,.388.533l.2.36h.449l-.279-.447a2.566,2.566,0,0,0-.339-.453.618.618,0,0,0-.194-.121.711.711,0,0,0,.476-.209.606.606,0,0,0,.18-.436.588.588,0,0,0-.107-.335.565.565,0,0,0-.289-.221,1.93,1.93,0,0,0-.584-.063h-.788v2.287Zm.37-1.288h.448a.729.729,0,0,0,.439-.1.326.326,0,0,0,.061-.433.331.331,0,0,0-.156-.119,1.171,1.171,0,0,0-.371-.039h-.421Z" transform="translate(-324.052 -257.625)" fill="#fff"/>
    </g>
  </g>
</svg>
