<svg id="Group_666" data-name="Group 666" xmlns="http://www.w3.org/2000/svg" width="346" height="207.972" viewBox="0 0 346 207.972">
  <path id="Path_359" data-name="Path 359" d="M411.836,444.467l1.547-1.116.679.049-1.641,1.082Z" transform="translate(-72.637 -278.189)" fill="#f4924e"/>
  <path id="Path_360" data-name="Path 360" d="M322.824,342.642l-23.392,26.467v79.153h4.295V370.87l17.566-19.531v96.922h16.96V342.642Z" transform="translate(-144.573 -342.642)" fill="#f4924e"/>
  <rect id="Rectangle_189" data-name="Rectangle 189" width="38.82" height="1.67" transform="translate(154.859 103.951)" fill="#f4924e"/>
  <rect id="Rectangle_190" data-name="Rectangle 190" width="29.945" height="1.518" transform="translate(159.303 111.702)" fill="#f4924e"/>
  <rect id="Rectangle_191" data-name="Rectangle 191" width="1.494" height="57.684" transform="translate(146.188 47.49)" fill="#f4924e"/>
  <rect id="Rectangle_192" data-name="Rectangle 192" width="1.494" height="45.692" transform="translate(141.381 53.41)" fill="#f4924e"/>
  <rect id="Rectangle_193" data-name="Rectangle 193" width="1.494" height="27.628" transform="translate(136.574 62.366)" fill="#f4924e"/>
  <rect id="Rectangle_194" data-name="Rectangle 194" width="1.494" height="57.684" transform="translate(200.857 47.49)" fill="#f4924e"/>
  <rect id="Rectangle_195" data-name="Rectangle 195" width="1.494" height="45.692" transform="translate(205.664 53.41)" fill="#f4924e"/>
  <rect id="Rectangle_196" data-name="Rectangle 196" width="1.494" height="27.628" transform="translate(210.47 62.366)" fill="#f4924e"/>
  <path id="Path_361" data-name="Path 361" d="M342.13,433.509V369.285h1.494v64.971h0V435H297.076v-.747h0V369.285h1.494v64.224Z" transform="translate(-146.081 -325.59)" fill="#f4924e"/>
  <path id="Path_362" data-name="Path 362" d="M515.422,449.219l4.212-30.381h.626l12.362,24.921,12.285-24.921h.459l4.372,30.381H546.8l-3.047-21.749-10.762,21.749h-.8L521.326,427.3l-2.914,21.918Zm-47.354-30.381h3.047v18.35a37.431,37.431,0,0,0,.126,4.069,6.728,6.728,0,0,0,1.051,3,6.222,6.222,0,0,0,2.539,2.024,7.984,7.984,0,0,0,3.455.818,6.757,6.757,0,0,0,2.891-.643,6.415,6.415,0,0,0,2.314-1.776,7.211,7.211,0,0,0,1.361-2.744,22.893,22.893,0,0,0,.31-4.753v-18.35h3.047v18.335a22.388,22.388,0,0,1-.8,6.579,8.945,8.945,0,0,1-3.182,4.366,9.119,9.119,0,0,1-5.783,1.861,11.066,11.066,0,0,1-6.3-1.756,8.414,8.414,0,0,1-3.519-4.646,24.517,24.517,0,0,1-.558-6.4ZM415.6,449.219V418.838h.656l20.2,23.237V418.838h3.045v30.381h-.69l-20.085-23.034v23.034Zm-31.114-30.381h3.047v30.381h-3.047ZM342.8,421.8v-2.962h16.629V421.8h-6.771v27.419h-3.088V421.8Zm-37.319,3.413-5.225,11.058h10.43Zm.381-6.375,14.176,30.381h-3.265l-4.746-9.986H298.863l-4.718,9.986H290.76L305.1,418.838Zm-53.067,0h3.047v27.419h11.721v2.962H252.8ZM209.72,421.8v10.324l5.148.064a13.4,13.4,0,0,0,4.569-.571,4.7,4.7,0,0,0,2.278-1.835,5.115,5.115,0,0,0,.825-2.84,5.05,5.05,0,0,0-.825-2.8,4.575,4.575,0,0,0-2.186-1.8,13.025,13.025,0,0,0-4.436-.536Zm-3.047-2.962h6.058a35,35,0,0,1,7.031.451,7.775,7.775,0,0,1,4.252,2.637,7.549,7.549,0,0,1,1.658,5.007,7.636,7.636,0,0,1-1.615,5.007,7.954,7.954,0,0,1-4.436,2.652,39.344,39.344,0,0,1-7.729.494H209.72v14.133h-3.047Z" transform="translate(-203.937 -293.877)" fill="#f4924e"/>
  <rect id="Rectangle_197" data-name="Rectangle 197" width="170.381" height="0.57" transform="translate(2.934 172.064)" fill="#f4924e"/>
  <path id="Path_363" data-name="Path 363" d="M311,367.493v.009l10.65,12.05v52.806h-1.955v-52l-7.993-9.447v61.451h-7.718V367.493Z" transform="translate(-141.66 -326.737)" fill="#f4924e"/>
  <text id="MORE_THAN_AN_ADDRESS" data-name="MORE THAN AN ADDRESS" transform="translate(0 204.972)" fill="#f4924e" font-size="16.3" font-family="Gotham-Book, Gotham" letter-spacing="0.4em"><tspan x="0" y="0">MORE THAN AN ADDRESS</tspan></text>
  <g id="Group_459" data-name="Group 459" transform="translate(177.73 163.695)">
    <rect id="Rectangle_198" data-name="Rectangle 198" width="0.361" height="7.378" transform="translate(126.739 1.052)" fill="#f4924e"/>
    <path id="Path_364" data-name="Path 364" d="M362.2,442.639a4.444,4.444,0,0,1,2.98,1.014,4.258,4.258,0,0,1,1.425,3.41,4.1,4.1,0,0,1-1.425,3.275,4.846,4.846,0,0,1-5.932,0,4.613,4.613,0,0,1,0-6.685A4.539,4.539,0,0,1,362.2,442.639Zm.007,1.581a2.4,2.4,0,0,0-1.889.828,3.13,3.13,0,0,0,0,3.885,2.559,2.559,0,0,0,3.785,0,2.769,2.769,0,0,0,.676-1.9,2.855,2.855,0,0,0-.676-1.984A2.492,2.492,0,0,0,362.2,444.22Z" transform="translate(-284.941 -442.341)" fill="#f4924e"/>
    <path id="Path_365" data-name="Path 365" d="M368.485,447.437v2.9a.578.578,0,0,0,.093.354.686.686,0,0,0,.335.2v.2h-2.65v-.2a.646.646,0,0,0,.335-.2.594.594,0,0,0,.093-.362v-2.9l-2.22-3.406a4.823,4.823,0,0,0-.6-.787,1.168,1.168,0,0,0-.531-.287v-.208h3.375v.208c-.29.085-.435.236-.435.454a1.721,1.721,0,0,0,.315.658l1.087,1.679,1.063-1.679a1.766,1.766,0,0,0,.315-.664c0-.208-.144-.358-.43-.448l-.006-.208h3.211v.208a1.167,1.167,0,0,0-.531.287,4.815,4.815,0,0,0-.6.787Z" transform="translate(-281.403 -442.271)" fill="#f4924e"/>
    <path id="Path_366" data-name="Path 366" d="M376.285,443.571l-.9,1.948-.161-.1a.526.526,0,0,0-.139-.387,2.821,2.821,0,0,0-1.123-.626,4.763,4.763,0,0,0-1.505-.246,3.067,3.067,0,0,0-1.151.2q-.721.29-.722.841a.529.529,0,0,0,.348.518,4.923,4.923,0,0,0,1.345.243l1.056.09a4.56,4.56,0,0,1,2.107.6,2.156,2.156,0,0,1,.663.715,2.457,2.457,0,0,1,.328,1.261,2.349,2.349,0,0,1-1.03,2.014,4.472,4.472,0,0,1-2.663.708,7.156,7.156,0,0,1-3.272-.8.427.427,0,0,0-.18-.051c-.089,0-.17.059-.248.179l-.166-.075.769-2.043.166.075v.059a.451.451,0,0,0,.134.328,2.788,2.788,0,0,0,1.158.571,5.7,5.7,0,0,0,1.625.243,3.624,3.624,0,0,0,1.271-.208q.7-.253.7-.822a.642.642,0,0,0-.482-.633,5.177,5.177,0,0,0-1.156-.2l-1.051-.1a8.162,8.162,0,0,1-1.3-.2,2.476,2.476,0,0,1-.782-.349,2,2,0,0,1-.669-.813,2.62,2.62,0,0,1-.241-1.127,2.381,2.381,0,0,1,1.058-2.1,4.126,4.126,0,0,1,2.381-.656,5.236,5.236,0,0,1,1.435.19,8.9,8.9,0,0,1,1.587.667,1.033,1.033,0,0,0,.382.141.457.457,0,0,0,.274-.164Z" transform="translate(-277.866 -442.341)" fill="#f4924e"/>
    <path id="Path_367" data-name="Path 367" d="M378.321,444.448v6.073a.576.576,0,0,0,.094.354.7.7,0,0,0,.335.2v.208H376.1v-.208a.624.624,0,0,0,.331-.2.579.579,0,0,0,.1-.357v-6.079h-2.207a.453.453,0,0,0-.325.107.789.789,0,0,0-.177.371h-.18v-2.468h.18a.76.76,0,0,0,.171.369.446.446,0,0,0,.325.108h6.214a.453.453,0,0,0,.325-.1.762.762,0,0,0,.177-.372h.181v2.468h-.181a.786.786,0,0,0-.177-.371.453.453,0,0,0-.325-.107Z" transform="translate(-274.812 -442.457)" fill="#f4924e"/>
    <path id="Path_368" data-name="Path 368" d="M380.945,447.738v2.037H385.7a.445.445,0,0,0,.316-.1.774.774,0,0,0,.179-.374h.187v2.468H386.2a.73.73,0,0,0-.176-.369.444.444,0,0,0-.32-.108h-6.978v-.208a.611.611,0,0,0,.331-.2.569.569,0,0,0,.1-.357V443.7a.563.563,0,0,0-.094-.351.723.723,0,0,0-.334-.2v-.208h6.77a.453.453,0,0,0,.325-.1.763.763,0,0,0,.177-.372h.18v2.468H386a.763.763,0,0,0-.177-.374.46.46,0,0,0-.325-.1h-4.549v1.835h2.824a.45.45,0,0,0,.318-.1.84.84,0,0,0,.184-.374h.18v2.409h-.18a.81.81,0,0,0-.177-.371.453.453,0,0,0-.325-.107Z" transform="translate(-271.557 -442.457)" fill="#f4924e"/>
    <path id="Path_369" data-name="Path 369" d="M386.473,447.671v2.663a.576.576,0,0,0,.094.354.7.7,0,0,0,.334.2v.208h-2.648v-.208a.625.625,0,0,0,.331-.2.58.58,0,0,0,.1-.358v-6.832a.564.564,0,0,0-.094-.351.724.724,0,0,0-.334-.2v-.208h4.91a7.39,7.39,0,0,1,1.458.108,2.391,2.391,0,0,1,.9.392,2.216,2.216,0,0,1,.808,1.924,2.327,2.327,0,0,1-.5,1.586,2.939,2.939,0,0,1-1.609.823l1.418,2.2a4.984,4.984,0,0,0,.618.83,1.071,1.071,0,0,0,.525.279v.208h-3.15v-.208c.233-.07.349-.182.349-.336a1.115,1.115,0,0,0-.215-.5l-1.5-2.388Zm0-1.514h2.7a2.126,2.126,0,0,0,.91-.149.8.8,0,0,0,.415-.8.846.846,0,0,0-.292-.738,1.855,1.855,0,0,0-1.033-.21h-2.7Z" transform="translate(-268.02 -442.271)" fill="#f4924e"/>
    <path id="Path_370" data-name="Path 370" d="M399.1,444.88l-.548.973-.094-.07a.443.443,0,0,0,.064-.179c0-.082-.126-.2-.382-.349a2.877,2.877,0,0,0-1.507-.446,2.16,2.16,0,0,0-1.51.563,2.2,2.2,0,0,0-.7,1.72,2.182,2.182,0,0,0,.671,1.679,2.223,2.223,0,0,0,1.579.577,2.67,2.67,0,0,0,.968-.177,2.172,2.172,0,0,0,.774-.5v-1.005h-1.155a.34.34,0,0,0-.213.052.371.371,0,0,0-.1.2h-.113V446.9h.113a.379.379,0,0,0,.1.2.342.342,0,0,0,.213.051h1.919v.128a.321.321,0,0,0-.182.108.427.427,0,0,0-.048.234v.705a.427.427,0,0,0,.048.234.32.32,0,0,0,.182.108v.112a4.354,4.354,0,0,1-.761.625,3.26,3.26,0,0,1-1.77.487,2.711,2.711,0,0,1-1.976-.736,2.669,2.669,0,0,1-.589-.869,3.085,3.085,0,0,1-.248-1.22,2.861,2.861,0,0,1,.482-1.633,2.6,2.6,0,0,1,1.2-.961,3.091,3.091,0,0,1,1.143-.21,3.321,3.321,0,0,1,.994.143,4.444,4.444,0,0,1,.986.474.63.63,0,0,0,.19.1c.038,0,.1-.056.174-.169Z" transform="translate(-261.888 -441.301)" fill="#f4924e"/>
    <path id="Path_371" data-name="Path 371" d="M398.712,447.314v1.976a.433.433,0,0,0,.048.233.321.321,0,0,0,.182.11v.128h-1.018v-.128a.32.32,0,0,0,.182-.108.434.434,0,0,0,.046-.235v-4.5a.451.451,0,0,0-.046-.238.309.309,0,0,0-.182-.1v-.128H400.6a4.6,4.6,0,0,1,.869.066,1.515,1.515,0,0,1,.556.23,1.227,1.227,0,0,1,.394.459,1.588,1.588,0,0,1,.172.746,1.415,1.415,0,0,1-.371,1.015,1.518,1.518,0,0,1-1.017.449l1.24,2.148a.353.353,0,0,0,.322.2v.128h-1.128v-.128c.116-.021.176-.059.176-.111a1.052,1.052,0,0,0-.126-.259l-1.107-1.948Zm0-.518h1.976a3.719,3.719,0,0,0,.61-.038,1.025,1.025,0,0,0,.362-.138,1.052,1.052,0,0,0-.01-1.605,1.083,1.083,0,0,0-.374-.139,4,4,0,0,0-.638-.036h-1.927Z" transform="translate(-259.271 -441.264)" fill="#f4924e"/>
    <path id="Path_372" data-name="Path 372" d="M405.283,448.234h-2.609l-.43,1.032a.641.641,0,0,0-.061.208c0,.079.071.133.212.159v.128h-1.089v-.128a.384.384,0,0,0,.225-.12,1.755,1.755,0,0,0,.2-.4l1.786-4.3a.732.732,0,0,0,.066-.21c0-.069-.059-.121-.175-.156v-.128h1.186v.128c-.116.042-.175.1-.175.167a.771.771,0,0,0,.066.2l1.71,4.144a3.573,3.573,0,0,0,.251.538.491.491,0,0,0,.264.136v.128h-1.158v-.128c.139-.021.208-.08.208-.175a.819.819,0,0,0-.079-.248Zm-.207-.518-1.1-2.688-1.1,2.688Z" transform="translate(-257.106 -441.264)" fill="#f4924e"/>
    <path id="Path_373" data-name="Path 373" d="M405.918,445.01v4.28a.435.435,0,0,0,.048.233.315.315,0,0,0,.182.11v.128h-.969v-.128a.31.31,0,0,0,.184-.108.436.436,0,0,0,.046-.235v-4.5a.449.449,0,0,0-.047-.238.31.31,0,0,0-.182-.1v-.128h1.4v.128c-.113.042-.169.1-.169.179a.7.7,0,0,0,.169.3l2.939,3.833v-3.969a.451.451,0,0,0-.046-.238.309.309,0,0,0-.182-.1v-.128h.969v.128a.3.3,0,0,0-.182.1.45.45,0,0,0-.047.238v4.5a.433.433,0,0,0,.047.235.309.309,0,0,0,.182.108v.128h-1.127v-.128c.11-.033.164-.087.164-.164a.615.615,0,0,0-.149-.287Z" transform="translate(-254.628 -441.264)" fill="#f4924e"/>
    <path id="Path_374" data-name="Path 374" d="M409.426,449.346v-4.61a.3.3,0,0,0-.049-.184.352.352,0,0,0-.179-.1v-.128h2.573a2.7,2.7,0,0,1,1.34.271,2.159,2.159,0,0,1,.894,1.045,3.49,3.49,0,0,1,.267,1.4,3.342,3.342,0,0,1-.361,1.6,2.016,2.016,0,0,1-.823.858,2.834,2.834,0,0,1-1.317.262H409.2v-.128a.352.352,0,0,0,.179-.1A.3.3,0,0,0,409.426,449.346Zm.561-.1h1.763a1.985,1.985,0,0,0,1.15-.267,1.827,1.827,0,0,0,.651-.976,3.247,3.247,0,0,0,.136-.961,2.686,2.686,0,0,0-.433-1.57,1.353,1.353,0,0,0-.582-.487,2.453,2.453,0,0,0-.922-.143h-1.763Z" transform="translate(-252.055 -441.264)" fill="#f4924e"/>
    <path id="Path_375" data-name="Path 375" d="M413.929,447.321v2.021h3.126a.334.334,0,0,0,.213-.052.349.349,0,0,0,.1-.2h.115v1.028h-.115a.376.376,0,0,0-.1-.2.339.339,0,0,0-.213-.051H413.14v-.128a.314.314,0,0,0,.184-.108.455.455,0,0,0,.044-.234v-4.5a.46.46,0,0,0-.046-.236.336.336,0,0,0-.182-.107v-.128h3.869a.334.334,0,0,0,.212-.051.4.4,0,0,0,.1-.2h.113v1.027h-.113a.384.384,0,0,0-.1-.2.33.33,0,0,0-.213-.052h-3.08V446.8h2.019a.353.353,0,0,0,.213-.051.378.378,0,0,0,.1-.2h.113v1.027h-.113a.383.383,0,0,0-.1-.2.353.353,0,0,0-.213-.051Z" transform="translate(-249.532 -441.363)" fill="#f4924e"/>
    <path id="Path_376" data-name="Path 376" d="M358.374,446.569h2.8a7.006,7.006,0,0,0,.876-.038,1.354,1.354,0,0,0,.47-.151,1.111,1.111,0,0,0,0-1.8,1.347,1.347,0,0,0-.466-.156,7.6,7.6,0,0,0-.881-.033h-2.8Zm0,1.371v2.752a.408.408,0,0,0,.089.282.56.56,0,0,0,.3.156v.2h-2.593v-.2a.619.619,0,0,0,.3-.157.416.416,0,0,0,.085-.281v-7.031a.428.428,0,0,0-.085-.287.605.605,0,0,0-.3-.157v-.2h5.2a8.234,8.234,0,0,1,1.507.11,2.669,2.669,0,0,1,.972.385,1.951,1.951,0,0,1,.718.859,2.824,2.824,0,0,1,.225,1.122q0,2.037-2.26,2.385l1.614,2.286a5.012,5.012,0,0,0,.623.776.79.79,0,0,0,.484.19v.2h-3v-.2c.2-.033.308-.1.308-.218a1.538,1.538,0,0,0-.287-.528l-1.692-2.444Zm-9.469-.262v2.281h5.333a.422.422,0,0,0,.28-.085.619.619,0,0,0,.157-.3h.2v2.145h-.2a.618.618,0,0,0-.157-.3.42.42,0,0,0-.28-.085H346.7v-.2a.619.619,0,0,0,.3-.157.426.426,0,0,0,.085-.287v-7.024a.428.428,0,0,0-.085-.287.605.605,0,0,0-.3-.157v-.2h7.388a.407.407,0,0,0,.281-.085.623.623,0,0,0,.159-.3h.2v2.143h-.2a.631.631,0,0,0-.159-.3.412.412,0,0,0-.277-.085H348.9v1.97h3.365a.419.419,0,0,0,.279-.085.6.6,0,0,0,.157-.3h.2v2.094h-.2a.624.624,0,0,0-.157-.3.4.4,0,0,0-.279-.089Zm-9.976-2.2-1.9,4.792a1.618,1.618,0,0,0-.166.464c0,.184.151.318.451.394v.2h-2.668v-.2c.272-.051.408-.19.408-.413a2.729,2.729,0,0,0-.169-.541L332.5,444.05a2.216,2.216,0,0,0-.32-.617.73.73,0,0,0-.418-.216v-.2h2.88v.2c-.256.056-.382.175-.382.359a1.231,1.231,0,0,0,.1.4l1.65,4.387,1.778-4.412a1.339,1.339,0,0,0,.116-.375c0-.187-.138-.308-.41-.359v-.2h3.021v.2c-.274.072-.413.2-.413.393a1.318,1.318,0,0,0,.1.366l1.688,4.387,1.638-4.313a1.478,1.478,0,0,0,.13-.48c0-.179-.148-.3-.44-.353v-.2h2.852v.2a.823.823,0,0,0-.418.218,2.576,2.576,0,0,0-.307.615l-2.378,6.125a2.072,2.072,0,0,0-.171.584c0,.2.144.323.433.37v.2h-2.708v-.2c.284-.044.426-.18.426-.407a2.076,2.076,0,0,0-.189-.548Zm-12-1.2a2.873,2.873,0,0,0-1.986.708,3.015,3.015,0,0,0,0,4.377,3.161,3.161,0,0,0,3.988,0,2.73,2.73,0,0,0,.72-1.03,2.936,2.936,0,0,0,.221-1.122,2.778,2.778,0,0,0-.941-2.225A2.981,2.981,0,0,0,326.929,444.276Zm-.007-1.409a4.887,4.887,0,0,1,3.449,1.176,4.335,4.335,0,0,1,.7,5.414,4.5,4.5,0,0,1-4.136,2.022A4.857,4.857,0,0,1,323.5,450.3a4.076,4.076,0,0,1-1.035-1.505,4.31,4.31,0,0,1-.312-1.629,4.264,4.264,0,0,1,.64-2.284A4.533,4.533,0,0,1,326.923,442.867Zm-8.521,1.52v6.3a.426.426,0,0,0,.084.287.636.636,0,0,0,.3.157v.2h-2.593v-.2a.62.62,0,0,0,.3-.157.426.426,0,0,0,.085-.287v-6.3h-2.567a.413.413,0,0,0-.279.084.6.6,0,0,0-.157.3h-.2v-2.143h.2a.639.639,0,0,0,.159.3.4.4,0,0,0,.277.084h6.947a.418.418,0,0,0,.285-.084.6.6,0,0,0,.157-.3h.2v2.143h-.2a.6.6,0,0,0-.157-.3.427.427,0,0,0-.285-.084Z" transform="translate(-313.378 -442.346)" fill="#f4924e"/>
    <text id="at" transform="translate(59.287 8.257)" fill="#f4924e" font-size="9" font-family="SignPainter-HouseScript, SignPainter"><tspan x="0" y="0">at</tspan></text>
  </g>
</svg>
