<svg height='300px' width='300px'  fill="#2768b3" xmlns="http://www.w3.org/2000/svg" xmlns:xlink="http://www.w3.org/1999/xlink" version="1.1" x="0px" y="0px" viewBox="0 0 64 64" style="enable-background:new 0 0 64 64;" xml:space="preserve"><path d="M23.586,37H23c-0.08,0-0.151,0.028-0.226,0.046c-0.138,0.009-0.276,0.025-0.414,0.037c-0.166,0.015-0.33,0.036-0.495,0.055  c-0.394,0.047-0.786,0.107-1.177,0.18c-0.157,0.029-0.315,0.055-0.471,0.089c-0.509,0.109-1.014,0.234-1.512,0.387  c-0.005,0.001-0.008,0.005-0.013,0.006C11.351,40.071,6,46.921,6,55v6c0,0.552,0.447,1,1,1h50c0.553,0,1-0.448,1-1v-6  c0-8.079-5.351-14.929-12.693-17.2c-0.005-0.002-0.008-0.005-0.013-0.006c-0.499-0.153-1.004-0.278-1.512-0.387  c-0.156-0.033-0.314-0.059-0.471-0.089c-0.39-0.073-0.782-0.133-1.177-0.18c-0.165-0.02-0.329-0.04-0.495-0.055  c-0.138-0.013-0.275-0.028-0.414-0.037C41.151,37.028,41.08,37,41,37h-0.586L38,34.586v-1.065c4.154-2.172,7-6.517,7-11.521h1  c0.553,0,1-0.448,1-1v-2c0-5.932-3.589-11.365-9-13.735V3c0-0.552-0.447-1-1-1H27c-0.553,0-1,0.448-1,1v2.265  c-5.411,2.37-9,7.803-9,13.735v2c0,0.552,0.447,1,1,1h1c0,5.004,2.846,9.349,7,11.521v1.065L23.586,37z M42.587,39.229  c0.399,0.065,0.796,0.139,1.19,0.234c0.075,0.018,0.148,0.042,0.223,0.062V53c0,0.379,0.214,0.725,0.553,0.895L48,55.618V60H16  v-4.382l3.447-1.724C19.786,53.725,20,53.379,20,53V39.524c0.075-0.019,0.148-0.043,0.223-0.062c0.393-0.095,0.791-0.169,1.19-0.234  c0.172-0.028,0.341-0.066,0.516-0.089c0.024-0.003,0.048-0.003,0.072-0.006V53c0,0.552,0.447,1,1,1h18c0.553,0,1-0.448,1-1V39.134  c0.024,0.003,0.048,0.003,0.072,0.006C42.246,39.163,42.415,39.2,42.587,39.229z M40,39.25V52H24V39.25l7.4,5.55  c0.178,0.133,0.389,0.2,0.6,0.2s0.422-0.067,0.6-0.2L40,39.25z M8,55c0-6.699,4.146-12.435,10-14.816v12.197l-2,1V48h-2v12H8V55z   M56,55v5h-6V48h-2v5.382l-2-1V40.184C51.854,42.565,56,48.301,56,55z M19,19c0-4.914,2.847-9.427,7.196-11.61l0.814,5.75l1.98-0.28  L28,5.864V4h3v4h2V4h3v1.864l-0.99,6.995l1.98,0.28l0.814-5.75C42.153,9.573,45,14.086,45,19v1h-1.051H20.051H19V19z M21,22h22  c0,4.44-2.649,8.265-6.446,10.001c-2.9,1.324-6.208,1.324-9.109,0C23.649,30.265,21,26.44,21,22z M28.619,34.538  c0.172,0.047,0.344,0.094,0.517,0.133c0.187,0.042,0.376,0.078,0.567,0.113c0.211,0.038,0.422,0.07,0.634,0.097  c0.17,0.022,0.34,0.045,0.512,0.06c0.313,0.028,0.626,0.042,0.94,0.048C31.86,34.99,31.929,35,32,35s0.14-0.01,0.211-0.011  c0.314-0.005,0.627-0.02,0.94-0.048c0.172-0.015,0.342-0.038,0.512-0.06c0.212-0.027,0.423-0.059,0.634-0.097  c0.19-0.034,0.379-0.07,0.567-0.113c0.174-0.039,0.345-0.087,0.517-0.133c0.207-0.056,0.416-0.109,0.619-0.174V35  c0,0.265,0.105,0.52,0.293,0.707l2.185,2.185L32,42.75l-6.478-4.858l2.185-2.185C27.895,35.52,28,35.265,28,35v-0.636  C28.203,34.43,28.411,34.482,28.619,34.538z"></path></svg>