
<svg height='300px' width='300px'  fill="#2768b3" xmlns="http://www.w3.org/2000/svg" xmlns:xlink="http://www.w3.org/1999/xlink" version="1.1" x="0px" y="0px" viewBox="0 0 100 100" enable-background="new 0 0 100 100" xml:space="preserve"><g><path d="M50,94.036C25.719,94.036,5.964,74.281,5.964,50S25.719,5.964,50,5.964S94.036,25.719,94.036,50S74.281,94.036,50,94.036z    M50,9.964C27.924,9.964,9.964,27.924,9.964,50S27.924,90.036,50,90.036S90.036,72.076,90.036,50S72.076,9.964,50,9.964z"></path><path d="M56.029,24.352c-0.206,0-0.401-0.082-0.589-0.191c-2.785-1.62-7.023-2.66-8.336-6.535c-0.37-1.093-0.75-2.021-1-3.239   c-0.074-0.359-0.134-0.719,0.076-1.02c0.211-0.3,0.573-0.465,0.933-0.419c5.561,0.636,5.029,0.035,9.063,1.758l1.542,0.656   c0.298,0.125,0.516,0.386,0.587,0.7c0.571,2.532,1.283,5.683-1.646,8.065C56.477,24.277,56.253,24.352,56.029,24.352z    M48.628,15.146c0.209,0.53,0.405,1.084,0.586,1.657c0.713,2.259,2.419,2.962,4.843,4.252c0.695,0.37,1.326,0.705,1.859,1.027   c1.163-1.311,1.013-2.923,0.548-5.082l-1.073-0.457C51.865,15.038,52.406,15.645,48.628,15.146z"></path><path d="M46.823,92.335c-0.289,0-0.576-0.124-0.773-0.365c-0.351-0.427-0.289-1.057,0.138-1.407   c1.524-1.253,6.986-14.023,8.254-15.214c2.02-1.898,8.987-6.005,9.579-6.646c-1.499-0.956-10.499-9.879-13.97-11.381   c-2.726-1.18-13.967-3.072-15.321-2.216c-0.46,0.29-0.98,0.453-1.396,0.103c-2.261-1.913-7.806-8.034-8.104-8.337   c-0.25-0.257-0.345-0.627-0.247-0.972c0.097-0.346,0.371-0.611,0.72-0.698c0.066-0.017,1.303-0.326,2.587-0.619   c-0.689-1.836-0.086-3.12,0.067-3.385c0.154-0.265,0.49-0.683,0.795-0.701c1.328-0.078,2.474-0.656,4.376-2.425l10.63-16.15   l-2.359-3.828c0,0-2.858,6.077-3.142,6.198c-0.284,0.124-0.609,0.105-0.879-0.045l-5.901-3.25   c-0.466-0.259-0.647-0.838-0.411-1.316l3.018-6.121c-0.404-0.316-1.032-0.813-2.023-1.596c-1.037-0.82-0.78-1.053-0.557-1.514   c0.241-0.497,0.563-1,1.797-0.056c1.071,0.819,2.369,1.873,2.584,2.028c0.188,0.12,0.331,0.301,0.405,0.515   c0.087,0.252,0.07,0.529-0.049,0.77l-2.96,6.004l3.94,2.162c0,0,3.258-6.402,3.428-6.67c0.328-0.516,0.888-0.436,1.161-0.27   c0,0,4.248,6.525,4.292,6.817c0.044,0.293-0.044,0.59-0.24,0.812L34.458,40.236c-0.5,0.625-2.809,1.904-4.417,2.125   c-0.263,0.419,0.193,1.669,0.523,2.625c0.094,0.271,0.066,0.569-0.075,0.818c-0.141,0.25-0.382,0.427-0.663,0.486   c-0.612,0.13-1.312,0.29-1.932,0.437c1.937,1.96,4.202,4.674,6.132,6.426c2.526-1.438,14.037,1.131,16.818,2.333   c3.634,1.573,13.391,10.999,15.259,12.167c0.254,0.158,0.423,0.422,0.461,0.719c0.039,0.297-0.058,0.595-0.262,0.813   c-0.869,0.926-8.416,5.669-10.493,7.62c-1.053,0.99-6.548,13.819-8.353,15.302C47.271,92.261,47.046,92.335,46.823,92.335z"></path><path fill="none" stroke="#000000" stroke-width="4" stroke-linecap="round" stroke-linejoin="round" stroke-miterlimit="10" d="   M35.646,8.936"></path><path fill="none" stroke="#000000" stroke-width="4" stroke-linecap="round" stroke-linejoin="round" stroke-miterlimit="10" d="   M16.451,26.358"></path><path d="M42.9,92.189c-0.079,0-0.16-0.009-0.24-0.029c-0.536-0.132-0.864-0.674-0.731-1.21c1.09-4.415-2.839-12.169-7.18-15.61   c-2.066-1.639-3.213-3.571-3.407-5.745c-0.185-2.07,0.894-9.465,2.391-11.491c-2.905-1.763-8.747-1.444-10.116-3.858   c-4.632-8.165-7.564-20.997-8.068-29.452c-0.033-0.552,0.388-1.025,0.938-1.058c0.547-0.021,1.025,0.387,1.058,0.938   c0.479,8.023,3.379,20.769,7.813,28.585c0.987,1.742,6.863,1.434,10.408,3.762c0.242,0.159,0.403,0.415,0.442,0.702   c0.038,0.287-0.049,0.577-0.24,0.795c-0.943,1.07-2.854,8.427-2.633,10.897c0.144,1.606,1.038,3.072,2.657,4.356   c5.255,4.164,9.009,13.078,7.88,17.656C43.758,91.885,43.35,92.189,42.9,92.189z"></path><path d="M88.158,68.415c-0.363,0-0.714-0.198-0.891-0.544c-0.942-1.837-1.315-5.322-1.677-8.693   c-0.286-2.669-0.718-6.703-1.402-7.243c-5.151-1.065-9.974-2.239-11.374-4.466c-0.39-0.62-0.507-1.31-0.339-1.993   c0.563-2.297,0.179-4.236-0.229-6.29c-0.529-2.667-1.077-5.425,0.301-9.104c0.062-0.164,0.165-0.31,0.301-0.421   c4.665-3.845,6.721-5.389,9.83-6.354c0.529-0.161,1.088,0.131,1.251,0.659c0.164,0.527-0.131,1.087-0.659,1.251   c-2.61,0.81-4.281,1.979-8.939,5.813c-1.063,3.023-0.606,5.329-0.122,7.767c0.432,2.177,0.879,4.429,0.208,7.156   c-0.027,0.115-0.036,0.249,0.091,0.451c1.064,1.693,6.996,2.94,10.184,3.61c1.883,0.396,2.305,3.499,2.889,8.95   c0.325,3.041,0.694,6.487,1.467,7.994c0.252,0.491,0.059,1.094-0.434,1.346C88.468,68.38,88.312,68.415,88.158,68.415z"></path><path d="M74.325,20.596c-3.298,0-5.91-0.466-7.148-1.912c-1.281-1.496-4.593-4.579-2.513-7.996   c0.287-0.471,0.907-0.612,1.378-0.319c0.469,0.292,0.611,0.909,0.319,1.378c-0.875,1.402-0.322,2.195,1.125,4.013   c0.427,0.536,0.912,1.146,1.358,1.822c0.776,1.173,5.61,1.035,7.676,0.978c1.38-0.04,2.063-0.052,2.49,0.057   c0.535,0.138,0.857,0.683,0.72,1.218c-0.137,0.532-0.673,0.85-1.211,0.722c-0.23-0.047-1.179-0.018-1.943,0.003   C75.811,20.579,75.056,20.596,74.325,20.596z"></path></g></svg>