
<svg height='300px' width='300px'  fill="#2768b3" xmlns="http://www.w3.org/2000/svg" xmlns:xlink="http://www.w3.org/1999/xlink" version="1.1" x="0px" y="0px" viewBox="0 0 100 100" enable-background="new 0 0 100 100" xml:space="preserve"><path d="M7.5,52.5H15v40c0,1.4,1.1,2.5,2.5,2.5h65c1.4,0,2.5-1.1,2.5-2.5v-40h7.5c2.2,0,3.3-2.7,1.8-4.3L51.8,5.7  c-0.1-0.1-0.2-0.2-0.4-0.3c-0.1,0-0.1-0.1-0.2-0.1c-0.1,0-0.2-0.1-0.3-0.1c-0.1,0-0.2-0.1-0.2-0.1c-0.1,0-0.1-0.1-0.2-0.1  c-0.3-0.1-0.7-0.1-1,0c-0.1,0-0.1,0-0.2,0.1c-0.1,0-0.2,0-0.2,0.1c-0.1,0-0.2,0.1-0.3,0.1c-0.1,0-0.1,0.1-0.2,0.1  c-0.1,0.1-0.3,0.2-0.4,0.3L5.7,48.2C4.2,49.8,5.3,52.5,7.5,52.5z M50,39.8c1.3,0,2.5,1.3,2.5,2.7v6c0,1,0.6,1.9,1.5,2.3  c3.6,1.6,6,5.2,6,9.2c0,5.5-4.5,10-10,10s-10-4.5-10-10c0-4,2.4-7.6,6-9.2c0.9-0.4,1.5-1.3,1.5-2.3v-6C47.5,41.1,48.7,39.8,50,39.8z   M47.5,13.5v21.8c-2.9,1.1-5,3.9-5,7.2V47c-4.6,2.7-7.5,7.6-7.5,13c0,8.3,6.7,15,15,15s15-6.7,15-15c0-5.4-2.9-10.3-7.5-13v-4.5  c0-3.3-2.1-6.1-5-7.2V13.5l34,34h-4c-1.4,0-2.5,1.1-2.5,2.5v40H20V50c0-1.4-1.1-2.5-2.5-2.5h-4L47.5,13.5z"></path><path d="M25,62.5h5c3.2,0,3.2-5,0-5h-5C21.8,57.5,21.8,62.5,25,62.5z"></path><path d="M70,62.5h5c3.2,0,3.2-5,0-5h-5C66.8,57.5,66.8,62.5,70,62.5z"></path><path d="M30.6,44.1l3.5,3.5c2.3,2.3,5.8-1.3,3.5-3.5l-3.5-3.5C31.8,38.3,28.3,41.8,30.6,44.1z"></path><path d="M62.4,75.9l3.5,3.5c2.3,2.3,5.8-1.3,3.5-3.5l-3.5-3.5C63.6,70.1,60.1,73.6,62.4,75.9z"></path><path d="M34.1,79.4l3.5-3.5c2.3-2.3-1.3-5.8-3.5-3.5l-3.5,3.5C28.3,78.2,31.8,81.7,34.1,79.4z"></path><path d="M65.9,47.6l3.5-3.5c2.3-2.3-1.3-5.8-3.5-3.5l-3.5,3.5C60.1,46.4,63.6,49.9,65.9,47.6z"></path><path d="M52.5,85v-5c0-3.2-5-3.2-5,0v5C47.5,88.2,52.5,88.2,52.5,85z"></path></svg>