
<svg height='300px' width='300px'  fill="#2768b3" xmlns="http://www.w3.org/2000/svg" data-name="Layer 1" viewBox="0 0 100 100" x="0px" y="0px"><title>revisi travel</title><path d="M29.34,71.95a1.47,1.47,0,0,0,0,2.95h3.5v3.5a1.47,1.47,0,1,0,2.95,0v-3.5H48.53v3.5a1.47,1.47,0,1,0,2.95,0v-3.5H64.22v3.5a1.47,1.47,0,1,0,2.95,0v-3.5h3.5a1.47,1.47,0,1,0,0-2.95h-3.5V59.21h3.5a1.47,1.47,0,0,0,0-2.95h-3.5V43.52h3.5a1.47,1.47,0,0,0,0-2.95h-3.5v-3.5a1.47,1.47,0,1,0-2.95,0v3.5H51.47v-3.5a1.47,1.47,0,1,0-2.95,0v3.5H35.78v-3.5a1.47,1.47,0,0,0-2.95,0v3.5h-3.5a1.47,1.47,0,0,0,0,2.95h3.5V56.26h-3.5a1.47,1.47,0,0,0,0,2.95h3.5V71.95ZM51.47,43.52H64.22V56.26H51.47Zm0,15.69H64.22V71.95H51.47ZM35.78,43.52H48.53V56.26H35.78Zm0,15.69H48.53V71.95H35.78Z"></path><path d="M78.16,29.92H21.84a1.47,1.47,0,0,0-1.47,1.47V84.07a1.47,1.47,0,0,0,1.47,1.47H78.16a1.47,1.47,0,0,0,1.47-1.47V31.4A1.47,1.47,0,0,0,78.16,29.92ZM76.68,82.59H23.32V32.87H76.68Z"></path><path d="M79.71,14.39H72.47V6.89A1.47,1.47,0,0,0,71,5.41H64.52A1.47,1.47,0,0,0,63,6.89v7.51H37V6.89a1.47,1.47,0,0,0-1.47-1.47H29a1.47,1.47,0,0,0-1.47,1.47v7.51H20.29a8,8,0,0,0-8,8V86.63a8,8,0,0,0,8,8H79.71a8,8,0,0,0,8-8V22.35A8,8,0,0,0,79.71,14.39ZM66,15.87V8.36h3.53V19.73H66ZM30.47,8.36H34V19.73H30.47V15.87h0ZM84.72,86.63a5,5,0,0,1-5,5H20.29a5,5,0,0,1-5-5V22.35a5,5,0,0,1,5-5h7.24V21.2A1.47,1.47,0,0,0,29,22.67h6.48A1.47,1.47,0,0,0,37,21.2V17.34H63V21.2a1.47,1.47,0,0,0,1.47,1.47H71a1.47,1.47,0,0,0,1.47-1.47V17.34h7.24a5,5,0,0,1,5,5Z"></path></svg>