<svg height='300px' width='300px'  fill="#2768b3" xmlns="http://www.w3.org/2000/svg" xmlns:xlink="http://www.w3.org/1999/xlink" version="1.1" x="0px" y="0px" viewBox="0 0 48 48" style="enable-background:new 0 0 48 48;" xml:space="preserve"><g><path d="M45.1,35.6c1-0.1,1-1,1-1.3l-9-33.6C37,0.3,36.6,0,36.1,0H11.9c-0.5,0-0.8,0.3-1,0.7l-9,33.6c-0.1,0.3,0,1.2,1,1.3H22V46   H10.1c-0.6,0-1,0.4-1,1s0.4,1,1,1h25.8c0.6,0,1-0.4,1-1s-0.4-1-1-1H24V35.6H45.1z M43.8,33.6h-11l-0.7-7H42L43.8,33.6z M41.4,24.6   h-9.5l-0.4-3.9h8.8L41.4,24.6z M39.8,18.7h-8.5l-0.4-3.9h7.8L39.8,18.7z M37.2,8.9l1,3.9h-7.5l-0.4-3.9H37.2z M35.3,2l1.3,4.9h-6.5   L29.7,2H35.3z M20.4,2h7.3l0.5,4.9h-8.3L20.4,2z M19.7,8.9h8.7l0.4,3.9h-9.5L19.7,8.9z M19.1,14.8h9.9l0.4,3.9H18.7L19.1,14.8z    M29.5,20.7l0.4,3.9H18.1l0.4-3.9H29.5z M12.7,2h5.7l-0.5,4.9h-6.5L12.7,2z M10.8,8.9h6.9l-0.4,3.9H9.7L10.8,8.9z M15.2,33.6h-11   l1.9-7h9.8L15.2,33.6z M16.1,24.6H6.6l1-3.9h8.8L16.1,24.6z M16.7,18.7H8.2l1-3.9h7.8L16.7,18.7z M17.2,33.6l0.7-7h12.2l0.7,7H17.2   z"></path></g></svg>