<svg xmlns="http://www.w3.org/2000/svg" xmlns:xlink="http://www.w3.org/1999/xlink" width="129.651" height="25.645" viewBox="0 0 129.651 25.645">
  <defs>
    <clipPath id="clip-path">
      <path id="Path_1077" data-name="Path 1077" d="M75.47-28a.47.47,0,0,1,.47.47V-5.922a.47.47,0,0,1-.47.47.47.47,0,0,1-.47-.47V-27.53A.47.47,0,0,1,75.47-28Z" transform="translate(-75 28)" fill="#fff" clip-rule="evenodd"/>
    </clipPath>
    <clipPath id="clip-path-2">
      <path id="Path_1076" data-name="Path 1076" d="M-62,154.335H277.16V-120H-62Z" transform="translate(62 120)" fill="#fff"/>
    </clipPath>
    <clipPath id="clip-path-3">
      <path id="Path_1080" data-name="Path 1080" d="M91.809-5.279a1.007,1.007,0,0,0,.736-.276.948.948,0,0,0,.294-.681.984.984,0,0,0-.239-.718h0L89.62-10.6a4.352,4.352,0,0,0,1.131-.405,3.028,3.028,0,0,0,.9-.718,3.333,3.333,0,0,0,.6-1.068,4.372,4.372,0,0,0,.221-1.455A4.285,4.285,0,0,0,92.131-16a3.555,3.555,0,0,0-.929-1.271,4.134,4.134,0,0,0-1.361-.773,5.031,5.031,0,0,0-1.655-.267H84.434a1.336,1.336,0,0,0-1.067.424A1.493,1.493,0,0,0,83-16.88h0V-6.31a1.026,1.026,0,0,0,.285.727.911.911,0,0,0,.69.3.94.94,0,0,0,.7-.3,1.009,1.009,0,0,0,.294-.727h0v-3.867H86.88a.99.99,0,0,1,.6.157,2.391,2.391,0,0,1,.432.433h0L91.128-5.61A.932.932,0,0,0,91.809-5.279Zm-3.844-6.776h-3V-16.4h3.09a2.56,2.56,0,0,1,1.839.571,2.128,2.128,0,0,1,.588,1.6,2.2,2.2,0,0,1-.561,1.584,2.641,2.641,0,0,1-1.959.589ZM98.834-5.186a7.9,7.9,0,0,0,.837-.046,8.344,8.344,0,0,0,.828-.129,5.808,5.808,0,0,0,.736-.2,3.016,3.016,0,0,0,.579-.267.929.929,0,0,0,.4-.4,1.078,1.078,0,0,0,.092-.433.855.855,0,0,0-.092-.387.794.794,0,0,0-.267-.3.915.915,0,0,0-.423-.147,1.174,1.174,0,0,0-.543.083,7.7,7.7,0,0,1-1.076.322,4.823,4.823,0,0,1-1.039.12,2.565,2.565,0,0,1-1.756-.589,2.134,2.134,0,0,1-.671-1.694h0v-.221h5.2a1.114,1.114,0,0,0,.892-.331,1.253,1.253,0,0,0,.285-.847h0v-.516a4.655,4.655,0,0,0-.294-1.685,3.778,3.778,0,0,0-.828-1.307A3.628,3.628,0,0,0,100.415-15a4.563,4.563,0,0,0-1.673-.295,4.734,4.734,0,0,0-1.609.267,3.78,3.78,0,0,0-1.3.773,3.8,3.8,0,0,0-.883,1.225,4.736,4.736,0,0,0-.4,1.6q-.018.221-.028.506t-.009.589q0,.3.009.617t.028.571a4.633,4.633,0,0,0,.377,1.593A3.866,3.866,0,0,0,95.8-6.3a3.944,3.944,0,0,0,1.315.819A4.744,4.744,0,0,0,98.834-5.186Zm1.876-5.837H96.443a2.649,2.649,0,0,1,.543-1.851,2.163,2.163,0,0,1,1.756-.691,2.174,2.174,0,0,1,1.664.635,2.127,2.127,0,0,1,.524,1.685q-.037.221-.221.221Zm7.43,5.837a7.561,7.561,0,0,0,1.333-.11,7.617,7.617,0,0,0,1.1-.276,6.722,6.722,0,0,0,.837-.341q.349-.175.552-.3a.835.835,0,0,0,.276-.3.983.983,0,0,0,.074-.414h0v-4.788a3.352,3.352,0,0,0-1.021-2.716,4.2,4.2,0,0,0-2.786-.856,7.431,7.431,0,0,0-1.627.175,5.418,5.418,0,0,0-1.186.377,1.037,1.037,0,0,0-.506.414,1,1,0,0,0-.138.488.8.8,0,0,0,.368.681,1.056,1.056,0,0,0,.975.055,7.818,7.818,0,0,1,.91-.276,4.565,4.565,0,0,1,1.094-.129,2.335,2.335,0,0,1,1.563.424,1.735,1.735,0,0,1,.478,1.363h0v.608q-.644-.147-1.168-.23a7.516,7.516,0,0,0-1.168-.083,5.009,5.009,0,0,0-1.674.249,3.335,3.335,0,0,0-1.159.672,2.657,2.657,0,0,0-.68.976,3.1,3.1,0,0,0-.221,1.16,3.277,3.277,0,0,0,.239,1.261,2.832,2.832,0,0,0,.708,1.013,3.236,3.236,0,0,0,1.177.672A5.14,5.14,0,0,0,108.139-5.186ZM108.3-6.9a2.442,2.442,0,0,1-1.508-.4,1.364,1.364,0,0,1-.515-1.151,1.154,1.154,0,0,1,.543-1.022,2.468,2.468,0,0,1,1.388-.359,6.86,6.86,0,0,1,1.122.083q.5.083,1.1.23h0V-7.47a4.2,4.2,0,0,1-.662.341A3.72,3.72,0,0,1,108.3-6.9Zm7.411,1.6a.931.931,0,0,0,.7-.285.98.98,0,0,0,.276-.709h0V-17.506a.963.963,0,0,0-.285-.709.939.939,0,0,0-.69-.285.931.931,0,0,0-.7.285.98.98,0,0,0-.276.709h0V-6.291a.948.948,0,0,0,.294.709A.948.948,0,0,0,115.716-5.3Zm6.492.11a7.3,7.3,0,0,0,1.085-.083,3.884,3.884,0,0,0,.975-.267,1.023,1.023,0,0,0,.515-.387.967.967,0,0,0,.147-.516,1,1,0,0,0-.083-.4.8.8,0,0,0-.23-.313.934.934,0,0,0-.377-.175,1.021,1.021,0,0,0-.506.018l-.634.184a2.5,2.5,0,0,1-.69.092,1.217,1.217,0,0,1-.993-.377,1.647,1.647,0,0,1-.313-1.077h0v-4.585h2.538a.931.931,0,0,0,.644-.249.8.8,0,0,0,.276-.617.8.8,0,0,0-.276-.617.931.931,0,0,0-.644-.249H121.1v-1.4a.963.963,0,0,0-.285-.709.939.939,0,0,0-.69-.285.93.93,0,0,0-.7.285.98.98,0,0,0-.276.709h0v7.7a4.493,4.493,0,0,0,.184,1.307,2.881,2.881,0,0,0,.561,1.05,2.67,2.67,0,0,0,.947.7A3.284,3.284,0,0,0,122.208-5.186ZM127.8-1.78a1.513,1.513,0,0,0,.828-.276,5.553,5.553,0,0,0,1.26-1.252,9.544,9.544,0,0,0,1.241-2.21h0l3.457-8.231a1.018,1.018,0,0,0,.083-.516.992.992,0,0,0-.165-.46,1.034,1.034,0,0,0-.35-.322.972.972,0,0,0-.487-.12.916.916,0,0,0-.616.212,1.319,1.319,0,0,0-.377.562h0l-2.28,5.911a.108.108,0,0,1-.092.055.072.072,0,0,1-.074-.055h0l-2.483-5.948a1.2,1.2,0,0,0-.359-.525.943.943,0,0,0-.634-.212.9.9,0,0,0-.451.12,1.072,1.072,0,0,0-.349.313.933.933,0,0,0-.166.451,1.109,1.109,0,0,0,.083.534h0l3.347,7.716a5.2,5.2,0,0,1-.9,1.611,4.783,4.783,0,0,1-1.03.93.927.927,0,0,0-.3.368,1.016,1.016,0,0,0-.1.424.86.86,0,0,0,.276.672A.931.931,0,0,0,127.8-1.78Z" transform="translate(-83 18.5)" fill="#fff"/>
    </clipPath>
    <clipPath id="clip-path-5">
      <path id="Path_1084" data-name="Path 1084" d="M6.266-5.452a12.473,12.473,0,0,0,2.216-.185A12.58,12.58,0,0,0,10.317-6.1a11.116,11.116,0,0,0,1.391-.571q.581-.293.917-.509a1.4,1.4,0,0,0,.459-.509,1.658,1.658,0,0,0,.122-.694h0V-16.4a5.637,5.637,0,0,0-1.7-4.55,6.946,6.946,0,0,0-4.631-1.434,12.259,12.259,0,0,0-2.705.293,8.955,8.955,0,0,0-1.972.632,1.725,1.725,0,0,0-.841.694,1.688,1.688,0,0,0-.229.817,1.334,1.334,0,0,0,.611,1.141,1.743,1.743,0,0,0,1.62.093,12.922,12.922,0,0,1,1.513-.463,7.533,7.533,0,0,1,1.819-.216,3.86,3.86,0,0,1,2.6.709,2.919,2.919,0,0,1,.795,2.283h0v1.018q-1.07-.247-1.941-.386a12.4,12.4,0,0,0-1.941-.139,8.266,8.266,0,0,0-2.782.416A5.532,5.532,0,0,0,1.5-14.366,4.45,4.45,0,0,0,.367-12.731,5.225,5.225,0,0,0,0-10.788,5.528,5.528,0,0,0,.4-8.675a4.746,4.746,0,0,0,1.177,1.7A5.37,5.37,0,0,0,3.531-5.853,8.483,8.483,0,0,0,6.266-5.452Zm.275-2.869a4.036,4.036,0,0,1-2.507-.663,2.291,2.291,0,0,1-.856-1.928,1.938,1.938,0,0,1,.9-1.712,4.079,4.079,0,0,1,2.308-.6,11.315,11.315,0,0,1,1.865.139q.825.139,1.834.386h0v3.424a6.954,6.954,0,0,1-1.1.571A6.142,6.142,0,0,1,6.541-8.321ZM21.55-5.452a10.053,10.053,0,0,0,2.109-.216,12.439,12.439,0,0,0,1.819-.524,11.641,11.641,0,0,0,1.406-.632,9.573,9.573,0,0,0,.9-.54,1.184,1.184,0,0,0,.474-.524,2,2,0,0,0,.107-.709h0v-17.52a1.649,1.649,0,0,0-.459-1.188,1.541,1.541,0,0,0-1.162-.478,1.554,1.554,0,0,0-1.146.478,1.62,1.62,0,0,0-.474,1.188h0v4.627a11.967,11.967,0,0,0-1.834-.617,8.606,8.606,0,0,0-2.17-.278,6.294,6.294,0,0,0-4.631,1.65,6.986,6.986,0,0,0-1.91,4.55q-.031.432-.046,1T14.52-14q0,.617.015,1.2t.046.987a8.055,8.055,0,0,0,.642,2.591,6.008,6.008,0,0,0,1.421,2,6.467,6.467,0,0,0,2.124,1.3A7.82,7.82,0,0,0,21.55-5.452ZM21.611-8.6q-3.515,0-3.79-3.609-.031-.37-.046-.848t-.015-.987q0-.509.015-.987t.046-.787a3.8,3.8,0,0,1,.948-2.56,3.514,3.514,0,0,1,2.6-.864,7.461,7.461,0,0,1,2.231.324,6.832,6.832,0,0,1,1.528.632h0v8.575a3.77,3.77,0,0,1-.627.37,8.085,8.085,0,0,1-.871.355,8.1,8.1,0,0,1-1.009.278A4.954,4.954,0,0,1,21.611-8.6ZM35.978-5.452a12.472,12.472,0,0,0,2.216-.185A12.579,12.579,0,0,0,40.028-6.1a11.116,11.116,0,0,0,1.391-.571q.581-.293.917-.509a1.4,1.4,0,0,0,.459-.509,1.658,1.658,0,0,0,.122-.694h0V-16.4a5.637,5.637,0,0,0-1.7-4.55,6.946,6.946,0,0,0-4.631-1.434,12.259,12.259,0,0,0-2.705.293,8.955,8.955,0,0,0-1.972.632,1.725,1.725,0,0,0-.841.694,1.688,1.688,0,0,0-.229.817,1.334,1.334,0,0,0,.611,1.141,1.743,1.743,0,0,0,1.62.093,12.921,12.921,0,0,1,1.513-.463,7.534,7.534,0,0,1,1.819-.216,3.86,3.86,0,0,1,2.6.709A2.919,2.919,0,0,1,39.8-16.4h0v1.018q-1.07-.247-1.941-.386a12.4,12.4,0,0,0-1.941-.139,8.266,8.266,0,0,0-2.782.416,5.532,5.532,0,0,0-1.926,1.126,4.45,4.45,0,0,0-1.131,1.635,5.225,5.225,0,0,0-.367,1.943,5.528,5.528,0,0,0,.4,2.113,4.745,4.745,0,0,0,1.177,1.7,5.37,5.37,0,0,0,1.956,1.126A8.483,8.483,0,0,0,35.978-5.452Zm.275-2.869a4.036,4.036,0,0,1-2.507-.663,2.291,2.291,0,0,1-.856-1.928,1.938,1.938,0,0,1,.9-1.712,4.079,4.079,0,0,1,2.308-.6,11.315,11.315,0,0,1,1.865.139q.825.139,1.834.386h0v3.424a6.954,6.954,0,0,1-1.1.571A6.142,6.142,0,0,1,36.253-8.321ZM56.795-5.637a1.541,1.541,0,0,0,1.162-.478A1.649,1.649,0,0,0,58.415-7.3h0v-8.575a6.533,6.533,0,0,0-1.681-4.827,6.8,6.8,0,0,0-5.013-1.681,13.579,13.579,0,0,0-2.216.17,12.2,12.2,0,0,0-1.819.432,10.1,10.1,0,0,0-1.376.555,6.655,6.655,0,0,0-.917.54,1.749,1.749,0,0,0-.489.509,1.52,1.52,0,0,0-.153.756h0V-7.3a1.594,1.594,0,0,0,.489,1.188,1.57,1.57,0,0,0,1.131.478,1.541,1.541,0,0,0,1.162-.478A1.649,1.649,0,0,0,47.991-7.3h0V-18.376a5.32,5.32,0,0,1,1.513-.6,8.3,8.3,0,0,1,2.124-.262,4.485,4.485,0,0,1,1.345.2,3.07,3.07,0,0,1,1.131.632,3.086,3.086,0,0,1,.779,1.1,3.944,3.944,0,0,1,.29,1.589h0V-7.3a1.594,1.594,0,0,0,.489,1.188A1.57,1.57,0,0,0,56.795-5.637ZM62.083-24.3a1.688,1.688,0,0,0,1.284-.555,1.874,1.874,0,0,0,.52-1.326,1.768,1.768,0,0,0-.52-1.3A1.736,1.736,0,0,0,62.083-28a1.773,1.773,0,0,0-1.314.524,1.768,1.768,0,0,0-.52,1.3,1.874,1.874,0,0,0,.52,1.326A1.723,1.723,0,0,0,62.083-24.3Zm0,18.662a1.541,1.541,0,0,0,1.162-.478A1.649,1.649,0,0,0,63.7-7.3h0V-20.5a1.62,1.62,0,0,0-.474-1.188,1.554,1.554,0,0,0-1.146-.478,1.541,1.541,0,0,0-1.162.478,1.649,1.649,0,0,0-.459,1.188h0V-7.3a1.594,1.594,0,0,0,.489,1.188A1.57,1.57,0,0,0,62.083-5.637Z" transform="translate(0 28)" fill="none"/>
    </clipPath>
  </defs>
  <g id="Group_799" data-name="Group 799" transform="translate(0 0)">
    <g id="Group_786" data-name="Group 786" transform="translate(0 0)">
      <g id="Group_787" data-name="Group 787" transform="translate(70.463)" clip-path="url(#clip-path)">
        <g id="Group_786-2" data-name="Group 786" transform="translate(-128.712 -86.434)" clip-path="url(#clip-path-2)">
          <path id="Path_1075" data-name="Path 1075" d="M74-29h2.818V-4.573H74Z" transform="translate(53.772 114.495)" fill="#fff"/>
        </g>
      </g>
      <g id="Group_789" data-name="Group 789" transform="translate(77.979 8.925)" clip-path="url(#clip-path-3)">
        <g id="Group_788" data-name="Group 788" transform="translate(-136.228 -95.36)" clip-path="url(#clip-path-2)">
          <path id="Path_1078" data-name="Path 1078" d="M82-19.5h53.552V-.9H82Z" transform="translate(53.288 113.92)" fill="#fff"/>
        </g>
      </g>
      <g id="Group_794" data-name="Group 794" transform="translate(0)" clip-path="url(#clip-path-5)">
        <g id="Group_796" data-name="Group 796">
          <g id="Group_791" data-name="Group 791" opacity="0">
            <g id="Group_790" data-name="Group 790">
              <path id="Path_1081" data-name="Path 1081" d="M0,0H129.651V26.306H0Z" fill="#fff"/>
            </g>
          </g>
          <g id="Group_792" data-name="Group 792">
            <path id="Path_1082" data-name="Path 1082" d="M0,0H129.651V26.306H0Z" fill="#fff"/>
          </g>
        </g>
      </g>
    </g>
  </g>
</svg>
