<svg id="twitter" xmlns="http://www.w3.org/2000/svg" width="32" height="32" viewBox="0 0 32 32">
  <path id="Path_370" data-name="Path 370" d="M73.467,112.114h0a16,16,0,0,1-16-16h0a16,16,0,0,1,16-16h0a16,16,0,0,1,16,16h0A16,16,0,0,1,73.467,112.114Z" transform="translate(-57.467 -80.114)" fill="none" opacity="0.6"/>
  <path id="Path_371" data-name="Path 371" d="M74.222,112.733a9.948,9.948,0,0,0,15.3-8.833,7.084,7.084,0,0,0,1.745-1.811,6.97,6.97,0,0,1-2.009.551A3.5,3.5,0,0,0,90.8,100.7a7.016,7.016,0,0,1-2.221.849,3.5,3.5,0,0,0-5.961,3.19,9.928,9.928,0,0,1-7.21-3.655,3.5,3.5,0,0,0,1.083,4.671,3.5,3.5,0,0,1-1.585-.438,3.5,3.5,0,0,0,2.806,3.474,3.5,3.5,0,0,1-1.579.06,3.5,3.5,0,0,0,3.267,2.429A7.029,7.029,0,0,1,74.222,112.733Z" transform="translate(-66.747 -91.377)" fill="#fff"/>
</svg>
