<svg width="48" height="48" viewBox="0 0 48 48" xmlns="http://www.w3.org/2000/svg">
    <path d="M29.685 33.24c0 .615-.51 1.125-1.125 1.125h-8.61c-.615 0-1.125-.51-1.125-1.125s.51-1.125 1.125-1.125h8.595c.63 0 1.14.51 1.14 1.125zM38.64 9.555s.99-1.425.27-2.685c-.285-.51-.66-1.08-1.455-1.56 0 0-1.05 1.695.195 3.33.24.3.555.615.99.915zm4.905-1.77c.3-.72.6-1.59.3-2.775 0 0-3.3.465-3.93 3.09-.12.51-.15 1.095-.03 1.77.015-.015 2.91-.3 3.66-2.085zm2.775 17.7v13.92a3.553 3.553 0 0 1-3.555 3.555H5.235a3.553 3.553 0 0 1-3.555-3.555v-13.92c0-.615.51-1.125 1.125-1.125H4.77a12.22 12.22 0 0 1-.255-1.245c-.255-1.89-.075-3.54.555-5.04.93-2.22 3.24-3.63 5.67-3.39.675.06 1.335.225 1.935.51.255-.945.39-2.31-.24-2.865a1.152 1.152 0 0 1-.105-1.605 1.134 1.134 0 0 1 1.59-.105c1.35 1.17 1.35 3 1.11 4.335 1.305-.42 2.67-.405 3.93.12a5.556 5.556 0 0 1 3.06 3.105c.255.63.42 1.275.51 1.935 2.22-.9 4.77-.825 6.9.24.255-.54.54-1.05.915-1.515l.27-.33c1.425-1.68 2.25-2.79 2.475-3.255.075-.165.21-.78.3-1.32.285-1.26 1.02-2.28 2.07-2.91a4.57 4.57 0 0 1 3.48-.555l.405.075c2.49.6 4.02 3.075 3.45 5.52-.195.6-.345 1.2-.36 1.365-.015.795.555 3.21.75 4.005.06.24.09.405.105.465.165.84.21 1.65.105 2.445h1.77c.645.015 1.155.525 1.155 1.14zM31.305 21.66c.045.045.09.105.135.15.33.315.63.66.9 1.02.03.045.06.075.09.12.285.405.525.84.72 1.275.015.045.06.09.075.135h7.905a4.99 4.99 0 0 0-.045-1.995l-.09-.39c-.435-1.815-.825-3.615-.81-4.56 0-.48.27-1.41.435-1.92.27-1.155-.525-2.43-1.77-2.73l-.405-.075c-.645-.15-1.275-.06-1.815.27a2.3 2.3 0 0 0-1.035 1.44c-.075.45-.255 1.41-.48 1.86-.39.84-1.62 2.355-2.775 3.735l-.24.285c-.33.405-.6.87-.795 1.38zm-8.715.915v.09c-.06.6-.165 1.17-.3 1.695h8.385c-.015-.015-.015-.03-.03-.06-.12-.165-.255-.33-.39-.495-.06-.075-.12-.165-.195-.24-.21-.225-.45-.45-.705-.645-1.92-1.455-4.68-1.605-6.765-.345zM7.11 24.36h12.795c.045-.12.09-.24.12-.36.03-.105.06-.21.09-.3.09-.375.165-.765.21-1.155.015-.24.045-.405.045-.57v-.06a6.582 6.582 0 0 0-.45-2.865 3.307 3.307 0 0 0-1.845-1.86c-.855-.36-1.785-.345-2.655.015l-.225.09c-.225.12-.405.21-.555.33-.63.45-1.395.48-2.1.09l-.15-.075c-.615-.42-1.185-.63-1.86-.675-1.41-.15-2.85.72-3.39 2.025-.465 1.125-.6 2.385-.405 3.87.09.465.21.975.375 1.5zm36.96 2.25H3.945v12.795c0 .72.585 1.305 1.305 1.305h37.515c.72 0 1.305-.585 1.305-1.305V26.61zM11.355 13.365c.09-1.26-.375-2.595-1.38-3.6C8.97 8.745 7.65 8.265 6.39 8.34c-.09 1.26.375 2.595 1.38 3.6 1.005 1.02 2.325 1.5 3.585 1.425z" fill="#FFF" fill-rule="nonzero"/>
</svg>
