<?xml version="1.0" encoding="UTF-8"?>
<svg width="24px" height="24px" viewBox="0 0 24 24" version="1.1" xmlns="http://www.w3.org/2000/svg" xmlns:xlink="http://www.w3.org/1999/xlink">
    <title>6693850D-3CF4-4EF2-A586-0C9C4EF6617B</title>
    <g id="Desktop-Final-Designs" stroke="none" stroke-width="1" fill="none" fill-rule="evenodd">
        <g id="0.6-Desktop---Adani-Disruptive-Ventures---Team-Profile" transform="translate(-1216.000000, -180.000000)">
            <g id="Group-10" transform="translate(1109.000000, 180.000000)">
                <g id="Group-18" transform="translate(119.000000, 12.000000) rotate(-90.000000) translate(-119.000000, -12.000000) translate(107.000000, 0.000000)">
                    <rect id="Rectangle" fill="#FFFFFF" x="0" y="0" width="24" height="24" rx="12"></rect>
                    <path d="M8.08324684,7.25 C8.29626179,7.25 8.50935092,7.33131261 8.67230874,7.49419754 L8.67230874,7.49419754 L11.9999493,10.8220086 L15.327694,7.49419485 C15.4905476,7.33133781 15.7036536,7.25 15.9167131,7.25 C16.1297727,7.25 16.3428786,7.33133781 16.5056909,7.49415346 C16.6686303,7.65701992 16.75,7.87014497 16.75,8.08321891 C16.75,8.29629285 16.6686303,8.5094179 16.505735,8.67224028 L16.505735,8.67224028 L13.178079,12.0000667 L16.5056909,15.3278491 C16.6686303,15.4907156 16.75,15.7038406 16.75,15.9169146 C16.75,16.1985821 16.6078078,16.4803389 16.3229616,16.6459677 L16.3229616,16.6459677 L12.0175788,13.1604944 L8.57748815,16.6007614 C7.96345503,16.4850779 7.6372333,16.3142129 7.4774399,16.1544162 L7.4774399,16.1544162 L10.821921,12.0000667 L7.49430909,8.67228435 C7.33136974,8.5094179 7.25,8.29629285 7.25,8.08321891 C7.67262324,7.23958869 7.89266655,7.25 8.08324684,7.25 Z" id="Path" stroke="#666666" stroke-width="0.5" fill="#101119" fill-rule="nonzero"></path>
                </g>
            </g>
        </g>
    </g>
</svg>