<svg width="48" height="48" viewBox="0 0 48 48" xmlns="http://www.w3.org/2000/svg">
    <path d="m39.66 36.015-2.34-6.525 1.425-1.425a1.132 1.132 0 0 0 0-1.59 1.132 1.132 0 0 0-1.59 0l-.66.66-1.755-4.92.57-.57c.51-.51.72-1.23.585-1.92l-.27-1.5c.765-.72 2.13-2.04 4.275-4.32 3.69-3.93 3.105-7.755 3.075-7.92-.075-.48-.45-.84-.93-.93-.165-.03-4.005-.63-7.92 3.075-2.28 2.145-3.615 3.51-4.395 4.305l-1.425-.285c-.72-.15-1.44.06-1.935.57l-.57.57-4.95-1.77.66-.66a1.132 1.132 0 0 0 0-1.59 1.132 1.132 0 0 0-1.59 0l-1.425 1.425-6.51-2.355a1.124 1.124 0 0 0-1.62-1.56l-2.61 2.61-1.5 1.5-.93.945a1.132 1.132 0 0 0 0 1.59c.225.225.51.33.795.33.285 0 .57-.105.795-.33l.105-.105 8.895 9.87-1.23 1.23-5.91-.72a1.115 1.115 0 0 0-.93.315L6.3 25.545c-.69.705-.69 1.83 0 2.535l3.69 3.69c-.375.585-.735 1.41-.735 2.4 0 .795.27 1.965 1.455 3.045 1.14 1.245 2.325 1.515 3.105 1.515 1.05.015 1.815-.36 2.4-.735l3.69 3.69a1.78 1.78 0 0 0 1.275.525c.48 0 .93-.18 1.275-.525l1.515-1.515c.24-.24.36-.585.315-.93l-.72-5.91 1.245-1.245 9.84 8.88-.105.105a1.132 1.132 0 0 0 0 1.59c.225.225.51.33.795.33.285 0 .57-.105.795-.33l5.055-5.055a1.132 1.132 0 0 0 0-1.59 1.1 1.1 0 0 0-1.53 0zm-29.43-25.92 13.8 4.935-6.54 6.555-8.895-9.855 1.635-1.635zm11.385 22.05c-.24.24-.36.585-.315.93l.72 5.91-.81.81-4.08-4.08c-.21-.21-.495-.33-.795-.33-.3 0-.585.12-.795.345 0 .015-.765.765-1.65.765h-.03c-.495-.015-.975-.27-1.53-.855-.525-.48-.78-.96-.795-1.455-.015-.9.75-1.665.765-1.665.225-.21.345-.495.345-.795 0-.3-.12-.6-.33-.81l-4.08-4.08.81-.81 5.91.72c.345.045.69-.075.93-.315l2.37-2.385h.015l8.64-8.64c.045-.045.045-.09.075-.135l.885-.9 1.425.285a2.362 2.362 0 0 0 2.16-.69c.69-.75 1.98-2.07 4.215-4.17 2.04-1.92 3.99-2.4 5.085-2.49-.105 1.11-.585 3.06-2.49 5.085-2.1 2.235-3.435 3.525-4.17 4.215a2.288 2.288 0 0 0-.69 2.16l.315 1.32-1.02 1.02c-.015.015-.045.015-.06.03L24 29.775c-.015.015-.03.045-.045.075l-2.34 2.295zm11.34-8.175 4.935 13.785-1.635 1.635-9.84-8.88 6.54-6.54zm-13.02 4.095a1.132 1.132 0 0 1 0 1.59L18.3 31.29c-.225.225-.51.33-.795.33-.285 0-.57-.105-.795-.33a1.132 1.132 0 0 1 0-1.59l1.635-1.635a1.132 1.132 0 0 1 1.59 0zm7.8-9.42a1.132 1.132 0 0 1 0-1.59 1.132 1.132 0 0 1 1.59 0l1.635 1.635a1.132 1.132 0 0 1 0 1.59c-.225.225-.51.33-.795.33-.285 0-.57-.105-.795-.33l-1.635-1.635z" fill="#FFF" fill-rule="nonzero"/>
</svg>
