<svg width="48" height="48" viewBox="0 0 48 48" xmlns="http://www.w3.org/2000/svg">
    <path d="M45.825 19.005c-2.1-2.55-4.53-4.65-7.23-6.24a5.387 5.387 0 0 0-.405-.705c.105-3.12-.42-6.27-1.59-9.36-.255-.675-.9-1.095-1.65-1.095h-.03a1.7 1.7 0 0 0-1.62 1.11c-1.155 3.105-1.755 6.255-1.785 9.36a4.3 4.3 0 0 0-.42.72c-2.73 1.44-5.19 3.45-7.305 6.03-.45.555-.495 1.335-.12 1.98.33.555.885.885 1.485.885.09 0 .18-.015.285-.03 2.31-.39 4.5-1.05 6.555-1.935l-1.32 24.405H14.85V41.1h9.69c.33 0 .63-.135.855-.39.225-.255.315-.57.255-.9l-1.74-11.835a2.03 2.03 0 0 0-1.995-1.725H5.55c-.99 0-1.86.75-1.995 1.725L1.8 39.825c-.045.33.045.645.255.9.21.255.525.39.855.39h9.69v3.03H4.98c-.615 0-1.125.51-1.125 1.125s.51 1.125 1.125 1.125h38.97c.615 0 1.125-.51 1.125-1.125s-.51-1.125-1.125-1.125h-4.905l-1.32-24.3c1.995.93 4.155 1.62 6.465 1.995h.015c.075.015.165.015.24.015.615 0 1.185-.345 1.515-.915a1.671 1.671 0 0 0-.135-1.935zM16.26 34.815l.6 4.05h-6.255l.6-4.05h5.055zm-4.71-2.25.6-4.05h3.165l.6 4.05H11.55zm7.59 6.3-.6-4.05h4.11l.6 4.05h-4.11zm3.18-6.3h-4.125l-.6-4.05h4.125l.6 4.05zm-16.575-4.05H9.87l-.6 4.05H5.145l.6-4.05zm-.93 6.3h4.11l-.6 4.05h-4.11l.6-4.05zM33 14.46c0-.195.03-.39.075-.54.075-.255.225-.495.42-.705.645-.72 1.86-.75 2.595-.12.06.045.12.075.18.12.18.18.315.42.39.645.06.21.09.405.09.6 0 .885-.585 1.635-1.455 1.83-.285.075-.6.045-.795.015A1.89 1.89 0 0 1 33 14.46zm1.965-9.615a21.85 21.85 0 0 1 .99 5.655c-.345-.09-.72-.15-1.08-.15-.345 0-.69.045-1.035.135.165-1.89.525-3.765 1.125-5.64zM26.49 19.2a21.596 21.596 0 0 1 4.395-3.69c.015.045.03.075.045.105.09.3.195.6.345.87.015.03.03.045.045.06.15.24.315.465.51.675.03.03.06.09.09.12-1.695.81-3.525 1.425-5.43 1.86zm10.275 24.855h-3.81l1.38-25.455a.533.533 0 0 1 .135-.06c.135.015.27.045.405.045.15 0 .285-.03.42-.045.03.015.075.045.105.06l1.365 25.455zm1.02-26.655c.03-.03.045-.06.075-.09.195-.21.375-.42.51-.66.03-.03.045-.075.075-.105.15-.27.27-.57.36-.87.015-.03.03-.06.03-.09 1.56 1.08 3 2.34 4.32 3.795-1.92-.45-3.72-1.11-5.37-1.98z" fill="#FFF" fill-rule="nonzero"/>
</svg>
