<svg width="48" height="48" viewBox="0 0 48 48" xmlns="http://www.w3.org/2000/svg">
    <path d="M45.825 31.485c-2.085-2.655-4.71-2.1-5.73-1.485l-6.135 3.06a4.963 4.963 0 0 0-1.56-1.56c-.855-.555-1.905-.84-3.045-.78-1.485.06-6.51.135-8.925-1.17-3.975-2.145-7.38-1.05-9.24-.06-.06-.09-.105-.195-.195-.285-.33-.33-.78-.465-1.26-.495l-6.045.075a1.76 1.76 0 0 0-1.74 1.785l.165 12.915c0 .465.195.915.54 1.245.33.33.765.495 1.23.495h.03l6.045-.075c.48 0 .915-.195 1.245-.54.33-.33.51-.78.495-1.26l-.015-.96.975-.555c.585-.33 1.32-.15 1.35-.135 0 0 6.405 1.56 10.215 2.46.75.18 1.47.255 2.13.255 3.165 0 5.355-1.62 5.43-1.68l13.785-9.63c.255-.18.42-.45.465-.75.045-.3-.03-.63-.21-.87zM4.35 42.975 4.2 31.02l5.085-.06.15 11.955-5.085.06zm26.13-2.07c-.105.075-2.52 1.83-5.73 1.065-3.81-.885-10.155-2.445-10.17-2.445-.165-.045-1.575-.405-2.94.315l-.105-7.95c1.065-.72 4.125-2.355 7.815-.36 2.85 1.53 7.995 1.515 10.08 1.44.48-.015 1.155.045 1.74.42.54.345.93.84 1.17 1.485l-8.43.255c-.615.015-1.11.54-1.095 1.155a1.127 1.127 0 0 0 1.125 1.095h.03l9.78-.3c.315-.015.6-.15.81-.375.21-.225.3-.54.285-.855a4.544 4.544 0 0 0-.105-.675l6.405-3.195a1.95 1.95 0 0 1 1.98.075l-12.645 8.85zM22.14 16.8c0-.03.015-.06.015-.075.015-.12.03-.24.075-.345.045-.12.12-.21.195-.3.015-.015.015-.045.045-.06a1.164 1.164 0 0 1 .795-.33h2.22c.915 0 1.695-.54 2.085-1.32h-4.305c-.615 0-1.125-.51-1.125-1.125s.51-1.125 1.125-1.125h4.305c-.39-.795-1.17-1.32-2.085-1.32h-2.22c-.615 0-1.125-.51-1.125-1.125s.51-1.125 1.125-1.125h8.01c.615 0 1.125.51 1.125 1.125s-.51 1.125-1.125 1.125h-1.86c.24.405.435.84.54 1.32h1.32c.615 0 1.125.51 1.125 1.125s-.51 1.125-1.125 1.125h-1.32c-.465 1.89-2.055 3.315-4.005 3.51l3.795 3.765c.435.435.45 1.155 0 1.59-.225.225-.51.33-.795.33-.285 0-.57-.105-.795-.33l-5.685-5.64a1.164 1.164 0 0 1-.33-.795zm5.13 10.56c6.78 0 12.3-5.52 12.3-12.3 0-6.78-5.52-12.3-12.3-12.3-6.78 0-12.3 5.52-12.3 12.3 0 6.78 5.52 12.3 12.3 12.3zm0-22.35c5.535 0 10.05 4.515 10.05 10.05 0 5.535-4.515 10.05-10.05 10.05-5.535 0-10.05-4.515-10.05-10.05 0-5.535 4.515-10.05 10.05-10.05z" fill="#FFF" fill-rule="nonzero"/>
</svg>
