<svg width="48" height="48" viewBox="0 0 48 48" xmlns="http://www.w3.org/2000/svg">
    <path d="M45.345 43.92H44.01v-2.28a4.18 4.18 0 0 0-4.125-4.17V18.72c.78-.9 1.23-2.025 1.23-3.24a4.907 4.907 0 0 0-4.905-4.905c-.33 0-.645.045-.96.105L17.79 3.36c-.945-.96-2.205-1.53-3.54-1.53a4.907 4.907 0 0 0-4.905 4.905 4.924 4.924 0 0 0 3.78 4.785v5.73l-8.91 4.41c-.375.195-.63.585-.63 1.005v5.415c0 .615.51 1.125 1.125 1.125s1.125-.51 1.125-1.125v-4.71l8.415-4.17 8.415 4.17v4.71c0 .615.51 1.125 1.125 1.125s1.125-.51 1.125-1.125v-5.415c0-.435-.24-.825-.63-1.005l-8.925-4.41v-5.73c.48-.12.945-.3 1.38-.555l14.82 6.105c.21.6.54 1.14.96 1.635V37.44a4.184 4.184 0 0 0-4.14 4.17v2.28h-5.94v-9.84c0-.615-.51-1.125-1.125-1.125H7.185c-.615 0-1.125.51-1.125 1.125v9.84H2.655c-.615 0-1.125.51-1.125 1.125s.51 1.125 1.125 1.125H45.33c.615 0 1.125-.51 1.125-1.125s-.48-1.095-1.11-1.095zM34.77 37.455V20.19c.105.03.225.045.345.075.09.015.18.045.27.06.24.045.465.06.705.06.03 0 .075.015.105.015s.075-.015.105-.015c.24 0 .48-.03.705-.06.09-.015.18-.045.27-.06.12-.03.24-.045.345-.075v17.265h-2.85zm4.095-21.99a2.71 2.71 0 0 1-.855 1.98c-.24.21-.525.375-.81.495-.015 0-.045.015-.06.015a2.47 2.47 0 0 1-.87.15h-.09a2.742 2.742 0 0 1-1.755-.66 2.885 2.885 0 0 1-.825-1.425c-.03-.18-.06-.36-.06-.555 0-1.17.795-2.22 1.935-2.55.24-.075.48-.105.75-.105 1.44 0 2.64 1.2 2.64 2.655zM11.58 6.75a2.66 2.66 0 0 1 2.655-2.655c.795 0 1.56.36 2.07.96.39.48.615 1.08.615 1.71 0 .81-.36 1.575-1.005 2.085-.495.39-1.08.6-1.68.6-1.455-.03-2.655-1.23-2.655-2.7zm7.05 2.22c.03-.06.06-.105.09-.165a4.79 4.79 0 0 0 .315-.885c.015-.06.03-.12.03-.18.06-.33.105-.645.105-.99 0-.12 0-.255-.015-.375l13.53 5.655c-.105.105-.18.21-.27.33-.06.075-.12.135-.165.195-.12.165-.225.345-.33.51-.03.045-.045.075-.075.12-.12.225-.21.45-.3.69-.03.075-.045.15-.06.225-.045.15-.09.315-.12.465l-12.87-5.31c.045-.09.09-.18.135-.285zM8.31 43.92v-8.715h4.815v2.445h2.25v-2.445h4.815v8.715H8.31zm22.32 0v-2.28c0-1.065.87-1.935 1.92-1.935H39.795a1.94 1.94 0 0 1 1.935 1.935v2.28h-11.1z" fill="#FFF" fill-rule="nonzero"/>
</svg>
