<svg width="48" height="48" viewBox="0 0 48 48" xmlns="http://www.w3.org/2000/svg">
    <path d="M12.855 30.54a3.31 3.31 0 0 0 3.3-3.3 3.31 3.31 0 0 0-3.3-3.3 3.31 3.31 0 0 0-3.3 3.3 3.3 3.3 0 0 0 3.3 3.3zm0-4.35c.585 0 1.05.465 1.05 1.05s-.465 1.05-1.05 1.05-1.05-.465-1.05-1.05.465-1.05 1.05-1.05zm10.815 4.35a3.31 3.31 0 0 0 3.3-3.3 3.31 3.31 0 0 0-3.3-3.3 3.31 3.31 0 0 0-3.3 3.3 3.3 3.3 0 0 0 3.3 3.3zm0-4.35c.585 0 1.05.465 1.05 1.05s-.465 1.05-1.05 1.05-1.05-.465-1.05-1.05.465-1.05 1.05-1.05zm10.815 4.35a3.31 3.31 0 0 0 3.3-3.3 3.31 3.31 0 0 0-3.3-3.3 3.31 3.31 0 0 0-3.3 3.3 3.3 3.3 0 0 0 3.3 3.3zm0-4.35c.585 0 1.05.465 1.05 1.05s-.465 1.05-1.05 1.05-1.05-.465-1.05-1.05.465-1.05 1.05-1.05zm-31.74 7.185c1.455 0 2.115.405 2.955.915.96.585 2.04 1.245 4.125 1.245s3.165-.66 4.125-1.245c.84-.51 1.5-.915 2.955-.915s2.115.405 2.955.915c.96.585 2.04 1.245 4.125 1.245s3.18-.66 4.125-1.245c.84-.51 1.5-.915 2.955-.915s2.115.405 2.955.915c.96.585 2.04 1.245 4.125 1.245s3.18-.66 4.125-1.245c.84-.51 1.5-.915 2.955-.915.615 0 1.125-.51 1.125-1.125s-.51-1.125-1.125-1.125c-.465 0-.855.03-1.23.09V23.67a3.246 3.246 0 0 0-3.24-3.24h-.06l-2.265-8.1a1.139 1.139 0 0 0-1.08-.825h-5.295c-.615 0-1.125.51-1.125 1.125v7.785H29.1V7.995c0-.615-.51-1.125-1.125-1.125h-8.25c-.615 0-1.125.51-1.125 1.125V20.43h-2.445v-7.785c0-.615-.51-1.125-1.125-1.125H8.055c-.615 0-1.125.51-1.125 1.125v7.785h-.3c-1.785 0-3.24 1.455-3.24 3.105-.015.165-.435 3.705.81 7.725a8.43 8.43 0 0 0-1.455-.135c-.615 0-1.125.51-1.125 1.125s.51 1.125 1.125 1.125zm30.45-19.605h3.315l1.875 6.66H33.21v-6.66h-.015zm-12.36-.27h6v2.565h-6V13.5zm6.015-4.38v2.13h-6V9.12h6zm-6.015 9.195h6v2.13h-6v-2.13zm-6.93-4.545v2.295H9.18V13.77h4.725zM9.18 18.315h4.725v2.13H9.18v-2.13zm-3.54 5.37c0-.54.45-.99.99-.99H40.77c.54 0 .99.45.99.99v7.98c0 .105.03.195.06.3-.255.135-.48.285-.705.42-.84.51-1.5.915-2.955.915s-2.115-.405-2.955-.915c-.96-.585-2.04-1.245-4.125-1.245s-3.18.66-4.125 1.245c-.84.51-1.5.915-2.955.915s-2.115-.405-2.955-.915c-.96-.585-2.04-1.245-4.125-1.245s-3.165.66-4.125 1.245c-.84.51-1.5.915-2.955.915-1.38 0-2.055-.375-2.835-.855-.015-.105-.03-.225-.075-.33-1.785-4.095-1.305-8.25-1.29-8.43zM46.38 37.83c0 .615-.51 1.125-1.125 1.125-1.455 0-2.115.405-2.955.915-.96.585-2.04 1.245-4.125 1.245s-3.18-.66-4.125-1.245c-.84-.51-1.5-.915-2.955-.915s-2.115.405-2.955.915c-.96.585-2.04 1.245-4.125 1.245s-3.165-.66-4.125-1.245c-.84-.51-1.5-.915-2.955-.915s-2.115.405-2.955.915c-.96.585-2.04 1.245-4.125 1.245s-3.165-.66-4.125-1.245c-.84-.51-1.5-.915-2.955-.915-.615 0-1.125-.51-1.125-1.125s.51-1.125 1.125-1.125c2.085 0 3.165.66 4.125 1.245.84.51 1.5.915 2.955.915s2.115-.405 2.955-.915c.96-.585 2.04-1.245 4.125-1.245s3.165.66 4.125 1.245c.84.51 1.5.915 2.955.915s2.115-.405 2.955-.915c.96-.585 2.04-1.245 4.125-1.245s3.18.66 4.125 1.245c.84.51 1.5.915 2.955.915s2.115-.405 2.955-.915c.96-.585 2.04-1.245 4.125-1.245.615 0 1.125.51 1.125 1.125z" fill="#FFF" fill-rule="nonzero"/>
</svg>
