<?xml version="1.0" standalone="no"?>
<!DOCTYPE svg PUBLIC "-//W3C//DTD SVG 1.1//EN" "http://www.w3.org/Graphics/SVG/1.1/DTD/svg11.dtd" >
<svg xmlns="http://www.w3.org/2000/svg" xmlns:xlink="http://www.w3.org/1999/xlink" version="1.1">
<metadata>
Created by FontForge 20170731 at Fri Feb 17 18:36:27 2012
 By Aleksey,,,
This font is a renamed version of Rubrik, licensed for use only within the Adani Group. Copyright (c) 2010 by Miles Newlyn. All rights reserved.
</metadata>
<defs>
<font id="Adani-ExtraLight" horiz-adv-x="620" >
  <font-face 
    font-family="Adani ExtraLight"
    font-weight="250"
    font-stretch="normal"
    units-per-em="1000"
    panose-1="2 0 5 3 0 0 0 2 0 4"
    ascent="750"
    descent="-250"
    x-height="504"
    cap-height="702"
    bbox="-8 -284 988 916"
    underline-thickness="70"
    underline-position="-170"
    unicode-range="U+0020-FB02"
  />
<missing-glyph horiz-adv-x="301" 
 />
    <glyph glyph-name="fi" unicode="fi" 
d="M116 559q0 33 8 61t25 48t43 31t63 11q25 0 45 -3t32 -7q17 -5 17 -19q0 -5 -4.5 -11t-14.5 -6t-27 4.5t-48 4.5q-57 0 -79.5 -30.5t-22.5 -83.5v-55h160q8 0 14 -5.5t6 -13.5t-6 -13t-14 -5h-160v-451q0 -8 -5.5 -14t-13.5 -6t-13 6t-5 14v451h-45q-8 0 -14 5t-6 13
t6 13.5t14 5.5h45v55zM522 664q0 -14 -9 -23.5t-23 -9.5t-23.5 9.5t-9.5 23.5t9.5 23.5t23.5 9.5t23 -9.5t9 -23.5zM489 515q8 0 13.5 -6t5.5 -14v-479q0 -8 -5.5 -14t-13.5 -6t-13 6t-5 14v479q0 8 5 14t13 6z" />
    <glyph glyph-name=".notdef" horiz-adv-x="301" 
 />
    <glyph glyph-name=".null" horiz-adv-x="0" 
 />
    <glyph glyph-name="nonmarkingreturn" horiz-adv-x="262" 
 />
    <glyph glyph-name="space" unicode=" " horiz-adv-x="262" 
 />
    <glyph glyph-name="space" unicode="&#xa0;" horiz-adv-x="262" 
 />
    <glyph glyph-name="exclam" unicode="!" horiz-adv-x="195" 
d="M78 677q0 8 5.5 14t14.5 6q19 0 19 -20l-4 -434q0 -18 -15 -18q-7 0 -11.5 5t-4.5 13zM116 9q0 -8 -5.5 -13.5t-13.5 -5.5t-13 5.5t-5 13.5v106q0 8 5 13.5t13 5.5t13.5 -5.5t5.5 -13.5v-106z" />
    <glyph glyph-name="quotedbl" unicode="&#x22;" horiz-adv-x="315" 
d="M121 529q0 -8 -5.5 -13.5t-13.5 -5.5t-13 5.5t-5 13.5v152q0 8 5 13.5t13 5.5t13.5 -5.5t5.5 -13.5v-152zM231 529q0 -8 -5.5 -13.5t-13.5 -5.5t-13 5.5t-5 13.5v152q0 8 5 13.5t13 5.5t13.5 -5.5t5.5 -13.5v-152z" />
    <glyph glyph-name="numbersign" unicode="#" horiz-adv-x="589" 
d="M125 463q0 9 6 14t14 5h84l69 212q6 14 18 14t16.5 -9t0.5 -18l-65 -199h133l69 212q6 14 18 14t16.5 -9t0.5 -18l-65 -199h70q8 0 14 -5.5t6 -13.5t-6 -13t-14 -5h-82l-58 -177h74q8 0 14 -5.5t6 -13.5t-6 -13t-14 -5h-86l-75 -228q-3 -12 -17 -12q-11 0 -15.5 9
t-1.5 17l70 214h-133l-75 -228q-3 -12 -17 -12q-11 0 -15.5 9t-1.5 17l70 214h-68q-8 0 -14 5t-6 13q0 9 6 14t14 5h80l58 177h-72q-8 0 -14 5t-6 13zM198 268h133l58 177h-133z" />
    <glyph glyph-name="dollar" unicode="$" horiz-adv-x="608" 
d="M299 643q-54 0 -88 -12t-54 -31.5t-27.5 -43.5t-7.5 -48q0 -57 45 -87.5t120 -44.5q70 -13 117.5 -29t76.5 -38t41.5 -50.5t12.5 -65.5q0 -41 -17 -74t-46 -55.5t-67.5 -34.5t-81.5 -12v-86q0 -8 -5.5 -14t-13.5 -6t-13 6t-5 14v88q-60 4 -107 22.5t-85 44.5
q-11 8 -11 18q0 13 11.5 17t21.5 -4q35 -26 86 -44.5t111 -18.5q84 0 134.5 35t50.5 106q0 27 -9.5 48t-33.5 38.5t-65.5 31t-105.5 25.5q-107 20 -153 62t-46 109q0 80 53 123t148 47v88q0 9 5.5 14.5t13.5 5.5t13 -5.5t5 -14.5v-88q48 -5 83.5 -19.5t60.5 -34.5
q8 -6 8 -14q0 -9 -5.5 -13.5t-11.5 -4.5q-4 0 -7.5 1t-8.5 5q-26 19 -64 31.5t-79 12.5z" />
    <glyph glyph-name="percent" unicode="%" horiz-adv-x="672" 
d="M536 605q5 6 13 7t13 -3q6 -5 6.5 -13t-4.5 -13l-421 -482q-5 -6 -12.5 -7t-13.5 4t-5.5 13t5.5 14zM188 383q-29 0 -54 10.5t-44 29t-30.5 43t-12.5 53.5q-1 12 -1 27t1 27q1 28 12.5 53t30.5 43.5t44 29t54 10.5t54 -10.5t44 -29t30.5 -43.5t12.5 -53q1 -12 1 -27
t-1 -27q-1 -29 -12.5 -53.5t-30.5 -43t-44 -29t-54 -10.5zM188 676q-43 0 -73.5 -28.5t-32.5 -75.5q-1 -27 0 -52q2 -47 32.5 -75.5t73.5 -28.5t73.5 28.5t32.5 75.5q1 25 0 52q-2 47 -32.5 75.5t-73.5 28.5zM489 -4q-29 0 -54 10.5t-44 29t-30.5 43t-12.5 53.5q-1 12 -1 27
t1 27q1 28 12.5 53t30.5 43.5t44 29t54 10.5t54 -10.5t44 -29t30.5 -43.5t12.5 -53q1 -12 1 -27t-1 -27q-1 -29 -12.5 -53.5t-30.5 -43t-44 -29t-54 -10.5zM489 289q-43 0 -73.5 -28.5t-32.5 -75.5q-1 -27 0 -52q2 -47 32.5 -75.5t73.5 -28.5t73.5 28.5t32.5 75.5q1 25 0 52
q-2 47 -32.5 75.5t-73.5 28.5z" />
    <glyph glyph-name="ampersand" unicode="&#x26;" horiz-adv-x="678" 
d="M526 243q0 17 9 27t30 10h92q8 0 14.5 -5t6.5 -13q0 -9 -6 -14t-14 -5h-95q0 -60 -18.5 -106.5t-52 -78.5t-80 -49t-102.5 -17q-62 0 -109.5 14t-79.5 38t-48.5 57.5t-16.5 72.5q0 68 42.5 110.5t117.5 62.5q-56 32 -86 71.5t-30 101.5q0 37 15 70t42.5 57t65.5 38t84 14
q48 0 86.5 -13.5t65.5 -37.5t41.5 -57t14.5 -72q0 -43 -12 -73.5t-38 -53t-67 -37.5t-99 -26t-97.5 -25t-63.5 -33t-34.5 -42.5t-10.5 -54.5q0 -66 56 -105.5t159 -39.5q52 0 92 15t67.5 42t42 63t16.5 78v16zM137 519q0 -33 12 -58t30 -44t40 -33t43 -25q64 11 106 24.5
t66.5 32t34 43.5t9.5 60q0 27 -9.5 53t-30 46t-52.5 32t-78 12q-44 0 -76 -11.5t-53 -31t-31.5 -45.5t-10.5 -55z" />
    <glyph glyph-name="quotesingle" unicode="'" horiz-adv-x="205" 
d="M121 529q0 -8 -5.5 -13.5t-13.5 -5.5t-13 5.5t-5 13.5v152q0 8 5 13.5t13 5.5t13.5 -5.5t5.5 -13.5v-152z" />
    <glyph glyph-name="parenleft" unicode="(" horiz-adv-x="343" 
d="M319 794q8 0 13 -5.5t5 -12.5q0 -8 -8 -16q-51 -45 -87 -99t-59.5 -112.5t-34.5 -119.5t-11 -120t11 -120t34.5 -119.5t59.5 -112.5t87 -99q8 -8 8 -16q0 -7 -5 -12.5t-13 -5.5t-14 6q-52 46 -90.5 101.5t-64 117t-38 127.5t-12.5 133t12.5 133t38 127.5t64 117
t90.5 101.5q6 6 14 6z" />
    <glyph glyph-name="parenright" unicode=")" horiz-adv-x="343" 
d="M24 -176q-8 0 -13 5.5t-5 12.5q0 8 8 16q51 45 87 99t59.5 112.5t34.5 119.5t11 120t-11 120t-34.5 119.5t-59.5 112.5t-87 99q-8 8 -8 16q0 7 5 12.5t13 5.5t14 -6q52 -46 90.5 -101.5t64 -117t38 -127.5t12.5 -133t-12.5 -133t-38 -127.5t-64 -117t-90.5 -101.5
q-6 -6 -14 -6z" />
    <glyph glyph-name="asterisk" unicode="*" horiz-adv-x="366" 
d="M40 606q0 11 9 16t19 -1l98 -60v116q0 8 5 14t13 6t13 -6t5 -14v-116l98 60q9 5 18.5 1t9.5 -16q0 -10 -10 -16l-101 -58l101 -58q10 -6 10 -16q0 -12 -9.5 -16t-18.5 1l-98 59v-115q0 -8 -5 -14t-13 -6t-13 6t-5 14v115l-98 -59q-9 -5 -19 -0.5t-10 15.5q0 10 11 16
l100 58l-100 58q-10 6 -10 16z" />
    <glyph glyph-name="plus" unicode="+" horiz-adv-x="628" 
d="M297 332h-216q-9 0 -15 5t-6 13q0 9 6 14t15 5h216v215q0 9 5 15t13 6q9 0 14 -6t5 -15v-215h212q9 0 15.5 -5t6.5 -14q0 -8 -7 -13t-15 -5h-212v-216q0 -9 -5 -15t-14 -6q-18 0 -18 21v216z" />
    <glyph glyph-name="comma" unicode="," horiz-adv-x="199" 
d="M124 18q0 -33 -9.5 -56t-24.5 -45q-2 -3 -6.5 -6.5t-10.5 -3.5q-8 0 -13 5.5t-5 12.5q0 5 1.5 7.5t2.5 4.5q19 27 23.5 43.5t4.5 42.5v53q0 8 5 13.5t13 5.5t13.5 -5.5t5.5 -13.5v-58z" />
    <glyph glyph-name="hyphen" unicode="-" horiz-adv-x="350" 
d="M285 287q0 -8 -6 -13.5t-14 -5.5h-180q-8 0 -14 5t-6 13q0 9 6 14t14 5h180q8 0 14 -5t6 -13z" />
    <glyph glyph-name="period" unicode="." horiz-adv-x="254" 
d="M118 8q0 -8 -5.5 -13.5t-13.5 -5.5t-13 5.5t-5 13.5v106q0 8 5 13.5t13 5.5t13.5 -5.5t5.5 -13.5v-106z" />
    <glyph glyph-name="slash" unicode="/" horiz-adv-x="319" 
d="M310 731q8 -3 10.5 -10.5t-0.5 -15.5l-286 -725q-2 -7 -9 -10.5t-15 -0.5t-10 10.5t0 14.5l285 724q8 20 25 13z" />
    <glyph glyph-name="zero" unicode="0" horiz-adv-x="681" 
d="M340 -9q-54 0 -98.5 20t-77 56t-51 85.5t-20.5 107.5q-2 42 -1.5 94.5t1.5 93.5q1 57 20 104.5t51.5 82.5t77.5 54.5t98 19.5q54 0 98.5 -19t77 -54t50.5 -83.5t20 -106.5q1 -20 1 -44v-49v-49t-1 -44q-2 -58 -20.5 -107.5t-50.5 -85.5t-76.5 -56t-98.5 -20zM340 28
q46 0 83 16.5t63.5 46t42 70.5t19.5 91q2 22 2.5 48t0.5 53t-1 52.5t-2 47.5q-3 49 -18.5 89.5t-42.5 69.5t-64 44.5t-83 15.5t-83 -15.5t-64 -44.5t-42.5 -69.5t-18.5 -89.5q-1 -22 -2 -47.5t-1 -52.5t0.5 -53t2.5 -48q4 -50 19.5 -91t42.5 -70.5t63.5 -46t82.5 -16.5z" />
    <glyph glyph-name="one" unicode="1" horiz-adv-x="419" 
d="M75 564q-7 0 -12.5 5.5t-5.5 13.5q0 11 11 17l153 93q11 7 21 7q11 0 19 -7t8 -24v-653q0 -20 -19 -20q-8 0 -13 5.5t-5 14.5v638l-144 -86q-8 -4 -13 -4z" />
    <glyph glyph-name="two" unicode="2" horiz-adv-x="573" 
d="M64 42q0 33 9 61.5t27.5 55t47.5 53t68 55.5q65 48 109 80.5t70.5 60t38 54.5t11.5 65q0 26 -9.5 52t-30.5 46.5t-54 33.5t-80 13q-57 0 -97.5 -24t-68.5 -61q-3 -4 -7.5 -7t-10.5 -3t-12 5t-6 13q0 6 5 14q12 18 30.5 35.5t43.5 32t56 23.5t67 9q52 0 91.5 -14.5
t66.5 -39.5t40.5 -58t13.5 -70q0 -48 -15 -82t-44.5 -64.5t-74 -63t-104.5 -75.5q-49 -36 -77.5 -62.5t-43.5 -49.5t-19 -45t-4 -48h376q8 0 14 -5t6 -14q0 -8 -6 -13t-14 -5h-378q-15 0 -24.5 9t-10.5 23v10z" />
    <glyph glyph-name="three" unicode="3" horiz-adv-x="578" 
d="M253 437q7 1 13 1h13q44 0 82 -13.5t66 -38.5t44 -60t16 -78q0 -119 -96 -184.5t-279 -65.5q-10 0 -19 0.5t-19 0.5q-9 0 -15.5 5t-6.5 15q0 8 6 13.5t14 4.5q14 -1 27 -1.5t26 -0.5q73 0 133 13.5t103 40.5t66 66.5t23 92.5q0 36 -13 64.5t-36 48t-54.5 30t-67.5 10.5
q-19 0 -31.5 -0.5t-14.5 -0.5q-15 0 -22 7t-7 17q0 12 7 19l190 217h-330q-8 0 -14 5.5t-6 13.5t6 13t14 5h341q15 0 24 -8.5t9 -22.5t-12 -27z" />
    <glyph glyph-name="four" unicode="4" horiz-adv-x="657" 
d="M489 182v-166q0 -8 -5 -14t-14 -6q-8 0 -13 6t-5 14v166h-356q-8 0 -20 7t-12 24q0 6 2 12.5t9 15.5l347 435q8 11 16 17.5t22 6.5t21.5 -8.5t7.5 -20.5v-452h92q8 0 13 -5t5 -13t-5.5 -13.5t-12.5 -5.5h-92zM452 219v435l-348 -435h348z" />
    <glyph glyph-name="five" unicode="5" horiz-adv-x="594" 
d="M306 451q54 0 94.5 -16t67.5 -42.5t40.5 -61t13.5 -72.5q0 -127 -107 -195.5t-312 -68.5q-22 0 -22 18q0 19 21 19q86 0 157 14t121.5 41.5t78 69.5t27.5 99q0 31 -11 60t-33.5 50.5t-55.5 34.5t-77 13q-45 0 -87 -14.5t-77 -39.5q-14 -9 -28.5 -2t-14.5 26v278
q0 19 10.5 27t24.5 8h322q8 0 14 -5.5t6 -13.5q0 -9 -6 -13.5t-14 -4.5h-320v-262q38 25 81 39t86 14z" />
    <glyph glyph-name="six" unicode="6" horiz-adv-x="656" 
d="M497 668q-9 0 -31.5 3.5t-63.5 3.5q-126 0 -193.5 -74.5t-77.5 -222.5q33 16 84.5 33.5t123.5 17.5q53 0 96.5 -13t74 -39.5t47.5 -66.5t17 -94q0 -47 -14.5 -88t-43.5 -72.5t-72.5 -49.5t-101.5 -18q-63 0 -110 23.5t-78 68t-46 109t-15 146.5q0 183 79 280.5t230 97.5
q29 0 55.5 -2t40.5 -5q19 -3 19 -19q0 -8 -5 -13.5t-15 -5.5zM339 392q-69 0 -120 -17.5t-89 -38.5q0 -152 51.5 -231.5t160.5 -79.5q50 0 87 15t61 41t35.5 60.5t11.5 74.5q0 86 -48.5 131t-149.5 45z" />
    <glyph glyph-name="seven" unicode="7" horiz-adv-x="512" 
d="M449 697q15 0 24.5 -7.5t9.5 -20.5q0 -11 -8 -24q-65 -108 -115 -194.5t-87.5 -160.5t-62.5 -141.5t-39 -136.5q-2 -9 -7.5 -13t-11.5 -4q-13 0 -16 9t-1 17q16 70 38.5 133t57.5 134.5t86 160.5t124 211h-379q-8 0 -14 5t-6 13t6 13.5t14 5.5h387z" />
    <glyph glyph-name="eight" unicode="8" horiz-adv-x="669" 
d="M331 30q54 0 93.5 12.5t64.5 34.5t37 50.5t12 61.5q0 70 -51.5 114.5t-155.5 44.5t-155.5 -44.5t-51.5 -114.5q0 -33 12 -61.5t37 -50.5t64.5 -34.5t93.5 -12.5zM331 709q56 0 99 -13.5t71.5 -37.5t43 -57t14.5 -72q0 -33 -10 -59.5t-26.5 -46.5t-38 -33.5t-45.5 -22.5
q27 -8 52 -23t44 -37t30 -51.5t11 -66.5q0 -88 -62 -142t-183 -54q-122 0 -183.5 54t-61.5 142q0 37 11 66.5t30 51.5t44 37t52 23q-24 9 -45.5 22.5t-38 33.5t-26.5 46.5t-10 59.5q0 39 14.5 72t43 57t71.5 37.5t99 13.5zM331 672q-51 0 -87 -11.5t-58.5 -31.5t-33 -46
t-10.5 -54q0 -69 51 -106.5t138 -37.5t138 37.5t51 106.5q0 28 -10.5 54t-33 46t-58.5 31.5t-87 11.5z" />
    <glyph glyph-name="nine" unicode="9" horiz-adv-x="648" 
d="M145 32q90 4 157 21.5t113 51t71 85.5t31 126q-17 -8 -37 -18t-45 -18t-55 -13.5t-65 -5.5q-109 0 -171.5 57t-62.5 165q0 46 14.5 87.5t43.5 73t72.5 49.5t101.5 18q127 0 185.5 -78.5t58.5 -247.5q0 -110 -27 -182.5t-79 -117.5t-128.5 -65.5t-175.5 -24.5
q-11 -1 -16.5 5t-5.5 13q0 17 20 19zM315 298q34 0 63 5.5t53.5 13.5t45.5 18.5t40 21.5q1 11 1 21.5v20.5q0 75 -13 127.5t-39 85t-64 47.5t-89 15q-50 0 -87 -15t-61 -41t-35.5 -60.5t-11.5 -74.5q0 -86 48.5 -135.5t148.5 -49.5z" />
    <glyph glyph-name="colon" unicode=":" horiz-adv-x="288" 
d="M163 8q0 -8 -5.5 -13.5t-13.5 -5.5t-13 5.5t-5 13.5v106q0 8 5 13.5t13 5.5t13.5 -5.5t5.5 -13.5v-106zM163 369q0 -8 -5.5 -13.5t-13.5 -5.5t-13 5.5t-5 13.5v106q0 8 5 13.5t13 5.5t13.5 -5.5t5.5 -13.5v-106z" />
    <glyph glyph-name="semicolon" unicode=";" horiz-adv-x="288" 
d="M181 18q0 -33 -9.5 -56t-24.5 -45q-2 -3 -6.5 -6.5t-10.5 -3.5q-8 0 -13 5.5t-5 12.5q0 5 1.5 7.5t2.5 4.5q19 27 23.5 43.5t4.5 42.5v53q0 8 5 13.5t13 5.5t13.5 -5.5t5.5 -13.5v-58zM181 369q0 -8 -5.5 -13.5t-13.5 -5.5t-13 5.5t-5 13.5v106q0 8 5 13.5t13 5.5
t13.5 -5.5t5.5 -13.5v-106z" />
    <glyph glyph-name="less" unicode="&#x3c;" horiz-adv-x="628" 
d="M455 650q7 0 12.5 -5t5.5 -13q0 -10 -8 -16l-295 -242q-10 -9 -14 -13.5t-4 -10.5t3.5 -11t14.5 -13l296 -242q8 -6 8 -16q0 -8 -5.5 -13t-12.5 -5q-6 0 -13 5l-300 245q-11 9 -20 21t-9 29t9 29t20 21l299 245q7 5 13 5z" />
    <glyph glyph-name="equal" unicode="=" horiz-adv-x="628" 
d="M88 413q-9 0 -15 5t-6 13q0 9 6 14t15 5h451q9 0 15.5 -5t6.5 -14q0 -8 -7 -13t-15 -5h-451zM88 250q-9 0 -15 5t-6 13q0 9 6 14t15 5h451q9 0 15.5 -5t6.5 -14q0 -8 -7 -13t-15 -5h-451z" />
    <glyph glyph-name="greater" unicode="&#x3e;" horiz-adv-x="628" 
d="M177 50q-7 0 -12.5 5t-5.5 13q0 10 8 16l296 242q10 9 14 13.5t4 10.5t-3.5 11t-14.5 13l-295 242q-8 6 -8 16q0 8 5.5 13t12.5 5q6 0 13 -5l299 -245q11 -9 20 -21t9 -29t-9 -29t-20 -21l-300 -245q-7 -5 -13 -5z" />
    <glyph glyph-name="question" unicode="?" horiz-adv-x="563" 
d="M105 588q-5 -7 -10 -8t-7 -1q-7 0 -12.5 5t-5.5 14q0 6 5 14q35 48 87 72t124 24q93 0 145.5 -51t52.5 -136q0 -48 -13 -81.5t-39 -60.5t-66.5 -50t-95.5 -50q-8 -4 -15 -4q-8 0 -13.5 5.5t-5.5 13.5q0 14 16 20q57 25 95 47t60 45t31 50.5t9 63.5q0 69 -42.5 110
t-118.5 41q-68 0 -108 -20.5t-73 -62.5zM274 8q0 -8 -5.5 -13.5t-13.5 -5.5t-13 5.5t-5 13.5v106q0 8 5 13.5t13 5.5t13.5 -5.5t5.5 -13.5v-106z" />
    <glyph glyph-name="at" unicode="@" horiz-adv-x="843" 
d="M501 117q8 0 13 -5t5 -13q0 -12 -15 -19q-19 -8 -38 -11.5t-42 -3.5q-35 0 -66 12t-54 34.5t-36 55t-13 72.5v66q0 36 12.5 67t35 54.5t53.5 36.5t68 13q36 0 66.5 -13t53 -36.5t35 -54.5t12.5 -67v-130q0 -28 19.5 -48t48.5 -20t48 20t19 47v181q0 69 -23.5 126
t-64.5 97.5t-96.5 63t-119.5 22.5q-61 0 -114 -21t-93.5 -59t-66 -91t-31.5 -116q-5 -52 -5 -112t5 -109q6 -71 34 -123.5t70 -87t93 -51.5t103 -17q61 0 119 25q9 4 18.5 0t9.5 -15q0 -12 -13 -18q-26 -13 -62 -20.5t-71 -7.5q-59 0 -116.5 19t-104.5 58t-79 99t-38 142
q-2 21 -2.5 49.5t-0.5 59t0.5 59t2.5 48.5q5 69 32 128.5t72 103.5t105.5 69t132.5 25t134 -25.5t108 -70.5t72.5 -107.5t26.5 -136.5v-183q0 -24 -8.5 -43.5t-23 -33.5t-33 -22t-39.5 -8t-40 8t-33.5 22t-23 33.5t-8.5 43.5v126q0 27 -9.5 51t-27 43t-41.5 30t-52 11
q-57 0 -94.5 -36t-37.5 -99v-66q0 -31 10 -56t28 -43t42 -27.5t52 -9.5q30 0 63 12q7 3 14 3z" />
    <glyph glyph-name="A" unicode="A" horiz-adv-x="663" 
d="M631 27q3 -10 -2 -18.5t-16 -8.5q-12 0 -17 13l-91 250h-348l-91 -250q-5 -12 -18 -12q-11 0 -15.5 8.5t-1.5 17.5l226 618q11 29 28.5 45.5t45.5 16.5q27 0 45 -16.5t29 -45.5zM171 300h320l-125 343q-10 28 -35 28q-15 0 -22.5 -7.5t-12.5 -20.5z" />
    <glyph glyph-name="B" unicode="B" horiz-adv-x="668" 
d="M601 192q0 -91 -53.5 -141.5t-150.5 -50.5h-242q-19 0 -28 10.5t-9 26.5v623q0 15 9 26t28 11h229q97 0 147 -46t50 -129q0 -33 -9 -59t-23 -46t-32 -34t-36 -21q21 -8 42.5 -21.5t38.5 -34t28 -49t11 -65.5zM155 37h238q87 0 128.5 41.5t41.5 112.5q0 34 -12 62
t-33 47.5t-49.5 30t-61.5 10.5h-252v-304zM392 378q71 0 111 39t40 104q0 70 -39.5 104.5t-111.5 34.5h-237v-282h237z" />
    <glyph glyph-name="C" unicode="C" horiz-adv-x="662" 
d="M355 28q36 0 69 10.5t60.5 30t48.5 46t33 58.5q2 6 6.5 10.5t12.5 4.5q7 0 12.5 -5t5.5 -13q0 -7 -5 -18q-15 -34 -39.5 -63.5t-56 -51t-69 -33.5t-79.5 -12q-57 0 -105.5 21t-84.5 57t-57.5 85.5t-25.5 106.5q-3 40 -3 81q0 45 3 95q4 55 25.5 104t57.5 85.5t84.5 57.5
t106.5 21q41 0 78.5 -12t69 -33.5t56 -51t39.5 -63.5q5 -11 5 -18q0 -8 -5.5 -13t-12.5 -5q-8 0 -12.5 4.5t-6.5 10.5q-12 32 -33 58.5t-48.5 46t-60.5 30t-69 10.5q-48 0 -89 -17.5t-72.5 -48.5t-51 -73.5t-23.5 -92.5q-7 -88 0 -176q4 -50 23 -93t49.5 -74.5t72 -49
t91.5 -17.5z" />
    <glyph glyph-name="D" unicode="D" horiz-adv-x="720" 
d="M602 290q2 26 2 60t-2 60q-3 56 -20.5 102t-50 79t-81 51t-113.5 18h-182v-623h182q66 0 114.5 18.5t81 51.5t49.5 79.5t20 103.5zM154 0q-18 0 -27 11t-9 26v623q0 16 9.5 26.5t26.5 10.5h186q72 0 126.5 -22.5t92 -62t57.5 -93.5t23 -118q1 -26 1 -55.5t-2 -54.5
q-3 -62 -23.5 -115.5t-58 -92.5t-92 -61t-124.5 -22h-186z" />
    <glyph glyph-name="E" unicode="E" horiz-adv-x="622" 
d="M522 697q19 0 19 -19q0 -8 -5.5 -13t-13.5 -5h-367v-290h359q8 0 13.5 -5t5.5 -13t-5.5 -13.5t-13.5 -5.5h-359v-296h369q8 0 13.5 -5.5t5.5 -13.5t-5.5 -13t-13.5 -5h-369q-19 0 -28 10.5t-9 26.5v623q0 15 9 26t28 11h367z" />
    <glyph glyph-name="F" unicode="F" horiz-adv-x="586" 
d="M118 661q0 14 9 25t27 11h371q19 0 19 -19q0 -8 -5.5 -13t-13.5 -5h-370v-300h351q19 0 19 -19q0 -8 -5.5 -13t-13.5 -5h-351v-308q0 -8 -5 -13.5t-13 -5.5t-13.5 5.5t-5.5 13.5v646z" />
    <glyph glyph-name="G" unicode="G" horiz-adv-x="702" 
d="M620 234q0 -45 -17.5 -88.5t-51 -77.5t-82 -55t-109.5 -21q-58 0 -107 21t-85.5 58t-59 87.5t-26.5 109.5q-6 81 0 163q4 58 26.5 108t58.5 87t84.5 58.5t104.5 21.5q87 0 150.5 -39t97.5 -115q3 -7 4 -11.5t1 -6.5q0 -8 -5.5 -13t-12.5 -5q-8 0 -12.5 4.5t-6.5 10.5
q-12 33 -34 59t-50.5 43.5t-62 27t-69.5 9.5q-47 0 -88 -18t-72.5 -49.5t-51.5 -73.5t-24 -91q-7 -88 0 -175q4 -50 23.5 -92.5t51 -74t73 -49.5t89.5 -18q47 0 88.5 14t72 40t48 63t17.5 82v89h-186q-8 0 -14 5.5t-6 13.5t6 13.5t14 5.5h184q20 0 29.5 -11t9.5 -28v-82z
" />
    <glyph glyph-name="H" unicode="H" horiz-adv-x="759" 
d="M118 683q0 8 5 13.5t13 5.5q19 0 19 -19v-314h449v314q0 8 5.5 13.5t13.5 5.5q18 0 18 -19v-668q0 -19 -18 -19q-8 0 -13.5 5.5t-5.5 13.5v317h-449v-316q0 -8 -5.5 -14t-13.5 -6q-18 0 -18 20v667z" />
    <glyph glyph-name="I" unicode="I" horiz-adv-x="273" 
d="M118 683q0 8 5 13.5t13 5.5q19 0 19 -19v-668q0 -19 -19 -19q-18 0 -18 19v668z" />
    <glyph glyph-name="J" unicode="J" horiz-adv-x="491" 
d="M48 82q-2 5 -4 8t-2 9q0 7 5 12.5t13 5.5q11 0 18 -11q20 -34 50 -55.5t73 -21.5q28 0 53 10t44.5 29t31 47.5t11.5 66.5v501q0 8 5 13.5t13 5.5q19 0 19 -19v-505q0 -42 -14 -76t-38 -58.5t-56 -38t-68 -13.5q-51 0 -92 26t-62 64z" />
    <glyph glyph-name="K" unicode="K" horiz-adv-x="617" 
d="M155 15q0 -19 -19 -19q-8 0 -13 5.5t-5 13.5v668q0 8 5 13.5t13 5.5q19 0 19 -19v-310h8q9 0 15.5 0.5t12.5 3t13 7.5t17 14l325 297q9 7 15 7q7 0 12 -6q12 -13 -3 -28l-343 -312l355 -327q6 -5 6 -13t-5 -14q-6 -6 -13 -6q-8 0 -13 5l-336 310q-18 17 -29 21t-29 4h-8
v-321z" />
    <glyph glyph-name="L" unicode="L" horiz-adv-x="548" 
d="M118 683q0 8 5 13.5t13 5.5q19 0 19 -19v-646h368q8 0 14 -5t6 -13t-6 -13.5t-14 -5.5h-368q-18 0 -27.5 10.5t-9.5 26.5v646z" />
    <glyph glyph-name="M" unicode="M" horiz-adv-x="907" 
d="M702 657q-2 9 -7 13t-10 4q-13 0 -17 -16l-161 -613q-5 -20 -17 -33t-35 -13q-24 0 -35.5 13.5t-16.5 32.5l-165 613q-4 16 -17 16q-7 0 -11 -5t-5 -12l-99 -647q-2 -8 -7 -11.5t-10 -3.5q-12 0 -16.5 7.5t-2.5 15.5l97 643q4 23 19 36.5t35 13.5q23 0 35.5 -14t17.5 -31
l167 -618q3 -12 14 -12t14 12l163 618q5 17 17.5 31t35.5 14q20 0 35 -13.5t19 -36.5l100 -643q2 -8 -3 -15.5t-15 -7.5q-16 0 -19 15z" />
    <glyph glyph-name="N" unicode="N" horiz-adv-x="770" 
d="M157 662h-2v-646q0 -19 -19 -19q-8 0 -13 5.5t-5 13.5v649q0 17 9 27.5t26 10.5q16 0 24 -8t13 -15l423 -643h2v646q0 8 5 13.5t13 5.5q19 0 19 -19v-647q0 -17 -9 -27.5t-26 -10.5q-16 0 -24 8t-13 15z" />
    <glyph glyph-name="O" unicode="O" horiz-adv-x="725" 
d="M362 -8q-58 0 -107 21t-86 58t-60 87.5t-27 109.5q-6 81 0 163q4 58 26.5 108t59.5 87t86.5 58.5t107.5 21.5t107.5 -21t86.5 -58t60 -87.5t27 -108.5q3 -40 3 -82t-3 -81q-4 -59 -27 -109.5t-60 -87.5t-86.5 -58t-107.5 -21zM362 29q49 0 91.5 17.5t74.5 48.5t52 73.5
t25 92.5q9 88 0 175q-5 50 -25 92.5t-52 74t-74.5 49t-91.5 17.5q-50 0 -92 -17.5t-73.5 -49t-51.5 -74t-25 -92.5q-9 -87 0 -175q5 -50 25 -92.5t51.5 -73.5t73.5 -48.5t92 -17.5z" />
    <glyph glyph-name="P" unicode="P" horiz-adv-x="640" 
d="M366 324q48 0 82 12.5t55 34.5t31 53t10 67q0 37 -10.5 68t-31.5 53.5t-53.5 35t-76.5 12.5h-217v-336h211zM155 287v-272q0 -8 -5.5 -13.5t-13.5 -5.5t-13 5.5t-5 13.5v645q0 15 9.5 26t27.5 11h215q47 0 86 -14t66.5 -40t43 -64.5t15.5 -86.5q0 -99 -59 -152t-160 -53
h-207z" />
    <glyph glyph-name="Q" unicode="Q" horiz-adv-x="726" 
d="M646 -93q0 -8 -5.5 -13.5t-13.5 -5.5q-10 0 -16 8l-108 133q-63 -37 -141 -37q-58 0 -107 21t-86 58t-60 87.5t-27 109.5q-6 81 0 163q4 58 26.5 108t59.5 87t86.5 58.5t107.5 21.5t107.5 -21t86.5 -58t60 -87.5t27 -108.5q3 -40 3 -82t-3 -81q-5 -68 -33.5 -123.5
t-74.5 -92.5l106 -131q5 -7 5 -14zM362 29q65 0 117 29l-119 148q-5 7 -4 15t7 13t14 4t13 -7l122 -151q39 32 63 78t30 103q9 88 0 175q-5 50 -25 92.5t-52 74t-74.5 49t-91.5 17.5q-50 0 -92 -17.5t-73.5 -49t-51.5 -74t-25 -92.5q-9 -87 0 -175q5 -50 25 -92.5
t51.5 -73.5t73.5 -48.5t92 -17.5z" />
    <glyph glyph-name="R" unicode="R" horiz-adv-x="678" 
d="M602 28q7 -9 3 -20t-16 -11q-11 0 -16 7l-209 264q-13 17 -23.5 24t-31.5 7h-154v-283q0 -8 -5.5 -13.5t-13.5 -5.5t-13 5.5t-5 13.5v644q0 15 9.5 26t27.5 11h214q100 0 157 -53t57 -150q0 -92 -52.5 -138t-143.5 -56zM358 336q51 0 86.5 11.5t58 32t33 49.5t10.5 65
q0 37 -11 67.5t-32 52.5t-53 34t-74 12h-221v-324h203z" />
    <glyph glyph-name="S" unicode="S" horiz-adv-x="606" 
d="M119 524q0 -39 17.5 -64t46 -42t66 -27t77.5 -19q46 -10 88 -22t74 -32t51 -50.5t19 -76.5q0 -91 -62.5 -145t-176.5 -54q-77 0 -132.5 18.5t-105.5 51.5q-11 7 -11 19q0 8 5 13.5t14 5.5q6 0 14 -5q40 -29 89 -47.5t123 -18.5q97 0 151.5 42t54.5 120q0 36 -15.5 60
t-43 40t-64.5 26t-80 19q-44 9 -86 22t-75.5 34t-54 53t-20.5 79q0 84 61 133t169 49q54 0 103 -15.5t81 -41.5q8 -6 8 -15t-5 -14t-13 -5q-2 0 -6.5 1t-11.5 6q-29 20 -70 33.5t-86 13.5q-53 0 -90 -12t-60 -32.5t-33 -46.5t-10 -54z" />
    <glyph glyph-name="T" unicode="T" horiz-adv-x="585" 
d="M275 660h-231q-8 0 -14 5.5t-6 13.5t6 13t14 5h497q8 0 14 -5t6 -13t-6 -13.5t-14 -5.5h-229v-644q0 -8 -5.5 -14t-13.5 -6q-18 0 -18 20v644z" />
    <glyph glyph-name="U" unicode="U" horiz-adv-x="748" 
d="M642 270q0 -62 -20 -113t-56 -88t-85 -57t-107 -20t-107 20t-84.5 57t-55.5 88t-20 113v413q0 8 5 13.5t13 5.5q19 0 19 -19v-405q0 -57 17.5 -103t48 -78.5t72.5 -50t92 -17.5q49 0 91.5 17.5t73.5 50t48.5 78.5t17.5 103v405q0 8 5 13.5t13 5.5q19 0 19 -19v-413z" />
    <glyph glyph-name="V" unicode="V" horiz-adv-x="648" 
d="M30 676q-3 9 1.5 17.5t15.5 8.5q13 0 18 -13l244 -649q4 -11 15 -11t15 11l244 648q2 8 7.5 10.5t10.5 2.5q11 0 16.5 -8.5t1.5 -19.5l-241 -635q-9 -23 -21.5 -34.5t-32.5 -11.5t-32.5 11.5t-21.5 34.5l-240 638v0z" />
    <glyph glyph-name="W" unicode="W" horiz-adv-x="906" 
d="M45 679q-2 9 3 16.5t15 7.5q14 0 18 -14l148 -653q2 -7 8 -7t8 7l179 627q5 17 15 27.5t28 10.5q17 0 27 -10.5t15 -27.5l174 -627q2 -7 8 -7t8 7l153 652q2 7 7 11t11 4q10 0 14.5 -6t4.5 -12q0 -2 -0.5 -3t-0.5 -3l-152 -652q-4 -17 -16.5 -26t-28.5 -9q-15 0 -27 9.5
t-17 26.5l-178 632q-1 3 -3.5 3t-3.5 -3l-180 -633q-5 -17 -17 -26t-28 -9q-15 0 -27 9.5t-17 26.5l-148 651v0z" />
    <glyph glyph-name="X" unicode="X" horiz-adv-x="631" 
d="M588 14q0 -8 -5 -12.5t-13 -4.5q-11 0 -15 7l-242 312l-240 -312q-4 -7 -15 -7q-8 0 -13 4.5t-5 12.5t5 14l245 320l-246 322q-7 9 -2.5 20t16.5 11q9 0 14 -7l242 -317l242 317q5 7 14 7q12 0 16.5 -11t-2.5 -20l-247 -323l246 -319q5 -6 5 -14z" />
    <glyph glyph-name="Y" unicode="Y" horiz-adv-x="636" 
d="M597 703q8 0 13.5 -5t5.5 -13q0 -6 -5 -13l-257 -318q-11 -14 -14 -23.5t-3 -21.5v-294q0 -8 -5.5 -13.5t-13.5 -5.5t-13 5.5t-5 13.5v294q0 12 -4 21.5t-15 23.5l-256 319q-4 5 -4 12t5.5 12t12.5 5q9 0 14 -6l265 -330l265 330q5 7 14 7z" />
    <glyph glyph-name="Z" unicode="Z" horiz-adv-x="579" 
d="M495 697q18 0 28.5 -9.5t10.5 -22.5q0 -14 -8 -25l-419 -603h407q8 0 14 -5t6 -13t-6 -13.5t-14 -5.5h-407q-18 0 -28.5 9.5t-10.5 22.5q0 14 8 25l419 603h-407q-8 0 -14 5t-6 13t6 13.5t14 5.5h407z" />
    <glyph glyph-name="bracketleft" unicode="[" horiz-adv-x="339" 
d="M327 -156q0 -8 -6 -13.5t-14 -5.5h-156q-19 0 -28.5 11.5t-9.5 25.5v895q0 14 9.5 25t27.5 11h157q8 0 14 -5t6 -13t-6 -13.5t-14 -5.5h-157v-894h157q9 0 14.5 -5t5.5 -13z" />
    <glyph glyph-name="backslash" unicode="\" horiz-adv-x="312" 
d="M5 731q17 7 25 -13l285 -724q2 -7 0 -14.5t-10 -10.5t-15 0.5t-9 10.5l-286 725q-3 8 -0.5 15.5t10.5 10.5z" />
    <glyph glyph-name="bracketright" unicode="]" horiz-adv-x="339" 
d="M13 -156q0 8 5.5 13t14.5 5h157v894h-157q-8 0 -14 5.5t-6 13.5t6 13t14 5h157q18 0 27.5 -11t9.5 -25v-895q0 -14 -9.5 -25.5t-28.5 -11.5h-156q-8 0 -14 5.5t-6 13.5z" />
    <glyph glyph-name="asciicircum" unicode="^" horiz-adv-x="676" 
d="M509 391q4 -9 -1.5 -17.5t-16.5 -8.5q-14 0 -18 12l-121 292q-2 4 -5 8t-9 4t-9 -4t-5 -8l-121 -292q-5 -12 -18 -12q-11 0 -16.5 8.5t-1.5 17.5l117 278q11 27 25.5 37.5t28.5 10.5t28.5 -10.5t25.5 -37.5l117 -278v0z" />
    <glyph glyph-name="underscore" unicode="_" horiz-adv-x="472" 
d="M472 -191h-472v37h472v-37z" />
    <glyph glyph-name="grave" unicode="`" horiz-adv-x="322" 
d="M87 825q-12 6 -12 18q0 8 5.5 13t12.5 5q6 0 12 -3l135 -69q12 -6 12 -18q0 -8 -5.5 -13t-12.5 -5q-6 0 -12 3z" />
    <glyph glyph-name="a" unicode="a" horiz-adv-x="566" 
d="M469 70q0 -7 -2 -12t-9 -10q-26 -19 -73 -38t-115 -19q-97 0 -147 44t-50 121q0 68 50.5 111t140.5 43q70 0 168 -27v65q0 72 -38.5 104.5t-111.5 32.5q-38 0 -74.5 -10t-63.5 -23q-11 -5 -20.5 0.5t-9.5 16.5q0 12 12 19q24 13 67 23.5t89 10.5q85 0 136 -40.5
t51 -132.5v-279zM270 28q60 0 101 16.5t61 33.5v167q-49 14 -87 21t-82 7q-69 0 -111 -31t-42 -86q0 -60 38.5 -94t121.5 -34z" />
    <glyph glyph-name="b" unicode="b" horiz-adv-x="602" 
d="M513 329q1 -14 1.5 -32.5t0.5 -38.5t-0.5 -38.5t-1.5 -31.5q-8 -94 -59 -145.5t-148 -51.5q-30 0 -60.5 7t-56 17t-44.5 19.5t-27 15.5q-8 5 -9 11t-1 11v612q0 9 5.5 15t13.5 6t13 -6t5 -15v-201q31 14 74 26.5t93 12.5q92 0 142.5 -49.5t58.5 -143.5zM474 181
q1 14 2 35t1 43t-1 42.5t-2 34.5q-5 70 -42.5 109.5t-118.5 39.5q-26 0 -51 -4t-47.5 -10.5t-40.5 -14t-29 -13.5v-365q10 -7 28.5 -16t40.5 -16.5t46 -12.5t46 -5q79 0 119.5 39t48.5 114z" />
    <glyph glyph-name="c" unicode="c" horiz-adv-x="556" 
d="M300 28q23 0 46 6t43 19.5t36 33.5t25 49q4 18 20 18q6 0 12 -5t6 -14q0 -14 -11 -38t-33.5 -47.5t-58.5 -41t-85 -17.5q-48 0 -86.5 15t-66 41.5t-43 62.5t-16.5 78q-2 30 -2 70.5t2 70.5q2 43 18 79t43.5 61.5t66 40t84.5 14.5q49 0 85 -17.5t58.5 -41t33.5 -48
t11 -37.5q0 -9 -6 -14t-12 -5q-16 0 -20 18q-9 28 -25 48.5t-36 34t-43 19.5t-46 6q-76 0 -122.5 -42.5t-51.5 -112.5q-1 -12 -1.5 -31.5t-0.5 -41t0.5 -42t1.5 -33.5q2 -33 14.5 -61.5t34.5 -49.5t53 -33t72 -12z" />
    <glyph glyph-name="d" unicode="d" horiz-adv-x="600" 
d="M88 329q8 94 58.5 143.5t142.5 49.5q50 0 93 -12.5t74 -26.5v201q0 9 5 15t13 6t13.5 -6t5.5 -15v-612q0 -5 -1 -11t-9 -11q-8 -6 -27 -15.5t-44.5 -19.5t-56 -17t-60.5 -7q-97 0 -148 51.5t-59 145.5q-1 13 -1.5 31.5t-0.5 38.5t0.5 38.5t1.5 32.5zM127 181
q8 -75 48.5 -114t119.5 -39q22 0 46 5t46 12.5t40.5 16t28.5 15.5v366q-11 6 -29 13.5t-40.5 14t-48 10.5t-50.5 4q-81 0 -118.5 -39.5t-42.5 -109.5q-1 -14 -2 -34.5t-1 -42.5t0.5 -43t2.5 -35z" />
    <glyph glyph-name="e" unicode="e" horiz-adv-x="574" 
d="M500 289q0 -22 -12.5 -35.5t-39.5 -13.5h-325v-27q0 -88 49 -136.5t129 -48.5q27 0 61 6t77 24q4 2 10 2q8 0 13 -5.5t5 -12.5q0 -5 -3 -10t-9 -8q-12 -6 -30 -12t-39 -10.5t-42.5 -7.5t-40.5 -3q-105 0 -159 59.5t-58 158.5q-1 27 -0.5 57.5t2.5 53.5q3 48 19.5 85.5
t44 63.5t65 39.5t81.5 13.5q46 0 83.5 -16t64 -43.5t40.5 -65.5t14 -81v-27zM447 277q15 0 16 16q2 45 -9 81t-32.5 60.5t-53 37.5t-70.5 13q-90 0 -133.5 -54t-41.5 -154h324z" />
    <glyph glyph-name="f" unicode="f" horiz-adv-x="355" 
d="M116 559q0 33 8 61t25 48t43 31t63 11q25 0 45 -3t32 -7q17 -5 17 -19q0 -5 -4.5 -11t-14.5 -6t-27 4.5t-48 4.5q-57 0 -79.5 -30.5t-22.5 -83.5v-55h160q8 0 14 -5.5t6 -13.5t-6 -13t-14 -5h-160v-451q0 -8 -5.5 -14t-13.5 -6t-13 6t-5 14v451h-45q-8 0 -14 5t-6 13
t6 13.5t14 5.5h45v55z" />
    <glyph glyph-name="g" unicode="g" horiz-adv-x="600" 
d="M492 42q0 -47 -13 -87.5t-38.5 -70t-63 -46.5t-86.5 -17q-59 0 -100.5 16t-63.5 30q-18 12 -18 23q0 19 19 19q5 0 11 -3t11 -7q28 -20 65 -31t75 -11q37 0 67 13t52 36.5t34 56.5t12 74v8q-32 -17 -73 -30t-91 -13q-94 0 -146.5 53t-58.5 146q-1 11 -1.5 27.5t-0.5 34.5
t0.5 34.5t1.5 27.5q6 96 59.5 146.5t148.5 50.5q28 0 55 -4t51 -11t43.5 -15t32.5 -17q9 -6 12.5 -12t3.5 -17v-404zM292 485q-43 0 -73 -11t-50 -31t-31 -48t-14 -62q-2 -14 -2.5 -32.5t-0.5 -37.5t1 -37t2 -32q3 -33 13 -61.5t30 -49.5t51 -32.5t75 -11.5q62 0 103 18
t59 33v354q-21 14 -65.5 27.5t-97.5 13.5z" />
    <glyph glyph-name="h" unicode="h" horiz-adv-x="618" 
d="M145 437q16 18 37 33.5t45 27.5t50 18.5t52 6.5q40 0 75 -12t60 -36.5t39.5 -60.5t14.5 -84v-314q0 -9 -5 -14.5t-13 -5.5t-13.5 5.5t-5.5 14.5v312q0 72 -38 115t-112 43q-28 0 -55 -8t-51 -21.5t-44.5 -31.5t-35.5 -39v-371q0 -19 -18 -19q-19 0 -19 19v670q0 8 5.5 14
t13.5 6t13 -6t5 -14v-248z" />
    <glyph glyph-name="i" unicode="i" horiz-adv-x="261" 
d="M163 664q0 -14 -9 -23.5t-23 -9.5t-23.5 9.5t-9.5 23.5t9.5 23.5t23.5 9.5t23 -9.5t9 -23.5zM130 515q8 0 13.5 -6t5.5 -14v-479q0 -8 -5.5 -14t-13.5 -6t-13 6t-5 14v479q0 8 5 14t13 6z" />
    <glyph glyph-name="j" unicode="j" horiz-adv-x="251" 
d="M36 -192q-8 0 -13 5t-5 13q0 9 6 15q22 24 37 46t24 46t13 52t4 63v447q0 8 5 14t13 6t13.5 -5.5t5.5 -13.5v-440q0 -45 -5.5 -79t-17 -61.5t-27.5 -51.5t-37 -48q-7 -8 -16 -8zM153 664q0 -14 -9 -23.5t-23 -9.5t-23.5 9.5t-9.5 23.5t9.5 23.5t23.5 9.5t23 -9.5t9 -23.5
z" />
    <glyph glyph-name="k" unicode="k" horiz-adv-x="512" 
d="M481 16q0 -8 -5.5 -13.5t-13.5 -5.5t-14 6l-218 218q-15 15 -26.5 21t-34.5 6h-24v-233q0 -19 -18 -19q-8 0 -13.5 5t-5.5 13v672q0 8 5 13.5t13 5.5q19 0 19 -19v-401h25q23 0 34 5.5t26 20.5l209 201q7 7 15 7q7 0 12.5 -5t5.5 -13q0 -9 -8 -17l-226 -218l236 -235
q7 -7 7 -15z" />
    <glyph glyph-name="l" unicode="l" horiz-adv-x="253" 
d="M126 705q9 0 14 -6t5 -14v-669q0 -8 -4.5 -14t-13.5 -6q-8 0 -13.5 6t-5.5 14v669q0 8 5 14t13 6z" />
    <glyph glyph-name="m" unicode="m" horiz-adv-x="888" 
d="M788 16q0 -8 -5.5 -14t-13.5 -6t-13 6t-5 14v318q0 81 -36.5 116.5t-103.5 35.5q-28 0 -52 -7t-44 -18t-35 -23.5t-24 -22.5q6 -20 8.5 -40.5t2.5 -43.5v-315q0 -8 -5 -14t-13 -6t-13.5 6t-5.5 14v319q0 79 -38.5 115t-102.5 36q-53 0 -88 -13.5t-55 -29.5v-427
q0 -8 -5 -14t-14 -6q-8 0 -13 6t-5 14v429q0 10 3.5 15.5t13.5 13.5q29 22 71 35.5t92 13.5q60 0 96 -20t56 -52q13 12 29.5 25t37.5 23.5t47 17t56 6.5q89 0 133 -47.5t44 -141.5v-318z" />
    <glyph glyph-name="n" unicode="n" 
d="M519 16q0 -8 -4.5 -14t-13.5 -6q-8 0 -13.5 6t-5.5 14v313q0 42 -12 71.5t-34 48.5t-52 27.5t-67 8.5q-51 0 -97.5 -14t-72.5 -31v-424q0 -8 -5 -14t-14 -6q-8 0 -13 6t-5 14v427q0 11 3 17t14 12q10 6 28 15t42.5 16.5t54.5 13t66 5.5q92 0 146.5 -47.5t54.5 -144.5
v-314z" />
    <glyph glyph-name="o" unicode="o" horiz-adv-x="591" 
d="M296 522q44 0 81 -14t65 -39.5t44 -61t18 -78.5q2 -30 2 -70t-2 -70q-2 -43 -18 -79t-44 -62.5t-65 -41.5t-81 -15t-82 15t-65.5 41.5t-44 62.5t-17.5 79q-2 30 -2 70t2 70q1 43 17.5 78.5t44 61t65.5 39.5t82 14zM296 485q-38 0 -68.5 -11t-52.5 -31.5t-34.5 -48
t-14.5 -60.5q-1 -15 -1.5 -34.5t-0.5 -40.5t0.5 -41t1.5 -35q6 -70 51.5 -112.5t118.5 -42.5q72 0 117.5 42.5t51.5 112.5q1 15 2 35t1 40.5t-1 40.5t-2 35q-2 33 -14.5 60.5t-34.5 48t-52.5 31.5t-67.5 11z" />
    <glyph glyph-name="p" unicode="p" horiz-adv-x="603" 
d="M513 184q-8 -94 -58.5 -143.5t-142.5 -49.5q-50 0 -93 12.5t-74 26.5v-201q0 -9 -5 -15t-13 -6t-13.5 6t-5.5 15v612q0 5 1 11t9 11q8 6 27 15.5t44.5 19.5t56 17t60.5 7q97 0 148 -51.5t59 -145.5q1 -13 1.5 -31.5t0.5 -38.5t-0.5 -39t-1.5 -32zM474 332
q-8 75 -48.5 114t-119.5 39q-22 0 -46 -5t-46 -12.5t-40 -16t-28 -15.5v-366q11 -6 29 -13.5t40 -14t47 -10.5t51 -4q81 0 118.5 39.5t42.5 109.5q1 13 2 34t1 43t-1 43t-2 35z" />
    <glyph glyph-name="q" unicode="q" horiz-adv-x="600" 
d="M89 184q-1 13 -1.5 32t-0.5 39t0.5 38.5t1.5 31.5q8 94 59 145.5t148 51.5q30 0 60.5 -7t56 -17t44.5 -19.5t27 -15.5q8 -5 9 -11t1 -11v-612q0 -9 -5.5 -15t-13.5 -6t-13 6t-5 15v201q-31 -14 -74 -26.5t-93 -12.5q-92 0 -142.5 49.5t-58.5 143.5zM128 332
q-2 -14 -2.5 -35t-0.5 -43t1 -43t2 -34q5 -70 42.5 -109.5t118.5 -39.5q25 0 50.5 4t48 10.5t40.5 14t29 13.5v366q-10 7 -28.5 15.5t-40.5 16t-46 12.5t-46 5q-79 0 -119.5 -39t-48.5 -114z" />
    <glyph glyph-name="r" unicode="r" horiz-adv-x="359" 
d="M335 513q17 -5 17 -19q0 -5 -4.5 -11t-12.5 -6q-11 0 -31 4t-49 4q-60 -1 -87 -27.5t-27 -84.5v-358q0 -19 -19 -19q-8 0 -13 5.5t-5 13.5v359q0 72 39 110t112 38q26 0 47 -3t33 -6z" />
    <glyph glyph-name="s" unicode="s" horiz-adv-x="475" 
d="M65 64q0 8 5 13.5t13 5.5q7 0 15 -6q29 -24 68.5 -36.5t83.5 -12.5q62 0 98.5 32t36.5 79q0 37 -23 56t-57 31t-74 20.5t-74 22.5t-57 39t-23 70q0 66 46.5 105t124.5 39q40 0 74.5 -12.5t57.5 -28.5q18 -13 4 -30q-5 -6 -13 -5.5t-15 5.5q-50 34 -108 34q-64 0 -99 -27
t-35 -80q0 -35 23 -53.5t57 -29.5t74 -19t74 -23t57 -41t23 -73q0 -33 -12 -60t-34 -46.5t-54 -30.5t-71 -11q-106 0 -178 57q-8 5 -8 16z" />
    <glyph glyph-name="t" unicode="t" horiz-adv-x="393" 
d="M333 14q-21 -10 -45.5 -16t-53.5 -6q-35 0 -60 11t-41 29.5t-23.5 44.5t-7.5 56v463q0 8 5.5 13.5t13.5 5.5q18 0 18 -19v-92h173q8 0 14 -5t6 -13q0 -9 -6 -14t-14 -5h-173v-338q0 -42 22 -71t73 -29q20 0 43 6t43 14q10 5 19.5 0.5t9.5 -15.5q0 -13 -16 -20z" />
    <glyph glyph-name="u" unicode="u" 
d="M100 496q0 8 6 13.5t13 5.5q8 0 13 -5.5t5 -13.5v-313q0 -36 12.5 -65t34 -49t52 -30.5t66.5 -10.5q60 0 101 16.5t70 36.5v414q0 8 5 14t13 6t13.5 -6t5.5 -14v-419q0 -16 -13 -24q-11 -7 -28.5 -17.5t-41.5 -20t-54.5 -16.5t-68.5 -7q-43 0 -80.5 12.5t-65 37t-43 60.5
t-15.5 82v313z" />
    <glyph glyph-name="v" unicode="v" horiz-adv-x="494" 
d="M249 -6q-31 0 -44 36l-176 459q-2 6 -2 9q0 8 5.5 13t12.5 5q14 0 19 -14l179 -466q2 -5 6 -4.5t6 4.5l179 466q5 14 19 14q7 0 12.5 -5t5.5 -13q0 -3 -2 -9l-176 -459q-14 -36 -44 -36z" />
    <glyph glyph-name="w" unicode="w" horiz-adv-x="815" 
d="M583 28q2 -5 5 -5t5 5l142 476q2 8 7.5 11t10.5 3q9 0 15 -7.5t3 -18.5l-140 -471q-5 -18 -17.5 -27t-26.5 -9q-31 0 -41 36l-133 455q-2 4 -5 4t-5 -4l-133 -455q-11 -36 -41 -36q-14 0 -26.5 9t-17.5 27l-140 471q-3 11 3 18.5t15 7.5q5 0 10.5 -3t7.5 -11l142 -476
q2 -5 5 -5t5 5l133 453q10 37 43 37q31 0 41 -37z" />
    <glyph glyph-name="x" unicode="x" horiz-adv-x="533" 
d="M473 15q0 -8 -5 -12.5t-13 -4.5q-11 0 -15 7l-173 227l-173 -228q-4 -7 -15 -7q-8 0 -13 4.5t-5 12.5t5 14l178 235l-166 220q-8 10 -2.5 20.5t16.5 10.5q9 0 14 -7l161 -214l160 214q5 7 14 7q11 0 17 -10t-2 -20l-166 -221l178 -234q5 -6 5 -14z" />
    <glyph glyph-name="y" unicode="y" horiz-adv-x="492" 
d="M32 486q-4 11 1 19t15 8q8 0 12.5 -4t6.5 -9l183 -412q3 -6 6 -6q2 0 5 6l167 411q3 6 6.5 10t11.5 4q9 0 14 -8t2 -16l-190 -474q-13 -33 -30 -63t-36 -55.5t-39 -45t-39 -29.5q-8 -4 -12 -5t-9 -1t-11.5 4t-6.5 14q0 11 12 17q38 19 73.5 62t62.5 116z" />
    <glyph glyph-name="z" unicode="z" horiz-adv-x="514" 
d="M418 504q18 0 28.5 -9.5t10.5 -22.5q0 -16 -8 -25l-339 -410h319q8 0 14 -5t6 -13t-6 -13.5t-14 -5.5h-319q-18 0 -28.5 9.5t-10.5 22.5q0 14 8 25l339 410h-309q-8 0 -14 5t-6 13t6 13.5t14 5.5h309z" />
    <glyph glyph-name="braceleft" unicode="{" horiz-adv-x="336" 
d="M110 167q0 46 -15 72.5t-41 46.5q-6 5 -11.5 11.5t-5.5 17.5q0 10 5.5 16.5t11.5 11.5q26 20 41 46t15 75v260q0 28 19.5 48t47.5 20h126q8 0 14 -5t6 -13t-6 -13.5t-14 -5.5h-125q-13 0 -22 -9t-9 -22v-260q0 -32 -6.5 -57t-17 -43t-22.5 -30t-22 -19q10 -8 22 -20
t22.5 -30t17 -42.5t6.5 -56.5v-272q0 -13 9 -22t22 -9h125q8 0 14 -5.5t6 -13.5t-6 -13t-14 -5h-126q-28 0 -47.5 20t-19.5 48v273z" />
    <glyph glyph-name="bar" unicode="|" horiz-adv-x="307" 
d="M150 835q9 0 14 -6t5 -14v-935q0 -8 -5.5 -14t-13.5 -6t-13 6t-5 14v935q0 8 5 14t13 6z" />
    <glyph glyph-name="braceright" unicode="}" horiz-adv-x="336" 
d="M225 -106q0 -28 -19.5 -48t-47.5 -20h-126q-8 0 -14 5t-6 13t6 13.5t14 5.5h125q13 0 22 9t9 22v272q0 32 6.5 56.5t17 42.5t22 30t22.5 20q-11 7 -22.5 19t-22 30t-17 43t-6.5 57v260q0 13 -9 22t-22 9h-125q-8 0 -14 5.5t-6 13.5t6 13t14 5h126q28 0 47.5 -20t19.5 -48
v-260q0 -49 15 -75t41 -46q6 -5 11.5 -11.5t5.5 -16.5q0 -11 -5.5 -17.5t-11.5 -11.5q-26 -20 -41 -46.5t-15 -72.5v-273z" />
    <glyph glyph-name="asciitilde" unicode="~" horiz-adv-x="615" 
d="M494 366q7 4 13 4q8 0 13 -6t5 -12q0 -13 -15 -20q-38 -17 -62.5 -24.5t-42.5 -7.5q-29 0 -52.5 8.5t-46.5 18t-46.5 18t-51.5 8.5q-21 0 -40 -6t-45 -20q-8 -4 -15 -4q-9 0 -13.5 5.5t-4.5 10.5q0 9 5 14t12 8q33 15 57 22.5t46 7.5q28 0 52 -8.5t47 -18t46.5 -18
t51.5 -8.5q20 0 40 7t47 21z" />
    <glyph glyph-name="exclamdown" unicode="&#xa1;" horiz-adv-x="195" 
d="M78 22.041q0 -7.99902 5.5 -13.999q5.5 -5.99902 14.5 -5.99902q19 0 19 19.998l-4 433.974q0 17.999 -15 17.999q-7 0 -11.5 -5q-4.5 -4.99902 -4.5 -12.999zM116 690.001q0 7.99902 -5.5 13.499q-5.5 5.49902 -13.5 5.49902t-13 -5.49902q-5 -5.5 -5 -13.499v-105.994
q0 -7.99902 5 -13.499t13 -5.5t13.5 5.5t5.5 13.499v105.994z" />
    <glyph glyph-name="cent" unicode="&#xa2;" horiz-adv-x="524" 
d="M159 296q5 -63 42.5 -102t104.5 -39q44 0 78.5 23t48.5 58q2 8 7 13t13 5t13 -5t5 -13q0 -7 -3 -14q-8 -20 -22.5 -38t-33.5 -32t-41.5 -23t-46.5 -12v-106q0 -8 -5.5 -14t-13.5 -6t-13.5 5.5t-5.5 14.5v106q-72 8 -116 56t-51 124q-2 14 -2 28.5v29.5q0 12 0.5 24.5
t1.5 24.5q7 75 51 123t116 56v106q0 9 5.5 14.5t13.5 5.5t13.5 -6t5.5 -14v-106q48 -5 87.5 -35t56.5 -70q3 -8 3 -14q0 -8 -5 -13t-13 -5t-13 5t-7 13q-14 35 -48.5 58t-78.5 23q-67 0 -104.5 -39.5t-42.5 -102.5q-2 -29 -2 -54t2 -53z" />
    <glyph glyph-name="sterling" unicode="&#xa3;" horiz-adv-x="545" 
d="M33 307q-8 0 -14 5.5t-6 13.5t6 13t14 5h68q-9 45 -19.5 88.5t-10.5 81.5q0 40 13.5 75.5t39.5 62t64 42t87 15.5q35 0 64 -7t51.5 -18.5t40 -25.5t30.5 -27q4 -4 7.5 -9t3.5 -10q0 -19 -19 -19q-5 0 -9 2.5t-7 5.5q-36 36 -72 53.5t-90 17.5q-46 0 -78 -14.5t-51.5 -37
t-28 -50.5t-8.5 -54q0 -40 10 -81t20 -91h177q8 0 14 -5.5t6 -12.5q0 -9 -6 -14t-14 -5h-170q2 -9 2 -18v-18q0 -57 -19 -117t-51 -117h397q8 0 14 -5t6 -14q0 -8 -5.5 -13t-14.5 -5h-408q-14 0 -22 8.5t-8 19.5q0 14 8 27q13 21 25 47.5t21 54.5t14.5 56.5t5.5 55.5
q0 20 -3 38h-75z" />
    <glyph glyph-name="currency" unicode="&#xa4;" horiz-adv-x="624" 
d="M552 610q7 0 12.5 -6t5.5 -13q0 -8 -6 -14l-99 -101q11 -20 18.5 -45t8.5 -50q1 -31 0 -61q-1 -25 -8.5 -49t-18.5 -44l99 -101q6 -6 6 -14q0 -7 -5.5 -13t-12.5 -6q-8 0 -15 7l-96 98q-25 -24 -55 -39.5t-74 -15.5t-74 15.5t-55 39.5l-96 -98q-7 -7 -15 -7q-7 0 -12.5 6
t-5.5 13q0 8 6 14l99 101q-11 20 -18.5 44t-8.5 49q-1 30 0 61q1 25 8.5 50t18.5 45l-99 101q-6 6 -6 14q0 7 5.5 13t12.5 6q8 0 15 -7l96 -98q25 24 55 39.5t74 15.5t74 -15.5t55 -39.5l96 98q7 7 15 7zM455 315q1 17 1.5 36.5t-1.5 36.5q-2 29 -14 53.5t-31 42.5t-44 28.5
t-54 10.5t-54 -10.5t-44 -28.5t-31 -42.5t-14 -53.5q-2 -17 -1.5 -36.5t1.5 -36.5q2 -29 14 -53.5t31 -42.5t44 -28.5t54 -10.5t54 10.5t44 28.5t31 42.5t14 53.5z" />
    <glyph glyph-name="yen" unicode="&#xa5;" horiz-adv-x="636" 
d="M597 703q8 0 13.5 -5t5.5 -13q0 -6 -5 -13l-257 -318q-11 -14 -14 -23.5t-3 -21.5v-21h156q8 0 13.5 -5.5t5.5 -13.5q0 -7 -5 -12.5t-15 -5.5h-155v-236q0 -8 -5.5 -13.5t-13.5 -5.5t-13 5.5t-5 13.5v236h-154q-10 0 -15 5.5t-5 12.5q0 8 5.5 13.5t13.5 5.5h155v21
q0 12 -4 21.5t-15 23.5l-256 319q-4 5 -4 12t5.5 12t12.5 5q9 0 14 -6l265 -330l265 330q5 7 14 7z" />
    <glyph glyph-name="brokenbar" unicode="&#xa6;" horiz-adv-x="307" 
d="M149 311q9 0 14 -6t5 -14v-411q0 -8 -5.5 -14t-13.5 -6t-13 6t-5 14v411q0 8 5 14t13 6zM149 835q9 0 14 -6t5 -14v-411q0 -8 -5.5 -14t-13.5 -6t-13 6t-5 14v411q0 8 5 14t13 6z" />
    <glyph glyph-name="section" unicode="&#xa7;" horiz-adv-x="589" 
d="M484 259q0 -20 -10 -43.5t-25 -40.5q23 -21 32 -46t9 -62t-14.5 -68.5t-40 -54t-61 -35t-78.5 -12.5q-32 0 -61.5 5t-55 13.5t-45.5 18.5t-32 20q-7 7 -7 15q0 7 5 12t13 5q5 0 11 -3.5t11 -6.5q36 -23 80 -32.5t79 -9.5q43 0 73 12t49 31t28 42.5t9 46.5q0 36 -11.5 58
t-33.5 36t-54 23.5t-72 19.5q-48 12 -80 25.5t-51.5 30t-28 37t-8.5 46.5q0 21 10 44t26 40q-41 40 -41 111q0 37 14.5 68.5t40 54.5t61 35.5t78.5 12.5q64 0 110.5 -19t70.5 -38q3 -3 5 -6.5t2 -9.5q0 -7 -5.5 -12t-13.5 -5q-6 0 -10.5 3.5t-9.5 5.5q-72 44 -146 44
q-42 0 -72.5 -12t-49.5 -31t-28 -42.5t-9 -45.5q0 -36 11.5 -59t33 -38.5t53 -25.5t71.5 -20q48 -12 80 -25t51.5 -29t28 -36.5t8.5 -47.5zM417 198q11 10 19.5 28t8.5 36q0 16 -6 30t-22 26t-43.5 23t-69.5 21q-36 8 -68.5 19t-56.5 22q-11 -10 -19.5 -28t-8.5 -36
q0 -16 6 -30t22 -26t43.5 -23t69.5 -21q36 -8 68.5 -19t56.5 -22z" />
    <glyph glyph-name="dieresis" unicode="&#xa8;" horiz-adv-x="322" 
d="M90 823q13 0 21.5 -8.5t8.5 -20.5q0 -13 -8.5 -21.5t-21.5 -8.5q-12 0 -20.5 8.5t-8.5 21.5q0 12 8.5 20.5t20.5 8.5zM232 823q12 0 20.5 -8.5t8.5 -20.5q0 -13 -8.5 -21.5t-20.5 -8.5q-13 0 -21.5 8.5t-8.5 21.5q0 12 8.5 20.5t21.5 8.5z" />
    <glyph glyph-name="copyright" unicode="&#xa9;" horiz-adv-x="822" 
d="M281 310q5 -57 39.5 -93.5t89.5 -36.5q46 0 75.5 22.5t43.5 54.5q2 5 6.5 9t11.5 4q8 0 13 -5t5 -14q0 -3 -1.5 -8t-3.5 -9q-19 -43 -61 -67t-89 -24q-36 0 -65 13t-51 35t-34.5 52t-15.5 65q-2 23 -2 44t2 45q3 34 15.5 64.5t34.5 52.5t51 35t65 13q47 0 89 -24t61 -67
q2 -4 3.5 -9t1.5 -8q0 -9 -5 -14t-13 -5q-7 0 -11.5 4t-6.5 9q-14 32 -43.5 54.5t-75.5 22.5q-55 0 -89.5 -36.5t-39.5 -93.5q-2 -24 -2 -42.5t2 -42.5zM410 -8q-58 0 -110 21t-92 58t-65 87.5t-29 109.5q-6 81 0 163q4 58 29 108t65 87t92 58.5t110 21.5t110 -21t92 -58
t65.5 -87.5t29.5 -108.5q3 -40 3 -82t-3 -81q-4 -59 -29.5 -109.5t-65.5 -87.5t-92 -58t-110 -21zM410 29q49 0 94 17.5t80 48.5t57.5 73.5t27.5 92.5q9 88 0 175q-5 50 -27.5 92.5t-57.5 74t-80 49t-94 17.5q-50 0 -94.5 -17.5t-79 -49t-57 -74t-27.5 -92.5q-9 -87 0 -175
q5 -50 27.5 -92.5t57 -73.5t79 -48.5t94.5 -17.5z" />
    <glyph glyph-name="ordfeminine" unicode="&#xaa;" horiz-adv-x="480" 
d="M426 296q0 -8 -6 -13.5t-14 -5.5q-11 0 -17 9q-6 8 -14 25t-12 28q-28 -26 -66.5 -45t-81.5 -19q-39 0 -68.5 11.5t-50 32.5t-31 49.5t-12.5 62.5q-2 25 -2 58.5t2 58.5q4 72 47 114.5t119 42.5q29 0 54.5 -5.5t46 -13t36 -16t23.5 -14.5q3 -4 4.5 -6.5t1.5 -9.5v-194
q0 -54 10.5 -84.5t25.5 -51.5q5 -8 5 -14zM218 312q38 0 74.5 20t60.5 49q-5 30 -5 67v74v108q-15 13 -51.5 25.5t-78.5 12.5q-65 0 -94.5 -35t-33.5 -91q-1 -10 -1.5 -24t-0.5 -28.5t0.5 -29t1.5 -24.5q2 -28 9.5 -50.5t22.5 -39t38.5 -25.5t57.5 -9z" />
    <glyph glyph-name="guillemotleft" unicode="&#xab;" horiz-adv-x="516" 
d="M93 346q0 -6 4 -10.5t14 -13.5l126 -113q6 -5 7.5 -12.5t-3.5 -14.5q-12 -14 -27 -2l-130 116q-11 9 -20 21t-9 29t9 29t20 21l130 116q15 12 27 -2q5 -7 3.5 -14.5t-7.5 -12.5l-126 -113q-10 -9 -14 -13.5t-4 -10.5zM388 517q7 0 12.5 -5t5.5 -13q0 -10 -8 -16
l-126 -113q-10 -9 -14 -13.5t-4 -10.5t4 -10.5t14 -13.5l126 -113q8 -6 8 -16q0 -8 -5.5 -13t-12.5 -5q-6 0 -13 5l-130 116q-11 9 -20 21t-9 29t9 29t20 21l130 116q7 5 13 5z" />
    <glyph glyph-name="logicalnot" unicode="&#xac;" horiz-adv-x="628" 
d="M568 117q0 -21 -18 -21q-8 0 -13.5 6t-5.5 15v217h-450q-9 0 -15 5t-6 13q0 9 6 14t15 5h455q15 0 23.5 -9t8.5 -22v-223z" />
    <glyph glyph-name="registered" unicode="&#xae;" horiz-adv-x="611" 
d="M314 460q31 0 45.5 14.5t14.5 37.5t-14.5 37t-43.5 14h-76v-103h74zM302 234q74 0 124 44t57 131q1 9 1 21.5v25.5v25.5t-1 21.5q-7 87 -57 131t-124 44t-124 -44t-57 -131q-1 -9 -1.5 -21.5t-0.5 -25.5t0.5 -25.5t1.5 -21.5q7 -87 57 -131t124 -44zM308 421
q-5 5 -8.5 7.5t-11.5 2.5h-48v-96q0 -6 -4 -10.5t-11 -4.5q-6 0 -10.5 4.5t-4.5 10.5v231q0 11 7 19.5t21 8.5h79q35 0 61.5 -20.5t26.5 -60.5t-20.5 -56.5t-49.5 -23.5l77 -88q2 -2 3.5 -5t1.5 -7q0 -6 -4.5 -10t-9.5 -4q-6 0 -9.5 3t-5.5 5zM302 709q87 0 145.5 -53
t67.5 -154q1 -9 1 -21v-25v-24.5t-1 -20.5q-9 -102 -67.5 -155t-145.5 -53t-145.5 53t-67.5 155q-1 9 -1.5 20.5t-0.5 24.5t0.5 25t1.5 21q9 101 67.5 154t145.5 53z" />
    <glyph glyph-name="macron" unicode="&#xaf;" horiz-adv-x="322" 
d="M249 809q8 0 13 -5t5 -13t-5 -13t-13 -5h-170q-8 0 -13.5 5t-5.5 13t5.5 13t13.5 5h170z" />
    <glyph glyph-name="degree" unicode="&#xb0;" horiz-adv-x="386" 
d="M80 587q0 23 9 44t24.5 36.5t36 24.5t43.5 9t43.5 -9t36 -24.5t24.5 -36.5t9 -44t-9 -43.5t-24.5 -35.5t-36 -24t-43.5 -9t-43.5 9t-36 24t-24.5 35.5t-9 43.5zM114 587q0 -32 23.5 -55.5t55.5 -23.5q33 0 56 23.5t23 55.5q0 33 -23 56.5t-56 23.5q-32 0 -55.5 -23.5
t-23.5 -56.5z" />
    <glyph glyph-name="plusminus" unicode="&#xb1;" horiz-adv-x="628" 
d="M81 0q-9 0 -15 5t-6 13q0 9 6 14t15 5h465q9 0 15.5 -5t6.5 -14q0 -8 -7 -13t-15 -5h-465zM297 332h-216q-9 0 -15 5t-6 13q0 9 6 14t15 5h216v215q0 9 5 15t13 6q9 0 14 -6t5 -15v-215h212q9 0 15.5 -5t6.5 -14q0 -8 -7 -13t-15 -5h-212v-216q0 -9 -5 -15t-14 -6
q-18 0 -18 21v216z" />
    <glyph glyph-name="twosuperior" unicode="&#xb2;" horiz-adv-x="468" 
d="M85 282q0 26 6.5 47t20.5 39.5t35 36t50 36.5q27 17 51.5 31t43 29t30 33.5t11.5 45.5q0 19 -6.5 35.5t-19.5 29t-33.5 20t-48.5 7.5q-42 0 -65 -16t-38 -36q-9 -12 -19 -12q-5 0 -10.5 3.5t-5.5 12.5q0 6 5 15q16 25 48.5 47t83.5 22q72 0 108.5 -37t36.5 -91
q0 -24 -7.5 -44t-24 -38.5t-44 -37.5t-67.5 -42q-32 -18 -52.5 -35.5t-32 -34t-16 -33t-4.5 -33.5h236q9 0 15 -5t6 -13t-6 -13t-15 -5h-241q-14 0 -22.5 8.5t-8.5 22.5v5z" />
    <glyph glyph-name="threesuperior" unicode="&#xb3;" horiz-adv-x="439" 
d="M130 235h-18t-18 1.5t-13.5 5.5t-5.5 12q0 19 19 19q12 0 19 -1t14 -1q46 0 84 8.5t65.5 25.5t42.5 41t15 56q0 42 -26 65.5t-68 23.5q-23 0 -30 -1.5t-18 -1.5q-10 0 -17 6t-7 17q0 8 3.5 13t7.5 10l125 123h-210q-9 0 -15 4.5t-6 13.5t6 14t15 5h213q21 0 30 -8.5
t9 -21.5q0 -16 -15 -31l-115 -110q7 1 13.5 1.5t12.5 0.5q29 0 53 -9.5t40.5 -26t25.5 -39t9 -47.5q0 -78 -64 -123t-176 -45z" />
    <glyph glyph-name="acute" unicode="&#xb4;" horiz-adv-x="322" 
d="M105 756q-6 -3 -12 -3q-7 0 -12.5 5t-5.5 13q0 12 12 18l135 69q6 3 12 3q7 0 12.5 -5t5.5 -13q0 -12 -12 -18z" />
    <glyph glyph-name="mu" unicode="&#xb5;" horiz-adv-x="624" 
d="M100 496q0 8 6 13.5t13 5.5q8 0 13 -5.5t5 -13.5v-313q0 -36 12.5 -65t34 -49t52 -30.5t66.5 -10.5q60 0 101 16.5t70 36.5v414q0 8 5 14t13 6t13.5 -6t5.5 -14v-419q0 -16 -13 -24q-11 -7 -28.5 -17.5t-41.5 -20t-54.5 -16.5t-68.5 -7q-54 0 -97 19t-70 56v-237
q0 -9 -5 -15t-13 -6t-13.5 6t-5.5 15v667z" />
    <glyph glyph-name="mu" unicode="&#x3bc;" horiz-adv-x="624" 
d="M100 496q0 8 6 13.5t13 5.5q8 0 13 -5.5t5 -13.5v-313q0 -36 12.5 -65t34 -49t52 -30.5t66.5 -10.5q60 0 101 16.5t70 36.5v414q0 8 5 14t13 6t13.5 -6t5.5 -14v-419q0 -16 -13 -24q-11 -7 -28.5 -17.5t-41.5 -20t-54.5 -16.5t-68.5 -7q-54 0 -97 19t-70 56v-237
q0 -9 -5 -15t-13 -6t-13.5 6t-5.5 15v667z" />
    <glyph glyph-name="paragraph" unicode="&#xb6;" horiz-adv-x="667" 
d="M402 -192q-8 0 -13.5 6t-5.5 14v459h-39q-46 0 -85.5 13.5t-68 40t-45 64.5t-16.5 88q0 48 17 86t46 64.5t67.5 40.5t81.5 14h168q26 0 33 -10t7 -27v-833q0 -8 -5.5 -14t-13.5 -6t-13 6t-5 14v832h-92v-832q0 -8 -5 -14t-13 -6zM169 491q0 -34 10 -64.5t31.5 -53
t54.5 -36t79 -13.5h39v336h-38q-47 0 -80 -13.5t-54.5 -36.5t-31.5 -54t-10 -65z" />
    <glyph glyph-name="periodcentered" unicode="&#xb7;" horiz-adv-x="254" 
d="M146 316q0 -8 -5.5 -13.5t-13.5 -5.5t-13 5.5t-5 13.5v106q0 8 5 13.5t13 5.5t13.5 -5.5t5.5 -13.5v-106z" />
    <glyph glyph-name="cedilla" unicode="&#xb8;" horiz-adv-x="322" 
d="M147 3q5 16 19 16q9 0 13 -5t4 -13q0 -3 -1 -6.5t-2 -5.5l-18 -49q35 3 60 -17t25 -52q0 -70 -115 -107q-10 -3 -18 2.5t-8 13.5q0 5 2.5 10.5t12.5 8.5q90 29 90 71q0 17 -12 27t-29 10q-10 0 -17 -3.5t-14 -3.5q-11 0 -17 8t-1 19z" />
    <glyph glyph-name="onesuperior" unicode="&#xb9;" horiz-adv-x="320" 
d="M162 651l-78 -43q-11 -6 -20 -2t-9 16q0 11 9 16l91 51q3 2 10 5.5t13 3.5q8 0 14 -5.5t6 -17.5v-412q0 -20 -18 -20q-8 0 -13 6t-5 14v388z" />
    <glyph glyph-name="ordmasculine" unicode="&#xba;" horiz-adv-x="482" 
d="M241 281q-34 0 -64 11.5t-53 32.5t-37.5 50.5t-17.5 64.5q-2 22 -2 51t2 51q3 35 18 64t38 50t52.5 33t63.5 12t63.5 -12t52.5 -33t38 -50t18 -64q2 -22 2 -51t-2 -51q-3 -35 -17.5 -64.5t-37.5 -50.5t-53 -32.5t-64 -11.5zM241 318q55 0 92.5 34t42.5 91q2 23 2 48
t-2 48q-2 27 -13 50t-29 39.5t-42 26t-51 9.5t-51 -9.5t-42 -26t-29 -39.5t-13 -50q-2 -23 -2 -48t2 -48q5 -57 42.5 -91t92.5 -34z" />
    <glyph glyph-name="guillemotright" unicode="&#xbb;" horiz-adv-x="516" 
d="M424 346q0 6 -4 10.5t-14 13.5l-126 113q-6 5 -7.5 12.5t3.5 14.5q12 14 27 2l130 -116q11 -9 20 -21t9 -29t-9 -29t-20 -21l-130 -116q-15 -12 -27 2q-5 7 -3.5 14.5t7.5 12.5l126 113q10 9 14 13.5t4 10.5zM129 175q-7 0 -12.5 5t-5.5 13q0 10 8 16l126 113
q10 9 14 13.5t4 10.5t-4 10.5t-14 13.5l-126 113q-8 6 -8 16q0 8 5.5 13t12.5 5q6 0 13 -5l130 -116q11 -9 20 -21t9 -29t-9 -29t-20 -21l-130 -116q-7 -5 -13 -5z" />
    <glyph glyph-name="onequarter" unicode="&#xbc;" horiz-adv-x="930" 
d="M825 147q8 0 14 -5t6 -14q0 -8 -6 -12.5t-14 -4.5h-48v-91q0 -8 -4 -14t-13 -6q-19 0 -19 20v91h-238q-12 0 -19 7.5t-7 18.5q0 5 2 11t10 15l222 271q9 11 17 17t19 6q17 0 23.5 -10.5t6.5 -21.5v-278h48zM522 147h219v268zM162 651l-78 -43q-11 -6 -20 -2t-9 16
q0 11 9 16l91 51q3 2 10 5.5t13 3.5q8 0 14 -5.5t6 -17.5v-412q0 -20 -18 -20q-8 0 -13 6t-5 14v388zM553 735q8 -3 10.5 -10.5t-0.5 -15.5l-286 -725q-2 -7 -9 -10.5t-15 -0.5t-10 10.5t0 14.5l285 724q8 20 25 13z" />
    <glyph glyph-name="onehalf" unicode="&#xbd;" horiz-adv-x="907" 
d="M525 731q8 -3 10.5 -10.5t-0.5 -15.5l-286 -725q-2 -7 -9 -10.5t-15 -0.5t-10 10.5t0 14.5l285 724q8 20 25 13zM162 651l-78 -43q-11 -6 -20 -2t-9 16q0 11 9 16l91 51q3 2 10 5.5t13 3.5q8 0 14 -5.5t6 -17.5v-412q0 -20 -18 -20q-8 0 -13 6t-5 14v388zM525 36
q0 26 6.5 47t20.5 39.5t35 36t50 36.5q27 17 51.5 31t43 29t30 33.5t11.5 45.5q0 19 -6.5 35.5t-19.5 29t-33.5 20t-48.5 7.5q-42 0 -65 -16t-38 -36q-9 -12 -19 -12q-5 0 -10.5 3.5t-5.5 12.5q0 6 5 15q16 25 48.5 47t83.5 22q72 0 108.5 -37t36.5 -91q0 -24 -7.5 -44
t-24 -38.5t-44 -37.5t-67.5 -42q-32 -18 -52.5 -35.5t-32 -34t-16 -33t-4.5 -33.5h236q9 0 15 -5t6 -13t-6 -13t-15 -5h-241q-14 0 -22.5 8.5t-8.5 22.5v5z" />
    <glyph glyph-name="threequarters" unicode="&#xbe;" horiz-adv-x="1058" 
d="M968 147q8 0 14 -5t6 -14q0 -8 -6 -12.5t-14 -4.5h-48v-91q0 -8 -4 -14t-13 -6q-19 0 -19 20v91h-238q-12 0 -19 7.5t-7 18.5q0 5 2 11t10 15l222 271q9 11 17 17t19 6q17 0 23.5 -10.5t6.5 -21.5v-278h48zM665 147h219v268zM130 235h-18t-18 1.5t-13.5 5.5t-5.5 12
q0 19 19 19q12 0 19 -1t14 -1q46 0 84 8.5t65.5 25.5t42.5 41t15 56q0 42 -26 65.5t-68 23.5q-23 0 -30 -1.5t-18 -1.5q-10 0 -17 6t-7 17q0 8 3.5 13t7.5 10l125 123h-210q-9 0 -15 4.5t-6 13.5t6 14t15 5h213q21 0 30 -8.5t9 -21.5q0 -16 -15 -31l-115 -110q7 1 13.5 1.5
t12.5 0.5q29 0 53 -9.5t40.5 -26t25.5 -39t9 -47.5q0 -78 -64 -123t-176 -45zM671 731q8 -3 10.5 -10.5t-0.5 -15.5l-286 -725q-2 -7 -9 -10.5t-15 -0.5t-10 10.5t0 14.5l285 724q8 20 25 13z" />
    <glyph glyph-name="questiondown" unicode="&#xbf;" horiz-adv-x="563" 
d="M445.007 111.036q4.99902 6.99902 9.99902 7.99902t7 1q6.99902 0 12.499 -5q5.49902 -4.99902 5.49902 -13.999q0 -5.99902 -4.99902 -13.999q-34.998 -47.9971 -86.9951 -71.9951q-51.9971 -23.999 -123.992 -23.999q-92.9941 0 -145.491 50.9971t-52.4971 135.992
q0 47.9971 12.999 81.4941q13 33.498 38.998 60.4971q25.998 26.998 66.4961 49.9971q40.4971 22.998 95.4941 49.9961q7.99902 4 14.999 4q7.99902 0 13.499 -5.49902q5.5 -5.5 5.5 -13.5q0 -13.999 -15.999 -19.998q-56.9971 -24.999 -94.9941 -46.9971
q-37.998 -21.999 -59.9971 -44.998q-21.998 -22.998 -30.998 -50.4961q-8.99902 -27.499 -8.99902 -63.4971q0 -68.9951 42.4971 -109.993q42.498 -40.9971 118.493 -40.9971q67.9961 0 107.993 20.499q39.998 20.498 72.9961 62.4961zM276.017 691q0 8 5.5 13.5
q5.49902 5.49902 13.499 5.49902q7.99902 0 12.999 -5.49902q5 -5.5 5 -13.5v-105.993q0 -7.99902 -5 -13.499t-12.999 -5.5q-8 0 -13.499 5.5q-5.5 5.5 -5.5 13.499v105.993z" />
    <glyph glyph-name="Agrave" unicode="&#xc0;" horiz-adv-x="663" 
d="M631 27q3 -10 -2 -18.5t-16 -8.5q-12 0 -17 13l-91 250h-348l-91 -250q-5 -12 -18 -12q-11 0 -15.5 8.5t-1.5 17.5l226 618q11 29 28.5 45.5t45.5 16.5q27 0 45 -16.5t29 -45.5zM171 300h320l-125 343q-10 28 -35 28q-15 0 -22.5 -7.5t-12.5 -20.5zM229 825q-12 6 -12 18
q0 8 5.5 13t12.5 5q6 0 12 -3l135 -69q12 -6 12 -18q0 -8 -5.5 -13t-12.5 -5q-6 0 -12 3z" />
    <glyph glyph-name="Aacute" unicode="&#xc1;" horiz-adv-x="663" 
d="M631 27q3 -10 -2 -18.5t-16 -8.5q-12 0 -17 13l-91 250h-348l-91 -250q-5 -12 -18 -12q-11 0 -15.5 8.5t-1.5 17.5l226 618q11 29 28.5 45.5t45.5 16.5q27 0 45 -16.5t29 -45.5zM171 300h320l-125 343q-10 28 -35 28q-15 0 -22.5 -7.5t-12.5 -20.5zM301 756q-6 -3 -12 -3
q-7 0 -12.5 5t-5.5 13q0 12 12 18l135 69q6 3 12 3q7 0 12.5 -5t5.5 -13q0 -12 -12 -18z" />
    <glyph glyph-name="Acircumflex" unicode="&#xc2;" horiz-adv-x="663" 
d="M631 27q3 -10 -2 -18.5t-16 -8.5q-12 0 -17 13l-91 250h-348l-91 -250q-5 -12 -18 -12q-11 0 -15.5 8.5t-1.5 17.5l226 618q11 29 28.5 45.5t45.5 16.5q27 0 45 -16.5t29 -45.5zM171 300h320l-125 343q-10 28 -35 28q-15 0 -22.5 -7.5t-12.5 -20.5zM250 756q-7 -4 -13 -4
q-8 0 -13.5 5.5t-5.5 13.5q0 6 3 9.5t5 5.5l81 60q12 9 24 9t24 -9l81 -60q2 -2 5 -5.5t3 -9.5q0 -8 -5.5 -13.5t-13.5 -5.5q-6 0 -13 4l-81 60z" />
    <glyph glyph-name="Atilde" unicode="&#xc3;" horiz-adv-x="663" 
d="M631 27q3 -10 -2 -18.5t-16 -8.5q-12 0 -17 13l-91 250h-348l-91 -250q-5 -12 -18 -12q-11 0 -15.5 8.5t-1.5 17.5l226 618q11 29 28.5 45.5t45.5 16.5q27 0 45 -16.5t29 -45.5zM171 300h320l-125 343q-10 28 -35 28q-15 0 -22.5 -7.5t-12.5 -20.5zM382 794q9 0 16.5 3.5
t14 8t12.5 8.5t12 4q7 0 12.5 -4.5t5.5 -12.5q0 -11 -11 -19q-14 -10 -30 -17.5t-33 -7.5t-31.5 6t-26.5 12.5t-23 12.5t-21 6q-9 0 -16 -4t-13 -8.5t-11.5 -8.5t-12.5 -4q-9 0 -14 5.5t-5 12.5q0 6 2.5 10t5.5 7q14 11 31 19t34 8t30.5 -6t25.5 -12.5t23 -12.5t23 -6z" />
    <glyph glyph-name="Adieresis" unicode="&#xc4;" horiz-adv-x="663" 
d="M631 27q3 -10 -2 -18.5t-16 -8.5q-12 0 -17 13l-91 250h-348l-91 -250q-5 -12 -18 -12q-11 0 -15.5 8.5t-1.5 17.5l226 618q11 29 28.5 45.5t45.5 16.5q27 0 45 -16.5t29 -45.5zM171 300h320l-125 343q-10 28 -35 28q-15 0 -22.5 -7.5t-12.5 -20.5zM260 823
q13 0 21.5 -8.5t8.5 -20.5q0 -13 -8.5 -21.5t-21.5 -8.5q-12 0 -20.5 8.5t-8.5 21.5q0 12 8.5 20.5t20.5 8.5zM402 823q12 0 20.5 -8.5t8.5 -20.5q0 -13 -8.5 -21.5t-20.5 -8.5q-13 0 -21.5 8.5t-8.5 21.5q0 12 8.5 20.5t21.5 8.5z" />
    <glyph glyph-name="Aring" unicode="&#xc5;" horiz-adv-x="663" 
d="M631 27q3 -10 -2 -18.5t-16 -8.5q-12 0 -17 13l-91 250h-348l-91 -250q-5 -12 -18 -12q-11 0 -15.5 8.5t-1.5 17.5l226 618q11 29 28.5 45.5t45.5 16.5q27 0 45 -16.5t29 -45.5zM171 300h320l-125 343q-10 28 -35 28q-15 0 -22.5 -7.5t-12.5 -20.5zM248 835q0 33 24.5 57
t58.5 24q33 0 57 -24t24 -57t-24 -57.5t-57 -24.5q-17 0 -32 6.5t-26.5 18t-18 26t-6.5 31.5zM277 835q0 -22 15.5 -38t38.5 -16q22 0 37.5 16t15.5 38t-15.5 37.5t-37.5 15.5q-23 0 -38.5 -15.5t-15.5 -37.5z" />
    <glyph glyph-name="AE" unicode="&#xc6;" horiz-adv-x="1021" 
d="M256 309h261v351h-5q-9 0 -18.5 -3.5t-17.5 -13.5zM37 -3q-8 0 -13 4.5t-5 12.5q0 9 4 14l420 628q18 26 39.5 33.5t47.5 7.5h391q19 0 19 -19q0 -8 -5.5 -13t-13.5 -5h-367v-290h359q8 0 13.5 -5t5.5 -13t-5.5 -13.5t-13.5 -5.5h-359v-296h369q8 0 13.5 -5.5t5.5 -13.5
t-5.5 -13t-13.5 -5h-369q-19 0 -28 10.5t-9 26.5v237h-285l-180 -269q-5 -8 -15 -8z" />
    <glyph glyph-name="Ccedilla" unicode="&#xc7;" horiz-adv-x="662" 
d="M321 -6q-51 6 -93.5 28.5t-74 58t-50.5 82t-22 99.5q-3 40 -3 81q0 45 3 95q4 55 25.5 104t57.5 85.5t84.5 57.5t106.5 21q41 0 78.5 -12t69 -33.5t56 -51t39.5 -63.5q5 -11 5 -18q0 -8 -5.5 -13t-12.5 -5q-8 0 -12.5 4.5t-6.5 10.5q-12 32 -33 58.5t-48.5 46t-60.5 30
t-69 10.5q-48 0 -89 -17.5t-72.5 -48.5t-51 -73.5t-23.5 -92.5q-2 -23 -3 -44.5t-1 -43.5t1 -44t3 -44q4 -50 23 -93t49.5 -74.5t72 -49t91.5 -17.5q36 0 69 10.5t60.5 30t48.5 46t33 58.5q2 6 6.5 10.5t12.5 4.5q7 0 12.5 -5t5.5 -13q0 -7 -5 -18q-31 -68 -94.5 -113
t-145.5 -47q-1 -1 -1 -3l-18 -49q35 3 60 -17t25 -52q0 -70 -115 -107q-10 -3 -18 2.5t-8 13.5q0 5 2.5 10.5t12.5 8.5q90 29 90 71q0 17 -12 27t-29 10q-10 0 -17 -3.5t-14 -3.5q-11 0 -17 8t-1 19z" />
    <glyph glyph-name="Egrave" unicode="&#xc8;" horiz-adv-x="622" 
d="M522 697q19 0 19 -19q0 -8 -5.5 -13t-13.5 -5h-367v-290h359q8 0 13.5 -5t5.5 -13t-5.5 -13.5t-13.5 -5.5h-359v-296h369q8 0 13.5 -5.5t5.5 -13.5t-5.5 -13t-13.5 -5h-369q-19 0 -28 10.5t-9 26.5v623q0 15 9 26t28 11h367zM249 825q-12 6 -12 18q0 8 5.5 13t12.5 5
q6 0 12 -3l135 -69q12 -6 12 -18q0 -8 -5.5 -13t-12.5 -5q-6 0 -12 3z" />
    <glyph glyph-name="Eacute" unicode="&#xc9;" horiz-adv-x="622" 
d="M522 697q19 0 19 -19q0 -8 -5.5 -13t-13.5 -5h-367v-290h359q8 0 13.5 -5t5.5 -13t-5.5 -13.5t-13.5 -5.5h-359v-296h369q8 0 13.5 -5.5t5.5 -13.5t-5.5 -13t-13.5 -5h-369q-19 0 -28 10.5t-9 26.5v623q0 15 9 26t28 11h367zM237 756q-6 -3 -12 -3q-7 0 -12.5 5t-5.5 13
q0 12 12 18l135 69q6 3 12 3q7 0 12.5 -5t5.5 -13q0 -12 -12 -18z" />
    <glyph glyph-name="Ecircumflex" unicode="&#xca;" horiz-adv-x="622" 
d="M522 697q19 0 19 -19q0 -8 -5.5 -13t-13.5 -5h-367v-290h359q8 0 13.5 -5t5.5 -13t-5.5 -13.5t-13.5 -5.5h-359v-296h369q8 0 13.5 -5.5t5.5 -13.5t-5.5 -13t-13.5 -5h-369q-19 0 -28 10.5t-9 26.5v623q0 15 9 26t28 11h367zM252 756q-7 -4 -13 -4q-8 0 -13.5 5.5
t-5.5 13.5q0 6 3 9.5t5 5.5l81 60q12 9 24 9t24 -9l81 -60q2 -2 5 -5.5t3 -9.5q0 -8 -5.5 -13.5t-13.5 -5.5q-6 0 -13 4l-81 60z" />
    <glyph glyph-name="Edieresis" unicode="&#xcb;" horiz-adv-x="622" 
d="M522 697q19 0 19 -19q0 -8 -5.5 -13t-13.5 -5h-367v-290h359q8 0 13.5 -5t5.5 -13t-5.5 -13.5t-13.5 -5.5h-359v-296h369q8 0 13.5 -5.5t5.5 -13.5t-5.5 -13t-13.5 -5h-369q-19 0 -28 10.5t-9 26.5v623q0 15 9 26t28 11h367zM266 823q13 0 21.5 -8.5t8.5 -20.5
q0 -13 -8.5 -21.5t-21.5 -8.5q-12 0 -20.5 8.5t-8.5 21.5q0 12 8.5 20.5t20.5 8.5zM408 823q12 0 20.5 -8.5t8.5 -20.5q0 -13 -8.5 -21.5t-20.5 -8.5q-13 0 -21.5 8.5t-8.5 21.5q0 12 8.5 20.5t21.5 8.5z" />
    <glyph glyph-name="Igrave" unicode="&#xcc;" horiz-adv-x="276" 
d="M119 683q0 8 5 13.5t13 5.5q19 0 19 -19v-668q0 -19 -19 -19q-18 0 -18 19v668zM39 825q-12 6 -12 18q0 8 5.5 13t12.5 5q6 0 12 -3l135 -69q12 -6 12 -18q0 -8 -5.5 -13t-12.5 -5q-6 0 -12 3z" />
    <glyph glyph-name="Iacute" unicode="&#xcd;" horiz-adv-x="276" 
d="M119 683q0 8 5 13.5t13 5.5q19 0 19 -19v-668q0 -19 -19 -19q-18 0 -18 19v668zM105 756q-6 -3 -12 -3q-7 0 -12.5 5t-5.5 13q0 12 12 18l135 69q6 3 12 3q7 0 12.5 -5t5.5 -13q0 -12 -12 -18z" />
    <glyph glyph-name="Icircumflex" unicode="&#xce;" horiz-adv-x="276" 
d="M119 683q0 8 5 13.5t13 5.5q19 0 19 -19v-668q0 -19 -19 -19q-18 0 -18 19v668zM59 756q-7 -4 -13 -4q-8 0 -13.5 5.5t-5.5 13.5q0 6 3 9.5t5 5.5l81 60q12 9 24 9t24 -9l81 -60q2 -2 5 -5.5t3 -9.5q0 -8 -5.5 -13.5t-13.5 -5.5q-6 0 -13 4l-81 60z" />
    <glyph glyph-name="Idieresis" unicode="&#xcf;" horiz-adv-x="276" 
d="M119 683q0 8 5 13.5t13 5.5q19 0 19 -19v-668q0 -19 -19 -19q-18 0 -18 19v668zM67 823q13 0 21.5 -8.5t8.5 -20.5q0 -13 -8.5 -21.5t-21.5 -8.5q-12 0 -20.5 8.5t-8.5 21.5q0 12 8.5 20.5t20.5 8.5zM209 823q12 0 20.5 -8.5t8.5 -20.5q0 -13 -8.5 -21.5t-20.5 -8.5
q-13 0 -21.5 8.5t-8.5 21.5q0 12 8.5 20.5t21.5 8.5z" />
    <glyph glyph-name="Eth" unicode="&#xd0;" horiz-adv-x="720" 
d="M154 0q-18 0 -27 11t-9 26v289h-88q-8 0 -14 5t-6 13q0 9 6 14t14 5h88v297q0 16 9.5 26.5t26.5 10.5h186q72 0 126.5 -22.5t92 -62t57.5 -93.5t23 -118q1 -26 1 -55.5t-2 -54.5q-3 -62 -23.5 -115.5t-58 -92.5t-92 -61t-124.5 -22h-186zM602 290q2 26 2 60t-2 60
q-3 56 -20.5 102t-50 79t-81 51t-113.5 18h-182v-297h197q8 0 14 -5.5t6 -13.5t-6 -13t-14 -5h-197v-289h182q66 0 114.5 18.5t81 51.5t49.5 79.5t20 103.5z" />
    <glyph glyph-name="Ntilde" unicode="&#xd1;" horiz-adv-x="770" 
d="M157 662h-2v-646q0 -19 -19 -19q-8 0 -13 5.5t-5 13.5v649q0 17 9 27.5t26 10.5q16 0 24 -8t13 -15l423 -643h2v646q0 8 5 13.5t13 5.5q19 0 19 -19v-647q0 -17 -9 -27.5t-26 -10.5q-16 0 -24 8t-13 15zM430 796q9 0 16.5 3.5t14 8t12.5 8.5t12 4q7 0 12.5 -4.5
t5.5 -12.5q0 -11 -11 -19q-14 -10 -30 -17.5t-33 -7.5t-31.5 6t-26.5 12.5t-23 12.5t-21 6q-9 0 -16 -4t-13 -8.5t-11.5 -8.5t-12.5 -4q-9 0 -14 5.5t-5 12.5q0 6 2.5 10t5.5 7q14 11 31 19t34 8t30.5 -6t25.5 -12.5t23 -12.5t23 -6z" />
    <glyph glyph-name="Ograve" unicode="&#xd2;" horiz-adv-x="725" 
d="M362 -8q-58 0 -107 21t-86 58t-60 87.5t-27 109.5q-6 81 0 163q4 58 26.5 108t59.5 87t86.5 58.5t107.5 21.5t107.5 -21t86.5 -58t60 -87.5t27 -108.5q3 -40 3 -82t-3 -81q-4 -59 -27 -109.5t-60 -87.5t-86.5 -58t-107.5 -21zM362 29q49 0 91.5 17.5t74.5 48.5t52 73.5
t25 92.5q9 88 0 175q-5 50 -25 92.5t-52 74t-74.5 49t-91.5 17.5q-50 0 -92 -17.5t-73.5 -49t-51.5 -74t-25 -92.5q-9 -87 0 -175q5 -50 25 -92.5t51.5 -73.5t73.5 -48.5t92 -17.5zM269 825q-12 6 -12 18q0 8 5.5 13t12.5 5q6 0 12 -3l135 -69q12 -6 12 -18q0 -8 -5.5 -13
t-12.5 -5q-6 0 -12 3z" />
    <glyph glyph-name="Oacute" unicode="&#xd3;" horiz-adv-x="725" 
d="M362 -8q-58 0 -107 21t-86 58t-60 87.5t-27 109.5q-6 81 0 163q4 58 26.5 108t59.5 87t86.5 58.5t107.5 21.5t107.5 -21t86.5 -58t60 -87.5t27 -108.5q3 -40 3 -82t-3 -81q-4 -59 -27 -109.5t-60 -87.5t-86.5 -58t-107.5 -21zM362 29q49 0 91.5 17.5t74.5 48.5t52 73.5
t25 92.5q9 88 0 175q-5 50 -25 92.5t-52 74t-74.5 49t-91.5 17.5q-50 0 -92 -17.5t-73.5 -49t-51.5 -74t-25 -92.5q-9 -87 0 -175q5 -50 25 -92.5t51.5 -73.5t73.5 -48.5t92 -17.5zM325 756q-6 -3 -12 -3q-7 0 -12.5 5t-5.5 13q0 12 12 18l135 69q6 3 12 3q7 0 12.5 -5
t5.5 -13q0 -12 -12 -18z" />
    <glyph glyph-name="Ocircumflex" unicode="&#xd4;" horiz-adv-x="725" 
d="M362 -8q-58 0 -107 21t-86 58t-60 87.5t-27 109.5q-6 81 0 163q4 58 26.5 108t59.5 87t86.5 58.5t107.5 21.5t107.5 -21t86.5 -58t60 -87.5t27 -108.5q3 -40 3 -82t-3 -81q-4 -59 -27 -109.5t-60 -87.5t-86.5 -58t-107.5 -21zM362 29q49 0 91.5 17.5t74.5 48.5t52 73.5
t25 92.5q9 88 0 175q-5 50 -25 92.5t-52 74t-74.5 49t-91.5 17.5q-50 0 -92 -17.5t-73.5 -49t-51.5 -74t-25 -92.5q-9 -87 0 -175q5 -50 25 -92.5t51.5 -73.5t73.5 -48.5t92 -17.5zM280 756q-7 -4 -13 -4q-8 0 -13.5 5.5t-5.5 13.5q0 6 3 9.5t5 5.5l81 60q12 9 24 9t24 -9
l81 -60q2 -2 5 -5.5t3 -9.5q0 -8 -5.5 -13.5t-13.5 -5.5q-6 0 -13 4l-81 60z" />
    <glyph glyph-name="Otilde" unicode="&#xd5;" horiz-adv-x="725" 
d="M362 -8q-58 0 -107 21t-86 58t-60 87.5t-27 109.5q-6 81 0 163q4 58 26.5 108t59.5 87t86.5 58.5t107.5 21.5t107.5 -21t86.5 -58t60 -87.5t27 -108.5q3 -40 3 -82t-3 -81q-4 -59 -27 -109.5t-60 -87.5t-86.5 -58t-107.5 -21zM362 29q49 0 91.5 17.5t74.5 48.5t52 73.5
t25 92.5q9 88 0 175q-5 50 -25 92.5t-52 74t-74.5 49t-91.5 17.5q-50 0 -92 -17.5t-73.5 -49t-51.5 -74t-25 -92.5q-9 -87 0 -175q5 -50 25 -92.5t51.5 -73.5t73.5 -48.5t92 -17.5zM415 792q9 0 16.5 3.5t14 8t12.5 8.5t12 4q7 0 12.5 -4.5t5.5 -12.5q0 -11 -11 -19
q-14 -10 -30 -17.5t-33 -7.5t-31.5 6t-26.5 12.5t-23 12.5t-21 6q-9 0 -16 -4t-13 -8.5t-11.5 -8.5t-12.5 -4q-9 0 -14 5.5t-5 12.5q0 6 2.5 10t5.5 7q14 11 31 19t34 8t30.5 -6t25.5 -12.5t23 -12.5t23 -6z" />
    <glyph glyph-name="Odieresis" unicode="&#xd6;" horiz-adv-x="725" 
d="M362 -8q-58 0 -107 21t-86 58t-60 87.5t-27 109.5q-6 81 0 163q4 58 26.5 108t59.5 87t86.5 58.5t107.5 21.5t107.5 -21t86.5 -58t60 -87.5t27 -108.5q3 -40 3 -82t-3 -81q-4 -59 -27 -109.5t-60 -87.5t-86.5 -58t-107.5 -21zM362 29q49 0 91.5 17.5t74.5 48.5t52 73.5
t25 92.5q9 88 0 175q-5 50 -25 92.5t-52 74t-74.5 49t-91.5 17.5q-50 0 -92 -17.5t-73.5 -49t-51.5 -74t-25 -92.5q-9 -87 0 -175q5 -50 25 -92.5t51.5 -73.5t73.5 -48.5t92 -17.5zM291 823q13 0 21.5 -8.5t8.5 -20.5q0 -13 -8.5 -21.5t-21.5 -8.5q-12 0 -20.5 8.5
t-8.5 21.5q0 12 8.5 20.5t20.5 8.5zM433 823q12 0 20.5 -8.5t8.5 -20.5q0 -13 -8.5 -21.5t-20.5 -8.5q-13 0 -21.5 8.5t-8.5 21.5q0 12 8.5 20.5t21.5 8.5z" />
    <glyph glyph-name="multiply" unicode="&#xd7;" horiz-adv-x="628" 
d="M315 325l-194 -192q-15 -15 -28 -3q-7 6 -6 14t8 15l194 192l-195 193q-15 15 -3 28q7 7 14.5 6t14.5 -7l195 -193l191 189q6 7 14.5 8.5t14.5 -5.5q5 -6 4 -14.5t-7 -14.5l-191 -190l193 -189q6 -7 7 -14.5t-6 -14.5q-13 -13 -28 3z" />
    <glyph glyph-name="Oslash" unicode="&#xd8;" horiz-adv-x="723" 
d="M360 -8q-77 0 -140 37l-12 -25q-6 -12 -19 -12q-10 0 -15 9t0 19l15 30q-47 38 -75.5 93.5t-33.5 124.5q-6 81 0 163q4 58 26.5 108t59.5 87t86.5 58.5t107.5 21.5q41 0 77.5 -10.5t68.5 -30.5l14 27q7 14 20 14q8 0 14 -9t0 -20l-18 -35q45 -38 72.5 -92t32.5 -119
q3 -40 3 -82t-3 -81q-4 -59 -27 -109.5t-60 -87.5t-86.5 -58t-107.5 -21zM118 261q5 -55 28 -100t60 -77l283 547q-28 18 -60.5 28t-68.5 10q-50 0 -92 -17.5t-73.5 -49t-51.5 -74t-25 -92.5q-9 -87 0 -175zM360 29q49 0 91.5 17.5t74.5 48.5t52 73.5t25 92.5q9 88 0 175
q-5 53 -27 97t-57 76l-282 -547q27 -16 57.5 -24.5t65.5 -8.5z" />
    <glyph glyph-name="Ugrave" unicode="&#xd9;" horiz-adv-x="748" 
d="M642 270q0 -62 -20 -113t-56 -88t-85 -57t-107 -20t-107 20t-84.5 57t-55.5 88t-20 113v413q0 8 5 13.5t13 5.5q19 0 19 -19v-405q0 -57 17.5 -103t48 -78.5t72.5 -50t92 -17.5q49 0 91.5 17.5t73.5 50t48.5 78.5t17.5 103v405q0 8 5 13.5t13 5.5q19 0 19 -19v-413z
M316 825q-12 6 -12 18q0 8 5.5 13t12.5 5q6 0 12 -3l135 -69q12 -6 12 -18q0 -8 -5.5 -13t-12.5 -5q-6 0 -12 3z" />
    <glyph glyph-name="Uacute" unicode="&#xda;" horiz-adv-x="748" 
d="M642 270q0 -62 -20 -113t-56 -88t-85 -57t-107 -20t-107 20t-84.5 57t-55.5 88t-20 113v413q0 8 5 13.5t13 5.5q19 0 19 -19v-405q0 -57 17.5 -103t48 -78.5t72.5 -50t92 -17.5q49 0 91.5 17.5t73.5 50t48.5 78.5t17.5 103v405q0 8 5 13.5t13 5.5q19 0 19 -19v-413z
M303 756q-6 -3 -12 -3q-7 0 -12.5 5t-5.5 13q0 12 12 18l135 69q6 3 12 3q7 0 12.5 -5t5.5 -13q0 -12 -12 -18z" />
    <glyph glyph-name="Ucircumflex" unicode="&#xdb;" horiz-adv-x="748" 
d="M642 270q0 -62 -20 -113t-56 -88t-85 -57t-107 -20t-107 20t-84.5 57t-55.5 88t-20 113v413q0 8 5 13.5t13 5.5q19 0 19 -19v-405q0 -57 17.5 -103t48 -78.5t72.5 -50t92 -17.5q49 0 91.5 17.5t73.5 50t48.5 78.5t17.5 103v405q0 8 5 13.5t13 5.5q19 0 19 -19v-413z
M292 756q-7 -4 -13 -4q-8 0 -13.5 5.5t-5.5 13.5q0 6 3 9.5t5 5.5l81 60q12 9 24 9t24 -9l81 -60q2 -2 5 -5.5t3 -9.5q0 -8 -5.5 -13.5t-13.5 -5.5q-6 0 -13 4l-81 60z" />
    <glyph glyph-name="Udieresis" unicode="&#xdc;" horiz-adv-x="748" 
d="M642 270q0 -62 -20 -113t-56 -88t-85 -57t-107 -20t-107 20t-84.5 57t-55.5 88t-20 113v413q0 8 5 13.5t13 5.5q19 0 19 -19v-405q0 -57 17.5 -103t48 -78.5t72.5 -50t92 -17.5q49 0 91.5 17.5t73.5 50t48.5 78.5t17.5 103v405q0 8 5 13.5t13 5.5q19 0 19 -19v-413z
M303 823q13 0 21.5 -8.5t8.5 -20.5q0 -13 -8.5 -21.5t-21.5 -8.5q-12 0 -20.5 8.5t-8.5 21.5q0 12 8.5 20.5t20.5 8.5zM445 823q12 0 20.5 -8.5t8.5 -20.5q0 -13 -8.5 -21.5t-20.5 -8.5q-13 0 -21.5 8.5t-8.5 21.5q0 12 8.5 20.5t21.5 8.5z" />
    <glyph glyph-name="Yacute" unicode="&#xdd;" horiz-adv-x="636" 
d="M597 703q8 0 13.5 -5t5.5 -13q0 -6 -5 -13l-257 -318q-11 -14 -14 -23.5t-3 -21.5v-294q0 -8 -5.5 -13.5t-13.5 -5.5t-13 5.5t-5 13.5v294q0 12 -4 21.5t-15 23.5l-256 319q-4 5 -4 12t5.5 12t12.5 5q9 0 14 -6l265 -330l265 330q5 7 14 7zM261 756q-6 -3 -12 -3
q-7 0 -12.5 5t-5.5 13q0 12 12 18l135 69q6 3 12 3q7 0 12.5 -5t5.5 -13q0 -12 -12 -18z" />
    <glyph glyph-name="Thorn" unicode="&#xde;" horiz-adv-x="641" 
d="M155 146v-130q0 -19 -19 -19q-8 0 -13 5t-5 14v674q0 19 18 19q8 0 13.5 -5.5t5.5 -13.5v-131h215q43 0 81.5 -14t67.5 -41t46 -65.5t17 -86.5q0 -49 -16.5 -87.5t-45.5 -64.5t-69.5 -40t-88.5 -14h-207zM364 183q48 0 82.5 12.5t56 34.5t32 52.5t10.5 67.5
q0 36 -11 67.5t-32.5 55t-54.5 36.5t-77 13h-215v-339h209z" />
    <glyph glyph-name="germandbls" unicode="&#xdf;" horiz-adv-x="637" 
d="M302 660q-72 0 -114.5 -35t-42.5 -118v-491q0 -19 -18 -19q-8 0 -13.5 5.5t-5.5 13.5v489q0 94 49.5 143t138.5 49q37 0 68.5 -9.5t54 -27.5t35.5 -44t13 -59q0 -30 -14.5 -51.5t-32 -41t-32 -39t-14.5 -44.5q0 -22 17 -38.5t42 -31t55 -29t55 -32.5t42 -42.5t17 -58.5
q0 -39 -14 -68.5t-38 -49t-57 -29t-70 -9.5q-48 0 -87 14.5t-74 44.5q-3 3 -6 7.5t-3 9.5q0 11 10.5 16.5t21.5 -2.5q9 -7 21 -16t28.5 -17.5t38.5 -14t50 -5.5q63 0 102.5 28t39.5 91q0 28 -17 47.5t-42 35t-55 29.5t-55 30.5t-42 38.5t-17 54q0 28 14 50t31.5 41.5
t31.5 38.5t14 42q0 47 -31.5 75.5t-94.5 28.5z" />
    <glyph glyph-name="agrave" unicode="&#xe0;" horiz-adv-x="566" 
d="M469 70q0 -7 -2 -12t-9 -10q-26 -19 -73 -38t-115 -19q-97 0 -147 44t-50 121q0 68 50.5 111t140.5 43q70 0 168 -27v65q0 72 -38.5 104.5t-111.5 32.5q-38 0 -74.5 -10t-63.5 -23q-11 -5 -20.5 0.5t-9.5 16.5q0 12 12 19q24 13 67 23.5t89 10.5q85 0 136 -40.5
t51 -132.5v-279zM270 28q60 0 101 16.5t61 33.5v167q-49 14 -87 21t-82 7q-69 0 -111 -31t-42 -86q0 -60 38.5 -94t121.5 -34zM219 661q-12 6 -12 18q0 8 5.5 13t12.5 5q6 0 12 -3l135 -69q12 -6 12 -18q0 -8 -5.5 -13t-12.5 -5q-6 0 -12 3z" />
    <glyph glyph-name="aacute" unicode="&#xe1;" horiz-adv-x="566" 
d="M469 70q0 -7 -2 -12t-9 -10q-26 -19 -73 -38t-115 -19q-97 0 -147 44t-50 121q0 68 50.5 111t140.5 43q70 0 168 -27v65q0 72 -38.5 104.5t-111.5 32.5q-38 0 -74.5 -10t-63.5 -23q-11 -5 -20.5 0.5t-9.5 16.5q0 12 12 19q24 13 67 23.5t89 10.5q85 0 136 -40.5
t51 -132.5v-279zM270 28q60 0 101 16.5t61 33.5v167q-49 14 -87 21t-82 7q-69 0 -111 -31t-42 -86q0 -60 38.5 -94t121.5 -34zM215 592q-6 -3 -12 -3q-7 0 -12.5 5t-5.5 13q0 12 12 18l135 69q6 3 12 3q7 0 12.5 -5t5.5 -13q0 -12 -12 -18z" />
    <glyph glyph-name="acircumflex" unicode="&#xe2;" horiz-adv-x="566" 
d="M469 70q0 -7 -2 -12t-9 -10q-26 -19 -73 -38t-115 -19q-97 0 -147 44t-50 121q0 68 50.5 111t140.5 43q70 0 168 -27v65q0 72 -38.5 104.5t-111.5 32.5q-38 0 -74.5 -10t-63.5 -23q-11 -5 -20.5 0.5t-9.5 16.5q0 12 12 19q24 13 67 23.5t89 10.5q85 0 136 -40.5
t51 -132.5v-279zM270 28q60 0 101 16.5t61 33.5v167q-49 14 -87 21t-82 7q-69 0 -111 -31t-42 -86q0 -60 38.5 -94t121.5 -34zM202 580q-7 -4 -13 -4q-8 0 -13.5 5.5t-5.5 13.5q0 6 3 9.5t5 5.5l81 60q12 9 24 9t24 -9l81 -60q2 -2 5 -5.5t3 -9.5q0 -8 -5.5 -13.5
t-13.5 -5.5q-6 0 -13 4l-81 60z" />
    <glyph glyph-name="atilde" unicode="&#xe3;" horiz-adv-x="566" 
d="M469 70q0 -7 -2 -12t-9 -10q-26 -19 -73 -38t-115 -19q-97 0 -147 44t-50 121q0 68 50.5 111t140.5 43q70 0 168 -27v65q0 72 -38.5 104.5t-111.5 32.5q-38 0 -74.5 -10t-63.5 -23q-11 -5 -20.5 0.5t-9.5 16.5q0 12 12 19q24 13 67 23.5t89 10.5q85 0 136 -40.5
t51 -132.5v-279zM270 28q60 0 101 16.5t61 33.5v167q-49 14 -87 21t-82 7q-69 0 -111 -31t-42 -86q0 -60 38.5 -94t121.5 -34zM336 633q9 0 16.5 3.5t14 8t12.5 8.5t12 4q7 0 12.5 -4.5t5.5 -12.5q0 -11 -11 -19q-14 -10 -30 -17.5t-33 -7.5t-31.5 6t-26.5 12.5t-23 12.5
t-21 6q-9 0 -16 -4t-13 -8.5t-11.5 -8.5t-12.5 -4q-9 0 -14 5.5t-5 12.5q0 6 2.5 10t5.5 7q14 11 31 19t34 8t30.5 -6t25.5 -12.5t23 -12.5t23 -6z" />
    <glyph glyph-name="adieresis" unicode="&#xe4;" horiz-adv-x="566" 
d="M469 70q0 -7 -2 -12t-9 -10q-26 -19 -73 -38t-115 -19q-97 0 -147 44t-50 121q0 68 50.5 111t140.5 43q70 0 168 -27v65q0 72 -38.5 104.5t-111.5 32.5q-38 0 -74.5 -10t-63.5 -23q-11 -5 -20.5 0.5t-9.5 16.5q0 12 12 19q24 13 67 23.5t89 10.5q85 0 136 -40.5
t51 -132.5v-279zM270 28q60 0 101 16.5t61 33.5v167q-49 14 -87 21t-82 7q-69 0 -111 -31t-42 -86q0 -60 38.5 -94t121.5 -34zM213 662q13 0 21.5 -8.5t8.5 -20.5q0 -13 -8.5 -21.5t-21.5 -8.5q-12 0 -20.5 8.5t-8.5 21.5q0 12 8.5 20.5t20.5 8.5zM355 662q12 0 20.5 -8.5
t8.5 -20.5q0 -13 -8.5 -21.5t-20.5 -8.5q-13 0 -21.5 8.5t-8.5 21.5q0 12 8.5 20.5t21.5 8.5z" />
    <glyph glyph-name="aring" unicode="&#xe5;" horiz-adv-x="566" 
d="M469 70q0 -7 -2 -12t-9 -10q-26 -19 -73 -38t-115 -19q-97 0 -147 44t-50 121q0 68 50.5 111t140.5 43q70 0 168 -27v65q0 72 -38.5 104.5t-111.5 32.5q-38 0 -74.5 -10t-63.5 -23q-11 -5 -20.5 0.5t-9.5 16.5q0 12 12 19q24 13 67 23.5t89 10.5q85 0 136 -40.5
t51 -132.5v-279zM270 28q60 0 101 16.5t61 33.5v167q-49 14 -87 21t-82 7q-69 0 -111 -31t-42 -86q0 -60 38.5 -94t121.5 -34zM201 649q0 33 24.5 57t58.5 24q33 0 57 -24t24 -57t-24 -57.5t-57 -24.5q-17 0 -32 6.5t-26.5 18t-18 26t-6.5 31.5zM230 649q0 -22 15.5 -38
t38.5 -16q22 0 37.5 16t15.5 38t-15.5 37.5t-37.5 15.5q-23 0 -38.5 -15.5t-15.5 -37.5z" />
    <glyph glyph-name="ae" unicode="&#xe6;" horiz-adv-x="921" 
d="M846 289q0 -22 -12.5 -35.5t-39.5 -13.5h-325v-26q0 -88 49 -137t129 -49q27 0 61 6t77 24q4 2 10 2q8 0 13 -5.5t5 -12.5q0 -12 -12 -18t-30 -12t-39 -10.5t-42.5 -7.5t-40.5 -3q-59 0 -102 20t-70 55q-41 -32 -90 -53.5t-117 -21.5q-97 0 -147 44t-50 121
q0 68 50.5 111t140.5 43q70 0 168 -27v65q0 72 -38.5 104.5t-111.5 32.5q-38 0 -74.5 -10t-63.5 -23q-11 -5 -20.5 0.5t-9.5 16.5q0 12 12 19q24 13 67 23.5t89 10.5q31 0 59 -5.5t51 -18t40.5 -32.5t26.5 -50q22 46 70 76t114 30q47 0 84.5 -16t64 -43.5t40.5 -65.5t14 -81
v-27zM270 28q60 0 104.5 19.5t82.5 51.5q-14 31 -20.5 67t-4.5 79q-49 14 -87 21t-82 7q-69 0 -111 -31t-42 -86q0 -59 38.5 -93.5t121.5 -34.5zM793 277q12 0 14 8.5t2 21.5q0 86 -45 132t-120 46q-90 0 -133.5 -54t-41.5 -154h324z" />
    <glyph glyph-name="ccedilla" unicode="&#xe7;" horiz-adv-x="556" 
d="M300 28q23 0 46 6t43 19.5t36 33.5t25 49q4 18 20 18q6 0 12 -5t6 -14q0 -13 -10 -36.5t-32 -46.5t-55.5 -41t-79.5 -20v-2l-18 -49q35 3 60 -17t25 -52q0 -70 -115 -107q-10 -3 -18 2.5t-8 13.5q0 5 2.5 10.5t12.5 8.5q90 29 90 71q0 17 -12 27t-29 10q-10 0 -17 -3.5
t-14 -3.5q-11 0 -17 8t-1 19l22 65q-42 4 -76 20.5t-58 42.5t-37.5 60t-14.5 73q-2 30 -2 70.5t2 70.5q2 43 18 79t43.5 61.5t66 40t84.5 14.5q49 0 85 -17.5t58.5 -41t33.5 -48t11 -37.5q0 -9 -6 -14t-12 -5q-16 0 -20 18q-9 28 -25 48.5t-36 34t-43 19.5t-46 6
q-76 0 -122.5 -42.5t-51.5 -112.5q-1 -12 -1.5 -31.5t-0.5 -41t0.5 -42t1.5 -33.5q2 -33 14.5 -61.5t34.5 -49.5t53 -33t72 -12z" />
    <glyph glyph-name="egrave" unicode="&#xe8;" horiz-adv-x="574" 
d="M500 289q0 -22 -12.5 -35.5t-39.5 -13.5h-325v-27q0 -88 49 -136.5t129 -48.5q27 0 61 6t77 24q4 2 10 2q8 0 13 -5.5t5 -12.5q0 -5 -3 -10t-9 -8q-12 -6 -30 -12t-39 -10.5t-42.5 -7.5t-40.5 -3q-105 0 -159 59.5t-58 158.5q-1 27 -0.5 57.5t2.5 53.5q3 48 19.5 85.5
t44 63.5t65 39.5t81.5 13.5q46 0 83.5 -16t64 -43.5t40.5 -65.5t14 -81v-27zM447 277q15 0 16 16q2 45 -9 81t-32.5 60.5t-53 37.5t-70.5 13q-90 0 -133.5 -54t-41.5 -154h324zM214 661q-12 6 -12 18q0 8 5.5 13t12.5 5q6 0 12 -3l135 -69q12 -6 12 -18q0 -8 -5.5 -13
t-12.5 -5q-6 0 -12 3z" />
    <glyph glyph-name="eacute" unicode="&#xe9;" horiz-adv-x="574" 
d="M500 289q0 -22 -12.5 -35.5t-39.5 -13.5h-325v-27q0 -88 49 -136.5t129 -48.5q27 0 61 6t77 24q4 2 10 2q8 0 13 -5.5t5 -12.5q0 -5 -3 -10t-9 -8q-12 -6 -30 -12t-39 -10.5t-42.5 -7.5t-40.5 -3q-105 0 -159 59.5t-58 158.5q-1 27 -0.5 57.5t2.5 53.5q3 48 19.5 85.5
t44 63.5t65 39.5t81.5 13.5q46 0 83.5 -16t64 -43.5t40.5 -65.5t14 -81v-27zM447 277q15 0 16 16q2 45 -9 81t-32.5 60.5t-53 37.5t-70.5 13q-90 0 -133.5 -54t-41.5 -154h324zM243 592q-6 -3 -12 -3q-7 0 -12.5 5t-5.5 13q0 12 12 18l135 69q6 3 12 3q7 0 12.5 -5t5.5 -13
q0 -12 -12 -18z" />
    <glyph glyph-name="ecircumflex" unicode="&#xea;" horiz-adv-x="574" 
d="M500 289q0 -22 -12.5 -35.5t-39.5 -13.5h-325v-27q0 -88 49 -136.5t129 -48.5q27 0 61 6t77 24q4 2 10 2q8 0 13 -5.5t5 -12.5q0 -5 -3 -10t-9 -8q-12 -6 -30 -12t-39 -10.5t-42.5 -7.5t-40.5 -3q-105 0 -159 59.5t-58 158.5q-1 27 -0.5 57.5t2.5 53.5q3 48 19.5 85.5
t44 63.5t65 39.5t81.5 13.5q46 0 83.5 -16t64 -43.5t40.5 -65.5t14 -81v-27zM447 277q15 0 16 16q2 45 -9 81t-32.5 60.5t-53 37.5t-70.5 13q-90 0 -133.5 -54t-41.5 -154h324zM204 593q-7 -4 -13 -4q-8 0 -13.5 5.5t-5.5 13.5q0 6 3 9.5t5 5.5l81 60q12 9 24 9t24 -9
l81 -60q2 -2 5 -5.5t3 -9.5q0 -8 -5.5 -13.5t-13.5 -5.5q-6 0 -13 4l-81 60z" />
    <glyph glyph-name="edieresis" unicode="&#xeb;" horiz-adv-x="574" 
d="M500 289q0 -22 -12.5 -35.5t-39.5 -13.5h-325v-27q0 -88 49 -136.5t129 -48.5q27 0 61 6t77 24q4 2 10 2q8 0 13 -5.5t5 -12.5q0 -5 -3 -10t-9 -8q-12 -6 -30 -12t-39 -10.5t-42.5 -7.5t-40.5 -3q-105 0 -159 59.5t-58 158.5q-1 27 -0.5 57.5t2.5 53.5q3 48 19.5 85.5
t44 63.5t65 39.5t81.5 13.5q46 0 83.5 -16t64 -43.5t40.5 -65.5t14 -81v-27zM447 277q15 0 16 16q2 45 -9 81t-32.5 60.5t-53 37.5t-70.5 13q-90 0 -133.5 -54t-41.5 -154h324zM226 662q13 0 21.5 -8.5t8.5 -20.5q0 -13 -8.5 -21.5t-21.5 -8.5q-12 0 -20.5 8.5t-8.5 21.5
q0 12 8.5 20.5t20.5 8.5zM368 662q12 0 20.5 -8.5t8.5 -20.5q0 -13 -8.5 -21.5t-20.5 -8.5q-13 0 -21.5 8.5t-8.5 21.5q0 12 8.5 20.5t21.5 8.5z" />
    <glyph glyph-name="igrave" unicode="&#xec;" horiz-adv-x="261" 
d="M35 661q-12 6 -12 18q0 8 5.5 13t12.5 5q6 0 12 -3l135 -69q12 -6 12 -18q0 -8 -5.5 -13t-12.5 -5q-6 0 -12 3zM132 515q8 0 13 -6t5 -14v-478q0 -20 -18 -20q-19 0 -19 20v478q0 8 5.5 14t13.5 6z" />
    <glyph glyph-name="iacute" unicode="&#xed;" horiz-adv-x="261" 
d="M102 592q-6 -3 -12 -3q-7 0 -12.5 5t-5.5 13q0 12 12 18l135 69q6 3 12 3q7 0 12.5 -5t5.5 -13q0 -12 -12 -18zM132 515q8 0 13 -6t5 -14v-478q0 -20 -18 -20q-19 0 -19 20v478q0 8 5.5 14t13.5 6z" />
    <glyph glyph-name="icircumflex" unicode="&#xee;" horiz-adv-x="261" 
d="M132 515q8 0 13 -6t5 -14v-478q0 -20 -18 -20q-19 0 -19 20v478q0 8 5.5 14t13.5 6zM57 593q-7 -4 -13 -4q-8 0 -13.5 5.5t-5.5 13.5q0 6 3 9.5t5 5.5l81 60q12 9 24 9t24 -9l81 -60q2 -2 5 -5.5t3 -9.5q0 -8 -5.5 -13.5t-13.5 -5.5q-6 0 -13 4l-81 60z" />
    <glyph glyph-name="idieresis" unicode="&#xef;" horiz-adv-x="261" 
d="M67 662q13 0 21.5 -8.5t8.5 -20.5q0 -13 -8.5 -21.5t-21.5 -8.5q-12 0 -20.5 8.5t-8.5 21.5q0 12 8.5 20.5t20.5 8.5zM209 662q12 0 20.5 -8.5t8.5 -20.5q0 -13 -8.5 -21.5t-20.5 -8.5q-13 0 -21.5 8.5t-8.5 21.5q0 12 8.5 20.5t21.5 8.5zM132 515q8 0 13 -6t5 -14v-478
q0 -20 -18 -20q-19 0 -19 20v478q0 8 5.5 14t13.5 6z" />
    <glyph glyph-name="eth" unicode="&#xf0;" horiz-adv-x="581" 
d="M291 547q-8 0 -13.5 5.5t-5.5 13.5q0 11 13 18l69 33q-12 10 -26 20t-30 19q-13 8 -13 19q0 9 5.5 14t13.5 5t13 -4q21 -14 39.5 -27.5t34.5 -27.5l73 35q9 5 19 -0.5t10 -16.5t-12 -18l-60 -29q37 -39 53.5 -88t16.5 -123l-2 -201q0 -47 -16 -84.5t-44 -64t-64.5 -40.5
t-78.5 -14t-78 14t-62.5 39.5t-42 60.5t-17.5 76q-2 29 -2 60.5t2 60.5q2 42 18 76.5t43 59t63 38t78 13.5q52 0 97.5 -23.5t66.5 -60.5q1 57 -14.5 101.5t-52.5 82.5l-83 -39q-6 -3 -11 -3zM286 452q-35 0 -64 -11t-50 -30.5t-33.5 -46.5t-14.5 -58q-2 -30 -2 -64t2 -64
q3 -33 16 -60.5t34 -47.5t49.5 -31t62.5 -11q70 0 114 42t50 108q2 29 2 63.5t-2 63.5q-2 32 -15 59t-34.5 46.5t-51 30.5t-63.5 11z" />
    <glyph glyph-name="ntilde" unicode="&#xf1;" 
d="M519 16q0 -8 -4.5 -14t-13.5 -6q-8 0 -13.5 6t-5.5 14v313q0 42 -12 71.5t-34 48.5t-52 27.5t-67 8.5q-51 0 -97.5 -14t-72.5 -31v-424q0 -8 -5 -14t-14 -6q-8 0 -13 6t-5 14v427q0 11 3 17t14 12q10 6 28 15t42.5 16.5t54.5 13t66 5.5q92 0 146.5 -47.5t54.5 -144.5
v-314zM363 633q9 0 16.5 3.5t14 8t12.5 8.5t12 4q7 0 12.5 -4.5t5.5 -12.5q0 -11 -11 -19q-14 -10 -30 -17.5t-33 -7.5t-31.5 6t-26.5 12.5t-23 12.5t-21 6q-9 0 -16 -4t-13 -8.5t-11.5 -8.5t-12.5 -4q-9 0 -14 5.5t-5 12.5q0 6 2.5 10t5.5 7q14 11 31 19t34 8t30.5 -6
t25.5 -12.5t23 -12.5t23 -6z" />
    <glyph glyph-name="ograve" unicode="&#xf2;" horiz-adv-x="591" 
d="M296 522q44 0 81 -14t65 -39.5t44 -61t18 -78.5q2 -30 2 -70t-2 -70q-2 -43 -18 -79t-44 -62.5t-65 -41.5t-81 -15t-82 15t-65.5 41.5t-44 62.5t-17.5 79q-2 30 -2 70t2 70q1 43 17.5 78.5t44 61t65.5 39.5t82 14zM296 485q-38 0 -68.5 -11t-52.5 -31.5t-34.5 -48
t-14.5 -60.5q-1 -15 -1.5 -34.5t-0.5 -40.5t0.5 -41t1.5 -35q6 -70 51.5 -112.5t118.5 -42.5q72 0 117.5 42.5t51.5 112.5q1 15 2 35t1 40.5t-1 40.5t-2 35q-2 33 -14.5 60.5t-34.5 48t-52.5 31.5t-67.5 11zM232 661q-12 6 -12 18q0 8 5.5 13t12.5 5q6 0 12 -3l135 -69
q12 -6 12 -18q0 -8 -5.5 -13t-12.5 -5q-6 0 -12 3z" />
    <glyph glyph-name="oacute" unicode="&#xf3;" horiz-adv-x="591" 
d="M296 522q44 0 81 -14t65 -39.5t44 -61t18 -78.5q2 -30 2 -70t-2 -70q-2 -43 -18 -79t-44 -62.5t-65 -41.5t-81 -15t-82 15t-65.5 41.5t-44 62.5t-17.5 79q-2 30 -2 70t2 70q1 43 17.5 78.5t44 61t65.5 39.5t82 14zM296 485q-38 0 -68.5 -11t-52.5 -31.5t-34.5 -48
t-14.5 -60.5q-1 -15 -1.5 -34.5t-0.5 -40.5t0.5 -41t1.5 -35q6 -70 51.5 -112.5t118.5 -42.5q72 0 117.5 42.5t51.5 112.5q1 15 2 35t1 40.5t-1 40.5t-2 35q-2 33 -14.5 60.5t-34.5 48t-52.5 31.5t-67.5 11zM230 592q-6 -3 -12 -3q-7 0 -12.5 5t-5.5 13q0 12 12 18l135 69
q6 3 12 3q7 0 12.5 -5t5.5 -13q0 -12 -12 -18z" />
    <glyph glyph-name="ocircumflex" unicode="&#xf4;" horiz-adv-x="591" 
d="M296 522q44 0 81 -14t65 -39.5t44 -61t18 -78.5q2 -30 2 -70t-2 -70q-2 -43 -18 -79t-44 -62.5t-65 -41.5t-81 -15t-82 15t-65.5 41.5t-44 62.5t-17.5 79q-2 30 -2 70t2 70q1 43 17.5 78.5t44 61t65.5 39.5t82 14zM296 485q-38 0 -68.5 -11t-52.5 -31.5t-34.5 -48
t-14.5 -60.5q-1 -15 -1.5 -34.5t-0.5 -40.5t0.5 -41t1.5 -35q6 -70 51.5 -112.5t118.5 -42.5q72 0 117.5 42.5t51.5 112.5q1 15 2 35t1 40.5t-1 40.5t-2 35q-2 33 -14.5 60.5t-34.5 48t-52.5 31.5t-67.5 11zM214 592q-7 -4 -13 -4q-8 0 -13.5 5.5t-5.5 13.5q0 6 3 9.5t5 5.5
l81 60q12 9 24 9t24 -9l81 -60q2 -2 5 -5.5t3 -9.5q0 -8 -5.5 -13.5t-13.5 -5.5q-6 0 -13 4l-81 60z" />
    <glyph glyph-name="otilde" unicode="&#xf5;" horiz-adv-x="591" 
d="M296 522q44 0 81 -14t65 -39.5t44 -61t18 -78.5q2 -30 2 -70t-2 -70q-2 -43 -18 -79t-44 -62.5t-65 -41.5t-81 -15t-82 15t-65.5 41.5t-44 62.5t-17.5 79q-2 30 -2 70t2 70q1 43 17.5 78.5t44 61t65.5 39.5t82 14zM296 485q-38 0 -68.5 -11t-52.5 -31.5t-34.5 -48
t-14.5 -60.5q-1 -15 -1.5 -34.5t-0.5 -40.5t0.5 -41t1.5 -35q6 -70 51.5 -112.5t118.5 -42.5q72 0 117.5 42.5t51.5 112.5q1 15 2 35t1 40.5t-1 40.5t-2 35q-2 33 -14.5 60.5t-34.5 48t-52.5 31.5t-67.5 11zM348 633q9 0 16.5 3.5t14 8t12.5 8.5t12 4q7 0 12.5 -4.5
t5.5 -12.5q0 -11 -11 -19q-14 -10 -30 -17.5t-33 -7.5t-31.5 6t-26.5 12.5t-23 12.5t-21 6q-9 0 -16 -4t-13 -8.5t-11.5 -8.5t-12.5 -4q-9 0 -14 5.5t-5 12.5q0 6 2.5 10t5.5 7q14 11 31 19t34 8t30.5 -6t25.5 -12.5t23 -12.5t23 -6z" />
    <glyph glyph-name="odieresis" unicode="&#xf6;" horiz-adv-x="591" 
d="M296 522q44 0 81 -14t65 -39.5t44 -61t18 -78.5q2 -30 2 -70t-2 -70q-2 -43 -18 -79t-44 -62.5t-65 -41.5t-81 -15t-82 15t-65.5 41.5t-44 62.5t-17.5 79q-2 30 -2 70t2 70q1 43 17.5 78.5t44 61t65.5 39.5t82 14zM296 485q-38 0 -68.5 -11t-52.5 -31.5t-34.5 -48
t-14.5 -60.5q-1 -15 -1.5 -34.5t-0.5 -40.5t0.5 -41t1.5 -35q6 -70 51.5 -112.5t118.5 -42.5q72 0 117.5 42.5t51.5 112.5q1 15 2 35t1 40.5t-1 40.5t-2 35q-2 33 -14.5 60.5t-34.5 48t-52.5 31.5t-67.5 11zM225 662q13 0 21.5 -8.5t8.5 -20.5q0 -13 -8.5 -21.5t-21.5 -8.5
q-12 0 -20.5 8.5t-8.5 21.5q0 12 8.5 20.5t20.5 8.5zM367 662q12 0 20.5 -8.5t8.5 -20.5q0 -13 -8.5 -21.5t-20.5 -8.5q-13 0 -21.5 8.5t-8.5 21.5q0 12 8.5 20.5t21.5 8.5z" />
    <glyph glyph-name="divide" unicode="&#xf7;" horiz-adv-x="628" 
d="M279 519q0 14 10.5 24t24.5 10t24.5 -10t10.5 -24t-10.5 -24.5t-24.5 -10.5t-24.5 10.5t-10.5 24.5zM279 182q0 14 10.5 24.5t24.5 10.5t24.5 -10.5t10.5 -24.5t-10.5 -24.5t-24.5 -10.5t-24.5 10.5t-10.5 24.5zM81 332q-9 0 -15 5t-6 13q0 9 6 14t15 5h465q9 0 15.5 -5
t6.5 -14q0 -8 -7 -13t-15 -5h-465z" />
    <glyph glyph-name="oslash" unicode="&#xf8;" horiz-adv-x="589" 
d="M295 522q46 0 85 -15.5t67 -43.5l38 44q8 9 20.5 6.5t12.5 -15.5q0 -7 -5 -14l-43 -50q14 -22 22.5 -48.5t10.5 -56.5t2 -70t-2 -70q-2 -43 -18 -79t-44 -62.5t-65 -41.5t-81 -15q-48 0 -87 16.5t-67 46.5l-37 -43q-14 -15 -27 -5q-7 5 -6.5 13t5.5 14l42 49
q-14 23 -22.5 50t-9.5 57q-2 30 -2 70t2 70q1 43 17.5 78.5t44 61t65.5 39.5t82 14zM467 252q0 48 -3 84.5t-20 67.5l-279 -322q23 -26 55.5 -40t74.5 -14q72 0 117.5 42.5t51.5 112.5q2 14 2.5 31.5t0.5 37.5zM295 485q-38 0 -68.5 -11t-52.5 -31.5t-34.5 -48t-14.5 -60.5
q-1 -17 -1.5 -39t-0.5 -45q0 -45 3.5 -76.5t17.5 -60.5l278 322q-22 23 -54 36.5t-73 13.5z" />
    <glyph glyph-name="ugrave" unicode="&#xf9;" 
d="M100 496q0 8 6 13.5t13 5.5q8 0 13 -5.5t5 -13.5v-313q0 -36 12.5 -65t34 -49t52 -30.5t66.5 -10.5q60 0 101 16.5t70 36.5v414q0 8 5 14t13 6t13.5 -6t5.5 -14v-419q0 -16 -13 -24q-11 -7 -28.5 -17.5t-41.5 -20t-54.5 -16.5t-68.5 -7q-43 0 -80.5 12.5t-65 37t-43 60.5
t-15.5 82v313zM246 661q-12 6 -12 18q0 8 5.5 13t12.5 5q6 0 12 -3l135 -69q12 -6 12 -18q0 -8 -5.5 -13t-12.5 -5q-6 0 -12 3z" />
    <glyph glyph-name="uacute" unicode="&#xfa;" 
d="M100 496q0 8 6 13.5t13 5.5q8 0 13 -5.5t5 -13.5v-313q0 -36 12.5 -65t34 -49t52 -30.5t66.5 -10.5q60 0 101 16.5t70 36.5v414q0 8 5 14t13 6t13.5 -6t5.5 -14v-419q0 -16 -13 -24q-11 -7 -28.5 -17.5t-41.5 -20t-54.5 -16.5t-68.5 -7q-43 0 -80.5 12.5t-65 37t-43 60.5
t-15.5 82v313zM239 592q-6 -3 -12 -3q-7 0 -12.5 5t-5.5 13q0 12 12 18l135 69q6 3 12 3q7 0 12.5 -5t5.5 -13q0 -12 -12 -18z" />
    <glyph glyph-name="ucircumflex" unicode="&#xfb;" 
d="M100 496q0 8 6 13.5t13 5.5q8 0 13 -5.5t5 -13.5v-313q0 -36 12.5 -65t34 -49t52 -30.5t66.5 -10.5q60 0 101 16.5t70 36.5v414q0 8 5 14t13 6t13.5 -6t5.5 -14v-419q0 -16 -13 -24q-11 -7 -28.5 -17.5t-41.5 -20t-54.5 -16.5t-68.5 -7q-43 0 -80.5 12.5t-65 37t-43 60.5
t-15.5 82v313zM231 593q-7 -4 -13 -4q-8 0 -13.5 5.5t-5.5 13.5q0 6 3 9.5t5 5.5l81 60q12 9 24 9t24 -9l81 -60q2 -2 5 -5.5t3 -9.5q0 -8 -5.5 -13.5t-13.5 -5.5q-6 0 -13 4l-81 60z" />
    <glyph glyph-name="udieresis" unicode="&#xfc;" 
d="M100 496q0 8 6 13.5t13 5.5q8 0 13 -5.5t5 -13.5v-313q0 -36 12.5 -65t34 -49t52 -30.5t66.5 -10.5q60 0 101 16.5t70 36.5v414q0 8 5 14t13 6t13.5 -6t5.5 -14v-419q0 -16 -13 -24q-11 -7 -28.5 -17.5t-41.5 -20t-54.5 -16.5t-68.5 -7q-43 0 -80.5 12.5t-65 37t-43 60.5
t-15.5 82v313zM239 662q13 0 21.5 -8.5t8.5 -20.5q0 -13 -8.5 -21.5t-21.5 -8.5q-12 0 -20.5 8.5t-8.5 21.5q0 12 8.5 20.5t20.5 8.5zM381 662q12 0 20.5 -8.5t8.5 -20.5q0 -13 -8.5 -21.5t-20.5 -8.5q-13 0 -21.5 8.5t-8.5 21.5q0 12 8.5 20.5t21.5 8.5z" />
    <glyph glyph-name="yacute" unicode="&#xfd;" horiz-adv-x="492" 
d="M32 486q-4 11 1 19t15 8q8 0 12.5 -4t6.5 -9l183 -412q3 -6 6 -6q2 0 5 6l167 411q3 6 6.5 10t11.5 4q9 0 14 -8t2 -16l-190 -474q-13 -33 -30 -63t-36 -55.5t-39 -45t-39 -29.5q-8 -4 -12 -5t-9 -1t-11.5 4t-6.5 14q0 11 12 17q38 19 73.5 62t62.5 116zM232 593
q-6 -3 -12 -3q-7 0 -12.5 5t-5.5 13q0 12 12 18l135 69q6 3 12 3q7 0 12.5 -5t5.5 -13q0 -12 -12 -18z" />
    <glyph glyph-name="thorn" unicode="&#xfe;" horiz-adv-x="602" 
d="M145 70q11 -6 29 -13.5t40.5 -14t47.5 -10.5t51 -4q81 0 118.5 39.5t42.5 109.5q1 13 2 34t1 43t-1 43t-2 35q-5 70 -42.5 109.5t-118.5 39.5q-26 0 -51 -4t-47.5 -10.5t-40.5 -14t-29 -13.5v-369zM108 685q0 9 5.5 15t13.5 6t13 -6t5 -15v-206q31 14 74 26.5t93 12.5
q92 0 142.5 -49.5t58.5 -143.5q1 -13 1.5 -31.5t0.5 -38.5t-0.5 -39t-1.5 -32q-8 -94 -58.5 -143.5t-142.5 -49.5q-50 0 -93 12.5t-74 26.5v-201q0 -9 -5 -15t-13 -6t-13.5 6t-5.5 15v856z" />
    <glyph glyph-name="ydieresis" unicode="&#xff;" horiz-adv-x="492" 
d="M32 486q-4 11 1 19t15 8q8 0 12.5 -4t6.5 -9l183 -412q3 -6 6 -6q2 0 5 6l167 411q3 6 6.5 10t11.5 4q9 0 14 -8t2 -16l-190 -474q-13 -33 -30 -63t-36 -55.5t-39 -45t-39 -29.5q-8 -4 -12 -5t-9 -1t-11.5 4t-6.5 14q0 11 12 17q38 19 73.5 62t62.5 116zM183 662
q13 0 21.5 -8.5t8.5 -20.5q0 -13 -8.5 -21.5t-21.5 -8.5q-12 0 -20.5 8.5t-8.5 21.5q0 12 8.5 20.5t20.5 8.5zM325 662q12 0 20.5 -8.5t8.5 -20.5q0 -13 -8.5 -21.5t-20.5 -8.5q-13 0 -21.5 8.5t-8.5 21.5q0 12 8.5 20.5t21.5 8.5z" />
    <glyph glyph-name="Amacron" unicode="&#x100;" horiz-adv-x="663" 
d="M631 27q3 -10 -2 -18.5t-16 -8.5q-12 0 -17 13l-91 250h-348l-91 -250q-5 -12 -18 -12q-11 0 -15.5 8.5t-1.5 17.5l226 618q11 29 28.5 45.5t45.5 16.5q27 0 45 -16.5t29 -45.5zM171 300h320l-125 343q-10 28 -35 28q-15 0 -22.5 -7.5t-12.5 -20.5zM416 813q8 0 13 -5
t5 -13t-5 -13t-13 -5h-170q-8 0 -13.5 5t-5.5 13t5.5 13t13.5 5h170z" />
    <glyph glyph-name="amacron" unicode="&#x101;" horiz-adv-x="566" 
d="M469 70q0 -7 -2 -12t-9 -10q-26 -19 -73 -38t-115 -19q-97 0 -147 44t-50 121q0 68 50.5 111t140.5 43q70 0 168 -27v65q0 72 -38.5 104.5t-111.5 32.5q-38 0 -74.5 -10t-63.5 -23q-11 -5 -20.5 0.5t-9.5 16.5q0 12 12 19q24 13 67 23.5t89 10.5q85 0 136 -40.5
t51 -132.5v-279zM270 28q60 0 101 16.5t61 33.5v167q-49 14 -87 21t-82 7q-69 0 -111 -31t-42 -86q0 -60 38.5 -94t121.5 -34zM369 651q8 0 13 -5t5 -13t-5 -13t-13 -5h-170q-8 0 -13.5 5t-5.5 13t5.5 13t13.5 5h170z" />
    <glyph glyph-name="Abreve" unicode="&#x102;" horiz-adv-x="663" 
d="M631 27q3 -10 -2 -18.5t-16 -8.5q-12 0 -17 13l-91 250h-348l-91 -250q-5 -12 -18 -12q-11 0 -15.5 8.5t-1.5 17.5l226 618q11 29 28.5 45.5t45.5 16.5q27 0 45 -16.5t29 -45.5zM171 300h320l-125 343q-10 28 -35 28q-15 0 -22.5 -7.5t-12.5 -20.5zM397 844q3 17 18 17
q8 0 13 -5t5 -14q0 -8 -3 -17q-9 -29 -37 -50t-64 -21t-64 21t-37 50q-3 9 -3 17q0 9 5 14t13 5q15 0 18 -17q5 -23 23.5 -37.5t44.5 -14.5t44.5 14t23.5 38z" />
    <glyph glyph-name="abreve" unicode="&#x103;" horiz-adv-x="566" 
d="M469 70q0 -7 -2 -12t-9 -10q-26 -19 -73 -38t-115 -19q-97 0 -147 44t-50 121q0 68 50.5 111t140.5 43q70 0 168 -27v65q0 72 -38.5 104.5t-111.5 32.5q-38 0 -74.5 -10t-63.5 -23q-11 -5 -20.5 0.5t-9.5 16.5q0 12 12 19q24 13 67 23.5t89 10.5q85 0 136 -40.5
t51 -132.5v-279zM270 28q60 0 101 16.5t61 33.5v167q-49 14 -87 21t-82 7q-69 0 -111 -31t-42 -86q0 -60 38.5 -94t121.5 -34zM354 680q3 17 18 17q8 0 13 -5t5 -14q0 -8 -3 -17q-9 -29 -37 -50t-64 -21t-64 21t-37 50q-3 9 -3 17q0 9 5 14t13 5q15 0 18 -17
q5 -23 23.5 -37.5t44.5 -14.5t44.5 14t23.5 38z" />
    <glyph glyph-name="Aogonek" unicode="&#x104;" horiz-adv-x="663" 
d="M642 -136q7 0 12.5 -4.5t5.5 -12.5q0 -11 -11 -19q-17 -12 -34.5 -17t-34.5 -5q-18 0 -35 6.5t-30.5 19t-21.5 30t-8 38.5q0 38 26.5 72t78.5 56l-85 235h-348l-91 -250q-5 -13 -19 -13q-8 0 -14.5 8t-1.5 19l226 618q11 29 28.5 45.5t45.5 16.5q27 0 45 -16.5t29 -45.5
l225 -614q2 -6 2 -9q0 -9 -5 -14.5t-10 -7.5q-51 -22 -72.5 -47.5t-21.5 -52.5q0 -28 18 -42.5t39 -14.5q25 0 47 16q5 5 15 5zM171 300h320l-125 343q-10 28 -35 28q-15 0 -22.5 -7.5t-12.5 -20.5z" />
    <glyph glyph-name="aogonek" unicode="&#x105;" horiz-adv-x="566" 
d="M451 -109q7 0 12.5 -4.5t5.5 -12.5q0 -11 -11 -19q-17 -12 -34.5 -17t-34.5 -5q-18 0 -35 6.5t-30.5 19t-21.5 30t-8 38.5q0 37 23 67q-23 -3 -47 -3q-97 0 -147 44t-50 121q0 68 50.5 111t140.5 43q70 0 168 -27v65q0 72 -38.5 104.5t-111.5 32.5q-38 0 -74.5 -10
t-63.5 -23q-11 -5 -20.5 0.5t-9.5 16.5q0 12 12 19q24 13 67 23.5t89 10.5q85 0 136 -40.5t51 -132.5v-279q0 -7 -2 -12t-9 -10q-12 -9 -24.5 -15t-32.5 -16q-32 -16 -50.5 -40.5t-18.5 -49.5q0 -28 18 -42.5t39 -14.5q25 0 47 16q5 5 15 5zM270 28q60 0 101 16.5t61 33.5
v167q-49 14 -87 21t-82 7q-69 0 -111 -31t-42 -86q0 -60 38.5 -94t121.5 -34z" />
    <glyph glyph-name="Cacute" unicode="&#x106;" horiz-adv-x="658" 
d="M355 28q36 0 69 10.5t60.5 30t48.5 46t33 58.5q2 6 6.5 10.5t12.5 4.5q7 0 12.5 -5t5.5 -13q0 -7 -5 -18q-15 -34 -39.5 -63.5t-56 -51t-69 -33.5t-79.5 -12q-57 0 -105.5 21t-84.5 57t-57.5 85.5t-25.5 106.5q-3 40 -3 81q0 45 3 95q4 55 25.5 104t57.5 85.5t84.5 57.5
t106.5 21q41 0 78.5 -12t69 -33.5t56 -51t39.5 -63.5q5 -11 5 -18q0 -8 -5.5 -13t-12.5 -5q-8 0 -12.5 4.5t-6.5 10.5q-12 32 -33 58.5t-48.5 46t-60.5 30t-69 10.5q-48 0 -89 -17.5t-72.5 -48.5t-51 -73.5t-23.5 -92.5q-7 -88 0 -176q4 -50 23 -93t49.5 -74.5t72 -49
t91.5 -17.5zM314 756q-6 -3 -12 -3q-7 0 -12.5 5t-5.5 13q0 12 12 18l135 69q6 3 12 3q7 0 12.5 -5t5.5 -13q0 -12 -12 -18z" />
    <glyph glyph-name="cacute" unicode="&#x107;" horiz-adv-x="556" 
d="M300 28q23 0 46 6t43 19.5t36 33.5t25 49q4 18 20 18q6 0 12 -5t6 -14q0 -14 -11 -38t-33.5 -47.5t-58.5 -41t-85 -17.5q-48 0 -86.5 15t-66 41.5t-43 62.5t-16.5 78q-2 30 -2 70.5t2 70.5q2 43 18 79t43.5 61.5t66 40t84.5 14.5q49 0 85 -17.5t58.5 -41t33.5 -48
t11 -37.5q0 -9 -6 -14t-12 -5q-16 0 -20 18q-9 28 -25 48.5t-36 34t-43 19.5t-46 6q-76 0 -122.5 -42.5t-51.5 -112.5q-1 -12 -1.5 -31.5t-0.5 -41t0.5 -42t1.5 -33.5q2 -33 14.5 -61.5t34.5 -49.5t53 -33t72 -12zM247 592q-6 -3 -12 -3q-7 0 -12.5 5t-5.5 13q0 12 12 18
l135 69q6 3 12 3q7 0 12.5 -5t5.5 -13q0 -12 -12 -18z" />
    <glyph glyph-name="Cdotaccent" unicode="&#x10a;" horiz-adv-x="658" 
d="M355 28q36 0 69 10.5t60.5 30t48.5 46t33 58.5q2 6 6.5 10.5t12.5 4.5q7 0 12.5 -5t5.5 -13q0 -7 -5 -18q-15 -34 -39.5 -63.5t-56 -51t-69 -33.5t-79.5 -12q-57 0 -105.5 21t-84.5 57t-57.5 85.5t-25.5 106.5q-3 40 -3 81q0 45 3 95q4 55 25.5 104t57.5 85.5t84.5 57.5
t106.5 21q41 0 78.5 -12t69 -33.5t56 -51t39.5 -63.5q5 -11 5 -18q0 -8 -5.5 -13t-12.5 -5q-8 0 -12.5 4.5t-6.5 10.5q-12 32 -33 58.5t-48.5 46t-60.5 30t-69 10.5q-48 0 -89 -17.5t-72.5 -48.5t-51 -73.5t-23.5 -92.5q-7 -88 0 -176q4 -50 23 -93t49.5 -74.5t72 -49
t91.5 -17.5zM355 823q13 0 21.5 -8.5t8.5 -20.5q0 -13 -8.5 -21.5t-21.5 -8.5t-21.5 8.5t-8.5 21.5q0 12 8.5 20.5t21.5 8.5z" />
    <glyph glyph-name="cdotaccent" unicode="&#x10b;" horiz-adv-x="556" 
d="M300 28q23 0 46 6t43 19.5t36 33.5t25 49q4 18 20 18q6 0 12 -5t6 -14q0 -14 -11 -38t-33.5 -47.5t-58.5 -41t-85 -17.5q-48 0 -86.5 15t-66 41.5t-43 62.5t-16.5 78q-2 30 -2 70.5t2 70.5q2 43 18 79t43.5 61.5t66 40t84.5 14.5q49 0 85 -17.5t58.5 -41t33.5 -48
t11 -37.5q0 -9 -6 -14t-12 -5q-16 0 -20 18q-9 28 -25 48.5t-36 34t-43 19.5t-46 6q-76 0 -122.5 -42.5t-51.5 -112.5q-1 -12 -1.5 -31.5t-0.5 -41t0.5 -42t1.5 -33.5q2 -33 14.5 -61.5t34.5 -49.5t53 -33t72 -12zM296 662q13 0 21.5 -8.5t8.5 -20.5q0 -13 -8.5 -21.5
t-21.5 -8.5t-21.5 8.5t-8.5 21.5q0 12 8.5 20.5t21.5 8.5z" />
    <glyph glyph-name="Ccaron" unicode="&#x10c;" horiz-adv-x="658" 
d="M355 28q36 0 69 10.5t60.5 30t48.5 46t33 58.5q2 6 6.5 10.5t12.5 4.5q7 0 12.5 -5t5.5 -13q0 -7 -5 -18q-15 -34 -39.5 -63.5t-56 -51t-69 -33.5t-79.5 -12q-57 0 -105.5 21t-84.5 57t-57.5 85.5t-25.5 106.5q-3 40 -3 81q0 45 3 95q4 55 25.5 104t57.5 85.5t84.5 57.5
t106.5 21q41 0 78.5 -12t69 -33.5t56 -51t39.5 -63.5q5 -11 5 -18q0 -8 -5.5 -13t-12.5 -5q-8 0 -12.5 4.5t-6.5 10.5q-12 32 -33 58.5t-48.5 46t-60.5 30t-69 10.5q-48 0 -89 -17.5t-72.5 -48.5t-51 -73.5t-23.5 -92.5q-7 -88 0 -176q4 -50 23 -93t49.5 -74.5t72 -49
t91.5 -17.5zM346 790l81 60q7 4 13 4q8 0 13.5 -5.5t5.5 -13.5q0 -6 -3 -9.5t-5 -5.5l-81 -60q-12 -9 -24 -9t-24 9l-81 60q-2 2 -5 5.5t-3 9.5q0 8 5.5 13.5t13.5 5.5q6 0 13 -4z" />
    <glyph glyph-name="ccaron" unicode="&#x10d;" horiz-adv-x="556" 
d="M300 28q23 0 46 6t43 19.5t36 33.5t25 49q4 18 20 18q6 0 12 -5t6 -14q0 -14 -11 -38t-33.5 -47.5t-58.5 -41t-85 -17.5q-48 0 -86.5 15t-66 41.5t-43 62.5t-16.5 78q-2 30 -2 70.5t2 70.5q2 43 18 79t43.5 61.5t66 40t84.5 14.5q49 0 85 -17.5t58.5 -41t33.5 -48
t11 -37.5q0 -9 -6 -14t-12 -5q-16 0 -20 18q-9 28 -25 48.5t-36 34t-43 19.5t-46 6q-76 0 -122.5 -42.5t-51.5 -112.5q-1 -12 -1.5 -31.5t-0.5 -41t0.5 -42t1.5 -33.5q2 -33 14.5 -61.5t34.5 -49.5t53 -33t72 -12zM294 627l81 60q7 4 13 4q8 0 13.5 -5.5t5.5 -13.5
q0 -6 -3 -9.5t-5 -5.5l-81 -60q-12 -9 -24 -9t-24 9l-81 60q-2 2 -5 5.5t-3 9.5q0 8 5.5 13.5t13.5 5.5q6 0 13 -4z" />
    <glyph glyph-name="Dcaron" unicode="&#x10e;" horiz-adv-x="720" 
d="M602 290q2 26 2 60t-2 60q-3 56 -20.5 102t-50 79t-81 51t-113.5 18h-182v-623h182q66 0 114.5 18.5t81 51.5t49.5 79.5t20 103.5zM154 0q-18 0 -27 11t-9 26v623q0 16 9.5 26.5t26.5 10.5h186q72 0 126.5 -22.5t92 -62t57.5 -93.5t23 -118q1 -26 1 -55.5t-2 -54.5
q-3 -62 -23.5 -115.5t-58 -92.5t-92 -61t-124.5 -22h-186zM349 790l81 60q7 4 13 4q8 0 13.5 -5.5t5.5 -13.5q0 -6 -3 -9.5t-5 -5.5l-81 -60q-12 -9 -24 -9t-24 9l-81 60q-2 2 -5 5.5t-3 9.5q0 8 5.5 13.5t13.5 5.5q6 0 13 -4z" />
    <glyph glyph-name="dcaron" unicode="&#x10f;" horiz-adv-x="578" 
d="M88 329q8 94 58.5 143.5t142.5 49.5q50 0 93 -12.5t74 -26.5v201q0 9 5 15t13 6t13.5 -6t5.5 -15v-612q0 -5 -1 -11t-9 -11q-8 -6 -27 -15.5t-44.5 -19.5t-56 -17t-60.5 -7q-97 0 -148 51.5t-59 145.5q-1 13 -1.5 31.5t-0.5 38.5t0.5 38.5t1.5 32.5zM127 181
q8 -75 48.5 -114t119.5 -39q22 0 46 5t46 12.5t40.5 16t28.5 15.5v366q-11 6 -29 13.5t-40.5 14t-48 10.5t-50.5 4q-81 0 -118.5 -39.5t-42.5 -109.5q-1 -14 -2 -34.5t-1 -42.5t0.5 -43t2.5 -35zM624 635q0 -33 -9 -53.5t-17 -33.5q-2 -3 -6.5 -6.5t-10.5 -3.5q-8 0 -13 5.5
t-5 12.5q0 5 1.5 7.5t2.5 4.5q10 19 15 32.5t5 39.5v39q0 8 5 13.5t13 5.5t13.5 -5.5t5.5 -13.5v-44z" />
    <glyph glyph-name="Dcroat" unicode="&#x110;" horiz-adv-x="720" 
d="M154 0q-18 0 -27 11t-9 26v289h-88q-8 0 -14 5t-6 13q0 9 6 14t14 5h88v297q0 16 9.5 26.5t26.5 10.5h186q72 0 126.5 -22.5t92 -62t57.5 -93.5t23 -118q1 -26 1 -55.5t-2 -54.5q-3 -62 -23.5 -115.5t-58 -92.5t-92 -61t-124.5 -22h-186zM602 290q2 26 2 60t-2 60
q-3 56 -20.5 102t-50 79t-81 51t-113.5 18h-182v-297h197q8 0 14 -5.5t6 -13.5t-6 -13t-14 -5h-197v-289h182q66 0 114.5 18.5t81 51.5t49.5 79.5t20 103.5z" />
    <glyph glyph-name="dcroat" unicode="&#x111;" horiz-adv-x="600" 
d="M88 329q8 94 58.5 143.5t142.5 49.5q50 0 93 -12.5t74 -26.5v104h-121q-8 0 -14 5t-6 13q0 9 6 14t14 5h121v60q0 9 5 15t13 6t13.5 -6t5.5 -15v-60h39q8 0 14 -5.5t6 -13.5t-6 -13t-14 -5h-39v-515q0 -5 -1 -11t-9 -11q-8 -6 -27 -15.5t-44.5 -19.5t-56 -17t-60.5 -7
q-97 0 -148 51.5t-59 145.5q-1 13 -1.5 31.5t-0.5 38.5t0.5 38.5t1.5 32.5zM127 181q8 -75 48.5 -114t119.5 -39q22 0 46 5t46 12.5t40.5 16t28.5 15.5v366q-11 6 -29 13.5t-40.5 14t-48 10.5t-50.5 4q-81 0 -118.5 -39.5t-42.5 -109.5q-1 -14 -2 -34.5t-1 -42.5t0.5 -43
t2.5 -35z" />
    <glyph glyph-name="Emacron" unicode="&#x112;" horiz-adv-x="622" 
d="M522 697q19 0 19 -19q0 -8 -5.5 -13t-13.5 -5h-367v-290h359q8 0 13.5 -5t5.5 -13t-5.5 -13.5t-13.5 -5.5h-359v-296h369q8 0 13.5 -5.5t5.5 -13.5t-5.5 -13t-13.5 -5h-369q-19 0 -28 10.5t-9 26.5v623q0 15 9 26t28 11h367zM421 813q8 0 13 -5t5 -13t-5 -13t-13 -5h-170
q-8 0 -13.5 5t-5.5 13t5.5 13t13.5 5h170z" />
    <glyph glyph-name="emacron" unicode="&#x113;" horiz-adv-x="574" 
d="M500 289q0 -22 -12.5 -35.5t-39.5 -13.5h-325v-27q0 -88 49 -136.5t129 -48.5q27 0 61 6t77 24q4 2 10 2q8 0 13 -5.5t5 -12.5q0 -5 -3 -10t-9 -8q-12 -6 -30 -12t-39 -10.5t-42.5 -7.5t-40.5 -3q-105 0 -159 59.5t-58 158.5q-1 27 -0.5 57.5t2.5 53.5q3 48 19.5 85.5
t44 63.5t65 39.5t81.5 13.5q46 0 83.5 -16t64 -43.5t40.5 -65.5t14 -81v-27zM447 277q15 0 16 16q2 45 -9 81t-32.5 60.5t-53 37.5t-70.5 13q-90 0 -133.5 -54t-41.5 -154h324zM372 652q8 0 13 -5t5 -13t-5 -13t-13 -5h-170q-8 0 -13.5 5t-5.5 13t5.5 13t13.5 5h170z" />
    <glyph glyph-name="Edotaccent" unicode="&#x116;" horiz-adv-x="622" 
d="M522 697q19 0 19 -19q0 -8 -5.5 -13t-13.5 -5h-367v-290h359q8 0 13.5 -5t5.5 -13t-5.5 -13.5t-13.5 -5.5h-359v-296h369q8 0 13.5 -5.5t5.5 -13.5t-5.5 -13t-13.5 -5h-369q-19 0 -28 10.5t-9 26.5v623q0 15 9 26t28 11h367zM348 823q13 0 21.5 -8.5t8.5 -20.5
q0 -13 -8.5 -21.5t-21.5 -8.5t-21.5 8.5t-8.5 21.5q0 12 8.5 20.5t21.5 8.5z" />
    <glyph glyph-name="edotaccent" unicode="&#x117;" horiz-adv-x="574" 
d="M500 289q0 -22 -12.5 -35.5t-39.5 -13.5h-325v-27q0 -88 49 -136.5t129 -48.5q27 0 61 6t77 24q4 2 10 2q8 0 13 -5.5t5 -12.5q0 -5 -3 -10t-9 -8q-12 -6 -30 -12t-39 -10.5t-42.5 -7.5t-40.5 -3q-105 0 -159 59.5t-58 158.5q-1 27 -0.5 57.5t2.5 53.5q3 48 19.5 85.5
t44 63.5t65 39.5t81.5 13.5q46 0 83.5 -16t64 -43.5t40.5 -65.5t14 -81v-27zM447 277q15 0 16 16q2 45 -9 81t-32.5 60.5t-53 37.5t-70.5 13q-90 0 -133.5 -54t-41.5 -154h324zM299 661q13 0 21.5 -8.5t8.5 -20.5q0 -13 -8.5 -21.5t-21.5 -8.5t-21.5 8.5t-8.5 21.5
q0 12 8.5 20.5t21.5 8.5z" />
    <glyph glyph-name="Eogonek" unicode="&#x118;" horiz-adv-x="622" 
d="M553 -136q7 0 12.5 -4.5t5.5 -12.5q0 -11 -11 -19q-17 -12 -34.5 -17t-34.5 -5q-18 0 -35 6.5t-30.5 19t-21.5 30t-8 38.5q0 27 14.5 53.5t46.5 46.5h-302q-19 0 -28 10.5t-9 26.5v623q0 15 9 26t28 11h367q19 0 19 -19q0 -8 -5.5 -13t-13.5 -5h-367v-290h359
q8 0 13.5 -5t5.5 -13t-5.5 -13.5t-13.5 -5.5h-359v-296h369q8 0 13.5 -5.5t5.5 -13.5q0 -13 -11 -16q-53 -18 -75.5 -46.5t-22.5 -55.5q0 -28 18 -42.5t39 -14.5q25 0 47 16q5 5 15 5z" />
    <glyph glyph-name="eogonek" unicode="&#x119;" horiz-adv-x="574" 
d="M500 289q0 -22 -12.5 -35.5t-39.5 -13.5h-325v-27q0 -88 49 -136.5t129 -48.5q27 0 61 6t77 24q4 2 10 2q8 0 13 -5.5t5 -12.5q0 -5 -3 -10t-9 -8q-12 -6 -30 -12t-39 -10.5t-42.5 -7.5t-40.5 -3q-105 0 -159 59.5t-58 158.5q-1 27 -0.5 57.5t2.5 53.5q3 48 19.5 85.5
t44 63.5t65 39.5t81.5 13.5q46 0 83.5 -16t64 -43.5t40.5 -65.5t14 -81v-27zM447 277q15 0 16 16q2 45 -9 81t-32.5 60.5t-53 37.5t-70.5 13q-90 0 -133.5 -54t-41.5 -154h324zM461 -120q7 0 12.5 -4.5t5.5 -12.5q0 -11 -11 -19q-17 -12 -34.5 -17t-34.5 -5q-18 0 -35 6.5
t-30.5 19t-21.5 30t-8 38.5q0 39 29.5 74.5t87.5 58.5q9 4 19.5 2t10.5 -16q0 -5 -3 -10.5t-12 -8.5q-50 -18 -72 -45.5t-22 -54.5q0 -28 18 -42.5t39 -14.5q25 0 47 16q5 5 15 5z" />
    <glyph glyph-name="Ecaron" unicode="&#x11a;" horiz-adv-x="622" 
d="M522 697q19 0 19 -19q0 -8 -5.5 -13t-13.5 -5h-367v-290h359q8 0 13.5 -5t5.5 -13t-5.5 -13.5t-13.5 -5.5h-359v-296h369q8 0 13.5 -5.5t5.5 -13.5t-5.5 -13t-13.5 -5h-369q-19 0 -28 10.5t-9 26.5v623q0 15 9 26t28 11h367zM345 790l81 60q7 4 13 4q8 0 13.5 -5.5
t5.5 -13.5q0 -6 -3 -9.5t-5 -5.5l-81 -60q-12 -9 -24 -9t-24 9l-81 60q-2 2 -5 5.5t-3 9.5q0 8 5.5 13.5t13.5 5.5q6 0 13 -4z" />
    <glyph glyph-name="ecaron" unicode="&#x11b;" horiz-adv-x="574" 
d="M500 289q0 -22 -12.5 -35.5t-39.5 -13.5h-325v-27q0 -88 49 -136.5t129 -48.5q27 0 61 6t77 24q4 2 10 2q8 0 13 -5.5t5 -12.5q0 -5 -3 -10t-9 -8q-12 -6 -30 -12t-39 -10.5t-42.5 -7.5t-40.5 -3q-105 0 -159 59.5t-58 158.5q-1 27 -0.5 57.5t2.5 53.5q3 48 19.5 85.5
t44 63.5t65 39.5t81.5 13.5q46 0 83.5 -16t64 -43.5t40.5 -65.5t14 -81v-27zM447 277q15 0 16 16q2 45 -9 81t-32.5 60.5t-53 37.5t-70.5 13q-90 0 -133.5 -54t-41.5 -154h324zM293 626l81 60q7 4 13 4q8 0 13.5 -5.5t5.5 -13.5q0 -6 -3 -9.5t-5 -5.5l-81 -60q-12 -9 -24 -9
t-24 9l-81 60q-2 2 -5 5.5t-3 9.5q0 8 5.5 13.5t13.5 5.5q6 0 13 -4z" />
    <glyph glyph-name="Gbreve" unicode="&#x11e;" horiz-adv-x="702" 
d="M620 234q0 -45 -17.5 -88.5t-51 -77.5t-82 -55t-109.5 -21q-58 0 -107 21t-85.5 58t-59 87.5t-26.5 109.5q-6 81 0 163q4 58 26.5 108t58.5 87t84.5 58.5t104.5 21.5q87 0 150.5 -39t97.5 -115q3 -7 4 -11.5t1 -6.5q0 -8 -5.5 -13t-12.5 -5q-8 0 -12.5 4.5t-6.5 10.5
q-12 33 -34 59t-50.5 43.5t-62 27t-69.5 9.5q-47 0 -88 -18t-72.5 -49.5t-51.5 -73.5t-24 -91q-7 -88 0 -175q4 -50 23.5 -92.5t51 -74t73 -49.5t89.5 -18q47 0 88.5 14t72 40t48 63t17.5 82v89h-186q-8 0 -14 5.5t-6 13.5t6 13.5t14 5.5h184q20 0 29.5 -11t9.5 -28v-82z
M430 844q3 17 18 17q8 0 13 -5t5 -14q0 -8 -3 -17q-9 -29 -37 -50t-64 -21t-64 21t-37 50q-3 9 -3 17q0 9 5 14t13 5q15 0 18 -17q5 -23 23.5 -37.5t44.5 -14.5t44.5 14t23.5 38z" />
    <glyph glyph-name="gbreve" unicode="&#x11f;" horiz-adv-x="600" 
d="M492 42q0 -47 -13 -87.5t-38.5 -70t-63 -46.5t-86.5 -17q-59 0 -100.5 16t-63.5 30q-18 12 -18 23q0 19 19 19q5 0 11 -3t11 -7q28 -20 65 -31t75 -11q37 0 67 13t52 36.5t34 56.5t12 74v8q-32 -17 -73 -30t-91 -13q-94 0 -146.5 53t-58.5 146q-1 11 -1.5 27.5t-0.5 34.5
t0.5 34.5t1.5 27.5q6 96 59.5 146.5t148.5 50.5q28 0 55 -4t51 -11t43.5 -15t32.5 -17q9 -6 12.5 -12t3.5 -17v-404zM292 485q-43 0 -73 -11t-50 -31t-31 -48t-14 -62q-2 -14 -2.5 -32.5t-0.5 -37.5t1 -37t2 -32q3 -33 13 -61.5t30 -49.5t51 -32.5t75 -11.5q62 0 103 18
t59 33v354q-21 14 -65.5 27.5t-97.5 13.5zM366 680q3 17 18 17q8 0 13 -5t5 -14q0 -8 -3 -17q-9 -29 -37 -50t-64 -21t-64 21t-37 50q-3 9 -3 17q0 9 5 14t13 5q15 0 18 -17q5 -23 23.5 -37.5t44.5 -14.5t44.5 14t23.5 38z" />
    <glyph glyph-name="Gdotaccent" unicode="&#x120;" horiz-adv-x="702" 
d="M620 234q0 -45 -17.5 -88.5t-51 -77.5t-82 -55t-109.5 -21q-58 0 -107 21t-85.5 58t-59 87.5t-26.5 109.5q-6 81 0 163q4 58 26.5 108t58.5 87t84.5 58.5t104.5 21.5q87 0 150.5 -39t97.5 -115q3 -7 4 -11.5t1 -6.5q0 -8 -5.5 -13t-12.5 -5q-8 0 -12.5 4.5t-6.5 10.5
q-12 33 -34 59t-50.5 43.5t-62 27t-69.5 9.5q-47 0 -88 -18t-72.5 -49.5t-51.5 -73.5t-24 -91q-7 -88 0 -175q4 -50 23.5 -92.5t51 -74t73 -49.5t89.5 -18q47 0 88.5 14t72 40t48 63t17.5 82v89h-186q-8 0 -14 5.5t-6 13.5t6 13.5t14 5.5h184q20 0 29.5 -11t9.5 -28v-82z
M362 823q13 0 21.5 -8.5t8.5 -20.5q0 -13 -8.5 -21.5t-21.5 -8.5t-21.5 8.5t-8.5 21.5q0 12 8.5 20.5t21.5 8.5z" />
    <glyph glyph-name="gdotaccent" unicode="&#x121;" horiz-adv-x="600" 
d="M492 42q0 -47 -13 -87.5t-38.5 -70t-63 -46.5t-86.5 -17q-59 0 -100.5 16t-63.5 30q-18 12 -18 23q0 19 19 19q5 0 11 -3t11 -7q28 -20 65 -31t75 -11q37 0 67 13t52 36.5t34 56.5t12 74v8q-32 -17 -73 -30t-91 -13q-94 0 -146.5 53t-58.5 146q-1 11 -1.5 27.5t-0.5 34.5
t0.5 34.5t1.5 27.5q6 96 59.5 146.5t148.5 50.5q28 0 55 -4t51 -11t43.5 -15t32.5 -17q9 -6 12.5 -12t3.5 -17v-404zM292 485q-43 0 -73 -11t-50 -31t-31 -48t-14 -62q-2 -14 -2.5 -32.5t-0.5 -37.5t1 -37t2 -32q3 -33 13 -61.5t30 -49.5t51 -32.5t75 -11.5q62 0 103 18
t59 33v354q-21 14 -65.5 27.5t-97.5 13.5zM298 662q13 0 21.5 -8.5t8.5 -20.5q0 -13 -8.5 -21.5t-21.5 -8.5t-21.5 8.5t-8.5 21.5q0 12 8.5 20.5t21.5 8.5z" />
    <glyph glyph-name="Gcommaaccent" unicode="&#x122;" horiz-adv-x="702" 
d="M620 234q0 -45 -17.5 -88.5t-51 -77.5t-82 -55t-109.5 -21q-58 0 -107 21t-85.5 58t-59 87.5t-26.5 109.5q-6 81 0 163q4 58 26.5 108t58.5 87t84.5 58.5t104.5 21.5q87 0 150.5 -39t97.5 -115q3 -7 4 -11.5t1 -6.5q0 -8 -5.5 -13t-12.5 -5q-8 0 -12.5 4.5t-6.5 10.5
q-12 33 -34 59t-50.5 43.5t-62 27t-69.5 9.5q-47 0 -88 -18t-72.5 -49.5t-51.5 -73.5t-24 -91q-7 -88 0 -175q4 -50 23.5 -92.5t51 -74t73 -49.5t89.5 -18q47 0 88.5 14t72 40t48 63t17.5 82v89h-186q-8 0 -14 5.5t-6 13.5t6 13.5t14 5.5h184q20 0 29.5 -11t9.5 -28v-82z
M372 -107q0 -33 -9.5 -56t-24.5 -45q-2 -3 -6.5 -6.5t-10.5 -3.5q-8 0 -13 5.5t-5 12.5q0 5 1.5 7.5t2.5 4.5q19 27 23.5 43.5t4.5 42.5v53q0 8 5 13.5t13 5.5t13.5 -5.5t5.5 -13.5v-58z" />
    <glyph glyph-name="gcommaaccent" unicode="&#x123;" horiz-adv-x="600" 
d="M492 42q0 -47 -13 -87.5t-38.5 -70t-63 -46.5t-86.5 -17q-59 0 -100.5 16t-63.5 30q-18 12 -18 23q0 19 19 19q5 0 11 -3t11 -7q28 -20 65 -31t75 -11q37 0 67 13t52 36.5t34 56.5t12 74v8q-32 -17 -73 -30t-91 -13q-94 0 -146.5 53t-58.5 146q-1 11 -1.5 27.5t-0.5 34.5
t0.5 34.5t1.5 27.5q6 96 59.5 146.5t148.5 50.5q28 0 55 -4t51 -11t43.5 -15t32.5 -17q9 -6 12.5 -12t3.5 -17v-404zM292 485q-43 0 -73 -11t-50 -31t-31 -48t-14 -62q-2 -14 -2.5 -32.5t-0.5 -37.5t1 -37t2 -32q3 -33 13 -61.5t30 -49.5t51 -32.5t75 -11.5q62 0 103 18
t59 33v354q-21 14 -65.5 27.5t-97.5 13.5zM333 657q0 -33 -9.5 -56t-24.5 -45q-2 -3 -6.5 -6.5t-10.5 -3.5q-8 0 -13 5.5t-5 12.5q0 5 1.5 7.5t2.5 4.5q19 27 23.5 43.5t4.5 42.5v53q0 8 5 13.5t13 5.5t13.5 -5.5t5.5 -13.5v-58z" />
    <glyph glyph-name="Imacron" unicode="&#x12a;" horiz-adv-x="276" 
d="M119 683q0 8 5 13.5t13 5.5q19 0 19 -19v-668q0 -19 -19 -19q-18 0 -18 19v668zM224 813q8 0 13 -5t5 -13t-5 -13t-13 -5h-170q-8 0 -13.5 5t-5.5 13t5.5 13t13.5 5h170z" />
    <glyph glyph-name="imacron" unicode="&#x12b;" horiz-adv-x="261" 
d="M218 652q8 0 13 -5t5 -13t-5 -13t-13 -5h-170q-8 0 -13.5 5t-5.5 13t5.5 13t13.5 5h170zM132 515q8 0 13 -6t5 -14v-478q0 -20 -18 -20q-19 0 -19 20v478q0 8 5.5 14t13.5 6z" />
    <glyph glyph-name="Iogonek" unicode="&#x12e;" horiz-adv-x="273" 
d="M165 -136q7 0 12.5 -4.5t5.5 -12.5q0 -11 -11 -19q-17 -12 -34.5 -17t-34.5 -5q-18 0 -35 6.5t-30 19t-21 30t-8 38.5q0 38 27.5 71t81.5 55v657q0 8 5 13.5t13 5.5q19 0 19 -19v-668q0 -5 -3 -10.5t-12 -8.5q-50 -17 -72 -43t-22 -53q0 -28 18 -42.5t39 -14.5
q25 0 47 16q5 5 15 5z" />
    <glyph glyph-name="iogonek" unicode="&#x12f;" horiz-adv-x="261" 
d="M163 664q0 -14 -9 -23.5t-23 -9.5t-23.5 9.5t-9.5 23.5t9.5 23.5t23.5 9.5t23 -9.5t9 -23.5zM160 -136q7 0 12.5 -4.5t5.5 -12.5q0 -11 -11 -19q-17 -12 -34.5 -17t-34.5 -5q-18 0 -35 6.5t-30.5 19t-21.5 30t-8 38.5q0 38 28 73t82 57v465q0 8 5 14t13 6t13.5 -6
t5.5 -14v-475q0 -11 -5.5 -16t-13.5 -8q-48 -18 -69 -43.5t-21 -52.5q0 -28 18 -42.5t39 -14.5q25 0 47 16q5 5 15 5z" />
    <glyph glyph-name="Idotaccent" unicode="&#x130;" horiz-adv-x="276" 
d="M119 683q0 8 5 13.5t13 5.5q19 0 19 -19v-668q0 -19 -19 -19q-18 0 -18 19v668zM138 823q13 0 21.5 -8.5t8.5 -20.5q0 -13 -8.5 -21.5t-21.5 -8.5t-21.5 8.5t-8.5 21.5q0 12 8.5 20.5t21.5 8.5z" />
    <glyph glyph-name="dotlessi" unicode="&#x131;" horiz-adv-x="261" 
d="M132 515q8 0 13 -6t5 -14v-478q0 -20 -18 -20q-19 0 -19 20v478q0 8 5.5 14t13.5 6z" />
    <glyph glyph-name="Kcommaaccent" unicode="&#x136;" horiz-adv-x="611" 
d="M155 15q0 -19 -19 -19q-8 0 -13 5.5t-5 13.5v668q0 8 5 13.5t13 5.5q19 0 19 -19v-310h8q9 0 15.5 0.5t12.5 3t13 7.5t17 14l325 297q9 7 15 7q7 0 12 -6q12 -13 -3 -28l-343 -312l355 -327q6 -5 6 -13t-5 -14q-6 -6 -13 -6q-8 0 -13 5l-336 310q-18 17 -29 21t-29 4h-8
v-321zM342 -107q0 -33 -9.5 -56t-24.5 -45q-2 -3 -6.5 -6.5t-10.5 -3.5q-8 0 -13 5.5t-5 12.5q0 5 1.5 7.5t2.5 4.5q19 27 23.5 43.5t4.5 42.5v53q0 8 5 13.5t13 5.5t13.5 -5.5t5.5 -13.5v-58z" />
    <glyph glyph-name="kcommaaccent" unicode="&#x137;" horiz-adv-x="509" 
d="M481 16q0 -8 -5.5 -13.5t-13.5 -5.5t-14 6l-218 218q-15 15 -26.5 21t-34.5 6h-24v-233q0 -19 -18 -19q-8 0 -13.5 5t-5.5 13v672q0 8 5 13.5t13 5.5q19 0 19 -19v-401h25q23 0 34 5.5t26 20.5l209 201q7 7 15 7q7 0 12.5 -5t5.5 -13q0 -9 -8 -17l-226 -218l236 -235
q7 -7 7 -15zM300 -107q0 -33 -9.5 -56t-24.5 -45q-2 -3 -6.5 -6.5t-10.5 -3.5q-8 0 -13 5.5t-5 12.5q0 5 1.5 7.5t2.5 4.5q19 27 23.5 43.5t4.5 42.5v53q0 8 5 13.5t13 5.5t13.5 -5.5t5.5 -13.5v-58z" />
    <glyph glyph-name="Lacute" unicode="&#x139;" horiz-adv-x="558" 
d="M116 683q0 8 5 13.5t13 5.5q19 0 19 -19v-646h368q8 0 14 -5t6 -13t-6 -13.5t-14 -5.5h-368q-18 0 -27.5 10.5t-9.5 26.5v646zM160 758q-6 -3 -12 -3q-7 0 -12.5 5t-5.5 13q0 12 12 18l135 69q6 3 12 3q7 0 12.5 -5t5.5 -13q0 -12 -12 -18z" />
    <glyph glyph-name="lacute" unicode="&#x13a;" horiz-adv-x="261" 
d="M131 705q9 0 14 -6t5 -14v-669q0 -8 -4.5 -14t-13.5 -6q-8 0 -13.5 6t-5.5 14v669q0 8 5 14t13 6zM70 756q-6 -3 -12 -3q-7 0 -12.5 5t-5.5 13q0 12 12 18l135 69q6 3 12 3q7 0 12.5 -5t5.5 -13q0 -12 -12 -18z" />
    <glyph glyph-name="Lcommaaccent" unicode="&#x13b;" horiz-adv-x="560" 
d="M118 683q0 8 5 13.5t13 5.5q19 0 19 -19v-646h368q8 0 14 -5t6 -13t-6 -13.5t-14 -5.5h-368q-18 0 -27.5 10.5t-9.5 26.5v646zM351 -107q0 -33 -9.5 -56t-24.5 -45q-2 -3 -6.5 -6.5t-10.5 -3.5q-8 0 -13 5.5t-5 12.5q0 5 1.5 7.5t2.5 4.5q19 27 23.5 43.5t4.5 42.5v53
q0 8 5 13.5t13 5.5t13.5 -5.5t5.5 -13.5v-58z" />
    <glyph glyph-name="lcommaaccent" unicode="&#x13c;" horiz-adv-x="293" 
d="M163 705q9 0 14 -6t5 -14v-669q0 -8 -4.5 -14t-13.5 -6q-8 0 -13.5 6t-5.5 14v669q0 8 5 14t13 6zM180 -107q0 -33 -9.5 -56t-24.5 -45q-2 -3 -6.5 -6.5t-10.5 -3.5q-8 0 -13 5.5t-5 12.5q0 5 1.5 7.5t2.5 4.5q19 27 23.5 43.5t4.5 42.5v53q0 8 5 13.5t13 5.5t13.5 -5.5
t5.5 -13.5v-58z" />
    <glyph glyph-name="Lcaron" unicode="&#x13d;" horiz-adv-x="560" 
d="M118 683q0 8 5 13.5t13 5.5q19 0 19 -19v-646h368q8 0 14 -5t6 -13t-6 -13.5t-14 -5.5h-368q-18 0 -27.5 10.5t-9.5 26.5v646zM353 636q0 -33 -9 -53.5t-17 -33.5q-2 -3 -6.5 -6.5t-10.5 -3.5q-8 0 -13 5.5t-5 12.5q0 5 1.5 7.5t2.5 4.5q10 19 15 32.5t5 39.5v39
q0 8 5 13.5t13 5.5t13.5 -5.5t5.5 -13.5v-44z" />
    <glyph glyph-name="lcaron" unicode="&#x13e;" horiz-adv-x="248" 
d="M127 705q9 0 14 -6t5 -14v-669q0 -8 -4.5 -14t-13.5 -6q-8 0 -13.5 6t-5.5 14v669q0 8 5 14t13 6zM294 635q0 -33 -9 -53.5t-17 -33.5q-2 -3 -6.5 -6.5t-10.5 -3.5q-8 0 -13 5.5t-5 12.5q0 5 1.5 7.5t2.5 4.5q10 19 15 32.5t5 39.5v39q0 8 5 13.5t13 5.5t13.5 -5.5
t5.5 -13.5v-44z" />
    <glyph glyph-name="Lslash" unicode="&#x141;" horiz-adv-x="548" 
d="M118 309l-62 -39q-10 -6 -20 -1.5t-10 16.5q0 9 10 16l82 51v331q0 8 5 13.5t13 5.5q19 0 19 -19v-307l116 73q7 5 14.5 3.5t12.5 -9.5q4 -6 1.5 -13.5t-9.5 -11.5l-135 -86v-295h368q8 0 14 -5t6 -13t-6 -13.5t-14 -5.5h-368q-18 0 -27.5 10.5t-9.5 26.5v272z" />
    <glyph glyph-name="lslash" unicode="&#x142;" horiz-adv-x="290" 
d="M143 705q9 0 14 -6t5 -14v-295l72 46q8 5 18.5 1.5t10.5 -15.5q0 -10 -10 -17l-91 -59v-330q0 -8 -4.5 -14t-13.5 -6q-8 0 -13.5 6t-5.5 14v307l-66 -42q-10 -6 -20 -1.5t-10 16.5q0 9 10 16l86 54v319q0 8 5 14t13 6z" />
    <glyph glyph-name="Nacute" unicode="&#x143;" horiz-adv-x="770" 
d="M157 662h-2v-646q0 -19 -19 -19q-8 0 -13 5.5t-5 13.5v649q0 17 9 27.5t26 10.5q16 0 24 -8t13 -15l423 -643h2v646q0 8 5 13.5t13 5.5q19 0 19 -19v-647q0 -17 -9 -27.5t-26 -10.5q-16 0 -24 8t-13 15zM332 756q-6 -3 -12 -3q-7 0 -12.5 5t-5.5 13q0 12 12 18l135 69
q6 3 12 3q7 0 12.5 -5t5.5 -13q0 -12 -12 -18z" />
    <glyph glyph-name="nacute" unicode="&#x144;" 
d="M519 16q0 -8 -4.5 -14t-13.5 -6q-8 0 -13.5 6t-5.5 14v313q0 42 -12 71.5t-34 48.5t-52 27.5t-67 8.5q-51 0 -97.5 -14t-72.5 -31v-424q0 -8 -5 -14t-14 -6q-8 0 -13 6t-5 14v427q0 11 3 17t14 12q10 6 28 15t42.5 16.5t54.5 13t66 5.5q92 0 146.5 -47.5t54.5 -144.5
v-314zM237 592q-6 -3 -12 -3q-7 0 -12.5 5t-5.5 13q0 12 12 18l135 69q6 3 12 3q7 0 12.5 -5t5.5 -13q0 -12 -12 -18z" />
    <glyph glyph-name="Ncommaaccent" unicode="&#x145;" horiz-adv-x="770" 
d="M157 662h-2v-646q0 -19 -19 -19q-8 0 -13 5.5t-5 13.5v649q0 17 9 27.5t26 10.5q16 0 24 -8t13 -15l423 -643h2v646q0 8 5 13.5t13 5.5q19 0 19 -19v-647q0 -17 -9 -27.5t-26 -10.5q-16 0 -24 8t-13 15zM408 -107q0 -33 -9.5 -56t-24.5 -45q-2 -3 -6.5 -6.5t-10.5 -3.5
q-8 0 -13 5.5t-5 12.5q0 5 1.5 7.5t2.5 4.5q19 27 23.5 43.5t4.5 42.5v53q0 8 5 13.5t13 5.5t13.5 -5.5t5.5 -13.5v-58z" />
    <glyph glyph-name="ncommaaccent" unicode="&#x146;" 
d="M519 16q0 -8 -4.5 -14t-13.5 -6q-8 0 -13.5 6t-5.5 14v313q0 42 -12 71.5t-34 48.5t-52 27.5t-67 8.5q-51 0 -97.5 -14t-72.5 -31v-424q0 -8 -5 -14t-14 -6q-8 0 -13 6t-5 14v427q0 11 3 17t14 12q10 6 28 15t42.5 16.5t54.5 13t66 5.5q92 0 146.5 -47.5t54.5 -144.5
v-314zM332 -107q0 -33 -9.5 -56t-24.5 -45q-2 -3 -6.5 -6.5t-10.5 -3.5q-8 0 -13 5.5t-5 12.5q0 5 1.5 7.5t2.5 4.5q19 27 23.5 43.5t4.5 42.5v53q0 8 5 13.5t13 5.5t13.5 -5.5t5.5 -13.5v-58z" />
    <glyph glyph-name="Ncaron" unicode="&#x147;" horiz-adv-x="770" 
d="M157 662h-2v-646q0 -19 -19 -19q-8 0 -13 5.5t-5 13.5v649q0 17 9 27.5t26 10.5q16 0 24 -8t13 -15l423 -643h2v646q0 8 5 13.5t13 5.5q19 0 19 -19v-647q0 -17 -9 -27.5t-26 -10.5q-16 0 -24 8t-13 15zM378 790l81 60q7 4 13 4q8 0 13.5 -5.5t5.5 -13.5q0 -6 -3 -9.5
t-5 -5.5l-81 -60q-12 -9 -24 -9t-24 9l-81 60q-2 2 -5 5.5t-3 9.5q0 8 5.5 13.5t13.5 5.5q6 0 13 -4z" />
    <glyph glyph-name="ncaron" unicode="&#x148;" 
d="M519 16q0 -8 -4.5 -14t-13.5 -6q-8 0 -13.5 6t-5.5 14v313q0 42 -12 71.5t-34 48.5t-52 27.5t-67 8.5q-51 0 -97.5 -14t-72.5 -31v-424q0 -8 -5 -14t-14 -6q-8 0 -13 6t-5 14v427q0 11 3 17t14 12q10 6 28 15t42.5 16.5t54.5 13t66 5.5q92 0 146.5 -47.5t54.5 -144.5
v-314zM311 627l81 60q7 4 13 4q8 0 13.5 -5.5t5.5 -13.5q0 -6 -3 -9.5t-5 -5.5l-81 -60q-12 -9 -24 -9t-24 9l-81 60q-2 2 -5 5.5t-3 9.5q0 8 5.5 13.5t13.5 5.5q6 0 13 -4z" />
    <glyph glyph-name="Omacron" unicode="&#x14c;" horiz-adv-x="725" 
d="M362 -8q-58 0 -107 21t-86 58t-60 87.5t-27 109.5q-6 81 0 163q4 58 26.5 108t59.5 87t86.5 58.5t107.5 21.5t107.5 -21t86.5 -58t60 -87.5t27 -108.5q3 -40 3 -82t-3 -81q-4 -59 -27 -109.5t-60 -87.5t-86.5 -58t-107.5 -21zM362 29q49 0 91.5 17.5t74.5 48.5t52 73.5
t25 92.5q9 88 0 175q-5 50 -25 92.5t-52 74t-74.5 49t-91.5 17.5q-50 0 -92 -17.5t-73.5 -49t-51.5 -74t-25 -92.5q-9 -87 0 -175q5 -50 25 -92.5t51.5 -73.5t73.5 -48.5t92 -17.5zM448 813q8 0 13 -5t5 -13t-5 -13t-13 -5h-170q-8 0 -13.5 5t-5.5 13t5.5 13t13.5 5h170z
" />
    <glyph glyph-name="omacron" unicode="&#x14d;" horiz-adv-x="591" 
d="M296 522q44 0 81 -14t65 -39.5t44 -61t18 -78.5q2 -30 2 -70t-2 -70q-2 -43 -18 -79t-44 -62.5t-65 -41.5t-81 -15t-82 15t-65.5 41.5t-44 62.5t-17.5 79q-2 30 -2 70t2 70q1 43 17.5 78.5t44 61t65.5 39.5t82 14zM296 485q-38 0 -68.5 -11t-52.5 -31.5t-34.5 -48
t-14.5 -60.5q-1 -15 -1.5 -34.5t-0.5 -40.5t0.5 -41t1.5 -35q6 -70 51.5 -112.5t118.5 -42.5q72 0 117.5 42.5t51.5 112.5q1 15 2 35t1 40.5t-1 40.5t-2 35q-2 33 -14.5 60.5t-34.5 48t-52.5 31.5t-67.5 11zM381 652q8 0 13 -5t5 -13t-5 -13t-13 -5h-170q-8 0 -13.5 5
t-5.5 13t5.5 13t13.5 5h170z" />
    <glyph glyph-name="Ohungarumlaut" unicode="&#x150;" horiz-adv-x="725" 
d="M362 -8q-58 0 -107 21t-86 58t-60 87.5t-27 109.5q-6 81 0 163q4 58 26.5 108t59.5 87t86.5 58.5t107.5 21.5t107.5 -21t86.5 -58t60 -87.5t27 -108.5q3 -40 3 -82t-3 -81q-4 -59 -27 -109.5t-60 -87.5t-86.5 -58t-107.5 -21zM362 29q49 0 91.5 17.5t74.5 48.5t52 73.5
t25 92.5q9 88 0 175q-5 50 -25 92.5t-52 74t-74.5 49t-91.5 17.5q-50 0 -92 -17.5t-73.5 -49t-51.5 -74t-25 -92.5q-9 -87 0 -175q5 -50 25 -92.5t51.5 -73.5t73.5 -48.5t92 -17.5zM301 758q-9 -6 -14 -6q-9 0 -14 5t-5 13q0 10 10 17l94 74q9 6 14 6q9 0 14 -5t5 -13
q0 -10 -10 -17zM420 758q-9 -6 -14 -6q-9 0 -14 5t-5 13q0 10 10 17l94 74q9 6 14 6q9 0 14 -5t5 -13q0 -10 -10 -17z" />
    <glyph glyph-name="ohungarumlaut" unicode="&#x151;" horiz-adv-x="582" 
d="M296 522q44 0 81 -14t65 -39.5t44 -61t18 -78.5q2 -30 2 -70t-2 -70q-2 -43 -18 -79t-44 -62.5t-65 -41.5t-81 -15t-82 15t-65.5 41.5t-44 62.5t-17.5 79q-2 30 -2 70t2 70q1 43 17.5 78.5t44 61t65.5 39.5t82 14zM296 485q-38 0 -68.5 -11t-52.5 -31.5t-34.5 -48
t-14.5 -60.5q-1 -15 -1.5 -34.5t-0.5 -40.5t0.5 -41t1.5 -35q6 -70 51.5 -112.5t118.5 -42.5q72 0 117.5 42.5t51.5 112.5q1 15 2 35t1 40.5t-1 40.5t-2 35q-2 33 -14.5 60.5t-34.5 48t-52.5 31.5t-67.5 11zM211 595q-9 -6 -14 -6q-9 0 -14 5t-5 13q0 10 10 17l94 74
q9 6 14 6q9 0 14 -5t5 -13q0 -10 -10 -17zM330 595q-9 -6 -14 -6q-9 0 -14 5t-5 13q0 10 10 17l94 74q9 6 14 6q9 0 14 -5t5 -13q0 -10 -10 -17z" />
    <glyph glyph-name="OE" unicode="&#x152;" horiz-adv-x="1043" 
d="M539 660q-23 3 -41.5 4.5t-35.5 2.5t-34.5 1.5t-37.5 0.5q-68 0 -117.5 -20t-83.5 -56t-51.5 -84.5t-20.5 -105.5q-2 -28 -2 -59t2 -59q3 -57 20.5 -104t51.5 -80.5t83.5 -52.5t117.5 -19q19 0 36 0.5t34.5 1.5t36.5 3t42 5v621zM546 0q-10 0 -53 -4t-104 -4
q-77 0 -133.5 22.5t-95 62.5t-58 95.5t-22.5 120.5q-1 23 -1 51t1 52q2 65 22 121.5t58.5 98.5t95.5 66t134 24q60 0 103 -4.5t53 -4.5h397q19 0 19 -19q0 -8 -5.5 -13t-13.5 -5h-367v-290h359q8 0 13.5 -5t5.5 -13t-5.5 -13.5t-13.5 -5.5h-359v-296h369q8 0 13.5 -5.5
t5.5 -13.5t-5.5 -13t-13.5 -5h-399z" />
    <glyph glyph-name="oe" unicode="&#x153;" horiz-adv-x="956" 
d="M829 277q15 0 16 16q2 45 -9 81t-32.5 60.5t-53 37.5t-70.5 13q-90 0 -133.5 -54t-41.5 -154h324zM487 114q-23 -56 -73 -89.5t-118 -33.5q-44 0 -82 15t-65.5 41.5t-44 62.5t-17.5 79q-2 30 -2 70t2 70q1 43 17.5 78.5t44 61t65.5 39.5t82 14q68 0 118.5 -32t73.5 -88
q24 58 74.5 89t117.5 31q46 0 83.5 -16t64 -43.5t40.5 -65.5t14 -81v-27q0 -22 -12.5 -35.5t-39.5 -13.5h-325v-27q0 -88 49 -136.5t129 -48.5q27 0 61 6t77 24q4 2 10 2q8 0 13 -5.5t5 -12.5q0 -5 -3 -10t-9 -8q-12 -6 -30 -12t-39 -10.5t-42.5 -7.5t-40.5 -3
q-78 0 -126.5 32.5t-71.5 90.5zM296 485q-38 0 -68.5 -11t-52.5 -31.5t-34.5 -48t-14.5 -60.5q-1 -15 -1.5 -34.5t-0.5 -40.5t0.5 -41t1.5 -35q6 -70 51.5 -112.5t118.5 -42.5q72 0 117.5 42.5t51.5 112.5q1 15 2 35t1 40.5t-1 40.5t-2 35q-2 33 -14.5 60.5t-34.5 48
t-52.5 31.5t-67.5 11z" />
    <glyph glyph-name="Racute" unicode="&#x154;" horiz-adv-x="678" 
d="M602 28q7 -9 3 -20t-16 -11q-11 0 -16 7l-209 264q-13 17 -23.5 24t-31.5 7h-154v-283q0 -8 -5.5 -13.5t-13.5 -5.5t-13 5.5t-5 13.5v644q0 15 9.5 26t27.5 11h214q100 0 157 -53t57 -150q0 -92 -52.5 -138t-143.5 -56zM358 336q51 0 86.5 11.5t58 32t33 49.5t10.5 65
q0 37 -11 67.5t-32 52.5t-53 34t-74 12h-221v-324h203zM291 756q-6 -3 -12 -3q-7 0 -12.5 5t-5.5 13q0 12 12 18l135 69q6 3 12 3q7 0 12.5 -5t5.5 -13q0 -12 -12 -18z" />
    <glyph glyph-name="racute" unicode="&#x155;" horiz-adv-x="366" 
d="M335 513q17 -5 17 -19q0 -5 -4.5 -11t-12.5 -6q-11 0 -31 4t-49 4q-60 -1 -87 -27.5t-27 -84.5v-358q0 -19 -19 -19q-8 0 -13 5.5t-5 13.5v359q0 72 39 110t112 38q26 0 47 -3t33 -6zM160 591q-6 -3 -12 -3q-7 0 -12.5 5t-5.5 13q0 12 12 18l135 69q6 3 12 3q7 0 12.5 -5
t5.5 -13q0 -12 -12 -18z" />
    <glyph glyph-name="Rcommaaccent" unicode="&#x156;" horiz-adv-x="678" 
d="M602 28q7 -9 3 -20t-16 -11q-11 0 -16 7l-209 264q-13 17 -23.5 24t-31.5 7h-154v-283q0 -8 -5.5 -13.5t-13.5 -5.5t-13 5.5t-5 13.5v644q0 15 9.5 26t27.5 11h214q100 0 157 -53t57 -150q0 -92 -52.5 -138t-143.5 -56zM358 336q51 0 86.5 11.5t58 32t33 49.5t10.5 65
q0 37 -11 67.5t-32 52.5t-53 34t-74 12h-221v-324h203zM355 -107q0 -33 -9.5 -56t-24.5 -45q-2 -3 -6.5 -6.5t-10.5 -3.5q-8 0 -13 5.5t-5 12.5q0 5 1.5 7.5t2.5 4.5q19 27 23.5 43.5t4.5 42.5v53q0 8 5 13.5t13 5.5t13.5 -5.5t5.5 -13.5v-58z" />
    <glyph glyph-name="rcommaaccent" unicode="&#x157;" horiz-adv-x="366" 
d="M335 513q17 -5 17 -19q0 -5 -4.5 -11t-12.5 -6q-11 0 -31 4t-49 4q-60 -1 -87 -27.5t-27 -84.5v-358q0 -19 -19 -19q-8 0 -13 5.5t-5 13.5v359q0 72 39 110t112 38q26 0 47 -3t33 -6zM143 -107q0 -33 -9.5 -56t-24.5 -45q-2 -3 -6.5 -6.5t-10.5 -3.5q-8 0 -13 5.5
t-5 12.5q0 5 1.5 7.5t2.5 4.5q19 27 23.5 43.5t4.5 42.5v53q0 8 5 13.5t13 5.5t13.5 -5.5t5.5 -13.5v-58z" />
    <glyph glyph-name="Rcaron" unicode="&#x158;" horiz-adv-x="678" 
d="M602 28q7 -9 3 -20t-16 -11q-11 0 -16 7l-209 264q-13 17 -23.5 24t-31.5 7h-154v-283q0 -8 -5.5 -13.5t-13.5 -5.5t-13 5.5t-5 13.5v644q0 15 9.5 26t27.5 11h214q100 0 157 -53t57 -150q0 -92 -52.5 -138t-143.5 -56zM358 336q51 0 86.5 11.5t58 32t33 49.5t10.5 65
q0 37 -11 67.5t-32 52.5t-53 34t-74 12h-221v-324h203zM338 790l81 60q7 4 13 4q8 0 13.5 -5.5t5.5 -13.5q0 -6 -3 -9.5t-5 -5.5l-81 -60q-12 -9 -24 -9t-24 9l-81 60q-2 2 -5 5.5t-3 9.5q0 8 5.5 13.5t13.5 5.5q6 0 13 -4z" />
    <glyph glyph-name="rcaron" unicode="&#x159;" horiz-adv-x="366" 
d="M335 513q17 -5 17 -19q0 -5 -4.5 -11t-12.5 -6q-11 0 -31 4t-49 4q-60 -1 -87 -27.5t-27 -84.5v-358q0 -19 -19 -19q-8 0 -13 5.5t-5 13.5v359q0 72 39 110t112 38q26 0 47 -3t33 -6zM230 626l81 60q7 4 13 4q8 0 13.5 -5.5t5.5 -13.5q0 -6 -3 -9.5t-5 -5.5l-81 -60
q-12 -9 -24 -9t-24 9l-81 60q-2 2 -5 5.5t-3 9.5q0 8 5.5 13.5t13.5 5.5q6 0 13 -4z" />
    <glyph glyph-name="Sacute" unicode="&#x15a;" horiz-adv-x="606" 
d="M119 524q0 -39 17.5 -64t46 -42t66 -27t77.5 -19q46 -10 88 -22t74 -32t51 -50.5t19 -76.5q0 -91 -62.5 -145t-176.5 -54q-77 0 -132.5 18.5t-105.5 51.5q-11 7 -11 19q0 8 5 13.5t14 5.5q6 0 14 -5q40 -29 89 -47.5t123 -18.5q97 0 151.5 42t54.5 120q0 36 -15.5 60
t-43 40t-64.5 26t-80 19q-44 9 -86 22t-75.5 34t-54 53t-20.5 79q0 84 61 133t169 49q54 0 103 -15.5t81 -41.5q8 -6 8 -15t-5 -14t-13 -5q-2 0 -6.5 1t-11.5 6q-29 20 -70 33.5t-86 13.5q-53 0 -90 -12t-60 -32.5t-33 -46.5t-10 -54zM260 756q-6 -3 -12 -3q-7 0 -12.5 5
t-5.5 13q0 12 12 18l135 69q6 3 12 3q7 0 12.5 -5t5.5 -13q0 -12 -12 -18z" />
    <glyph glyph-name="sacute" unicode="&#x15b;" horiz-adv-x="478" 
d="M73 64q0 8 5 13.5t13 5.5q7 0 15 -6q29 -24 68.5 -36.5t83.5 -12.5q62 0 98.5 32t36.5 79q0 37 -23 56t-57 31t-74 20.5t-74 22.5t-57 39t-23 70q0 66 46.5 105t124.5 39q40 0 74.5 -12.5t57.5 -28.5q18 -13 4 -30q-5 -6 -13 -5.5t-15 5.5q-50 34 -108 34q-64 0 -99 -27
t-35 -80q0 -35 23 -53.5t57 -29.5t74 -19t74 -23t57 -41t23 -73q0 -33 -12 -60t-34 -46.5t-54 -30.5t-71 -11q-106 0 -178 57q-8 5 -8 16zM180 592q-6 -3 -12 -3q-7 0 -12.5 5t-5.5 13q0 12 12 18l135 69q6 3 12 3q7 0 12.5 -5t5.5 -13q0 -12 -12 -18z" />
    <glyph glyph-name="Scedilla" unicode="&#x15e;" horiz-adv-x="606" 
d="M267 -5q-57 5 -101 22.5t-85 44.5q-11 7 -11 19q0 8 5 13.5t14 5.5q6 0 14 -5q40 -29 89 -47.5t123 -18.5q97 0 151.5 42t54.5 120q0 36 -15.5 60t-43 40t-64.5 26t-80 19q-44 9 -86 22t-75.5 34t-54 53t-20.5 79q0 84 61 133t169 49q54 0 103 -15.5t81 -41.5q8 -6 8 -15
t-5 -14t-13 -5q-2 0 -6.5 1t-11.5 6q-29 20 -70 33.5t-86 13.5q-53 0 -90 -12t-60 -32.5t-33 -46.5t-10 -54q0 -39 17.5 -64t46 -42t66 -27t77.5 -19q46 -10 88 -22t74 -32t51 -50.5t19 -76.5q0 -91 -62.5 -145t-176.5 -54h-15q-1 -1 -1 -3l-18 -49q35 3 60 -17t25 -52
q0 -70 -115 -107q-10 -3 -18 2.5t-8 13.5q0 5 2.5 10.5t12.5 8.5q90 29 90 71q0 17 -12 27t-29 10q-10 0 -17 -3.5t-14 -3.5q-11 0 -17 8t-1 19z" />
    <glyph glyph-name="scedilla" unicode="&#x15f;" horiz-adv-x="478" 
d="M65 64q0 8 5 13.5t13 5.5q7 0 15 -6q29 -24 68.5 -36.5t83.5 -12.5q62 0 98.5 32t36.5 79q0 37 -23 56t-57 31t-74 20.5t-74 22.5t-57 39t-23 70q0 66 46.5 105t124.5 39q40 0 74.5 -12.5t57.5 -28.5q18 -13 4 -30q-5 -6 -13 -5.5t-15 5.5q-50 34 -108 34q-64 0 -99 -27
t-35 -80q0 -35 23 -53.5t57 -29.5t74 -19t74 -23t57 -41t23 -73q0 -63 -43 -104t-118 -44l-18 -51q35 3 60 -17t25 -52q0 -70 -115 -107q-10 -3 -18 2.5t-8 13.5q0 5 2.5 10.5t12.5 8.5q90 29 90 71q0 17 -12 27t-29 10q-10 0 -17 -3.5t-14 -3.5q-11 0 -17 8t-1 19l22 65
q-89 8 -151 56q-8 5 -8 16z" />
    <glyph glyph-name="Scaron" unicode="&#x160;" horiz-adv-x="606" 
d="M119 524q0 -39 17.5 -64t46 -42t66 -27t77.5 -19q46 -10 88 -22t74 -32t51 -50.5t19 -76.5q0 -91 -62.5 -145t-176.5 -54q-77 0 -132.5 18.5t-105.5 51.5q-11 7 -11 19q0 8 5 13.5t14 5.5q6 0 14 -5q40 -29 89 -47.5t123 -18.5q97 0 151.5 42t54.5 120q0 36 -15.5 60
t-43 40t-64.5 26t-80 19q-44 9 -86 22t-75.5 34t-54 53t-20.5 79q0 84 61 133t169 49q54 0 103 -15.5t81 -41.5q8 -6 8 -15t-5 -14t-13 -5q-2 0 -6.5 1t-11.5 6q-29 20 -70 33.5t-86 13.5q-53 0 -90 -12t-60 -32.5t-33 -46.5t-10 -54zM298 788l81 60q7 4 13 4q8 0 13.5 -5.5
t5.5 -13.5q0 -6 -3 -9.5t-5 -5.5l-81 -60q-12 -9 -24 -9t-24 9l-81 60q-2 2 -5 5.5t-3 9.5q0 8 5.5 13.5t13.5 5.5q6 0 13 -4z" />
    <glyph glyph-name="scaron" unicode="&#x161;" horiz-adv-x="478" 
d="M73 64q0 8 5 13.5t13 5.5q7 0 15 -6q29 -24 68.5 -36.5t83.5 -12.5q62 0 98.5 32t36.5 79q0 37 -23 56t-57 31t-74 20.5t-74 22.5t-57 39t-23 70q0 66 46.5 105t124.5 39q40 0 74.5 -12.5t57.5 -28.5q18 -13 4 -30q-5 -6 -13 -5.5t-15 5.5q-50 34 -108 34q-64 0 -99 -27
t-35 -80q0 -35 23 -53.5t57 -29.5t74 -19t74 -23t57 -41t23 -73q0 -33 -12 -60t-34 -46.5t-54 -30.5t-71 -11q-106 0 -178 57q-8 5 -8 16zM235 615l81 60q7 4 13 4q8 0 13.5 -5.5t5.5 -13.5q0 -6 -3 -9.5t-5 -5.5l-81 -60q-12 -9 -24 -9t-24 9l-81 60q-2 2 -5 5.5t-3 9.5
q0 8 5.5 13.5t13.5 5.5q6 0 13 -4z" />
    <glyph glyph-name="Tcommaaccent" unicode="&#x162;" horiz-adv-x="585" 
d="M275 660h-231q-8 0 -14 5.5t-6 13.5t6 13t14 5h497q8 0 14 -5t6 -13t-6 -13.5t-14 -5.5h-229v-644q0 -8 -5.5 -14t-13.5 -6q-18 0 -18 20v644zM312 -173q0 -33 -9.5 -56t-24.5 -45q-2 -3 -6.5 -6.5t-10.5 -3.5q-8 0 -13 5.5t-5 12.5q0 5 1.5 7.5t2.5 4.5q19 27 23.5 43.5
t4.5 42.5v53q0 8 5 13.5t13 5.5t13.5 -5.5t5.5 -13.5v-58z" />
    <glyph glyph-name="tcommaaccent" unicode="&#x163;" horiz-adv-x="390" 
d="M336 14q-21 -10 -45.5 -16t-53.5 -6q-35 0 -60 11t-41 29.5t-23.5 44.5t-7.5 56v463q0 8 5.5 13.5t13.5 5.5q18 0 18 -19v-92h173q8 0 14 -5t6 -13q0 -9 -6 -14t-14 -5h-173v-338q0 -42 22 -71t73 -29q20 0 43 6t43 14q10 5 19.5 0.5t9.5 -15.5q0 -13 -16 -20zM253 -107
q0 -33 -9.5 -56t-24.5 -45q-2 -3 -6.5 -6.5t-10.5 -3.5q-8 0 -13 5.5t-5 12.5q0 5 1.5 7.5t2.5 4.5q19 27 23.5 43.5t4.5 42.5v53q0 8 5 13.5t13 5.5t13.5 -5.5t5.5 -13.5v-58z" />
    <glyph glyph-name="Tcaron" unicode="&#x164;" horiz-adv-x="585" 
d="M275 660h-231q-8 0 -14 5.5t-6 13.5t6 13t14 5h497q8 0 14 -5t6 -13t-6 -13.5t-14 -5.5h-229v-644q0 -8 -5.5 -14t-13.5 -6q-18 0 -18 20v644zM293 790l81 60q7 4 13 4q8 0 13.5 -5.5t5.5 -13.5q0 -6 -3 -9.5t-5 -5.5l-81 -60q-12 -9 -24 -9t-24 9l-81 60q-2 2 -5 5.5
t-3 9.5q0 8 5.5 13.5t13.5 5.5q6 0 13 -4z" />
    <glyph glyph-name="tcaron" unicode="&#x165;" horiz-adv-x="396" 
d="M336 14q-21 -10 -45.5 -16t-53.5 -6q-35 0 -60 11t-41 29.5t-23.5 44.5t-7.5 56v463q0 8 5.5 13.5t13.5 5.5q18 0 18 -19v-92h173q8 0 14 -5t6 -13q0 -9 -6 -14t-14 -5h-173v-338q0 -42 22 -71t73 -29q20 0 43 6t43 14q10 5 19.5 0.5t9.5 -15.5q0 -13 -16 -20zM260 635
q0 -33 -9 -53.5t-17 -33.5q-2 -3 -6.5 -6.5t-10.5 -3.5q-8 0 -13 5.5t-5 12.5q0 5 1.5 7.5t2.5 4.5q10 19 15 32.5t5 39.5v39q0 8 5 13.5t13 5.5t13.5 -5.5t5.5 -13.5v-44z" />
    <glyph glyph-name="Umacron" unicode="&#x16a;" horiz-adv-x="748" 
d="M642 270q0 -62 -20 -113t-56 -88t-85 -57t-107 -20t-107 20t-84.5 57t-55.5 88t-20 113v413q0 8 5 13.5t13 5.5q19 0 19 -19v-405q0 -57 17.5 -103t48 -78.5t72.5 -50t92 -17.5q49 0 91.5 17.5t73.5 50t48.5 78.5t17.5 103v405q0 8 5 13.5t13 5.5q19 0 19 -19v-413z
M459 812q8 0 13 -5t5 -13t-5 -13t-13 -5h-170q-8 0 -13.5 5t-5.5 13t5.5 13t13.5 5h170z" />
    <glyph glyph-name="umacron" unicode="&#x16b;" 
d="M100 496q0 8 6 13.5t13 5.5q8 0 13 -5.5t5 -13.5v-313q0 -36 12.5 -65t34 -49t52 -30.5t66.5 -10.5q60 0 101 16.5t70 36.5v414q0 8 5 14t13 6t13.5 -6t5.5 -14v-419q0 -16 -13 -24q-11 -7 -28.5 -17.5t-41.5 -20t-54.5 -16.5t-68.5 -7q-43 0 -80.5 12.5t-65 37t-43 60.5
t-15.5 82v313zM398 652q8 0 13 -5t5 -13t-5 -13t-13 -5h-170q-8 0 -13.5 5t-5.5 13t5.5 13t13.5 5h170z" />
    <glyph glyph-name="Uring" unicode="&#x16e;" horiz-adv-x="748" 
d="M642 270q0 -62 -20 -113t-56 -88t-85 -57t-107 -20t-107 20t-84.5 57t-55.5 88t-20 113v413q0 8 5 13.5t13 5.5q19 0 19 -19v-405q0 -57 17.5 -103t48 -78.5t72.5 -50t92 -17.5q49 0 91.5 17.5t73.5 50t48.5 78.5t17.5 103v405q0 8 5 13.5t13 5.5q19 0 19 -19v-413z
M292 835q0 33 24.5 57t58.5 24q33 0 57 -24t24 -57t-24 -57.5t-57 -24.5q-17 0 -32 6.5t-26.5 18t-18 26t-6.5 31.5zM321 835q0 -22 15.5 -38t38.5 -16q22 0 37.5 16t15.5 38t-15.5 37.5t-37.5 15.5q-23 0 -38.5 -15.5t-15.5 -37.5z" />
    <glyph glyph-name="uring" unicode="&#x16f;" 
d="M100 496q0 8 6 13.5t13 5.5q8 0 13 -5.5t5 -13.5v-313q0 -36 12.5 -65t34 -49t52 -30.5t66.5 -10.5q60 0 101 16.5t70 36.5v414q0 8 5 14t13 6t13.5 -6t5.5 -14v-419q0 -16 -13 -24q-11 -7 -28.5 -17.5t-41.5 -20t-54.5 -16.5t-68.5 -7q-43 0 -80.5 12.5t-65 37t-43 60.5
t-15.5 82v313zM231 672q0 33 24.5 57t58.5 24q33 0 57 -24t24 -57t-24 -57.5t-57 -24.5q-17 0 -32 6.5t-26.5 18t-18 26t-6.5 31.5zM260 672q0 -22 15.5 -38t38.5 -16q22 0 37.5 16t15.5 38t-15.5 37.5t-37.5 15.5q-23 0 -38.5 -15.5t-15.5 -37.5z" />
    <glyph glyph-name="Uhungarumlaut" unicode="&#x170;" horiz-adv-x="748" 
d="M642 270q0 -62 -20 -113t-56 -88t-85 -57t-107 -20t-107 20t-84.5 57t-55.5 88t-20 113v413q0 8 5 13.5t13 5.5q19 0 19 -19v-405q0 -57 17.5 -103t48 -78.5t72.5 -50t92 -17.5q49 0 91.5 17.5t73.5 50t48.5 78.5t17.5 103v405q0 8 5 13.5t13 5.5q19 0 19 -19v-413z
M324 758q-9 -6 -14 -6q-9 0 -14 5t-5 13q0 10 10 17l94 74q9 6 14 6q9 0 14 -5t5 -13q0 -10 -10 -17zM443 758q-9 -6 -14 -6q-9 0 -14 5t-5 13q0 10 10 17l94 74q9 6 14 6q9 0 14 -5t5 -13q0 -10 -10 -17z" />
    <glyph glyph-name="uhungarumlaut" unicode="&#x171;" 
d="M100 496q0 8 6 13.5t13 5.5q8 0 13 -5.5t5 -13.5v-313q0 -36 12.5 -65t34 -49t52 -30.5t66.5 -10.5q60 0 101 16.5t70 36.5v414q0 8 5 14t13 6t13.5 -6t5.5 -14v-419q0 -16 -13 -24q-11 -7 -28.5 -17.5t-41.5 -20t-54.5 -16.5t-68.5 -7q-43 0 -80.5 12.5t-65 37t-43 60.5
t-15.5 82v313zM253 596q-9 -6 -14 -6q-9 0 -14 5t-5 13q0 10 10 17l94 74q9 6 14 6q9 0 14 -5t5 -13q0 -10 -10 -17zM372 596q-9 -6 -14 -6q-9 0 -14 5t-5 13q0 10 10 17l94 74q9 6 14 6q9 0 14 -5t5 -13q0 -10 -10 -17z" />
    <glyph glyph-name="Uogonek" unicode="&#x172;" horiz-adv-x="748" 
d="M484 -134q7 0 12.5 -4.5t5.5 -12.5q0 -11 -11 -19q-17 -12 -34.5 -17t-34.5 -5q-18 0 -35 6.5t-30.5 19t-21.5 30t-8 38.5q0 51 47 90q-58 0 -107 20t-84.5 57t-55.5 88t-20 113v413q0 8 5 13.5t13 5.5q19 0 19 -19v-405q0 -57 17.5 -103t48 -78.5t72.5 -50t92 -17.5
q49 0 91.5 17.5t73.5 50t48.5 78.5t17.5 103v405q0 8 5 13.5t13 5.5q19 0 19 -19v-413q0 -51 -14 -95t-39.5 -78.5t-60.5 -58.5t-78 -36q-21 -6 -36.5 -17.5t-26.5 -25.5t-16.5 -29t-5.5 -28q0 -28 18 -42.5t39 -14.5q25 0 47 16q5 5 15 5z" />
    <glyph glyph-name="uogonek" unicode="&#x173;" 
d="M493 -109q7 0 12.5 -4.5t5.5 -12.5q0 -11 -11 -19q-17 -12 -34.5 -17t-34.5 -5q-18 0 -35 6.5t-30.5 19t-21.5 30t-8 38.5q0 36 24 69q-53 -9 -100.5 -1t-83 32t-56 63.5t-20.5 92.5v313q0 8 6 13.5t13 5.5q8 0 13 -5.5t5 -13.5v-313q0 -36 12.5 -65t34 -49t52 -30.5
t66.5 -10.5q60 0 101 16.5t70 36.5v414q0 8 5 14t13 6t13.5 -6t5.5 -14v-419q0 -16 -13 -24q-8 -5 -18.5 -10.5t-12.5 -7.5q-49 -27 -70.5 -53.5t-21.5 -53.5q0 -28 18 -42.5t39 -14.5q25 0 47 16q5 5 15 5z" />
    <glyph glyph-name="Wcircumflex" unicode="&#x174;" horiz-adv-x="935" 
d="M49 679q-2 9 3 16.5t15 7.5q14 0 18 -14l148 -653q2 -7 8 -7t8 7l179 627q5 17 15 27.5t28 10.5q17 0 27 -10.5t15 -27.5l174 -627q2 -7 8 -7t8 7l153 652q2 7 7 11t11 4q10 0 14.5 -6t4.5 -12q0 -2 -0.5 -3t-0.5 -3l-152 -652q-4 -17 -16.5 -26t-28.5 -9q-15 0 -27 9.5
t-17 26.5l-178 632q-1 3 -3.5 3t-3.5 -3l-180 -633q-5 -17 -17 -26t-28 -9q-15 0 -27 9.5t-17 26.5l-148 651v0zM385 756q-7 -4 -13 -4q-8 0 -13.5 5.5t-5.5 13.5q0 6 3 9.5t5 5.5l81 60q12 9 24 9t24 -9l81 -60q2 -2 5 -5.5t3 -9.5q0 -8 -5.5 -13.5t-13.5 -5.5q-6 0 -13 4
l-81 60z" />
    <glyph glyph-name="wcircumflex" unicode="&#x175;" horiz-adv-x="815" 
d="M583 28q2 -5 5 -5t5 5l142 476q2 8 7.5 11t10.5 3q9 0 15 -7.5t3 -18.5l-140 -471q-5 -18 -17.5 -27t-26.5 -9q-31 0 -41 36l-133 455q-2 4 -5 4t-5 -4l-133 -455q-11 -36 -41 -36q-14 0 -26.5 9t-17.5 27l-140 471q-3 11 3 18.5t15 7.5q5 0 10.5 -3t7.5 -11l142 -476
q2 -5 5 -5t5 5l133 453q10 37 43 37q31 0 41 -37zM326 592q-7 -4 -13 -4q-8 0 -13.5 5.5t-5.5 13.5q0 6 3 9.5t5 5.5l81 60q12 9 24 9t24 -9l81 -60q2 -2 5 -5.5t3 -9.5q0 -8 -5.5 -13.5t-13.5 -5.5q-6 0 -13 4l-81 60z" />
    <glyph glyph-name="Ycircumflex" unicode="&#x176;" horiz-adv-x="636" 
d="M597 703q8 0 13.5 -5t5.5 -13q0 -6 -5 -13l-257 -318q-11 -14 -14 -23.5t-3 -21.5v-294q0 -8 -5.5 -13.5t-13.5 -5.5t-13 5.5t-5 13.5v294q0 12 -4 21.5t-15 23.5l-256 319q-4 5 -4 12t5.5 12t12.5 5q9 0 14 -6l265 -330l265 330q5 7 14 7zM236 756q-7 -4 -13 -4
q-8 0 -13.5 5.5t-5.5 13.5q0 6 3 9.5t5 5.5l81 60q12 9 24 9t24 -9l81 -60q2 -2 5 -5.5t3 -9.5q0 -8 -5.5 -13.5t-13.5 -5.5q-6 0 -13 4l-81 60z" />
    <glyph glyph-name="ycircumflex" unicode="&#x177;" horiz-adv-x="492" 
d="M32 486q-4 11 1 19t15 8q8 0 12.5 -4t6.5 -9l183 -412q3 -6 6 -6q2 0 5 6l167 411q3 6 6.5 10t11.5 4q9 0 14 -8t2 -16l-190 -474q-13 -33 -30 -63t-36 -55.5t-39 -45t-39 -29.5q-8 -4 -12 -5t-9 -1t-11.5 4t-6.5 14q0 11 12 17q38 19 73.5 62t62.5 116zM173 593
q-7 -4 -13 -4q-8 0 -13.5 5.5t-5.5 13.5q0 6 3 9.5t5 5.5l81 60q12 9 24 9t24 -9l81 -60q2 -2 5 -5.5t3 -9.5q0 -8 -5.5 -13.5t-13.5 -5.5q-6 0 -13 4l-81 60z" />
    <glyph glyph-name="Ydieresis" unicode="&#x178;" horiz-adv-x="636" 
d="M597 703q8 0 13.5 -5t5.5 -13q0 -6 -5 -13l-257 -318q-11 -14 -14 -23.5t-3 -21.5v-294q0 -8 -5.5 -13.5t-13.5 -5.5t-13 5.5t-5 13.5v294q0 12 -4 21.5t-15 23.5l-256 319q-4 5 -4 12t5.5 12t12.5 5q9 0 14 -6l265 -330l265 330q5 7 14 7zM247 773q13 0 21.5 -8.5
t8.5 -20.5q0 -13 -8.5 -21.5t-21.5 -8.5q-12 0 -20.5 8.5t-8.5 21.5q0 12 8.5 20.5t20.5 8.5zM389 773q12 0 20.5 -8.5t8.5 -20.5q0 -13 -8.5 -21.5t-20.5 -8.5q-13 0 -21.5 8.5t-8.5 21.5q0 12 8.5 20.5t21.5 8.5z" />
    <glyph glyph-name="Zacute" unicode="&#x179;" horiz-adv-x="579" 
d="M495 697q18 0 28.5 -9.5t10.5 -22.5q0 -14 -8 -25l-419 -603h407q8 0 14 -5t6 -13t-6 -13.5t-14 -5.5h-407q-18 0 -28.5 9.5t-10.5 22.5q0 14 8 25l419 603h-407q-8 0 -14 5t-6 13t6 13.5t14 5.5h407zM256 756q-6 -3 -12 -3q-7 0 -12.5 5t-5.5 13q0 12 12 18l135 69
q6 3 12 3q7 0 12.5 -5t5.5 -13q0 -12 -12 -18z" />
    <glyph glyph-name="zacute" unicode="&#x17a;" horiz-adv-x="497" 
d="M406 504q18 0 28.5 -9.5t10.5 -22.5q0 -16 -8 -25l-339 -410h319q8 0 14 -5t6 -13t-6 -13.5t-14 -5.5h-319q-18 0 -28.5 9.5t-10.5 22.5q0 14 8 25l339 410h-309q-8 0 -14 5t-6 13t6 13.5t14 5.5h309zM190 592q-6 -3 -12 -3q-7 0 -12.5 5t-5.5 13q0 12 12 18l135 69
q6 3 12 3q7 0 12.5 -5t5.5 -13q0 -12 -12 -18z" />
    <glyph glyph-name="Zdotaccent" unicode="&#x17b;" horiz-adv-x="579" 
d="M495 697q18 0 28.5 -9.5t10.5 -22.5q0 -14 -8 -25l-419 -603h407q8 0 14 -5t6 -13t-6 -13.5t-14 -5.5h-407q-18 0 -28.5 9.5t-10.5 22.5q0 14 8 25l419 603h-407q-8 0 -14 5t-6 13t6 13.5t14 5.5h407zM292 823q13 0 21.5 -8.5t8.5 -20.5q0 -13 -8.5 -21.5t-21.5 -8.5
t-21.5 8.5t-8.5 21.5q0 12 8.5 20.5t21.5 8.5z" />
    <glyph glyph-name="zdotaccent" unicode="&#x17c;" horiz-adv-x="497" 
d="M406 504q18 0 28.5 -9.5t10.5 -22.5q0 -16 -8 -25l-339 -410h319q8 0 14 -5t6 -13t-6 -13.5t-14 -5.5h-319q-18 0 -28.5 9.5t-10.5 22.5q0 14 8 25l339 410h-309q-8 0 -14 5t-6 13t6 13.5t14 5.5h309zM234 661q13 0 21.5 -8.5t8.5 -20.5q0 -13 -8.5 -21.5t-21.5 -8.5
t-21.5 8.5t-8.5 21.5q0 12 8.5 20.5t21.5 8.5z" />
    <glyph glyph-name="Zcaron" unicode="&#x17d;" horiz-adv-x="579" 
d="M495 697q18 0 28.5 -9.5t10.5 -22.5q0 -14 -8 -25l-419 -603h407q8 0 14 -5t6 -13t-6 -13.5t-14 -5.5h-407q-18 0 -28.5 9.5t-10.5 22.5q0 14 8 25l419 603h-407q-8 0 -14 5t-6 13t6 13.5t14 5.5h407zM302 790l81 60q7 4 13 4q8 0 13.5 -5.5t5.5 -13.5q0 -6 -3 -9.5
t-5 -5.5l-81 -60q-12 -9 -24 -9t-24 9l-81 60q-2 2 -5 5.5t-3 9.5q0 8 5.5 13.5t13.5 5.5q6 0 13 -4z" />
    <glyph glyph-name="zcaron" unicode="&#x17e;" horiz-adv-x="497" 
d="M406 504q18 0 28.5 -9.5t10.5 -22.5q0 -16 -8 -25l-339 -410h319q8 0 14 -5t6 -13t-6 -13.5t-14 -5.5h-319q-18 0 -28.5 9.5t-10.5 22.5q0 14 8 25l339 410h-309q-8 0 -14 5t-6 13t6 13.5t14 5.5h309zM238 627l81 60q7 4 13 4q8 0 13.5 -5.5t5.5 -13.5q0 -6 -3 -9.5
t-5 -5.5l-81 -60q-12 -9 -24 -9t-24 9l-81 60q-2 2 -5 5.5t-3 9.5q0 8 5.5 13.5t13.5 5.5q6 0 13 -4z" />
    <glyph glyph-name="florin" unicode="&#x192;" horiz-adv-x="554" 
d="M27 -202q-12 0 -16.5 8t-0.5 19l157 514h-59q-6 0 -12 4.5t-6 12.5t5 13t13 5h70l71 228q17 54 56.5 80.5t89.5 26.5q52 0 88 -16.5t57 -37.5q5 -5 5 -13q0 -14 -11 -16t-21 6q-16 14 -42.5 27t-71.5 13q-54 0 -80 -25t-39 -66l-63 -207h179q9 0 14 -5t5 -12t-4.5 -12.5
t-14.5 -5.5h-190l-161 -527q-5 -14 -18 -14z" />
    <glyph glyph-name="Scommaaccent" unicode="&#x218;" horiz-adv-x="606" 
d="M119 524q0 -39 17.5 -64t46 -42t66 -27t77.5 -19q46 -10 88 -22t74 -32t51 -50.5t19 -76.5q0 -91 -62.5 -145t-176.5 -54q-77 0 -132.5 18.5t-105.5 51.5q-11 7 -11 19q0 8 5 13.5t14 5.5q6 0 14 -5q40 -29 89 -47.5t123 -18.5q97 0 151.5 42t54.5 120q0 36 -15.5 60
t-43 40t-64.5 26t-80 19q-44 9 -86 22t-75.5 34t-54 53t-20.5 79q0 84 61 133t169 49q54 0 103 -15.5t81 -41.5q8 -6 8 -15t-5 -14t-13 -5q-2 0 -6.5 1t-11.5 6q-29 20 -70 33.5t-86 13.5q-53 0 -90 -12t-60 -32.5t-33 -46.5t-10 -54zM331 -107q0 -33 -9.5 -56t-24.5 -45
q-2 -3 -6.5 -6.5t-10.5 -3.5q-8 0 -13 5.5t-5 12.5q0 5 1.5 7.5t2.5 4.5q19 27 23.5 43.5t4.5 42.5v53q0 8 5 13.5t13 5.5t13.5 -5.5t5.5 -13.5v-58z" />
    <glyph glyph-name="scommaaccent" unicode="&#x219;" horiz-adv-x="478" 
d="M73 64q0 8 5 13.5t13 5.5q7 0 15 -6q29 -24 68.5 -36.5t83.5 -12.5q62 0 98.5 32t36.5 79q0 37 -23 56t-57 31t-74 20.5t-74 22.5t-57 39t-23 70q0 66 46.5 105t124.5 39q40 0 74.5 -12.5t57.5 -28.5q18 -13 4 -30q-5 -6 -13 -5.5t-15 5.5q-50 34 -108 34q-64 0 -99 -27
t-35 -80q0 -35 23 -53.5t57 -29.5t74 -19t74 -23t57 -41t23 -73q0 -33 -12 -60t-34 -46.5t-54 -30.5t-71 -11q-106 0 -178 57q-8 5 -8 16zM274 -107q0 -33 -9.5 -56t-24.5 -45q-2 -3 -6.5 -6.5t-10.5 -3.5q-8 0 -13 5.5t-5 12.5q0 5 1.5 7.5t2.5 4.5q19 27 23.5 43.5
t4.5 42.5v53q0 8 5 13.5t13 5.5t13.5 -5.5t5.5 -13.5v-58z" />
    <glyph glyph-name="circumflex" unicode="&#x2c6;" horiz-adv-x="322" 
d="M79 754q-7 -4 -13 -4q-8 0 -13.5 5.5t-5.5 13.5q0 6 3 9.5t5 5.5l81 60q12 9 24 9t24 -9l81 -60q2 -2 5 -5.5t3 -9.5q0 -8 -5.5 -13.5t-13.5 -5.5q-6 0 -13 4l-81 60z" />
    <glyph glyph-name="caron" unicode="&#x2c7;" horiz-adv-x="322" 
d="M160 788l81 60q7 4 13 4q8 0 13.5 -5.5t5.5 -13.5q0 -6 -3 -9.5t-5 -5.5l-81 -60q-12 -9 -24 -9t-24 9l-81 60q-2 2 -5 5.5t-3 9.5q0 8 5.5 13.5t13.5 5.5q6 0 13 -4z" />
    <glyph glyph-name="breve" unicode="&#x2d8;" horiz-adv-x="322" 
d="M229 848q3 17 18 17q8 0 13 -5t5 -14q0 -8 -3 -17q-9 -29 -37 -50t-64 -21t-64 21t-37 50q-3 9 -3 17q0 9 5 14t13 5q15 0 18 -17q5 -23 23.5 -37.5t44.5 -14.5t44.5 14t23.5 38z" />
    <glyph glyph-name="dotaccent" unicode="&#x2d9;" horiz-adv-x="322" 
d="M161 823q13 0 21.5 -8.5t8.5 -20.5q0 -13 -8.5 -21.5t-21.5 -8.5t-21.5 8.5t-8.5 21.5q0 12 8.5 20.5t21.5 8.5z" />
    <glyph glyph-name="ring" unicode="&#x2da;" horiz-adv-x="325" 
d="M89 830q0 33 24.5 57t58.5 24q33 0 57 -24t24 -57t-24 -57.5t-57 -24.5q-17 0 -32 6.5t-26.5 18t-18 26t-6.5 31.5zM118 830q0 -22 15.5 -38t38.5 -16q22 0 37.5 16t15.5 38t-15.5 37.5t-37.5 15.5q-23 0 -38.5 -15.5t-15.5 -37.5z" />
    <glyph glyph-name="ogonek" unicode="&#x2db;" horiz-adv-x="322" 
d="M241 -136q7 0 12.5 -4.5t5.5 -12.5q0 -11 -11 -19q-17 -12 -34.5 -17t-34.5 -5q-18 0 -35 6.5t-30.5 19t-21.5 30t-8 38.5q0 39 29.5 74.5t87.5 58.5q9 4 19.5 2t10.5 -16q0 -5 -3 -10.5t-12 -8.5q-50 -18 -72 -45.5t-22 -54.5q0 -28 18 -42.5t39 -14.5q25 0 47 16
q5 5 15 5z" />
    <glyph glyph-name="tilde" unicode="&#x2dc;" horiz-adv-x="322" 
d="M216 790q9 0 16.5 3.5t14 8t12.5 8.5t12 4q7 0 12.5 -4.5t5.5 -12.5q0 -11 -11 -19q-14 -10 -30 -17.5t-33 -7.5t-31.5 6t-26.5 12.5t-23 12.5t-21 6q-9 0 -16 -4t-13 -8.5t-11.5 -8.5t-12.5 -4q-9 0 -14 5.5t-5 12.5q0 6 2.5 10t5.5 7q14 11 31 19t34 8t30.5 -6
t25.5 -12.5t23 -12.5t23 -6z" />
    <glyph glyph-name="hungarumlaut" unicode="&#x2dd;" horiz-adv-x="322" 
d="M69 758q-9 -6 -14 -6q-9 0 -14 5t-5 13q0 10 10 17l94 74q9 6 14 6q9 0 14 -5t5 -13q0 -10 -10 -17zM188 758q-9 -6 -14 -6q-9 0 -14 5t-5 13q0 10 10 17l94 74q9 6 14 6q9 0 14 -5t5 -13q0 -10 -10 -17z" />
    <glyph glyph-name="Wgrave" unicode="&#x1e80;" horiz-adv-x="935" 
d="M49 679q-2 9 3 16.5t15 7.5q14 0 18 -14l148 -653q2 -7 8 -7t8 7l179 627q5 17 15 27.5t28 10.5q17 0 27 -10.5t15 -27.5l174 -627q2 -7 8 -7t8 7l153 652q2 7 7 11t11 4q10 0 14.5 -6t4.5 -12q0 -2 -0.5 -3t-0.5 -3l-152 -652q-4 -17 -16.5 -26t-28.5 -9q-15 0 -27 9.5
t-17 26.5l-178 632q-1 3 -3.5 3t-3.5 -3l-180 -633q-5 -17 -17 -26t-28 -9q-15 0 -27 9.5t-17 26.5l-148 651v0zM368 825q-12 6 -12 18q0 8 5.5 13t12.5 5q6 0 12 -3l135 -69q12 -6 12 -18q0 -8 -5.5 -13t-12.5 -5q-6 0 -12 3z" />
    <glyph glyph-name="wgrave" unicode="&#x1e81;" horiz-adv-x="815" 
d="M583 28q2 -5 5 -5t5 5l142 476q2 8 7.5 11t10.5 3q9 0 15 -7.5t3 -18.5l-140 -471q-5 -18 -17.5 -27t-26.5 -9q-31 0 -41 36l-133 455q-2 4 -5 4t-5 -4l-133 -455q-11 -36 -41 -36q-14 0 -26.5 9t-17.5 27l-140 471q-3 11 3 18.5t15 7.5q5 0 10.5 -3t7.5 -11l142 -476
q2 -5 5 -5t5 5l133 453q10 37 43 37q31 0 41 -37zM319 660q-12 6 -12 18q0 8 5.5 13t12.5 5q6 0 12 -3l135 -69q12 -6 12 -18q0 -8 -5.5 -13t-12.5 -5q-6 0 -12 3z" />
    <glyph glyph-name="Wacute" unicode="&#x1e82;" horiz-adv-x="935" 
d="M49 679q-2 9 3 16.5t15 7.5q14 0 18 -14l148 -653q2 -7 8 -7t8 7l179 627q5 17 15 27.5t28 10.5q17 0 27 -10.5t15 -27.5l174 -627q2 -7 8 -7t8 7l153 652q2 7 7 11t11 4q10 0 14.5 -6t4.5 -12q0 -2 -0.5 -3t-0.5 -3l-152 -652q-4 -17 -16.5 -26t-28.5 -9q-15 0 -27 9.5
t-17 26.5l-178 632q-1 3 -3.5 3t-3.5 -3l-180 -633q-5 -17 -17 -26t-28 -9q-15 0 -27 9.5t-17 26.5l-148 651v0zM433 756q-6 -3 -12 -3q-7 0 -12.5 5t-5.5 13q0 12 12 18l135 69q6 3 12 3q7 0 12.5 -5t5.5 -13q0 -12 -12 -18z" />
    <glyph glyph-name="wacute" unicode="&#x1e83;" horiz-adv-x="815" 
d="M583 28q2 -5 5 -5t5 5l142 476q2 8 7.5 11t10.5 3q9 0 15 -7.5t3 -18.5l-140 -471q-5 -18 -17.5 -27t-26.5 -9q-31 0 -41 36l-133 455q-2 4 -5 4t-5 -4l-133 -455q-11 -36 -41 -36q-14 0 -26.5 9t-17.5 27l-140 471q-3 11 3 18.5t15 7.5q5 0 10.5 -3t7.5 -11l142 -476
q2 -5 5 -5t5 5l133 453q10 37 43 37q31 0 41 -37zM341 591q-6 -3 -12 -3q-7 0 -12.5 5t-5.5 13q0 12 12 18l135 69q6 3 12 3q7 0 12.5 -5t5.5 -13q0 -12 -12 -18z" />
    <glyph glyph-name="Wdieresis" unicode="&#x1e84;" horiz-adv-x="935" 
d="M49 679q-2 9 3 16.5t15 7.5q14 0 18 -14l148 -653q2 -7 8 -7t8 7l179 627q5 17 15 27.5t28 10.5q17 0 27 -10.5t15 -27.5l174 -627q2 -7 8 -7t8 7l153 652q2 7 7 11t11 4q10 0 14.5 -6t4.5 -12q0 -2 -0.5 -3t-0.5 -3l-152 -652q-4 -17 -16.5 -26t-28.5 -9q-15 0 -27 9.5
t-17 26.5l-178 632q-1 3 -3.5 3t-3.5 -3l-180 -633q-5 -17 -17 -26t-28 -9q-15 0 -27 9.5t-17 26.5l-148 651v0zM396 823q13 0 21.5 -8.5t8.5 -20.5q0 -13 -8.5 -21.5t-21.5 -8.5q-12 0 -20.5 8.5t-8.5 21.5q0 12 8.5 20.5t20.5 8.5zM538 823q12 0 20.5 -8.5t8.5 -20.5
q0 -13 -8.5 -21.5t-20.5 -8.5q-13 0 -21.5 8.5t-8.5 21.5q0 12 8.5 20.5t21.5 8.5z" />
    <glyph glyph-name="wdieresis" unicode="&#x1e85;" horiz-adv-x="815" 
d="M583 28q2 -5 5 -5t5 5l142 476q2 8 7.5 11t10.5 3q9 0 15 -7.5t3 -18.5l-140 -471q-5 -18 -17.5 -27t-26.5 -9q-31 0 -41 36l-133 455q-2 4 -5 4t-5 -4l-133 -455q-11 -36 -41 -36q-14 0 -26.5 9t-17.5 27l-140 471q-3 11 3 18.5t15 7.5q5 0 10.5 -3t7.5 -11l142 -476
q2 -5 5 -5t5 5l133 453q10 37 43 37q31 0 41 -37zM336 662q13 0 21.5 -8.5t8.5 -20.5q0 -13 -8.5 -21.5t-21.5 -8.5q-12 0 -20.5 8.5t-8.5 21.5q0 12 8.5 20.5t20.5 8.5zM478 662q12 0 20.5 -8.5t8.5 -20.5q0 -13 -8.5 -21.5t-20.5 -8.5q-13 0 -21.5 8.5t-8.5 21.5
q0 12 8.5 20.5t21.5 8.5z" />
    <glyph glyph-name="Ygrave" unicode="&#x1ef2;" horiz-adv-x="636" 
d="M597 703q8 0 13.5 -5t5.5 -13q0 -6 -5 -13l-257 -318q-11 -14 -14 -23.5t-3 -21.5v-294q0 -8 -5.5 -13.5t-13.5 -5.5t-13 5.5t-5 13.5v294q0 12 -4 21.5t-15 23.5l-256 319q-4 5 -4 12t5.5 12t12.5 5q9 0 14 -6l265 -330l265 330q5 7 14 7zM205 825q-12 6 -12 18
q0 8 5.5 13t12.5 5q6 0 12 -3l135 -69q12 -6 12 -18q0 -8 -5.5 -13t-12.5 -5q-6 0 -12 3z" />
    <glyph glyph-name="ygrave" unicode="&#x1ef3;" horiz-adv-x="492" 
d="M32 486q-4 11 1 19t15 8q8 0 12.5 -4t6.5 -9l183 -412q3 -6 6 -6q2 0 5 6l167 411q3 6 6.5 10t11.5 4q9 0 14 -8t2 -16l-190 -474q-13 -33 -30 -63t-36 -55.5t-39 -45t-39 -29.5q-8 -4 -12 -5t-9 -1t-11.5 4t-6.5 14q0 11 12 17q38 19 73.5 62t62.5 116zM161 661
q-12 6 -12 18q0 8 5.5 13t12.5 5q6 0 12 -3l135 -69q12 -6 12 -18q0 -8 -5.5 -13t-12.5 -5q-6 0 -12 3z" />
    <glyph glyph-name="endash" unicode="&#x2013;" horiz-adv-x="608" 
d="M59 285q0 9 6 14t14 5h450q8 0 14 -5.5t6 -13.5t-6 -13t-14 -5h-450q-8 0 -14 5t-6 13z" />
    <glyph glyph-name="emdash" unicode="&#x2014;" horiz-adv-x="972" 
d="M59 285q0 9 6 14t14 5h814q8 0 14 -5.5t6 -13.5t-6 -13t-14 -5h-814q-8 0 -14 5.5t-6 12.5z" />
    <glyph glyph-name="quoteleft" unicode="&#x2018;" horiz-adv-x="199" 
d="M73 587q0 33 9.5 56t24.5 45q2 3 6.5 6.5t10.5 3.5q8 0 13 -5.5t5 -12.5q0 -5 -1.5 -7.5t-2.5 -4.5q-10 -14 -15.5 -24t-8.5 -19.5t-3.5 -19.5t-0.5 -23v-53q0 -8 -5 -13.5t-13 -5.5t-13.5 5.5t-5.5 13.5v58z" />
    <glyph glyph-name="quoteright" unicode="&#x2019;" horiz-adv-x="199" 
d="M135 621q0 -33 -9.5 -56t-24.5 -45q-2 -3 -6.5 -6.5t-10.5 -3.5q-8 0 -13 5.5t-5 12.5q0 5 1.5 7.5t2.5 4.5q19 27 23.5 43.5t4.5 42.5v53q0 8 5 13.5t13 5.5t13.5 -5.5t5.5 -13.5v-58z" />
    <glyph glyph-name="quotesinglbase" unicode="&#x201a;" horiz-adv-x="199" 
d="M124 18q0 -33 -9.5 -56t-24.5 -45q-2 -3 -6.5 -6.5t-10.5 -3.5q-8 0 -13 5.5t-5 12.5q0 5 1.5 7.5t2.5 4.5q19 27 23.5 43.5t4.5 42.5v53q0 8 5 13.5t13 5.5t13.5 -5.5t5.5 -13.5v-58z" />
    <glyph glyph-name="quotedblleft" unicode="&#x201c;" horiz-adv-x="295" 
d="M68 588q0 33 9.5 56t24.5 45q2 3 6.5 6.5t10.5 3.5q8 0 13 -5.5t5 -12.5q0 -5 -1.5 -7.5t-2.5 -4.5q-10 -14 -15.5 -24t-8.5 -19.5t-3.5 -19.5t-0.5 -23v-53q0 -8 -5 -13.5t-13 -5.5t-13.5 5.5t-5.5 13.5v58zM174 588q0 33 9.5 56t24.5 45q2 3 6.5 6.5t10.5 3.5
q8 0 13 -5.5t5 -12.5q0 -5 -1.5 -7.5t-2.5 -4.5q-10 -14 -15.5 -24t-8.5 -19.5t-3.5 -19.5t-0.5 -23v-53q0 -8 -5 -13.5t-13 -5.5t-13.5 5.5t-5.5 13.5v58z" />
    <glyph glyph-name="quotedblright" unicode="&#x201d;" horiz-adv-x="295" 
d="M137 623q0 -33 -9.5 -56t-24.5 -45q-2 -3 -6.5 -6.5t-10.5 -3.5q-8 0 -13 5.5t-5 12.5q0 5 1.5 7.5t2.5 4.5q19 27 23.5 43.5t4.5 42.5v53q0 8 5 13.5t13 5.5t13.5 -5.5t5.5 -13.5v-58zM243 623q0 -33 -9.5 -56t-24.5 -45q-2 -3 -6.5 -6.5t-10.5 -3.5q-8 0 -13 5.5
t-5 12.5q0 5 1.5 7.5t2.5 4.5q19 27 23.5 43.5t4.5 42.5v53q0 8 5 13.5t13 5.5t13.5 -5.5t5.5 -13.5v-58z" />
    <glyph glyph-name="quotedblbase" unicode="&#x201e;" horiz-adv-x="295" 
d="M137 18q0 -33 -9.5 -56t-24.5 -45q-2 -3 -6.5 -6.5t-10.5 -3.5q-8 0 -13 5.5t-5 12.5q0 5 1.5 7.5t2.5 4.5q19 27 23.5 43.5t4.5 42.5v53q0 8 5 13.5t13 5.5t13.5 -5.5t5.5 -13.5v-58zM243 18q0 -33 -9.5 -56t-24.5 -45q-2 -3 -6.5 -6.5t-10.5 -3.5q-8 0 -13 5.5t-5 12.5
q0 5 1.5 7.5t2.5 4.5q19 27 23.5 43.5t4.5 42.5v53q0 8 5 13.5t13 5.5t13.5 -5.5t5.5 -13.5v-58z" />
    <glyph glyph-name="dagger" unicode="&#x2020;" horiz-adv-x="431" 
d="M397 471q8 0 14 -5t6 -14q0 -8 -6 -13t-14 -5h-163v-554q0 -8 -5 -14t-13 -6t-13.5 6t-5.5 14v554h-163q-8 0 -14 5t-6 13q0 9 6 14t14 5h163v218q0 8 5.5 14t13.5 6q9 0 13.5 -6t4.5 -14v-218h163z" />
    <glyph glyph-name="daggerdbl" unicode="&#x2021;" horiz-adv-x="431" 
d="M397 471q8 0 14 -5t6 -14q0 -8 -6 -13t-14 -5h-163v-299h163q8 0 14 -5t6 -14q0 -8 -6 -13t-14 -5h-163v-218q0 -8 -5 -14t-13 -6t-13.5 6t-5.5 14v218h-163q-8 0 -14 5t-6 13q0 9 6 14t14 5h163v299h-163q-8 0 -14 5t-6 13q0 9 6 14t14 5h163v218q0 8 5.5 14t13.5 6
q9 0 13.5 -6t4.5 -14v-218h163z" />
    <glyph glyph-name="bullet" unicode="&#x2022;" horiz-adv-x="472" 
d="M110 350q0 26 10 49t27 40t40 27t49 10t49 -10t40 -27t27 -40t10 -49t-10 -49t-27 -40t-40 -27t-49 -10t-49 10t-40 27t-27 40t-10 49z" />
    <glyph glyph-name="ellipsis" unicode="&#x2026;" horiz-adv-x="605" 
d="M523 8q0 -8 -5.5 -13.5t-13.5 -5.5t-13 5.5t-5 13.5v106q0 8 5 13.5t13 5.5t13.5 -5.5t5.5 -13.5v-106zM322 8q0 -8 -5.5 -13.5t-13.5 -5.5t-13 5.5t-5 13.5v106q0 8 5 13.5t13 5.5t13.5 -5.5t5.5 -13.5v-106zM119 8q0 -8 -5.5 -13.5t-13.5 -5.5t-13 5.5t-5 13.5v106
q0 8 5 13.5t13 5.5t13.5 -5.5t5.5 -13.5v-106z" />
    <glyph glyph-name="perthousand" unicode="&#x2030;" horiz-adv-x="997" 
d="M817 321q28 0 53 -11.5t43 -30.5t29 -45t13 -54q1 -25 0 -49q-2 -29 -13 -54.5t-29.5 -45t-43 -30.5t-52.5 -11q-29 0 -54 11t-44 30.5t-30.5 45t-12.5 54.5q-2 24 0 49q1 28 12 54t30 45t44.5 30.5t54.5 11.5zM536 605q5 6 13 7t13 -3q6 -5 6.5 -13t-4.5 -13l-421 -482
q-5 -6 -12.5 -7t-13.5 4t-5.5 13t5.5 14zM188 383q-29 0 -54 10.5t-44 29t-30.5 43t-12.5 53.5q-1 12 -1 27t1 27q1 28 12.5 53t30.5 43.5t44 29t54 10.5t54 -10.5t44 -29t30.5 -43.5t12.5 -53q1 -12 1 -27t-1 -27q-1 -29 -12.5 -53.5t-30.5 -43t-44 -29t-54 -10.5zM188 676
q-43 0 -73.5 -28.5t-32.5 -75.5q-1 -27 0 -52q2 -47 32.5 -75.5t73.5 -28.5t73.5 28.5t32.5 75.5q1 25 0 52q-2 47 -32.5 75.5t-73.5 28.5zM489 -4q-29 0 -54 10.5t-44 29t-30.5 43t-12.5 53.5q-1 12 -1 27t1 27q1 28 12.5 53t30.5 43.5t44 29t54 10.5t54 -10.5t44 -29
t30.5 -43.5t12.5 -53q1 -12 1 -27t-1 -27q-1 -29 -12.5 -53.5t-30.5 -43t-44 -29t-54 -10.5zM489 289q-43 0 -73.5 -28.5t-32.5 -75.5q-1 -27 0 -52q2 -47 32.5 -75.5t73.5 -28.5t73.5 28.5t32.5 75.5q1 25 0 52q-2 47 -32.5 75.5t-73.5 28.5zM814 289q-43 0 -73.5 -28.5
t-32.5 -75.5q-1 -27 0 -52q2 -47 32.5 -75.5t73.5 -28.5t73.5 28.5t32.5 75.5q1 25 0 52q-2 47 -32.5 75.5t-73.5 28.5z" />
    <glyph glyph-name="guilsinglleft" unicode="&#x2039;" horiz-adv-x="356" 
d="M227 517q7 0 12.5 -5t5.5 -13q0 -10 -8 -16l-126 -113q-10 -9 -14 -13.5t-4 -10.5t4 -10.5t14 -13.5l126 -113q8 -6 8 -16q0 -8 -5.5 -13t-12.5 -5q-6 0 -13 5l-130 116q-11 9 -20 21t-9 29t9 29t20 21l130 116q7 5 13 5z" />
    <glyph glyph-name="guilsinglright" unicode="&#x203a;" horiz-adv-x="356" 
d="M129 175q-7 0 -12.5 5t-5.5 13q0 10 8 16l126 113q10 9 14 13.5t4 10.5t-4 10.5t-14 13.5l-126 113q-8 6 -8 16q0 8 5.5 13t12.5 5q6 0 13 -5l130 -116q11 -9 20 -21t9 -29t-9 -29t-20 -21l-130 -116q-7 -5 -13 -5z" />
    <glyph glyph-name="fraction" unicode="&#x2044;" horiz-adv-x="300" 
d="M303 731q8 -3 10.5 -10.5t-0.5 -15.5l-286 -725q-2 -7 -9 -10.5t-15 -0.5t-10 10.5t0 14.5l285 724q8 20 25 13z" />
    <glyph glyph-name="Euro" unicode="&#x20ac;" horiz-adv-x="653" 
d="M427 299q0 -9 -6 -13.5t-14 -4.5h-227q0 -52 14.5 -97.5t42 -79.5t68.5 -54t95 -20q30 0 53.5 3.5t44 11t39 20t37.5 30.5q8 8 16 8q7 0 12 -5t5 -12q0 -9 -6 -15q-40 -39 -89 -58.5t-112 -19.5q-62 0 -110 23t-81 62.5t-50 91.5t-17 111h-61q-8 0 -14 5.5t-6 12.5
q0 9 6 14t14 5h61v65h-61q-8 0 -14 5.5t-6 12.5q0 9 6 14t14 5h61q0 58 17 110.5t50 92t81 62.5t110 23q63 0 112 -19.5t89 -58.5q6 -6 6 -15q0 -7 -5 -12t-12 -5q-8 0 -16 8q-19 18 -37.5 30.5t-39 20t-44 11t-53.5 3.5q-54 0 -95 -19.5t-68.5 -53.5t-42 -80t-14.5 -98h227
q8 0 14 -5.5t6 -13.5q0 -9 -6 -13.5t-14 -4.5h-227v-65h227q8 0 14 -5.5t6 -13.5z" />
    <glyph glyph-name="indianrupeesign" unicode="&#x20b9;" horiz-adv-x="595" 
d="M525 697q8 0 14 -5t6 -13t-6 -13.5t-14 -5.5h-185q71 -48 77 -147h108q8 0 14 -5t6 -13t-6 -13.5t-14 -5.5h-108q-5 -68 -40 -108t-95 -57q11 -7 23 -20l236 -263q7 -9 3 -20t-16 -11q-11 0 -16 7l-239 264q-14 16 -24 23.5t-31 7.5h-129q-8 0 -13.5 5t-5.5 13
q0 19 19 19h104q94 0 138 38t49 102h-290q-8 0 -14 5t-6 13q0 9 6 14t14 5h290q-5 66 -48 106.5t-121 40.5h-122q-8 0 -13.5 5t-5.5 13q0 19 19 19h436v0z" />
    <glyph glyph-name="trademark" unicode="&#x2122;" horiz-adv-x="587" 
d="M132 674h-68q-14 0 -14 14q0 13 14 13h162q14 0 14 -13q0 -14 -14 -14h-67v-197q0 -14 -13 -14q-14 0 -14 14v197zM472 672q-2 4 -4 4q-1 0 -4 -3l-43 -182q-6 -25 -28 -25t-28 25l-44 182q0 3 -3 3q-4 0 -4 -4l-27 -197q-2 -11 -13 -11q-8 0 -11.5 5.5t-2.5 11.5l29 196
q2 14 10 20t19 6q23 0 29 -24l43 -184q0 -3 3 -3q4 0 4 3l42 184q2 12 10 18t19 6t19 -6t10 -20l29 -195q1 -7 -2.5 -12.5t-11.5 -5.5q-11 0 -13 11z" />
    <glyph glyph-name="minus" unicode="&#x2212;" horiz-adv-x="628" 
d="M81 332q-9 0 -15 5t-6 13q0 9 6 14t15 5h465q9 0 15.5 -5t6.5 -14q0 -8 -7 -13t-15 -5h-465z" />
    <glyph glyph-name="lessequal" unicode="&#x2264;" horiz-adv-x="628" 
d="M499 105q6 -4 8 -11.5t-2 -14.5t-11.5 -8.5t-13.5 2.5l-333 203q-15 9 -21.5 19.5t-6.5 21.5t6 21t22 20l333 203q7 4 14 2t11 -8q4 -7 2 -14.5t-8 -11.5l-330 -197q-6 -4 -10 -7t-4 -8t4 -8t10 -7zM140 -9q-9 0 -15 5t-6 13q0 9 6 14t15 5h347q9 0 15.5 -5t6.5 -14
q0 -8 -7 -13t-15 -5h-347z" />
    <glyph glyph-name="greaterequal" unicode="&#x2265;" horiz-adv-x="628" 
d="M460 302q6 4 10 7t4 8t-4 8t-10 7l-330 197q-6 4 -8 11.5t2 14.5q4 6 11 8t14 -2l333 -203q16 -10 22 -20t6 -21t-6.5 -21.5t-21.5 -19.5l-333 -203q-6 -4 -13.5 -2.5t-11.5 8.5t-2 14.5t8 11.5zM142 -9q-8 0 -15 5t-7 13q0 9 6.5 14t15.5 5h347q9 0 15 -5t6 -14
q0 -8 -6 -13t-15 -5h-347z" />
    <glyph glyph-name="fl" unicode="&#xfb02;" horiz-adv-x="612" 
d="M116 559q0 33 8 61t25 48t43 31t63 11q25 0 45 -3t32 -7q17 -5 17 -19q0 -5 -4.5 -11t-14.5 -6t-27 4.5t-48 4.5q-57 0 -79.5 -30.5t-22.5 -83.5v-55h160q8 0 14 -5.5t6 -13.5t-6 -13t-14 -5h-160v-451q0 -8 -5.5 -14t-13.5 -6t-13 6t-5 14v451h-45q-8 0 -14 5t-6 13
t6 13.5t14 5.5h45v55zM485 705q9 0 14 -6t5 -14v-669q0 -8 -4.5 -14t-13.5 -6q-8 0 -13.5 6t-5.5 14v669q0 8 5 14t13 6z" />
    <glyph glyph-name="one.onum" horiz-adv-x="419" 
d="M62 396q-17 0 -17 19q0 13 10 17l175 87q14 7 21 7q11 0 19 -7t8 -24v-479q0 -20 -19 -20q-8 0 -13 5.5t-5 14.5v464l-166 -80q-8 -4 -13 -4z" />
    <glyph glyph-name="two.onum" horiz-adv-x="573" 
d="M65 38q0 42 9.5 72t34 53t67 41.5t109.5 38.5q52 15 83.5 30.5t48.5 31.5t23 32.5t6 33.5q0 23 -9 44t-28.5 37t-50.5 25.5t-76 9.5q-65 0 -111.5 -24t-69.5 -63q-7 -13 -19 -13q-11 0 -15 6.5t-4 11.5q0 8 5 16q32 46 85 74.5t129 28.5q52 0 90 -12.5t63 -33.5t36.5 -49
t11.5 -60q0 -26 -8.5 -48t-30.5 -42t-58.5 -38t-91.5 -34q-60 -18 -97.5 -33t-58.5 -33.5t-28.5 -43t-7.5 -60.5h377q9 0 15.5 -5t6.5 -14t-6.5 -13.5t-15.5 -4.5h-382q-14 0 -23 8.5t-9 22.5v7z" />
    <glyph glyph-name="three.onum" horiz-adv-x="578" 
d="M254 244q7 1 13.5 1h13.5q42 0 79.5 -13t65 -37.5t44 -59t16.5 -77.5q0 -114 -87 -180.5t-259 -66.5q-32 0 -68 3q-8 1 -14 5.5t-6 12.5t5 14t17 5q34 -3 66 -3q72 0 129 14t97 41t61.5 66t21.5 89q0 36 -12.5 63.5t-34.5 46.5t-52.5 29t-65.5 10q-33 0 -45 -2.5
t-22 -2.5t-16 6t-6 14q0 10 7 17l197 228h-328q-8 0 -14 5t-6 13q0 9 6 14t14 5h339q15 0 24 -8t9 -20q0 -5 -2 -12t-9 -15z" />
    <glyph glyph-name="r.alt" horiz-adv-x="366" 
d="M264 522q17 0 36.5 -2.5t37.5 -7.5q16 -4 16 -18q0 -5 -4 -11.5t-14 -6.5q-9 0 -28 4.5t-44 4.5q-38 0 -69.5 -11.5t-53.5 -31.5v-421q0 -20 -19 -20q-18 0 -18 20v419q0 13 4 19.5t11 12.5q19 18 55 34t90 16z" />
    <glyph glyph-name="five.onum" horiz-adv-x="594" 
d="M306 259q54 0 94.5 -16t67.5 -42.5t40.5 -61t13.5 -72.5q0 -127 -107 -195.5t-312 -68.5q-22 0 -22 18q0 19 21 19q86 0 157 14t121.5 41.5t78 69.5t27.5 99q0 31 -11 60t-33.5 50.5t-55.5 34.5t-77 13q-45 0 -87 -14.5t-77 -39.5q-14 -9 -28.5 -2t-14.5 26v278
q0 19 10.5 27t24.5 8h322q8 0 14 -5.5t6 -13.5q0 -9 -6 -13.5t-14 -4.5h-320v-262q38 25 81 39t86 14z" />
    <glyph glyph-name="six.onum" horiz-adv-x="656" 
d="M497 668q-9 0 -31.5 3.5t-63.5 3.5q-126 0 -193.5 -74.5t-77.5 -222.5q33 16 84.5 33.5t123.5 17.5q53 0 96.5 -13t74 -39.5t47.5 -66.5t17 -94q0 -47 -14.5 -88t-43.5 -72.5t-72.5 -49.5t-101.5 -18q-63 0 -110 23.5t-78 68t-46 109t-15 146.5q0 183 79 280.5t230 97.5
q29 0 55.5 -2t40.5 -5q19 -3 19 -19q0 -8 -5 -13.5t-15 -5.5zM339 392q-69 0 -120 -17.5t-89 -38.5q0 -152 51.5 -231.5t160.5 -79.5q50 0 87 15t61 41t35.5 60.5t11.5 74.5q0 86 -48.5 131t-149.5 45z" />
    <glyph glyph-name="seven.onum" horiz-adv-x="512" 
d="M449 505q15 0 24.5 -7.5t9.5 -20.5q0 -11 -8 -24q-65 -108 -115 -194.5t-87.5 -160.5t-62.5 -141.5t-39 -136.5q-2 -9 -7.5 -13t-11.5 -4q-13 0 -16 9t-1 17q16 70 38.5 133t57.5 134.5t86 160.5t124 211h-379q-8 0 -14 5t-6 13t6 13.5t14 5.5h387z" />
    <glyph glyph-name="eight.onum" horiz-adv-x="669" 
d="M331 30q54 0 93.5 12.5t64.5 34.5t37 50.5t12 61.5q0 70 -51.5 114.5t-155.5 44.5t-155.5 -44.5t-51.5 -114.5q0 -33 12 -61.5t37 -50.5t64.5 -34.5t93.5 -12.5zM331 709q56 0 99 -13.5t71.5 -37.5t43 -57t14.5 -72q0 -33 -10 -59.5t-26.5 -46.5t-38 -33.5t-45.5 -22.5
q27 -8 52 -23t44 -37t30 -51.5t11 -66.5q0 -88 -62 -142t-183 -54q-122 0 -183.5 54t-61.5 142q0 37 11 66.5t30 51.5t44 37t52 23q-24 9 -45.5 22.5t-38 33.5t-26.5 46.5t-10 59.5q0 39 14.5 72t43 57t71.5 37.5t99 13.5zM331 672q-51 0 -87 -11.5t-58.5 -31.5t-33 -46
t-10.5 -54q0 -69 51 -106.5t138 -37.5t138 37.5t51 106.5q0 28 -10.5 54t-33 46t-58.5 31.5t-87 11.5z" />
    <glyph glyph-name="Q.alt" horiz-adv-x="722" 
d="M643 268q-4 -57 -25.5 -106t-56 -85.5t-81 -58.5t-100.5 -25v-137q0 -8 -5 -14t-13 -6t-13 6t-5 14v137q-54 3 -100.5 25t-81 58.5t-55.5 85.5t-25 106q-6 80 0 163q4 58 26.5 108t59.5 87t86.5 58.5t107.5 21.5t107.5 -21t86.5 -58t60 -87.5t27 -108.5q3 -40 3 -82
t-3 -81zM362 190q8 0 13 -6t5 -14v-141q46 3 85 22t68.5 49.5t48 71.5t23.5 89q9 88 0 175q-5 50 -25 92.5t-52 74t-74.5 49t-91.5 17.5q-50 0 -92 -17.5t-73.5 -49t-51.5 -74t-25 -92.5q-9 -87 0 -175q4 -48 22.5 -89t48 -71.5t68.5 -49.5t85 -22v141q0 8 5 14t13 6z" />
    <glyph glyph-name="zero.onum" horiz-adv-x="626" 
d="M313 525q48 0 89.5 -14.5t73.5 -42.5t52 -68.5t25 -91.5q3 -29 2 -58.5t-3 -58.5q-5 -48 -25 -86.5t-51.5 -65t-73 -41t-89.5 -14.5t-89.5 14.5t-73.5 42t-52 68t-25 91.5q-2 33 -2 57.5t4 59.5q4 48 24 86.5t51.5 65.5t73 41.5t89.5 14.5zM313 488q-39 0 -74.5 -12
t-62.5 -35t-44 -56.5t-21 -76.5q-2 -17 -2.5 -29.5t-0.5 -25t0.5 -25.5t2.5 -29q4 -43 21.5 -76t44.5 -56t62 -35t74 -12t74.5 12t62.5 35t44 56.5t21 76.5q1 17 2 30t1 25t-1 25t-2 29q-4 43 -21.5 76t-44.5 56t-62 35t-74 12z" />
    <glyph glyph-name="commaaccent" horiz-adv-x="322" 
d="M190 -107q0 -33 -9.5 -56t-24.5 -45q-2 -3 -6.5 -6.5t-10.5 -3.5q-8 0 -13 5.5t-5 12.5q0 5 1.5 7.5t2.5 4.5q19 27 23.5 43.5t4.5 42.5v53q0 8 5 13.5t13 5.5t13.5 -5.5t5.5 -13.5v-58z" />
    <glyph glyph-name="caronSlovak" horiz-adv-x="322" 
d="M193 635q0 -33 -9 -53.5t-17 -33.5q-2 -3 -6.5 -6.5t-10.5 -3.5q-8 0 -13 5.5t-5 12.5q0 5 1.5 7.5t2.5 4.5q10 19 15 32.5t5 39.5v39q0 8 5 13.5t13 5.5t13.5 -5.5t5.5 -13.5v-44z" />
    <glyph glyph-name="g.alt" horiz-adv-x="547" 
d="M66 -32q8 0 12 -4.5t8 -12.5q25 -47 73.5 -73.5t116.5 -26.5q78 0 121.5 31.5t43.5 75.5q0 15 -6 31t-19.5 28.5t-37 20.5t-57.5 8h-112q-57 0 -83 21.5t-26 51.5q0 16 6.5 28t15.5 20.5t19.5 13.5t18.5 7q-47 22 -73.5 63.5t-26.5 92.5q0 34 12.5 66t37.5 57t61 40
t84 15q32 0 55 -6t40 -12h139q8 0 13 -5t5 -13t-5 -13.5t-13 -5.5h-90q20 -22 34 -53t14 -73t-16 -74t-43 -54t-63 -33t-75 -11h-11q-48 0 -74.5 -12.5t-26.5 -35.5q0 -19 17 -28t48 -9h115q43 0 74 -10.5t50.5 -28t28.5 -40t9 -47.5q0 -33 -15.5 -60t-42.5 -45.5t-64.5 -29
t-81.5 -10.5q-46 0 -81.5 10.5t-62 26.5t-45 35.5t-29.5 37.5q-5 8 -7.5 14t-2.5 12q0 9 5 14t13 5zM253 203q34 0 63 10t49 29t31.5 44.5t11.5 57.5q0 30 -10.5 55.5t-30 44.5t-48 30t-64.5 11q-71 0 -113.5 -39.5t-42.5 -102.5q0 -31 11 -57t31.5 -44.5t48.5 -28.5t63 -10
z" />
    <glyph glyph-name="gbreve.alt" horiz-adv-x="547" 
d="M66 -32q8 0 12 -4.5t8 -12.5q25 -47 73.5 -73.5t116.5 -26.5q78 0 121.5 31.5t43.5 75.5q0 15 -6 31t-19.5 28.5t-37 20.5t-57.5 8h-112q-57 0 -83 21.5t-26 51.5q0 16 6.5 28t15.5 20.5t19.5 13.5t18.5 7q-47 22 -73.5 63.5t-26.5 92.5q0 34 12.5 66t37.5 57t61 40
t84 15q32 0 55 -6t40 -12h139q8 0 13 -5t5 -13t-5 -13.5t-13 -5.5h-90q20 -22 34 -53t14 -73t-16 -74t-43 -54t-63 -33t-75 -11h-11q-48 0 -74.5 -12.5t-26.5 -35.5q0 -19 17 -28t48 -9h115q43 0 74 -10.5t50.5 -28t28.5 -40t9 -47.5q0 -33 -15.5 -60t-42.5 -45.5t-64.5 -29
t-81.5 -10.5q-46 0 -81.5 10.5t-62 26.5t-45 35.5t-29.5 37.5q-5 8 -7.5 14t-2.5 12q0 9 5 14t13 5zM253 203q34 0 63 10t49 29t31.5 44.5t11.5 57.5q0 30 -10.5 55.5t-30 44.5t-48 30t-64.5 11q-71 0 -113.5 -39.5t-42.5 -102.5q0 -31 11 -57t31.5 -44.5t48.5 -28.5t63 -10
zM326 677q3 17 18 17q8 0 13 -5t5 -14q0 -8 -3 -17q-9 -29 -37 -50t-64 -21t-64 21t-37 50q-3 9 -3 17q0 9 5 14t13 5q15 0 18 -17q5 -23 23.5 -37.5t44.5 -14.5t44.5 14t23.5 38z" />
    <glyph glyph-name="gdotaccent.alt" horiz-adv-x="547" 
d="M66 -32q8 0 12 -4.5t8 -12.5q25 -47 73.5 -73.5t116.5 -26.5q78 0 121.5 31.5t43.5 75.5q0 15 -6 31t-19.5 28.5t-37 20.5t-57.5 8h-112q-57 0 -83 21.5t-26 51.5q0 16 6.5 28t15.5 20.5t19.5 13.5t18.5 7q-47 22 -73.5 63.5t-26.5 92.5q0 34 12.5 66t37.5 57t61 40
t84 15q32 0 55 -6t40 -12h139q8 0 13 -5t5 -13t-5 -13.5t-13 -5.5h-90q20 -22 34 -53t14 -73t-16 -74t-43 -54t-63 -33t-75 -11h-11q-48 0 -74.5 -12.5t-26.5 -35.5q0 -19 17 -28t48 -9h115q43 0 74 -10.5t50.5 -28t28.5 -40t9 -47.5q0 -33 -15.5 -60t-42.5 -45.5t-64.5 -29
t-81.5 -10.5q-46 0 -81.5 10.5t-62 26.5t-45 35.5t-29.5 37.5q-5 8 -7.5 14t-2.5 12q0 9 5 14t13 5zM253 203q34 0 63 10t49 29t31.5 44.5t11.5 57.5q0 30 -10.5 55.5t-30 44.5t-48 30t-64.5 11q-71 0 -113.5 -39.5t-42.5 -102.5q0 -31 11 -57t31.5 -44.5t48.5 -28.5t63 -10
zM253 663q13 0 21.5 -8.5t8.5 -20.5q0 -13 -8.5 -21.5t-21.5 -8.5t-21.5 8.5t-8.5 21.5q0 12 8.5 20.5t21.5 8.5z" />
    <glyph glyph-name="gcommaaccent.alt" horiz-adv-x="547" 
d="M66 -32q8 0 12 -4.5t8 -12.5q25 -47 73.5 -73.5t116.5 -26.5q78 0 121.5 31.5t43.5 75.5q0 15 -6 31t-19.5 28.5t-37 20.5t-57.5 8h-112q-57 0 -83 21.5t-26 51.5q0 16 6.5 28t15.5 20.5t19.5 13.5t18.5 7q-47 22 -73.5 63.5t-26.5 92.5q0 34 12.5 66t37.5 57t61 40
t84 15q32 0 55 -6t40 -12h139q8 0 13 -5t5 -13t-5 -13.5t-13 -5.5h-90q20 -22 34 -53t14 -73t-16 -74t-43 -54t-63 -33t-75 -11h-11q-48 0 -74.5 -12.5t-26.5 -35.5q0 -19 17 -28t48 -9h115q43 0 74 -10.5t50.5 -28t28.5 -40t9 -47.5q0 -33 -15.5 -60t-42.5 -45.5t-64.5 -29
t-81.5 -10.5q-46 0 -81.5 10.5t-62 26.5t-45 35.5t-29.5 37.5q-5 8 -7.5 14t-2.5 12q0 9 5 14t13 5zM253 203q34 0 63 10t49 29t31.5 44.5t11.5 57.5q0 30 -10.5 55.5t-30 44.5t-48 30t-64.5 11q-71 0 -113.5 -39.5t-42.5 -102.5q0 -31 11 -57t31.5 -44.5t48.5 -28.5t63 -10
zM275 663q0 -33 -9.5 -56t-24.5 -45q-2 -3 -6.5 -6.5t-10.5 -3.5q-8 0 -13 5.5t-5 12.5q0 5 1.5 7.5t2.5 4.5q19 27 23.5 43.5t4.5 42.5v53q0 8 5 13.5t13 5.5t13.5 -5.5t5.5 -13.5v-58z" />
    <glyph glyph-name="sterling.alt" horiz-adv-x="590" 
d="M168 343q8 29 14.5 61.5t13.5 68.5q25 125 76 180.5t135 55.5q28 0 53 -5.5t45 -15.5q8 -4 12 -11.5t-1 -16.5q-4 -8 -12.5 -9.5t-17.5 3.5q-17 8 -36 13t-43 5q-34 0 -61 -9.5t-48 -32.5t-36.5 -61.5t-27.5 -96.5q-8 -35 -14.5 -67t-14.5 -62h200q21 0 21 -19
q0 -18 -21 -18h-210q-22 -85 -43.5 -148t-40.5 -98q-5 -10 -5 -14q0 -9 11 -9h388q8 0 14 -5t6 -14q0 -8 -6 -13t-15 -5h-382q-26 0 -41 13t-12 37q1 7 3 12.5t5 11.5q3 7 12 26t25 60q9 23 20.5 59.5t24.5 86.5h-70q-8 0 -14 4.5t-6 13.5q0 19 19 19h80z" />
    <glyph glyph-name="nine.onum" horiz-adv-x="648" 
d="M145 -152q90 4 157 21.5t113 51t71 85.5t31 126q-17 -8 -37 -18t-45 -18t-55 -13.5t-65 -5.5q-109 0 -171.5 57t-62.5 165q0 46 14.5 87.5t43.5 73t72.5 49.5t101.5 18q127 0 185.5 -78.5t58.5 -247.5q0 -110 -27 -182.5t-79 -117.5t-128.5 -65.5t-175.5 -24.5
q-11 -1 -16.5 5t-5.5 13q0 17 20 19zM315 114q34 0 63 5.5t53.5 13.5t45.5 18.5t40 21.5q1 11 1 21.5v20.5q0 75 -13 127.5t-39 85t-64 47.5t-89 15q-50 0 -87 -15t-61 -41t-35.5 -60.5t-11.5 -74.5q0 -86 48.5 -135.5t148.5 -49.5z" />
    <glyph glyph-name="four.onum" horiz-adv-x="657" 
d="M489 0v-172q0 -8 -5 -14t-14 -6q-8 0 -13 6t-5 14v172h-354q-8 0 -20 7t-12 24q0 6 2 12.5t9 15.5l345 439q8 11 16 17.5t22 6.5t21.5 -8.5t7.5 -20.5v-456h122q8 0 13 -5t5 -13t-5.5 -13.5t-12.5 -5.5h-122zM452 37v439l-346 -439h346z" />
    </font>
</defs>
</svg>
