<?xml version="1.0" standalone="no"?>
<!DOCTYPE svg PUBLIC "-//W3C//DTD SVG 1.1//EN" "http://www.w3.org/Graphics/SVG/1.1/DTD/svg11.dtd" >
<svg xmlns="http://www.w3.org/2000/svg" xmlns:xlink="http://www.w3.org/1999/xlink" version="1.1">
<metadata>
Created by FontForge 20170731 at Fri Feb 17 18:41:19 2012
 By Aleksey,,,
This font is a renamed version of Rubrik, licensed for use only within the Adani Group. Copyright (c) 2010 by Miles Newlyn. All rights reserved.
</metadata>
<defs>
<font id="Adani-Bold" horiz-adv-x="436" >
  <font-face 
    font-family="Adani Bold"
    font-weight="700"
    font-stretch="normal"
    units-per-em="1000"
    panose-1="2 0 5 3 0 0 0 2 0 4"
    ascent="750"
    descent="-250"
    x-height="536"
    cap-height="709"
    bbox="-60.7959 -285 1252.5 988"
    underline-thickness="70"
    underline-position="-170"
    unicode-range="U+0020-FB02"
  />
<missing-glyph horiz-adv-x="301" 
 />
    <glyph glyph-name="fi" unicode="fi" horiz-adv-x="693" 
d="M104 534q0 51 17 88t45 62t64 37t74 12t64 -5t46 -12q27 -10 42.5 -27t15.5 -48q0 -29 -19 -49t-55 -20q-17 0 -33.5 5.5t-41.5 5.5q-53 0 -53 -53v-25h61q30 0 52.5 -20.5t22.5 -52.5q0 -30 -22.5 -50.5t-52.5 -20.5h-61v-279q0 -37 -23.5 -62t-59.5 -25q-35 0 -59 25
t-24 62v279h-18q-32 0 -53.5 20.5t-21.5 50.5q0 32 21.5 52.5t53.5 20.5h18v29zM554 545q35 0 59 -24.5t24 -60.5l2 -380q0 -35 -24 -60t-59 -25q-17 0 -31.5 6.5t-26 18t-18 27t-6.5 33.5l-2 380q0 36 23 60.5t59 24.5z" />
    <glyph glyph-name=".notdef" horiz-adv-x="301" 
 />
    <glyph glyph-name=".null" horiz-adv-x="0" 
 />
    <glyph glyph-name="nonmarkingreturn" horiz-adv-x="240" 
 />
    <glyph glyph-name="space" unicode=" " horiz-adv-x="240" 
 />
    <glyph glyph-name="space" unicode="&#xa0;" horiz-adv-x="240" 
 />
    <glyph glyph-name="exclam" unicode="!" horiz-adv-x="256" 
d="M45 624q-1 17 5 32.5t17 27t26.5 18.5t33.5 7q17 0 32.5 -7t27 -18.5t18.5 -27t6 -32.5l-11 -320q-2 -31 -22.5 -50t-51.5 -19t-50.5 20t-20.5 49zM54 106q0 29 20 49t53 20q32 0 52.5 -20t20.5 -49v-43q0 -29 -20.5 -49t-52.5 -20q-33 0 -53 20t-20 49v43z" />
    <glyph glyph-name="quotedbl" unicode="&#x22;" horiz-adv-x="418" 
d="M186 475q0 -29 -20.5 -49t-52.5 -20q-33 0 -53 20t-20 49v164q0 29 20 49.5t53 20.5q32 0 52.5 -20.5t20.5 -49.5v-164zM378 475q0 -29 -20 -49t-52 -20q-33 0 -53 20t-20 49v164q0 29 20 49.5t53 20.5q32 0 52 -20.5t20 -49.5v-164z" />
    <glyph glyph-name="numbersign" unicode="#" horiz-adv-x="748" 
d="M238 45q-8 -25 -27.5 -39.5t-42.5 -14.5q-18 0 -33 9t-25 23t-13 32t3 36l23 68h-27q-32 0 -54 21t-22 52q0 15 6.5 28t17 23t24.5 16t29 6h73l34 102h-27q-32 0 -54 21t-22 52q0 15 6.5 28t17 23t24.5 16t29 6h73l35 104q8 24 28.5 38.5t43.5 14.5q18 0 33 -8.5
t24 -22.5t12 -32t-3 -36l-20 -59h71l34 105q8 24 28.5 38.5t44.5 14.5q18 0 32.5 -8.5t23.5 -22.5t12 -32t-3 -36l-19 -59h23q15 0 29.5 -6t25 -15.5t17 -22.5t6.5 -28q0 -32 -23 -52.5t-55 -20.5h-71l-34 -102h24q15 0 29 -6t24.5 -16t17 -23t6.5 -28q0 -31 -22.5 -52
t-54.5 -21h-71l-37 -114q-8 -25 -27.5 -39.5t-43.5 -14.5q-18 0 -33 9t-24.5 23t-12.5 32t3 36l22 68h-70zM323 305h70l34 102h-70z" />
    <glyph glyph-name="dollar" unicode="$" horiz-adv-x="611" 
d="M572 222q0 -38 -12.5 -72t-37 -62t-61 -47.5t-84.5 -27.5v-26q0 -32 -20.5 -54.5t-51.5 -22.5q-15 0 -28 6.5t-23 17t-16 24.5t-6 29v29q-54 10 -94.5 28t-63.5 38q-20 16 -31.5 34t-11.5 41q0 37 25 61.5t60 24.5q14 0 28.5 -4.5t33.5 -19.5q26 -20 63 -33.5t72 -13.5
q45 0 64.5 13t19.5 36q0 13 -8.5 22t-23.5 16t-35.5 12t-44.5 10q-59 13 -103.5 29.5t-74 41t-44.5 59.5t-15 84q0 36 13.5 67.5t37.5 57t58 44t75 27.5v23q0 15 6 29t16 24.5t23 17t28 6.5q31 0 51.5 -22.5t20.5 -54.5v-18q48 -6 84 -20.5t58 -34.5q14 -12 20.5 -28.5
t6.5 -35.5q0 -33 -22 -56t-57 -23q-14 0 -29 5t-31 13t-43.5 16t-61.5 8q-43 0 -62 -14t-19 -33q0 -23 28 -33t87 -23q66 -15 111.5 -35t73 -46t39.5 -59t12 -75z" />
    <glyph glyph-name="percent" unicode="%" horiz-adv-x="899" 
d="M193 710q35 0 65 -12.5t53 -34t36.5 -51t15.5 -63.5q1 -27 0 -54q-2 -34 -15.5 -63.5t-36.5 -51t-53 -34t-65 -12.5t-65 12.5t-52.5 34t-36 51t-15.5 62.5q-1 29 0 54q2 34 15.5 64t36 51.5t52.5 34t65 12.5zM704 366q35 0 65 -12.5t53 -34t36.5 -50.5t15.5 -63
q1 -28 0 -55q-2 -34 -15.5 -63t-36.5 -50.5t-53 -34t-65 -12.5t-65 12.5t-52.5 34t-36 50.5t-15.5 63q-1 28 0 54q2 34 15.5 63.5t36 51t52.5 34t65 12.5zM566 601q10 12 24.5 18.5t29.5 7t29 -4t25 -13.5q26 -22 27 -54.5t-19 -55.5l-341 -392q-10 -12 -24 -18.5t-29 -7.5
t-29.5 3.5t-26.5 14.5q-11 10 -17.5 24.5t-7.5 29.5t3.5 30t14.5 26zM704 249q-21 0 -33.5 -13t-14.5 -32q-2 -10 -2 -25t2 -26q2 -20 14.5 -32.5t33.5 -12.5q22 0 34 12.5t14 32.5q2 11 2 25.5t-2 25.5q-2 19 -14 32t-34 13zM193 592q-21 0 -33.5 -13t-14.5 -32
q-2 -9 -2 -24t2 -27q2 -19 14.5 -32t33.5 -13q22 0 34 13t14 32q2 12 2 26.5t-2 24.5q-2 19 -14 32t-34 13z" />
    <glyph glyph-name="ampersand" unicode="&#x26;" horiz-adv-x="728" 
d="M454 258q3 51 25 79t72 28h69q35 0 60.5 -23.5t25.5 -59.5q0 -34 -24.5 -58t-60.5 -24h-21q-11 -50 -37.5 -89t-64.5 -65.5t-85 -40.5t-99 -14q-68 0 -119.5 16.5t-86.5 46t-53 69.5t-18 87q0 54 28 96.5t90 73.5q-30 24 -55.5 63t-25.5 87q0 40 17.5 73t48.5 56.5
t74.5 36.5t96.5 13q56 0 101 -14t76 -38.5t47.5 -57t16.5 -68.5q0 -42 -13.5 -74t-43 -57.5t-75.5 -47t-110 -43.5q-62 -21 -83 -41t-21 -45q0 -32 27.5 -53.5t78.5 -21.5q62 0 100.5 30.5t41.5 79.5zM243 507q0 -23 14.5 -39t30.5 -26q53 17 73 31.5t20 36.5q0 17 -15.5 31
t-53.5 14q-35 0 -52 -14t-17 -34z" />
    <glyph glyph-name="quotesingle" unicode="'" horiz-adv-x="225" 
d="M186 475q0 -29 -20.5 -49t-52.5 -20q-33 0 -53 20t-20 49v164q0 29 20 49.5t53 20.5q32 0 52.5 -20.5t20.5 -49.5v-164z" />
    <glyph glyph-name="parenleft" unicode="(" horiz-adv-x="367" 
d="M203 309q0 -59 10.5 -108t28.5 -90t42.5 -75t53.5 -64q21 -23 26.5 -52.5t-11.5 -55.5q-9 -14 -24 -24t-32 -13t-34.5 1t-32.5 19q-51 48 -87 103.5t-59.5 115.5t-34.5 121.5t-11 121.5t11 121.5t34.5 121.5t59.5 115.5t87 103.5q15 15 32.5 19t34.5 1t32 -13t24 -24
q17 -26 11.5 -55.5t-26.5 -52.5q-29 -30 -53.5 -64t-42.5 -75t-28.5 -90t-10.5 -108z" />
    <glyph glyph-name="parenright" unicode=")" horiz-adv-x="367" 
d="M164 309q0 59 -10.5 108t-28.5 90t-43 75t-53 64q-21 23 -26.5 52.5t11.5 55.5q9 14 24 24t32 13t34.5 -1t32.5 -19q51 -48 87 -103.5t59.5 -115.5t34.5 -121.5t11 -121.5t-11 -121.5t-34.5 -121.5t-59.5 -115.5t-87 -103.5q-15 -15 -32.5 -19t-34.5 -1t-32 13t-24 24
q-17 26 -11.5 55.5t26.5 52.5q28 30 53 64t43 75t28.5 90t10.5 108z" />
    <glyph glyph-name="asterisk" unicode="*" horiz-adv-x="435" 
d="M217 329q-20 0 -34 12.5t-18 32.5q-2 12 0 27l14 64l-51 -44q-9 -8 -23 -13q-18 -6 -36.5 0.5t-28.5 23.5q-15 24 -4 48t40 33l63 20l-63 22q-13 4 -23 13t-15 20t-5 23t7 24q10 19 27 25.5t36 -0.5q7 -2 12.5 -5.5t11.5 -8.5l52 -44l-14 64q-2 13 0 27q4 20 18 32.5
t34 12.5q21 0 35.5 -12t17.5 -32q3 -12 -1 -28l-14 -65l53 45q11 10 23 14q19 7 36.5 0.5t27.5 -24.5q13 -24 1.5 -48.5t-37.5 -32.5l-66 -22l66 -20q28 -8 39.5 -32.5t-3.5 -48.5q-10 -17 -28.5 -23.5t-36.5 -0.5q-13 4 -23 13l-52 45l14 -65q3 -17 1 -28q-3 -20 -17.5 -32
t-35.5 -12z" />
    <glyph glyph-name="plus" unicode="+" horiz-adv-x="628" 
d="M236 272h-98q-33 0 -56 23t-23 55q0 33 23 55.5t56 22.5h98v98q0 33 23 56t55 23q34 0 56 -23t22 -56v-98h97q33 0 56 -22.5t23 -55.5q0 -16 -6.5 -30.5t-17.5 -25t-25 -16.5t-30 -6h-97v-99q0 -33 -22 -56t-56 -23q-32 0 -55 24t-23 55v99z" />
    <glyph glyph-name="comma" unicode="," horiz-adv-x="244" 
d="M196 57q0 -30 -5.5 -63.5t-24.5 -65.5q-13 -21 -32.5 -34.5t-45.5 -13.5q-29 0 -46.5 20t-17.5 43q0 12 4 22.5t9 21.5t9 25t4 34v68q0 29 20.5 49t52.5 20q31 0 52 -20t21 -49v-57z" />
    <glyph glyph-name="hyphen" unicode="-" horiz-adv-x="318" 
d="M293 288q0 -17 -6.5 -32t-18 -26t-27 -18t-33.5 -7h-98q-36 0 -60.5 23.5t-24.5 59.5q0 35 24.5 59t60.5 24h98q35 0 60 -24t25 -59z" />
    <glyph glyph-name="period" unicode="." horiz-adv-x="287" 
d="M122 190q29 0 51 -21t22 -52v-54q0 -31 -20.5 -51.5t-52.5 -20.5q-30 0 -51.5 20.5t-21.5 51.5v54q0 31 20.5 52t52.5 21z" />
    <glyph glyph-name="slash" unicode="/" horiz-adv-x="407" 
d="M355 728q16 -6 27.5 -18t17.5 -27t6.5 -32t-6.5 -33l-240 -598q-14 -34 -45 -47.5t-64 -0.5q-15 6 -26.5 18t-17.5 26.5t-6.5 31t6.5 33.5l241 598q6 16 17.5 28.5t26 19t31 7t32.5 -5.5z" />
    <glyph glyph-name="zero" unicode="0" horiz-adv-x="727" 
d="M363 -9q-63 0 -114.5 19.5t-89.5 54.5t-60.5 84.5t-26.5 109.5q-2 20 -3 44t-1 48t1 47.5t3 42.5q5 61 27.5 110.5t60 84.5t89 54.5t114.5 19.5t114.5 -20t89.5 -55.5t61 -85t28 -108.5q3 -41 3 -91t-3 -91q-5 -60 -28 -109.5t-61 -84.5t-89.5 -54.5t-114.5 -19.5z
M363 153q54 0 87 34.5t37 100.5q1 13 1 29.5v34v34t-1 30.5q-4 65 -37 99.5t-87 34.5q-53 0 -86 -34.5t-36 -99.5q-1 -14 -1.5 -30.5t-0.5 -34t0.5 -34t1.5 -29.5q3 -66 36 -100.5t86 -34.5z" />
    <glyph glyph-name="one" unicode="1" horiz-adv-x="541" 
d="M331 707q21 0 36.5 -8.5t26 -21t15.5 -28t5 -28.5v-540q0 -36 -23.5 -60.5t-59.5 -24.5q-17 0 -32 6.5t-26 18t-17.5 27t-6.5 33.5v402l-88 -50q-31 -17 -64 -8.5t-50 40.5q-8 15 -9.5 31t3 31.5t14.5 29t25 22.5l206 116q22 12 45 12z" />
    <glyph glyph-name="two" unicode="2" horiz-adv-x="618" 
d="M46 99q0 69 42 127.5t123 112.5q50 33 82.5 55.5t51 39t26 29t7.5 27.5q0 9 -3.5 19.5t-12 19t-24 14.5t-39.5 6q-38 0 -61.5 -12.5t-40.5 -31.5q-11 -11 -20 -19.5t-24 -13.5q-17 -5 -33.5 -3.5t-31.5 9t-26 19.5t-15 27q-11 41 11 74q14 21 37 41.5t53 36t67.5 25
t81.5 9.5q62 0 109 -17t78.5 -46t47.5 -68t16 -84q0 -25 -5 -50.5t-22.5 -54.5t-52 -62.5t-93.5 -73.5q-9 -6 -27 -17.5t-37 -24.5t-34 -25.5t-19 -21.5h223q18 0 33.5 -6.5t27 -17.5t18 -26t6.5 -32q0 -36 -25 -59.5t-60 -23.5h-335q-44 0 -72 25.5t-28 73.5z" />
    <glyph glyph-name="three" unicode="3" horiz-adv-x="617" 
d="M382 443q78 -13 122.5 -60t44.5 -117q0 -69 -32.5 -121t-91 -86t-138.5 -50t-176 -13q-36 2 -58 23.5t-24 55.5q-1 18 5.5 34.5t19.5 28.5t31 18.5t40 4.5q55 -5 102.5 0t82 18t54 33.5t19.5 47.5q0 26 -17 41.5t-50 15.5q-22 0 -48.5 -7.5t-43.5 -7.5q-28 0 -51.5 19.5
t-23.5 53.5q0 15 7 33t30 35l117 96l-1 2h-190q-18 0 -33 6.5t-26.5 18t-18 26.5t-6.5 32q0 35 24.5 59t59.5 24h302q43 0 71.5 -27.5t28.5 -70.5q0 -14 -6 -33t-20 -32z" />
    <glyph glyph-name="four" unicode="4" horiz-adv-x="680" 
d="M522 145v-64q0 -35 -24.5 -59.5t-58.5 -24.5q-36 0 -60 24.5t-24 59.5v64h-203q-32 0 -54.5 11t-35.5 29.5t-16.5 42t2.5 48.5q3 11 9.5 23.5t20.5 31.5l238 325q20 26 45 40.5t54 14.5q26 0 46 -9t33.5 -25t20.5 -36.5t7 -43.5v-286h39q35 0 59 -23.5t24 -59.5
q0 -16 -7 -31t-18 -26.5t-26.5 -18.5t-31.5 -7h-39zM355 305v171l-120 -171h120z" />
    <glyph glyph-name="five" unicode="5" horiz-adv-x="631" 
d="M584 282q0 -71 -33.5 -124.5t-93 -89t-140 -53.5t-173.5 -18q-35 0 -59 22t-25 56q-2 38 23.5 62.5t62.5 24.5q57 0 106.5 6t86.5 19t58 33.5t21 50.5q0 32 -25.5 49t-66.5 17q-35 0 -68 -9t-56 -17q-32 -10 -56 -7.5t-39.5 14t-23 30t-7.5 41.5v212q0 30 9.5 50.5
t24.5 32.5t34.5 17.5t39.5 5.5h280q35 0 59.5 -23t24.5 -58t-25 -59.5t-59 -24.5h-228v-91q26 14 61 21t79 7q48 0 86.5 -14.5t65.5 -40.5t41.5 -62.5t14.5 -79.5z" />
    <glyph glyph-name="six" unicode="6" horiz-adv-x="693" 
d="M507 544q-13 0 -39.5 3.5t-61.5 3.5q-68 0 -109 -25t-52 -89q35 17 71 26.5t75 9.5q61 0 106.5 -18.5t76 -49.5t46 -72t15.5 -87q0 -51 -17.5 -97.5t-52.5 -81.5t-87.5 -55.5t-122.5 -20.5q-89 0 -146 30.5t-89.5 82.5t-43 120t-6.5 143q7 163 91.5 255t245.5 92
q28 0 60.5 -1.5t60.5 -10.5t46 -28t18 -53q0 -35 -22 -56t-63 -21zM357 320q-37 0 -67.5 -9.5t-53.5 -20.5q-1 -65 28 -99.5t93 -34.5q57 0 83.5 24t26.5 59q0 22 -9 37t-24 25t-35 14.5t-42 4.5z" />
    <glyph glyph-name="seven" unicode="7" horiz-adv-x="557" 
d="M447 707q45 0 73 -25.5t28 -69.5q0 -17 -5 -31.5t-13 -26.5q-47 -76 -86 -142t-70 -126t-53.5 -115.5t-37.5 -110.5q-7 -24 -21.5 -38.5t-32.5 -20.5t-36.5 -4t-32.5 11q-16 9 -24.5 20t-12.5 23.5t-3 26.5t5 28q13 48 34.5 101.5t49.5 109t60 112.5t66 113h-232
q-18 0 -33 6.5t-26.5 17.5t-18 26.5t-6.5 32.5q0 36 24.5 59t59.5 23h344z" />
    <glyph glyph-name="eight" unicode="8" horiz-adv-x="706" 
d="M354 562q-53 0 -81.5 -17.5t-28.5 -47.5q0 -31 28 -50t79 -19t81 19.5t30 50.5q0 29 -28 46.5t-80 17.5zM354 290q-63 0 -93 -20.5t-30 -52.5t29.5 -52.5t93.5 -20.5q65 0 94.5 20.5t29.5 52.5t-30.5 52.5t-93.5 20.5zM353 -9q-72 0 -126.5 16t-91 43.5t-54.5 65.5
t-18 82q0 63 26.5 102.5t77.5 64.5q-44 22 -67 59t-23 93q0 47 19.5 83t55.5 60.5t87 37t113 12.5q63 0 114 -12.5t87 -36.5t55.5 -60t19.5 -83q0 -55 -22.5 -92.5t-66.5 -60.5q51 -25 77.5 -64.5t26.5 -102.5q0 -44 -18.5 -82t-54.5 -65.5t-90.5 -43.5t-126.5 -16z" />
    <glyph glyph-name="nine" unicode="9" horiz-adv-x="692" 
d="M181 162q31 2 71 3t78.5 9.5t71 29.5t47.5 63q-32 -18 -68.5 -26t-85.5 -8q-57 0 -101.5 17.5t-74.5 48t-45.5 71t-15.5 86.5q0 52 17.5 98t52.5 81t87.5 55.5t122.5 20.5q88 0 145 -30.5t89 -81.5t43 -118.5t7 -141.5q-5 -93 -34 -158t-83 -106.5t-132.5 -60
t-183.5 -18.5q-38 0 -62.5 22.5t-26.5 56.5q-1 16 4 31t15.5 27t26 20t35.5 9zM336 381q36 0 65 7.5t55 18.5q0 66 -27.5 102.5t-93.5 36.5q-57 0 -83.5 -24t-26.5 -59q0 -43 32.5 -62.5t78.5 -19.5z" />
    <glyph glyph-name="colon" unicode=":" horiz-adv-x="254" 
d="M54 113q0 29 19.5 50t53.5 21q33 0 53 -21t20 -50v-48q0 -30 -20 -50.5t-53 -20.5t-53 20t-20 49v50zM54 439q0 29 19.5 50t53.5 21q33 0 53 -21t20 -50v-48q0 -29 -20 -50t-53 -21t-53 20.5t-20 49.5v49z" />
    <glyph glyph-name="semicolon" unicode=";" horiz-adv-x="254" 
d="M208 54q0 -23 -5 -53t-17 -57t-31.5 -45.5t-48.5 -18.5q-23 0 -37.5 12t-21.5 29q-2 6 -3 12.5t-1 11.5q0 12 4.5 22t9 21.5t8.5 25t4 32.5v68q0 29 19 49t51 20q30 0 49.5 -20t19.5 -49v-60zM67 439q0 29 19.5 50t53.5 21q32 0 52.5 -21t20.5 -50v-48q0 -29 -20.5 -50
t-52.5 -21q-33 0 -53 20.5t-20 49.5v49z" />
    <glyph glyph-name="less" unicode="&#x3c;" horiz-adv-x="628" 
d="M509 639q11 -12 15 -27t2.5 -30t-9 -29t-19.5 -24l-205 -165q-3 -2 -6 -5.5t-3 -8.5t3 -8.5t6 -5.5l205 -165q12 -10 19.5 -24t9 -29t-2.5 -30t-15 -27q-20 -25 -51.5 -28.5t-58.5 18.5l-250 203q-28 23 -40.5 45t-12.5 51t12.5 51t40.5 45l250 203q27 22 58.5 18.5
t51.5 -28.5z" />
    <glyph glyph-name="equal" unicode="=" horiz-adv-x="628" 
d="M146 387q-33 0 -56 23t-23 55q0 33 23 55.5t56 22.5h337q33 0 55.5 -22.5t22.5 -55.5q0 -16 -6.5 -30.5t-17 -25t-25 -16.5t-29.5 -6h-337zM146 159q-33 0 -56 23t-23 55q0 34 23 56t56 22h337q33 0 55.5 -22t22.5 -56q0 -32 -23.5 -55t-54.5 -23h-337z" />
    <glyph glyph-name="greater" unicode="&#x3e;" horiz-adv-x="628" 
d="M119 639q20 25 51.5 28.5t58.5 -18.5l250 -203q28 -23 40.5 -45t12.5 -51t-12.5 -51t-40.5 -45l-250 -203q-27 -22 -58.5 -18.5t-51.5 28.5q-11 12 -15 27t-2.5 30t9 29t19.5 24l205 165q3 2 6 5.5t3 8.5t-3 8.5t-6 5.5l-205 165q-12 10 -19.5 24t-9 29t2.5 30t15 27z
" />
    <glyph glyph-name="question" unicode="?" horiz-adv-x="548" 
d="M182 504q-6 -7 -23 -20t-43 -13q-18 0 -33 7t-26 19t-17 27t-6 31q0 28 22 57q40 51 99.5 74.5t119.5 23.5q51 0 93 -14.5t72 -41t47 -63t17 -81.5q0 -92 -55 -157.5t-157 -112.5q-14 -7 -27.5 -9.5t-27.5 -2.5q-28 0 -50 20t-22 49t14.5 47.5t37.5 29.5q54 24 87 51.5
t33 65.5q0 24 -18.5 41.5t-48.5 17.5q-24 0 -43 -9.5t-45 -36.5zM172 107q0 29 20 49t53 20q32 0 52.5 -20t20.5 -49v-43q0 -29 -20.5 -49.5t-52.5 -20.5q-33 0 -53 20.5t-20 49.5v43z" />
    <glyph glyph-name="at" unicode="@" horiz-adv-x="905" 
d="M458 176q23 4 40.5 -7.5t22.5 -32.5q6 -25 -4.5 -45t-35.5 -28q-12 -4 -26 -5.5t-23 -1.5q-80 0 -126.5 47t-46.5 131v87q0 41 14.5 74t40.5 56t61.5 35.5t77.5 12.5t78.5 -12.5t64 -36t44 -56.5t16.5 -74v-98q0 -16 8 -26t23 -10q14 0 21.5 10t7.5 26v111
q0 57 -22.5 102t-59.5 76t-84.5 47t-96.5 16q-53 0 -98 -16t-79 -45.5t-55 -69.5t-24 -88q-2 -17 -2.5 -38.5t-0.5 -44t1 -43.5t2 -37q3 -49 22 -88t50.5 -66.5t74 -42t93.5 -14.5q31 0 60 4t57 14q21 8 48 6t44 -27q14 -23 9 -49.5t-30 -43.5q-29 -20 -73.5 -32t-113.5 -12
q-71 0 -138.5 21t-121 63t-88.5 105t-39 147q-1 18 -1.5 43.5t-0.5 53t0.5 53.5t1.5 44q4 81 38.5 144.5t89.5 106.5t126.5 65.5t149.5 22.5q79 0 152 -24t128.5 -69.5t88.5 -111t33 -147.5v-136q0 -41 -13.5 -71.5t-36 -51.5t-51 -31.5t-57.5 -10.5q-42 0 -75 14t-55 37.5
t-33.5 53t-11.5 59.5v78q0 29 -16.5 49.5t-49.5 20.5t-49.5 -20.5t-16.5 -49.5v-65q0 -37 20 -50t46 -8z" />
    <glyph glyph-name="A" unicode="A" horiz-adv-x="700" 
d="M683 83q0 -16 -5.5 -31.5t-16.5 -27.5t-26.5 -19.5t-34.5 -7.5q-26 0 -48 14t-30 39l-43 128h-258l-43 -128q-10 -25 -31.5 -39.5t-47.5 -14.5q-20 0 -35 7.5t-25.5 19.5t-16 27.5t-5.5 31.5q0 13 5 30l179 497q21 57 60.5 83.5t89.5 26.5q51 0 91 -26.5t60 -83.5
l176 -497q5 -15 5 -29zM270 322h161l-70 213q-3 8 -10 8t-9 -8z" />
    <glyph glyph-name="B" unicode="B" horiz-adv-x="671" 
d="M234 155h157q38 0 56.5 19t18.5 52q0 32 -19 51t-58 19h-155v-141zM378 425q36 0 53.5 17.5t17.5 46.5q0 66 -71 66h-144v-130h144zM635 206q0 -50 -17 -88.5t-47 -64.5t-71.5 -39.5t-91.5 -13.5h-225q-28 0 -50 9t-37 24.5t-22.5 36.5t-7.5 44v482q0 24 7.5 44.5
t22.5 36.5t36.5 25t50.5 9h227q50 0 88.5 -15.5t64.5 -42t39.5 -61.5t13.5 -73q0 -57 -24 -93.5t-59 -56.5v-2q45 -17 73.5 -57.5t28.5 -103.5z" />
    <glyph glyph-name="C" unicode="C" horiz-adv-x="670" 
d="M356 148q38 0 68.5 18t50.5 52q13 21 28.5 34.5t45.5 13.5q15 0 29.5 -6t26.5 -16.5t19.5 -25t7.5 -31.5q0 -11 -1.5 -21t-7.5 -26q-17 -38 -45 -67t-63.5 -48t-75.5 -28.5t-82 -9.5q-66 0 -120.5 22t-94.5 61t-64.5 91t-29.5 112q-8 82 0 158q5 61 29.5 113.5t64.5 91.5
t94 61t120 22q42 0 82.5 -9.5t76 -28.5t63.5 -48t45 -67q6 -16 7.5 -26t1.5 -21q0 -17 -7.5 -31.5t-19.5 -25t-26.5 -16.5t-29.5 -6q-30 0 -46 15t-28 33q-20 34 -50.5 52t-68.5 18q-32 0 -57 -11.5t-42.5 -32t-27.5 -48t-12 -60.5q-3 -56 0 -112q5 -66 40 -106t99 -40z" />
    <glyph glyph-name="D" unicode="D" horiz-adv-x="716" 
d="M500 316q2 18 2 35.5t-1 33.5q-3 74 -41.5 116.5t-126.5 42.5h-97v-377h97q85 0 123.5 40t43.5 109zM183 0q-56 0 -86.5 33t-30.5 81v482q0 49 29.5 81t87.5 32h145q84 0 146 -21.5t104 -60.5t64 -93.5t27 -119.5q2 -28 2.5 -55t-1.5 -53q-5 -66 -26.5 -122.5t-63 -97
t-103.5 -63.5t-149 -23h-145z" />
    <glyph glyph-name="E" unicode="E" horiz-adv-x="631" 
d="M504 709q34 0 57.5 -21.5t23.5 -55.5q0 -16 -6.5 -30.5t-18 -25t-26 -17t-30.5 -6.5h-268v-125h230q35 0 55.5 -19.5t20.5 -52.5q0 -29 -21 -51t-55 -22h-230v-126h270q32 0 56.5 -23t24.5 -55q0 -34 -23.5 -56.5t-57.5 -22.5h-323q-29 0 -50.5 9t-36.5 25t-22.5 36.5
t-7.5 44.5v481q0 48 30 80.5t87 32.5h321z" />
    <glyph glyph-name="F" unicode="F" horiz-adv-x="611" 
d="M66 596q0 48 30 80.5t87 32.5h311q34 0 57.5 -21.5t23.5 -55.5q0 -16 -6.5 -30.5t-18 -25t-26 -17t-30.5 -6.5h-258v-142h234q34 0 57.5 -22.5t23.5 -56.5q0 -16 -6.5 -30.5t-18 -25t-26 -17t-30.5 -6.5h-234v-170q0 -37 -24.5 -62t-61.5 -25q-17 0 -32 7t-26.5 19
t-18.5 28t-7 33v513z" />
    <glyph glyph-name="G" unicode="G" horiz-adv-x="698" 
d="M653 252q0 -60 -23 -108.5t-63 -83.5t-94 -54t-115 -19q-66 0 -120.5 22t-95 61t-65 91t-29.5 112q-8 82 0 158q6 61 30 113.5t64.5 91.5t94.5 61t120 22q91 0 155 -35t103 -97q16 -22 16 -53q0 -32 -24 -55.5t-58 -23.5q-23 0 -39 11.5t-26 25.5q-9 14 -19.5 26.5
t-24.5 21.5t-33 14.5t-46 5.5q-69 0 -103 -39.5t-41 -114.5q-3 -30 -2.5 -59t2.5 -55q5 -76 42 -114t109 -38q34 0 57.5 9t38.5 22.5t22 30.5t7 34v19h-68q-32 0 -54.5 22.5t-22.5 53.5q0 32 22.5 54t54.5 22h120q26 0 46.5 -8.5t34 -23.5t20.5 -34.5t7 -40.5v-48z" />
    <glyph glyph-name="H" unicode="H" horiz-adv-x="746" 
d="M66 622q0 37 25 62t60 25q37 0 61 -25t24 -62v-191h274v191q0 18 6.5 34t18 27.5t27 18.5t32.5 7q37 0 61 -25.5t24 -61.5v-538q0 -37 -24 -62.5t-61 -25.5q-17 0 -32.5 7t-27 19t-18 28t-6.5 34v188h-274v-190q0 -37 -24 -61.5t-61 -24.5q-35 0 -60 25.5t-25 60.5v540z
" />
    <glyph glyph-name="I" unicode="I" horiz-adv-x="302" 
d="M66 622q0 18 7 34t18.5 27.5t27 18.5t32.5 7q37 0 61 -25.5t24 -61.5v-538q0 -37 -24 -62.5t-61 -25.5q-35 0 -60 25.5t-25 62.5v538z" />
    <glyph glyph-name="J" unicode="J" horiz-adv-x="566" 
d="M33 117q-10 23 -10 45q0 32 21.5 56t55.5 24q27 0 44.5 -12.5t30.5 -31.5q33 -49 83 -49q30 0 53.5 21t23.5 66v386q0 18 7 34t18.5 27.5t26.5 18.5t32 7q37 0 61 -25.5t24 -61.5v-375q0 -58 -19.5 -106t-53.5 -82t-79 -53t-97 -19q-79 0 -136 36.5t-86 93.5z" />
    <glyph glyph-name="K" unicode="K" horiz-adv-x="665" 
d="M236 84q0 -37 -24 -62.5t-61 -25.5q-17 0 -32.5 7t-27 19t-18.5 28t-7 34v538q0 18 7 34t18.5 27.5t27 18.5t32.5 7q37 0 61 -25.5t24 -61.5v-186q18 0 31 3t28 20l201 220q14 16 30.5 23t33.5 7t32.5 -6.5t26.5 -18.5q22 -23 23.5 -54.5t-20.5 -54.5l-203 -214l197 -219
q23 -26 25 -60t-22 -60t-61 -26q-17 0 -33 7.5t-29 21.5l-201 225q-14 17 -27.5 20t-31.5 3v-189z" />
    <glyph glyph-name="L" unicode="L" horiz-adv-x="574" 
d="M66 622q0 18 7 34t18.5 27.5t27 18.5t32.5 7q37 0 61 -25.5t24 -61.5v-455h247q17 0 32.5 -6.5t27.5 -18t19 -27t7 -32.5q0 -35 -25.5 -59t-60.5 -24h-328q-43 0 -66 26t-23 62v534z" />
    <glyph glyph-name="M" unicode="M" horiz-adv-x="963" 
d="M910 84q0 -37 -21.5 -63.5t-66.5 -26.5q-33 0 -57 19t-27 51l-43 453q0 4 -4 4t-4 -4l-75 -404q-11 -61 -48 -89.5t-82 -28.5q-22 0 -42.5 7t-38 21.5t-30 37t-18.5 52.5l-77 404q0 4 -4 4t-4 -5l-43 -453q-2 -31 -26 -50t-57 -19q-45 0 -67 27t-22 63v9.5t1 9.5l62 463
q11 75 51.5 109.5t93.5 34.5q27 0 51.5 -7.5t45 -24.5t35 -44.5t21.5 -66.5l63 -365q0 -6 5 -6q6 0 6 6l62 365q6 39 20.5 66.5t34.5 44.5t45 24.5t52 7.5q54 0 94.5 -34.5t50.5 -109.5l62 -462q1 -5 1 -10v-10z" />
    <glyph glyph-name="N" unicode="N" horiz-adv-x="766" 
d="M538 215l3 1q-8 87 -9.5 159t-1.5 118v129q0 37 25 62t60 25q37 0 61 -25t24 -62v-496q0 -27 -9 -51t-25 -42t-39 -28.5t-51 -10.5q-35 0 -68.5 16t-53.5 55l-229 428l-3 -1q4 -43 6.5 -78.5t3.5 -65t1.5 -54.5t0.5 -48v-165q0 -36 -23.5 -61.5t-59.5 -25.5
q-17 0 -32.5 7t-27 19t-18.5 27.5t-7 33.5v493q0 27 9 51.5t25.5 43t39.5 29.5t51 11q36 0 68.5 -16t54.5 -58l224 -419v-1z" />
    <glyph glyph-name="O" unicode="O" horiz-adv-x="737" 
d="M367 -13q-65 0 -121 22t-98.5 61t-68.5 91t-31 112q-8 82 0 158q5 61 31 113.5t68.5 91.5t98.5 61t121 22t121.5 -22.5t99.5 -61.5t69.5 -91.5t31.5 -112.5q6 -79 0 -158q-5 -60 -31.5 -112t-69.5 -91t-99.5 -61t-121.5 -22zM367 148q32 0 59 11t47 31t32 47.5t14 60.5
q2 26 2 55.5t-2 56.5q-2 33 -14 60t-32 47t-47 31t-59 11t-58.5 -11t-46 -31t-31.5 -47t-14 -60q-2 -27 -2 -56.5t2 -55.5q2 -33 14 -60.5t31.5 -47.5t46 -31t58.5 -11z" />
    <glyph glyph-name="P" unicode="P" horiz-adv-x="651" 
d="M357 370q53 0 76 25t23 67t-23 67.5t-74 25.5h-122v-185h120zM237 215v-131q0 -18 -7 -34t-18.5 -28t-27 -19t-32.5 -7t-32.5 7t-27.5 19t-19 28t-7 34v523q0 42 27 72t78 30h200q52 0 98.5 -16.5t81.5 -48t55.5 -77t20.5 -104.5t-20 -105.5t-55 -78t-84 -48t-106 -16.5
h-125z" />
    <glyph glyph-name="Q" unicode="Q" horiz-adv-x="737" 
d="M367 -13q-65 0 -121 22t-98.5 61t-68.5 91t-31 112q-8 82 0 158q5 61 31 113.5t68.5 91.5t98.5 61t121 22t121.5 -22.5t99.5 -61.5t69.5 -91.5t31.5 -112.5q6 -79 0 -158q-5 -51 -24.5 -96t-51.5 -82l65 -79q8 -10 11.5 -23.5t2 -27t-7.5 -25.5t-16 -20
q-24 -18 -51.5 -17.5t-47.5 23.5l-70 87q-61 -26 -132 -26zM367 140q7 0 13.5 0.5t13.5 1.5l-68 85q-8 10 -11.5 22.5t-2.5 25.5t6.5 25.5t15.5 21.5q21 19 51.5 17.5t50.5 -24.5l69 -86q6 14 9 29t5 32q2 26 2 59.5t-2 60.5q-2 33 -14 60t-32 47t-47 31t-59 11t-58.5 -11
t-46 -31t-31.5 -47t-14 -60q-2 -27 -2 -60.5t2 -59.5q2 -33 14 -60.5t31.5 -47.5t46 -31t58.5 -11z" />
    <glyph glyph-name="R" unicode="R" horiz-adv-x="678" 
d="M237 228v-146q0 -18 -7 -34t-18.5 -28t-27 -19t-33.5 -7q-17 0 -32.5 7t-27 19t-18.5 28t-7 34v525q0 42 27 72t78 30h206q51 0 96.5 -15.5t80 -45.5t54.5 -74.5t20 -102.5q0 -45 -11.5 -78.5t-29 -57.5t-39.5 -39.5t-43 -24.5l118 -132q11 -12 16.5 -27.5t5.5 -32
t-6 -32.5t-18 -27q-14 -14 -30.5 -20t-33.5 -6t-32 5t-26 19l-144 178q-12 15 -23.5 23.5t-32.5 8.5h-62zM359 382q56 0 77 23.5t21 61.5q0 40 -22.5 64t-70.5 24h-127v-173h122z" />
    <glyph glyph-name="S" unicode="S" horiz-adv-x="646" 
d="M349 435q135 -25 198 -78t63 -147q0 -47 -19.5 -87.5t-56 -70.5t-89 -47.5t-119.5 -17.5q-45 0 -82.5 6.5t-68 17t-54 23.5t-39.5 26q-43 32 -43 74q0 38 25 62.5t60 24.5q13 0 27.5 -4.5t34.5 -19.5q27 -20 66.5 -33.5t87.5 -13.5q45 0 72 15t27 44q0 16 -11 26.5
t-30 18t-44.5 13.5t-55.5 12q-63 13 -108.5 31.5t-75 45t-44 62.5t-14.5 84q0 49 20.5 89t56 68.5t83.5 44t104 15.5q78 0 138 -16.5t91 -42.5q14 -13 20.5 -29.5t6.5 -34.5q0 -33 -22 -56t-56 -23q-15 0 -30 5t-31 12q-18 9 -47 17t-71 8q-48 0 -70 -18t-22 -40
q0 -26 28.5 -40.5t93.5 -25.5z" />
    <glyph glyph-name="T" unicode="T" horiz-adv-x="630" 
d="M230 541h-137q-36 0 -61 25t-25 59q0 36 25 60t61 24h444q36 0 61 -24t25 -60q0 -17 -7 -32t-19 -26.5t-27.5 -18.5t-32.5 -7h-137v-459q0 -36 -24 -61t-60 -25q-35 0 -60.5 25.5t-25.5 60.5v459z" />
    <glyph glyph-name="U" unicode="U" horiz-adv-x="747" 
d="M687 311q0 -72 -24 -132t-66 -102.5t-99.5 -66t-124.5 -23.5t-124 23.5t-99 66t-65.5 102.5t-23.5 132v311q0 18 7 34t18.5 27.5t26.5 18.5t32 7q37 0 61 -25.5t24 -61.5v-324q0 -72 40.5 -112.5t103.5 -40.5t103 40.5t40 112.5v324q0 18 6.5 34t18 28t27 18.5t33.5 6.5
q37 0 61 -25t24 -62v-311z" />
    <glyph glyph-name="V" unicode="V" horiz-adv-x="696" 
d="M17 621q0 35 22 62t61 27q26 0 49 -16.5t33 -45.5l158 -477q2 -7 8 -7t8 7l158 474q9 30 32 47.5t51 17.5q19 0 34.5 -7.5t26 -20t16 -28.5t5.5 -33q0 -8 -1 -15.5t-4 -15.5l-174 -479q-45 -124 -153 -124q-53 0 -91.5 30.5t-61.5 93.5l-172 479q-5 17 -5 31z" />
    <glyph glyph-name="W" unicode="W" horiz-adv-x="967" 
d="M27 624q0 16 5.5 31t16 27t26 19.5t35.5 7.5q31 0 55.5 -18t29.5 -46l72 -473q1 -2 3 -2t3 2l78 412q6 34 19.5 58t32 39t39.5 21.5t42 6.5q20 0 41 -7t39 -22t32.5 -39t20.5 -58l81 -410q1 -3 3 -3t3 3l73 472q8 28 31 46t52 18q21 0 36.5 -7.5t26 -19.5t16 -27.5
t5.5 -30.5q0 -12 -3 -22l-111 -501q-6 -28 -18.5 -49t-29.5 -35.5t-37.5 -21.5t-41.5 -7t-42.5 7t-39.5 21t-31.5 34.5t-18.5 47.5l-85 410q-1 2 -2.5 2t-2.5 -2l-80 -407q-11 -57 -49.5 -85t-83.5 -28t-84.5 28.5t-51.5 86.5l-102 499q-3 10 -3 22z" />
    <glyph glyph-name="X" unicode="X" horiz-adv-x="673" 
d="M452 351l169 -209q12 -16 18 -33.5t4.5 -35t-11 -33t-26.5 -27.5q-15 -11 -33 -14.5t-35 -1.5t-32.5 10.5t-25.5 21.5l-145 180l-146 -179q-12 -14 -28 -22.5t-34 -10.5t-35.5 2t-30.5 15q-29 25 -33 61t20 66l172 209l-171 212q-25 32 -21 69t37 61q31 22 67 16t59 -34
l146 -182l149 182q26 31 62 34.5t65 -19.5q28 -23 32.5 -59.5t-20.5 -67.5z" />
    <glyph glyph-name="Y" unicode="Y" horiz-adv-x="668" 
d="M7 622q0 17 7 33t18.5 28t27.5 19.5t34 7.5q20 0 38 -8.5t31 -25.5l170 -215l173 215q11 13 26 21.5t32 11t34 -2t31 -16.5q13 -12 21 -27.5t10 -32.5t-3 -34t-17 -31l-194 -230q-13 -15 -20 -26t-7 -31v-195q0 -37 -24.5 -62t-61.5 -25q-17 0 -32 7t-26.5 19t-18.5 28
t-7 33v195q0 19 -7.5 31t-20.5 27l-192 228q-11 13 -16.5 28t-5.5 30z" />
    <glyph glyph-name="Z" unicode="Z" horiz-adv-x="599" 
d="M142 0q-56 0 -86.5 29.5t-30.5 72.5q0 23 7.5 43.5t29.5 46.5l281 349h-227q-18 0 -33.5 7t-27 18.5t-18 26.5t-6.5 32q0 36 25 60t60 24h336q52 0 81 -29.5t29 -68.5q0 -23 -8 -44t-31 -50l-278 -350h245q18 0 33.5 -6.5t27 -18t18.5 -27t7 -32.5q0 -35 -25.5 -59
t-60.5 -24h-348z" />
    <glyph glyph-name="bracketleft" unicode="[" horiz-adv-x="403" 
d="M402 -94q0 -17 -7 -32t-18.5 -26t-27 -17t-33.5 -6h-199q-36 0 -57 21.5t-21 58.5v806q0 38 20 59.5t58 21.5h199q35 0 60.5 -21.5t25.5 -58.5q0 -35 -25.5 -58.5t-60.5 -23.5h-111v-643h111q35 0 60.5 -21.5t25.5 -59.5z" />
    <glyph glyph-name="backslash" unicode="\" horiz-adv-x="430" 
d="M50 763q33 13 64 -2t44 -48l267 -660q13 -33 0 -65t-44 -45q-34 -14 -64.5 0.5t-44.5 48.5l-267 660q-7 16 -6.5 33.5t6.5 32.5t17.5 27t27.5 18z" />
    <glyph glyph-name="bracketright" unicode="]" horiz-adv-x="403" 
d="M1 -94q0 37 25.5 59t60.5 22h112v643h-112q-18 0 -33.5 6t-27 17t-18.5 26t-7 32q0 38 25.5 59.5t60.5 21.5h199q38 0 58 -21.5t20 -59.5v-806q0 -38 -21 -59t-57 -21h-199q-18 0 -33.5 6t-27 17t-18.5 26t-7 32z" />
    <glyph glyph-name="asciicircum" unicode="^" horiz-adv-x="480" 
d="M240 506q-7 0 -10 -8l-42 -156q-4 -15 -14.5 -26t-25 -17t-31 -6.5t-31.5 5.5q-14 6 -25 17.5t-17 25.5t-7 29t5 29l84 219q34 87 114 87t114 -87l85 -219q5 -14 4 -29t-7 -29t-17 -25.5t-25 -17.5q-15 -6 -31.5 -5.5t-31 6.5t-25 17t-14.5 26l-42 156q-3 8 -10 8z" />
    <glyph glyph-name="underscore" unicode="_" horiz-adv-x="472" 
d="M472 -206h-472v126h472v-126z" />
    <glyph glyph-name="grave" unicode="`" 
d="M314 875q19 -10 28.5 -24.5t9.5 -31.5q0 -26 -18 -45.5t-44 -19.5q-17 0 -33 9l-136 69q-38 21 -38 56q0 26 18.5 46.5t44.5 20.5q17 0 34 -10z" />
    <glyph glyph-name="a" unicode="a" horiz-adv-x="555" 
d="M500 99q0 -20 -6 -32t-22 -23q-11 -7 -29 -16t-44.5 -17.5t-61.5 -14.5t-80 -6q-57 0 -98.5 14.5t-68 39t-39 56.5t-12.5 66q0 31 11 60.5t35 52.5t62.5 36.5t92.5 13.5q32 0 57.5 -3.5t45.5 -9.5v34q0 26 -16 42t-62 16q-21 0 -43.5 -4.5t-39.5 -9.5q-52 -12 -82 7
t-30 55q0 18 11.5 38.5t46.5 34.5q19 8 54 16t83 8q115 0 175 -51t60 -161v-242zM264 117q31 0 50.5 8t28.5 14v74q-19 6 -38 9t-42 3q-35 0 -52 -16t-17 -38q0 -29 20.5 -41.5t49.5 -12.5z" />
    <glyph glyph-name="b" unicode="b" horiz-adv-x="599" 
d="M552 347q1 -14 1.5 -33t0.5 -39t-0.5 -38.5t-1.5 -32.5q-4 -45 -23 -84.5t-51 -68t-75.5 -45t-96.5 -16.5q-41 0 -75.5 7t-62 17t-47.5 21t-32 19q-16 11 -22 23t-6 32v529q0 35 23.5 60t58.5 25q17 0 32 -6.5t26.5 -18t18 -27t6.5 -33.5v-105q20 9 49 14.5t54 5.5
q50 0 89.5 -15t67.5 -42t44.5 -65t21.5 -84zM388 234q0 9 0.5 20t0.5 22.5t-0.5 22t-0.5 17.5q-2 38 -21.5 59t-57.5 21q-26 0 -49 -7t-34 -14v-198q11 -8 33 -16.5t43 -8.5q39 0 61.5 21.5t24.5 60.5z" />
    <glyph glyph-name="c" unicode="c" horiz-adv-x="561" 
d="M298 151q29 0 48 10.5t35 33.5q10 15 24.5 23.5t37.5 8.5q38 0 59 -25t21 -59q0 -24 -15 -50.5t-44 -49.5t-72 -38t-100 -15q-50 0 -92.5 16.5t-75 45.5t-52.5 68t-24 84q-2 15 -2.5 34t-0.5 38t1 37.5t2 33.5q3 45 23 83t52.5 65.5t75.5 42.5t93 15q57 0 100 -14.5
t72.5 -36.5t44 -48.5t14.5 -49.5q0 -34 -21.5 -59t-58.5 -25q-23 0 -37.5 8.5t-24.5 23.5q-16 23 -35 33.5t-48 10.5q-41 0 -61.5 -21t-25.5 -56q-2 -17 -2 -43t2 -43q5 -37 26 -59.5t61 -22.5z" />
    <glyph glyph-name="d" unicode="d" horiz-adv-x="604" 
d="M48 346q4 46 20.5 84t44.5 65.5t67.5 42.5t90.5 15q24 0 53 -5.5t49 -14.5v105q0 18 6.5 33.5t18 27t26.5 18t32 6.5q36 0 59.5 -25t23.5 -60v-529q0 -20 -6.5 -32t-21.5 -23q-12 -8 -32 -19t-48 -21t-62.5 -16.5t-75.5 -6.5q-53 0 -96.5 16.5t-75 45t-50.5 67.5t-23 84
q-1 13 -2 32t-1 39t0.5 38.5t2.5 32.5zM212 234q2 -39 24 -60.5t61 -21.5q21 0 43.5 8.5t32.5 16.5v198q-11 7 -34 14t-49 7q-38 0 -57 -21t-21 -57q-1 -8 -1.5 -18.5t-0.5 -22.5t0.5 -23t1.5 -20z" />
    <glyph glyph-name="e" unicode="e" horiz-adv-x="569" 
d="M529 290q0 -32 -17.5 -54t-56.5 -22l-251 -1v-6q0 -36 28.5 -54.5t69.5 -18.5q27 0 53 8t46 17q23 10 42.5 8t33.5 -12.5t22 -26.5t8 -32q0 -18 -11 -36.5t-37 -33.5q-59 -35 -163 -35q-51 0 -94.5 16t-76 44t-53 66.5t-24.5 84.5q-1 15 -1.5 33.5t-0.5 37t0.5 35.5
t1.5 29q4 49 24 89t51.5 68t74 43.5t93.5 15.5q52 0 96 -16.5t75.5 -47.5t49 -75.5t17.5 -100.5v-23zM371 320q10 0 10 12q1 39 -22 63.5t-65 24.5q-48 0 -69 -27.5t-21 -72.5h167z" />
    <glyph glyph-name="f" unicode="f" horiz-adv-x="468" 
d="M104 534q0 51 14 88t39.5 62t60 37t76.5 12q29 0 59 -4t50 -10q29 -9 46.5 -28.5t17.5 -50.5q0 -29 -20 -49.5t-56 -20.5q-17 0 -35.5 6.5t-41.5 6.5q-44 0 -44 -53v-24h101q30 0 52.5 -20.5t22.5 -52.5q0 -30 -22.5 -50.5t-52.5 -20.5h-101v-280q0 -37 -23.5 -62
t-59.5 -25q-35 0 -59 25t-24 62v280h-18q-32 0 -53.5 20.5t-21.5 50.5q0 32 21.5 52.5t53.5 20.5h18v28z" />
    <glyph glyph-name="g" unicode="g" horiz-adv-x="599" 
d="M539 42q0 -66 -21.5 -113t-57 -77t-80.5 -44.5t-93 -14.5q-92 0 -161 39q-30 17 -42.5 35.5t-12.5 41.5q0 27 19 49t55 22q17 0 30.5 -5t27.5 -11q20 -9 39 -15t45 -6q43 0 65.5 22t22.5 62v9q-20 -9 -47.5 -15.5t-62.5 -6.5q-96 0 -151.5 51.5t-64.5 142.5
q-2 15 -2.5 33t-0.5 36t1 34.5t2 28.5q4 43 21 81.5t48 67.5t75.5 46.5t103.5 17.5q36 0 69.5 -6.5t61 -15.5t49 -20t34.5 -20q17 -12 22.5 -24.5t5.5 -31.5v-393zM297 396q-39 0 -61 -24t-24 -62q-1 -11 -1 -33.5t1 -36.5q2 -37 20.5 -61t60.5 -24q26 0 48.5 8t32.5 15v195
q-8 7 -30 15t-47 8z" />
    <glyph glyph-name="h" unicode="h" horiz-adv-x="593" 
d="M226 528q12 8 41 16.5t65 8.5q100 0 153.5 -58t53.5 -169v-244q0 -37 -23 -62t-61 -25q-34 0 -57.5 25t-23.5 62v236q0 37 -20.5 55t-51.5 18q-24 0 -44 -7.5t-32 -17.5v-286q0 -35 -23.5 -60t-58.5 -25q-17 0 -32 6.5t-26.5 18t-18 27t-6.5 33.5v557q0 37 23.5 61.5
t58.5 24.5t59 -24.5t24 -61.5v-109z" />
    <glyph glyph-name="i" unicode="i" horiz-adv-x="297" 
d="M232 673q0 -35 -24.5 -60.5t-59.5 -25.5q-36 0 -60 25.5t-24 60.5t24 59.5t60 24.5q17 0 32.5 -6.5t27 -18t18 -26.5t6.5 -33zM148 547q35 0 59 -24.5t24 -60.5v-382q0 -35 -24 -60t-59 -25q-17 0 -31.5 6.5t-26 18t-18 27t-6.5 33.5v382q0 36 23 60.5t59 24.5z" />
    <glyph glyph-name="j" unicode="j" horiz-adv-x="295" 
d="M64 462q0 36 23 60.5t59 24.5q35 0 59 -24.5t24 -60.5v-301q0 -117 -31.5 -195t-83.5 -127q-12 -11 -26 -17t-28.5 -7.5t-28.5 2.5t-25 12q-11 9 -19 22.5t-10.5 30t1.5 33.5t18 34q21 24 34 45t20.5 41t10.5 41.5t3 46.5v339zM230 672q0 -17 -6.5 -32.5t-18 -27
t-27 -18.5t-33.5 -7t-33 7t-26 18.5t-17.5 27t-6.5 32.5q0 36 24 60.5t59 24.5t60 -24.5t25 -60.5z" />
    <glyph glyph-name="k" unicode="k" horiz-adv-x="580" 
d="M143 721q35 0 59 -24.5t24 -60.5v-286h6q16 0 24.5 3.5t22.5 18.5l136 146q14 16 31.5 23t34.5 7q34 0 57 -24q24 -26 23.5 -58t-20.5 -52l-137 -137l127 -136q24 -26 26 -60t-24 -61q-23 -25 -59 -25q-17 0 -33.5 7t-29.5 22l-132 148q-14 16 -22 19t-22 3h-9v-114
q0 -35 -23.5 -60t-59.5 -25q-17 0 -31.5 7t-26 18.5t-18 27t-6.5 32.5v556q0 36 23.5 60.5t58.5 24.5z" />
    <glyph glyph-name="l" unicode="l" horiz-adv-x="287" 
d="M143 721q34 0 58.5 -25t24.5 -61v-555q0 -35 -23.5 -60t-59.5 -25q-17 0 -32 6.5t-26 18t-17.5 27t-6.5 33.5v555q0 36 23.5 61t58.5 25z" />
    <glyph glyph-name="m" unicode="m" horiz-adv-x="848" 
d="M794 80q0 -35 -23.5 -60t-59.5 -25q-17 0 -31.5 6.5t-26 18t-18 27t-6.5 33.5v238q0 37 -14 55t-48 18q-16 0 -31.5 -6t-27.5 -16v-289q0 -35 -24 -60t-59 -25q-17 0 -31.5 6.5t-26 18t-18 27t-6.5 33.5v240q0 71 -62 71q-20 0 -35.5 -7t-23.5 -12v-292q0 -35 -24 -60
t-59 -25q-17 0 -32 6.5t-26 18t-18 27t-7 33.5v358q0 21 7 33t22 23q29 22 76 40.5t111 18.5q43 0 77.5 -12.5t64.5 -41.5q39 27 81 40.5t83 13.5q115 0 165.5 -58.5t50.5 -168.5v-246z" />
    <glyph glyph-name="n" unicode="n" horiz-adv-x="589" 
d="M535 80q0 -35 -23.5 -60t-59.5 -25q-17 0 -31.5 6.5t-26 18t-18 27t-6.5 33.5v238q0 38 -22 55.5t-52 17.5q-23 0 -43 -5.5t-31 -13.5v-292q0 -35 -24 -60t-59 -25q-17 0 -32 6.5t-26 18t-18 27t-7 33.5v362q0 21 6.5 33t21.5 23q12 8 32 17.5t47.5 18t61.5 14t75 5.5
q118 0 176.5 -58.5t58.5 -168.5v-246z" />
    <glyph glyph-name="o" unicode="o" horiz-adv-x="594" 
d="M297 553q51 0 95 -15t77 -42.5t53 -65.5t24 -83q1 -15 2 -34.5t1 -39t-1 -38.5t-2 -34q-4 -45 -24 -84t-53 -67t-77 -44t-95 -16t-94.5 16t-76.5 44t-53.5 67t-24.5 84q-2 15 -2.5 34t-0.5 38.5t0.5 39t2.5 34.5q4 45 24.5 83t53.5 65.5t76.5 42.5t94.5 15zM297 396
q-38 0 -60 -21t-26 -56q-1 -9 -1.5 -21t-0.5 -24.5t0.5 -24.5t1.5 -20q4 -37 26 -58.5t60 -21.5t60.5 21.5t24.5 58.5q0 8 0.5 20t0.5 24.5t-0.5 24.5t-0.5 21q-2 35 -24.5 56t-60.5 21z" />
    <glyph glyph-name="p" unicode="p" horiz-adv-x="595" 
d="M547 201q-5 -46 -21.5 -84t-44.5 -65.5t-67.5 -42.5t-90.5 -15q-23 0 -52 5.5t-49 14.5v-135q0 -18 -6.5 -33.5t-18 -27t-26.5 -18t-32 -6.5q-36 0 -59.5 25t-23.5 60v571q0 24 18 36q12 9 33.5 20.5t50.5 22t65 17.5t79 7q53 0 96.5 -16t75 -44t50 -66.5t23.5 -83.5
q1 -13 2 -32t1 -39t-1 -39t-2 -32zM383 312q-5 82 -84 82q-22 0 -44 -8t-33 -16v-198q10 -7 32.5 -14t48.5 -7q40 0 59 20.5t21 57.5q1 15 1.5 40.5t-1.5 42.5z" />
    <glyph glyph-name="q" unicode="q" horiz-adv-x="604" 
d="M48 200q-2 14 -2.5 33t-0.5 39t1 38.5t2 32.5q4 45 23 83.5t50.5 66.5t75 44t96.5 16q43 0 79 -7t65 -17.5t50 -22t34 -20.5q11 -8 14.5 -15.5t3.5 -20.5v-571q0 -35 -23.5 -60t-59.5 -25q-17 0 -32 6.5t-26.5 18t-18 27t-6.5 33.5v135q-20 -9 -48.5 -14.5t-53.5 -5.5
q-51 0 -90.5 15t-67.5 42t-44.5 65t-20.5 84zM212 312q-1 -8 -1.5 -19.5t-0.5 -23t0.5 -22t1.5 -17.5q2 -38 21 -58.5t58 -20.5q26 0 48.5 7t33.5 14v198q-11 8 -33 16t-44 8q-38 0 -60 -21t-24 -61z" />
    <glyph glyph-name="r" unicode="r" horiz-adv-x="400" 
d="M335 541q35 -9 49 -29t14 -49q0 -14 -4.5 -28t-13.5 -25.5t-23 -19t-33 -7.5q-11 0 -28 4t-38 4q-20 0 -30.5 -11.5t-10.5 -39.5v-262q0 -35 -24 -59t-59 -24q-34 0 -58.5 24t-24.5 59v297q0 81 46.5 129.5t137.5 48.5q25 0 53 -3.5t47 -8.5z" />
    <glyph glyph-name="s" unicode="s" horiz-adv-x="511" 
d="M319 333q81 -19 120 -58.5t39 -108.5q0 -42 -18 -74.5t-48 -55t-69.5 -34.5t-83.5 -12q-78 0 -125.5 19t-72.5 39q-22 18 -26.5 48t12.5 52q18 25 46 29t59 -14q22 -14 50.5 -22.5t58.5 -8.5q32 0 45 9.5t13 22.5q0 11 -10 19.5t-36 13.5q-14 3 -22 4.5t-15 3t-15 3.5
t-23 6q-29 7 -55.5 20t-47.5 33t-33.5 47t-12.5 63q0 42 17.5 74.5t47.5 55t70 34.5t85 12t91 -13t75 -37q12 -11 18 -24.5t6.5 -27.5t-3.5 -27.5t-12 -23.5q-17 -21 -46 -23t-60 12q-17 8 -36.5 13.5t-42.5 5.5q-30 0 -42 -9t-12 -20q0 -12 11.5 -19t38.5 -13
q14 -2 32.5 -6.5t31.5 -7.5z" />
    <glyph glyph-name="t" unicode="t" horiz-adv-x="438" 
d="M384 11q-30 -15 -67 -19t-65 -4q-50 0 -87 16.5t-61 45.5t-36 68t-12 85v378q0 35 23.5 60.5t58.5 25.5q17 0 32 -7t26.5 -18.5t18 -27t6.5 -33.5v-61h114q31 0 54 -21t23 -55q0 -31 -23 -52t-54 -21h-114v-164q0 -35 14.5 -51t43.5 -16q14 0 27 3t25 6q23 5 41 1t30 -14
t18.5 -25t6.5 -31q0 -19 -8.5 -37.5t-34.5 -31.5z" />
    <glyph glyph-name="u" unicode="u" horiz-adv-x="589" 
d="M54 459q0 38 20.5 63t59.5 25q36 0 60.5 -25t24.5 -63v-231q0 -37 21 -54.5t53 -17.5q24 0 43 5.5t31 13.5v286q0 36 23.5 61t58.5 25t59 -25t24 -61v-356q0 -21 -6 -33t-22 -23q-12 -8 -31.5 -18t-47 -18t-62 -13.5t-74.5 -5.5q-116 0 -175.5 58.5t-59.5 168.5v238z" />
    <glyph glyph-name="v" unicode="v" horiz-adv-x="551" 
d="M282 163q3 25 8.5 52t15 62.5t24 84t35.5 118.5q9 31 33 49t52 18q23 0 42 -10.5t31 -27.5t15 -39.5t-6 -47.5l-117 -312q-44 -116 -142 -116q-47 0 -82.5 29t-55.5 85l-116 315q-9 24 -6 46.5t15 40t31 27.5t42 10q28 0 52 -17.5t33 -48.5q21 -69 35 -117.5t23 -84.5
t14.5 -63t9.5 -53q0 -6 7 -6t7 6z" />
    <glyph glyph-name="w" unicode="w" horiz-adv-x="808" 
d="M409 330q-1 4 -5 4q-5 0 -5 -4l-44 -221q-13 -60 -47.5 -87.5t-82.5 -27.5q-47 0 -82 27.5t-49 85.5l-76 317q-6 25 -3 47.5t13 39t27.5 26.5t40.5 10q28 0 51 -17t29 -49q16 -81 29.5 -158t21.5 -162q0 -4 5 -4q4 0 5 4q13 78 26 152.5t28 139.5q10 42 40 68t73 26
q42 0 72.5 -27.5t40.5 -66.5q17 -69 29.5 -143t24.5 -149q0 -4 5 -4q4 0 5 4q9 80 20 159t30 161q5 32 28.5 49t52.5 17q23 0 40.5 -10t27.5 -26.5t12.5 -39t-3.5 -47.5l-75 -317q-14 -58 -49 -85.5t-82 -27.5q-48 0 -83 27.5t-48 87.5z" />
    <glyph glyph-name="x" unicode="x" horiz-adv-x="565" 
d="M282 146l-106 -123q-11 -13 -26.5 -20t-32 -8.5t-32.5 3.5t-28 16q-26 23 -27 57.5t22 60.5l120 139l-118 137q-24 27 -23 61t28 57q13 11 29 16t32 4t31 -8.5t26 -20.5l105 -121l105 121q12 13 27 20.5t31.5 8.5t32 -4t28.5 -16q27 -23 28 -57t-23 -61l-119 -137
l122 -139q23 -26 22 -60.5t-28 -57.5q-26 -22 -61 -19.5t-58 28.5z" />
    <glyph glyph-name="y" unicode="y" horiz-adv-x="553" 
d="M187 483q22 -63 35.5 -103t22 -68.5t14.5 -52t12 -52.5q2 -6 7 -6t7 6l12 50t15 56t22 71.5t32 97.5q10 30 33.5 48.5t50.5 18.5q23 0 43 -10.5t32 -28t14.5 -40t-7.5 -46.5l-185 -422q-34 -77 -69.5 -121.5t-61.5 -62.5q-12 -9 -30 -16t-35 -7q-35 0 -57 21.5t-22 55.5
q0 17 7.5 34.5t24.5 31.5t39 42t39 63l-162 382q-10 24 -7 46.5t15 39.5t31.5 27.5t42.5 10.5q28 0 51 -18t34 -48z" />
    <glyph glyph-name="z" unicode="z" horiz-adv-x="499" 
d="M243 153h146q35 0 60 -20.5t25 -56.5q0 -33 -25 -54.5t-60 -21.5h-274q-38 0 -63.5 23t-25.5 60q0 14 5 30t17 30l207 241h-134q-35 0 -60 20t-25 55q0 34 25 55.5t60 21.5h264q26 0 46.5 -12t31.5 -32q16 -28 8.5 -54.5t-26.5 -48.5z" />
    <glyph glyph-name="braceleft" unicode="{" horiz-adv-x="468" 
d="M299 630q-13 0 -21.5 -8.5t-8.5 -21.5v-136q0 -32 -6.5 -57t-16.5 -43t-22 -30t-22 -19q10 -8 22 -20t22 -30t16.5 -42.5t6.5 -56.5v-150q0 -11 7.5 -20.5t19.5 -9.5h84q36 0 61 -21.5t25 -59.5q0 -35 -25 -58t-61 -23h-142q-27 0 -51.5 11t-42.5 29t-29 42.5t-11 51.5
v207q0 37 -10.5 63t-42.5 51q-8 6 -14 14.5t-6 21.5q0 12 6 20.5t14 14.5q32 25 42.5 51t10.5 63v228q0 42 29 71t71 29h176q36 0 61 -23t25 -58q0 -38 -25 -59.5t-61 -21.5h-81z" />
    <glyph glyph-name="bar" unicode="|" horiz-adv-x="302" 
d="M150 835q34 0 58.5 -25t24.5 -61v-804q0 -36 -23.5 -60.5t-59.5 -24.5q-17 0 -32 6.5t-26 18t-17.5 27t-6.5 33.5v804q0 36 23.5 61t58.5 25z" />
    <glyph glyph-name="braceright" unicode="}" horiz-adv-x="468" 
d="M364 -42q0 -27 -11 -51.5t-29 -42.5t-42.5 -29t-51.5 -11h-143q-18 0 -33.5 6t-27 17t-18.5 26t-7 32q0 38 25.5 59.5t60.5 21.5h85q11 0 19 9.5t8 20.5v150q0 32 6.5 56.5t16.5 42.5t21.5 30t22.5 20q-11 7 -22.5 19t-21.5 30t-16.5 43t-6.5 57v136q0 13 -8.5 21.5
t-21.5 8.5h-82q-35 0 -60.5 21.5t-25.5 59.5q0 17 7 32t18.5 26t27 17t33.5 6h177q42 0 71 -29t29 -71v-228q0 -37 10.5 -63t42.5 -51q8 -6 14 -14.5t6 -20.5q0 -13 -6 -21.5t-14 -14.5q-32 -25 -42.5 -51t-10.5 -63v-207z" />
    <glyph glyph-name="asciitilde" unicode="~" horiz-adv-x="668" 
d="M503 457q32 16 57.5 13.5t43 -15t27 -31.5t9.5 -37q0 -33 -19.5 -55t-47.5 -34q-25 -11 -61 -25t-81 -14q-29 0 -53.5 7.5t-47.5 17t-46.5 17t-49.5 7.5q-29 0 -65 -18q-33 -16 -59 -14t-44 15t-28 32.5t-10 37.5q0 33 19 55.5t47 33.5q41 17 74 28.5t68 11.5q28 0 52 -8
t47 -17t46.5 -17t51.5 -8q16 0 33 3.5t37 13.5z" />
    <glyph glyph-name="exclamdown" unicode="&#xa1;" horiz-adv-x="256" 
d="M45 79.0381q-1 -16.999 5 -32.498t17 -26.998q11 -11.5 26.5 -18.499q15.5 -7 33.5 -7q17 0 32.5 7q15.5 6.99902 27 18.499q11.5 11.499 18.5 26.998t6 32.498l-11 319.98q-2 30.998 -22.5 49.9971t-51.5 18.999t-50.5 -19.999t-20.5 -48.9971zM54 597.007
q0 -28.999 20 -48.9971q20 -19.999 53 -19.999q32 0 52.5 19.999q20.5 19.998 20.5 48.9971v42.9971q0 28.998 -20.5 48.9971t-52.5 19.999q-33 0 -53 -19.999t-20 -48.9971v-42.9971z" />
    <glyph glyph-name="cent" unicode="&#xa2;" horiz-adv-x="463" 
d="M317 568q42 -14 68.5 -40t37.5 -54q2 -4 5 -13.5t3 -21.5q0 -15 -6 -27.5t-16 -21.5t-22 -14.5t-25 -5.5q-26 0 -42 13.5t-24 28.5q-8 16 -20.5 24t-32.5 8q-26 0 -38 -19t-14 -42q-2 -11 -2 -33.5t2 -33.5q2 -23 14 -42t38 -19q38 0 53 32q8 16 24 29t42 13
q13 0 25 -5.5t22 -14.5t16 -21.5t6 -27.5t-7 -30q-16 -36 -42 -61t-65 -39v-62q0 -32 -20.5 -54.5t-52.5 -22.5q-14 0 -27 6.5t-23 17t-16 24.5t-6 29v64q-60 20 -93 65t-37 108q-3 45 0 88q4 63 37 108t93 67v65q0 15 6 29t16 24.5t23 17t27 6.5q32 0 52.5 -22.5
t20.5 -54.5v-65z" />
    <glyph glyph-name="sterling" unicode="&#xa3;" horiz-adv-x="607" 
d="M95 256q-35 0 -60 21t-25 58q0 35 25 57t60 22h22q-5 19 -9 35.5t-4 51.5q0 40 14 77.5t43 67t73.5 47t104.5 17.5q38 0 70 -7t58 -18.5t46 -26t34 -28.5q22 -21 27 -36.5t5 -29.5q0 -36 -24.5 -59t-58.5 -23q-18 0 -32.5 7t-28.5 18q-22 18 -44.5 28.5t-54.5 10.5
q-19 0 -31.5 -5.5t-20 -14t-11 -19t-3.5 -20.5q0 -22 4.5 -37t7.5 -36h91q35 0 60 -21t25 -58q0 -35 -25 -57t-60 -22h-74q0 -20 -6 -44.5t-17 -45.5h237q16 0 31.5 -6.5t27 -18t18.5 -26.5t7 -33q0 -35 -24.5 -58.5t-59.5 -23.5h-325q-48 0 -75 26.5t-27 62.5q0 19 5 33
t17 40q22 45 25 94h-38z" />
    <glyph glyph-name="currency" unicode="&#xa4;" horiz-adv-x="617" 
d="M308 561q49 0 88 -22l55 53q10 11 24 17t28 6.5t27.5 -4.5t23.5 -15q22 -23 21 -51.5t-24 -51.5l-64 -65q3 -12 5 -24t3 -24q2 -31 0 -63q0 -12 -2 -22.5t-5 -21.5l64 -64q22 -23 23 -52t-21 -52q-10 -10 -23.5 -15t-27.5 -4.5t-27.5 6t-24.5 16.5l-54 51
q-19 -10 -41 -15.5t-48 -5.5q-49 0 -88 22l-54 -52q-11 -11 -24.5 -16.5t-27.5 -6t-27.5 4.5t-23.5 15q-22 23 -21 52t23 52l65 66q-5 17 -7 42q-2 32 0 63q1 12 3 23.5t5 22.5l-65 67q-23 23 -24 51.5t21 51.5q10 10 23.5 15t27.5 4.5t27.5 -6.5t24.5 -17l55 -53
q39 22 87 22zM308 430q-23 0 -38.5 -17.5t-17.5 -40.5q-1 -23 0 -47q1 -23 16.5 -39.5t39.5 -16.5t39.5 16.5t17.5 39.5v47q-2 23 -17.5 40.5t-39.5 17.5z" />
    <glyph glyph-name="yen" unicode="&#xa5;" horiz-adv-x="668" 
d="M29 564q-13 14 -18 31t-3.5 34t9.5 32.5t22 27.5q13 12 30 17t34 3t33 -10t27 -23l170 -210l173 210q23 28 59 32.5t64 -18.5q13 -12 21 -27.5t10 -32.5t-3 -34t-17 -31l-224 -251v-9h48q35 0 60 -21t25 -58q0 -35 -25 -57t-60 -22h-45v-64q0 -37 -24.5 -62t-61.5 -25
q-17 0 -32 7t-26.5 19t-18.5 28t-7 33v64h-45q-36 0 -60.5 21t-24.5 58q0 35 24.5 57t60.5 22h49v10z" />
    <glyph glyph-name="brokenbar" unicode="&#xa6;" horiz-adv-x="302" 
d="M150 311q34 0 58.5 -25t24.5 -61v-280q0 -36 -23.5 -60.5t-59.5 -24.5q-17 0 -32 6.5t-26 18t-17.5 27t-6.5 33.5v280q0 36 23.5 61t58.5 25zM150 835q34 0 58.5 -25t24.5 -61v-280q0 -36 -23.5 -60.5t-59.5 -24.5q-17 0 -32 6.5t-26 18t-17.5 27t-6.5 33.5v280
q0 36 23.5 61t58.5 25z" />
    <glyph glyph-name="section" unicode="&#xa7;" horiz-adv-x="560" 
d="M510 290q0 -24 -10.5 -47.5t-27.5 -40.5q19 -21 30 -49t11 -57q0 -41 -17 -77.5t-47 -63.5t-72.5 -42.5t-93.5 -15.5q-33 0 -65 5.5t-59 14.5t-48 20t-34 22q-31 26 -31 69q0 34 25 58.5t61 24.5q10 0 18.5 -3t15.5 -6q32 -18 62.5 -29t53.5 -11q33 0 47 11t14 28
q0 20 -24 30t-66 21q-54 14 -91 31t-59.5 37.5t-32 44.5t-9.5 53q0 23 10 46t27 41q-18 22 -29.5 49.5t-11.5 56.5q0 42 17 78.5t47.5 63.5t73 42.5t93.5 15.5q33 0 62.5 -6t54.5 -15.5t44.5 -21t33.5 -21.5q15 -13 23 -30.5t8 -36.5q0 -34 -25 -58.5t-61 -24.5
q-22 0 -37 12q-29 19 -57.5 28t-48.5 9q-35 0 -46 -11.5t-11 -25.5q0 -24 24 -34t66 -21q54 -14 90.5 -30.5t59 -37t32.5 -44.5t10 -52zM300 272q22 -5 39.5 -11t34.5 -12l2 4q4 7 5 12t1 10q0 18 -24.5 30.5t-81.5 26.5q-22 5 -40 11t-34 12l-2 -4q-7 -13 -7 -22
q0 -17 25 -30t82 -27z" />
    <glyph glyph-name="dieresis" unicode="&#xa8;" 
d="M121 908q32 0 54 -22.5t22 -54.5t-22 -54t-54 -22t-54 22t-22 54t22 54.5t54 22.5zM315 908q32 0 54 -22.5t22 -54.5t-22 -54t-54 -22t-54 22t-22 54t22 54.5t54 22.5z" />
    <glyph glyph-name="copyright" unicode="&#xa9;" horiz-adv-x="774" 
d="M387 710q64 0 121 -22.5t100.5 -64t69.5 -99.5t29 -128q2 -45 0 -90q-3 -70 -29 -127.5t-69.5 -98.5t-100.5 -63.5t-121 -22.5t-121 22.5t-100.5 63.5t-69.5 98.5t-29 127.5q-2 45 0 90q3 70 29 128t69.5 99.5t100.5 64t121 22.5zM387 603q-41 0 -78 -15t-65.5 -41.5
t-46 -63.5t-19.5 -81q0 -8 -0.5 -22t-0.5 -29.5t0.5 -29.5t0.5 -21q2 -44 19.5 -80.5t46 -63.5t65.5 -42t78 -15t78 15t65.5 42t46 63.5t19.5 80.5q0 7 0.5 21t0.5 29.5t-0.5 29.5t-0.5 22q-2 44 -19.5 81t-46 63.5t-65.5 41.5t-78 15zM390 243q20 0 36 8.5t24 25.5
q7 12 16.5 21.5t26.5 9.5q18 0 34.5 -11t16.5 -37q0 -7 -2.5 -14t-7.5 -17q-14 -34 -51 -59.5t-94 -25.5q-35 0 -64 11.5t-51 32t-35 49t-16 62.5q-2 23 -2 52.5t2 52.5q3 34 16 62.5t34.5 49t51 32t64.5 11.5q57 0 94 -25.5t51 -59.5q5 -10 7.5 -17t2.5 -14
q0 -26 -16.5 -37t-34.5 -11q-17 0 -26.5 9.5t-16.5 21.5q-8 17 -24 25.5t-36 8.5q-25 0 -40.5 -19t-16.5 -49q0 -7 -0.5 -18t-0.5 -23t0.5 -22.5t0.5 -17.5q0 -30 16 -49t41 -19z" />
    <glyph glyph-name="ordfeminine" unicode="&#xaa;" horiz-adv-x="479" 
d="M437 374q20 -29 12.5 -56t-27.5 -38q-22 -11 -44.5 -8t-38.5 21q-5 6 -9 11.5t-6 10.5q-24 -25 -54.5 -34.5t-49.5 -9.5q-79 0 -125.5 47.5t-51.5 123.5q-2 21 -2 47.5t2 47.5q2 40 16 72t37 54.5t54.5 34.5t69.5 12q29 0 53 -4.5t43.5 -11.5t33.5 -14t22 -13
q15 -10 22.5 -22.5t7.5 -35.5v-152q0 -27 10.5 -45t24.5 -38zM222 401q11 0 28 4.5t26 12.5q-2 17 -2.5 40t-0.5 51v63q-8 3 -23.5 5t-27.5 2q-23 0 -36 -12t-15 -32q-2 -18 -2 -45.5t2 -47.5q2 -17 15 -29t36 -12z" />
    <glyph glyph-name="guillemotleft" unicode="&#xab;" horiz-adv-x="653" 
d="M33 361q0 29 11.5 53t40.5 45l125 86q26 18 54.5 16t47.5 -25q10 -12 14.5 -26t3.5 -28t-8 -26.5t-19 -20.5l-88 -61q-3 -2 -6 -5t-3 -8t3 -8t6 -5l88 -61q12 -8 19 -20.5t8 -26.5t-3.5 -28t-14.5 -26q-19 -23 -47.5 -25t-54.5 16l-125 86q-29 21 -40.5 45t-11.5 53z
M326 361q0 29 11.5 53t41.5 45l125 86q26 18 54.5 16t47.5 -25q10 -12 14 -26t3 -28t-8 -26.5t-19 -20.5l-87 -61q-3 -2 -6 -5t-3 -8t3 -8t6 -5l87 -61q12 -8 19 -20.5t8 -26.5t-3 -28t-14 -26q-19 -23 -47.5 -25t-54.5 16l-125 86q-30 21 -41.5 45t-11.5 53z" />
    <glyph glyph-name="logicalnot" unicode="&#xac;" horiz-adv-x="628" 
d="M568 172q0 -33 -22 -56t-56 -23q-16 0 -30.5 6.5t-25 17.5t-16.5 25.5t-6 29.5v99h-274q-33 0 -56 23t-23 55q0 33 23 55.5t56 22.5h338q46 0 69 -26.5t23 -64.5v-164z" />
    <glyph glyph-name="registered" unicode="&#xae;" horiz-adv-x="626" 
d="M312 437q17 0 23.5 7t6.5 18q0 12 -7 19.5t-21 7.5h-26v-52h24zM483 377q1 8 1 19.5v24.5v24.5t-1 19.5q-6 76 -52.5 117.5t-117.5 41.5t-118 -41.5t-53 -117.5q-1 -8 -1.5 -19.5t-0.5 -24.5t0.5 -24.5t1.5 -19.5q6 -76 53 -117.5t118 -41.5t117.5 41.5t52.5 117.5z
M311 367q-5 8 -12 8h-8v-53q0 -17 -11 -29t-30 -12q-17 0 -29 12t-12 29v194q0 17 10.5 28.5t29.5 11.5h79q42 0 66.5 -23.5t24.5 -58.5q0 -27 -10.5 -43.5t-27.5 -27.5l36 -54q4 -7 6.5 -13.5t2.5 -15.5q0 -16 -11.5 -27.5t-31.5 -11.5q-11 0 -19 5.5t-13 13.5zM574 381
q-2 -53 -23 -99t-56 -80t-81.5 -53.5t-100.5 -19.5t-100.5 19.5t-81.5 53.5t-56 80t-23 99q-3 39 0 80q2 53 23 99t56 79.5t81.5 53t100.5 19.5t100.5 -19.5t81.5 -53t56 -79.5t23 -99q2 -41 0 -80z" />
    <glyph glyph-name="macron" unicode="&#xaf;" 
d="M295 889q29 0 47.5 -19t18.5 -48q0 -28 -18.5 -47t-47.5 -19h-154q-28 0 -47 19t-19 47q0 29 19 48t47 19h154z" />
    <glyph glyph-name="degree" unicode="&#xb0;" horiz-adv-x="440" 
d="M72 587q0 31 11.5 58t32 47t47.5 31.5t57 11.5t57 -11.5t47.5 -31.5t32 -47t11.5 -58q0 -30 -11.5 -57t-32 -47.5t-47.5 -32t-57 -11.5t-57 11.5t-47.5 32t-32 47.5t-11.5 57zM172 587q0 -20 14 -34t34 -14t34 14t14 34t-14 34t-34 14t-34 -14t-14 -34z" />
    <glyph glyph-name="plusminus" unicode="&#xb1;" horiz-adv-x="628" 
d="M138 0q-33 0 -56 23t-23 55q0 33 23 55.5t56 22.5h351q33 0 56 -22.5t23 -55.5q0 -16 -6.5 -30.5t-17.5 -25t-25 -16.5t-30 -6h-351zM236 346h-98q-33 0 -56 23t-23 55q0 33 23 55.5t56 22.5h98v98q0 33 23 56t55 23q34 0 56 -23t22 -56v-98h97q33 0 56 -22.5t23 -55.5
q0 -16 -6.5 -30.5t-17.5 -25t-25 -16.5t-30 -6h-97v-99q0 -33 -22 -56t-56 -23q-32 0 -55 24t-23 55v99z" />
    <glyph glyph-name="twosuperior" unicode="&#xb2;" horiz-adv-x="437" 
d="M43 318q0 38 19.5 69.5t70.5 67.5q15 11 32.5 22.5t32 24.5t24 26t9.5 27q0 11 -6.5 18.5t-23.5 7.5q-14 0 -26.5 -8t-23.5 -19q-6 -5 -18 -13.5t-29 -8.5q-28 0 -48 17.5t-20 47.5q0 11 3.5 21t12.5 22q20 26 62 48t98 22q42 0 72 -11t49.5 -29t29 -42.5t9.5 -51.5
q0 -24 -4.5 -43t-16 -35.5t-31 -32.5t-49.5 -34q-5 -3 -13.5 -8.5t-16.5 -11.5t-14.5 -12.5t-8.5 -12.5h93q32 0 54 -19t22 -51t-22 -51t-54 -19h-195q-36 0 -54.5 22t-18.5 50z" />
    <glyph glyph-name="threesuperior" unicode="&#xb3;" horiz-adv-x="418" 
d="M155 431q-17 0 -31 11t-14 31q0 9 4 18.5t12 16.5l58 46h-75q-29 0 -49 21t-20 50q0 30 20 49.5t49 19.5h164q29 0 51.5 -17.5t22.5 -48.5q0 -11 -5 -26t-26 -38l-30 -29q48 -17 68 -49.5t20 -73.5t-16.5 -73.5t-47 -56t-75 -36t-100.5 -12.5h-14.5t-15.5 1
q-29 2 -49.5 21t-20.5 50q0 29 19.5 47t52.5 18q4 0 14.5 -1.5t27.5 -1.5q42 0 62.5 13.5t20.5 30.5q0 11 -7.5 18.5t-24.5 7.5q-9 0 -23 -3.5t-22 -3.5z" />
    <glyph glyph-name="acute" unicode="&#xb4;" 
d="M256 945q16 10 34 10q26 0 44 -20.5t18 -46.5q0 -35 -38 -56l-135 -69q-18 -9 -34 -9q-26 0 -44 19.5t-18 45.5q0 17 9.5 31.5t28.5 24.5z" />
    <glyph glyph-name="mu" unicode="&#xb5;" horiz-adv-x="601" 
d="M66 463q0 35 23 60.5t59 25.5q17 0 32 -7t26.5 -19t18 -27.5t6.5 -32.5v-238q0 -36 20.5 -54t52.5 -18q23 0 42.5 6t30.5 14v290q0 35 24.5 60.5t59.5 25.5t60 -25.5t25 -60.5v-373q0 -14 -4 -22t-14 -14q-13 -9 -33 -20t-46.5 -20.5t-59 -16t-69.5 -6.5q-23 0 -46.5 4.5
t-42.5 13.5v-128q0 -35 -23.5 -60t-59.5 -25q-17 0 -32 6.5t-26 18t-17.5 27t-6.5 33.5v582z" />
    <glyph glyph-name="mu" unicode="&#x3bc;" horiz-adv-x="601" 
d="M66 463q0 35 23 60.5t59 25.5q17 0 32 -7t26.5 -19t18 -27.5t6.5 -32.5v-238q0 -36 20.5 -54t52.5 -18q23 0 42.5 6t30.5 14v290q0 35 24.5 60.5t59.5 25.5t60 -25.5t25 -60.5v-373q0 -14 -4 -22t-14 -14q-13 -9 -33 -20t-46.5 -20.5t-59 -16t-69.5 -6.5q-23 0 -46.5 4.5
t-42.5 13.5v-128q0 -35 -23.5 -60t-59.5 -25q-17 0 -32 6.5t-26 18t-17.5 27t-6.5 33.5v582z" />
    <glyph glyph-name="paragraph" unicode="&#xb6;" horiz-adv-x="793" 
d="M422 -192q-33 0 -57.5 24.5t-24.5 60.5v311h-50q-55 0 -102 16.5t-81.5 48.5t-54.5 78t-20 105q0 60 20.5 106t55.5 77.5t81.5 48t99.5 16.5h325q24 0 44.5 -8.5t35.5 -24t23.5 -36.5t8.5 -46v-692q0 -35 -23.5 -60t-59.5 -25q-17 0 -32 6.5t-26 18t-17.5 27t-6.5 33.5
v642h-55v-642q0 -36 -24 -60.5t-60 -24.5zM200 452q0 -27 9.5 -44t25 -26.5t36 -13t42.5 -3.5h27v178h-28q-21 0 -41 -4t-36 -14t-25.5 -27.5t-9.5 -45.5z" />
    <glyph glyph-name="periodcentered" unicode="&#xb7;" horiz-adv-x="287" 
d="M143 453q29 0 51 -21t22 -52v-54q0 -31 -20.5 -51.5t-52.5 -20.5q-30 0 -51.5 20.5t-21.5 51.5v54q0 31 20.5 52t52.5 21z" />
    <glyph glyph-name="cedilla" unicode="&#xb8;" 
d="M331 -137q0 -51 -32.5 -85.5t-96.5 -57.5q-13 -5 -26 -5q-20 0 -37.5 11.5t-17.5 39.5q0 12 6.5 26t29.5 23q24 9 38 16t21 13t9 11t2 11q0 11 -7 17.5t-20 6.5q-11 0 -18 -2t-18 -2q-12 0 -21.5 5.5t-15.5 14.5t-7.5 20t2.5 22l26 69q6 16 16 27t28 11q21 0 33 -12.5
t12 -32.5q0 -4 -1 -8.5t-2 -7.5l-13 -26q55 -5 82.5 -34t27.5 -71z" />
    <glyph glyph-name="onesuperior" unicode="&#xb9;" horiz-adv-x="362" 
d="M157 508l-42 -21q-27 -13 -53.5 -6t-42.5 33q-14 23 -4.5 52t32.5 43l145 82q8 5 19 7t19 2q32 0 53 -21.5t21 -53.5v-308q0 -32 -20 -53t-52 -21q-16 0 -30 6t-24 16.5t-15.5 24t-5.5 27.5v191z" />
    <glyph glyph-name="ordmasculine" unicode="&#xba;" horiz-adv-x="440" 
d="M408 446q-5 -80 -55 -128.5t-133 -48.5t-133 48.5t-55 128.5q-2 25 -2 43t2 44q2 37 16.5 69t38.5 56t58 38t75 14t75 -14t58 -38t38.5 -56t16.5 -69q1 -26 1 -44t-1 -43zM220 401q19 0 32 13.5t15 36.5q1 21 1 38.5t-1 37.5q-2 23 -15 36.5t-32 13.5q-20 0 -33 -13.5
t-15 -36.5q-1 -20 -1 -37.5t1 -38.5q2 -23 15 -36.5t33 -13.5z" />
    <glyph glyph-name="guillemotright" unicode="&#xbb;" horiz-adv-x="653" 
d="M620 361q0 -29 -11.5 -53t-40.5 -45l-125 -86q-26 -18 -54.5 -16t-47.5 25q-10 12 -14.5 26t-3.5 28t8 26.5t19 20.5l88 61q3 2 6 5t3 8t-3 8t-6 5l-88 61q-12 8 -19 20.5t-8 26.5t3.5 28t14.5 26q19 23 47.5 25t54.5 -16l125 -86q29 -21 40.5 -45t11.5 -53zM327 361
q0 -29 -11.5 -53t-41.5 -45l-125 -86q-26 -18 -54.5 -16t-46.5 25q-10 12 -14.5 26t-3.5 28t8 26.5t19 20.5l87 61q3 2 6 5t3 8t-3 8t-6 5l-87 61q-12 8 -19 20.5t-8 26.5t3.5 28t14.5 26q18 23 46.5 25t54.5 -16l125 -86q30 -21 41.5 -45t11.5 -53z" />
    <glyph glyph-name="onequarter" unicode="&#xbc;" horiz-adv-x="1036" 
d="M959 201q23 0 41 -16.5t18 -42.5t-16.5 -42.5t-42.5 -16.5h-27v-23q0 -23 -16.5 -41.5t-42.5 -18.5t-42.5 17t-16.5 43v20h-153q-38 0 -64 20.5t-26 60.5q0 14 7 30.5t32 44.5l162 185q15 17 32.5 26.5t40.5 9.5q40 0 64 -26t24 -62v-168h26zM726 201h87v98zM528 687
q6 14 17.5 24.5t26 16.5t30 7t28.5 -4q30 -13 41.5 -42t0.5 -58l-246 -615q-6 -14 -16.5 -25t-23.5 -17t-28 -7t-29 5q-14 5 -25 16.5t-17.5 25.5t-8 29t4.5 29zM157 508l-42 -21q-27 -13 -53.5 -6t-42.5 33q-14 23 -4.5 52t32.5 43l145 82q8 5 19 7t19 2q32 0 53 -21.5
t21 -53.5v-308q0 -32 -20 -53t-52 -21q-16 0 -30 6t-24 16.5t-15.5 24t-5.5 27.5v191z" />
    <glyph glyph-name="onehalf" unicode="&#xbd;" horiz-adv-x="1028" 
d="M528 687q6 14 17.5 24.5t26 16.5t30 7t28.5 -4q30 -13 41.5 -42t0.5 -58l-246 -615q-6 -14 -16.5 -25t-23.5 -17t-28 -7t-29 5q-14 5 -25 16.5t-17.5 25.5t-8 29t4.5 29zM157 508l-42 -21q-27 -13 -53.5 -6t-42.5 33q-14 23 -4.5 52t32.5 43l145 82q8 5 19 7t19 2
q32 0 53 -21.5t21 -53.5v-308q0 -32 -20 -53t-52 -21q-16 0 -30 6t-24 16.5t-15.5 24t-5.5 27.5v191zM634 73q0 38 19.5 69.5t70.5 67.5q15 11 32.5 22.5t32 24.5t24 26t9.5 27q0 11 -6.5 18.5t-23.5 7.5q-14 0 -26.5 -8t-23.5 -19q-6 -5 -18 -13.5t-29 -8.5q-28 0 -48 17.5
t-20 47.5q0 11 3.5 21t12.5 22q20 26 62 48t98 22q42 0 72 -11t49.5 -29t29 -42.5t9.5 -51.5q0 -24 -4.5 -43t-16 -35.5t-31 -32.5t-49.5 -34q-5 -3 -13.5 -8.5t-16.5 -11.5t-14.5 -12.5t-8.5 -12.5h93q32 0 54 -19t22 -51t-22 -51t-54 -19h-195q-36 0 -54.5 22t-18.5 50z
" />
    <glyph glyph-name="threequarters" unicode="&#xbe;" horiz-adv-x="1083" 
d="M981 83v-20q0 -25 -16.5 -44t-42.5 -19q-28 0 -43.5 18t-15.5 45v17h-149q-39 0 -66.5 19.5t-27.5 61.5q0 14 7.5 31.5t33.5 46.5l155 176q15 17 33 28t41 13q8 1 15.5 0t15.5 -3q29 -8 45 -32.5t16 -55.5v-164h26q23 0 41 -16.5t18 -42.5t-16.5 -42.5t-42.5 -16.5h-27z
M862 201v98l-86 -98h86zM155 431q-17 0 -31 11t-14 31q0 9 4 18.5t12 16.5l53 46h-70q-29 0 -49 21t-20 50q0 30 20 49.5t49 19.5h164q29 0 51.5 -17.5t22.5 -48.5q0 -11 -5 -26t-26 -38l-27 -29q48 -17 66.5 -49.5t18.5 -73.5t-16.5 -73.5t-47 -56t-75 -36t-100.5 -12.5
q-18 0 -36 3t-32.5 11.5t-23 22.5t-8.5 35q0 29 19.5 47t52.5 18q4 0 14.5 -1.5t27.5 -1.5q42 0 62.5 13.5t20.5 30.5q0 11 -7.5 18.5t-24.5 7.5q-9 0 -23 -3.5t-22 -3.5zM575 687q6 14 17.5 24.5t26 16.5t30 7t28.5 -4q30 -13 42 -42t0 -58l-246 -615q-5 -14 -15.5 -25
t-23.5 -17t-28 -7t-30 5q-14 5 -25 16.5t-17.5 25.5t-7.5 29t4 29z" />
    <glyph glyph-name="questiondown" unicode="&#xbf;" horiz-adv-x="548" 
d="M365.011 200.031q6 6.99902 22.999 19.998t42.9971 12.999q17.999 0 32.998 -6.99902q14.999 -7 25.999 -18.999q10.999 -11.999 16.998 -26.998q6 -14.999 6 -30.998q0 -27.999 -21.998 -56.9971q-39.998 -50.9971 -99.4941 -74.4951q-59.4971 -23.499 -119.493 -23.499
q-50.9971 0 -92.9941 14.499q-41.9971 14.5 -71.9951 40.998q-29.999 26.498 -46.998 62.9961q-16.998 36.498 -16.998 81.4951q0 91.9941 54.9961 157.49q54.9971 65.4961 156.99 112.493q13.999 7 27.499 9.49902q13.499 2.5 27.498 2.5q27.998 0 49.9971 -19.998
q21.998 -19.999 21.998 -48.9971q0 -28.999 -14.499 -47.4971q-14.499 -18.499 -37.4971 -29.499q-53.9971 -23.998 -86.9951 -51.4961q-32.998 -27.499 -32.998 -65.4961q0 -23.999 18.499 -41.498t48.4971 -17.499q23.998 0 42.9971 9.5q18.999 9.49902 44.9971 36.498z
M375.011 597.007q0 -28.999 -19.999 -48.9971q-19.999 -19.999 -52.9971 -19.999q-31.998 0 -52.4961 19.999q-20.499 19.998 -20.499 48.9971v42.9971q0 28.998 20.499 49.4971q20.498 20.499 52.4961 20.499q32.998 0 52.9971 -20.499t19.999 -49.4971v-42.9971z" />
    <glyph glyph-name="Agrave" unicode="&#xc0;" horiz-adv-x="700" 
d="M683 83q0 -16 -5.5 -31.5t-16.5 -27.5t-26.5 -19.5t-34.5 -7.5q-26 0 -48 14t-30 39l-43 128h-258l-43 -128q-10 -25 -31.5 -39.5t-47.5 -14.5q-20 0 -35 7.5t-25.5 19.5t-16 27.5t-5.5 31.5q0 13 5 30l179 497q21 57 60.5 83.5t89.5 26.5q51 0 91 -26.5t60 -83.5
l176 -497q5 -15 5 -29zM270 322h161l-70 213q-3 8 -10 8t-9 -8zM387 875q19 -10 28.5 -24.5t9.5 -31.5q0 -26 -18 -45.5t-44 -19.5q-17 0 -33 9l-136 69q-38 21 -38 56q0 26 18.5 46.5t44.5 20.5q17 0 34 -10z" />
    <glyph glyph-name="Aacute" unicode="&#xc1;" horiz-adv-x="700" 
d="M683 83q0 -16 -5.5 -31.5t-16.5 -27.5t-26.5 -19.5t-34.5 -7.5q-26 0 -48 14t-30 39l-43 128h-258l-43 -128q-10 -25 -31.5 -39.5t-47.5 -14.5q-20 0 -35 7.5t-25.5 19.5t-16 27.5t-5.5 31.5q0 13 5 30l179 497q21 57 60.5 83.5t89.5 26.5q51 0 91 -26.5t60 -83.5
l176 -497q5 -15 5 -29zM270 322h161l-70 213q-3 8 -10 8t-9 -8zM440 945q16 10 34 10q26 0 44 -20.5t18 -46.5q0 -35 -38 -56l-135 -69q-18 -9 -34 -9q-26 0 -44 19.5t-18 45.5q0 17 9.5 31.5t28.5 24.5z" />
    <glyph glyph-name="Acircumflex" unicode="&#xc2;" horiz-adv-x="700" 
d="M683 83q0 -16 -5.5 -31.5t-16.5 -27.5t-26.5 -19.5t-34.5 -7.5q-26 0 -48 14t-30 39l-43 128h-258l-43 -128q-10 -25 -31.5 -39.5t-47.5 -14.5q-20 0 -35 7.5t-25.5 19.5t-16 27.5t-5.5 31.5q0 13 5 30l179 497q21 57 60.5 83.5t89.5 26.5q51 0 91 -26.5t60 -83.5
l176 -497q5 -15 5 -29zM270 322h161l-70 213q-3 8 -10 8t-9 -8zM509 871q30 -22 30 -52q0 -26 -20 -45t-45 -19q-19 0 -41 16l-81 62l-81 -62q-22 -16 -42 -16q-24 0 -44 19t-20 45q0 31 29 52l115 90q11 8 21.5 12.5t21.5 4.5t21.5 -4.5t20.5 -12.5z" />
    <glyph glyph-name="Atilde" unicode="&#xc3;" horiz-adv-x="700" 
d="M683 83q0 -16 -5.5 -31.5t-16.5 -27.5t-26.5 -19.5t-34.5 -7.5q-26 0 -48 14t-30 39l-43 128h-258l-43 -128q-10 -25 -31.5 -39.5t-47.5 -14.5q-20 0 -35 7.5t-25.5 19.5t-16 27.5t-5.5 31.5q0 13 5 30l179 497q21 57 60.5 83.5t89.5 26.5q51 0 91 -26.5t60 -83.5
l176 -497q5 -15 5 -29zM270 322h161l-70 213q-3 8 -10 8t-9 -8zM410 875q12 0 21 5t17 11.5t16.5 11.5t20.5 5q25 0 40 -18.5t15 -40.5q0 -16 -7 -26.5t-17 -20.5q-22 -22 -46 -35.5t-47 -13.5q-18 0 -36 6t-34.5 13t-32 13t-28.5 6q-12 0 -21 -5t-17 -11.5t-16.5 -11.5
t-20.5 -5q-24 0 -39.5 18.5t-15.5 40.5q0 16 7 26.5t17 20.5q23 22 47 35.5t47 13.5q21 0 39.5 -6t34.5 -13t30 -13t26 -6z" />
    <glyph glyph-name="Adieresis" unicode="&#xc4;" horiz-adv-x="700" 
d="M683 83q0 -16 -5.5 -31.5t-16.5 -27.5t-26.5 -19.5t-34.5 -7.5q-26 0 -48 14t-30 39l-43 128h-258l-43 -128q-10 -25 -31.5 -39.5t-47.5 -14.5q-20 0 -35 7.5t-25.5 19.5t-16 27.5t-5.5 31.5q0 13 5 30l179 497q21 57 60.5 83.5t89.5 26.5q51 0 91 -26.5t60 -83.5
l176 -497q5 -15 5 -29zM270 322h161l-70 213q-3 8 -10 8t-9 -8zM254 908q32 0 54 -22.5t22 -54.5t-22 -54t-54 -22t-54 22t-22 54t22 54.5t54 22.5zM448 908q32 0 54 -22.5t22 -54.5t-22 -54t-54 -22t-54 22t-22 54t22 54.5t54 22.5z" />
    <glyph glyph-name="Aring" unicode="&#xc5;" horiz-adv-x="700" 
d="M683 83q0 -16 -5.5 -31.5t-16.5 -27.5t-26.5 -19.5t-34.5 -7.5q-26 0 -48 14t-30 39l-43 128h-258l-43 -128q-10 -25 -31.5 -39.5t-47.5 -14.5q-20 0 -35 7.5t-25.5 19.5t-16 27.5t-5.5 31.5q0 13 5 30l179 497q21 57 60.5 83.5t89.5 26.5q51 0 91 -26.5t60 -83.5
l176 -497q5 -15 5 -29zM270 322h161l-70 213q-3 8 -10 8t-9 -8zM231 868q0 25 9.5 47t26 38t38 25.5t45.5 9.5q25 0 47 -9.5t38.5 -25.5t26.5 -38t10 -47t-10 -46.5t-26.5 -37.5t-38.5 -25t-47 -9q-24 0 -45.5 9t-38 25t-26 37.5t-9.5 46.5zM315 868q0 -17 10 -27t25 -10
t25.5 10t10.5 27t-10.5 27t-25.5 10t-25 -10t-10 -27z" />
    <glyph glyph-name="AE" unicode="&#xc6;" horiz-adv-x="1086" 
d="M521 197h-244l-110 -164q-19 -28 -51.5 -34t-59.5 11q-15 9 -24.5 22.5t-13 29t-1.5 31.5t11 29l341 498q17 25 33.5 42.5t36.5 28t46 15.5t62 5h412q34 0 57.5 -22.5t23.5 -56.5q0 -16 -6.5 -30.5t-18 -25t-26 -17t-30.5 -6.5h-268v-125h241q32 0 54 -19.5t22 -52.5
q0 -15 -6.5 -28t-17 -23t-24 -16t-28.5 -6h-241v-126h270q32 0 56.5 -23t24.5 -55q0 -34 -23.5 -56.5t-57.5 -22.5h-322q-29 0 -51 9t-37 25t-22.5 36.5t-7.5 44.5v82zM373 343h148v210q-6 -3 -12 -9.5t-16 -22.5z" />
    <glyph glyph-name="Ccedilla" unicode="&#xc7;" horiz-adv-x="670" 
d="M294 -7q-53 10 -96.5 35t-75 62t-51 83.5t-23.5 99.5q-8 82 0 158q5 61 29.5 113.5t64.5 91.5t94 61t120 22q42 0 82.5 -9.5t76 -28.5t63.5 -48t45 -67q6 -16 7.5 -26t1.5 -21q0 -17 -7.5 -31.5t-19.5 -25t-26.5 -16.5t-29.5 -6q-30 0 -46 15t-28 33q-20 34 -50.5 52
t-68.5 18q-32 0 -57 -11.5t-42.5 -32t-27.5 -48t-12 -60.5q-3 -56 0 -112q5 -66 40 -106t99 -40q38 0 68.5 18t50.5 52q13 21 28.5 34.5t45.5 13.5q15 0 29.5 -6t26.5 -16.5t19.5 -25t7.5 -31.5q0 -11 -1.5 -21t-7.5 -26q-15 -35 -40 -62t-56.5 -46t-67.5 -30t-74 -14
l-8 -20q55 -5 81.5 -35.5t27.5 -75.5q0 -51 -36.5 -82.5t-100.5 -54.5q-12 -4 -26 -4.5t-26.5 5t-20.5 16.5t-8 29q0 12 6.5 26t29.5 23q24 9 38.5 15t22.5 10.5t10.5 9t2.5 12.5t-6.5 15t-20.5 7q-11 0 -17.5 -2t-18.5 -2t-21.5 5.5t-15.5 14.5t-7.5 20t3.5 22z" />
    <glyph glyph-name="Egrave" unicode="&#xc8;" horiz-adv-x="631" 
d="M504 709q34 0 57.5 -21.5t23.5 -55.5q0 -16 -6.5 -30.5t-18 -25t-26 -17t-30.5 -6.5h-268v-125h230q35 0 55.5 -19.5t20.5 -52.5q0 -29 -21 -51t-55 -22h-230v-126h270q32 0 56.5 -23t24.5 -55q0 -34 -23.5 -56.5t-57.5 -22.5h-323q-29 0 -50.5 9t-36.5 25t-22.5 36.5
t-7.5 44.5v481q0 48 30 80.5t87 32.5h321zM369 875q19 -10 28.5 -24.5t9.5 -31.5q0 -26 -18 -45.5t-44 -19.5q-17 0 -33 9l-136 69q-38 21 -38 56q0 26 18.5 46.5t44.5 20.5q17 0 34 -10z" />
    <glyph glyph-name="Eacute" unicode="&#xc9;" horiz-adv-x="631" 
d="M504 709q34 0 57.5 -21.5t23.5 -55.5q0 -16 -6.5 -30.5t-18 -25t-26 -17t-30.5 -6.5h-268v-125h230q35 0 55.5 -19.5t20.5 -52.5q0 -29 -21 -51t-55 -22h-230v-126h270q32 0 56.5 -23t24.5 -55q0 -34 -23.5 -56.5t-57.5 -22.5h-323q-29 0 -50.5 9t-36.5 25t-22.5 36.5
t-7.5 44.5v481q0 48 30 80.5t87 32.5h321zM406 945q16 10 34 10q26 0 44 -20.5t18 -46.5q0 -35 -38 -56l-135 -69q-18 -9 -34 -9q-26 0 -44 19.5t-18 45.5q0 17 9.5 31.5t28.5 24.5z" />
    <glyph glyph-name="Ecircumflex" unicode="&#xca;" horiz-adv-x="631" 
d="M504 709q34 0 57.5 -21.5t23.5 -55.5q0 -16 -6.5 -30.5t-18 -25t-26 -17t-30.5 -6.5h-268v-125h230q35 0 55.5 -19.5t20.5 -52.5q0 -29 -21 -51t-55 -22h-230v-126h270q32 0 56.5 -23t24.5 -55q0 -34 -23.5 -56.5t-57.5 -22.5h-323q-29 0 -50.5 9t-36.5 25t-22.5 36.5
t-7.5 44.5v481q0 48 30 80.5t87 32.5h321zM488 871q30 -22 30 -52q0 -26 -20 -45t-45 -19q-19 0 -41 16l-81 62l-81 -62q-22 -16 -42 -16q-24 0 -44 19t-20 45q0 31 29 52l115 90q11 8 21.5 12.5t21.5 4.5t21.5 -4.5t20.5 -12.5z" />
    <glyph glyph-name="Edieresis" unicode="&#xcb;" horiz-adv-x="631" 
d="M504 709q34 0 57.5 -21.5t23.5 -55.5q0 -16 -6.5 -30.5t-18 -25t-26 -17t-30.5 -6.5h-268v-125h230q35 0 55.5 -19.5t20.5 -52.5q0 -29 -21 -51t-55 -22h-230v-126h270q32 0 56.5 -23t24.5 -55q0 -34 -23.5 -56.5t-57.5 -22.5h-323q-29 0 -50.5 9t-36.5 25t-22.5 36.5
t-7.5 44.5v481q0 48 30 80.5t87 32.5h321zM235 908q32 0 54 -22.5t22 -54.5t-22 -54t-54 -22t-54 22t-22 54t22 54.5t54 22.5zM429 908q32 0 54 -22.5t22 -54.5t-22 -54t-54 -22t-54 22t-22 54t22 54.5t54 22.5z" />
    <glyph glyph-name="Igrave" unicode="&#xcc;" horiz-adv-x="294" 
d="M63 622q0 18 7 34t18.5 27.5t27 18.5t32.5 7q37 0 61 -25.5t24 -61.5v-538q0 -37 -24 -62.5t-61 -25.5q-35 0 -60 25.5t-25 62.5v538zM188 875q19 -10 28.5 -24.5t9.5 -31.5q0 -26 -18 -45.5t-44 -19.5q-17 0 -33 9l-136 69q-38 21 -38 56q0 26 18.5 46.5t44.5 20.5
q17 0 34 -10z" />
    <glyph glyph-name="Iacute" unicode="&#xcd;" horiz-adv-x="294" 
d="M63 622q0 18 7 34t18.5 27.5t27 18.5t32.5 7q37 0 61 -25.5t24 -61.5v-538q0 -37 -24 -62.5t-61 -25.5q-35 0 -60 25.5t-25 62.5v538zM223 945q16 10 34 10q26 0 44 -20.5t18 -46.5q0 -35 -38 -56l-135 -69q-18 -9 -34 -9q-26 0 -44 19.5t-18 45.5q0 17 9.5 31.5
t28.5 24.5z" />
    <glyph glyph-name="Icircumflex" unicode="&#xce;" horiz-adv-x="294" 
d="M63 622q0 18 7 34t18.5 27.5t27 18.5t32.5 7q37 0 61 -25.5t24 -61.5v-538q0 -37 -24 -62.5t-61 -25.5q-35 0 -60 25.5t-25 62.5v538zM302 871q30 -22 30 -52q0 -26 -20 -45t-45 -19q-19 0 -41 16l-81 62l-81 -62q-22 -16 -42 -16q-24 0 -44 19t-20 45q0 31 29 52l115 90
q11 8 21.5 12.5t21.5 4.5t21.5 -4.5t20.5 -12.5z" />
    <glyph glyph-name="Idieresis" unicode="&#xcf;" horiz-adv-x="294" 
d="M63 622q0 18 7 34t18.5 27.5t27 18.5t32.5 7q37 0 61 -25.5t24 -61.5v-538q0 -37 -24 -62.5t-61 -25.5q-35 0 -60 25.5t-25 62.5v538zM53 908q32 0 54 -22.5t22 -54.5t-22 -54t-54 -22t-54 22t-22 54t22 54.5t54 22.5zM247 908q32 0 54 -22.5t22 -54.5t-22 -54t-54 -22
t-54 22t-22 54t22 54.5t54 22.5z" />
    <glyph glyph-name="Eth" unicode="&#xd0;" horiz-adv-x="718" 
d="M183 0q-56 0 -86.5 33t-30.5 81v168h-17q-31 0 -51.5 21t-20.5 52q0 30 20 51t52 21h17v169q0 49 29.5 81t87.5 32h145q84 0 146 -21.5t104 -60.5t64 -93.5t27 -119.5q2 -28 2.5 -55t-1.5 -53q-5 -66 -26.5 -122.5t-63 -97t-103.5 -63.5t-149 -23h-145zM500 316
q2 18 2 35.5t-1 33.5q-3 74 -41.5 116.5t-126.5 42.5h-97v-117h87q31 0 52 -21t21 -51q0 -31 -21 -52t-52 -21h-87v-115h97q85 0 123.5 40t43.5 109z" />
    <glyph glyph-name="Ntilde" unicode="&#xd1;" horiz-adv-x="766" 
d="M538 215l3 1q-8 87 -9.5 159t-1.5 118v129q0 37 25 62t60 25q37 0 61 -25t24 -62v-496q0 -27 -9 -51t-25 -42t-39 -28.5t-51 -10.5q-35 0 -68.5 16t-53.5 55l-229 428l-3 -1q4 -43 6.5 -78.5t3.5 -65t1.5 -54.5t0.5 -48v-165q0 -36 -23.5 -61.5t-59.5 -25.5
q-17 0 -32.5 7t-27 19t-18.5 27.5t-7 33.5v493q0 27 9 51.5t25.5 43t39.5 29.5t51 11q36 0 68.5 -16t54.5 -58l224 -419v-1zM462 877q12 0 21 5t17 11.5t16.5 11.5t20.5 5q25 0 40 -18.5t15 -40.5q0 -16 -7 -26.5t-17 -20.5q-22 -22 -46 -35.5t-47 -13.5q-18 0 -36 6
t-34.5 13t-32 13t-28.5 6q-12 0 -21 -5t-17 -11.5t-16.5 -11.5t-20.5 -5q-24 0 -39.5 18.5t-15.5 40.5q0 16 7 26.5t17 20.5q23 22 47 35.5t47 13.5q21 0 39.5 -6t34.5 -13t30 -13t26 -6z" />
    <glyph glyph-name="Ograve" unicode="&#xd2;" horiz-adv-x="737" 
d="M367 -13q-65 0 -121 22t-98.5 61t-68.5 91t-31 112q-8 82 0 158q5 61 31 113.5t68.5 91.5t98.5 61t121 22t121.5 -22.5t99.5 -61.5t69.5 -91.5t31.5 -112.5q6 -79 0 -158q-5 -60 -31.5 -112t-69.5 -91t-99.5 -61t-121.5 -22zM367 148q32 0 59 11t47 31t32 47.5t14 60.5
q2 26 2 55.5t-2 56.5q-2 33 -14 60t-32 47t-47 31t-59 11t-58.5 -11t-46 -31t-31.5 -47t-14 -60q-2 -27 -2 -56.5t2 -55.5q2 -33 14 -60.5t31.5 -47.5t46 -31t58.5 -11zM424 875q19 -10 28.5 -24.5t9.5 -31.5q0 -26 -18 -45.5t-44 -19.5q-17 0 -33 9l-136 69q-38 21 -38 56
q0 26 18.5 46.5t44.5 20.5q17 0 34 -10z" />
    <glyph glyph-name="Oacute" unicode="&#xd3;" horiz-adv-x="737" 
d="M367 -13q-65 0 -121 22t-98.5 61t-68.5 91t-31 112q-8 82 0 158q5 61 31 113.5t68.5 91.5t98.5 61t121 22t121.5 -22.5t99.5 -61.5t69.5 -91.5t31.5 -112.5q6 -79 0 -158q-5 -60 -31.5 -112t-69.5 -91t-99.5 -61t-121.5 -22zM367 148q32 0 59 11t47 31t32 47.5t14 60.5
q2 26 2 55.5t-2 56.5q-2 33 -14 60t-32 47t-47 31t-59 11t-58.5 -11t-46 -31t-31.5 -47t-14 -60q-2 -27 -2 -56.5t2 -55.5q2 -33 14 -60.5t31.5 -47.5t46 -31t58.5 -11zM439 945q16 10 34 10q26 0 44 -20.5t18 -46.5q0 -35 -38 -56l-135 -69q-18 -9 -34 -9q-26 0 -44 19.5
t-18 45.5q0 17 9.5 31.5t28.5 24.5z" />
    <glyph glyph-name="Ocircumflex" unicode="&#xd4;" horiz-adv-x="737" 
d="M367 -13q-65 0 -121 22t-98.5 61t-68.5 91t-31 112q-8 82 0 158q5 61 31 113.5t68.5 91.5t98.5 61t121 22t121.5 -22.5t99.5 -61.5t69.5 -91.5t31.5 -112.5q6 -79 0 -158q-5 -60 -31.5 -112t-69.5 -91t-99.5 -61t-121.5 -22zM367 148q32 0 59 11t47 31t32 47.5t14 60.5
q2 26 2 55.5t-2 56.5q-2 33 -14 60t-32 47t-47 31t-59 11t-58.5 -11t-46 -31t-31.5 -47t-14 -60q-2 -27 -2 -56.5t2 -55.5q2 -33 14 -60.5t31.5 -47.5t46 -31t58.5 -11zM530 871q30 -22 30 -52q0 -26 -20 -45t-45 -19q-19 0 -41 16l-81 62l-81 -62q-22 -16 -42 -16
q-24 0 -44 19t-20 45q0 31 29 52l115 90q11 8 21.5 12.5t21.5 4.5t21.5 -4.5t20.5 -12.5z" />
    <glyph glyph-name="Otilde" unicode="&#xd5;" horiz-adv-x="737" 
d="M367 -13q-65 0 -121 22t-98.5 61t-68.5 91t-31 112q-8 82 0 158q5 61 31 113.5t68.5 91.5t98.5 61t121 22t121.5 -22.5t99.5 -61.5t69.5 -91.5t31.5 -112.5q6 -79 0 -158q-5 -60 -31.5 -112t-69.5 -91t-99.5 -61t-121.5 -22zM367 148q32 0 59 11t47 31t32 47.5t14 60.5
q2 26 2 55.5t-2 56.5q-2 33 -14 60t-32 47t-47 31t-59 11t-58.5 -11t-46 -31t-31.5 -47t-14 -60q-2 -27 -2 -56.5t2 -55.5q2 -33 14 -60.5t31.5 -47.5t46 -31t58.5 -11zM424 873q12 0 21 5t17 11.5t16.5 11.5t20.5 5q25 0 40 -18.5t15 -40.5q0 -16 -7 -26.5t-17 -20.5
q-22 -22 -46 -35.5t-47 -13.5q-18 0 -36 6t-34.5 13t-32 13t-28.5 6q-12 0 -21 -5t-17 -11.5t-16.5 -11.5t-20.5 -5q-24 0 -39.5 18.5t-15.5 40.5q0 16 7 26.5t17 20.5q23 22 47 35.5t47 13.5q21 0 39.5 -6t34.5 -13t30 -13t26 -6z" />
    <glyph glyph-name="Odieresis" unicode="&#xd6;" horiz-adv-x="737" 
d="M367 -13q-65 0 -121 22t-98.5 61t-68.5 91t-31 112q-8 82 0 158q5 61 31 113.5t68.5 91.5t98.5 61t121 22t121.5 -22.5t99.5 -61.5t69.5 -91.5t31.5 -112.5q6 -79 0 -158q-5 -60 -31.5 -112t-69.5 -91t-99.5 -61t-121.5 -22zM367 148q32 0 59 11t47 31t32 47.5t14 60.5
q2 26 2 55.5t-2 56.5q-2 33 -14 60t-32 47t-47 31t-59 11t-58.5 -11t-46 -31t-31.5 -47t-14 -60q-2 -27 -2 -56.5t2 -55.5q2 -33 14 -60.5t31.5 -47.5t46 -31t58.5 -11zM272 908q32 0 54 -22.5t22 -54.5t-22 -54t-54 -22t-54 22t-22 54t22 54.5t54 22.5zM466 908
q32 0 54 -22.5t22 -54.5t-22 -54t-54 -22t-54 22t-22 54t22 54.5t54 22.5z" />
    <glyph glyph-name="multiply" unicode="&#xd7;" horiz-adv-x="628" 
d="M523 255q12 -11 18 -25.5t6.5 -29.5t-5 -29t-15.5 -26q-12 -13 -26.5 -19.5t-30 -6.5t-30 5.5t-26.5 17.5l-100 100l-101 -102q-23 -23 -54.5 -23.5t-55.5 22.5q-12 10 -17.5 24.5t-5.5 30t5.5 30.5t17.5 27l101 100l-101 101q-12 12 -17.5 26.5t-5.5 30t5.5 30
t17.5 25.5q24 23 55.5 22.5t54.5 -23.5l101 -102l100 100q23 23 56.5 23t56.5 -25q11 -12 16 -26t4.5 -29t-6 -29t-16.5 -24l-100 -100z" />
    <glyph glyph-name="Oslash" unicode="&#xd8;" horiz-adv-x="743" 
d="M373 -13q-48 0 -89.5 11.5t-77.5 32.5l-14 -17q-20 -24 -48.5 -27t-53.5 17q-25 19 -27.5 47.5t18.5 54.5l20 26q-20 31 -32 66.5t-15 74.5q-8 82 0 158q5 61 31 113.5t68.5 91.5t98.5 61t121 22q45 0 86 -11t77 -31l12 15q20 23 49 26.5t53 -16.5q23 -18 26.5 -47.5
t-16.5 -53.5l-18 -23q22 -32 35.5 -69t17.5 -78q6 -79 0 -158q-5 -60 -31.5 -112t-69.5 -91t-99.5 -61t-121.5 -22zM373 148q32 0 59 11t47 31t32 47.5t14 60.5q2 26 2 55.5t-2 56.5l-2 19l-214 -268q31 -13 64 -13zM223 298q0 -8 1 -12l209 261q-27 12 -60 12
q-32 0 -58.5 -11t-46 -31t-31.5 -47t-14 -60q-2 -27 -2 -56.5t2 -55.5z" />
    <glyph glyph-name="Ugrave" unicode="&#xd9;" horiz-adv-x="747" 
d="M687 311q0 -72 -24 -132t-66 -102.5t-99.5 -66t-124.5 -23.5t-124 23.5t-99 66t-65.5 102.5t-23.5 132v311q0 18 7 34t18.5 27.5t26.5 18.5t32 7q37 0 61 -25.5t24 -61.5v-324q0 -72 40.5 -112.5t103.5 -40.5t103 40.5t40 112.5v324q0 18 6.5 34t18 28t27 18.5t33.5 6.5
q37 0 61 -25t24 -62v-311zM418 875q19 -10 28.5 -24.5t9.5 -31.5q0 -26 -18 -45.5t-44 -19.5q-17 0 -33 9l-136 69q-38 21 -38 56q0 26 18.5 46.5t44.5 20.5q17 0 34 -10z" />
    <glyph glyph-name="Uacute" unicode="&#xda;" horiz-adv-x="747" 
d="M687 311q0 -72 -24 -132t-66 -102.5t-99.5 -66t-124.5 -23.5t-124 23.5t-99 66t-65.5 102.5t-23.5 132v311q0 18 7 34t18.5 27.5t26.5 18.5t32 7q37 0 61 -25.5t24 -61.5v-324q0 -72 40.5 -112.5t103.5 -40.5t103 40.5t40 112.5v324q0 18 6.5 34t18 28t27 18.5t33.5 6.5
q37 0 61 -25t24 -62v-311zM455 945q16 10 34 10q26 0 44 -20.5t18 -46.5q0 -35 -38 -56l-135 -69q-18 -9 -34 -9q-26 0 -44 19.5t-18 45.5q0 17 9.5 31.5t28.5 24.5z" />
    <glyph glyph-name="Ucircumflex" unicode="&#xdb;" horiz-adv-x="747" 
d="M687 311q0 -72 -24 -132t-66 -102.5t-99.5 -66t-124.5 -23.5t-124 23.5t-99 66t-65.5 102.5t-23.5 132v311q0 18 7 34t18.5 27.5t26.5 18.5t32 7q37 0 61 -25.5t24 -61.5v-324q0 -72 40.5 -112.5t103.5 -40.5t103 40.5t40 112.5v324q0 18 6.5 34t18 28t27 18.5t33.5 6.5
q37 0 61 -25t24 -62v-311zM535 871q30 -22 30 -52q0 -26 -20 -45t-45 -19q-19 0 -41 16l-81 62l-81 -62q-22 -16 -42 -16q-24 0 -44 19t-20 45q0 31 29 52l115 90q11 8 21.5 12.5t21.5 4.5t21.5 -4.5t20.5 -12.5z" />
    <glyph glyph-name="Udieresis" unicode="&#xdc;" horiz-adv-x="747" 
d="M687 311q0 -72 -24 -132t-66 -102.5t-99.5 -66t-124.5 -23.5t-124 23.5t-99 66t-65.5 102.5t-23.5 132v311q0 18 7 34t18.5 27.5t26.5 18.5t32 7q37 0 61 -25.5t24 -61.5v-324q0 -72 40.5 -112.5t103.5 -40.5t103 40.5t40 112.5v324q0 18 6.5 34t18 28t27 18.5t33.5 6.5
q37 0 61 -25t24 -62v-311zM277 908q32 0 54 -22.5t22 -54.5t-22 -54t-54 -22t-54 22t-22 54t22 54.5t54 22.5zM471 908q32 0 54 -22.5t22 -54.5t-22 -54t-54 -22t-54 22t-22 54t22 54.5t54 22.5z" />
    <glyph glyph-name="Yacute" unicode="&#xdd;" horiz-adv-x="668" 
d="M7 622q0 17 7 33t18.5 28t27.5 19.5t34 7.5q20 0 38 -8.5t31 -25.5l170 -215l173 215q11 13 26 21.5t32 11t34 -2t31 -16.5q13 -12 21 -27.5t10 -32.5t-3 -34t-17 -31l-194 -230q-13 -15 -20 -26t-7 -31v-195q0 -37 -24.5 -62t-61.5 -25q-17 0 -32 7t-26.5 19t-18.5 28
t-7 33v195q0 19 -7.5 31t-20.5 27l-192 228q-11 13 -16.5 28t-5.5 30zM372 945q16 10 34 10q26 0 44 -20.5t18 -46.5q0 -35 -38 -56l-135 -69q-18 -9 -34 -9q-26 0 -44 19.5t-18 45.5q0 17 9.5 31.5t28.5 24.5z" />
    <glyph glyph-name="Thorn" unicode="&#xde;" horiz-adv-x="650" 
d="M236 105v-23q0 -36 -24 -62t-61 -26q-17 0 -32.5 7t-27 19t-18.5 28t-7 34v540q0 18 7 34t18.5 28t27 19t32.5 7q36 0 60.5 -25.5t24.5 -62.5v-22h134q52 0 98.5 -16.5t81.5 -48t55.5 -77.5t20.5 -105t-20 -105.5t-55 -78t-84 -48t-106 -16.5h-125zM356 265q53 0 76 25.5
t23 66.5q0 42 -23 67.5t-74 25.5h-122v-185h120z" />
    <glyph glyph-name="germandbls" unicode="&#xdf;" horiz-adv-x="715" 
d="M552 575q0 -36 -11 -60.5t-23.5 -43t-23.5 -33.5t-11 -33q0 -12 7.5 -19.5t20.5 -14.5t31.5 -15t41.5 -21q30 -17 48.5 -36t28 -39.5t12.5 -41t3 -41.5q0 -30 -12 -62t-38 -59t-66 -44.5t-97 -17.5q-32 0 -76.5 10t-82.5 39q-32 25 -37 56.5t10 54.5q17 25 49.5 30
t66.5 -22q14 -11 27.5 -16t30.5 -5q25 0 42.5 15t17.5 42q0 20 -18 35.5t-63 28.5q-62 19 -87.5 46t-25.5 69q0 30 11 51t24 38.5t24 33t11 35.5q0 18 -15 32.5t-50 14.5q-47 0 -71.5 -24.5t-24.5 -73.5v-403q0 -36 -23.5 -61.5t-59.5 -25.5q-35 0 -58.5 25.5t-23.5 61.5
v420q0 106 69 168.5t205 62.5q99 0 158 -41t59 -116z" />
    <glyph glyph-name="agrave" unicode="&#xe0;" horiz-adv-x="555" 
d="M500 99q0 -20 -6 -32t-22 -23q-11 -7 -29 -16t-44.5 -17.5t-61.5 -14.5t-80 -6q-57 0 -98.5 14.5t-68 39t-39 56.5t-12.5 66q0 31 11 60.5t35 52.5t62.5 36.5t92.5 13.5q32 0 57.5 -3.5t45.5 -9.5v34q0 26 -16 42t-62 16q-21 0 -43.5 -4.5t-39.5 -9.5q-52 -12 -82 7
t-30 55q0 18 11.5 38.5t46.5 34.5q19 8 54 16t83 8q115 0 175 -51t60 -161v-242zM264 117q31 0 50.5 8t28.5 14v74q-19 6 -38 9t-42 3q-35 0 -52 -16t-17 -38q0 -29 20.5 -41.5t49.5 -12.5zM347 711q19 -10 28.5 -24.5t9.5 -31.5q0 -26 -18 -45.5t-44 -19.5q-17 0 -33 9
l-136 69q-38 21 -38 56q0 26 18.5 46.5t44.5 20.5q17 0 34 -10z" />
    <glyph glyph-name="aacute" unicode="&#xe1;" horiz-adv-x="555" 
d="M500 99q0 -20 -6 -32t-22 -23q-11 -7 -29 -16t-44.5 -17.5t-61.5 -14.5t-80 -6q-57 0 -98.5 14.5t-68 39t-39 56.5t-12.5 66q0 31 11 60.5t35 52.5t62.5 36.5t92.5 13.5q32 0 57.5 -3.5t45.5 -9.5v34q0 26 -16 42t-62 16q-21 0 -43.5 -4.5t-39.5 -9.5q-52 -12 -82 7
t-30 55q0 18 11.5 38.5t46.5 34.5q19 8 54 16t83 8q115 0 175 -51t60 -161v-242zM264 117q31 0 50.5 8t28.5 14v74q-19 6 -38 9t-42 3q-35 0 -52 -16t-17 -38q0 -29 20.5 -41.5t49.5 -12.5zM359 781q16 10 34 10q26 0 44 -20.5t18 -46.5q0 -35 -38 -56l-135 -69
q-18 -9 -34 -9q-26 0 -44 19.5t-18 45.5q0 17 9.5 31.5t28.5 24.5z" />
    <glyph glyph-name="acircumflex" unicode="&#xe2;" horiz-adv-x="555" 
d="M500 99q0 -20 -6 -32t-22 -23q-11 -7 -29 -16t-44.5 -17.5t-61.5 -14.5t-80 -6q-57 0 -98.5 14.5t-68 39t-39 56.5t-12.5 66q0 31 11 60.5t35 52.5t62.5 36.5t92.5 13.5q32 0 57.5 -3.5t45.5 -9.5v34q0 26 -16 42t-62 16q-21 0 -43.5 -4.5t-39.5 -9.5q-52 -12 -82 7
t-30 55q0 18 11.5 38.5t46.5 34.5q19 8 54 16t83 8q115 0 175 -51t60 -161v-242zM264 117q31 0 50.5 8t28.5 14v74q-19 6 -38 9t-42 3q-35 0 -52 -16t-17 -38q0 -29 20.5 -41.5t49.5 -12.5zM445 695q30 -22 30 -52q0 -26 -20 -45t-45 -19q-19 0 -41 16l-81 62l-81 -62
q-22 -16 -42 -16q-24 0 -44 19t-20 45q0 31 29 52l115 90q11 8 21.5 12.5t21.5 4.5t21.5 -4.5t20.5 -12.5z" />
    <glyph glyph-name="atilde" unicode="&#xe3;" horiz-adv-x="555" 
d="M500 99q0 -20 -6 -32t-22 -23q-11 -7 -29 -16t-44.5 -17.5t-61.5 -14.5t-80 -6q-57 0 -98.5 14.5t-68 39t-39 56.5t-12.5 66q0 31 11 60.5t35 52.5t62.5 36.5t92.5 13.5q32 0 57.5 -3.5t45.5 -9.5v34q0 26 -16 42t-62 16q-21 0 -43.5 -4.5t-39.5 -9.5q-52 -12 -82 7
t-30 55q0 18 11.5 38.5t46.5 34.5q19 8 54 16t83 8q115 0 175 -51t60 -161v-242zM264 117q31 0 50.5 8t28.5 14v74q-19 6 -38 9t-42 3q-35 0 -52 -16t-17 -38q0 -29 20.5 -41.5t49.5 -12.5zM340 714q12 0 21 5t17 11.5t16.5 11.5t20.5 5q25 0 40 -18.5t15 -40.5
q0 -16 -7 -26.5t-17 -20.5q-22 -22 -46 -35.5t-47 -13.5q-18 0 -36 6t-34.5 13t-32 13t-28.5 6q-12 0 -21 -5t-17 -11.5t-16.5 -11.5t-20.5 -5q-24 0 -39.5 18.5t-15.5 40.5q0 16 7 26.5t17 20.5q23 22 47 35.5t47 13.5q21 0 39.5 -6t34.5 -13t30 -13t26 -6z" />
    <glyph glyph-name="adieresis" unicode="&#xe4;" horiz-adv-x="555" 
d="M500 99q0 -20 -6 -32t-22 -23q-11 -7 -29 -16t-44.5 -17.5t-61.5 -14.5t-80 -6q-57 0 -98.5 14.5t-68 39t-39 56.5t-12.5 66q0 31 11 60.5t35 52.5t62.5 36.5t92.5 13.5q32 0 57.5 -3.5t45.5 -9.5v34q0 26 -16 42t-62 16q-21 0 -43.5 -4.5t-39.5 -9.5q-52 -12 -82 7
t-30 55q0 18 11.5 38.5t46.5 34.5q19 8 54 16t83 8q115 0 175 -51t60 -161v-242zM264 117q31 0 50.5 8t28.5 14v74q-19 6 -38 9t-42 3q-35 0 -52 -16t-17 -38q0 -29 20.5 -41.5t49.5 -12.5zM188 747q32 0 54 -22.5t22 -54.5t-22 -54t-54 -22t-54 22t-22 54t22 54.5t54 22.5z
M382 747q32 0 54 -22.5t22 -54.5t-22 -54t-54 -22t-54 22t-22 54t22 54.5t54 22.5z" />
    <glyph glyph-name="aring" unicode="&#xe5;" horiz-adv-x="555" 
d="M500 99q0 -20 -6 -32t-22 -23q-11 -7 -29 -16t-44.5 -17.5t-61.5 -14.5t-80 -6q-57 0 -98.5 14.5t-68 39t-39 56.5t-12.5 66q0 31 11 60.5t35 52.5t62.5 36.5t92.5 13.5q32 0 57.5 -3.5t45.5 -9.5v34q0 26 -16 42t-62 16q-21 0 -43.5 -4.5t-39.5 -9.5q-52 -12 -82 7
t-30 55q0 18 11.5 38.5t46.5 34.5q19 8 54 16t83 8q115 0 175 -51t60 -161v-242zM264 117q31 0 50.5 8t28.5 14v74q-19 6 -38 9t-42 3q-35 0 -52 -16t-17 -38q0 -29 20.5 -41.5t49.5 -12.5zM165 691q0 25 9.5 47t26 38t38 25.5t45.5 9.5q25 0 47 -9.5t38.5 -25.5t26.5 -38
t10 -47t-10 -46.5t-26.5 -37.5t-38.5 -25t-47 -9q-24 0 -45.5 9t-38 25t-26 37.5t-9.5 46.5zM249 691q0 -17 10 -27t25 -10t25.5 10t10.5 27t-10.5 27t-25.5 10t-25 -10t-10 -27z" />
    <glyph glyph-name="ae" unicode="&#xe6;" horiz-adv-x="860" 
d="M820 291q0 -34 -17.5 -54t-57.5 -20h-246v-8q0 -37 26.5 -54.5t67.5 -17.5q27 0 52 7.5t45 15.5q24 9 43.5 6.5t34 -13t22 -26t7.5 -31.5q0 -25 -16 -44t-44 -32t-64.5 -19.5t-77.5 -6.5q-44 0 -82.5 12.5t-67.5 33.5q-29 -17 -77.5 -31.5t-110.5 -14.5q-57 0 -98.5 15.5
t-68 40.5t-39 57.5t-12.5 66.5q0 30 11 59.5t36 52t65 36.5t97 14q32 0 52.5 -3.5t42.5 -7.5v27q0 25 -16 40.5t-62 15.5q-21 0 -43 -4.5t-40 -9.5q-52 -12 -82 7.5t-30 57.5q0 16 11.5 36t46.5 34q19 8 53.5 16t83.5 8q51 0 94 -14t72 -40q30 26 70 40t81 14q52 0 95.5 -16
t75 -46t49.5 -74t18 -99v-27zM270 126q28 0 48 8t33 15q-5 14 -8.5 33t-3.5 36q-19 5 -35 8t-39 3q-35 0 -51 -14.5t-16 -36.5q0 -25 20.5 -38.5t51.5 -13.5zM653 324q7 0 9 9q1 35 -19.5 57.5t-60.5 22.5q-42 0 -63.5 -25.5t-20.5 -63.5h155z" />
    <glyph glyph-name="ccedilla" unicode="&#xe7;" horiz-adv-x="561" 
d="M243 -5q-41 7 -75 26t-59.5 46.5t-41.5 62.5t-19 74q-2 15 -2.5 34t-0.5 38t1 37.5t2 33.5q3 45 23 83t52.5 65.5t75.5 42.5t93 15q57 0 100 -14.5t72.5 -36.5t44 -48.5t14.5 -49.5q0 -34 -21.5 -59t-58.5 -25q-23 0 -37 8.5t-25 23.5q-16 24 -35 34t-48 10
q-41 0 -61.5 -21t-25.5 -56q-2 -17 -2 -43t2 -43q5 -37 26 -59.5t61 -22.5q29 0 48.5 10t34.5 34q11 15 25 23.5t37 8.5q38 0 59 -25t21 -59q0 -21 -12 -45t-35.5 -45t-58 -37t-80.5 -22l-11 -26q55 -5 81.5 -34.5t27.5 -74.5q0 -51 -36 -83.5t-100 -55.5q-12 -4 -26 -4.5
t-26.5 5t-20.5 16.5t-8 29q0 12 6.5 26t29.5 23q24 9 38 14.5t22 10t10.5 9t2.5 12.5t-6.5 15t-20.5 7q-11 0 -17.5 -2t-18.5 -2t-21.5 5.5t-15.5 14.5t-7.5 20t3.5 22z" />
    <glyph glyph-name="egrave" unicode="&#xe8;" horiz-adv-x="569" 
d="M529 290q0 -32 -17.5 -54t-56.5 -22l-251 -1v-6q0 -36 28.5 -54.5t69.5 -18.5q27 0 53 8t46 17q23 10 42.5 8t33.5 -12.5t22 -26.5t8 -32q0 -18 -11 -36.5t-37 -33.5q-59 -35 -163 -35q-51 0 -94.5 16t-76 44t-53 66.5t-24.5 84.5q-1 15 -1.5 33.5t-0.5 37t0.5 35.5
t1.5 29q4 49 24 89t51.5 68t74 43.5t93.5 15.5q52 0 96 -16.5t75.5 -47.5t49 -75.5t17.5 -100.5v-23zM371 320q10 0 10 12q1 39 -22 63.5t-65 24.5q-48 0 -69 -27.5t-21 -72.5h167zM355 711q19 -10 28.5 -24.5t9.5 -31.5q0 -26 -18 -45.5t-44 -19.5q-17 0 -33 9l-136 69
q-38 21 -38 56q0 26 18.5 46.5t44.5 20.5q17 0 34 -10z" />
    <glyph glyph-name="eacute" unicode="&#xe9;" horiz-adv-x="569" 
d="M529 290q0 -32 -17.5 -54t-56.5 -22l-251 -1v-6q0 -36 28.5 -54.5t69.5 -18.5q27 0 53 8t46 17q23 10 42.5 8t33.5 -12.5t22 -26.5t8 -32q0 -18 -11 -36.5t-37 -33.5q-59 -35 -163 -35q-51 0 -94.5 16t-76 44t-53 66.5t-24.5 84.5q-1 15 -1.5 33.5t-0.5 37t0.5 35.5
t1.5 29q4 49 24 89t51.5 68t74 43.5t93.5 15.5q52 0 96 -16.5t75.5 -47.5t49 -75.5t17.5 -100.5v-23zM371 320q10 0 10 12q1 39 -22 63.5t-65 24.5q-48 0 -69 -27.5t-21 -72.5h167zM365 781q16 10 34 10q26 0 44 -20.5t18 -46.5q0 -35 -38 -56l-135 -69q-18 -9 -34 -9
q-26 0 -44 19.5t-18 45.5q0 17 9.5 31.5t28.5 24.5z" />
    <glyph glyph-name="ecircumflex" unicode="&#xea;" horiz-adv-x="569" 
d="M529 290q0 -32 -17.5 -54t-56.5 -22l-251 -1v-6q0 -36 28.5 -54.5t69.5 -18.5q27 0 53 8t46 17q23 10 42.5 8t33.5 -12.5t22 -26.5t8 -32q0 -18 -11 -36.5t-37 -33.5q-59 -35 -163 -35q-51 0 -94.5 16t-76 44t-53 66.5t-24.5 84.5q-1 15 -1.5 33.5t-0.5 37t0.5 35.5
t1.5 29q4 49 24 89t51.5 68t74 43.5t93.5 15.5q52 0 96 -16.5t75.5 -47.5t49 -75.5t17.5 -100.5v-23zM371 320q10 0 10 12q1 39 -22 63.5t-65 24.5q-48 0 -69 -27.5t-21 -72.5h167zM450 708q30 -22 30 -52q0 -26 -20 -45t-45 -19q-19 0 -41 16l-81 62l-81 -62
q-22 -16 -42 -16q-24 0 -44 19t-20 45q0 31 29 52l115 90q11 8 21.5 12.5t21.5 4.5t21.5 -4.5t20.5 -12.5z" />
    <glyph glyph-name="edieresis" unicode="&#xeb;" horiz-adv-x="569" 
d="M529 290q0 -32 -17.5 -54t-56.5 -22l-251 -1v-6q0 -36 28.5 -54.5t69.5 -18.5q27 0 53 8t46 17q23 10 42.5 8t33.5 -12.5t22 -26.5t8 -32q0 -18 -11 -36.5t-37 -33.5q-59 -35 -163 -35q-51 0 -94.5 16t-76 44t-53 66.5t-24.5 84.5q-1 15 -1.5 33.5t-0.5 37t0.5 35.5
t1.5 29q4 49 24 89t51.5 68t74 43.5t93.5 15.5q52 0 96 -16.5t75.5 -47.5t49 -75.5t17.5 -100.5v-23zM371 320q10 0 10 12q1 39 -22 63.5t-65 24.5q-48 0 -69 -27.5t-21 -72.5h167zM199 747q32 0 54 -22.5t22 -54.5t-22 -54t-54 -22t-54 22t-22 54t22 54.5t54 22.5zM393 747
q32 0 54 -22.5t22 -54.5t-22 -54t-54 -22t-54 22t-22 54t22 54.5t54 22.5z" />
    <glyph glyph-name="igrave" unicode="&#xec;" horiz-adv-x="297" 
d="M209 711q19 -10 28.5 -24.5t9.5 -31.5q0 -26 -18 -45.5t-44 -19.5q-17 0 -33 9l-136 69q-38 21 -38 56q0 26 18.5 46.5t44.5 20.5q17 0 34 -10zM148 547q35 0 59 -24.5t24 -60.5v-383q0 -35 -23.5 -60t-59.5 -25q-17 0 -31.5 7t-26 18.5t-18 27t-6.5 32.5v383
q0 36 23.5 60.5t58.5 24.5z" />
    <glyph glyph-name="iacute" unicode="&#xed;" horiz-adv-x="297" 
d="M224 781q16 10 34 10q26 0 44 -20.5t18 -46.5q0 -35 -38 -56l-135 -69q-18 -9 -34 -9q-26 0 -44 19.5t-18 45.5q0 17 9.5 31.5t28.5 24.5zM148 547q35 0 59 -24.5t24 -60.5v-383q0 -35 -23.5 -60t-59.5 -25q-17 0 -31.5 7t-26 18.5t-18 27t-6.5 32.5v383q0 36 23.5 60.5
t58.5 24.5z" />
    <glyph glyph-name="icircumflex" unicode="&#xee;" horiz-adv-x="297" 
d="M148 547q35 0 59 -24.5t24 -60.5v-383q0 -35 -23.5 -60t-59.5 -25q-17 0 -31.5 7t-26 18.5t-18 27t-6.5 32.5v383q0 36 23.5 60.5t58.5 24.5zM308 708q30 -22 30 -52q0 -26 -20 -45t-45 -19q-19 0 -41 16l-81 62l-81 -62q-22 -16 -42 -16q-24 0 -44 19t-20 45q0 31 29 52
l115 90q11 8 21.5 12.5t21.5 4.5t21.5 -4.5t20.5 -12.5z" />
    <glyph glyph-name="idieresis" unicode="&#xef;" horiz-adv-x="297" 
d="M53 747q32 0 54 -22.5t22 -54.5t-22 -54t-54 -22t-54 22t-22 54t22 54.5t54 22.5zM247 747q32 0 54 -22.5t22 -54.5t-22 -54t-54 -22t-54 22t-22 54t22 54.5t54 22.5zM148 547q35 0 59 -24.5t24 -60.5v-383q0 -35 -23.5 -60t-59.5 -25q-17 0 -31.5 7t-26 18.5t-18 27
t-6.5 32.5v383q0 36 23.5 60.5t58.5 24.5z" />
    <glyph glyph-name="eth" unicode="&#xf0;" horiz-adv-x="627" 
d="M284 668q-14 18 -14.5 37t7.5 36q11 22 36 30t53 -4q34 -15 63 -39l45 19q23 10 48 3.5t36 -32.5q10 -24 0.5 -48.5t-33.5 -34.5l-21 -9q21 -46 31 -97t10 -102v-205q0 -48 -18.5 -89.5t-51.5 -72t-78.5 -48t-99.5 -17.5q-51 0 -94.5 16t-76.5 44t-53.5 66.5t-24.5 83.5
q-2 31 -2.5 56.5t2.5 56.5q3 45 22 83t50.5 65t75 42t96.5 15q23 0 52.5 -7t58.5 -24q-2 14 -6 35t-18 46l-62 -26q-25 -11 -49.5 -2.5t-36.5 30.5q-10 25 -1 49.5t35 35.5zM297 365q-36 0 -57.5 -21.5t-25.5 -52.5q-3 -34 0 -66q4 -32 26 -52t57 -20t57 20.5t26 52.5
q2 15 1.5 32.5t-1.5 33.5q-3 31 -25 52t-58 21z" />
    <glyph glyph-name="ntilde" unicode="&#xf1;" horiz-adv-x="589" 
d="M535 80q0 -35 -23.5 -60t-59.5 -25q-17 0 -31.5 6.5t-26 18t-18 27t-6.5 33.5v238q0 38 -22 55.5t-52 17.5q-23 0 -43 -5.5t-31 -13.5v-292q0 -35 -24 -60t-59 -25q-17 0 -32 6.5t-26 18t-18 27t-7 33.5v362q0 21 6.5 33t21.5 23q12 8 32 17.5t47.5 18t61.5 14t75 5.5
q118 0 176.5 -58.5t58.5 -168.5v-246zM342 714q12 0 21 5t17 11.5t16.5 11.5t20.5 5q25 0 40 -18.5t15 -40.5q0 -16 -7 -26.5t-17 -20.5q-22 -22 -46 -35.5t-47 -13.5q-18 0 -36 6t-34.5 13t-32 13t-28.5 6q-12 0 -21 -5t-17 -11.5t-16.5 -11.5t-20.5 -5q-24 0 -39.5 18.5
t-15.5 40.5q0 16 7 26.5t17 20.5q23 22 47 35.5t47 13.5q21 0 39.5 -6t34.5 -13t30 -13t26 -6z" />
    <glyph glyph-name="ograve" unicode="&#xf2;" horiz-adv-x="594" 
d="M297 553q51 0 95 -15t77 -42.5t53 -65.5t24 -83q1 -15 2 -34.5t1 -39t-1 -38.5t-2 -34q-4 -45 -24 -84t-53 -67t-77 -44t-95 -16t-94.5 16t-76.5 44t-53.5 67t-24.5 84q-2 15 -2.5 34t-0.5 38.5t0.5 39t2.5 34.5q4 45 24.5 83t53.5 65.5t76.5 42.5t94.5 15zM297 396
q-38 0 -60 -21t-26 -56q-1 -9 -1.5 -21t-0.5 -24.5t0.5 -24.5t1.5 -20q4 -37 26 -58.5t60 -21.5t60.5 21.5t24.5 58.5q0 8 0.5 20t0.5 24.5t-0.5 24.5t-0.5 21q-2 35 -24.5 56t-60.5 21zM358 711q19 -10 28.5 -24.5t9.5 -31.5q0 -26 -18 -45.5t-44 -19.5q-17 0 -33 9
l-136 69q-38 21 -38 56q0 26 18.5 46.5t44.5 20.5q17 0 34 -10z" />
    <glyph glyph-name="oacute" unicode="&#xf3;" horiz-adv-x="594" 
d="M297 553q51 0 95 -15t77 -42.5t53 -65.5t24 -83q1 -15 2 -34.5t1 -39t-1 -38.5t-2 -34q-4 -45 -24 -84t-53 -67t-77 -44t-95 -16t-94.5 16t-76.5 44t-53.5 67t-24.5 84q-2 15 -2.5 34t-0.5 38.5t0.5 39t2.5 34.5q4 45 24.5 83t53.5 65.5t76.5 42.5t94.5 15zM297 396
q-38 0 -60 -21t-26 -56q-1 -9 -1.5 -21t-0.5 -24.5t0.5 -24.5t1.5 -20q4 -37 26 -58.5t60 -21.5t60.5 21.5t24.5 58.5q0 8 0.5 20t0.5 24.5t-0.5 24.5t-0.5 21q-2 35 -24.5 56t-60.5 21zM361 781q16 10 34 10q26 0 44 -20.5t18 -46.5q0 -35 -38 -56l-135 -69q-18 -9 -34 -9
q-26 0 -44 19.5t-18 45.5q0 17 9.5 31.5t28.5 24.5z" />
    <glyph glyph-name="ocircumflex" unicode="&#xf4;" horiz-adv-x="594" 
d="M297 553q51 0 95 -15t77 -42.5t53 -65.5t24 -83q1 -15 2 -34.5t1 -39t-1 -38.5t-2 -34q-4 -45 -24 -84t-53 -67t-77 -44t-95 -16t-94.5 16t-76.5 44t-53.5 67t-24.5 84q-2 15 -2.5 34t-0.5 38.5t0.5 39t2.5 34.5q4 45 24.5 83t53.5 65.5t76.5 42.5t94.5 15zM297 396
q-38 0 -60 -21t-26 -56q-1 -9 -1.5 -21t-0.5 -24.5t0.5 -24.5t1.5 -20q4 -37 26 -58.5t60 -21.5t60.5 21.5t24.5 58.5q0 8 0.5 20t0.5 24.5t-0.5 24.5t-0.5 21q-2 35 -24.5 56t-60.5 21zM457 707q30 -22 30 -52q0 -26 -20 -45t-45 -19q-19 0 -41 16l-81 62l-81 -62
q-22 -16 -42 -16q-24 0 -44 19t-20 45q0 31 29 52l115 90q11 8 21.5 12.5t21.5 4.5t21.5 -4.5t20.5 -12.5z" />
    <glyph glyph-name="otilde" unicode="&#xf5;" horiz-adv-x="594" 
d="M297 553q51 0 95 -15t77 -42.5t53 -65.5t24 -83q1 -15 2 -34.5t1 -39t-1 -38.5t-2 -34q-4 -45 -24 -84t-53 -67t-77 -44t-95 -16t-94.5 16t-76.5 44t-53.5 67t-24.5 84q-2 15 -2.5 34t-0.5 38.5t0.5 39t2.5 34.5q4 45 24.5 83t53.5 65.5t76.5 42.5t94.5 15zM297 396
q-38 0 -60 -21t-26 -56q-1 -9 -1.5 -21t-0.5 -24.5t0.5 -24.5t1.5 -20q4 -37 26 -58.5t60 -21.5t60.5 21.5t24.5 58.5q0 8 0.5 20t0.5 24.5t-0.5 24.5t-0.5 21q-2 35 -24.5 56t-60.5 21zM352 714q12 0 21 5t17 11.5t16.5 11.5t20.5 5q25 0 40 -18.5t15 -40.5q0 -16 -7 -26.5
t-17 -20.5q-22 -22 -46 -35.5t-47 -13.5q-18 0 -36 6t-34.5 13t-32 13t-28.5 6q-12 0 -21 -5t-17 -11.5t-16.5 -11.5t-20.5 -5q-24 0 -39.5 18.5t-15.5 40.5q0 16 7 26.5t17 20.5q23 22 47 35.5t47 13.5q21 0 39.5 -6t34.5 -13t30 -13t26 -6z" />
    <glyph glyph-name="odieresis" unicode="&#xf6;" horiz-adv-x="594" 
d="M297 553q51 0 95 -15t77 -42.5t53 -65.5t24 -83q1 -15 2 -34.5t1 -39t-1 -38.5t-2 -34q-4 -45 -24 -84t-53 -67t-77 -44t-95 -16t-94.5 16t-76.5 44t-53.5 67t-24.5 84q-2 15 -2.5 34t-0.5 38.5t0.5 39t2.5 34.5q4 45 24.5 83t53.5 65.5t76.5 42.5t94.5 15zM297 396
q-38 0 -60 -21t-26 -56q-1 -9 -1.5 -21t-0.5 -24.5t0.5 -24.5t1.5 -20q4 -37 26 -58.5t60 -21.5t60.5 21.5t24.5 58.5q0 8 0.5 20t0.5 24.5t-0.5 24.5t-0.5 21q-2 35 -24.5 56t-60.5 21zM200 747q32 0 54 -22.5t22 -54.5t-22 -54t-54 -22t-54 22t-22 54t22 54.5t54 22.5z
M394 747q32 0 54 -22.5t22 -54.5t-22 -54t-54 -22t-54 22t-22 54t22 54.5t54 22.5z" />
    <glyph glyph-name="divide" unicode="&#xf7;" horiz-adv-x="628" 
d="M138 271q-33 0 -56 23t-23 55q0 33 23 55.5t56 22.5h351q33 0 56 -22.5t23 -55.5q0 -16 -6.5 -30.5t-17.5 -25t-25 -16.5t-30 -6h-351zM225 572q0 18 7 34.5t19 29t28 19.5t34 7t34 -7t28.5 -19.5t19.5 -29t7 -34.5t-7 -34t-19.5 -28t-28.5 -19t-34 -7t-34 7t-28 19
t-19 28t-7 34zM225 129q0 18 7 34t19 28t28 19t34 7t34 -7t28.5 -19t19.5 -28t7 -34t-7 -34.5t-19.5 -28.5t-28.5 -19t-34 -7t-34 7t-28 19t-19 28.5t-7 34.5z" />
    <glyph glyph-name="oslash" unicode="&#xf8;" horiz-adv-x="602" 
d="M301 553q36 0 69 -8t61 -22l7 8q19 21 45 21.5t46 -16.5t20.5 -44t-16.5 -47l-10 -11q22 -39 27 -87q1 -15 2 -34.5t1 -39t-1 -38.5t-2 -34q-4 -45 -24 -84t-53 -67t-77 -44t-95 -16q-37 0 -70 8.5t-61 23.5l-7 -8q-20 -23 -46 -23t-44 16q-21 18 -21.5 44t18.5 48l10 11
q-23 39 -28 91q-2 15 -2.5 34t-0.5 38.5t0.5 39t2.5 34.5q4 45 24.5 83t53.5 65.5t76.5 42.5t94.5 15zM301 396q-38 0 -60 -21t-26 -56q-2 -13 -2 -31v-35l118 139q-12 4 -30 4zM386 229q0 10 0.5 24.5t0.5 30.5l-113 -132q12 -3 27 -3q38 0 60.5 21.5t24.5 58.5z" />
    <glyph glyph-name="ugrave" unicode="&#xf9;" horiz-adv-x="589" 
d="M56 459q0 38 20.5 63t59.5 25q36 0 60.5 -25t24.5 -63v-231q0 -37 21 -54.5t53 -17.5q24 0 43 5.5t31 13.5v286q0 36 23.5 61t58.5 25t59 -25t24 -61v-356q0 -21 -6 -33t-22 -23q-12 -8 -31.5 -18t-47 -18t-62 -13.5t-74.5 -5.5q-116 0 -175.5 58.5t-59.5 168.5v238z
M359 711q19 -10 28.5 -24.5t9.5 -31.5q0 -26 -18 -45.5t-44 -19.5q-17 0 -33 9l-136 69q-38 21 -38 56q0 26 18.5 46.5t44.5 20.5q17 0 34 -10z" />
    <glyph glyph-name="uacute" unicode="&#xfa;" horiz-adv-x="589" 
d="M56 459q0 38 20.5 63t59.5 25q36 0 60.5 -25t24.5 -63v-231q0 -37 21 -54.5t53 -17.5q24 0 43 5.5t31 13.5v286q0 36 23.5 61t58.5 25t59 -25t24 -61v-356q0 -21 -6 -33t-22 -23q-12 -8 -31.5 -18t-47 -18t-62 -13.5t-74.5 -5.5q-116 0 -175.5 58.5t-59.5 168.5v238z
M378 781q16 10 34 10q26 0 44 -20.5t18 -46.5q0 -35 -38 -56l-135 -69q-18 -9 -34 -9q-26 0 -44 19.5t-18 45.5q0 17 9.5 31.5t28.5 24.5z" />
    <glyph glyph-name="ucircumflex" unicode="&#xfb;" horiz-adv-x="589" 
d="M56 459q0 38 20.5 63t59.5 25q36 0 60.5 -25t24.5 -63v-231q0 -37 21 -54.5t53 -17.5q24 0 43 5.5t31 13.5v286q0 36 23.5 61t58.5 25t59 -25t24 -61v-356q0 -21 -6 -33t-22 -23q-12 -8 -31.5 -18t-47 -18t-62 -13.5t-74.5 -5.5q-116 0 -175.5 58.5t-59.5 168.5v238z
M450 708q30 -22 30 -52q0 -26 -20 -45t-45 -19q-19 0 -41 16l-81 62l-81 -62q-22 -16 -42 -16q-24 0 -44 19t-20 45q0 31 29 52l115 90q11 8 21.5 12.5t21.5 4.5t21.5 -4.5t20.5 -12.5z" />
    <glyph glyph-name="udieresis" unicode="&#xfc;" horiz-adv-x="589" 
d="M56 459q0 38 20.5 63t59.5 25q36 0 60.5 -25t24.5 -63v-231q0 -37 21 -54.5t53 -17.5q24 0 43 5.5t31 13.5v286q0 36 23.5 61t58.5 25t59 -25t24 -61v-356q0 -21 -6 -33t-22 -23q-12 -8 -31.5 -18t-47 -18t-62 -13.5t-74.5 -5.5q-116 0 -175.5 58.5t-59.5 168.5v238z
M201 747q32 0 54 -22.5t22 -54.5t-22 -54t-54 -22t-54 22t-22 54t22 54.5t54 22.5zM395 747q32 0 54 -22.5t22 -54.5t-22 -54t-54 -22t-54 22t-22 54t22 54.5t54 22.5z" />
    <glyph glyph-name="yacute" unicode="&#xfd;" horiz-adv-x="553" 
d="M187 483q22 -63 35.5 -103t22 -68.5t14.5 -52t12 -52.5q2 -6 7 -6t7 6l12 50t15 56t22 71.5t32 97.5q10 30 33.5 48.5t50.5 18.5q23 0 43 -10.5t32 -28t14.5 -40t-7.5 -46.5l-185 -422q-34 -77 -69.5 -121.5t-61.5 -62.5q-12 -9 -30 -16t-35 -7q-35 0 -57 21.5t-22 55.5
q0 17 7.5 34.5t24.5 31.5t39 42t39 63l-162 382q-10 24 -7 46.5t15 39.5t31.5 27.5t42.5 10.5q28 0 51 -18t34 -48zM380 782q16 10 34 10q26 0 44 -20.5t18 -46.5q0 -35 -38 -56l-135 -69q-18 -9 -34 -9q-26 0 -44 19.5t-18 45.5q0 17 9.5 31.5t28.5 24.5z" />
    <glyph glyph-name="thorn" unicode="&#xfe;" horiz-adv-x="599" 
d="M552 201q-5 -46 -21.5 -84t-45 -65.5t-68 -42.5t-90.5 -15q-23 0 -52 5.5t-49 14.5v-135q0 -35 -23.5 -60t-59.5 -25q-34 0 -58 24.5t-24 60.5v756q0 35 23 60.5t59 25.5q17 0 32 -7t26.5 -19t18 -27.5t6.5 -32.5v-91q17 4 38 6.5t43 2.5q53 0 96.5 -15.5t75 -43.5
t50 -66.5t23.5 -84.5q1 -13 1.5 -32t0.5 -39t-0.5 -39t-1.5 -32zM388 312q-2 40 -24.5 61t-60.5 21q-22 0 -44 -8t-33 -16v-198q11 -7 33.5 -14t48.5 -7q39 0 58.5 20.5t21.5 57.5q1 15 1 40.5t-1 42.5z" />
    <glyph glyph-name="ydieresis" unicode="&#xff;" horiz-adv-x="553" 
d="M187 483q22 -63 35.5 -103t22 -68.5t14.5 -52t12 -52.5q2 -6 7 -6t7 6l12 50t15 56t22 71.5t32 97.5q10 30 33.5 48.5t50.5 18.5q23 0 43 -10.5t32 -28t14.5 -40t-7.5 -46.5l-185 -422q-34 -77 -69.5 -121.5t-61.5 -62.5q-12 -9 -30 -16t-35 -7q-35 0 -57 21.5t-22 55.5
q0 17 7.5 34.5t24.5 31.5t39 42t39 63l-162 382q-10 24 -7 46.5t15 39.5t31.5 27.5t42.5 10.5q28 0 51 -18t34 -48zM180 747q32 0 54 -22.5t22 -54.5t-22 -54t-54 -22t-54 22t-22 54t22 54.5t54 22.5zM374 747q32 0 54 -22.5t22 -54.5t-22 -54t-54 -22t-54 22t-22 54
t22 54.5t54 22.5z" />
    <glyph glyph-name="Amacron" unicode="&#x100;" horiz-adv-x="700" 
d="M683 83q0 -16 -5.5 -31.5t-16.5 -27.5t-26.5 -19.5t-34.5 -7.5q-26 0 -48 14t-30 39l-43 128h-258l-43 -128q-10 -25 -31.5 -39.5t-47.5 -14.5q-20 0 -35 7.5t-25.5 19.5t-16 27.5t-5.5 31.5q0 13 5 30l179 497q21 57 60.5 83.5t89.5 26.5q51 0 91 -26.5t60 -83.5
l176 -497q5 -15 5 -29zM270 322h161l-70 213q-3 8 -10 8t-9 -8zM428 893q29 0 47.5 -19t18.5 -48q0 -28 -18.5 -47t-47.5 -19h-154q-28 0 -47 19t-19 47q0 29 19 48t47 19h154z" />
    <glyph glyph-name="amacron" unicode="&#x101;" horiz-adv-x="555" 
d="M500 99q0 -20 -6 -32t-22 -23q-11 -7 -29 -16t-44.5 -17.5t-61.5 -14.5t-80 -6q-57 0 -98.5 14.5t-68 39t-39 56.5t-12.5 66q0 31 11 60.5t35 52.5t62.5 36.5t92.5 13.5q32 0 57.5 -3.5t45.5 -9.5v34q0 26 -16 42t-62 16q-21 0 -43.5 -4.5t-39.5 -9.5q-52 -12 -82 7
t-30 55q0 18 11.5 38.5t46.5 34.5q19 8 54 16t83 8q115 0 175 -51t60 -161v-242zM264 117q31 0 50.5 8t28.5 14v74q-19 6 -38 9t-42 3q-35 0 -52 -16t-17 -38q0 -29 20.5 -41.5t49.5 -12.5zM362 731q29 0 47.5 -19t18.5 -48q0 -28 -18.5 -47t-47.5 -19h-154q-28 0 -47 19
t-19 47q0 29 19 48t47 19h154z" />
    <glyph glyph-name="Abreve" unicode="&#x102;" horiz-adv-x="700" 
d="M683 83q0 -16 -5.5 -31.5t-16.5 -27.5t-26.5 -19.5t-34.5 -7.5q-26 0 -48 14t-30 39l-43 128h-258l-43 -128q-10 -25 -31.5 -39.5t-47.5 -14.5q-20 0 -35 7.5t-25.5 19.5t-16 27.5t-5.5 31.5q0 13 5 30l179 497q21 57 60.5 83.5t89.5 26.5q51 0 91 -26.5t60 -83.5
l176 -497q5 -15 5 -29zM270 322h161l-70 213q-3 8 -10 8t-9 -8zM351 862q36 0 49 41q7 19 22 30.5t35 11.5q25 0 42 -17t17 -42q0 -11 -4 -20q-8 -24 -23 -45t-35 -36.5t-46 -25t-57 -9.5t-57 9.5t-46 25t-35 36.5t-23 45q-4 9 -4 20q0 25 17 42t42 17q20 0 35 -11.5
t22 -30.5q13 -41 49 -41z" />
    <glyph glyph-name="abreve" unicode="&#x103;" horiz-adv-x="555" 
d="M500 99q0 -20 -6 -32t-22 -23q-11 -7 -29 -16t-44.5 -17.5t-61.5 -14.5t-80 -6q-57 0 -98.5 14.5t-68 39t-39 56.5t-12.5 66q0 31 11 60.5t35 52.5t62.5 36.5t92.5 13.5q32 0 57.5 -3.5t45.5 -9.5v34q0 26 -16 42t-62 16q-21 0 -43.5 -4.5t-39.5 -9.5q-52 -12 -82 7
t-30 55q0 18 11.5 38.5t46.5 34.5q19 8 54 16t83 8q115 0 175 -51t60 -161v-242zM264 117q31 0 50.5 8t28.5 14v74q-19 6 -38 9t-42 3q-35 0 -52 -16t-17 -38q0 -29 20.5 -41.5t49.5 -12.5zM279 698q36 0 49 41q7 19 22 30.5t35 11.5q25 0 42 -17t17 -42q0 -11 -4 -20
q-8 -24 -23 -45t-35 -36.5t-46 -25t-57 -9.5t-57 9.5t-46 25t-35 36.5t-23 45q-4 9 -4 20q0 25 17 42t42 17q20 0 35 -11.5t22 -30.5q13 -41 49 -41z" />
    <glyph glyph-name="Aogonek" unicode="&#x104;" horiz-adv-x="704" 
d="M478 183h-256l-44 -133q-5 -16 -17 -28t-27 -18.5t-32 -7t-33 5.5q-32 13 -45 45.5t-2 64.5l179 497q21 57 60.5 83.5t89.5 26.5q51 0 90.5 -26.5t60.5 -83.5l176 -497q9 -26 1.5 -54t-30.5 -44q-18 -12 -35 -23.5t-30.5 -23.5t-21.5 -24.5t-8 -25.5q0 -19 12 -30t27 -11
q12 0 22 7q17 9 34 7t29 -17q13 -17 9 -37.5t-21 -34.5q-14 -11 -36.5 -21t-57.5 -10q-29 0 -53 10.5t-41.5 28.5t-27 42.5t-9.5 52.5q0 38 18 72.5t66 66.5zM272 331h156l-67 204q-2 8 -10 8q-7 0 -9 -8z" />
    <glyph glyph-name="aogonek" unicode="&#x105;" horiz-adv-x="555" 
d="M441 26q-39 -18 -55 -43t-16 -57q0 -29 12 -39.5t27 -10.5q11 0 22 7q17 9 33.5 7t28.5 -17q13 -17 9 -37.5t-21 -34.5q-14 -11 -36 -21t-58 -10q-29 0 -53 10.5t-41 28.5t-26.5 42.5t-9.5 52.5q0 23 6 45t20 42q-7 -1 -13.5 -1h-12.5q-57 0 -98.5 15.5t-68 41t-39 58
t-12.5 66.5q0 31 11 61t36 53t65 37t97 14q32 0 52.5 -3.5t42.5 -7.5v25q0 26 -16 42t-62 16q-21 0 -43.5 -4.5t-39.5 -9.5q-52 -12 -82 7t-30 55q0 18 11.5 38.5t46.5 34.5q19 8 54 16t83 8q115 0 175 -51t60 -161v-252q0 -26 -19.5 -40t-39.5 -23zM198 181q0 -25 20 -39.5
t48 -14.5q30 0 49 6.5t28 11.5v72q-18 5 -36.5 8.5t-41.5 3.5q-35 0 -51 -14t-16 -34z" />
    <glyph glyph-name="Cacute" unicode="&#x106;" horiz-adv-x="670" 
d="M356 148q38 0 68.5 18t50.5 52q13 21 28.5 34.5t45.5 13.5q15 0 29.5 -6t26.5 -16.5t19.5 -25t7.5 -31.5q0 -11 -1.5 -21t-7.5 -26q-17 -38 -45 -67t-63.5 -48t-75.5 -28.5t-82 -9.5q-66 0 -120.5 22t-94.5 61t-64.5 91t-29.5 112q-8 82 0 158q5 61 29.5 113.5t64.5 91.5
t94 61t120 22q42 0 82.5 -9.5t76 -28.5t63.5 -48t45 -67q6 -16 7.5 -26t1.5 -21q0 -17 -7.5 -31.5t-19.5 -25t-26.5 -16.5t-29.5 -6q-30 0 -46 15t-28 33q-20 34 -50.5 52t-68.5 18q-32 0 -57 -11.5t-42.5 -32t-27.5 -48t-12 -60.5q-3 -56 0 -112q5 -66 40 -106t99 -40z
M437 945q16 10 34 10q26 0 44 -20.5t18 -46.5q0 -35 -38 -56l-135 -69q-18 -9 -34 -9q-26 0 -44 19.5t-18 45.5q0 17 9.5 31.5t28.5 24.5z" />
    <glyph glyph-name="cacute" unicode="&#x107;" horiz-adv-x="561" 
d="M298 151q29 0 48 10.5t35 33.5q10 15 24.5 23.5t37.5 8.5q38 0 59 -25t21 -59q0 -24 -15 -50.5t-44 -49.5t-72 -38t-100 -15q-50 0 -92.5 16.5t-75 45.5t-52.5 68t-24 84q-2 15 -2.5 34t-0.5 38t1 37.5t2 33.5q3 45 23 83t52.5 65.5t75.5 42.5t93 15q57 0 100 -14.5
t72.5 -36.5t44 -48.5t14.5 -49.5q0 -34 -21.5 -59t-58.5 -25q-23 0 -37.5 8.5t-24.5 23.5q-16 23 -35 33.5t-48 10.5q-41 0 -61.5 -21t-25.5 -56q-2 -17 -2 -43t2 -43q5 -37 26 -59.5t61 -22.5zM370 781q16 10 34 10q26 0 44 -20.5t18 -46.5q0 -35 -38 -56l-135 -69
q-18 -9 -34 -9q-26 0 -44 19.5t-18 45.5q0 17 9.5 31.5t28.5 24.5z" />
    <glyph glyph-name="Cdotaccent" unicode="&#x10a;" horiz-adv-x="670" 
d="M356 148q38 0 68.5 18t50.5 52q13 21 28.5 34.5t45.5 13.5q15 0 29.5 -6t26.5 -16.5t19.5 -25t7.5 -31.5q0 -11 -1.5 -21t-7.5 -26q-17 -38 -45 -67t-63.5 -48t-75.5 -28.5t-82 -9.5q-66 0 -120.5 22t-94.5 61t-64.5 91t-29.5 112q-8 82 0 158q5 61 29.5 113.5t64.5 91.5
t94 61t120 22q42 0 82.5 -9.5t76 -28.5t63.5 -48t45 -67q6 -16 7.5 -26t1.5 -21q0 -17 -7.5 -31.5t-19.5 -25t-26.5 -16.5t-29.5 -6q-30 0 -46 15t-28 33q-20 34 -50.5 52t-68.5 18q-32 0 -57 -11.5t-42.5 -32t-27.5 -48t-12 -60.5q-3 -56 0 -112q5 -66 40 -106t99 -40z
M350 908q32 0 54 -22.5t22 -54.5t-22 -54t-54 -22t-54 22t-22 54t22 54.5t54 22.5z" />
    <glyph glyph-name="cdotaccent" unicode="&#x10b;" horiz-adv-x="561" 
d="M298 151q29 0 48 10.5t35 33.5q10 15 24.5 23.5t37.5 8.5q38 0 59 -25t21 -59q0 -24 -15 -50.5t-44 -49.5t-72 -38t-100 -15q-50 0 -92.5 16.5t-75 45.5t-52.5 68t-24 84q-2 15 -2.5 34t-0.5 38t1 37.5t2 33.5q3 45 23 83t52.5 65.5t75.5 42.5t93 15q57 0 100 -14.5
t72.5 -36.5t44 -48.5t14.5 -49.5q0 -34 -21.5 -59t-58.5 -25q-23 0 -37.5 8.5t-24.5 23.5q-16 23 -35 33.5t-48 10.5q-41 0 -61.5 -21t-25.5 -56q-2 -17 -2 -43t2 -43q5 -37 26 -59.5t61 -22.5zM291 747q32 0 54 -22.5t22 -54.5t-22 -54t-54 -22t-54 22t-22 54t22 54.5
t54 22.5z" />
    <glyph glyph-name="Ccaron" unicode="&#x10c;" horiz-adv-x="670" 
d="M356 148q38 0 68.5 18t50.5 52q13 21 28.5 34.5t45.5 13.5q15 0 29.5 -6t26.5 -16.5t19.5 -25t7.5 -31.5q0 -11 -1.5 -21t-7.5 -26q-17 -38 -45 -67t-63.5 -48t-75.5 -28.5t-82 -9.5q-66 0 -120.5 22t-94.5 61t-64.5 91t-29.5 112q-8 82 0 158q5 61 29.5 113.5t64.5 91.5
t94 61t120 22q42 0 82.5 -9.5t76 -28.5t63.5 -48t45 -67q6 -16 7.5 -26t1.5 -21q0 -17 -7.5 -31.5t-19.5 -25t-26.5 -16.5t-29.5 -6q-30 0 -46 15t-28 33q-20 34 -50.5 52t-68.5 18q-32 0 -57 -11.5t-42.5 -32t-27.5 -48t-12 -60.5q-3 -56 0 -112q5 -66 40 -106t99 -40z
M393 772q-10 -8 -20.5 -12.5t-21.5 -4.5t-21.5 4.5t-21.5 12.5l-115 90q-29 21 -29 52q0 26 20 45t44 19q20 0 42 -16l81 -62l81 62q22 16 41 16q25 0 45 -19t20 -45q0 -30 -30 -52z" />
    <glyph glyph-name="ccaron" unicode="&#x10d;" horiz-adv-x="561" 
d="M298 151q29 0 48 10.5t35 33.5q10 15 24.5 23.5t37.5 8.5q38 0 59 -25t21 -59q0 -24 -15 -50.5t-44 -49.5t-72 -38t-100 -15q-50 0 -92.5 16.5t-75 45.5t-52.5 68t-24 84q-2 15 -2.5 34t-0.5 38t1 37.5t2 33.5q3 45 23 83t52.5 65.5t75.5 42.5t93 15q57 0 100 -14.5
t72.5 -36.5t44 -48.5t14.5 -49.5q0 -34 -21.5 -59t-58.5 -25q-23 0 -37.5 8.5t-24.5 23.5q-16 23 -35 33.5t-48 10.5q-41 0 -61.5 -21t-25.5 -56q-2 -17 -2 -43t2 -43q5 -37 26 -59.5t61 -22.5zM329 609q-10 -8 -20.5 -12.5t-21.5 -4.5t-21.5 4.5t-21.5 12.5l-115 90
q-29 21 -29 52q0 26 20 45t44 19q20 0 42 -16l81 -62l81 62q22 16 41 16q25 0 45 -19t20 -45q0 -30 -30 -52z" />
    <glyph glyph-name="Dcaron" unicode="&#x10e;" horiz-adv-x="716" 
d="M500 316q2 18 2 35.5t-1 33.5q-3 74 -41.5 116.5t-126.5 42.5h-97v-377h97q85 0 123.5 40t43.5 109zM183 0q-56 0 -86.5 33t-30.5 81v482q0 49 29.5 81t87.5 32h145q84 0 146 -21.5t104 -60.5t64 -93.5t27 -119.5q2 -28 2.5 -55t-1.5 -53q-5 -66 -26.5 -122.5t-63 -97
t-103.5 -63.5t-149 -23h-145zM388 772q-10 -8 -20.5 -12.5t-21.5 -4.5t-21.5 4.5t-21.5 12.5l-115 90q-29 21 -29 52q0 26 20 45t44 19q20 0 42 -16l81 -62l81 62q22 16 41 16q25 0 45 -19t20 -45q0 -30 -30 -52z" />
    <glyph glyph-name="dcaron" unicode="&#x10f;" horiz-adv-x="737" 
d="M48 346q4 46 20.5 84t44.5 65.5t67.5 42.5t90.5 15q24 0 53 -5.5t49 -14.5v105q0 18 6.5 33.5t18 27t26.5 18t32 6.5q36 0 59.5 -25t23.5 -60v-529q0 -20 -6.5 -32t-21.5 -23q-12 -8 -32 -19t-48 -21t-62.5 -16.5t-75.5 -6.5q-53 0 -96.5 16.5t-75 45t-50.5 67.5t-23 84
q-1 13 -2 32t-1 39t0.5 38.5t2.5 32.5zM212 234q2 -39 24 -60.5t61 -21.5q21 0 43.5 8.5t32.5 16.5v198q-11 7 -34 14t-49 7q-38 0 -57 -21t-21 -57q-1 -8 -1.5 -18.5t-0.5 -22.5t0.5 -23t1.5 -20zM716 594q-11 -19 -27 -31t-39 -12q-28 0 -43.5 18t-15.5 39q0 12 5 23
t10.5 23t10.5 26t5 32v38q0 29 16 49.5t48 20.5q30 0 46.5 -20.5t16.5 -49.5v-30q0 -26 -8 -61t-25 -65z" />
    <glyph glyph-name="Dcroat" unicode="&#x110;" horiz-adv-x="712" 
d="M179 0q-29 0 -50.5 9t-36.5 24.5t-22.5 36t-7.5 44.5v168h-19q-32 0 -52 21t-20 52q0 30 20 51t52 21h19v169q0 24 7.5 44.5t22.5 36.5t36.5 25t50.5 9h145q84 0 146 -22t104 -61.5t64 -94t27 -119.5q2 -28 2 -58.5t-2 -57.5q-5 -65 -27 -120t-64 -94.5t-104 -61.5
t-146 -22h-145zM328 167q86 0 124 40t43 109q2 18 2 40t-2 40q-5 69 -43 108.5t-124 39.5h-96v-117h85q32 0 52.5 -21t20.5 -51q0 -31 -20.5 -52t-52.5 -21h-85v-115h96z" />
    <glyph glyph-name="dcroat" unicode="&#x111;" horiz-adv-x="604" 
d="M48 346q4 46 20.5 84t44.5 65.5t67.5 42.5t90.5 15q24 0 53 -5.5t49 -14.5v39h-62q-29 0 -47 17.5t-18 46.5q0 26 18 44t47 18h66v13q0 15 19.5 32.5t59.5 17.5q42 0 62.5 -17.5t20.5 -32.5v-12h10q18 0 37 -15.5t19 -47.5q0 -35 -19.5 -49.5t-40.5 -14.5h-6v-463
q0 -20 -6.5 -32t-21.5 -23q-12 -8 -31.5 -19t-46.5 -21t-62 -16.5t-78 -6.5q-53 0 -96.5 16.5t-75 45t-50.5 67.5t-23 84q-1 13 -2 32t-1 39t0.5 38.5t2.5 32.5zM212 234q2 -39 24 -60.5t61 -21.5q21 0 43.5 8.5t32.5 16.5v198q-11 7 -34 14t-49 7q-42 0 -58.5 -22.5
t-19.5 -60.5q-2 -17 -2 -38t2 -41z" />
    <glyph glyph-name="Emacron" unicode="&#x112;" horiz-adv-x="631" 
d="M504 709q34 0 57.5 -21.5t23.5 -55.5q0 -16 -6.5 -30.5t-18 -25t-26 -17t-30.5 -6.5h-268v-125h230q35 0 55.5 -19.5t20.5 -52.5q0 -29 -21 -51t-55 -22h-230v-126h270q32 0 56.5 -23t24.5 -55q0 -34 -23.5 -56.5t-57.5 -22.5h-323q-29 0 -50.5 9t-36.5 25t-22.5 36.5
t-7.5 44.5v481q0 48 30 80.5t87 32.5h321zM406 893q29 0 47.5 -19t18.5 -48q0 -28 -18.5 -47t-47.5 -19h-154q-28 0 -47 19t-19 47q0 29 19 48t47 19h154z" />
    <glyph glyph-name="emacron" unicode="&#x113;" horiz-adv-x="569" 
d="M529 290q0 -32 -17.5 -54t-56.5 -22l-251 -1v-6q0 -36 28.5 -54.5t69.5 -18.5q27 0 53 8t46 17q23 10 42.5 8t33.5 -12.5t22 -26.5t8 -32q0 -18 -11 -36.5t-37 -33.5q-59 -35 -163 -35q-51 0 -94.5 16t-76 44t-53 66.5t-24.5 84.5q-1 15 -1.5 33.5t-0.5 37t0.5 35.5
t1.5 29q4 49 24 89t51.5 68t74 43.5t93.5 15.5q52 0 96 -16.5t75.5 -47.5t49 -75.5t17.5 -100.5v-23zM371 320q10 0 10 12q1 39 -22 63.5t-65 24.5q-48 0 -69 -27.5t-21 -72.5h167zM366 732q29 0 47.5 -19t18.5 -48q0 -28 -18.5 -47t-47.5 -19h-154q-28 0 -47 19t-19 47
q0 29 19 48t47 19h154z" />
    <glyph glyph-name="Edotaccent" unicode="&#x116;" horiz-adv-x="631" 
d="M504 709q34 0 57.5 -21.5t23.5 -55.5q0 -16 -6.5 -30.5t-18 -25t-26 -17t-30.5 -6.5h-268v-125h230q35 0 55.5 -19.5t20.5 -52.5q0 -29 -21 -51t-55 -22h-230v-126h270q32 0 56.5 -23t24.5 -55q0 -34 -23.5 -56.5t-57.5 -22.5h-323q-29 0 -50.5 9t-36.5 25t-22.5 36.5
t-7.5 44.5v481q0 48 30 80.5t87 32.5h321zM331 908q32 0 54 -22.5t22 -54.5t-22 -54t-54 -22t-54 22t-22 54t22 54.5t54 22.5z" />
    <glyph glyph-name="edotaccent" unicode="&#x117;" horiz-adv-x="569" 
d="M529 290q0 -32 -17.5 -54t-56.5 -22l-251 -1v-6q0 -36 28.5 -54.5t69.5 -18.5q27 0 53 8t46 17q23 10 42.5 8t33.5 -12.5t22 -26.5t8 -32q0 -18 -11 -36.5t-37 -33.5q-59 -35 -163 -35q-51 0 -94.5 16t-76 44t-53 66.5t-24.5 84.5q-1 15 -1.5 33.5t-0.5 37t0.5 35.5
t1.5 29q4 49 24 89t51.5 68t74 43.5t93.5 15.5q52 0 96 -16.5t75.5 -47.5t49 -75.5t17.5 -100.5v-23zM371 320q10 0 10 12q1 39 -22 63.5t-65 24.5q-48 0 -69 -27.5t-21 -72.5h167zM290 746q32 0 54 -22.5t22 -54.5t-22 -54t-54 -22t-54 22t-22 54t22 54.5t54 22.5z" />
    <glyph glyph-name="Eogonek" unicode="&#x118;" horiz-adv-x="632" 
d="M183 0q-29 0 -50.5 9t-36.5 25t-22.5 36.5t-7.5 44.5v481q0 48 30 80.5t87 32.5h321q34 0 57.5 -21.5t23.5 -55.5q0 -16 -6.5 -30.5t-18 -25t-26 -17t-30.5 -6.5h-268v-125h252q32 0 54 -19.5t22 -52.5q0 -15 -6.5 -28t-17 -23t-24 -16t-28.5 -6h-252v-126h270
q32 0 56.5 -23t24.5 -55q0 -21 -9 -38t-24 -26t-32.5 -20t-32.5 -23.5t-24.5 -26t-9.5 -28.5q0 -19 12 -30t26 -11q12 0 23 7q16 9 33 7t29 -17q13 -17 9 -37.5t-21 -34.5q-14 -11 -36 -21t-58 -10q-29 0 -53 10.5t-41 28.5t-26.5 42t-9.5 52q0 26 8.5 50.5t28.5 46.5h-196z
" />
    <glyph glyph-name="eogonek" unicode="&#x119;" horiz-adv-x="570" 
d="M478 35q-17 -12 -35 -22t-33 -22t-24.5 -28t-9.5 -40q0 -25 12 -36t27 -11q11 0 22 7q15 9 32.5 7t29.5 -17q11 -14 9.5 -32t-15 -34t-38.5 -26.5t-62 -10.5q-26 0 -49.5 8.5t-41.5 25t-29 40t-11 52.5q0 27 8.5 52.5t20.5 42.5q-50 1 -92.5 17t-75 44.5t-52 67.5
t-23.5 86q-3 31 -3 69t3 67q4 47 24.5 86t53 66.5t75.5 43t92 15.5q94 0 157.5 -50.5t77.5 -142.5q3 -33 3 -73q0 -33 -17.5 -52.5t-56.5 -19.5h-246v-6q0 -37 26 -53.5t67 -16.5q27 0 52 6.5t45 14.5q24 9 43.5 6.5t34 -13t22 -26t7.5 -31.5q0 -15 -6 -31t-24 -30zM361 323
q8 0 8 7q1 30 -19.5 53t-56.5 23q-43 0 -62.5 -24t-19.5 -59h150z" />
    <glyph glyph-name="Ecaron" unicode="&#x11a;" horiz-adv-x="631" 
d="M504 709q34 0 57.5 -21.5t23.5 -55.5q0 -16 -6.5 -30.5t-18 -25t-26 -17t-30.5 -6.5h-268v-125h230q35 0 55.5 -19.5t20.5 -52.5q0 -29 -21 -51t-55 -22h-230v-126h270q32 0 56.5 -23t24.5 -55q0 -34 -23.5 -56.5t-57.5 -22.5h-323q-29 0 -50.5 9t-36.5 25t-22.5 36.5
t-7.5 44.5v481q0 48 30 80.5t87 32.5h321zM380 772q-10 -8 -20.5 -12.5t-21.5 -4.5t-21.5 4.5t-21.5 12.5l-115 90q-29 21 -29 52q0 26 20 45t44 19q20 0 42 -16l81 -62l81 62q22 16 41 16q25 0 45 -19t20 -45q0 -30 -30 -52z" />
    <glyph glyph-name="ecaron" unicode="&#x11b;" horiz-adv-x="569" 
d="M529 290q0 -32 -17.5 -54t-56.5 -22l-251 -1v-6q0 -36 28.5 -54.5t69.5 -18.5q27 0 53 8t46 17q23 10 42.5 8t33.5 -12.5t22 -26.5t8 -32q0 -18 -11 -36.5t-37 -33.5q-59 -35 -163 -35q-51 0 -94.5 16t-76 44t-53 66.5t-24.5 84.5q-1 15 -1.5 33.5t-0.5 37t0.5 35.5
t1.5 29q4 49 24 89t51.5 68t74 43.5t93.5 15.5q52 0 96 -16.5t75.5 -47.5t49 -75.5t17.5 -100.5v-23zM371 320q10 0 10 12q1 39 -22 63.5t-65 24.5q-48 0 -69 -27.5t-21 -72.5h167zM339 608q-10 -8 -20.5 -12.5t-21.5 -4.5t-21.5 4.5t-21.5 12.5l-115 90q-29 21 -29 52
q0 26 20 45t44 19q20 0 42 -16l81 -62l81 62q22 16 41 16q25 0 45 -19t20 -45q0 -30 -30 -52z" />
    <glyph glyph-name="Gbreve" unicode="&#x11e;" horiz-adv-x="698" 
d="M653 252q0 -60 -23 -108.5t-63 -83.5t-94 -54t-115 -19q-66 0 -120.5 22t-95 61t-65 91t-29.5 112q-8 82 0 158q6 61 30 113.5t64.5 91.5t94.5 61t120 22q91 0 155 -35t103 -97q16 -22 16 -53q0 -32 -24 -55.5t-58 -23.5q-23 0 -39 11.5t-26 25.5q-9 14 -19.5 26.5
t-24.5 21.5t-33 14.5t-46 5.5q-69 0 -103 -39.5t-41 -114.5q-3 -30 -2.5 -59t2.5 -55q5 -76 42 -114t109 -38q34 0 57.5 9t38.5 22.5t22 30.5t7 34v19h-68q-32 0 -54.5 22.5t-22.5 53.5q0 32 22.5 54t54.5 22h120q26 0 46.5 -8.5t34 -23.5t20.5 -34.5t7 -40.5v-48zM357 862
q36 0 49 41q7 19 22 30.5t35 11.5q25 0 42 -17t17 -42q0 -11 -4 -20q-8 -24 -23 -45t-35 -36.5t-46 -25t-57 -9.5t-57 9.5t-46 25t-35 36.5t-23 45q-4 9 -4 20q0 25 17 42t42 17q20 0 35 -11.5t22 -30.5q13 -41 49 -41z" />
    <glyph glyph-name="gbreve" unicode="&#x11f;" horiz-adv-x="599" 
d="M539 42q0 -66 -21.5 -113t-57 -77t-80.5 -44.5t-93 -14.5q-92 0 -161 39q-30 17 -42.5 35.5t-12.5 41.5q0 27 19 49t55 22q17 0 30.5 -5t27.5 -11q20 -9 39 -15t45 -6q43 0 65.5 22t22.5 62v9q-20 -9 -47.5 -15.5t-62.5 -6.5q-96 0 -151.5 51.5t-64.5 142.5
q-2 15 -2.5 33t-0.5 36t1 34.5t2 28.5q4 43 21 81.5t48 67.5t75.5 46.5t103.5 17.5q36 0 69.5 -6.5t61 -15.5t49 -20t34.5 -20q17 -12 22.5 -24.5t5.5 -31.5v-393zM297 396q-39 0 -61 -24t-24 -62q-1 -11 -1 -33.5t1 -36.5q2 -37 20.5 -61t60.5 -24q26 0 48.5 8t32.5 15v195
q-8 7 -30 15t-47 8zM301 698q36 0 49 41q7 19 22 30.5t35 11.5q25 0 42 -17t17 -42q0 -11 -4 -20q-8 -24 -23 -45t-35 -36.5t-46 -25t-57 -9.5t-57 9.5t-46 25t-35 36.5t-23 45q-4 9 -4 20q0 25 17 42t42 17q20 0 35 -11.5t22 -30.5q13 -41 49 -41z" />
    <glyph glyph-name="Gdotaccent" unicode="&#x120;" horiz-adv-x="698" 
d="M653 252q0 -60 -23 -108.5t-63 -83.5t-94 -54t-115 -19q-66 0 -120.5 22t-95 61t-65 91t-29.5 112q-8 82 0 158q6 61 30 113.5t64.5 91.5t94.5 61t120 22q91 0 155 -35t103 -97q16 -22 16 -53q0 -32 -24 -55.5t-58 -23.5q-23 0 -39 11.5t-26 25.5q-9 14 -19.5 26.5
t-24.5 21.5t-33 14.5t-46 5.5q-69 0 -103 -39.5t-41 -114.5q-3 -30 -2.5 -59t2.5 -55q5 -76 42 -114t109 -38q34 0 57.5 9t38.5 22.5t22 30.5t7 34v19h-68q-32 0 -54.5 22.5t-22.5 53.5q0 32 22.5 54t54.5 22h120q26 0 46.5 -8.5t34 -23.5t20.5 -34.5t7 -40.5v-48zM357 908
q32 0 54 -22.5t22 -54.5t-22 -54t-54 -22t-54 22t-22 54t22 54.5t54 22.5z" />
    <glyph glyph-name="gdotaccent" unicode="&#x121;" horiz-adv-x="599" 
d="M539 42q0 -66 -21.5 -113t-57 -77t-80.5 -44.5t-93 -14.5q-92 0 -161 39q-30 17 -42.5 35.5t-12.5 41.5q0 27 19 49t55 22q17 0 30.5 -5t27.5 -11q20 -9 39 -15t45 -6q43 0 65.5 22t22.5 62v9q-20 -9 -47.5 -15.5t-62.5 -6.5q-96 0 -151.5 51.5t-64.5 142.5
q-2 15 -2.5 33t-0.5 36t1 34.5t2 28.5q4 43 21 81.5t48 67.5t75.5 46.5t103.5 17.5q36 0 69.5 -6.5t61 -15.5t49 -20t34.5 -20q17 -12 22.5 -24.5t5.5 -31.5v-393zM297 396q-39 0 -61 -24t-24 -62q-1 -11 -1 -33.5t1 -36.5q2 -37 20.5 -61t60.5 -24q26 0 48.5 8t32.5 15v195
q-8 7 -30 15t-47 8zM301 747q32 0 54 -22.5t22 -54.5t-22 -54t-54 -22t-54 22t-22 54t22 54.5t54 22.5z" />
    <glyph glyph-name="Gcommaaccent" unicode="&#x122;" horiz-adv-x="698" 
d="M653 252q0 -60 -23 -108.5t-63 -83.5t-94 -54t-115 -19q-66 0 -120.5 22t-95 61t-65 91t-29.5 112q-8 82 0 158q6 61 30 113.5t64.5 91.5t94.5 61t120 22q91 0 155 -35t103 -97q16 -22 16 -53q0 -32 -24 -55.5t-58 -23.5q-23 0 -39 11.5t-26 25.5q-9 14 -19.5 26.5
t-24.5 21.5t-33 14.5t-46 5.5q-69 0 -103 -39.5t-41 -114.5q-3 -30 -2.5 -59t2.5 -55q5 -76 42 -114t109 -38q34 0 57.5 9t38.5 22.5t22 30.5t7 34v19h-68q-32 0 -54.5 22.5t-22.5 53.5q0 32 22.5 54t54.5 22h120q26 0 46.5 -8.5t34 -23.5t20.5 -34.5t7 -40.5v-48zM403 -241
q-11 -18 -26.5 -30.5t-38.5 -12.5q-28 0 -43 18t-15 38q0 12 5 23.5t10.5 23.5t10.5 26t5 32v26q0 29 15 49t47 20q30 0 46.5 -20t16.5 -49v-18q0 -26 -8.5 -61.5t-24.5 -64.5z" />
    <glyph glyph-name="gcommaaccent" unicode="&#x123;" horiz-adv-x="599" 
d="M539 42q0 -66 -21.5 -113t-57 -77t-80.5 -44.5t-93 -14.5q-92 0 -161 39q-30 17 -42.5 35.5t-12.5 41.5q0 27 19 49t55 22q17 0 30.5 -5t27.5 -11q20 -9 39 -15t45 -6q43 0 65.5 22t22.5 62v9q-20 -9 -47.5 -15.5t-62.5 -6.5q-96 0 -151.5 51.5t-64.5 142.5
q-2 15 -2.5 33t-0.5 36t1 34.5t2 28.5q4 43 21 81.5t48 67.5t75.5 46.5t103.5 17.5q36 0 69.5 -6.5t61 -15.5t49 -20t34.5 -20q17 -12 22.5 -24.5t5.5 -31.5v-393zM297 396q-39 0 -61 -24t-24 -62q-1 -11 -1 -33.5t1 -36.5q2 -37 20.5 -61t60.5 -24q26 0 48.5 8t32.5 15v195
q-8 7 -30 15t-47 8zM331 645q-11 -18 -26.5 -30.5t-38.5 -12.5q-28 0 -43 18t-15 38q0 12 5 23.5t10.5 23.5t10.5 26t5 32v26q0 29 15 49t47 20q30 0 46.5 -20t16.5 -49v-18q0 -26 -8.5 -61.5t-24.5 -64.5z" />
    <glyph glyph-name="Imacron" unicode="&#x12a;" horiz-adv-x="294" 
d="M63 622q0 18 7 34t18.5 27.5t27 18.5t32.5 7q37 0 61 -25.5t24 -61.5v-538q0 -37 -24 -62.5t-61 -25.5q-35 0 -60 25.5t-25 62.5v538zM226 893q29 0 47.5 -19t18.5 -48q0 -28 -18.5 -47t-47.5 -19h-154q-28 0 -47 19t-19 47q0 29 19 48t47 19h154z" />
    <glyph glyph-name="imacron" unicode="&#x12b;" horiz-adv-x="297" 
d="M227 732q29 0 47.5 -19t18.5 -48q0 -28 -18.5 -47t-47.5 -19h-154q-28 0 -47 19t-19 47q0 29 19 48t47 19h154zM148 547q35 0 59 -24.5t24 -60.5v-383q0 -35 -23.5 -60t-59.5 -25q-17 0 -31.5 7t-26 18.5t-18 27t-6.5 32.5v383q0 36 23.5 60.5t58.5 24.5z" />
    <glyph glyph-name="Iogonek" unicode="&#x12e;" horiz-adv-x="294" 
d="M196 12q-38 -27 -50 -52.5t-12 -42.5q0 -19 12 -30t27 -11q11 0 22 7q16 9 33 7t29 -17q11 -14 10 -32t-14.5 -34t-39 -26.5t-61.5 -10.5q-29 0 -53 10.5t-41.5 28.5t-27 42.5t-9.5 52.5q0 33 14 64.5t49 58.5q-10 14 -16 32.5t-6 38.5v523q0 18 6.5 34t18 28t27 19
t33.5 7q19 0 34.5 -8t27 -21t17.5 -30t6 -36v-530q0 -5 -1 -13.5t-4.5 -18.5t-11 -20.5t-19.5 -19.5z" />
    <glyph glyph-name="iogonek" unicode="&#x12f;" horiz-adv-x="297" 
d="M191 7q-35 -20 -48 -43.5t-13 -46.5q0 -19 12 -30t27 -11q11 0 22 7q15 9 32.5 7t29.5 -17q11 -14 9.5 -32t-15 -34t-38.5 -26.5t-62 -10.5q-29 0 -53 10.5t-41 28.5t-26.5 42.5t-9.5 52.5q0 34 14.5 66t51.5 61q-8 13 -12.5 24t-4.5 28v378q0 36 23 61t59 25
q35 0 59 -25.5t24 -59.5v-381q0 -21 -8 -40.5t-32 -33.5zM232 673q0 -17 -6.5 -32.5t-18 -27.5t-26.5 -19t-33 -7q-36 0 -60 25.5t-24 60.5t24 59.5t60 24.5q35 0 59.5 -24.5t24.5 -59.5z" />
    <glyph glyph-name="Idotaccent" unicode="&#x130;" horiz-adv-x="294" 
d="M63 622q0 18 7 34t18.5 27.5t27 18.5t32.5 7q37 0 61 -25.5t24 -61.5v-538q0 -37 -24 -62.5t-61 -25.5q-35 0 -60 25.5t-25 62.5v538zM150 908q32 0 54 -22.5t22 -54.5t-22 -54t-54 -22t-54 22t-22 54t22 54.5t54 22.5z" />
    <glyph glyph-name="dotlessi" unicode="&#x131;" horiz-adv-x="297" 
d="M148 547q35 0 59 -24.5t24 -60.5v-383q0 -35 -23.5 -60t-59.5 -25q-17 0 -31.5 7t-26 18.5t-18 27t-6.5 32.5v383q0 36 23.5 60.5t58.5 24.5z" />
    <glyph glyph-name="Kcommaaccent" unicode="&#x136;" horiz-adv-x="664" 
d="M236 84q0 -37 -24 -62.5t-61 -25.5q-17 0 -32.5 7t-27 19t-18.5 28t-7 34v538q0 18 7 34t18.5 27.5t27 18.5t32.5 7q37 0 61 -25.5t24 -61.5v-186q18 0 31 3t28 20l201 220q14 16 30.5 23t33.5 7t32.5 -6.5t26.5 -18.5q22 -23 23.5 -54.5t-20.5 -54.5l-203 -214l197 -219
q23 -26 25 -60t-22 -60t-61 -26q-17 0 -33 7.5t-29 21.5l-201 225q-14 17 -27.5 20t-31.5 3v-189zM373 -241q-11 -18 -26.5 -30.5t-38.5 -12.5q-28 0 -43 18t-15 38q0 12 5 23.5t10.5 23.5t10.5 26t5 32v26q0 29 15 49t47 20q30 0 46.5 -20t16.5 -49v-18q0 -26 -8.5 -61.5
t-24.5 -64.5z" />
    <glyph glyph-name="kcommaaccent" unicode="&#x137;" horiz-adv-x="575" 
d="M143 721q35 0 59 -24.5t24 -60.5v-286h6q16 0 24.5 3.5t22.5 18.5l136 146q14 16 31.5 23t34.5 7q34 0 57 -24q24 -26 23.5 -58t-20.5 -52l-137 -137l127 -136q24 -26 26 -60t-24 -61q-23 -25 -59 -25q-17 0 -33.5 7t-29.5 22l-132 148q-14 16 -22 19t-22 3h-9v-114
q0 -35 -23.5 -60t-59.5 -25q-17 0 -31.5 7t-26 18.5t-18 27t-6.5 32.5v556q0 36 23.5 60.5t58.5 24.5zM324 -242q-11 -18 -26.5 -30.5t-38.5 -12.5q-28 0 -43 18t-15 38q0 12 5 23.5t10.5 23.5t10.5 26t5 32v26q0 29 15 49t47 20q30 0 46.5 -20t16.5 -49v-18
q0 -26 -8.5 -61.5t-24.5 -64.5z" />
    <glyph glyph-name="Lacute" unicode="&#x139;" horiz-adv-x="583" 
d="M74 622q0 18 7 34t18.5 27.5t27 18.5t32.5 7q37 0 61 -25.5t24 -61.5v-455h247q17 0 32.5 -6.5t27.5 -18t19 -27t7 -32.5q0 -35 -25.5 -59t-60.5 -24h-328q-43 0 -66 26t-23 62v534zM242 945q16 10 34 10q26 0 44 -20.5t18 -46.5q0 -35 -38 -56l-135 -69q-18 -9 -34 -9
q-26 0 -44 19.5t-18 45.5q0 17 9.5 31.5t28.5 24.5z" />
    <glyph glyph-name="lacute" unicode="&#x13a;" horiz-adv-x="297" 
d="M148 721q34 0 58.5 -25t24.5 -61v-555q0 -35 -23.5 -60t-59.5 -25q-17 0 -32 6.5t-26 18t-17.5 27t-6.5 33.5v555q0 36 23.5 61t58.5 25zM203 945q16 10 34 10q26 0 44 -20.5t18 -46.5q0 -35 -38 -56l-135 -69q-18 -9 -34 -9q-26 0 -44 19.5t-18 45.5q0 17 9.5 31.5
t28.5 24.5z" />
    <glyph glyph-name="Lcommaaccent" unicode="&#x13b;" horiz-adv-x="575" 
d="M66 622q0 18 7 34t18.5 27.5t27 18.5t32.5 7q37 0 61 -25.5t24 -61.5v-455h247q17 0 32.5 -6.5t27.5 -18t19 -27t7 -32.5q0 -35 -25.5 -59t-60.5 -24h-328q-43 0 -66 26t-23 62v534zM347 -241q-11 -18 -26.5 -30.5t-38.5 -12.5q-28 0 -43 18t-15 38q0 12 5 23.5
t10.5 23.5t10.5 26t5 32v26q0 29 15 49t47 20q30 0 46.5 -20t16.5 -49v-18q0 -26 -8.5 -61.5t-24.5 -64.5z" />
    <glyph glyph-name="lcommaaccent" unicode="&#x13c;" horiz-adv-x="300" 
d="M151 721q34 0 58.5 -25t24.5 -61v-555q0 -35 -23.5 -60t-59.5 -25q-17 0 -32 6.5t-26 18t-17.5 27t-6.5 33.5v555q0 36 23.5 61t58.5 25zM184 -242q-11 -18 -26.5 -30.5t-38.5 -12.5q-28 0 -43 18t-15 38q0 12 5 23.5t10.5 23.5t10.5 26t5 32v26q0 29 15 49t47 20
q30 0 46.5 -20t16.5 -49v-18q0 -26 -8.5 -61.5t-24.5 -64.5z" />
    <glyph glyph-name="Lcaron" unicode="&#x13d;" horiz-adv-x="575" 
d="M66 622q0 18 7 34t18.5 27.5t27 18.5t32.5 7q37 0 61 -25.5t24 -61.5v-455h247q17 0 32.5 -6.5t27.5 -18t19 -27t7 -32.5q0 -35 -25.5 -59t-60.5 -24h-328q-43 0 -66 26t-23 62v534zM437 591q-11 -19 -27 -31t-39 -12q-28 0 -43.5 18t-15.5 39q0 12 5 23t10.5 23t10.5 26
t5 32v38q0 29 16 49.5t48 20.5q30 0 46.5 -20.5t16.5 -49.5v-30q0 -26 -8 -61t-25 -65z" />
    <glyph glyph-name="lcaron" unicode="&#x13e;" horiz-adv-x="426" 
d="M143 721q34 0 58.5 -25t24.5 -61v-555q0 -35 -23.5 -60t-59.5 -25q-17 0 -32 6.5t-26 18t-17.5 27t-6.5 33.5v555q0 36 23.5 61t58.5 25zM406 594q-11 -19 -27 -31t-39 -12q-28 0 -43.5 18t-15.5 39q0 12 5 23t10.5 23t10.5 26t5 32v38q0 29 16 49.5t48 20.5
q30 0 46.5 -20.5t16.5 -49.5v-30q0 -26 -8 -61t-25 -65z" />
    <glyph glyph-name="Lslash" unicode="&#x141;" horiz-adv-x="571" 
d="M62 195l-12 -7q-27 -16 -55 -8.5t-44 33.5q-17 26 -9.5 54.5t33.5 45.5l87 52v257q0 18 7 34t18.5 27.5t27 18.5t32.5 7q36 0 60.5 -25.5t24.5 -61.5v-155l64 41q27 16 56 8.5t45 -33.5t9 -54.5t-34 -45.5l-140 -86v-130h247q16 0 31.5 -6.5t27.5 -18t19 -27t7 -32.5
q0 -35 -25 -59t-60 -24h-328q-44 0 -66.5 26t-22.5 62v107z" />
    <glyph glyph-name="lslash" unicode="&#x142;" horiz-adv-x="386" 
d="M189 721q34 0 58.5 -25t24.5 -61v-125l14 9q23 15 48 9t40 -30q14 -22 7 -47.5t-29 -39.5l-80 -52v-279q0 -35 -23.5 -60t-59.5 -25q-17 0 -32 6.5t-26 18t-17.5 27t-6.5 33.5v172l-14 -8q-23 -11 -45.5 -4t-34.5 27q-14 23 -7.5 48t31.5 41l70 45v234q0 36 23.5 61
t58.5 25z" />
    <glyph glyph-name="Nacute" unicode="&#x143;" horiz-adv-x="766" 
d="M538 215l3 1q-8 87 -9.5 159t-1.5 118v129q0 37 25 62t60 25q37 0 61 -25t24 -62v-496q0 -27 -9 -51t-25 -42t-39 -28.5t-51 -10.5q-35 0 -68.5 16t-53.5 55l-229 428l-3 -1q4 -43 6.5 -78.5t3.5 -65t1.5 -54.5t0.5 -48v-165q0 -36 -23.5 -61.5t-59.5 -25.5
q-17 0 -32.5 7t-27 19t-18.5 27.5t-7 33.5v493q0 27 9 51.5t25.5 43t39.5 29.5t51 11q36 0 68.5 -16t54.5 -58l224 -419v-1zM448 945q16 10 34 10q26 0 44 -20.5t18 -46.5q0 -35 -38 -56l-135 -69q-18 -9 -34 -9q-26 0 -44 19.5t-18 45.5q0 17 9.5 31.5t28.5 24.5z" />
    <glyph glyph-name="nacute" unicode="&#x144;" horiz-adv-x="589" 
d="M535 80q0 -35 -23.5 -60t-59.5 -25q-17 0 -31.5 6.5t-26 18t-18 27t-6.5 33.5v238q0 38 -22 55.5t-52 17.5q-23 0 -43 -5.5t-31 -13.5v-292q0 -35 -24 -60t-59 -25q-17 0 -32 6.5t-26 18t-18 27t-7 33.5v362q0 21 6.5 33t21.5 23q12 8 32 17.5t47.5 18t61.5 14t75 5.5
q118 0 176.5 -58.5t58.5 -168.5v-246zM376 781q16 10 34 10q26 0 44 -20.5t18 -46.5q0 -35 -38 -56l-135 -69q-18 -9 -34 -9q-26 0 -44 19.5t-18 45.5q0 17 9.5 31.5t28.5 24.5z" />
    <glyph glyph-name="Ncommaaccent" unicode="&#x145;" horiz-adv-x="766" 
d="M538 215l3 1q-8 87 -9.5 159t-1.5 118v129q0 37 25 62t60 25q37 0 61 -25t24 -62v-496q0 -27 -9 -51t-25 -42t-39 -28.5t-51 -10.5q-35 0 -68.5 16t-53.5 55l-229 428l-3 -1q4 -43 6.5 -78.5t3.5 -65t1.5 -54.5t0.5 -48v-165q0 -36 -23.5 -61.5t-59.5 -25.5
q-17 0 -32.5 7t-27 19t-18.5 27.5t-7 33.5v493q0 27 9 51.5t25.5 43t39.5 29.5t51 11q36 0 68.5 -16t54.5 -58l224 -419v-1zM416 -242q-11 -18 -26.5 -30.5t-38.5 -12.5q-28 0 -43 18t-15 38q0 12 5 23.5t10.5 23.5t10.5 26t5 32v26q0 29 15 49t47 20q30 0 46.5 -20
t16.5 -49v-18q0 -26 -8.5 -61.5t-24.5 -64.5z" />
    <glyph glyph-name="ncommaaccent" unicode="&#x146;" horiz-adv-x="589" 
d="M535 80q0 -35 -23.5 -60t-59.5 -25q-17 0 -31.5 6.5t-26 18t-18 27t-6.5 33.5v238q0 38 -22 55.5t-52 17.5q-23 0 -43 -5.5t-31 -13.5v-292q0 -35 -24 -60t-59 -25q-17 0 -32 6.5t-26 18t-18 27t-7 33.5v362q0 21 6.5 33t21.5 23q12 8 32 17.5t47.5 18t61.5 14t75 5.5
q118 0 176.5 -58.5t58.5 -168.5v-246zM323 -242q-11 -18 -26.5 -30.5t-38.5 -12.5q-28 0 -43 18t-15 38q0 12 5 23.5t10.5 23.5t10.5 26t5 32v26q0 29 15 49t47 20q30 0 46.5 -20t16.5 -49v-18q0 -26 -8.5 -61.5t-24.5 -64.5z" />
    <glyph glyph-name="Ncaron" unicode="&#x147;" horiz-adv-x="766" 
d="M538 215l3 1q-8 87 -9.5 159t-1.5 118v129q0 37 25 62t60 25q37 0 61 -25t24 -62v-496q0 -27 -9 -51t-25 -42t-39 -28.5t-51 -10.5q-35 0 -68.5 16t-53.5 55l-229 428l-3 -1q4 -43 6.5 -78.5t3.5 -65t1.5 -54.5t0.5 -48v-165q0 -36 -23.5 -61.5t-59.5 -25.5
q-17 0 -32.5 7t-27 19t-18.5 27.5t-7 33.5v493q0 27 9 51.5t25.5 43t39.5 29.5t51 11q36 0 68.5 -16t54.5 -58l224 -419v-1zM447 772q-10 -8 -20.5 -12.5t-21.5 -4.5t-21.5 4.5t-21.5 12.5l-115 90q-29 21 -29 52q0 26 20 45t44 19q20 0 42 -16l81 -62l81 62q22 16 41 16
q25 0 45 -19t20 -45q0 -30 -30 -52z" />
    <glyph glyph-name="ncaron" unicode="&#x148;" horiz-adv-x="589" 
d="M535 80q0 -35 -23.5 -60t-59.5 -25q-17 0 -31.5 6.5t-26 18t-18 27t-6.5 33.5v238q0 38 -22 55.5t-52 17.5q-23 0 -43 -5.5t-31 -13.5v-292q0 -35 -24 -60t-59 -25q-17 0 -32 6.5t-26 18t-18 27t-7 33.5v362q0 21 6.5 33t21.5 23q12 8 32 17.5t47.5 18t61.5 14t75 5.5
q118 0 176.5 -58.5t58.5 -168.5v-246zM328 609q-10 -8 -20.5 -12.5t-21.5 -4.5t-21.5 4.5t-21.5 12.5l-115 90q-29 21 -29 52q0 26 20 45t44 19q20 0 42 -16l81 -62l81 62q22 16 41 16q25 0 45 -19t20 -45q0 -30 -30 -52z" />
    <glyph glyph-name="Omacron" unicode="&#x14c;" horiz-adv-x="737" 
d="M367 -13q-65 0 -121 22t-98.5 61t-68.5 91t-31 112q-8 82 0 158q5 61 31 113.5t68.5 91.5t98.5 61t121 22t121.5 -22.5t99.5 -61.5t69.5 -91.5t31.5 -112.5q6 -79 0 -158q-5 -60 -31.5 -112t-69.5 -91t-99.5 -61t-121.5 -22zM367 148q32 0 59 11t47 31t32 47.5t14 60.5
q2 26 2 55.5t-2 56.5q-2 33 -14 60t-32 47t-47 31t-59 11t-58.5 -11t-46 -31t-31.5 -47t-14 -60q-2 -27 -2 -56.5t2 -55.5q2 -33 14 -60.5t31.5 -47.5t46 -31t58.5 -11zM446 893q29 0 47.5 -19t18.5 -48q0 -28 -18.5 -47t-47.5 -19h-154q-28 0 -47 19t-19 47q0 29 19 48
t47 19h154z" />
    <glyph glyph-name="omacron" unicode="&#x14d;" horiz-adv-x="594" 
d="M297 553q51 0 95 -15t77 -42.5t53 -65.5t24 -83q1 -15 2 -34.5t1 -39t-1 -38.5t-2 -34q-4 -45 -24 -84t-53 -67t-77 -44t-95 -16t-94.5 16t-76.5 44t-53.5 67t-24.5 84q-2 15 -2.5 34t-0.5 38.5t0.5 39t2.5 34.5q4 45 24.5 83t53.5 65.5t76.5 42.5t94.5 15zM297 396
q-38 0 -60 -21t-26 -56q-1 -9 -1.5 -21t-0.5 -24.5t0.5 -24.5t1.5 -20q4 -37 26 -58.5t60 -21.5t60.5 21.5t24.5 58.5q0 8 0.5 20t0.5 24.5t-0.5 24.5t-0.5 21q-2 35 -24.5 56t-60.5 21zM374 732q29 0 47.5 -19t18.5 -48q0 -28 -18.5 -47t-47.5 -19h-154q-28 0 -47 19
t-19 47q0 29 19 48t47 19h154z" />
    <glyph glyph-name="Ohungarumlaut" unicode="&#x150;" horiz-adv-x="737" 
d="M367 -13q-65 0 -121 22t-98.5 61t-68.5 91t-31 112q-8 82 0 158q5 61 31 113.5t68.5 91.5t98.5 61t121 22t121.5 -22.5t99.5 -61.5t69.5 -91.5t31.5 -112.5q6 -79 0 -158q-5 -60 -31.5 -112t-69.5 -91t-99.5 -61t-121.5 -22zM367 148q32 0 59 11t47 31t32 47.5t14 60.5
q2 26 2 55.5t-2 56.5q-2 33 -14 60t-32 47t-47 31t-59 11t-58.5 -11t-46 -31t-31.5 -47t-14 -60q-2 -27 -2 -56.5t2 -55.5q2 -33 14 -60.5t31.5 -47.5t46 -31t58.5 -11zM323 778q-8 -10 -20.5 -17.5t-28.5 -7.5q-12 0 -24.5 5t-22 13.5t-16 20.5t-6.5 26q0 26 16 43l86 102
q8 12 22 18.5t28 6.5q26 0 47.5 -19t21.5 -48q0 -23 -16 -42zM532 778q-8 -10 -20.5 -17.5t-28.5 -7.5q-12 0 -24.5 5t-22 13.5t-16 20.5t-6.5 26q0 26 16 43l86 102q19 25 50 25q26 0 47.5 -19t21.5 -48q0 -23 -16 -42z" />
    <glyph glyph-name="ohungarumlaut" unicode="&#x151;" horiz-adv-x="623" 
d="M297 553q51 0 95 -15t77 -42.5t53 -65.5t24 -83q1 -15 2 -34.5t1 -39t-1 -38.5t-2 -34q-4 -45 -24 -84t-53 -67t-77 -44t-95 -16t-94.5 16t-76.5 44t-53.5 67t-24.5 84q-2 15 -2.5 34t-0.5 38.5t0.5 39t2.5 34.5q4 45 24.5 83t53.5 65.5t76.5 42.5t94.5 15zM297 396
q-38 0 -60 -21t-26 -56q-1 -9 -1.5 -21t-0.5 -24.5t0.5 -24.5t1.5 -20q4 -37 26 -58.5t60 -21.5t60.5 21.5t24.5 58.5q0 8 0.5 20t0.5 24.5t-0.5 24.5t-0.5 21q-2 35 -24.5 56t-60.5 21zM250 615q-8 -10 -20.5 -17.5t-28.5 -7.5q-12 0 -24.5 5t-22 13.5t-16 20.5t-6.5 26
q0 26 16 43l86 102q8 12 22 18.5t28 6.5q26 0 47.5 -19t21.5 -48q0 -23 -16 -42zM459 615q-8 -10 -20.5 -17.5t-28.5 -7.5q-12 0 -24.5 5t-22 13.5t-16 20.5t-6.5 26q0 26 16 43l86 102q19 25 50 25q26 0 47.5 -19t21.5 -48q0 -23 -16 -42z" />
    <glyph glyph-name="OE" unicode="&#x152;" horiz-adv-x="1104" 
d="M652 0q-35 0 -64 -2t-60 -4.5t-66.5 -4.5t-82.5 -2q-71 0 -129.5 22.5t-102 61.5t-69 91.5t-30.5 113.5q-8 79 0 151q5 61 31 114.5t69 93t101.5 62t129.5 22.5q47 0 80.5 -1.5t63.5 -3t60.5 -2.5t72.5 -1h321q34 0 57.5 -22.5t23.5 -56.5q0 -16 -6.5 -30.5t-17.5 -25
t-26 -17t-31 -6.5h-268v-125h241q31 0 53 -19.5t22 -52.5q0 -15 -6 -28t-16.5 -23t-24 -16t-28.5 -6h-241v-126h270q16 0 30.5 -6.5t26 -17t18 -24.5t6.5 -30q0 -34 -23.5 -56.5t-57.5 -22.5h-327zM539 551q-36 4 -77.5 6t-82.5 2q-75 0 -116.5 -43t-45.5 -109
q-2 -26 -2 -53.5t2 -53.5q4 -67 45.5 -109.5t116.5 -42.5q45 0 84 2t76 7v394z" />
    <glyph glyph-name="oe" unicode="&#x153;" horiz-adv-x="906" 
d="M867 310q0 -48 -17.5 -70.5t-57.5 -22.5h-248v-7q0 -36 27 -54.5t69 -18.5q27 0 52 7.5t45 15.5q24 9 43.5 6.5t34 -13t22 -26t7.5 -31.5q0 -24 -15 -43.5t-43 -33t-66.5 -21t-86.5 -7.5q-51 0 -94 16.5t-75 44.5q-32 -28 -74 -43t-93 -15t-94.5 16t-76.5 44t-53.5 66.5
t-24.5 83.5q-3 31 -3 71.5t3 71.5q4 45 24.5 83t53.5 65.5t76.5 42.5t94.5 15t93.5 -15t74.5 -42q32 27 73.5 42t89.5 15q52 0 96 -17t76 -48.5t49.5 -76.5t17.5 -101zM629 413q-42 0 -63.5 -25.5t-21.5 -63.5h156q3 0 5.5 3.5t2.5 6.5q1 34 -19.5 56.5t-59.5 22.5zM297 396
q-38 0 -60 -21t-26 -56q-1 -9 -1.5 -21t-0.5 -24.5t0.5 -24.5t1.5 -20q4 -37 26 -58.5t60 -21.5t60.5 21.5t24.5 58.5q0 8 0.5 20t0.5 24.5t-0.5 24.5t-0.5 21q-2 35 -24.5 56t-60.5 21z" />
    <glyph glyph-name="Racute" unicode="&#x154;" horiz-adv-x="678" 
d="M237 228v-146q0 -18 -7 -34t-18.5 -28t-27 -19t-33.5 -7q-17 0 -32.5 7t-27 19t-18.5 28t-7 34v525q0 42 27 72t78 30h206q51 0 96.5 -15.5t80 -45.5t54.5 -74.5t20 -102.5q0 -45 -11.5 -78.5t-29 -57.5t-39.5 -39.5t-43 -24.5l118 -132q11 -12 16.5 -27.5t5.5 -32
t-6 -32.5t-18 -27q-14 -14 -30.5 -20t-33.5 -6t-32 5t-26 19l-144 178q-12 15 -23.5 23.5t-32.5 8.5h-62zM359 382q56 0 77 23.5t21 61.5q0 40 -22.5 64t-70.5 24h-127v-173h122zM426 945q16 10 34 10q26 0 44 -20.5t18 -46.5q0 -35 -38 -56l-135 -69q-18 -9 -34 -9
q-26 0 -44 19.5t-18 45.5q0 17 9.5 31.5t28.5 24.5z" />
    <glyph glyph-name="racute" unicode="&#x155;" horiz-adv-x="399" 
d="M335 541q35 -9 49 -29t14 -49q0 -14 -4.5 -28t-13.5 -25.5t-23 -19t-33 -7.5q-11 0 -28 4t-38 4q-20 0 -30.5 -11.5t-10.5 -39.5v-262q0 -35 -24 -59t-59 -24q-34 0 -58.5 24t-24.5 59v297q0 81 46.5 129.5t137.5 48.5q25 0 53 -3.5t47 -8.5zM295 780q16 10 34 10
q26 0 44 -20.5t18 -46.5q0 -35 -38 -56l-135 -69q-18 -9 -34 -9q-26 0 -44 19.5t-18 45.5q0 17 9.5 31.5t28.5 24.5z" />
    <glyph glyph-name="Rcommaaccent" unicode="&#x156;" horiz-adv-x="678" 
d="M237 228v-146q0 -18 -7 -34t-18.5 -28t-27 -19t-33.5 -7q-17 0 -32.5 7t-27 19t-18.5 28t-7 34v525q0 42 27 72t78 30h206q51 0 96.5 -15.5t80 -45.5t54.5 -74.5t20 -102.5q0 -45 -11.5 -78.5t-29 -57.5t-39.5 -39.5t-43 -24.5l118 -132q11 -12 16.5 -27.5t5.5 -32
t-6 -32.5t-18 -27q-14 -14 -30.5 -20t-33.5 -6t-32 5t-26 19l-144 178q-12 15 -23.5 23.5t-32.5 8.5h-62zM359 382q56 0 77 23.5t21 61.5q0 40 -22.5 64t-70.5 24h-127v-173h122zM375 -241q-11 -18 -26.5 -30.5t-38.5 -12.5q-28 0 -43 18t-15 38q0 12 5 23.5t10.5 23.5
t10.5 26t5 32v26q0 29 15 49t47 20q30 0 46.5 -20t16.5 -49v-18q0 -26 -8.5 -61.5t-24.5 -64.5z" />
    <glyph glyph-name="rcommaaccent" unicode="&#x157;" horiz-adv-x="399" 
d="M335 541q35 -9 49 -29t14 -49q0 -14 -4.5 -28t-13.5 -25.5t-23 -19t-33 -7.5q-11 0 -28 4t-38 4q-20 0 -30.5 -11.5t-10.5 -39.5v-262q0 -35 -24 -59t-59 -24q-34 0 -58.5 24t-24.5 59v297q0 81 46.5 129.5t137.5 48.5q25 0 53 -3.5t47 -8.5zM166 -242
q-11 -18 -26.5 -30.5t-38.5 -12.5q-28 0 -43 18t-15 38q0 12 5 23.5t10.5 23.5t10.5 26t5 32v26q0 29 15 49t47 20q30 0 46.5 -20t16.5 -49v-18q0 -26 -8.5 -61.5t-24.5 -64.5z" />
    <glyph glyph-name="Rcaron" unicode="&#x158;" horiz-adv-x="678" 
d="M237 228v-146q0 -18 -7 -34t-18.5 -28t-27 -19t-33.5 -7q-17 0 -32.5 7t-27 19t-18.5 28t-7 34v525q0 42 27 72t78 30h206q51 0 96.5 -15.5t80 -45.5t54.5 -74.5t20 -102.5q0 -45 -11.5 -78.5t-29 -57.5t-39.5 -39.5t-43 -24.5l118 -132q11 -12 16.5 -27.5t5.5 -32
t-6 -32.5t-18 -27q-14 -14 -30.5 -20t-33.5 -6t-32 5t-26 19l-144 178q-12 15 -23.5 23.5t-32.5 8.5h-62zM359 382q56 0 77 23.5t21 61.5q0 40 -22.5 64t-70.5 24h-127v-173h122zM385 772q-10 -8 -20.5 -12.5t-21.5 -4.5t-21.5 4.5t-21.5 12.5l-115 90q-29 21 -29 52
q0 26 20 45t44 19q20 0 42 -16l81 -62l81 62q22 16 41 16q25 0 45 -19t20 -45q0 -30 -30 -52z" />
    <glyph glyph-name="rcaron" unicode="&#x159;" horiz-adv-x="399" 
d="M335 541q35 -9 49 -29t14 -49q0 -14 -4.5 -28t-13.5 -25.5t-23 -19t-33 -7.5q-11 0 -28 4t-38 4q-20 0 -30.5 -11.5t-10.5 -39.5v-262q0 -35 -24 -59t-59 -24q-34 0 -58.5 24t-24.5 59v297q0 81 46.5 129.5t137.5 48.5q25 0 53 -3.5t47 -8.5zM254 608q-10 -8 -20.5 -12.5
t-21.5 -4.5t-21.5 4.5t-21.5 12.5l-115 90q-29 21 -29 52q0 26 20 45t44 19q20 0 42 -16l81 -62l81 62q22 16 41 16q25 0 45 -19t20 -45q0 -30 -30 -52z" />
    <glyph glyph-name="Sacute" unicode="&#x15a;" horiz-adv-x="646" 
d="M349 435q135 -25 198 -78t63 -147q0 -47 -19.5 -87.5t-56 -70.5t-89 -47.5t-119.5 -17.5q-45 0 -82.5 6.5t-68 17t-54 23.5t-39.5 26q-43 32 -43 74q0 38 25 62.5t60 24.5q13 0 27.5 -4.5t34.5 -19.5q27 -20 66.5 -33.5t87.5 -13.5q45 0 72 15t27 44q0 16 -11 26.5
t-30 18t-44.5 13.5t-55.5 12q-63 13 -108.5 31.5t-75 45t-44 62.5t-14.5 84q0 49 20.5 89t56 68.5t83.5 44t104 15.5q78 0 138 -16.5t91 -42.5q14 -13 20.5 -29.5t6.5 -34.5q0 -33 -22 -56t-56 -23q-15 0 -30 5t-31 12q-18 9 -47 17t-71 8q-48 0 -70 -18t-22 -40
q0 -26 28.5 -40.5t93.5 -25.5zM407 945q16 10 34 10q26 0 44 -20.5t18 -46.5q0 -35 -38 -56l-135 -69q-18 -9 -34 -9q-26 0 -44 19.5t-18 45.5q0 17 9.5 31.5t28.5 24.5z" />
    <glyph glyph-name="sacute" unicode="&#x15b;" horiz-adv-x="511" 
d="M320 333q81 -19 120 -58.5t39 -108.5q0 -42 -18 -74.5t-48 -55t-69.5 -34.5t-83.5 -12q-78 0 -125.5 19t-72.5 39q-22 18 -26.5 48t12.5 52q18 25 46 29t59 -14q22 -14 50.5 -22.5t58.5 -8.5q32 0 45 9.5t13 22.5q0 11 -10 19.5t-36 13.5q-14 3 -22 4.5t-15 3t-15 3.5
t-23 6q-29 7 -55.5 20t-47.5 33t-33.5 47t-12.5 63q0 42 17.5 74.5t47.5 55t70 34.5t85 12t91 -13t75 -37q12 -11 18 -24.5t6.5 -27.5t-3.5 -27.5t-12 -23.5q-17 -21 -46 -23t-60 12q-17 8 -36.5 13.5t-42.5 5.5q-30 0 -42 -9t-12 -20q0 -12 11.5 -19t38.5 -13
q14 -2 32.5 -6.5t31.5 -7.5zM328 781q16 10 34 10q26 0 44 -20.5t18 -46.5q0 -35 -38 -56l-135 -69q-18 -9 -34 -9q-26 0 -44 19.5t-18 45.5q0 17 9.5 31.5t28.5 24.5z" />
    <glyph glyph-name="Scedilla" unicode="&#x15e;" horiz-adv-x="646" 
d="M268 -10q-66 8 -112.5 28t-73.5 42q-43 32 -43 74q0 38 25 62.5t60 24.5q13 0 27.5 -4.5t34.5 -19.5q27 -20 66.5 -33.5t87.5 -13.5q45 0 72 15t27 44q0 16 -11 26.5t-30 18t-44.5 13.5t-55.5 12q-63 13 -108.5 31.5t-75 45t-44 62.5t-14.5 84q0 49 20.5 89t56 68.5
t83.5 44t104 15.5q78 0 138 -16.5t91 -42.5q14 -13 20.5 -29.5t6.5 -34.5q0 -33 -22 -56t-56 -23q-15 0 -30 5t-31 12q-18 9 -47 17t-71 8q-48 0 -70 -18t-22 -40q0 -26 28.5 -40.5t93.5 -25.5q135 -25 198 -78t63 -147q0 -44 -17 -82.5t-48.5 -68t-78 -48.5t-104.5 -23
l-10 -20q56 -5 82.5 -35.5t26.5 -75.5q0 -51 -36.5 -82.5t-100.5 -54.5q-12 -4 -26 -4.5t-26.5 5t-20.5 16.5t-8 29q0 12 6.5 26t29.5 23q24 9 38.5 15t22.5 10.5t10.5 9t2.5 12.5t-6.5 15t-20.5 7q-11 0 -17.5 -2t-18.5 -2t-21.5 5.5t-15.5 14.5t-7.5 20t3.5 22z" />
    <glyph glyph-name="scedilla" unicode="&#x15f;" horiz-adv-x="511" 
d="M201 -6q-52 7 -85.5 22.5t-53.5 31.5q-22 18 -26.5 48t11.5 52q18 25 46.5 29t58.5 -14q22 -14 51 -22.5t59 -8.5q31 0 44.5 9.5t13.5 22.5q0 11 -10.5 19.5t-36.5 13.5q-14 3 -21.5 4.5t-14.5 3t-15 3.5t-23 6q-29 7 -55.5 20t-47.5 33t-33.5 47t-12.5 63
q0 42 17.5 74.5t47.5 55t70 34.5t85 12t91 -13t74 -37q13 -11 19 -24.5t6.5 -27.5t-4 -27.5t-12.5 -23.5q-17 -21 -45.5 -23t-59.5 12q-17 8 -36.5 13.5t-42.5 5.5q-30 0 -42 -9t-12 -20q0 -12 11.5 -19t37.5 -13q14 -2 33 -6.5t32 -7.5q81 -19 120 -58.5t39 -108.5
q0 -38 -14.5 -68t-39.5 -52t-58.5 -36t-71.5 -18l-11 -24q55 -5 81.5 -35.5t27.5 -74.5q0 -51 -36.5 -82.5t-100.5 -54.5q-12 -4 -26 -4.5t-26.5 5t-20.5 16.5t-8 29q0 12 6.5 26t29.5 23q24 9 38.5 15t22.5 10.5t10.5 9t2.5 12.5t-6.5 15t-20.5 7q-11 0 -17.5 -2t-18.5 -2
t-21.5 5.5t-15.5 14.5t-7.5 20t3.5 22z" />
    <glyph glyph-name="Scaron" unicode="&#x160;" horiz-adv-x="646" 
d="M349 435q135 -25 198 -78t63 -147q0 -47 -19.5 -87.5t-56 -70.5t-89 -47.5t-119.5 -17.5q-45 0 -82.5 6.5t-68 17t-54 23.5t-39.5 26q-43 32 -43 74q0 38 25 62.5t60 24.5q13 0 27.5 -4.5t34.5 -19.5q27 -20 66.5 -33.5t87.5 -13.5q45 0 72 15t27 44q0 16 -11 26.5
t-30 18t-44.5 13.5t-55.5 12q-63 13 -108.5 31.5t-75 45t-44 62.5t-14.5 84q0 49 20.5 89t56 68.5t83.5 44t104 15.5q78 0 138 -16.5t91 -42.5q14 -13 20.5 -29.5t6.5 -34.5q0 -33 -22 -56t-56 -23q-15 0 -30 5t-31 12q-18 9 -47 17t-71 8q-48 0 -70 -18t-22 -40
q0 -26 28.5 -40.5t93.5 -25.5zM380 770q-10 -8 -20.5 -12.5t-21.5 -4.5t-21.5 4.5t-21.5 12.5l-115 90q-29 21 -29 52q0 26 20 45t44 19q20 0 42 -16l81 -62l81 62q22 16 41 16q25 0 45 -19t20 -45q0 -30 -30 -52z" />
    <glyph glyph-name="scaron" unicode="&#x161;" horiz-adv-x="511" 
d="M320 333q81 -19 120 -58.5t39 -108.5q0 -42 -18 -74.5t-48 -55t-69.5 -34.5t-83.5 -12q-78 0 -125.5 19t-72.5 39q-22 18 -26.5 48t12.5 52q18 25 46 29t59 -14q22 -14 50.5 -22.5t58.5 -8.5q32 0 45 9.5t13 22.5q0 11 -10 19.5t-36 13.5q-14 3 -22 4.5t-15 3t-15 3.5
t-23 6q-29 7 -55.5 20t-47.5 33t-33.5 47t-12.5 63q0 42 17.5 74.5t47.5 55t70 34.5t85 12t91 -13t75 -37q12 -11 18 -24.5t6.5 -27.5t-3.5 -27.5t-12 -23.5q-17 -21 -46 -23t-60 12q-17 8 -36.5 13.5t-42.5 5.5q-30 0 -42 -9t-12 -20q0 -12 11.5 -19t38.5 -13
q14 -2 32.5 -6.5t31.5 -7.5zM306 597q-10 -8 -20.5 -12.5t-21.5 -4.5t-21.5 4.5t-21.5 12.5l-115 90q-29 21 -29 52q0 26 20 45t44 19q20 0 42 -16l81 -62l81 62q22 16 41 16q25 0 45 -19t20 -45q0 -30 -30 -52z" />
    <glyph glyph-name="Tcommaaccent" unicode="&#x162;" horiz-adv-x="630" 
d="M230 541h-137q-36 0 -61 25t-25 59q0 36 25 60t61 24h444q36 0 61 -24t25 -60q0 -17 -7 -32t-19 -26.5t-27.5 -18.5t-32.5 -7h-137v-459q0 -36 -24 -61t-60 -25q-35 0 -60.5 25.5t-25.5 60.5v459zM343 -241q-11 -19 -27 -31.5t-39 -12.5q-28 0 -43.5 18t-15.5 40
q0 12 5 23t10.5 22.5t10.5 25.5t5 33v27q0 29 15.5 49.5t47.5 20.5q31 0 47.5 -20.5t16.5 -49.5v-15q0 -29 -8 -64.5t-25 -65.5z" />
    <glyph glyph-name="tcommaaccent" unicode="&#x163;" horiz-adv-x="448" 
d="M376 11q-30 -15 -67 -19t-65 -4q-50 0 -87 16.5t-61 45.5t-36 68t-12 85v378q0 35 23.5 60.5t58.5 25.5q17 0 32 -7t26.5 -18.5t18 -27t6.5 -33.5v-61h114q31 0 54 -21t23 -55q0 -31 -23 -52t-54 -21h-114v-164q0 -35 14.5 -51t43.5 -16q14 0 27 3t25 6q23 5 41 1t30 -14
t18.5 -25t6.5 -31q0 -19 -8.5 -37.5t-34.5 -31.5zM255 -241q-11 -18 -26.5 -30.5t-38.5 -12.5q-28 0 -43 18t-15 38q0 12 5 23.5t10.5 23.5t10.5 26t5 32v26q0 29 15 49t47 20q30 0 46.5 -20t16.5 -49v-18q0 -26 -8.5 -61.5t-24.5 -64.5z" />
    <glyph glyph-name="Tcaron" unicode="&#x164;" horiz-adv-x="630" 
d="M230 541h-137q-36 0 -61 25t-25 59q0 36 25 60t61 24h444q36 0 61 -24t25 -60q0 -17 -7 -32t-19 -26.5t-27.5 -18.5t-32.5 -7h-137v-459q0 -36 -24 -61t-60 -25q-35 0 -60.5 25.5t-25.5 60.5v459zM357 772q-10 -8 -20.5 -12.5t-21.5 -4.5t-21.5 4.5t-21.5 12.5l-115 90
q-29 21 -29 52q0 26 20 45t44 19q20 0 42 -16l81 -62l81 62q22 16 41 16q25 0 45 -19t20 -45q0 -30 -30 -52z" />
    <glyph glyph-name="tcaron" unicode="&#x165;" horiz-adv-x="429" 
d="M376 11q-30 -15 -67 -19t-65 -4q-50 0 -87 16.5t-61 45.5t-36 68t-12 85v378q0 35 23.5 60.5t58.5 25.5q17 0 32 -7t26.5 -18.5t18 -27t6.5 -33.5v-61h114q31 0 54 -21t23 -55q0 -31 -23 -52t-54 -21h-114v-164q0 -35 14.5 -51t43.5 -16q14 0 27 3t25 6q23 5 41 1t30 -14
t18.5 -25t6.5 -31q0 -19 -8.5 -37.5t-34.5 -31.5zM408 594q-11 -19 -27 -31t-39 -12q-28 0 -43.5 18t-15.5 39q0 12 5 23t10.5 23t10.5 26t5 32v38q0 29 16 49.5t48 20.5q30 0 46.5 -20.5t16.5 -49.5v-30q0 -26 -8 -61t-25 -65z" />
    <glyph glyph-name="Umacron" unicode="&#x16a;" horiz-adv-x="747" 
d="M687 311q0 -72 -24 -132t-66 -102.5t-99.5 -66t-124.5 -23.5t-124 23.5t-99 66t-65.5 102.5t-23.5 132v311q0 18 7 34t18.5 27.5t26.5 18.5t32 7q37 0 61 -25.5t24 -61.5v-324q0 -72 40.5 -112.5t103.5 -40.5t103 40.5t40 112.5v324q0 18 6.5 34t18 28t27 18.5t33.5 6.5
q37 0 61 -25t24 -62v-311zM451 892q29 0 47.5 -19t18.5 -48q0 -28 -18.5 -47t-47.5 -19h-154q-28 0 -47 19t-19 47q0 29 19 48t47 19h154z" />
    <glyph glyph-name="umacron" unicode="&#x16b;" horiz-adv-x="589" 
d="M56 459q0 38 20.5 63t59.5 25q36 0 60.5 -25t24.5 -63v-231q0 -37 21 -54.5t53 -17.5q24 0 43 5.5t31 13.5v286q0 36 23.5 61t58.5 25t59 -25t24 -61v-356q0 -21 -6 -33t-22 -23q-12 -8 -31.5 -18t-47 -18t-62 -13.5t-74.5 -5.5q-116 0 -175.5 58.5t-59.5 168.5v238z
M366 732q29 0 47.5 -19t18.5 -48q0 -28 -18.5 -47t-47.5 -19h-154q-28 0 -47 19t-19 47q0 29 19 48t47 19h154z" />
    <glyph glyph-name="Uring" unicode="&#x16e;" horiz-adv-x="747" 
d="M687 311q0 -72 -24 -132t-66 -102.5t-99.5 -66t-124.5 -23.5t-124 23.5t-99 66t-65.5 102.5t-23.5 132v311q0 18 7 34t18.5 27.5t26.5 18.5t32 7q37 0 61 -25.5t24 -61.5v-324q0 -72 40.5 -112.5t103.5 -40.5t103 40.5t40 112.5v324q0 18 6.5 34t18 28t27 18.5t33.5 6.5
q37 0 61 -25t24 -62v-311zM254 868q0 25 9.5 47t26 38t38 25.5t45.5 9.5q25 0 47 -9.5t38.5 -25.5t26.5 -38t10 -47t-10 -46.5t-26.5 -37.5t-38.5 -25t-47 -9q-24 0 -45.5 9t-38 25t-26 37.5t-9.5 46.5zM338 868q0 -17 10 -27t25 -10t25.5 10t10.5 27t-10.5 27t-25.5 10
t-25 -10t-10 -27z" />
    <glyph glyph-name="uring" unicode="&#x16f;" horiz-adv-x="589" 
d="M56 459q0 38 20.5 63t59.5 25q36 0 60.5 -25t24.5 -63v-231q0 -37 21 -54.5t53 -17.5q24 0 43 5.5t31 13.5v286q0 36 23.5 61t58.5 25t59 -25t24 -61v-356q0 -21 -6 -33t-22 -23q-12 -8 -31.5 -18t-47 -18t-62 -13.5t-74.5 -5.5q-116 0 -175.5 58.5t-59.5 168.5v238z
M169 710q0 25 9.5 47t26 38t38 25.5t45.5 9.5q25 0 47 -9.5t38.5 -25.5t26.5 -38t10 -47t-10 -46.5t-26.5 -37.5t-38.5 -25t-47 -9q-24 0 -45.5 9t-38 25t-26 37.5t-9.5 46.5zM253 710q0 -17 10 -27t25 -10t25.5 10t10.5 27t-10.5 27t-25.5 10t-25 -10t-10 -27z" />
    <glyph glyph-name="Uhungarumlaut" unicode="&#x170;" horiz-adv-x="747" 
d="M687 311q0 -72 -24 -132t-66 -102.5t-99.5 -66t-124.5 -23.5t-124 23.5t-99 66t-65.5 102.5t-23.5 132v311q0 18 7 34t18.5 27.5t26.5 18.5t32 7q37 0 61 -25.5t24 -61.5v-324q0 -72 40.5 -112.5t103.5 -40.5t103 40.5t40 112.5v324q0 18 6.5 34t18 28t27 18.5t33.5 6.5
q37 0 61 -25t24 -62v-311zM316 766q-8 -10 -20.5 -17.5t-28.5 -7.5q-12 0 -24.5 5t-22 13.5t-16 20.5t-6.5 26q0 26 16 43l86 102q8 12 22 18.5t28 6.5q26 0 47.5 -19t21.5 -48q0 -23 -16 -42zM525 766q-8 -10 -20.5 -17.5t-28.5 -7.5q-12 0 -24.5 5t-22 13.5t-16 20.5
t-6.5 26q0 26 16 43l86 102q19 25 50 25q26 0 47.5 -19t21.5 -48q0 -23 -16 -42z" />
    <glyph glyph-name="uhungarumlaut" unicode="&#x171;" horiz-adv-x="589" 
d="M56 459q0 38 20.5 63t59.5 25q36 0 60.5 -25t24.5 -63v-231q0 -37 21 -54.5t53 -17.5q24 0 43 5.5t31 13.5v286q0 36 23.5 61t58.5 25t59 -25t24 -61v-356q0 -21 -6 -33t-22 -23q-12 -8 -31.5 -18t-47 -18t-62 -13.5t-74.5 -5.5q-116 0 -175.5 58.5t-59.5 168.5v238z
M232 616q-8 -10 -20.5 -17.5t-28.5 -7.5q-12 0 -24.5 5t-22 13.5t-16 20.5t-6.5 26q0 26 16 43l86 102q8 12 22 18.5t28 6.5q26 0 47.5 -19t21.5 -48q0 -23 -16 -42zM441 616q-8 -10 -20.5 -17.5t-28.5 -7.5q-12 0 -24.5 5t-22 13.5t-16 20.5t-6.5 26q0 26 16 43l86 102
q19 25 50 25q26 0 47.5 -19t21.5 -48q0 -23 -16 -42z" />
    <glyph glyph-name="Uogonek" unicode="&#x172;" horiz-adv-x="747" 
d="M498 10l-32.5 -13t-33 -18t-25.5 -26t-10 -36q0 -19 12 -30t27 -11q12 0 23 7q16 9 33 7t29 -17q13 -17 9 -37.5t-21 -34.5q-14 -11 -36 -21t-58 -10q-29 0 -53 10.5t-41 28.5t-26.5 42.5t-9.5 52.5q0 23 6.5 45t21.5 43q-56 9 -102 36t-79.5 68.5t-52 96t-18.5 118.5
v310q0 18 7 34t18.5 28t26.5 19t32 7q37 0 61 -26t24 -62v-323q0 -72 40.5 -112.5t103.5 -40.5t103 40.5t40 112.5v323q0 18 6.5 34t18 28t27 19t33.5 7q37 0 61 -25.5t24 -62.5v-310q0 -56 -14 -103.5t-38.5 -85.5t-59.5 -66.5t-77 -45.5z" />
    <glyph glyph-name="uogonek" unicode="&#x173;" horiz-adv-x="590" 
d="M534 89q0 -12 -6 -21.5t-14.5 -16.5t-18.5 -12l-18 -9q-38 -19 -54.5 -43.5t-16.5 -56.5q0 -29 12 -39.5t27 -10.5q11 0 22 7q17 9 34 7t29 -17q13 -17 9 -37t-21 -34q-14 -11 -36.5 -21t-57.5 -10q-29 0 -53 10.5t-41.5 28.5t-27 42t-9.5 52q0 23 6 45t20 43
q-7 -1 -14 -1.5t-14 -0.5q-117 0 -176.5 58.5t-59.5 168.5v237q0 38 21 63.5t60 25.5q36 0 60.5 -25.5t24.5 -63.5v-230q0 -37 21.5 -54.5t52.5 -17.5q23 0 42.5 5t31.5 13v287q0 35 23 60.5t59 25.5q17 0 32 -7t26.5 -18.5t18 -27t6.5 -33.5v-372z" />
    <glyph glyph-name="Wcircumflex" unicode="&#x174;" horiz-adv-x="968" 
d="M15 624q0 16 5.5 31t16 27t26 19.5t35.5 7.5q31 0 55.5 -18t29.5 -46l72 -473q1 -2 3 -2t3 2l78 412q6 34 19.5 58t32 39t39.5 21.5t42 6.5q20 0 41 -7t39 -22t32.5 -39t20.5 -58l81 -410q1 -3 3 -3t3 3l73 472q8 28 31 46t52 18q21 0 36.5 -7.5t26 -19.5t16 -27.5
t5.5 -30.5q0 -12 -3 -22l-111 -501q-6 -28 -18.5 -49t-29.5 -35.5t-37.5 -21.5t-41.5 -7t-42.5 7t-39.5 21t-31.5 34.5t-18.5 47.5l-85 410q-1 2 -2.5 2t-2.5 -2l-80 -407q-11 -57 -49.5 -85t-83.5 -28t-84.5 28.5t-51.5 86.5l-102 499q-3 10 -3 22zM644 871q30 -22 30 -52
q0 -26 -20 -45t-45 -19q-19 0 -41 16l-81 62l-81 -62q-22 -16 -42 -16q-24 0 -44 19t-20 45q0 31 29 52l115 90q11 8 21.5 12.5t21.5 4.5t21.5 -4.5t20.5 -12.5z" />
    <glyph glyph-name="wcircumflex" unicode="&#x175;" horiz-adv-x="808" 
d="M409 330q-1 4 -5 4q-5 0 -5 -4l-44 -221q-13 -60 -47.5 -87.5t-82.5 -27.5q-47 0 -82 27.5t-49 85.5l-76 317q-6 25 -3 47.5t13 39t27.5 26.5t40.5 10q28 0 51 -17t29 -49q16 -81 29.5 -158t21.5 -162q0 -4 5 -4q4 0 5 4q13 78 26 152.5t28 139.5q10 42 40 68t73 26
q42 0 72.5 -27.5t40.5 -66.5q17 -69 29.5 -143t24.5 -149q0 -4 5 -4q4 0 5 4q9 80 20 159t30 161q5 32 28.5 49t52.5 17q23 0 40.5 -10t27.5 -26.5t12.5 -39t-3.5 -47.5l-75 -317q-14 -58 -49 -85.5t-82 -27.5q-48 0 -83 27.5t-48 87.5zM562 707q30 -22 30 -52
q0 -26 -20 -45t-45 -19q-19 0 -41 16l-81 62l-81 -62q-22 -16 -42 -16q-24 0 -44 19t-20 45q0 31 29 52l115 90q11 8 21.5 12.5t21.5 4.5t21.5 -4.5t20.5 -12.5z" />
    <glyph glyph-name="Ycircumflex" unicode="&#x176;" horiz-adv-x="668" 
d="M7 622q0 17 7 33t18.5 28t27.5 19.5t34 7.5q20 0 38 -8.5t31 -25.5l170 -215l173 215q11 13 26 21.5t32 11t34 -2t31 -16.5q13 -12 21 -27.5t10 -32.5t-3 -34t-17 -31l-194 -230q-13 -15 -20 -26t-7 -31v-195q0 -37 -24.5 -62t-61.5 -25q-17 0 -32 7t-26.5 19t-18.5 28
t-7 33v195q0 19 -7.5 31t-20.5 27l-192 228q-11 13 -16.5 28t-5.5 30zM495 871q30 -22 30 -52q0 -26 -20 -45t-45 -19q-19 0 -41 16l-81 62l-81 -62q-22 -16 -42 -16q-24 0 -44 19t-20 45q0 31 29 52l115 90q11 8 21.5 12.5t21.5 4.5t21.5 -4.5t20.5 -12.5z" />
    <glyph glyph-name="ycircumflex" unicode="&#x177;" horiz-adv-x="553" 
d="M187 483q22 -63 35.5 -103t22 -68.5t14.5 -52t12 -52.5q2 -6 7 -6t7 6l12 50t15 56t22 71.5t32 97.5q10 30 33.5 48.5t50.5 18.5q23 0 43 -10.5t32 -28t14.5 -40t-7.5 -46.5l-185 -422q-34 -77 -69.5 -121.5t-61.5 -62.5q-12 -9 -30 -16t-35 -7q-35 0 -57 21.5t-22 55.5
q0 17 7.5 34.5t24.5 31.5t39 42t39 63l-162 382q-10 24 -7 46.5t15 39.5t31.5 27.5t42.5 10.5q28 0 51 -18t34 -48zM435 708q30 -22 30 -52q0 -26 -20 -45t-45 -19q-19 0 -41 16l-81 62l-81 -62q-22 -16 -42 -16q-24 0 -44 19t-20 45q0 31 29 52l115 90q11 8 21.5 12.5
t21.5 4.5t21.5 -4.5t20.5 -12.5z" />
    <glyph glyph-name="Ydieresis" unicode="&#x178;" horiz-adv-x="668" 
d="M7 622q0 17 7 33t18.5 28t27.5 19.5t34 7.5q20 0 38 -8.5t31 -25.5l170 -215l173 215q11 13 26 21.5t32 11t34 -2t31 -16.5q13 -12 21 -27.5t10 -32.5t-3 -34t-17 -31l-194 -230q-13 -15 -20 -26t-7 -31v-195q0 -37 -24.5 -62t-61.5 -25q-17 0 -32 7t-26.5 19t-18.5 28
t-7 33v195q0 19 -7.5 31t-20.5 27l-192 228q-11 13 -16.5 28t-5.5 30zM237 858q32 0 54 -22.5t22 -54.5t-22 -54t-54 -22t-54 22t-22 54t22 54.5t54 22.5zM431 858q32 0 54 -22.5t22 -54.5t-22 -54t-54 -22t-54 22t-22 54t22 54.5t54 22.5z" />
    <glyph glyph-name="Zacute" unicode="&#x179;" horiz-adv-x="599" 
d="M142 0q-56 0 -86.5 29.5t-30.5 72.5q0 23 7.5 43.5t29.5 46.5l281 349h-227q-18 0 -33.5 7t-27 18.5t-18 26.5t-6.5 32q0 36 25 60t60 24h336q52 0 81 -29.5t29 -68.5q0 -23 -8 -44t-31 -50l-278 -350h245q18 0 33.5 -6.5t27 -18t18.5 -27t7 -32.5q0 -35 -25.5 -59
t-60.5 -24h-348zM350 945q16 10 34 10q26 0 44 -20.5t18 -46.5q0 -35 -38 -56l-135 -69q-18 -9 -34 -9q-26 0 -44 19.5t-18 45.5q0 17 9.5 31.5t28.5 24.5z" />
    <glyph glyph-name="zacute" unicode="&#x17a;" horiz-adv-x="479" 
d="M234 153h146q35 0 60 -20.5t25 -56.5q0 -33 -25 -54.5t-60 -21.5h-274q-38 0 -63.5 23t-25.5 60q0 14 5 30t17 30l207 241h-134q-35 0 -60 20t-25 55q0 34 25 55.5t60 21.5h264q26 0 46.5 -12t31.5 -32q16 -28 8.5 -54.5t-26.5 -48.5zM350 781q16 10 34 10q26 0 44 -20.5
t18 -46.5q0 -35 -38 -56l-135 -69q-18 -9 -34 -9q-26 0 -44 19.5t-18 45.5q0 17 9.5 31.5t28.5 24.5z" />
    <glyph glyph-name="Zdotaccent" unicode="&#x17b;" horiz-adv-x="599" 
d="M142 0q-56 0 -86.5 29.5t-30.5 72.5q0 23 7.5 43.5t29.5 46.5l281 349h-227q-18 0 -33.5 7t-27 18.5t-18 26.5t-6.5 32q0 36 25 60t60 24h336q52 0 81 -29.5t29 -68.5q0 -23 -8 -44t-31 -50l-278 -350h245q18 0 33.5 -6.5t27 -18t18.5 -27t7 -32.5q0 -35 -25.5 -59
t-60.5 -24h-348zM291 908q32 0 54 -22.5t22 -54.5t-22 -54t-54 -22t-54 22t-22 54t22 54.5t54 22.5z" />
    <glyph glyph-name="zdotaccent" unicode="&#x17c;" horiz-adv-x="479" 
d="M234 153h146q35 0 60 -20.5t25 -56.5q0 -33 -25 -54.5t-60 -21.5h-274q-38 0 -63.5 23t-25.5 60q0 14 5 30t17 30l207 241h-134q-35 0 -60 20t-25 55q0 34 25 55.5t60 21.5h264q26 0 46.5 -12t31.5 -32q16 -28 8.5 -54.5t-26.5 -48.5zM254 746q32 0 54 -22.5t22 -54.5
t-22 -54t-54 -22t-54 22t-22 54t22 54.5t54 22.5z" />
    <glyph glyph-name="Zcaron" unicode="&#x17d;" horiz-adv-x="599" 
d="M142 0q-56 0 -86.5 29.5t-30.5 72.5q0 23 7.5 43.5t29.5 46.5l281 349h-227q-18 0 -33.5 7t-27 18.5t-18 26.5t-6.5 32q0 36 25 60t60 24h336q52 0 81 -29.5t29 -68.5q0 -23 -8 -44t-31 -50l-278 -350h245q18 0 33.5 -6.5t27 -18t18.5 -27t7 -32.5q0 -35 -25.5 -59
t-60.5 -24h-348zM341 772q-10 -8 -20.5 -12.5t-21.5 -4.5t-21.5 4.5t-21.5 12.5l-115 90q-29 21 -29 52q0 26 20 45t44 19q20 0 42 -16l81 -62l81 62q22 16 41 16q25 0 45 -19t20 -45q0 -30 -30 -52z" />
    <glyph glyph-name="zcaron" unicode="&#x17e;" horiz-adv-x="479" 
d="M234 153h146q35 0 60 -20.5t25 -56.5q0 -33 -25 -54.5t-60 -21.5h-274q-38 0 -63.5 23t-25.5 60q0 14 5 30t17 30l207 241h-134q-35 0 -60 20t-25 55q0 34 25 55.5t60 21.5h264q26 0 46.5 -12t31.5 -32q16 -28 8.5 -54.5t-26.5 -48.5zM286 609q-10 -8 -20.5 -12.5
t-21.5 -4.5t-21.5 4.5t-21.5 12.5l-115 90q-29 21 -29 52q0 26 20 45t44 19q20 0 42 -16l81 -62l81 62q22 16 41 16q25 0 45 -19t20 -45q0 -30 -30 -52z" />
    <glyph glyph-name="florin" unicode="&#x192;" horiz-adv-x="616" 
d="M437 419q35 0 60 -21t25 -58q0 -34 -25 -56t-60 -22h-130l-123 -405q-11 -33 -41.5 -50.5t-67.5 -6.5q-15 4 -28 14.5t-21 25.5t-10.5 33.5t3.5 37.5l108 351h-15q-36 0 -60.5 20.5t-24.5 57.5q0 35 24.5 57t60.5 22h63l47 150q23 71 74 106t117 35q60 0 104 -20t70 -48
q12 -12 18 -28.5t5.5 -33t-7 -32t-17.5 -26.5q-26 -26 -58 -24t-62 27q-6 5 -16.5 11t-26.5 6q-30 0 -39 -28l-29 -95h82z" />
    <glyph glyph-name="Scommaaccent" unicode="&#x218;" horiz-adv-x="646" 
d="M349 435q135 -25 198 -78t63 -147q0 -47 -19.5 -87.5t-56 -70.5t-89 -47.5t-119.5 -17.5q-45 0 -82.5 6.5t-68 17t-54 23.5t-39.5 26q-43 32 -43 74q0 38 25 62.5t60 24.5q13 0 27.5 -4.5t34.5 -19.5q27 -20 66.5 -33.5t87.5 -13.5q45 0 72 15t27 44q0 16 -11 26.5
t-30 18t-44.5 13.5t-55.5 12q-63 13 -108.5 31.5t-75 45t-44 62.5t-14.5 84q0 49 20.5 89t56 68.5t83.5 44t104 15.5q78 0 138 -16.5t91 -42.5q14 -13 20.5 -29.5t6.5 -34.5q0 -33 -22 -56t-56 -23q-15 0 -30 5t-31 12q-18 9 -47 17t-71 8q-48 0 -70 -18t-22 -40
q0 -26 28.5 -40.5t93.5 -25.5zM367 -242q-11 -18 -26.5 -30.5t-38.5 -12.5q-28 0 -43 18t-15 38q0 12 5 23.5t10.5 23.5t10.5 26t5 32v26q0 29 15 49t47 20q30 0 46.5 -20t16.5 -49v-18q0 -26 -8.5 -61.5t-24.5 -64.5z" />
    <glyph glyph-name="scommaaccent" unicode="&#x219;" horiz-adv-x="511" 
d="M320 333q81 -19 120 -58.5t39 -108.5q0 -42 -18 -74.5t-48 -55t-69.5 -34.5t-83.5 -12q-78 0 -125.5 19t-72.5 39q-22 18 -26.5 48t12.5 52q18 25 46 29t59 -14q22 -14 50.5 -22.5t58.5 -8.5q32 0 45 9.5t13 22.5q0 11 -10 19.5t-36 13.5q-14 3 -22 4.5t-15 3t-15 3.5
t-23 6q-29 7 -55.5 20t-47.5 33t-33.5 47t-12.5 63q0 42 17.5 74.5t47.5 55t70 34.5t85 12t91 -13t75 -37q12 -11 18 -24.5t6.5 -27.5t-3.5 -27.5t-12 -23.5q-17 -21 -46 -23t-60 12q-17 8 -36.5 13.5t-42.5 5.5q-30 0 -42 -9t-12 -20q0 -12 11.5 -19t38.5 -13
q14 -2 32.5 -6.5t31.5 -7.5zM299 -242q-11 -18 -26.5 -30.5t-38.5 -12.5q-28 0 -43 18t-15 38q0 12 5 23.5t10.5 23.5t10.5 26t5 32v26q0 29 15 49t47 20q30 0 46.5 -20t16.5 -49v-18q0 -26 -8.5 -61.5t-24.5 -64.5z" />
    <glyph glyph-name="circumflex" unicode="&#x2c6;" 
d="M375 869q30 -22 30 -52q0 -26 -20 -45t-45 -19q-19 0 -41 16l-81 62l-81 -62q-22 -16 -42 -16q-24 0 -44 19t-20 45q0 31 29 52l115 90q11 8 21.5 12.5t21.5 4.5t21.5 -4.5t20.5 -12.5z" />
    <glyph glyph-name="caron" unicode="&#x2c7;" 
d="M260 770q-10 -8 -20.5 -12.5t-21.5 -4.5t-21.5 4.5t-21.5 12.5l-115 90q-29 21 -29 52q0 26 20 45t44 19q20 0 42 -16l81 -62l81 62q22 16 41 16q25 0 45 -19t20 -45q0 -30 -30 -52z" />
    <glyph glyph-name="breve" unicode="&#x2d8;" 
d="M218 866q36 0 49 41q7 19 22 30.5t35 11.5q25 0 42 -17t17 -42q0 -11 -4 -20q-8 -24 -23 -45t-35 -36.5t-46 -25t-57 -9.5t-57 9.5t-46 25t-35 36.5t-23 45q-4 9 -4 20q0 25 17 42t42 17q20 0 35 -11.5t22 -30.5q13 -41 49 -41z" />
    <glyph glyph-name="dotaccent" unicode="&#x2d9;" 
d="M218 908q32 0 54 -22.5t22 -54.5t-22 -54t-54 -22t-54 22t-22 54t22 54.5t54 22.5z" />
    <glyph glyph-name="ring" unicode="&#x2da;" 
d="M99 868q0 25 9.5 47t26 38t38 25.5t45.5 9.5q25 0 47 -9.5t38.5 -25.5t26.5 -38t10 -47t-10 -46.5t-26.5 -37.5t-38.5 -25t-47 -9q-24 0 -45.5 9t-38 25t-26 37.5t-9.5 46.5zM183 868q0 -17 10 -27t25 -10t25.5 10t10.5 27t-10.5 27t-25.5 10t-25 -10t-10 -27z" />
    <glyph glyph-name="ogonek" unicode="&#x2db;" 
d="M284 -5q-39 -17 -57 -39t-18 -39q0 -19 12 -30t27 -11q12 0 22 7q17 9 34 7t29 -17q13 -17 9 -37.5t-21 -34.5q-14 -11 -36.5 -21t-57.5 -10q-29 0 -53 10.5t-41.5 28.5t-27 42.5t-9.5 52.5q0 23 7 46t23 44t42.5 41t66.5 37q16 7 28 7q18 0 32.5 -14t14.5 -34
q0 -25 -26 -36z" />
    <glyph glyph-name="tilde" unicode="&#x2dc;" 
d="M277 871q12 0 21 5t17 11.5t16.5 11.5t20.5 5q25 0 40 -18.5t15 -40.5q0 -16 -7 -26.5t-17 -20.5q-22 -22 -46 -35.5t-47 -13.5q-18 0 -36 6t-34.5 13t-32 13t-28.5 6q-12 0 -21 -5t-17 -11.5t-16.5 -11.5t-20.5 -5q-24 0 -39.5 18.5t-15.5 40.5q0 16 7 26.5t17 20.5
q23 22 47 35.5t47 13.5q21 0 39.5 -6t34.5 -13t30 -13t26 -6z" />
    <glyph glyph-name="hungarumlaut" unicode="&#x2dd;" 
d="M117 778q-8 -10 -20.5 -17.5t-28.5 -7.5q-12 0 -24.5 5t-22 13.5t-16 20.5t-6.5 26q0 26 16 43l86 102q8 12 22 18.5t28 6.5q26 0 47.5 -19t21.5 -48q0 -23 -16 -42zM326 778q-8 -10 -20.5 -17.5t-28.5 -7.5q-12 0 -24.5 5t-22 13.5t-16 20.5t-6.5 26q0 26 16 43l86 102
q19 25 50 25q26 0 47.5 -19t21.5 -48q0 -23 -16 -42z" />
    <glyph glyph-name="Wgrave" unicode="&#x1e80;" horiz-adv-x="968" 
d="M15 624q0 16 5.5 31t16 27t26 19.5t35.5 7.5q31 0 55.5 -18t29.5 -46l72 -473q1 -2 3 -2t3 2l78 412q6 34 19.5 58t32 39t39.5 21.5t42 6.5q20 0 41 -7t39 -22t32.5 -39t20.5 -58l81 -410q1 -3 3 -3t3 3l73 472q8 28 31 46t52 18q21 0 36.5 -7.5t26 -19.5t16 -27.5
t5.5 -30.5q0 -12 -3 -22l-111 -501q-6 -28 -18.5 -49t-29.5 -35.5t-37.5 -21.5t-41.5 -7t-42.5 7t-39.5 21t-31.5 34.5t-18.5 47.5l-85 410q-1 2 -2.5 2t-2.5 -2l-80 -407q-11 -57 -49.5 -85t-83.5 -28t-84.5 28.5t-51.5 86.5l-102 499q-3 10 -3 22zM545 875
q19 -10 28.5 -24.5t9.5 -31.5q0 -26 -18 -45.5t-44 -19.5q-17 0 -33 9l-136 69q-38 21 -38 56q0 26 18.5 46.5t44.5 20.5q17 0 34 -10z" />
    <glyph glyph-name="wgrave" unicode="&#x1e81;" horiz-adv-x="808" 
d="M409 330q-1 4 -5 4q-5 0 -5 -4l-44 -221q-13 -60 -47.5 -87.5t-82.5 -27.5q-47 0 -82 27.5t-49 85.5l-76 317q-6 25 -3 47.5t13 39t27.5 26.5t40.5 10q28 0 51 -17t29 -49q16 -81 29.5 -158t21.5 -162q0 -4 5 -4q4 0 5 4q13 78 26 152.5t28 139.5q10 42 40 68t73 26
q42 0 72.5 -27.5t40.5 -66.5q17 -69 29.5 -143t24.5 -149q0 -4 5 -4q4 0 5 4q9 80 20 159t30 161q5 32 28.5 49t52.5 17q23 0 40.5 -10t27.5 -26.5t12.5 -39t-3.5 -47.5l-75 -317q-14 -58 -49 -85.5t-82 -27.5q-48 0 -83 27.5t-48 87.5zM457 714q19 -10 28.5 -24.5
t9.5 -31.5q0 -26 -18 -45.5t-44 -19.5q-17 0 -33 9l-136 69q-38 21 -38 56q0 26 18.5 46.5t44.5 20.5q17 0 34 -10z" />
    <glyph glyph-name="Wacute" unicode="&#x1e82;" horiz-adv-x="968" 
d="M15 624q0 16 5.5 31t16 27t26 19.5t35.5 7.5q31 0 55.5 -18t29.5 -46l72 -473q1 -2 3 -2t3 2l78 412q6 34 19.5 58t32 39t39.5 21.5t42 6.5q20 0 41 -7t39 -22t32.5 -39t20.5 -58l81 -410q1 -3 3 -3t3 3l73 472q8 28 31 46t52 18q21 0 36.5 -7.5t26 -19.5t16 -27.5
t5.5 -30.5q0 -12 -3 -22l-111 -501q-6 -28 -18.5 -49t-29.5 -35.5t-37.5 -21.5t-41.5 -7t-42.5 7t-39.5 21t-31.5 34.5t-18.5 47.5l-85 410q-1 2 -2.5 2t-2.5 -2l-80 -407q-11 -57 -49.5 -85t-83.5 -28t-84.5 28.5t-51.5 86.5l-102 499q-3 10 -3 22zM545 945q16 10 34 10
q26 0 44 -20.5t18 -46.5q0 -35 -38 -56l-135 -69q-18 -9 -34 -9q-26 0 -44 19.5t-18 45.5q0 17 9.5 31.5t28.5 24.5z" />
    <glyph glyph-name="wacute" unicode="&#x1e83;" horiz-adv-x="808" 
d="M409 330q-1 4 -5 4q-5 0 -5 -4l-44 -221q-13 -60 -47.5 -87.5t-82.5 -27.5q-47 0 -82 27.5t-49 85.5l-76 317q-6 25 -3 47.5t13 39t27.5 26.5t40.5 10q28 0 51 -17t29 -49q16 -81 29.5 -158t21.5 -162q0 -4 5 -4q4 0 5 4q13 78 26 152.5t28 139.5q10 42 40 68t73 26
q42 0 72.5 -27.5t40.5 -66.5q17 -69 29.5 -143t24.5 -149q0 -4 5 -4q4 0 5 4q9 80 20 159t30 161q5 32 28.5 49t52.5 17q23 0 40.5 -10t27.5 -26.5t12.5 -39t-3.5 -47.5l-75 -317q-14 -58 -49 -85.5t-82 -27.5q-48 0 -83 27.5t-48 87.5zM472 783q16 10 34 10q26 0 44 -20.5
t18 -46.5q0 -35 -38 -56l-135 -69q-18 -9 -34 -9q-26 0 -44 19.5t-18 45.5q0 17 9.5 31.5t28.5 24.5z" />
    <glyph glyph-name="Wdieresis" unicode="&#x1e84;" horiz-adv-x="968" 
d="M15 624q0 16 5.5 31t16 27t26 19.5t35.5 7.5q31 0 55.5 -18t29.5 -46l72 -473q1 -2 3 -2t3 2l78 412q6 34 19.5 58t32 39t39.5 21.5t42 6.5q20 0 41 -7t39 -22t32.5 -39t20.5 -58l81 -410q1 -3 3 -3t3 3l73 472q8 28 31 46t52 18q21 0 36.5 -7.5t26 -19.5t16 -27.5
t5.5 -30.5q0 -12 -3 -22l-111 -501q-6 -28 -18.5 -49t-29.5 -35.5t-37.5 -21.5t-41.5 -7t-42.5 7t-39.5 21t-31.5 34.5t-18.5 47.5l-85 410q-1 2 -2.5 2t-2.5 -2l-80 -407q-11 -57 -49.5 -85t-83.5 -28t-84.5 28.5t-51.5 86.5l-102 499q-3 10 -3 22zM387 908q32 0 54 -22.5
t22 -54.5t-22 -54t-54 -22t-54 22t-22 54t22 54.5t54 22.5zM581 908q32 0 54 -22.5t22 -54.5t-22 -54t-54 -22t-54 22t-22 54t22 54.5t54 22.5z" />
    <glyph glyph-name="wdieresis" unicode="&#x1e85;" horiz-adv-x="808" 
d="M409 330q-1 4 -5 4q-5 0 -5 -4l-44 -221q-13 -60 -47.5 -87.5t-82.5 -27.5q-47 0 -82 27.5t-49 85.5l-76 317q-6 25 -3 47.5t13 39t27.5 26.5t40.5 10q28 0 51 -17t29 -49q16 -81 29.5 -158t21.5 -162q0 -4 5 -4q4 0 5 4q13 78 26 152.5t28 139.5q10 42 40 68t73 26
q42 0 72.5 -27.5t40.5 -66.5q17 -69 29.5 -143t24.5 -149q0 -4 5 -4q4 0 5 4q9 80 20 159t30 161q5 32 28.5 49t52.5 17q23 0 40.5 -10t27.5 -26.5t12.5 -39t-3.5 -47.5l-75 -317q-14 -58 -49 -85.5t-82 -27.5q-48 0 -83 27.5t-48 87.5zM306 747q32 0 54 -22.5t22 -54.5
t-22 -54t-54 -22t-54 22t-22 54t22 54.5t54 22.5zM500 747q32 0 54 -22.5t22 -54.5t-22 -54t-54 -22t-54 22t-22 54t22 54.5t54 22.5z" />
    <glyph glyph-name="Ygrave" unicode="&#x1ef2;" horiz-adv-x="668" 
d="M7 622q0 17 7 33t18.5 28t27.5 19.5t34 7.5q20 0 38 -8.5t31 -25.5l170 -215l173 215q11 13 26 21.5t32 11t34 -2t31 -16.5q13 -12 21 -27.5t10 -32.5t-3 -34t-17 -31l-194 -230q-13 -15 -20 -26t-7 -31v-195q0 -37 -24.5 -62t-61.5 -25q-17 0 -32 7t-26.5 19t-18.5 28
t-7 33v195q0 19 -7.5 31t-20.5 27l-192 228q-11 13 -16.5 28t-5.5 30zM380 875q19 -10 28.5 -24.5t9.5 -31.5q0 -26 -18 -45.5t-44 -19.5q-17 0 -33 9l-136 69q-38 21 -38 56q0 26 18.5 46.5t44.5 20.5q17 0 34 -10z" />
    <glyph glyph-name="ygrave" unicode="&#x1ef3;" horiz-adv-x="553" 
d="M187 483q22 -63 35.5 -103t22 -68.5t14.5 -52t12 -52.5q2 -6 7 -6t7 6l12 50t15 56t22 71.5t32 97.5q10 30 33.5 48.5t50.5 18.5q23 0 43 -10.5t32 -28t14.5 -40t-7.5 -46.5l-185 -422q-34 -77 -69.5 -121.5t-61.5 -62.5q-12 -9 -30 -16t-35 -7q-35 0 -57 21.5t-22 55.5
q0 17 7.5 34.5t24.5 31.5t39 42t39 63l-162 382q-10 24 -7 46.5t15 39.5t31.5 27.5t42.5 10.5q28 0 51 -18t34 -48zM311 711q19 -10 28.5 -24.5t9.5 -31.5q0 -26 -18 -45.5t-44 -19.5q-17 0 -33 9l-136 69q-38 21 -38 56q0 26 18.5 46.5t44.5 20.5q17 0 34 -10z" />
    <glyph glyph-name="endash" unicode="&#x2013;" horiz-adv-x="574" 
d="M42 288q0 17 6.5 32t18 26.5t27 18t33.5 6.5h320q35 0 60 -24t25 -59q0 -17 -6.5 -32t-18 -26t-27 -18t-33.5 -7h-320q-35 0 -60 23.5t-25 59.5z" />
    <glyph glyph-name="emdash" unicode="&#x2014;" horiz-adv-x="938" 
d="M42 288q0 17 6.5 32t18 26.5t27 18t33.5 6.5h684q35 0 60 -24t25 -59q0 -17 -6.5 -32t-18 -26t-27 -18t-33.5 -7h-684q-35 0 -60 23.5t-25 59.5z" />
    <glyph glyph-name="quoteleft" unicode="&#x2018;" horiz-adv-x="244" 
d="M182 475q0 -29 -20.5 -49t-52.5 -20q-31 0 -52 20t-21 49v59q0 29 6 62.5t25 64.5q12 21 31.5 34.5t45.5 13.5q29 0 47 -20t18 -44q0 -12 -4 -22t-9.5 -22t-9.5 -26t-4 -33v-67z" />
    <glyph glyph-name="quoteright" unicode="&#x2019;" horiz-adv-x="244" 
d="M208 581q0 -29 -6 -62.5t-24 -64.5q-13 -21 -32 -34.5t-45 -13.5q-30 0 -47.5 20t-17.5 43q0 12 4 22.5t9.5 22.5t9.5 26t4 33v67q0 29 20 49t52 20q31 0 52 -20t21 -49v-59z" />
    <glyph glyph-name="quotesinglbase" unicode="&#x201a;" horiz-adv-x="244" 
d="M206 54q0 -29 -6 -62.5t-24 -64.5q-13 -20 -32 -34t-45 -14q-30 0 -47.5 20.5t-17.5 43.5q0 12 4 22t9.5 22t9.5 26t4 33v67q0 29 20 49t52 20q31 0 52 -20t21 -49v-59z" />
    <glyph glyph-name="quotedblleft" unicode="&#x201c;" horiz-adv-x="478" 
d="M54 534q0 29 6 62.5t25 64.5q12 21 31.5 34.5t45.5 13.5q29 0 47 -20t18 -44q0 -12 -4 -22t-9.5 -22t-9.5 -26t-4 -33v-67q0 -29 -20.5 -49t-52.5 -20q-31 0 -52 20t-21 49v59zM252 534q0 29 6 62.5t25 64.5q12 21 31.5 34.5t45.5 13.5q29 0 47 -20t18 -44q0 -12 -4 -22
t-9.5 -22t-9.5 -26t-4 -33v-67q0 -29 -20.5 -49t-52.5 -20q-31 0 -52 20t-21 49v59z" />
    <glyph glyph-name="quotedblright" unicode="&#x201d;" horiz-adv-x="478" 
d="M226 581q0 -29 -6 -62.5t-24 -64.5q-13 -21 -32 -34.5t-45 -13.5q-30 0 -47.5 20t-17.5 43q0 12 4 22.5t9.5 22.5t9.5 26t4 33v67q0 29 20.5 49t52.5 20q30 0 51 -20t21 -49v-59zM424 581q0 -29 -6 -62.5t-24 -64.5q-13 -21 -32 -34.5t-45 -13.5q-30 0 -47.5 20t-17.5 43
q0 12 4 22.5t9.5 22.5t9.5 26t4 33v67q0 29 20 49t52 20q31 0 52 -20t21 -49v-59z" />
    <glyph glyph-name="quotedblbase" unicode="&#x201e;" horiz-adv-x="478" 
d="M424 54q0 -29 -6 -62.5t-24 -64.5q-13 -20 -32 -34t-45 -14q-30 0 -47.5 20.5t-17.5 43.5q0 12 4 22t9.5 22t9.5 26t4 33v67q0 29 20 49t52 20q31 0 52 -20t21 -49v-59zM226 54q0 -29 -6.5 -62.5t-24.5 -64.5q-13 -20 -32 -34t-45 -14q-30 0 -47.5 20.5t-17.5 43.5
q0 12 4 22t9.5 22t9.5 26t4 33v67q0 29 20.5 49t52.5 20q30 0 51.5 -20t21.5 -49v-59z" />
    <glyph glyph-name="dagger" unicode="&#x2020;" horiz-adv-x="630" 
d="M507 528q36 0 60.5 -24t24.5 -58q0 -36 -24.5 -59.5t-60.5 -23.5h-109v-418q0 -36 -24 -60.5t-59 -24.5q-36 0 -59.5 25t-23.5 60v418h-110q-35 0 -60 23.5t-25 59.5q0 17 6.5 32t18 26t27 17.5t33.5 6.5h110v96q0 18 6.5 33.5t18 27t26.5 18.5t32 7t32 -7t26.5 -18.5
t18 -27t6.5 -33.5v-96h109z" />
    <glyph glyph-name="daggerdbl" unicode="&#x2021;" horiz-adv-x="630" 
d="M507 528q36 0 60.5 -24t24.5 -58q0 -36 -24.5 -59.5t-60.5 -23.5h-109v-157h109q36 0 60.5 -24t24.5 -58q0 -36 -24.5 -59.5t-60.5 -23.5h-109v-96q0 -36 -24 -60.5t-59 -24.5q-36 0 -59.5 24.5t-23.5 60.5v96h-110q-35 0 -60 23.5t-25 59.5q0 17 6.5 32t18 26t27 17.5
t33.5 6.5h110v157h-110q-35 0 -60 23.5t-25 59.5q0 17 6.5 32t18 26t27 17.5t33.5 6.5h110v96q0 18 6.5 33.5t18 27t26.5 18.5t32 7t32 -7t26.5 -18.5t18 -27t6.5 -33.5v-96h109z" />
    <glyph glyph-name="bullet" unicode="&#x2022;" horiz-adv-x="472" 
d="M110 350q0 26 10 49t27 40t40 27t49 10t49 -10t40 -27t27 -40t10 -49t-10 -49t-27 -40t-40 -27t-49 -10t-49 10t-40 27t-27 40t-10 49z" />
    <glyph glyph-name="ellipsis" unicode="&#x2026;" horiz-adv-x="715" 
d="M595 190q29 0 51 -21t22 -52v-54q0 -31 -20.5 -51.5t-52.5 -20.5q-30 0 -51.5 20.5t-21.5 51.5v54q0 31 20.5 52t52.5 21zM359 190q29 0 51 -21t22 -52v-54q0 -31 -20.5 -51.5t-52.5 -20.5q-30 0 -51.5 20.5t-21.5 51.5v54q0 31 20.5 52t52.5 21zM120 190q29 0 51 -21
t22 -52v-54q0 -31 -20.5 -51.5t-52.5 -20.5q-30 0 -51.5 20.5t-21.5 51.5v54q0 31 20.5 52t52.5 21z" />
    <glyph glyph-name="perthousand" unicode="&#x2030;" horiz-adv-x="1291" 
d="M193 710q35 0 65 -12.5t53 -34t36.5 -51t15.5 -63.5q1 -27 0 -54q-2 -34 -15.5 -63.5t-36.5 -51t-53 -34t-65 -12.5t-65 12.5t-52.5 34t-36 51t-15.5 62.5q-1 29 0 54q2 34 15.5 64t36 51.5t52.5 34t65 12.5zM704 366q35 0 65 -12.5t53 -34t36.5 -50.5t15.5 -63
q1 -28 0 -55q-2 -34 -15.5 -63t-36.5 -50.5t-53 -34t-65 -12.5t-65 12.5t-52.5 34t-36 50.5t-15.5 63q-1 28 0 54q2 34 15.5 63.5t36 51t52.5 34t65 12.5zM1082 366q35 0 65 -12.5t53 -34t36.5 -50.5t15.5 -63q1 -28 0 -55q-2 -34 -15.5 -63t-36.5 -50.5t-53 -34t-65 -12.5
t-65 12.5t-52.5 34t-36 50.5t-15.5 63q-1 28 0 54q2 34 15.5 63.5t36 51t52.5 34t65 12.5zM566 601q10 12 24.5 18.5t29.5 7t29 -4t25 -13.5q26 -22 27 -54.5t-19 -55.5l-341 -392q-10 -12 -24 -18.5t-29 -7.5t-29.5 3.5t-26.5 14.5q-11 10 -17.5 24.5t-7.5 29.5t3.5 30
t14.5 26zM1082 249q-21 0 -33.5 -13t-14.5 -32q-2 -10 -2 -25t2 -26q2 -20 14.5 -32.5t33.5 -12.5q22 0 34 12.5t14 32.5q2 11 2 25.5t-2 25.5q-2 19 -14 32t-34 13zM704 249q-21 0 -33.5 -13t-14.5 -32q-2 -10 -2 -25t2 -26q2 -20 14.5 -32.5t33.5 -12.5q22 0 34 12.5
t14 32.5q2 11 2 25.5t-2 25.5q-2 19 -14 32t-34 13zM193 592q-21 0 -33.5 -13t-14.5 -32q-2 -9 -2 -24t2 -27q2 -19 14.5 -32t33.5 -13q22 0 34 13t14 32q2 12 2 26.5t-2 24.5q-2 19 -14 32t-34 13z" />
    <glyph glyph-name="guilsinglleft" unicode="&#x2039;" horiz-adv-x="360" 
d="M33 361q0 29 11.5 53t40.5 45l125 86q26 18 54.5 16t47.5 -25q10 -12 14.5 -26t3.5 -28t-8 -26.5t-19 -20.5l-88 -61q-3 -2 -6 -5t-3 -8t3 -8t6 -5l88 -61q12 -8 19 -20.5t8 -26.5t-3.5 -28t-14.5 -26q-19 -23 -47.5 -25t-54.5 16l-125 86q-29 21 -40.5 45t-11.5 53z" />
    <glyph glyph-name="guilsinglright" unicode="&#x203a;" horiz-adv-x="360" 
d="M327 361q0 -29 -11.5 -53t-41.5 -45l-125 -86q-26 -18 -54.5 -16t-46.5 25q-10 12 -14.5 26t-3.5 28t8 26.5t19 20.5l87 61q3 2 6 5t3 8t-3 8t-6 5l-87 61q-12 8 -19 20.5t-8 26.5t3.5 28t14.5 26q18 23 46.5 25t54.5 -16l125 -86q30 -21 41.5 -45t11.5 -53z" />
    <glyph glyph-name="fraction" unicode="&#x2044;" horiz-adv-x="300" 
d="M195 687q6 14 17.5 24.5t26 16.5t30 7t28.5 -4q30 -13 41.5 -42t0.5 -58l-246 -615q-6 -14 -16.5 -25t-23.5 -17t-28 -7t-29 5q-14 5 -25 16.5t-17.5 25.5t-8 29t4.5 29z" />
    <glyph glyph-name="Euro" unicode="&#x20ac;" horiz-adv-x="646" 
d="M122 499q9 47 31 86t55.5 67t77.5 43.5t97 15.5q66 0 122 -19t91 -57q14 -15 18.5 -29t4.5 -28q0 -33 -23 -56t-56 -23q-19 0 -34 10.5t-33 24.5q-17 13 -38.5 22.5t-51.5 9.5q-35 0 -59 -19t-35 -48h88q29 0 48.5 -18.5t19.5 -47.5q0 -27 -19.5 -45t-48.5 -18h-100v-37
h104q29 0 49.5 -19t20.5 -49q0 -27 -20.5 -46t-49.5 -19h-88q11 -32 37.5 -48.5t55.5 -16.5q30 0 49.5 8.5t36.5 24.5q17 15 32.5 25t35.5 10q33 0 56 -23t23 -56q0 -14 -4.5 -28t-18.5 -30q-38 -42 -92.5 -58.5t-120.5 -16.5q-107 0 -171.5 54t-89.5 155h-16
q-29 0 -49.5 19t-20.5 46q0 30 20.5 49t49.5 19h12v37h-8q-29 0 -48.5 18t-19.5 45q0 29 19.5 47.5t48.5 18.5h12z" />
    <glyph glyph-name="trademark" unicode="&#x2122;" horiz-adv-x="730" 
d="M220 437q0 -19 -13 -32.5t-33 -13.5t-34 13.5t-14 32.5v164h-50q-18 0 -30.5 13t-12.5 30q0 20 12.5 32.5t30.5 12.5h192q18 0 30.5 -12.5t12.5 -32.5q0 -17 -12.5 -30t-30.5 -13h-48v-164zM400 693q23 0 42.5 -14t24.5 -40l25 -121l26 121q5 26 24 40t42 14
q26 0 45.5 -15.5t24.5 -47.5l27 -179q4 -20 -4 -37.5t-28 -21.5q-24 -5 -39 7t-18 32l-15 140l-30 -131q-7 -22 -20 -35.5t-35 -13.5q-39 0 -55 49l-30 132l-16 -141q-2 -20 -17 -32t-40 -7q-20 4 -28 21.5t-4 37.5l27 178q5 33 25 48.5t46 15.5z" />
    <glyph glyph-name="minus" unicode="&#x2212;" horiz-adv-x="628" 
d="M138 272q-33 0 -56 23t-23 55q0 33 23 55.5t56 22.5h351q33 0 56 -22.5t23 -55.5q0 -16 -6.5 -30.5t-17.5 -25t-25 -16.5t-30 -6h-351z" />
    <glyph glyph-name="lessequal" unicode="&#x2264;" horiz-adv-x="628" 
d="M182 -1q-33 0 -55.5 23t-22.5 55q0 34 22.5 56t55.5 22h262q33 0 56 -22t23 -56q0 -16 -6.5 -30t-17 -24.5t-25 -17t-30.5 -6.5h-262zM508 663q8 -14 10 -30t-1.5 -31t-12.5 -27.5t-22 -19.5l-156 -89q-6 -4 -9 -7t-3 -8q0 -8 12 -15l156 -88q13 -8 22 -20t12.5 -27
t1.5 -31t-10 -30q-17 -27 -47 -35t-58 9l-234 135q-39 23 -52 48.5t-13 53.5q0 29 13 54.5t52 48.5l234 135q28 17 58 9t47 -35z" />
    <glyph glyph-name="greaterequal" unicode="&#x2265;" horiz-adv-x="628" 
d="M183 -1q-32 0 -55.5 23t-23.5 55q0 34 23 56t56 22h262q33 0 55.5 -22t22.5 -56q0 -32 -22.5 -55t-55.5 -23h-262zM119 663q17 27 47 35t58 -9l235 -135q38 -23 51 -48.5t13 -54.5q0 -28 -13 -53.5t-51 -48.5l-235 -135q-28 -17 -58 -9t-47 35q-8 14 -10 30t1.5 31
t12.5 27t22 20l156 88q12 7 12 15q0 5 -3 8t-9 7l-156 89q-13 7 -22 19.5t-12.5 27.5t-1.5 31t10 30z" />
    <glyph glyph-name="fl" unicode="&#xfb02;" horiz-adv-x="762" 
d="M104 534q0 51 14 88t39.5 62t60 37t76.5 12q29 0 59 -4t50 -10q29 -9 46.5 -28.5t17.5 -50.5q0 -29 -20 -49.5t-56 -20.5q-17 0 -35.5 6.5t-41.5 6.5q-44 0 -44 -53v-24h101q30 0 52.5 -20.5t22.5 -52.5q0 -30 -22.5 -50.5t-52.5 -20.5h-101v-280q0 -37 -23.5 -62
t-59.5 -25q-35 0 -59 25t-24 62v280h-18q-32 0 -53.5 20.5t-21.5 50.5q0 32 21.5 52.5t53.5 20.5h18v28zM618 721q34 0 58.5 -25t24.5 -61v-555q0 -35 -23.5 -60t-59.5 -25q-17 0 -32 6.5t-26 18t-17.5 27t-6.5 33.5v555q0 36 23.5 61t58.5 25z" />
    <glyph glyph-name="Q.alt" horiz-adv-x="745" 
d="M299 -5q-52 11 -95.5 36.5t-75.5 62t-52 82.5t-24 97q-8 82 0 158q6 61 32 113.5t68 91.5t98 61t122 22q65 0 121 -22.5t99 -61.5t69.5 -91.5t31.5 -112.5q7 -79 0 -158q-5 -51 -25 -97t-52.5 -82.5t-76 -62t-94.5 -36.5v-87q0 -14 -6 -26.5t-16 -22.5t-23 -16t-26 -6
q-30 0 -52.5 19.5t-22.5 50.5v88zM445 166q34 18 55 52.5t24 79.5q2 26 2 55.5t-2 56.5q-2 33 -14.5 60t-32.5 47t-47 31t-58 11q-32 0 -58.5 -11t-46.5 -31t-32 -47t-14 -60q-2 -27 -2 -56.5t2 -55.5q3 -45 23.5 -79.5t54.5 -52.5v94q0 13 5.5 26t15 23.5t22.5 16.5t27 6
q29 0 52.5 -20.5t23.5 -51.5v-94z" />
    <glyph glyph-name="r.alt" horiz-adv-x="400" 
d="M247 553q21 0 41 -2.5t38 -7.5q35 -8 49.5 -29t14.5 -50q0 -14 -4.5 -28.5t-14.5 -26t-26 -19t-38 -7.5q-11 0 -23.5 3.5t-29.5 3.5q-20 0 -37 -7v-303q0 -35 -23.5 -59.5t-59.5 -24.5q-17 0 -32 6.5t-26 18t-18 26.5t-7 33v374q0 14 4.5 21.5t13.5 15.5q13 10 32 21
t42 20t49.5 15t54.5 6z" />
    <glyph glyph-name="zero.onum" horiz-adv-x="633" 
d="M317 553q54 0 99.5 -15t81 -43t59.5 -67.5t33 -87.5q7 -36 7 -68.5t-8 -68.5q-9 -48 -32.5 -87.5t-59 -67.5t-81 -43.5t-99.5 -15.5t-100 15.5t-81.5 43.5t-59 68t-32.5 88q-8 36 -8 68t8 69q9 48 32.5 87t59 67t81.5 43t100 15zM317 396q-47 0 -77 -24t-36 -76
q-2 -13 -2 -26t2 -22q5 -52 35.5 -76t77.5 -24t76.5 24t36.5 76q1 9 1.5 22.5t-1.5 26.5q-6 51 -36 75t-77 24z" />
    <glyph glyph-name="one.onum" horiz-adv-x="541" 
d="M327 547q21 0 36.5 -8.5t26 -21t15.5 -28t5 -28.5v-380q0 -36 -24 -60.5t-59 -24.5q-17 0 -32 6.5t-26.5 18t-18 27t-6.5 33.5v274l-76 -26q-35 -11 -66 -1.5t-45 42.5q-14 31 -1 64.5t53 47.5l169 58q24 7 49 7z" />
    <glyph glyph-name="two.onum" horiz-adv-x="618" 
d="M45 99q0 50 31 97t103 80q40 18 76 29t62 19t41.5 17t15.5 24q0 13 -15.5 25.5t-59.5 12.5q-28 0 -56.5 -9t-50.5 -22q-12 -7 -26 -12.5t-34 -5.5q-31 0 -52.5 18t-21.5 50q0 26 14.5 44t32.5 29q32 20 78.5 36.5t115.5 16.5q65 0 112 -14t77.5 -38t45 -57t14.5 -70
q0 -72 -48 -109.5t-137 -56.5q-21 -5 -42.5 -9.5t-39.5 -10.5t-29 -13t-11 -17h235q16 0 30.5 -6t25 -16.5t16.5 -24.5t6 -29q0 -34 -23 -55.5t-55 -21.5h-330q-44 0 -72.5 24.5t-28.5 74.5z" />
    <glyph glyph-name="three.onum" horiz-adv-x="617" 
d="M382 281q42 -5 74 -22.5t53.5 -43t33 -58t11.5 -67.5q0 -69 -34 -122.5t-93 -89.5t-139 -54.5t-171 -17.5q-41 0 -63.5 22.5t-24.5 55.5q-2 37 23.5 62.5t63.5 25.5q50 -1 98 5.5t85.5 20t60.5 35.5t23 53q0 28 -20.5 48t-57.5 20q-27 0 -47.5 -7t-37.5 -7
q-28 0 -51.5 19.5t-23.5 54.5q0 15 6.5 31.5t26.5 31.5l119 100h-185q-18 0 -33 6.5t-26.5 18t-18 26.5t-6.5 32q0 35 24.5 59t59.5 24h302q43 0 71.5 -27.5t28.5 -70.5q0 -14 -6.5 -33t-20.5 -32z" />
    <glyph glyph-name="four.onum" horiz-adv-x="680" 
d="M522 3v-123q0 -35 -24.5 -59.5t-58.5 -24.5q-36 0 -60 24.5t-24 59.5v123h-203q-32 0 -55 12t-36.5 31t-17 43.5t4.5 48.5q4 20 21 41l247 309q20 26 45 40.5t54 14.5q26 0 46 -9t33.5 -25t20.5 -36.5t7 -43.5v-260h50q34 0 58.5 -23t24.5 -60q0 -16 -7 -31t-18 -26.5
t-26.5 -18.5t-31.5 -7h-50zM355 169v142l-113 -142h113z" />
    <glyph glyph-name="five.onum" horiz-adv-x="631" 
d="M584 88q0 -71 -33.5 -124.5t-93 -89t-140 -53.5t-173.5 -18q-35 0 -59 22t-25 56q-2 38 23.5 62.5t62.5 24.5q57 0 106.5 6t86.5 19t58 34t21 50q0 32 -24.5 47t-65.5 15q-35 0 -69 -10t-57 -18q-32 -10 -56 -7.5t-39.5 14t-23 30t-7.5 41.5v248q0 30 9.5 50.5t24.5 32.5
t34.5 17.5t39.5 5.5h280q35 0 59.5 -23t24.5 -58t-25 -59.5t-59 -24.5h-225v-110q26 12 55.5 21.5t69.5 9.5q55 0 96 -16.5t68.5 -45.5t41.5 -67.5t14 -81.5z" />
    <glyph glyph-name="six.onum" horiz-adv-x="693" 
d="M507 544q-13 0 -38 3.5t-52 3.5q-66 0 -106.5 -23t-59.5 -81q32 12 66.5 19t73.5 7q61 0 106.5 -18.5t76 -49.5t46 -72t15.5 -87q0 -51 -17.5 -97.5t-52.5 -81.5t-87.5 -55.5t-122.5 -20.5q-89 0 -146 30.5t-89.5 82.5t-43 120t-6.5 143q7 163 91.5 255t245.5 92
q28 0 60.5 -1.5t60.5 -10.5t46 -28t18 -53q0 -35 -22 -56t-63 -21zM357 320q-37 0 -68 -9.5t-55 -20.5q-1 -65 29 -99.5t94 -34.5q57 0 83.5 24t26.5 59q0 22 -9 37t-24 25t-35 14.5t-42 4.5z" />
    <glyph glyph-name="seven.onum" horiz-adv-x="557" 
d="M447 543q45 0 73 -25.5t28 -69.5q0 -32 -18 -58q-100 -147 -165.5 -274t-95.5 -250q-6 -24 -21 -38.5t-33 -20.5t-36.5 -4t-33.5 11q-16 9 -24.5 20t-12 24t-2.5 27t4 28q13 53 37 111.5t54.5 118.5t65 120.5t68.5 116.5h-232q-35 0 -59.5 23.5t-24.5 58.5
q0 36 24.5 58.5t59.5 22.5h344z" />
    <glyph glyph-name="eight.onum" horiz-adv-x="706" 
d="M354 562q-53 0 -81.5 -15t-28.5 -45q0 -31 29 -45.5t80 -14.5t80 15t29 46q0 29 -28 44t-80 15zM354 282q-63 0 -93 -18.5t-30 -50.5t29.5 -50.5t93.5 -18.5q65 0 94.5 18.5t29.5 50.5t-30.5 50.5t-93.5 18.5zM353 -9q-72 0 -126.5 16t-91 43.5t-54.5 65.5t-18 82
q0 63 26.5 102.5t77.5 64.5q-44 22 -67 59t-23 93q0 47 19.5 83t55.5 60.5t87 37t113 12.5q63 0 114 -12.5t87 -36.5t55.5 -60t19.5 -83q0 -55 -22.5 -92.5t-66.5 -60.5q51 -25 77.5 -64.5t26.5 -102.5q0 -44 -18.5 -82t-54.5 -65.5t-90.5 -43.5t-126.5 -16z" />
    <glyph glyph-name="nine.onum" horiz-adv-x="692" 
d="M181 -31q48 1 89.5 6t74.5 18t56.5 36t34.5 61q-65 -21 -143 -21q-57 0 -101 18.5t-74 49.5t-45 72.5t-15 87.5q0 51 17.5 97.5t52.5 81.5t87.5 55.5t122.5 20.5q88 0 145 -30.5t89 -81.5t43 -118.5t7 -141.5q-11 -187 -118 -282t-315 -96q-38 0 -62.5 23t-26.5 57
q-1 15 4 30.5t15.5 28t26 20.5t35.5 8zM336 222q36 0 65 9t55 20q0 66 -27.5 101t-93.5 35q-57 0 -83.5 -24t-26.5 -59q0 -22 9 -37.5t24 -25.5t35 -14.5t43 -4.5z" />
    <glyph glyph-name="sterling.alt" horiz-adv-x="583" 
d="M163 422l8 42q25 130 83 188t156 58q31 0 55.5 -6.5t42.5 -15.5t29 -19.5t17 -18.5q11 -18 12 -40.5t-13 -46.5q-17 -28 -44.5 -35.5t-62.5 7.5q-11 5 -20.5 8t-18.5 3q-28 0 -42.5 -22.5t-28.5 -82.5q-2 -5 -2.5 -9.5t-1.5 -9.5h89q16 0 30.5 -6t26 -17t18.5 -25.5
t7 -32.5q0 -35 -25 -57.5t-57 -22.5h-128q-5 -20 -11 -37.5t-12 -33.5q-5 -10 -5 -17t11 -7h211q17 0 32 -6.5t26.5 -18t18.5 -26.5t7 -33q0 -35 -24.5 -58.5t-59.5 -23.5h-292q-42 0 -71.5 20.5t-41.5 53.5q-7 20 -7 45q1 26 9.5 45.5t17.5 39.5q12 25 22 57h-10
q-35 0 -58.5 23t-23.5 57q0 35 23.5 58t58.5 23h49z" />
    <glyph glyph-name="commaaccent" 
d="M263 -242q-11 -18 -26.5 -30.5t-38.5 -12.5q-28 0 -43 18t-15 38q0 12 5 23.5t10.5 23.5t10.5 26t5 32v26q0 29 15 49t47 20q30 0 46.5 -20t16.5 -49v-18q0 -26 -8.5 -61.5t-24.5 -64.5z" />
    <glyph glyph-name="caronSlovak" 
d="M264 594q-11 -19 -27 -31t-39 -12q-28 0 -43.5 18t-15.5 39q0 12 5 23t10.5 23t10.5 26t5 32v38q0 29 16 49.5t48 20.5q30 0 46.5 -20.5t16.5 -49.5v-30q0 -26 -8 -61t-25 -65z" />
    <glyph glyph-name="g.alt" horiz-adv-x="593" 
d="M24 -72q0 33 21 53t50 20q21 0 37 -8.5t30 -16.5q30 -17 64.5 -26t70.5 -9q44 0 66 8.5t22 22.5q0 8 -10.5 16t-43.5 8h-95q-70 0 -105 27.5t-35 73.5q0 23 10.5 46.5t36.5 41.5q-14 7 -31.5 20t-32.5 33.5t-25 48t-10 63.5q0 44 16.5 81.5t46.5 64.5t71 42t90 15
q38 0 71 -9t60 -25h102q48 0 68 -20t20 -48q0 -33 -22 -51.5t-57 -18.5h-12q1 -7 1.5 -14t0.5 -15q0 -34 -12.5 -67.5t-38 -60.5t-64 -43.5t-90.5 -16.5h-14h-13t-13.5 -1.5t-11 -4.5t-4.5 -8q0 -9 12 -11t27 -2h77q94 0 142.5 -41.5t48.5 -113.5q0 -46 -19.5 -81.5
t-53.5 -59.5t-80 -36t-99 -12q-72 0 -132.5 20.5t-98.5 49.5q-19 14 -29 31t-10 34zM274 281q34 0 54 20t20 49t-20 48.5t-55 19.5t-55 -19.5t-20 -48.5t20.5 -49t55.5 -20z" />
    <glyph glyph-name="gbreve.alt" horiz-adv-x="593" 
d="M24 -72q0 33 21 53t50 20q21 0 37 -8.5t30 -16.5q30 -17 64.5 -26t70.5 -9q44 0 66 8.5t22 22.5q0 8 -10.5 16t-43.5 8h-95q-70 0 -105 27.5t-35 73.5q0 23 10.5 46.5t36.5 41.5q-14 7 -31.5 20t-32.5 33.5t-25 48t-10 63.5q0 44 16.5 81.5t46.5 64.5t71 42t90 15
q38 0 71 -9t60 -25h102q48 0 68 -20t20 -48q0 -33 -22 -51.5t-57 -18.5h-12q1 -7 1.5 -14t0.5 -15q0 -34 -12.5 -67.5t-38 -60.5t-64 -43.5t-90.5 -16.5h-14h-13t-13.5 -1.5t-11 -4.5t-4.5 -8q0 -9 12 -11t27 -2h77q94 0 142.5 -41.5t48.5 -113.5q0 -46 -19.5 -81.5
t-53.5 -59.5t-80 -36t-99 -12q-72 0 -132.5 20.5t-98.5 49.5q-19 14 -29 31t-10 34zM274 281q34 0 54 20t20 49t-20 48.5t-55 19.5t-55 -19.5t-20 -48.5t20.5 -49t55.5 -20zM270 698q36 0 49 41q7 19 22 30.5t35 11.5q25 0 42 -17t17 -42q0 -11 -4 -20q-8 -24 -23 -45
t-35 -36.5t-46 -25t-57 -9.5t-57 9.5t-46 25t-35 36.5t-23 45q-4 9 -4 20q0 25 17 42t42 17q20 0 35 -11.5t22 -30.5q13 -41 49 -41z" />
    <glyph glyph-name="gdotaccent.alt" horiz-adv-x="593" 
d="M24 -72q0 33 21 53t50 20q21 0 37 -8.5t30 -16.5q30 -17 64.5 -26t70.5 -9q44 0 66 8.5t22 22.5q0 8 -10.5 16t-43.5 8h-95q-70 0 -105 27.5t-35 73.5q0 23 10.5 46.5t36.5 41.5q-14 7 -31.5 20t-32.5 33.5t-25 48t-10 63.5q0 44 16.5 81.5t46.5 64.5t71 42t90 15
q38 0 71 -9t60 -25h102q48 0 68 -20t20 -48q0 -33 -22 -51.5t-57 -18.5h-12q1 -7 1.5 -14t0.5 -15q0 -34 -12.5 -67.5t-38 -60.5t-64 -43.5t-90.5 -16.5h-14h-13t-13.5 -1.5t-11 -4.5t-4.5 -8q0 -9 12 -11t27 -2h77q94 0 142.5 -41.5t48.5 -113.5q0 -46 -19.5 -81.5
t-53.5 -59.5t-80 -36t-99 -12q-72 0 -132.5 20.5t-98.5 49.5q-19 14 -29 31t-10 34zM274 281q34 0 54 20t20 49t-20 48.5t-55 19.5t-55 -19.5t-20 -48.5t20.5 -49t55.5 -20zM271 749q32 0 54 -22.5t22 -54.5t-22 -54t-54 -22t-54 22t-22 54t22 54.5t54 22.5z" />
    <glyph glyph-name="gcommaaccent.alt" horiz-adv-x="593" 
d="M24 -72q0 33 21 53t50 20q21 0 37 -8.5t30 -16.5q30 -17 64.5 -26t70.5 -9q44 0 66 8.5t22 22.5q0 8 -10.5 16t-43.5 8h-95q-70 0 -105 27.5t-35 73.5q0 23 10.5 46.5t36.5 41.5q-14 7 -31.5 20t-32.5 33.5t-25 48t-10 63.5q0 44 16.5 81.5t46.5 64.5t71 42t90 15
q38 0 71 -9t60 -25h102q48 0 68 -20t20 -48q0 -33 -22 -51.5t-57 -18.5h-12q1 -7 1.5 -14t0.5 -15q0 -34 -12.5 -67.5t-38 -60.5t-64 -43.5t-90.5 -16.5h-14h-13t-13.5 -1.5t-11 -4.5t-4.5 -8q0 -9 12 -11t27 -2h77q94 0 142.5 -41.5t48.5 -113.5q0 -46 -19.5 -81.5
t-53.5 -59.5t-80 -36t-99 -12q-72 0 -132.5 20.5t-98.5 49.5q-19 14 -29 31t-10 34zM274 281q34 0 54 20t20 49t-20 48.5t-55 19.5t-55 -19.5t-20 -48.5t20.5 -49t55.5 -20zM305 634q-11 -18 -26.5 -30.5t-38.5 -12.5q-28 0 -43 18t-15 38q0 12 5 23.5t10.5 23.5t10.5 26
t5 32v26q0 29 15 49t47 20q30 0 46.5 -20t16.5 -49v-18q0 -26 -8.5 -61.5t-24.5 -64.5z" />
    </font>
</defs>
</svg>
