<?xml version="1.0" encoding="UTF-8"?>
<svg width="20px" height="20px" viewBox="0 0 20 20" version="1.1" xmlns="http://www.w3.org/2000/svg" xmlns:xlink="http://www.w3.org/1999/xlink">
    <title>App</title>
    <defs>
        <linearGradient x1="58.4066753%" y1="0%" x2="40.9296807%" y2="100%" id="linearGradient-1">
            <stop stop-color="#D22E48" offset="0%"></stop>
            <stop stop-color="#6E41A0" offset="43.9721996%"></stop>
            <stop stop-color="#9D96A6" offset="53.3416983%"></stop>
            <stop stop-color="#CCCCCC" offset="100%"></stop>
        </linearGradient>
    </defs>
    <g id="App" stroke="none" stroke-width="1" fill="none" fill-rule="evenodd">
        <path d="M14.0829673,0 C15.173899,0 16.0633755,0.84201655 16.1290448,1.90370196 L16.132835,2.04978038 L16.132835,17.9502196 C16.132835,19.0314373 15.2915737,19.919652 14.2291551,19.9948441 L14.0829673,20 L6.04978038,20 C4.96855025,20 4.08034694,19.1588067 4.00515578,18.0964054 L4,17.9502196 L4,2.04978038 C4,0.966914864 4.84276197,0.0802047322 5.91234144,0.00514650816 L6.05954124,0 L14.0829673,0 Z M14.0927282,2 L6.09760859,2 C6.05622882,2 6.02201387,2.02340197 6.00749264,2.0587301 L6,2.09760859 L6,17.9023914 C6,17.9437712 6.02340197,17.9779861 6.0587301,17.9925074 L6.09760859,18 L14.0927282,18 C14.1341079,18 14.1683229,17.976598 14.1828441,17.9412699 L14.1903367,17.9023914 L14.1903367,2.09760859 C14.1903367,2.04243556 14.1487333,2 14.0927282,2 Z M10.0712543,14 C10.7428709,14 11.2913616,14.5484908 11.2913616,15.2201074 C11.2913616,15.891724 10.7428709,16.4402147 10.0712543,16.4402147 C9.39963769,16.4402147 8.8511469,15.891724 8.8511469,15.2201074 C8.8511469,14.5484908 9.39963769,14 10.0712543,14 Z" fill="url(#linearGradient-1)" fill-rule="nonzero"></path>
    </g>
</svg>