<?xml version="1.0" encoding="UTF-8"?>
<svg width="20px" height="20px" viewBox="0 0 20 20" version="1.1" xmlns="http://www.w3.org/2000/svg" xmlns:xlink="http://www.w3.org/1999/xlink">
    <title>Collaboration</title>
    <defs>
        <linearGradient x1="5.92732911%" y1="66.6279809%" x2="84.5323118%" y2="46.1331479%" id="linearGradient-1">
            <stop stop-color="#6BA77C" offset="0%"></stop>
            <stop stop-color="#4772AD" offset="33%"></stop>
            <stop stop-color="#804388" offset="66%"></stop>
            <stop stop-color="#CC6B46" offset="100%"></stop>
        </linearGradient>
    </defs>
    <g id="Collaboration" stroke="none" stroke-width="1" fill="none" fill-rule="evenodd">
        <path d="M11.8938081,18.5963279 C12.14011,18.4929865 12.4143566,18.6183649 12.5108806,18.8751101 C12.6062905,19.1288917 12.4856816,19.4085036 12.2378107,19.5060353 C11.4921134,19.7989265 10.7001653,19.9485407 9.89536395,19.9485407 C9.09055481,19.9485407 8.29860724,19.7989237 7.5528181,19.5059963 C7.30503598,19.4084996 7.1844413,19.1288812 7.27984725,18.8751101 C7.37499257,18.6220322 7.64736185,18.4981123 7.8953055,18.5956726 C9.08554803,19.0635134 10.4276501,19.0947058 11.6381206,18.689252 L11.8938081,18.5963279 Z M2.15450762,14.0263807 C2.81875202,13.5041342 3.64970753,13.2709241 4.45409977,13.3763257 L4.65453258,13.4097592 L4.84360015,13.453293 C6.22981232,13.8136525 7.15601099,14.9748729 7.23819436,16.4624284 C7.24962876,16.7022974 7.09233316,16.9109732 6.86597744,16.9632766 L6.77805152,16.975316 L6.66901812,16.9662135 C6.45540462,16.9233327 6.2969268,16.7379879 6.28600186,16.5144227 C6.22508915,15.4134658 5.51338853,14.5718839 4.46891005,14.3650685 C3.86136435,14.2463462 3.23363645,14.4031872 2.73089355,14.8009301 C2.22647983,15.1931133 1.9141699,15.7798882 1.87346639,16.4114326 C1.85495507,16.6765386 1.62678258,16.8794823 1.3634776,16.8659925 C1.10347911,16.8464965 0.902354913,16.61036 0.921227241,16.3465131 C0.9761113,15.5105461 1.36213922,14.7285109 1.99194814,14.1631696 L2.15450762,14.0263807 Z M13.7860517,14.0261739 C14.4575509,13.503069 15.2835766,13.2710526 16.085843,13.376374 L16.2858114,13.4097589 L16.4752556,13.4533766 C17.8650383,13.8146164 18.7937933,14.9784645 18.8694517,16.4620045 C18.8809032,16.7021816 18.7236719,16.9109498 18.4972771,16.9632725 L18.4093313,16.975316 L18.3002979,16.9662135 C18.0866844,16.9233327 17.9282066,16.7379879 17.9172817,16.5144227 C17.856369,15.4134658 17.1446683,14.5718839 16.1000326,14.3650376 C15.4976394,14.2459848 14.8635044,14.4043042 14.3621734,14.8009301 C13.8577596,15.1931133 13.5454497,15.7798882 13.5047462,16.4114326 C13.4860344,16.6794097 13.2618093,16.8793429 12.9946321,16.8659861 C12.7347351,16.8464941 12.5336364,16.610336 12.5525071,16.3465131 C12.6073911,15.5105461 12.993419,14.7285109 13.6232279,14.1631696 L13.7860517,14.0261739 Z M4.02738694,8.91256745 L4.20416543,8.91654602 C4.62286614,8.94667841 5.01558799,9.12189322 5.32908042,9.41885744 C5.68571488,9.76344697 5.88883169,10.2293955 5.90197484,10.7336205 C5.9270453,11.6954252 5.22569826,12.5095803 4.30447463,12.6174627 L4.15726489,12.628546 L3.92306003,12.6204092 C3.52153857,12.5825203 3.15101047,12.412975 2.85029811,12.1289917 C2.4948821,11.785577 2.29060524,11.3268525 2.27082535,10.8277061 C2.25132829,10.3423456 2.42415763,9.87551734 2.75830212,9.50633066 C3.04891278,9.17929889 3.43904986,8.9752715 3.86314026,8.92441231 L4.02738694,8.91256745 Z M15.6615983,8.91257879 C16.1391915,8.89919254 16.6013022,9.07869355 16.9677101,9.41948551 C17.3237686,9.76353772 17.5267957,10.2295272 17.5399355,10.7336205 C17.5650059,11.6954252 16.8636589,12.5095803 15.9424352,12.6174627 L15.7952255,12.628546 L15.5610206,12.6204092 C15.1594992,12.5825203 14.7889711,12.412975 14.4882587,12.1289917 C14.1328427,11.785577 13.9285659,11.3268525 13.908786,10.8277061 C13.8892889,10.3423456 14.0621182,9.87551734 14.3962627,9.50633066 C14.7231997,9.13841992 15.1760998,8.9261866 15.6615983,8.91257879 Z M4.06349145,9.89429308 L3.94172334,9.90578767 C3.75107527,9.93697819 3.58115617,10.0302854 3.44984145,10.1763077 C3.29164835,10.3522187 3.20942714,10.5704165 3.21629878,10.7953796 C3.22318721,11.034988 3.32006646,11.2529029 3.49138096,11.4141438 C3.66244316,11.5751473 3.8755918,11.6535307 4.12366597,11.6464812 C4.57784938,11.6324012 4.95695445,11.2252523 4.94314898,10.7662302 C4.93623491,10.5186541 4.83862838,10.2943432 4.66701056,10.1327971 C4.54132987,10.0097913 4.38386232,9.93117084 4.21322289,9.90464289 L4.06349145,9.89429308 Z M15.7014521,9.88745834 L15.579684,9.89895293 C15.3890359,9.93014345 15.2191168,10.0234507 15.0878021,10.1694729 C14.929609,10.345384 14.8473878,10.5635817 14.8542594,10.7885449 C14.8611478,11.0281532 14.9580271,11.2460681 15.1304491,11.4083731 C15.2925339,11.5673102 15.5188125,11.6535864 15.7551473,11.6464753 C16.2124123,11.632511 16.588068,11.2288795 16.5811438,10.7609185 C16.5742001,10.5120053 16.4767169,10.2876288 16.3049712,10.1259623 C16.1792905,10.0029566 16.0218229,9.9243361 15.8511835,9.89780815 L15.7014521,9.88745834 Z M7.97375224,5.10683509 C8.63982927,4.58795408 9.46460113,4.35695701 10.2726393,4.45827654 L10.4741987,4.4905554 L10.663003,4.53389016 C12.0512575,4.89368137 12.981422,6.05749247 13.0638568,7.54311374 C13.0752902,7.7829652 12.9179909,7.99163578 12.6954765,8.04409904 L12.6091789,8.05620635 L12.5803421,8.05572444 L12.4946792,8.04687475 C12.2810657,8.00399395 12.1225879,7.81864915 12.111663,7.59508393 C12.0507503,6.49412697 11.3390496,5.65254517 10.2945712,5.44572972 C9.68702546,5.32700739 9.05929757,5.48384844 8.55655466,5.88159128 C8.05214095,6.27377454 7.73983101,6.86054944 7.6991275,7.49209383 C7.68041572,7.76007089 7.45619058,7.96000417 7.18927559,7.94666657 C6.91770434,7.92725608 6.72117239,7.69979988 6.74021949,7.4270054 C6.79509389,6.59117329 7.18113537,5.80915564 7.81093207,5.24382757 L7.97375224,5.10683509 Z M5.07018464,3.22320007 C5.25289649,3.13958755 5.4600446,3.17944708 5.6016138,3.31931486 L5.65800884,3.38531275 L5.70618387,3.4706593 L5.73450323,3.55811604 C5.78507072,3.78372204 5.67682927,4.01396485 5.46678304,4.11572787 C4.93032956,4.359613 4.43211588,4.72163616 4.01133278,5.17294451 C3.59150793,5.6232251 3.26413071,6.13936611 3.04405071,6.69882291 C2.96947612,6.88318313 2.7939124,7.00353868 2.59992595,7.00353868 C2.54590927,7.00353868 2.48247183,6.99168874 2.41700636,6.96924046 C2.1786148,6.87277295 2.06153687,6.58517525 2.1615746,6.342142 C2.42644113,5.66476175 2.81720696,5.04454692 3.320074,4.50265774 C3.75388801,4.04133179 4.24614079,3.6607507 4.79188685,3.36465304 L5.07018464,3.22320007 Z M13.6323971,3.45805179 C13.7277536,3.24000328 13.9629088,3.13099871 14.1870829,3.18873756 L14.2703389,3.21831842 L14.5474605,3.35920565 C15.1000624,3.65867139 15.5940024,4.04068714 16.0163595,4.49582332 C16.5162475,5.02741994 16.9047902,5.64462207 17.1743207,6.33397669 C17.2708529,6.58416306 17.1519197,6.8681852 16.9111229,6.9628365 C16.8585346,6.98656762 16.8010354,6.99670394 16.7298265,6.99670394 C16.535682,6.99670394 16.3602146,6.8761979 16.284909,6.68999109 C16.0695454,6.1322566 15.7462355,5.61746492 15.3317812,5.17294451 C14.9149834,4.72591053 14.4178949,4.36198374 13.8687046,4.10160921 C13.6557094,4.00411575 13.548522,3.76324424 13.6041098,3.53996614 L13.6323971,3.45805179 Z M9.84686325,6.21724894e-14 L10.0219244,0.00184046146 C10.4382117,0.0276201325 10.8346968,0.203534446 11.1407046,0.49887289 C11.4979217,0.844018353 11.7011278,1.30992572 11.7142743,1.81428169 C11.7393448,2.77608638 11.0379978,3.59024147 10.118911,3.69816137 L9.97205671,3.70925092 L9.90522174,3.70911097 L9.73479886,3.70105757 C9.33116483,3.66310682 8.95747381,3.49362799 8.66993595,3.21711422 C8.31395258,2.87316048 8.10959056,2.41447498 8.08980566,1.9152021 C8.0703086,1.42984161 8.24313793,0.963013301 8.57728243,0.593826617 C8.8310486,0.308256913 9.16129111,0.115857296 9.52772775,0.0378637311 L9.68687055,0.0115042823 L9.84686325,6.21724894e-14 Z M9.88247176,0.974954299 L9.76070365,0.98644889 C9.57005558,1.01763941 9.40013648,1.11094667 9.26882176,1.2569689 C9.10791785,1.43589438 9.02845891,1.65508255 9.04208867,1.88574964 C9.04886144,2.12281984 9.14596634,2.34062358 9.31814956,2.50270376 C9.48023443,2.66164086 9.706513,2.74791714 9.9416553,2.74085188 C10.3995628,2.71957064 10.7758487,2.31006877 10.7621306,1.84693695 C10.7552154,1.5993208 10.6576125,1.37500792 10.4859909,1.2134583 C10.3603102,1.09045252 10.2028426,1.01183206 10.0322032,0.98530411 L9.88247176,0.974954299 Z" id="Shape-Copy-2" fill="url(#linearGradient-1)" fill-rule="nonzero"></path>
    </g>
</svg>