<?xml version="1.0" encoding="UTF-8"?>
<svg width="20px" height="20px" viewBox="0 0 20 20" version="1.1" xmlns="http://www.w3.org/2000/svg" xmlns:xlink="http://www.w3.org/1999/xlink">
    <title>Courage</title>
    <defs>
        <linearGradient x1="33.5340711%" y1="66.6279809%" x2="62.9015687%" y2="46.1331479%" id="linearGradient-1">
            <stop stop-color="#6BA77C" offset="0%"></stop>
            <stop stop-color="#4772AD" offset="33%"></stop>
            <stop stop-color="#804388" offset="66%"></stop>
            <stop stop-color="#CC6B46" offset="100%"></stop>
        </linearGradient>
    </defs>
    <g id="Courage" stroke="none" stroke-width="1" fill="none" fill-rule="evenodd">
        <path d="M11.0206684,0 C11.8852289,0 12.5963492,0.68905126 12.668809,1.56166342 L12.674889,1.70871174 L12.674,1.763 L12.836173,1.69528053 C13.0011246,1.63717896 13.1742055,1.60780357 13.3522076,1.60780357 C14.2179374,1.60780357 14.9279953,2.29798941 14.9948897,3.16876995 L15,3.31548484 L15,9.08581355 L14.9924812,9.35824085 C14.9278859,10.551162 14.4464372,11.6834243 13.6562414,12.5458102 L13.4822274,12.7264002 L13.4498978,12.7749748 L13.4491659,19.5102588 L13.439933,19.5959109 C13.3993964,19.7979574 13.2408872,19.9558032 13.0466427,19.9921077 L12.9614469,20 L6.72566967,19.9991261 L6.64264324,19.9892516 C6.44634688,19.9462607 6.2955449,19.781929 6.26091153,19.5827184 L6.25338707,19.4954591 L6.27023617,13.4494951 L6.2505238,13.3783558 L6.04535362,13.2264103 C4.81965097,12.273379 4.08061325,10.8616628 4.0062151,9.34257762 L4,9.08846283 L4.00073189,4.6740668 L4.00996483,4.58841474 C4.05050137,4.38636822 4.20901058,4.22852236 4.40325516,4.19221787 L4.48845096,4.1843256 L4.641,4.184 L4.703,4.122 L4.7035114,1.70218589 L4.71011316,1.55388446 C4.78661986,0.679469572 5.50094286,0 6.35758994,0 C6.74421265,0 7.10964229,0.13618115 7.4024612,0.384564189 L7.475,0.452 L7.571,0.452 L7.64326493,0.385413629 C7.85319754,0.207071122 8.09990695,0.0868640182 8.36440616,0.0327328168 L8.52508858,0.00824672819 L8.68912917,0 C9.07575188,0 9.44118152,0.13618115 9.73400043,0.384564189 L9.806,0.452 L9.903,0.452 L9.97480416,0.385413629 C10.1847368,0.207071122 10.4314462,0.0868640182 10.6959454,0.0327328168 L10.8566278,0.00824672819 L11.0206684,0 Z M8.63702773,5.19340733 L5.045,5.193 L4.983,5.255 L4.98335818,9.08434941 L4.98965438,9.31592292 C5.06449542,10.6780986 5.80819014,11.9241677 7.00447702,12.68217 C7.12424471,12.7609261 7.20573614,12.8870831 7.22957307,13.0264231 L7.23680166,13.1113354 L7.236,18.935 L7.298,18.997 L12.417,18.997 L12.479,18.935 L12.479,13.562 L12.2146482,13.7175426 C11.58209,14.0665731 10.8954655,14.2900496 10.1751412,14.3748431 L9.86442685,14.4026541 L9.74731409,14.3906262 C9.53730854,14.3417573 9.38273968,14.1564355 9.36641129,13.9315397 C9.34725335,13.6544754 9.55038811,13.4144323 9.82381755,13.3937736 C12.1134728,13.2435131 13.9172524,11.4571757 14.0186057,9.28594788 L14.0230829,9.08130585 L14.0230829,6.43 L13.8617366,6.49846319 C13.6967768,6.55656511 13.5236959,6.58594013 13.3456949,6.58594013 C12.9590722,6.58594013 12.5936426,6.44975898 12.3008237,6.20137594 L12.227,6.133 L12.131,6.133 L12.0600199,6.2005265 C11.8081008,6.41453751 11.5032231,6.54483353 11.1781963,6.5776934 L11.0141557,6.58594013 C10.8139036,6.58594013 10.6115543,6.54423519 10.416493,6.46447586 L10.2717103,6.3975782 L10.2245679,6.5500346 C10.0076256,7.15671861 9.4920978,7.58776007 8.87807328,7.68058639 L8.734,7.695 L8.80926648,7.88430446 C9.3578383,9.35122265 9.0975402,10.6510782 7.99483554,11.4880877 C7.91135438,11.5543519 7.8082696,11.5909855 7.70571458,11.5909855 C7.54764397,11.5909855 7.40506788,11.5155216 7.3076164,11.3812948 C7.14777083,11.1567278 7.19476732,10.84658 7.41461014,10.6745722 C7.83253033,10.358539 8.05815244,9.94322689 8.09753079,9.43841285 C8.12606183,9.0726569 8.05750592,8.67446272 7.89947136,8.2526958 L7.81303275,8.03988899 L7.76731275,7.93649749 L7.68941381,7.77548931 L7.59412011,7.60670125 L7.51994727,7.47896351 L7.49160046,7.41423885 L7.46026732,7.32286402 L7.4479033,7.17238429 L7.45546444,7.11099273 L7.4721925,7.04761038 L7.50622053,6.97112531 L7.5450021,6.91029203 L7.59870756,6.84646289 L7.68336521,6.77807696 L7.74986771,6.74539726 L7.85904128,6.7091024 L7.93806496,6.70000001 L8.62750792,6.70060512 L8.72866908,6.69447957 C9.09123237,6.64799988 9.36644783,6.32931765 9.36644783,5.94685503 C9.36644783,5.56393934 9.09231307,5.24993039 8.73607493,5.2002547 L8.63702773,5.19340733 Z M13.3522076,2.6168853 C13.0124761,2.6168853 12.7264499,2.8820282 12.6811381,3.22206428 L12.674889,3.3165153 L12.6746088,4.88151941 L12.6802387,4.97813487 C12.7229124,5.32463788 13.0131059,5.59031282 13.3522076,5.59031282 C13.6919392,5.59031282 13.9779654,5.32516991 14.0232771,4.98513384 L14.0295263,4.89068281 L14.0298064,3.32567871 L14.0241765,3.22906324 C13.9815028,2.88256024 13.6913093,2.6168853 13.3522076,2.6168853 Z M11.0206684,1.00908174 C10.6809368,1.00908174 10.3949107,1.27422464 10.3495989,1.61426071 L10.3433497,1.70871174 L10.3430696,4.88151941 L10.3486995,4.97813487 C10.3913732,5.32463788 10.6815667,5.59031282 11.0206684,5.59031282 C11.3604,5.59031282 11.6464261,5.32516991 11.6917379,4.98513384 L11.6979871,4.89068281 L11.6982672,1.71787514 L11.6926373,1.62125968 C11.6499636,1.27475668 11.3597701,1.00908174 11.0206684,1.00908174 Z M8.68912917,1.00908174 C8.34939761,1.00908174 8.06337143,1.27422464 8.01805964,1.61426071 L8.01181051,1.70871174 L8.011,4.128 L8.074,4.191 L8.64439119,4.19123365 L8.78651209,4.19839589 C8.93368937,4.21281876 9.08035187,4.24835493 9.22395658,4.30385212 L9.366,4.365 L9.36672798,1.71787514 L9.36109805,1.62125968 C9.31842436,1.27475668 9.02823086,1.00908174 8.68912917,1.00908174 Z M6.35758994,1.00908174 C6.01785839,1.00908174 5.7318322,1.27422464 5.68652042,1.61426071 L5.68027129,1.70871174 L5.68,4.122 L5.742,4.184 L6.972,4.184 L7.034,4.122 L7.03518876,1.71787514 L7.02955882,1.62125968 C6.98688513,1.27475668 6.69669164,1.00908174 6.35758994,1.00908174 Z" fill="url(#linearGradient-1)" fill-rule="nonzero"></path>
    </g>
</svg>