<?xml version="1.0" encoding="UTF-8"?>
<svg width="20px" height="20px" viewBox="0 0 20 20" version="1.1" xmlns="http://www.w3.org/2000/svg" xmlns:xlink="http://www.w3.org/1999/xlink">
    <title>Creativity</title>
    <defs>
        <linearGradient x1="10.6722856%" y1="66.6279809%" x2="80.8144905%" y2="46.1331479%" id="linearGradient-1">
            <stop stop-color="#6BA77C" offset="0%"></stop>
            <stop stop-color="#4772AD" offset="33%"></stop>
            <stop stop-color="#804388" offset="66%"></stop>
            <stop stop-color="#CC6B46" offset="100%"></stop>
        </linearGradient>
    </defs>
    <g id="Creativity" stroke="none" stroke-width="1" fill="none" fill-rule="evenodd">
        <path d="M10.1754161,-0.1 C14.4195046,-0.1 17.8801268,3.04690578 17.9000567,6.92928559 C17.8934244,8.38687106 17.4037837,9.81338154 16.5219439,10.9460402 C16.3536124,11.1702038 16.1956943,11.4102268 16.0505436,11.6623976 L15.8600738,12.0076199 L15.7136826,12.3041492 C15.3931657,13.0006955 15.2058007,13.7565648 15.1639675,14.5174586 L15.1549852,14.8437052 L15.1548031,18.971198 L15.1479408,19.0816871 C15.0961918,19.5068811 14.7677302,19.8401629 14.3597006,19.8927571 L14.2465951,19.9 L6.72744005,19.8997751 L6.61332792,19.8918855 C6.41190638,19.8647451 6.22533659,19.7708586 6.09232077,19.6284672 C5.9524778,19.4845274 5.8605896,19.2897403 5.83384472,19.0872435 L5.82575251,18.9651655 L5.85504183,15.9925462 L5.82575251,15.9218356 L3.79838466,15.9217085 L3.65367823,15.9142779 C3.30671653,15.8790641 2.98589005,15.7219213 2.73590002,15.4646537 C2.48510642,15.2065592 2.33307334,14.87604 2.29898372,14.5200448 L2.29165084,14.3660525 L2.32094016,12.4715636 L2.29165084,12.400853 L2.10713252,12.400702 L1.98526704,12.3938457 C1.81765537,12.3753039 1.65544585,12.3201392 1.50261126,12.2302627 C1.31690749,12.1210571 1.16442443,11.9640933 1.05800125,11.7724253 C0.868702619,11.4254155 0.849489948,11.0095082 1.00074987,10.653844 L1.06546399,10.5235461 L2.50314211,8.06962883 L2.52490116,8.01293297 C2.53308259,7.98158046 2.53489922,7.94835539 2.53065223,7.91317532 C2.48196877,7.57659873 2.45741546,7.25040572 2.45741546,6.93514159 C2.45741546,3.05595138 5.92228124,-0.1 10.1754161,-0.1 Z M10.1687855,0.937188673 C6.45937331,0.937188673 3.44537259,3.63511274 3.44537259,6.94878881 C3.44537259,7.21705155 3.46557691,7.48994486 3.50479929,7.75239821 C3.5434471,7.9854246 3.51385179,8.22812111 3.42106848,8.45090481 L3.35785637,8.58194883 L1.91881902,11.0330082 L1.89478684,11.085575 C1.87525417,11.1463444 1.88220224,11.2140964 1.91370751,11.2681337 C1.93361433,11.3022776 1.96014642,11.3295615 1.98041893,11.3433143 L2.04595327,11.3679722 C2.05509465,11.3706549 2.06353937,11.3726858 2.07157819,11.374157 L2.10599447,11.3773115 L2.67231445,11.3777497 L2.77234139,11.3875862 C3.02761359,11.4360164 3.22463279,11.6471802 3.26526332,11.906012 L3.27297738,12.0050836 L3.27267281,14.3582537 L3.27931663,14.4471442 C3.2961968,14.5539941 3.34641544,14.6531604 3.42548083,14.7345275 C3.50536049,14.8167325 3.6020594,14.867853 3.70855968,14.885013 L3.79016299,14.8914705 L6.13918424,14.891826 L6.24036413,14.9007399 C6.53192494,14.9504825 6.75771537,15.1917828 6.79995785,15.4871931 L6.80707905,15.5874787 L6.77778972,18.7989243 L6.80707905,18.8696349 L14.0764257,18.8989243 L14.1471363,18.8696349 L14.1471665,14.8344264 L14.155678,14.4890908 C14.201222,13.5621711 14.4282104,12.653519 14.8206504,11.8224678 L14.9755398,11.514577 L15.1808601,11.1345783 C15.3456445,10.8461286 15.5254689,10.5711877 15.719837,10.3111889 C16.4714566,9.34774007 16.8855678,8.14780146 16.8855678,6.93514159 C16.8855678,3.62982276 13.8732918,0.937188673 10.1687855,0.937188673 Z M10.9353068,2.8006012 L11.0248885,2.81075127 C11.2247508,2.85397312 11.3788665,3.02065311 11.4142726,3.22310518 L11.421966,3.31180484 L11.407334,4.65174137 L11.4239877,4.70489089 L11.5947339,4.79778249 C11.6785456,4.84605573 11.7580938,4.89613586 11.8127811,4.94146993 L11.8584186,4.98497928 L11.9126293,5.00406005 L13.0833046,4.30953009 L13.1658524,4.27326386 C13.3604059,4.20915837 13.5696992,4.27396365 13.6992403,4.43275887 L13.7495996,4.50646663 L14.7943777,6.37692295 L14.831764,6.46212741 C14.897712,6.66002365 14.842667,6.88070917 14.6972649,7.01423563 L14.629507,7.06580444 L13.4690268,7.74050412 L13.4312426,7.78374301 L13.4354132,7.84436551 L13.4368577,8.04422879 L13.4131409,8.21908267 L13.4244026,8.27256909 L14.6141583,8.97494706 L14.6848668,9.02902184 C14.7581688,9.09683413 14.81216,9.18642953 14.8367172,9.28246332 C14.8615095,9.37941674 14.8566823,9.48427956 14.8248093,9.57947742 L14.7840163,9.67080273 L13.7303296,11.5432504 L13.6778193,11.6161566 C13.6118992,11.691871 13.5247306,11.7477059 13.4259471,11.7743164 C13.3287882,11.7952413 13.2273757,11.789542 13.1381587,11.7583947 L13.0536161,11.7188084 L11.9067813,11.0161172 L11.8521359,11.0025544 L11.7348747,11.0793299 C11.64929,11.1338977 11.5761189,11.1767015 11.5231601,11.1975752 L11.4772276,11.2107623 L11.4352272,11.2476629 L11.4347335,12.6496042 L11.4250372,12.7418078 C11.3836007,12.947087 11.2219258,13.1067599 11.0244912,13.1434707 L10.9379333,13.15145 L8.83866453,13.1508829 L8.74908282,13.1407329 C8.54922053,13.097511 8.39510476,12.930831 8.35969867,12.728379 L8.35200529,12.6396793 L8.36663733,11.2997428 L8.3503251,11.2467781 L8.22584643,11.179688 C8.17036099,11.1484582 8.11408112,11.1150477 8.07153818,11.0836586 L8.01984289,11.0386163 L7.96743137,11.0224838 L6.77244721,11.7296276 L6.69188602,11.7672684 C6.59833021,11.8006035 6.496426,11.8053107 6.40382996,11.7802257 C6.30055614,11.7536474 6.21066713,11.6937444 6.14336262,11.6087722 L6.09726258,11.5404716 L5.04609734,9.67059017 L5.00831678,9.58621734 C4.94163983,9.38835908 5.00299279,9.16893954 5.15747737,9.03427043 L5.22928524,8.98205384 L6.32557099,8.34592783 L6.36279227,8.30605323 L6.35381114,8.14467397 L6.34988717,7.90359395 L6.36686453,7.80165027 L6.35619928,7.74715114 L5.17976356,7.05163215 L5.10902445,6.99754039 C5.03570127,6.92971814 4.98170516,6.84012249 4.9571459,6.74408052 C4.93235358,6.6471271 4.93718077,6.54226428 4.9690538,6.44706642 L5.0098468,6.35574111 L6.06290886,4.48418041 L6.11526635,4.40987053 C6.25006938,4.25311619 6.46664211,4.19898657 6.655121,4.26981205 L6.73385733,4.30788124 L7.811532,4.96963548 L7.87079252,4.98155419 L8.01054158,4.88442326 C8.07505411,4.84273306 8.14327214,4.80264094 8.20500433,4.77395316 L8.29146432,4.74070052 L8.33211353,4.70382122 L8.33260727,3.30187992 L8.34230353,3.20967635 C8.38374005,3.00439709 8.54541491,2.8447242 8.74284949,2.80801347 L8.82940739,2.80003412 L10.9353068,2.8006012 Z M9.39078134,3.79428625 L9.32007066,3.82357557 L9.31957225,5.05497337 L9.30946197,5.15075974 C9.27416058,5.32422867 9.15388439,5.46708735 8.98773374,5.5297788 C8.69975011,5.63562041 8.44395423,5.78877078 8.22418392,5.98829005 C8.08391228,6.10950624 7.89827686,6.14218154 7.73063158,6.07996257 L7.64860143,6.04091583 L6.73163874,5.4583393 L6.6545756,5.44759468 L6.11355368,6.35534053 L6.10423706,6.43019447 L7.1252175,7.03486794 L7.20153951,7.08913516 C7.33101692,7.20271399 7.39191608,7.37827909 7.36420802,7.55503324 C7.34200099,7.70735047 7.33089524,7.84749565 7.33089524,7.97915387 C7.33089524,8.15334754 7.34592354,8.31578 7.37742311,8.47787244 C7.41184079,8.66088436 7.34659978,8.84650196 7.21206887,8.96353707 L7.13916985,9.01600984 L6.18941785,9.54979609 L6.14402057,9.60999659 L6.63303702,10.5382782 L6.69435911,10.5857728 L7.73909642,9.96628542 L7.82321258,9.92937876 C7.98570224,9.87588538 8.16341115,9.90885327 8.29164112,10.0188277 C8.5135555,10.2056849 8.74589749,10.3410691 8.99728155,10.4295992 C9.16743057,10.4938319 9.28791819,10.6442494 9.31887079,10.8222679 L9.32670124,10.913306 L9.29741192,12.0640215 L9.32670124,12.1347322 L10.350037,12.1640215 L10.4207477,12.1347322 L10.4212461,10.9033344 L10.4313564,10.807548 C10.4666578,10.6340791 10.586934,10.4912204 10.7536972,10.4283061 C11.0175714,10.3332731 11.2628919,10.1899526 11.487828,9.99932073 C11.6251452,9.8815609 11.8104402,9.85040208 11.9723138,9.91204756 L12.0509683,9.95063271 L13.029005,10.5683003 L13.1061345,10.5789492 L13.640644,9.67787662 L13.6498425,9.60317298 L12.6068008,8.98326891 L12.5306914,8.92586715 C12.4018501,8.80623153 12.3437583,8.62434843 12.3768208,8.44288392 C12.4036176,8.29810722 12.4165537,8.14773016 12.4165537,7.97915387 C12.4165537,7.83230072 12.4080438,7.70825262 12.3904648,7.59950989 C12.356583,7.41917381 12.4219572,7.23677642 12.5566514,7.11801746 L12.6296365,7.06424535 L13.6375598,6.49707782 L13.6829954,6.43701808 L13.1940177,5.50214368 L13.1326569,5.45441829 L12.1019093,6.0667631 L12.0152656,6.10565572 C11.8483121,6.16148972 11.6654402,6.12487123 11.5362958,6.00854934 C11.2833897,5.79045676 11.0178453,5.6295219 10.7448378,5.52917683 C10.5737748,5.46462357 10.4529842,5.31427718 10.4219637,5.13612594 L10.4141171,5.04500171 L10.4434065,3.89428625 L10.371,3.822 L9.39078134,3.79428625 Z M9.87703978,6.99655408 C10.4043524,6.99655408 10.831844,7.43684171 10.831844,7.97915387 C10.831844,8.52080705 10.4049812,8.96175367 9.87703978,8.96175367 C9.35273133,8.96175367 8.92223558,8.51771631 8.92223558,7.97915387 C8.92223558,7.43750069 9.34909839,6.99655408 9.87703978,6.99655408 Z" fill="url(#linearGradient-1)" fill-rule="nonzero"></path>
    </g>
</svg>