<?xml version="1.0" encoding="UTF-8"?>
<svg width="20px" height="20px" viewBox="0 0 20 20" version="1.1" xmlns="http://www.w3.org/2000/svg" xmlns:xlink="http://www.w3.org/1999/xlink">
    <title>Humility</title>
    <defs>
        <linearGradient x1="5.830821%" y1="66.6279809%" x2="84.6079289%" y2="46.1331479%" id="linearGradient-1">
            <stop stop-color="#6BA77C" offset="0%"></stop>
            <stop stop-color="#4772AD" offset="33%"></stop>
            <stop stop-color="#804388" offset="66%"></stop>
            <stop stop-color="#CC6B46" offset="100%"></stop>
        </linearGradient>
    </defs>
    <g id="Humility" stroke="none" stroke-width="1" fill="none" fill-rule="evenodd">
        <path d="M2.42374607,8.0029557 L2.3080687,8.19306341 C2.02499636,8.71344429 1.94611816,9.335436 2.09516894,9.91971514 L2.96292891,13.441797 L1.10049182,16.217477 C0.922302451,16.4751413 0.98731854,16.8361042 1.24612064,17.0148339 C1.33971498,17.0809928 1.44580461,17.1143188 1.56264473,17.1143188 C1.74633164,17.1143188 1.91880659,17.0204356 2.02847635,16.8637514 L4.14387606,13.381083 L3.18252258,9.62208702 C3.09694176,9.28511036 3.15933876,8.92495418 3.35249308,8.6415131 L8.18322588,1.45958718 C8.3986753,1.13859685 8.82798505,1.05611875 9.1346541,1.27466864 C9.44535083,1.49608889 9.52385009,1.93162711 9.30929973,2.2512781 L5.94896379,7.24462986 L5.87731993,7.28888235 C5.71239784,7.42798895 5.5808253,7.5858463 5.48032607,7.76402137 C5.23753129,8.1839744 5.16962892,8.68191169 5.29170567,9.1527014 L6.32223638,13.1886911 C6.4032109,13.4968102 6.71386541,13.6829595 7.01479405,13.6042005 C7.32094445,13.5203633 7.49883072,13.2090762 7.42321819,12.9002962 L6.39227236,8.86262165 C6.34480603,8.68690505 6.36930537,8.50370962 6.46089058,8.34595025 C6.548933,8.19018846 6.6938358,8.07818191 6.86829628,8.03069263 C7.22473985,7.93679701 7.59078374,8.1541291 7.68398234,8.51685127 L8.81206429,12.9180185 C8.910776,13.3021973 8.84155611,13.7086021 8.62249683,14.031612 L5.2110995,19.1030215 C5.03281823,19.3608225 5.09783432,19.7217854 5.35663642,19.9005151 C5.45023076,19.966674 5.55632039,20 5.67316051,20 C5.85689138,20 6.02935038,19.9060799 6.1391178,19.7492455 L9.55153209,14.6763637 C9.95797485,14.0778077 10.0872777,13.3267229 9.9058689,12.6202632 L8.78435628,8.20619604 L8.73477809,8.04331516 C8.54587164,7.51225435 8.1245319,7.10367362 7.59151127,6.92933015 L7.53671819,6.91325447 L10.0033739,3.24422309 L12.4700297,6.91444494 L12.5798527,6.88416598 C11.9190995,7.03485636 11.3943429,7.54356959 11.2239669,8.20582429 L10.0960105,12.6064867 C9.921105,13.3137899 10.0502962,14.0643595 10.4501282,14.6629978 L13.8609386,19.7335545 C13.9684487,19.8945227 14.1389361,19.9867629 14.3285841,19.9867629 C14.4422172,19.9867629 14.5539761,19.9516934 14.6475672,19.8855602 C14.9008502,19.7106648 14.9640616,19.3515092 14.790615,19.089762 L11.3798361,14.019246 C11.1602171,13.6954074 11.0909557,13.2890105 11.1896396,12.9049399 L12.3178029,8.50345571 C12.4104283,8.14296463 12.7813325,7.92317394 13.1345497,8.01775121 C13.486582,8.11201121 13.7031302,8.49152311 13.6098904,8.85440508 L12.5793212,12.8904821 C12.5040843,13.2052877 12.6835409,13.5201372 12.9863321,13.597412 C13.2908484,13.6751271 13.6047777,13.4871902 13.6797585,13.1810479 L14.7102964,9.14508214 C14.8321196,8.67527831 14.7642056,8.17734253 14.5206098,7.75598309 C14.3919305,7.53474383 14.2167505,7.34210356 13.9904742,7.17197012 L10.6923856,2.24457127 C10.4755586,1.92152834 10.5533985,1.48746881 10.8665195,1.26845325 C11.1781051,1.05051163 11.6022171,1.13006159 11.8192486,1.44742565 L16.6547683,8.64008504 C16.848866,8.92491946 16.9112967,9.28506938 16.8255357,9.62275212 L15.8692415,13.3369989 L15.8544917,13.5563844 L15.9093071,13.7591959 L17.9844388,16.8545178 C18.0919314,17.01546 18.2624188,17.1077003 18.4520668,17.1077003 C18.5656999,17.1077003 18.6774588,17.0726308 18.7710499,17.0064975 L18.8488347,16.9415419 C19.0374906,16.752216 19.0743118,16.4424586 18.9191526,16.2151939 L17.0450095,13.3644164 L17.9259716,9.91992836 C18.0933842,9.26367102 17.9736155,8.56524817 17.5975161,8.0030575 L12.7540998,0.801690354 C12.1916352,-0.0353710761 11.0590191,-0.250796491 10.234021,0.322080753 L10.1051765,0.422706372 L10.0093263,0.507330435 L10.0694646,0.567757643 C9.98679774,0.476336132 9.89111788,0.392932594 9.78942801,0.323726992 L9.65149908,0.236284823 C8.8369769,-0.230097471 7.79952745,0.01228564 7.26720231,0.801531359 L2.42374607,8.0029557 Z" fill="url(#linearGradient-1)" fill-rule="nonzero"></path>
    </g>
</svg>