<?xml version="1.0" encoding="UTF-8"?>
<svg width="20px" height="20px" viewBox="0 0 20 20" version="1.1" xmlns="http://www.w3.org/2000/svg" xmlns:xlink="http://www.w3.org/1999/xlink">
    <title>Safety &amp; Security</title>
    <defs>
        <linearGradient x1="0.873650417%" y1="66.6279809%" x2="88.4920267%" y2="46.1331479%" id="linearGradient-1">
            <stop stop-color="#6BA77C" offset="0%"></stop>
            <stop stop-color="#4772AD" offset="33%"></stop>
            <stop stop-color="#804388" offset="66%"></stop>
            <stop stop-color="#CC6B46" offset="100%"></stop>
        </linearGradient>
    </defs>
    <g id="Safety-&amp;-Security" stroke="none" stroke-width="1" fill="none" fill-rule="evenodd">
        <path d="M10.5054386,0 L10.6519696,0.00812882037 C10.9552118,0.0412311074 11.2383953,0.172052459 11.4493231,0.373085732 L11.735851,0.679348431 C12.8728522,1.84189854 14.4260843,2.53116925 16.0563042,2.60419293 L16.3447202,2.61065333 L16.7103771,2.60157777 C17.1657975,2.5774524 17.6133879,2.50514885 18.0475032,2.38536078 C18.7760219,2.19371185 19.5210146,2.58464215 19.7794351,3.27262324 L19.8220642,3.40503105 L19.8478182,3.51908488 L19.9066916,3.98353848 L19.937702,4.08294228 C19.9527615,4.15293696 19.9526876,4.22000228 19.9398294,4.25621047 C19.9663485,4.51569129 19.9842513,4.78037018 19.993238,5.04886455 L20,5.45429487 L19.9965994,5.75063916 L19.9857384,6.07227424 C19.7132459,12.1462162 15.7222529,18.3922463 10.9423664,19.9309819 C10.8536004,19.9617489 10.7604384,19.9821022 10.663032,19.9922525 L10.5137581,19.999852 L10.4742216,19.999852 L10.3427782,19.992834 C10.2499646,19.9835023 10.1559296,19.9650525 10.0645047,19.9378484 C5.09463767,18.3399301 1,11.6634093 1,5.4599747 C1,4.83659593 1.04658322,4.18957945 1.13796343,3.54201894 C1.26112114,2.80355026 1.91661179,2.29241672 2.64412033,2.34232451 L2.78125976,2.35833839 L2.83244861,2.36661202 C2.86574149,2.37296871 2.89103286,2.3805019 2.90661358,2.38809275 C3.35347006,2.51060823 3.80373011,2.58388048 4.25609074,2.60829922 L4.59573472,2.61745932 L4.88563717,2.6116252 C6.62070819,2.53800042 8.25987275,1.76863754 9.41225386,0.484795141 C9.61298846,0.255290795 9.88718878,0.0971770454 10.1933081,0.0322633696 L10.3488353,0.00767417432 L10.5054386,0 Z M10.495,1.021852 L10.4228131,1.02802468 L10.344626,1.04951398 C10.2791206,1.07337253 10.2248296,1.11035216 10.1818458,1.16063783 C8.83148016,2.66108923 6.92138823,3.54985942 4.8986438,3.62752829 L4.60896224,3.63308462 L4.19914626,3.62258691 C3.78066163,3.60016238 3.3614556,3.54207171 2.95141183,3.44995597 L2.64575135,3.37451509 L2.57705769,3.3668955 L2.49359276,3.37374078 C2.32410453,3.40351275 2.19293345,3.53275472 2.16312387,3.69782756 C2.07657046,4.2977701 2.03186097,4.89537838 2.03186097,5.4599747 C2.03186097,11.0560315 5.74379944,17.2853003 10.1130764,18.8775682 L10.3520341,18.9597889 L10.4636149,18.9754339 L10.5031171,18.9774279 L10.5672998,18.9760706 L10.5827549,18.9742528 L10.8676508,18.8777114 C15.2630223,17.282328 18.9675044,11.0447081 18.975018,5.45329244 C18.975018,5.19203387 18.9656983,4.9292894 18.9474823,4.67197913 L18.9042693,4.21804786 L18.9001364,4.13644496 L18.8494834,3.71581513 L18.8170464,3.62534015 C18.7240322,3.42102952 18.5242292,3.31950397 18.3278056,3.37424479 C17.8053348,3.5164763 17.2596119,3.60142777 16.7139427,3.62578517 L16.386734,3.6331018 L16.0716181,3.62755627 C14.0477846,3.54972704 12.1387269,2.65855779 10.7900746,1.15993954 C10.7270522,1.09227161 10.6532073,1.04870971 10.5739635,1.031158 L10.495,1.021852 Z M14.8482718,7.11619713 C15.0389703,7.02545065 15.2665893,7.05859068 15.4289103,7.20121073 L15.4941806,7.26899447 L15.5437929,7.34728263 C15.6404363,7.53714646 15.6069012,7.76249333 15.466097,7.91412562 L15.3992517,7.97427939 L9.1566495,12.8280601 L9.06776722,12.8822709 C8.999469,12.9146179 8.92552924,12.931004 8.84902245,12.931004 C8.72186742,12.931004 8.60596075,12.8881158 8.51466956,12.8081734 L8.45102544,12.7413601 L6.16695548,9.96433249 L6.11598117,9.88655167 C6.00429375,9.67389212 6.05836982,9.41007515 6.2487328,9.25683904 C6.44418428,9.09947617 6.72139714,9.10856954 6.90631121,9.26586601 L6.97098752,9.33176356 L8.85848452,11.6749055 L8.92469225,11.7108268 L14.7677935,7.16431046 L14.8482718,7.11619713 Z" fill="url(#linearGradient-1)" fill-rule="nonzero"></path>
    </g>
</svg>