<?xml version="1.0" encoding="UTF-8"?>
<svg width="20px" height="20px" viewBox="0 0 20 20" version="1.1" xmlns="http://www.w3.org/2000/svg" xmlns:xlink="http://www.w3.org/1999/xlink">
    <title>Trust</title>
    <defs>
        <linearGradient x1="-4.43282271%" y1="61.9508838%" x2="92.6498138%" y2="47.2208111%" id="linearGradient-1">
            <stop stop-color="#6BA77C" offset="0%"></stop>
            <stop stop-color="#4772AD" offset="33%"></stop>
            <stop stop-color="#804388" offset="66%"></stop>
            <stop stop-color="#CC6B46" offset="100%"></stop>
        </linearGradient>
    </defs>
    <g id="Trust" stroke="none" stroke-width="1" fill="none" fill-rule="evenodd">
        <path d="M10.5299117,14.7310458 C9.71723266,14.5682436 8.86605581,14.7772067 8.19355358,15.3051587 C7.5185006,15.8351132 7.09575748,16.625948 7.03810826,17.4668383 C7.02378445,17.6660552 7.17162974,17.8384512 7.36909635,17.8528051 C7.56631273,17.8671408 7.73093871,17.7197553 7.74536557,17.5142172 C7.78889514,16.8718884 8.10839499,16.2771076 8.62644042,15.8743882 C9.14070315,15.4763494 9.78516362,15.3159428 10.4008685,15.4338921 C11.4662089,15.6463288 12.1979128,16.5066359 12.2555139,17.6130755 C12.2625357,17.7559936 12.3502087,17.8771572 12.4716842,17.9282818 L12.535022,17.947784 L12.6092447,17.9552998 L12.6283675,17.9554862 C12.8189805,17.9460238 12.9719367,17.7721426 12.9624678,17.5744592 C12.8786011,16.1235382 11.9274367,15.011574 10.5299117,14.7310458 Z M17.5738016,14.7310458 C16.7611226,14.5682436 15.9099458,14.7772067 15.2374435,15.3051587 C14.5623906,15.8351132 14.1396474,16.625948 14.0819982,17.4668383 C14.0676708,17.666105 14.2155692,17.8384548 14.4135352,17.852846 C14.6028407,17.8672947 14.7752557,17.7136716 14.7892555,17.5142172 C14.8326035,16.8745689 15.1500657,16.2792081 15.6635898,15.8743882 C16.1778525,15.4763494 16.822313,15.3159428 17.4380179,15.4338921 C18.5033583,15.6463288 19.2350622,16.5066359 19.2926633,17.6130755 C19.2996851,17.7559936 19.3873581,17.8771572 19.5088336,17.9282818 L19.5721714,17.947784 L19.6463941,17.9552998 L19.6655169,17.9554862 C19.8561897,17.9460208 20.0090827,17.7720802 19.9995798,17.5737852 C19.9224689,16.128574 18.9695701,15.0125127 17.5738016,14.7310458 Z M3.49276225,14.7310458 C2.82302508,14.5968788 2.11897659,14.7189653 1.5099123,15.0682841 L1.33017184,15.1798677 L1.15719378,15.3045029 L1.00479713,15.4322661 C0.416923717,15.9584552 0.0540355162,16.6926452 0.000958853229,17.4668383 C-0.0133667044,17.6660795 0.13450447,17.8384529 0.332214761,17.8528248 C0.525481196,17.8672161 0.694003803,17.7166994 0.708216164,17.5142172 C0.75173761,16.8720083 1.07114897,16.2771827 1.58822275,15.8752227 C2.09680896,15.4742877 2.7404732,15.3144982 3.3637191,15.4338921 C4.42905949,15.6463288 5.16076336,16.5066359 5.21836446,17.6130755 C5.22538632,17.7559936 5.31305928,17.8771572 5.43389828,17.9282256 L5.49686178,17.9476948 L5.59121813,17.9554862 C5.78183113,17.9460238 5.93478733,17.7721426 5.92531841,17.5744592 C5.84167616,16.1274221 4.88726501,15.0122574 3.49276225,14.7310458 Z M9.94864365,10.2902902 C10.4163513,10.2704581 10.8622162,10.4409277 11.2054872,10.7701087 C11.546057,11.0966995 11.7429527,11.5503491 11.7560856,12.0381685 C11.7809036,12.9600304 11.1066233,13.7392655 10.220486,13.8471162 L10.0709184,13.8587841 L10.0047523,13.8586683 L9.83921252,13.8509555 C9.45050618,13.814698 9.09338854,13.6522564 8.80149931,13.3785084 C8.4566389,13.0540427 8.25782866,12.6083419 8.2446278,12.1314328 C8.23142972,11.6546241 8.39721102,11.2087661 8.71647262,10.8639727 C9.00042215,10.5576692 9.37084143,10.3636511 9.77398886,10.3063885 L9.94864365,10.2902902 Z M9.97513904,11.1163209 C9.71937385,11.1247171 9.4799652,11.2358233 9.30751932,11.4272694 C9.13533216,11.6191863 9.04496083,11.8572222 9.05276305,12.1033639 C9.06080661,12.3653071 9.16720215,12.6019703 9.35723408,12.7792435 C9.5310559,12.9413949 9.76896041,13.0305478 10.0356378,13.0395941 C10.5511477,13.0232854 10.9642008,12.5789075 10.9479514,12.0662759 C10.9400362,11.8004526 10.8357994,11.5572747 10.6525639,11.3789098 C10.4626267,11.202367 10.220703,11.1082595 9.97513904,11.1163209 Z M10.261909,1 L10.1646146,1.00796244 C10.0026654,1.03094206 9.85560459,1.10988772 9.7512632,1.22992249 C9.43867024,1.58927464 9.00923198,1.82870356 8.53911485,1.91010522 L8.36106288,1.93314889 L8.18204479,1.94070032 L8.0585793,1.93650672 L7.91104168,1.92205514 L7.76704241,1.89776338 L7.59161249,1.85142945 L7.57750955,1.84983183 C7.39738199,1.82205765 7.22137992,1.86510254 7.06924909,1.97404873 C6.91700231,2.08307796 6.82135817,2.24022524 6.79444131,2.4264618 C6.75933118,2.68372047 6.74191553,2.92092101 6.74191553,3.1467103 C6.74191553,3.47472417 6.77592861,3.82291352 6.8424826,4.18074963 L6.89847651,4.45077097 L6.98286088,4.82802074 L6.9027741,4.97248338 C4.90213256,5.89455496 3.39423039,7.65953591 2.77492856,9.78385741 L2.69922192,10.0629409 L2.62100856,10.3707379 L2.52588944,10.4616205 C2.228103,10.545442 1.96500088,10.7057526 1.75379579,10.9329704 C1.45268225,11.2581644 1.29649499,11.6782199 1.30896218,12.1286238 C1.32141752,12.5785993 1.50879748,12.9986752 1.83385837,13.3045123 C2.07230412,13.5281383 2.3544824,13.675163 2.6606161,13.7372166 L2.81558768,13.7611237 L2.97668894,13.7710116 L3.03879047,13.7710116 C3.93650577,13.7397248 4.64896437,12.9685246 4.62419084,12.05462 C4.61177221,11.5933323 4.42596336,11.1650741 4.10547317,10.857735 C4.00376902,10.7613722 3.88674335,10.6783971 3.75760417,10.6104323 L3.62454596,10.547531 L3.45322337,10.4703924 L3.38141365,10.3134712 C3.83297689,8.44978012 5.02178166,6.86270965 6.65508726,5.92552059 L6.90338026,5.78986299 L7.18435909,5.66880442 L7.34899934,5.74657538 C7.9729234,7.15513351 8.96841952,8.191418 10.0734304,8.56019933 L10.1310597,8.57758445 L10.1895824,8.588008 L10.2699798,8.59189173 C10.3424668,8.59189173 10.4118387,8.58044534 10.4718558,8.55833963 C11.3567906,8.26765011 12.2063524,7.50029447 12.831422,6.43577449 L13.1158798,5.93492031 L13.296873,5.89495694 C14.7980399,6.73738435 15.9244867,8.11054178 16.469254,9.74901418 L16.5593091,10.0408565 L16.6278476,10.3570496 L16.5326764,10.5007467 C16.2514814,10.5939158 16.0173936,10.7429571 15.8348352,10.9466897 C15.535711,11.2697352 15.3774638,11.6957679 15.3900016,12.142343 C15.4024569,12.5923185 15.5898368,13.0123944 15.9148977,13.3182316 C16.1491828,13.5379555 16.432671,13.6828037 16.737363,13.7413363 L16.8913463,13.7633567 L17.0509877,13.7710116 L17.1130893,13.7710116 C18.013798,13.7396205 18.723196,12.9723338 18.6984896,12.05462 C18.6860755,11.5934973 18.5003764,11.1651831 18.1810948,10.8589735 C18.0597351,10.7466976 17.9246521,10.6538399 17.7803658,10.5827894 L17.6331793,10.5190964 L17.4531343,10.4549481 L17.3671154,10.3534834 C16.9393186,8.33613895 15.7418328,6.59474125 14.0408243,5.49735623 L13.5178369,5.17554472 L13.4684327,5.02046321 C13.6043039,4.6011885 13.6965619,4.17867226 13.7429148,3.7662063 L13.7690366,3.45894894 L13.7778395,3.15585582 L13.7756825,3.00974875 L13.7690771,2.87242263 L13.750872,2.65171709 L13.7515778,2.63325485 L13.7367753,2.46166847 L13.7189407,2.37545738 L13.6866712,2.27926349 C13.5521008,1.95066418 13.2116153,1.7756669 12.8798665,1.86635976 C12.8016987,1.88863341 12.7222871,1.9058429 12.640726,1.91811915 L12.516659,1.93284996 L12.330427,1.94073955 L12.1534026,1.93313419 C11.7388522,1.8976335 11.3466555,1.73960983 11.0237728,1.48005432 L10.8897751,1.36266121 L10.7665979,1.23458283 C10.6844765,1.13647638 10.5749781,1.06529181 10.454817,1.02898851 L10.3629581,1.00842563 L10.261909,1 Z M2.93966538,11.1228275 L3.05788502,11.1243053 C3.26173041,11.1403847 3.45330166,11.2282272 3.61541453,11.3789098 C3.79865002,11.5572747 3.90288683,11.8004526 3.91080196,12.0662759 C3.92705208,12.5789286 3.5139771,13.0232865 2.99831055,13.039588 C2.73457304,13.0303329 2.49204326,12.9396568 2.32008468,12.7792435 C2.13006334,12.6019802 2.02365764,12.3653216 2.01561883,12.1035245 C2.00736515,11.8515402 2.10041516,11.6068736 2.27036992,11.434129 C2.38499923,11.3068698 2.5295862,11.2147063 2.69123488,11.1647512 L2.81546897,11.1353101 L2.93966538,11.1228275 Z M17.0509877,11.1093792 C17.2862006,11.1093792 17.5127548,11.2020313 17.6964539,11.3720501 C17.8796942,11.5504197 17.9839264,11.7935999 17.9918437,12.0594928 C18.0078587,12.5728765 17.594283,13.0161877 17.0796941,13.03274 C16.8056072,13.0237423 16.5677282,12.9346087 16.401124,12.7723839 C16.2110921,12.5951107 16.1046966,12.3584475 16.096653,12.0965042 C16.0888508,11.8503626 16.1792221,11.6123266 16.3514093,11.4204097 C16.4662472,11.2929189 16.6109663,11.2008392 16.7735491,11.1509439 L16.8986479,11.1215378 L17.0240255,11.1093792 L17.0509877,11.1093792 Z M10.1783847,1.837187 L10.3577128,1.85258604 C10.7751047,2.27210731 11.3138147,2.54428978 11.8923931,2.63318754 L12.1110698,2.65786252 L12.325852,2.66516364 L12.5025708,2.65934213 L12.9034861,2.62202462 L13.0434438,2.74604202 C13.0574215,2.87406389 13.0645651,3.00982342 13.0645651,3.1467103 C13.0645651,3.82688843 12.8982169,4.59450026 12.5942292,5.31867794 C12.0572492,6.59136841 11.2056397,7.51220303 10.2051522,7.83801744 C8.81789618,7.34117404 7.63592292,5.43819773 7.4686442,3.57829418 L7.45349309,3.35540525 L7.44860381,3.13959357 L7.48150315,2.71709138 L7.64239982,2.61292082 L7.82238556,2.64168209 L7.99608175,2.6591226 L8.18040478,2.66516364 C8.84701863,2.66516364 9.48892014,2.42418305 9.99486943,1.98844401 L10.1424644,1.85192576 L10.1783847,1.837187 Z M11.3368361,3.69821211 C11.5020655,3.61332713 11.6971301,3.64033264 11.8335242,3.76282758 L11.8964223,3.83195658 L11.9448303,3.90935204 C12.0282936,4.07789393 12.0017391,4.27730654 11.8836011,4.41475263 L11.8169855,4.47788201 L10.1124632,5.84040452 L10.0308609,5.89184967 C9.9708736,5.92105168 9.90596155,5.93583951 9.83619228,5.93578331 C9.72723168,5.93064428 9.6215473,5.88699389 9.54254133,5.81596469 L9.48865472,5.75773321 L8.86412911,4.97664447 L8.81669546,4.90270375 C8.71820335,4.70994842 8.76588616,4.4704075 8.93399195,4.33139033 C9.10339561,4.19131839 9.34231881,4.19718061 9.50495873,4.3330457 L9.56956606,4.3991865 L9.84600823,4.7651728 L9.95111652,4.79155509 L11.2627783,3.74601191 L11.3368361,3.69821211 Z" fill="url(#linearGradient-1)" fill-rule="nonzero"></path>
    </g>
</svg>