<svg id="Aadani_Realty_color_logo" data-name="Aadani Realty color logo" xmlns="http://www.w3.org/2000/svg" xmlns:xlink="http://www.w3.org/1999/xlink" width="154.505" height="30.562" viewBox="0 0 154.505 30.562">
  <defs>
    <clipPath id="clip-path">
      <path id="Path_1077" data-name="Path 1077" d="M75.56-28a.56.56,0,0,1,.56.56V-1.689a.56.56,0,0,1-.56.56.56.56,0,0,1-.56-.56V-27.44A.56.56,0,0,1,75.56-28Z" transform="translate(-75 28)" fill="none" clip-rule="evenodd"/>
    </clipPath>
    <clipPath id="clip-path-2">
      <path id="Path_1076" data-name="Path 1076" d="M-62,206.924H342.176V-120H-62Z" transform="translate(62 120)" fill="none"/>
    </clipPath>
    <clipPath id="clip-path-3">
      <path id="Path_1080" data-name="Path 1080" d="M93.5-2.744a1.2,1.2,0,0,0,.877-.329,1.13,1.13,0,0,0,.351-.812,1.173,1.173,0,0,0-.285-.856h0L90.89-9.086a5.187,5.187,0,0,0,1.348-.483,3.608,3.608,0,0,0,1.074-.856,3.972,3.972,0,0,0,.712-1.273,5.21,5.21,0,0,0,.263-1.734,5.107,5.107,0,0,0-.405-2.1,4.237,4.237,0,0,0-1.107-1.514,4.927,4.927,0,0,0-1.622-.922,6,6,0,0,0-1.972-.318H84.709a1.592,1.592,0,0,0-1.271.5A1.779,1.779,0,0,0,83-16.569h0v12.6a1.223,1.223,0,0,0,.34.867,1.086,1.086,0,0,0,.822.362,1.12,1.12,0,0,0,.833-.362,1.2,1.2,0,0,0,.351-.867h0V-8.581h2.279a1.179,1.179,0,0,1,.712.187,2.849,2.849,0,0,1,.515.516h0l3.835,4.74A1.11,1.11,0,0,0,93.5-2.744Zm-4.58-8.075H85.345V-16h3.682a3.05,3.05,0,0,1,2.192.68,2.537,2.537,0,0,1,.7,1.909,2.624,2.624,0,0,1-.668,1.887,3.147,3.147,0,0,1-2.334.7Zm12.952,8.185a9.415,9.415,0,0,0,1-.055,9.944,9.944,0,0,0,.986-.154,6.921,6.921,0,0,0,.877-.241,3.594,3.594,0,0,0,.69-.318,1.107,1.107,0,0,0,.482-.472,1.284,1.284,0,0,0,.11-.516,1.019,1.019,0,0,0-.11-.461.947.947,0,0,0-.318-.362,1.09,1.09,0,0,0-.5-.176,1.4,1.4,0,0,0-.647.1,9.171,9.171,0,0,1-1.282.384,5.747,5.747,0,0,1-1.238.143,3.057,3.057,0,0,1-2.093-.7,2.543,2.543,0,0,1-.8-2.019h0v-.263h6.2a1.328,1.328,0,0,0,1.063-.395,1.493,1.493,0,0,0,.34-1.009h0v-.614a5.547,5.547,0,0,0-.351-2.008,4.5,4.5,0,0,0-.986-1.558,4.324,4.324,0,0,0-1.534-1,5.437,5.437,0,0,0-1.994-.351,5.642,5.642,0,0,0-1.918.318,4.5,4.5,0,0,0-1.545.922,4.528,4.528,0,0,0-1.052,1.459,5.644,5.644,0,0,0-.482,1.909q-.022.263-.033.6t-.011.7q0,.362.011.735t.033.68a5.521,5.521,0,0,0,.449,1.9,4.607,4.607,0,0,0,1.041,1.492,4.7,4.7,0,0,0,1.567.977A5.653,5.653,0,0,0,101.869-2.634ZM104.1-9.591H99.02a3.157,3.157,0,0,1,.646-2.205,2.577,2.577,0,0,1,2.093-.823,2.591,2.591,0,0,1,1.983.757,2.535,2.535,0,0,1,.625,2.008q-.044.263-.263.263Zm8.854,6.956a9.01,9.01,0,0,0,1.589-.132,9.077,9.077,0,0,0,1.315-.329,8.01,8.01,0,0,0,1-.406q.416-.208.657-.362a1,1,0,0,0,.329-.362,1.172,1.172,0,0,0,.088-.494h0v-5.705a3.994,3.994,0,0,0-1.216-3.237,5.006,5.006,0,0,0-3.32-1.02,8.855,8.855,0,0,0-1.939.208,6.457,6.457,0,0,0-1.414.45,1.235,1.235,0,0,0-.6.494,1.194,1.194,0,0,0-.164.582.947.947,0,0,0,.438.812,1.258,1.258,0,0,0,1.162.066,9.317,9.317,0,0,1,1.085-.329,5.441,5.441,0,0,1,1.3-.154,2.783,2.783,0,0,1,1.863.5,2.067,2.067,0,0,1,.57,1.624h0V-9.7q-.767-.176-1.392-.274a8.957,8.957,0,0,0-1.392-.1,5.969,5.969,0,0,0-1.994.3,3.974,3.974,0,0,0-1.381.8,3.166,3.166,0,0,0-.811,1.163,3.692,3.692,0,0,0-.263,1.382,3.905,3.905,0,0,0,.285,1.5,3.375,3.375,0,0,0,.844,1.207,3.857,3.857,0,0,0,1.4.8A6.125,6.125,0,0,0,112.958-2.634Zm.2-2.041a2.91,2.91,0,0,1-1.8-.472,1.625,1.625,0,0,1-.614-1.372,1.376,1.376,0,0,1,.647-1.218,2.942,2.942,0,0,1,1.655-.428,8.175,8.175,0,0,1,1.337.1q.592.1,1.315.274h0v2.436a5,5,0,0,1-.789.406A4.433,4.433,0,0,1,113.156-4.675Zm8.832,1.909a1.109,1.109,0,0,0,.833-.34,1.168,1.168,0,0,0,.329-.845h0V-17.315a1.148,1.148,0,0,0-.34-.845,1.119,1.119,0,0,0-.822-.34,1.109,1.109,0,0,0-.833.34,1.168,1.168,0,0,0-.329.845h0V-3.951a1.129,1.129,0,0,0,.351.845A1.13,1.13,0,0,0,121.988-2.766Zm7.736.132a8.7,8.7,0,0,0,1.293-.1,4.629,4.629,0,0,0,1.161-.318,1.219,1.219,0,0,0,.614-.461,1.153,1.153,0,0,0,.175-.614,1.189,1.189,0,0,0-.1-.472.955.955,0,0,0-.274-.373,1.112,1.112,0,0,0-.449-.208,1.216,1.216,0,0,0-.6.022q-.373.11-.756.219a2.976,2.976,0,0,1-.822.11,1.451,1.451,0,0,1-1.183-.45,1.963,1.963,0,0,1-.373-1.284h0v-5.464h3.024a1.11,1.11,0,0,0,.767-.3.949.949,0,0,0,.329-.735.949.949,0,0,0-.329-.735,1.11,1.11,0,0,0-.767-.3h-3.024v-1.668a1.148,1.148,0,0,0-.34-.845,1.119,1.119,0,0,0-.822-.34,1.109,1.109,0,0,0-.833.34,1.168,1.168,0,0,0-.329.845h0v9.173a5.354,5.354,0,0,0,.219,1.558,3.433,3.433,0,0,0,.668,1.251,3.182,3.182,0,0,0,1.129.834A3.913,3.913,0,0,0,129.724-2.634Zm6.662,4.06a1.8,1.8,0,0,0,.986-.329,6.618,6.618,0,0,0,1.5-1.492,11.373,11.373,0,0,0,1.479-2.633h0l4.12-9.809a1.213,1.213,0,0,0,.1-.614,1.182,1.182,0,0,0-.2-.549,1.232,1.232,0,0,0-.417-.384,1.158,1.158,0,0,0-.581-.143,1.092,1.092,0,0,0-.734.252,1.572,1.572,0,0,0-.449.669h0l-2.717,7.044a.129.129,0,0,1-.11.066.086.086,0,0,1-.088-.066h0L136.32-13.65a1.433,1.433,0,0,0-.427-.625,1.124,1.124,0,0,0-.756-.252,1.073,1.073,0,0,0-.537.143,1.277,1.277,0,0,0-.416.373,1.112,1.112,0,0,0-.2.538,1.321,1.321,0,0,0,.1.636h0l3.989,9.195A6.2,6.2,0,0,1,137-1.724a5.7,5.7,0,0,1-1.227,1.108,1.1,1.1,0,0,0-.362.439,1.211,1.211,0,0,0-.121.5,1.025,1.025,0,0,0,.329.8A1.11,1.11,0,0,0,136.386,1.425Z" transform="translate(-83 18.5)" fill="none"/>
    </clipPath>
    <clipPath id="clip-path-5">
      <path id="Path_1084" data-name="Path 1084" d="M7.468-1.13a14.863,14.863,0,0,0,2.641-.221A14.991,14.991,0,0,0,12.294-1.9a13.247,13.247,0,0,0,1.657-.68q.692-.349,1.093-.607a1.662,1.662,0,0,0,.546-.607,1.976,1.976,0,0,0,.146-.827h0v-9.557q0-3.713-2.022-5.422A8.278,8.278,0,0,0,8.2-21.31a14.61,14.61,0,0,0-3.224.349,10.671,10.671,0,0,0-2.35.754,2.056,2.056,0,0,0-1,.827,2.011,2.011,0,0,0-.273.974,1.59,1.59,0,0,0,.729,1.36,2.077,2.077,0,0,0,1.931.11,15.4,15.4,0,0,1,1.8-.551,8.978,8.978,0,0,1,2.167-.257,4.6,4.6,0,0,1,3.1.845,3.478,3.478,0,0,1,.947,2.72h0v1.213q-1.275-.294-2.313-.459a14.773,14.773,0,0,0-2.313-.165,9.851,9.851,0,0,0-3.315.5,6.593,6.593,0,0,0-2.295,1.342A5.3,5.3,0,0,0,.437-9.8,6.227,6.227,0,0,0,0-7.489,6.588,6.588,0,0,0,.474-4.971a5.655,5.655,0,0,0,1.4,2.022A6.4,6.4,0,0,0,4.207-1.607,10.109,10.109,0,0,0,7.468-1.13ZM7.8-4.548a4.81,4.81,0,0,1-2.987-.79,2.731,2.731,0,0,1-1.02-2.3,2.309,2.309,0,0,1,1.075-2.04,4.861,4.861,0,0,1,2.75-.717,13.484,13.484,0,0,1,2.222.165q.984.165,2.186.459h0v4.08a8.287,8.287,0,0,1-1.311.68A7.319,7.319,0,0,1,7.8-4.548ZM25.681-1.13a11.98,11.98,0,0,0,2.513-.257,14.823,14.823,0,0,0,2.167-.625,13.873,13.873,0,0,0,1.676-.754,11.409,11.409,0,0,0,1.075-.643,1.411,1.411,0,0,0,.565-.625,2.38,2.38,0,0,0,.127-.845h0V-25.758a1.965,1.965,0,0,0-.546-1.415,1.836,1.836,0,0,0-1.384-.57,1.852,1.852,0,0,0-1.366.57,1.931,1.931,0,0,0-.565,1.415h0v5.514a14.261,14.261,0,0,0-2.186-.735,10.256,10.256,0,0,0-2.586-.331,7.5,7.5,0,0,0-5.519,1.967,8.326,8.326,0,0,0-2.277,5.422q-.036.515-.055,1.195T17.3-11.312q0,.735.018,1.434T17.376-8.7a9.6,9.6,0,0,0,.765,3.088,7.16,7.16,0,0,0,1.694,2.389,7.706,7.706,0,0,0,2.532,1.544A9.319,9.319,0,0,0,25.681-1.13Zm.073-3.749q-4.189,0-4.517-4.3-.036-.441-.055-1.011t-.018-1.176q0-.607.018-1.176t.055-.937a4.528,4.528,0,0,1,1.129-3.051,4.187,4.187,0,0,1,3.1-1.029,8.892,8.892,0,0,1,2.659.386,8.142,8.142,0,0,1,1.821.754h0V-6.2a4.492,4.492,0,0,1-.747.441,9.634,9.634,0,0,1-1.038.423,9.659,9.659,0,0,1-1.2.331A5.9,5.9,0,0,1,25.754-4.879ZM42.875-1.13a14.863,14.863,0,0,0,2.641-.221A14.991,14.991,0,0,0,47.7-1.9a13.247,13.247,0,0,0,1.657-.68q.692-.349,1.093-.607A1.662,1.662,0,0,0,51-3.795a1.976,1.976,0,0,0,.146-.827h0v-9.557q0-3.713-2.022-5.422A8.278,8.278,0,0,0,43.6-21.31a14.61,14.61,0,0,0-3.224.349,10.672,10.672,0,0,0-2.35.754,2.056,2.056,0,0,0-1,.827,2.011,2.011,0,0,0-.273.974,1.59,1.59,0,0,0,.729,1.36,2.077,2.077,0,0,0,1.931.11,15.4,15.4,0,0,1,1.8-.551,8.978,8.978,0,0,1,2.167-.257,4.6,4.6,0,0,1,3.1.845,3.478,3.478,0,0,1,.947,2.72h0v1.213q-1.275-.294-2.313-.459a14.773,14.773,0,0,0-2.313-.165,9.851,9.851,0,0,0-3.315.5,6.593,6.593,0,0,0-2.295,1.342A5.3,5.3,0,0,0,35.844-9.8a6.227,6.227,0,0,0-.437,2.316,6.588,6.588,0,0,0,.474,2.518,5.655,5.655,0,0,0,1.4,2.022,6.4,6.4,0,0,0,2.331,1.342A10.109,10.109,0,0,0,42.875-1.13ZM43.2-4.548a4.81,4.81,0,0,1-2.987-.79,2.731,2.731,0,0,1-1.02-2.3,2.309,2.309,0,0,1,1.075-2.04,4.861,4.861,0,0,1,2.75-.717,13.484,13.484,0,0,1,2.222.165q.984.165,2.186.459h0v4.08a8.287,8.287,0,0,1-1.311.68A7.319,7.319,0,0,1,43.2-4.548Zm24.479,3.2a1.836,1.836,0,0,0,1.384-.57,1.965,1.965,0,0,0,.546-1.415h0V-13.554a7.785,7.785,0,0,0-2-5.753q-2-2-5.974-2a16.182,16.182,0,0,0-2.641.2,14.539,14.539,0,0,0-2.167.515,12.03,12.03,0,0,0-1.639.662,7.931,7.931,0,0,0-1.093.643,2.085,2.085,0,0,0-.583.607,1.811,1.811,0,0,0-.182.9h0V-3.335a1.9,1.9,0,0,0,.583,1.415,1.871,1.871,0,0,0,1.348.57,1.836,1.836,0,0,0,1.384-.57,1.965,1.965,0,0,0,.546-1.415h0v-13.2a6.34,6.34,0,0,1,1.8-.717,9.89,9.89,0,0,1,2.532-.312,5.345,5.345,0,0,1,1.6.239,3.659,3.659,0,0,1,1.348.754,3.678,3.678,0,0,1,.929,1.3,4.7,4.7,0,0,1,.346,1.893h0V-3.335a1.9,1.9,0,0,0,.583,1.415A1.871,1.871,0,0,0,67.682-1.35Zm6.3-22.239a2.012,2.012,0,0,0,1.53-.662,2.233,2.233,0,0,0,.619-1.581,2.107,2.107,0,0,0-.619-1.544A2.069,2.069,0,0,0,73.984-28a2.113,2.113,0,0,0-1.566.625,2.107,2.107,0,0,0-.619,1.544,2.233,2.233,0,0,0,.619,1.581A2.053,2.053,0,0,0,73.984-23.589Zm0,22.239a1.836,1.836,0,0,0,1.384-.57,1.965,1.965,0,0,0,.546-1.415h0V-19.068a1.931,1.931,0,0,0-.565-1.415,1.852,1.852,0,0,0-1.366-.57,1.836,1.836,0,0,0-1.384.57,1.965,1.965,0,0,0-.546,1.415h0V-3.335a1.9,1.9,0,0,0,.583,1.415A1.871,1.871,0,0,0,73.984-1.35Z" transform="translate(0 28)" fill="none"/>
    </clipPath>
    <linearGradient id="linear-gradient" y1="0.306" x2="0" y2="36.878" gradientUnits="objectBoundingBox">
      <stop offset="0"/>
      <stop offset="0" stop-color="#1c84a6"/>
      <stop offset="0.1" stop-color="#277aab"/>
      <stop offset="0.2" stop-color="#3270af"/>
      <stop offset="0.3" stop-color="#4467af"/>
      <stop offset="0.4" stop-color="#5c5ea9"/>
      <stop offset="0.5" stop-color="#7455a3"/>
      <stop offset="0.6" stop-color="#81499c"/>
      <stop offset="0.7" stop-color="#8e3d95"/>
      <stop offset="0.8" stop-color="#a03f85"/>
      <stop offset="0.9" stop-color="#b24473"/>
      <stop offset="1" stop-color="#c54961"/>
      <stop offset="1"/>
    </linearGradient>
    <linearGradient id="linear-gradient-2" y1="0.306" x2="0.493" y2="0.306" gradientUnits="objectBoundingBox">
      <stop offset="0" stop-color="#1c84a6"/>
      <stop offset="0.1" stop-color="#277aab"/>
      <stop offset="0.2" stop-color="#3270af"/>
      <stop offset="0.3" stop-color="#4467af"/>
      <stop offset="0.4" stop-color="#5c5ea9"/>
      <stop offset="0.5" stop-color="#7455a3"/>
      <stop offset="0.6" stop-color="#81499c"/>
      <stop offset="0.7" stop-color="#8e3d95"/>
      <stop offset="0.8" stop-color="#a03f85"/>
      <stop offset="0.9" stop-color="#b24473"/>
      <stop offset="1" stop-color="#c54961"/>
    </linearGradient>
  </defs>
  <g id="Group_787" data-name="Group 787" transform="translate(83.97 0)" clip-path="url(#clip-path)">
    <g id="Group_786" data-name="Group 786" transform="translate(-153.385 -103.003)" clip-path="url(#clip-path-2)">
      <path id="Path_1075" data-name="Path 1075" d="M74-29h3.359V.11H74Z" transform="translate(78.266 130.884)" fill="#545454"/>
    </g>
  </g>
  <g id="Group_789" data-name="Group 789" transform="translate(92.927 10.636)" clip-path="url(#clip-path-3)">
    <g id="Group_788" data-name="Group 788" transform="translate(-162.342 -113.64)" clip-path="url(#clip-path-2)">
      <path id="Path_1078" data-name="Path 1078" d="M82-19.5h63.817V2.665H82Z" transform="translate(79.223 132.02)" fill="#545454"/>
    </g>
  </g>
  <g id="Group_794" data-name="Group 794" transform="translate(0 0)" clip-path="url(#clip-path-5)">
    <g id="Group_793" data-name="Group 793" transform="translate(-69.415 -103.003)" clip-path="url(#clip-path-2)">
      <g id="Group_791" data-name="Group 791" transform="translate(69.415 103.003)" opacity="0">
        <g id="Group_790" data-name="Group 790">
          <path id="Path_1081" data-name="Path 1081" d="M0,0H154.5V31.349H0Z" fill="url(#linear-gradient)"/>
        </g>
      </g>
      <g id="Group_792" data-name="Group 792" transform="translate(69.415 103.003)">
        <path id="Path_1082" data-name="Path 1082" d="M0,0H154.5V31.349H0Z" fill="url(#linear-gradient-2)"/>
      </g>
    </g>
  </g>
</svg>
