<svg id="Group_966" data-name="Group 966" xmlns="http://www.w3.org/2000/svg" width="26.013" height="29.309" viewBox="0 0 26.013 29.309">
  <path id="Path_1214" data-name="Path 1214" d="M29.8,185.661V167.576a.356.356,0,0,0-.129-.287c-1.217-1.138-2.425-2.277-3.642-3.425q-2.346-2.2-4.682-4.395a.4.4,0,0,0-.288-.118q-7.558,0-15.114.01a2.707,2.707,0,0,0-.5.039,1.983,1.983,0,0,0-1.494,1.237,4.411,4.411,0,0,0-.158.5v25.736c.03.118.069.228.1.346a2.045,2.045,0,0,0,1.93,1.435H27.757a1.784,1.784,0,0,0,.515-.069,2.039,2.039,0,0,0,1.337-1.129,5.41,5.41,0,0,0,.187-1.8m-8.314-24.439c0-.039.01-.088.02-.178,2.168,2.039,4.316,4.048,6.484,6.1-.089,0-.129.01-.178.01H23.086a1.6,1.6,0,0,1-1.6-1.595ZM28.4,187.373a1.179,1.179,0,0,1-.831.258q-10.661-.015-21.341-.01h-.4a.992.992,0,0,1-.762-.366,1.209,1.209,0,0,1-.248-.822v-1.861q0-11.031.01-22.043c0-.376,0-.762.009-1.138a1.027,1.027,0,0,1,1-.98c.306-.01.623-.02.93-.02H20.255c.187,0,.2,0,.2.208,0,1.643,0,3.3-.01,4.949a2.6,2.6,0,0,0,.149.871,2.64,2.64,0,0,0,2.514,1.772c1.812-.02,3.633-.009,5.444-.009.217,0,.217,0,.217.217V186.4s0,.257-.009.3a1.052,1.052,0,0,1-.357.673" transform="translate(-3.794 -159.351)" fill="#313a8d"/>
  <path id="Path_1215" data-name="Path 1215" d="M20.578,177.846a1.63,1.63,0,0,1-.131.337q-2.307,3.468-4.624,6.931c-.068.1-.134.2-.2.3a.608.608,0,1,1-1.015-.666q1.209-1.818,2.421-3.632t2.414-3.617a.609.609,0,0,1,1.053.036,1.5,1.5,0,0,1,.084.307" transform="translate(-4.527 -160.575)" fill="#313a8d"/>
  <path id="Path_1216" data-name="Path 1216" d="M21.516,181.79a2.12,2.12,0,1,1-2.135,2.114,2.11,2.11,0,0,1,2.135-2.114m.905,2.134a.911.911,0,0,0-1.822-.037.911.911,0,1,0,1.822.037" transform="translate(-4.862 -160.889)" fill="#313a8d"/>
  <path id="Path_1217" data-name="Path 1217" d="M13.687,177.229a2.1,2.1,0,0,1,2.12,2.124,2.128,2.128,0,0,1-4.255-.02,2.1,2.1,0,0,1,2.135-2.1m.905,2.11a.932.932,0,0,0-.905-.913.916.916,0,1,0,.905.913" transform="translate(-4.326 -160.576)" fill="#313a8d"/>
  <path id="Path_1218" data-name="Path 1218" d="M7.834,171.3l1.494,2.261v-2.282a.5.5,0,0,1,.1-.333.322.322,0,0,1,.257-.111.334.334,0,0,1,.265.111.5.5,0,0,1,.1.333v3.017q0,.506-.419.506a.546.546,0,0,1-.188-.031.459.459,0,0,1-.156-.1.911.911,0,0,1-.136-.154q-.063-.087-.126-.179L7.559,172.1v2.248a.482.482,0,0,1-.1.333.338.338,0,0,1-.261.113.333.333,0,0,1-.265-.115.487.487,0,0,1-.1-.331v-2.959a.84.84,0,0,1,.042-.3.425.425,0,0,1,.165-.192.45.45,0,0,1,.249-.075.432.432,0,0,1,.179.034.452.452,0,0,1,.131.092.923.923,0,0,1,.115.149c.04.061.08.125.122.191" transform="translate(-4.002 -160.138)" fill="#313a8d"/>
  <path id="Path_1219" data-name="Path 1219" d="M12.982,170.83a2.038,2.038,0,0,1,1.024.242,1.566,1.566,0,0,1,.648.688,2.347,2.347,0,0,1,.22,1.048,2.545,2.545,0,0,1-.121.809,1.752,1.752,0,0,1-.36.631,1.581,1.581,0,0,1-.591.408,2.141,2.141,0,0,1-.8.142,2.116,2.116,0,0,1-.806-.145,1.593,1.593,0,0,1-.593-.41,1.741,1.741,0,0,1-.36-.636,2.567,2.567,0,0,1-.121-.8,2.479,2.479,0,0,1,.127-.811,1.73,1.73,0,0,1,.368-.628,1.6,1.6,0,0,1,.586-.4,2.116,2.116,0,0,1,.785-.137m1.1,1.973a1.805,1.805,0,0,0-.136-.73,1.015,1.015,0,0,0-.388-.467,1.063,1.063,0,0,0-.579-.158,1.05,1.05,0,0,0-.431.088.949.949,0,0,0-.34.255,1.222,1.222,0,0,0-.224.428,1.933,1.933,0,0,0-.083.585,1.981,1.981,0,0,0,.083.591,1.2,1.2,0,0,0,.233.438.973.973,0,0,0,.345.261,1.087,1.087,0,0,0,.976-.063,1.02,1.02,0,0,0,.4-.46,1.777,1.777,0,0,0,.148-.767" transform="translate(-4.296 -160.138)" fill="#313a8d"/>
  <path id="Path_1220" data-name="Path 1220" d="M21.024,173.172v.735a.765.765,0,0,1-.029.235.37.37,0,0,1-.106.158,1.025,1.025,0,0,1-.2.136,3.114,3.114,0,0,1-.67.275,2.69,2.69,0,0,1-.7.087,2.271,2.271,0,0,1-.806-.137,1.69,1.69,0,0,1-.62-.395,1.757,1.757,0,0,1-.394-.628,2.354,2.354,0,0,1-.137-.824,2.419,2.419,0,0,1,.133-.819,1.677,1.677,0,0,1,.393-.631,1.721,1.721,0,0,1,.631-.4,2.419,2.419,0,0,1,.842-.137,2.089,2.089,0,0,1,.686.1,1.512,1.512,0,0,1,.484.26,1.166,1.166,0,0,1,.279.333.673.673,0,0,1,.1.311.333.333,0,0,1-.109.251.365.365,0,0,1-.261.1.34.34,0,0,1-.16-.04.351.351,0,0,1-.129-.11A3.034,3.034,0,0,0,20,171.7a.8.8,0,0,0-.268-.194,1.022,1.022,0,0,0-.43-.078,1.181,1.181,0,0,0-.482.093,1,1,0,0,0-.362.269,1.233,1.233,0,0,0-.23.433,1.912,1.912,0,0,0-.08.568,1.555,1.555,0,0,0,.31,1.039,1.077,1.077,0,0,0,.865.363,1.774,1.774,0,0,0,.506-.07,2.559,2.559,0,0,0,.481-.2V173.3h-.6a.658.658,0,0,1-.329-.066.236.236,0,0,1-.111-.222.272.272,0,0,1,.093-.212.361.361,0,0,1,.252-.084H20.5a1.151,1.151,0,0,1,.275.029.314.314,0,0,1,.183.129.528.528,0,0,1,.069.3" transform="translate(-4.724 -160.138)" fill="#313a8d"/>
  <path id="Path_1221" data-name="Path 1221" d="M25.109,173.581a1.127,1.127,0,0,1-.179.625,1.2,1.2,0,0,1-.525.435,1.969,1.969,0,0,1-.819.156,1.85,1.85,0,0,1-.937-.214,1.25,1.25,0,0,1-.425-.413.933.933,0,0,1-.164-.5.34.34,0,0,1,.348-.343.3.3,0,0,1,.208.078.61.61,0,0,1,.145.233,1.573,1.573,0,0,0,.158.306.638.638,0,0,0,.239.2.889.889,0,0,0,.406.08.914.914,0,0,0,.561-.161.483.483,0,0,0,.216-.4.425.425,0,0,0-.116-.31.751.751,0,0,0-.3-.182,5.027,5.027,0,0,0-.494-.133,3.651,3.651,0,0,1-.692-.227,1.114,1.114,0,0,1-.442-.353.917.917,0,0,1-.164-.556.96.96,0,0,1,.172-.563,1.1,1.1,0,0,1,.5-.378,2.056,2.056,0,0,1,.769-.131,1.9,1.9,0,0,1,.611.088,1.283,1.283,0,0,1,.428.233.97.97,0,0,1,.249.3.7.7,0,0,1,.078.311.37.37,0,0,1-.1.251.315.315,0,0,1-.245.111.282.282,0,0,1-.2-.067.907.907,0,0,1-.15-.218.986.986,0,0,0-.251-.339.734.734,0,0,0-.47-.122.818.818,0,0,0-.485.132.386.386,0,0,0-.184.318.322.322,0,0,0,.062.2.531.531,0,0,0,.172.143,1.177,1.177,0,0,0,.223.1c.075.022.2.056.372.1q.324.077.588.168a1.788,1.788,0,0,1,.447.223.919.919,0,0,1,.288.331,1.063,1.063,0,0,1,.1.491" transform="translate(-5.046 -160.138)" fill="#313a8d"/>
  <path id="Path_1222" data-name="Path 1222" d="M28.619,171.542h-.848v2.787a.515.515,0,0,1-.107.357.358.358,0,0,1-.278.116.366.366,0,0,1-.281-.117.508.508,0,0,1-.109-.356v-2.787h-.848a.427.427,0,0,1-.3-.088.326.326,0,0,1,0-.468.439.439,0,0,1,.292-.086h2.47a.44.44,0,0,1,.3.088.3.3,0,0,1,.1.233.3.3,0,0,1-.1.232.438.438,0,0,1-.3.088" transform="translate(-5.299 -160.143)" fill="#313a8d"/>
</svg>
