<svg id="Group_968" data-name="Group 968" xmlns="http://www.w3.org/2000/svg" width="20.929" height="20" viewBox="0 0 28.053 28.045">
  <path id="Path_1191" data-name="Path 1191" d="M20.842,21.62a9.545,9.545,0,0,0-1.313,7.939c.035.13.113.275.083.391a2.129,2.129,0,0,1-.257.473c-.167-.1-.449-.172-.482-.306a14.981,14.981,0,0,1-.433-2.236c-.321-3.607,1.137-6.529,3.588-9.041a24.716,24.716,0,0,1,8.122-5.288c.509-.219.765-.468.687-1.045a10.287,10.287,0,0,1-.009-1.276c-.873.124-1.656.227-2.437.349A59.628,59.628,0,0,0,19.583,13.5c-.579.184-1.149.4-1.727.587-.273.088-.6.207-.732-.171s.182-.492.464-.6a41.421,41.421,0,0,1,7.945-2.028q2.7-.429,5.408-.863c.489-.078.679.047.687.528.015.8.035,1.6-.014,2.39a.927.927,0,0,1-.418.6,5.393,5.393,0,0,1-1.064.475.586.586,0,0,0-.445.637c.019,1.22,0,2.442.02,3.663a.694.694,0,0,0,.276.509,1.177,1.177,0,0,1,.634,1.124c0,1.674.086,1.381-1.366,1.4-.966.012-1.933-.009-2.9.008-.367.006-.549-.141-.546-.5A6.334,6.334,0,0,1,25.866,20a1.082,1.082,0,0,1,.462-.664.675.675,0,0,0,.386-.727c-.019-.761-.006-1.522-.006-2.473-.941.7-1.78,1.308-2.584,1.957-.133.107-.152.406-.152.617-.01,2.1-.013,4.206.007,6.31a.68.68,0,0,0,.3.488,1.2,1.2,0,0,1,.625.985c.164,1.487.088,1.57-1.409,1.57-.949,0-1.9-.011-2.848.006-.414.007-.6-.158-.584-.568.01-.3,0-.611,0-.915a1.127,1.127,0,0,1,.632-1.076c.114-.06.26-.2.261-.309.019-1.182.012-2.364.012-3.547l-.129-.031m2.274,3.745V18.931c-.3.292-.529.551-.791.778a1.629,1.629,0,0,0-.558,1.4c.039,1.067.011,2.137.011,3.205,0,1.245.019,1.261,1.338,1.054M28.889,15c-.457.245-.806.416-1.136.617a.461.461,0,0,0-.214.309c-.016,1.047-.009,2.094-.009,3.19.408,0,.762.017,1.112-.012a.35.35,0,0,0,.237-.242c.015-1.249.01-2.5.01-3.862M22.451,27.257v0c.422,0,.844-.013,1.265,0,.318.013.423-.128.4-.424-.023-.258.066-.6-.345-.6-.825-.016-1.653-.028-2.478.007-.389.016-.429.346-.43.677,0,.367.238.344.479.344h1.113m7.319-6.319c.133-.927.068-1.006-.777-1.006H27.366c-.791,0-.914.184-.654,1.006Z" transform="translate(-3.591 -10.407)" fill="#2c368e"/>
  <path id="Path_1192" data-name="Path 1192" d="M19.934,38.671A17.658,17.658,0,0,1,18.447,37c-.812-1.184-1.548-2.419-2.314-3.635-.044-.071-.109-.159-.1-.23.028-.208.088-.411.136-.616.19.085.445.12.553.265a7.241,7.241,0,0,1,.5.941,15.291,15.291,0,0,0,3.946,4.858c.039.032.1.055.116.1.077.172.232.384.184.517s-.31.241-.48.244c-1.051.022-2.1.012-3.154.012q-7.53,0-15.059.007a.69.69,0,0,1-.733-.4A18.937,18.937,0,0,1,0,30.9a14.949,14.949,0,0,1,3.84-10.12,22.644,22.644,0,0,1,7.994-5.542.64.64,0,0,1,.6.108c.185.325-.07.523-.358.648a23.729,23.729,0,0,0-5,2.9,15.247,15.247,0,0,0-5.506,7.318A15.905,15.905,0,0,0,2.2,37.463,1.642,1.642,0,0,0,4.057,38.7c5.052-.072,10.106-.032,15.16-.032Z" transform="translate(0 -11.416)" fill="#2c368e"/>
  <path id="Path_1193" data-name="Path 1193" d="M10.881,38.33c-.087.077-.21.267-.364.3a.48.48,0,0,1-.4-.254,4.548,4.548,0,0,1-.2-1.14.514.514,0,0,1,.308-.4.54.54,0,0,1,.427.3,8.939,8.939,0,0,1,.227,1.2" transform="translate(-2.084 -15.958)" fill="#2c368e"/>
  <path id="Path_1194" data-name="Path 1194" d="M24.327,16.184c-.148-.135-.329-.223-.355-.344a.483.483,0,0,1,.151-.421,5.547,5.547,0,0,1,1.118-.468c.115-.033.33.115.425.237a.39.39,0,0,1-.084.377c-.391.224-.806.4-1.255.619" transform="translate(-5.035 -11.361)" fill="#2c368e"/>
  <path id="Path_1195" data-name="Path 1195" d="M12.779,25.184c-.239.4-.462.818-.728,1.2a.405.405,0,0,1-.395.031.576.576,0,0,1-.175-.464,6.042,6.042,0,0,1,.566-1.069.453.453,0,0,1,.378-.13,2.3,2.3,0,0,1,.519.2c-.055.075-.11.151-.164.227" transform="translate(-2.41 -13.421)" fill="#2c368e"/>
  <path id="Path_1196" data-name="Path 1196" d="M18.55,19.1a2.517,2.517,0,0,1-.3.389,7.442,7.442,0,0,1-.905.64.477.477,0,0,1-.457-.053.489.489,0,0,1-.021-.472,4.909,4.909,0,0,1,1.052-.762c.122-.062.384.15.632.258" transform="translate(-3.533 -12.177)" fill="#2c368e"/>
  <path id="Path_1197" data-name="Path 1197" d="M10.793,41.254c.132-.157.224-.367.361-.4.111-.028.329.121.406.248a4.615,4.615,0,0,1,.44.964.487.487,0,0,1-.13.444c-.121.069-.426.047-.48-.04a12.7,12.7,0,0,1-.6-1.214" transform="translate(-2.268 -16.803)" fill="#2c368e"/>
  <path id="Path_1198" data-name="Path 1198" d="M28.2,14.76c-.111-.107-.31-.209-.333-.343a.493.493,0,0,1,.22-.421,4.533,4.533,0,0,1,1.11-.311.516.516,0,0,1,.43.265.522.522,0,0,1-.25.437,9.988,9.988,0,0,1-1.176.373" transform="translate(-5.854 -11.095)" fill="#2c368e"/>
  <path id="Path_1199" data-name="Path 1199" d="M21.557,16.568c.131.12.3.2.321.311a.537.537,0,0,1-.122.447,5.849,5.849,0,0,1-1.056.588.488.488,0,0,1-.416-.161c-.071-.086-.077-.359-.012-.4.4-.275.825-.509,1.285-.781" transform="translate(-4.25 -11.701)" fill="#2c368e"/>
  <path id="Path_1200" data-name="Path 1200" d="M10.047,30.006a11.09,11.09,0,0,1,.356-1.212.49.49,0,0,1,.427-.219.485.485,0,0,1,.276.391,5.565,5.565,0,0,1-.312,1.212c-.039.1-.312.177-.457.152-.115-.021-.2-.215-.29-.324" transform="translate(-2.111 -14.223)" fill="#2c368e"/>
  <path id="Path_1201" data-name="Path 1201" d="M9.661,33.568a2.239,2.239,0,0,1,.08-.576c.047-.136.23-.316.346-.312.131,0,.356.187.364.3a6.628,6.628,0,0,1-.05,1.263.4.4,0,0,1-.321.235.642.642,0,0,1-.4-.29c-.069-.133-.015-.33-.015-.625" transform="translate(-2.025 -15.086)" fill="#2c368e"/>
  <path id="Path_1202" data-name="Path 1202" d="M14.126,23.052a.392.392,0,0,1-.313-.633,5.373,5.373,0,0,1,.817-.883.459.459,0,0,1,.44.021c.1.076.182.346.127.415-.29.365-.625.7-.949,1.034-.031.032-.092.035-.122.046" transform="translate(-2.885 -12.735)" fill="#2c368e"/>
</svg>
