<svg xmlns="http://www.w3.org/2000/svg" width="36.313" height="13.369" viewBox="0 0 36.313 13.369">
  <g id="Group_970" data-name="Group 970" transform="translate(0.399 0.366)">
    <path id="Path_1172" data-name="Path 1172" d="M318.262,175.817a1.74,1.74,0,1,0,1.74,1.74,1.74,1.74,0,0,0-1.74-1.74m.87,1.74a.87.87,0,1,1-.87-.87.871.871,0,0,1,.87.87" transform="translate(-311.783 -166.294)" fill="#11256f"/>
    <path id="Path_1173" data-name="Path 1173" d="M340.472,175.817a1.74,1.74,0,1,0,1.74,1.74,1.74,1.74,0,0,0-1.74-1.74m.87,1.74a.87.87,0,1,1-.87-.87.871.871,0,0,1,.87.87" transform="translate(-311.783 -166.294)" fill="#11256f"/>
    <path id="Path_1174" data-name="Path 1174" d="M348.3,176.987a3.463,3.463,0,0,0-.248-.916,2.628,2.628,0,0,1-.13-.5,3.848,3.848,0,0,1-.027-.492,23.975,23.975,0,0,0-.2-2.467,17.421,17.421,0,0,0-2.184-.5,8,8,0,0,1-1.447-.251,9.79,9.79,0,0,1-1.694-.925,14.551,14.551,0,0,0-1.812-.836,15.4,15.4,0,0,0-2.265-.789,16.979,16.979,0,0,0-2.686-.293,21.107,21.107,0,0,0-6.813.252,22.8,22.8,0,0,0-6.473,3.3c-.3.2-.512.529-.852.6l-2.019.41c-.6.122-1.2.244-1.791.384a21.722,21.722,0,0,0-3.676,1.192,1.249,1.249,0,0,0-.713.576s.006.72.044,1.092a.421.421,0,0,1-.009.177c-.048.128-.2.143-.3.211-.233.15-.229.53-.194.834a3.8,3.8,0,0,0,.227,1.063c.1.24.256.529.122.749-.083.135-.267.217-.251.381.014.133.151.191.264.217a17.19,17.19,0,0,0,3.028.426v-.006l.053,0a4.3,4.3,0,0,1-.052-.657,3.437,3.437,0,0,1,3.168-3.646,2.9,2.9,0,0,1,1.953.778l.043.045a3.544,3.544,0,0,1,.264.337,5.017,5.017,0,0,1,.892,2.843c0,.055-.009.112-.016.167l.465-.035h13.712c.385,0,.77-.016,1.156-.024h.059v0h.462a4.217,4.217,0,0,1-.027-.466,3.846,3.846,0,0,1,1.281-2.926c.052-.04.1-.079.155-.117.126-.092.256-.178.389-.258a2.808,2.808,0,0,1,1.344-.345,3.437,3.437,0,0,1,3.168,3.646c0,.113-.005.224-.014.335l.107-.021v.01l1.491-.33a4.131,4.131,0,0,0,1.461-.527.764.764,0,0,0,.251-.247,1.1,1.1,0,0,0,.105-.4q.1-.754.2-1.511a2.818,2.818,0,0,0,.036-.542m-35.117,1.778a.2.2,0,0,1-.046-.135c.011-.059.074-.079.126-.09l.64-.121a.43.43,0,0,1,.138.075.573.573,0,0,1,.094.159q.168.371.3.761l-.636-.091a.634.634,0,0,1-.464-.214c-.07-.1-.092-.237-.155-.344m.249,1.273a.113.113,0,0,1-.047-.014.132.132,0,0,1-.04-.055.773.773,0,0,1-.076-.295.17.17,0,0,1,.017-.1c.017-.028.078-.039.078-.039l.654.2a1.073,1.073,0,0,0,.251.056c.08.006.161-.008.241,0a.111.111,0,0,1,.062.024.148.148,0,0,1,.032.054,1.774,1.774,0,0,1,.089.263,8.136,8.136,0,0,1-1.261-.1m19.6-10.537.062-.016,0,.017a23.754,23.754,0,0,1,3.307.227,3.722,3.722,0,0,1,1.581.319,2.8,2.8,0,0,1,1.122,2.5c-1.537.118-3.077.208-4.616.3-.537.031-1.1.083-1.639.114.14-1.147.051-2.323.245-3.459h-.059m-7.584,3.972a.655.655,0,0,0,.281-.463,1.481,1.481,0,0,0-.024-.414,1.167,1.167,0,0,0-.094-.354.307.307,0,0,0-.261-.189,22.185,22.185,0,0,1,3.072-1.741,4.854,4.854,0,0,1,.485-.2,4.659,4.659,0,0,1,.511-.131c.822-.176,1.668-.284,2.5-.391-.054.757-.169,1.507-.283,2.256l-.171,1.116-.005.037-2.786.219-2.362.186c-.288.023-.573.055-.862.069m16.382-1.138a.38.38,0,0,1-.186.132,1.514,1.514,0,0,1-.61.053.2.2,0,0,1-.1-.021.245.245,0,0,1-.07-.078l-.886-1.359.049.03a.106.106,0,0,1-.016-.1,13.733,13.733,0,0,1,1.74,1.016.3.3,0,0,1,.094.089.235.235,0,0,1-.02.238" transform="translate(-312.783 -168.866)" fill="none" stroke="#11256f" stroke-width="0.8"/>
  </g>
</svg>
