<svg id="Group_967" data-name="Group 967" xmlns="http://www.w3.org/2000/svg" width="27.929" height="33.494" viewBox="0 0 27.929 33.494">
  <path id="Path_1203" data-name="Path 1203" d="M1.972,119.966a1.236,1.236,0,0,1-.657-1.26c.019-3.151.009-6.3.009-9.452a2.254,2.254,0,0,1,1.76-2.454,9.071,9.071,0,0,1-.674-1.238c-.171-.466-.315-.784-.918-.846A1.316,1.316,0,0,1,.4,103.323c0-.284,0-.567,0-.85A1.553,1.553,0,0,1,.883,101.4a.727.727,0,0,0,.189-.44c.027-1.1-.009-2.2.054-3.3a4.06,4.06,0,0,1,3.36-3.6,4.321,4.321,0,0,1,3.164.722,1.02,1.02,0,0,0,.608.111,3.791,3.791,0,0,1,3.828,2.188,4.358,4.358,0,0,1,.338,1.445c.055.78.014,1.567.014,2.407a3.943,3.943,0,0,1,2.613.647c0-.411,0-.743,0-1.077a6.551,6.551,0,0,1,5.048-6.18,6.649,6.649,0,0,1,8.074,5,7.438,7.438,0,0,1,.146,1.525c.016,2.049.007,4.1.006,6.149,0,.851-.268,1.12-1.13,1.134-.064,0-.129.007-.15.008.024.494.062.978.067,1.463,0,.369-.188.575-.481.581s-.5-.224-.509-.6c-.007-.217,0-.436,0-.654a1.164,1.164,0,0,0-1-1.148,2.2,2.2,0,0,0-1.387.19,4.576,4.576,0,0,1-3.523.247c-.092-.028-.183-.058-.287-.092a11.815,11.815,0,0,1-.007,1.184,1.256,1.256,0,0,1-1.159,1.178c-.3.035-.4.166-.5.431a13.231,13.231,0,0,1-.608,1.247c.038.017.109.052.184.082a1.981,1.981,0,0,1,1.284,1.872q0,.687,0,1.373c0,.353-.2.576-.486.578s-.487-.22-.491-.573c0-.436,0-.872,0-1.308a1.036,1.036,0,0,0-1.057-1.09,1.927,1.927,0,0,0-.972.2,4.06,4.06,0,0,1-3.681-.015,1.848,1.848,0,0,0-1.073-.166,1,1,0,0,0-.926.976c-.007.086,0,.174,0,.261v4.6h7.715c0-.314,0-.627,0-.94,0-.354.2-.575.49-.575s.48.225.488.578c0,.152,0,.3,0,.458v.48h7.01v-6.519c0-.076,0-.153,0-.229.006-.4.186-.644.489-.653.32-.01.506.222.507.659q0,2.6,0,5.2c0,.458-.02.916,0,1.373a1.084,1.084,0,0,1-.684,1.173Zm8.935-7.782c-.223-.464-.454-.895-.633-1.345a.423.423,0,0,0-.4-.332,1.324,1.324,0,0,1-1.256-1.375c-.015-.336,0-.672,0-1.023-.068.019-.141.033-.21.057a4.884,4.884,0,0,1-3.89-.27,1.464,1.464,0,0,0-2.218,1.32c.042,3.128.013,6.256.013,9.384v.362h7.12c0-1.571,0-3.118,0-4.664a2.742,2.742,0,0,1,.039-.552,2,2,0,0,1,1.432-1.561m16.4-5.067c.006-.064.018-.117.018-.17,0-2.092.009-4.185,0-6.277a5.4,5.4,0,0,0-1.967-4.207,5.655,5.655,0,0,0-9.322,4.718c.02.469,0,.467.459.546.146.025.29.064.461.1,0-.336,0-.64,0-.945,0-.661.267-.926.931-.928,1.09,0,2.181-.01,3.27,0a1.594,1.594,0,0,0,1.34-.61.727.727,0,0,1,1.276.007,1.516,1.516,0,0,0,1.308.6c.131,0,.262,0,.393,0,.669,0,.953.283.956.953,0,.926,0,1.852,0,2.778a4.691,4.691,0,0,1-.834,2.735c-.084.121-.171.24-.241.337a2.74,2.74,0,0,0,1.955.356M3.031,99.5c0,1.534,0,3.036,0,4.537a2.594,2.594,0,0,0,.091.579,3.744,3.744,0,0,0,5.941,2.054.507.507,0,0,0,.158-.352c.016-.588.008-1.176.008-1.765a3.532,3.532,0,0,1,1.1-2.6.483.483,0,0,0,.168-.261c.013-.725.007-1.451.007-2.191Zm14.9,1.456c0,.385.011.732,0,1.078a.551.551,0,0,0,.225.5,2.865,2.865,0,0,1,1.08,1.844c.084.665.051,1.345.1,2.017a.586.586,0,0,0,.208.388,3.729,3.729,0,0,0,5.782-2.292,26.363,26.363,0,0,0,.077-3.452c0-.017-.023-.034-.057-.08a2.6,2.6,0,0,1-2.208-.815,2.665,2.665,0,0,1-2.107.82c-.9-.017-1.808,0-2.712,0h-.381M11.058,107.2c0,.859-.01,1.674,0,2.49a2.891,2.891,0,0,0,.969,2.143,3.114,3.114,0,0,0,3.515.634,3.032,3.032,0,0,0,1.951-2.976c.006-1.111,0-2.223,0-3.335,0-.1-.01-.191-.017-.318-.723,0-1.428,0-2.134.006a.273.273,0,0,0-.194.126,2.344,2.344,0,0,1-2.283,1.233c-.587-.01-1.175,0-1.81,0m-.9-.945c.307-.027.521-.058.735-.06.686-.007,1.373,0,2.059,0a1.253,1.253,0,0,0,1.41-.954.537.537,0,0,1,.575-.381c.213.01.426,0,.636,0a2.639,2.639,0,0,0-2.135-2.894,2.584,2.584,0,0,0-3.084,1.865,14.924,14.924,0,0,0-.195,2.426M8.3,98.489A3.053,3.053,0,0,0,6.94,95.5a3.241,3.241,0,0,0-3.539.062,3.165,3.165,0,0,0-1.259,3.259.96.96,0,0,1,.879-.337c1.5,0,3.009,0,4.513,0H8.3M8.7,95.9a4.555,4.555,0,0,1,.657,2.584c.369,0,.715.006,1.06,0a1.049,1.049,0,0,1,1.023.389A2.793,2.793,0,0,0,8.7,95.9m8,8.921,1.614.106a2.29,2.29,0,0,0-2.1-2.214c.159.683.322,1.384.491,2.108m-14.677-2.78c-.427-.034-.623.13-.639.536-.008.217-.008.435,0,.653.014.408.2.574.639.562Zm16.5,6.03v1.412c.315-.012.4-.072.4-.344,0-.774.093-1.015-.4-1.069m-8.493-.015c-.254.033-.408.134-.411.388,0,.239-.01.478,0,.716s.147.358.408.33Z" transform="translate(-0.402 -86.472)" fill="#313a8d"/>
  <path id="Path_1204" data-name="Path 1204" d="M16.19,86.35c.386-.36.691-.672,1.024-.949a3.141,3.141,0,0,1,5.125,1.751A3.011,3.011,0,0,1,21.462,90q-.492.5-1,.99a.5.5,0,1,1-.693-.7c.386-.4.8-.772,1.16-1.2a2.074,2.074,0,0,0-.119-2.8,2.146,2.146,0,0,0-2.827-.237c-.441.352-.828.772-1.236,1.166s-.6.381-.992,0c-.375-.364-.736-.746-1.135-1.083a2.159,2.159,0,0,0-2.933.153,2.074,2.074,0,0,0-.036,2.9c1.481,1.555,3,3.076,4.524,4.639l1.467-1.444c.125-.122.246-.248.381-.358a.461.461,0,0,1,.651.011.453.453,0,0,1,.033.673c-.191.223-.41.422-.618.63-.348.346-.692.7-1.047,1.035a1.041,1.041,0,0,1-1.591-.006c-1.453-1.431-2.91-2.857-4.349-4.3a3.1,3.1,0,0,1,.285-4.815,3.177,3.177,0,0,1,4.145.366c.233.226.434.485.655.735" transform="translate(-2.294 -84.642)" fill="#313a8d"/>
  <path id="Path_1205" data-name="Path 1205" d="M6.5,107.16a.494.494,0,0,1,.426-.558.485.485,0,0,1,.545.446c.054.317.186.538.536.538s.484-.222.536-.538a.488.488,0,0,1,.545-.446.5.5,0,0,1,.425.559,1.507,1.507,0,0,1-3.012,0" transform="translate(-1.592 -88.932)" fill="#313a8d"/>
  <path id="Path_1206" data-name="Path 1206" d="M10.874,103.708c-.013.217-.017.423-.04.627a.443.443,0,0,1-.463.414.413.413,0,0,1-.468-.363,9.4,9.4,0,0,1,0-1.355c.019-.243.229-.358.476-.348a.426.426,0,0,1,.447.389c.031.213.032.43.046.636" transform="translate(-2.253 -88.167)" fill="#313a8d"/>
  <path id="Path_1207" data-name="Path 1207" d="M6.515,103.719c0,.195.01.39,0,.585a.447.447,0,0,1-.467.446.432.432,0,0,1-.483-.392,7.738,7.738,0,0,1,0-1.3.424.424,0,0,1,.52-.375.439.439,0,0,1,.427.447c.014.194,0,.39,0,.585h0" transform="translate(-1.405 -88.167)" fill="#313a8d"/>
  <path id="Path_1208" data-name="Path 1208" d="M25.036,107.166a.5.5,0,0,1,.418-.565.484.484,0,0,1,.55.438c.053.315.179.542.53.546.371,0,.492-.237.548-.563a.465.465,0,0,1,.532-.419.48.48,0,0,1,.434.518,1.508,1.508,0,0,1-3.013.046" transform="translate(-5.214 -88.932)" fill="#313a8d"/>
  <path id="Path_1209" data-name="Path 1209" d="M25.046,104.443c0,.184.009.369,0,.553a.447.447,0,0,1-.451.459.459.459,0,0,1-.514-.43,9.987,9.987,0,0,1,0-1.2.461.461,0,0,1,.484-.436.469.469,0,0,1,.48.472c.013.194,0,.39,0,.585" transform="translate(-5.024 -88.304)" fill="#313a8d"/>
  <path id="Path_1210" data-name="Path 1210" d="M29.366,104.416c0,.205.014.412,0,.616a.435.435,0,0,1-.451.423.419.419,0,0,1-.491-.373,8.279,8.279,0,0,1-.006-1.295.431.431,0,0,1,.478-.4.445.445,0,0,1,.472.44c.014.194,0,.389,0,.584h0" transform="translate(-5.87 -88.305)" fill="#313a8d"/>
  <path id="Path_1211" data-name="Path 1211" d="M17.352,115.785a1.519,1.519,0,0,1-1.489-1.374.509.509,0,0,1,.412-.6c.281-.049.481.109.563.445.089.361.283.57.549.543a.554.554,0,0,0,.524-.528.478.478,0,0,1,.587-.456c.282.057.417.275.381.618a1.5,1.5,0,0,1-1.527,1.356" transform="translate(-3.422 -90.339)" fill="#313a8d"/>
  <path id="Path_1212" data-name="Path 1212" d="M15.279,111.825c0-.163-.009-.327,0-.49a.447.447,0,0,1,.461-.455.44.44,0,0,1,.5.413,6.076,6.076,0,0,1,0,1.109.437.437,0,0,1-.5.406.447.447,0,0,1-.455-.46c-.01-.173,0-.348,0-.522" transform="translate(-3.308 -89.769)" fill="#313a8d"/>
  <path id="Path_1213" data-name="Path 1213" d="M19.768,111.842c0,.174.011.349,0,.522a.439.439,0,0,1-.436.442.433.433,0,0,1-.515-.39,5.788,5.788,0,0,1,0-1.139.435.435,0,0,1,.511-.4.44.44,0,0,1,.441.439c.013.173,0,.348,0,.522" transform="translate(-3.993 -89.768)" fill="#313a8d"/>
</svg>
