<svg id="Group_972" data-name="Group 972" xmlns="http://www.w3.org/2000/svg" width="28.952" height="28.966" viewBox="0 0 28.952 28.966">
  <path id="Path_1175" data-name="Path 1175" d="M664,177.456a.441.441,0,0,0-.132-.131,4.663,4.663,0,0,0-4.676-1.033c-.019,0-.019,0-.019.019l-.038-.037-12.77-12.752a4.841,4.841,0,0,0-1.146-4.846,4.969,4.969,0,0,0-5.784-.77l-.095.038-.262.376a.478.478,0,0,0,.112.657l1.991,1.371a1.318,1.318,0,0,1,.62.939,1.79,1.79,0,0,1-.376,1.22,1.831,1.831,0,0,1-1.033.788,1.343,1.343,0,0,1-1.089-.281l-1.991-1.427-.187-.112-.376.094-.3.451-.038.131a5,5,0,0,0,1.3,4,4.631,4.631,0,0,0,4.808,1.165c.019,0,.037,0,.037-.019,0,.019.019.019.019.037l12.77,12.751a4.837,4.837,0,0,0,1.146,4.846,4.721,4.721,0,0,0,3.38,1.352,5.167,5.167,0,0,0,2.4-.582l.095-.038.281-.394.094-.188-.094-.356-2.122-1.465a1.319,1.319,0,0,1-.62-.958,1.7,1.7,0,0,1,.394-1.2,1.81,1.81,0,0,1,1.014-.789,1.351,1.351,0,0,1,1.09.282l1.971,1.427a.5.5,0,0,0,.357.076.513.513,0,0,0,.32-.188l.207-.32.037-.131a4.98,4.98,0,0,0-1.3-4m-7.869,2.836a.74.74,0,0,0-.188-.752l-12.789-12.79a.814.814,0,0,0-.582-.262,1.456,1.456,0,0,0-.282.037,3.858,3.858,0,0,1-3.981-.92,4.268,4.268,0,0,1-1.108-3.1l1.634,1.164a2.076,2.076,0,0,0,1.747.413,2.566,2.566,0,0,0,1.5-1.108,2.641,2.641,0,0,0,.544-1.766,2.108,2.108,0,0,0-.977-1.521L640,158.545a4.109,4.109,0,0,1,4.639.713,4.018,4.018,0,0,1,.939,4.057.783.783,0,0,0,.188.751l12.79,12.79a.818.818,0,0,0,.864.225,3.855,3.855,0,0,1,3.888.827l.093.094a4.241,4.241,0,0,1,1.109,3.1l-1.616-1.164a2.131,2.131,0,0,0-1.765-.413,2.612,2.612,0,0,0-1.5,1.089,2.718,2.718,0,0,0-.545,1.784,2.108,2.108,0,0,0,.977,1.521l1.652,1.145a4.113,4.113,0,0,1-4.638-.713,4.014,4.014,0,0,1-.939-4.056" transform="translate(-636.378 -157.317)" fill="#11256f"/>
  <path id="Path_1176" data-name="Path 1176" d="M667.011,186.668l-.075.094c-.095.095-.188.188-.282.3l-.094.075-.6-.507.075-.094a1.641,1.641,0,0,1,.338-.376l.094-.075Z" transform="translate(-641.844 -162.634)" fill="#11256f"/>
  <path id="Path_1177" data-name="Path 1177" d="M642.224,163.191l-.075.094a1.561,1.561,0,0,1-.3.32l-.094.094-.545-.582.075-.094c.075-.094.17-.17.245-.263l.094-.075Z" transform="translate(-637.271 -158.309)" fill="#11256f"/>
  <path id="Path_1178" data-name="Path 1178" d="M667.4,169.647a.983.983,0,0,0-.884-.822c-.246-.02-.492-.02-.739-.03a4.994,4.994,0,0,1-1.3-.134s-.093-.041-.165-.4a6.734,6.734,0,0,0-.76-1.88l-.092-.185a.934.934,0,0,1-.144-.338,5.059,5.059,0,0,1,.832-1.027l.031-.021c.154-.174.318-.339.461-.514a.96.96,0,0,0,.052-1.2,13.668,13.668,0,0,0-1.284-1.479,14.562,14.562,0,0,0-1.48-1.284.988.988,0,0,0-1.212.041c-.184.165-.359.329-.534.5a4.64,4.64,0,0,1-1.017.823h-.011a1.14,1.14,0,0,1-.277-.113l-.185-.092c-.154-.062-.4-.165-.7-.278a14.637,14.637,0,0,1-1.653-.708,4.7,4.7,0,0,1-.123-1.273c-.011-.247-.011-.483-.031-.73a.974.974,0,0,0-.822-.893,13.79,13.79,0,0,0-3.9,0,.992.992,0,0,0-.822.893c-.02.236-.02.483-.031.73a4.912,4.912,0,0,1-.134,1.3c-.03.061-.267.123-.349.143l-.082.031c-.164.042-.339.093-.545.164l-.308.114.042.329a5.07,5.07,0,0,1-.1,1.715l-.051.226.154.154c.523.534,1.037,1.068,1.561,1.6l.185.185.246-.082a6.848,6.848,0,0,1,8.741,8.741l-.093.247,1.849,1.848.226-.041a5.681,5.681,0,0,1,1.767-.123l.318.031.1-.309c.062-.184.113-.359.165-.523l.031-.1c.03-.1.092-.319.143-.339a4.59,4.59,0,0,1,1.315-.143h.061c.216-.011.442-.011.668-.031a.972.972,0,0,0,.884-.822,13.343,13.343,0,0,0,0-3.9m-8.474-3.492a7.7,7.7,0,0,0-7.724-1.89L649.973,163a5.676,5.676,0,0,0,.1-1.449c.062-.02.123-.041.195-.061l.082-.021a1.184,1.184,0,0,0,.893-.667,5.106,5.106,0,0,0,.185-1.562q0-.339.031-.677a.153.153,0,0,1,.112-.143,13.748,13.748,0,0,1,3.677,0,.156.156,0,0,1,.113.143q.03.339.031.677a5.056,5.056,0,0,0,.184,1.562c.124.359.647.606,2.137,1.18l.072.032c.236.092.442.164.576.225a.863.863,0,0,0,.1.052l.031.02a1.144,1.144,0,0,0,1.027.123,5.575,5.575,0,0,0,1.233-.976c.154-.154.329-.319.493-.462a.174.174,0,0,1,.184-.02,14.086,14.086,0,0,1,1.387,1.212,11.963,11.963,0,0,1,1.212,1.4.156.156,0,0,1-.01.174c-.155.174-.308.339-.473.5a5.389,5.389,0,0,0-.966,1.232,1.127,1.127,0,0,0,.154,1.089l.093.174a6.273,6.273,0,0,1,.678,1.654,1.233,1.233,0,0,0,.708,1.017,5.026,5.026,0,0,0,1.551.185c.226,0,.461.011.688.031a.133.133,0,0,1,.133.113,12.707,12.707,0,0,1,0,3.677.152.152,0,0,1-.133.123c-.227.011-.462.021-.688.021a5.026,5.026,0,0,0-1.551.185,1.17,1.17,0,0,0-.668.883l-.092.3a7.028,7.028,0,0,0-1.469.112l-1.171-1.171a7.716,7.716,0,0,0-1.89-7.735" transform="translate(-638.725 -157.345)" fill="#11256f"/>
  <path id="Path_1179" data-name="Path 1179" d="M654.974,183.152l.1-.421-1.911-1.93-.246.082a6.849,6.849,0,0,1-8.608-8.617l.072-.236-1.181-1.171a2.281,2.281,0,0,1-.257-.267c-.072-.082-.144-.154-.215-.236a1.164,1.164,0,0,0-.257-.195l-.123-.072-.134.01c-.144.02-.278.041-.421.051a5.738,5.738,0,0,1-1.376.093l-.319-.031-.1.3c-.061.174-.112.349-.165.514l-.041.1a.8.8,0,0,1-.134.339,4.98,4.98,0,0,1-1.3.134c-.246.01-.493.01-.739.031a.972.972,0,0,0-.884.821,13.922,13.922,0,0,0-.143,1.952,14.143,14.143,0,0,0,.143,1.952.972.972,0,0,0,.884.821c.246.021.493.021.729.032a5,5,0,0,1,1.314.133c.073.031.144.329.165.421a8.636,8.636,0,0,0,.8,1.941l.061.113a1.128,1.128,0,0,1,.134.329,5.08,5.08,0,0,1-.831,1.027c-.165.174-.329.349-.493.534a.988.988,0,0,0-.051,1.2,13.42,13.42,0,0,0,1.284,1.48,16.123,16.123,0,0,0,1.479,1.295,1,1,0,0,0,1.212-.052c.175-.154.339-.308.5-.472l.042-.031a4.4,4.4,0,0,1,1.017-.822c.072-.031.308.112.421.185a9.6,9.6,0,0,0,1.93.8l.1.031a1.011,1.011,0,0,1,.349.144,4.931,4.931,0,0,1,.134,1.3c0,.246.01.493.031.729a.971.971,0,0,0,.821.893,14.31,14.31,0,0,0,3.9,0,.972.972,0,0,0,.822-.893c.021-.215.021-.441.031-.668v-.051a4.583,4.583,0,0,1,.144-1.314c.02-.073.318-.144.421-.165.174-.051.36-.1.534-.165l.308-.113-.041-.329a4.543,4.543,0,0,1-.011-.915,2.387,2.387,0,0,1,.093-.626m-6.091,4.427a.163.163,0,0,1-.123-.134c-.011-.215-.02-.431-.02-.646v-.051a5.029,5.029,0,0,0-.185-1.551,1.185,1.185,0,0,0-.893-.668l-.082-.02a8.956,8.956,0,0,1-1.808-.761,1.643,1.643,0,0,0-.78-.267.889.889,0,0,0-.37.082,5.419,5.419,0,0,0-1.233.975c-.165.155-.339.319-.5.463a.177.177,0,0,1-.185.02,14.068,14.068,0,0,1-1.387-1.212,11.165,11.165,0,0,1-1.212-1.4.156.156,0,0,1,.011-.175c.154-.174.308-.338.472-.5a5.366,5.366,0,0,0,.966-1.233,1.158,1.158,0,0,0-.144-1.089l-.061-.092a8.545,8.545,0,0,1-.73-1.767,1.215,1.215,0,0,0-.7-.986,5.045,5.045,0,0,0-1.551-.185h-.051c-.216,0-.421-.01-.637-.02-.062-.01-.134-.062-.134-.123a12.707,12.707,0,0,1,0-3.677.134.134,0,0,1,.134-.113c.226-.02.462-.03.7-.03a4.993,4.993,0,0,0,1.541-.185,1.123,1.123,0,0,0,.668-.884l.031-.092c.02-.061.041-.123.062-.2a6.376,6.376,0,0,0,1.191-.092l.042-.01.236-.031.021.02c.051.051.1.1.164.174a2.243,2.243,0,0,0,.339.35l.791.78a7.66,7.66,0,0,0,9.47,9.481l1.243,1.253a2.8,2.8,0,0,0-.113.77,5.219,5.219,0,0,0-.01.7.934.934,0,0,1-.165.041c-.308.082-.831.205-1,.7a5.133,5.133,0,0,0-.185,1.561c0,.226-.011.452-.031.688a.142.142,0,0,1-.112.134,12.986,12.986,0,0,1-3.677,0" transform="translate(-636.416 -159.677)" fill="#11256f"/>
</svg>
