<svg id="Group_971" data-name="Group 971" xmlns="http://www.w3.org/2000/svg" width="35.929" height="30.249" viewBox="0 0 29.801 28.249">
  <path id="Path_1180" data-name="Path 1180" d="M335.211,39.772a.171.171,0,0,0,0-.043V21.95h5.941V39.729a.338.338,0,0,0,0,.043Zm-19.338,0a.338.338,0,0,0,0-.043V21.95h5.941V39.729a.224.224,0,0,0,0,.043Zm27.174,0h-.758a.338.338,0,0,0,0-.043V21.288a.484.484,0,0,0-.548-.475h-6.529v-4.74c0-.308-.24-.442-.548-.442h-1.347v1.011h.758V39.729a.338.338,0,0,0,0,.043H322.951a.229.229,0,0,0,0-.043V16.641h1.137V15.63h-1.72c-.307,0-.555.134-.555.442v4.74h-6.523a.491.491,0,0,0-.556.475V39.729a.171.171,0,0,0,0,.043h-.379a.569.569,0,0,0,0,1.138h28.685a.569.569,0,0,0,0-1.138" transform="translate(-313.805 -12.661)" fill="#11256f"/>
  <path id="Path_1181" data-name="Path 1181" d="M328.91,25.234h2.275V23.086H328.91Zm2.817,1.138h-3.353a.635.635,0,0,1-.6-.6V22.417c0-.309.294-.469.6-.469h3.353c.308,0,.6.16.6.469V25.77a.63.63,0,0,1-.6.6" transform="translate(-315.337 -13.354)" fill="#11256f"/>
  <path id="Path_1182" data-name="Path 1182" d="M329.528,18.235h1.138v-.974a.536.536,0,0,1,.548-.542h1.347V15.328h-1.347c-.309,0-.548-.367-.548-.675V13.433h-1.138v1.221c0,.308-.24.675-.549.675h-1.347v1.391h1.347a.536.536,0,0,1,.549.542Zm1.686,1.138h-2.236a.642.642,0,0,1-.589-.622v-.895h-1.274a.648.648,0,0,1-.621-.595V14.653c0-.309.313-.463.621-.463h1.274v-1.4a.535.535,0,0,1,.589-.5h2.236a.535.535,0,0,1,.589.5v1.4h1.274a.433.433,0,0,1,.5.463v2.608a.541.541,0,0,1-.5.595H331.8v.895a.642.642,0,0,1-.589.622" transform="translate(-315.197 -12.295)" fill="#11256f"/>
  <path id="Path_1183" data-name="Path 1183" d="M328.91,38.752h2.275v-1.9H328.91Zm2.817,1.011h-3.353a.6.6,0,0,1-.6-.562V36.221a.553.553,0,0,1,.6-.5h3.353a.547.547,0,0,1,.6.5V39.2a.6.6,0,0,1-.6.562" transform="translate(-315.337 -14.864)" fill="#11256f"/>
  <path id="Path_1184" data-name="Path 1184" d="M328.91,31.906h2.275V29.758H328.91Zm2.817,1.138h-3.353a.618.618,0,0,1-.6-.582V29.109a.543.543,0,0,1,.6-.489h3.353a.537.537,0,0,1,.6.489v3.353a.612.612,0,0,1-.6.582" transform="translate(-315.337 -14.086)" fill="#11256f"/>
  <path id="Path_1185" data-name="Path 1185" d="M341.936,28.122h-2.05a.569.569,0,0,1,0-1.138H341.3V25.089h-1.413a.509.509,0,1,1,0-1.012h2.05c.308,0,.5.128.5.436v2.981a.577.577,0,0,1-.5.628" transform="translate(-316.604 -13.587)" fill="#11256f"/>
  <path id="Path_1186" data-name="Path 1186" d="M341.936,41.467h-2.05a.569.569,0,0,1,0-1.138H341.3V38.56h-1.413a.569.569,0,0,1,0-1.138h2.05a.447.447,0,0,1,.5.475v2.981a.54.54,0,0,1-.5.589" transform="translate(-316.604 -15.051)" fill="#11256f"/>
  <path id="Path_1187" data-name="Path 1187" d="M341.936,34.748h-2.05a.569.569,0,0,1,0-1.138H341.3V31.462h-1.413a.569.569,0,0,1,0-1.138h2.05c.308,0,.5.154.5.462v3.353a.558.558,0,0,1-.5.609" transform="translate(-316.604 -14.272)" fill="#11256f"/>
  <path id="Path_1188" data-name="Path 1188" d="M320.749,28.122h-2.422a.691.691,0,0,1-.635-.628V24.513c0-.308.327-.436.635-.436h2.422a.509.509,0,1,1,0,1.012h-1.92v1.895h1.92a.569.569,0,0,1,0,1.138" transform="translate(-314.231 -13.587)" fill="#11256f"/>
  <path id="Path_1189" data-name="Path 1189" d="M320.377,41.467h-2.049a.655.655,0,0,1-.636-.589V37.9c0-.308.327-.475.636-.475h2.049a.569.569,0,0,1,0,1.138h-1.546v1.769h1.546a.569.569,0,0,1,0,1.138" transform="translate(-314.231 -15.051)" fill="#11256f"/>
  <path id="Path_1190" data-name="Path 1190" d="M320.377,34.748h-2.049a.673.673,0,0,1-.636-.609V30.786c0-.308.327-.462.636-.462h2.421a.569.569,0,0,1,0,1.138h-1.919V33.61h1.546a.569.569,0,0,1,0,1.138" transform="translate(-314.231 -14.272)" fill="#11256f"/>
</svg>
