<svg xmlns="http://www.w3.org/2000/svg" width="35.176" height="21.539" viewBox="0 0 35.176 21.539">
  <g id="Group_973" data-name="Group 973" transform="translate(0.001)">
    <path id="Path_1226" data-name="Path 1226" d="M662.864,102.944l-.055-.05H645.423v13.04h17.49v-12.99Zm-.447,12.493h-16.5V103.39h16.5Z" transform="translate(-636.548 -94.66)" fill="#11256f"/>
    <path id="Path_1227" data-name="Path 1227" d="M662.864,102.944l-.055-.05H645.423v13.04h17.49v-12.99Zm-.447,12.493h-16.5V103.39h16.5Z" transform="translate(-636.548 -94.66)" fill="none" stroke="#11256f" stroke-miterlimit="10" stroke-width="0.53"/>
    <path id="Path_1228" data-name="Path 1228" d="M663.4,103.448H644.946l9.224-8.431Zm-17.171-.5h15.893l-7.947-7.263Z" transform="translate(-636.548 -94.66)" fill="#11256f"/>
    <path id="Path_1229" data-name="Path 1229" d="M664.077,103.713H644.262l9.907-9.053Zm-17.171-1.026h14.528l-7.265-6.638Z" transform="translate(-636.548 -94.66)" fill="#11256f"/>
    <rect id="Rectangle_440" data-name="Rectangle 440" width="16.898" height="0.496" transform="translate(9.137 10.366)" fill="#11256f"/>
    <rect id="Rectangle_441" data-name="Rectangle 441" width="17.429" height="1.024" transform="translate(8.871 10.102)" fill="#11256f"/>
    <path id="Path_1230" data-name="Path 1230" d="M656.437,115.91H651.4v-5.067a2.517,2.517,0,1,1,5.034,0Zm-4.538-.5h4.042v-4.571a2.021,2.021,0,1,0-4.042,0Z" transform="translate(-636.548 -94.66)" fill="#11256f"/>
    <path id="Path_1231" data-name="Path 1231" d="M656.7,116.176h-5.564v-5.332a2.782,2.782,0,0,1,5.564,0Zm-4.538-1.026h3.512v-4.306a1.756,1.756,0,1,0-3.512,0Z" transform="translate(-636.548 -94.66)" fill="#11256f"/>
    <path id="Path_1232" data-name="Path 1232" d="M662.318,102.959l.1,10.464,9.04.01V102.959Zm8.643,9.978-2.233,0h-3.672l-2.148,0-.089-9.447v-.025h8.142Z" transform="translate(-636.548 -94.66)" fill="#11256f"/>
    <path id="Path_1233" data-name="Path 1233" d="M662.318,102.959l.1,10.464,9.04.01V102.959Zm8.643,9.978-2.233,0h-3.672l-2.148,0-.089-9.447v-.025h8.142Z" transform="translate(-636.548 -94.66)" fill="none" stroke="#11256f" stroke-miterlimit="10" stroke-width="0.53"/>
    <path id="Path_1234" data-name="Path 1234" d="M666.893,106.968a2.017,2.017,0,0,0-1.836,2.153v4.3h3.672v-4.3a2.017,2.017,0,0,0-1.836-2.153m-1.34,2.153a1.37,1.37,0,1,1,2.679,0v3.8h-2.679Z" transform="translate(-636.548 -94.66)" fill="#11256f"/>
    <path id="Path_1235" data-name="Path 1235" d="M666.893,106.968a2.017,2.017,0,0,0-1.836,2.153v4.3h3.672v-4.3A2.017,2.017,0,0,0,666.893,106.968Zm-1.34,2.153a1.37,1.37,0,1,1,2.679,0v3.8h-2.679Z" transform="translate(-636.548 -94.66)" fill="none" stroke="#11256f" stroke-miterlimit="10" stroke-width="0.53"/>
    <path id="Path_1236" data-name="Path 1236" d="M671.412,102.959l-2.466-7.234-14.706.054,7.785,7.115.044.04h-.5l.018.017.009.01c.041.049.724.519.724.519h.591l8.048-.01h.5v-.377Zm-8.5-.015h-.05l-.054-.05-7.2-6.589,12.955-.044,2.278,6.673Z" transform="translate(-636.548 -94.66)" fill="#11256f"/>
    <path id="Path_1237" data-name="Path 1237" d="M662.914,103.744h-.675l-.068-.047a6.348,6.348,0,0,1-.774-.561l-.006-.008-.441-.441.441-.013-7.83-7.157,15.573-.058,2.589,7.633v.642Zm-.509-.53,8.788-.016-8.43.01-.095-.085.039.036-.352.02a.5.5,0,0,0,.05.035M668.753,96l2.44,7.149-.031-.1-2.4-7.054-13.839.053,7.042,6.434-7.029-6.434Zm-5.848,6.9.009.045v-.056Zm-6.617-6.33,6.677,6.11,7.506-.01-2.094-6.143Z" transform="translate(-636.548 -94.66)" fill="#11256f"/>
    <path id="Path_1238" data-name="Path 1238" d="M636.812,102.959v10.474l9.04-.01.1-10.464Zm.5.5h8.142v.025l-.089,9.447-2.148,0h-3.672l-2.233,0Z" transform="translate(-636.548 -94.66)" fill="#11256f"/>
    <path id="Path_1239" data-name="Path 1239" d="M636.812,102.959v10.474l9.04-.01.1-10.464Zm.5.5h8.142v.025l-.089,9.447-2.148,0h-3.672l-2.233,0Z" transform="translate(-636.548 -94.66)" fill="none" stroke="#11256f" stroke-miterlimit="10" stroke-width="0.53"/>
    <path id="Path_1240" data-name="Path 1240" d="M639.541,109.121v4.3h3.672v-4.3a1.859,1.859,0,1,0-3.672,0m3.176,3.8h-2.679v-3.8a1.37,1.37,0,1,1,2.679,0Z" transform="translate(-636.548 -94.66)" fill="#11256f"/>
    <path id="Path_1241" data-name="Path 1241" d="M639.541,109.121v4.3h3.672v-4.3a1.859,1.859,0,1,0-3.672,0Zm3.176,3.8h-2.679v-3.8a1.37,1.37,0,1,1,2.679,0Z" transform="translate(-636.548 -94.66)" fill="none" stroke="#11256f" stroke-miterlimit="10" stroke-width="0.53"/>
    <path id="Path_1242" data-name="Path 1242" d="M636.812,103.093v.377h.5l8.048.01h.59s.684-.47.725-.519l.009-.01.018-.017h-.5l.045-.04,7.785-7.115-14.707-.054-2.466,7.234Zm.615-.159L639.7,96.26l12.956.045-7.2,6.589-.054.05h-.05Z" transform="translate(-636.548 -94.66)" fill="#11256f"/>
    <path id="Path_1243" data-name="Path 1243" d="M646.029,103.744l-9.481-.01.013-.722.043-.135,2.531-7.418h.188l15.385.058-7.824,7.151h.61l-.62.468a6.346,6.346,0,0,1-.778.562Zm-8.951-.54,8.786.01.025-.016Zm0-.07v0L639.518,96h.188l13.634.047-6.524,5.97,6.534-5.97-13.839-.054Zm.72-.466,7.505.01,6.68-6.11-12.089-.044Z" transform="translate(-636.548 -94.66)" fill="#11256f"/>
  </g>
</svg>
