<svg xmlns="http://www.w3.org/2000/svg" width="72" height="23.664" viewBox="0 0 72 23.664">
  <g id="M2k" transform="translate(0)">
    <g id="Group_669" data-name="Group 669" transform="translate(0 0)">
      <path id="Path_1051" data-name="Path 1051" d="M242.364,263.664h7.924l3.06,11.763,3.045-11.763h7.9V283h-4.92V268.255L255.554,283H251.1l-3.8-14.743V283h-4.933V263.664ZM283.1,283H266.855a10.047,10.047,0,0,1,1.7-4.493,22.815,22.815,0,0,1,5.31-4.965,15.8,15.8,0,0,0,3.045-2.661,2.969,2.969,0,0,0,.667-1.728,2.028,2.028,0,0,0-.658-1.513,2.527,2.527,0,0,0-3.355.022,3.974,3.974,0,0,0-.885,2.282l-5.423-.436a8.539,8.539,0,0,1,1.171-3.543,5.4,5.4,0,0,1,2.4-1.949,10.882,10.882,0,0,1,4.289-.68,12.3,12.3,0,0,1,4.448.644,5.4,5.4,0,0,1,2.5,1.985,5.224,5.224,0,0,1,.912,3,6.115,6.115,0,0,1-1.044,3.376,14.262,14.262,0,0,1-3.794,3.534c-1.094.747-1.82,1.269-2.188,1.57s-.8.689-1.3,1.171H283.1V283Zm3.217-19.335h6.023v7.306l6.318-7.306h8.006l-7.1,7.293L306.986,283h-7.42l-4.108-7.955-3.113,3.233V283h-6.023Z" transform="translate(-242.364 -259.335)" fill="#fff" fill-rule="evenodd"/>
      <path id="Path_1054" data-name="Path 1054" d="M382.389,257.625a2.652,2.652,0,0,1,1.273.335,2.38,2.38,0,0,1,.968.957,2.6,2.6,0,0,1,0,2.587,2.4,2.4,0,0,1-.957.959,2.6,2.6,0,0,1-2.578,0,2.4,2.4,0,0,1-.959-.959,2.589,2.589,0,0,1,0-2.587,2.4,2.4,0,0,1,.97-.957,2.653,2.653,0,0,1,1.274-.335Zm0,.429a2.213,2.213,0,0,0-1.064.28,2,2,0,0,0-.808.8,2.15,2.15,0,0,0,0,2.155,2.035,2.035,0,0,0,.8.8,2.159,2.159,0,0,0,2.15,0,2.023,2.023,0,0,0,.8-.8,2.174,2.174,0,0,0,.285-1.073,2.2,2.2,0,0,0-.29-1.082,1.994,1.994,0,0,0-.809-.8,2.214,2.214,0,0,0-1.061-.28Zm-1.138,3.592h.45v-1.181h.265a.572.572,0,0,1,.36.094,2.213,2.213,0,0,1,.472.649l.249.438h.546l-.34-.545a3.123,3.123,0,0,0-.412-.552.752.752,0,0,0-.237-.148.865.865,0,0,0,.58-.254.738.738,0,0,0,.219-.531.715.715,0,0,0-.13-.408.688.688,0,0,0-.352-.269,2.35,2.35,0,0,0-.711-.077h-.959v2.783Zm.45-1.567h.546a.887.887,0,0,0,.535-.116.4.4,0,0,0,.074-.527.4.4,0,0,0-.19-.145,1.425,1.425,0,0,0-.452-.048H381.7Z" transform="translate(-312.976 -257.625)" fill="#fff" fill-rule="evenodd"/>
    </g>
  </g>
</svg>
