<svg xmlns="http://www.w3.org/2000/svg" width="29.522" height="29.286" viewBox="0 0 29.522 29.286">
  <path id="Path_1247" data-name="Path 1247" d="M666.381,30.539h-.359l0,0V29.083a.352.352,0,0,0-.353-.352h-1.259l-3.443-3.591v0l.008-4.648,0,0h2.246a.486.486,0,0,0,.094-.012.208.208,0,0,0,.067-.03l.333-.239a.2.2,0,0,0,.041-.28l-1.915-2.57-.114-.152a.058.058,0,0,0-.047-.024c-.145,0-.783-.005-.794-.005h0L647.062,11.9c0-.023,0-.046,0-.069a.344.344,0,0,0-.073-.191.307.307,0,0,0-.267-.1l-.816,0-.817,0a.306.306,0,0,0-.266.1.337.337,0,0,0-.073.191q-.133,2.666-.266,5.333l0,0H641.72l0,0v-.253a.528.528,0,0,0-.528-.528h-3a.528.528,0,0,0-.528.528V21a.528.528,0,0,0,.528.528h3a.528.528,0,0,0,.527-.528v-.51l0,0h2.657l0,0-.084,2.183v.024l-.571,14.839,0,0h-.452a1.575,1.575,0,0,0-1.576,1.575V40.64a.188.188,0,0,0,.188.188h.988a.5.5,0,0,0,.5-.491.483.483,0,0,0-.483-.475h-.077a.051.051,0,0,1-.05-.05v-.629a.655.655,0,0,1,.656-.656H649.1a.656.656,0,0,1,.656.655v.63a.051.051,0,0,1-.051.05h-4.889a.5.5,0,0,0-.5.491.483.483,0,0,0,.483.475h5.526a.189.189,0,0,0,.189-.189v-1.6a1.5,1.5,0,0,0-1.505-1.5h-.9l0,0-.476-12.385v-.021l-.179-4.64,0,0H649.8l0,0v2.38a.863.863,0,0,0,.863.864H654.9a.863.863,0,0,0,.863-.863v-2.38l0,0h4.28l0,0v4.655l-3.586,3.587h-1.413a.35.35,0,0,0-.351.35v1.44l0,0h-.531a.8.8,0,0,0-.8.8v1.162a.8.8,0,0,0,.8.8h.986a.471.471,0,0,0,.476-.429.459.459,0,0,0-.457-.488h-.443a.463.463,0,0,1-.47-.421.447.447,0,0,1,.446-.47h.249a.353.353,0,0,0,.1.013h9.866v0h.926a.442.442,0,0,1,.141.862h0a.1.1,0,0,0-.029,0H656.64a.207.207,0,0,0-.207.206v.534a.21.21,0,0,0,.21.21h9.739a.8.8,0,0,0,.8-.8V31.339a.8.8,0,0,0-.8-.8M640.7,20.106a.486.486,0,0,1-.486.486h-1.25a.486.486,0,0,1-.486-.486V17.743a.486.486,0,0,1,.486-.486h1.25a.486.486,0,0,1,.486.486Zm22.4,8.625h-2.125l0,0-.014-2.341.005,0,2.14,2.341,0,.005M645.462,12.692a.406.406,0,0,1,.071-.2.424.424,0,0,1,.235-.154l.043-.01a.205.205,0,0,1,.033,0h0l.018,0h.072l.018,0h0a.2.2,0,0,1,.032,0l.043.01h0a.427.427,0,0,1,.235.154.407.407,0,0,1,.071.2q.051,2.239.1,4.477l0,0h-1.081l0,0q.052-2.239.1-4.477m1.059,7.649,0,0,.122,0-.121.121v.03H646.5l-1.237,1.237-.005,0,.048-1.232,0,0H646.5l.03-.03Zm.131,3.541-1.191-1.19v0l1.1-1.1,0,0,.088,2.293,0,0m-.118,1.057L645.078,26.4l-.005,0,.108-2.8.005,0,1.347,1.348v0m.206,1.1.115,3.012-.005,0-1.563-1.564v0l1.448-1.449.005,0m-.2,4.01-1.666,1.666-.005,0,.123-3.209.005,0,1.543,1.543v0m.389.919.127,3.305-.005,0-1.716-1.716v0l1.589-1.589.005,0m-.348,4.144-1.912,1.912,0,0,.141-3.682.005,0,1.77,1.77v0m-1.113,2.416,1.645-1.645.005,0,.063,1.645,0,0H645.47l0-.005M654.758,22.2a.492.492,0,0,1-.492.492h-2.883a.491.491,0,0,1-.491-.491v-1.3a.49.49,0,0,1,.221-.41h3.425a.49.49,0,0,1,.221.41Zm-13.041-2.637V18.1l0,0h8.961a.2.2,0,0,0,.2-.2v-.515a.2.2,0,0,0-.2-.2h-3.354l0,0q-.107-2.127-.212-4.255l0,0,11.168,4.256v.005h-6.512a.2.2,0,0,0-.2.2v.515a.2.2,0,0,0,.2.2h9.471l1.092,1.465,0,0H641.72l0,0m18.333,6.89v2.276l0,0h-2.276l0-.005,2.276-2.276,0,0m5.1,3.931a.19.19,0,0,1-.08.156.182.182,0,0,1-.114.038H655.79a.2.2,0,0,1-.2-.2v-.5a.2.2,0,0,1,.2-.2h9.16a.2.2,0,0,1,.2.2Z" transform="translate(-637.659 -11.543)" fill="#11256f"/>
</svg>
