<svg xmlns="http://www.w3.org/2000/svg" width="121.986" height="40.484" viewBox="0 0 121.986 40.484">
  <g id="Group_1400" data-name="Group 1400" transform="translate(0.502 0.5)">
    <g id="Group_1399" data-name="Group 1399" transform="translate(0 0)">
      <path id="Union_8" data-name="Union 8" d="M-11731.688,3109.254a1.629,1.629,0,0,1-.66-.471,2.317,2.317,0,0,1-.426-.746,3.163,3.163,0,0,1-.147-.938,3.453,3.453,0,0,1,.147-.959,2.43,2.43,0,0,1,.426-.725,1.825,1.825,0,0,1,.66-.488,1.981,1.981,0,0,1,.876-.172,1.988,1.988,0,0,1,.894.172,1.8,1.8,0,0,1,.663.488,2.041,2.041,0,0,1,.405.725,2.907,2.907,0,0,1,.148.959,2.682,2.682,0,0,1-.148.938,2.38,2.38,0,0,1-.429.746,1.584,1.584,0,0,1-.66.471,1.86,1.86,0,0,1-.853.192A2,2,0,0,1-11731.688,3109.254Zm.258-3.9a1.867,1.867,0,0,0-.491.361,1.839,1.839,0,0,0-.319.577,2.359,2.359,0,0,0-.128.808,2.378,2.378,0,0,0,.128.811,2.446,2.446,0,0,0,.319.574,1.614,1.614,0,0,0,.512.343,1.443,1.443,0,0,0,.618.127,1.427,1.427,0,0,0,.6-.127,1.33,1.33,0,0,0,.488-.343,1.858,1.858,0,0,0,.34-.574,2.391,2.391,0,0,0,.109-.811,2.372,2.372,0,0,0-.109-.808,1.487,1.487,0,0,0-.34-.577,1.374,1.374,0,0,0-.488-.361,1.513,1.513,0,0,0-.619-.106A1.5,1.5,0,0,0-11731.431,3105.354Zm-6.842,3.9a1.606,1.606,0,0,1-.663-.471,2.375,2.375,0,0,1-.427-.746,3.181,3.181,0,0,1-.127-.938,2.809,2.809,0,0,1,.148-.959,2,2,0,0,1,.405-.725,1.8,1.8,0,0,1,.663-.488,1.953,1.953,0,0,1,.872-.172,1.96,1.96,0,0,1,.9.172,1.657,1.657,0,0,1,.659.488,2.474,2.474,0,0,1,.427.725,3.455,3.455,0,0,1,.127.959,2.617,2.617,0,0,1-.147.938,2.328,2.328,0,0,1-.406.746,1.821,1.821,0,0,1-.684.471,1.859,1.859,0,0,1-.852.192A1.975,1.975,0,0,1-11738.272,3109.254Zm.274-3.9a1.719,1.719,0,0,0-.512.361,1.817,1.817,0,0,0-.316.577,2.289,2.289,0,0,0-.131.808,2.307,2.307,0,0,0,.131.811,1.909,1.909,0,0,0,.337.574,1.366,1.366,0,0,0,.491.343,1.454,1.454,0,0,0,.619.127,1.361,1.361,0,0,0,.6-.127,1.647,1.647,0,0,0,.512-.343,2.482,2.482,0,0,0,.319-.574,2.378,2.378,0,0,0,.128-.811,2.359,2.359,0,0,0-.128-.808,1.859,1.859,0,0,0-.319-.577,1.706,1.706,0,0,0-.512-.361,1.452,1.452,0,0,0-.619-.106A1.358,1.358,0,0,0-11738,3105.354Zm-6.288,3.921a1.965,1.965,0,0,1-.746-.447,1.781,1.781,0,0,1-.471-.7,3.035,3.035,0,0,1-.147-.917,2.943,2.943,0,0,1,.171-1.021,2.074,2.074,0,0,1,.488-.77,2.144,2.144,0,0,1,.791-.488,2.5,2.5,0,0,1,1-.172h.3c.106.021.192.021.3.041l.233.044.192.062v.491a2.185,2.185,0,0,0-.467-.106,2.152,2.152,0,0,0-.513-.042,2.159,2.159,0,0,0-.745.106,1.79,1.79,0,0,0-.619.361,1.647,1.647,0,0,0-.426.577,2.168,2.168,0,0,0-.151.852,2.462,2.462,0,0,0,.128.811,1.332,1.332,0,0,0,.385.553,1.545,1.545,0,0,0,.577.34,2.831,2.831,0,0,0,.766.106c.128,0,.255-.021.385-.021.128-.021.234-.044.341-.065v-1.344h-1.045v-.488h1.6v2.172a2.024,2.024,0,0,0-.214.086,3.173,3.173,0,0,1-.319.065c-.106.021-.233.042-.361.065-.15,0-.277.021-.405.021A3.027,3.027,0,0,1-11744.286,3109.275Zm40.57.086v-4.54h2.749v.509h-2.2v1.45h1.962v.512h-1.962v1.557h2.322v.512Zm-5.011,0v-4.543h2.708v.515h-2.154v1.447h1.9v.512h-1.9v2.069Zm-3.22,0v-4.54h.554v4.54Zm-5.138,0v-4.54h.554v4.049h2.217v.491Zm-9.082,0v-4.54h1.045a4.547,4.547,0,0,1,.553.042,2.882,2.882,0,0,1,.491.086,1.735,1.735,0,0,1,.705.32,1.729,1.729,0,0,1,.491.468,2.839,2.839,0,0,1,.3.6,2.863,2.863,0,0,1,.083.746,2.955,2.955,0,0,1-.083.746,3.526,3.526,0,0,1-.3.618,2.246,2.246,0,0,1-.513.491,2.237,2.237,0,0,1-.684.3,3.31,3.31,0,0,1-.491.106c-.168,0-.36.021-.573.021Zm.557-.491h.423a4.67,4.67,0,0,0,.577-.042,1.447,1.447,0,0,0,.447-.086,1.413,1.413,0,0,0,.831-.6,1.836,1.836,0,0,0,.278-1.065,1.8,1.8,0,0,0-.278-1.065,1.487,1.487,0,0,0-.831-.577,2.8,2.8,0,0,0-.447-.083,5.029,5.029,0,0,0-.577-.021h-.423Zm-27.846.491v-4.54h2.731v.509h-2.2v1.45h1.962v.512h-1.962v1.557h2.326v.512Zm-3.24,0v-2.069h-2.364v2.069h-.557v-4.54h.557v1.959h2.364v-1.959h.557v4.54Zm-7.206,0v-4.028h-1.513v-.515h3.561v.515h-1.512v4.028Zm42.041-8.378a4.607,4.607,0,0,1-1.2-.406v-1.344c.236.086.45.169.663.234.233.065.446.127.681.172s.471.062.7.107c.258,0,.512.021.811.021a3.877,3.877,0,0,0,2.622-.79,3.1,3.1,0,0,0,.918-2.43v-1.3h-.045a3.25,3.25,0,0,1-1.213.852,4.013,4.013,0,0,1-1.58.3,4.587,4.587,0,0,1-.873-.106,3.286,3.286,0,0,1-.938-.3,4.056,4.056,0,0,1-.894-.577,3.57,3.57,0,0,1-.77-.915,4.972,4.972,0,0,1-.512-1.3,6.006,6.006,0,0,1-.211-1.725,7.07,7.07,0,0,1,.361-2.347,5.292,5.292,0,0,1,.979-1.663,3.853,3.853,0,0,1,1.388-.959,4.112,4.112,0,0,1,1.6-.32,3.567,3.567,0,0,1,1.106.148,3.45,3.45,0,0,1,.79.385,3.219,3.219,0,0,1,.554.447,2.048,2.048,0,0,1,.258.364h.041l.341-1.11h1.2v10.3a5.12,5.12,0,0,1-.364,1.962,3.858,3.858,0,0,1-1.045,1.364,4.414,4.414,0,0,1-1.6.832,7.912,7.912,0,0,1-2.068.275A8.112,8.112,0,0,1-11721.86,3100.983Zm1.45-13.175a2.611,2.611,0,0,0-.9.787,4.162,4.162,0,0,0-.554,1.193,6.988,6.988,0,0,0-.172,1.557,5.172,5.172,0,0,0,.278,1.876,2.833,2.833,0,0,0,.705,1.131,2.358,2.358,0,0,0,.917.553,3.855,3.855,0,0,0,.959.151,3.281,3.281,0,0,0,1.364-.3,4.072,4.072,0,0,0,1.151-.811v-5.093c-.109-.11-.237-.258-.385-.406a2.51,2.51,0,0,0-.533-.426,2.48,2.48,0,0,0-.725-.344,2.241,2.241,0,0,0-.853-.148A2.857,2.857,0,0,0-11720.41,3087.808Zm20.935,8.378a2.982,2.982,0,0,1-1.023-.618,2.96,2.96,0,0,1-.66-.983,3.617,3.617,0,0,1-.233-1.32,2.843,2.843,0,0,1,.275-1.3,2.527,2.527,0,0,1,.725-.959,3.279,3.279,0,0,1,1.131-.618,4.541,4.541,0,0,1,1.45-.213,7.418,7.418,0,0,1,1.408.127,11.3,11.3,0,0,1,1.148.3h.023v-.66a3.358,3.358,0,0,0-.044-.7,2.07,2.07,0,0,0-.169-.553,2.106,2.106,0,0,0-.855-.811,3.276,3.276,0,0,0-1.577-.32,5.879,5.879,0,0,0-1.385.151,7.25,7.25,0,0,0-1.279.382v-1.344c.148-.062.341-.148.574-.234a5.417,5.417,0,0,1,.705-.169c.233-.044.491-.086.766-.13.278-.021.557-.021.812-.021a4.992,4.992,0,0,1,2.409.512,3.014,3.014,0,0,1,1.343,1.385,2.4,2.4,0,0,1,.214.7,3.772,3.772,0,0,1,.085.873v6.481h-1.343l-.172-1.086h-.042a2.122,2.122,0,0,1-.491.491,3.208,3.208,0,0,1-.681.426,4.557,4.557,0,0,1-.852.32,4.749,4.749,0,0,1-.982.106A3.54,3.54,0,0,1-11699.476,3096.186Zm.32-4.244a1.552,1.552,0,0,0-.574,1.323,1.853,1.853,0,0,0,.147.787,1.307,1.307,0,0,0,.385.556,1.478,1.478,0,0,0,.6.32,2.029,2.029,0,0,0,.723.127,3.4,3.4,0,0,0,.938-.148,5.83,5.83,0,0,0,.791-.364,4.423,4.423,0,0,0,.574-.406,2.6,2.6,0,0,0,.343-.32v-1.941a8.894,8.894,0,0,0-1.027-.234,8.228,8.228,0,0,0-1.319-.127A2.614,2.614,0,0,0-11699.155,3091.942Zm-38.12,4.264a2.723,2.723,0,0,1-.936-.553,2.475,2.475,0,0,1-.557-.832,3.807,3.807,0,0,1-.171-1.13v-5.907h-1.874v-1.364h1.874v-2.643h1.58v2.643h2.9v1.364h-2.9v5.673a1.91,1.91,0,0,0,.106.615.9.9,0,0,0,.3.491,1.378,1.378,0,0,0,.533.343,2.911,2.911,0,0,0,.79.1c.213,0,.426-.021.659-.042.237-.041.45-.086.663-.127v1.32a4.072,4.072,0,0,1-.618.151,6.957,6.957,0,0,1-1,.086A4.276,4.276,0,0,1-11737.275,3096.206Zm-26.285-.021a2.857,2.857,0,0,1-1-.618,2.458,2.458,0,0,1-.663-.983,3.234,3.234,0,0,1-.233-1.32,3.179,3.179,0,0,1,.255-1.3,2.527,2.527,0,0,1,.725-.959,3.306,3.306,0,0,1,1.131-.618,4.541,4.541,0,0,1,1.45-.213,7.418,7.418,0,0,1,1.408.127,11.3,11.3,0,0,1,1.148.3h.044v-.66a3.219,3.219,0,0,0-.064-.7,2.07,2.07,0,0,0-.169-.553,2.106,2.106,0,0,0-.855-.811,3.276,3.276,0,0,0-1.577-.32,5.607,5.607,0,0,0-1.364.151,6.937,6.937,0,0,0-1.3.382v-1.344c.147-.062.36-.148.576-.234a5.257,5.257,0,0,1,.7-.169c.233-.044.491-.086.767-.13.277-.021.556-.021.831-.021a4.9,4.9,0,0,1,2.389.512,3.055,3.055,0,0,1,1.364,1.385,3.293,3.293,0,0,1,.213.7,5.448,5.448,0,0,1,.065.873v6.481h-1.323l-.189-1.086h-.044a2.614,2.614,0,0,1-.468.491,4.31,4.31,0,0,1-.7.426,4.983,4.983,0,0,1-.832.32,5.078,5.078,0,0,1-.979.106A3.649,3.649,0,0,1-11763.561,3096.186Zm.319-4.244a1.56,1.56,0,0,0-.574,1.323,1.853,1.853,0,0,0,.147.787,1.307,1.307,0,0,0,.385.556,1.475,1.475,0,0,0,.6.32,2.116,2.116,0,0,0,.722.127,3.273,3.273,0,0,0,.938-.148,5.871,5.871,0,0,0,.79-.364,3.352,3.352,0,0,0,.574-.406,3.069,3.069,0,0,0,.363-.32v-1.941a9.4,9.4,0,0,0-1.044-.234,8.323,8.323,0,0,0-1.323-.127A2.614,2.614,0,0,0-11763.241,3091.942Zm-26.138,4.392a7.629,7.629,0,0,1-1.065-.192,5.1,5.1,0,0,1-.917-.254,3.177,3.177,0,0,1-.64-.278V3094.1c.258.107.512.213.832.32a6.968,6.968,0,0,0,.938.254,5.352,5.352,0,0,0,1,.172,7.352,7.352,0,0,0,.938.062,7.009,7.009,0,0,0,1.364-.127,3.037,3.037,0,0,0,1.128-.405,2.1,2.1,0,0,0,.79-.767,2.489,2.489,0,0,0,.278-1.258,2.007,2.007,0,0,0-.234-1,2.268,2.268,0,0,0-.684-.66,3.94,3.94,0,0,0-.958-.426c-.364-.107-.746-.213-1.151-.3-.533-.127-1.045-.254-1.557-.426a4.728,4.728,0,0,1-1.364-.639,2.828,2.828,0,0,1-.959-1.045,3.4,3.4,0,0,1-.364-1.642,3.852,3.852,0,0,1,.385-1.791,3.442,3.442,0,0,1,1.021-1.237,4.221,4.221,0,0,1,1.515-.725,6.12,6.12,0,0,1,1.791-.255,10.3,10.3,0,0,1,2.048.213,9.075,9.075,0,0,1,1.725.553v1.536a12.271,12.271,0,0,0-1.746-.577,8,8,0,0,0-1.941-.234,5.023,5.023,0,0,0-1.343.172,2.924,2.924,0,0,0-.959.468,2.205,2.205,0,0,0-.554.769,2.389,2.389,0,0,0-.192.98,1.8,1.8,0,0,0,.255,1,1.913,1.913,0,0,0,.663.642,3.961,3.961,0,0,0,.958.426c.361.106.726.213,1.131.3.532.127,1.045.275,1.557.426a5.03,5.03,0,0,1,1.364.66,3.121,3.121,0,0,1,.979,1.065,3.471,3.471,0,0,1,.385,1.728,4.172,4.172,0,0,1-.405,1.832,3.506,3.506,0,0,1-1.11,1.258,5.186,5.186,0,0,1-1.684.725,8.4,8.4,0,0,1-2.131.258A9.6,9.6,0,0,1-11789.379,3096.333Zm113.611-.192V3089.9a3.924,3.924,0,0,0-.15-1.089,2.015,2.015,0,0,0-.406-.725,1.8,1.8,0,0,0-.618-.426,2.373,2.373,0,0,0-.811-.127,2.672,2.672,0,0,0-1.554.471,4.2,4.2,0,0,0-1.237,1.234v6.907h-1.6V3089.9a4.111,4.111,0,0,0-.128-1.089,2.019,2.019,0,0,0-.408-.725,1.783,1.783,0,0,0-.618-.426,2.35,2.35,0,0,0-.809-.127,2.683,2.683,0,0,0-1.557.471,4.528,4.528,0,0,0-1.236,1.234v6.907h-1.577v-9.721h1.216l.319,1.364h.021a4.2,4.2,0,0,1,.576-.639,4.245,4.245,0,0,1,.7-.509,3.547,3.547,0,0,1,.831-.344,3.8,3.8,0,0,1,1-.106,3.077,3.077,0,0,1,1.811.512,3.236,3.236,0,0,1,1.089,1.429h.042a4.9,4.9,0,0,1,1.471-1.429,3.609,3.609,0,0,1,1.938-.512,5.013,5.013,0,0,1,1.089.13,2.829,2.829,0,0,1,1.045.53,2.962,2.962,0,0,1,.811,1.048,4.2,4.2,0,0,1,.319,1.746v6.5Zm-34.154,0v-9.721h1.217l.316,1.557h.023a3.518,3.518,0,0,1,.574-.7,4,4,0,0,1,.77-.577,3.9,3.9,0,0,1,.938-.385,4.716,4.716,0,0,1,1.087-.127h.213l.192.021v1.515h-.128a4.753,4.753,0,0,0-1.109.107,5.11,5.11,0,0,0-1.023.3,3.8,3.8,0,0,0-.853.533,2.37,2.37,0,0,0-.64.725v6.756Zm-20.062,0v-9.721h1.6v9.721Zm-16.2,0V3089.9a2.763,2.763,0,0,0-.468-1.814,1.835,1.835,0,0,0-1.429-.553,2.946,2.946,0,0,0-1.578.468,4.073,4.073,0,0,0-1.322,1.237v6.907h-1.577v-9.721h1.216l.319,1.364h.021a5.9,5.9,0,0,1,.6-.639,3.821,3.821,0,0,1,.725-.512,3.815,3.815,0,0,1,.853-.34,4.123,4.123,0,0,1,1.045-.106,4.111,4.111,0,0,1,1.258.172,2.5,2.5,0,0,1,1,.6,2.964,2.964,0,0,1,.681,1.065,4.494,4.494,0,0,1,.255,1.619v6.5Zm-25.454,0V3089.9a2.917,2.917,0,0,0-.446-1.77,1.761,1.761,0,0,0-1.474-.6,2.83,2.83,0,0,0-1.574.471,4.2,4.2,0,0,0-1.323,1.234v6.907h-1.577v-14.794h1.577v6.416h.041a4.389,4.389,0,0,1,.6-.639,2.847,2.847,0,0,1,.726-.488,3.676,3.676,0,0,1,.853-.344,3.621,3.621,0,0,1,.979-.106,4.911,4.911,0,0,1,1.109.127,2.964,2.964,0,0,1,1.024.533,2.637,2.637,0,0,1,.767,1.048,4.578,4.578,0,0,1,.3,1.746v6.5Zm41.637-11.959v-1.77h1.577v1.77Zm17.892-8.653c-5.765.53-12.041.891-18.508.891a144.912,144.912,0,0,1-26.727-2.317c-19.363.838-28.963,3.513-28.963,3.513a105.78,105.78,0,0,1,22.062-5.049s-.009,0-.012-.006c1.065-.127,2.131-.255,3.2-.361-1.065.106-2.134.234-3.2.361-2.622-.681-5.179-1.45-7.718-2.344a92.006,92.006,0,0,0,10.917,1.983.011.011,0,0,0,.009,0c16.585-1.69,33.154-.373,45.644,1.385a.022.022,0,0,0,.012,0h0c10.387-.512,22.219-1.536,35.5-3.368a211.123,211.123,0,0,1-26.818,4.753c-.24-.042-.485-.086-.734-.13.249.044.494.089.734.13,0,0-.006,0-.012,0,7.738,1.385,12.506,2.643,12.506,2.643Q-11703.661,3076.323-11712.112,3075.529Zm36.1-2.891a2.6,2.6,0,0,1,2.515-2.675,2.594,2.594,0,0,1,2.486,2.675,2.587,2.587,0,0,1-2.486,2.646A2.589,2.589,0,0,1-11676.016,3072.638Zm.089,0a2.491,2.491,0,0,0,2.426,2.551,2.467,2.467,0,0,0,2.4-2.551,2.494,2.494,0,0,0-2.4-2.581A2.517,2.517,0,0,0-11675.927,3072.638Zm3.519,1.672-.415-.7c-.115-.219-.236-.376-.293-.47-.092-.095-.147-.189-.236-.219-.062-.033-.121-.065-.178-.1h-.713v1.483h-.414v-3.341h1.394a3.161,3.161,0,0,1,.648.065.718.718,0,0,1,.325.346.9.9,0,0,1,.147.5.939.939,0,0,1-.236.6.93.93,0,0,1-.648.284.8.8,0,0,1,.234.189,2.764,2.764,0,0,1,.357.441l.53.915Zm-1.835-1.891h.891a.853.853,0,0,0,.444-.062.312.312,0,0,0,.233-.189.528.528,0,0,0,.089-.284.619.619,0,0,0-.148-.408.8.8,0,0,0-.5-.157h-1.006Z" transform="translate(11791.999 -3069.962)" fill="#fff" stroke="rgba(0,0,0,0)" stroke-miterlimit="10" stroke-width="1"/>
    </g>
  </g>
</svg>
