<svg xmlns="http://www.w3.org/2000/svg" width="42" height="42" viewBox="0 0 42 42">
  <g id="Page-1" transform="translate(0 0)">
    <g id="_10-years-young-" data-name="10-years-young-" transform="translate(0 0)">
      <rect id="Rectangle" width="42" height="42" fill="#fff" opacity="0"/>
      <path id="Shape" d="M34.8,14.416C34.8,6.993,28.454.97,20.665.97S6.516,6.993,6.516,14.416s6.346,13.446,14.135,13.446S34.8,21.825,34.8,14.416ZM20.665,25.862c-6.64,0-12.034-5.144-12.034-11.447S14.039,2.969,20.665,2.969,32.7,8.113,32.7,14.416,27.305,25.862,20.665,25.862ZM18.7,30.326,14.767,40.374a1.04,1.04,0,0,1-.911.653h-.07a1.038,1.038,0,0,1-.925-.533l-2.648-4.731L4.961,37.709a1.084,1.084,0,0,1-1.121-.227.984.984,0,0,1-.252-1.066L7.637,26.075a1.047,1.047,0,0,1,1.345-.586A.973.973,0,0,1,9.6,26.768L6.376,35.03l3.951-1.466a1.058,1.058,0,0,1,1.3.466l1.989,3.558,3.11-7.969a1.047,1.047,0,0,1,1.345-.586A.984.984,0,0,1,18.7,30.326Zm19.459,7.156a1.106,1.106,0,0,1-1.121.227l-5.253-1.946-2.648,4.744a1.055,1.055,0,0,1-.925.533h-.07a1.04,1.04,0,0,1-.911-.653L23.3,30.326a.979.979,0,0,1,.616-1.279,1.059,1.059,0,0,1,1.345.586L28.37,37.6l1.989-3.558a1.078,1.078,0,0,1,1.3-.466l3.951,1.466-3.236-8.262a.979.979,0,0,1,.616-1.279,1.059,1.059,0,0,1,1.345.586l4.049,10.341A.907.907,0,0,1,38.162,37.482ZM28.1,11.87l-4.5-.626-2-3.878a1.132,1.132,0,0,0-1.891,0l-2,3.878-4.5.626a1.056,1.056,0,0,0-.855.68.977.977,0,0,0,.266,1.026l3.25,3.012-.77,4.251a.963.963,0,0,0,.42.973,1.1,1.1,0,0,0,1.107.08l4.021-2.012,4.021,2.012a1.064,1.064,0,0,0,.49.12,1.113,1.113,0,0,0,.616-.187.973.973,0,0,0,.42-.973l-.77-4.251,3.25-3.012a.977.977,0,0,0,.266-1.026A1.01,1.01,0,0,0,28.1,11.87Zm-4.525,3.651a.96.96,0,0,0-.308.879l.5,2.772-2.62-1.306a1.062,1.062,0,0,0-.981,0l-2.62,1.306.5-2.772a.96.96,0,0,0-.308-.879l-2.115-1.972,2.928-.4a1.068,1.068,0,0,0,.8-.546l1.317-2.532L22,12.6a1.036,1.036,0,0,0,.8.546l2.928.4Z" transform="translate(0 0)" fill="#333"/>
    </g>
  </g>
</svg>
