<svg xmlns="http://www.w3.org/2000/svg" width="42" height="42" viewBox="0 0 42 42">
  <g id="Page-1" transform="translate(0.468 0)">
    <g id="_12.26-Lac-sq.-mtrs.-Under-Development" data-name="12.26-Lac-sq.-mtrs.-Under-Development" transform="translate(-0.468 0)">
      <rect id="Rectangle" width="42" height="42" fill="#fff" opacity="0"/>
      <g id="Group" transform="translate(2.828 1.03)">
        <path id="Shape" d="M7.11,22.08a2.45,2.45,0,1,0,2.45,2.45A2.454,2.454,0,0,0,7.11,22.08Zm0,3.39a.95.95,0,1,1,.95-.95A.956.956,0,0,1,7.11,25.47Z" transform="translate(2.081 10)" fill="#333"/>
        <path id="Shape-2" data-name="Shape" d="M13.52,22.08a2.45,2.45,0,1,0,2.45,2.45A2.454,2.454,0,0,0,13.52,22.08Zm0,3.39a.95.95,0,1,1,.95-.95A.956.956,0,0,1,13.52,25.47Z" transform="translate(4.944 10)" fill="#333"/>
        <path id="Shape-3" data-name="Shape" d="M19.93,22.08a2.45,2.45,0,1,0,2.45,2.45A2.454,2.454,0,0,0,19.93,22.08Zm0,3.39a.95.95,0,1,1,.95-.95A.956.956,0,0,1,19.93,25.47Z" transform="translate(7.807 10)" fill="#333"/>
        <path id="Shape-4" data-name="Shape" d="M36.252,37.952H35.172V26.493a1.02,1.02,0,0,0-1.025-1h-3.73V20.357a5.21,5.21,0,0,0-5.261-5.136H14.416a1.02,1.02,0,0,0-1.025,1v4.816h-2.9v-6.75a.955.955,0,0,0-.082-.4L28.777,4.909a2.868,2.868,0,0,0,.929.56V7.63h-.451a1,1,0,1,0,0,2h.465v.76a1.02,1.02,0,0,0,1.025,1,.947.947,0,1,1-.861,1.387l-1.817.934A3.022,3.022,0,0,0,30.745,15.3,2.933,2.933,0,0,0,31.92,9.645h.314a1,1,0,1,0,0-2h-.478V5.509a2.86,2.86,0,0,0,1.9-2.668,2.918,2.918,0,0,0-5.835,0,1.9,1.9,0,0,0,.041.293L7.064,13.287H4.509a1.02,1.02,0,0,0-1.025,1V25.479H2.8a1.02,1.02,0,0,0-1.025,1V37.939H1.025a1,1,0,1,0,0,2h35.24a.995.995,0,1,0-.014-1.988Zm-7.884-17.6v.694H19.991V17.235H25.17A3.147,3.147,0,0,1,28.367,20.357ZM14.43,23.038a1.02,1.02,0,0,0,1.025-1V17.222h2.487v4.816a1.02,1.02,0,0,0,1.025,1h9.4v2.441H8.335v-.32a2.153,2.153,0,0,1,2.173-2.121Zm16.3-21.051a.859.859,0,0,1,.875.84.87.87,0,0,1-.875.854.849.849,0,0,1-.779-.507.655.655,0,0,1-.082-.347A.865.865,0,0,1,30.731,1.988Zm-25.2,13.3H8.458v6.283a4.08,4.08,0,0,0-2.173,3.575v.32H5.534ZM3.826,37.952V27.494h29.3V37.952Z" transform="translate(0 0)" fill="#333"/>
      </g>
    </g>
  </g>
</svg>
