<svg xmlns="http://www.w3.org/2000/svg" width="42" height="42" viewBox="0 0 42 42">
  <g id="Page-1" transform="translate(-0.063 0)">
    <g id="_6K-Happy--Family" data-name="6K-Happy--Family" transform="translate(0.063 0)">
      <rect id="Rectangle" width="42" height="42" fill="#fff" opacity="0"/>
      <path id="Shape" d="M10.786,9.651A4.251,4.251,0,1,0,6.541,5.4,4.259,4.259,0,0,0,10.786,9.651Zm0-6.483A2.246,2.246,0,1,1,8.543,5.414,2.241,2.241,0,0,1,10.786,3.168Zm4.793,35.57a2.941,2.941,0,0,1-4.793,1.337,2.922,2.922,0,0,1-1.963.762A2.976,2.976,0,0,1,5.86,37.869V27.162a3.484,3.484,0,0,1-1.348.294A3.432,3.432,0,0,1,1.08,24.021c0-.013.013-.027.013-.04s-.013-.027-.013-.04V16.829a5.3,5.3,0,0,1,5.287-5.293h8.825a5.17,5.17,0,0,1,2.363.561,1,1,0,0,1-.908,1.791,3.254,3.254,0,0,0-1.469-.348H6.38A3.284,3.284,0,0,0,3.1,16.829v7.111c0,.013-.013.027-.013.04s.013.027.013.04a1.422,1.422,0,0,0,2.777.441V18.434a1,1,0,1,1,2,0V37.869a.961.961,0,1,0,1.923,0v-9.3a1,1,0,1,1,2,0v9.3a.958.958,0,0,0,.961.962.946.946,0,0,0,.921-.682.993.993,0,1,1,1.9.588Zm-.868-21.307a1.009,1.009,0,0,1,1,1v1.15a1,1,0,1,1-2,0v-1.15A1.009,1.009,0,0,1,14.712,17.431Zm17.57-7.78A4.251,4.251,0,1,0,28.036,5.4,4.259,4.259,0,0,0,32.282,9.651Zm0-6.483a2.246,2.246,0,1,1-2.243,2.246A2.249,2.249,0,0,1,32.282,3.168Zm3.872,8.354H28.41a4.759,4.759,0,0,0-4.419,3.342,1,1,0,1,0,1.883.682,2.8,2.8,0,0,1,2.537-2.005h7.744a3.062,3.062,0,0,1,2.764,3.288v7.044a1.431,1.431,0,0,1-1.429,1.43,1.342,1.342,0,0,1-.521-.107l-.547-1.911V18.447a1,1,0,1,0-2,0v4.986a1.019,1.019,0,0,0,.04.281l2.256,7.927H26.541a1,1,0,0,0,0,2.005h.828v4.237a2.976,2.976,0,0,0,2.964,2.967,2.922,2.922,0,0,0,1.963-.762,2.922,2.922,0,0,0,1.963.762,2.976,2.976,0,0,0,2.964-2.967V33.645h.828a1,1,0,0,0,.961-1.283L37.569,27.3a3.423,3.423,0,0,0,3.338-3.3c0-.027.013-.04.013-.067V16.816A5.05,5.05,0,0,0,36.154,11.523ZM30.319,38.832a.958.958,0,0,1-.961-.962V33.632H31.28v4.237A.958.958,0,0,1,30.319,38.832Zm4.887-.949a.961.961,0,1,1-1.923,0V33.645h1.923v4.237ZM29.144,20.505a1.009,1.009,0,0,1-1-1V18.434a1,1,0,1,1,2,0V19.5A.992.992,0,0,1,29.144,20.505Zm-8.8.294a3.034,3.034,0,1,0-3.031-3.034A3.039,3.039,0,0,0,20.346,20.8Zm0-4.2a1.163,1.163,0,1,1-1.162,1.163A1.163,1.163,0,0,1,20.346,16.6Zm8.945,7.686a2.523,2.523,0,0,0-2.51-2.54H13.937a2.54,2.54,0,0,0,0,5.079h2.109V38.163a2.623,2.623,0,0,0,2.617,2.62,2.577,2.577,0,0,0,1.682-.615,2.577,2.577,0,0,0,1.682.615,2.623,2.623,0,0,0,2.617-2.62V26.828h2.109A2.546,2.546,0,0,0,29.291,24.288Zm-5.554.655a.929.929,0,0,0-.935.936V38.15a.748.748,0,1,1-1.5,0V29.782a.935.935,0,1,0-1.869,0V38.15a.748.748,0,1,1-1.5,0V25.879a.929.929,0,0,0-.935-.936H13.964a.67.67,0,0,1-.668-.668.661.661,0,0,1,.668-.668H26.808a.648.648,0,0,1,.641.668.656.656,0,0,1-.641.668Z" transform="translate(-0.063 0)" fill="#333"/>
    </g>
  </g>
</svg>
