<svg id="Page-1" xmlns="http://www.w3.org/2000/svg" width="29" height="29" viewBox="0 0 29 29">
  <g id="Commercial-Hub">
    <rect id="Rectangle" width="29" height="29" fill="#fff" opacity="0"/>
    <path id="Shape" d="M9.66,6.828a.787.787,0,0,1-.765.811H7.411V9.223a.766.766,0,1,1-1.53,0V6.828a.787.787,0,0,1,.765-.811H8.9A.786.786,0,0,1,9.66,6.828Zm4.95-.811H12.352a.787.787,0,0,0-.765.811V9.223a.766.766,0,1,0,1.53,0V7.639H14.61a.813.813,0,0,0,0-1.623ZM8.9,11.852H6.646a.787.787,0,0,0-.765.811v2.395a.766.766,0,1,0,1.53,0V13.475H8.9a.813.813,0,0,0,0-1.623Zm5.706,0H12.352a.787.787,0,0,0-.765.811v2.395a.766.766,0,1,0,1.53,0V13.475H14.61a.813.813,0,0,0,0-1.623ZM8.9,17.688H6.646a.787.787,0,0,0-.765.811v2.395a.766.766,0,1,0,1.53,0V19.31H8.9a.813.813,0,0,0,0-1.623Zm5.706,0H12.352a.787.787,0,0,0-.765.811v2.395a.766.766,0,1,0,1.53,0V19.31H14.61a.813.813,0,0,0,0-1.623ZM29.2,24.364a.787.787,0,0,1-.765.811H.968a.813.813,0,0,1,0-1.623H2.59V3.211A.787.787,0,0,1,3.355,2.4H17.9a.787.787,0,0,1,.765.811V8.881H26.05a.787.787,0,0,1,.765.811v13.86h1.622A.787.787,0,0,1,29.2,24.364ZM4.12,23.552H17.136V4.023H4.12Zm21.165,0V10.5H18.666V23.552Z" transform="translate(-0.202 0.713)" fill="#222"/>
  </g>
</svg>
