<svg id="Page-1" xmlns="http://www.w3.org/2000/svg" width="29" height="29" viewBox="0 0 29 29">
  <g id="Culturally-Diverse">
    <rect id="Rectangle" width="29" height="29" fill="#fff" opacity="0"/>
    <path id="Shape" d="M26.4,19.713c-1.091-.416-1.368-.811-1.435-.96a.727.727,0,0,1,.057-.534c.038-.069.211-.237.335-.386a7.626,7.626,0,0,0,2.373-5.323,3.946,3.946,0,0,0-1-2.889,4.916,4.916,0,0,0-3.254-1.385c-.23,0-.45.02-.67.04A5.906,5.906,0,0,0,21.32,4.2a7.609,7.609,0,0,0-4.948-2.107H13.884A7.492,7.492,0,0,0,8.956,4.2,5.861,5.861,0,0,0,7.473,8.276a6.836,6.836,0,0,0-.785-.04h0A5,5,0,0,0,3.444,9.621a3.961,3.961,0,0,0-1,2.889,7.6,7.6,0,0,0,2.373,5.323,2.766,2.766,0,0,1,.345.406.672.672,0,0,1,.057.514c-.067.148-.335.544-1.435.96C.745,20.87.63,23.265.63,23.364a.811.811,0,0,0,.756.841h.038a.814.814,0,0,0,.794-.772c0-.059.124-1.425,2.115-2.186a3.843,3.843,0,0,0,2.325-1.82,2.315,2.315,0,0,0-.038-1.83,2.836,2.836,0,0,0-.66-.9,6.036,6.036,0,0,1-1.933-4.225,2.58,2.58,0,0,1,2.68-2.6,5.094,5.094,0,0,1,.871.079,12.337,12.337,0,0,0,3.483,6.925,8.911,8.911,0,0,1,.593.7l.048.129a1.591,1.591,0,0,1,.077,1.237c-.2.455-.823,1.148-2.613,1.84-4.66,1.791-4.651,5.382-4.651,5.53a.808.808,0,0,0,.794.8h0a.825.825,0,0,0,.794-.821c0-.109.057-2.612,3.617-3.977,1.885-.722,3.034-1.6,3.512-2.7a3.182,3.182,0,0,0-.038-2.5l-.038-.1a4.123,4.123,0,0,0-.919-1.266,17.51,17.51,0,0,1-1.493-1.85c.239-2.177,1.809-4.432,3.464-6.263a11.125,11.125,0,0,1,5.5,5.491,1.273,1.273,0,0,0,.134.228,14.455,14.455,0,0,1-1.876,2.374A4.142,4.142,0,0,0,17,17.012l-.038.1a3.182,3.182,0,0,0-.038,2.5c.478,1.1,1.627,1.979,3.512,2.7,3.589,1.375,3.771,3.908,3.771,4.007a.8.8,0,0,0,.794.791h.029a.809.809,0,0,0,.766-.851c-.01-.148-.182-3.71-4.814-5.491-1.8-.693-2.412-1.385-2.613-1.84a1.55,1.55,0,0,1,.077-1.237l.038-.109a6.076,6.076,0,0,1,.622-.722,12.2,12.2,0,0,0,3.608-6.945,4.882,4.882,0,0,1,.756-.069c.278.01,2.747.148,2.7,2.6a6.036,6.036,0,0,1-1.933,4.225,2.649,2.649,0,0,0-.679.96,2.317,2.317,0,0,0-.019,1.781,3.814,3.814,0,0,0,2.325,1.82c1.991.762,2.115,2.127,2.115,2.167a.805.805,0,0,0,.794.791H28.8a.809.809,0,0,0,.766-.851A4.445,4.445,0,0,0,26.4,19.713ZM9.042,8.513c-.1-4.591,4.68-4.769,4.861-4.769h1.981c-1.895,1.632-5.015,4.69-6.249,7.994A9.982,9.982,0,0,1,9.042,8.513Zm11.637,3.047a12.513,12.513,0,0,0-5.3-5.155c1.158-1.128,2.191-1.969,2.67-2.355a4.277,4.277,0,0,1,3.187,4.462A9.352,9.352,0,0,1,20.679,11.561Z" transform="translate(-0.6 -0.103)" fill="#222"/>
  </g>
</svg>
