<svg id="Page-1" xmlns="http://www.w3.org/2000/svg" width="29" height="29" viewBox="0 0 29 29">
  <g id="International-Airport" transform="translate(0)">
    <rect id="Rectangle" width="29" height="29" transform="translate(0)" fill="#fff" opacity="0"/>
    <g id="Group" transform="translate(0 0.39)">
      <path id="Shape" d="M23.711,8.67a1.133,1.133,0,0,0-.647-.637,3.727,3.727,0,0,0-2.54-.053L17.354,9.39,13.428,7.125a.638.638,0,0,0-.546-.045l-1.162.428a.632.632,0,0,0-.393.427.586.586,0,0,0,.131.555l2.209,2.55-.931.413L10.265,9.908a.664.664,0,0,0-.57-.06l-.708.262a.626.626,0,0,0-.369.352.576.576,0,0,0,.023.5l1.347,2.67.269.488a2.08,2.08,0,0,0,1.824,1.08,2.006,2.006,0,0,0,.9-.21l9.236-4.365C22.811,10.32,24.073,9.675,23.711,8.67Zm-2.086.847L12.4,13.875a.781.781,0,0,1-1.039-.345l-1.1-2.145,2.063,1.29a.672.672,0,0,0,.608.045l2.017-.892a.635.635,0,0,0,.362-.428.607.607,0,0,0-.139-.54l-2.163-2.5.031-.008,3.948,2.28a.637.637,0,0,0,.593.03L21,9.127a2.522,2.522,0,0,1,1.332-.03A5.108,5.108,0,0,1,21.625,9.517Z" transform="translate(5.225 2.337)" fill="#222"/>
      <path id="Shape-2" data-name="Shape" d="M26.26,20.044H8.809V10.892h1.624a.784.784,0,0,0,.755-.556l1.416-4.895a.715.715,0,0,0-.132-.656.788.788,0,0,0-.623-.3H9.376L9.839,2.7A.728.728,0,0,0,9.7,2.051a.8.8,0,0,0-.614-.292H7.1v-1a.784.784,0,0,0-1.568,0V1.75H3.55a.775.775,0,0,0-.614.292.728.728,0,0,0-.142.647l.463,1.787H.783a.788.788,0,0,0-.623.3.767.767,0,0,0-.132.665l1.416,4.895a.784.784,0,0,0,.755.556H3.824V27.463a.769.769,0,0,0,.784.757H23.653a.769.769,0,0,0,.784-.757V23.8l2.389-2.488a.717.717,0,0,0,.142-.82A.756.756,0,0,0,26.26,20.044ZM8.082,3.263,7.771,4.485h-2.9L4.56,3.263ZM7.251,20.8v5.907H5.391V10.892h1.86ZM4.607,9.379H2.794L1.822,6H10.83L9.848,9.379H4.607ZM22.879,26.707H8.809V24.255H22.87v2.452Zm.434-3.965H8.809V21.557H24.456Z" transform="translate(0 0)" fill="#222"/>
    </g>
  </g>
</svg>
