<svg id="Page-1" xmlns="http://www.w3.org/2000/svg" width="29" height="29.465" viewBox="0 0 29 29.465">
  <g id="City-based--Metro-RailT">
    <rect id="Rectangle" width="29" height="29.08" fill="#fff" opacity="0"/>
    <path id="Shape" d="M20.708,1.26H10.05A6.507,6.507,0,0,0,3.4,7.612V22.8a1.776,1.776,0,0,0,1.808,1.728H9.382L8.2,26.43H6.09a.75.75,0,1,0,0,1.5h1.17L6.226,29.587A.738.738,0,0,0,6.5,30.615a.813.813,0,0,0,1.076-.26l1.515-2.427h12.57l1.515,2.427a.787.787,0,0,0,.679.37.764.764,0,0,0,.669-1.139l-1.034-1.658h1.17a.75.75,0,1,0,0-1.5H22.547l-1.181-1.9h4.169A1.776,1.776,0,0,0,27.343,22.8V7.612A6.5,6.5,0,0,0,20.708,1.26Zm.021,25.18h-10.7l1.181-1.9h8.348Zm5.057-3.626a.231.231,0,0,1-.24.23H5.213a.231.231,0,0,1-.24-.23V7.612A4.975,4.975,0,0,1,10.05,2.758H20.708a4.975,4.975,0,0,1,5.078,4.854ZM20.676,4.776H10.082A3.334,3.334,0,0,0,6.675,8.032v4.734a.773.773,0,0,0,.784.749H23.3a.773.773,0,0,0,.784-.749V8.042A3.343,3.343,0,0,0,20.676,4.776Zm1.839,7.251H8.243V8.042a1.8,1.8,0,0,1,1.839-1.758H20.676a1.8,1.8,0,0,1,1.839,1.758v3.985ZM9.664,15.833a2.75,2.75,0,1,0,0,5.494,2.75,2.75,0,1,0,0-5.494Zm0,4A1.25,1.25,0,1,1,10.97,18.58,1.279,1.279,0,0,1,9.664,19.828Zm11.431-4a2.75,2.75,0,1,0,2.873,2.747A2.811,2.811,0,0,0,21.094,15.833Zm0,4A1.25,1.25,0,1,1,22.4,18.58,1.279,1.279,0,0,1,21.094,19.828Z" transform="translate(-0.878 -1.26)" fill="#222"/>
  </g>
</svg>
