<svg id="Page-1" xmlns="http://www.w3.org/2000/svg" width="29" height="29" viewBox="0 0 29 29">
  <g id="Civic-Amenities">
    <rect id="Rectangle" width="29" height="29" fill="#fff" opacity="0"/>
    <path id="Shape" d="M16.29,21.311H20.2a.711.711,0,0,0,.713-.7v-8a.683.683,0,0,0-.314-.577L15.179,8.44a.731.731,0,0,0-.8,0L8.964,12.032a.683.683,0,0,0-.314.577v8a.711.711,0,0,0,.713.7h3.9a.711.711,0,0,0,.713-.7V16.9h1.6v3.713A.719.719,0,0,0,16.29,21.311Zm-3.022-5.817a.711.711,0,0,0-.713.7v3.713H10.085V12.972L14.78,9.864l4.7,3.118v6.934H17V16.2a.711.711,0,0,0-.713-.7H13.269Zm9.769,8.069a.7.7,0,0,1-.1.987,12.733,12.733,0,0,1-3.64,2.057.824.824,0,0,1-.247.047.715.715,0,0,1-.665-.456.7.7,0,0,1,.418-.9,11.276,11.276,0,0,0,3.231-1.833A.72.72,0,0,1,23.037,23.563Zm3.022-6.915a11.13,11.13,0,0,0,0-3.667.7.7,0,0,1,.589-.8.708.708,0,0,1,.817.577,12.452,12.452,0,0,1,0,4.114.709.709,0,0,1-.7.586.472.472,0,0,1-.114-.009A.7.7,0,0,1,26.059,16.648ZM18.391,3.433a.726.726,0,0,1,.922-.409,12.762,12.762,0,0,1,3.64,2.066.687.687,0,0,1,.1.987.713.713,0,0,1-.551.251.752.752,0,0,1-.456-.158,11.4,11.4,0,0,0-3.231-1.833A.7.7,0,0,1,18.391,3.433ZM6.522,6.067a.7.7,0,0,1,.1-.987,12.734,12.734,0,0,1,3.64-2.057.726.726,0,0,1,.922.409.7.7,0,0,1-.418.9A11.427,11.427,0,0,0,7.519,6.16a.691.691,0,0,1-.447.158A.713.713,0,0,1,6.522,6.067ZM3.5,12.982a11.13,11.13,0,0,0,0,3.667.7.7,0,0,1-.589.8.472.472,0,0,1-.114.009.709.709,0,0,1-.7-.586,12.452,12.452,0,0,1,0-4.114.716.716,0,0,1,.817-.577A.7.7,0,0,1,3.5,12.982ZM11.178,26.2a.715.715,0,0,1-.665.456.727.727,0,0,1-.247-.047,12.958,12.958,0,0,1-3.64-2.057.687.687,0,0,1-.1-.987.721.721,0,0,1,1.007-.093A11.633,11.633,0,0,0,10.769,25.3.7.7,0,0,1,11.178,26.2Zm3.6-20.559A2.69,2.69,0,0,0,17.5,2.977a2.718,2.718,0,0,0-5.436,0A2.69,2.69,0,0,0,14.78,5.638Zm0-3.927a1.266,1.266,0,1,1-1.292,1.266A1.281,1.281,0,0,1,14.78,1.711ZM2.958,11.2a2.763,2.763,0,0,0,3.716-.977,2.635,2.635,0,0,0,.276-2.02A2.683,2.683,0,0,0,5.685,6.588a2.778,2.778,0,0,0-3.725.977A2.634,2.634,0,0,0,2.958,11.2ZM3.2,8.263A1.289,1.289,0,0,1,4.317,7.63a1.364,1.364,0,0,1,.646.168,1.289,1.289,0,0,1,.6.772,1.212,1.212,0,0,1-.133.959,1.317,1.317,0,0,1-1.768.465A1.257,1.257,0,0,1,3.2,8.263ZM6.664,19.4a2.768,2.768,0,0,0-3.716-.977,2.642,2.642,0,0,0-1,3.639A2.769,2.769,0,0,0,4.317,23.4a2.707,2.707,0,0,0,1.349-.354A2.636,2.636,0,0,0,6.664,19.4Zm-1.7,2.429A1.308,1.308,0,0,1,3.2,21.367a1.252,1.252,0,0,1,.475-1.731,1.317,1.317,0,0,1,1.768.465A1.269,1.269,0,0,1,4.963,21.832Zm9.816,2.159A2.662,2.662,0,1,0,17.5,26.653,2.69,2.69,0,0,0,14.78,23.991Zm0,3.927a1.266,1.266,0,1,1,1.292-1.266A1.281,1.281,0,0,1,14.78,27.919Zm13.095-7.874a2.683,2.683,0,0,0-1.264-1.619,2.75,2.75,0,0,0-3.716.968,2.634,2.634,0,0,0,1,3.639,2.752,2.752,0,0,0,3.706-.977A2.607,2.607,0,0,0,27.874,20.045Zm-1.511,1.322a1.317,1.317,0,0,1-1.768.465,1.255,1.255,0,0,1,.314-2.317,1.284,1.284,0,0,1,.979.13,1.264,1.264,0,0,1,.6.772A1.2,1.2,0,0,1,26.363,21.367Zm-3.468-11.14a2.767,2.767,0,0,0,2.366,1.331A2.789,2.789,0,0,0,26.62,11.2a2.657,2.657,0,0,0,1.264-1.619,2.555,2.555,0,0,0-.276-2.02A2.75,2.75,0,0,0,23.893,6.6a2.657,2.657,0,0,0-1.264,1.619A2.534,2.534,0,0,0,22.895,10.227ZM24,8.57a1.289,1.289,0,0,1,.6-.772,1.323,1.323,0,0,1,1.768.465,1.212,1.212,0,0,1,.133.959,1.289,1.289,0,0,1-.6.772,1.333,1.333,0,0,1-.979.13,1.31,1.31,0,0,1-.789-.586A1.24,1.24,0,0,1,24,8.57Z" transform="translate(-0.281 -0.315)" fill="#222"/>
  </g>
</svg>
