<svg xmlns="http://www.w3.org/2000/svg" width="17.05" height="13.856" viewBox="0 0 17.05 13.856">
  <path id="Path_371" data-name="Path 371" d="M74.222,112.733a9.948,9.948,0,0,0,15.3-8.833,7.084,7.084,0,0,0,1.745-1.811,6.97,6.97,0,0,1-2.009.551A3.5,3.5,0,0,0,90.8,100.7a7.016,7.016,0,0,1-2.221.849,3.5,3.5,0,0,0-5.961,3.19,9.928,9.928,0,0,1-7.21-3.655,3.5,3.5,0,0,0,1.083,4.671,3.5,3.5,0,0,1-1.585-.438,3.5,3.5,0,0,0,2.806,3.474,3.5,3.5,0,0,1-1.579.06,3.5,3.5,0,0,0,3.267,2.429A7.029,7.029,0,0,1,74.222,112.733Z" transform="translate(-74.222 -100.449)" fill="#333"/>
</svg>
