<svg id="Group_1168" data-name="Group 1168" xmlns="http://www.w3.org/2000/svg" width="32" height="32" viewBox="0 0 32 32">
  <path id="Exclusion_1" data-name="Exclusion 1" d="M11.731,16.082c-2.221,0-3.751-.029-4.961-.093-1.255-.067-2.148-.17-3.1-.3a4.354,4.354,0,0,1-1.315-.4,3.632,3.632,0,0,1-1.77-1.876,4.59,4.59,0,0,1-.338-1.428c-.006-.081-.019-.2-.035-.342A32.66,32.66,0,0,1,0,7.854,32.355,32.355,0,0,1,.21,4.519h0c.016-.155.029-.278.036-.354A4.472,4.472,0,0,1,.583,2.758a3.716,3.716,0,0,1,.722-1.1A3.8,3.8,0,0,1,2.353.885,4.589,4.589,0,0,1,3.668.464,27.933,27.933,0,0,1,6.726.108C7.916.033,9.46,0,11.731,0c2.132,0,3.718.04,4.99.127,1.169.08,2.037.195,3.051.337a4.528,4.528,0,0,1,1.334.392,3.51,3.51,0,0,1,1.761,1.864,4.666,4.666,0,0,1,.327,1.444c.006.086.021.216.039.38h0a29.817,29.817,0,0,1,.206,3.509,29.692,29.692,0,0,1-.218,3.686c-.012.1-.022.184-.028.246a4.662,4.662,0,0,1-.363,1.419,3.874,3.874,0,0,1-.734,1.111,3.942,3.942,0,0,1-2.325,1.17c-1.084.158-2.023.25-3.143.308C15.427,16.054,13.916,16.082,11.731,16.082ZM10.123,4.717h0V11.15l5.153-3.216L10.123,4.717Z" transform="translate(4 8)" fill="#333" stroke="rgba(0,0,0,0)" stroke-width="1"/>
  <rect id="Rectangle_591" data-name="Rectangle 591" width="32" height="32" fill="none"/>
</svg>
