<?xml version="1.0" encoding="UTF-8"?>
<svg width="26px" height="26px" viewBox="0 0 26 26" version="1.1" xmlns="http://www.w3.org/2000/svg" xmlns:xlink="http://www.w3.org/1999/xlink">
    <title>Category</title>
    <g id="Page-1" stroke="none" stroke-width="1" fill="none" fill-rule="evenodd">
        <g id="1.2---Dashboard---Search-User" transform="translate(-21.000000, -277.000000)">
            <g id="Category" transform="translate(21.000000, 277.000000)">
                <polygon id="Path" points="0 0 26 0 26 26 0 26"></polygon>
                <path d="M22.75,3.25 C23.3483085,3.25 23.8333333,3.73502485 23.8333333,4.33333333 L23.8333333,21.6666667 C23.8333333,22.2649751 23.3483085,22.75 22.75,22.75 L3.25,22.75 C2.65169152,22.75 2.16666667,22.2649751 2.16666667,21.6666667 L2.16666667,4.33333333 C2.16666667,3.73502485 2.65169152,3.25 3.25,3.25 L22.75,3.25 Z M11.9166667,14.0833333 L4.33333333,14.0833333 L4.33333333,20.5833333 L11.9166667,20.5833333 L11.9166667,14.0833333 Z M21.6666667,14.0833333 L14.0833333,14.0833333 L14.0833333,20.5833333 L21.6666667,20.5833333 L21.6666667,14.0833333 Z M11.9166667,5.41666667 L4.33333333,5.41666667 L4.33333333,11.9166667 L11.9166667,11.9166667 L11.9166667,5.41666667 Z M21.6666667,5.41666667 L14.0833333,5.41666667 L14.0833333,11.9166667 L21.6666667,11.9166667 L21.6666667,5.41666667 Z" id="Shape" fill="#666666" fill-rule="nonzero"></path>
            </g>
        </g>
    </g>
</svg>