<?xml version="1.0" encoding="UTF-8"?>
<svg width="26px" height="26px" viewBox="0 0 26 26" version="1.1" xmlns="http://www.w3.org/2000/svg" xmlns:xlink="http://www.w3.org/1999/xlink">
    <title>Content</title>
    <g id="Page-1" stroke="none" stroke-width="1" fill="none" fill-rule="evenodd">
        <g id="1.2---Dashboard---Search-User" transform="translate(-21.000000, -345.000000)">
            <g id="Content" transform="translate(21.000000, 345.000000)">
                <polygon id="Path" points="0 0 26 0 26 26 0 26"></polygon>
                <path d="M21.6666667,23.8333333 L4.33333333,23.8333333 C3.73502485,23.8333333 3.25,23.3483085 3.25,22.75 L3.25,3.25 C3.25,2.65169152 3.73502485,2.16666667 4.33333333,2.16666667 L21.6666667,2.16666667 C22.2649751,2.16666667 22.75,2.65169152 22.75,3.25 L22.75,22.75 C22.75,23.3483085 22.2649751,23.8333333 21.6666667,23.8333333 Z M20.5833333,21.6666667 L20.5833333,4.33333333 L5.41666667,4.33333333 L5.41666667,21.6666667 L20.5833333,21.6666667 Z M8.66666667,9.75 L17.3333333,9.75 L17.3333333,11.9166667 L8.66666667,11.9166667 L8.66666667,9.75 Z M8.66666667,14.0833333 L17.3333333,14.0833333 L17.3333333,16.25 L8.66666667,16.25 L8.66666667,14.0833333 Z" id="Shape" fill="#666666" fill-rule="nonzero"></path>
            </g>
        </g>
    </g>
</svg>