<?xml version="1.0" encoding="UTF-8"?>
<svg width="24px" height="24px" viewBox="0 0 24 24" version="1.1" xmlns="http://www.w3.org/2000/svg" xmlns:xlink="http://www.w3.org/1999/xlink">
    <title>Group 18</title>
    <g id="Page-1" stroke="none" stroke-width="1" fill="none" fill-rule="evenodd">
        <g id="2.2---AGEL-Admin---Category---Add-Category" transform="translate(-985.000000, -24.000000)" fill="#333333" fill-rule="nonzero" stroke="#333333">
            <g id="Group-23" transform="translate(961.000000, 0.000000)">
                <g id="Group-18" transform="translate(36.000000, 36.000000) rotate(-90.000000) translate(-36.000000, -36.000000) translate(24.000000, 24.000000)">
                    <path d="M13.2826095,12.0001038 L18.7339281,6.54850595 C19.0886906,6.19390211 19.0886906,5.62055672 18.7339281,5.26595288 C18.3793316,4.91134904 17.8059981,4.91134904 17.4514016,5.26595288 L11.9999169,10.7175508 L6.54859836,5.26595288 C6.19383581,4.91134904 5.62066839,4.91134904 5.26607192,5.26595288 C4.91130936,5.62055672 4.91130936,6.19390211 5.26607192,6.54850595 L10.7173905,12.0001038 L5.26607192,17.4517017 C4.91130936,17.8063055 4.91130936,18.3796509 5.26607192,18.7342547 C5.44278884,18.9111414 5.67514504,19 5.90733516,19 C6.13952524,19 6.37171536,18.9111414 6.54859836,18.7342547 L11.9999169,13.2826569 L17.4514016,18.7342547 C17.6282846,18.9111414 17.8604748,19 18.0926649,19 C18.324855,19 18.557045,18.9111414 18.7339281,18.7342547 C19.0886906,18.3796509 19.0886906,17.8063055 18.7339281,17.4517017 L13.2826095,12.0001038 Z" id="Path"></path>
                </g>
            </g>
        </g>
    </g>
</svg>