<?xml version="1.0" encoding="UTF-8"?>
<svg width="26px" height="26px" viewBox="0 0 26 26" version="1.1" xmlns="http://www.w3.org/2000/svg" xmlns:xlink="http://www.w3.org/1999/xlink">
    <title>Dashboard</title>
    <g id="Page-1" stroke="none" stroke-width="1" fill="none" fill-rule="evenodd">
        <g id="1.2---Dashboard---Search-User" transform="translate(-21.000000, -209.000000)">
            <g id="Dashboard" transform="translate(21.000000, 209.000000)">
                <polygon id="Path" points="0 0 26 0 26 26 0 26"></polygon>
                <path d="M13,2.16666667 C18.98325,2.16666667 23.8333333,7.01675 23.8333333,13 C23.8333333,18.98325 18.98325,23.8333333 13,23.8333333 C7.01675,23.8333333 2.16666667,18.98325 2.16666667,13 C2.16666667,7.01675 7.01675,2.16666667 13,2.16666667 Z M13,4.33333333 C8.21383333,4.33333333 4.33333333,8.21383333 4.33333333,13 C4.33333333,17.7861667 8.21383333,21.6666667 13,21.6666667 C17.7861667,21.6666667 21.6666667,17.7861667 21.6666667,13 C21.6666667,8.21383333 17.7861667,4.33333333 13,4.33333333 Z M17.1524167,7.94841667 C17.4091667,7.76858333 17.758,7.79891667 17.979,8.021 C18.2,8.242 18.2281667,8.59083333 18.04725,8.84433333 C15.6855833,12.1441667 14.3855833,13.9121667 14.1494167,14.1494167 C13.5145833,14.7831667 12.4854167,14.7831667 11.8505833,14.1494167 C11.2168333,13.5145833 11.2168333,12.4854167 11.8505833,11.8505833 C12.25575,11.4465 14.0226667,10.1454167 17.1524167,7.94841667 Z M18.9583333,11.9166667 C19.5563333,11.9166667 20.0416667,12.402 20.0416667,13 C20.0416667,13.598 19.5563333,14.0833333 18.9583333,14.0833333 C18.3603333,14.0833333 17.875,13.598 17.875,13 C17.875,12.402 18.3603333,11.9166667 18.9583333,11.9166667 Z M7.04166667,11.9166667 C7.63966667,11.9166667 8.125,12.402 8.125,13 C8.125,13.598 7.63966667,14.0833333 7.04166667,14.0833333 C6.44366667,14.0833333 5.95833333,13.598 5.95833333,13 C5.95833333,12.402 6.44366667,11.9166667 7.04166667,11.9166667 Z M9.55283333,8.021 C9.97533333,8.4435 9.97533333,9.12925 9.55283333,9.55283333 C9.13033333,9.97533333 8.4435,9.97533333 8.021,9.55283333 C7.5985,9.13033333 7.5985,8.4435 8.021,8.021 C8.4435,7.5985 9.12925,7.5985 9.55283333,8.021 Z M13,5.95833333 C13.598,5.95833333 14.0833333,6.44366667 14.0833333,7.04166667 C14.0833333,7.63966667 13.598,8.125 13,8.125 C12.402,8.125 11.9166667,7.63966667 11.9166667,7.04166667 C11.9166667,6.44366667 12.402,5.95833333 13,5.95833333 Z" id="Shape" fill="#0D67CA" fill-rule="nonzero"></path>
            </g>
        </g>
    </g>
</svg>