<?xml version="1.0" encoding="UTF-8"?>
<svg width="163px" height="29px" viewBox="0 0 163 29" version="1.1" xmlns="http://www.w3.org/2000/svg" xmlns:xlink="http://www.w3.org/1999/xlink">
    <title>Group 56</title>
    <g id="Page-1" stroke="none" stroke-width="1" fill="none" fill-rule="evenodd">
        <g id="0.1-Adani-Electricity---Web-Site---Home-Copy" transform="translate(-61.000000, -89.000000)" fill="#FFFFFF" fill-rule="nonzero">
            <g id="Group-23" transform="translate(0.000000, 40.000000)">
                <g id="Group-48" transform="translate(28.000000, 40.000000)">
                    <g id="Electricity-+-adani-Mask" transform="translate(24.000000, 0.000000)">
                        <g id="Group-56" transform="translate(9.777778, 9.777778)">
                            <path d="M83.6545467,23.8573508 C83.9414282,23.8573508 84.1815356,23.7639495 84.3748688,23.577147 C84.568202,23.3903445 84.6648686,23.153728 84.6648686,22.8672974 C84.6648686,22.5933204 84.5619654,22.3598172 84.3561591,22.166788 C84.1503528,21.9737587 83.916482,21.8772441 83.6545467,21.8772441 L83.6545467,21.8772441 L77.7984216,21.8772441 L77.7984216,18.1785541 L83.4487404,18.1785541 C83.6982026,18.1785541 83.916482,18.0851528 84.1035786,17.8983503 C84.2906753,17.7115478 84.3842236,17.4936115 84.3842236,17.2445415 C84.3842236,16.9705645 84.2937936,16.7464014 84.1129335,16.5720524 C83.9320734,16.3977034 83.7106757,16.3105289 83.4487404,16.3105289 L83.4487404,16.3105289 L77.7984216,16.3105289 L77.7984216,12.7052402 L83.5984177,12.7052402 C83.8728261,12.7052402 84.1129335,12.6087255 84.3187398,12.4156963 C84.5245461,12.222667 84.6274493,11.9829371 84.6274493,11.6965066 C84.6274493,11.410076 84.5276644,11.1765729 84.3280946,10.9959971 C84.1285249,10.8154213 83.8852992,10.7251334 83.5984177,10.7251334 L83.5984177,10.7251334 L77.33068,10.7251334 C76.8192825,10.7251334 76.432616,10.8714621 76.1706807,11.1641194 C75.9087454,11.4567766 75.7777778,11.8148148 75.7777778,12.2382339 L75.7777778,12.2382339 L75.7777778,22.3255701 C75.7777778,22.7489892 75.9087454,23.1101407 76.1706807,23.4090247 C76.432616,23.7079088 76.8192825,23.8573508 77.33068,23.8573508 L77.33068,23.8573508 L83.6545467,23.8573508 Z M87.882931,23.9320718 C88.1698125,23.9320718 88.4068016,23.8355572 88.5938982,23.6425279 C88.7809949,23.4494986 88.8745432,23.2097687 88.8745432,22.9233382 L88.8745432,22.9233382 L88.8745432,11.5470645 C88.8745432,11.260634 88.7778766,11.0209041 88.5845434,10.8278748 C88.3912102,10.6348455 88.1573394,10.5383309 87.882931,10.5383309 C87.5960494,10.5383309 87.3590603,10.6348455 87.1719637,10.8278748 C86.984867,11.0209041 86.8913187,11.260634 86.8913187,11.5470645 L86.8913187,11.5470645 L86.8913187,22.9233382 C86.8913187,23.2097687 86.9911036,23.4494986 87.1906734,23.6425279 C87.3902431,23.8355572 87.6209956,23.9320718 87.882931,23.9320718 Z M95.5351839,24.0441533 C95.8095923,24.0441533 96.0933556,24.0285864 96.3864736,23.9974527 C96.6795917,23.9663189 96.9602367,23.9227317 97.2284086,23.8666909 C97.4965804,23.8106502 97.7460426,23.7421559 97.9767952,23.6612082 C98.2075477,23.5802604 98.4039992,23.4899725 98.5661496,23.3903445 C98.7781925,23.2658095 98.9153967,23.1319343 98.9777622,22.9887191 C99.0401278,22.8455038 99.0713106,22.6991752 99.0713106,22.5497331 C99.0713106,22.4127446 99.0401278,22.2819829 98.9777622,22.1574478 C98.9153967,22.0329128 98.8249666,21.9301714 98.7064721,21.8492237 C98.5879775,21.7682759 98.4445368,21.7184619 98.2761498,21.6997817 C98.1077628,21.6811014 97.9237844,21.7091218 97.7242147,21.7838428 C97.3624945,21.9208313 96.997656,22.0297995 96.6296993,22.1107472 C96.2617425,22.191695 95.9093772,22.2321689 95.5726032,22.2321689 C94.8366897,22.2321689 94.2410987,22.0329128 93.7858302,21.6344008 C93.3305617,21.2358887 93.1029275,20.6630277 93.1029275,19.9158176 L93.1029275,19.9158176 L93.1029275,19.6916545 L98.3977626,19.6916545 C98.8093752,19.6916545 99.1118482,19.579573 99.3051814,19.35541 C99.4985146,19.131247 99.5951812,18.8448164 99.5951812,18.4961184 L99.5951812,18.4961184 L99.5951812,17.9730713 C99.5951812,17.3503962 99.4953963,16.7806486 99.2958265,16.2638282 C99.0962568,15.7470079 98.8156118,15.3049086 98.4538916,14.9375303 C98.0921714,14.570152 97.6556126,14.2868349 97.1442151,14.0875788 C96.6328176,13.8883228 96.0652911,13.7886948 95.4416356,13.7886948 C94.8553994,13.7886948 94.3097008,13.8789827 93.8045399,14.0595585 C93.2993789,14.2401342 92.8597018,14.5016578 92.4855085,14.8441291 C92.1113152,15.1866004 91.8119606,15.6006793 91.5874446,16.0863658 C91.3629286,16.5720524 91.2257244,17.1137797 91.175832,17.7115478 C91.1633589,17.8609898 91.154004,18.0322255 91.1477675,18.2252547 C91.1415309,18.418284 91.1384126,18.61754 91.1384126,18.8230228 C91.1384126,19.0285056 91.1415309,19.2371017 91.1477675,19.4488113 C91.154004,19.6605208 91.1633589,19.8535501 91.175832,20.0278991 C91.2132513,20.6132137 91.3411007,21.1518276 91.5593801,21.6437409 C91.7776595,22.1356542 92.0738959,22.5590733 92.4480892,22.9139981 C92.8222825,23.2689229 93.2681962,23.5460133 93.7858302,23.7452693 C94.3034643,23.9445253 94.8865822,24.0441533 95.5351839,24.0441533 Z M97.4435697,18.1225133 L93.1029275,18.1225133 C93.0779812,17.3379427 93.2619596,16.7121543 93.6548626,16.245148 C94.0477655,15.7781417 94.6433565,15.5446385 95.4416356,15.5446385 C96.1650759,15.5446385 96.7294842,15.7594614 97.1348602,16.1891072 C97.5402363,16.618753 97.7179781,17.1885007 97.6680857,17.8983503 C97.6431395,18.0477923 97.5683008,18.1225133 97.4435697,18.1225133 L97.4435697,18.1225133 Z M105.694532,24.0441533 C106.355607,24.0441533 106.935606,23.9445253 107.434531,23.7452693 C107.933455,23.5460133 108.348186,23.3000566 108.678723,23.0073993 C109.009261,22.714742 109.258723,22.4096312 109.42711,22.092067 C109.595497,21.7745027 109.679691,21.4974123 109.679691,21.2607957 C109.679691,20.9743652 109.592379,20.7346353 109.417755,20.541606 C109.243132,20.3485767 109.018616,20.2520621 108.744207,20.2520621 C108.345068,20.2520621 108.058186,20.4326379 107.883563,20.7937894 C107.67152,21.2670225 107.372165,21.6094938 106.985499,21.8212033 C106.598832,22.0329128 106.180983,22.1387676 105.731951,22.1387676 C104.996038,22.1387676 104.43163,21.9363982 104.038727,21.5316594 C103.645824,21.1269206 103.418189,20.6069869 103.355824,19.9718583 C103.343351,19.8224163 103.333996,19.6480673 103.327759,19.4488113 C103.321523,19.2495552 103.318404,19.0440725 103.318404,18.8323629 C103.318404,18.6206534 103.321523,18.418284 103.327759,18.2252547 C103.333996,18.0322255 103.343351,17.8734433 103.355824,17.7489083 C103.418189,17.1137797 103.65206,16.6125263 104.057436,16.245148 C104.462812,15.8777697 105.020984,15.6940805 105.731951,15.6940805 C106.180983,15.6940805 106.595714,15.7999353 106.976144,16.0116448 C107.356574,16.2233544 107.65281,16.5658257 107.864853,17.0390587 C108.039477,17.4002103 108.320122,17.580786 108.706788,17.580786 C108.993669,17.580786 109.221304,17.4842714 109.389691,17.2912421 C109.558078,17.0982128 109.642271,16.8584829 109.642271,16.5720524 C109.642271,16.3354359 109.561196,16.0583455 109.399046,15.7407812 C109.236895,15.4232169 108.990551,15.1212195 108.660014,14.8347889 C108.329476,14.5483584 107.917864,14.3024017 107.425176,14.096919 C106.932488,13.8914362 106.355607,13.7886948 105.694532,13.7886948 C105.095823,13.7886948 104.540769,13.8789827 104.029372,14.0595585 C103.517974,14.2401342 103.072061,14.495431 102.691631,14.8254488 C102.311201,15.1554666 102.00561,15.5508653 101.774857,16.0116448 C101.544105,16.4724244 101.410019,16.983018 101.372599,17.5434255 C101.360126,17.730228 101.350771,17.9388242 101.344535,18.169214 C101.338298,18.3996038 101.33518,18.6331069 101.33518,18.8697234 C101.33518,19.10634 101.338298,19.3398431 101.344535,19.5702329 C101.350771,19.8006227 101.360126,20.0092188 101.372599,20.1960213 C101.410019,20.7315219 101.544105,21.2327754 101.774857,21.6997817 C102.00561,22.166788 102.308083,22.5746401 102.682276,22.9233382 C103.056469,23.2720362 103.499265,23.5460133 104.010662,23.7452693 C104.52206,23.9445253 105.08335,24.0441533 105.694532,24.0441533 Z M114.693881,24.0441533 C115.055601,24.0441533 115.423558,24.0161329 115.797751,23.9600922 C116.171944,23.9040514 116.502482,23.8137635 116.789363,23.6892285 C117.038825,23.5896005 117.213449,23.4588388 117.313234,23.2969432 C117.413019,23.1350477 117.462911,22.9606987 117.462911,22.7738962 C117.462911,22.6369077 117.434847,22.5030325 117.378718,22.3722707 C117.322589,22.241509 117.244632,22.1356542 117.144847,22.0547065 C117.045062,21.9737587 116.917213,21.9146046 116.761299,21.8772441 C116.605385,21.8398836 116.43388,21.8461103 116.246783,21.8959243 C116.03474,21.9581918 115.819579,22.0204593 115.601299,22.0827268 C115.38302,22.1449943 115.149149,22.1761281 114.899687,22.1761281 C114.438182,22.1761281 114.101408,22.0484797 113.889365,21.7931829 C113.677322,21.5378861 113.571301,21.1736212 113.571301,20.7003882 L113.571301,20.7003882 L113.571301,16.0490053 L116.153235,16.0490053 C116.402697,16.0490053 116.620976,15.9649442 116.808073,15.7968219 C116.99517,15.6286997 117.088718,15.4201035 117.088718,15.1710335 C117.088718,14.9219634 116.99517,14.7133673 116.808073,14.545245 C116.620976,14.3771228 116.402697,14.2930616 116.153235,14.2930616 L116.153235,14.2930616 L113.571301,14.2930616 L113.571301,12.8733624 C113.571301,12.5869319 113.474634,12.347202 113.281301,12.1541727 C113.087968,11.9611435 112.854097,11.8646288 112.579689,11.8646288 C112.292807,11.8646288 112.055818,11.9611435 111.868721,12.1541727 C111.681625,12.347202 111.588076,12.5869319 111.588076,12.8733624 L111.588076,12.8733624 L111.588076,20.6817079 C111.588076,21.154941 111.650442,21.5970403 111.775173,22.0080058 C111.899904,22.4189714 112.090119,22.7738962 112.345818,23.0727802 C112.601517,23.3716642 112.922699,23.6082808 113.309366,23.7826298 C113.696032,23.9569788 114.157537,24.0441533 114.693881,24.0441533 Z M120.157103,23.9320718 C120.443984,23.9320718 120.684092,23.8386705 120.877425,23.651868 C121.070758,23.4650655 121.167425,23.228449 121.167425,22.9420184 L121.167425,22.9420184 L121.167425,17.1885007 C121.167425,16.6654537 121.273446,16.2887352 121.485489,16.0583455 C121.697532,15.8279557 122.021833,15.706534 122.458392,15.6940805 C122.770219,15.681627 123.038391,15.706534 123.262907,15.7688016 C123.487423,15.8310691 123.686993,15.8622028 123.861617,15.8622028 C124.185917,15.8622028 124.422906,15.7594614 124.572584,15.5539787 C124.722261,15.3484959 124.7971,15.1398997 124.7971,14.9281902 C124.7971,14.7040272 124.740971,14.5141113 124.628713,14.3584425 C124.516455,14.2027737 124.316885,14.0813521 124.030003,13.9941776 C123.830434,13.9319101 123.577853,13.8820961 123.272262,13.8447356 C122.966671,13.8073751 122.651725,13.7886948 122.327424,13.7886948 C121.304629,13.7886948 120.52506,14.0657852 119.988716,14.619966 C119.452372,15.1741469 119.1842,15.9244703 119.1842,16.8709364 L119.1842,16.8709364 L119.1842,22.9420184 C119.1842,23.228449 119.280867,23.4650655 119.4742,23.651868 C119.667533,23.8386705 119.895168,23.9320718 120.157103,23.9320718 Z M127.191937,12.6305192 C127.503765,12.6305192 127.7657,12.5184377 127.977743,12.2942746 C128.189786,12.0701116 128.295807,11.8023613 128.295807,11.4910238 C128.295807,11.1796862 128.189786,10.9181627 127.977743,10.7064532 C127.7657,10.4947437 127.503765,10.3888889 127.191937,10.3888889 C126.867636,10.3888889 126.599464,10.4947437 126.387421,10.7064532 C126.175378,10.9181627 126.069357,11.1796862 126.069357,11.4910238 C126.069357,11.8023613 126.175378,12.0701116 126.387421,12.2942746 C126.599464,12.5184377 126.867636,12.6305192 127.191937,12.6305192 Z M127.191937,23.9320718 C127.478818,23.9320718 127.715807,23.8355572 127.902904,23.6425279 C128.090001,23.4494986 128.183549,23.2097687 128.183549,22.9233382 L128.183549,22.9233382 L128.183549,14.9281902 C128.183549,14.6417597 128.086883,14.4020298 127.893549,14.2090005 C127.700216,14.0159712 127.466345,13.9194566 127.191937,13.9194566 C126.905055,13.9194566 126.668066,14.0159712 126.48097,14.2090005 C126.293873,14.4020298 126.200325,14.6417597 126.200325,14.9281902 L126.200325,14.9281902 L126.200325,22.9233382 C126.200325,23.2097687 126.30011,23.4494986 126.499679,23.6425279 C126.699249,23.8355572 126.930002,23.9320718 127.191937,23.9320718 Z M134.881609,24.0441533 C135.542684,24.0441533 136.122684,23.9445253 136.621608,23.7452693 C137.120532,23.5460133 137.535263,23.3000566 137.865801,23.0073993 C138.196338,22.714742 138.4458,22.4096312 138.614187,22.092067 C138.782574,21.7745027 138.866768,21.4974123 138.866768,21.2607957 C138.866768,20.9743652 138.779456,20.7346353 138.604832,20.541606 C138.430209,20.3485767 138.205693,20.2520621 137.931285,20.2520621 C137.532145,20.2520621 137.245263,20.4326379 137.07064,20.7937894 C136.858597,21.2670225 136.559242,21.6094938 136.172576,21.8212033 C135.78591,22.0329128 135.36806,22.1387676 134.919028,22.1387676 C134.183115,22.1387676 133.618707,21.9363982 133.225804,21.5316594 C132.832901,21.1269206 132.605267,20.6069869 132.542901,19.9718583 C132.530428,19.8224163 132.521073,19.6480673 132.514837,19.4488113 C132.5086,19.2495552 132.505482,19.0440725 132.505482,18.8323629 C132.505482,18.6206534 132.5086,18.418284 132.514837,18.2252547 C132.521073,18.0322255 132.530428,17.8734433 132.542901,17.7489083 C132.605267,17.1137797 132.839137,16.6125263 133.244513,16.245148 C133.64989,15.8777697 134.208061,15.6940805 134.919028,15.6940805 C135.36806,15.6940805 135.782791,15.7999353 136.163221,16.0116448 C136.543651,16.2233544 136.839887,16.5658257 137.05193,17.0390587 C137.226554,17.4002103 137.507199,17.580786 137.893865,17.580786 C138.180747,17.580786 138.408381,17.4842714 138.576768,17.2912421 C138.745155,17.0982128 138.829348,16.8584829 138.829348,16.5720524 C138.829348,16.3354359 138.748273,16.0583455 138.586123,15.7407812 C138.423972,15.4232169 138.177628,15.1212195 137.847091,14.8347889 C137.516554,14.5483584 137.104941,14.3024017 136.612253,14.096919 C136.119565,13.8914362 135.542684,13.7886948 134.881609,13.7886948 C134.2829,13.7886948 133.727846,13.8789827 133.216449,14.0595585 C132.705051,14.2401342 132.259138,14.495431 131.878708,14.8254488 C131.498278,15.1554666 131.192687,15.5508653 130.961934,16.0116448 C130.731182,16.4724244 130.597096,16.983018 130.559677,17.5434255 C130.547203,17.730228 130.537849,17.9388242 130.531612,18.169214 C130.525375,18.3996038 130.522257,18.6331069 130.522257,18.8697234 C130.522257,19.10634 130.525375,19.3398431 130.531612,19.5702329 C130.537849,19.8006227 130.547203,20.0092188 130.559677,20.1960213 C130.597096,20.7315219 130.731182,21.2327754 130.961934,21.6997817 C131.192687,22.166788 131.49516,22.5746401 131.869353,22.9233382 C132.243546,23.2720362 132.686342,23.5460133 133.197739,23.7452693 C133.709137,23.9445253 134.270427,24.0441533 134.881609,24.0441533 Z M141.953862,12.6305192 C142.26569,12.6305192 142.527626,12.5184377 142.739668,12.2942746 C142.951711,12.0701116 143.057733,11.8023613 143.057733,11.4910238 C143.057733,11.1796862 142.951711,10.9181627 142.739668,10.7064532 C142.527626,10.4947437 142.26569,10.3888889 141.953862,10.3888889 C141.629562,10.3888889 141.36139,10.4947437 141.149347,10.7064532 C140.937304,10.9181627 140.831283,11.1796862 140.831283,11.4910238 C140.831283,11.8023613 140.937304,12.0701116 141.149347,12.2942746 C141.36139,12.5184377 141.629562,12.6305192 141.953862,12.6305192 Z M141.953862,23.9320718 C142.240744,23.9320718 142.477733,23.8355572 142.66483,23.6425279 C142.851926,23.4494986 142.945475,23.2097687 142.945475,22.9233382 L142.945475,22.9233382 L142.945475,14.9281902 C142.945475,14.6417597 142.848808,14.4020298 142.655475,14.2090005 C142.462142,14.0159712 142.228271,13.9194566 141.953862,13.9194566 C141.666981,13.9194566 141.429992,14.0159712 141.242895,14.2090005 C141.055799,14.4020298 140.96225,14.6417597 140.96225,14.9281902 L140.96225,14.9281902 L140.96225,22.9233382 C140.96225,23.2097687 141.062035,23.4494986 141.261605,23.6425279 C141.461175,23.8355572 141.691927,23.9320718 141.953862,23.9320718 Z M148.651922,24.0441533 C149.013643,24.0441533 149.381599,24.0161329 149.755793,23.9600922 C150.129986,23.9040514 150.460523,23.8137635 150.747405,23.6892285 C150.996867,23.5896005 151.171491,23.4588388 151.271276,23.2969432 C151.37106,23.1350477 151.420953,22.9606987 151.420953,22.7738962 C151.420953,22.6369077 151.392888,22.5030325 151.336759,22.3722707 C151.28063,22.241509 151.202673,22.1356542 151.102889,22.0547065 C151.003104,21.9737587 150.875254,21.9146046 150.71934,21.8772441 C150.563427,21.8398836 150.391921,21.8461103 150.204825,21.8959243 C149.992782,21.9581918 149.777621,22.0204593 149.559341,22.0827268 C149.341062,22.1449943 149.107191,22.1761281 148.857729,22.1761281 C148.396224,22.1761281 148.05945,22.0484797 147.847407,21.7931829 C147.635364,21.5378861 147.529343,21.1736212 147.529343,20.7003882 L147.529343,20.7003882 L147.529343,16.0490053 L150.111276,16.0490053 C150.360739,16.0490053 150.579018,15.9649442 150.766115,15.7968219 C150.953211,15.6286997 151.04676,15.4201035 151.04676,15.1710335 C151.04676,14.9219634 150.953211,14.7133673 150.766115,14.545245 C150.579018,14.3771228 150.360739,14.2930616 150.111276,14.2930616 L150.111276,14.2930616 L147.529343,14.2930616 L147.529343,12.8733624 C147.529343,12.5869319 147.432676,12.347202 147.239343,12.1541727 C147.04601,11.9611435 146.812139,11.8646288 146.53773,11.8646288 C146.250849,11.8646288 146.01386,11.9611435 145.826763,12.1541727 C145.639666,12.347202 145.546118,12.5869319 145.546118,12.8733624 L145.546118,12.8733624 L145.546118,20.6817079 C145.546118,21.154941 145.608484,21.5970403 145.733215,22.0080058 C145.857946,22.4189714 146.048161,22.7738962 146.30386,23.0727802 C146.559558,23.3716642 146.880741,23.6082808 147.267407,23.7826298 C147.654074,23.9569788 148.115579,24.0441533 148.651922,24.0441533 Z M154.339661,27.5 C154.614069,27.5 154.894714,27.4065987 155.181596,27.2197962 C155.568262,26.9707262 155.995466,26.5473071 156.463208,25.9495391 C156.930949,25.351771 157.351917,24.6045609 157.72611,23.7079088 L157.72611,23.7079088 L161.243527,15.357836 C161.318366,15.183487 161.34643,15.009138 161.32772,14.8347889 C161.309011,14.6604399 161.252882,14.5047711 161.159333,14.3677826 C161.065785,14.2307941 160.947291,14.121826 160.80385,14.0408782 C160.660409,13.9599305 160.49514,13.9194566 160.308044,13.9194566 C160.058581,13.9194566 159.849657,13.9910642 159.68127,14.1342795 C159.512883,14.2774947 159.385034,14.4674106 159.297722,14.7040272 L159.297722,14.7040272 L156.977723,20.7003882 C156.952777,20.7377487 156.921594,20.7564289 156.884175,20.7564289 C156.846756,20.7564289 156.821809,20.7377487 156.809336,20.7003882 L156.809336,20.7003882 L154.283532,14.6666667 C154.208693,14.4549571 154.08708,14.2774947 153.918693,14.1342795 C153.750306,13.9910642 153.535145,13.9194566 153.27321,13.9194566 C153.111059,13.9194566 152.958264,13.9599305 152.814823,14.0408782 C152.671382,14.121826 152.552888,14.2276807 152.459339,14.3584425 C152.365791,14.4892043 152.309662,14.6417597 152.290952,14.8161087 C152.272243,14.9904577 152.300307,15.1710335 152.375146,15.357836 L152.375146,15.357836 L155.780305,23.1848617 C155.530843,23.8573508 155.225251,24.4021915 154.863531,24.8193838 C154.501811,25.2365761 154.152564,25.551027 153.81579,25.7627365 C153.678586,25.8623645 153.575683,25.9868996 153.507081,26.1363416 C153.438478,26.2857836 153.404177,26.4289989 153.404177,26.5659874 C153.404177,26.8524179 153.497726,27.0796943 153.684822,27.2478166 C153.871919,27.4159389 154.090198,27.5 154.339661,27.5 Z" id="Electricity"></path>
                            <path d="M6.71301435,24.4444444 C7.56442105,24.4444444 8.35579266,24.377565 9.08712919,24.243806 C9.81846571,24.1100471 10.4733939,23.9428485 11.0519139,23.7422101 C11.6304338,23.5415717 12.1270877,23.33536 12.5418756,23.123575 C12.9566635,22.91179 13.2841276,22.7278715 13.5242679,22.5718194 C13.7644083,22.3934742 13.9281404,22.2095557 14.0154641,22.0200638 C14.1027879,21.830572 14.1464498,21.579774 14.1464498,21.2676699 L14.1464498,21.2676699 L14.1464498,12.5733394 C14.1464498,10.3217308 13.5406411,8.67761058 12.3290239,7.64097887 C11.1174067,6.60434717 9.46371292,6.08603131 7.36794258,6.08603131 C6.3637193,6.08603131 5.39770016,6.1919238 4.46988517,6.40370877 C3.54207018,6.61549374 2.83802233,6.84399858 2.35774163,7.08922329 C1.92112281,7.28986168 1.62094737,7.54065967 1.45721531,7.84161727 C1.29348325,8.14257486 1.21161722,8.43795916 1.21161722,8.72777018 C1.21161722,9.24051274 1.42992663,9.65293611 1.86654545,9.96504028 C2.30316427,10.2771444 2.88168421,10.3105842 3.60210526,10.0653595 C4.06055502,9.88701424 4.60087081,9.71981557 5.22305263,9.56376349 C5.84523445,9.4077114 6.49470494,9.32968536 7.17146411,9.32968536 C8.45948963,9.32968536 9.38730463,9.58605664 9.95490909,10.0987992 C10.5225136,10.6115418 10.8063158,11.4363885 10.8063158,12.5733394 L10.8063158,12.5733394 L10.8063158,13.6768506 C10.0422329,13.4985053 9.34910048,13.3591731 8.72691866,13.2588539 C8.10473684,13.1585347 7.41160447,13.1083751 6.64752153,13.1083751 C5.49048166,13.1083751 4.49717384,13.2588539 3.66759809,13.5598115 C2.83802233,13.8607691 2.15034769,14.2676192 1.60457416,14.7803618 C1.05880064,15.2931043 0.65492823,15.8838729 0.392956938,16.5526676 C0.130985646,17.2214622 0,17.9236966 0,18.6593707 C0,19.4842175 0.141901116,20.247758 0.425703349,20.9499924 C0.709505582,21.6522268 1.1297512,22.2652885 1.68644019,22.7891777 C2.24312919,23.3130668 2.9417193,23.7199169 3.78221053,24.0097279 C4.62270175,24.2995389 5.59963636,24.4444444 6.71301435,24.4444444 Z M7.00773206,21.3345493 C5.82886124,21.3345493 4.93379266,21.0948979 4.32252632,20.6155951 C3.71125997,20.1362922 3.40562679,19.4396311 3.40562679,18.5256118 C3.40562679,17.7230582 3.72763317,17.1044232 4.37164593,16.6697066 C5.01565869,16.2349901 5.83977671,16.0176319 6.844,16.0176319 C7.58625199,16.0176319 8.25209569,16.0677915 8.8415311,16.1681107 C9.43096651,16.2684299 10.0858947,16.4077621 10.8063158,16.5861073 L10.8063158,16.5861073 L10.8063158,20.2979176 C10.6316683,20.4316765 10.2387113,20.6378882 9.62744498,20.9165527 C9.01617863,21.1952171 8.14294099,21.3345493 7.00773206,21.3345493 Z M23.0862201,24.4444444 C23.872134,24.4444444 24.6253014,24.3664184 25.3457225,24.2103663 C26.0661435,24.0543142 26.715614,23.8648224 27.294134,23.6418909 C27.8726539,23.4189593 28.3747656,23.1904545 28.8004689,22.9563763 C29.2261722,22.7222982 29.5481786,22.5272331 29.766488,22.371181 C30.0284593,22.1928358 30.1976491,22.003344 30.2740574,21.8027056 C30.3504657,21.6020672 30.3886699,21.3456959 30.3886699,21.0335917 L30.3886699,21.0335917 L30.3886699,2.03982368 C30.3886699,1.52708112 30.2249378,1.09793788 29.8974737,0.752393981 C29.5700096,0.406850079 29.1552217,0.234078127 28.65311,0.234078127 C28.1728293,0.234078127 27.7634992,0.406850079 27.4251196,0.752393981 C27.08674,1.09793788 26.9175502,1.52708112 26.9175502,2.03982368 L26.9175502,2.03982368 L26.9175502,7.05578355 C26.3717767,6.81055885 25.7168485,6.5876273 24.9527656,6.3869889 C24.1886826,6.18635051 23.4136842,6.08603131 22.6277703,6.08603131 C20.5101691,6.08603131 18.8564753,6.68237321 17.666689,7.875057 C16.4769027,9.06774079 15.7946858,10.711861 15.6200383,12.8074175 C15.5982073,13.1195217 15.5818341,13.4817855 15.5709187,13.8942088 C15.5600032,14.3066322 15.5545455,14.7357754 15.5545455,15.1816385 C15.5545455,15.6275016 15.5600032,16.0622182 15.5709187,16.4857881 C15.5818341,16.9093581 15.5982073,17.2660485 15.6200383,17.5558596 C15.707362,18.5813447 15.9365869,19.5176572 16.3077129,20.3647971 C16.6788389,21.211937 17.1864083,21.9364645 17.8304211,22.5383797 C18.4744338,23.1402949 19.233059,23.6084511 20.1062967,23.9428485 C20.9795343,24.2772458 21.9728421,24.4444444 23.0862201,24.4444444 Z M23.1517129,21.0335917 C20.6411547,21.0335917 19.2876364,19.7294422 19.0911579,17.121143 C19.069327,16.8536252 19.0529537,16.5470943 19.0420383,16.2015504 C19.0311228,15.8560065 19.0256651,15.499316 19.0256651,15.1314789 C19.0256651,14.7636419 19.0311228,14.4069514 19.0420383,14.0614075 C19.0529537,13.7158636 19.069327,13.4316259 19.0911579,13.2086943 C19.1566507,11.9825708 19.4950303,11.0574049 20.1062967,10.4331965 C20.717563,9.80898819 21.645378,9.49688402 22.8897416,9.49688402 C23.7411483,9.49688402 24.5379777,9.61392309 25.2802297,9.84800122 C26.0224817,10.0820793 26.5682552,10.3105842 26.9175502,10.5335157 L26.9175502,10.5335157 L26.9175502,19.8297614 C26.7429027,19.9635203 26.5191356,20.0972792 26.2462488,20.2310382 C25.973362,20.3647971 25.6622711,20.4929827 25.3129761,20.6155951 C24.963681,20.7382074 24.6034705,20.8385266 24.2323445,20.9165527 C23.8612185,20.9945787 23.501008,21.0335917 23.1517129,21.0335917 Z M38.5425263,24.4444444 C39.393933,24.4444444 40.1853046,24.377565 40.9166411,24.243806 C41.6479777,24.1100471 42.3029059,23.9428485 42.8814258,23.7422101 C43.4599458,23.5415717 43.9565997,23.33536 44.3713876,23.123575 C44.7861754,22.91179 45.1136396,22.7278715 45.3537799,22.5718194 C45.5939203,22.3934742 45.7576523,22.2095557 45.8449761,22.0200638 C45.9322998,21.830572 45.9759617,21.579774 45.9759617,21.2676699 L45.9759617,21.2676699 L45.9759617,12.5733394 C45.9759617,10.3217308 45.3701531,8.67761058 44.1585359,7.64097887 C42.9469187,6.60434717 41.2932249,6.08603131 39.1974545,6.08603131 C38.1932313,6.08603131 37.2272121,6.1919238 36.2993971,6.40370877 C35.3715821,6.61549374 34.6675343,6.84399858 34.1872536,7.08922329 C33.7506348,7.28986168 33.4504593,7.54065967 33.2867273,7.84161727 C33.1229952,8.14257486 33.0411292,8.43795916 33.0411292,8.72777018 C33.0411292,9.24051274 33.2594386,9.65293611 33.6960574,9.96504028 C34.1326762,10.2771444 34.7111962,10.3105842 35.4316172,10.0653595 C35.890067,9.88701424 36.4303828,9.71981557 37.0525646,9.56376349 C37.6747464,9.4077114 38.3242169,9.32968536 39.0009761,9.32968536 C40.2890016,9.32968536 41.2168166,9.58605664 41.7844211,10.0987992 C42.3520255,10.6115418 42.6358278,11.4363885 42.6358278,12.5733394 L42.6358278,12.5733394 L42.6358278,13.6768506 C41.8717448,13.4985053 41.1786124,13.3591731 40.5564306,13.2588539 C39.9342488,13.1585347 39.2411164,13.1083751 38.4770335,13.1083751 C37.3199936,13.1083751 36.3266858,13.2588539 35.49711,13.5598115 C34.6675343,13.8607691 33.9798596,14.2676192 33.4340861,14.7803618 C32.8883126,15.2931043 32.4844402,15.8838729 32.2224689,16.5526676 C31.9604976,17.2214622 31.829512,17.9236966 31.829512,18.6593707 C31.829512,19.4842175 31.9714131,20.247758 32.2552153,20.9499924 C32.5390175,21.6522268 32.9592632,22.2652885 33.5159522,22.7891777 C34.0726411,23.3130668 34.7712313,23.7199169 35.6117225,24.0097279 C36.4522137,24.2995389 37.4291483,24.4444444 38.5425263,24.4444444 Z M38.837244,21.3345493 C37.6583732,21.3345493 36.7633046,21.0948979 36.1520383,20.6155951 C35.5407719,20.1362922 35.2351388,19.4396311 35.2351388,18.5256118 C35.2351388,17.7230582 35.5571451,17.1044232 36.2011579,16.6697066 C36.8451707,16.2349901 37.6692887,16.0176319 38.673512,16.0176319 C39.415764,16.0176319 40.0816077,16.0677915 40.6710431,16.1681107 C41.2604785,16.2684299 41.9154067,16.4077621 42.6358278,16.5861073 L42.6358278,16.5861073 L42.6358278,20.2979176 C42.4611802,20.4316765 42.0682233,20.6378882 41.4569569,20.9165527 C40.8456906,21.1952171 39.972453,21.3345493 38.837244,21.3345493 Z M60.8428325,24.243806 C61.3449442,24.243806 61.7597321,24.0710341 62.0871962,23.7254902 C62.4146603,23.3799463 62.5783923,22.9508031 62.5783923,22.4380605 L62.5783923,22.4380605 L62.5783923,13.1418149 C62.5783923,10.8679131 61.9780415,9.12347368 60.7773397,7.90849673 C59.576638,6.69351979 57.7865008,6.08603131 55.4069282,6.08603131 C54.5555215,6.08603131 53.7641499,6.14733749 53.0328134,6.26994984 C52.3014769,6.39256219 51.6520064,6.54861428 51.0844019,6.7381061 C50.5167974,6.92759791 50.0256013,7.12823631 49.6108134,7.34002128 C49.1960255,7.55180625 48.8685614,7.74687136 48.6284211,7.9252166 C48.3882807,8.10356184 48.2136332,8.28748037 48.1044785,8.47697218 C47.9953238,8.666464 47.9407464,8.93955515 47.9407464,9.29624563 L47.9407464,9.29624563 L47.9407464,22.4380605 C47.9407464,22.9508031 48.1153939,23.3799463 48.464689,23.7254902 C48.8139841,24.0710341 49.2178565,24.243806 49.6763062,24.243806 C50.1784179,24.243806 50.5932057,24.0710341 50.9206699,23.7254902 C51.248134,23.3799463 51.411866,22.9508031 51.411866,22.4380605 L51.411866,22.4380605 L51.411866,10.4331965 C51.782992,10.1879718 52.3233078,9.97061357 53.0328134,9.78112175 C53.742319,9.59162993 54.5009442,9.49688402 55.308689,9.49688402 C55.8108006,9.49688402 56.2910813,9.56933678 56.7495311,9.71424229 C57.2079809,9.85914779 57.6118533,10.0876526 57.9611483,10.3997568 C58.3104434,10.711861 58.5887879,11.1075645 58.7961818,11.5868673 C59.0035758,12.0661701 59.1072727,12.6402189 59.1072727,13.3090135 L59.1072727,13.3090135 L59.1072727,22.4380605 C59.1072727,22.9508031 59.2819203,23.3799463 59.6312153,23.7254902 C59.9805104,24.0710341 60.3843828,24.243806 60.8428325,24.243806 Z M66.5079617,4.0127679 C67.0537352,4.0127679 67.512185,3.8121295 67.883311,3.41085271 C68.254437,3.00957592 68.44,2.53027309 68.44,1.97294422 C68.44,1.41561534 68.254437,0.947459087 67.883311,0.568475452 C67.512185,0.189491817 67.0537352,0 66.5079617,0 C65.9403573,0 65.470992,0.189491817 65.099866,0.568475452 C64.72874,0.947459087 64.543177,1.41561534 64.543177,1.97294422 C64.543177,2.53027309 64.72874,3.00957592 65.099866,3.41085271 C65.470992,3.8121295 65.9403573,4.0127679 66.5079617,4.0127679 Z M66.5079617,24.243806 C67.0100734,24.243806 67.4248612,24.0710341 67.7523254,23.7254902 C68.0797895,23.3799463 68.2435215,22.9508031 68.2435215,22.4380605 L68.2435215,22.4380605 L68.2435215,8.12585499 C68.2435215,7.61311243 68.0743317,7.18396919 67.7359522,6.83842529 C67.3975726,6.49288139 66.9882424,6.32010944 66.5079617,6.32010944 C66.0058501,6.32010944 65.5910622,6.49288139 65.2635981,6.83842529 C64.936134,7.18396919 64.7724019,7.61311243 64.7724019,8.12585499 L64.7724019,8.12585499 L64.7724019,22.4380605 C64.7724019,22.9508031 64.9470494,23.3799463 65.2963445,23.7254902 C65.6456396,24.0710341 66.049512,24.243806 66.5079617,24.243806 Z" id="adani"></path>
                        </g>
                    </g>
                </g>
            </g>
        </g>
    </g>
</svg>