<?xml version="1.0" encoding="UTF-8"?>
<svg width="30px" height="30px" viewBox="0 0 30 30" version="1.1" xmlns="http://www.w3.org/2000/svg" xmlns:xlink="http://www.w3.org/1999/xlink">
    <title>Group</title>
    <g id="Page-1" stroke="none" stroke-width="1" fill="none" fill-rule="evenodd">
        <g id="3.1---AGEL-Admin---Content-Management---Empty-State" transform="translate(-740.000000, -408.000000)">
            <g id="AGEL-Website---Category" transform="translate(549.000000, 382.000000)">
                <g id="Group" transform="translate(191.000000, 26.000000)">
                    <polygon id="Path" points="0 0 30 0 30 30 0 30"></polygon>
                    <path d="M24.7222222,28 L4.27777778,28 C3.5720806,28 3,27.4403559 3,26.75 L3,4.25 C3,3.55964406 3.5720806,3 4.27777778,3 L24.7222222,3 C25.4279194,3 26,3.55964406 26,4.25 L26,26.75 C26,27.4403559 25.4279194,28 24.7222222,28 Z M23.4444444,25.5 L23.4444444,5.5 L5.55555556,5.5 L5.55555556,25.5 L23.4444444,25.5 Z M9.38888889,11.75 L19.6111111,11.75 L19.6111111,14.25 L9.38888889,14.25 L9.38888889,11.75 Z M9.38888889,16.75 L19.6111111,16.75 L19.6111111,19.25 L9.38888889,19.25 L9.38888889,16.75 Z" id="Shape" fill="#0D67CA" fill-rule="nonzero"></path>
                </g>
            </g>
        </g>
    </g>
</svg>