<?xml version="1.0" encoding="UTF-8"?>
<svg width="26px" height="26px" viewBox="0 0 26 26" version="1.1" xmlns="http://www.w3.org/2000/svg" xmlns:xlink="http://www.w3.org/1999/xlink">
    <title>Passwords</title>
    <g id="Page-1" stroke="none" stroke-width="1" fill="none" fill-rule="evenodd">
        <g id="1.2---Dashboard---Search-User" transform="translate(-21.000000, -481.000000)">
            <g id="Passwords" transform="translate(21.000000, 481.000000)">
                <polygon id="Path" points="0 0 26 0 26 26 0 26"></polygon>
                <path d="M13.9934167,14.0833333 C13.4213272,17.4072106 10.4026986,19.7418522 7.04176036,19.4598233 C3.68082207,19.1777945 1.09348502,16.3727353 1.08333058,13 C1.08024821,9.61858646 3.67022931,6.79958773 7.03980162,6.51683432 C10.4093739,6.23408092 13.4329326,8.58202656 13.9934167,11.9166667 L24.9166667,11.9166667 L24.9166667,14.0833333 L22.75,14.0833333 L22.75,18.4166667 L20.5833306,18.4166667 L20.5833306,14.0833333 L18.4166667,14.0833333 L18.4166667,18.4166667 L16.25,18.4166667 L16.25,14.0833333 L13.9934167,14.0833333 Z M7.58333333,17.3333333 C9.97656725,17.3333333 11.9166667,15.3932339 11.9166667,13 C11.9166667,10.6067661 9.97656725,8.66666667 7.58333333,8.66666667 C5.19009942,8.66666667 3.25,10.6067661 3.25,13 C3.25,15.3932339 5.19009942,17.3333333 7.58333333,17.3333333 Z" id="Shape" fill="#666666" fill-rule="nonzero"></path>
            </g>
        </g>
    </g>
</svg>