<svg width="52" height="52" viewBox="0 0 52 52" xmlns="http://www.w3.org/2000/svg">
    <defs>
        <linearGradient x1="-44.06%" y1="67.064%" x2="136.851%" y2="34.505%" id="a">
            <stop stop-color="#0FB371" offset="0%"/>
            <stop stop-color="#2073B8" offset="35%"/>
            <stop stop-color="#6B5CA6" offset="49%"/>
            <stop stop-color="#923993" offset="64%"/>
            <stop stop-color="#F05636" offset="89%"/>
            <stop stop-color="#F05636" offset="100%"/>
        </linearGradient>
    </defs>
    <g fill="none" fill-rule="evenodd">
        <g>
            <circle stroke="url(#a)" cx="26" cy="26" r="25.5"/>
            <path d="M16 16h20v20H16z"/>
        </g>
        <path d="M23.738 23.58v5.838l5.24-2.919-5.24-2.918zm-1.084-2.523 9.131 5.085c.133.075.215.211.215.358a.412.412 0 0 1-.215.358l-9.131 5.085a.452.452 0 0 1-.437.001.412.412 0 0 1-.217-.361V21.415c0-.149.083-.286.218-.36a.452.452 0 0 1 .436.002z" fill="#333" fill-rule="nonzero"/>
    </g>
</svg>
