<?xml version="1.0" encoding="utf-8"?>
<!-- Generator: Adobe Illustrator 25.4.1, SVG Export Plug-In . SVG Version: 6.00 Build 0)  -->
<svg version="1.1" id="Layer_1" xmlns="http://www.w3.org/2000/svg" xmlns:xlink="http://www.w3.org/1999/xlink" x="0px" y="0px"
	 viewBox="0 0 32 32" style="enable-background:new 0 0 32 32;" xml:space="preserve">
<style type="text/css">
	.st0{fill:url(#SVGID_1_);}
	.st1{fill:#FBE7E6;}
	.st2{fill:#F13300;}
	.st3{fill:#ED0000;}
	.st4{fill:none;stroke:#000000;stroke-width:1.2;stroke-miterlimit:10;}
	.st5{fill:none;stroke:#000000;stroke-width:1.2;stroke-linecap:round;stroke-miterlimit:10;}
	.st6{fill:none;stroke:#000000;stroke-width:1.2;stroke-linejoin:round;stroke-miterlimit:10;}
	.st7{fill:none;stroke:#000000;stroke-width:1.2;stroke-linecap:round;stroke-linejoin:round;stroke-miterlimit:10;}
	
		.st8{fill:none;stroke:#000000;stroke-width:1.2;stroke-linecap:round;stroke-linejoin:round;stroke-miterlimit:10;stroke-dasharray:0,2;}
	.st9{fill:none;stroke:#FFFFFF;stroke-miterlimit:10;}
	.st10{fill:none;stroke:#000000;stroke-width:1.5;stroke-miterlimit:10;}
	.st11{fill:none;stroke:#000000;stroke-width:1.5;stroke-linecap:round;stroke-linejoin:round;stroke-miterlimit:10;}
	.st12{fill:none;stroke:#000000;stroke-linecap:round;stroke-linejoin:round;stroke-miterlimit:10;}
	.st13{fill:none;stroke:#000000;stroke-linecap:round;stroke-miterlimit:10;}
	.st14{fill:none;stroke:#000000;stroke-miterlimit:10;}
	.st15{fill:#4A9F82;}
	.st16{fill:none;stroke:#FFFFFF;stroke-width:1.5;stroke-linecap:round;stroke-linejoin:round;stroke-miterlimit:10;}
	.st17{fill:#FFFFFF;}
	.st18{fill:#FF8C03;}
	.st19{fill:#606060;}
	.st20{fill:none;stroke:#E0A3A1;stroke-width:1.5;stroke-linecap:round;stroke-linejoin:round;stroke-miterlimit:10;}
	.st21{fill:#E4F6E8;}
	.st22{fill:none;stroke:#56A548;stroke-width:1.5;stroke-linecap:round;stroke-linejoin:round;stroke-miterlimit:10;}
	.st23{fill:#E8EFF8;}
	.st24{fill:#2E65C3;}
	.st25{fill:#EB5829;}
	.st26{fill:none;stroke:#000000;stroke-linejoin:round;stroke-miterlimit:10;}
	.st27{fill:none;stroke:#000000;stroke-width:1.5;stroke-linecap:round;stroke-miterlimit:10;}
	.st28{fill:#FFFFFF;stroke:#EFEFEF;stroke-width:0.25;stroke-miterlimit:10;}
	.st29{fill:#4BCA59;}
	.st30{fill-rule:evenodd;clip-rule:evenodd;fill:#FFFFFF;}
	.st31{fill:#A5A5A5;}
	.st32{fill:#57BDF8;}
	.st33{fill:url(#SVGID_00000097461992350136459740000002241490581521240747_);}
	.st34{fill:url(#SVGID_00000094595330525601312920000011090759038440770972_);}
	.st35{fill:url(#SVGID_00000019645923062030019980000003498468238924091061_);}
	.st36{fill:url(#SVGID_00000140710742244863777850000003844600083647618460_);}
	.st37{fill:url(#SVGID_00000116203640802570388330000006384407160757458076_);}
	.st38{fill:url(#SVGID_00000048498026774556842510000002628726437332674469_);}
	.st39{fill:url(#SVGID_00000025437422685462635140000013830099594957569214_);}
	.st40{fill:url(#SVGID_00000154386421113027708130000008565986762923015843_);}
	.st41{fill:url(#SVGID_00000091000408594195711200000012932476836789508537_);}
	.st42{fill:url(#SVGID_00000060711256611247590370000013346644349863914411_);}
	.st43{fill:url(#SVGID_00000011016899878942705420000018156308399728322457_);}
	.st44{fill:#923C96;stroke:#FFFFFF;stroke-width:2;stroke-linecap:round;stroke-linejoin:round;stroke-miterlimit:10;}
	.st45{fill:none;stroke:#FFFFFF;stroke-width:2;stroke-linecap:round;stroke-linejoin:round;stroke-miterlimit:10;}
	.st46{fill:none;stroke:#8E278F;stroke-width:2;stroke-linecap:round;stroke-linejoin:round;stroke-miterlimit:10;}
	.st47{fill:#F04C23;}
	.st48{fill:#00B16B;}
	.st49{fill:#8E278F;}
	.st50{fill:#C479C6;}
	.st51{fill:url(#Rectangle_298_00000103239869909309557450000017105380594799923361_);}
</style>
<path d="M27.23,24.86l-6.42-7.16c2.35-3.43,2.09-8.02-0.74-11.18c-3.34-3.73-9.1-4.05-12.83-0.7c-1.81,1.62-2.88,3.85-3.01,6.27
	c-0.13,2.42,0.69,4.75,2.31,6.56c1.78,1.99,4.26,3.03,6.76,3.03c1.45,0,2.9-0.37,4.25-1.08l6.43,7.18c0.43,0.48,1.03,0.73,1.63,0.73
	c0.52,0,1.04-0.18,1.46-0.56C27.96,27.14,28.03,25.76,27.23,24.86z M7.8,17.52c-1.32-1.47-1.99-3.37-1.88-5.34
	c0.11-1.97,0.98-3.78,2.45-5.1C9.78,5.82,11.54,5.2,13.3,5.2c2.03,0,4.05,0.83,5.51,2.46c2.43,2.72,2.54,6.74,0.25,9.58
	c-0.23,0.29-0.5,0.57-0.82,0.86c-0.28,0.25-0.6,0.49-0.96,0.73C14.21,20.78,10.22,20.23,7.8,17.52z M25.93,26.68
	c-0.2,0.18-0.52,0.17-0.7-0.04l-6.25-6.97c0.13-0.11,0.26-0.21,0.38-0.32c0.12-0.11,0.24-0.22,0.35-0.33l6.25,6.97
	C26.15,26.19,26.13,26.5,25.93,26.68z"/>
</svg>
