<?xml version="1.0" encoding="UTF-8"?>
<svg width="26px" height="26px" viewBox="0 0 26 26" version="1.1" xmlns="http://www.w3.org/2000/svg" xmlns:xlink="http://www.w3.org/1999/xlink">
    <title>User Management</title>
    <g id="Page-1" stroke="none" stroke-width="1" fill="none" fill-rule="evenodd">
        <g id="1.2---Dashboard---Search-User" transform="translate(-21.000000, -413.000000)">
            <g id="User-Management" transform="translate(21.000000, 413.000000)">
                <polygon id="Path" points="0 0 26 0 26 26 0 26"></polygon>
                <path d="M21.6666667,23.8333333 L19.5,23.8333333 L19.5,21.6666667 C19.5,19.8717412 18.0449254,18.4166667 16.25,18.4166667 L9.75,18.4166667 C7.95507456,18.4166667 6.5,19.8717412 6.5,21.6666667 L6.5,23.8333333 L4.33333333,23.8333333 L4.33333333,21.6666667 C4.33333333,18.6751243 6.75845761,16.25 9.75,16.25 L16.25,16.25 C19.2415424,16.25 21.6666667,18.6751243 21.6666667,21.6666667 L21.6666667,23.8333333 Z M12.9999999,14.0833333 C10.6777736,14.0833333 8.53194798,12.8444404 7.37083479,10.8333334 C6.20972161,8.82222635 6.20972161,6.34444032 7.37083479,4.33333331 C8.53194798,2.32222629 10.6777736,1.08333333 12.9999999,1.08333333 C16.5898509,1.08333333 19.4999999,3.99348246 19.4999999,7.58333333 C19.4999999,11.1731842 16.5898509,14.0833333 12.9999999,14.0833333 L12.9999999,14.0833333 Z M13,11.9166667 C15.3932339,11.9166667 17.3333333,9.97656725 17.3333333,7.58333333 C17.3333333,5.19009942 15.3932339,3.25 13,3.25 C10.6067661,3.25 8.66666667,5.19009942 8.66666667,7.58333333 C8.66666667,9.97656725 10.6067661,11.9166667 13,11.9166667 Z" id="Shape" fill="#666666" fill-rule="nonzero"></path>
            </g>
        </g>
    </g>
</svg>