<?xml version="1.0" encoding="UTF-8"?>
<svg width="28px" height="28px" viewBox="0 0 28 28" version="1.1" xmlns="http://www.w3.org/2000/svg" xmlns:xlink="http://www.w3.org/1999/xlink">
    <title>Group</title>
    <g id="Page-1" stroke="none" stroke-width="1" fill="none" fill-rule="evenodd">
        <g id="1.2---Dashboard---Search-User" transform="translate(-345.000000, -213.000000)">
            <g id="Total-User" transform="translate(102.000000, 166.000000)">
                <g id="Group" transform="translate(243.000000, 47.000000)">
                    <polygon id="Path" points="0 0 28 0 28 28 0 28"></polygon>
                    <path d="M23.3333333,25.6666667 L21,25.6666667 L21,23.3333333 C21,21.4003367 19.4329966,19.8333333 17.5,19.8333333 L10.5,19.8333333 C8.56700338,19.8333333 7,21.4003367 7,23.3333333 L7,25.6666667 L4.66666667,25.6666667 L4.66666667,23.3333333 C4.66666667,20.1116723 7.27833896,17.5 10.5,17.5 L17.5,17.5 C20.721661,17.5 23.3333333,20.1116723 23.3333333,23.3333333 L23.3333333,25.6666667 Z M13.9999999,15.1666667 C11.4991408,15.1666667 9.18825167,13.8324742 7.93782209,11.6666667 C6.6873925,9.50085914 6.6873925,6.83247419 7.93782209,4.66666667 C9.18825167,2.50085908 11.4991408,1.16666667 13.9999999,1.16666667 C17.8659932,1.16666667 20.9999999,4.30067342 20.9999999,8.16666667 C20.9999999,12.0326599 17.8659932,15.1666667 13.9999999,15.1666667 L13.9999999,15.1666667 Z M14,12.8333333 C16.5773288,12.8333333 18.6666667,10.7439955 18.6666667,8.16666667 C18.6666667,5.58933783 16.5773288,3.5 14,3.5 C11.4226712,3.5 9.33333333,5.58933783 9.33333333,8.16666667 C9.33333333,10.7439955 11.4226712,12.8333333 14,12.8333333 Z" id="Shape" fill="#0D67CA" fill-rule="nonzero"></path>
                </g>
            </g>
        </g>
    </g>
</svg>