<?xml version="1.0" encoding="UTF-8"?>
<svg width="28px" height="28px" viewBox="0 0 28 28" version="1.1" xmlns="http://www.w3.org/2000/svg" xmlns:xlink="http://www.w3.org/1999/xlink">
    <title>Group</title>
    <g id="Page-1" stroke="none" stroke-width="1" fill="none" fill-rule="evenodd">
        <g id="43.2-AGEL---Home-Page---Notification" transform="translate(-226.000000, -898.000000)">
            <g id="Group-23-Copy-5" transform="translate(95.000000, 720.000000)">
                <g id="Group-13" transform="translate(121.000000, 168.000000)">
                    <g id="Group" transform="translate(10.000000, 10.000000)">
                        <polygon id="Path" points="0 0 28 0 28 28 0 28"></polygon>
                        <path d="M10.4332351,10.5193182 L10.4332351,18.4784129 L17.7693664,14.4988655 L10.4332351,10.5193182 Z M8.91491145,7.07822015 L21.6990022,14.0124513 C21.8854258,14.1139229 21.9999881,14.2997095 21.9999881,14.5005623 C21.9999881,14.7014152 21.8854258,14.8872017 21.6990022,14.9886734 L8.91491145,21.9229045 C8.72618041,22.0253093 8.49287642,22.0257234 8.30372624,21.9239894 C8.11457607,21.8222553 7.99864571,21.6340063 8.00001194,21.4308343 L8.00001194,7.5657656 C8.00001194,7.3631996 8.1164083,7.17606792 8.30531635,7.07516484 C8.4942244,6.97426176 8.72674454,6.97499568 8.91491145,7.07708896 L8.91491145,7.07822015 Z" id="Shape" fill="#333333" fill-rule="nonzero"></path>
                    </g>
                </g>
            </g>
        </g>
    </g>
</svg>