<?xml version="1.0" encoding="utf-8"?>
<!-- Generator: Adobe Illustrator 22.1.0, SVG Export Plug-In . SVG Version: 6.00 Build 0)  -->
<svg version="1.1" id="Layer_1" xmlns="http://www.w3.org/2000/svg" xmlns:xlink="http://www.w3.org/1999/xlink" x="0px" y="0px"
	 viewBox="0 0 210.3 128.5" style="enable-background:new 0 0 210.3 128.5;" xml:space="preserve">
<style type="text/css">
	.st0{fill:#FFFFFF;}
	.st1{clip-path:url(#SVGID_3_);}
</style>
<g id="Layer_2_1_">
	<g id="Layer_1-2">
		<g>
			<g>
				<g>
					<path id="SVGID_1_" class="st0" d="M193.1,52.9v39.6c0,2.7,2.2,4.9,4.9,5c2.7,0,4.9-2.2,4.9-4.9V52.9c0-2.7-2.2-5-4.9-5
						s-4.9,2.1-4.9,4.9V52.9 M15.5,81.5c0-4.4,4.1-7,9.8-7c3.8,0,7.6,0.6,11.2,1.6v10.3c-0.9,0.7-4.3,2.9-10.7,2.9
						C19.1,89.2,15.5,86.4,15.5,81.5 M12.5,49.8c-1.9,0.7-3.2,2.5-3.2,4.6c0,2.9,2.7,5,6.8,3.7c3.2-1.2,6.6-1.9,10.1-2
						c7.2,0,10.3,2.7,10.3,9v3c-3.8-1-7.8-1.5-11.8-1.5C12.1,66.5,6.3,73.3,5.9,81v1.7c0.4,8.6,6.7,15.1,19,15.1
						c6.8,0.1,13.4-1.7,19.2-5.2c1.3-0.7,2-2.2,1.8-3.6V65c0-12.5-7.3-17.9-19.1-17.9C21.9,47.1,17,48,12.5,49.8 M108.3,81.5
						c0-4.4,4-7,9.7-7c3.8,0,7.6,0.6,11.2,1.6v10.3c-0.9,0.7-4.3,2.9-10.7,2.9C111.9,89.2,108.3,86.4,108.3,81.5 M105.3,49.8
						c-1.9,0.7-3.2,2.5-3.2,4.6c0,2.9,2.7,5,6.8,3.7c3.2-1.2,6.6-1.9,10.1-2c7.2,0,10.3,2.7,10.3,9v3c-3.8-1-7.8-1.5-11.8-1.5
						c-13,0-18.8,7.3-18.8,15.3c0,9.1,6.3,16,19,16c6.8,0.1,13.4-1.7,19.2-5.2c1.2-0.8,1.9-2.2,1.8-3.6V65
						c0-12.5-7.3-17.9-19.2-17.9C114.6,47.1,109.8,48,105.3,49.8 M147.1,52.1c-1.4,0.8-2.1,2.2-2,3.8v36.4c0,2.7,2.2,5,4.9,5
						s4.9-2.2,4.9-4.9v-0.1V59.1c3.4-1.8,7.2-2.6,11-2.6c5.8,0,10.8,3.2,10.8,10.6v25.3c0,2.7,2.2,4.9,4.9,5c2.7,0,4.9-2.1,4.9-4.8
						l0,0v-26c0-12.5-6.9-19.5-20.3-19.5C156.5,47,149.8,50.1,147.1,52.1 M61.5,77.6c-0.2-3.6-0.2-7.2,0-10.8
						c0.4-6.8,3.7-10.3,10.7-10.3c4,0,7.9,1,11.4,2.8v25.8c-3.2,2-6.9,3.2-10.6,3.3C65.8,88.4,62,84.7,61.5,77.6 M83.6,35.9v13.8
						c-3.8-1.7-7.9-2.6-12.1-2.7c-11.9,0-18.8,7.1-19.8,18.6c-0.3,4.4-0.3,8.8,0,13.1c1,11.4,8.6,19,21.1,19
						c6.7-0.1,13.3-2.1,18.9-5.8c1.3-0.8,2-2.2,1.8-3.7V35.8c0-2.7-2.1-5-4.8-5h-0.1C85.8,30.9,83.6,33.1,83.6,35.9 M192.5,35.8
						c-0.2,3,2.1,5.6,5.2,5.8s5.6-2.1,5.8-5.2c0-0.2,0-0.4,0-0.7l0,0c0.2-3-2.1-5.6-5.2-5.8s-5.6,2.1-5.8,5.2
						C192.4,35.4,192.4,35.6,192.5,35.8"/>
				</g>
				<g>
					<defs>
						<path id="SVGID_2_" d="M193.1,52.9v39.6c0,2.7,2.2,4.9,4.9,5c2.7,0,4.9-2.2,4.9-4.9V52.9c0-2.7-2.2-5-4.9-5s-4.9,2.1-4.9,4.9
							V52.9 M15.5,81.5c0-4.4,4.1-7,9.8-7c3.8,0,7.6,0.6,11.2,1.6v10.3c-0.9,0.7-4.3,2.9-10.7,2.9C19.1,89.2,15.5,86.4,15.5,81.5
							 M12.5,49.8c-1.9,0.7-3.2,2.5-3.2,4.6c0,2.9,2.7,5,6.8,3.7c3.2-1.2,6.6-1.9,10.1-2c7.2,0,10.3,2.7,10.3,9v3
							c-3.8-1-7.8-1.5-11.8-1.5C12.1,66.5,6.3,73.3,5.9,81v1.7c0.4,8.6,6.7,15.1,19,15.1c6.8,0.1,13.4-1.7,19.2-5.2
							c1.3-0.7,2-2.2,1.8-3.6V65c0-12.5-7.3-17.9-19.1-17.9C21.9,47.1,17,48,12.5,49.8 M108.3,81.5c0-4.4,4-7,9.7-7
							c3.8,0,7.6,0.6,11.2,1.6v10.3c-0.9,0.7-4.3,2.9-10.7,2.9C111.9,89.2,108.3,86.4,108.3,81.5 M105.3,49.8
							c-1.9,0.7-3.2,2.5-3.2,4.6c0,2.9,2.7,5,6.8,3.7c3.2-1.2,6.6-1.9,10.1-2c7.2,0,10.3,2.7,10.3,9v3c-3.8-1-7.8-1.5-11.8-1.5
							c-13,0-18.8,7.3-18.8,15.3c0,9.1,6.3,16,19,16c6.8,0.1,13.4-1.7,19.2-5.2c1.2-0.8,1.9-2.2,1.8-3.6V65
							c0-12.5-7.3-17.9-19.2-17.9C114.6,47.1,109.8,48,105.3,49.8 M147.1,52.1c-1.4,0.8-2.1,2.2-2,3.8v36.4c0,2.7,2.2,5,4.9,5
							s4.9-2.2,4.9-4.9v-0.1V59.1c3.4-1.8,7.2-2.6,11-2.6c5.8,0,10.8,3.2,10.8,10.6v25.3c0,2.7,2.2,4.9,4.9,5c2.7,0,4.9-2.1,4.9-4.8
							l0,0v-26c0-12.5-6.9-19.5-20.3-19.5C156.5,47,149.8,50.1,147.1,52.1 M61.5,77.6c-0.2-3.6-0.2-7.2,0-10.8
							c0.4-6.8,3.7-10.3,10.7-10.3c4,0,7.9,1,11.4,2.8v25.8c-3.2,2-6.9,3.2-10.6,3.3C65.8,88.4,62,84.7,61.5,77.6 M83.6,35.9v13.8
							c-3.8-1.7-7.9-2.6-12.1-2.7c-11.9,0-18.8,7.1-19.8,18.6c-0.3,4.4-0.3,8.8,0,13.1c1,11.4,8.6,19,21.1,19
							c6.7-0.1,13.3-2.1,18.9-5.8c1.3-0.8,2-2.2,1.8-3.7V35.8c0-2.7-2.1-5-4.8-5h-0.1C85.8,30.9,83.6,33.1,83.6,35.9 M192.5,35.8
							c-0.2,3,2.1,5.6,5.2,5.8s5.6-2.1,5.8-5.2c0-0.2,0-0.4,0-0.7l0,0c0.2-3-2.1-5.6-5.2-5.8s-5.6,2.1-5.8,5.2
							C192.4,35.4,192.4,35.6,192.5,35.8"/>
					</defs>
					<clipPath id="SVGID_3_">
						<use xlink:href="#SVGID_2_"  style="overflow:visible;"/>
					</clipPath>
					<g class="st1">
						<polygon class="st0" points="0,30.8 203.5,12.5 211.1,97.3 7.6,115.6 						"/>
					</g>
				</g>
			</g>
		</g>
	</g>
</g>
</svg>
