<?xml version="1.0" encoding="UTF-8"?>
<svg width="24px" height="24px" viewBox="0 0 24 24" version="1.1" xmlns="http://www.w3.org/2000/svg" xmlns:xlink="http://www.w3.org/1999/xlink">
    <title>Adani Airports</title>
    <g id="Page-1" stroke="none" stroke-width="1" fill="none" fill-rule="evenodd">
        <g id="Icon-List" transform="translate(-761.000000, -254.000000)" fill="#333333" fill-rule="nonzero" stroke="#333333" stroke-width="0.3">
            <g id="Adani-Airports" transform="translate(761.000000, 254.000000)">
                <g id="8-Airport" transform="translate(2.000000, 2.000000)">
                    <path d="M15.4665923,0.000349057845 C15.1295683,0.00635273346 14.8024289,0.0921461678 14.5135696,0.234867636 C13.9358508,0.520310573 13.4683173,0.990155046 13.112484,1.47142014 C13.1050041,1.48061434 13.0978865,1.49009707 13.0911477,1.49984664 L10.5805728,5.43691609 L1.71888395,5.82067378 C1.56246387,5.82667687 1.42010233,5.91256469 1.34194213,6.04808573 L0.0617623506,8.27956555 C-0.0122956021,8.4067411 -0.0202154839,8.56185669 0.0405050138,8.69590314 C0.101225511,8.8299496 0.223085533,8.92636805 0.367583074,8.95469478 L6.3630917,10.1841407 C6.52709297,10.2308556 6.70346934,10.1820593 6.82007156,10.0577126 C6.93667379,9.93336578 6.97394261,9.75432701 6.9166327,9.59383441 C6.85932279,9.43334182 6.71704752,9.31831714 6.54800656,9.29581273 L1.17125149,8.18717946 L2.01048046,6.72321496 L10.850833,6.33945732 C10.9993289,6.33184841 11.1347467,6.25225237 11.2135507,6.12625859 L13.8450313,2.01152353 L13.8592555,1.99020366 C14.1492794,1.60329861 14.5372747,1.24071526 14.9189599,1.05212935 C15.3072558,0.860277801 15.638418,0.822684332 16.0213369,1.04502273 C16.4042563,1.26734975 16.5470408,1.58291567 16.5760815,2.01863016 C16.6051221,2.45434464 16.478337,2.98164929 16.284485,3.43284825 L14.0583946,7.78210191 C13.9925212,7.9116131 13.9925212,8.06477487 14.0583946,8.19428605 L18.1478578,16.0897449 L17.3086288,17.5537093 L12.3586003,11.9465833 C12.2648917,11.8414777 12.1277631,11.785646 11.9872259,11.7953787 C11.8466888,11.8051114 11.7185793,11.8793118 11.6402772,11.9963297 L9.57065325,15.1161375 C9.49955716,15.2254766 9.47883829,15.3600454 9.51375638,15.4856819 L10.1467342,17.8592941 L9.58487747,18.8400082 L7.12408747,16.7222344 C7.08230056,16.6853428 7.0340862,16.6564365 6.98184525,16.6369549 L3.92363801,15.5567481 L4.49260679,14.5689274 L6.84671516,13.9364379 C6.9730702,13.9036596 7.07926156,13.8182544 7.1383117,13.7019193 L8.79543329,10.3404864 C8.88677434,10.1939197 8.88719375,10.0083136 8.79651593,9.86133632 C8.70583816,9.71435901 8.53969843,9.63135319 8.36761916,9.64705332 C8.19553984,9.66275346 8.04719197,9.77445237 7.98465275,9.93540882 L6.41287647,13.1120696 L4.06588021,13.7445591 C3.9513325,13.7775262 3.85429627,13.8540747 3.79562004,13.9577578 L2.86393364,15.578068 C2.79718608,15.6948563 2.78558248,15.8351727 2.83223984,15.9613247 C2.87889722,16.0874766 2.97903199,16.1865303 3.10574538,16.2318773 L6.60490343,17.4684299 L9.40707475,19.8917885 C9.51023838,19.9793625 9.64705488,20.0165171 9.78038807,19.9931675 C9.91372125,19.9698178 10.0297386,19.8883863 10.0969494,19.7709759 L11.0286358,18.1506657 C11.0893778,18.0478905 11.1072582,17.9253766 11.0784206,17.8095478 L10.4454428,15.4430421 L12.0670038,12.991257 L17.0454808,18.6339161 C17.1419629,18.7456469 17.2866947,18.8036638 17.433705,18.7895391 C17.5807154,18.7754144 17.711732,18.6909036 17.7851402,18.5628499 L19.0653199,16.3313701 C19.1408906,16.1973648 19.1435663,16.0342744 19.0724321,15.8978661 L14.9687447,7.98819396 L17.1094897,3.82371255 C17.1145611,3.81440551 17.1193054,3.80492422 17.1237139,3.79528606 C17.3601635,3.24493776 17.5293714,2.59892179 17.4864316,1.95467055 C17.4434917,1.3104193 17.1404264,0.637534614 16.4836241,0.256187507 C16.155223,0.0655139537 15.8036165,-0.00566598837 15.4665923,0.000349057845 Z" id="Path-Copy"></path>
                </g>
            </g>
        </g>
    </g>
</svg>