<svg xmlns="http://www.w3.org/2000/svg" width="40" height="40" viewBox="0 0 40 40">
  <g id="BOOK_PREMIUM_SERVICE" data-name="BOOK PREMIUM SERVICE" transform="translate(18910 22132)">
    <g id="Component_14" data-name="Component 14" transform="translate(-18870 -22152.406) rotate(180)">
      <path id="Rectangle_134" data-name="Rectangle 134" d="M0,0H38a2,2,0,0,1,2,2V38a2,2,0,0,1-2,2H0a0,0,0,0,1,0,0V0A0,0,0,0,1,0,0Z" transform="translate(0 -60.406)" fill="#179e96"/>
    </g>
    <g id="Group_7102" data-name="Group 7102" transform="translate(-18982.766 -22216.756)">
      <path id="Path_1" data-name="Path 1" d="M86.471,200.983l-.293-.295-1.259,1.26.293.294Z" transform="translate(-2.602 -87.966)" fill="#fff" stroke="#fff" stroke-width="0.2"/>
      <path id="Path_2" data-name="Path 2" d="M103.616,218.151l-1.259,1.255.293.292,1.258-1.253Z" transform="translate(-16.833 -102.218)" fill="#fff" stroke="#fff" stroke-width="0.2"/>
      <path id="Path_3" data-name="Path 3" d="M111.408,200.228a.845.845,0,1,0,.846.843A.845.845,0,0,0,111.408,200.228Zm0,1.276a.431.431,0,1,1,.432-.432A.433.433,0,0,1,111.408,201.5Z" transform="translate(-23.531 -87.59)" fill="#fff" stroke="#fff" stroke-width="0.2"/>
      <path id="Path_4" data-name="Path 4" d="M86.813,143.6h.608l.017.009c1.091.492.909,2.059.871,2.3l-.768,1.389-.431,1.772-.436-.437-3.439,3.439L87.46,156.3l3.439-3.439-.357-.363a17.419,17.419,0,0,0,3.473-3.043c.349-.421.746-1.025,1.164-1.657.828-1.246,1.759-2.66,2.491-3,.881-.4,1.108-.89,1.164-1.172h.151l2.738-1.673H103.8v-.414H81.732v.414h2.086Zm5.66,2.522c-.784-.03-1.978-.349-2.19-1.133-.042-.156-.077-.3-.111-.444a4.807,4.807,0,0,0-.307-.935l3.479.009Zm-5.012,9.59-3.638-3.639,2.852-2.853.324.32-.009.025,3.052,3.023.271.271ZM97.5,144.422c-.836.384-1.767,1.786-2.663,3.142-.414.63-.8,1.216-1.138,1.63a17.431,17.431,0,0,1-3.456,3l-2.785-2.788.466-1.935.768-1.393.025-.064a3.059,3.059,0,0,0-.542-2.391h1.1c.227,0,.331.37.5,1.016.034.147.074.294.116.453.29,1.06,1.785,1.444,2.724,1.444H92.7c.729-.016,1.621-.975,2.34-1.74a5.736,5.736,0,0,1,.711-.7,1.9,1.9,0,0,1,1.2-.473h1.462A1.55,1.55,0,0,1,97.5,144.422Zm-1.981-.667a5.788,5.788,0,0,0-.781.759,6.808,6.808,0,0,1-1.805,1.556l.853-2.453h1.948C95.662,143.664,95.593,143.7,95.516,143.756Zm5.413-1.8-2.061,1.26h-11.9l-2.285-1.26Z" transform="translate(0 -39.695)" fill="#fff" stroke="#fff" stroke-width="0.2"/>
      <path id="Path_5" data-name="Path 5" d="M112.393,110.328h9.664l1.129-5.154-3.862,3.036-2.089-4.071-2.091,4.085-3.879-3.05Zm2.888-1.469,1.953-3.816,1.951,3.8,3.344-2.635-.806,3.7h-9l-.81-3.7Z" transform="translate(-24.101 -9.172)" fill="#fff" stroke="#fff" stroke-width="0.2"/>
      <path id="Path_6" data-name="Path 6" d="M139.927,94.591a.845.845,0,1,0-.845-.844A.846.846,0,0,0,139.927,94.591Zm0-1.276a.431.431,0,1,1-.431.432A.434.434,0,0,1,139.927,93.315Z" transform="translate(-46.804)" fill="#fff" stroke="#fff" stroke-width="0.2"/>
      <path id="Path_7" data-name="Path 7" d="M107.822,101.179a.845.845,0,1,0-.845-.844A.846.846,0,0,0,107.822,101.179Zm0-1.276a.431.431,0,1,1-.431.432A.431.431,0,0,1,107.822,99.9Z" transform="translate(-20.603 -5.377)" fill="#fff" stroke="#fff" stroke-width="0.2"/>
      <path id="Path_8" data-name="Path 8" d="M171.827,101.179a.845.845,0,1,0-.845-.844A.846.846,0,0,0,171.827,101.179Zm0-1.276a.431.431,0,1,1-.431.432A.431.431,0,0,1,171.827,99.9Z" transform="translate(-72.838 -5.377)" fill="#fff" stroke="#fff" stroke-width="0.2"/>
    </g>
  </g>
</svg>
