<svg xmlns="http://www.w3.org/2000/svg" width="40" height="40" viewBox="0 0 40 40">
  <g id="Book_Services" data-name="Book Services" transform="translate(18910 22032)">
    <path id="Rectangle_432" data-name="Rectangle 432" d="M0,0H38a2,2,0,0,1,2,2V38a2,2,0,0,1-2,2H0a0,0,0,0,1,0,0V0A0,0,0,0,1,0,0Z" transform="translate(-18870 -21992) rotate(180)" fill="#179e96"/>
    <g id="Group_7103" data-name="Group 7103" transform="translate(-19029.033 -22158)">
      <path id="Path_1" data-name="Path 1" d="M149.032,344h-20a1.034,1.034,0,1,0,0,2.069h20a1.034,1.034,0,0,0,0-2.069Zm0,1.379h-20a.345.345,0,1,1,0-.69h20a.345.345,0,0,1,0,.69Z" transform="translate(0 -190.071)" fill="#fff"/>
      <path id="Path_2" data-name="Path 2" d="M148.1,200.169a.345.345,0,0,0,.244.589h17.929a.345.345,0,0,0,.244-.589,5.317,5.317,0,0,1-1.436-2.719,7.954,7.954,0,0,0-6.393-6.225v-1.156a.345.345,0,0,0-.345-.345h-.69V188.69h.69a.345.345,0,1,0,0-.69h-2.069a.345.345,0,1,0,0,.69h.69v1.034h-.69a.345.345,0,0,0-.345.345v1.156a7.954,7.954,0,0,0-6.393,6.225A5.317,5.317,0,0,1,148.1,200.169Zm8.519-9.755H158v.69h-1.379Zm.69,1.379a7.259,7.259,0,0,1,7.1,5.794,6.086,6.086,0,0,0,1.111,2.481H149.1a6.086,6.086,0,0,0,1.111-2.481A7.259,7.259,0,0,1,157.309,191.793Z" transform="translate(-18.276 -47.518)" fill="#fff"/>
      <path id="Path_3" data-name="Path 3" d="M252.345,240.69a5.876,5.876,0,0,1,5.744,4.688.345.345,0,0,0,.338.276.349.349,0,0,0,.069-.007.345.345,0,0,0,.269-.406,6.567,6.567,0,0,0-6.42-5.241.345.345,0,1,0,0,.69Z" transform="translate(-113.312 -95.036)" fill="#fff"/>
      <path id="Path_4" data-name="Path 4" d="M252.345,138.069a.345.345,0,0,0,.345-.345v-1.379a.345.345,0,1,0-.69,0v1.379A.345.345,0,0,0,252.345,138.069Z" transform="translate(-113.312)" fill="#fff"/>
      <path id="Path_5" data-name="Path 5" d="M200.735,151.644a.345.345,0,1,0,.6-.345l-.69-1.194a.345.345,0,0,0-.6.345Z" transform="translate(-65.794 -12.732)" fill="#fff"/>
      <path id="Path_6" data-name="Path 6" d="M162.106,188.642l1.194.69a.345.345,0,0,0,.345-.6l-1.194-.69a.345.345,0,1,0-.345.6Z" transform="translate(-31.008 -47.517)" fill="#fff"/>
      <path id="Path_7" data-name="Path 7" d="M148.345,240.69h1.379a.345.345,0,1,0,0-.69h-1.379a.345.345,0,1,0,0,.69Z" transform="translate(-18.276 -95.036)" fill="#fff"/>
      <path id="Path_8" data-name="Path 8" d="M340,240.345a.345.345,0,0,0,.345.345h1.379a.345.345,0,1,0,0-.69h-1.379A.345.345,0,0,0,340,240.345Z" transform="translate(-193.726 -95.036)" fill="#fff"/>
      <path id="Path_9" data-name="Path 9" d="M328.555,189.378a.343.343,0,0,0,.172-.046l1.194-.69a.345.345,0,1,0-.345-.6l-1.194.69a.345.345,0,0,0,.173.643Z" transform="translate(-182.952 -47.517)" fill="#fff"/>
      <path id="Path_10" data-name="Path 10" d="M296.172,151.771a.345.345,0,0,0,.471-.126l.69-1.194a.345.345,0,0,0-.6-.345l-.69,1.194A.345.345,0,0,0,296.172,151.771Z" transform="translate(-153.519 -12.732)" fill="#fff"/>
    </g>
  </g>
</svg>
