<svg width="20" height="20" viewBox="0 0 20 20" fill="none" xmlns="http://www.w3.org/2000/svg">
<g clip-path="url(#clip0_186_388)">
<path d="M17.5721 11.0318C17.3507 11.0318 17.1192 10.9614 16.8977 10.9111C16.4493 10.8122 16.0086 10.6811 15.5792 10.5185C14.6122 10.1667 13.5355 10.6009 13.083 11.525L12.8616 11.978C11.8812 11.4326 10.9804 10.7553 10.1842 9.96493C9.39386 9.16879 8.71652 8.26792 8.17117 7.28757L8.59391 7.00574C9.5181 6.55324 9.95223 5.47658 9.60043 4.50956C9.44062 4.07919 9.30948 3.63871 9.20789 3.19101C9.15756 2.96958 9.1173 2.73807 9.0871 2.50657C8.83458 1.04185 7.5537 -0.0212844 6.06753 0.000323497H3.04795C2.1702 -0.00791808 1.3323 0.366204 0.752496 1.02525C0.172689 1.6843 -0.0916331 2.56303 0.0283704 3.43258C1.13145 12.1071 7.97772 18.9285 16.6562 20H17.0387C17.7809 20.0011 18.4975 19.7288 19.0517 19.235C19.6958 18.6589 20.0622 17.8345 20.0583 16.9704V13.9508C20.0328 12.509 18.9915 11.2864 17.5721 11.0318ZM18.0754 17.071C18.075 17.3601 17.9504 17.6351 17.7332 17.8259C17.5064 18.0234 17.2062 18.1149 16.9078 18.0775C9.15356 17.0833 3.05924 10.96 2.10181 3.20108C2.06944 2.90314 2.16036 2.60493 2.35345 2.37572C2.54425 2.15853 2.81924 2.03387 3.10834 2.03351H6.12792C6.61074 2.02276 7.03314 2.35646 7.13444 2.82866C7.1747 3.10378 7.22503 3.37554 7.28542 3.64395C7.4017 4.17453 7.55644 4.69595 7.74842 5.20406L6.33929 5.8583C6.09595 5.96995 5.90711 6.17395 5.81456 6.42517C5.722 6.6764 5.73335 6.95415 5.84609 7.19698C7.29468 10.2999 9.7889 12.7941 12.8918 14.2427C13.1368 14.3433 13.4117 14.3433 13.6567 14.2427C13.9103 14.152 14.1169 13.9635 14.2305 13.7193L14.8545 12.3101C15.3748 12.4962 15.9059 12.6508 16.4448 12.7731C16.7132 12.8335 16.985 12.8839 17.2601 12.9241C17.7323 13.0254 18.066 13.4478 18.0553 13.9306L18.0754 17.071Z" fill="#555555"/>
</g>
<defs>
<clipPath id="clip0_186_388">
<rect width="20" height="20" fill="white"/>
</clipPath>
</defs>
</svg>
