<?xml version="1.0" encoding="UTF-8"?>
<svg width="24px" height="24px" viewBox="0 0 24 24" version="1.1" xmlns="http://www.w3.org/2000/svg" xmlns:xlink="http://www.w3.org/1999/xlink">
    <title>Adani Capital</title>
    <g id="Page-1" stroke="none" stroke-width="1" fill="none" fill-rule="evenodd">
        <g id="Icon-List" transform="translate(-681.000000, -254.000000)" fill="#333333" fill-rule="nonzero" stroke="#333333" stroke-width="0.3">
            <g id="Adani-Capital" transform="translate(681.000000, 254.000000)">
                <g id="5-capitall" transform="translate(2.000000, 2.000000)">
                    <path d="M9.64198052,0 C6.98376066,0 4.82099026,2.24307693 4.82099026,5 C4.82099026,7.75692307 6.98376066,10 9.64198052,10 C12.3002004,10 14.4629707,7.75692307 14.4629707,5 C14.4629707,2.24307693 12.3002004,0 9.64198052,0 Z M9.64198052,0.769230769 C11.8915287,0.769230769 13.72128,2.66692307 13.72128,5 C13.72128,7.33307693 11.8915287,9.23076923 9.64198052,9.23076923 C7.39243229,9.23076923 5.56268107,7.33307693 5.56268107,5 C5.56268107,2.66692307 7.39243229,0.769230769 9.64198052,0.769230769 Z M1.48338162,3.07692307 C0.665296656,3.07692307 0,3.76692307 0,4.61538461 L0,10.3846154 L0,11.1538461 C0,12.2369231 0.499737398,13.2727407 1.33562286,13.9242784 L2.81900448,15.0781246 C2.91171583,15.1496631 2.96676323,15.2646154 2.96676323,15.3846154 L2.96676323,16.1538461 L1.85422702,16.1538461 C1.64952036,16.1538461 1.48338162,16.3261539 1.48338162,16.5384616 L1.48338162,19.6153846 C1.48338162,19.8276923 1.64952036,20 1.85422702,20 L8.52944431,20 C8.73415097,20 8.90028971,19.8276923 8.90028971,19.6153846 L8.90028971,16.5384616 C8.90028971,16.3261539 8.73415097,16.1538461 8.52944431,16.1538461 L8.15859891,16.1538461 L8.15859891,12.9071516 C8.15859891,12.0879207 7.80507865,11.3228723 7.18947528,10.8097954 L4.43276147,8.50811307 C4.00628926,8.15272846 3.44589549,8.08820923 2.96676323,8.27974769 L2.96676323,4.61538461 C2.96676323,3.76692307 2.30146658,3.07692307 1.48338162,3.07692307 Z M17.8005794,3.07692307 C16.9824944,3.07692307 16.3171978,3.76692307 16.3171978,4.61538461 L16.3171978,8.27974769 C15.8388073,8.08744 15.2791547,8.15195923 14.8511999,8.50811307 L12.0930373,10.8112984 C11.4781748,11.3243754 11.1253621,12.0879207 11.1253621,12.9071516 L11.1253621,16.1538461 L10.7545167,16.1538461 C10.5498101,16.1538461 10.3836713,16.3261539 10.3836713,16.5384616 L10.3836713,19.6153846 C10.3836713,19.8276923 10.5498101,20 10.7545167,20 L17.429734,20 C17.6344406,20 17.8005794,19.8276923 17.8005794,19.6153846 L17.8005794,16.5384616 C17.8005794,16.3261539 17.6344406,16.1538461 17.429734,16.1538461 L16.3171978,16.1538461 L16.3171978,15.3846154 C16.3171978,15.2646154 16.3722454,15.1496631 16.4649567,15.0781246 L17.9483383,13.9242784 C18.7842239,13.2727407 19.2839611,12.2376923 19.2839611,11.1538461 L19.2839611,10.3846154 L19.2839611,4.61538461 C19.2839611,3.76692307 18.6186644,3.07692307 17.8005794,3.07692307 Z M1.48338162,3.84615384 C1.89205325,3.84615384 2.22507243,4.19153846 2.22507243,4.61538461 L2.22507243,8.84615384 C2.22507243,8.87076923 2.2336598,8.89218769 2.23810995,8.91526461 C1.86058932,9.56372616 1.98902933,10.4167546 2.57273999,10.9044469 L5.05276864,12.97476 C5.14102984,13.0493746 5.19183566,13.1590507 5.19183566,13.2767431 L5.19183566,13.4540261 C5.19183566,13.6663339 5.35797441,13.8386416 5.56268107,13.8386416 C5.76738774,13.8386416 5.93352647,13.6663339 5.93352647,13.4540261 L5.93352647,13.27524 C5.93278478,12.9244707 5.78107415,12.5975723 5.51777392,12.3768031 L3.03774535,10.3064908 C2.71955999,10.0403362 2.6681284,9.55552923 2.92475342,9.22476 C3.18212014,8.89475923 3.64882907,8.84218769 3.96775613,9.10757231 L6.72591853,11.4092546 C7.16499948,11.7761777 7.41690809,12.3225361 7.41690809,12.9071516 L7.41690809,16.1538461 L3.70845404,16.1538461 L3.70845404,15.3846154 C3.70845404,15.0230769 3.54260501,14.6790623 3.26372926,14.4621393 L1.78034764,13.3082931 C1.12988481,12.8029084 0.741690809,11.9969231 0.741690809,11.1538461 L0.741690809,10.3846154 L0.741690809,4.61538461 C0.741690809,4.19153846 1.07470998,3.84615384 1.48338162,3.84615384 Z M17.8005794,3.84615384 C18.2092511,3.84615384 18.5422702,4.19153846 18.5422702,4.61538461 L18.5422702,10.3846154 L18.5422702,11.1538461 C18.5422702,11.9969231 18.1540759,12.8029084 17.5036131,13.3082931 L16.0202315,14.4621393 C15.7413557,14.6790623 15.5755069,15.0230769 15.5755069,15.3846154 L15.5755069,16.1538461 L11.8670529,16.1538461 L11.8670529,12.9071516 C11.8670529,12.3217669 12.1196684,11.7754084 12.5594911,11.4092546 L15.3162052,9.10757231 C15.6351322,8.84218769 16.1033246,8.89325693 16.3592079,9.22325693 C16.6158329,9.55402616 16.5644012,10.0396031 16.2462158,10.3049877 L13.7647386,12.3768031 C13.5021801,12.5968031 13.3511762,12.9237016 13.3504345,13.27524 L13.3504345,13.4525239 C13.3504345,13.6648316 13.5165733,13.8371393 13.72128,13.8371393 C13.9259866,13.8371393 14.0921254,13.6648316 14.0921254,13.4525239 L14.0921254,13.2767431 C14.0921254,13.1590507 14.1429312,13.0478361 14.2311924,12.97476 L16.7112211,10.9044469 C17.2949317,10.4167546 17.4233718,9.56372616 17.0458512,8.91526461 C17.0503013,8.89295693 17.0588886,8.87076923 17.0588886,8.84615384 L17.0588886,4.61538461 C17.0588886,4.19153846 17.3919078,3.84615384 17.8005794,3.84615384 Z M2.22507243,16.9230769 L3.33760864,16.9230769 L7.78775349,16.9230769 L8.15859891,16.9230769 L8.15859891,19.2307693 L2.22507243,19.2307693 L2.22507243,16.9230769 Z M11.1253621,16.9230769 L11.4962076,16.9230769 L15.9463524,16.9230769 L17.0588886,16.9230769 L17.0588886,19.2307693 L11.1253621,19.2307693 L11.1253621,16.9230769 Z" id="Shape"></path>
                    <path d="M8.15859891,2.30168269 C7.95389224,2.30168269 7.78775349,2.44604497 7.78775349,2.6239199 C7.78775349,2.80179485 7.95389224,2.94615712 8.15859891,2.94615712 L8.90028971,2.94615712 C9.38758057,2.94615712 9.79707475,3.22110602 9.94763798,3.60070146 L8.15859891,3.60070146 C7.95389224,3.60070146 7.78775349,3.74506373 7.78775349,3.92293867 C7.78775349,4.10081361 7.95389224,4.24517588 8.15859891,4.24517588 L9.94039537,4.24517588 C9.78389861,4.61445973 9.37868028,4.8795804 8.90028971,4.8795804 L8.15859891,4.8795804 C7.95389224,4.8795804 7.78775349,5.02394299 7.78775349,5.20181793 C7.78775349,5.20375136 7.78846033,5.20491914 7.78920202,5.20685257 C7.78775349,5.29127872 7.82223025,5.37591625 7.89639934,5.43971923 L10.1214718,7.3731425 C10.1941575,7.43630099 10.2901834,7.46754769 10.3851199,7.46754769 C10.4800563,7.46754769 10.5746337,7.43565652 10.6473194,7.3731425 C10.7919492,7.24746999 10.7919492,7.04315162 10.6473194,6.9174791 L9.03066486,5.51272593 C9.86284195,5.46181245 10.5463338,4.93863005 10.7139552,4.24517588 L11.1253621,4.24517588 C11.3300688,4.24517588 11.4962076,4.10081361 11.4962076,3.92293867 C11.4962076,3.74506373 11.3300688,3.60070146 11.1253621,3.60070146 L10.7183015,3.60070146 C10.6626746,3.35709013 10.5396697,3.13566283 10.3735309,2.94489839 L11.1253621,2.94489839 L11.1253621,2.94615712 C11.3300688,2.94615712 11.4962076,2.80179485 11.4962076,2.6239199 C11.4962076,2.44604497 11.3300688,2.30168269 11.1253621,2.30168269 L8.90028971,2.30168269 L8.15859891,2.30168269 Z" id="Path"></path>
                </g>
            </g>
        </g>
    </g>
</svg>