<?xml version="1.0" encoding="UTF-8"?>
<svg width="24px" height="24px" viewBox="0 0 24 24" version="1.1" xmlns="http://www.w3.org/2000/svg" xmlns:xlink="http://www.w3.org/1999/xlink">
    <title>Adani Electricity</title>
    <g id="Page-1" stroke="none" stroke-width="1" fill="none" fill-rule="evenodd">
        <g id="Icon-List" transform="translate(-561.000000, -254.000000)" fill="#333333" fill-rule="nonzero" stroke="#333333" stroke-width="0.2">
            <g id="Adani-Electricity" transform="translate(561.000000, 254.000000)">
                <path d="M12,6.24175824 C14.0171574,6.25527825 15.8354755,7.48548384 16.6334678,9.37658809 C17.4314601,11.2676923 17.0580029,13.4615583 15.6818182,14.967033 C15.0207829,15.6406723 14.6622808,16.5634864 14.6913876,17.5164835 C14.9037006,17.5493492 15.0598438,17.7368601 15.0574163,17.956044 L15.0574163,17.956044 L15.0574163,20.1978022 L15.0143541,20.1978022 C14.8277591,21.2387152 13.9409765,21.9961187 12.9043062,22 L12.9043062,22 L11.0956938,22 C10.0590235,21.9961187 9.17224087,21.2387152 8.98564593,20.1978022 L8.98564593,20.1978022 L8.94258373,20.1978022 L8.94258373,17.956044 C8.9400404,17.7488922 9.08666938,17.571156 9.28708134,17.5384615 C9.3080888,16.5845879 8.95997067,15.6606935 8.31818182,14.967033 C7.41540897,13.9864627 6.92129934,12.6861444 6.94019139,11.3406593 C7.02947383,8.5632393 9.2144653,6.33289392 11.9354067,6.24175824 L11.9354067,6.24175824 Z M14.1315789,20.1978022 L9.86842105,20.1978022 C10.0371084,20.7453432 10.5333925,21.1186167 11.0956938,21.1208791 L11.0956938,21.1208791 L12.9043062,21.1208791 C13.4666075,21.1186167 13.9628916,20.7453432 14.1315789,20.1978022 L14.1315789,20.1978022 Z M14.1961722,18.3956044 L9.80382775,18.3956044 L9.80382775,19.3186813 L14.1961722,19.3186813 L14.1961722,18.3956044 Z M12,7.12087912 L11.9354067,7.12087912 C9.68980916,7.21087223 7.88959851,9.04844989 7.80143541,11.3406593 C7.77577881,12.4590471 8.18623734,13.5420668 8.94258373,14.3516484 C9.73152854,15.2069616 10.1638853,16.3418132 10.1483254,17.5164835 L10.1483254,17.5164835 L11.569378,17.5164835 L11.569378,14.7252747 C10.9869284,14.5221285 10.5911435,13.9688238 10.5789474,13.3406593 C10.5789474,12.539543 11.2151743,11.8901099 12,11.8901099 C12.7848257,11.8901099 13.4210526,12.539543 13.4210526,13.3406593 C13.4088565,13.9688238 13.0130716,14.5221285 12.430622,14.7252747 L12.430622,14.7252747 L12.430622,17.5164835 L13.8301435,17.5164835 C13.79967,16.3413932 14.2433845,15.2051084 15.0574163,14.3736264 C15.7922264,13.5766767 16.2005143,12.5229748 16.1985784,11.4285714 C16.1985784,9.05805525 14.3222817,7.13297359 12,7.12087912 L12,7.12087912 Z M12,12.7692308 C11.6908262,12.7692308 11.4401914,13.0250681 11.4401914,13.3406593 C11.4401914,13.6562506 11.6908262,13.9120879 12,13.9120879 C12.3091738,13.9120879 12.5598086,13.6562506 12.5598086,13.3406593 C12.5598086,13.0250681 12.3091738,12.7692308 12,12.7692308 Z M20.569378,9.95604396 C20.807204,9.95604396 21,10.1528419 21,10.3956044 C21,10.6383669 20.807204,10.8351648 20.569378,10.8351648 L20.569378,10.8351648 L18.6315789,10.8351648 C18.393753,10.8351648 18.2009569,10.6383669 18.2009569,10.3956044 C18.2009569,10.1528419 18.393753,9.95604396 18.6315789,9.95604396 L18.6315789,9.95604396 Z M5.36842105,9.95604396 C5.60624702,9.95604396 5.79904306,10.1528419 5.79904306,10.3956044 C5.79904306,10.6383669 5.60624702,10.8351648 5.36842105,10.8351648 L5.36842105,10.8351648 L3.43062201,10.8351648 C3.19279604,10.8351648 3,10.6383669 3,10.3956044 C3,10.1528419 3.19279604,9.95604396 3.43062201,9.95604396 L3.43062201,9.95604396 Z M5.83904493,4.50237065 C5.99057735,4.34769286 6.23047451,4.33029001 6.40191388,4.46153846 L6.40191388,4.46153846 L7.77990431,5.84615385 C7.92764868,6.03184466 7.92764868,6.29782567 7.77990431,6.48351648 C7.68673053,6.55484732 7.57340502,6.59340659 7.4569378,6.59340659 C7.34759769,6.5902655 7.24205429,6.55178901 7.15550239,6.48351648 L7.15550239,6.48351648 L5.79904306,5.07692308 C5.67046354,4.90192514 5.68751251,4.65704843 5.83904493,4.50237065 Z M17.8995215,4.32626885 C18.0141266,4.32626885 18.1234765,4.37533979 18.2009569,4.46153846 C18.2854028,4.54062718 18.3334759,4.65224685 18.3334759,4.76923077 C18.3334759,4.88621469 18.2854028,4.99783436 18.2009569,5.07692308 L18.2009569,5.07692308 L16.8444976,6.48351648 C16.7579457,6.55178901 16.6524023,6.5902655 16.5430622,6.59340659 C16.426595,6.59340659 16.3132695,6.55484732 16.2200957,6.48351648 C16.0723513,6.29782567 16.0723513,6.03184466 16.2200957,5.84615385 L16.2200957,5.84615385 L17.5980861,4.46153846 C17.6755666,4.37533979 17.7849165,4.32626885 17.8995215,4.32626885 Z M12,2 C12.237826,2 12.430622,2.19679791 12.430622,2.43956044 L12.430622,2.43956044 L12.430622,4.41758242 C12.430622,4.66034494 12.237826,4.85714286 12,4.85714286 C11.762174,4.85714286 11.569378,4.66034494 11.569378,4.41758242 L11.569378,4.41758242 L11.569378,2.43956044 C11.569378,2.19679791 11.762174,2 12,2 Z" id="Combined-Shape"></path>
            </g>
        </g>
    </g>
</svg>