<svg xmlns="http://www.w3.org/2000/svg" width="40" height="40" viewBox="0 0 40 40">
  <g id="Feedback_Form" data-name="Feedback Form" transform="translate(18910 22082)">
    <g id="Component_15" data-name="Component 15" transform="translate(-18870 -22102.406) rotate(180)">
      <path id="Rectangle_134" data-name="Rectangle 134" d="M0,0H38a2,2,0,0,1,2,2V38a2,2,0,0,1-2,2H0a0,0,0,0,1,0,0V0A0,0,0,0,1,0,0Z" transform="translate(0 -60.406)" fill="#179e96"/>
    </g>
    <g id="Group_7104" data-name="Group 7104" transform="translate(-19652.117 -23121.043)">
      <path id="Path_14" data-name="Path 14" d="M761.63,1439.42H752.68A2.68,2.68,0,0,0,750,1442.1v5.034a1.937,1.937,0,0,0,1.937,1.937h.038v2.652a.356.356,0,0,0,.59.269l3.373-2.921h5.692a2.68,2.68,0,0,0,2.681-2.681v-4.29C764.31,1440.62,762.39,1439.42,761.63,1439.42Z" transform="translate(0 -385.389)" fill="#179e96" stroke="#fff" stroke-linecap="round" stroke-linejoin="round" stroke-width="0.65"/>
      <line id="Line_2" data-name="Line 2" x2="8.067" transform="translate(753.464 1056.745)" fill="#fff" stroke="#fff" stroke-linecap="round" stroke-linejoin="round" stroke-width="0.65"/>
      <line id="Line_3" data-name="Line 3" x2="8.067" transform="translate(753.464 1059.417)" fill="#fff" stroke="#fff" stroke-linecap="round" stroke-linejoin="round" stroke-width="0.65"/>
      <line id="Line_4" data-name="Line 4" x2="8.067" transform="translate(753.464 1058.081)" fill="#fff" stroke="#fff" stroke-linecap="round" stroke-linejoin="round" stroke-width="0.65"/>
      <line id="Line_5" data-name="Line 5" x2="4.275" transform="translate(753.464 1060.753)" fill="#fff" stroke="#fff" stroke-linecap="round" stroke-linejoin="round" stroke-width="0.65"/>
      <g id="Group_5" data-name="Group 5" transform="translate(759.979 1051.336)">
        <g id="Group_3" data-name="Group 3" transform="translate(0 0)">
          <path id="Path_15" data-name="Path 15" d="M2189.537,1051.336h9.365a2.472,2.472,0,0,1,2.473,2.472v4.313c.146,1.945-.875,2.865-1.955,2.865h-.02v2.652a.356.356,0,0,1-.59.269l-3.374-2.921h-5.9a2.472,2.472,0,0,1-2.472-2.472v-4.706A2.472,2.472,0,0,1,2189.537,1051.336Z" transform="translate(-2187.064 -1051.336)" fill="#179e96" stroke="#fff" stroke-linecap="round" stroke-linejoin="round" stroke-width="0.65"/>
        </g>
        <g id="Group_4" data-name="Group 4" transform="translate(3.598 1.08)">
          <path id="Path_16" data-name="Path 16" d="M3583.789,1924.77a.548.548,0,0,1,.584.54.584.584,0,0,1-.584.585" transform="translate(-3577.689 -1919.786)" fill="#179e96" stroke="#fff" stroke-linecap="round" stroke-linejoin="round" stroke-width="0.5"/>
          <path id="Path_17" data-name="Path 17" d="M3626.58,1769.239a.549.549,0,0,1,.585.5.573.573,0,0,1-.585.585" transform="translate(-3620.183 -1765.335)" fill="#179e96" stroke="#fff" stroke-linecap="round" stroke-linejoin="round" stroke-width="0.5"/>
          <line id="Line_6" data-name="Line 6" x1="1.148" transform="translate(5.249 3.904)" fill="none" stroke="#fff" stroke-linecap="round" stroke-linejoin="round" stroke-width="0.5"/>
          <line id="Line_7" data-name="Line 7" x1="1.148" transform="translate(5.249 4.984)" fill="none" stroke="#fff" stroke-linecap="round" stroke-linejoin="round" stroke-width="0.5"/>
          <line id="Line_8" data-name="Line 8" x1="0.851" transform="translate(5.249 6.109)" fill="none" stroke="#fff" stroke-linecap="round" stroke-linejoin="round" stroke-width="0.5"/>
          <path id="Path_18" data-name="Path 18" d="M2711.132,1213.052c.332,0,.6.187.584.523a.574.574,0,0,1-.6.557H2709.5a3.61,3.61,0,0,1-2.1-.436,4.238,4.238,0,0,0-1.918-.262.2.2,0,0,1-.2-.2V1210.5a.2.2,0,0,1,.133-.191,6.807,6.807,0,0,0,1.449-.172,7.6,7.6,0,0,0,.887-1.027,5.386,5.386,0,0,0,1.218-1.778.486.486,0,0,1,.691-.341.633.633,0,0,1,.312.7h0a6.343,6.343,0,0,1-.838,1.984.062.062,0,0,0,.056.091,19.421,19.421,0,0,1,2.353,0,.592.592,0,0,1,.585.585c0,.323-.262.495-.585.495" transform="translate(-2705.284 -1206.942)" fill="#179e96" stroke="#fff" stroke-linecap="round" stroke-linejoin="round" stroke-width="0.5"/>
        </g>
        <line id="Line_9" data-name="Line 9" y2="3.15" transform="translate(4.608 4.416)" fill="none" stroke="#fff" stroke-linecap="round" stroke-linejoin="round" stroke-width="0.5"/>
      </g>
    </g>
  </g>
</svg>
