<?xml version="1.0" encoding="UTF-8"?>
<svg width="24px" height="24px" viewBox="0 0 24 24" version="1.1" xmlns="http://www.w3.org/2000/svg" xmlns:xlink="http://www.w3.org/1999/xlink">
    <title>Fortune Online</title>
    <g id="Page-1" stroke="none" stroke-width="1" fill="none" fill-rule="evenodd">
        <g id="Icon-List" transform="translate(-721.000000, -254.000000)" fill="#333333" fill-rule="nonzero" stroke="#333333" stroke-width="0.3">
            <g id="Fortune-Online" transform="translate(721.000000, 254.000000)">
                <g id="3-fortuneONLINE" transform="translate(8.000000, 2.000000)">
                    <path d="M0.431462225,20 L8.56853777,20 C8.80683436,20 9,19.8134583 9,19.5833333 L9,8.99233333 C9,7.144875 7.35263408,6.87504167 7.22388575,4.90520833 L7.6173793,4.90520833 C7.85563274,4.90520833 8.04884152,4.718625 8.04884152,4.48854167 L8.04884152,2.87841667 C8.04884152,2.64833333 7.85563274,2.46175 7.6173793,2.46175 L6.9480088,2.46175 L7.14333175,1.34379167 C7.2752729,0.586166667 6.50498339,0 5.61151141,0 L3.38848859,0 C2.51710748,0 1.72278552,0.573916667 1.85688398,1.34379167 L2.05190491,2.46175 L1.38266385,2.46175 C1.14436726,2.46175 0.951201622,2.64833333 0.951201622,2.87841667 L0.951201622,4.48854167 C0.951201622,4.718625 1.14436726,4.90520833 1.38266385,4.90520833 L1.77611425,4.90520833 C1.64792682,6.86645833 0,7.144875 0,8.99233333 L0,19.5833333 C0,19.8134583 0.193165638,20 0.431462225,20 Z M8.13707555,19.1666667 L0.862924451,19.1666667 L0.862924451,8.99233333 C0.862924451,8.5525 1.01971782,8.13383333 1.29399836,7.78808333 L7.70613108,7.78808333 C7.98028218,8.13383333 8.13707555,8.5525 8.13707555,8.99233333 L8.13707555,19.1666667 Z M2.70798637,1.20545833 C2.67109635,0.998791667 3.08072658,0.833333333 3.38848859,0.833333333 L5.61151141,0.833333333 C5.90421539,0.833333333 6.32743668,0.995291667 6.2924451,1.20545833 L6.07291712,2.46175 L2.92712603,2.46175 L2.70798637,1.20545833 Z M1.81412607,3.29508333 C3.47650688,3.29508333 5.52211244,3.29508333 7.18591707,3.29508333 L7.18591707,4.071875 C5.54183026,4.071875 3.45851491,4.071875 1.81412607,4.071875 L1.81412607,3.29508333 L1.81412607,3.29508333 Z M6.35561117,4.90520833 C6.39181085,5.61279167 6.63412003,6.31566667 7.05164603,6.95475 L1.94848341,6.95475 C2.36587997,6.31566667 2.60818915,5.61279167 2.64438883,4.90520833 L6.35561117,4.90520833 Z" id="Shape"></path>
                    <path d="M4.11468266,9.8824689 C3.8822971,10.3284272 2.72295379,12.5918022 2.72295379,13.3691772 C2.72295379,14.3154272 3.52016654,15.0853022 4.50001726,15.0853022 C5.47986797,15.0853022 6.27703758,14.3154272 6.27703758,13.3691772 C6.27703758,12.5918022 5.11769858,10.3284272 4.88531303,9.8824689 C4.73870648,9.60130224 4.26129352,9.60130224 4.11468266,9.8824689 Z M4.50002157,14.2519689 C3.99585796,14.2519689 3.58588256,13.8560522 3.58588256,13.3691772 C3.58588256,13.0383856 4.04305993,11.9714689 4.50002157,11.0260522 C4.95694007,11.9713022 5.41411744,13.0381772 5.41411744,13.3691772 C5.41411744,13.8560522 5.00414204,14.2519689 4.50002157,14.2519689 Z" id="Shape"></path>
                </g>
            </g>
        </g>
    </g>
</svg>