<?xml version="1.0" encoding="UTF-8"?>
<svg width="24px" height="24px" viewBox="0 0 24 24" version="1.1" xmlns="http://www.w3.org/2000/svg" xmlns:xlink="http://www.w3.org/1999/xlink">
    <title>Adani Total Gas</title>
    <g id="Page-1" stroke="none" stroke-width="1" fill="none" fill-rule="evenodd">
        <g id="Icon-List" transform="translate(-481.000000, -254.000000)" fill="#333333" fill-rule="nonzero">
            <g id="Adani-Total-Gas" transform="translate(481.000000, 254.000000)">
                <path d="M12,3 C15.0682486,3 17.5555556,5.48730695 17.5555556,8.55555556 C17.5555556,10.8333572 16.1847367,12.7909868 14.2230766,13.648467 L14.2222222,15.2222222 C14.794962,15.2222222 15.2664888,15.6555664 15.3268135,16.2122655 L15.3333333,16.3333333 L20.8888889,16.3333333 C21.5025386,16.3333333 22,16.8307947 22,17.4444444 L22,19.6666667 C22,20.2803164 21.5025386,20.7777778 20.8888889,20.7777778 L15.3333333,20.7777778 C15.3333333,21.3914275 14.8358719,21.8888889 14.2222222,21.8888889 L9.77777778,21.8888889 C9.16412806,21.8888889 8.66666667,21.3914275 8.66666667,20.7777778 L3.11111111,20.7777778 C2.49746139,20.7777778 2,20.2803164 2,19.6666667 L2,17.4444444 C2,16.8307947 2.49746139,16.3333333 3.11111111,16.3333333 L8.66666667,16.3333333 C8.66666667,15.7196836 9.16412806,15.2222222 9.77777778,15.2222222 L9.77692342,13.648467 C7.81526332,12.7909868 6.44444444,10.8333572 6.44444444,8.55555556 C6.44444444,5.48730695 8.93175139,3 12,3 Z M14.2222222,16.3333333 L9.77777778,16.3333333 L9.77777778,20.7777778 L14.2222222,20.7777778 L14.2222222,16.3333333 Z M20.8888889,17.4444444 L15.3333333,17.4444444 L15.3333333,19.6666667 L20.8888889,19.6666667 L20.8888889,17.4444444 Z M8.66666667,17.4444444 L3.11111111,17.4444444 L3.11111111,19.6666667 L8.66666667,19.6666667 L8.66666667,17.4444444 Z M13.1111111,14.1111111 L10.8888889,14.1111111 L10.8888889,15.2222222 L13.1111111,15.2222222 L13.1111111,14.1111111 Z M12,4.11111111 C9.54540111,4.11111111 7.55555556,6.10095667 7.55555556,8.55555556 C7.55555556,11.0101544 9.54540111,13 12,13 C14.4545989,13 16.4444444,11.0101544 16.4444444,8.55555556 C16.4444444,6.10095667 14.4545989,4.11111111 12,4.11111111 Z M12,5.22222222 C13.8409492,5.22222222 15.3333333,6.71460639 15.3333333,8.55555556 C15.3333333,10.3965047 13.8409492,11.8888889 12,11.8888889 C10.1590508,11.8888889 8.66666667,10.3965047 8.66666667,8.55555556 C8.66666667,6.71460639 10.1590508,5.22222222 12,5.22222222 Z M12,6.33333333 C10.7727006,6.33333333 9.77777778,7.32825611 9.77777778,8.55555556 C9.77777778,9.782855 10.7727006,10.7777778 12,10.7777778 C13.2272994,10.7777778 14.2222222,9.782855 14.2222222,8.55555556 C14.2222222,7.32825611 13.2272994,6.33333333 12,6.33333333 Z M12.8479979,7.55682201 L12.9451779,7.61068975 C13.1866974,7.74456623 13.2739594,8.04888485 13.1400829,8.29040441 L12.5475378,9.35938405 C12.4136613,9.60090362 12.1093427,9.68816558 11.8678232,9.5542891 L11.7706432,9.50042136 C11.5291236,9.36654488 11.4418617,9.06222626 11.5757381,8.8207067 L12.1682832,7.75172706 C12.3021597,7.51020749 12.6064783,7.42294553 12.8479979,7.55682201 Z" id="Combined-Shape"></path>
            </g>
        </g>
    </g>
</svg>