<?xml version="1.0" encoding="UTF-8"?>
<svg width="24px" height="24px" viewBox="0 0 24 24" version="1.1" xmlns="http://www.w3.org/2000/svg" xmlns:xlink="http://www.w3.org/1999/xlink">
    <title>Adani Housing Finance</title>
    <g id="Page-1" stroke="none" stroke-width="1" fill="none" fill-rule="evenodd">
        <g id="Icon-List" transform="translate(-641.000000, -254.000000)" fill="#333333" fill-rule="nonzero">
            <g id="Adani-Housing-Finance" transform="translate(641.000000, 254.000000)">
                <path d="M12.4311015,3.1626947 C12.6480278,3.37962097 12.6480278,3.73132794 12.4311015,3.9482542 L3.901,12.482 L4.77767752,12.482542 C5.08445759,12.482542 5.33315197,12.7312364 5.33315197,13.0380165 L5.33315197,20.8146588 C5.33315197,21.1214389 5.08445759,21.3701333 4.77767752,21.3701333 C4.47089745,21.3701333 4.22220307,21.1214389 4.22220307,20.8146588 L4.222,13.593 L2.62082184,13.5945131 C2.45773677,13.6137411 2.28776043,13.5607901 2.16263038,13.4356601 C2.10012171,13.3731514 2.05562531,13.2994514 2.02914117,13.2210097 C2.02968537,13.2167976 2.02833236,13.2127641 2.02702467,13.2087102 C2.01854094,13.1875627 2.0131714,13.1657914 2.00913231,13.1438236 C2.00877643,13.1355388 2.00740452,13.1274465 2.00620958,13.1192967 C2.00208978,13.0969776 2.00034618,13.0741773 2,13.0513597 C2.00035715,13.0468669 2.00030526,13.0424477 2.00030526,13.0380165 L2.00020831,13.0254246 C2.00075082,13.0080619 2.00210295,12.9907198 2.00426471,12.9734598 L2.00030526,13.0380165 C2.00030526,12.8676356 2.07701556,12.7151713 2.19778307,12.6132767 L11.645542,3.1626947 C11.8624683,2.94576843 12.2141752,2.94576843 12.4311015,3.1626947 Z M6.99957533,21.3701333 C6.69279526,21.3701333 6.44410087,21.1214389 6.44410087,20.8146588 C6.44410087,20.5078787 6.69279526,20.2591844 6.99957533,20.2591844 L18.664,20.259 L18.6645388,13.0380165 C18.6645388,12.7312364 18.9132332,12.482542 19.2200133,12.482542 L20.099,12.482 L12.6775382,5.05920311 C12.4606119,4.84227684 12.4606119,4.49056987 12.6775382,4.2736436 C12.8944645,4.05671734 13.2461714,4.05671734 13.4630977,4.2736436 L21.8214888,12.6324617 C21.8506961,12.6598094 21.8769475,12.6902757 21.8997117,12.7233295 L21.8378122,12.6501006 C21.8676539,12.6799423 21.8933904,12.7123346 21.9150217,12.7465759 C21.9243431,12.7619237 21.9329025,12.7774066 21.9407229,12.7933183 C21.9507306,12.8117303 21.9590227,12.8308457 21.9661915,12.8502817 C21.9671876,12.8567569 21.9694593,12.8634802 21.9716045,12.8702597 C22.0358525,13.0628432 21.9907318,13.2827405 21.8378122,13.4356601 C21.7128917,13.5605806 21.543275,13.6135636 21.3804401,13.5946091 L19.775,13.593 L19.7754877,20.8146588 L19.7754877,20.8146588 C19.7754877,21.0907609 19.5740453,21.3198135 19.3101141,21.362863 L19.2200133,21.3701333 L19.2200133,21.3701333 L6.99957533,21.3701333 Z" id="Combined-Shape"></path>
                <path d="M10.4198108,11 C10.1880752,11 10,11.1813584 10,11.4048178 C10,11.6282773 10.1880752,11.8096357 10.4198108,11.8096357 L11.2594323,11.8096357 C11.8110637,11.8096357 12.2746262,12.1550465 12.4450694,12.631922 L10.4198108,12.631922 C10.1880752,12.631922 10,12.8132804 10,13.0367398 C10,13.2601993 10.1880752,13.4415577 10.4198108,13.4415577 L12.4368705,13.4415577 C12.2597104,13.9054789 11.8009882,14.2385428 11.2594323,14.2385428 L10.4198108,14.2385428 C10.1880752,14.2385428 10,14.4199016 10,14.643361 C10,14.64579 10.0008002,14.647257 10.0016398,14.6496859 C10,14.7557482 10.039029,14.862076 10.1229911,14.94223 L12.6418557,17.3711371 C12.7241386,17.4504814 12.8328436,17.4897358 12.9403151,17.4897358 C13.0477867,17.4897358 13.1548519,17.4496717 13.2371348,17.3711371 C13.400861,17.2132581 13.400861,16.9565785 13.2371348,16.7986995 L11.4070218,15.0339463 C12.3490772,14.9699851 13.1228153,14.3127253 13.3125689,13.4415577 L13.7782969,13.4415577 C14.0100324,13.4415577 14.1981077,13.2601993 14.1981077,13.0367398 C14.1981077,12.8132804 14.0100324,12.631922 13.7782969,12.631922 L13.3174891,12.631922 C13.2545175,12.3258797 13.1152713,12.0477066 12.9271961,11.8080544 L13.7782969,11.8080544 L13.7782969,11.8096357 C14.0100324,11.8096357 14.1981077,11.6282773 14.1981077,11.4048178 C14.1981077,11.1813584 14.0100324,11 13.7782969,11 L11.2594323,11 L10.4198108,11 Z" id="Path" stroke="#333333" stroke-width="0.3"></path>
            </g>
        </g>
    </g>
</svg>