<svg xmlns="http://www.w3.org/2000/svg" width="26.035" height="26.307" viewBox="0 0 26.035 26.307">
  <g id="Group_8560" data-name="Group 8560" transform="translate(22343.51 20178.001)">
    <path id="Path_1360" data-name="Path 1360" d="M41.9,27.283a.491.491,0,0,0-.98.064l.043.513-1.695.109a10.041,10.041,0,0,0-.962-3.623l.847-.441.295.568a.491.491,0,0,0,.436.266.481.481,0,0,0,.226-.056.491.491,0,0,0,.21-.661l-1.044-2.006a.491.491,0,0,0-.871.454l.295.568-.861.446A10.192,10.192,0,0,0,36.184,21.4l1.929-1.929,1.036,1.036a.492.492,0,1,0,.7-.7l-2.76-2.765a.492.492,0,0,0-.7.7l1.036,1.036L35.45,20.751a10.147,10.147,0,0,0-1.974-1.225l.337-.877.6.231a.491.491,0,0,0,.353-.916l-2.125-.813a.491.491,0,0,0-.353.916l.6.231-.327.853a10.057,10.057,0,0,0-2.922-.579v-2.08h1.328a.491.491,0,0,0,0-.983H27.333a.491.491,0,1,0,0,.983h1.328v2.069a10.094,10.094,0,0,0-2.5.428l-.332-.9.6-.231a.491.491,0,1,0-.353-.916l-2.125.813a.491.491,0,0,0,.353.916l.6-.231.34.89a10.118,10.118,0,0,0-2.067,1.19l-2.29-2.287.962-.967a.492.492,0,0,0-.7-.7L18.527,19.2a.491.491,0,1,0,.7.691l.964-.964,2.218,2.218a10.19,10.19,0,0,0-2.141,2.686l-.943-.486.295-.568a.491.491,0,0,0-.871-.454l-.531,1h0l-.531,1a.491.491,0,0,0,.21.661.481.481,0,0,0,.226.056.491.491,0,0,0,.436-.266l.295-.568.964.5a10.062,10.062,0,0,0-.773,3.265l-1.982-.12.032-.5a.491.491,0,0,0-.98-.064L16,29.206a.491.491,0,0,0,.46.531h.032a.491.491,0,0,0,.491-.47l.029-.436,2.032.13a10.073,10.073,0,0,0,.518,2.922l-1.031.531-.295-.568a.491.491,0,0,0-.871.454l1.025,2.024a.491.491,0,0,0,.436.266.481.481,0,0,0,.226-.056.491.491,0,0,0,.21-.661l-.295-.568.94-.486a10.155,10.155,0,0,0,1.411,2.287l-2.13,1.828-.473-.558a.491.491,0,0,0-.749.635l1.759,2.072a.491.491,0,0,0,.749-.635l-.659-.76,2.176-1.859a10.2,10.2,0,0,0,2.048,1.594l-.491.882-.56-.313a.491.491,0,1,0-.478.858l.988.553h0l.988.553a.491.491,0,1,0,.478-.858l-.56-.313.5-.9a10.049,10.049,0,0,0,3.764.924v2.029H27.338a.491.491,0,1,0,0,.983h3.647a.491.491,0,1,0,0-.983H29.657V38.8a10.054,10.054,0,0,0,3-.608l.337.866-.6.228a.491.491,0,0,0,.353.916l2.125-.81a.491.491,0,0,0-.367-.911l-.6.228-.351-.911a10.155,10.155,0,0,0,2.284-1.517l1.724,1.724-.757.741a.5.5,0,1,0,.7.7l2.2-2.2a.492.492,0,1,0-.7-.7l-.754.754L36.55,35.6a10.158,10.158,0,0,0,1.841-2.747l.874.454-.295.568a.491.491,0,0,0,.21.661.481.481,0,0,0,.226.056.491.491,0,0,0,.436-.266l1.044-2.011a.491.491,0,0,0-.871-.454l-.295.568-.964-.5a10.073,10.073,0,0,0,.531-2.988l1.737-.112.029.436a.491.491,0,0,0,.483.454h.032a.491.491,0,0,0,.46-.531ZM29.152,37.837a9.154,9.154,0,1,1,5.926-16.124.462.462,0,0,0,.042.064.473.473,0,0,0,.1.066,9.141,9.141,0,0,1-6.064,15.991Z" transform="translate(-22359.504 -20193.51)" fill="#fff"/>
    <path id="Path_1361" data-name="Path 1361" d="M61.571,69.31A3.291,3.291,0,1,0,64.862,72.6,3.291,3.291,0,0,0,61.571,69.31Zm0,5.6A2.308,2.308,0,1,1,63.88,72.6a2.308,2.308,0,0,1-2.308,2.308Z" transform="translate(-22390.557 -20233.018)" fill="#fff"/>
    <path id="Path_1362" data-name="Path 1362" d="M38.445,53.82a2.415,2.415,0,1,0,2.415,2.415A2.415,2.415,0,0,0,38.445,53.82Zm0,3.844a1.432,1.432,0,1,1,1.432-1.432A1.432,1.432,0,0,1,38.445,57.664Z" transform="translate(-22374.217 -20221.645)" fill="#fff"/>
    <circle id="Ellipse_104" data-name="Ellipse 104" cx="0.808" cy="0.808" r="0.808" transform="translate(-22331.785 -20172.08)" fill="#fff"/>
    <circle id="Ellipse_105" data-name="Ellipse 105" cx="1.626" cy="1.626" r="1.626" transform="translate(-22328.324 -20168.957)" fill="#fff"/>
    <circle id="Ellipse_106" data-name="Ellipse 106" cx="0.736" cy="0.736" r="0.736" transform="translate(-22335.32 -20160.787)" fill="#fff"/>
    <circle id="Ellipse_107" data-name="Ellipse 107" cx="1.039" cy="1.039" r="1.039" transform="translate(-22325.004 -20164.256)" fill="#fff"/>
    <circle id="Ellipse_108" data-name="Ellipse 108" cx="1.039" cy="1.039" r="1.039" transform="translate(-22335.625 -20171.502)" fill="#fff"/>
    <circle id="Ellipse_109" data-name="Ellipse 109" cx="0.47" cy="0.47" r="0.47" transform="translate(-22331.111 -20166.176)" fill="#fff"/>
    <circle id="Ellipse_110" data-name="Ellipse 110" cx="0.47" cy="0.47" r="0.47" transform="translate(-22328.008 -20171.742)" fill="#fff"/>
  </g>
</svg>
