<svg width="20" height="20" viewBox="0 0 20 20" fill="none" xmlns="http://www.w3.org/2000/svg">
<path fill-rule="evenodd" clip-rule="evenodd" d="M0 5C0 3.89543 0.89543 3 2 3H18C19.1046 3 20 3.89543 20 5V16C20 17.1046 19.1046 18 18 18H2C0.89543 18 0 17.1046 0 16V5ZM2 6.17925V15C2 15.5523 2.44772 16 3 16H17C17.5523 16 18 15.5523 18 15V6.17925L10.53 10.848C10.2057 11.0507 9.79427 11.0507 9.47 10.848L2 6.17925ZM16.1132 5H3.88679L9.47 8.48954C9.79427 8.69222 10.2057 8.69222 10.53 8.48954L16.1132 5Z" fill="#555555"/>
</svg>
