<?xml version="1.0" encoding="UTF-8"?>
<svg width="24px" height="24px" viewBox="0 0 24 24" version="1.1" xmlns="http://www.w3.org/2000/svg" xmlns:xlink="http://www.w3.org/1999/xlink">
    <title>Adani Realty</title>
    <g id="Page-1" stroke="none" stroke-width="1" fill="none" fill-rule="evenodd">
        <g id="Icon-List" transform="translate(-601.000000, -254.000000)" fill="#333333" fill-rule="nonzero">
            <g id="Adani-Realty" transform="translate(601.000000, 254.000000)">
                <path d="M12.4311188,3.1626947 C12.6480451,3.37962097 12.6480451,3.73132794 12.4311188,3.9482542 L3.901,12.482 L4.77769486,12.482542 C5.08447493,12.482542 5.33316931,12.7312364 5.33316931,13.0380165 L5.33316931,20.8146588 C5.33316931,21.1214389 5.08447493,21.3701333 4.77769486,21.3701333 C4.47091479,21.3701333 4.2222204,21.1214389 4.2222204,20.8146588 L4.222,13.593 L2.62083918,13.5945131 C2.45775411,13.6137411 2.28777776,13.5607901 2.16264772,13.4356601 C2.10013905,13.3731514 2.05564265,13.2994514 2.02915851,13.2210097 C2.02970271,13.2167976 2.0283497,13.2127641 2.02704201,13.2087102 C2.01855828,13.1875627 2.01318873,13.1657914 2.00914965,13.1438236 C2.00879377,13.1355388 2.00742185,13.1274465 2.00622692,13.1192967 C2.00210712,13.0969776 2.00036352,13.0741773 2.00001734,13.0513597 C2.00037449,13.0468669 2.0003226,13.0424477 2.0003226,13.0380165 L2.00022565,13.0254246 C2.00076815,13.0080619 2.00212029,12.9907198 2.00428205,12.9734598 L2.0003226,13.0380165 C2.0003226,12.8692874 2.07555265,12.7181293 2.19430023,12.6162547 L11.6455593,3.1626947 C11.8624856,2.94576843 12.2141926,2.94576843 12.4311188,3.1626947 Z M13.463115,4.2736436 L21.8215062,12.6324617 C21.8507135,12.6598094 21.8769648,12.6902757 21.899729,12.7233295 L21.8378295,12.6501006 C21.8676712,12.6799423 21.8934077,12.7123346 21.915039,12.7465759 C21.9243604,12.7619237 21.9329198,12.7774066 21.9407402,12.7933183 C21.950748,12.8117303 21.95904,12.8308457 21.9662088,12.8502817 C21.967205,12.8567569 21.9694767,12.8634802 21.9716218,12.8702597 C22.0358699,13.0628432 21.9907492,13.2827405 21.8378295,13.4356601 C21.712909,13.5605806 21.5432923,13.6135636 21.3804574,13.5946091 L19.775,13.593 L19.775505,20.8146588 L19.775505,20.8146588 C19.775505,21.0907609 19.5740626,21.3198135 19.3101314,21.362863 L19.2200306,21.3701333 L19.2200306,21.3701333 L6.99959266,21.3701333 C6.69281259,21.3701333 6.44411821,21.1214389 6.44411821,20.8146588 C6.44411821,20.5078787 6.69281259,20.2591844 6.99959266,20.2591844 L18.664,20.259 L18.6645561,13.0380165 C18.6645561,12.7312364 18.9132505,12.482542 19.2200306,12.482542 L20.099,12.482 L12.6775555,5.05920311 C12.4606293,4.84227684 12.4606293,4.49056987 12.6775555,4.2736436 C12.8944818,4.05671734 13.2461888,4.05671734 13.463115,4.2736436 Z M14.2207605,13.5934909 C14.8343207,13.5934909 15.3317094,14.0908797 15.3317094,14.7044398 L15.3317094,16.9263376 C15.3317094,17.5398978 14.8343207,18.0372865 14.2207605,18.0372865 L9.77696492,18.0372865 C9.16340478,18.0372865 8.66601602,17.5398978 8.66601602,16.9263376 L8.66601602,14.7044398 C8.66601602,14.0908797 9.16340478,13.5934909 9.77696492,13.5934909 L14.2207605,13.5934909 Z M14.2207605,14.7044398 L9.77696492,14.7044398 L9.77696492,16.9263376 L14.2207605,16.9263376 L14.2207605,14.7044398 Z" id="Combined-Shape"></path>
            </g>
        </g>
    </g>
</svg>