<svg id="Layer_1" data-name="Layer 1" xmlns="http://www.w3.org/2000/svg" viewBox="0 0 28.43 28.43"><defs><style>.cls-1{fill:#fe1d25;}</style></defs><path class="cls-1" d="M14.21,0A14.22,14.22,0,1,0,28.43,14.21,14.21,14.21,0,0,0,14.21,0Zm0,26.89A12.68,12.68,0,1,1,26.89,14.21h0A12.63,12.63,0,0,1,14.3,26.89Z"/><path class="cls-1" d="M11.1,11A1.54,1.54,0,1,1,9.57,9.51h0A1.54,1.54,0,0,1,11.11,11h0Z"/><path class="cls-1" d="M20.61,11a1.54,1.54,0,1,1-1.53-1.53A1.54,1.54,0,0,1,20.61,11Z"/><path class="cls-1" d="M19.21,18.71A6.67,6.67,0,0,0,10,17.92a5.14,5.14,0,0,0-2,4A.49.49,0,0,0,8,22H9.42v-.1a3.88,3.88,0,0,1,1.12-2.66,5,5,0,0,1,4.7-1.45A4.41,4.41,0,0,1,19,22v0h1.37a2.45,2.45,0,0,0,0-.27A5.15,5.15,0,0,0,19.21,18.71Z"/></svg>