<svg id="Layer_1" data-name="Layer 1" xmlns="http://www.w3.org/2000/svg" viewBox="0 0 28.43 28.43"><defs><style>.cls-1{fill:#089e04;}</style></defs><path class="cls-1" d="M14.21,0A14.22,14.22,0,1,0,28.43,14.21h0A14.24,14.24,0,0,0,14.21,0Zm0,26.89A12.68,12.68,0,1,1,26.89,14.21h0A12.63,12.63,0,0,1,14.3,26.89Z"/><path class="cls-1" d="M11.11,11.05A1.54,1.54,0,1,1,9.57,9.51h0A1.55,1.55,0,0,1,11.11,11Z"/><path class="cls-1" d="M20.61,11.05a1.54,1.54,0,1,1-1.53-1.54h0A1.53,1.53,0,0,1,20.61,11Z"/><path class="cls-1" d="M6.6,17.69a6.45,6.45,0,0,0,4,5.42,8.18,8.18,0,0,0,8.4-.7,6.19,6.19,0,0,0,2.83-4.72h0v-1.5H6.55m7.74,6.16a6.33,6.33,0,0,1-3.77-1.15,4.77,4.77,0,0,1-2.13-3.51H20.06C19.75,20.75,16.81,22.35,14.29,22.35Z"/></svg>