<svg id="Layer_1" data-name="Layer 1" xmlns="http://www.w3.org/2000/svg" viewBox="0 0 28.43 28.43"><defs><style>.cls-1{fill:#7fe611;}</style></defs><path class="cls-1" d="M14.21,0A14.22,14.22,0,1,0,28.43,14.21h0A14.24,14.24,0,0,0,14.21,0Zm0,26.89A12.68,12.68,0,1,1,26.89,14.21h0A12.63,12.63,0,0,1,14.3,26.89Z"/><path class="cls-1" d="M11.11,11.05A1.54,1.54,0,1,1,9.57,9.51h0A1.55,1.55,0,0,1,11.11,11Z"/><path class="cls-1" d="M20.61,11.05a1.54,1.54,0,1,1-1.53-1.54h0A1.53,1.53,0,0,1,20.61,11Z"/><path class="cls-1" d="M14.19,22.09A9,9,0,0,0,21.65,18l-1.3-.82a7.33,7.33,0,0,1-12.29,0L6.76,18a9,9,0,0,0,6.4,4,8.72,8.72,0,0,0,1,.06Z"/></svg>