<?xml version="1.0" encoding="UTF-8"?>
<svg width="107px" height="29px" viewBox="0 0 107 29" version="1.1" xmlns="http://www.w3.org/2000/svg" xmlns:xlink="http://www.w3.org/1999/xlink">
    <title>Pranaam Logo-01</title>
    <g id="form-" stroke="none" stroke-width="1" fill="none" fill-rule="evenodd">
        <g id="1.1---Pranaam_homepage-Filled-Desktop" transform="translate(-93.000000, -180.000000)" fill-rule="nonzero">
            <g id="Pranaam-Logo-01" transform="translate(93.000000, 180.000000)">
                <path d="M96.3999854,6.32427285 C97.069591,5.79256151 97.8250498,5.3783201 98.6340222,5.09928155 C99.5766148,4.77679418 100.549703,4.63858531 101.540349,4.73072455 C102.210329,4.79430064 102.890937,4.8716976 103.535966,5.05321192 C105.153159,5.50745842 106.11793,6.64169256 106.620646,8.20161004 C106.87414,8.99971416 107.001041,9.83240154 106.996759,10.6695598 C107.000455,13.2646617 106.993524,15.859303 107,18.4553263 C107.00369,19.8834846 105.499238,20.8269905 104.223504,20.1557561 C103.538738,19.7959523 103.179721,19.1961258 103.178335,18.4115601 C103.174638,15.8933945 103.178335,13.3752288 103.16817,10.8561418 C103.162093,10.5500452 103.117542,10.2459164 103.03556,9.95087367 C102.804532,9.08384334 102.116532,8.5369969 101.222917,8.46190341 C100.329303,8.38680993 99.4929828,8.52179392 98.7278194,9.0147389 C98.5892029,9.10411397 98.5300598,9.18980347 98.5305219,9.3579576 C98.5354504,12.3448049 98.5365286,15.3313451 98.5337562,18.3175781 C98.5337562,19.1118184 98.2509785,19.7779852 97.5223175,20.1520705 C96.1527859,20.8555537 94.6774438,19.8249762 94.6908434,18.3553552 C94.7125599,15.9445318 94.6986983,13.5337083 94.6936157,11.1224242 C94.692569,10.831151 94.6706425,10.5403249 94.6280038,10.252169 C94.470443,9.1741398 93.7403959,8.53377203 92.644401,8.45867854 C91.7812819,8.39970942 90.9810024,8.55312127 90.2417141,9.01658169 C90.0933944,9.10872094 90.0324031,9.20086018 90.0328651,9.37961033 C90.0384098,12.3894924 90.039796,15.3993745 90.0370236,18.4092567 C90.0370236,19.4158779 89.328231,20.2483561 88.432306,20.3580018 C87.2050875,20.5086494 86.3673814,19.6208878 86.2361578,18.7455649 C86.2228364,18.6386105 86.2174311,18.5308234 86.2199858,18.4230775 C86.2199858,14.8453105 86.2185997,11.2672364 86.2158273,7.68885512 C86.2158273,7.16320071 86.40527,6.7476527 86.8234299,6.43852552 C88.0390971,5.54016785 89.3924567,4.97811844 90.8982945,4.78969367 C91.9374566,4.65931664 92.9696878,4.6639236 93.9889815,4.9338916 C94.8354245,5.15134283 95.6096695,5.58681599 96.2341076,6.19665999 C96.2669136,6.22890873 96.2997195,6.26115747 96.3343736,6.29156342 C96.3551898,6.30445345 96.3771533,6.31540291 96.3999854,6.32427285 Z" id="Path" fill="#9B1995"></path>
                <path d="M0.00719694536,10.7080669 C0.00719694536,8.05150667 0.00719694536,5.39526563 0.00719694536,2.73934374 C0.00719694536,2.18738305 0.0995382895,1.66510281 0.363810422,1.18447094 C0.815843288,0.362035144 1.51851694,0.0321991342 2.35750401,0.0254970963 C4.29227503,0.0106568694 6.22704605,-0.0276404902 8.16181707,0.0336352852 C10.3503069,0.10304925 12.212524,0.981494936 13.517615,2.98061711 C14.4164041,4.35740719 14.6872721,5.9266415 14.6147181,7.58731076 C14.5412848,9.18191707 14.0914505,10.6171106 13.1117528,11.8273072 C12.1645945,12.9948979 10.9514051,13.6698889 9.56716439,13.9662147 C8.94184844,14.0922166 8.30784625,14.1602786 7.67196823,14.1696694 C6.47109103,14.200786 5.2693344,14.1787651 4.0662586,14.1787651 C3.72811339,14.1787651 3.72811339,14.1787651 3.72811339,14.5593451 C3.72811339,16.0586867 3.73119144,17.5585071 3.72811339,19.0592848 C3.72547507,19.9856022 3.18681723,20.8061232 2.42654016,21.0698962 C1.18520866,21.4978692 -0.0112713235,20.3743204 8.01336449e-05,18.9932219 C0.0239063314,16.2276738 0.00719694536,13.4678703 0.00719694536,10.7080669 Z M3.72943256,10.2652536 L4.02624402,10.2652536 C5.24251144,10.2652536 6.45877886,10.2729131 7.67592571,10.2604665 C8.02695475,10.2587111 8.37720997,10.224439 8.72290067,10.158021 C9.77163451,9.94977913 10.4927764,9.31404296 10.7781552,8.16990934 C10.9560997,7.46641969 10.9510761,6.7229484 10.7636444,6.0223849 C10.521798,5.10181212 9.98533876,4.46607595 9.13667783,4.21762183 C8.65705702,4.07911617 8.16408406,4.00279023 7.66801074,3.99023125 C6.45218304,3.95815721 5.23547591,3.97922076 4.01832905,3.97969948 C3.73295032,3.97969948 3.73163116,3.97969948 3.73163116,4.29613141 C3.73163116,6.18642526 3.73163116,8.07687867 3.73163116,9.96749166 L3.72943256,10.2652536 Z" id="Shape" fill="#9B1995"></path>
                <path d="M65.7795901,11.1221793 C65.7302679,10.5822727 65.7351557,10.0584075 65.6258471,9.5597501 C65.4427774,8.71459918 64.8291385,8.34381442 64.0444272,8.20952525 C62.9375666,8.01932046 61.8671422,8.20952525 60.8038273,8.50926967 C60.4350219,8.61376772 60.0622174,8.72376567 59.6840807,8.76959815 C58.8900382,8.86584636 58.2337423,8.4432709 58.0000174,7.73149249 C57.7440753,6.95234034 58.024012,6.08152323 58.672754,5.65757279 C59.259288,5.27487159 59.9275812,5.127291 60.5918753,4.98062707 C61.9029989,4.6878016 63.2526952,4.62581748 64.5838607,4.79729715 C65.3503539,4.89675363 66.0888534,5.10345811 66.7833629,5.46507638 C68.1537195,6.17822976 68.8926633,7.36024941 69.1383855,8.8869293 C69.2240835,9.42083469 69.2686572,9.96090162 69.2716887,10.5020659 C69.2854633,12.8312725 69.2716887,15.1604791 69.2805755,17.4896857 C69.2805755,18.1029243 69.0521828,18.547041 68.5371882,18.868785 C67.3818941,19.5915632 66.1190688,19.9967223 64.7949241,20.2185515 C63.7571011,20.3968214 62.7003561,20.4261264 61.6547458,20.3056333 C60.2501748,20.140178 58.981573,19.6497705 58.0195685,18.5181666 C57.3974871,17.7848469 57.0926672,16.9140298 56.9953559,15.9593392 C56.9135966,15.1604791 56.986469,14.3744521 57.2779586,13.6218828 C57.7129713,12.4999037 58.5278979,11.7752922 59.5792156,11.3013843 C60.4034735,10.9296829 61.2717214,10.783019 62.165297,10.7408531 C63.2820933,10.6929137 64.3996943,10.8133473 65.4827684,11.0983464 C65.5257859,11.1092188 65.5694152,11.1173314 65.6134055,11.1226377 C65.6427322,11.1249293 65.6720589,11.1221793 65.7795901,11.1221793 Z M65.7351557,15.1192299 C65.7351557,14.8364435 65.7391548,14.5536571 65.7351557,14.271329 C65.7258245,13.7295891 65.8271349,13.8386704 65.2996987,13.6897148 C64.2652661,13.3973036 63.2148372,13.23139 62.1448571,13.4399278 C61.4903386,13.5682588 60.9389078,13.8881695 60.6683024,14.5536571 C60.3505965,15.3328092 60.494564,16.5739528 61.8324834,16.9649038 C63.1477413,17.3494383 64.4261186,17.1821498 65.6156272,16.4607465 C65.6791684,16.4217889 65.7280462,16.3035411 65.7311566,16.2205844 C65.7444869,15.8525495 65.7369331,15.4854314 65.7369331,15.1192299 L65.7351557,15.1192299 Z" id="Shape" fill="#9B1995"></path>
                <path d="M80.3436514,11.1347147 C80.3360981,10.5737835 80.4027452,10.0256841 80.2414591,9.48858328 C80.0041952,8.69805527 79.4323626,8.3451819 78.6863588,8.21365637 C77.4564966,7.9968913 76.2746204,8.24161127 75.1074066,8.61327401 C74.6702012,8.75075714 74.228997,8.8396629 73.7744634,8.74571609 C72.784531,8.53994967 72.2877876,7.55098767 72.6347971,6.51848935 C72.8045252,6.01438453 73.1493131,5.69359056 73.6069569,5.48186653 C74.3622914,5.13403421 75.1665004,4.96676306 75.9782627,4.84027858 C76.9006511,4.69570997 77.8364484,4.66494156 78.7658911,4.74862316 C79.6625175,4.83157132 80.5320407,5.02358943 81.3469133,5.43603882 C82.697629,6.11841343 83.4725132,7.25356583 83.7359916,8.75579819 C83.8401612,9.37130661 83.8936696,9.99479991 83.8959448,10.6196112 C83.9141617,12.848671 83.9034982,15.0786474 83.9021652,17.3104569 C83.9021652,17.4859771 83.8928346,17.6614972 83.8772836,17.8361008 C83.836851,18.2842958 83.5893679,18.587217 83.2316948,18.8191052 C82.3874975,19.3690377 81.4699883,19.7407004 80.5031603,19.9950442 C79.2599488,20.3158679 77.9761092,20.4364451 76.6971634,20.3525004 C75.5672719,20.2855919 74.4933641,19.994586 73.5394211,19.3369583 C72.3970889,18.54918 71.7928213,17.4264011 71.6288693,16.0314055 C71.54978,15.386727 71.5914102,14.7323823 71.7515001,14.103892 C72.0687406,12.8665438 72.8285181,12.0077325 73.9206429,11.4408438 C74.8221567,10.9729428 75.7867632,10.7891737 76.7882478,10.7438043 C77.9118723,10.6958823 79.0362668,10.8172277 80.1259374,11.1040101 C80.1979575,11.118043 80.2706226,11.1282911 80.3436514,11.1347147 L80.3436514,11.1347147 Z M80.3480946,15.130891 C80.3480946,14.7496045 80.3418742,14.3678596 80.3512048,13.9851983 C80.354315,13.8522979 80.3067733,13.7959298 80.1894743,13.7611008 C79.1524446,13.4503889 78.1011968,13.2624953 77.018847,13.3944791 C76.4776721,13.4595544 75.9920365,13.658905 75.597041,14.0667716 C74.9234604,14.7624362 74.9092423,16.4635609 76.3634833,16.9310035 C77.7053127,17.3627005 79.0062652,17.1954294 80.2290183,16.4672271 C80.2925553,16.4296483 80.3409855,16.3118711 80.3440957,16.2298395 C80.352982,15.8636761 80.3463173,15.4970544 80.3463173,15.130891 L80.3480946,15.130891 Z" id="Shape" fill="#9B1995"></path>
                <path d="M35.7123698,11.1448664 C35.7123698,10.5511825 35.7465822,9.994174 35.5790749,9.45321103 C35.3364781,8.6738576 34.7584223,8.33919406 34.0239672,8.21037152 C32.7696618,7.99031879 31.5677857,8.25621584 30.380572,8.63397304 C29.9704679,8.76417091 29.5568093,8.82926984 29.1364859,8.74399941 C28.1994224,8.55374548 27.6942346,7.65840592 27.9434962,6.67458681 C28.0901206,6.09648994 28.4424636,5.71735742 28.9574264,5.4826345 C29.7127644,5.135593 30.5174215,4.96642746 31.3291877,4.84081403 C32.2516678,4.69549741 33.1876972,4.66471526 34.1172736,4.74912539 C35.3506962,4.86465307 36.5214701,5.16997624 37.5256254,5.9676674 C38.4164799,6.67504526 38.8972303,7.63869286 39.0913966,8.75316827 C39.1920664,9.33786693 39.2446829,9.93029551 39.2486847,10.5241343 C39.2664573,12.7929697 39.256238,15.062722 39.2544608,17.3310989 C39.2549959,17.5067266 39.2463934,17.6822572 39.2286904,17.8569333 C39.1842588,18.2947465 38.9372188,18.5904424 38.5866531,18.819664 C37.7393416,19.3670452 36.8249383,19.7415933 35.8576613,19.9955708 C34.6143097,20.3174844 33.3299317,20.4375085 32.0507577,20.3513227 C30.7733478,20.2715536 29.573249,19.9226783 28.553987,19.0773091 C27.6098145,18.2942881 27.1259538,17.2549974 26.9833282,16.0277449 C26.8602526,14.9646151 27.0059884,13.9523726 27.5445,13.029068 C28.1718748,11.9540187 29.1569245,11.3763802 30.2872656,11.0297972 C31.2492108,10.7350182 32.2422581,10.6703777 33.2313066,10.7547313 C33.9719821,10.8189133 34.70466,10.974784 35.4408924,11.0907701 C35.5164262,11.1036065 35.5959589,11.1224027 35.7123698,11.1448664 Z M35.7150357,15.1200274 C35.7150357,14.7610664 35.7088153,14.4016469 35.7177016,14.0426859 C35.7217004,13.8808554 35.6732699,13.8020032 35.513316,13.7543251 C34.7840591,13.5257144 34.0300052,13.3918849 33.2686292,13.355938 C32.7265631,13.335308 32.1884958,13.3655653 31.6744216,13.57324 C30.8995337,13.8863567 30.505425,14.4901264 30.5191988,15.3382463 C30.5316396,16.0923854 30.9524074,16.6966135 31.7264067,16.9368378 C33.0740185,17.3553964 34.3723113,17.1917322 35.59196,16.45914 C35.6554973,16.4206307 35.7048164,16.3028108 35.7079266,16.2198326 C35.7217004,15.8535365 35.7145914,15.4867819 35.7150357,15.1200274 L35.7150357,15.1200274 Z" id="Shape" fill="#9B1995"></path>
                <path d="M42.340176,13.0142868 L42.340176,7.78784585 C42.340176,7.70355584 42.3442691,7.61926583 42.3451787,7.53497583 C42.3510909,6.88138283 42.6939993,6.456248 43.2320108,6.14211803 C44.3471453,5.49128864 45.5473247,5.09425047 46.811629,4.88467696 C47.8726432,4.70163496 48.9523804,4.65643824 50.0246899,4.75018143 C51.1452818,4.85473789 52.2203952,5.11866233 53.1627112,5.77547954 C54.4583956,6.67595473 55.0969147,7.97945591 55.3165762,9.51279705 C55.3887599,10.0673678 55.4227993,10.626349 55.4184482,11.1857003 C55.4289083,13.5877352 55.4225413,15.9897701 55.4225413,18.3918049 C55.4225413,19.2208869 55.0741754,19.8528317 54.3278721,20.2010461 C53.080395,20.7832459 51.6664662,19.8390136 51.6610088,18.4258894 C51.6523679,15.9777944 51.6610088,13.5296995 51.6532775,11.0816045 C51.6522515,10.7832435 51.6129628,10.4862813 51.5363975,10.1981715 C51.268074,9.19912769 50.5304116,8.70259968 49.5940078,8.51835923 C48.4434,8.29220408 47.3409995,8.54046808 46.2845323,9.03146888 C46.0998894,9.11714069 46.1162616,9.26176944 46.1162616,9.41376781 C46.1162616,12.3763542 46.1162616,15.3386336 46.1162616,18.3006059 C46.1162616,18.9763077 45.9184299,19.5566652 45.3808732,19.9790364 C44.8251251,20.4152257 44.1925182,20.4856976 43.556273,20.2314458 C42.9018364,19.970285 42.4893457,19.4650055 42.3779232,18.7437042 C42.349497,18.5465255 42.3362683,18.347405 42.3383569,18.1481469 C42.3377505,16.4371673 42.3383569,14.7258806 42.340176,13.0142868 Z" id="Path" fill="#9B1995"></path>
                <path d="M16.9494427,13.8392812 C16.9494427,12.2891811 16.9113422,10.73816 16.9600006,9.1880599 C17.0059048,7.64624911 17.5852156,6.33884146 18.9182731,5.45787251 C19.5503738,5.04110466 20.26602,4.84170082 21.0082907,4.76709707 C22.1393698,4.65058628 23.271367,4.68144091 24.379494,4.94854075 C24.7636685,5.04588809 25.1272207,5.21186865 25.4527338,5.4385308 C26.0761126,5.86911416 26.2753368,6.51706152 26.1247711,7.24237574 C25.9664016,8.00407079 25.5069007,8.54563874 24.7191849,8.66030746 C24.3088015,8.71971415 23.8745479,8.60919008 23.4508523,8.57603286 C22.9743669,8.53873098 22.4960453,8.45906155 22.020937,8.47564016 C21.3599167,8.49912653 20.8999568,8.97530106 20.7948362,9.66469496 C20.7613425,9.88430806 20.7443102,10.1061315 20.7438826,10.3282999 C20.7405162,13.0370607 20.7394452,15.7458214 20.7406693,18.4545822 C20.7406693,19.3834449 20.1503414,20.1345481 19.2832114,20.3284257 C18.0626191,20.6010518 16.9540331,19.72653 16.9453113,18.4660951 C16.9347533,16.9238238 16.942557,15.3806315 16.942557,13.8388207 L16.9494427,13.8392812 Z" id="Path" fill="#9B1995"></path>
                <path d="M40.3630009,24.8450688 C40.3258268,24.9544424 40.2796952,25.0629444 40.2519266,25.1731895 C39.9796155,26.2721541 39.712231,27.3719903 39.4385762,28.470955 C39.3373553,28.8766394 39.0413065,29.0600907 38.6856897,28.9446166 C38.4335331,28.8626954 38.3484359,28.6539705 38.2928988,28.4286871 C38.0653757,27.5054754 37.838599,26.5821185 37.6125688,25.6586164 C37.5624062,25.454249 37.5176182,25.2485745 37.462529,25.0450786 C37.4376347,24.9774611 37.4066088,24.9121315 37.3698178,24.8498621 L37.3012921,24.8581413 C37.2690447,25.0529221 37.2323186,25.247703 37.20455,25.4433553 C37.0501806,26.5277949 36.8962591,27.6123798 36.7427855,28.6971099 C36.7091945,28.9311083 36.6084215,29.0152083 36.4167288,28.9934207 C36.2375767,28.9729404 36.1538231,28.8374218 36.1869663,28.6169316 C36.3780618,27.354415 36.5697545,26.0921889 36.7620444,24.8302533 C36.8139985,24.490803 37.0124094,24.3073517 37.3348831,24.2977652 C37.6483992,24.2868714 37.8678605,24.466401 37.9516141,24.8145662 C38.2257168,25.9504245 38.4990729,27.0867185 38.7716827,28.2234483 C38.7947421,28.3014811 38.8224073,28.3781553 38.8545405,28.4530892 L38.9145564,28.4530892 C38.9454224,28.377231 38.9721826,28.2998518 38.994727,28.2212695 C39.2634551,27.0842492 39.5321832,25.9469385 39.8009113,24.8093372 C39.8833212,24.4607362 40.1005431,24.2864357 40.4198817,24.2995082 C40.7392202,24.3125808 40.9246426,24.4816522 40.9806276,24.8389683 C41.1781428,26.1026469 41.368044,27.3628395 41.5597367,28.6252109 C41.5852658,28.7960254 41.5646633,28.9528959 41.3496809,28.9925492 C41.1499263,29.0291523 41.0419872,28.9311083 41.0079483,28.6936239 C40.8314835,27.4735204 40.655168,26.2534168 40.4790018,25.0333133 C40.4713879,24.9784087 40.4557121,24.9239398 40.4436193,24.8694709 L40.3630009,24.8450688 Z" id="Path" fill="#000000"></path>
                <path d="M69.4907731,27.0186589 C69.1717646,27.0186589 68.8835414,27.01521 68.5957645,27.0186589 C68.4101595,27.0212455 68.2673864,26.9729618 68.2504321,26.7699119 C68.236601,26.6013502 68.3659891,26.5030585 68.6015646,26.500903 C68.9210194,26.4978852 69.2409203,26.4952986 69.560375,26.500903 C69.8798297,26.5065073 70.0324184,26.6548071 70.044911,26.9664953 C70.0654347,27.4691626 70.044911,27.9632078 69.6777166,28.3688766 C69.1467793,28.9543159 68.4677149,29.1090822 67.714587,28.9293119 C66.9364738,28.743506 66.4488146,28.2330789 66.2962259,27.4812335 C66.1748688,26.8815678 66.1516682,26.2590536 66.3363808,25.6662856 C66.5822182,24.8786586 67.1537566,24.4160839 68.0050409,24.312619 C68.766646,24.2182072 69.4894346,24.5661081 69.8521674,25.1907779 C69.896784,25.2688077 69.9414006,25.3670994 69.9324773,25.4494403 C69.9235539,25.5317811 69.8561829,25.634815 69.7870272,25.6606812 C69.7067174,25.6908585 69.5898219,25.6606812 69.5010349,25.6292106 C69.4483874,25.609811 69.4153711,25.5343678 69.3796778,25.4800487 C69.0227452,24.9329777 68.500285,24.7169945 67.8774375,24.8579656 C67.2955439,24.9968376 66.8699003,25.4785075 66.8191322,26.0555725 C66.7834389,26.448271 66.7834389,26.8432368 66.8191322,27.2359353 C66.9141655,28.2041949 67.9684554,28.7629057 68.8768489,28.341286 C69.2730442,28.1576357 69.4836345,27.848103 69.4903269,27.4178612 C69.4925578,27.2993076 69.4907731,27.1777363 69.4907731,27.0186589 Z" id="Path" fill="#000000"></path>
                <path d="M85.679666,28.9997451 C85.2143073,29.0070936 84.6486644,28.8553699 84.1299525,28.5653227 C83.9091295,28.4421282 83.8488601,28.2804626 83.9629767,28.1330615 C84.0770933,27.9856604 84.2490092,27.9726926 84.4629161,28.1019387 C85.0290531,28.443425 85.6485433,28.549329 86.3184226,28.4395347 C86.7758771,28.3647535 87.0638857,28.1261453 87.1256371,27.7807686 C87.1814603,27.4643535 87.0643797,27.2343905 86.7244999,27.1172477 C86.4206829,27.0130728 86.0941415,26.9603369 85.7804443,26.8782073 C85.4346364,26.7878647 85.0819123,26.712219 84.7509247,26.5916182 C83.713501,26.2120929 83.8943091,24.989226 84.6071674,24.5846295 C85.2849509,24.1999171 86.5609821,24.1955945 87.2180172,24.6075394 C87.386969,24.7130111 87.473915,24.8461476 87.3662206,25.0121358 C87.2511159,25.1884984 87.0698138,25.162995 86.8929577,25.0791363 C86.423153,24.8547928 85.9281537,24.7333274 85.3980795,24.8543605 C85.1990858,24.8944027 85.0140454,24.975803 84.8586192,25.0916719 C84.4742784,25.404629 84.5780208,25.9561942 85.0621518,26.1290987 C85.4247561,26.2587771 85.8189772,26.3145387 86.1983778,26.4070426 C86.4355033,26.4645334 86.6765808,26.5151079 86.905308,26.5924827 C87.3642445,26.7467999 87.6957261,27.0087502 87.7451272,27.4665148 C87.8009505,27.9688023 87.6329867,28.3928505 87.1473736,28.6915429 C86.7531525,28.9323124 86.3026142,28.9997451 85.679666,28.9997451 Z" id="Path" fill="#000000"></path>
                <path d="M63.3015865,25.6274099 C63.3015865,25.3068151 63.3015865,24.9983672 63.3015865,24.6899194 C63.3015865,24.6113975 63.2923093,24.5129198 63.3368403,24.4599934 C63.3999259,24.3840745 63.5084702,24.2964423 63.5970684,24.2973036 C63.6856665,24.2981776 63.7905,24.3884127 63.8563687,24.463464 C63.8971888,24.5094492 63.8869838,24.6009858 63.8869838,24.6721327 C63.8869838,25.8725197 63.8837368,27.0724728 63.8920863,28.2728598 C63.8920863,28.472852 63.8187957,28.5938885 63.6318582,28.6854251 C63.1911867,28.9023363 62.7282498,29.0194684 62.2300591,28.9973435 C61.4878755,28.9648068 60.9562865,28.5492048 60.8588749,27.8468461 C60.7976412,27.4245001 60.7976412,26.9963567 60.8588749,26.5740107 C60.9910764,25.7180788 61.685018,25.3107195 62.6461457,25.4738367 C62.8599873,25.5094102 63.0673349,25.571013 63.3015865,25.6274099 Z M63.3015865,27.2008843 L63.3015865,26.636915 C63.3015865,26.101578 63.2960202,26.0920339 62.7301052,25.9835782 C62.6014616,25.9596604 62.4706886,25.9471686 62.3395311,25.9462695 C61.7893876,25.9397622 61.4799898,26.1731587 61.428037,26.6933119 C61.3941726,27.0590932 61.3979006,27.427069 61.4391697,27.7921844 C61.4790621,28.1683086 61.7332599,28.399536 62.1117735,28.4715506 C62.4995645,28.5439989 62.8641621,28.4615726 63.2009279,28.2811025 C63.2556639,28.2516025 63.2937008,28.1548601 63.2969479,28.0880514 C63.3076168,27.7930521 63.3015865,27.4967513 63.3015865,27.2008843 Z" id="Shape" fill="#000000"></path>
                <path d="M55.5937638,26.7122589 C55.5937638,26.5438197 55.606862,26.3917432 55.5937638,26.2425542 C55.5583502,25.9027882 55.3546006,25.6650483 55.0077411,25.6409856 C54.7084233,25.6198104 54.4023137,25.6688984 54.1015405,25.7035487 C53.9836568,25.7170239 53.8706243,25.8074998 53.7566215,25.8050935 C53.6426187,25.8026872 53.4902916,25.756968 53.4354733,25.6765984 C53.392334,25.6153713 53.3803053,25.5377408 53.402917,25.4664873 C53.4255287,25.3952338 53.4802162,25.3384392 53.5509314,25.3127698 C53.7726304,25.2218126 54.0059722,25.1279679 54.2407694,25.1063114 C54.5841589,25.0680012 54.9310738,25.0733381 55.2731008,25.1221928 C55.7912069,25.2093 56.1463134,25.6034477 56.1700842,26.1198342 C56.2040424,26.8638542 56.1953103,27.6117242 56.1851228,28.3557442 C56.1851228,28.4519952 56.0880992,28.5824153 55.9998077,28.631022 C55.376916,28.9722317 54.7089084,29.0935079 54.0108234,28.9241062 C53.3762889,28.7705859 53.0633877,28.2811497 53.122087,27.5992116 C53.1667179,27.0871564 53.627095,26.6506583 54.2378587,26.6111954 C54.6118848,26.5871326 54.9912471,26.6458457 55.3681839,26.670871 C55.4441394,26.6802081 55.5194663,26.6940286 55.5937638,26.7122589 Z M55.598615,27.2349017 C55.3609071,27.1867762 55.1493956,27.116513 54.9354585,27.1107379 C54.6644654,27.0960705 54.3927557,27.1202211 54.1287071,27.1824449 C53.8405469,27.2589644 53.7037436,27.4952606 53.7076246,27.7599507 C53.7119906,28.0665101 53.8740201,28.3028062 54.1723677,28.3903946 C54.5931265,28.5194117 55.0477589,28.4832343 55.442407,28.2893311 C55.5213541,28.2448618 55.5761511,28.1677333 55.5918234,28.0790227 C55.6097727,27.8090387 55.598615,27.5366485 55.598615,27.2349017 L55.598615,27.2349017 Z" id="Shape" fill="#000000"></path>
                <path d="M89.1289109,27.2831851 C89.0363346,27.9910567 89.5288405,28.520409 90.2078877,28.451197 C90.4657127,28.4249442 90.7198346,28.3461857 90.9716422,28.2774511 C91.1429083,28.2297187 91.2956592,28.2106257 91.3826809,28.4101471 C91.4539647,28.5738693 91.3775892,28.726613 91.1591092,28.8087127 C90.6647517,28.9948691 90.1541934,29.0645584 89.6385434,28.929953 C89.1228935,28.7953476 88.7715664,28.452629 88.6354792,27.9132528 C88.4867054,27.341916 88.4884631,26.7399908 88.6405709,26.1695882 C88.8502562,25.3905954 89.542727,24.9791421 90.374525,25.1027691 C91.1151354,25.2125536 91.5937549,25.7953662 91.6034754,26.5915427 C91.6118073,27.2392713 91.5696851,27.2831851 90.9452579,27.2831851 L89.1289109,27.2831851 Z M89.1219677,26.7896321 C89.7311197,26.7896321 90.3300884,26.7929734 90.9272055,26.7824723 C90.9702535,26.7824723 91.0429259,26.6870075 91.0484805,26.6282966 C91.0872813,26.2093261 90.845935,25.8164664 90.4620096,25.6736486 C89.7181591,25.4025285 89.0641075,25.9223344 89.1219677,26.7910641 L89.1219677,26.7896321 Z" id="Shape" fill="#000000"></path>
                <path d="M73.7222146,27.2819829 C73.6722084,28.1365477 74.2620962,28.6036716 75.1047929,28.4151998 C75.2774995,28.3765511 75.4446498,28.313091 75.6141152,28.2639451 C75.7835805,28.2147993 75.9266538,28.2319765 75.9928657,28.4242655 C76.0553734,28.6046259 75.9595282,28.7277291 75.8122878,28.7840321 C75.2038793,29.0173555 74.5857473,29.1056271 73.9685414,28.823635 C73.6072862,28.6623098 73.3401566,28.336002 73.2466929,27.941873 C73.0938006,27.3719988 73.0904452,26.770514 73.2369694,26.1988661 C73.4425504,25.39965 74.1282833,24.9811947 74.9728322,25.101435 C75.7192207,25.2073609 76.2016878,25.7952023 76.2086331,26.6077785 C76.2086331,26.6712386 76.2086331,26.7346988 76.2086331,26.798636 C76.2086331,27.1731941 76.1021384,27.2819829 75.7419087,27.28246 C75.1554165,27.28246 74.5689242,27.28246 73.982432,27.28246 L73.7222146,27.2819829 Z M73.731475,26.7895703 L75.5215111,26.7895703 C75.6719927,26.7895703 75.6604172,26.6769643 75.6604172,26.5710384 C75.6516198,25.9736541 75.2247152,25.5781018 74.6292712,25.6167505 C74.0338272,25.6553991 73.6652631,26.1268174 73.731475,26.7910017 L73.731475,26.7895703 Z" id="Shape" fill="#000000"></path>
                <path d="M103.738642,27.2958541 C103.641353,28.0071105 104.138038,28.5324269 104.835353,28.4506897 C105.086721,28.4210541 105.334366,28.3469648 105.580148,28.2786116 C105.750986,28.2308121 105.917168,28.2030884 105.992579,28.4057582 C106.067989,28.608428 105.959063,28.7437006 105.774261,28.8106199 C105.268265,28.9946479 104.750167,29.0677811 104.223224,28.9243827 C103.639491,28.7652104 103.2778,28.3507888 103.199131,27.7552072 C103.132223,27.2762466 103.135203,26.7897208 103.207975,26.3116626 C103.351814,25.4512718 104.03144,25.0029126 104.927521,25.0922977 C105.683489,25.1678209 106.191346,25.7586225 106.226724,26.6051515 C106.23138,26.6925592 106.23138,26.7801629 106.226724,26.8675707 C106.208569,27.1591475 106.087075,27.2800803 105.798467,27.2815142 C105.170511,27.2839042 104.541624,27.2815142 103.915065,27.2815142 C103.857344,27.2829482 103.797295,27.2915521 103.738642,27.2958541 Z M103.738642,26.7767516 C103.802415,26.7810536 103.869912,26.7896575 103.937875,26.7901355 C104.432233,26.7901355 104.927056,26.7800976 105.420948,26.7953934 C105.645783,26.8025634 105.679765,26.6997945 105.663472,26.5085965 C105.612268,25.9134929 105.170045,25.5497388 104.570951,25.616658 C104.002113,25.6797534 103.65299,26.1577483 103.7419,26.7767516 L103.738642,26.7767516 Z" id="Shape" fill="#000000"></path>
                <path d="M46.8051861,27.2817377 C46.6796127,27.9763687 47.1902163,28.5276782 47.8827166,28.4502847 C48.1394034,28.4216204 48.3905501,28.3408827 48.6430819,28.2720884 C48.8171303,28.2243146 48.9722504,28.218104 49.0428854,28.4235313 C49.1075188,28.6146265 49.0017971,28.7354942 48.843907,28.7952115 C48.2751334,29.0116267 47.6962032,29.0899757 47.1121946,28.8640057 C46.7121866,28.7168465 46.4098212,28.3723974 46.3065859,27.9462712 C46.1515516,27.3763492 46.1472467,26.773804 46.2941209,26.2015723 C46.4958693,25.4085273 47.1435879,25.0010169 47.9976716,25.0941758 C48.7095619,25.1720471 49.1980055,25.7200125 49.2543288,26.5035026 C49.2543288,26.519268 49.2580222,26.5350333 49.2589455,26.5512764 C49.2861839,27.0954199 49.2686405,27.3108797 48.6153819,27.2865151 C48.012445,27.2654946 47.4058147,27.2817377 46.8051861,27.2817377 Z M46.7830261,26.7868012 C47.383193,26.7868012 47.9889,26.7901454 48.5927602,26.7796352 C48.6315402,26.7796352 48.6975586,26.675966 48.7026369,26.6162488 C48.7463921,26.1612094 48.4548394,25.7440362 48.023525,25.6445299 C47.293168,25.4577343 46.7405527,25.9517153 46.7830261,26.7882344 L46.7830261,26.7868012 Z" id="Shape" fill="#000000"></path>
                <path d="M77.5606973,27.2803583 C77.4752908,28.0075205 77.9681283,28.5217384 78.6695817,28.447733 C78.9216009,28.4200407 79.1703531,28.3450804 79.4163052,28.277282 C79.5875849,28.2295366 79.7429967,28.2023217 79.8307367,28.4038073 C79.9049423,28.5709161 79.8335369,28.7217916 79.6113867,28.8043911 C79.0742125,29.0044443 78.5207037,29.0789271 77.9671949,28.8941524 C77.3702828,28.6945767 77.0594592,28.225717 77.0034549,27.6121887 C76.961909,27.1853799 76.9720982,26.7549536 77.0337905,26.3307025 C77.1668007,25.4746277 77.8677873,24.9976512 78.7694559,25.093142 C79.5376477,25.1743092 80.0547537,25.7840178 80.057554,26.6114454 C80.057554,26.6911802 80.057554,26.7704375 80.057554,26.8501723 C80.0519535,27.1581301 79.9338779,27.2798808 79.6267878,27.2798808 C79.020075,27.2822681 78.4133622,27.2798808 77.8066493,27.2798808 L77.5606973,27.2803583 Z M77.5550969,26.7881033 C78.1641432,26.7881033 78.7610553,26.7924004 79.3579674,26.7809415 C79.4079045,26.7809415 79.4928443,26.6811536 79.497978,26.6209944 C79.5404127,26.1753302 79.2594735,25.7643663 78.8357277,25.6522405 C78.0866707,25.4474128 77.5014261,25.9482619 77.5550969,26.7895357 L77.5550969,26.7881033 Z" id="Shape" fill="#000000"></path>
                <path d="M42.944074,27.2819202 C42.8542659,27.9933332 43.3440439,28.5199698 44.0231595,28.4507383 C44.2810105,28.4244781 44.535621,28.3471299 44.7874539,28.276466 C44.960589,28.2287202 45.1189105,28.2105768 45.1962195,28.4101544 C45.2735285,28.609732 45.1652033,28.7362584 44.9943828,28.8002379 C44.4541456,29.0031577 43.8995577,29.079551 43.3421922,28.8957295 C42.9016487,28.7618593 42.5633159,28.3965413 42.4538331,27.9365157 C42.3021154,27.3656758 42.2995599,26.7635933 42.4464262,26.1914053 C42.6459483,25.4102834 43.3296931,24.9905975 44.1662043,25.0975482 C44.9124445,25.1930398 45.4040742,25.7803136 45.4161103,26.591038 C45.4262948,27.2360842 45.3818537,27.2828752 44.7582894,27.2828752 L42.944074,27.2819202 Z M42.944074,26.7676976 C42.9709391,26.7780029 42.9989206,26.7848971 43.0274011,26.7882283 C43.5829148,26.7882283 44.1384286,26.7882283 44.6911649,26.7925254 C44.8573561,26.7925254 44.8809654,26.7013309 44.8735585,26.5638228 C44.8406906,25.9431269 44.4152597,25.564025 43.8088238,25.6165454 C43.2320153,25.6676335 42.8709313,26.1441369 42.944074,26.7691299 L42.944074,26.7676976 Z" id="Shape" fill="#000000"></path>
                <path d="M56.9679968,27.2031197 C56.9679968,26.7455958 56.9749956,26.2871078 56.9642642,25.8305481 C56.9595983,25.6377035 57.023987,25.5051228 57.1854252,25.4202712 C57.850308,25.0712225 58.5478518,24.9690148 59.2579933,25.2201949 C59.8407573,25.4260566 60.0199257,25.9433622 60.0334566,26.5218961 C60.0507203,27.2277074 60.0404554,27.9344829 60.0367227,28.6431868 C60.0367227,28.8360314 59.9774665,28.9970567 59.7488401,28.9999494 C59.5519415,29.002842 59.4497595,28.881832 59.4483597,28.6301698 C59.4455602,28.0202987 59.4240974,27.4089813 59.452559,26.798146 C59.4950182,25.8975616 58.9892406,25.5514056 58.1573206,25.6844683 C57.562892,25.7808906 57.5474947,25.8088531 57.5474947,26.4230632 L57.5474947,28.4696267 C57.5474947,28.5419434 57.5474947,28.6142601 57.543762,28.6860948 C57.5316308,28.8837605 57.4406469,29.0081453 57.2372161,28.9956104 C57.0477828,28.9840397 56.9684634,28.8582086 56.9679968,28.6716314 C56.9676858,28.1814847 56.9676858,27.6919808 56.9679968,27.2031197 Z" id="Path" fill="#000000"></path>
                <path d="M100.07751,27.0164062 C100.07751,26.8174545 100.063257,26.6175464 100.08036,26.4205078 C100.135471,25.7782192 100.599157,25.2789271 101.265232,25.1292352 C101.977865,24.9666305 102.7019,25.224885 103.02021,25.7672195 C103.073422,25.8554245 103.113141,25.9511909 103.138032,26.0512995 C103.174613,26.2124694 103.138032,26.3621614 102.965099,26.4205078 C102.798343,26.4759847 102.665318,26.4109428 102.597856,26.2473816 C102.451053,25.8901295 102.187379,25.6945256 101.810634,25.6428747 C101.223899,25.5625289 100.741684,25.9020857 100.680398,26.4927234 C100.645003,26.8723354 100.649302,27.2546394 100.693225,27.6333475 C100.738358,28.0561197 101.06807,28.3631557 101.466194,28.4291541 C101.938433,28.5071087 102.345584,28.323461 102.558898,27.9365575 C102.593105,27.8739068 102.612108,27.7868655 102.664368,27.7538663 C102.750834,27.6993459 102.875783,27.6309563 102.952747,27.6582165 C103.041114,27.6893027 103.161311,27.8289514 103.150384,27.9035583 C103.127548,28.0902211 103.060589,28.2686525 102.955122,28.4238933 C102.566025,28.9442284 101.784979,29.1345715 101.102276,28.9021424 C100.490837,28.6964953 100.095088,28.1455523 100.07561,27.4673951 C100.070859,27.3162684 100.07561,27.1651416 100.07561,27.0140149 L100.07751,27.0164062 Z" id="Path" fill="#000000"></path>
                <path d="M96.2604729,28.3496158 C96.4294235,27.8272484 96.5982285,27.3052055 96.7668878,26.7834871 C96.914137,26.3269835 97.0587646,25.8690198 97.2068877,25.4125162 C97.2942759,25.1370566 97.427543,25.0382611 97.6001348,25.1098027 C97.7613661,25.1769642 97.806371,25.3643351 97.7181089,25.6300611 C97.3976853,26.5930339 97.0758053,27.5558445 96.7524688,28.5184929 C96.6650805,28.7837322 96.5252593,28.9925169 96.2390628,28.9998171 C96.0057362,29.0056572 95.8458157,28.8713342 95.7680401,28.6411357 C95.4106222,27.5981855 95.0606323,26.5523152 94.7084576,25.5074183 C94.6468489,25.3234542 94.7001557,25.1842644 94.8565807,25.1083427 C95.0130057,25.032421 95.1541377,25.1171029 95.226233,25.3370812 C95.5106818,26.2033674 95.7890133,27.0716003 96.0704035,27.9388598 C96.1140976,28.0751296 96.1617242,28.210426 96.20804,28.3457223 L96.2604729,28.3496158 Z" id="Path" fill="#000000"></path>
                <path d="M50.4840534,25.7351305 C50.4840534,26.4904174 50.4681033,27.2083522 50.490079,27.9238616 C50.5031935,28.3439505 50.7257856,28.5103368 51.0525847,28.4089527 C51.1500574,28.378392 51.2468211,28.2993221 51.3411038,28.3075687 C51.4240441,28.314845 51.5484547,28.3914894 51.5704303,28.4778357 C51.592406,28.5641819 51.539948,28.7785921 51.4807555,28.8135187 C51.136234,29.0187122 50.7757624,29.0885654 50.4230887,28.84699 C50.1661154,28.6704168 50.050566,28.3415251 50.0459582,27.9714005 C50.0317803,26.8493848 50.0367426,25.726884 50.037097,24.6048683 C50.037097,24.4151977 50.112594,24.2953802 50.2547268,24.2972973 C50.3968597,24.2992609 50.4673944,24.4161678 50.4741289,24.6063235 C50.4741289,24.6305781 50.4741289,24.6548327 50.4741289,24.6790872 C50.4826356,25.1991049 50.4826356,25.1986198 50.8728806,25.1991049 C51.0086334,25.1991049 51.1443863,25.1961943 51.2801391,25.1991049 C51.4041952,25.2034707 51.4853633,25.2888467 51.4842999,25.4649348 C51.4832366,25.6410229 51.4002963,25.7259138 51.2783668,25.7327051 C51.1486396,25.7394964 51.0189124,25.7327051 50.8884763,25.7351305 L50.4840534,25.7351305 Z" id="Path" fill="#000000"></path>
                <path d="M81.2686546,25.7385356 C81.2686546,26.4858996 81.2569702,27.1872198 81.2732575,27.8875707 C81.2831715,28.3261988 81.5136721,28.5176442 81.8503941,28.407139 C81.9477637,28.3756353 82.0415927,28.3252294 82.1393164,28.2971185 C82.2533274,28.2646455 82.3542378,28.3291068 82.3659221,28.4846865 C82.3737117,28.5898603 82.3344098,28.7682195 82.2784665,28.8045699 C81.9420986,29.0221876 81.5869649,29.0818023 81.2389126,28.8607919 C80.9202482,28.6577144 80.8324385,28.2539827 80.82996,27.8139006 C80.8242949,26.7650706 80.82996,25.7162407 80.8274815,24.6674107 C80.8274815,24.4677259 80.8717405,24.3126309 81.0399244,24.2980907 C81.181553,24.2854892 81.2647598,24.4236207 81.2686546,24.6678954 C81.2711331,24.8210517 81.2714872,24.974208 81.2743197,25.1273643 C81.2743197,25.1414198 81.2838797,25.1549906 81.3008751,25.2015191 C81.5345623,25.2015191 81.780996,25.1903717 82.0263676,25.2078198 C82.1042633,25.2131512 82.2034033,25.2664651 82.2497867,25.3454667 C82.3464482,25.5175252 82.2324372,25.7332042 82.0465497,25.7370815 C81.7930345,25.7462903 81.5412896,25.7385356 81.2686546,25.7385356 Z" id="Path" fill="#000000"></path>
                <path d="M71.5908908,27.3993217 C71.5908908,27.0043873 71.5887246,26.6089683 71.5908908,26.2135494 C71.5959451,25.5142974 71.8970393,25.0931956 72.4161921,25.0810811 C72.5956992,25.0845518 72.7746243,25.1093625 72.9508689,25.1552221 C73.071451,25.1818742 73.1450999,25.2928434 73.1266877,25.4663238 C73.1068314,25.6490113 73.0144092,25.7250906 72.8811912,25.7086149 C72.7797434,25.6960157 72.6793787,25.6664562 72.5779309,25.6601566 C72.1981335,25.6310817 72.0450592,25.8195841 72.042171,26.3308182 C72.0381998,27.0489688 72.042171,27.7671195 72.042171,28.4852701 C72.042171,28.5414816 72.042171,28.5981777 72.042171,28.6548738 C72.0353116,28.8874732 71.9555252,29.0095879 71.8096714,28.9994117 C71.6511818,28.9887509 71.5930569,28.854037 71.5930569,28.6602042 C71.5890857,28.2386178 71.5912518,27.8189698 71.5908908,27.3993217 Z" id="Path" fill="#000000"></path>
                <path d="M92.8164397,27.4832519 C92.8164397,27.8714059 92.8164397,28.2595599 92.8164397,28.6477139 C92.8164397,28.8835174 92.7363747,29.0023896 92.5908019,29 C92.4452292,28.9975376 92.3757182,28.8844878 92.3757182,28.63801 C92.3757182,27.8063901 92.3720789,26.9747702 92.3757182,26.1431503 C92.3789936,25.5250151 92.6774177,25.1053236 93.1399751,25.0815492 C93.3329799,25.0776929 93.5258379,25.0976711 93.7160793,25.1412278 C93.8485505,25.1679134 93.936986,25.2804781 93.9082353,25.4808626 C93.8813044,25.6705728 93.7790395,25.7195773 93.6502076,25.7025955 C93.535933,25.6875546 93.4223863,25.6540763 93.3081117,25.6540763 C92.9711107,25.6438872 92.8233544,25.8360235 92.8160758,26.2974415 C92.8117086,26.691903 92.8164397,27.08782 92.8164397,27.4832519 Z" id="Path" fill="#000000"></path>
                <path d="M99.3016188,27.0557051 C99.3016188,27.5696953 99.3016188,28.0846655 99.3016188,28.5971858 C99.3016188,28.8754951 99.1753838,29.0028902 98.9144171,28.9999503 C98.6716575,28.9970104 98.5363189,28.8686353 98.535712,28.6079654 C98.5312615,27.5626723 98.5312615,26.5186858 98.535712,25.4760059 C98.535712,25.2202357 98.6783334,25.084021 98.9125964,25.0810811 C99.1608182,25.0810811 99.3010119,25.2236656 99.3016188,25.4882554 C99.3028326,26.0095954 99.3016188,26.5338752 99.3016188,27.0557051 Z" id="Path" fill="#000000"></path>
                <path d="M98.9193261,24.2972973 C98.8156866,24.2977277 98.7162424,24.2561647 98.6434439,24.1819882 C98.5706454,24.1078118 98.5306303,24.0072757 98.5324324,23.903077 C98.5310098,23.6893624 98.7021522,23.5149529 98.9146895,23.5135135 C99.1272269,23.5120919 99.3006757,23.6841822 99.3020983,23.8978968 C99.3058326,24.114374 99.1346016,24.293042 98.9193261,24.2972973 Z" id="Path" fill="#000000"></path>
            </g>
        </g>
    </g>
</svg>