<svg id="Celebration_Lawn" data-name="Celebration Lawn" xmlns="http://www.w3.org/2000/svg" width="40.255" height="40" viewBox="0 0 40.255 40">
  <path id="Path_1333" data-name="Path 1333" d="M20.376,26.174h1.982a1.01,1.01,0,0,0,.861-.5.994.994,0,0,0,0-1l-5.345-9.309h1.1a1.01,1.01,0,0,0,.861-.5.994.994,0,0,0,0-1L14.89,5.293a1.008,1.008,0,0,0-1.742,0L8.184,13.862a1,1,0,0,0,.881,1.5h1.081L4.78,24.653a.994.994,0,0,0,0,1,1.01,1.01,0,0,0,.861.5h2l-5.566,9.63a.994.994,0,0,0,0,1,1.01,1.01,0,0,0,.861.5h7.087v3.7a.991.991,0,0,0,1,1h5.926a.991.991,0,0,0,1-1v-3.7h7.107a1.01,1.01,0,0,0,.861-.5.994.994,0,0,0,0-1ZM14.01,7.8l3.223,5.586H10.786Zm-1.542,7.568h3.1l5.085,8.789H7.383Zm3.5,24.645H12.048v-2.7h3.924Zm1-4.7H4.68l5.265-9.129h8.128L23.339,35.3ZM42.2,16.244c0-7.988-3.724-14.234-8.488-14.234s-8.488,6.246-8.488,14.234c0,7.407,3.223,13.333,7.487,14.134V41.009a1,1,0,1,0,2,0V30.378C38.995,29.578,42.2,23.652,42.2,16.244ZM34.71,28.316V14.362a1,1,0,1,0-2,0V28.316c-3.063-.941-5.485-6.086-5.485-12.072,0-6.627,2.983-12.232,6.486-12.232S40.2,9.618,40.2,16.244C40.2,22.23,37.773,27.375,34.71,28.316Z" transform="translate(-1.943 -2.01)" fill="#404040"/>
</svg>
