<svg id="Gymnasium" xmlns="http://www.w3.org/2000/svg" width="47.888" height="40" viewBox="0 0 47.888 40">
  <path id="Path_1334" data-name="Path 1334" d="M49.227,18.735,41.42,5.355a3.535,3.535,0,0,0-4.844-1.27,3.338,3.338,0,0,0-.964.847,3.4,3.4,0,0,0-1.9-1.364,3.558,3.558,0,0,0-2.681.353A3.475,3.475,0,0,0,29.38,6.084a3.519,3.519,0,0,0,.376,2.7l3.457,5.949L14.518,25.625l-3.457-5.949A3.474,3.474,0,0,0,8.9,18.03a3.519,3.519,0,0,0-4.139,4.844,3.529,3.529,0,0,0-1.176.423,3.525,3.525,0,0,0-1.27,4.844l7.807,13.38a3.563,3.563,0,0,0,4.844,1.293h0a3.379,3.379,0,0,0,.964-.847,3.515,3.515,0,0,0,1.9,1.364,4.085,4.085,0,0,0,.917.118,3.556,3.556,0,0,0,3.057-5.338L17.763,31.2,36.458,20.311l4.021,6.914a3.542,3.542,0,0,0,4.868,1.27,3.475,3.475,0,0,0,1.646-2.163,3.512,3.512,0,0,0-.212-2.352,4,4,0,0,0,1.2-.4h0A3.57,3.57,0,0,0,49.227,18.735ZM14.306,40.04a1.249,1.249,0,0,1-.564.729,1.221,1.221,0,0,1-1.646-.423L4.289,26.966a1.092,1.092,0,0,1-.118-.894,1.249,1.249,0,0,1,.564-.729,1.387,1.387,0,0,1,.588-.165.694.694,0,0,1,.306.047,1.249,1.249,0,0,1,.729.564l7.807,13.38A1.021,1.021,0,0,1,14.306,40.04Zm5.009.87a1.092,1.092,0,0,1-.894.118,1.249,1.249,0,0,1-.729-.564L6.946,22.051A1.221,1.221,0,0,1,7.369,20.4a1.117,1.117,0,0,1,.588-.165,1.2,1.2,0,0,1,1.035.588L19.715,39.264A1.164,1.164,0,0,1,19.315,40.91ZM16.587,29.153l-.894-1.529L34.389,16.736l.894,1.529Zm28.1-3.41a1.249,1.249,0,0,1-.564.729h0a1.221,1.221,0,0,1-1.646-.423l-4.609-7.925h0L35.8,14.573h0L31.755,7.612a1.134,1.134,0,0,1-.118-.917,1.249,1.249,0,0,1,.564-.729A1.117,1.117,0,0,1,32.79,5.8a1.232,1.232,0,0,1,1.035.588l5.362,9.218,3.9,6.7h0l1.481,2.516A1.146,1.146,0,0,1,44.688,25.743Zm2.634-4.915a1.249,1.249,0,0,1-.564.729,1.221,1.221,0,0,1-1.646-.423l-3.9-6.7-3.9-6.7a1.092,1.092,0,0,1-.118-.894,1.249,1.249,0,0,1,.564-.729,1.117,1.117,0,0,1,.588-.165,1.232,1.232,0,0,1,1.035.588l7.807,13.38A1.26,1.26,0,0,1,47.322,20.828Z" transform="translate(-1.82 -3.45)" fill="#404040"/>
</svg>
