<svg id="Indoor_Games" data-name="Indoor Games" xmlns="http://www.w3.org/2000/svg" width="34.872" height="40" viewBox="0 0 34.872 40">
  <path id="Path_1336" data-name="Path 1336" d="M37.142,16.669a13.959,13.959,0,0,0-25.752-7.51A6.376,6.376,0,0,0,8.8,8.614a6.512,6.512,0,1,0,0,13.023,7.506,7.506,0,0,0,1.248-.113,14.732,14.732,0,0,0,2.473,4.265c0,.023.023.023.045.023.023.023.023.023.023.045l6.6,6.534v9.144A1.123,1.123,0,0,0,20.33,42.67H25.98a1.123,1.123,0,0,0,1.134-1.134V32.392l6.6-6.534c.023,0,.023-.023.023-.045.023-.023.023-.023.045-.023A14.106,14.106,0,0,0,37.142,16.669Zm-32.6-1.543a4.254,4.254,0,1,1,5.808,3.948,4.053,4.053,0,0,1-1.543.295A4.256,4.256,0,0,1,4.539,15.126Zm7.691,5.513a6.226,6.226,0,0,0,1.134-.908L13.5,19.6a5.987,5.987,0,0,0,.862-1.134c.045-.068.091-.159.136-.227a6.9,6.9,0,0,0,.545-1.339.806.806,0,0,0,.045-.227,6.839,6.839,0,0,0,.2-1.543,6.4,6.4,0,0,0-.182-1.475A3.316,3.316,0,0,0,15,13.2c-.113-.318-.227-.635-.363-.953-.091-.159-.182-.295-.272-.454a5.935,5.935,0,0,0-.545-.771l-.34-.408c-.068-.068-.136-.159-.2-.227a11.708,11.708,0,0,1,21.6,6.285,11.809,11.809,0,0,1-2.5,7.238H13.932a11.687,11.687,0,0,1-1.77-3.2ZM24.845,35.568H21.465V26.175h3.381Zm-8.69-9.393H19.2v3.018Zm5.309,14.2V37.815h3.381v2.564Zm5.649-14.2h3.04l-3.04,3.018Z" transform="translate(-2.27 -2.67)" fill="#404040"/>
</svg>
