<svg id="Group_364" data-name="Group 364" xmlns="http://www.w3.org/2000/svg" width="32" height="32" viewBox="0 0 32 32">
  <path id="Path_367" data-name="Path 367" d="M178.5,213.737h0a16,16,0,0,1-16-16h0a16,16,0,0,1,16-16h0a16,16,0,0,1,16,16h0A16,16,0,0,1,178.5,213.737Z" transform="translate(-162.5 -181.737)" fill="none" opacity="0.6"/>
  <g id="Group_363" data-name="Group 363" transform="translate(8.427 7.085)">
    <g id="Group_1003" data-name="Group 1003">
      <g id="Group_362" data-name="Group 362">
        <rect id="Rectangle_144" data-name="Rectangle 144" width="3.311" height="10.698" transform="translate(0.318 5.349)" fill="#fff"/>
        <path id="Path_368" data-name="Path 368" d="M183.346,201.565a1.974,1.974,0,1,0-1.958-1.974A1.966,1.966,0,0,0,183.346,201.565Z" transform="translate(-181.388 -197.617)" fill="#fff"/>
      </g>
      <path id="Path_369" data-name="Path 369" d="M197.444,214.283c0-1.5.692-2.4,2.018-2.4,1.217,0,1.8.86,1.8,2.4V219.9h3.3v-6.773c0-2.865-1.624-4.251-3.893-4.251a3.73,3.73,0,0,0-3.224,1.768V209.2h-3.176v10.7h3.176Z" transform="translate(-188.522 -203.852)" fill="#fff"/>
    </g>
  </g>
</svg>
