<svg id="Multipurpose_Court" data-name="Multipurpose Court" xmlns="http://www.w3.org/2000/svg" width="39.854" height="40" viewBox="0 0 39.854 40">
  <path id="Path_1329" data-name="Path 1329" d="M41.252,40.326H38.334V23.338H39.9A1.032,1.032,0,0,0,40.939,22.3V18.231A1.032,1.032,0,0,0,39.9,17.189H38.292A15.786,15.786,0,0,0,13.946,4.953c-.021-.021-.042,0-.083,0a.045.045,0,0,1-.042.042A15.809,15.809,0,0,0,6.734,17.189h-1.9a1.032,1.032,0,0,0-1.042,1.042V22.3a1.032,1.032,0,0,0,1.042,1.042H6.692V40.326H3.482a1.042,1.042,0,1,0,0,2.084h37.77a1.042,1.042,0,1,0,0-2.084ZM36.228,17.189h-11.8l6.357-9.922A13.754,13.754,0,0,1,36.228,17.189ZM22.513,4.474a13.688,13.688,0,0,1,6.5,1.647L22.43,16.4,15.905,6.183A13.611,13.611,0,0,1,22.513,4.474ZM14.154,7.329l6.316,9.859H8.8A13.724,13.724,0,0,1,14.154,7.329ZM5.879,19.273h33v1.98h-33Zm2.876,4.065H21.512a.617.617,0,0,0-.042.208v16.78H8.756Zm14.8,16.988V23.546a.741.741,0,0,0-.042-.208H36.27V40.326H23.555Zm4.294-10.4v3.794a1.042,1.042,0,1,1-2.084,0V29.924a1.032,1.032,0,0,1,1.042-1.042A1.045,1.045,0,0,1,27.849,29.924Zm-8.609,0v3.794a1.042,1.042,0,0,1-2.084,0V29.924A1.032,1.032,0,0,1,18.2,28.882,1.045,1.045,0,0,1,19.24,29.924Z" transform="translate(-2.44 -2.41)" fill="#404040"/>
</svg>
