<svg xmlns="http://www.w3.org/2000/svg" width="44.419" height="47.093" viewBox="0 0 44.419 47.093">
  <g id="Pet_Park" data-name="Pet Park" transform="translate(1.004 1.41)">
    <path id="Path_1340" data-name="Path 1340" d="M199.691,132.475l-5.566,2.977a1.913,1.913,0,0,0,.164,3.454,1.9,1.9,0,0,0,1.649-.079l6.271-3.35.007,0,.347-.192.007,0" transform="translate(-172.239 -116.932)" fill="none" stroke="#404040" stroke-linecap="round" stroke-linejoin="round" stroke-width="2"/>
    <path id="Path_1341" data-name="Path 1341" d="M280.255,117.423l-2.227,4.48-.007,0" transform="translate(-247.698 -103.555)" fill="none" stroke="#404040" stroke-linecap="round" stroke-linejoin="round" stroke-width="2"/>
    <line id="Line_156" data-name="Line 156" y1="3.226" x2="1.601" transform="translate(27.452 12.316)" fill="none" stroke="#404040" stroke-linecap="round" stroke-linejoin="round" stroke-width="2"/>
    <path id="Path_1342" data-name="Path 1342" d="M247.178,67.119c-1.9-2.818-.968-6.038.982-6.937a3.45,3.45,0,0,1,3.088-.069c1.13.643,7.286,9.178,9.549,12.348a4.811,4.811,0,0,1,.828,3.97,4.311,4.311,0,0,1-.771,1.582,18.157,18.157,0,0,1-2.036,1.787l-.006,1.152.006,1.519V94.746a2.227,2.227,0,0,1-.871,1.78,2.25,2.25,0,0,1-3.629-1.843V83.435c.056-1.351-.12-5.57-.12-5.57s-1.584-2.583-3.394-6.314" transform="translate(-219.364 -52.323)" fill="none" stroke="#404040" stroke-linecap="round" stroke-linejoin="round" stroke-width="2"/>
    <path id="Path_1343" data-name="Path 1343" d="M355.8,241.477V256.23a2.254,2.254,0,0,1-2.723,2.2,1.53,1.53,0,0,1-.857-.42" transform="translate(-313.641 -213.806)" fill="none" stroke="#404040" stroke-linecap="round" stroke-linejoin="round" stroke-width="2"/>
    <ellipse id="Ellipse_3" data-name="Ellipse 3" cx="3.449" cy="3.449" rx="3.449" ry="3.449" transform="translate(19.173 4.499) rotate(-40.703)" fill="none" stroke="#404040" stroke-linecap="round" stroke-linejoin="round" stroke-width="2"/>
    <path id="Path_1344" data-name="Path 1344" d="M126.4,175.768a1.294,1.294,0,0,1,1.164-.408c.746.111,1.99.815,2.6.426s1.717-3.81,2.307-3.956c.373-.027,1.792-1.687,1.191-2.109a2.144,2.144,0,0,0-2.2.432,12.729,12.729,0,0,0-2.039,3.03c-.328.333-1.436-1.092-1.436-1.092-.343-1.609-1.771-1.663-1.588-2.961" transform="translate(-112.93 -149.509)" fill="none" stroke="#404040" stroke-linecap="round" stroke-linejoin="round" stroke-width="2"/>
    <path id="Path_1345" data-name="Path 1345" d="M10.253,239.95c-1.92-.865-3.289-3.106-1.08-6.175,0,0-3.7.149-2.926,4.433-1.326-.207-.848,2.4,1.123,3.015-.813.325.534,2.091,3.5.545a6.628,6.628,0,0,1,1.565,2.475c.362,1.3-.326,2.129-.452,2.8s2.028,4.59,2.338,4.59h2.14a.419.419,0,0,0,.412-.44,1.336,1.336,0,0,0-.976-1.147l-.432-.125s-1-1.806-.845-2.465,2.22-3.085,2.962-4.91-.638-4.074-.638-4.074" transform="translate(-5.5 -206.961)" fill="none" stroke="#404040" stroke-linecap="round" stroke-linejoin="round" stroke-width="2"/>
    <path id="Path_1346" data-name="Path 1346" d="M55.8,134.059a3.776,3.776,0,0,0,1.361-.39,2.692,2.692,0,0,0,1.1-.988l.092-.181.888-.687a2.056,2.056,0,0,0,.811-1.863c-.072-.57-.345-.968-.687-.823,0,0-1.426.5-1.847.594s-1.225-.374-1.618-.5c-.8-.076-2.855,1.365-2.855,1.365a3.38,3.38,0,0,1-2.024-.374c-1.337-.125-.237,2.084,1.305,2.462a13.653,13.653,0,0,0,.37,2.373c.032.117,1.245,5.163-.755,6.646-1.47,1.171-3.227,2.659-3.227,5.079" transform="translate(-43.909 -113.932)" fill="none" stroke="#404040" stroke-linecap="round" stroke-linejoin="round" stroke-width="2"/>
    <path id="Path_1347" data-name="Path 1347" d="M116.805,239.323c-.241,2.372-2.144,3.174-2.709,5.57" transform="translate(-102.013 -211.893)" fill="none" stroke="#404040" stroke-linecap="round" stroke-linejoin="round" stroke-width="2"/>
  </g>
</svg>
