<svg xmlns="http://www.w3.org/2000/svg" width="44" height="44" viewBox="0 0 44 44">
  <g id="Play_Button" data-name="Play Button" transform="translate(0.089 0.089)">
    <g id="Ellipse_68" data-name="Ellipse 68" transform="translate(-0.089 -0.089)" fill="rgba(0,0,0,0.51)" stroke="#fff" stroke-width="1">
      <circle cx="22" cy="22" r="22" stroke="none"/>
      <circle cx="22" cy="22" r="21.5" fill="none"/>
    </g>
    <g id="Polygon_7" data-name="Polygon 7" transform="translate(32.911 13.911) rotate(90)" fill="#fff">
      <path d="M 12.76392936706543 15.49999523162842 L 3.236069440841675 15.49999523162842 C 2.712399482727051 15.49999523162842 2.235399484634399 15.23404502868652 1.960089564323425 14.7885856628418 C 1.684779524803162 14.34313583374023 1.660229563713074 13.79756546020508 1.894419550895691 13.32918548583984 L 6.658359527587891 3.801315546035767 C 6.917959690093994 3.282105445861816 7.419509410858154 2.972135543823242 7.999999523162842 2.972135543823242 C 8.580489158630371 2.972135543823242 9.082039833068848 3.282105445861816 9.341639518737793 3.801315546035767 L 14.1055793762207 13.32918548583984 C 14.33976936340332 13.79756546020508 14.31521987915039 14.34313583374023 14.03990936279297 14.78859519958496 C 13.76459980010986 15.23404502868652 13.28759956359863 15.49999523162842 12.76392936706543 15.49999523162842 Z" stroke="none"/>
      <path d="M 7.99998950958252 3.472135543823242 C 7.61299991607666 3.472135543823242 7.278629302978516 3.67878532409668 7.105569839477539 4.02491569519043 L 2.341639518737793 13.55278587341309 C 2.116599082946777 14.00286483764648 2.297279357910156 14.38312530517578 2.385409355163574 14.52572536468506 C 2.473539352416992 14.66832542419434 2.73284912109375 14.99999523162842 3.236069679260254 14.99999523162842 L 12.76392936706543 14.99999523162842 C 13.26714897155762 14.99999523162842 13.52645969390869 14.66832542419434 13.61458969116211 14.52572536468506 C 13.70271968841553 14.38312530517578 13.88339996337891 14.00286483764648 13.65835952758789 13.55278587341309 L 8.894430160522461 4.024925231933594 C 8.721349716186523 3.67878532409668 8.386989593505859 3.472135543823242 7.99998950958252 3.472135543823242 M 7.999994277954102 2.472138404846191 C 8.710159301757812 2.472138404846191 9.420324325561523 2.840660095214844 9.788848876953125 3.577705383300781 L 14.55278968811035 13.10557556152344 C 15.21768951416016 14.43537521362305 14.25069999694824 15.99999523162842 12.76392936706543 15.99999523162842 L 3.236069679260254 15.99999523162842 C 1.749299049377441 15.99999523162842 0.7823095321655273 14.43537521362305 1.447209358215332 13.10557556152344 L 6.211139678955078 3.577705383300781 C 6.57966423034668 2.840660095214844 7.289829254150391 2.472138404846191 7.999994277954102 2.472138404846191 Z" stroke="none" fill="#fff"/>
    </g>
  </g>
</svg>
