<svg id="Group_1168" data-name="Group 1168" xmlns="http://www.w3.org/2000/svg" width="32" height="32" viewBox="0 0 32 32">
  <path id="Exclusion_1" data-name="Exclusion 1" d="M11.731,16.082a50.931,50.931,0,0,1-8.064-.4,3.821,3.821,0,0,1-3.422-3.7c-.006-.08-.019-.193-.035-.337A32.587,32.587,0,0,1,0,7.854,32.313,32.313,0,0,1,.21,4.52c.017-.158.03-.28.036-.357A3.9,3.9,0,0,1,3.668.464,43.05,43.05,0,0,1,11.731,0a47.931,47.931,0,0,1,8.041.464,3.758,3.758,0,0,1,3.423,3.7c.006.086.021.215.039.379a29.906,29.906,0,0,1,.206,3.511,29.793,29.793,0,0,1-.217,3.683c-.012.1-.022.186-.028.249a3.942,3.942,0,0,1-3.423,3.7A50.165,50.165,0,0,1,11.731,16.082ZM10.123,4.718V11.15l5.152-3.217Z" transform="translate(4 8)" fill="#fff" stroke="rgba(0,0,0,0)" stroke-width="1"/>
  <rect id="Rectangle_591" data-name="Rectangle 591" width="32" height="32" fill="none"/>
</svg>
