<?xml version="1.0" encoding="utf-8"?>
<!-- Generator: Adobe Illustrator 25.4.1, SVG Export Plug-In . SVG Version: 6.00 Build 0)  -->
<svg version="1.1" id="Layer_1" xmlns="http://www.w3.org/2000/svg" xmlns:xlink="http://www.w3.org/1999/xlink" x="0px" y="0px"
	 viewBox="0 0 49 37.8" style="enable-background:new 0 0 49 37.8;" xml:space="preserve">
<style type="text/css">
	.st0{fill:#2F93FF;}
	.st1{fill:none;}
	.st2{clip-path:url(#SVGID_00000164501363097500907040000018446072748592873896_);}
</style>
<g id="Group_18875" transform="translate(-740 -2431)">
	<g id="Group_18857" transform="translate(740.866 2421.761)">
		<g id="Path_4689">
			<path class="st0" d="M1.5,47.1c-0.6,0.1-1.1-0.2-1.4-0.7c-0.1-0.3-0.1-0.6,0.2-0.9c0.3-0.3,0.6-0.4,1-0.4h45.4
				c0.6-0.1,1.2,0.3,1.3,0.9c0,0.6-0.4,1-1.1,1.1c-0.1,0-0.3,0-0.4,0L1.5,47.1L1.5,47.1z"/>
		</g>
		<g id="Rectangle_3842" transform="translate(-0.866 9.239)">
			<g>
				<path class="st1" d="M5,0h39c2.8,0,5,2.2,5,5v23c0,2.8-2.2,5-5,5H5c-2.8,0-5-2.2-5-5V5C0,2.2,2.2,0,5,0z"/>
			</g>
			<g>
				<path class="st0" d="M44,33H5c-2.8,0-5-2.2-5-5V5c0-2.8,2.2-5,5-5h39c2.8,0,5,2.2,5,5v23C49,30.8,46.8,33,44,33z M5,2
					C3.3,2,2,3.3,2,5v23c0,1.7,1.3,3,3,3h39c1.7,0,3-1.3,3-3V5c0-1.7-1.3-3-3-3H5z"/>
			</g>
		</g>
	</g>
	<g id="Group_18863" transform="translate(753.38 2436.125)">
		<g>
			<defs>
				<rect id="SVGID_1_" x="0" width="22.2" height="22.3"/>
			</defs>
			<clipPath id="SVGID_00000065049207917935799040000011944903496668565928_">
				<use xlink:href="#SVGID_1_"  style="overflow:visible;"/>
			</clipPath>
			<g id="Group_18862" style="clip-path:url(#SVGID_00000065049207917935799040000011944903496668565928_);">
				<g id="Path_9196">
					<path class="st0" d="M11.5,13.3c0,0.3,0,0.6,0,0.8c0,0.2,0.1,0.2,0.2,0.2c0.4,0,0.8,0,1.2,0c0.1,0,0.2-0.1,0.2-0.2
						c0.3-0.5,0.9-0.7,1.5-0.4c0.3,0.2,0.5,0.5,0.5,0.8c0,0.5-0.2,0.9-0.7,1.1c-0.5,0.2-1,0-1.3-0.4c-0.1-0.1-0.2-0.2-0.4-0.2
						c-0.3,0-0.7,0-1,0c-0.2,0-0.3,0.1-0.3,0.3c0,0.5,0,1.1,0,1.6c0,0.2,0.1,0.3,0.3,0.3c0.3,0,0.6,0,0.9,0c0.2,0,0.3-0.1,0.4-0.2
						c0.2-0.4,0.7-0.6,1.1-0.5c0.5,0.1,0.8,0.5,0.8,1c0,0.5-0.3,0.9-0.7,1.1c-0.5,0.1-1-0.1-1.2-0.5C13,18,12.9,18,12.8,18
						c-0.3,0-0.7,0-1,0c-0.2,0-0.3,0.1-0.3,0.3c0,0,0,0,0,0c0,0.4,0,0.4-0.4,0.4c-0.3,0-0.3,0-0.3,0.3c0,0.3,0,0.7,0,1
						c0,0.1,0.1,0.3,0.2,0.3c0.4,0.2,0.6,0.8,0.5,1.2c-0.1,0.4-0.6,0.7-1,0.8c-0.5,0-0.9-0.3-1-0.8c-0.1-0.5,0-1,0.5-1.2
						c0.1-0.1,0.2-0.2,0.2-0.4c0-0.3,0-0.7,0-1c0-0.2-0.1-0.3-0.3-0.3c-0.5,0-1.1,0-1.6,0c-0.2,0-0.3,0.1-0.3,0.3c0,0.4,0,0.7,0,1.1
						c0,0.1,0.1,0.2,0.2,0.3c0.5,0.3,0.7,1,0.4,1.5c-0.2,0.4-0.6,0.6-1.1,0.5c-0.4-0.1-0.8-0.4-0.9-0.8C6.4,21,6.6,20.5,7,20.3
						c0.1-0.1,0.2-0.2,0.2-0.3c0-0.3,0-0.7,0-1c0-0.2-0.1-0.3-0.3-0.3c-0.5,0-1.1,0-1.6,0c-0.2,0-0.3,0.1-0.3,0.3c0,0.3,0,0.7,0,1
						c0,0.2,0.1,0.3,0.2,0.4c0.4,0.3,0.6,0.8,0.5,1.3c-0.1,0.4-0.5,0.7-1,0.7c-0.5,0-0.9-0.3-1.1-0.7c-0.2-0.5,0-1,0.4-1.3
						c0.1-0.1,0.2-0.2,0.2-0.4c0-0.3,0-0.6,0-1c0-0.2-0.1-0.3-0.3-0.3c-0.5,0-0.4,0-0.4-0.4C3.6,18,3.5,18,3.3,18c-0.3,0-0.7,0-1,0
						C2.2,17.9,2,18,2,18.1c-0.2,0.5-0.8,0.7-1.3,0.5c-0.5-0.2-0.8-0.7-0.7-1.2c0.1-0.4,0.4-0.8,0.8-0.8c0.4-0.1,0.8,0,1,0.4
						c0.1,0.2,0.4,0.4,0.7,0.3c0.2,0,0.5,0,0.7,0c0.2,0,0.3-0.1,0.3-0.3c0-0.5,0-1.1,0-1.6c0-0.1-0.1-0.2-0.2-0.3c0,0,0,0-0.1,0
						c-0.3,0-0.7,0-1,0c-0.2,0-0.3,0.2-0.4,0.3c-0.3,0.5-1,0.6-1.4,0.2c-0.1,0-0.1-0.1-0.2-0.2c-0.4-0.4-0.4-1.1,0.1-1.5
						c0,0,0.1,0,0.1-0.1c0.5-0.3,1.1-0.2,1.5,0.3c0,0,0,0,0,0.1c0.1,0.1,0.2,0.2,0.4,0.2c0.3,0,0.7,0,1,0c0.2,0,0.3-0.1,0.3-0.3
						c0-0.5,0-1.1,0-1.6c0-0.2-0.1-0.3-0.3-0.3c-0.3,0-0.7,0-1,0c-0.1,0-0.3,0.1-0.3,0.2c-0.2,0.4-0.6,0.6-1,0.5
						c-0.4,0-0.7-0.3-0.9-0.7c-0.2-0.3-0.1-0.7,0.1-1c0.2-0.3,0.6-0.5,1-0.4c0.3,0,0.6,0.2,0.8,0.5c0.1,0.1,0.2,0.1,0.3,0.2
						c0.4,0,0.7,0,1.1,0c0.1,0,0.2-0.1,0.2-0.2c0,0,0,0,0-0.1c0,0,0,0,0,0c0-0.4,0-0.5,0.5-0.5c0.2,0,0.2-0.1,0.2-0.3
						c0-0.3,0-0.7,0-1c0-0.1-0.1-0.3-0.2-0.3C3.6,8.9,3.5,8.3,3.7,7.8s0.9-0.7,1.4-0.4c0.2,0.1,0.3,0.2,0.4,0.4
						c0.3,0.4,0.2,1-0.3,1.4C5.1,9.2,5,9.5,5,9.8c0,0.3,0,0.5,0,0.8c0,0.2,0.1,0.3,0.2,0.3H7c0.1,0,0.2-0.1,0.2-0.2c0,0,0,0,0,0
						c0-0.4,0-0.8,0-1.2c0-0.1-0.1-0.2-0.2-0.2C6.7,9,6.4,8.6,6.5,8.2c0-0.5,0.4-0.9,0.8-1c0.5-0.1,1,0.1,1.2,0.6
						c0.2,0.4,0.1,1-0.3,1.2C8,9.2,7.8,9.5,7.9,9.7c0,0.3,0,0.5,0,0.8c0,0.2,0.1,0.3,0.2,0.2c0.6,0,1.1,0,1.7,0
						c0.2,0,0.3-0.1,0.3-0.3c0-0.3,0-0.6,0-1c0-0.2-0.1-0.3-0.2-0.4C9.4,8.9,9.2,8.3,9.5,7.7C9.6,7.6,9.7,7.4,10,7.3
						c0.5-0.2,1.2,0,1.4,0.5c0,0.1,0.1,0.1,0.1,0.2c0.1,0.5-0.1,0.9-0.5,1.2c-0.1,0.1-0.1,0.1-0.2,0.2c0,0.4,0,0.7,0,1.1
						c0,0.2,0.1,0.2,0.2,0.2c0,0,0.1,0,0.1,0c0.4,0,0.4,0,0.4,0.4c0,0.3,0,0.3,0.3,0.3s0.6,0,0.9,0c0.1,0,0.3-0.1,0.3-0.2
						c0.3-0.5,0.8-0.7,1.3-0.5c0.5,0.2,0.8,0.8,0.6,1.4c-0.1,0.3-0.4,0.5-0.7,0.6c-0.5,0.2-1-0.1-1.2-0.5c-0.1-0.1-0.2-0.2-0.3-0.2
						c-0.3,0-0.7,0-1,0c-0.2,0-0.3,0.1-0.3,0.3C11.5,12.7,11.5,13,11.5,13.3 M7.5,11.5L7.5,11.5l-3,0c-0.3,0-0.3,0-0.3,0.3
						c0,2,0,3.9,0,5.9c0,0.3,0,0.3,0.3,0.3h5.8c0.3,0,0.3,0,0.3-0.3c0-1.9,0-3.9,0-5.8c0-0.3,0-0.3-0.3-0.3
						C9.5,11.5,8.5,11.5,7.5,11.5 M7.5,20.8c-0.2,0-0.3,0.2-0.4,0.4c0,0.2,0.2,0.3,0.4,0.4c0.2,0,0.4-0.2,0.4-0.4
						C7.9,21,7.7,20.8,7.5,20.8 M10.8,21.2c0-0.2-0.2-0.4-0.4-0.4c-0.2,0-0.4,0.2-0.3,0.4c0,0.2,0.2,0.3,0.4,0.3
						C10.6,21.6,10.8,21.4,10.8,21.2 M7.9,8.3c0-0.2-0.2-0.3-0.4-0.4c-0.2,0-0.4,0.2-0.4,0.4c0,0.2,0.2,0.3,0.4,0.3
						C7.7,8.6,7.9,8.5,7.9,8.3C7.9,8.3,7.9,8.3,7.9,8.3 M10.8,8.3c0-0.2-0.2-0.4-0.4-0.4c-0.2,0-0.3,0.2-0.3,0.4
						c0,0.2,0.1,0.3,0.3,0.4c0,0,0,0,0,0C10.6,8.6,10.8,8.5,10.8,8.3 M4.7,20.8c-0.2,0-0.4,0.2-0.4,0.4c0,0.2,0.2,0.4,0.4,0.4
						c0.2,0,0.4-0.2,0.4-0.4C5,21,4.9,20.8,4.7,20.8 M1.1,15.1c0.2,0,0.4-0.1,0.4-0.3c0-0.2-0.2-0.4-0.4-0.4c-0.2,0-0.3,0.2-0.4,0.4
						C0.7,14.9,0.9,15.1,1.1,15.1 M14.4,14.7c0-0.2-0.2-0.3-0.4-0.4c-0.2,0-0.4,0.2-0.4,0.4c0,0.2,0.2,0.3,0.4,0.3
						C14.2,15.1,14.4,14.9,14.4,14.7 M4.3,8.3c0,0.2,0.1,0.3,0.3,0.4c0,0,0,0,0,0C4.8,8.6,5,8.5,5,8.3c0,0,0,0,0,0
						c0-0.2-0.1-0.4-0.3-0.4c0,0,0,0,0,0C4.5,7.9,4.3,8.1,4.3,8.3C4.3,8.3,4.3,8.3,4.3,8.3 M14,11.5c-0.2,0-0.3,0.2-0.4,0.4
						c0,0.2,0.2,0.4,0.4,0.4c0.2,0,0.3-0.2,0.4-0.4C14.3,11.7,14.2,11.5,14,11.5 M14,18c0.2,0,0.3-0.2,0.4-0.4
						c0-0.2-0.2-0.4-0.4-0.4c-0.2,0-0.3,0.2-0.4,0.3C13.6,17.8,13.8,18,14,18 M1.4,11.9c0-0.2-0.1-0.4-0.3-0.4
						c-0.2,0-0.4,0.1-0.4,0.3c0,0,0,0,0,0c0,0.2,0.1,0.4,0.3,0.4C1.2,12.2,1.4,12.1,1.4,11.9C1.4,11.9,1.4,11.9,1.4,11.9 M1.1,18
						c0.2,0,0.3-0.2,0.3-0.4c0-0.2-0.2-0.3-0.4-0.3c-0.2,0-0.4,0.2-0.4,0.3C0.7,17.8,0.9,18,1.1,18"/>
				</g>
				<g id="Path_9197">
					<path class="st0" d="M10,3.1c0.3,0.3,0.6,0.6,0.9,0.9C11,4.1,11,4.2,10.9,4.4c-0.4,0.6-0.6,1.2-0.8,1.8c0,0.2-0.1,0.2-0.3,0.2
						c-0.4,0-0.9,0-1.3,0c-0.2,0-0.3-0.1-0.3-0.3c0-0.1,0-0.1,0-0.2c0-0.2,0.1-0.2,0.2-0.2c0.3,0,0.5,0,0.8,0c0.2,0,0.2-0.1,0.3-0.2
						C9.7,5.2,9.9,4.8,10,4.5c0.1-0.1,0.1-0.3-0.1-0.4C9.7,3.8,9.5,3.6,9.2,3.3C9.1,3.3,9.1,3.2,9,3.1c0.2-0.2,0.5-0.4,0.7-0.6
						c0.4-0.4,0.8-0.8,1.2-1.2c0.1-0.1,0.2-0.1,0.4,0c0.2,0.3,0.5,0.5,0.8,0.8c0.1,0.1,0.3,0.2,0.4,0.1c0.4-0.2,0.7-0.3,1.1-0.4
						c0.1,0,0.2-0.2,0.2-0.3c0-0.4,0-0.7,0-1.1C13.6,0,13.7,0,13.9,0c0.8,0,1.5,0,2.3,0c0.2,0,0.3,0.1,0.3,0.3c0,0.4,0,0.7,0,1.1
						c0,0.2,0.1,0.4,0.3,0.4c0.3,0.1,0.7,0.3,1,0.4c0.1,0.1,0.3,0.1,0.4-0.1c0.3-0.3,0.5-0.5,0.8-0.8c0.1-0.1,0.2-0.1,0.3,0
						c0.6,0.6,1.1,1.1,1.7,1.7c0.1,0.1,0.1,0.2,0,0.4c-0.3,0.3-0.5,0.5-0.8,0.8c-0.1,0.1-0.2,0.3-0.1,0.4c0.2,0.3,0.3,0.7,0.4,1.1
						c0,0.1,0.2,0.2,0.3,0.2c0.4,0,0.7,0,1.1,0c0.2,0,0.2,0.1,0.2,0.2c0,0.8,0,1.6,0,2.4c0,0.2-0.1,0.2-0.2,0.2c-0.4,0-0.7,0-1.1,0
						c-0.2,0-0.3,0.1-0.3,0.2c-0.1,0.4-0.3,0.7-0.4,1.1c-0.1,0.1-0.1,0.3,0.1,0.4c0.3,0.3,0.6,0.6,0.8,0.8c0.1,0.1,0.1,0.2,0,0.3
						c-0.6,0.6-1.1,1.1-1.7,1.7c-0.1,0.1-0.2,0.1-0.3,0c-0.3-0.3-0.5-0.5-0.8-0.8c-0.1-0.1-0.2-0.1-0.3-0.1
						c-0.4,0.2-0.7,0.3-1.1,0.5c-0.1,0-0.2,0.1-0.2,0.3c0,0.3,0,0.5,0,0.8c0,0.2-0.1,0.2-0.2,0.2c-0.5,0-0.5,0-0.5-0.5
						c0-0.3,0-0.7,0-1c0-0.2,0.1-0.3,0.3-0.4c0.3-0.1,0.6-0.2,0.9-0.3c0.3-0.1,0.6-0.3,0.9-0.5c0.1-0.1,0.2-0.1,0.3,0c0,0,0,0,0,0
						c0.2,0.3,0.5,0.5,0.7,0.7c0.1,0.1,0.2,0.1,0.3,0c0.2-0.2,0.5-0.5,0.7-0.7c0.1-0.1,0.1-0.2,0-0.3c-0.3-0.2-0.5-0.5-0.7-0.7
						c-0.1-0.1-0.1-0.2,0-0.3c0,0,0,0,0,0c0.4-0.6,0.7-1.2,0.8-1.9c0-0.2,0.1-0.2,0.3-0.2c0.3,0,0.7,0,1,0c0.2,0,0.2-0.1,0.2-0.2
						c0-0.3,0-0.6,0-1c0-0.2-0.1-0.3-0.3-0.3c-0.3,0-0.7,0-1,0c-0.1,0-0.2-0.1-0.2-0.2c0,0,0,0,0,0c-0.1-0.7-0.4-1.3-0.8-1.9
						c-0.1-0.1-0.1-0.3,0-0.4c0,0,0,0,0,0c0.2-0.2,0.4-0.4,0.6-0.6s0.2-0.2,0-0.4c-0.2-0.2-0.4-0.4-0.6-0.6c-0.1-0.1-0.2-0.1-0.4,0
						c-0.2,0.2-0.5,0.5-0.7,0.7C18.2,3.1,18,3.1,17.9,3c0,0,0,0,0,0c-0.6-0.4-1.2-0.6-1.9-0.8c-0.2,0-0.2-0.1-0.2-0.3
						c0-0.3,0-0.6,0-1c0-0.2-0.1-0.3-0.3-0.3c-0.3,0-0.6,0-0.9,0c-0.2,0-0.3,0.1-0.3,0.3c0,0.3,0,0.6,0,1c0,0.2-0.1,0.3-0.2,0.3
						c-0.7,0.1-1.3,0.4-1.8,0.7c-0.2,0.1-0.3,0.1-0.4,0c-0.2-0.2-0.4-0.4-0.6-0.6s-0.2-0.2-0.4,0C10.5,2.6,10.3,2.8,10,3.1"/>
				</g>
				<g id="Path_9198">
					<path class="st0" d="M15.1,3.6c1.5,0,2.8,0.9,3.4,2.3c0.7,1.7,0,3.6-1.6,4.5c-0.4,0.2-0.9,0.4-1.4,0.4c-0.2,0-0.3,0-0.3-0.3
						c0,0,0-0.1,0-0.1c0-0.3,0-0.3,0.3-0.3c1.1-0.1,2-0.8,2.4-1.8c0.5-1.2,0.1-2.6-0.9-3.3c-1.2-1-3.1-0.8-4,0.5c0,0,0,0,0,0
						c-0.3,0.4-0.5,0.9-0.6,1.5c0,0.2-0.1,0.3-0.3,0.3c0,0-0.1,0-0.1,0c-0.3,0-0.3-0.1-0.3-0.3c0.1-1.2,0.8-2.3,1.8-2.8
						C13.9,3.8,14.4,3.6,15.1,3.6"/>
				</g>
			</g>
		</g>
	</g>
</g>
</svg>
