<?xml version="1.0" encoding="utf-8"?>
<!-- Generator: Adobe Illustrator 25.4.1, SVG Export Plug-In . SVG Version: 6.00 Build 0)  -->
<svg version="1.1" id="Layer_1" xmlns="http://www.w3.org/2000/svg" xmlns:xlink="http://www.w3.org/1999/xlink" x="0px" y="0px"
	 viewBox="0 0 46.1 42.5" style="enable-background:new 0 0 46.1 42.5;" xml:space="preserve">
<style type="text/css">
	.st0{clip-path:url(#SVGID_00000059296652197932676920000008250150919901803687_);}
	.st1{fill:#2F93FF;}
</style>
<g id="Group_18782" transform="translate(-1334.197 -2387.027)">
	<g id="Group_18781" transform="translate(1340.486 2395.917)">
		<g>
			<defs>
				<rect id="SVGID_1_" x="0" y="0" width="34.1" height="25.6"/>
			</defs>
			<clipPath id="SVGID_00000142867730803781748290000003890319228831036593_">
				<use xlink:href="#SVGID_1_"  style="overflow:visible;"/>
			</clipPath>
			
				<g id="Group_18780" transform="translate(0 0)" style="clip-path:url(#SVGID_00000142867730803781748290000003890319228831036593_);">
				<g id="Path_9085">
					<path class="st1" d="M16.1,22.4c-5.6-0.3-10.6-3.2-13.8-8.9c-0.3-0.4-0.3-0.9,0-1.3c3.2-5.8,8.2-8.9,14.8-8.9
						c6.6,0,11.5,3.2,14.7,8.9c0.2,0.4,0.2,0.9,0,1.3C28.9,18.9,23.2,22.4,16.1,22.4 M17.1,20.9c5.4,0,10.3-2.9,13-7.6
						c0.3-0.3,0.3-0.8,0-1.1c-3-4.9-7.4-7.5-13.1-7.5c-5.7,0-10.1,2.7-13.1,7.6c-0.2,0.3-0.2,0.7,0,1C6.6,18,11.6,20.9,17.1,20.9"/>
					<path class="st1" d="M16.1,22.6C16.1,22.6,16.1,22.6,16.1,22.6L16.1,22.6c-6-0.3-10.9-3.4-14-9.1c-0.3-0.5-0.3-1.1,0-1.6
						C5.5,6,10.5,3,17,3c0,0,0,0,0.1,0C23.7,3,28.7,6.1,32,12c0.3,0.5,0.3,1.1,0,1.5C29,19.2,23.1,22.6,16.1,22.6z M17,3.5
						c-6.3,0-11.2,2.9-14.5,8.7c-0.2,0.3-0.2,0.7,0,1.1c3,5.5,7.7,8.5,13.6,8.8c6.8,0,12.6-3.3,15.4-8.8c0.2-0.3,0.2-0.7,0-1
						C28.3,6.5,23.5,3.5,17,3.5C17.1,3.5,17.1,3.5,17,3.5z M17.1,21.2l0-0.4L17.1,21.2c-5.5,0-10.7-3-13.4-7.8
						c-0.3-0.4-0.3-0.9,0-1.3C6.8,7,11.3,4.4,17,4.4c0,0,0,0,0,0c5.7,0,10.2,2.6,13.3,7.7c0.3,0.4,0.3,1,0,1.4
						C27.6,18.2,22.5,21.1,17.1,21.2z M17.1,4.9C17,4.9,17,4.9,17.1,4.9c-5.6,0-9.9,2.5-12.9,7.5c-0.2,0.2-0.2,0.5,0,0.7
						c2.7,4.7,7.6,7.6,13,7.6v0c5.3,0,10.2-2.9,12.8-7.5c0.2-0.3,0.2-0.6,0-0.8C26.9,7.4,22.6,4.9,17.1,4.9z"/>
				</g>
				<g id="Path_9086">
					<path class="st1" d="M22.4,13c0,3-2.5,5.5-5.5,5.5s-5.5-2.5-5.5-5.5c0-3,2.5-5.5,5.5-5.5c0,0,0,0,0,0C19.9,7.5,22.4,10,22.4,13
						 M12.6,13c0,2.4,1.9,4.3,4.3,4.3c2.4,0,4.3-1.9,4.3-4.3c0-2.4-1.9-4.3-4.3-4.3c0,0,0,0,0,0C14.5,8.8,12.6,10.7,12.6,13"/>
					<path class="st1" d="M16.9,18.8c-1.5,0-3-0.6-4.1-1.7c-1.1-1.1-1.7-2.5-1.7-4.1c0-3.2,2.6-5.8,5.7-5.8c3.2,0,5.8,2.6,5.8,5.7
						l0,0C22.6,16.2,20.1,18.8,16.9,18.8C16.9,18.8,16.9,18.8,16.9,18.8z M16.9,7.8c-2.9,0-5.3,2.4-5.3,5.3c0,1.4,0.6,2.7,1.5,3.7
						c1,1,2.3,1.5,3.7,1.5c0,0,0,0,0,0c2.9,0,5.3-2.4,5.3-5.3l0,0C22.1,10.1,19.8,7.8,16.9,7.8z M16.9,17.5
						C16.9,17.5,16.9,17.5,16.9,17.5c-2.5,0-4.5-2-4.5-4.5v0c0-2.5,2-4.5,4.5-4.5c2.5,0,4.5,2,4.5,4.5c0,1.2-0.5,2.3-1.3,3.2
						C19.2,17.1,18.1,17.5,16.9,17.5z M12.9,13c0,2.2,1.8,4,4,4c1.1,0,2.1-0.4,2.8-1.2c0.8-0.8,1.2-1.8,1.2-2.8c0-2.2-1.8-4-4-4
						C14.7,9,12.9,10.8,12.9,13L12.9,13z"/>
				</g>
			</g>
		</g>
	</g>
	<g id="Path_9120">
		<polygon class="st1" points="1380.3,2398.7 1377.8,2398.7 1377.8,2389.5 1369,2389.5 1369,2387 1380.3,2387 		"/>
	</g>
	<g id="Path_9121">
		<polygon class="st1" points="1380.3,2429.5 1369,2429.5 1369,2427 1377.8,2427 1377.8,2417.8 1380.3,2417.8 		"/>
	</g>
	<g id="Path_9122">
		<polygon class="st1" points="1336.7,2398.7 1334.2,2398.7 1334.2,2387 1345.5,2387 1345.5,2389.5 1336.7,2389.5 		"/>
	</g>
	<g id="Path_9123">
		<polygon class="st1" points="1345.5,2429.5 1334.2,2429.5 1334.2,2417.8 1336.7,2417.8 1336.7,2427 1345.5,2427 		"/>
	</g>
</g>
</svg>
