<?xml version="1.0" encoding="utf-8"?>
<!-- Generator: Adobe Illustrator 25.4.1, SVG Export Plug-In . SVG Version: 6.00 Build 0)  -->
<svg version="1.1" id="Layer_1" xmlns="http://www.w3.org/2000/svg" xmlns:xlink="http://www.w3.org/1999/xlink" x="0px" y="0px"
	 viewBox="0 0 45 45" style="enable-background:new 0 0 45 45;" xml:space="preserve">
<style type="text/css">
	.st0{fill:#2F93FF;}
	.st1{fill:none;}
</style>
<g id="Group_18860" transform="translate(-748.001 -2203)">
	<g id="Group_18856" transform="translate(755.955 2216.649)">
		<g id="Path_9194">
			<path class="st0" d="M2.7,20.9c-0.3,0-0.5-0.1-0.7-0.3c-0.4-0.4-0.4-1,0-1.4L21.4,0.4c0.4-0.4,1-0.4,1.4,0c0.4,0.4,0.4,1,0,1.4
				L3.3,20.6C3.2,20.8,2.9,20.9,2.7,20.9z"/>
		</g>
		<g id="Path_9195">
			<path class="st0" d="M23.5,7.8c-0.4,0-0.8-0.3-0.8-0.8V0.7h-6.9c-0.4,0-0.8-0.3-0.8-0.8s0.3-0.8,0.8-0.8h8.4V7
				C24.2,7.4,23.9,7.8,23.5,7.8z"/>
		</g>
	</g>
	<g id="Union_17" transform="translate(748 2203)">
		<g>
			<path class="st1" d="M0,45V17.6h12.1c0-0.4,0-0.7,0-1.1C12.1,7.4,19.4,0,28.5,0S45,7.4,45,16.5c0,9.1-7.4,16.5-16.5,16.5
				c-0.4,0-0.7,0-1.1,0V45H0z"/>
		</g>
		<g>
			<path class="st0" d="M24.9,42.5V30.2l2.7,0.2c0.3,0,0.6,0,0.9,0c3.7,0,7.2-1.5,9.9-4.1c2.6-2.6,4.1-6.1,4.1-9.9
				c0-3.7-1.5-7.2-4.1-9.9c-2.6-2.6-6.1-4.1-9.9-4.1c-3.7,0-7.2,1.5-9.9,4.1c-2.6,2.6-4.1,6.1-4.1,9.9c0,0.3,0,0.6,0,0.9l0.2,2.7
				H2.5v22.4H24.9 M27.4,45H0V17.6h12.1c0-0.4,0-0.7,0-1.1C12.1,7.4,19.4,0,28.5,0C37.6,0,45,7.4,45,16.5c0,9.1-7.4,16.5-16.5,16.5
				c-0.4,0-0.7,0-1.1,0V45z"/>
		</g>
	</g>
</g>
</svg>
